G75*
%MOIN*%
%OFA0B0*%
%FSLAX25Y25*%
%IPPOS*%
%LPD*%
%AMOC8*
5,1,8,0,0,1.08239X$1,22.5*
%
%ADD10C,0.00000*%
%ADD11R,0.06000X0.13000*%
%ADD12R,0.10000X0.10000*%
%ADD13R,0.06299X0.06102*%
%ADD14R,0.05512X0.04331*%
%ADD15R,0.04724X0.04724*%
%ADD16R,0.05906X0.02756*%
%ADD17R,0.02362X0.03937*%
%ADD18R,0.03150X0.03937*%
%ADD19R,0.18110X0.03937*%
%ADD20R,0.13386X0.06299*%
%ADD21R,0.04331X0.05512*%
D10*
X0003248Y0006189D02*
X0003248Y0368394D01*
X0003250Y0368518D01*
X0003256Y0368641D01*
X0003265Y0368765D01*
X0003279Y0368887D01*
X0003296Y0369010D01*
X0003318Y0369132D01*
X0003343Y0369253D01*
X0003372Y0369373D01*
X0003404Y0369492D01*
X0003441Y0369611D01*
X0003481Y0369728D01*
X0003524Y0369843D01*
X0003572Y0369958D01*
X0003623Y0370070D01*
X0003677Y0370181D01*
X0003735Y0370291D01*
X0003796Y0370398D01*
X0003861Y0370504D01*
X0003929Y0370607D01*
X0004000Y0370708D01*
X0004074Y0370807D01*
X0004151Y0370904D01*
X0004232Y0370998D01*
X0004315Y0371089D01*
X0004401Y0371178D01*
X0004490Y0371264D01*
X0004581Y0371347D01*
X0004675Y0371428D01*
X0004772Y0371505D01*
X0004871Y0371579D01*
X0004972Y0371650D01*
X0005075Y0371718D01*
X0005181Y0371783D01*
X0005288Y0371844D01*
X0005398Y0371902D01*
X0005509Y0371956D01*
X0005621Y0372007D01*
X0005736Y0372055D01*
X0005851Y0372098D01*
X0005968Y0372138D01*
X0006087Y0372175D01*
X0006206Y0372207D01*
X0006326Y0372236D01*
X0006447Y0372261D01*
X0006569Y0372283D01*
X0006692Y0372300D01*
X0006814Y0372314D01*
X0006938Y0372323D01*
X0007061Y0372329D01*
X0007185Y0372331D01*
X0278839Y0372331D01*
X0278963Y0372329D01*
X0279086Y0372323D01*
X0279210Y0372314D01*
X0279332Y0372300D01*
X0279455Y0372283D01*
X0279577Y0372261D01*
X0279698Y0372236D01*
X0279818Y0372207D01*
X0279937Y0372175D01*
X0280056Y0372138D01*
X0280173Y0372098D01*
X0280288Y0372055D01*
X0280403Y0372007D01*
X0280515Y0371956D01*
X0280626Y0371902D01*
X0280736Y0371844D01*
X0280843Y0371783D01*
X0280949Y0371718D01*
X0281052Y0371650D01*
X0281153Y0371579D01*
X0281252Y0371505D01*
X0281349Y0371428D01*
X0281443Y0371347D01*
X0281534Y0371264D01*
X0281623Y0371178D01*
X0281709Y0371089D01*
X0281792Y0370998D01*
X0281873Y0370904D01*
X0281950Y0370807D01*
X0282024Y0370708D01*
X0282095Y0370607D01*
X0282163Y0370504D01*
X0282228Y0370398D01*
X0282289Y0370291D01*
X0282347Y0370181D01*
X0282401Y0370070D01*
X0282452Y0369958D01*
X0282500Y0369843D01*
X0282543Y0369728D01*
X0282583Y0369611D01*
X0282620Y0369492D01*
X0282652Y0369373D01*
X0282681Y0369253D01*
X0282706Y0369132D01*
X0282728Y0369010D01*
X0282745Y0368887D01*
X0282759Y0368765D01*
X0282768Y0368641D01*
X0282774Y0368518D01*
X0282776Y0368394D01*
X0282776Y0006189D01*
X0282778Y0006065D01*
X0282784Y0005942D01*
X0282793Y0005818D01*
X0282807Y0005696D01*
X0282824Y0005573D01*
X0282846Y0005451D01*
X0282871Y0005330D01*
X0282900Y0005210D01*
X0282932Y0005091D01*
X0282969Y0004972D01*
X0283009Y0004855D01*
X0283052Y0004740D01*
X0283100Y0004625D01*
X0283151Y0004513D01*
X0283205Y0004402D01*
X0283263Y0004292D01*
X0283324Y0004185D01*
X0283389Y0004079D01*
X0283457Y0003976D01*
X0283528Y0003875D01*
X0283602Y0003776D01*
X0283679Y0003679D01*
X0283760Y0003585D01*
X0283843Y0003494D01*
X0283929Y0003405D01*
X0284018Y0003319D01*
X0284109Y0003236D01*
X0284203Y0003155D01*
X0284300Y0003078D01*
X0284399Y0003004D01*
X0284500Y0002933D01*
X0284603Y0002865D01*
X0284709Y0002800D01*
X0284816Y0002739D01*
X0284926Y0002681D01*
X0285037Y0002627D01*
X0285149Y0002576D01*
X0285264Y0002528D01*
X0285379Y0002485D01*
X0285496Y0002445D01*
X0285615Y0002408D01*
X0285734Y0002376D01*
X0285854Y0002347D01*
X0285975Y0002322D01*
X0286097Y0002300D01*
X0286220Y0002283D01*
X0286342Y0002269D01*
X0286466Y0002260D01*
X0286589Y0002254D01*
X0286713Y0002252D01*
X0558366Y0002252D01*
X0558490Y0002254D01*
X0558613Y0002260D01*
X0558737Y0002269D01*
X0558859Y0002283D01*
X0558982Y0002300D01*
X0559104Y0002322D01*
X0559225Y0002347D01*
X0559345Y0002376D01*
X0559464Y0002408D01*
X0559583Y0002445D01*
X0559700Y0002485D01*
X0559815Y0002528D01*
X0559930Y0002576D01*
X0560042Y0002627D01*
X0560153Y0002681D01*
X0560263Y0002739D01*
X0560370Y0002800D01*
X0560476Y0002865D01*
X0560579Y0002933D01*
X0560680Y0003004D01*
X0560779Y0003078D01*
X0560876Y0003155D01*
X0560970Y0003236D01*
X0561061Y0003319D01*
X0561150Y0003405D01*
X0561236Y0003494D01*
X0561319Y0003585D01*
X0561400Y0003679D01*
X0561477Y0003776D01*
X0561551Y0003875D01*
X0561622Y0003976D01*
X0561690Y0004079D01*
X0561755Y0004185D01*
X0561816Y0004292D01*
X0561874Y0004402D01*
X0561928Y0004513D01*
X0561979Y0004625D01*
X0562027Y0004740D01*
X0562070Y0004855D01*
X0562110Y0004972D01*
X0562147Y0005091D01*
X0562179Y0005210D01*
X0562208Y0005330D01*
X0562233Y0005451D01*
X0562255Y0005573D01*
X0562272Y0005696D01*
X0562286Y0005818D01*
X0562295Y0005942D01*
X0562301Y0006065D01*
X0562303Y0006189D01*
X0562303Y0368394D01*
X0562301Y0368518D01*
X0562295Y0368641D01*
X0562286Y0368765D01*
X0562272Y0368887D01*
X0562255Y0369010D01*
X0562233Y0369132D01*
X0562208Y0369253D01*
X0562179Y0369373D01*
X0562147Y0369492D01*
X0562110Y0369611D01*
X0562070Y0369728D01*
X0562027Y0369843D01*
X0561979Y0369958D01*
X0561928Y0370070D01*
X0561874Y0370181D01*
X0561816Y0370291D01*
X0561755Y0370398D01*
X0561690Y0370504D01*
X0561622Y0370607D01*
X0561551Y0370708D01*
X0561477Y0370807D01*
X0561400Y0370904D01*
X0561319Y0370998D01*
X0561236Y0371089D01*
X0561150Y0371178D01*
X0561061Y0371264D01*
X0560970Y0371347D01*
X0560876Y0371428D01*
X0560779Y0371505D01*
X0560680Y0371579D01*
X0560579Y0371650D01*
X0560476Y0371718D01*
X0560370Y0371783D01*
X0560263Y0371844D01*
X0560153Y0371902D01*
X0560042Y0371956D01*
X0559930Y0372007D01*
X0559815Y0372055D01*
X0559700Y0372098D01*
X0559583Y0372138D01*
X0559464Y0372175D01*
X0559345Y0372207D01*
X0559225Y0372236D01*
X0559104Y0372261D01*
X0558982Y0372283D01*
X0558859Y0372300D01*
X0558737Y0372314D01*
X0558613Y0372323D01*
X0558490Y0372329D01*
X0558366Y0372331D01*
X0286713Y0372331D01*
X0286589Y0372329D01*
X0286466Y0372323D01*
X0286342Y0372314D01*
X0286220Y0372300D01*
X0286097Y0372283D01*
X0285975Y0372261D01*
X0285854Y0372236D01*
X0285734Y0372207D01*
X0285615Y0372175D01*
X0285496Y0372138D01*
X0285379Y0372098D01*
X0285264Y0372055D01*
X0285149Y0372007D01*
X0285037Y0371956D01*
X0284926Y0371902D01*
X0284816Y0371844D01*
X0284709Y0371783D01*
X0284603Y0371718D01*
X0284500Y0371650D01*
X0284399Y0371579D01*
X0284300Y0371505D01*
X0284203Y0371428D01*
X0284109Y0371347D01*
X0284018Y0371264D01*
X0283929Y0371178D01*
X0283843Y0371089D01*
X0283760Y0370998D01*
X0283679Y0370904D01*
X0283602Y0370807D01*
X0283528Y0370708D01*
X0283457Y0370607D01*
X0283389Y0370504D01*
X0283324Y0370398D01*
X0283263Y0370291D01*
X0283205Y0370181D01*
X0283151Y0370070D01*
X0283100Y0369958D01*
X0283052Y0369843D01*
X0283009Y0369728D01*
X0282969Y0369611D01*
X0282932Y0369492D01*
X0282900Y0369373D01*
X0282871Y0369253D01*
X0282846Y0369132D01*
X0282824Y0369010D01*
X0282807Y0368887D01*
X0282793Y0368765D01*
X0282784Y0368641D01*
X0282778Y0368518D01*
X0282776Y0368394D01*
X0292618Y0360520D02*
X0292620Y0360673D01*
X0292626Y0360827D01*
X0292636Y0360980D01*
X0292650Y0361132D01*
X0292668Y0361285D01*
X0292690Y0361436D01*
X0292715Y0361587D01*
X0292745Y0361738D01*
X0292779Y0361888D01*
X0292816Y0362036D01*
X0292857Y0362184D01*
X0292902Y0362330D01*
X0292951Y0362476D01*
X0293004Y0362620D01*
X0293060Y0362762D01*
X0293120Y0362903D01*
X0293184Y0363043D01*
X0293251Y0363181D01*
X0293322Y0363317D01*
X0293397Y0363451D01*
X0293474Y0363583D01*
X0293556Y0363713D01*
X0293640Y0363841D01*
X0293728Y0363967D01*
X0293819Y0364090D01*
X0293913Y0364211D01*
X0294011Y0364329D01*
X0294111Y0364445D01*
X0294215Y0364558D01*
X0294321Y0364669D01*
X0294430Y0364777D01*
X0294542Y0364882D01*
X0294656Y0364983D01*
X0294774Y0365082D01*
X0294893Y0365178D01*
X0295015Y0365271D01*
X0295140Y0365360D01*
X0295267Y0365447D01*
X0295396Y0365529D01*
X0295527Y0365609D01*
X0295660Y0365685D01*
X0295795Y0365758D01*
X0295932Y0365827D01*
X0296071Y0365892D01*
X0296211Y0365954D01*
X0296353Y0366012D01*
X0296496Y0366067D01*
X0296641Y0366118D01*
X0296787Y0366165D01*
X0296934Y0366208D01*
X0297082Y0366247D01*
X0297231Y0366283D01*
X0297381Y0366314D01*
X0297532Y0366342D01*
X0297683Y0366366D01*
X0297836Y0366386D01*
X0297988Y0366402D01*
X0298141Y0366414D01*
X0298294Y0366422D01*
X0298447Y0366426D01*
X0298601Y0366426D01*
X0298754Y0366422D01*
X0298907Y0366414D01*
X0299060Y0366402D01*
X0299212Y0366386D01*
X0299365Y0366366D01*
X0299516Y0366342D01*
X0299667Y0366314D01*
X0299817Y0366283D01*
X0299966Y0366247D01*
X0300114Y0366208D01*
X0300261Y0366165D01*
X0300407Y0366118D01*
X0300552Y0366067D01*
X0300695Y0366012D01*
X0300837Y0365954D01*
X0300977Y0365892D01*
X0301116Y0365827D01*
X0301253Y0365758D01*
X0301388Y0365685D01*
X0301521Y0365609D01*
X0301652Y0365529D01*
X0301781Y0365447D01*
X0301908Y0365360D01*
X0302033Y0365271D01*
X0302155Y0365178D01*
X0302274Y0365082D01*
X0302392Y0364983D01*
X0302506Y0364882D01*
X0302618Y0364777D01*
X0302727Y0364669D01*
X0302833Y0364558D01*
X0302937Y0364445D01*
X0303037Y0364329D01*
X0303135Y0364211D01*
X0303229Y0364090D01*
X0303320Y0363967D01*
X0303408Y0363841D01*
X0303492Y0363713D01*
X0303574Y0363583D01*
X0303651Y0363451D01*
X0303726Y0363317D01*
X0303797Y0363181D01*
X0303864Y0363043D01*
X0303928Y0362903D01*
X0303988Y0362762D01*
X0304044Y0362620D01*
X0304097Y0362476D01*
X0304146Y0362330D01*
X0304191Y0362184D01*
X0304232Y0362036D01*
X0304269Y0361888D01*
X0304303Y0361738D01*
X0304333Y0361587D01*
X0304358Y0361436D01*
X0304380Y0361285D01*
X0304398Y0361132D01*
X0304412Y0360980D01*
X0304422Y0360827D01*
X0304428Y0360673D01*
X0304430Y0360520D01*
X0304428Y0360367D01*
X0304422Y0360213D01*
X0304412Y0360060D01*
X0304398Y0359908D01*
X0304380Y0359755D01*
X0304358Y0359604D01*
X0304333Y0359453D01*
X0304303Y0359302D01*
X0304269Y0359152D01*
X0304232Y0359004D01*
X0304191Y0358856D01*
X0304146Y0358710D01*
X0304097Y0358564D01*
X0304044Y0358420D01*
X0303988Y0358278D01*
X0303928Y0358137D01*
X0303864Y0357997D01*
X0303797Y0357859D01*
X0303726Y0357723D01*
X0303651Y0357589D01*
X0303574Y0357457D01*
X0303492Y0357327D01*
X0303408Y0357199D01*
X0303320Y0357073D01*
X0303229Y0356950D01*
X0303135Y0356829D01*
X0303037Y0356711D01*
X0302937Y0356595D01*
X0302833Y0356482D01*
X0302727Y0356371D01*
X0302618Y0356263D01*
X0302506Y0356158D01*
X0302392Y0356057D01*
X0302274Y0355958D01*
X0302155Y0355862D01*
X0302033Y0355769D01*
X0301908Y0355680D01*
X0301781Y0355593D01*
X0301652Y0355511D01*
X0301521Y0355431D01*
X0301388Y0355355D01*
X0301253Y0355282D01*
X0301116Y0355213D01*
X0300977Y0355148D01*
X0300837Y0355086D01*
X0300695Y0355028D01*
X0300552Y0354973D01*
X0300407Y0354922D01*
X0300261Y0354875D01*
X0300114Y0354832D01*
X0299966Y0354793D01*
X0299817Y0354757D01*
X0299667Y0354726D01*
X0299516Y0354698D01*
X0299365Y0354674D01*
X0299212Y0354654D01*
X0299060Y0354638D01*
X0298907Y0354626D01*
X0298754Y0354618D01*
X0298601Y0354614D01*
X0298447Y0354614D01*
X0298294Y0354618D01*
X0298141Y0354626D01*
X0297988Y0354638D01*
X0297836Y0354654D01*
X0297683Y0354674D01*
X0297532Y0354698D01*
X0297381Y0354726D01*
X0297231Y0354757D01*
X0297082Y0354793D01*
X0296934Y0354832D01*
X0296787Y0354875D01*
X0296641Y0354922D01*
X0296496Y0354973D01*
X0296353Y0355028D01*
X0296211Y0355086D01*
X0296071Y0355148D01*
X0295932Y0355213D01*
X0295795Y0355282D01*
X0295660Y0355355D01*
X0295527Y0355431D01*
X0295396Y0355511D01*
X0295267Y0355593D01*
X0295140Y0355680D01*
X0295015Y0355769D01*
X0294893Y0355862D01*
X0294774Y0355958D01*
X0294656Y0356057D01*
X0294542Y0356158D01*
X0294430Y0356263D01*
X0294321Y0356371D01*
X0294215Y0356482D01*
X0294111Y0356595D01*
X0294011Y0356711D01*
X0293913Y0356829D01*
X0293819Y0356950D01*
X0293728Y0357073D01*
X0293640Y0357199D01*
X0293556Y0357327D01*
X0293474Y0357457D01*
X0293397Y0357589D01*
X0293322Y0357723D01*
X0293251Y0357859D01*
X0293184Y0357997D01*
X0293120Y0358137D01*
X0293060Y0358278D01*
X0293004Y0358420D01*
X0292951Y0358564D01*
X0292902Y0358710D01*
X0292857Y0358856D01*
X0292816Y0359004D01*
X0292779Y0359152D01*
X0292745Y0359302D01*
X0292715Y0359453D01*
X0292690Y0359604D01*
X0292668Y0359755D01*
X0292650Y0359908D01*
X0292636Y0360060D01*
X0292626Y0360213D01*
X0292620Y0360367D01*
X0292618Y0360520D01*
X0261122Y0360520D02*
X0261124Y0360673D01*
X0261130Y0360827D01*
X0261140Y0360980D01*
X0261154Y0361132D01*
X0261172Y0361285D01*
X0261194Y0361436D01*
X0261219Y0361587D01*
X0261249Y0361738D01*
X0261283Y0361888D01*
X0261320Y0362036D01*
X0261361Y0362184D01*
X0261406Y0362330D01*
X0261455Y0362476D01*
X0261508Y0362620D01*
X0261564Y0362762D01*
X0261624Y0362903D01*
X0261688Y0363043D01*
X0261755Y0363181D01*
X0261826Y0363317D01*
X0261901Y0363451D01*
X0261978Y0363583D01*
X0262060Y0363713D01*
X0262144Y0363841D01*
X0262232Y0363967D01*
X0262323Y0364090D01*
X0262417Y0364211D01*
X0262515Y0364329D01*
X0262615Y0364445D01*
X0262719Y0364558D01*
X0262825Y0364669D01*
X0262934Y0364777D01*
X0263046Y0364882D01*
X0263160Y0364983D01*
X0263278Y0365082D01*
X0263397Y0365178D01*
X0263519Y0365271D01*
X0263644Y0365360D01*
X0263771Y0365447D01*
X0263900Y0365529D01*
X0264031Y0365609D01*
X0264164Y0365685D01*
X0264299Y0365758D01*
X0264436Y0365827D01*
X0264575Y0365892D01*
X0264715Y0365954D01*
X0264857Y0366012D01*
X0265000Y0366067D01*
X0265145Y0366118D01*
X0265291Y0366165D01*
X0265438Y0366208D01*
X0265586Y0366247D01*
X0265735Y0366283D01*
X0265885Y0366314D01*
X0266036Y0366342D01*
X0266187Y0366366D01*
X0266340Y0366386D01*
X0266492Y0366402D01*
X0266645Y0366414D01*
X0266798Y0366422D01*
X0266951Y0366426D01*
X0267105Y0366426D01*
X0267258Y0366422D01*
X0267411Y0366414D01*
X0267564Y0366402D01*
X0267716Y0366386D01*
X0267869Y0366366D01*
X0268020Y0366342D01*
X0268171Y0366314D01*
X0268321Y0366283D01*
X0268470Y0366247D01*
X0268618Y0366208D01*
X0268765Y0366165D01*
X0268911Y0366118D01*
X0269056Y0366067D01*
X0269199Y0366012D01*
X0269341Y0365954D01*
X0269481Y0365892D01*
X0269620Y0365827D01*
X0269757Y0365758D01*
X0269892Y0365685D01*
X0270025Y0365609D01*
X0270156Y0365529D01*
X0270285Y0365447D01*
X0270412Y0365360D01*
X0270537Y0365271D01*
X0270659Y0365178D01*
X0270778Y0365082D01*
X0270896Y0364983D01*
X0271010Y0364882D01*
X0271122Y0364777D01*
X0271231Y0364669D01*
X0271337Y0364558D01*
X0271441Y0364445D01*
X0271541Y0364329D01*
X0271639Y0364211D01*
X0271733Y0364090D01*
X0271824Y0363967D01*
X0271912Y0363841D01*
X0271996Y0363713D01*
X0272078Y0363583D01*
X0272155Y0363451D01*
X0272230Y0363317D01*
X0272301Y0363181D01*
X0272368Y0363043D01*
X0272432Y0362903D01*
X0272492Y0362762D01*
X0272548Y0362620D01*
X0272601Y0362476D01*
X0272650Y0362330D01*
X0272695Y0362184D01*
X0272736Y0362036D01*
X0272773Y0361888D01*
X0272807Y0361738D01*
X0272837Y0361587D01*
X0272862Y0361436D01*
X0272884Y0361285D01*
X0272902Y0361132D01*
X0272916Y0360980D01*
X0272926Y0360827D01*
X0272932Y0360673D01*
X0272934Y0360520D01*
X0272932Y0360367D01*
X0272926Y0360213D01*
X0272916Y0360060D01*
X0272902Y0359908D01*
X0272884Y0359755D01*
X0272862Y0359604D01*
X0272837Y0359453D01*
X0272807Y0359302D01*
X0272773Y0359152D01*
X0272736Y0359004D01*
X0272695Y0358856D01*
X0272650Y0358710D01*
X0272601Y0358564D01*
X0272548Y0358420D01*
X0272492Y0358278D01*
X0272432Y0358137D01*
X0272368Y0357997D01*
X0272301Y0357859D01*
X0272230Y0357723D01*
X0272155Y0357589D01*
X0272078Y0357457D01*
X0271996Y0357327D01*
X0271912Y0357199D01*
X0271824Y0357073D01*
X0271733Y0356950D01*
X0271639Y0356829D01*
X0271541Y0356711D01*
X0271441Y0356595D01*
X0271337Y0356482D01*
X0271231Y0356371D01*
X0271122Y0356263D01*
X0271010Y0356158D01*
X0270896Y0356057D01*
X0270778Y0355958D01*
X0270659Y0355862D01*
X0270537Y0355769D01*
X0270412Y0355680D01*
X0270285Y0355593D01*
X0270156Y0355511D01*
X0270025Y0355431D01*
X0269892Y0355355D01*
X0269757Y0355282D01*
X0269620Y0355213D01*
X0269481Y0355148D01*
X0269341Y0355086D01*
X0269199Y0355028D01*
X0269056Y0354973D01*
X0268911Y0354922D01*
X0268765Y0354875D01*
X0268618Y0354832D01*
X0268470Y0354793D01*
X0268321Y0354757D01*
X0268171Y0354726D01*
X0268020Y0354698D01*
X0267869Y0354674D01*
X0267716Y0354654D01*
X0267564Y0354638D01*
X0267411Y0354626D01*
X0267258Y0354618D01*
X0267105Y0354614D01*
X0266951Y0354614D01*
X0266798Y0354618D01*
X0266645Y0354626D01*
X0266492Y0354638D01*
X0266340Y0354654D01*
X0266187Y0354674D01*
X0266036Y0354698D01*
X0265885Y0354726D01*
X0265735Y0354757D01*
X0265586Y0354793D01*
X0265438Y0354832D01*
X0265291Y0354875D01*
X0265145Y0354922D01*
X0265000Y0354973D01*
X0264857Y0355028D01*
X0264715Y0355086D01*
X0264575Y0355148D01*
X0264436Y0355213D01*
X0264299Y0355282D01*
X0264164Y0355355D01*
X0264031Y0355431D01*
X0263900Y0355511D01*
X0263771Y0355593D01*
X0263644Y0355680D01*
X0263519Y0355769D01*
X0263397Y0355862D01*
X0263278Y0355958D01*
X0263160Y0356057D01*
X0263046Y0356158D01*
X0262934Y0356263D01*
X0262825Y0356371D01*
X0262719Y0356482D01*
X0262615Y0356595D01*
X0262515Y0356711D01*
X0262417Y0356829D01*
X0262323Y0356950D01*
X0262232Y0357073D01*
X0262144Y0357199D01*
X0262060Y0357327D01*
X0261978Y0357457D01*
X0261901Y0357589D01*
X0261826Y0357723D01*
X0261755Y0357859D01*
X0261688Y0357997D01*
X0261624Y0358137D01*
X0261564Y0358278D01*
X0261508Y0358420D01*
X0261455Y0358564D01*
X0261406Y0358710D01*
X0261361Y0358856D01*
X0261320Y0359004D01*
X0261283Y0359152D01*
X0261249Y0359302D01*
X0261219Y0359453D01*
X0261194Y0359604D01*
X0261172Y0359755D01*
X0261154Y0359908D01*
X0261140Y0360060D01*
X0261130Y0360213D01*
X0261124Y0360367D01*
X0261122Y0360520D01*
X0271752Y0327055D02*
X0271754Y0327139D01*
X0271760Y0327222D01*
X0271770Y0327305D01*
X0271784Y0327388D01*
X0271801Y0327470D01*
X0271823Y0327551D01*
X0271848Y0327630D01*
X0271877Y0327709D01*
X0271910Y0327786D01*
X0271946Y0327861D01*
X0271986Y0327935D01*
X0272029Y0328007D01*
X0272076Y0328076D01*
X0272126Y0328143D01*
X0272179Y0328208D01*
X0272235Y0328270D01*
X0272293Y0328330D01*
X0272355Y0328387D01*
X0272419Y0328440D01*
X0272486Y0328491D01*
X0272555Y0328538D01*
X0272626Y0328583D01*
X0272699Y0328623D01*
X0272774Y0328660D01*
X0272851Y0328694D01*
X0272929Y0328724D01*
X0273008Y0328750D01*
X0273089Y0328773D01*
X0273171Y0328791D01*
X0273253Y0328806D01*
X0273336Y0328817D01*
X0273419Y0328824D01*
X0273503Y0328827D01*
X0273587Y0328826D01*
X0273670Y0328821D01*
X0273754Y0328812D01*
X0273836Y0328799D01*
X0273918Y0328783D01*
X0273999Y0328762D01*
X0274080Y0328738D01*
X0274158Y0328710D01*
X0274236Y0328678D01*
X0274312Y0328642D01*
X0274386Y0328603D01*
X0274458Y0328561D01*
X0274528Y0328515D01*
X0274596Y0328466D01*
X0274661Y0328414D01*
X0274724Y0328359D01*
X0274784Y0328301D01*
X0274842Y0328240D01*
X0274896Y0328176D01*
X0274948Y0328110D01*
X0274996Y0328042D01*
X0275041Y0327971D01*
X0275082Y0327898D01*
X0275121Y0327824D01*
X0275155Y0327748D01*
X0275186Y0327670D01*
X0275213Y0327591D01*
X0275237Y0327510D01*
X0275256Y0327429D01*
X0275272Y0327347D01*
X0275284Y0327264D01*
X0275292Y0327180D01*
X0275296Y0327097D01*
X0275296Y0327013D01*
X0275292Y0326930D01*
X0275284Y0326846D01*
X0275272Y0326763D01*
X0275256Y0326681D01*
X0275237Y0326600D01*
X0275213Y0326519D01*
X0275186Y0326440D01*
X0275155Y0326362D01*
X0275121Y0326286D01*
X0275082Y0326212D01*
X0275041Y0326139D01*
X0274996Y0326068D01*
X0274948Y0326000D01*
X0274896Y0325934D01*
X0274842Y0325870D01*
X0274784Y0325809D01*
X0274724Y0325751D01*
X0274661Y0325696D01*
X0274596Y0325644D01*
X0274528Y0325595D01*
X0274458Y0325549D01*
X0274386Y0325507D01*
X0274312Y0325468D01*
X0274236Y0325432D01*
X0274158Y0325400D01*
X0274080Y0325372D01*
X0273999Y0325348D01*
X0273918Y0325327D01*
X0273836Y0325311D01*
X0273754Y0325298D01*
X0273670Y0325289D01*
X0273587Y0325284D01*
X0273503Y0325283D01*
X0273419Y0325286D01*
X0273336Y0325293D01*
X0273253Y0325304D01*
X0273171Y0325319D01*
X0273089Y0325337D01*
X0273008Y0325360D01*
X0272929Y0325386D01*
X0272851Y0325416D01*
X0272774Y0325450D01*
X0272699Y0325487D01*
X0272626Y0325527D01*
X0272555Y0325572D01*
X0272486Y0325619D01*
X0272419Y0325670D01*
X0272355Y0325723D01*
X0272293Y0325780D01*
X0272235Y0325840D01*
X0272179Y0325902D01*
X0272126Y0325967D01*
X0272076Y0326034D01*
X0272029Y0326103D01*
X0271986Y0326175D01*
X0271946Y0326249D01*
X0271910Y0326324D01*
X0271877Y0326401D01*
X0271848Y0326480D01*
X0271823Y0326559D01*
X0271801Y0326640D01*
X0271784Y0326722D01*
X0271770Y0326805D01*
X0271760Y0326888D01*
X0271754Y0326971D01*
X0271752Y0327055D01*
X0271752Y0315244D02*
X0271754Y0315328D01*
X0271760Y0315411D01*
X0271770Y0315494D01*
X0271784Y0315577D01*
X0271801Y0315659D01*
X0271823Y0315740D01*
X0271848Y0315819D01*
X0271877Y0315898D01*
X0271910Y0315975D01*
X0271946Y0316050D01*
X0271986Y0316124D01*
X0272029Y0316196D01*
X0272076Y0316265D01*
X0272126Y0316332D01*
X0272179Y0316397D01*
X0272235Y0316459D01*
X0272293Y0316519D01*
X0272355Y0316576D01*
X0272419Y0316629D01*
X0272486Y0316680D01*
X0272555Y0316727D01*
X0272626Y0316772D01*
X0272699Y0316812D01*
X0272774Y0316849D01*
X0272851Y0316883D01*
X0272929Y0316913D01*
X0273008Y0316939D01*
X0273089Y0316962D01*
X0273171Y0316980D01*
X0273253Y0316995D01*
X0273336Y0317006D01*
X0273419Y0317013D01*
X0273503Y0317016D01*
X0273587Y0317015D01*
X0273670Y0317010D01*
X0273754Y0317001D01*
X0273836Y0316988D01*
X0273918Y0316972D01*
X0273999Y0316951D01*
X0274080Y0316927D01*
X0274158Y0316899D01*
X0274236Y0316867D01*
X0274312Y0316831D01*
X0274386Y0316792D01*
X0274458Y0316750D01*
X0274528Y0316704D01*
X0274596Y0316655D01*
X0274661Y0316603D01*
X0274724Y0316548D01*
X0274784Y0316490D01*
X0274842Y0316429D01*
X0274896Y0316365D01*
X0274948Y0316299D01*
X0274996Y0316231D01*
X0275041Y0316160D01*
X0275082Y0316087D01*
X0275121Y0316013D01*
X0275155Y0315937D01*
X0275186Y0315859D01*
X0275213Y0315780D01*
X0275237Y0315699D01*
X0275256Y0315618D01*
X0275272Y0315536D01*
X0275284Y0315453D01*
X0275292Y0315369D01*
X0275296Y0315286D01*
X0275296Y0315202D01*
X0275292Y0315119D01*
X0275284Y0315035D01*
X0275272Y0314952D01*
X0275256Y0314870D01*
X0275237Y0314789D01*
X0275213Y0314708D01*
X0275186Y0314629D01*
X0275155Y0314551D01*
X0275121Y0314475D01*
X0275082Y0314401D01*
X0275041Y0314328D01*
X0274996Y0314257D01*
X0274948Y0314189D01*
X0274896Y0314123D01*
X0274842Y0314059D01*
X0274784Y0313998D01*
X0274724Y0313940D01*
X0274661Y0313885D01*
X0274596Y0313833D01*
X0274528Y0313784D01*
X0274458Y0313738D01*
X0274386Y0313696D01*
X0274312Y0313657D01*
X0274236Y0313621D01*
X0274158Y0313589D01*
X0274080Y0313561D01*
X0273999Y0313537D01*
X0273918Y0313516D01*
X0273836Y0313500D01*
X0273754Y0313487D01*
X0273670Y0313478D01*
X0273587Y0313473D01*
X0273503Y0313472D01*
X0273419Y0313475D01*
X0273336Y0313482D01*
X0273253Y0313493D01*
X0273171Y0313508D01*
X0273089Y0313526D01*
X0273008Y0313549D01*
X0272929Y0313575D01*
X0272851Y0313605D01*
X0272774Y0313639D01*
X0272699Y0313676D01*
X0272626Y0313716D01*
X0272555Y0313761D01*
X0272486Y0313808D01*
X0272419Y0313859D01*
X0272355Y0313912D01*
X0272293Y0313969D01*
X0272235Y0314029D01*
X0272179Y0314091D01*
X0272126Y0314156D01*
X0272076Y0314223D01*
X0272029Y0314292D01*
X0271986Y0314364D01*
X0271946Y0314438D01*
X0271910Y0314513D01*
X0271877Y0314590D01*
X0271848Y0314669D01*
X0271823Y0314748D01*
X0271801Y0314829D01*
X0271784Y0314911D01*
X0271770Y0314994D01*
X0271760Y0315077D01*
X0271754Y0315160D01*
X0271752Y0315244D01*
X0013090Y0360520D02*
X0013092Y0360673D01*
X0013098Y0360827D01*
X0013108Y0360980D01*
X0013122Y0361132D01*
X0013140Y0361285D01*
X0013162Y0361436D01*
X0013187Y0361587D01*
X0013217Y0361738D01*
X0013251Y0361888D01*
X0013288Y0362036D01*
X0013329Y0362184D01*
X0013374Y0362330D01*
X0013423Y0362476D01*
X0013476Y0362620D01*
X0013532Y0362762D01*
X0013592Y0362903D01*
X0013656Y0363043D01*
X0013723Y0363181D01*
X0013794Y0363317D01*
X0013869Y0363451D01*
X0013946Y0363583D01*
X0014028Y0363713D01*
X0014112Y0363841D01*
X0014200Y0363967D01*
X0014291Y0364090D01*
X0014385Y0364211D01*
X0014483Y0364329D01*
X0014583Y0364445D01*
X0014687Y0364558D01*
X0014793Y0364669D01*
X0014902Y0364777D01*
X0015014Y0364882D01*
X0015128Y0364983D01*
X0015246Y0365082D01*
X0015365Y0365178D01*
X0015487Y0365271D01*
X0015612Y0365360D01*
X0015739Y0365447D01*
X0015868Y0365529D01*
X0015999Y0365609D01*
X0016132Y0365685D01*
X0016267Y0365758D01*
X0016404Y0365827D01*
X0016543Y0365892D01*
X0016683Y0365954D01*
X0016825Y0366012D01*
X0016968Y0366067D01*
X0017113Y0366118D01*
X0017259Y0366165D01*
X0017406Y0366208D01*
X0017554Y0366247D01*
X0017703Y0366283D01*
X0017853Y0366314D01*
X0018004Y0366342D01*
X0018155Y0366366D01*
X0018308Y0366386D01*
X0018460Y0366402D01*
X0018613Y0366414D01*
X0018766Y0366422D01*
X0018919Y0366426D01*
X0019073Y0366426D01*
X0019226Y0366422D01*
X0019379Y0366414D01*
X0019532Y0366402D01*
X0019684Y0366386D01*
X0019837Y0366366D01*
X0019988Y0366342D01*
X0020139Y0366314D01*
X0020289Y0366283D01*
X0020438Y0366247D01*
X0020586Y0366208D01*
X0020733Y0366165D01*
X0020879Y0366118D01*
X0021024Y0366067D01*
X0021167Y0366012D01*
X0021309Y0365954D01*
X0021449Y0365892D01*
X0021588Y0365827D01*
X0021725Y0365758D01*
X0021860Y0365685D01*
X0021993Y0365609D01*
X0022124Y0365529D01*
X0022253Y0365447D01*
X0022380Y0365360D01*
X0022505Y0365271D01*
X0022627Y0365178D01*
X0022746Y0365082D01*
X0022864Y0364983D01*
X0022978Y0364882D01*
X0023090Y0364777D01*
X0023199Y0364669D01*
X0023305Y0364558D01*
X0023409Y0364445D01*
X0023509Y0364329D01*
X0023607Y0364211D01*
X0023701Y0364090D01*
X0023792Y0363967D01*
X0023880Y0363841D01*
X0023964Y0363713D01*
X0024046Y0363583D01*
X0024123Y0363451D01*
X0024198Y0363317D01*
X0024269Y0363181D01*
X0024336Y0363043D01*
X0024400Y0362903D01*
X0024460Y0362762D01*
X0024516Y0362620D01*
X0024569Y0362476D01*
X0024618Y0362330D01*
X0024663Y0362184D01*
X0024704Y0362036D01*
X0024741Y0361888D01*
X0024775Y0361738D01*
X0024805Y0361587D01*
X0024830Y0361436D01*
X0024852Y0361285D01*
X0024870Y0361132D01*
X0024884Y0360980D01*
X0024894Y0360827D01*
X0024900Y0360673D01*
X0024902Y0360520D01*
X0024900Y0360367D01*
X0024894Y0360213D01*
X0024884Y0360060D01*
X0024870Y0359908D01*
X0024852Y0359755D01*
X0024830Y0359604D01*
X0024805Y0359453D01*
X0024775Y0359302D01*
X0024741Y0359152D01*
X0024704Y0359004D01*
X0024663Y0358856D01*
X0024618Y0358710D01*
X0024569Y0358564D01*
X0024516Y0358420D01*
X0024460Y0358278D01*
X0024400Y0358137D01*
X0024336Y0357997D01*
X0024269Y0357859D01*
X0024198Y0357723D01*
X0024123Y0357589D01*
X0024046Y0357457D01*
X0023964Y0357327D01*
X0023880Y0357199D01*
X0023792Y0357073D01*
X0023701Y0356950D01*
X0023607Y0356829D01*
X0023509Y0356711D01*
X0023409Y0356595D01*
X0023305Y0356482D01*
X0023199Y0356371D01*
X0023090Y0356263D01*
X0022978Y0356158D01*
X0022864Y0356057D01*
X0022746Y0355958D01*
X0022627Y0355862D01*
X0022505Y0355769D01*
X0022380Y0355680D01*
X0022253Y0355593D01*
X0022124Y0355511D01*
X0021993Y0355431D01*
X0021860Y0355355D01*
X0021725Y0355282D01*
X0021588Y0355213D01*
X0021449Y0355148D01*
X0021309Y0355086D01*
X0021167Y0355028D01*
X0021024Y0354973D01*
X0020879Y0354922D01*
X0020733Y0354875D01*
X0020586Y0354832D01*
X0020438Y0354793D01*
X0020289Y0354757D01*
X0020139Y0354726D01*
X0019988Y0354698D01*
X0019837Y0354674D01*
X0019684Y0354654D01*
X0019532Y0354638D01*
X0019379Y0354626D01*
X0019226Y0354618D01*
X0019073Y0354614D01*
X0018919Y0354614D01*
X0018766Y0354618D01*
X0018613Y0354626D01*
X0018460Y0354638D01*
X0018308Y0354654D01*
X0018155Y0354674D01*
X0018004Y0354698D01*
X0017853Y0354726D01*
X0017703Y0354757D01*
X0017554Y0354793D01*
X0017406Y0354832D01*
X0017259Y0354875D01*
X0017113Y0354922D01*
X0016968Y0354973D01*
X0016825Y0355028D01*
X0016683Y0355086D01*
X0016543Y0355148D01*
X0016404Y0355213D01*
X0016267Y0355282D01*
X0016132Y0355355D01*
X0015999Y0355431D01*
X0015868Y0355511D01*
X0015739Y0355593D01*
X0015612Y0355680D01*
X0015487Y0355769D01*
X0015365Y0355862D01*
X0015246Y0355958D01*
X0015128Y0356057D01*
X0015014Y0356158D01*
X0014902Y0356263D01*
X0014793Y0356371D01*
X0014687Y0356482D01*
X0014583Y0356595D01*
X0014483Y0356711D01*
X0014385Y0356829D01*
X0014291Y0356950D01*
X0014200Y0357073D01*
X0014112Y0357199D01*
X0014028Y0357327D01*
X0013946Y0357457D01*
X0013869Y0357589D01*
X0013794Y0357723D01*
X0013723Y0357859D01*
X0013656Y0357997D01*
X0013592Y0358137D01*
X0013532Y0358278D01*
X0013476Y0358420D01*
X0013423Y0358564D01*
X0013374Y0358710D01*
X0013329Y0358856D01*
X0013288Y0359004D01*
X0013251Y0359152D01*
X0013217Y0359302D01*
X0013187Y0359453D01*
X0013162Y0359604D01*
X0013140Y0359755D01*
X0013122Y0359908D01*
X0013108Y0360060D01*
X0013098Y0360213D01*
X0013092Y0360367D01*
X0013090Y0360520D01*
X0261122Y0136110D02*
X0261124Y0136263D01*
X0261130Y0136417D01*
X0261140Y0136570D01*
X0261154Y0136722D01*
X0261172Y0136875D01*
X0261194Y0137026D01*
X0261219Y0137177D01*
X0261249Y0137328D01*
X0261283Y0137478D01*
X0261320Y0137626D01*
X0261361Y0137774D01*
X0261406Y0137920D01*
X0261455Y0138066D01*
X0261508Y0138210D01*
X0261564Y0138352D01*
X0261624Y0138493D01*
X0261688Y0138633D01*
X0261755Y0138771D01*
X0261826Y0138907D01*
X0261901Y0139041D01*
X0261978Y0139173D01*
X0262060Y0139303D01*
X0262144Y0139431D01*
X0262232Y0139557D01*
X0262323Y0139680D01*
X0262417Y0139801D01*
X0262515Y0139919D01*
X0262615Y0140035D01*
X0262719Y0140148D01*
X0262825Y0140259D01*
X0262934Y0140367D01*
X0263046Y0140472D01*
X0263160Y0140573D01*
X0263278Y0140672D01*
X0263397Y0140768D01*
X0263519Y0140861D01*
X0263644Y0140950D01*
X0263771Y0141037D01*
X0263900Y0141119D01*
X0264031Y0141199D01*
X0264164Y0141275D01*
X0264299Y0141348D01*
X0264436Y0141417D01*
X0264575Y0141482D01*
X0264715Y0141544D01*
X0264857Y0141602D01*
X0265000Y0141657D01*
X0265145Y0141708D01*
X0265291Y0141755D01*
X0265438Y0141798D01*
X0265586Y0141837D01*
X0265735Y0141873D01*
X0265885Y0141904D01*
X0266036Y0141932D01*
X0266187Y0141956D01*
X0266340Y0141976D01*
X0266492Y0141992D01*
X0266645Y0142004D01*
X0266798Y0142012D01*
X0266951Y0142016D01*
X0267105Y0142016D01*
X0267258Y0142012D01*
X0267411Y0142004D01*
X0267564Y0141992D01*
X0267716Y0141976D01*
X0267869Y0141956D01*
X0268020Y0141932D01*
X0268171Y0141904D01*
X0268321Y0141873D01*
X0268470Y0141837D01*
X0268618Y0141798D01*
X0268765Y0141755D01*
X0268911Y0141708D01*
X0269056Y0141657D01*
X0269199Y0141602D01*
X0269341Y0141544D01*
X0269481Y0141482D01*
X0269620Y0141417D01*
X0269757Y0141348D01*
X0269892Y0141275D01*
X0270025Y0141199D01*
X0270156Y0141119D01*
X0270285Y0141037D01*
X0270412Y0140950D01*
X0270537Y0140861D01*
X0270659Y0140768D01*
X0270778Y0140672D01*
X0270896Y0140573D01*
X0271010Y0140472D01*
X0271122Y0140367D01*
X0271231Y0140259D01*
X0271337Y0140148D01*
X0271441Y0140035D01*
X0271541Y0139919D01*
X0271639Y0139801D01*
X0271733Y0139680D01*
X0271824Y0139557D01*
X0271912Y0139431D01*
X0271996Y0139303D01*
X0272078Y0139173D01*
X0272155Y0139041D01*
X0272230Y0138907D01*
X0272301Y0138771D01*
X0272368Y0138633D01*
X0272432Y0138493D01*
X0272492Y0138352D01*
X0272548Y0138210D01*
X0272601Y0138066D01*
X0272650Y0137920D01*
X0272695Y0137774D01*
X0272736Y0137626D01*
X0272773Y0137478D01*
X0272807Y0137328D01*
X0272837Y0137177D01*
X0272862Y0137026D01*
X0272884Y0136875D01*
X0272902Y0136722D01*
X0272916Y0136570D01*
X0272926Y0136417D01*
X0272932Y0136263D01*
X0272934Y0136110D01*
X0272932Y0135957D01*
X0272926Y0135803D01*
X0272916Y0135650D01*
X0272902Y0135498D01*
X0272884Y0135345D01*
X0272862Y0135194D01*
X0272837Y0135043D01*
X0272807Y0134892D01*
X0272773Y0134742D01*
X0272736Y0134594D01*
X0272695Y0134446D01*
X0272650Y0134300D01*
X0272601Y0134154D01*
X0272548Y0134010D01*
X0272492Y0133868D01*
X0272432Y0133727D01*
X0272368Y0133587D01*
X0272301Y0133449D01*
X0272230Y0133313D01*
X0272155Y0133179D01*
X0272078Y0133047D01*
X0271996Y0132917D01*
X0271912Y0132789D01*
X0271824Y0132663D01*
X0271733Y0132540D01*
X0271639Y0132419D01*
X0271541Y0132301D01*
X0271441Y0132185D01*
X0271337Y0132072D01*
X0271231Y0131961D01*
X0271122Y0131853D01*
X0271010Y0131748D01*
X0270896Y0131647D01*
X0270778Y0131548D01*
X0270659Y0131452D01*
X0270537Y0131359D01*
X0270412Y0131270D01*
X0270285Y0131183D01*
X0270156Y0131101D01*
X0270025Y0131021D01*
X0269892Y0130945D01*
X0269757Y0130872D01*
X0269620Y0130803D01*
X0269481Y0130738D01*
X0269341Y0130676D01*
X0269199Y0130618D01*
X0269056Y0130563D01*
X0268911Y0130512D01*
X0268765Y0130465D01*
X0268618Y0130422D01*
X0268470Y0130383D01*
X0268321Y0130347D01*
X0268171Y0130316D01*
X0268020Y0130288D01*
X0267869Y0130264D01*
X0267716Y0130244D01*
X0267564Y0130228D01*
X0267411Y0130216D01*
X0267258Y0130208D01*
X0267105Y0130204D01*
X0266951Y0130204D01*
X0266798Y0130208D01*
X0266645Y0130216D01*
X0266492Y0130228D01*
X0266340Y0130244D01*
X0266187Y0130264D01*
X0266036Y0130288D01*
X0265885Y0130316D01*
X0265735Y0130347D01*
X0265586Y0130383D01*
X0265438Y0130422D01*
X0265291Y0130465D01*
X0265145Y0130512D01*
X0265000Y0130563D01*
X0264857Y0130618D01*
X0264715Y0130676D01*
X0264575Y0130738D01*
X0264436Y0130803D01*
X0264299Y0130872D01*
X0264164Y0130945D01*
X0264031Y0131021D01*
X0263900Y0131101D01*
X0263771Y0131183D01*
X0263644Y0131270D01*
X0263519Y0131359D01*
X0263397Y0131452D01*
X0263278Y0131548D01*
X0263160Y0131647D01*
X0263046Y0131748D01*
X0262934Y0131853D01*
X0262825Y0131961D01*
X0262719Y0132072D01*
X0262615Y0132185D01*
X0262515Y0132301D01*
X0262417Y0132419D01*
X0262323Y0132540D01*
X0262232Y0132663D01*
X0262144Y0132789D01*
X0262060Y0132917D01*
X0261978Y0133047D01*
X0261901Y0133179D01*
X0261826Y0133313D01*
X0261755Y0133449D01*
X0261688Y0133587D01*
X0261624Y0133727D01*
X0261564Y0133868D01*
X0261508Y0134010D01*
X0261455Y0134154D01*
X0261406Y0134300D01*
X0261361Y0134446D01*
X0261320Y0134594D01*
X0261283Y0134742D01*
X0261249Y0134892D01*
X0261219Y0135043D01*
X0261194Y0135194D01*
X0261172Y0135345D01*
X0261154Y0135498D01*
X0261140Y0135650D01*
X0261130Y0135803D01*
X0261124Y0135957D01*
X0261122Y0136110D01*
X0261122Y0018000D02*
X0261124Y0018153D01*
X0261130Y0018307D01*
X0261140Y0018460D01*
X0261154Y0018612D01*
X0261172Y0018765D01*
X0261194Y0018916D01*
X0261219Y0019067D01*
X0261249Y0019218D01*
X0261283Y0019368D01*
X0261320Y0019516D01*
X0261361Y0019664D01*
X0261406Y0019810D01*
X0261455Y0019956D01*
X0261508Y0020100D01*
X0261564Y0020242D01*
X0261624Y0020383D01*
X0261688Y0020523D01*
X0261755Y0020661D01*
X0261826Y0020797D01*
X0261901Y0020931D01*
X0261978Y0021063D01*
X0262060Y0021193D01*
X0262144Y0021321D01*
X0262232Y0021447D01*
X0262323Y0021570D01*
X0262417Y0021691D01*
X0262515Y0021809D01*
X0262615Y0021925D01*
X0262719Y0022038D01*
X0262825Y0022149D01*
X0262934Y0022257D01*
X0263046Y0022362D01*
X0263160Y0022463D01*
X0263278Y0022562D01*
X0263397Y0022658D01*
X0263519Y0022751D01*
X0263644Y0022840D01*
X0263771Y0022927D01*
X0263900Y0023009D01*
X0264031Y0023089D01*
X0264164Y0023165D01*
X0264299Y0023238D01*
X0264436Y0023307D01*
X0264575Y0023372D01*
X0264715Y0023434D01*
X0264857Y0023492D01*
X0265000Y0023547D01*
X0265145Y0023598D01*
X0265291Y0023645D01*
X0265438Y0023688D01*
X0265586Y0023727D01*
X0265735Y0023763D01*
X0265885Y0023794D01*
X0266036Y0023822D01*
X0266187Y0023846D01*
X0266340Y0023866D01*
X0266492Y0023882D01*
X0266645Y0023894D01*
X0266798Y0023902D01*
X0266951Y0023906D01*
X0267105Y0023906D01*
X0267258Y0023902D01*
X0267411Y0023894D01*
X0267564Y0023882D01*
X0267716Y0023866D01*
X0267869Y0023846D01*
X0268020Y0023822D01*
X0268171Y0023794D01*
X0268321Y0023763D01*
X0268470Y0023727D01*
X0268618Y0023688D01*
X0268765Y0023645D01*
X0268911Y0023598D01*
X0269056Y0023547D01*
X0269199Y0023492D01*
X0269341Y0023434D01*
X0269481Y0023372D01*
X0269620Y0023307D01*
X0269757Y0023238D01*
X0269892Y0023165D01*
X0270025Y0023089D01*
X0270156Y0023009D01*
X0270285Y0022927D01*
X0270412Y0022840D01*
X0270537Y0022751D01*
X0270659Y0022658D01*
X0270778Y0022562D01*
X0270896Y0022463D01*
X0271010Y0022362D01*
X0271122Y0022257D01*
X0271231Y0022149D01*
X0271337Y0022038D01*
X0271441Y0021925D01*
X0271541Y0021809D01*
X0271639Y0021691D01*
X0271733Y0021570D01*
X0271824Y0021447D01*
X0271912Y0021321D01*
X0271996Y0021193D01*
X0272078Y0021063D01*
X0272155Y0020931D01*
X0272230Y0020797D01*
X0272301Y0020661D01*
X0272368Y0020523D01*
X0272432Y0020383D01*
X0272492Y0020242D01*
X0272548Y0020100D01*
X0272601Y0019956D01*
X0272650Y0019810D01*
X0272695Y0019664D01*
X0272736Y0019516D01*
X0272773Y0019368D01*
X0272807Y0019218D01*
X0272837Y0019067D01*
X0272862Y0018916D01*
X0272884Y0018765D01*
X0272902Y0018612D01*
X0272916Y0018460D01*
X0272926Y0018307D01*
X0272932Y0018153D01*
X0272934Y0018000D01*
X0272932Y0017847D01*
X0272926Y0017693D01*
X0272916Y0017540D01*
X0272902Y0017388D01*
X0272884Y0017235D01*
X0272862Y0017084D01*
X0272837Y0016933D01*
X0272807Y0016782D01*
X0272773Y0016632D01*
X0272736Y0016484D01*
X0272695Y0016336D01*
X0272650Y0016190D01*
X0272601Y0016044D01*
X0272548Y0015900D01*
X0272492Y0015758D01*
X0272432Y0015617D01*
X0272368Y0015477D01*
X0272301Y0015339D01*
X0272230Y0015203D01*
X0272155Y0015069D01*
X0272078Y0014937D01*
X0271996Y0014807D01*
X0271912Y0014679D01*
X0271824Y0014553D01*
X0271733Y0014430D01*
X0271639Y0014309D01*
X0271541Y0014191D01*
X0271441Y0014075D01*
X0271337Y0013962D01*
X0271231Y0013851D01*
X0271122Y0013743D01*
X0271010Y0013638D01*
X0270896Y0013537D01*
X0270778Y0013438D01*
X0270659Y0013342D01*
X0270537Y0013249D01*
X0270412Y0013160D01*
X0270285Y0013073D01*
X0270156Y0012991D01*
X0270025Y0012911D01*
X0269892Y0012835D01*
X0269757Y0012762D01*
X0269620Y0012693D01*
X0269481Y0012628D01*
X0269341Y0012566D01*
X0269199Y0012508D01*
X0269056Y0012453D01*
X0268911Y0012402D01*
X0268765Y0012355D01*
X0268618Y0012312D01*
X0268470Y0012273D01*
X0268321Y0012237D01*
X0268171Y0012206D01*
X0268020Y0012178D01*
X0267869Y0012154D01*
X0267716Y0012134D01*
X0267564Y0012118D01*
X0267411Y0012106D01*
X0267258Y0012098D01*
X0267105Y0012094D01*
X0266951Y0012094D01*
X0266798Y0012098D01*
X0266645Y0012106D01*
X0266492Y0012118D01*
X0266340Y0012134D01*
X0266187Y0012154D01*
X0266036Y0012178D01*
X0265885Y0012206D01*
X0265735Y0012237D01*
X0265586Y0012273D01*
X0265438Y0012312D01*
X0265291Y0012355D01*
X0265145Y0012402D01*
X0265000Y0012453D01*
X0264857Y0012508D01*
X0264715Y0012566D01*
X0264575Y0012628D01*
X0264436Y0012693D01*
X0264299Y0012762D01*
X0264164Y0012835D01*
X0264031Y0012911D01*
X0263900Y0012991D01*
X0263771Y0013073D01*
X0263644Y0013160D01*
X0263519Y0013249D01*
X0263397Y0013342D01*
X0263278Y0013438D01*
X0263160Y0013537D01*
X0263046Y0013638D01*
X0262934Y0013743D01*
X0262825Y0013851D01*
X0262719Y0013962D01*
X0262615Y0014075D01*
X0262515Y0014191D01*
X0262417Y0014309D01*
X0262323Y0014430D01*
X0262232Y0014553D01*
X0262144Y0014679D01*
X0262060Y0014807D01*
X0261978Y0014937D01*
X0261901Y0015069D01*
X0261826Y0015203D01*
X0261755Y0015339D01*
X0261688Y0015477D01*
X0261624Y0015617D01*
X0261564Y0015758D01*
X0261508Y0015900D01*
X0261455Y0016044D01*
X0261406Y0016190D01*
X0261361Y0016336D01*
X0261320Y0016484D01*
X0261283Y0016632D01*
X0261249Y0016782D01*
X0261219Y0016933D01*
X0261194Y0017084D01*
X0261172Y0017235D01*
X0261154Y0017388D01*
X0261140Y0017540D01*
X0261130Y0017693D01*
X0261124Y0017847D01*
X0261122Y0018000D01*
X0278839Y0002252D02*
X0278963Y0002254D01*
X0279086Y0002260D01*
X0279210Y0002269D01*
X0279332Y0002283D01*
X0279455Y0002300D01*
X0279577Y0002322D01*
X0279698Y0002347D01*
X0279818Y0002376D01*
X0279937Y0002408D01*
X0280056Y0002445D01*
X0280173Y0002485D01*
X0280288Y0002528D01*
X0280403Y0002576D01*
X0280515Y0002627D01*
X0280626Y0002681D01*
X0280736Y0002739D01*
X0280843Y0002800D01*
X0280949Y0002865D01*
X0281052Y0002933D01*
X0281153Y0003004D01*
X0281252Y0003078D01*
X0281349Y0003155D01*
X0281443Y0003236D01*
X0281534Y0003319D01*
X0281623Y0003405D01*
X0281709Y0003494D01*
X0281792Y0003585D01*
X0281873Y0003679D01*
X0281950Y0003776D01*
X0282024Y0003875D01*
X0282095Y0003976D01*
X0282163Y0004079D01*
X0282228Y0004185D01*
X0282289Y0004292D01*
X0282347Y0004402D01*
X0282401Y0004513D01*
X0282452Y0004625D01*
X0282500Y0004740D01*
X0282543Y0004855D01*
X0282583Y0004972D01*
X0282620Y0005091D01*
X0282652Y0005210D01*
X0282681Y0005330D01*
X0282706Y0005451D01*
X0282728Y0005573D01*
X0282745Y0005696D01*
X0282759Y0005818D01*
X0282768Y0005942D01*
X0282774Y0006065D01*
X0282776Y0006189D01*
X0278839Y0002252D02*
X0007185Y0002252D01*
X0007061Y0002254D01*
X0006938Y0002260D01*
X0006814Y0002269D01*
X0006692Y0002283D01*
X0006569Y0002300D01*
X0006447Y0002322D01*
X0006326Y0002347D01*
X0006206Y0002376D01*
X0006087Y0002408D01*
X0005968Y0002445D01*
X0005851Y0002485D01*
X0005736Y0002528D01*
X0005621Y0002576D01*
X0005509Y0002627D01*
X0005398Y0002681D01*
X0005288Y0002739D01*
X0005181Y0002800D01*
X0005075Y0002865D01*
X0004972Y0002933D01*
X0004871Y0003004D01*
X0004772Y0003078D01*
X0004675Y0003155D01*
X0004581Y0003236D01*
X0004490Y0003319D01*
X0004401Y0003405D01*
X0004315Y0003494D01*
X0004232Y0003585D01*
X0004151Y0003679D01*
X0004074Y0003776D01*
X0004000Y0003875D01*
X0003929Y0003976D01*
X0003861Y0004079D01*
X0003796Y0004185D01*
X0003735Y0004292D01*
X0003677Y0004402D01*
X0003623Y0004513D01*
X0003572Y0004625D01*
X0003524Y0004740D01*
X0003481Y0004855D01*
X0003441Y0004972D01*
X0003404Y0005091D01*
X0003372Y0005210D01*
X0003343Y0005330D01*
X0003318Y0005451D01*
X0003296Y0005573D01*
X0003279Y0005696D01*
X0003265Y0005818D01*
X0003256Y0005942D01*
X0003250Y0006065D01*
X0003248Y0006189D01*
X0013090Y0018000D02*
X0013092Y0018153D01*
X0013098Y0018307D01*
X0013108Y0018460D01*
X0013122Y0018612D01*
X0013140Y0018765D01*
X0013162Y0018916D01*
X0013187Y0019067D01*
X0013217Y0019218D01*
X0013251Y0019368D01*
X0013288Y0019516D01*
X0013329Y0019664D01*
X0013374Y0019810D01*
X0013423Y0019956D01*
X0013476Y0020100D01*
X0013532Y0020242D01*
X0013592Y0020383D01*
X0013656Y0020523D01*
X0013723Y0020661D01*
X0013794Y0020797D01*
X0013869Y0020931D01*
X0013946Y0021063D01*
X0014028Y0021193D01*
X0014112Y0021321D01*
X0014200Y0021447D01*
X0014291Y0021570D01*
X0014385Y0021691D01*
X0014483Y0021809D01*
X0014583Y0021925D01*
X0014687Y0022038D01*
X0014793Y0022149D01*
X0014902Y0022257D01*
X0015014Y0022362D01*
X0015128Y0022463D01*
X0015246Y0022562D01*
X0015365Y0022658D01*
X0015487Y0022751D01*
X0015612Y0022840D01*
X0015739Y0022927D01*
X0015868Y0023009D01*
X0015999Y0023089D01*
X0016132Y0023165D01*
X0016267Y0023238D01*
X0016404Y0023307D01*
X0016543Y0023372D01*
X0016683Y0023434D01*
X0016825Y0023492D01*
X0016968Y0023547D01*
X0017113Y0023598D01*
X0017259Y0023645D01*
X0017406Y0023688D01*
X0017554Y0023727D01*
X0017703Y0023763D01*
X0017853Y0023794D01*
X0018004Y0023822D01*
X0018155Y0023846D01*
X0018308Y0023866D01*
X0018460Y0023882D01*
X0018613Y0023894D01*
X0018766Y0023902D01*
X0018919Y0023906D01*
X0019073Y0023906D01*
X0019226Y0023902D01*
X0019379Y0023894D01*
X0019532Y0023882D01*
X0019684Y0023866D01*
X0019837Y0023846D01*
X0019988Y0023822D01*
X0020139Y0023794D01*
X0020289Y0023763D01*
X0020438Y0023727D01*
X0020586Y0023688D01*
X0020733Y0023645D01*
X0020879Y0023598D01*
X0021024Y0023547D01*
X0021167Y0023492D01*
X0021309Y0023434D01*
X0021449Y0023372D01*
X0021588Y0023307D01*
X0021725Y0023238D01*
X0021860Y0023165D01*
X0021993Y0023089D01*
X0022124Y0023009D01*
X0022253Y0022927D01*
X0022380Y0022840D01*
X0022505Y0022751D01*
X0022627Y0022658D01*
X0022746Y0022562D01*
X0022864Y0022463D01*
X0022978Y0022362D01*
X0023090Y0022257D01*
X0023199Y0022149D01*
X0023305Y0022038D01*
X0023409Y0021925D01*
X0023509Y0021809D01*
X0023607Y0021691D01*
X0023701Y0021570D01*
X0023792Y0021447D01*
X0023880Y0021321D01*
X0023964Y0021193D01*
X0024046Y0021063D01*
X0024123Y0020931D01*
X0024198Y0020797D01*
X0024269Y0020661D01*
X0024336Y0020523D01*
X0024400Y0020383D01*
X0024460Y0020242D01*
X0024516Y0020100D01*
X0024569Y0019956D01*
X0024618Y0019810D01*
X0024663Y0019664D01*
X0024704Y0019516D01*
X0024741Y0019368D01*
X0024775Y0019218D01*
X0024805Y0019067D01*
X0024830Y0018916D01*
X0024852Y0018765D01*
X0024870Y0018612D01*
X0024884Y0018460D01*
X0024894Y0018307D01*
X0024900Y0018153D01*
X0024902Y0018000D01*
X0024900Y0017847D01*
X0024894Y0017693D01*
X0024884Y0017540D01*
X0024870Y0017388D01*
X0024852Y0017235D01*
X0024830Y0017084D01*
X0024805Y0016933D01*
X0024775Y0016782D01*
X0024741Y0016632D01*
X0024704Y0016484D01*
X0024663Y0016336D01*
X0024618Y0016190D01*
X0024569Y0016044D01*
X0024516Y0015900D01*
X0024460Y0015758D01*
X0024400Y0015617D01*
X0024336Y0015477D01*
X0024269Y0015339D01*
X0024198Y0015203D01*
X0024123Y0015069D01*
X0024046Y0014937D01*
X0023964Y0014807D01*
X0023880Y0014679D01*
X0023792Y0014553D01*
X0023701Y0014430D01*
X0023607Y0014309D01*
X0023509Y0014191D01*
X0023409Y0014075D01*
X0023305Y0013962D01*
X0023199Y0013851D01*
X0023090Y0013743D01*
X0022978Y0013638D01*
X0022864Y0013537D01*
X0022746Y0013438D01*
X0022627Y0013342D01*
X0022505Y0013249D01*
X0022380Y0013160D01*
X0022253Y0013073D01*
X0022124Y0012991D01*
X0021993Y0012911D01*
X0021860Y0012835D01*
X0021725Y0012762D01*
X0021588Y0012693D01*
X0021449Y0012628D01*
X0021309Y0012566D01*
X0021167Y0012508D01*
X0021024Y0012453D01*
X0020879Y0012402D01*
X0020733Y0012355D01*
X0020586Y0012312D01*
X0020438Y0012273D01*
X0020289Y0012237D01*
X0020139Y0012206D01*
X0019988Y0012178D01*
X0019837Y0012154D01*
X0019684Y0012134D01*
X0019532Y0012118D01*
X0019379Y0012106D01*
X0019226Y0012098D01*
X0019073Y0012094D01*
X0018919Y0012094D01*
X0018766Y0012098D01*
X0018613Y0012106D01*
X0018460Y0012118D01*
X0018308Y0012134D01*
X0018155Y0012154D01*
X0018004Y0012178D01*
X0017853Y0012206D01*
X0017703Y0012237D01*
X0017554Y0012273D01*
X0017406Y0012312D01*
X0017259Y0012355D01*
X0017113Y0012402D01*
X0016968Y0012453D01*
X0016825Y0012508D01*
X0016683Y0012566D01*
X0016543Y0012628D01*
X0016404Y0012693D01*
X0016267Y0012762D01*
X0016132Y0012835D01*
X0015999Y0012911D01*
X0015868Y0012991D01*
X0015739Y0013073D01*
X0015612Y0013160D01*
X0015487Y0013249D01*
X0015365Y0013342D01*
X0015246Y0013438D01*
X0015128Y0013537D01*
X0015014Y0013638D01*
X0014902Y0013743D01*
X0014793Y0013851D01*
X0014687Y0013962D01*
X0014583Y0014075D01*
X0014483Y0014191D01*
X0014385Y0014309D01*
X0014291Y0014430D01*
X0014200Y0014553D01*
X0014112Y0014679D01*
X0014028Y0014807D01*
X0013946Y0014937D01*
X0013869Y0015069D01*
X0013794Y0015203D01*
X0013723Y0015339D01*
X0013656Y0015477D01*
X0013592Y0015617D01*
X0013532Y0015758D01*
X0013476Y0015900D01*
X0013423Y0016044D01*
X0013374Y0016190D01*
X0013329Y0016336D01*
X0013288Y0016484D01*
X0013251Y0016632D01*
X0013217Y0016782D01*
X0013187Y0016933D01*
X0013162Y0017084D01*
X0013140Y0017235D01*
X0013122Y0017388D01*
X0013108Y0017540D01*
X0013098Y0017693D01*
X0013092Y0017847D01*
X0013090Y0018000D01*
X0292618Y0018000D02*
X0292620Y0018153D01*
X0292626Y0018307D01*
X0292636Y0018460D01*
X0292650Y0018612D01*
X0292668Y0018765D01*
X0292690Y0018916D01*
X0292715Y0019067D01*
X0292745Y0019218D01*
X0292779Y0019368D01*
X0292816Y0019516D01*
X0292857Y0019664D01*
X0292902Y0019810D01*
X0292951Y0019956D01*
X0293004Y0020100D01*
X0293060Y0020242D01*
X0293120Y0020383D01*
X0293184Y0020523D01*
X0293251Y0020661D01*
X0293322Y0020797D01*
X0293397Y0020931D01*
X0293474Y0021063D01*
X0293556Y0021193D01*
X0293640Y0021321D01*
X0293728Y0021447D01*
X0293819Y0021570D01*
X0293913Y0021691D01*
X0294011Y0021809D01*
X0294111Y0021925D01*
X0294215Y0022038D01*
X0294321Y0022149D01*
X0294430Y0022257D01*
X0294542Y0022362D01*
X0294656Y0022463D01*
X0294774Y0022562D01*
X0294893Y0022658D01*
X0295015Y0022751D01*
X0295140Y0022840D01*
X0295267Y0022927D01*
X0295396Y0023009D01*
X0295527Y0023089D01*
X0295660Y0023165D01*
X0295795Y0023238D01*
X0295932Y0023307D01*
X0296071Y0023372D01*
X0296211Y0023434D01*
X0296353Y0023492D01*
X0296496Y0023547D01*
X0296641Y0023598D01*
X0296787Y0023645D01*
X0296934Y0023688D01*
X0297082Y0023727D01*
X0297231Y0023763D01*
X0297381Y0023794D01*
X0297532Y0023822D01*
X0297683Y0023846D01*
X0297836Y0023866D01*
X0297988Y0023882D01*
X0298141Y0023894D01*
X0298294Y0023902D01*
X0298447Y0023906D01*
X0298601Y0023906D01*
X0298754Y0023902D01*
X0298907Y0023894D01*
X0299060Y0023882D01*
X0299212Y0023866D01*
X0299365Y0023846D01*
X0299516Y0023822D01*
X0299667Y0023794D01*
X0299817Y0023763D01*
X0299966Y0023727D01*
X0300114Y0023688D01*
X0300261Y0023645D01*
X0300407Y0023598D01*
X0300552Y0023547D01*
X0300695Y0023492D01*
X0300837Y0023434D01*
X0300977Y0023372D01*
X0301116Y0023307D01*
X0301253Y0023238D01*
X0301388Y0023165D01*
X0301521Y0023089D01*
X0301652Y0023009D01*
X0301781Y0022927D01*
X0301908Y0022840D01*
X0302033Y0022751D01*
X0302155Y0022658D01*
X0302274Y0022562D01*
X0302392Y0022463D01*
X0302506Y0022362D01*
X0302618Y0022257D01*
X0302727Y0022149D01*
X0302833Y0022038D01*
X0302937Y0021925D01*
X0303037Y0021809D01*
X0303135Y0021691D01*
X0303229Y0021570D01*
X0303320Y0021447D01*
X0303408Y0021321D01*
X0303492Y0021193D01*
X0303574Y0021063D01*
X0303651Y0020931D01*
X0303726Y0020797D01*
X0303797Y0020661D01*
X0303864Y0020523D01*
X0303928Y0020383D01*
X0303988Y0020242D01*
X0304044Y0020100D01*
X0304097Y0019956D01*
X0304146Y0019810D01*
X0304191Y0019664D01*
X0304232Y0019516D01*
X0304269Y0019368D01*
X0304303Y0019218D01*
X0304333Y0019067D01*
X0304358Y0018916D01*
X0304380Y0018765D01*
X0304398Y0018612D01*
X0304412Y0018460D01*
X0304422Y0018307D01*
X0304428Y0018153D01*
X0304430Y0018000D01*
X0304428Y0017847D01*
X0304422Y0017693D01*
X0304412Y0017540D01*
X0304398Y0017388D01*
X0304380Y0017235D01*
X0304358Y0017084D01*
X0304333Y0016933D01*
X0304303Y0016782D01*
X0304269Y0016632D01*
X0304232Y0016484D01*
X0304191Y0016336D01*
X0304146Y0016190D01*
X0304097Y0016044D01*
X0304044Y0015900D01*
X0303988Y0015758D01*
X0303928Y0015617D01*
X0303864Y0015477D01*
X0303797Y0015339D01*
X0303726Y0015203D01*
X0303651Y0015069D01*
X0303574Y0014937D01*
X0303492Y0014807D01*
X0303408Y0014679D01*
X0303320Y0014553D01*
X0303229Y0014430D01*
X0303135Y0014309D01*
X0303037Y0014191D01*
X0302937Y0014075D01*
X0302833Y0013962D01*
X0302727Y0013851D01*
X0302618Y0013743D01*
X0302506Y0013638D01*
X0302392Y0013537D01*
X0302274Y0013438D01*
X0302155Y0013342D01*
X0302033Y0013249D01*
X0301908Y0013160D01*
X0301781Y0013073D01*
X0301652Y0012991D01*
X0301521Y0012911D01*
X0301388Y0012835D01*
X0301253Y0012762D01*
X0301116Y0012693D01*
X0300977Y0012628D01*
X0300837Y0012566D01*
X0300695Y0012508D01*
X0300552Y0012453D01*
X0300407Y0012402D01*
X0300261Y0012355D01*
X0300114Y0012312D01*
X0299966Y0012273D01*
X0299817Y0012237D01*
X0299667Y0012206D01*
X0299516Y0012178D01*
X0299365Y0012154D01*
X0299212Y0012134D01*
X0299060Y0012118D01*
X0298907Y0012106D01*
X0298754Y0012098D01*
X0298601Y0012094D01*
X0298447Y0012094D01*
X0298294Y0012098D01*
X0298141Y0012106D01*
X0297988Y0012118D01*
X0297836Y0012134D01*
X0297683Y0012154D01*
X0297532Y0012178D01*
X0297381Y0012206D01*
X0297231Y0012237D01*
X0297082Y0012273D01*
X0296934Y0012312D01*
X0296787Y0012355D01*
X0296641Y0012402D01*
X0296496Y0012453D01*
X0296353Y0012508D01*
X0296211Y0012566D01*
X0296071Y0012628D01*
X0295932Y0012693D01*
X0295795Y0012762D01*
X0295660Y0012835D01*
X0295527Y0012911D01*
X0295396Y0012991D01*
X0295267Y0013073D01*
X0295140Y0013160D01*
X0295015Y0013249D01*
X0294893Y0013342D01*
X0294774Y0013438D01*
X0294656Y0013537D01*
X0294542Y0013638D01*
X0294430Y0013743D01*
X0294321Y0013851D01*
X0294215Y0013962D01*
X0294111Y0014075D01*
X0294011Y0014191D01*
X0293913Y0014309D01*
X0293819Y0014430D01*
X0293728Y0014553D01*
X0293640Y0014679D01*
X0293556Y0014807D01*
X0293474Y0014937D01*
X0293397Y0015069D01*
X0293322Y0015203D01*
X0293251Y0015339D01*
X0293184Y0015477D01*
X0293120Y0015617D01*
X0293060Y0015758D01*
X0293004Y0015900D01*
X0292951Y0016044D01*
X0292902Y0016190D01*
X0292857Y0016336D01*
X0292816Y0016484D01*
X0292779Y0016632D01*
X0292745Y0016782D01*
X0292715Y0016933D01*
X0292690Y0017084D01*
X0292668Y0017235D01*
X0292650Y0017388D01*
X0292636Y0017540D01*
X0292626Y0017693D01*
X0292620Y0017847D01*
X0292618Y0018000D01*
X0540649Y0018000D02*
X0540651Y0018153D01*
X0540657Y0018307D01*
X0540667Y0018460D01*
X0540681Y0018612D01*
X0540699Y0018765D01*
X0540721Y0018916D01*
X0540746Y0019067D01*
X0540776Y0019218D01*
X0540810Y0019368D01*
X0540847Y0019516D01*
X0540888Y0019664D01*
X0540933Y0019810D01*
X0540982Y0019956D01*
X0541035Y0020100D01*
X0541091Y0020242D01*
X0541151Y0020383D01*
X0541215Y0020523D01*
X0541282Y0020661D01*
X0541353Y0020797D01*
X0541428Y0020931D01*
X0541505Y0021063D01*
X0541587Y0021193D01*
X0541671Y0021321D01*
X0541759Y0021447D01*
X0541850Y0021570D01*
X0541944Y0021691D01*
X0542042Y0021809D01*
X0542142Y0021925D01*
X0542246Y0022038D01*
X0542352Y0022149D01*
X0542461Y0022257D01*
X0542573Y0022362D01*
X0542687Y0022463D01*
X0542805Y0022562D01*
X0542924Y0022658D01*
X0543046Y0022751D01*
X0543171Y0022840D01*
X0543298Y0022927D01*
X0543427Y0023009D01*
X0543558Y0023089D01*
X0543691Y0023165D01*
X0543826Y0023238D01*
X0543963Y0023307D01*
X0544102Y0023372D01*
X0544242Y0023434D01*
X0544384Y0023492D01*
X0544527Y0023547D01*
X0544672Y0023598D01*
X0544818Y0023645D01*
X0544965Y0023688D01*
X0545113Y0023727D01*
X0545262Y0023763D01*
X0545412Y0023794D01*
X0545563Y0023822D01*
X0545714Y0023846D01*
X0545867Y0023866D01*
X0546019Y0023882D01*
X0546172Y0023894D01*
X0546325Y0023902D01*
X0546478Y0023906D01*
X0546632Y0023906D01*
X0546785Y0023902D01*
X0546938Y0023894D01*
X0547091Y0023882D01*
X0547243Y0023866D01*
X0547396Y0023846D01*
X0547547Y0023822D01*
X0547698Y0023794D01*
X0547848Y0023763D01*
X0547997Y0023727D01*
X0548145Y0023688D01*
X0548292Y0023645D01*
X0548438Y0023598D01*
X0548583Y0023547D01*
X0548726Y0023492D01*
X0548868Y0023434D01*
X0549008Y0023372D01*
X0549147Y0023307D01*
X0549284Y0023238D01*
X0549419Y0023165D01*
X0549552Y0023089D01*
X0549683Y0023009D01*
X0549812Y0022927D01*
X0549939Y0022840D01*
X0550064Y0022751D01*
X0550186Y0022658D01*
X0550305Y0022562D01*
X0550423Y0022463D01*
X0550537Y0022362D01*
X0550649Y0022257D01*
X0550758Y0022149D01*
X0550864Y0022038D01*
X0550968Y0021925D01*
X0551068Y0021809D01*
X0551166Y0021691D01*
X0551260Y0021570D01*
X0551351Y0021447D01*
X0551439Y0021321D01*
X0551523Y0021193D01*
X0551605Y0021063D01*
X0551682Y0020931D01*
X0551757Y0020797D01*
X0551828Y0020661D01*
X0551895Y0020523D01*
X0551959Y0020383D01*
X0552019Y0020242D01*
X0552075Y0020100D01*
X0552128Y0019956D01*
X0552177Y0019810D01*
X0552222Y0019664D01*
X0552263Y0019516D01*
X0552300Y0019368D01*
X0552334Y0019218D01*
X0552364Y0019067D01*
X0552389Y0018916D01*
X0552411Y0018765D01*
X0552429Y0018612D01*
X0552443Y0018460D01*
X0552453Y0018307D01*
X0552459Y0018153D01*
X0552461Y0018000D01*
X0552459Y0017847D01*
X0552453Y0017693D01*
X0552443Y0017540D01*
X0552429Y0017388D01*
X0552411Y0017235D01*
X0552389Y0017084D01*
X0552364Y0016933D01*
X0552334Y0016782D01*
X0552300Y0016632D01*
X0552263Y0016484D01*
X0552222Y0016336D01*
X0552177Y0016190D01*
X0552128Y0016044D01*
X0552075Y0015900D01*
X0552019Y0015758D01*
X0551959Y0015617D01*
X0551895Y0015477D01*
X0551828Y0015339D01*
X0551757Y0015203D01*
X0551682Y0015069D01*
X0551605Y0014937D01*
X0551523Y0014807D01*
X0551439Y0014679D01*
X0551351Y0014553D01*
X0551260Y0014430D01*
X0551166Y0014309D01*
X0551068Y0014191D01*
X0550968Y0014075D01*
X0550864Y0013962D01*
X0550758Y0013851D01*
X0550649Y0013743D01*
X0550537Y0013638D01*
X0550423Y0013537D01*
X0550305Y0013438D01*
X0550186Y0013342D01*
X0550064Y0013249D01*
X0549939Y0013160D01*
X0549812Y0013073D01*
X0549683Y0012991D01*
X0549552Y0012911D01*
X0549419Y0012835D01*
X0549284Y0012762D01*
X0549147Y0012693D01*
X0549008Y0012628D01*
X0548868Y0012566D01*
X0548726Y0012508D01*
X0548583Y0012453D01*
X0548438Y0012402D01*
X0548292Y0012355D01*
X0548145Y0012312D01*
X0547997Y0012273D01*
X0547848Y0012237D01*
X0547698Y0012206D01*
X0547547Y0012178D01*
X0547396Y0012154D01*
X0547243Y0012134D01*
X0547091Y0012118D01*
X0546938Y0012106D01*
X0546785Y0012098D01*
X0546632Y0012094D01*
X0546478Y0012094D01*
X0546325Y0012098D01*
X0546172Y0012106D01*
X0546019Y0012118D01*
X0545867Y0012134D01*
X0545714Y0012154D01*
X0545563Y0012178D01*
X0545412Y0012206D01*
X0545262Y0012237D01*
X0545113Y0012273D01*
X0544965Y0012312D01*
X0544818Y0012355D01*
X0544672Y0012402D01*
X0544527Y0012453D01*
X0544384Y0012508D01*
X0544242Y0012566D01*
X0544102Y0012628D01*
X0543963Y0012693D01*
X0543826Y0012762D01*
X0543691Y0012835D01*
X0543558Y0012911D01*
X0543427Y0012991D01*
X0543298Y0013073D01*
X0543171Y0013160D01*
X0543046Y0013249D01*
X0542924Y0013342D01*
X0542805Y0013438D01*
X0542687Y0013537D01*
X0542573Y0013638D01*
X0542461Y0013743D01*
X0542352Y0013851D01*
X0542246Y0013962D01*
X0542142Y0014075D01*
X0542042Y0014191D01*
X0541944Y0014309D01*
X0541850Y0014430D01*
X0541759Y0014553D01*
X0541671Y0014679D01*
X0541587Y0014807D01*
X0541505Y0014937D01*
X0541428Y0015069D01*
X0541353Y0015203D01*
X0541282Y0015339D01*
X0541215Y0015477D01*
X0541151Y0015617D01*
X0541091Y0015758D01*
X0541035Y0015900D01*
X0540982Y0016044D01*
X0540933Y0016190D01*
X0540888Y0016336D01*
X0540847Y0016484D01*
X0540810Y0016632D01*
X0540776Y0016782D01*
X0540746Y0016933D01*
X0540721Y0017084D01*
X0540699Y0017235D01*
X0540681Y0017388D01*
X0540667Y0017540D01*
X0540657Y0017693D01*
X0540651Y0017847D01*
X0540649Y0018000D01*
X0540649Y0136110D02*
X0540651Y0136263D01*
X0540657Y0136417D01*
X0540667Y0136570D01*
X0540681Y0136722D01*
X0540699Y0136875D01*
X0540721Y0137026D01*
X0540746Y0137177D01*
X0540776Y0137328D01*
X0540810Y0137478D01*
X0540847Y0137626D01*
X0540888Y0137774D01*
X0540933Y0137920D01*
X0540982Y0138066D01*
X0541035Y0138210D01*
X0541091Y0138352D01*
X0541151Y0138493D01*
X0541215Y0138633D01*
X0541282Y0138771D01*
X0541353Y0138907D01*
X0541428Y0139041D01*
X0541505Y0139173D01*
X0541587Y0139303D01*
X0541671Y0139431D01*
X0541759Y0139557D01*
X0541850Y0139680D01*
X0541944Y0139801D01*
X0542042Y0139919D01*
X0542142Y0140035D01*
X0542246Y0140148D01*
X0542352Y0140259D01*
X0542461Y0140367D01*
X0542573Y0140472D01*
X0542687Y0140573D01*
X0542805Y0140672D01*
X0542924Y0140768D01*
X0543046Y0140861D01*
X0543171Y0140950D01*
X0543298Y0141037D01*
X0543427Y0141119D01*
X0543558Y0141199D01*
X0543691Y0141275D01*
X0543826Y0141348D01*
X0543963Y0141417D01*
X0544102Y0141482D01*
X0544242Y0141544D01*
X0544384Y0141602D01*
X0544527Y0141657D01*
X0544672Y0141708D01*
X0544818Y0141755D01*
X0544965Y0141798D01*
X0545113Y0141837D01*
X0545262Y0141873D01*
X0545412Y0141904D01*
X0545563Y0141932D01*
X0545714Y0141956D01*
X0545867Y0141976D01*
X0546019Y0141992D01*
X0546172Y0142004D01*
X0546325Y0142012D01*
X0546478Y0142016D01*
X0546632Y0142016D01*
X0546785Y0142012D01*
X0546938Y0142004D01*
X0547091Y0141992D01*
X0547243Y0141976D01*
X0547396Y0141956D01*
X0547547Y0141932D01*
X0547698Y0141904D01*
X0547848Y0141873D01*
X0547997Y0141837D01*
X0548145Y0141798D01*
X0548292Y0141755D01*
X0548438Y0141708D01*
X0548583Y0141657D01*
X0548726Y0141602D01*
X0548868Y0141544D01*
X0549008Y0141482D01*
X0549147Y0141417D01*
X0549284Y0141348D01*
X0549419Y0141275D01*
X0549552Y0141199D01*
X0549683Y0141119D01*
X0549812Y0141037D01*
X0549939Y0140950D01*
X0550064Y0140861D01*
X0550186Y0140768D01*
X0550305Y0140672D01*
X0550423Y0140573D01*
X0550537Y0140472D01*
X0550649Y0140367D01*
X0550758Y0140259D01*
X0550864Y0140148D01*
X0550968Y0140035D01*
X0551068Y0139919D01*
X0551166Y0139801D01*
X0551260Y0139680D01*
X0551351Y0139557D01*
X0551439Y0139431D01*
X0551523Y0139303D01*
X0551605Y0139173D01*
X0551682Y0139041D01*
X0551757Y0138907D01*
X0551828Y0138771D01*
X0551895Y0138633D01*
X0551959Y0138493D01*
X0552019Y0138352D01*
X0552075Y0138210D01*
X0552128Y0138066D01*
X0552177Y0137920D01*
X0552222Y0137774D01*
X0552263Y0137626D01*
X0552300Y0137478D01*
X0552334Y0137328D01*
X0552364Y0137177D01*
X0552389Y0137026D01*
X0552411Y0136875D01*
X0552429Y0136722D01*
X0552443Y0136570D01*
X0552453Y0136417D01*
X0552459Y0136263D01*
X0552461Y0136110D01*
X0552459Y0135957D01*
X0552453Y0135803D01*
X0552443Y0135650D01*
X0552429Y0135498D01*
X0552411Y0135345D01*
X0552389Y0135194D01*
X0552364Y0135043D01*
X0552334Y0134892D01*
X0552300Y0134742D01*
X0552263Y0134594D01*
X0552222Y0134446D01*
X0552177Y0134300D01*
X0552128Y0134154D01*
X0552075Y0134010D01*
X0552019Y0133868D01*
X0551959Y0133727D01*
X0551895Y0133587D01*
X0551828Y0133449D01*
X0551757Y0133313D01*
X0551682Y0133179D01*
X0551605Y0133047D01*
X0551523Y0132917D01*
X0551439Y0132789D01*
X0551351Y0132663D01*
X0551260Y0132540D01*
X0551166Y0132419D01*
X0551068Y0132301D01*
X0550968Y0132185D01*
X0550864Y0132072D01*
X0550758Y0131961D01*
X0550649Y0131853D01*
X0550537Y0131748D01*
X0550423Y0131647D01*
X0550305Y0131548D01*
X0550186Y0131452D01*
X0550064Y0131359D01*
X0549939Y0131270D01*
X0549812Y0131183D01*
X0549683Y0131101D01*
X0549552Y0131021D01*
X0549419Y0130945D01*
X0549284Y0130872D01*
X0549147Y0130803D01*
X0549008Y0130738D01*
X0548868Y0130676D01*
X0548726Y0130618D01*
X0548583Y0130563D01*
X0548438Y0130512D01*
X0548292Y0130465D01*
X0548145Y0130422D01*
X0547997Y0130383D01*
X0547848Y0130347D01*
X0547698Y0130316D01*
X0547547Y0130288D01*
X0547396Y0130264D01*
X0547243Y0130244D01*
X0547091Y0130228D01*
X0546938Y0130216D01*
X0546785Y0130208D01*
X0546632Y0130204D01*
X0546478Y0130204D01*
X0546325Y0130208D01*
X0546172Y0130216D01*
X0546019Y0130228D01*
X0545867Y0130244D01*
X0545714Y0130264D01*
X0545563Y0130288D01*
X0545412Y0130316D01*
X0545262Y0130347D01*
X0545113Y0130383D01*
X0544965Y0130422D01*
X0544818Y0130465D01*
X0544672Y0130512D01*
X0544527Y0130563D01*
X0544384Y0130618D01*
X0544242Y0130676D01*
X0544102Y0130738D01*
X0543963Y0130803D01*
X0543826Y0130872D01*
X0543691Y0130945D01*
X0543558Y0131021D01*
X0543427Y0131101D01*
X0543298Y0131183D01*
X0543171Y0131270D01*
X0543046Y0131359D01*
X0542924Y0131452D01*
X0542805Y0131548D01*
X0542687Y0131647D01*
X0542573Y0131748D01*
X0542461Y0131853D01*
X0542352Y0131961D01*
X0542246Y0132072D01*
X0542142Y0132185D01*
X0542042Y0132301D01*
X0541944Y0132419D01*
X0541850Y0132540D01*
X0541759Y0132663D01*
X0541671Y0132789D01*
X0541587Y0132917D01*
X0541505Y0133047D01*
X0541428Y0133179D01*
X0541353Y0133313D01*
X0541282Y0133449D01*
X0541215Y0133587D01*
X0541151Y0133727D01*
X0541091Y0133868D01*
X0541035Y0134010D01*
X0540982Y0134154D01*
X0540933Y0134300D01*
X0540888Y0134446D01*
X0540847Y0134594D01*
X0540810Y0134742D01*
X0540776Y0134892D01*
X0540746Y0135043D01*
X0540721Y0135194D01*
X0540699Y0135345D01*
X0540681Y0135498D01*
X0540667Y0135650D01*
X0540657Y0135803D01*
X0540651Y0135957D01*
X0540649Y0136110D01*
X0540649Y0360520D02*
X0540651Y0360673D01*
X0540657Y0360827D01*
X0540667Y0360980D01*
X0540681Y0361132D01*
X0540699Y0361285D01*
X0540721Y0361436D01*
X0540746Y0361587D01*
X0540776Y0361738D01*
X0540810Y0361888D01*
X0540847Y0362036D01*
X0540888Y0362184D01*
X0540933Y0362330D01*
X0540982Y0362476D01*
X0541035Y0362620D01*
X0541091Y0362762D01*
X0541151Y0362903D01*
X0541215Y0363043D01*
X0541282Y0363181D01*
X0541353Y0363317D01*
X0541428Y0363451D01*
X0541505Y0363583D01*
X0541587Y0363713D01*
X0541671Y0363841D01*
X0541759Y0363967D01*
X0541850Y0364090D01*
X0541944Y0364211D01*
X0542042Y0364329D01*
X0542142Y0364445D01*
X0542246Y0364558D01*
X0542352Y0364669D01*
X0542461Y0364777D01*
X0542573Y0364882D01*
X0542687Y0364983D01*
X0542805Y0365082D01*
X0542924Y0365178D01*
X0543046Y0365271D01*
X0543171Y0365360D01*
X0543298Y0365447D01*
X0543427Y0365529D01*
X0543558Y0365609D01*
X0543691Y0365685D01*
X0543826Y0365758D01*
X0543963Y0365827D01*
X0544102Y0365892D01*
X0544242Y0365954D01*
X0544384Y0366012D01*
X0544527Y0366067D01*
X0544672Y0366118D01*
X0544818Y0366165D01*
X0544965Y0366208D01*
X0545113Y0366247D01*
X0545262Y0366283D01*
X0545412Y0366314D01*
X0545563Y0366342D01*
X0545714Y0366366D01*
X0545867Y0366386D01*
X0546019Y0366402D01*
X0546172Y0366414D01*
X0546325Y0366422D01*
X0546478Y0366426D01*
X0546632Y0366426D01*
X0546785Y0366422D01*
X0546938Y0366414D01*
X0547091Y0366402D01*
X0547243Y0366386D01*
X0547396Y0366366D01*
X0547547Y0366342D01*
X0547698Y0366314D01*
X0547848Y0366283D01*
X0547997Y0366247D01*
X0548145Y0366208D01*
X0548292Y0366165D01*
X0548438Y0366118D01*
X0548583Y0366067D01*
X0548726Y0366012D01*
X0548868Y0365954D01*
X0549008Y0365892D01*
X0549147Y0365827D01*
X0549284Y0365758D01*
X0549419Y0365685D01*
X0549552Y0365609D01*
X0549683Y0365529D01*
X0549812Y0365447D01*
X0549939Y0365360D01*
X0550064Y0365271D01*
X0550186Y0365178D01*
X0550305Y0365082D01*
X0550423Y0364983D01*
X0550537Y0364882D01*
X0550649Y0364777D01*
X0550758Y0364669D01*
X0550864Y0364558D01*
X0550968Y0364445D01*
X0551068Y0364329D01*
X0551166Y0364211D01*
X0551260Y0364090D01*
X0551351Y0363967D01*
X0551439Y0363841D01*
X0551523Y0363713D01*
X0551605Y0363583D01*
X0551682Y0363451D01*
X0551757Y0363317D01*
X0551828Y0363181D01*
X0551895Y0363043D01*
X0551959Y0362903D01*
X0552019Y0362762D01*
X0552075Y0362620D01*
X0552128Y0362476D01*
X0552177Y0362330D01*
X0552222Y0362184D01*
X0552263Y0362036D01*
X0552300Y0361888D01*
X0552334Y0361738D01*
X0552364Y0361587D01*
X0552389Y0361436D01*
X0552411Y0361285D01*
X0552429Y0361132D01*
X0552443Y0360980D01*
X0552453Y0360827D01*
X0552459Y0360673D01*
X0552461Y0360520D01*
X0552459Y0360367D01*
X0552453Y0360213D01*
X0552443Y0360060D01*
X0552429Y0359908D01*
X0552411Y0359755D01*
X0552389Y0359604D01*
X0552364Y0359453D01*
X0552334Y0359302D01*
X0552300Y0359152D01*
X0552263Y0359004D01*
X0552222Y0358856D01*
X0552177Y0358710D01*
X0552128Y0358564D01*
X0552075Y0358420D01*
X0552019Y0358278D01*
X0551959Y0358137D01*
X0551895Y0357997D01*
X0551828Y0357859D01*
X0551757Y0357723D01*
X0551682Y0357589D01*
X0551605Y0357457D01*
X0551523Y0357327D01*
X0551439Y0357199D01*
X0551351Y0357073D01*
X0551260Y0356950D01*
X0551166Y0356829D01*
X0551068Y0356711D01*
X0550968Y0356595D01*
X0550864Y0356482D01*
X0550758Y0356371D01*
X0550649Y0356263D01*
X0550537Y0356158D01*
X0550423Y0356057D01*
X0550305Y0355958D01*
X0550186Y0355862D01*
X0550064Y0355769D01*
X0549939Y0355680D01*
X0549812Y0355593D01*
X0549683Y0355511D01*
X0549552Y0355431D01*
X0549419Y0355355D01*
X0549284Y0355282D01*
X0549147Y0355213D01*
X0549008Y0355148D01*
X0548868Y0355086D01*
X0548726Y0355028D01*
X0548583Y0354973D01*
X0548438Y0354922D01*
X0548292Y0354875D01*
X0548145Y0354832D01*
X0547997Y0354793D01*
X0547848Y0354757D01*
X0547698Y0354726D01*
X0547547Y0354698D01*
X0547396Y0354674D01*
X0547243Y0354654D01*
X0547091Y0354638D01*
X0546938Y0354626D01*
X0546785Y0354618D01*
X0546632Y0354614D01*
X0546478Y0354614D01*
X0546325Y0354618D01*
X0546172Y0354626D01*
X0546019Y0354638D01*
X0545867Y0354654D01*
X0545714Y0354674D01*
X0545563Y0354698D01*
X0545412Y0354726D01*
X0545262Y0354757D01*
X0545113Y0354793D01*
X0544965Y0354832D01*
X0544818Y0354875D01*
X0544672Y0354922D01*
X0544527Y0354973D01*
X0544384Y0355028D01*
X0544242Y0355086D01*
X0544102Y0355148D01*
X0543963Y0355213D01*
X0543826Y0355282D01*
X0543691Y0355355D01*
X0543558Y0355431D01*
X0543427Y0355511D01*
X0543298Y0355593D01*
X0543171Y0355680D01*
X0543046Y0355769D01*
X0542924Y0355862D01*
X0542805Y0355958D01*
X0542687Y0356057D01*
X0542573Y0356158D01*
X0542461Y0356263D01*
X0542352Y0356371D01*
X0542246Y0356482D01*
X0542142Y0356595D01*
X0542042Y0356711D01*
X0541944Y0356829D01*
X0541850Y0356950D01*
X0541759Y0357073D01*
X0541671Y0357199D01*
X0541587Y0357327D01*
X0541505Y0357457D01*
X0541428Y0357589D01*
X0541353Y0357723D01*
X0541282Y0357859D01*
X0541215Y0357997D01*
X0541151Y0358137D01*
X0541091Y0358278D01*
X0541035Y0358420D01*
X0540982Y0358564D01*
X0540933Y0358710D01*
X0540888Y0358856D01*
X0540847Y0359004D01*
X0540810Y0359152D01*
X0540776Y0359302D01*
X0540746Y0359453D01*
X0540721Y0359604D01*
X0540699Y0359755D01*
X0540681Y0359908D01*
X0540667Y0360060D01*
X0540657Y0360213D01*
X0540651Y0360367D01*
X0540649Y0360520D01*
D11*
X0228000Y0253772D03*
X0218000Y0253772D03*
X0208000Y0253772D03*
X0198000Y0253772D03*
X0188000Y0253772D03*
X0178000Y0253772D03*
X0168000Y0253772D03*
X0158000Y0253772D03*
X0148000Y0253772D03*
X0138000Y0253772D03*
X0128000Y0253772D03*
X0118000Y0253772D03*
X0108000Y0253772D03*
X0098000Y0253772D03*
X0088000Y0253772D03*
X0078000Y0253772D03*
X0068000Y0253772D03*
X0058000Y0253772D03*
X0048000Y0253772D03*
X0038000Y0253772D03*
X0038000Y0236772D03*
X0048000Y0236772D03*
X0058000Y0236772D03*
X0068000Y0236772D03*
X0078000Y0236772D03*
X0088000Y0236772D03*
X0098000Y0236772D03*
X0108000Y0236772D03*
X0118000Y0236772D03*
X0128000Y0236772D03*
X0138000Y0236772D03*
X0148000Y0236772D03*
X0158000Y0236772D03*
X0168000Y0236772D03*
X0178000Y0236772D03*
X0188000Y0236772D03*
X0198000Y0236772D03*
X0208000Y0236772D03*
X0218000Y0236772D03*
X0228000Y0236772D03*
D12*
X0104232Y0219378D03*
X0104232Y0205008D03*
X0104232Y0177449D03*
X0104232Y0163079D03*
X0012500Y0163079D03*
X0012500Y0219378D03*
D13*
G36*
X0334643Y0104801D02*
X0328936Y0102140D01*
X0326357Y0107669D01*
X0332064Y0110330D01*
X0334643Y0104801D01*
G37*
G36*
X0342962Y0086960D02*
X0337255Y0084299D01*
X0334676Y0089828D01*
X0340383Y0092489D01*
X0342962Y0086960D01*
G37*
G36*
X0392738Y0110171D02*
X0387031Y0107510D01*
X0384452Y0113039D01*
X0390159Y0115700D01*
X0392738Y0110171D01*
G37*
G36*
X0384418Y0128012D02*
X0378711Y0125351D01*
X0376132Y0130880D01*
X0381839Y0133541D01*
X0384418Y0128012D01*
G37*
G36*
X0454920Y0115700D02*
X0460627Y0113039D01*
X0458048Y0107510D01*
X0452341Y0110171D01*
X0454920Y0115700D01*
G37*
G36*
X0463239Y0133541D02*
X0468946Y0130880D01*
X0466367Y0125351D01*
X0460660Y0128012D01*
X0463239Y0133541D01*
G37*
G36*
X0513015Y0110330D02*
X0518722Y0107669D01*
X0516143Y0102140D01*
X0510436Y0104801D01*
X0513015Y0110330D01*
G37*
G36*
X0504696Y0092489D02*
X0510403Y0089828D01*
X0507824Y0084299D01*
X0502117Y0086960D01*
X0504696Y0092489D01*
G37*
G36*
X0491689Y0056070D02*
X0497396Y0053409D01*
X0494817Y0047880D01*
X0489110Y0050541D01*
X0491689Y0056070D01*
G37*
G36*
X0483370Y0038229D02*
X0489077Y0035568D01*
X0486498Y0030039D01*
X0480791Y0032700D01*
X0483370Y0038229D01*
G37*
G36*
X0433595Y0061440D02*
X0439302Y0058779D01*
X0436723Y0053250D01*
X0431016Y0055911D01*
X0433595Y0061440D01*
G37*
G36*
X0441914Y0079281D02*
X0447621Y0076620D01*
X0445042Y0071091D01*
X0439335Y0073752D01*
X0441914Y0079281D01*
G37*
G36*
X0414063Y0055911D02*
X0408356Y0053250D01*
X0405777Y0058779D01*
X0411484Y0061440D01*
X0414063Y0055911D01*
G37*
G36*
X0405744Y0073752D02*
X0400037Y0071091D01*
X0397458Y0076620D01*
X0403165Y0079281D01*
X0405744Y0073752D01*
G37*
G36*
X0355968Y0050541D02*
X0350261Y0047880D01*
X0347682Y0053409D01*
X0353389Y0056070D01*
X0355968Y0050541D01*
G37*
G36*
X0364288Y0032700D02*
X0358581Y0030039D01*
X0356002Y0035568D01*
X0361709Y0038229D01*
X0364288Y0032700D01*
G37*
D14*
X0274902Y0289654D03*
X0274902Y0297528D03*
D15*
X0274902Y0281976D03*
X0274902Y0273709D03*
X0470571Y0313276D03*
X0478839Y0313276D03*
D16*
X0266634Y0312291D03*
X0266634Y0318197D03*
X0266634Y0330008D03*
D17*
X0277461Y0335520D03*
X0277461Y0306780D03*
D18*
X0269193Y0306780D03*
X0269193Y0335520D03*
D19*
X0125114Y0194780D03*
X0125114Y0186906D03*
D20*
X0145587Y0177457D03*
X0145587Y0204228D03*
D21*
X0363484Y0313276D03*
X0371358Y0313276D03*
M02*
