%
M48
M72
T01C0.01969
T02C0.02362
T03C0.03543
T04C0.04000
T05C0.11811
%
T01
X341831Y65244
X422539Y41622
X263091Y297528
X247343Y297528
X239469Y277843
X243406Y273906
X247343Y266031
X235531Y269969
X160728Y277843
X148000Y286504
X143012Y280205
X138000Y273906
X128000Y277055
X113484Y283354
X133169Y289654
X156791Y329024
X38681Y218787
X52854Y210913
X62303Y151858
X89862Y151858
X85925Y124299
X81988Y120362
X66240Y120362
X58366Y124299
X117421Y100677
X125295Y124299
X188000Y171543
X207972Y183354
X218000Y171543
X223130Y187291
X267028Y171543
X158000Y179417
X172539Y210913
X135138Y41622
T02
X118000Y266031
X38000Y266031
T03
X273524Y315244
X273524Y327055
T04
X122539Y140047
X132539Y140047
X142539Y140047
X152539Y140047
X162539Y140047
X172539Y140047
X402067Y140047
X412067Y140047
X422067Y140047
X432067Y140047
X442067Y140047
X452067Y140047
T05
X298524Y18000
X267028Y18000
X267028Y136110
X18996Y18000
X267028Y360520
X18996Y360520
X298524Y360520
X546555Y360520
X546555Y136110
X546555Y18000
M30
