%
M48
M72
T01C0.0197
T02C0.0236
T03C0.0354
T04C0.1102
%
T01
X16529Y28580
X17981Y27950
X18981Y27635
X19482Y28265
X19981Y28894
X21254Y28028
X18498Y29209
X20860Y33146
X29128Y27241
X29915Y27635
X29521Y28028
X30309Y26847
X29915Y29997
X31490Y29997
X22435Y21335
X20981Y18186
X23981Y17398
X25978Y18580
X26981Y17398
X27981Y17792
X27494Y18973
X31884Y17398
X19482Y4800
X11411Y7162
X12199Y20942
X13981Y20942
X10230Y22123
T02
X8981Y26847
X16981Y26847
T03
X32533Y31769
X32533Y32950
T04
X7080Y36296
X31884Y36296
X31884Y13855
X31884Y2044
X7080Y2044
M30
