G75*
%MOIN*%
%OFA0B0*%
%FSLAX25Y25*%
%IPPOS*%
%LPD*%
%AMOC8*
5,1,8,0,0,1.08239X$1,22.5*
%
%ADD10C,0.00000*%
%ADD11C,0.00039*%
%ADD12R,0.05131X0.06312*%
%ADD13R,0.16548X0.02375*%
%ADD14R,0.07099X0.06902*%
%ADD15R,0.09855X0.07099*%
%ADD16C,0.04343*%
%ADD17R,0.05918X0.06902*%
%ADD18C,0.04369*%
%ADD19C,0.04762*%
D10*
X0003248Y0001500D02*
X0282776Y0001500D01*
X0282776Y0371579D01*
X0003248Y0371579D01*
X0003248Y0001500D01*
X0271752Y0314492D02*
X0271754Y0314576D01*
X0271760Y0314659D01*
X0271770Y0314742D01*
X0271784Y0314825D01*
X0271801Y0314907D01*
X0271823Y0314988D01*
X0271848Y0315067D01*
X0271877Y0315146D01*
X0271910Y0315223D01*
X0271946Y0315298D01*
X0271986Y0315372D01*
X0272029Y0315444D01*
X0272076Y0315513D01*
X0272126Y0315580D01*
X0272179Y0315645D01*
X0272235Y0315707D01*
X0272293Y0315767D01*
X0272355Y0315824D01*
X0272419Y0315877D01*
X0272486Y0315928D01*
X0272555Y0315975D01*
X0272626Y0316020D01*
X0272699Y0316060D01*
X0272774Y0316097D01*
X0272851Y0316131D01*
X0272929Y0316161D01*
X0273008Y0316187D01*
X0273089Y0316210D01*
X0273171Y0316228D01*
X0273253Y0316243D01*
X0273336Y0316254D01*
X0273419Y0316261D01*
X0273503Y0316264D01*
X0273587Y0316263D01*
X0273670Y0316258D01*
X0273754Y0316249D01*
X0273836Y0316236D01*
X0273918Y0316220D01*
X0273999Y0316199D01*
X0274080Y0316175D01*
X0274158Y0316147D01*
X0274236Y0316115D01*
X0274312Y0316079D01*
X0274386Y0316040D01*
X0274458Y0315998D01*
X0274528Y0315952D01*
X0274596Y0315903D01*
X0274661Y0315851D01*
X0274724Y0315796D01*
X0274784Y0315738D01*
X0274842Y0315677D01*
X0274896Y0315613D01*
X0274948Y0315547D01*
X0274996Y0315479D01*
X0275041Y0315408D01*
X0275082Y0315335D01*
X0275121Y0315261D01*
X0275155Y0315185D01*
X0275186Y0315107D01*
X0275213Y0315028D01*
X0275237Y0314947D01*
X0275256Y0314866D01*
X0275272Y0314784D01*
X0275284Y0314701D01*
X0275292Y0314617D01*
X0275296Y0314534D01*
X0275296Y0314450D01*
X0275292Y0314367D01*
X0275284Y0314283D01*
X0275272Y0314200D01*
X0275256Y0314118D01*
X0275237Y0314037D01*
X0275213Y0313956D01*
X0275186Y0313877D01*
X0275155Y0313799D01*
X0275121Y0313723D01*
X0275082Y0313649D01*
X0275041Y0313576D01*
X0274996Y0313505D01*
X0274948Y0313437D01*
X0274896Y0313371D01*
X0274842Y0313307D01*
X0274784Y0313246D01*
X0274724Y0313188D01*
X0274661Y0313133D01*
X0274596Y0313081D01*
X0274528Y0313032D01*
X0274458Y0312986D01*
X0274386Y0312944D01*
X0274312Y0312905D01*
X0274236Y0312869D01*
X0274158Y0312837D01*
X0274080Y0312809D01*
X0273999Y0312785D01*
X0273918Y0312764D01*
X0273836Y0312748D01*
X0273754Y0312735D01*
X0273670Y0312726D01*
X0273587Y0312721D01*
X0273503Y0312720D01*
X0273419Y0312723D01*
X0273336Y0312730D01*
X0273253Y0312741D01*
X0273171Y0312756D01*
X0273089Y0312774D01*
X0273008Y0312797D01*
X0272929Y0312823D01*
X0272851Y0312853D01*
X0272774Y0312887D01*
X0272699Y0312924D01*
X0272626Y0312964D01*
X0272555Y0313009D01*
X0272486Y0313056D01*
X0272419Y0313107D01*
X0272355Y0313160D01*
X0272293Y0313217D01*
X0272235Y0313277D01*
X0272179Y0313339D01*
X0272126Y0313404D01*
X0272076Y0313471D01*
X0272029Y0313540D01*
X0271986Y0313612D01*
X0271946Y0313686D01*
X0271910Y0313761D01*
X0271877Y0313838D01*
X0271848Y0313917D01*
X0271823Y0313996D01*
X0271801Y0314077D01*
X0271784Y0314159D01*
X0271770Y0314242D01*
X0271760Y0314325D01*
X0271754Y0314408D01*
X0271752Y0314492D01*
X0271752Y0326303D02*
X0271754Y0326387D01*
X0271760Y0326470D01*
X0271770Y0326553D01*
X0271784Y0326636D01*
X0271801Y0326718D01*
X0271823Y0326799D01*
X0271848Y0326878D01*
X0271877Y0326957D01*
X0271910Y0327034D01*
X0271946Y0327109D01*
X0271986Y0327183D01*
X0272029Y0327255D01*
X0272076Y0327324D01*
X0272126Y0327391D01*
X0272179Y0327456D01*
X0272235Y0327518D01*
X0272293Y0327578D01*
X0272355Y0327635D01*
X0272419Y0327688D01*
X0272486Y0327739D01*
X0272555Y0327786D01*
X0272626Y0327831D01*
X0272699Y0327871D01*
X0272774Y0327908D01*
X0272851Y0327942D01*
X0272929Y0327972D01*
X0273008Y0327998D01*
X0273089Y0328021D01*
X0273171Y0328039D01*
X0273253Y0328054D01*
X0273336Y0328065D01*
X0273419Y0328072D01*
X0273503Y0328075D01*
X0273587Y0328074D01*
X0273670Y0328069D01*
X0273754Y0328060D01*
X0273836Y0328047D01*
X0273918Y0328031D01*
X0273999Y0328010D01*
X0274080Y0327986D01*
X0274158Y0327958D01*
X0274236Y0327926D01*
X0274312Y0327890D01*
X0274386Y0327851D01*
X0274458Y0327809D01*
X0274528Y0327763D01*
X0274596Y0327714D01*
X0274661Y0327662D01*
X0274724Y0327607D01*
X0274784Y0327549D01*
X0274842Y0327488D01*
X0274896Y0327424D01*
X0274948Y0327358D01*
X0274996Y0327290D01*
X0275041Y0327219D01*
X0275082Y0327146D01*
X0275121Y0327072D01*
X0275155Y0326996D01*
X0275186Y0326918D01*
X0275213Y0326839D01*
X0275237Y0326758D01*
X0275256Y0326677D01*
X0275272Y0326595D01*
X0275284Y0326512D01*
X0275292Y0326428D01*
X0275296Y0326345D01*
X0275296Y0326261D01*
X0275292Y0326178D01*
X0275284Y0326094D01*
X0275272Y0326011D01*
X0275256Y0325929D01*
X0275237Y0325848D01*
X0275213Y0325767D01*
X0275186Y0325688D01*
X0275155Y0325610D01*
X0275121Y0325534D01*
X0275082Y0325460D01*
X0275041Y0325387D01*
X0274996Y0325316D01*
X0274948Y0325248D01*
X0274896Y0325182D01*
X0274842Y0325118D01*
X0274784Y0325057D01*
X0274724Y0324999D01*
X0274661Y0324944D01*
X0274596Y0324892D01*
X0274528Y0324843D01*
X0274458Y0324797D01*
X0274386Y0324755D01*
X0274312Y0324716D01*
X0274236Y0324680D01*
X0274158Y0324648D01*
X0274080Y0324620D01*
X0273999Y0324596D01*
X0273918Y0324575D01*
X0273836Y0324559D01*
X0273754Y0324546D01*
X0273670Y0324537D01*
X0273587Y0324532D01*
X0273503Y0324531D01*
X0273419Y0324534D01*
X0273336Y0324541D01*
X0273253Y0324552D01*
X0273171Y0324567D01*
X0273089Y0324585D01*
X0273008Y0324608D01*
X0272929Y0324634D01*
X0272851Y0324664D01*
X0272774Y0324698D01*
X0272699Y0324735D01*
X0272626Y0324775D01*
X0272555Y0324820D01*
X0272486Y0324867D01*
X0272419Y0324918D01*
X0272355Y0324971D01*
X0272293Y0325028D01*
X0272235Y0325088D01*
X0272179Y0325150D01*
X0272126Y0325215D01*
X0272076Y0325282D01*
X0272029Y0325351D01*
X0271986Y0325423D01*
X0271946Y0325497D01*
X0271910Y0325572D01*
X0271877Y0325649D01*
X0271848Y0325728D01*
X0271823Y0325807D01*
X0271801Y0325888D01*
X0271784Y0325970D01*
X0271770Y0326053D01*
X0271760Y0326136D01*
X0271754Y0326219D01*
X0271752Y0326303D01*
D11*
X0262107Y0359768D02*
X0262109Y0359908D01*
X0262115Y0360048D01*
X0262125Y0360187D01*
X0262139Y0360326D01*
X0262157Y0360465D01*
X0262178Y0360603D01*
X0262204Y0360741D01*
X0262234Y0360878D01*
X0262267Y0361013D01*
X0262305Y0361148D01*
X0262346Y0361282D01*
X0262391Y0361415D01*
X0262439Y0361546D01*
X0262492Y0361675D01*
X0262548Y0361804D01*
X0262607Y0361930D01*
X0262671Y0362055D01*
X0262737Y0362178D01*
X0262808Y0362299D01*
X0262881Y0362418D01*
X0262958Y0362535D01*
X0263039Y0362649D01*
X0263122Y0362761D01*
X0263209Y0362871D01*
X0263299Y0362979D01*
X0263391Y0363083D01*
X0263487Y0363185D01*
X0263586Y0363285D01*
X0263687Y0363381D01*
X0263791Y0363475D01*
X0263898Y0363565D01*
X0264007Y0363652D01*
X0264119Y0363737D01*
X0264233Y0363818D01*
X0264349Y0363896D01*
X0264467Y0363970D01*
X0264588Y0364041D01*
X0264710Y0364109D01*
X0264835Y0364173D01*
X0264961Y0364234D01*
X0265088Y0364291D01*
X0265218Y0364344D01*
X0265349Y0364394D01*
X0265481Y0364439D01*
X0265614Y0364482D01*
X0265749Y0364520D01*
X0265884Y0364554D01*
X0266021Y0364585D01*
X0266158Y0364612D01*
X0266296Y0364634D01*
X0266435Y0364653D01*
X0266574Y0364668D01*
X0266713Y0364679D01*
X0266853Y0364686D01*
X0266993Y0364689D01*
X0267133Y0364688D01*
X0267273Y0364683D01*
X0267412Y0364674D01*
X0267552Y0364661D01*
X0267691Y0364644D01*
X0267829Y0364623D01*
X0267967Y0364599D01*
X0268104Y0364570D01*
X0268240Y0364538D01*
X0268375Y0364501D01*
X0268509Y0364461D01*
X0268642Y0364417D01*
X0268773Y0364369D01*
X0268903Y0364318D01*
X0269032Y0364263D01*
X0269159Y0364204D01*
X0269284Y0364141D01*
X0269407Y0364076D01*
X0269529Y0364006D01*
X0269648Y0363933D01*
X0269766Y0363857D01*
X0269881Y0363778D01*
X0269994Y0363695D01*
X0270104Y0363609D01*
X0270212Y0363520D01*
X0270317Y0363428D01*
X0270420Y0363333D01*
X0270520Y0363235D01*
X0270617Y0363135D01*
X0270711Y0363031D01*
X0270803Y0362925D01*
X0270891Y0362817D01*
X0270976Y0362706D01*
X0271058Y0362592D01*
X0271137Y0362476D01*
X0271212Y0362359D01*
X0271284Y0362239D01*
X0271352Y0362117D01*
X0271417Y0361993D01*
X0271479Y0361867D01*
X0271537Y0361740D01*
X0271591Y0361611D01*
X0271642Y0361480D01*
X0271688Y0361348D01*
X0271731Y0361215D01*
X0271771Y0361081D01*
X0271806Y0360946D01*
X0271838Y0360809D01*
X0271865Y0360672D01*
X0271889Y0360534D01*
X0271909Y0360396D01*
X0271925Y0360257D01*
X0271937Y0360117D01*
X0271945Y0359978D01*
X0271949Y0359838D01*
X0271949Y0359698D01*
X0271945Y0359558D01*
X0271937Y0359419D01*
X0271925Y0359279D01*
X0271909Y0359140D01*
X0271889Y0359002D01*
X0271865Y0358864D01*
X0271838Y0358727D01*
X0271806Y0358590D01*
X0271771Y0358455D01*
X0271731Y0358321D01*
X0271688Y0358188D01*
X0271642Y0358056D01*
X0271591Y0357925D01*
X0271537Y0357796D01*
X0271479Y0357669D01*
X0271417Y0357543D01*
X0271352Y0357419D01*
X0271284Y0357297D01*
X0271212Y0357177D01*
X0271137Y0357060D01*
X0271058Y0356944D01*
X0270976Y0356830D01*
X0270891Y0356719D01*
X0270803Y0356611D01*
X0270711Y0356505D01*
X0270617Y0356401D01*
X0270520Y0356301D01*
X0270420Y0356203D01*
X0270317Y0356108D01*
X0270212Y0356016D01*
X0270104Y0355927D01*
X0269994Y0355841D01*
X0269881Y0355758D01*
X0269766Y0355679D01*
X0269648Y0355603D01*
X0269529Y0355530D01*
X0269407Y0355460D01*
X0269284Y0355395D01*
X0269159Y0355332D01*
X0269032Y0355273D01*
X0268903Y0355218D01*
X0268773Y0355167D01*
X0268642Y0355119D01*
X0268509Y0355075D01*
X0268375Y0355035D01*
X0268240Y0354998D01*
X0268104Y0354966D01*
X0267967Y0354937D01*
X0267829Y0354913D01*
X0267691Y0354892D01*
X0267552Y0354875D01*
X0267412Y0354862D01*
X0267273Y0354853D01*
X0267133Y0354848D01*
X0266993Y0354847D01*
X0266853Y0354850D01*
X0266713Y0354857D01*
X0266574Y0354868D01*
X0266435Y0354883D01*
X0266296Y0354902D01*
X0266158Y0354924D01*
X0266021Y0354951D01*
X0265884Y0354982D01*
X0265749Y0355016D01*
X0265614Y0355054D01*
X0265481Y0355097D01*
X0265349Y0355142D01*
X0265218Y0355192D01*
X0265088Y0355245D01*
X0264961Y0355302D01*
X0264835Y0355363D01*
X0264710Y0355427D01*
X0264588Y0355495D01*
X0264467Y0355566D01*
X0264349Y0355640D01*
X0264233Y0355718D01*
X0264119Y0355799D01*
X0264007Y0355884D01*
X0263898Y0355971D01*
X0263791Y0356061D01*
X0263687Y0356155D01*
X0263586Y0356251D01*
X0263487Y0356351D01*
X0263391Y0356453D01*
X0263299Y0356557D01*
X0263209Y0356665D01*
X0263122Y0356775D01*
X0263039Y0356887D01*
X0262958Y0357001D01*
X0262881Y0357118D01*
X0262808Y0357237D01*
X0262737Y0357358D01*
X0262671Y0357481D01*
X0262607Y0357606D01*
X0262548Y0357732D01*
X0262492Y0357861D01*
X0262439Y0357990D01*
X0262391Y0358121D01*
X0262346Y0358254D01*
X0262305Y0358388D01*
X0262267Y0358523D01*
X0262234Y0358658D01*
X0262204Y0358795D01*
X0262178Y0358933D01*
X0262157Y0359071D01*
X0262139Y0359210D01*
X0262125Y0359349D01*
X0262115Y0359488D01*
X0262109Y0359628D01*
X0262107Y0359768D01*
X0262107Y0135358D02*
X0262109Y0135498D01*
X0262115Y0135638D01*
X0262125Y0135777D01*
X0262139Y0135916D01*
X0262157Y0136055D01*
X0262178Y0136193D01*
X0262204Y0136331D01*
X0262234Y0136468D01*
X0262267Y0136603D01*
X0262305Y0136738D01*
X0262346Y0136872D01*
X0262391Y0137005D01*
X0262439Y0137136D01*
X0262492Y0137265D01*
X0262548Y0137394D01*
X0262607Y0137520D01*
X0262671Y0137645D01*
X0262737Y0137768D01*
X0262808Y0137889D01*
X0262881Y0138008D01*
X0262958Y0138125D01*
X0263039Y0138239D01*
X0263122Y0138351D01*
X0263209Y0138461D01*
X0263299Y0138569D01*
X0263391Y0138673D01*
X0263487Y0138775D01*
X0263586Y0138875D01*
X0263687Y0138971D01*
X0263791Y0139065D01*
X0263898Y0139155D01*
X0264007Y0139242D01*
X0264119Y0139327D01*
X0264233Y0139408D01*
X0264349Y0139486D01*
X0264467Y0139560D01*
X0264588Y0139631D01*
X0264710Y0139699D01*
X0264835Y0139763D01*
X0264961Y0139824D01*
X0265088Y0139881D01*
X0265218Y0139934D01*
X0265349Y0139984D01*
X0265481Y0140029D01*
X0265614Y0140072D01*
X0265749Y0140110D01*
X0265884Y0140144D01*
X0266021Y0140175D01*
X0266158Y0140202D01*
X0266296Y0140224D01*
X0266435Y0140243D01*
X0266574Y0140258D01*
X0266713Y0140269D01*
X0266853Y0140276D01*
X0266993Y0140279D01*
X0267133Y0140278D01*
X0267273Y0140273D01*
X0267412Y0140264D01*
X0267552Y0140251D01*
X0267691Y0140234D01*
X0267829Y0140213D01*
X0267967Y0140189D01*
X0268104Y0140160D01*
X0268240Y0140128D01*
X0268375Y0140091D01*
X0268509Y0140051D01*
X0268642Y0140007D01*
X0268773Y0139959D01*
X0268903Y0139908D01*
X0269032Y0139853D01*
X0269159Y0139794D01*
X0269284Y0139731D01*
X0269407Y0139666D01*
X0269529Y0139596D01*
X0269648Y0139523D01*
X0269766Y0139447D01*
X0269881Y0139368D01*
X0269994Y0139285D01*
X0270104Y0139199D01*
X0270212Y0139110D01*
X0270317Y0139018D01*
X0270420Y0138923D01*
X0270520Y0138825D01*
X0270617Y0138725D01*
X0270711Y0138621D01*
X0270803Y0138515D01*
X0270891Y0138407D01*
X0270976Y0138296D01*
X0271058Y0138182D01*
X0271137Y0138066D01*
X0271212Y0137949D01*
X0271284Y0137829D01*
X0271352Y0137707D01*
X0271417Y0137583D01*
X0271479Y0137457D01*
X0271537Y0137330D01*
X0271591Y0137201D01*
X0271642Y0137070D01*
X0271688Y0136938D01*
X0271731Y0136805D01*
X0271771Y0136671D01*
X0271806Y0136536D01*
X0271838Y0136399D01*
X0271865Y0136262D01*
X0271889Y0136124D01*
X0271909Y0135986D01*
X0271925Y0135847D01*
X0271937Y0135707D01*
X0271945Y0135568D01*
X0271949Y0135428D01*
X0271949Y0135288D01*
X0271945Y0135148D01*
X0271937Y0135009D01*
X0271925Y0134869D01*
X0271909Y0134730D01*
X0271889Y0134592D01*
X0271865Y0134454D01*
X0271838Y0134317D01*
X0271806Y0134180D01*
X0271771Y0134045D01*
X0271731Y0133911D01*
X0271688Y0133778D01*
X0271642Y0133646D01*
X0271591Y0133515D01*
X0271537Y0133386D01*
X0271479Y0133259D01*
X0271417Y0133133D01*
X0271352Y0133009D01*
X0271284Y0132887D01*
X0271212Y0132767D01*
X0271137Y0132650D01*
X0271058Y0132534D01*
X0270976Y0132420D01*
X0270891Y0132309D01*
X0270803Y0132201D01*
X0270711Y0132095D01*
X0270617Y0131991D01*
X0270520Y0131891D01*
X0270420Y0131793D01*
X0270317Y0131698D01*
X0270212Y0131606D01*
X0270104Y0131517D01*
X0269994Y0131431D01*
X0269881Y0131348D01*
X0269766Y0131269D01*
X0269648Y0131193D01*
X0269529Y0131120D01*
X0269407Y0131050D01*
X0269284Y0130985D01*
X0269159Y0130922D01*
X0269032Y0130863D01*
X0268903Y0130808D01*
X0268773Y0130757D01*
X0268642Y0130709D01*
X0268509Y0130665D01*
X0268375Y0130625D01*
X0268240Y0130588D01*
X0268104Y0130556D01*
X0267967Y0130527D01*
X0267829Y0130503D01*
X0267691Y0130482D01*
X0267552Y0130465D01*
X0267412Y0130452D01*
X0267273Y0130443D01*
X0267133Y0130438D01*
X0266993Y0130437D01*
X0266853Y0130440D01*
X0266713Y0130447D01*
X0266574Y0130458D01*
X0266435Y0130473D01*
X0266296Y0130492D01*
X0266158Y0130514D01*
X0266021Y0130541D01*
X0265884Y0130572D01*
X0265749Y0130606D01*
X0265614Y0130644D01*
X0265481Y0130687D01*
X0265349Y0130732D01*
X0265218Y0130782D01*
X0265088Y0130835D01*
X0264961Y0130892D01*
X0264835Y0130953D01*
X0264710Y0131017D01*
X0264588Y0131085D01*
X0264467Y0131156D01*
X0264349Y0131230D01*
X0264233Y0131308D01*
X0264119Y0131389D01*
X0264007Y0131474D01*
X0263898Y0131561D01*
X0263791Y0131651D01*
X0263687Y0131745D01*
X0263586Y0131841D01*
X0263487Y0131941D01*
X0263391Y0132043D01*
X0263299Y0132147D01*
X0263209Y0132255D01*
X0263122Y0132365D01*
X0263039Y0132477D01*
X0262958Y0132591D01*
X0262881Y0132708D01*
X0262808Y0132827D01*
X0262737Y0132948D01*
X0262671Y0133071D01*
X0262607Y0133196D01*
X0262548Y0133322D01*
X0262492Y0133451D01*
X0262439Y0133580D01*
X0262391Y0133711D01*
X0262346Y0133844D01*
X0262305Y0133978D01*
X0262267Y0134113D01*
X0262234Y0134248D01*
X0262204Y0134385D01*
X0262178Y0134523D01*
X0262157Y0134661D01*
X0262139Y0134800D01*
X0262125Y0134939D01*
X0262115Y0135078D01*
X0262109Y0135218D01*
X0262107Y0135358D01*
X0262107Y0017248D02*
X0262109Y0017388D01*
X0262115Y0017528D01*
X0262125Y0017667D01*
X0262139Y0017806D01*
X0262157Y0017945D01*
X0262178Y0018083D01*
X0262204Y0018221D01*
X0262234Y0018358D01*
X0262267Y0018493D01*
X0262305Y0018628D01*
X0262346Y0018762D01*
X0262391Y0018895D01*
X0262439Y0019026D01*
X0262492Y0019155D01*
X0262548Y0019284D01*
X0262607Y0019410D01*
X0262671Y0019535D01*
X0262737Y0019658D01*
X0262808Y0019779D01*
X0262881Y0019898D01*
X0262958Y0020015D01*
X0263039Y0020129D01*
X0263122Y0020241D01*
X0263209Y0020351D01*
X0263299Y0020459D01*
X0263391Y0020563D01*
X0263487Y0020665D01*
X0263586Y0020765D01*
X0263687Y0020861D01*
X0263791Y0020955D01*
X0263898Y0021045D01*
X0264007Y0021132D01*
X0264119Y0021217D01*
X0264233Y0021298D01*
X0264349Y0021376D01*
X0264467Y0021450D01*
X0264588Y0021521D01*
X0264710Y0021589D01*
X0264835Y0021653D01*
X0264961Y0021714D01*
X0265088Y0021771D01*
X0265218Y0021824D01*
X0265349Y0021874D01*
X0265481Y0021919D01*
X0265614Y0021962D01*
X0265749Y0022000D01*
X0265884Y0022034D01*
X0266021Y0022065D01*
X0266158Y0022092D01*
X0266296Y0022114D01*
X0266435Y0022133D01*
X0266574Y0022148D01*
X0266713Y0022159D01*
X0266853Y0022166D01*
X0266993Y0022169D01*
X0267133Y0022168D01*
X0267273Y0022163D01*
X0267412Y0022154D01*
X0267552Y0022141D01*
X0267691Y0022124D01*
X0267829Y0022103D01*
X0267967Y0022079D01*
X0268104Y0022050D01*
X0268240Y0022018D01*
X0268375Y0021981D01*
X0268509Y0021941D01*
X0268642Y0021897D01*
X0268773Y0021849D01*
X0268903Y0021798D01*
X0269032Y0021743D01*
X0269159Y0021684D01*
X0269284Y0021621D01*
X0269407Y0021556D01*
X0269529Y0021486D01*
X0269648Y0021413D01*
X0269766Y0021337D01*
X0269881Y0021258D01*
X0269994Y0021175D01*
X0270104Y0021089D01*
X0270212Y0021000D01*
X0270317Y0020908D01*
X0270420Y0020813D01*
X0270520Y0020715D01*
X0270617Y0020615D01*
X0270711Y0020511D01*
X0270803Y0020405D01*
X0270891Y0020297D01*
X0270976Y0020186D01*
X0271058Y0020072D01*
X0271137Y0019956D01*
X0271212Y0019839D01*
X0271284Y0019719D01*
X0271352Y0019597D01*
X0271417Y0019473D01*
X0271479Y0019347D01*
X0271537Y0019220D01*
X0271591Y0019091D01*
X0271642Y0018960D01*
X0271688Y0018828D01*
X0271731Y0018695D01*
X0271771Y0018561D01*
X0271806Y0018426D01*
X0271838Y0018289D01*
X0271865Y0018152D01*
X0271889Y0018014D01*
X0271909Y0017876D01*
X0271925Y0017737D01*
X0271937Y0017597D01*
X0271945Y0017458D01*
X0271949Y0017318D01*
X0271949Y0017178D01*
X0271945Y0017038D01*
X0271937Y0016899D01*
X0271925Y0016759D01*
X0271909Y0016620D01*
X0271889Y0016482D01*
X0271865Y0016344D01*
X0271838Y0016207D01*
X0271806Y0016070D01*
X0271771Y0015935D01*
X0271731Y0015801D01*
X0271688Y0015668D01*
X0271642Y0015536D01*
X0271591Y0015405D01*
X0271537Y0015276D01*
X0271479Y0015149D01*
X0271417Y0015023D01*
X0271352Y0014899D01*
X0271284Y0014777D01*
X0271212Y0014657D01*
X0271137Y0014540D01*
X0271058Y0014424D01*
X0270976Y0014310D01*
X0270891Y0014199D01*
X0270803Y0014091D01*
X0270711Y0013985D01*
X0270617Y0013881D01*
X0270520Y0013781D01*
X0270420Y0013683D01*
X0270317Y0013588D01*
X0270212Y0013496D01*
X0270104Y0013407D01*
X0269994Y0013321D01*
X0269881Y0013238D01*
X0269766Y0013159D01*
X0269648Y0013083D01*
X0269529Y0013010D01*
X0269407Y0012940D01*
X0269284Y0012875D01*
X0269159Y0012812D01*
X0269032Y0012753D01*
X0268903Y0012698D01*
X0268773Y0012647D01*
X0268642Y0012599D01*
X0268509Y0012555D01*
X0268375Y0012515D01*
X0268240Y0012478D01*
X0268104Y0012446D01*
X0267967Y0012417D01*
X0267829Y0012393D01*
X0267691Y0012372D01*
X0267552Y0012355D01*
X0267412Y0012342D01*
X0267273Y0012333D01*
X0267133Y0012328D01*
X0266993Y0012327D01*
X0266853Y0012330D01*
X0266713Y0012337D01*
X0266574Y0012348D01*
X0266435Y0012363D01*
X0266296Y0012382D01*
X0266158Y0012404D01*
X0266021Y0012431D01*
X0265884Y0012462D01*
X0265749Y0012496D01*
X0265614Y0012534D01*
X0265481Y0012577D01*
X0265349Y0012622D01*
X0265218Y0012672D01*
X0265088Y0012725D01*
X0264961Y0012782D01*
X0264835Y0012843D01*
X0264710Y0012907D01*
X0264588Y0012975D01*
X0264467Y0013046D01*
X0264349Y0013120D01*
X0264233Y0013198D01*
X0264119Y0013279D01*
X0264007Y0013364D01*
X0263898Y0013451D01*
X0263791Y0013541D01*
X0263687Y0013635D01*
X0263586Y0013731D01*
X0263487Y0013831D01*
X0263391Y0013933D01*
X0263299Y0014037D01*
X0263209Y0014145D01*
X0263122Y0014255D01*
X0263039Y0014367D01*
X0262958Y0014481D01*
X0262881Y0014598D01*
X0262808Y0014717D01*
X0262737Y0014838D01*
X0262671Y0014961D01*
X0262607Y0015086D01*
X0262548Y0015212D01*
X0262492Y0015341D01*
X0262439Y0015470D01*
X0262391Y0015601D01*
X0262346Y0015734D01*
X0262305Y0015868D01*
X0262267Y0016003D01*
X0262234Y0016138D01*
X0262204Y0016275D01*
X0262178Y0016413D01*
X0262157Y0016551D01*
X0262139Y0016690D01*
X0262125Y0016829D01*
X0262115Y0016968D01*
X0262109Y0017108D01*
X0262107Y0017248D01*
X0014075Y0017248D02*
X0014077Y0017388D01*
X0014083Y0017528D01*
X0014093Y0017667D01*
X0014107Y0017806D01*
X0014125Y0017945D01*
X0014146Y0018083D01*
X0014172Y0018221D01*
X0014202Y0018358D01*
X0014235Y0018493D01*
X0014273Y0018628D01*
X0014314Y0018762D01*
X0014359Y0018895D01*
X0014407Y0019026D01*
X0014460Y0019155D01*
X0014516Y0019284D01*
X0014575Y0019410D01*
X0014639Y0019535D01*
X0014705Y0019658D01*
X0014776Y0019779D01*
X0014849Y0019898D01*
X0014926Y0020015D01*
X0015007Y0020129D01*
X0015090Y0020241D01*
X0015177Y0020351D01*
X0015267Y0020459D01*
X0015359Y0020563D01*
X0015455Y0020665D01*
X0015554Y0020765D01*
X0015655Y0020861D01*
X0015759Y0020955D01*
X0015866Y0021045D01*
X0015975Y0021132D01*
X0016087Y0021217D01*
X0016201Y0021298D01*
X0016317Y0021376D01*
X0016435Y0021450D01*
X0016556Y0021521D01*
X0016678Y0021589D01*
X0016803Y0021653D01*
X0016929Y0021714D01*
X0017056Y0021771D01*
X0017186Y0021824D01*
X0017317Y0021874D01*
X0017449Y0021919D01*
X0017582Y0021962D01*
X0017717Y0022000D01*
X0017852Y0022034D01*
X0017989Y0022065D01*
X0018126Y0022092D01*
X0018264Y0022114D01*
X0018403Y0022133D01*
X0018542Y0022148D01*
X0018681Y0022159D01*
X0018821Y0022166D01*
X0018961Y0022169D01*
X0019101Y0022168D01*
X0019241Y0022163D01*
X0019380Y0022154D01*
X0019520Y0022141D01*
X0019659Y0022124D01*
X0019797Y0022103D01*
X0019935Y0022079D01*
X0020072Y0022050D01*
X0020208Y0022018D01*
X0020343Y0021981D01*
X0020477Y0021941D01*
X0020610Y0021897D01*
X0020741Y0021849D01*
X0020871Y0021798D01*
X0021000Y0021743D01*
X0021127Y0021684D01*
X0021252Y0021621D01*
X0021375Y0021556D01*
X0021497Y0021486D01*
X0021616Y0021413D01*
X0021734Y0021337D01*
X0021849Y0021258D01*
X0021962Y0021175D01*
X0022072Y0021089D01*
X0022180Y0021000D01*
X0022285Y0020908D01*
X0022388Y0020813D01*
X0022488Y0020715D01*
X0022585Y0020615D01*
X0022679Y0020511D01*
X0022771Y0020405D01*
X0022859Y0020297D01*
X0022944Y0020186D01*
X0023026Y0020072D01*
X0023105Y0019956D01*
X0023180Y0019839D01*
X0023252Y0019719D01*
X0023320Y0019597D01*
X0023385Y0019473D01*
X0023447Y0019347D01*
X0023505Y0019220D01*
X0023559Y0019091D01*
X0023610Y0018960D01*
X0023656Y0018828D01*
X0023699Y0018695D01*
X0023739Y0018561D01*
X0023774Y0018426D01*
X0023806Y0018289D01*
X0023833Y0018152D01*
X0023857Y0018014D01*
X0023877Y0017876D01*
X0023893Y0017737D01*
X0023905Y0017597D01*
X0023913Y0017458D01*
X0023917Y0017318D01*
X0023917Y0017178D01*
X0023913Y0017038D01*
X0023905Y0016899D01*
X0023893Y0016759D01*
X0023877Y0016620D01*
X0023857Y0016482D01*
X0023833Y0016344D01*
X0023806Y0016207D01*
X0023774Y0016070D01*
X0023739Y0015935D01*
X0023699Y0015801D01*
X0023656Y0015668D01*
X0023610Y0015536D01*
X0023559Y0015405D01*
X0023505Y0015276D01*
X0023447Y0015149D01*
X0023385Y0015023D01*
X0023320Y0014899D01*
X0023252Y0014777D01*
X0023180Y0014657D01*
X0023105Y0014540D01*
X0023026Y0014424D01*
X0022944Y0014310D01*
X0022859Y0014199D01*
X0022771Y0014091D01*
X0022679Y0013985D01*
X0022585Y0013881D01*
X0022488Y0013781D01*
X0022388Y0013683D01*
X0022285Y0013588D01*
X0022180Y0013496D01*
X0022072Y0013407D01*
X0021962Y0013321D01*
X0021849Y0013238D01*
X0021734Y0013159D01*
X0021616Y0013083D01*
X0021497Y0013010D01*
X0021375Y0012940D01*
X0021252Y0012875D01*
X0021127Y0012812D01*
X0021000Y0012753D01*
X0020871Y0012698D01*
X0020741Y0012647D01*
X0020610Y0012599D01*
X0020477Y0012555D01*
X0020343Y0012515D01*
X0020208Y0012478D01*
X0020072Y0012446D01*
X0019935Y0012417D01*
X0019797Y0012393D01*
X0019659Y0012372D01*
X0019520Y0012355D01*
X0019380Y0012342D01*
X0019241Y0012333D01*
X0019101Y0012328D01*
X0018961Y0012327D01*
X0018821Y0012330D01*
X0018681Y0012337D01*
X0018542Y0012348D01*
X0018403Y0012363D01*
X0018264Y0012382D01*
X0018126Y0012404D01*
X0017989Y0012431D01*
X0017852Y0012462D01*
X0017717Y0012496D01*
X0017582Y0012534D01*
X0017449Y0012577D01*
X0017317Y0012622D01*
X0017186Y0012672D01*
X0017056Y0012725D01*
X0016929Y0012782D01*
X0016803Y0012843D01*
X0016678Y0012907D01*
X0016556Y0012975D01*
X0016435Y0013046D01*
X0016317Y0013120D01*
X0016201Y0013198D01*
X0016087Y0013279D01*
X0015975Y0013364D01*
X0015866Y0013451D01*
X0015759Y0013541D01*
X0015655Y0013635D01*
X0015554Y0013731D01*
X0015455Y0013831D01*
X0015359Y0013933D01*
X0015267Y0014037D01*
X0015177Y0014145D01*
X0015090Y0014255D01*
X0015007Y0014367D01*
X0014926Y0014481D01*
X0014849Y0014598D01*
X0014776Y0014717D01*
X0014705Y0014838D01*
X0014639Y0014961D01*
X0014575Y0015086D01*
X0014516Y0015212D01*
X0014460Y0015341D01*
X0014407Y0015470D01*
X0014359Y0015601D01*
X0014314Y0015734D01*
X0014273Y0015868D01*
X0014235Y0016003D01*
X0014202Y0016138D01*
X0014172Y0016275D01*
X0014146Y0016413D01*
X0014125Y0016551D01*
X0014107Y0016690D01*
X0014093Y0016829D01*
X0014083Y0016968D01*
X0014077Y0017108D01*
X0014075Y0017248D01*
X0014075Y0359768D02*
X0014077Y0359908D01*
X0014083Y0360048D01*
X0014093Y0360187D01*
X0014107Y0360326D01*
X0014125Y0360465D01*
X0014146Y0360603D01*
X0014172Y0360741D01*
X0014202Y0360878D01*
X0014235Y0361013D01*
X0014273Y0361148D01*
X0014314Y0361282D01*
X0014359Y0361415D01*
X0014407Y0361546D01*
X0014460Y0361675D01*
X0014516Y0361804D01*
X0014575Y0361930D01*
X0014639Y0362055D01*
X0014705Y0362178D01*
X0014776Y0362299D01*
X0014849Y0362418D01*
X0014926Y0362535D01*
X0015007Y0362649D01*
X0015090Y0362761D01*
X0015177Y0362871D01*
X0015267Y0362979D01*
X0015359Y0363083D01*
X0015455Y0363185D01*
X0015554Y0363285D01*
X0015655Y0363381D01*
X0015759Y0363475D01*
X0015866Y0363565D01*
X0015975Y0363652D01*
X0016087Y0363737D01*
X0016201Y0363818D01*
X0016317Y0363896D01*
X0016435Y0363970D01*
X0016556Y0364041D01*
X0016678Y0364109D01*
X0016803Y0364173D01*
X0016929Y0364234D01*
X0017056Y0364291D01*
X0017186Y0364344D01*
X0017317Y0364394D01*
X0017449Y0364439D01*
X0017582Y0364482D01*
X0017717Y0364520D01*
X0017852Y0364554D01*
X0017989Y0364585D01*
X0018126Y0364612D01*
X0018264Y0364634D01*
X0018403Y0364653D01*
X0018542Y0364668D01*
X0018681Y0364679D01*
X0018821Y0364686D01*
X0018961Y0364689D01*
X0019101Y0364688D01*
X0019241Y0364683D01*
X0019380Y0364674D01*
X0019520Y0364661D01*
X0019659Y0364644D01*
X0019797Y0364623D01*
X0019935Y0364599D01*
X0020072Y0364570D01*
X0020208Y0364538D01*
X0020343Y0364501D01*
X0020477Y0364461D01*
X0020610Y0364417D01*
X0020741Y0364369D01*
X0020871Y0364318D01*
X0021000Y0364263D01*
X0021127Y0364204D01*
X0021252Y0364141D01*
X0021375Y0364076D01*
X0021497Y0364006D01*
X0021616Y0363933D01*
X0021734Y0363857D01*
X0021849Y0363778D01*
X0021962Y0363695D01*
X0022072Y0363609D01*
X0022180Y0363520D01*
X0022285Y0363428D01*
X0022388Y0363333D01*
X0022488Y0363235D01*
X0022585Y0363135D01*
X0022679Y0363031D01*
X0022771Y0362925D01*
X0022859Y0362817D01*
X0022944Y0362706D01*
X0023026Y0362592D01*
X0023105Y0362476D01*
X0023180Y0362359D01*
X0023252Y0362239D01*
X0023320Y0362117D01*
X0023385Y0361993D01*
X0023447Y0361867D01*
X0023505Y0361740D01*
X0023559Y0361611D01*
X0023610Y0361480D01*
X0023656Y0361348D01*
X0023699Y0361215D01*
X0023739Y0361081D01*
X0023774Y0360946D01*
X0023806Y0360809D01*
X0023833Y0360672D01*
X0023857Y0360534D01*
X0023877Y0360396D01*
X0023893Y0360257D01*
X0023905Y0360117D01*
X0023913Y0359978D01*
X0023917Y0359838D01*
X0023917Y0359698D01*
X0023913Y0359558D01*
X0023905Y0359419D01*
X0023893Y0359279D01*
X0023877Y0359140D01*
X0023857Y0359002D01*
X0023833Y0358864D01*
X0023806Y0358727D01*
X0023774Y0358590D01*
X0023739Y0358455D01*
X0023699Y0358321D01*
X0023656Y0358188D01*
X0023610Y0358056D01*
X0023559Y0357925D01*
X0023505Y0357796D01*
X0023447Y0357669D01*
X0023385Y0357543D01*
X0023320Y0357419D01*
X0023252Y0357297D01*
X0023180Y0357177D01*
X0023105Y0357060D01*
X0023026Y0356944D01*
X0022944Y0356830D01*
X0022859Y0356719D01*
X0022771Y0356611D01*
X0022679Y0356505D01*
X0022585Y0356401D01*
X0022488Y0356301D01*
X0022388Y0356203D01*
X0022285Y0356108D01*
X0022180Y0356016D01*
X0022072Y0355927D01*
X0021962Y0355841D01*
X0021849Y0355758D01*
X0021734Y0355679D01*
X0021616Y0355603D01*
X0021497Y0355530D01*
X0021375Y0355460D01*
X0021252Y0355395D01*
X0021127Y0355332D01*
X0021000Y0355273D01*
X0020871Y0355218D01*
X0020741Y0355167D01*
X0020610Y0355119D01*
X0020477Y0355075D01*
X0020343Y0355035D01*
X0020208Y0354998D01*
X0020072Y0354966D01*
X0019935Y0354937D01*
X0019797Y0354913D01*
X0019659Y0354892D01*
X0019520Y0354875D01*
X0019380Y0354862D01*
X0019241Y0354853D01*
X0019101Y0354848D01*
X0018961Y0354847D01*
X0018821Y0354850D01*
X0018681Y0354857D01*
X0018542Y0354868D01*
X0018403Y0354883D01*
X0018264Y0354902D01*
X0018126Y0354924D01*
X0017989Y0354951D01*
X0017852Y0354982D01*
X0017717Y0355016D01*
X0017582Y0355054D01*
X0017449Y0355097D01*
X0017317Y0355142D01*
X0017186Y0355192D01*
X0017056Y0355245D01*
X0016929Y0355302D01*
X0016803Y0355363D01*
X0016678Y0355427D01*
X0016556Y0355495D01*
X0016435Y0355566D01*
X0016317Y0355640D01*
X0016201Y0355718D01*
X0016087Y0355799D01*
X0015975Y0355884D01*
X0015866Y0355971D01*
X0015759Y0356061D01*
X0015655Y0356155D01*
X0015554Y0356251D01*
X0015455Y0356351D01*
X0015359Y0356453D01*
X0015267Y0356557D01*
X0015177Y0356665D01*
X0015090Y0356775D01*
X0015007Y0356887D01*
X0014926Y0357001D01*
X0014849Y0357118D01*
X0014776Y0357237D01*
X0014705Y0357358D01*
X0014639Y0357481D01*
X0014575Y0357606D01*
X0014516Y0357732D01*
X0014460Y0357861D01*
X0014407Y0357990D01*
X0014359Y0358121D01*
X0014314Y0358254D01*
X0014273Y0358388D01*
X0014235Y0358523D01*
X0014202Y0358658D01*
X0014172Y0358795D01*
X0014146Y0358933D01*
X0014125Y0359071D01*
X0014107Y0359210D01*
X0014093Y0359349D01*
X0014083Y0359488D01*
X0014077Y0359628D01*
X0014075Y0359768D01*
D12*
X0017421Y0145201D03*
X0009547Y0145201D03*
D13*
X0072146Y0222760D03*
X0072146Y0225909D03*
X0072146Y0229059D03*
X0072146Y0232209D03*
X0072146Y0235358D03*
X0072146Y0238508D03*
X0072146Y0241657D03*
X0072146Y0244807D03*
X0072146Y0247957D03*
X0072146Y0251106D03*
X0072146Y0254256D03*
X0072146Y0257406D03*
X0072146Y0260555D03*
X0072146Y0263705D03*
X0072146Y0266854D03*
X0072146Y0270004D03*
X0072146Y0273154D03*
X0072146Y0276303D03*
D14*
G36*
X0162685Y0129346D02*
X0160258Y0122677D01*
X0153773Y0125038D01*
X0156200Y0131707D01*
X0162685Y0129346D01*
G37*
G36*
X0181183Y0122613D02*
X0178756Y0115944D01*
X0172271Y0118305D01*
X0174698Y0124974D01*
X0181183Y0122613D01*
G37*
G36*
X0200992Y0092547D02*
X0198565Y0085878D01*
X0192080Y0088239D01*
X0194507Y0094908D01*
X0200992Y0092547D01*
G37*
G36*
X0219489Y0085815D02*
X0217062Y0079146D01*
X0210577Y0081507D01*
X0213004Y0088176D01*
X0219489Y0085815D01*
G37*
G36*
X0207805Y0065523D02*
X0205378Y0058854D01*
X0198893Y0061215D01*
X0201320Y0067884D01*
X0207805Y0065523D01*
G37*
G36*
X0189307Y0072256D02*
X0186880Y0065587D01*
X0180395Y0067948D01*
X0182822Y0074617D01*
X0189307Y0072256D01*
G37*
G36*
X0162399Y0071004D02*
X0159972Y0064335D01*
X0153487Y0066696D01*
X0155914Y0073365D01*
X0162399Y0071004D01*
G37*
G36*
X0143901Y0077737D02*
X0141474Y0071068D01*
X0134989Y0073429D01*
X0137416Y0080098D01*
X0143901Y0077737D01*
G37*
G36*
X0170523Y0020646D02*
X0168096Y0013977D01*
X0161611Y0016338D01*
X0164038Y0023007D01*
X0170523Y0020646D01*
G37*
G36*
X0189021Y0013914D02*
X0186594Y0007245D01*
X0180109Y0009606D01*
X0182536Y0016275D01*
X0189021Y0013914D01*
G37*
G36*
X0227613Y0035457D02*
X0225186Y0028788D01*
X0218701Y0031149D01*
X0221128Y0037818D01*
X0227613Y0035457D01*
G37*
G36*
X0246111Y0028724D02*
X0243684Y0022055D01*
X0237199Y0024416D01*
X0239626Y0031085D01*
X0246111Y0028724D01*
G37*
G36*
X0264895Y0080333D02*
X0262468Y0073664D01*
X0255983Y0076025D01*
X0258410Y0082694D01*
X0264895Y0080333D01*
G37*
G36*
X0246397Y0087066D02*
X0243970Y0080397D01*
X0237485Y0082758D01*
X0239912Y0089427D01*
X0246397Y0087066D01*
G37*
G36*
X0238274Y0137424D02*
X0235847Y0130755D01*
X0229362Y0133116D01*
X0231789Y0139785D01*
X0238274Y0137424D01*
G37*
G36*
X0219776Y0144156D02*
X0217349Y0137487D01*
X0210864Y0139848D01*
X0213291Y0146517D01*
X0219776Y0144156D01*
G37*
D15*
X0094390Y0133390D03*
X0069587Y0133390D03*
X0055020Y0133390D03*
X0030217Y0133390D03*
D16*
X0273524Y0314492D03*
X0273524Y0326303D03*
D17*
G36*
X0089592Y0085412D02*
X0085407Y0081227D01*
X0080528Y0086106D01*
X0084713Y0090291D01*
X0089592Y0085412D01*
G37*
G36*
X0079980Y0103354D02*
X0084165Y0099169D01*
X0079286Y0094290D01*
X0075101Y0098475D01*
X0079980Y0103354D01*
G37*
G36*
X0067452Y0115881D02*
X0071637Y0111696D01*
X0066758Y0106817D01*
X0062573Y0111002D01*
X0067452Y0115881D01*
G37*
G36*
X0045320Y0093749D02*
X0049505Y0089564D01*
X0044626Y0084685D01*
X0040441Y0088870D01*
X0045320Y0093749D01*
G37*
G36*
X0025410Y0086106D02*
X0029595Y0090291D01*
X0034474Y0085412D01*
X0030289Y0081227D01*
X0025410Y0086106D01*
G37*
G36*
X0012882Y0073578D02*
X0017067Y0077763D01*
X0021946Y0072884D01*
X0017761Y0068699D01*
X0012882Y0073578D01*
G37*
G36*
X0035014Y0051446D02*
X0039199Y0055631D01*
X0044078Y0050752D01*
X0039893Y0046567D01*
X0035014Y0051446D01*
G37*
G36*
X0044626Y0033504D02*
X0040441Y0037689D01*
X0045320Y0042568D01*
X0049505Y0038383D01*
X0044626Y0033504D01*
G37*
G36*
X0057154Y0020977D02*
X0052969Y0025162D01*
X0057848Y0030041D01*
X0062033Y0025856D01*
X0057154Y0020977D01*
G37*
G36*
X0079286Y0043109D02*
X0075101Y0047294D01*
X0079980Y0052173D01*
X0084165Y0047988D01*
X0079286Y0043109D01*
G37*
G36*
X0066758Y0055636D02*
X0062573Y0059821D01*
X0067452Y0064700D01*
X0071637Y0060515D01*
X0066758Y0055636D01*
G37*
G36*
X0047542Y0063974D02*
X0051727Y0068159D01*
X0056606Y0063280D01*
X0052421Y0059095D01*
X0047542Y0063974D01*
G37*
G36*
X0057848Y0081222D02*
X0062033Y0077037D01*
X0057154Y0072158D01*
X0052969Y0076343D01*
X0057848Y0081222D01*
G37*
G36*
X0077065Y0072884D02*
X0072880Y0068699D01*
X0068001Y0073578D01*
X0072186Y0077763D01*
X0077065Y0072884D01*
G37*
G36*
X0099196Y0050752D02*
X0095011Y0046567D01*
X0090132Y0051446D01*
X0094317Y0055631D01*
X0099196Y0050752D01*
G37*
G36*
X0111724Y0063280D02*
X0107539Y0059095D01*
X0102660Y0063974D01*
X0106845Y0068159D01*
X0111724Y0063280D01*
G37*
D18*
X0143012Y0044807D03*
X0062303Y0068429D03*
X0158000Y0178665D03*
X0172539Y0210161D03*
X0188000Y0170791D03*
X0207972Y0182602D03*
X0218000Y0170791D03*
X0228000Y0174728D03*
X0223130Y0186539D03*
X0267028Y0170791D03*
X0251280Y0265280D03*
X0247343Y0273154D03*
X0243406Y0277091D03*
X0239469Y0269217D03*
X0247343Y0296776D03*
X0263091Y0296776D03*
X0160728Y0277091D03*
X0148000Y0285752D03*
X0143012Y0279453D03*
X0138000Y0273154D03*
X0128000Y0276303D03*
X0133169Y0288902D03*
X0113484Y0282602D03*
X0156791Y0328272D03*
X0088000Y0206224D03*
X0070177Y0206224D03*
X0050492Y0218035D03*
D19*
X0038000Y0265280D03*
X0118000Y0265280D03*
M02*
