G75*
%MOIN*%
%OFA0B0*%
%FSLAX25Y25*%
%IPPOS*%
%LPD*%
%AMOC8*
5,1,8,0,0,1.08239X$1,22.5*
%
%ADD10C,0.00000*%
%ADD11R,0.00339X0.00339*%
%ADD12R,0.01354X0.00339*%
%ADD13R,0.01016X0.00339*%
%ADD14R,0.02031X0.00339*%
%ADD15R,0.03047X0.00339*%
%ADD16R,0.03724X0.00339*%
%ADD17R,0.05079X0.00339*%
%ADD18R,0.05756X0.00339*%
%ADD19R,0.04740X0.00339*%
%ADD20R,0.01693X0.00339*%
%ADD21R,0.00677X0.00339*%
%ADD22R,0.03386X0.00339*%
%ADD23R,0.04402X0.00339*%
%ADD24R,0.02709X0.00339*%
%ADD25R,0.05417X0.00339*%
%ADD26R,0.02370X0.00339*%
%ADD27R,0.04063X0.00339*%
%ADD28R,0.06094X0.00339*%
%ADD29R,0.06772X0.00339*%
%ADD30R,1.10378X0.00339*%
%ADD31R,1.15118X0.00339*%
%ADD32R,0.65685X0.00339*%
%ADD33R,0.43339X0.00339*%
%ADD34R,0.66024X0.00339*%
%ADD35R,0.43677X0.00339*%
%ADD36R,1.14441X0.00339*%
%ADD37R,1.13764X0.00339*%
%ADD38R,1.13087X0.00339*%
%ADD39R,1.12409X0.00339*%
%ADD40R,1.11055X0.00339*%
%ADD41R,0.10496X0.00339*%
%ADD42R,0.22685X0.00339*%
%ADD43R,0.32504X0.00339*%
%ADD44R,0.06433X0.00339*%
%ADD45R,0.07787X0.00339*%
%ADD46R,0.09142X0.00339*%
%ADD47R,0.09480X0.00339*%
%ADD48R,0.09819X0.00339*%
%ADD49R,0.07110X0.00339*%
%ADD50R,0.08126X0.00339*%
%ADD51R,0.07449X0.00339*%
%ADD52R,0.11850X0.00339*%
%ADD53R,0.22346X0.00339*%
%ADD54R,0.11173X0.00339*%
%ADD55R,0.08465X0.00339*%
%ADD56R,0.08803X0.00339*%
%ADD57R,0.10157X0.00339*%
%ADD58R,0.12866X0.00339*%
%ADD59R,0.13543X0.00339*%
%ADD60C,0.00100*%
%ADD61C,0.00500*%
%ADD62C,0.00400*%
%ADD63C,0.00394*%
%ADD64C,0.00800*%
%ADD65C,0.02756*%
%ADD66R,0.05512X0.02559*%
%ADD67R,0.00787X0.00787*%
D10*
X0055057Y0008630D02*
X0055057Y0370835D01*
X0055059Y0370959D01*
X0055065Y0371082D01*
X0055074Y0371206D01*
X0055088Y0371328D01*
X0055105Y0371451D01*
X0055127Y0371573D01*
X0055152Y0371694D01*
X0055181Y0371814D01*
X0055213Y0371933D01*
X0055250Y0372052D01*
X0055290Y0372169D01*
X0055333Y0372284D01*
X0055381Y0372399D01*
X0055432Y0372511D01*
X0055486Y0372622D01*
X0055544Y0372732D01*
X0055605Y0372839D01*
X0055670Y0372945D01*
X0055738Y0373048D01*
X0055809Y0373149D01*
X0055883Y0373248D01*
X0055960Y0373345D01*
X0056041Y0373439D01*
X0056124Y0373530D01*
X0056210Y0373619D01*
X0056299Y0373705D01*
X0056390Y0373788D01*
X0056484Y0373869D01*
X0056581Y0373946D01*
X0056680Y0374020D01*
X0056781Y0374091D01*
X0056884Y0374159D01*
X0056990Y0374224D01*
X0057097Y0374285D01*
X0057207Y0374343D01*
X0057318Y0374397D01*
X0057430Y0374448D01*
X0057545Y0374496D01*
X0057660Y0374539D01*
X0057777Y0374579D01*
X0057896Y0374616D01*
X0058015Y0374648D01*
X0058135Y0374677D01*
X0058256Y0374702D01*
X0058378Y0374724D01*
X0058501Y0374741D01*
X0058623Y0374755D01*
X0058747Y0374764D01*
X0058870Y0374770D01*
X0058994Y0374772D01*
X0330647Y0374772D01*
X0330771Y0374770D01*
X0330894Y0374764D01*
X0331018Y0374755D01*
X0331140Y0374741D01*
X0331263Y0374724D01*
X0331385Y0374702D01*
X0331506Y0374677D01*
X0331626Y0374648D01*
X0331745Y0374616D01*
X0331864Y0374579D01*
X0331981Y0374539D01*
X0332096Y0374496D01*
X0332211Y0374448D01*
X0332323Y0374397D01*
X0332434Y0374343D01*
X0332544Y0374285D01*
X0332651Y0374224D01*
X0332757Y0374159D01*
X0332860Y0374091D01*
X0332961Y0374020D01*
X0333060Y0373946D01*
X0333157Y0373869D01*
X0333251Y0373788D01*
X0333342Y0373705D01*
X0333431Y0373619D01*
X0333517Y0373530D01*
X0333600Y0373439D01*
X0333681Y0373345D01*
X0333758Y0373248D01*
X0333832Y0373149D01*
X0333903Y0373048D01*
X0333971Y0372945D01*
X0334036Y0372839D01*
X0334097Y0372732D01*
X0334155Y0372622D01*
X0334209Y0372511D01*
X0334260Y0372399D01*
X0334308Y0372284D01*
X0334351Y0372169D01*
X0334391Y0372052D01*
X0334428Y0371933D01*
X0334460Y0371814D01*
X0334489Y0371694D01*
X0334514Y0371573D01*
X0334536Y0371451D01*
X0334553Y0371328D01*
X0334567Y0371206D01*
X0334576Y0371082D01*
X0334582Y0370959D01*
X0334584Y0370835D01*
X0334584Y0008630D01*
X0334582Y0008506D01*
X0334576Y0008383D01*
X0334567Y0008259D01*
X0334553Y0008137D01*
X0334536Y0008014D01*
X0334514Y0007892D01*
X0334489Y0007771D01*
X0334460Y0007651D01*
X0334428Y0007532D01*
X0334391Y0007413D01*
X0334351Y0007296D01*
X0334308Y0007181D01*
X0334260Y0007066D01*
X0334209Y0006954D01*
X0334155Y0006843D01*
X0334097Y0006733D01*
X0334036Y0006626D01*
X0333971Y0006520D01*
X0333903Y0006417D01*
X0333832Y0006316D01*
X0333758Y0006217D01*
X0333681Y0006120D01*
X0333600Y0006026D01*
X0333517Y0005935D01*
X0333431Y0005846D01*
X0333342Y0005760D01*
X0333251Y0005677D01*
X0333157Y0005596D01*
X0333060Y0005519D01*
X0332961Y0005445D01*
X0332860Y0005374D01*
X0332757Y0005306D01*
X0332651Y0005241D01*
X0332544Y0005180D01*
X0332434Y0005122D01*
X0332323Y0005068D01*
X0332211Y0005017D01*
X0332096Y0004969D01*
X0331981Y0004926D01*
X0331864Y0004886D01*
X0331745Y0004849D01*
X0331626Y0004817D01*
X0331506Y0004788D01*
X0331385Y0004763D01*
X0331263Y0004741D01*
X0331140Y0004724D01*
X0331018Y0004710D01*
X0330894Y0004701D01*
X0330771Y0004695D01*
X0330647Y0004693D01*
X0058994Y0004693D01*
X0058870Y0004695D01*
X0058747Y0004701D01*
X0058623Y0004710D01*
X0058501Y0004724D01*
X0058378Y0004741D01*
X0058256Y0004763D01*
X0058135Y0004788D01*
X0058015Y0004817D01*
X0057896Y0004849D01*
X0057777Y0004886D01*
X0057660Y0004926D01*
X0057545Y0004969D01*
X0057430Y0005017D01*
X0057318Y0005068D01*
X0057207Y0005122D01*
X0057097Y0005180D01*
X0056990Y0005241D01*
X0056884Y0005306D01*
X0056781Y0005374D01*
X0056680Y0005445D01*
X0056581Y0005519D01*
X0056484Y0005596D01*
X0056390Y0005677D01*
X0056299Y0005760D01*
X0056210Y0005846D01*
X0056124Y0005935D01*
X0056041Y0006026D01*
X0055960Y0006120D01*
X0055883Y0006217D01*
X0055809Y0006316D01*
X0055738Y0006417D01*
X0055670Y0006520D01*
X0055605Y0006626D01*
X0055544Y0006733D01*
X0055486Y0006843D01*
X0055432Y0006954D01*
X0055381Y0007066D01*
X0055333Y0007181D01*
X0055290Y0007296D01*
X0055250Y0007413D01*
X0055213Y0007532D01*
X0055181Y0007651D01*
X0055152Y0007771D01*
X0055127Y0007892D01*
X0055105Y0008014D01*
X0055088Y0008137D01*
X0055074Y0008259D01*
X0055065Y0008383D01*
X0055059Y0008506D01*
X0055057Y0008630D01*
X0065293Y0020441D02*
X0065295Y0020589D01*
X0065301Y0020737D01*
X0065311Y0020885D01*
X0065325Y0021032D01*
X0065343Y0021179D01*
X0065364Y0021325D01*
X0065390Y0021471D01*
X0065420Y0021616D01*
X0065453Y0021760D01*
X0065491Y0021903D01*
X0065532Y0022045D01*
X0065577Y0022186D01*
X0065625Y0022326D01*
X0065678Y0022465D01*
X0065734Y0022602D01*
X0065794Y0022737D01*
X0065857Y0022871D01*
X0065924Y0023003D01*
X0065995Y0023133D01*
X0066069Y0023261D01*
X0066146Y0023387D01*
X0066227Y0023511D01*
X0066311Y0023633D01*
X0066398Y0023752D01*
X0066489Y0023869D01*
X0066583Y0023984D01*
X0066679Y0024096D01*
X0066779Y0024206D01*
X0066881Y0024312D01*
X0066987Y0024416D01*
X0067095Y0024517D01*
X0067206Y0024615D01*
X0067319Y0024711D01*
X0067435Y0024803D01*
X0067553Y0024892D01*
X0067674Y0024977D01*
X0067797Y0025060D01*
X0067922Y0025139D01*
X0068049Y0025215D01*
X0068178Y0025287D01*
X0068309Y0025356D01*
X0068442Y0025421D01*
X0068577Y0025482D01*
X0068713Y0025540D01*
X0068850Y0025595D01*
X0068989Y0025645D01*
X0069130Y0025692D01*
X0069271Y0025735D01*
X0069414Y0025775D01*
X0069558Y0025810D01*
X0069702Y0025842D01*
X0069848Y0025869D01*
X0069994Y0025893D01*
X0070141Y0025913D01*
X0070288Y0025929D01*
X0070435Y0025941D01*
X0070583Y0025949D01*
X0070731Y0025953D01*
X0070879Y0025953D01*
X0071027Y0025949D01*
X0071175Y0025941D01*
X0071322Y0025929D01*
X0071469Y0025913D01*
X0071616Y0025893D01*
X0071762Y0025869D01*
X0071908Y0025842D01*
X0072052Y0025810D01*
X0072196Y0025775D01*
X0072339Y0025735D01*
X0072480Y0025692D01*
X0072621Y0025645D01*
X0072760Y0025595D01*
X0072897Y0025540D01*
X0073033Y0025482D01*
X0073168Y0025421D01*
X0073301Y0025356D01*
X0073432Y0025287D01*
X0073561Y0025215D01*
X0073688Y0025139D01*
X0073813Y0025060D01*
X0073936Y0024977D01*
X0074057Y0024892D01*
X0074175Y0024803D01*
X0074291Y0024711D01*
X0074404Y0024615D01*
X0074515Y0024517D01*
X0074623Y0024416D01*
X0074729Y0024312D01*
X0074831Y0024206D01*
X0074931Y0024096D01*
X0075027Y0023984D01*
X0075121Y0023869D01*
X0075212Y0023752D01*
X0075299Y0023633D01*
X0075383Y0023511D01*
X0075464Y0023387D01*
X0075541Y0023261D01*
X0075615Y0023133D01*
X0075686Y0023003D01*
X0075753Y0022871D01*
X0075816Y0022737D01*
X0075876Y0022602D01*
X0075932Y0022465D01*
X0075985Y0022326D01*
X0076033Y0022186D01*
X0076078Y0022045D01*
X0076119Y0021903D01*
X0076157Y0021760D01*
X0076190Y0021616D01*
X0076220Y0021471D01*
X0076246Y0021325D01*
X0076267Y0021179D01*
X0076285Y0021032D01*
X0076299Y0020885D01*
X0076309Y0020737D01*
X0076315Y0020589D01*
X0076317Y0020441D01*
X0076315Y0020293D01*
X0076309Y0020145D01*
X0076299Y0019997D01*
X0076285Y0019850D01*
X0076267Y0019703D01*
X0076246Y0019557D01*
X0076220Y0019411D01*
X0076190Y0019266D01*
X0076157Y0019122D01*
X0076119Y0018979D01*
X0076078Y0018837D01*
X0076033Y0018696D01*
X0075985Y0018556D01*
X0075932Y0018417D01*
X0075876Y0018280D01*
X0075816Y0018145D01*
X0075753Y0018011D01*
X0075686Y0017879D01*
X0075615Y0017749D01*
X0075541Y0017621D01*
X0075464Y0017495D01*
X0075383Y0017371D01*
X0075299Y0017249D01*
X0075212Y0017130D01*
X0075121Y0017013D01*
X0075027Y0016898D01*
X0074931Y0016786D01*
X0074831Y0016676D01*
X0074729Y0016570D01*
X0074623Y0016466D01*
X0074515Y0016365D01*
X0074404Y0016267D01*
X0074291Y0016171D01*
X0074175Y0016079D01*
X0074057Y0015990D01*
X0073936Y0015905D01*
X0073813Y0015822D01*
X0073688Y0015743D01*
X0073561Y0015667D01*
X0073432Y0015595D01*
X0073301Y0015526D01*
X0073168Y0015461D01*
X0073033Y0015400D01*
X0072897Y0015342D01*
X0072760Y0015287D01*
X0072621Y0015237D01*
X0072480Y0015190D01*
X0072339Y0015147D01*
X0072196Y0015107D01*
X0072052Y0015072D01*
X0071908Y0015040D01*
X0071762Y0015013D01*
X0071616Y0014989D01*
X0071469Y0014969D01*
X0071322Y0014953D01*
X0071175Y0014941D01*
X0071027Y0014933D01*
X0070879Y0014929D01*
X0070731Y0014929D01*
X0070583Y0014933D01*
X0070435Y0014941D01*
X0070288Y0014953D01*
X0070141Y0014969D01*
X0069994Y0014989D01*
X0069848Y0015013D01*
X0069702Y0015040D01*
X0069558Y0015072D01*
X0069414Y0015107D01*
X0069271Y0015147D01*
X0069130Y0015190D01*
X0068989Y0015237D01*
X0068850Y0015287D01*
X0068713Y0015342D01*
X0068577Y0015400D01*
X0068442Y0015461D01*
X0068309Y0015526D01*
X0068178Y0015595D01*
X0068049Y0015667D01*
X0067922Y0015743D01*
X0067797Y0015822D01*
X0067674Y0015905D01*
X0067553Y0015990D01*
X0067435Y0016079D01*
X0067319Y0016171D01*
X0067206Y0016267D01*
X0067095Y0016365D01*
X0066987Y0016466D01*
X0066881Y0016570D01*
X0066779Y0016676D01*
X0066679Y0016786D01*
X0066583Y0016898D01*
X0066489Y0017013D01*
X0066398Y0017130D01*
X0066311Y0017249D01*
X0066227Y0017371D01*
X0066146Y0017495D01*
X0066069Y0017621D01*
X0065995Y0017749D01*
X0065924Y0017879D01*
X0065857Y0018011D01*
X0065794Y0018145D01*
X0065734Y0018280D01*
X0065678Y0018417D01*
X0065625Y0018556D01*
X0065577Y0018696D01*
X0065532Y0018837D01*
X0065491Y0018979D01*
X0065453Y0019122D01*
X0065420Y0019266D01*
X0065390Y0019411D01*
X0065364Y0019557D01*
X0065343Y0019703D01*
X0065325Y0019850D01*
X0065311Y0019997D01*
X0065301Y0020145D01*
X0065295Y0020293D01*
X0065293Y0020441D01*
X0313324Y0020441D02*
X0313326Y0020589D01*
X0313332Y0020737D01*
X0313342Y0020885D01*
X0313356Y0021032D01*
X0313374Y0021179D01*
X0313395Y0021325D01*
X0313421Y0021471D01*
X0313451Y0021616D01*
X0313484Y0021760D01*
X0313522Y0021903D01*
X0313563Y0022045D01*
X0313608Y0022186D01*
X0313656Y0022326D01*
X0313709Y0022465D01*
X0313765Y0022602D01*
X0313825Y0022737D01*
X0313888Y0022871D01*
X0313955Y0023003D01*
X0314026Y0023133D01*
X0314100Y0023261D01*
X0314177Y0023387D01*
X0314258Y0023511D01*
X0314342Y0023633D01*
X0314429Y0023752D01*
X0314520Y0023869D01*
X0314614Y0023984D01*
X0314710Y0024096D01*
X0314810Y0024206D01*
X0314912Y0024312D01*
X0315018Y0024416D01*
X0315126Y0024517D01*
X0315237Y0024615D01*
X0315350Y0024711D01*
X0315466Y0024803D01*
X0315584Y0024892D01*
X0315705Y0024977D01*
X0315828Y0025060D01*
X0315953Y0025139D01*
X0316080Y0025215D01*
X0316209Y0025287D01*
X0316340Y0025356D01*
X0316473Y0025421D01*
X0316608Y0025482D01*
X0316744Y0025540D01*
X0316881Y0025595D01*
X0317020Y0025645D01*
X0317161Y0025692D01*
X0317302Y0025735D01*
X0317445Y0025775D01*
X0317589Y0025810D01*
X0317733Y0025842D01*
X0317879Y0025869D01*
X0318025Y0025893D01*
X0318172Y0025913D01*
X0318319Y0025929D01*
X0318466Y0025941D01*
X0318614Y0025949D01*
X0318762Y0025953D01*
X0318910Y0025953D01*
X0319058Y0025949D01*
X0319206Y0025941D01*
X0319353Y0025929D01*
X0319500Y0025913D01*
X0319647Y0025893D01*
X0319793Y0025869D01*
X0319939Y0025842D01*
X0320083Y0025810D01*
X0320227Y0025775D01*
X0320370Y0025735D01*
X0320511Y0025692D01*
X0320652Y0025645D01*
X0320791Y0025595D01*
X0320928Y0025540D01*
X0321064Y0025482D01*
X0321199Y0025421D01*
X0321332Y0025356D01*
X0321463Y0025287D01*
X0321592Y0025215D01*
X0321719Y0025139D01*
X0321844Y0025060D01*
X0321967Y0024977D01*
X0322088Y0024892D01*
X0322206Y0024803D01*
X0322322Y0024711D01*
X0322435Y0024615D01*
X0322546Y0024517D01*
X0322654Y0024416D01*
X0322760Y0024312D01*
X0322862Y0024206D01*
X0322962Y0024096D01*
X0323058Y0023984D01*
X0323152Y0023869D01*
X0323243Y0023752D01*
X0323330Y0023633D01*
X0323414Y0023511D01*
X0323495Y0023387D01*
X0323572Y0023261D01*
X0323646Y0023133D01*
X0323717Y0023003D01*
X0323784Y0022871D01*
X0323847Y0022737D01*
X0323907Y0022602D01*
X0323963Y0022465D01*
X0324016Y0022326D01*
X0324064Y0022186D01*
X0324109Y0022045D01*
X0324150Y0021903D01*
X0324188Y0021760D01*
X0324221Y0021616D01*
X0324251Y0021471D01*
X0324277Y0021325D01*
X0324298Y0021179D01*
X0324316Y0021032D01*
X0324330Y0020885D01*
X0324340Y0020737D01*
X0324346Y0020589D01*
X0324348Y0020441D01*
X0324346Y0020293D01*
X0324340Y0020145D01*
X0324330Y0019997D01*
X0324316Y0019850D01*
X0324298Y0019703D01*
X0324277Y0019557D01*
X0324251Y0019411D01*
X0324221Y0019266D01*
X0324188Y0019122D01*
X0324150Y0018979D01*
X0324109Y0018837D01*
X0324064Y0018696D01*
X0324016Y0018556D01*
X0323963Y0018417D01*
X0323907Y0018280D01*
X0323847Y0018145D01*
X0323784Y0018011D01*
X0323717Y0017879D01*
X0323646Y0017749D01*
X0323572Y0017621D01*
X0323495Y0017495D01*
X0323414Y0017371D01*
X0323330Y0017249D01*
X0323243Y0017130D01*
X0323152Y0017013D01*
X0323058Y0016898D01*
X0322962Y0016786D01*
X0322862Y0016676D01*
X0322760Y0016570D01*
X0322654Y0016466D01*
X0322546Y0016365D01*
X0322435Y0016267D01*
X0322322Y0016171D01*
X0322206Y0016079D01*
X0322088Y0015990D01*
X0321967Y0015905D01*
X0321844Y0015822D01*
X0321719Y0015743D01*
X0321592Y0015667D01*
X0321463Y0015595D01*
X0321332Y0015526D01*
X0321199Y0015461D01*
X0321064Y0015400D01*
X0320928Y0015342D01*
X0320791Y0015287D01*
X0320652Y0015237D01*
X0320511Y0015190D01*
X0320370Y0015147D01*
X0320227Y0015107D01*
X0320083Y0015072D01*
X0319939Y0015040D01*
X0319793Y0015013D01*
X0319647Y0014989D01*
X0319500Y0014969D01*
X0319353Y0014953D01*
X0319206Y0014941D01*
X0319058Y0014933D01*
X0318910Y0014929D01*
X0318762Y0014929D01*
X0318614Y0014933D01*
X0318466Y0014941D01*
X0318319Y0014953D01*
X0318172Y0014969D01*
X0318025Y0014989D01*
X0317879Y0015013D01*
X0317733Y0015040D01*
X0317589Y0015072D01*
X0317445Y0015107D01*
X0317302Y0015147D01*
X0317161Y0015190D01*
X0317020Y0015237D01*
X0316881Y0015287D01*
X0316744Y0015342D01*
X0316608Y0015400D01*
X0316473Y0015461D01*
X0316340Y0015526D01*
X0316209Y0015595D01*
X0316080Y0015667D01*
X0315953Y0015743D01*
X0315828Y0015822D01*
X0315705Y0015905D01*
X0315584Y0015990D01*
X0315466Y0016079D01*
X0315350Y0016171D01*
X0315237Y0016267D01*
X0315126Y0016365D01*
X0315018Y0016466D01*
X0314912Y0016570D01*
X0314810Y0016676D01*
X0314710Y0016786D01*
X0314614Y0016898D01*
X0314520Y0017013D01*
X0314429Y0017130D01*
X0314342Y0017249D01*
X0314258Y0017371D01*
X0314177Y0017495D01*
X0314100Y0017621D01*
X0314026Y0017749D01*
X0313955Y0017879D01*
X0313888Y0018011D01*
X0313825Y0018145D01*
X0313765Y0018280D01*
X0313709Y0018417D01*
X0313656Y0018556D01*
X0313608Y0018696D01*
X0313563Y0018837D01*
X0313522Y0018979D01*
X0313484Y0019122D01*
X0313451Y0019266D01*
X0313421Y0019411D01*
X0313395Y0019557D01*
X0313374Y0019703D01*
X0313356Y0019850D01*
X0313342Y0019997D01*
X0313332Y0020145D01*
X0313326Y0020293D01*
X0313324Y0020441D01*
X0313324Y0138551D02*
X0313326Y0138699D01*
X0313332Y0138847D01*
X0313342Y0138995D01*
X0313356Y0139142D01*
X0313374Y0139289D01*
X0313395Y0139435D01*
X0313421Y0139581D01*
X0313451Y0139726D01*
X0313484Y0139870D01*
X0313522Y0140013D01*
X0313563Y0140155D01*
X0313608Y0140296D01*
X0313656Y0140436D01*
X0313709Y0140575D01*
X0313765Y0140712D01*
X0313825Y0140847D01*
X0313888Y0140981D01*
X0313955Y0141113D01*
X0314026Y0141243D01*
X0314100Y0141371D01*
X0314177Y0141497D01*
X0314258Y0141621D01*
X0314342Y0141743D01*
X0314429Y0141862D01*
X0314520Y0141979D01*
X0314614Y0142094D01*
X0314710Y0142206D01*
X0314810Y0142316D01*
X0314912Y0142422D01*
X0315018Y0142526D01*
X0315126Y0142627D01*
X0315237Y0142725D01*
X0315350Y0142821D01*
X0315466Y0142913D01*
X0315584Y0143002D01*
X0315705Y0143087D01*
X0315828Y0143170D01*
X0315953Y0143249D01*
X0316080Y0143325D01*
X0316209Y0143397D01*
X0316340Y0143466D01*
X0316473Y0143531D01*
X0316608Y0143592D01*
X0316744Y0143650D01*
X0316881Y0143705D01*
X0317020Y0143755D01*
X0317161Y0143802D01*
X0317302Y0143845D01*
X0317445Y0143885D01*
X0317589Y0143920D01*
X0317733Y0143952D01*
X0317879Y0143979D01*
X0318025Y0144003D01*
X0318172Y0144023D01*
X0318319Y0144039D01*
X0318466Y0144051D01*
X0318614Y0144059D01*
X0318762Y0144063D01*
X0318910Y0144063D01*
X0319058Y0144059D01*
X0319206Y0144051D01*
X0319353Y0144039D01*
X0319500Y0144023D01*
X0319647Y0144003D01*
X0319793Y0143979D01*
X0319939Y0143952D01*
X0320083Y0143920D01*
X0320227Y0143885D01*
X0320370Y0143845D01*
X0320511Y0143802D01*
X0320652Y0143755D01*
X0320791Y0143705D01*
X0320928Y0143650D01*
X0321064Y0143592D01*
X0321199Y0143531D01*
X0321332Y0143466D01*
X0321463Y0143397D01*
X0321592Y0143325D01*
X0321719Y0143249D01*
X0321844Y0143170D01*
X0321967Y0143087D01*
X0322088Y0143002D01*
X0322206Y0142913D01*
X0322322Y0142821D01*
X0322435Y0142725D01*
X0322546Y0142627D01*
X0322654Y0142526D01*
X0322760Y0142422D01*
X0322862Y0142316D01*
X0322962Y0142206D01*
X0323058Y0142094D01*
X0323152Y0141979D01*
X0323243Y0141862D01*
X0323330Y0141743D01*
X0323414Y0141621D01*
X0323495Y0141497D01*
X0323572Y0141371D01*
X0323646Y0141243D01*
X0323717Y0141113D01*
X0323784Y0140981D01*
X0323847Y0140847D01*
X0323907Y0140712D01*
X0323963Y0140575D01*
X0324016Y0140436D01*
X0324064Y0140296D01*
X0324109Y0140155D01*
X0324150Y0140013D01*
X0324188Y0139870D01*
X0324221Y0139726D01*
X0324251Y0139581D01*
X0324277Y0139435D01*
X0324298Y0139289D01*
X0324316Y0139142D01*
X0324330Y0138995D01*
X0324340Y0138847D01*
X0324346Y0138699D01*
X0324348Y0138551D01*
X0324346Y0138403D01*
X0324340Y0138255D01*
X0324330Y0138107D01*
X0324316Y0137960D01*
X0324298Y0137813D01*
X0324277Y0137667D01*
X0324251Y0137521D01*
X0324221Y0137376D01*
X0324188Y0137232D01*
X0324150Y0137089D01*
X0324109Y0136947D01*
X0324064Y0136806D01*
X0324016Y0136666D01*
X0323963Y0136527D01*
X0323907Y0136390D01*
X0323847Y0136255D01*
X0323784Y0136121D01*
X0323717Y0135989D01*
X0323646Y0135859D01*
X0323572Y0135731D01*
X0323495Y0135605D01*
X0323414Y0135481D01*
X0323330Y0135359D01*
X0323243Y0135240D01*
X0323152Y0135123D01*
X0323058Y0135008D01*
X0322962Y0134896D01*
X0322862Y0134786D01*
X0322760Y0134680D01*
X0322654Y0134576D01*
X0322546Y0134475D01*
X0322435Y0134377D01*
X0322322Y0134281D01*
X0322206Y0134189D01*
X0322088Y0134100D01*
X0321967Y0134015D01*
X0321844Y0133932D01*
X0321719Y0133853D01*
X0321592Y0133777D01*
X0321463Y0133705D01*
X0321332Y0133636D01*
X0321199Y0133571D01*
X0321064Y0133510D01*
X0320928Y0133452D01*
X0320791Y0133397D01*
X0320652Y0133347D01*
X0320511Y0133300D01*
X0320370Y0133257D01*
X0320227Y0133217D01*
X0320083Y0133182D01*
X0319939Y0133150D01*
X0319793Y0133123D01*
X0319647Y0133099D01*
X0319500Y0133079D01*
X0319353Y0133063D01*
X0319206Y0133051D01*
X0319058Y0133043D01*
X0318910Y0133039D01*
X0318762Y0133039D01*
X0318614Y0133043D01*
X0318466Y0133051D01*
X0318319Y0133063D01*
X0318172Y0133079D01*
X0318025Y0133099D01*
X0317879Y0133123D01*
X0317733Y0133150D01*
X0317589Y0133182D01*
X0317445Y0133217D01*
X0317302Y0133257D01*
X0317161Y0133300D01*
X0317020Y0133347D01*
X0316881Y0133397D01*
X0316744Y0133452D01*
X0316608Y0133510D01*
X0316473Y0133571D01*
X0316340Y0133636D01*
X0316209Y0133705D01*
X0316080Y0133777D01*
X0315953Y0133853D01*
X0315828Y0133932D01*
X0315705Y0134015D01*
X0315584Y0134100D01*
X0315466Y0134189D01*
X0315350Y0134281D01*
X0315237Y0134377D01*
X0315126Y0134475D01*
X0315018Y0134576D01*
X0314912Y0134680D01*
X0314810Y0134786D01*
X0314710Y0134896D01*
X0314614Y0135008D01*
X0314520Y0135123D01*
X0314429Y0135240D01*
X0314342Y0135359D01*
X0314258Y0135481D01*
X0314177Y0135605D01*
X0314100Y0135731D01*
X0314026Y0135859D01*
X0313955Y0135989D01*
X0313888Y0136121D01*
X0313825Y0136255D01*
X0313765Y0136390D01*
X0313709Y0136527D01*
X0313656Y0136666D01*
X0313608Y0136806D01*
X0313563Y0136947D01*
X0313522Y0137089D01*
X0313484Y0137232D01*
X0313451Y0137376D01*
X0313421Y0137521D01*
X0313395Y0137667D01*
X0313374Y0137813D01*
X0313356Y0137960D01*
X0313342Y0138107D01*
X0313332Y0138255D01*
X0313326Y0138403D01*
X0313324Y0138551D01*
X0323560Y0317685D02*
X0323562Y0317769D01*
X0323568Y0317852D01*
X0323578Y0317935D01*
X0323592Y0318018D01*
X0323609Y0318100D01*
X0323631Y0318181D01*
X0323656Y0318260D01*
X0323685Y0318339D01*
X0323718Y0318416D01*
X0323754Y0318491D01*
X0323794Y0318565D01*
X0323837Y0318637D01*
X0323884Y0318706D01*
X0323934Y0318773D01*
X0323987Y0318838D01*
X0324043Y0318900D01*
X0324101Y0318960D01*
X0324163Y0319017D01*
X0324227Y0319070D01*
X0324294Y0319121D01*
X0324363Y0319168D01*
X0324434Y0319213D01*
X0324507Y0319253D01*
X0324582Y0319290D01*
X0324659Y0319324D01*
X0324737Y0319354D01*
X0324816Y0319380D01*
X0324897Y0319403D01*
X0324979Y0319421D01*
X0325061Y0319436D01*
X0325144Y0319447D01*
X0325227Y0319454D01*
X0325311Y0319457D01*
X0325395Y0319456D01*
X0325478Y0319451D01*
X0325562Y0319442D01*
X0325644Y0319429D01*
X0325726Y0319413D01*
X0325807Y0319392D01*
X0325888Y0319368D01*
X0325966Y0319340D01*
X0326044Y0319308D01*
X0326120Y0319272D01*
X0326194Y0319233D01*
X0326266Y0319191D01*
X0326336Y0319145D01*
X0326404Y0319096D01*
X0326469Y0319044D01*
X0326532Y0318989D01*
X0326592Y0318931D01*
X0326650Y0318870D01*
X0326704Y0318806D01*
X0326756Y0318740D01*
X0326804Y0318672D01*
X0326849Y0318601D01*
X0326890Y0318528D01*
X0326929Y0318454D01*
X0326963Y0318378D01*
X0326994Y0318300D01*
X0327021Y0318221D01*
X0327045Y0318140D01*
X0327064Y0318059D01*
X0327080Y0317977D01*
X0327092Y0317894D01*
X0327100Y0317810D01*
X0327104Y0317727D01*
X0327104Y0317643D01*
X0327100Y0317560D01*
X0327092Y0317476D01*
X0327080Y0317393D01*
X0327064Y0317311D01*
X0327045Y0317230D01*
X0327021Y0317149D01*
X0326994Y0317070D01*
X0326963Y0316992D01*
X0326929Y0316916D01*
X0326890Y0316842D01*
X0326849Y0316769D01*
X0326804Y0316698D01*
X0326756Y0316630D01*
X0326704Y0316564D01*
X0326650Y0316500D01*
X0326592Y0316439D01*
X0326532Y0316381D01*
X0326469Y0316326D01*
X0326404Y0316274D01*
X0326336Y0316225D01*
X0326266Y0316179D01*
X0326194Y0316137D01*
X0326120Y0316098D01*
X0326044Y0316062D01*
X0325966Y0316030D01*
X0325888Y0316002D01*
X0325807Y0315978D01*
X0325726Y0315957D01*
X0325644Y0315941D01*
X0325562Y0315928D01*
X0325478Y0315919D01*
X0325395Y0315914D01*
X0325311Y0315913D01*
X0325227Y0315916D01*
X0325144Y0315923D01*
X0325061Y0315934D01*
X0324979Y0315949D01*
X0324897Y0315967D01*
X0324816Y0315990D01*
X0324737Y0316016D01*
X0324659Y0316046D01*
X0324582Y0316080D01*
X0324507Y0316117D01*
X0324434Y0316157D01*
X0324363Y0316202D01*
X0324294Y0316249D01*
X0324227Y0316300D01*
X0324163Y0316353D01*
X0324101Y0316410D01*
X0324043Y0316470D01*
X0323987Y0316532D01*
X0323934Y0316597D01*
X0323884Y0316664D01*
X0323837Y0316733D01*
X0323794Y0316805D01*
X0323754Y0316879D01*
X0323718Y0316954D01*
X0323685Y0317031D01*
X0323656Y0317110D01*
X0323631Y0317189D01*
X0323609Y0317270D01*
X0323592Y0317352D01*
X0323578Y0317435D01*
X0323568Y0317518D01*
X0323562Y0317601D01*
X0323560Y0317685D01*
X0323560Y0329496D02*
X0323562Y0329580D01*
X0323568Y0329663D01*
X0323578Y0329746D01*
X0323592Y0329829D01*
X0323609Y0329911D01*
X0323631Y0329992D01*
X0323656Y0330071D01*
X0323685Y0330150D01*
X0323718Y0330227D01*
X0323754Y0330302D01*
X0323794Y0330376D01*
X0323837Y0330448D01*
X0323884Y0330517D01*
X0323934Y0330584D01*
X0323987Y0330649D01*
X0324043Y0330711D01*
X0324101Y0330771D01*
X0324163Y0330828D01*
X0324227Y0330881D01*
X0324294Y0330932D01*
X0324363Y0330979D01*
X0324434Y0331024D01*
X0324507Y0331064D01*
X0324582Y0331101D01*
X0324659Y0331135D01*
X0324737Y0331165D01*
X0324816Y0331191D01*
X0324897Y0331214D01*
X0324979Y0331232D01*
X0325061Y0331247D01*
X0325144Y0331258D01*
X0325227Y0331265D01*
X0325311Y0331268D01*
X0325395Y0331267D01*
X0325478Y0331262D01*
X0325562Y0331253D01*
X0325644Y0331240D01*
X0325726Y0331224D01*
X0325807Y0331203D01*
X0325888Y0331179D01*
X0325966Y0331151D01*
X0326044Y0331119D01*
X0326120Y0331083D01*
X0326194Y0331044D01*
X0326266Y0331002D01*
X0326336Y0330956D01*
X0326404Y0330907D01*
X0326469Y0330855D01*
X0326532Y0330800D01*
X0326592Y0330742D01*
X0326650Y0330681D01*
X0326704Y0330617D01*
X0326756Y0330551D01*
X0326804Y0330483D01*
X0326849Y0330412D01*
X0326890Y0330339D01*
X0326929Y0330265D01*
X0326963Y0330189D01*
X0326994Y0330111D01*
X0327021Y0330032D01*
X0327045Y0329951D01*
X0327064Y0329870D01*
X0327080Y0329788D01*
X0327092Y0329705D01*
X0327100Y0329621D01*
X0327104Y0329538D01*
X0327104Y0329454D01*
X0327100Y0329371D01*
X0327092Y0329287D01*
X0327080Y0329204D01*
X0327064Y0329122D01*
X0327045Y0329041D01*
X0327021Y0328960D01*
X0326994Y0328881D01*
X0326963Y0328803D01*
X0326929Y0328727D01*
X0326890Y0328653D01*
X0326849Y0328580D01*
X0326804Y0328509D01*
X0326756Y0328441D01*
X0326704Y0328375D01*
X0326650Y0328311D01*
X0326592Y0328250D01*
X0326532Y0328192D01*
X0326469Y0328137D01*
X0326404Y0328085D01*
X0326336Y0328036D01*
X0326266Y0327990D01*
X0326194Y0327948D01*
X0326120Y0327909D01*
X0326044Y0327873D01*
X0325966Y0327841D01*
X0325888Y0327813D01*
X0325807Y0327789D01*
X0325726Y0327768D01*
X0325644Y0327752D01*
X0325562Y0327739D01*
X0325478Y0327730D01*
X0325395Y0327725D01*
X0325311Y0327724D01*
X0325227Y0327727D01*
X0325144Y0327734D01*
X0325061Y0327745D01*
X0324979Y0327760D01*
X0324897Y0327778D01*
X0324816Y0327801D01*
X0324737Y0327827D01*
X0324659Y0327857D01*
X0324582Y0327891D01*
X0324507Y0327928D01*
X0324434Y0327968D01*
X0324363Y0328013D01*
X0324294Y0328060D01*
X0324227Y0328111D01*
X0324163Y0328164D01*
X0324101Y0328221D01*
X0324043Y0328281D01*
X0323987Y0328343D01*
X0323934Y0328408D01*
X0323884Y0328475D01*
X0323837Y0328544D01*
X0323794Y0328616D01*
X0323754Y0328690D01*
X0323718Y0328765D01*
X0323685Y0328842D01*
X0323656Y0328921D01*
X0323631Y0329000D01*
X0323609Y0329081D01*
X0323592Y0329163D01*
X0323578Y0329246D01*
X0323568Y0329329D01*
X0323562Y0329412D01*
X0323560Y0329496D01*
X0313324Y0362961D02*
X0313326Y0363109D01*
X0313332Y0363257D01*
X0313342Y0363405D01*
X0313356Y0363552D01*
X0313374Y0363699D01*
X0313395Y0363845D01*
X0313421Y0363991D01*
X0313451Y0364136D01*
X0313484Y0364280D01*
X0313522Y0364423D01*
X0313563Y0364565D01*
X0313608Y0364706D01*
X0313656Y0364846D01*
X0313709Y0364985D01*
X0313765Y0365122D01*
X0313825Y0365257D01*
X0313888Y0365391D01*
X0313955Y0365523D01*
X0314026Y0365653D01*
X0314100Y0365781D01*
X0314177Y0365907D01*
X0314258Y0366031D01*
X0314342Y0366153D01*
X0314429Y0366272D01*
X0314520Y0366389D01*
X0314614Y0366504D01*
X0314710Y0366616D01*
X0314810Y0366726D01*
X0314912Y0366832D01*
X0315018Y0366936D01*
X0315126Y0367037D01*
X0315237Y0367135D01*
X0315350Y0367231D01*
X0315466Y0367323D01*
X0315584Y0367412D01*
X0315705Y0367497D01*
X0315828Y0367580D01*
X0315953Y0367659D01*
X0316080Y0367735D01*
X0316209Y0367807D01*
X0316340Y0367876D01*
X0316473Y0367941D01*
X0316608Y0368002D01*
X0316744Y0368060D01*
X0316881Y0368115D01*
X0317020Y0368165D01*
X0317161Y0368212D01*
X0317302Y0368255D01*
X0317445Y0368295D01*
X0317589Y0368330D01*
X0317733Y0368362D01*
X0317879Y0368389D01*
X0318025Y0368413D01*
X0318172Y0368433D01*
X0318319Y0368449D01*
X0318466Y0368461D01*
X0318614Y0368469D01*
X0318762Y0368473D01*
X0318910Y0368473D01*
X0319058Y0368469D01*
X0319206Y0368461D01*
X0319353Y0368449D01*
X0319500Y0368433D01*
X0319647Y0368413D01*
X0319793Y0368389D01*
X0319939Y0368362D01*
X0320083Y0368330D01*
X0320227Y0368295D01*
X0320370Y0368255D01*
X0320511Y0368212D01*
X0320652Y0368165D01*
X0320791Y0368115D01*
X0320928Y0368060D01*
X0321064Y0368002D01*
X0321199Y0367941D01*
X0321332Y0367876D01*
X0321463Y0367807D01*
X0321592Y0367735D01*
X0321719Y0367659D01*
X0321844Y0367580D01*
X0321967Y0367497D01*
X0322088Y0367412D01*
X0322206Y0367323D01*
X0322322Y0367231D01*
X0322435Y0367135D01*
X0322546Y0367037D01*
X0322654Y0366936D01*
X0322760Y0366832D01*
X0322862Y0366726D01*
X0322962Y0366616D01*
X0323058Y0366504D01*
X0323152Y0366389D01*
X0323243Y0366272D01*
X0323330Y0366153D01*
X0323414Y0366031D01*
X0323495Y0365907D01*
X0323572Y0365781D01*
X0323646Y0365653D01*
X0323717Y0365523D01*
X0323784Y0365391D01*
X0323847Y0365257D01*
X0323907Y0365122D01*
X0323963Y0364985D01*
X0324016Y0364846D01*
X0324064Y0364706D01*
X0324109Y0364565D01*
X0324150Y0364423D01*
X0324188Y0364280D01*
X0324221Y0364136D01*
X0324251Y0363991D01*
X0324277Y0363845D01*
X0324298Y0363699D01*
X0324316Y0363552D01*
X0324330Y0363405D01*
X0324340Y0363257D01*
X0324346Y0363109D01*
X0324348Y0362961D01*
X0324346Y0362813D01*
X0324340Y0362665D01*
X0324330Y0362517D01*
X0324316Y0362370D01*
X0324298Y0362223D01*
X0324277Y0362077D01*
X0324251Y0361931D01*
X0324221Y0361786D01*
X0324188Y0361642D01*
X0324150Y0361499D01*
X0324109Y0361357D01*
X0324064Y0361216D01*
X0324016Y0361076D01*
X0323963Y0360937D01*
X0323907Y0360800D01*
X0323847Y0360665D01*
X0323784Y0360531D01*
X0323717Y0360399D01*
X0323646Y0360269D01*
X0323572Y0360141D01*
X0323495Y0360015D01*
X0323414Y0359891D01*
X0323330Y0359769D01*
X0323243Y0359650D01*
X0323152Y0359533D01*
X0323058Y0359418D01*
X0322962Y0359306D01*
X0322862Y0359196D01*
X0322760Y0359090D01*
X0322654Y0358986D01*
X0322546Y0358885D01*
X0322435Y0358787D01*
X0322322Y0358691D01*
X0322206Y0358599D01*
X0322088Y0358510D01*
X0321967Y0358425D01*
X0321844Y0358342D01*
X0321719Y0358263D01*
X0321592Y0358187D01*
X0321463Y0358115D01*
X0321332Y0358046D01*
X0321199Y0357981D01*
X0321064Y0357920D01*
X0320928Y0357862D01*
X0320791Y0357807D01*
X0320652Y0357757D01*
X0320511Y0357710D01*
X0320370Y0357667D01*
X0320227Y0357627D01*
X0320083Y0357592D01*
X0319939Y0357560D01*
X0319793Y0357533D01*
X0319647Y0357509D01*
X0319500Y0357489D01*
X0319353Y0357473D01*
X0319206Y0357461D01*
X0319058Y0357453D01*
X0318910Y0357449D01*
X0318762Y0357449D01*
X0318614Y0357453D01*
X0318466Y0357461D01*
X0318319Y0357473D01*
X0318172Y0357489D01*
X0318025Y0357509D01*
X0317879Y0357533D01*
X0317733Y0357560D01*
X0317589Y0357592D01*
X0317445Y0357627D01*
X0317302Y0357667D01*
X0317161Y0357710D01*
X0317020Y0357757D01*
X0316881Y0357807D01*
X0316744Y0357862D01*
X0316608Y0357920D01*
X0316473Y0357981D01*
X0316340Y0358046D01*
X0316209Y0358115D01*
X0316080Y0358187D01*
X0315953Y0358263D01*
X0315828Y0358342D01*
X0315705Y0358425D01*
X0315584Y0358510D01*
X0315466Y0358599D01*
X0315350Y0358691D01*
X0315237Y0358787D01*
X0315126Y0358885D01*
X0315018Y0358986D01*
X0314912Y0359090D01*
X0314810Y0359196D01*
X0314710Y0359306D01*
X0314614Y0359418D01*
X0314520Y0359533D01*
X0314429Y0359650D01*
X0314342Y0359769D01*
X0314258Y0359891D01*
X0314177Y0360015D01*
X0314100Y0360141D01*
X0314026Y0360269D01*
X0313955Y0360399D01*
X0313888Y0360531D01*
X0313825Y0360665D01*
X0313765Y0360800D01*
X0313709Y0360937D01*
X0313656Y0361076D01*
X0313608Y0361216D01*
X0313563Y0361357D01*
X0313522Y0361499D01*
X0313484Y0361642D01*
X0313451Y0361786D01*
X0313421Y0361931D01*
X0313395Y0362077D01*
X0313374Y0362223D01*
X0313356Y0362370D01*
X0313342Y0362517D01*
X0313332Y0362665D01*
X0313326Y0362813D01*
X0313324Y0362961D01*
X0065293Y0362961D02*
X0065295Y0363109D01*
X0065301Y0363257D01*
X0065311Y0363405D01*
X0065325Y0363552D01*
X0065343Y0363699D01*
X0065364Y0363845D01*
X0065390Y0363991D01*
X0065420Y0364136D01*
X0065453Y0364280D01*
X0065491Y0364423D01*
X0065532Y0364565D01*
X0065577Y0364706D01*
X0065625Y0364846D01*
X0065678Y0364985D01*
X0065734Y0365122D01*
X0065794Y0365257D01*
X0065857Y0365391D01*
X0065924Y0365523D01*
X0065995Y0365653D01*
X0066069Y0365781D01*
X0066146Y0365907D01*
X0066227Y0366031D01*
X0066311Y0366153D01*
X0066398Y0366272D01*
X0066489Y0366389D01*
X0066583Y0366504D01*
X0066679Y0366616D01*
X0066779Y0366726D01*
X0066881Y0366832D01*
X0066987Y0366936D01*
X0067095Y0367037D01*
X0067206Y0367135D01*
X0067319Y0367231D01*
X0067435Y0367323D01*
X0067553Y0367412D01*
X0067674Y0367497D01*
X0067797Y0367580D01*
X0067922Y0367659D01*
X0068049Y0367735D01*
X0068178Y0367807D01*
X0068309Y0367876D01*
X0068442Y0367941D01*
X0068577Y0368002D01*
X0068713Y0368060D01*
X0068850Y0368115D01*
X0068989Y0368165D01*
X0069130Y0368212D01*
X0069271Y0368255D01*
X0069414Y0368295D01*
X0069558Y0368330D01*
X0069702Y0368362D01*
X0069848Y0368389D01*
X0069994Y0368413D01*
X0070141Y0368433D01*
X0070288Y0368449D01*
X0070435Y0368461D01*
X0070583Y0368469D01*
X0070731Y0368473D01*
X0070879Y0368473D01*
X0071027Y0368469D01*
X0071175Y0368461D01*
X0071322Y0368449D01*
X0071469Y0368433D01*
X0071616Y0368413D01*
X0071762Y0368389D01*
X0071908Y0368362D01*
X0072052Y0368330D01*
X0072196Y0368295D01*
X0072339Y0368255D01*
X0072480Y0368212D01*
X0072621Y0368165D01*
X0072760Y0368115D01*
X0072897Y0368060D01*
X0073033Y0368002D01*
X0073168Y0367941D01*
X0073301Y0367876D01*
X0073432Y0367807D01*
X0073561Y0367735D01*
X0073688Y0367659D01*
X0073813Y0367580D01*
X0073936Y0367497D01*
X0074057Y0367412D01*
X0074175Y0367323D01*
X0074291Y0367231D01*
X0074404Y0367135D01*
X0074515Y0367037D01*
X0074623Y0366936D01*
X0074729Y0366832D01*
X0074831Y0366726D01*
X0074931Y0366616D01*
X0075027Y0366504D01*
X0075121Y0366389D01*
X0075212Y0366272D01*
X0075299Y0366153D01*
X0075383Y0366031D01*
X0075464Y0365907D01*
X0075541Y0365781D01*
X0075615Y0365653D01*
X0075686Y0365523D01*
X0075753Y0365391D01*
X0075816Y0365257D01*
X0075876Y0365122D01*
X0075932Y0364985D01*
X0075985Y0364846D01*
X0076033Y0364706D01*
X0076078Y0364565D01*
X0076119Y0364423D01*
X0076157Y0364280D01*
X0076190Y0364136D01*
X0076220Y0363991D01*
X0076246Y0363845D01*
X0076267Y0363699D01*
X0076285Y0363552D01*
X0076299Y0363405D01*
X0076309Y0363257D01*
X0076315Y0363109D01*
X0076317Y0362961D01*
X0076315Y0362813D01*
X0076309Y0362665D01*
X0076299Y0362517D01*
X0076285Y0362370D01*
X0076267Y0362223D01*
X0076246Y0362077D01*
X0076220Y0361931D01*
X0076190Y0361786D01*
X0076157Y0361642D01*
X0076119Y0361499D01*
X0076078Y0361357D01*
X0076033Y0361216D01*
X0075985Y0361076D01*
X0075932Y0360937D01*
X0075876Y0360800D01*
X0075816Y0360665D01*
X0075753Y0360531D01*
X0075686Y0360399D01*
X0075615Y0360269D01*
X0075541Y0360141D01*
X0075464Y0360015D01*
X0075383Y0359891D01*
X0075299Y0359769D01*
X0075212Y0359650D01*
X0075121Y0359533D01*
X0075027Y0359418D01*
X0074931Y0359306D01*
X0074831Y0359196D01*
X0074729Y0359090D01*
X0074623Y0358986D01*
X0074515Y0358885D01*
X0074404Y0358787D01*
X0074291Y0358691D01*
X0074175Y0358599D01*
X0074057Y0358510D01*
X0073936Y0358425D01*
X0073813Y0358342D01*
X0073688Y0358263D01*
X0073561Y0358187D01*
X0073432Y0358115D01*
X0073301Y0358046D01*
X0073168Y0357981D01*
X0073033Y0357920D01*
X0072897Y0357862D01*
X0072760Y0357807D01*
X0072621Y0357757D01*
X0072480Y0357710D01*
X0072339Y0357667D01*
X0072196Y0357627D01*
X0072052Y0357592D01*
X0071908Y0357560D01*
X0071762Y0357533D01*
X0071616Y0357509D01*
X0071469Y0357489D01*
X0071322Y0357473D01*
X0071175Y0357461D01*
X0071027Y0357453D01*
X0070879Y0357449D01*
X0070731Y0357449D01*
X0070583Y0357453D01*
X0070435Y0357461D01*
X0070288Y0357473D01*
X0070141Y0357489D01*
X0069994Y0357509D01*
X0069848Y0357533D01*
X0069702Y0357560D01*
X0069558Y0357592D01*
X0069414Y0357627D01*
X0069271Y0357667D01*
X0069130Y0357710D01*
X0068989Y0357757D01*
X0068850Y0357807D01*
X0068713Y0357862D01*
X0068577Y0357920D01*
X0068442Y0357981D01*
X0068309Y0358046D01*
X0068178Y0358115D01*
X0068049Y0358187D01*
X0067922Y0358263D01*
X0067797Y0358342D01*
X0067674Y0358425D01*
X0067553Y0358510D01*
X0067435Y0358599D01*
X0067319Y0358691D01*
X0067206Y0358787D01*
X0067095Y0358885D01*
X0066987Y0358986D01*
X0066881Y0359090D01*
X0066779Y0359196D01*
X0066679Y0359306D01*
X0066583Y0359418D01*
X0066489Y0359533D01*
X0066398Y0359650D01*
X0066311Y0359769D01*
X0066227Y0359891D01*
X0066146Y0360015D01*
X0066069Y0360141D01*
X0065995Y0360269D01*
X0065924Y0360399D01*
X0065857Y0360531D01*
X0065794Y0360665D01*
X0065734Y0360800D01*
X0065678Y0360937D01*
X0065625Y0361076D01*
X0065577Y0361216D01*
X0065532Y0361357D01*
X0065491Y0361499D01*
X0065453Y0361642D01*
X0065420Y0361786D01*
X0065390Y0361931D01*
X0065364Y0362077D01*
X0065343Y0362223D01*
X0065325Y0362370D01*
X0065311Y0362517D01*
X0065301Y0362665D01*
X0065295Y0362813D01*
X0065293Y0362961D01*
D11*
X0094671Y0361220D03*
X0095009Y0360543D03*
X0096364Y0361220D03*
X0097718Y0360543D03*
X0098734Y0360543D03*
X0099072Y0361220D03*
X0100427Y0360543D03*
X0101443Y0360543D03*
X0102797Y0361220D03*
X0103135Y0360543D03*
X0112277Y0298921D03*
X0113293Y0298921D03*
X0110584Y0297906D03*
X0110923Y0294858D03*
X0117356Y0294520D03*
X0118710Y0291811D03*
X0118710Y0291472D03*
X0118710Y0290457D03*
X0117695Y0287748D03*
X0107876Y0287748D03*
X0134285Y0292827D03*
X0136994Y0295197D03*
X0148167Y0295874D03*
X0152569Y0292827D03*
X0161372Y0295197D03*
X0178301Y0295197D03*
X0178978Y0295197D03*
X0187104Y0291811D03*
X0190490Y0291811D03*
X0193537Y0291811D03*
X0208096Y0295197D03*
X0211482Y0291811D03*
X0212159Y0291811D03*
X0215206Y0291811D03*
X0216222Y0293504D03*
X0224348Y0291811D03*
X0224687Y0293504D03*
X0227734Y0291811D03*
X0242632Y0291811D03*
X0242632Y0291472D03*
X0242632Y0291134D03*
X0242632Y0290795D03*
X0242632Y0290457D03*
X0242632Y0290118D03*
X0242632Y0289780D03*
X0242632Y0289441D03*
X0242632Y0289102D03*
X0242632Y0288764D03*
X0242632Y0288425D03*
X0242632Y0288087D03*
X0242632Y0287748D03*
X0242632Y0287409D03*
X0242632Y0287071D03*
X0242632Y0286732D03*
X0242632Y0286394D03*
X0242632Y0286055D03*
X0242632Y0285717D03*
X0242632Y0285378D03*
X0242970Y0284701D03*
X0246356Y0288764D03*
X0248726Y0286394D03*
X0251773Y0285717D03*
X0251773Y0288764D03*
X0242632Y0292150D03*
X0242632Y0292488D03*
X0242632Y0292827D03*
X0242632Y0293165D03*
X0242632Y0293504D03*
X0242632Y0293843D03*
X0242632Y0294181D03*
X0242632Y0294520D03*
X0242632Y0294858D03*
X0242632Y0295197D03*
X0242632Y0295535D03*
X0242632Y0295874D03*
X0242632Y0296213D03*
X0242632Y0296551D03*
X0242632Y0296890D03*
X0242632Y0297228D03*
X0242632Y0297567D03*
X0242632Y0297906D03*
X0242632Y0298244D03*
X0242632Y0298583D03*
X0242632Y0298921D03*
X0228072Y0220370D03*
X0229427Y0217661D03*
X0212836Y0186512D03*
X0212836Y0186173D03*
X0212836Y0185835D03*
X0212836Y0185496D03*
X0212836Y0185157D03*
X0212836Y0184819D03*
X0212836Y0184480D03*
X0212836Y0184142D03*
X0212836Y0183803D03*
X0212836Y0183465D03*
X0212836Y0183126D03*
X0212836Y0182787D03*
X0212836Y0182449D03*
X0212836Y0182110D03*
X0212836Y0181772D03*
X0212836Y0181433D03*
X0212836Y0181094D03*
X0212836Y0180756D03*
X0212836Y0180417D03*
X0212836Y0180079D03*
X0212836Y0179740D03*
X0212836Y0179402D03*
X0212836Y0179063D03*
X0212836Y0178724D03*
X0212836Y0178386D03*
X0212836Y0178047D03*
X0212836Y0177709D03*
X0212836Y0177370D03*
X0212836Y0177031D03*
X0212836Y0176693D03*
X0212836Y0176354D03*
X0212836Y0176016D03*
X0212836Y0175677D03*
X0212836Y0175339D03*
X0212836Y0175000D03*
X0212836Y0174661D03*
X0212836Y0174323D03*
X0212836Y0173984D03*
X0212836Y0173646D03*
X0212836Y0173307D03*
X0212836Y0172969D03*
X0212836Y0172630D03*
X0212836Y0172291D03*
X0212836Y0171953D03*
X0212836Y0171614D03*
X0212836Y0171276D03*
X0212836Y0170937D03*
X0212836Y0170598D03*
X0212836Y0170260D03*
X0212836Y0169921D03*
X0212836Y0169583D03*
X0212836Y0169244D03*
X0212836Y0168906D03*
X0212836Y0168567D03*
X0212836Y0168228D03*
X0212836Y0167890D03*
X0212836Y0167551D03*
X0212836Y0167213D03*
X0212836Y0166874D03*
X0212836Y0166535D03*
X0212836Y0166197D03*
X0212836Y0165858D03*
X0212836Y0165520D03*
X0212836Y0165181D03*
X0212836Y0164843D03*
X0212836Y0164504D03*
X0212836Y0164165D03*
X0212836Y0163827D03*
X0212836Y0163488D03*
X0212836Y0163150D03*
X0212836Y0162811D03*
X0212836Y0162472D03*
X0212836Y0162134D03*
X0212836Y0161795D03*
X0212836Y0161457D03*
X0212836Y0161118D03*
X0212836Y0160780D03*
X0213175Y0160441D03*
X0213175Y0160102D03*
X0213513Y0159764D03*
X0218254Y0167551D03*
X0222994Y0167551D03*
X0223671Y0167551D03*
X0224009Y0175677D03*
X0223332Y0175677D03*
X0222655Y0175677D03*
X0222655Y0183803D03*
X0225025Y0183803D03*
X0232813Y0183803D03*
X0239246Y0183803D03*
X0243647Y0183803D03*
X0247710Y0183803D03*
X0248726Y0183803D03*
X0251773Y0175677D03*
X0247710Y0165181D03*
X0242632Y0167551D03*
X0241954Y0167551D03*
X0237214Y0167551D03*
X0237214Y0175677D03*
X0270734Y0175677D03*
X0275135Y0175677D03*
X0278860Y0189220D03*
X0278860Y0193622D03*
X0283939Y0193622D03*
X0283939Y0189220D03*
X0267687Y0219354D03*
X0315765Y0207165D03*
X0316104Y0206488D03*
X0317458Y0207165D03*
X0318135Y0207165D03*
X0317797Y0207843D03*
X0317120Y0207843D03*
X0317458Y0208520D03*
X0316443Y0208181D03*
X0318813Y0206827D03*
X0319490Y0206827D03*
X0319151Y0207504D03*
X0319151Y0206150D03*
X0319151Y0209535D03*
X0327277Y0209535D03*
X0327277Y0209197D03*
X0327277Y0208858D03*
X0327277Y0208520D03*
X0327277Y0208181D03*
X0327277Y0207843D03*
X0327277Y0207504D03*
X0327277Y0207165D03*
X0327277Y0206827D03*
X0327277Y0206488D03*
X0327277Y0206150D03*
X0327277Y0205811D03*
X0327277Y0209874D03*
X0327277Y0210213D03*
X0327277Y0210551D03*
X0327277Y0210890D03*
X0327277Y0211228D03*
X0327277Y0211567D03*
X0327277Y0211906D03*
X0327277Y0212244D03*
X0327277Y0212583D03*
X0327277Y0212921D03*
X0327277Y0213260D03*
X0327277Y0213598D03*
X0327277Y0213937D03*
X0327277Y0214276D03*
X0327277Y0214614D03*
X0327277Y0214953D03*
X0327277Y0215291D03*
X0327277Y0215630D03*
X0327277Y0215969D03*
X0327277Y0216307D03*
X0327277Y0216646D03*
X0327277Y0216984D03*
X0327277Y0217323D03*
X0327277Y0217661D03*
X0327277Y0218000D03*
X0327277Y0218339D03*
X0327277Y0218677D03*
X0327277Y0219016D03*
X0327277Y0219354D03*
X0327277Y0219693D03*
X0327277Y0220031D03*
X0327277Y0220370D03*
X0327277Y0220709D03*
X0327277Y0221047D03*
X0327277Y0221386D03*
X0327277Y0221724D03*
X0327277Y0222063D03*
X0327277Y0222402D03*
X0327277Y0222740D03*
X0327277Y0223079D03*
X0327277Y0223417D03*
X0327277Y0223756D03*
X0327277Y0224094D03*
X0327277Y0224433D03*
X0327616Y0186512D03*
X0327616Y0186173D03*
X0327616Y0185835D03*
X0327616Y0185496D03*
X0327616Y0185157D03*
X0327616Y0184819D03*
X0327616Y0184480D03*
X0327616Y0184142D03*
X0327616Y0183803D03*
X0327616Y0183465D03*
X0327616Y0183126D03*
X0327616Y0182787D03*
X0327616Y0182449D03*
X0327616Y0182110D03*
X0327616Y0181772D03*
X0327616Y0181433D03*
X0327616Y0181094D03*
X0327616Y0180756D03*
X0327616Y0180417D03*
X0327616Y0180079D03*
X0327616Y0179740D03*
X0327616Y0179402D03*
X0327616Y0179063D03*
X0327616Y0178724D03*
X0327616Y0178386D03*
X0327616Y0178047D03*
X0327616Y0177709D03*
X0327616Y0177370D03*
X0327616Y0177031D03*
X0327616Y0176693D03*
X0327616Y0176354D03*
X0327616Y0176016D03*
X0327616Y0175677D03*
X0327616Y0175339D03*
X0327616Y0175000D03*
X0327616Y0174661D03*
X0327616Y0174323D03*
X0327616Y0173984D03*
X0327616Y0173646D03*
X0327616Y0173307D03*
X0327616Y0172969D03*
X0327616Y0172630D03*
X0327616Y0172291D03*
X0327616Y0171953D03*
X0327616Y0171614D03*
X0327616Y0171276D03*
X0327616Y0170937D03*
X0327616Y0170598D03*
X0327616Y0170260D03*
X0327616Y0169921D03*
X0327616Y0169583D03*
X0327616Y0169244D03*
X0327616Y0168906D03*
X0327616Y0168567D03*
X0327616Y0168228D03*
X0327616Y0167890D03*
X0327616Y0167551D03*
X0327616Y0167213D03*
X0327616Y0166874D03*
X0327616Y0166535D03*
X0327616Y0166197D03*
X0327616Y0165858D03*
X0327616Y0165520D03*
X0327616Y0165181D03*
X0327616Y0164843D03*
X0327616Y0164504D03*
X0327616Y0164165D03*
X0327616Y0163827D03*
X0327616Y0163488D03*
X0327616Y0163150D03*
X0327616Y0162811D03*
X0327616Y0162472D03*
X0327616Y0162134D03*
X0327616Y0161795D03*
X0327616Y0161457D03*
X0327616Y0161118D03*
X0327616Y0160780D03*
X0327277Y0160441D03*
X0327277Y0160102D03*
X0326939Y0159764D03*
X0288002Y0108299D03*
X0288340Y0100512D03*
X0291049Y0099157D03*
X0289695Y0097465D03*
X0283261Y0098142D03*
X0266671Y0054465D03*
X0267009Y0046677D03*
X0267687Y0044984D03*
X0269718Y0045323D03*
X0264301Y0046677D03*
X0263962Y0044646D03*
X0263285Y0042614D03*
X0126159Y0194976D03*
X0113970Y0194976D03*
X0104828Y0192945D03*
X0079096Y0194976D03*
X0078080Y0194976D03*
X0100765Y0092386D03*
X0121757Y0053449D03*
X0122773Y0047354D03*
X0121757Y0037874D03*
X0317797Y0273866D03*
X0317797Y0284362D03*
X0317797Y0286732D03*
X0314072Y0286732D03*
X0317797Y0336165D03*
X0317797Y0342598D03*
X0317797Y0346661D03*
X0317797Y0349031D03*
D12*
X0315257Y0307386D03*
X0314580Y0290795D03*
X0316612Y0271496D03*
X0318305Y0214614D03*
X0318305Y0212921D03*
X0318982Y0211228D03*
X0320336Y0211906D03*
X0320336Y0213260D03*
X0324738Y0212244D03*
X0308824Y0209535D03*
X0308824Y0209197D03*
X0308824Y0208858D03*
X0308824Y0208520D03*
X0308824Y0208181D03*
X0308824Y0207165D03*
X0308824Y0206827D03*
X0308824Y0206488D03*
X0308824Y0206150D03*
X0308824Y0205811D03*
X0305777Y0205811D03*
X0305777Y0206150D03*
X0305777Y0206488D03*
X0305777Y0206827D03*
X0305777Y0207165D03*
X0305777Y0208181D03*
X0305777Y0208520D03*
X0305777Y0208858D03*
X0305777Y0209197D03*
X0305777Y0209535D03*
X0302391Y0208520D03*
X0302391Y0208181D03*
X0302391Y0207843D03*
X0302391Y0207504D03*
X0302391Y0206827D03*
X0302391Y0206488D03*
X0302391Y0206150D03*
X0302391Y0205811D03*
X0299344Y0205811D03*
X0299344Y0206150D03*
X0299344Y0206488D03*
X0299344Y0206827D03*
X0299344Y0207504D03*
X0299344Y0207843D03*
X0299344Y0208181D03*
X0299344Y0208520D03*
X0300021Y0208858D03*
X0300021Y0209197D03*
X0301714Y0209197D03*
X0301714Y0208858D03*
X0287155Y0206827D03*
X0283431Y0206827D03*
X0283431Y0207165D03*
X0283431Y0206488D03*
X0283431Y0206150D03*
X0283431Y0205811D03*
X0283431Y0208181D03*
X0283431Y0208520D03*
X0283431Y0208858D03*
X0283431Y0209197D03*
X0283431Y0209535D03*
X0280383Y0209535D03*
X0280383Y0209197D03*
X0280383Y0208858D03*
X0280383Y0208520D03*
X0280383Y0208181D03*
X0280383Y0207165D03*
X0280383Y0206827D03*
X0280383Y0206488D03*
X0280383Y0206150D03*
X0280383Y0205811D03*
X0276998Y0206488D03*
X0276998Y0206827D03*
X0276998Y0207165D03*
X0276998Y0208181D03*
X0276998Y0208520D03*
X0276998Y0208858D03*
X0276998Y0209197D03*
X0264470Y0209197D03*
X0264470Y0208858D03*
X0264470Y0208520D03*
X0264470Y0208181D03*
X0264470Y0207843D03*
X0264470Y0207504D03*
X0264470Y0207165D03*
X0264470Y0206827D03*
X0264470Y0206488D03*
X0261761Y0206827D03*
X0261423Y0207165D03*
X0261423Y0207504D03*
X0261423Y0207843D03*
X0261423Y0208181D03*
X0261423Y0208520D03*
X0251604Y0208181D03*
X0251604Y0209197D03*
X0242801Y0206827D03*
X0230950Y0206827D03*
X0230950Y0207165D03*
X0230950Y0207504D03*
X0230950Y0207843D03*
X0230950Y0208181D03*
X0230950Y0208520D03*
X0230950Y0208858D03*
X0230950Y0209197D03*
X0230950Y0206488D03*
X0230950Y0206150D03*
X0230950Y0205811D03*
X0224517Y0206488D03*
X0224517Y0206827D03*
X0224517Y0207165D03*
X0224517Y0207504D03*
X0224517Y0207843D03*
X0224517Y0208181D03*
X0224517Y0208520D03*
X0224517Y0208858D03*
X0224517Y0209197D03*
X0220116Y0208858D03*
X0220116Y0208520D03*
X0220116Y0208181D03*
X0220116Y0207843D03*
X0220116Y0207504D03*
X0220116Y0207165D03*
X0220116Y0206827D03*
X0220116Y0206488D03*
X0217069Y0206488D03*
X0217069Y0206827D03*
X0217069Y0207165D03*
X0217069Y0207504D03*
X0217069Y0207843D03*
X0217069Y0208181D03*
X0217069Y0208520D03*
X0217069Y0208858D03*
X0217069Y0209197D03*
X0213683Y0209535D03*
X0213683Y0207165D03*
X0213683Y0206827D03*
X0213683Y0206488D03*
X0213683Y0206150D03*
X0213683Y0205811D03*
X0210635Y0205811D03*
X0210635Y0206150D03*
X0210635Y0208181D03*
X0210635Y0208520D03*
X0210635Y0208858D03*
X0210635Y0209197D03*
X0210635Y0209535D03*
X0228580Y0220709D03*
X0237045Y0218000D03*
X0234336Y0183803D03*
X0234675Y0181772D03*
X0232305Y0180756D03*
X0229935Y0181433D03*
X0229935Y0181772D03*
X0229935Y0183126D03*
X0220454Y0182787D03*
X0220454Y0181772D03*
X0220454Y0180756D03*
X0225195Y0173646D03*
X0227565Y0172630D03*
X0224856Y0167551D03*
X0229935Y0166874D03*
X0229935Y0165520D03*
X0229935Y0165181D03*
X0242801Y0173646D03*
X0246864Y0172630D03*
X0248895Y0173646D03*
X0248895Y0175000D03*
X0247202Y0175677D03*
X0251265Y0173646D03*
X0256006Y0172630D03*
X0258376Y0172630D03*
X0265824Y0172630D03*
X0266163Y0172969D03*
X0267856Y0173646D03*
X0267856Y0175000D03*
X0266163Y0175677D03*
X0270226Y0172630D03*
X0272596Y0173646D03*
X0272257Y0175677D03*
X0282076Y0175339D03*
X0282076Y0172969D03*
X0284446Y0173646D03*
X0280045Y0189220D03*
X0279368Y0191252D03*
X0279368Y0191591D03*
X0279368Y0191929D03*
X0279368Y0192268D03*
X0281061Y0192268D03*
X0281061Y0191929D03*
X0281061Y0191591D03*
X0289864Y0192606D03*
X0289864Y0192945D03*
X0291895Y0193283D03*
X0291895Y0193622D03*
X0297313Y0193622D03*
X0297313Y0193283D03*
X0306116Y0192945D03*
X0306116Y0192606D03*
X0306116Y0190236D03*
X0306116Y0189898D03*
X0308824Y0191252D03*
X0308824Y0191591D03*
X0314242Y0190236D03*
X0314242Y0189898D03*
X0316950Y0189559D03*
X0316950Y0189220D03*
X0316950Y0191252D03*
X0316950Y0191591D03*
X0314242Y0193283D03*
X0314242Y0193622D03*
X0319659Y0193622D03*
X0319659Y0193283D03*
X0321691Y0192945D03*
X0321691Y0192606D03*
X0321691Y0190236D03*
X0321691Y0189898D03*
X0319659Y0189559D03*
X0319659Y0189220D03*
X0246525Y0181772D03*
X0241785Y0182787D03*
X0241785Y0180756D03*
X0244155Y0164843D03*
X0218761Y0164843D03*
X0286817Y0104913D03*
X0286478Y0104236D03*
X0286139Y0103559D03*
X0288171Y0100850D03*
X0291218Y0100512D03*
X0289864Y0097126D03*
X0289525Y0096449D03*
X0288171Y0093402D03*
X0287832Y0092724D03*
X0284785Y0098142D03*
X0292911Y0104236D03*
X0288171Y0107961D03*
X0266840Y0054126D03*
X0265486Y0051079D03*
X0265147Y0050402D03*
X0264809Y0049724D03*
X0266840Y0047016D03*
X0268195Y0044646D03*
X0269887Y0046677D03*
X0271580Y0050402D03*
X0267856Y0041937D03*
X0266840Y0039567D03*
X0266502Y0038890D03*
X0261423Y0042276D03*
X0262100Y0043969D03*
X0262439Y0044646D03*
X0140549Y0191591D03*
X0140549Y0191929D03*
X0140549Y0192268D03*
X0140549Y0192606D03*
X0140549Y0192945D03*
X0140549Y0193283D03*
X0140549Y0193622D03*
X0140549Y0193961D03*
X0140549Y0194299D03*
X0140549Y0194638D03*
X0140549Y0194976D03*
X0137163Y0194976D03*
X0137163Y0194638D03*
X0137163Y0194299D03*
X0137163Y0193961D03*
X0137163Y0193622D03*
X0137163Y0193283D03*
X0137163Y0192606D03*
X0137163Y0192268D03*
X0137163Y0191929D03*
X0137163Y0191591D03*
X0134116Y0193622D03*
X0134116Y0193961D03*
X0134116Y0194299D03*
X0134116Y0194638D03*
X0132084Y0193622D03*
X0132084Y0193283D03*
X0131407Y0193961D03*
X0131407Y0194299D03*
X0129714Y0194299D03*
X0129714Y0193961D03*
X0129714Y0193622D03*
X0129714Y0193283D03*
X0129714Y0192606D03*
X0129714Y0192268D03*
X0129714Y0191929D03*
X0129714Y0191591D03*
X0126328Y0192268D03*
X0123958Y0192945D03*
X0123958Y0193283D03*
X0123958Y0193622D03*
X0123958Y0193961D03*
X0123958Y0194299D03*
X0124635Y0194976D03*
X0116509Y0194299D03*
X0115832Y0194976D03*
X0116509Y0192268D03*
X0106352Y0192268D03*
X0106352Y0192606D03*
X0106352Y0192945D03*
X0106352Y0191929D03*
X0106352Y0191591D03*
X0103305Y0191591D03*
X0103305Y0191929D03*
X0103305Y0192268D03*
X0103305Y0192606D03*
X0103305Y0192945D03*
X0101273Y0192945D03*
X0101273Y0193283D03*
X0101273Y0193622D03*
X0101273Y0193961D03*
X0101273Y0194299D03*
X0101273Y0194638D03*
X0101273Y0192606D03*
X0101273Y0192268D03*
X0098226Y0192268D03*
X0098226Y0192606D03*
X0098226Y0192945D03*
X0098226Y0193283D03*
X0098226Y0193622D03*
X0098226Y0193961D03*
X0098226Y0194299D03*
X0098226Y0194638D03*
X0095856Y0194976D03*
X0093824Y0194976D03*
X0093147Y0194299D03*
X0093147Y0193961D03*
X0093147Y0193622D03*
X0093147Y0193283D03*
X0093147Y0192945D03*
X0093486Y0192606D03*
X0085698Y0192606D03*
X0085698Y0192268D03*
X0080620Y0192268D03*
X0080620Y0192606D03*
X0080620Y0192945D03*
X0080620Y0193961D03*
X0080620Y0194299D03*
X0080620Y0194638D03*
X0080620Y0194976D03*
X0103305Y0195315D03*
X0106352Y0195315D03*
X0100935Y0106606D03*
X0095179Y0104913D03*
X0096195Y0102882D03*
X0096533Y0102205D03*
X0098226Y0098480D03*
X0098565Y0097803D03*
X0098903Y0097126D03*
X0099919Y0094756D03*
X0100935Y0092724D03*
X0116171Y0050402D03*
X0116509Y0049724D03*
X0116848Y0049047D03*
X0118541Y0045661D03*
X0119218Y0043969D03*
X0119557Y0043291D03*
X0119895Y0042614D03*
X0120911Y0040244D03*
X0121927Y0038213D03*
X0122943Y0048031D03*
X0123281Y0049386D03*
X0123281Y0049724D03*
X0122943Y0050402D03*
X0122604Y0051079D03*
X0122265Y0051756D03*
X0112785Y0284362D03*
X0110415Y0285717D03*
X0110415Y0289102D03*
X0109061Y0290457D03*
X0107706Y0289441D03*
X0110754Y0294181D03*
X0112785Y0293165D03*
X0112785Y0291134D03*
X0114817Y0294520D03*
X0116171Y0293504D03*
X0116848Y0290457D03*
X0117864Y0289441D03*
X0115155Y0285717D03*
X0112785Y0298583D03*
X0111431Y0299598D03*
X0109738Y0300276D03*
X0114139Y0299598D03*
X0115832Y0300276D03*
X0137840Y0289441D03*
X0141565Y0290795D03*
X0142919Y0295535D03*
X0151383Y0289441D03*
X0181856Y0295197D03*
X0185919Y0291811D03*
X0243817Y0289441D03*
X0243817Y0289102D03*
X0243817Y0288764D03*
X0243817Y0288425D03*
X0245509Y0287409D03*
X0246525Y0289102D03*
X0244832Y0290118D03*
X0244832Y0290795D03*
X0244155Y0293165D03*
X0244155Y0293504D03*
X0244155Y0293843D03*
X0244155Y0294181D03*
X0244155Y0294520D03*
X0244155Y0294858D03*
X0244155Y0295197D03*
X0244155Y0295535D03*
X0244155Y0295874D03*
X0244155Y0296213D03*
X0244155Y0296551D03*
X0244155Y0296890D03*
X0244155Y0297228D03*
X0250588Y0297228D03*
X0250588Y0296890D03*
X0250588Y0296551D03*
X0250588Y0296213D03*
X0250588Y0295874D03*
X0250588Y0295535D03*
X0250588Y0295197D03*
X0250588Y0294858D03*
X0250588Y0294520D03*
X0250588Y0294181D03*
X0250588Y0293843D03*
X0250588Y0293504D03*
X0250588Y0293165D03*
X0249911Y0288425D03*
X0266840Y0358512D03*
X0266840Y0358850D03*
X0267856Y0359528D03*
X0268195Y0359866D03*
X0268533Y0360205D03*
X0266840Y0361898D03*
X0270565Y0361898D03*
X0270565Y0358512D03*
X0270226Y0365961D03*
X0270226Y0366299D03*
X0270226Y0368669D03*
X0270226Y0369008D03*
X0270226Y0369346D03*
X0267517Y0369346D03*
X0265147Y0369346D03*
X0265147Y0369008D03*
X0265147Y0368669D03*
X0265147Y0368331D03*
X0265147Y0367992D03*
X0265147Y0367654D03*
X0265147Y0367315D03*
X0265147Y0366976D03*
X0265147Y0366638D03*
X0222824Y0366638D03*
X0222824Y0366976D03*
X0222824Y0367315D03*
X0222824Y0367654D03*
X0222824Y0367992D03*
X0222824Y0368331D03*
X0222824Y0368669D03*
X0222824Y0369008D03*
X0222824Y0369685D03*
X0220454Y0369346D03*
X0218423Y0369346D03*
X0217746Y0366976D03*
X0217746Y0366638D03*
X0215376Y0369346D03*
X0212667Y0369346D03*
X0212667Y0369008D03*
X0212667Y0368669D03*
X0212667Y0368331D03*
X0212667Y0367315D03*
X0212667Y0366976D03*
X0212667Y0366638D03*
X0218761Y0362236D03*
X0216730Y0358850D03*
X0216730Y0357835D03*
X0105336Y0365961D03*
X0105336Y0366638D03*
X0105336Y0366976D03*
X0105336Y0367315D03*
X0105336Y0368331D03*
X0105336Y0368669D03*
X0105336Y0369008D03*
X0105336Y0369346D03*
X0105336Y0369685D03*
X0102966Y0369346D03*
X0100935Y0369346D03*
X0100257Y0368669D03*
X0100257Y0368331D03*
X0100257Y0367992D03*
X0100257Y0367654D03*
X0100257Y0367315D03*
X0100596Y0366976D03*
X0095179Y0366976D03*
X0095179Y0366638D03*
X0095179Y0366299D03*
X0095179Y0365961D03*
X0095179Y0367315D03*
X0095179Y0369685D03*
X0093147Y0359866D03*
X0093486Y0359528D03*
X0104320Y0359528D03*
X0104659Y0359866D03*
D13*
X0105167Y0360205D03*
X0103813Y0359189D03*
X0105167Y0366299D03*
X0103135Y0366638D03*
X0103135Y0366976D03*
X0103135Y0367315D03*
X0103135Y0367654D03*
X0103135Y0367992D03*
X0103135Y0368331D03*
X0103135Y0368669D03*
X0103135Y0369008D03*
X0100765Y0369008D03*
X0100765Y0366638D03*
X0098057Y0366638D03*
X0098057Y0366976D03*
X0098057Y0367315D03*
X0098057Y0366299D03*
X0098057Y0365961D03*
X0098057Y0369685D03*
X0091285Y0369008D03*
X0091285Y0368669D03*
X0091285Y0368331D03*
X0091285Y0367992D03*
X0091285Y0367654D03*
X0091285Y0367315D03*
X0091285Y0366976D03*
X0091285Y0366638D03*
X0092639Y0360205D03*
X0093994Y0359189D03*
X0108214Y0365961D03*
X0108214Y0366299D03*
X0108214Y0366638D03*
X0108214Y0366976D03*
X0108214Y0367315D03*
X0108214Y0368331D03*
X0108214Y0368669D03*
X0108214Y0369008D03*
X0108214Y0369346D03*
X0108214Y0369685D03*
X0108891Y0296213D03*
X0108891Y0295197D03*
X0108553Y0294858D03*
X0109569Y0293504D03*
X0108891Y0290795D03*
X0107198Y0289780D03*
X0107537Y0289102D03*
X0106860Y0290795D03*
X0110584Y0288764D03*
X0111261Y0287409D03*
X0110923Y0285378D03*
X0111261Y0285039D03*
X0114309Y0285039D03*
X0114647Y0285378D03*
X0114309Y0287409D03*
X0114647Y0287748D03*
X0114986Y0288425D03*
X0114986Y0288764D03*
X0114309Y0290118D03*
X0112616Y0291472D03*
X0118033Y0289102D03*
X0117017Y0286732D03*
X0108553Y0286732D03*
X0116679Y0296213D03*
X0130222Y0289441D03*
X0134624Y0295535D03*
X0141395Y0291134D03*
X0168143Y0291811D03*
X0195230Y0295197D03*
X0201663Y0295197D03*
X0216222Y0291811D03*
X0229427Y0291811D03*
X0244663Y0291134D03*
X0246356Y0290118D03*
X0245340Y0288425D03*
X0289356Y0223417D03*
X0288679Y0221724D03*
X0288679Y0221386D03*
X0288679Y0221047D03*
X0288679Y0220709D03*
X0288679Y0220370D03*
X0288679Y0220031D03*
X0288679Y0219693D03*
X0288679Y0219354D03*
X0288679Y0219016D03*
X0288679Y0218677D03*
X0288679Y0218339D03*
X0288679Y0218000D03*
X0288679Y0217661D03*
X0288679Y0217323D03*
X0288679Y0216984D03*
X0288679Y0216646D03*
X0288679Y0216307D03*
X0288679Y0215969D03*
X0288679Y0215630D03*
X0288679Y0215291D03*
X0288679Y0214953D03*
X0288679Y0214614D03*
X0288679Y0214276D03*
X0288679Y0213937D03*
X0288679Y0213598D03*
X0291049Y0213598D03*
X0293080Y0209874D03*
X0293080Y0209535D03*
X0293080Y0209197D03*
X0293080Y0208858D03*
X0293080Y0208520D03*
X0293080Y0208181D03*
X0293080Y0206150D03*
X0293080Y0205811D03*
X0296128Y0205811D03*
X0296128Y0206150D03*
X0296128Y0206488D03*
X0296128Y0206827D03*
X0296128Y0207165D03*
X0296128Y0209535D03*
X0296128Y0209874D03*
X0289695Y0209197D03*
X0289695Y0208858D03*
X0289695Y0208520D03*
X0289695Y0208181D03*
X0289695Y0207843D03*
X0289695Y0207504D03*
X0289695Y0207165D03*
X0289695Y0206827D03*
X0289695Y0206488D03*
X0287324Y0206488D03*
X0286647Y0207165D03*
X0286647Y0207504D03*
X0286647Y0207843D03*
X0286647Y0208181D03*
X0286647Y0208520D03*
X0287324Y0208858D03*
X0287324Y0209197D03*
X0283261Y0209874D03*
X0280214Y0209874D03*
X0270734Y0209874D03*
X0270734Y0209535D03*
X0270734Y0209197D03*
X0270734Y0208858D03*
X0270734Y0208520D03*
X0270734Y0208181D03*
X0270734Y0207843D03*
X0270734Y0207504D03*
X0270734Y0207165D03*
X0270734Y0206827D03*
X0270734Y0206488D03*
X0267687Y0215291D03*
X0267687Y0215630D03*
X0267687Y0215969D03*
X0267687Y0216307D03*
X0267687Y0216646D03*
X0267687Y0216984D03*
X0267687Y0217323D03*
X0267687Y0219693D03*
X0267687Y0220031D03*
X0267687Y0220370D03*
X0267687Y0220709D03*
X0267687Y0221047D03*
X0267687Y0221386D03*
X0267687Y0221724D03*
X0260238Y0221047D03*
X0261931Y0209197D03*
X0261931Y0208858D03*
X0261931Y0206488D03*
X0251773Y0206488D03*
X0251773Y0206827D03*
X0251773Y0207165D03*
X0251773Y0208520D03*
X0251773Y0208858D03*
X0245340Y0208858D03*
X0245340Y0208520D03*
X0245340Y0208181D03*
X0245340Y0207843D03*
X0245340Y0207504D03*
X0245340Y0207165D03*
X0245340Y0206827D03*
X0245340Y0206488D03*
X0242970Y0206488D03*
X0242293Y0207165D03*
X0242293Y0207504D03*
X0242293Y0207843D03*
X0242293Y0208181D03*
X0242293Y0208520D03*
X0242970Y0208858D03*
X0242970Y0209197D03*
X0245340Y0209197D03*
X0237214Y0209197D03*
X0237214Y0208858D03*
X0237214Y0208520D03*
X0237214Y0208181D03*
X0237214Y0207843D03*
X0237214Y0207504D03*
X0237214Y0207165D03*
X0237214Y0206827D03*
X0237214Y0206488D03*
X0228750Y0216646D03*
X0219946Y0209197D03*
X0213852Y0214614D03*
X0217915Y0183803D03*
X0217915Y0183465D03*
X0217915Y0183126D03*
X0217915Y0182787D03*
X0217915Y0182449D03*
X0217915Y0181772D03*
X0217915Y0181433D03*
X0217915Y0181094D03*
X0217915Y0180756D03*
X0217915Y0180417D03*
X0220624Y0181433D03*
X0220624Y0182449D03*
X0220624Y0183126D03*
X0220624Y0183465D03*
X0223671Y0183803D03*
X0223671Y0183126D03*
X0223671Y0182787D03*
X0223671Y0182449D03*
X0223671Y0182110D03*
X0223671Y0181772D03*
X0223671Y0181433D03*
X0223671Y0181094D03*
X0223671Y0180756D03*
X0223671Y0180417D03*
X0225025Y0175677D03*
X0225364Y0175000D03*
X0225364Y0174661D03*
X0225364Y0174323D03*
X0225364Y0173307D03*
X0225364Y0172969D03*
X0227395Y0172291D03*
X0230104Y0172291D03*
X0230104Y0175339D03*
X0227395Y0175339D03*
X0227395Y0175677D03*
X0230104Y0181094D03*
X0230104Y0182449D03*
X0230104Y0182787D03*
X0229765Y0183803D03*
X0234844Y0183126D03*
X0234844Y0182787D03*
X0234844Y0182449D03*
X0234844Y0181433D03*
X0237891Y0181433D03*
X0237891Y0181094D03*
X0237891Y0180756D03*
X0237891Y0180417D03*
X0237891Y0181772D03*
X0237891Y0182110D03*
X0237891Y0182449D03*
X0237891Y0182787D03*
X0237891Y0183126D03*
X0237891Y0183803D03*
X0241616Y0183126D03*
X0244324Y0183126D03*
X0246695Y0183803D03*
X0247372Y0182787D03*
X0247372Y0182449D03*
X0246356Y0181433D03*
X0246356Y0181094D03*
X0249065Y0181094D03*
X0248726Y0175677D03*
X0249065Y0174661D03*
X0249065Y0174323D03*
X0249065Y0172969D03*
X0249065Y0172630D03*
X0249065Y0172291D03*
X0251096Y0172969D03*
X0251096Y0173307D03*
X0253128Y0172969D03*
X0253805Y0173307D03*
X0253805Y0173646D03*
X0253805Y0173984D03*
X0253805Y0174323D03*
X0253466Y0174661D03*
X0253128Y0175000D03*
X0255836Y0175000D03*
X0255836Y0175339D03*
X0255836Y0175677D03*
X0255836Y0174661D03*
X0255836Y0174323D03*
X0255836Y0172291D03*
X0258545Y0173307D03*
X0258545Y0175339D03*
X0260576Y0174323D03*
X0260576Y0173984D03*
X0260915Y0174661D03*
X0261254Y0175000D03*
X0262608Y0175000D03*
X0262946Y0174661D03*
X0263285Y0174323D03*
X0263285Y0173984D03*
X0263285Y0172630D03*
X0265317Y0174323D03*
X0265317Y0174661D03*
X0265317Y0175000D03*
X0266332Y0173646D03*
X0268025Y0174323D03*
X0268025Y0174661D03*
X0267687Y0175677D03*
X0268025Y0172969D03*
X0268025Y0172630D03*
X0268025Y0172291D03*
X0272765Y0173307D03*
X0272765Y0174323D03*
X0272765Y0174661D03*
X0272765Y0175000D03*
X0274797Y0175000D03*
X0274797Y0174661D03*
X0274797Y0174323D03*
X0274797Y0173984D03*
X0277167Y0172969D03*
X0277506Y0172630D03*
X0277506Y0172291D03*
X0277506Y0173984D03*
X0277506Y0174323D03*
X0277506Y0174661D03*
X0277506Y0175000D03*
X0279537Y0175000D03*
X0279537Y0175339D03*
X0279537Y0175677D03*
X0279537Y0174661D03*
X0279537Y0174323D03*
X0279537Y0173984D03*
X0279537Y0173646D03*
X0279537Y0173307D03*
X0279537Y0172969D03*
X0282246Y0173307D03*
X0282246Y0173646D03*
X0282246Y0173984D03*
X0282246Y0174323D03*
X0282246Y0174661D03*
X0282246Y0175000D03*
X0284277Y0173307D03*
X0284277Y0172969D03*
X0284954Y0175000D03*
X0286986Y0175000D03*
X0286986Y0174661D03*
X0286986Y0174323D03*
X0286986Y0172969D03*
X0283600Y0191591D03*
X0305608Y0209874D03*
X0308655Y0209874D03*
X0317120Y0210890D03*
X0317120Y0212583D03*
X0320844Y0208858D03*
X0322876Y0208858D03*
X0324907Y0210551D03*
X0324907Y0210890D03*
X0324907Y0212583D03*
X0324907Y0212921D03*
X0316781Y0205811D03*
X0260576Y0172969D03*
X0260576Y0172630D03*
X0260576Y0172291D03*
X0249065Y0167213D03*
X0249065Y0165181D03*
X0249065Y0164843D03*
X0249065Y0164504D03*
X0249065Y0164165D03*
X0246356Y0164165D03*
X0246356Y0164504D03*
X0246356Y0164843D03*
X0246356Y0165181D03*
X0244324Y0165181D03*
X0244324Y0165520D03*
X0244324Y0165858D03*
X0244324Y0166197D03*
X0244324Y0166535D03*
X0244324Y0166874D03*
X0246356Y0167213D03*
X0246356Y0167551D03*
X0241616Y0166874D03*
X0241616Y0166535D03*
X0241616Y0166197D03*
X0241616Y0165858D03*
X0241616Y0165520D03*
X0241616Y0165181D03*
X0241616Y0164843D03*
X0239584Y0164843D03*
X0239584Y0165181D03*
X0239584Y0165520D03*
X0239584Y0165858D03*
X0239584Y0166197D03*
X0239584Y0166535D03*
X0239584Y0166874D03*
X0236876Y0166874D03*
X0236876Y0166535D03*
X0236876Y0166197D03*
X0236876Y0165858D03*
X0236876Y0165520D03*
X0236876Y0165181D03*
X0236876Y0164843D03*
X0234844Y0164843D03*
X0234844Y0166197D03*
X0234844Y0166535D03*
X0234844Y0166874D03*
X0232813Y0166874D03*
X0232474Y0165520D03*
X0232135Y0165181D03*
X0232135Y0164843D03*
X0230104Y0164843D03*
X0230104Y0166197D03*
X0230104Y0166535D03*
X0229765Y0167551D03*
X0228411Y0167551D03*
X0225364Y0166874D03*
X0225364Y0166535D03*
X0225364Y0166197D03*
X0225364Y0165858D03*
X0225364Y0164504D03*
X0225364Y0164165D03*
X0222655Y0165858D03*
X0222655Y0166197D03*
X0222655Y0166535D03*
X0222655Y0166874D03*
X0220624Y0166874D03*
X0220624Y0166535D03*
X0220624Y0166197D03*
X0220624Y0165858D03*
X0220624Y0164504D03*
X0217915Y0166197D03*
X0217915Y0166535D03*
X0217915Y0166874D03*
X0220624Y0173307D03*
X0220624Y0173646D03*
X0220624Y0173984D03*
X0220624Y0174323D03*
X0220624Y0174661D03*
X0220624Y0175000D03*
X0220624Y0175339D03*
X0233151Y0175000D03*
X0233151Y0174661D03*
X0233151Y0174323D03*
X0233151Y0173984D03*
X0233151Y0173646D03*
X0233151Y0173307D03*
X0233151Y0172969D03*
X0236876Y0173984D03*
X0236876Y0174323D03*
X0236876Y0174661D03*
X0236876Y0175000D03*
X0239584Y0175000D03*
X0239584Y0174661D03*
X0239584Y0174323D03*
X0239584Y0173984D03*
X0239246Y0172969D03*
X0239584Y0172630D03*
X0241616Y0174323D03*
X0241616Y0174661D03*
X0241616Y0175000D03*
X0241616Y0175339D03*
X0241616Y0175677D03*
X0243647Y0175677D03*
X0243647Y0175339D03*
X0243647Y0175000D03*
X0243647Y0174661D03*
X0243647Y0174323D03*
X0242632Y0173307D03*
X0242632Y0172969D03*
X0242632Y0172630D03*
X0242632Y0172291D03*
X0246356Y0174323D03*
X0246356Y0174661D03*
X0246356Y0175000D03*
X0247372Y0173646D03*
X0287324Y0105929D03*
X0286986Y0105591D03*
X0286986Y0105252D03*
X0286647Y0104575D03*
X0286309Y0103898D03*
X0290710Y0103898D03*
X0290710Y0103559D03*
X0291049Y0104236D03*
X0291387Y0100173D03*
X0291049Y0099835D03*
X0291049Y0099496D03*
X0289695Y0096787D03*
X0289356Y0096110D03*
X0288340Y0093740D03*
X0288002Y0093063D03*
X0287663Y0092386D03*
X0287663Y0092047D03*
X0269718Y0050402D03*
X0269380Y0050063D03*
X0269380Y0049724D03*
X0270057Y0046339D03*
X0269718Y0046000D03*
X0269718Y0045661D03*
X0267687Y0041598D03*
X0267687Y0041260D03*
X0267348Y0040921D03*
X0267348Y0040583D03*
X0267009Y0040244D03*
X0267009Y0039906D03*
X0266671Y0039228D03*
X0266332Y0038551D03*
X0266332Y0038213D03*
X0262608Y0039906D03*
X0261592Y0042614D03*
X0261592Y0042953D03*
X0261931Y0043291D03*
X0261931Y0043630D03*
X0262269Y0044307D03*
X0264301Y0046339D03*
X0264978Y0050063D03*
X0265317Y0050740D03*
X0265655Y0051417D03*
X0265655Y0051756D03*
X0265994Y0052094D03*
X0134285Y0193283D03*
X0134285Y0194976D03*
X0126836Y0194299D03*
X0126836Y0193961D03*
X0126836Y0193622D03*
X0126836Y0193283D03*
X0126836Y0192945D03*
X0126498Y0192606D03*
X0124128Y0192606D03*
X0124466Y0194638D03*
X0121757Y0194638D03*
X0121757Y0192606D03*
X0121757Y0192268D03*
X0118710Y0192268D03*
X0118710Y0192606D03*
X0118710Y0192945D03*
X0118710Y0193283D03*
X0118710Y0193622D03*
X0116679Y0193961D03*
X0116002Y0194638D03*
X0116679Y0192945D03*
X0116679Y0192606D03*
X0113632Y0192606D03*
X0113632Y0192268D03*
X0113632Y0192945D03*
X0098395Y0194976D03*
X0096025Y0194638D03*
X0096025Y0194299D03*
X0096025Y0193961D03*
X0096025Y0193622D03*
X0096025Y0193283D03*
X0096025Y0192945D03*
X0096025Y0192606D03*
X0096025Y0192268D03*
X0093655Y0192268D03*
X0093655Y0194638D03*
X0090946Y0194638D03*
X0090946Y0194976D03*
X0090946Y0195315D03*
X0090946Y0194299D03*
X0090946Y0193961D03*
X0090946Y0193622D03*
X0090946Y0193283D03*
X0090946Y0192945D03*
X0090946Y0192606D03*
X0090946Y0192268D03*
X0087899Y0192268D03*
X0087899Y0192606D03*
X0087899Y0192945D03*
X0087899Y0193283D03*
X0087899Y0193622D03*
X0087899Y0193961D03*
X0087899Y0194299D03*
X0087899Y0194638D03*
X0087899Y0194976D03*
X0087899Y0195315D03*
X0085868Y0195315D03*
X0085868Y0194976D03*
X0085868Y0194638D03*
X0085868Y0194299D03*
X0085868Y0193961D03*
X0085868Y0193622D03*
X0085868Y0193283D03*
X0085868Y0192945D03*
X0094671Y0105929D03*
X0095009Y0105591D03*
X0095009Y0105252D03*
X0096364Y0102543D03*
X0096702Y0101866D03*
X0096702Y0101528D03*
X0097041Y0101189D03*
X0097041Y0100850D03*
X0098395Y0098142D03*
X0098734Y0097465D03*
X0099072Y0096787D03*
X0099072Y0096449D03*
X0099411Y0096110D03*
X0099411Y0095772D03*
X0099750Y0095433D03*
X0099750Y0095094D03*
X0101104Y0103898D03*
X0101104Y0104236D03*
X0120403Y0053787D03*
X0122096Y0052094D03*
X0122435Y0051417D03*
X0122773Y0050740D03*
X0123112Y0050063D03*
X0122773Y0048370D03*
X0123112Y0047693D03*
X0119387Y0043630D03*
X0119726Y0042953D03*
X0120065Y0042276D03*
X0120065Y0041937D03*
X0120403Y0041598D03*
X0120403Y0041260D03*
X0120742Y0040921D03*
X0120742Y0040583D03*
X0117017Y0048709D03*
X0116679Y0049386D03*
X0116340Y0050063D03*
X0116002Y0050740D03*
X0116002Y0051079D03*
X0115663Y0051417D03*
X0315088Y0289780D03*
X0314411Y0291134D03*
X0316781Y0307386D03*
X0270734Y0358850D03*
X0271072Y0359189D03*
X0271072Y0359528D03*
X0271072Y0359866D03*
X0271072Y0360543D03*
X0271072Y0360882D03*
X0273104Y0365961D03*
X0273104Y0366299D03*
X0273104Y0366638D03*
X0273104Y0366976D03*
X0273104Y0367315D03*
X0273104Y0369685D03*
X0270057Y0369685D03*
X0270057Y0368331D03*
X0268025Y0368331D03*
X0268025Y0368669D03*
X0268025Y0369008D03*
X0268025Y0367992D03*
X0268025Y0367654D03*
X0268025Y0367315D03*
X0268025Y0366976D03*
X0268025Y0366638D03*
X0266671Y0361559D03*
X0266332Y0361220D03*
X0266332Y0360882D03*
X0266332Y0360543D03*
X0266332Y0359866D03*
X0266332Y0359528D03*
X0225702Y0366638D03*
X0225702Y0366976D03*
X0225702Y0367315D03*
X0225702Y0367654D03*
X0225702Y0367992D03*
X0225702Y0368331D03*
X0225702Y0368669D03*
X0225702Y0369008D03*
X0225702Y0369346D03*
X0225702Y0369685D03*
X0222655Y0369346D03*
X0220624Y0369008D03*
X0220624Y0368669D03*
X0220624Y0368331D03*
X0220624Y0366976D03*
X0220624Y0366638D03*
X0217576Y0367315D03*
X0218254Y0369008D03*
X0215545Y0369008D03*
X0215545Y0368669D03*
X0215545Y0368331D03*
X0215545Y0367315D03*
X0215545Y0366976D03*
X0215545Y0366638D03*
X0218592Y0362913D03*
X0219269Y0358512D03*
D14*
X0225533Y0359866D03*
X0225533Y0360882D03*
X0267517Y0362236D03*
X0269887Y0362236D03*
X0269887Y0358173D03*
X0267517Y0358173D03*
X0270565Y0366976D03*
X0315935Y0310433D03*
X0316273Y0310094D03*
X0316612Y0309756D03*
X0316612Y0291472D03*
X0315935Y0279622D03*
X0316612Y0271157D03*
X0318305Y0214276D03*
X0318305Y0213937D03*
X0318305Y0213598D03*
X0318305Y0213260D03*
X0320336Y0212921D03*
X0320336Y0212583D03*
X0320336Y0212244D03*
X0318982Y0210551D03*
X0316612Y0192945D03*
X0316612Y0192606D03*
X0316612Y0192268D03*
X0316612Y0191929D03*
X0314580Y0190913D03*
X0314580Y0190575D03*
X0305777Y0190575D03*
X0305777Y0190913D03*
X0305777Y0191252D03*
X0305777Y0191591D03*
X0305777Y0191929D03*
X0305777Y0192268D03*
X0292911Y0192268D03*
X0292911Y0192606D03*
X0292911Y0192945D03*
X0292911Y0191929D03*
X0292911Y0190236D03*
X0292911Y0189898D03*
X0289525Y0189898D03*
X0289525Y0190236D03*
X0283092Y0192945D03*
X0282415Y0189220D03*
X0279706Y0189559D03*
X0279706Y0189898D03*
X0279706Y0190575D03*
X0279706Y0190913D03*
X0276659Y0175677D03*
X0272257Y0172630D03*
X0285801Y0175339D03*
X0285801Y0175677D03*
X0258037Y0174661D03*
X0256344Y0173307D03*
X0247541Y0182110D03*
X0243139Y0181772D03*
X0243139Y0181433D03*
X0242801Y0182110D03*
X0238738Y0175677D03*
X0242801Y0173984D03*
X0234336Y0180756D03*
X0233659Y0167213D03*
X0219777Y0167551D03*
X0210974Y0206488D03*
X0210974Y0206827D03*
X0213344Y0208858D03*
X0216053Y0219016D03*
X0216053Y0219354D03*
X0216053Y0219693D03*
X0243817Y0220370D03*
X0204202Y0290118D03*
X0209958Y0291811D03*
X0213683Y0291811D03*
X0223840Y0295197D03*
X0225872Y0291811D03*
X0195061Y0291811D03*
X0192013Y0291811D03*
X0188628Y0291811D03*
X0170006Y0291811D03*
X0162895Y0295197D03*
X0140887Y0292827D03*
X0134454Y0295197D03*
X0117187Y0292827D03*
X0116848Y0293165D03*
X0114817Y0294181D03*
X0112785Y0293504D03*
X0112785Y0290795D03*
X0115494Y0289441D03*
X0116509Y0290118D03*
X0115494Y0286055D03*
X0110076Y0286055D03*
X0108383Y0292827D03*
X0108722Y0293165D03*
X0106013Y0194638D03*
X0103643Y0194638D03*
X0096533Y0103220D03*
X0101273Y0093063D03*
X0119557Y0051756D03*
X0119218Y0050063D03*
X0118541Y0046677D03*
X0118880Y0046000D03*
X0122943Y0049047D03*
X0122265Y0038551D03*
X0263116Y0044984D03*
X0263454Y0045661D03*
X0266502Y0047354D03*
X0269887Y0047354D03*
X0269549Y0049386D03*
X0287832Y0101189D03*
X0291218Y0101189D03*
X0290880Y0103220D03*
D15*
X0289017Y0107283D03*
X0284277Y0097126D03*
X0287663Y0094756D03*
X0267687Y0053449D03*
X0233490Y0164504D03*
X0229088Y0165858D03*
X0224348Y0165181D03*
X0224348Y0167213D03*
X0219608Y0167213D03*
X0224348Y0173984D03*
X0229088Y0182110D03*
X0223671Y0183465D03*
X0233828Y0182110D03*
X0237891Y0183465D03*
X0238569Y0175339D03*
X0238230Y0173646D03*
X0238569Y0173307D03*
X0233151Y0172630D03*
X0233151Y0172291D03*
X0233151Y0175339D03*
X0248049Y0175339D03*
X0252112Y0172630D03*
X0247372Y0183465D03*
X0267009Y0175339D03*
X0271750Y0173984D03*
X0276490Y0173307D03*
X0276490Y0175339D03*
X0285632Y0172630D03*
X0282584Y0189898D03*
X0282584Y0190913D03*
X0282584Y0191252D03*
X0288679Y0205811D03*
X0288679Y0206150D03*
X0288679Y0209535D03*
X0263624Y0209535D03*
X0263624Y0205811D03*
X0244324Y0205811D03*
X0244324Y0206150D03*
X0244324Y0209535D03*
X0240261Y0219016D03*
X0239923Y0219354D03*
X0239584Y0219693D03*
X0239246Y0220031D03*
X0238907Y0220370D03*
X0233490Y0220370D03*
X0233490Y0220031D03*
X0233490Y0219693D03*
X0233490Y0216646D03*
X0229427Y0214614D03*
X0229088Y0221047D03*
X0225025Y0221047D03*
X0225025Y0221386D03*
X0220624Y0219354D03*
X0219946Y0221047D03*
X0221639Y0217323D03*
X0221301Y0216984D03*
X0215545Y0220709D03*
X0211482Y0221047D03*
X0213513Y0214953D03*
X0218592Y0209535D03*
X0218592Y0206150D03*
X0218592Y0205811D03*
X0197939Y0290118D03*
X0180332Y0291811D03*
X0149183Y0293165D03*
X0144781Y0294181D03*
X0143088Y0295197D03*
X0145120Y0291134D03*
X0144781Y0290795D03*
X0138009Y0294520D03*
X0127852Y0293165D03*
X0115324Y0295535D03*
X0110246Y0295535D03*
X0110246Y0286394D03*
X0102120Y0366299D03*
X0219269Y0366299D03*
X0219269Y0367992D03*
X0224348Y0366299D03*
X0224348Y0365961D03*
X0219608Y0362575D03*
X0266671Y0365961D03*
X0266671Y0366299D03*
X0266671Y0369685D03*
X0316104Y0338535D03*
X0316104Y0335150D03*
X0316104Y0307047D03*
X0316104Y0303661D03*
X0316104Y0276236D03*
X0316104Y0272850D03*
X0316443Y0270480D03*
X0324907Y0211906D03*
X0324907Y0211567D03*
X0218254Y0295197D03*
X0114986Y0191929D03*
X0099750Y0191929D03*
X0099750Y0191591D03*
X0099750Y0195315D03*
X0095009Y0191929D03*
X0089592Y0191929D03*
X0101443Y0093402D03*
X0118710Y0047354D03*
X0122435Y0038890D03*
D16*
X0122773Y0039228D03*
X0118372Y0048370D03*
X0101781Y0093740D03*
X0115324Y0193283D03*
X0135978Y0192945D03*
X0135978Y0195315D03*
X0079435Y0193622D03*
X0079435Y0193283D03*
X0109907Y0290118D03*
X0109569Y0299937D03*
X0116002Y0299937D03*
X0137332Y0293165D03*
X0144443Y0292827D03*
X0091285Y0365961D03*
X0091285Y0369685D03*
X0213513Y0223079D03*
X0215545Y0221047D03*
X0220624Y0216307D03*
X0220285Y0215969D03*
X0230781Y0209535D03*
X0237214Y0209535D03*
X0237214Y0209874D03*
X0237214Y0206150D03*
X0237214Y0205811D03*
X0250419Y0207843D03*
X0242970Y0220709D03*
X0263962Y0219354D03*
X0275813Y0207843D03*
X0271411Y0175339D03*
X0261931Y0173307D03*
X0257191Y0173646D03*
X0257191Y0173984D03*
X0247710Y0166535D03*
X0247710Y0166197D03*
X0247710Y0165858D03*
X0247710Y0165520D03*
X0242970Y0180417D03*
X0233490Y0183465D03*
X0228750Y0183465D03*
X0228750Y0180756D03*
X0228750Y0180417D03*
X0224009Y0175339D03*
X0224009Y0172630D03*
X0228750Y0167213D03*
X0228750Y0164504D03*
X0228750Y0164165D03*
X0219269Y0172630D03*
X0219269Y0182110D03*
X0268702Y0357835D03*
X0268702Y0362575D03*
D17*
X0230781Y0294858D03*
X0230781Y0294520D03*
X0212159Y0294520D03*
X0212159Y0294858D03*
X0212159Y0291472D03*
X0212159Y0291134D03*
X0205726Y0292150D03*
X0205726Y0292488D03*
X0205726Y0294520D03*
X0205726Y0294858D03*
X0199632Y0292488D03*
X0199632Y0292150D03*
X0205726Y0289780D03*
X0205726Y0289441D03*
X0193537Y0294520D03*
X0193537Y0294858D03*
X0187104Y0294858D03*
X0187104Y0294520D03*
X0168482Y0294520D03*
X0168482Y0294858D03*
X0168482Y0291472D03*
X0168482Y0291134D03*
X0161710Y0289780D03*
X0161710Y0289441D03*
X0161710Y0294520D03*
X0161710Y0294858D03*
X0149521Y0291472D03*
X0143088Y0290457D03*
X0129883Y0294520D03*
X0256513Y0213937D03*
X0256513Y0213598D03*
X0263962Y0213598D03*
X0263962Y0213937D03*
X0263962Y0222740D03*
X0263962Y0223079D03*
X0263962Y0223417D03*
X0302561Y0223417D03*
X0302561Y0223079D03*
X0286986Y0095433D03*
X0123112Y0039567D03*
X0102120Y0094079D03*
X0097380Y0104236D03*
X0099072Y0104913D03*
D18*
X0102458Y0094417D03*
X0123450Y0039906D03*
X0267687Y0048370D03*
X0267687Y0048709D03*
X0268364Y0052433D03*
X0289017Y0102205D03*
X0289017Y0102543D03*
X0289695Y0106268D03*
X0255159Y0216984D03*
X0255159Y0217323D03*
X0223332Y0217661D03*
X0223332Y0218000D03*
X0213513Y0215630D03*
X0213513Y0222402D03*
X0199293Y0289441D03*
X0199293Y0289780D03*
X0199293Y0294520D03*
X0199293Y0294858D03*
X0224009Y0291472D03*
X0224009Y0291134D03*
X0150537Y0295197D03*
X0150537Y0295535D03*
X0150198Y0294520D03*
X0150198Y0293504D03*
X0149521Y0290795D03*
X0149521Y0290457D03*
X0149521Y0290118D03*
X0143088Y0294520D03*
X0136317Y0294181D03*
X0129883Y0290795D03*
X0303576Y0220031D03*
X0303576Y0219693D03*
X0303576Y0219354D03*
D19*
X0302391Y0222740D03*
X0325415Y0193622D03*
X0325415Y0193283D03*
X0325415Y0189559D03*
X0325415Y0189220D03*
X0263793Y0214276D03*
X0256344Y0214276D03*
X0213344Y0215291D03*
X0213344Y0222740D03*
X0161541Y0290118D03*
X0168651Y0295197D03*
X0142919Y0290118D03*
X0230612Y0295197D03*
X0289525Y0106606D03*
X0290880Y0105929D03*
X0291557Y0105591D03*
X0285462Y0096110D03*
X0284785Y0096449D03*
X0268195Y0052772D03*
X0269549Y0052094D03*
X0270226Y0051756D03*
X0266840Y0043291D03*
X0125313Y0040583D03*
X0124635Y0040244D03*
X0103643Y0094756D03*
X0104320Y0095094D03*
X0099580Y0105252D03*
D20*
X0105506Y0096449D03*
X0120065Y0053449D03*
X0122773Y0048709D03*
X0126498Y0041937D03*
X0218254Y0164165D03*
X0218254Y0164504D03*
X0218254Y0165858D03*
X0220285Y0165520D03*
X0227734Y0172969D03*
X0228750Y0173984D03*
X0229765Y0172969D03*
X0229765Y0172630D03*
X0229765Y0175000D03*
X0227734Y0175000D03*
X0228072Y0183803D03*
X0241954Y0182449D03*
X0243986Y0181094D03*
X0243986Y0180756D03*
X0246695Y0173984D03*
X0247033Y0172969D03*
X0246695Y0172291D03*
X0251435Y0173984D03*
X0256175Y0172969D03*
X0258206Y0175000D03*
X0261931Y0175339D03*
X0265655Y0173984D03*
X0265655Y0172291D03*
X0248726Y0166874D03*
X0246695Y0166874D03*
X0238569Y0167551D03*
X0233828Y0167551D03*
X0213513Y0209197D03*
X0220624Y0214953D03*
X0213852Y0223417D03*
X0249742Y0223417D03*
X0249742Y0223079D03*
X0249742Y0222740D03*
X0249742Y0222402D03*
X0249742Y0222063D03*
X0249742Y0221724D03*
X0249742Y0221386D03*
X0249742Y0221047D03*
X0249742Y0220709D03*
X0249742Y0220370D03*
X0249742Y0220031D03*
X0249742Y0219693D03*
X0249742Y0219354D03*
X0249742Y0219016D03*
X0249742Y0218677D03*
X0249742Y0218339D03*
X0249742Y0218000D03*
X0249742Y0217661D03*
X0249742Y0217323D03*
X0249742Y0216984D03*
X0249742Y0216646D03*
X0249742Y0216307D03*
X0249742Y0215969D03*
X0249742Y0215630D03*
X0249742Y0215291D03*
X0249742Y0214953D03*
X0249742Y0214614D03*
X0270734Y0214614D03*
X0270734Y0214276D03*
X0270734Y0213937D03*
X0270734Y0213598D03*
X0270734Y0214953D03*
X0270734Y0215291D03*
X0270734Y0215630D03*
X0270734Y0215969D03*
X0270734Y0216307D03*
X0270734Y0216646D03*
X0270734Y0216984D03*
X0270734Y0217323D03*
X0270734Y0217661D03*
X0270734Y0218000D03*
X0270734Y0218339D03*
X0270734Y0218677D03*
X0270734Y0219016D03*
X0270734Y0219354D03*
X0270734Y0219693D03*
X0270734Y0220031D03*
X0270734Y0220370D03*
X0270734Y0220709D03*
X0270734Y0221047D03*
X0270734Y0221386D03*
X0270734Y0221724D03*
X0270734Y0222063D03*
X0270734Y0222402D03*
X0270734Y0222740D03*
X0270734Y0223079D03*
X0270734Y0223417D03*
X0278183Y0223417D03*
X0278183Y0223079D03*
X0278183Y0222740D03*
X0278183Y0222402D03*
X0278183Y0222063D03*
X0278183Y0219016D03*
X0278183Y0218677D03*
X0278183Y0218339D03*
X0278183Y0218000D03*
X0278183Y0217661D03*
X0278183Y0214953D03*
X0278183Y0214614D03*
X0278183Y0214276D03*
X0278183Y0213937D03*
X0278183Y0213598D03*
X0293419Y0206827D03*
X0293419Y0206488D03*
X0295789Y0208858D03*
X0295789Y0209197D03*
X0300868Y0209535D03*
X0300868Y0209874D03*
X0308994Y0214614D03*
X0308994Y0214953D03*
X0308994Y0215291D03*
X0308994Y0215630D03*
X0308994Y0215969D03*
X0308994Y0216307D03*
X0308994Y0216646D03*
X0308994Y0216984D03*
X0308994Y0217323D03*
X0308994Y0217661D03*
X0308994Y0218000D03*
X0308994Y0218339D03*
X0308994Y0218677D03*
X0308994Y0219016D03*
X0308994Y0219354D03*
X0308994Y0219693D03*
X0308994Y0220031D03*
X0308994Y0220370D03*
X0308994Y0220709D03*
X0308994Y0221047D03*
X0308994Y0221386D03*
X0308994Y0221724D03*
X0308994Y0222063D03*
X0308994Y0222402D03*
X0317120Y0212244D03*
X0317120Y0211906D03*
X0317120Y0211567D03*
X0317120Y0211228D03*
X0319151Y0210890D03*
X0319151Y0210213D03*
X0319151Y0209874D03*
X0317458Y0216984D03*
X0317458Y0217323D03*
X0317458Y0217661D03*
X0317458Y0218000D03*
X0317458Y0218339D03*
X0317458Y0218677D03*
X0317458Y0219016D03*
X0317458Y0219354D03*
X0317458Y0219693D03*
X0317458Y0220031D03*
X0317458Y0220370D03*
X0317458Y0220709D03*
X0317458Y0221047D03*
X0317458Y0221386D03*
X0317458Y0221724D03*
X0317458Y0222063D03*
X0325584Y0222063D03*
X0325584Y0221724D03*
X0325584Y0221386D03*
X0325584Y0221047D03*
X0325584Y0220709D03*
X0325584Y0220370D03*
X0325584Y0220031D03*
X0325584Y0219693D03*
X0325584Y0219354D03*
X0325584Y0219016D03*
X0325584Y0218677D03*
X0325584Y0218339D03*
X0325584Y0218000D03*
X0325584Y0217661D03*
X0325584Y0217323D03*
X0325584Y0216984D03*
X0283261Y0192606D03*
X0283261Y0192268D03*
X0283261Y0191929D03*
X0286309Y0103220D03*
X0288340Y0094079D03*
X0264978Y0049386D03*
X0261592Y0041937D03*
X0262269Y0040244D03*
X0125482Y0191591D03*
X0125482Y0191929D03*
X0125482Y0195315D03*
X0129883Y0195315D03*
X0121419Y0194976D03*
X0106183Y0194976D03*
X0103474Y0194976D03*
X0111600Y0287071D03*
X0113970Y0287071D03*
X0115324Y0289102D03*
X0110246Y0289441D03*
X0107876Y0299598D03*
X0117695Y0299598D03*
X0130222Y0295535D03*
X0143427Y0289441D03*
X0147828Y0291811D03*
X0152230Y0293165D03*
X0160017Y0295197D03*
X0161710Y0294181D03*
X0161710Y0293843D03*
X0161710Y0293504D03*
X0161710Y0293165D03*
X0161710Y0292827D03*
X0161710Y0292488D03*
X0161710Y0292150D03*
X0161710Y0291811D03*
X0161710Y0291472D03*
X0161710Y0291134D03*
X0161710Y0290795D03*
X0161710Y0290457D03*
X0166112Y0291811D03*
X0166112Y0292150D03*
X0166112Y0292488D03*
X0166112Y0292827D03*
X0166112Y0293165D03*
X0166112Y0293504D03*
X0166112Y0293843D03*
X0166112Y0294181D03*
X0170175Y0294181D03*
X0170175Y0293843D03*
X0170175Y0293504D03*
X0170175Y0293165D03*
X0170175Y0292827D03*
X0170175Y0292488D03*
X0170175Y0292150D03*
X0170175Y0290795D03*
X0170175Y0290457D03*
X0170175Y0290118D03*
X0170175Y0289780D03*
X0170175Y0289441D03*
X0178639Y0292827D03*
X0178639Y0293165D03*
X0178639Y0293504D03*
X0178639Y0293843D03*
X0178639Y0294181D03*
X0178639Y0294520D03*
X0178639Y0294858D03*
X0182025Y0294858D03*
X0182025Y0294520D03*
X0182025Y0294181D03*
X0182025Y0293843D03*
X0182025Y0293504D03*
X0182025Y0293165D03*
X0182025Y0292827D03*
X0180332Y0291472D03*
X0180332Y0291134D03*
X0180332Y0290795D03*
X0180332Y0290457D03*
X0180332Y0290118D03*
X0180332Y0289780D03*
X0180332Y0289441D03*
X0184734Y0292827D03*
X0184734Y0293165D03*
X0184734Y0293504D03*
X0184734Y0293843D03*
X0184734Y0294181D03*
X0188797Y0294181D03*
X0188797Y0293843D03*
X0188797Y0293504D03*
X0188797Y0293165D03*
X0188797Y0292827D03*
X0188797Y0292488D03*
X0188797Y0292150D03*
X0188797Y0290795D03*
X0188797Y0290457D03*
X0188797Y0290118D03*
X0188797Y0289780D03*
X0188797Y0289441D03*
X0190828Y0292827D03*
X0190828Y0293165D03*
X0190828Y0293504D03*
X0190828Y0293843D03*
X0190828Y0294181D03*
X0195230Y0294181D03*
X0195230Y0293843D03*
X0195230Y0293504D03*
X0195230Y0293165D03*
X0195230Y0292827D03*
X0195230Y0292488D03*
X0195230Y0292150D03*
X0195230Y0290795D03*
X0195230Y0290457D03*
X0195230Y0290118D03*
X0195230Y0289780D03*
X0195230Y0289441D03*
X0201324Y0290457D03*
X0201324Y0290795D03*
X0201324Y0291134D03*
X0201324Y0291472D03*
X0201324Y0291811D03*
X0201324Y0292827D03*
X0201324Y0293165D03*
X0201324Y0293504D03*
X0201324Y0293843D03*
X0201324Y0294181D03*
X0203356Y0294181D03*
X0203356Y0293843D03*
X0203356Y0293504D03*
X0203356Y0293165D03*
X0203356Y0292827D03*
X0203356Y0291811D03*
X0203356Y0291472D03*
X0203356Y0291134D03*
X0203356Y0290795D03*
X0203356Y0290457D03*
X0207419Y0290457D03*
X0207419Y0290795D03*
X0207419Y0291134D03*
X0207419Y0291472D03*
X0207419Y0291811D03*
X0207419Y0292827D03*
X0207419Y0293165D03*
X0207419Y0293504D03*
X0207419Y0293843D03*
X0207419Y0294181D03*
X0209450Y0294181D03*
X0209450Y0293843D03*
X0209450Y0293504D03*
X0209450Y0293165D03*
X0209450Y0292827D03*
X0209450Y0292488D03*
X0209450Y0292150D03*
X0213852Y0292150D03*
X0213852Y0292488D03*
X0213852Y0292827D03*
X0213852Y0293165D03*
X0213852Y0293504D03*
X0213852Y0293843D03*
X0213852Y0294181D03*
X0216561Y0294181D03*
X0216561Y0293843D03*
X0215883Y0291472D03*
X0215883Y0291134D03*
X0215883Y0290795D03*
X0215883Y0290457D03*
X0213852Y0290457D03*
X0213852Y0290795D03*
X0213852Y0290118D03*
X0213852Y0289780D03*
X0213852Y0289441D03*
X0219946Y0290457D03*
X0219946Y0290795D03*
X0219946Y0292827D03*
X0219946Y0293165D03*
X0219946Y0293504D03*
X0219946Y0293843D03*
X0219946Y0294181D03*
X0221978Y0293504D03*
X0221978Y0293165D03*
X0221978Y0292827D03*
X0221978Y0292488D03*
X0221978Y0292150D03*
X0221978Y0291811D03*
X0221978Y0290795D03*
X0221978Y0290457D03*
X0221978Y0290118D03*
X0221978Y0289780D03*
X0221978Y0289441D03*
X0226041Y0289441D03*
X0226041Y0289780D03*
X0226041Y0290118D03*
X0226041Y0290457D03*
X0226041Y0290795D03*
X0226041Y0292150D03*
X0226041Y0292488D03*
X0226041Y0292827D03*
X0226041Y0293165D03*
X0226041Y0293504D03*
X0225364Y0293843D03*
X0225364Y0294181D03*
X0228072Y0294181D03*
X0228072Y0293843D03*
X0228072Y0293504D03*
X0228072Y0293165D03*
X0228072Y0292827D03*
X0232474Y0292827D03*
X0232474Y0293165D03*
X0232474Y0293504D03*
X0232474Y0293843D03*
X0232474Y0294181D03*
X0232474Y0292488D03*
X0232474Y0292150D03*
X0232474Y0290795D03*
X0232474Y0290457D03*
X0232474Y0290118D03*
X0232474Y0289780D03*
X0232474Y0289441D03*
X0222655Y0293843D03*
X0222655Y0294181D03*
X0244663Y0290457D03*
X0246356Y0289780D03*
X0246356Y0289441D03*
X0245340Y0288087D03*
X0245340Y0287748D03*
X0216899Y0358512D03*
X0225364Y0359528D03*
X0225364Y0361220D03*
X0269041Y0360543D03*
X0269380Y0360882D03*
X0270395Y0361559D03*
X0270395Y0366638D03*
X0272765Y0369008D03*
X0272765Y0369346D03*
X0315427Y0311110D03*
X0315427Y0310772D03*
X0315427Y0280299D03*
X0315427Y0279961D03*
X0315427Y0279283D03*
X0315427Y0278945D03*
X0097718Y0369008D03*
X0097718Y0369346D03*
X0095348Y0369346D03*
X0095348Y0369008D03*
X0091285Y0369346D03*
D21*
X0096533Y0367315D03*
X0097210Y0361220D03*
X0096872Y0360543D03*
X0095856Y0360543D03*
X0095517Y0361220D03*
X0098226Y0361220D03*
X0099580Y0360543D03*
X0099919Y0361220D03*
X0100935Y0361220D03*
X0101950Y0361220D03*
X0102289Y0360543D03*
X0105336Y0360543D03*
X0105336Y0360882D03*
X0105336Y0361220D03*
X0105336Y0361559D03*
X0105336Y0361898D03*
X0105336Y0362236D03*
X0092470Y0362236D03*
X0092470Y0361898D03*
X0092470Y0361559D03*
X0092470Y0361220D03*
X0092470Y0360882D03*
X0092470Y0360543D03*
X0107368Y0299260D03*
X0107368Y0298921D03*
X0107368Y0298583D03*
X0107368Y0298244D03*
X0107706Y0297906D03*
X0107706Y0297567D03*
X0108045Y0297228D03*
X0108045Y0296890D03*
X0108383Y0296551D03*
X0108383Y0294520D03*
X0108045Y0294181D03*
X0108045Y0293843D03*
X0108045Y0293504D03*
X0108722Y0292488D03*
X0108722Y0292150D03*
X0108722Y0291811D03*
X0108722Y0291472D03*
X0108722Y0291134D03*
X0107029Y0291472D03*
X0107029Y0291811D03*
X0107029Y0292150D03*
X0107368Y0292488D03*
X0106691Y0291134D03*
X0107029Y0290457D03*
X0107029Y0290118D03*
X0107706Y0288764D03*
X0107706Y0288425D03*
X0107706Y0288087D03*
X0108045Y0287409D03*
X0108383Y0287071D03*
X0110754Y0288087D03*
X0110754Y0288425D03*
X0111092Y0287748D03*
X0112785Y0291811D03*
X0112785Y0292150D03*
X0112785Y0292488D03*
X0112785Y0292827D03*
X0110754Y0294520D03*
X0111092Y0295197D03*
X0111092Y0297567D03*
X0110076Y0298244D03*
X0112108Y0299260D03*
X0112785Y0298244D03*
X0112785Y0297906D03*
X0112785Y0297567D03*
X0114478Y0297567D03*
X0114817Y0297906D03*
X0115494Y0298244D03*
X0117525Y0297228D03*
X0117525Y0296890D03*
X0117187Y0296551D03*
X0117864Y0297567D03*
X0117864Y0297906D03*
X0118202Y0298244D03*
X0118202Y0298583D03*
X0118202Y0298921D03*
X0118202Y0299260D03*
X0116848Y0295197D03*
X0117187Y0294858D03*
X0117525Y0294181D03*
X0117525Y0293843D03*
X0117525Y0293504D03*
X0116848Y0292488D03*
X0116848Y0292150D03*
X0116848Y0291811D03*
X0116848Y0291472D03*
X0116848Y0291134D03*
X0116848Y0290795D03*
X0118541Y0290118D03*
X0118541Y0289780D03*
X0118880Y0290795D03*
X0118880Y0291134D03*
X0118541Y0292150D03*
X0118202Y0292488D03*
X0117864Y0288764D03*
X0117864Y0288425D03*
X0117864Y0288087D03*
X0117525Y0287409D03*
X0117187Y0287071D03*
X0114817Y0288087D03*
X0114817Y0294858D03*
X0114478Y0295197D03*
X0113462Y0299260D03*
X0134454Y0293165D03*
X0147320Y0292150D03*
X0184226Y0291811D03*
X0223502Y0291811D03*
X0242801Y0285039D03*
X0243478Y0284362D03*
X0247202Y0286394D03*
X0248218Y0286732D03*
X0249911Y0287748D03*
X0249911Y0288087D03*
X0249911Y0289441D03*
X0249911Y0289780D03*
X0251943Y0289780D03*
X0251943Y0290118D03*
X0251943Y0290457D03*
X0251943Y0290795D03*
X0251943Y0291134D03*
X0251943Y0291472D03*
X0251943Y0291811D03*
X0251943Y0292150D03*
X0251943Y0292488D03*
X0251943Y0292827D03*
X0251943Y0293165D03*
X0251943Y0293504D03*
X0251943Y0293843D03*
X0251943Y0294181D03*
X0251943Y0294520D03*
X0251943Y0294858D03*
X0251943Y0295197D03*
X0251943Y0295535D03*
X0251943Y0295874D03*
X0251943Y0296213D03*
X0251943Y0296551D03*
X0251943Y0296890D03*
X0251943Y0297228D03*
X0251943Y0297567D03*
X0251943Y0297906D03*
X0251943Y0298244D03*
X0251943Y0298583D03*
X0251943Y0298921D03*
X0251943Y0289441D03*
X0251943Y0289102D03*
X0251943Y0288425D03*
X0251943Y0288087D03*
X0251943Y0287748D03*
X0251943Y0287409D03*
X0251943Y0287071D03*
X0251943Y0286732D03*
X0251943Y0286394D03*
X0251943Y0286055D03*
X0251943Y0285378D03*
X0251943Y0285039D03*
X0251943Y0284701D03*
X0251943Y0284362D03*
X0244832Y0289780D03*
X0252620Y0223417D03*
X0252620Y0223079D03*
X0252620Y0222740D03*
X0252620Y0222402D03*
X0252620Y0222063D03*
X0252620Y0221724D03*
X0252620Y0221386D03*
X0252620Y0221047D03*
X0252620Y0220709D03*
X0252620Y0220370D03*
X0252620Y0220031D03*
X0252620Y0219693D03*
X0252620Y0219354D03*
X0252620Y0216646D03*
X0252620Y0216307D03*
X0252620Y0215969D03*
X0252620Y0215630D03*
X0252620Y0215291D03*
X0260069Y0215291D03*
X0260069Y0215630D03*
X0260069Y0215969D03*
X0260069Y0216307D03*
X0260069Y0216646D03*
X0260069Y0216984D03*
X0260069Y0217323D03*
X0260069Y0217661D03*
X0260069Y0218000D03*
X0260069Y0218339D03*
X0260069Y0218677D03*
X0260069Y0219016D03*
X0260069Y0219354D03*
X0260069Y0219693D03*
X0260069Y0220031D03*
X0260069Y0220370D03*
X0260069Y0220709D03*
X0260069Y0221386D03*
X0260069Y0221724D03*
X0289525Y0222740D03*
X0289525Y0223079D03*
X0291218Y0221724D03*
X0291218Y0221386D03*
X0291218Y0221047D03*
X0291218Y0220709D03*
X0291218Y0220370D03*
X0291218Y0220031D03*
X0291218Y0219693D03*
X0291218Y0219354D03*
X0291218Y0219016D03*
X0291218Y0218677D03*
X0291218Y0218339D03*
X0291218Y0218000D03*
X0291218Y0217661D03*
X0291218Y0217323D03*
X0291218Y0216984D03*
X0291218Y0216646D03*
X0291218Y0216307D03*
X0291218Y0215969D03*
X0291218Y0215630D03*
X0291218Y0215291D03*
X0291218Y0214953D03*
X0291218Y0214614D03*
X0291218Y0214276D03*
X0291218Y0213937D03*
X0298667Y0213937D03*
X0298667Y0213598D03*
X0298667Y0214276D03*
X0298667Y0214614D03*
X0298667Y0214953D03*
X0298667Y0215291D03*
X0298667Y0215630D03*
X0298667Y0215969D03*
X0298667Y0216307D03*
X0298667Y0216646D03*
X0298667Y0216984D03*
X0298667Y0217323D03*
X0298667Y0219354D03*
X0298667Y0219693D03*
X0298667Y0220031D03*
X0298667Y0220370D03*
X0298667Y0220709D03*
X0298667Y0221047D03*
X0298667Y0221386D03*
X0298667Y0221724D03*
X0306116Y0221724D03*
X0306116Y0221386D03*
X0306116Y0221047D03*
X0306116Y0220709D03*
X0306116Y0220370D03*
X0306116Y0217323D03*
X0306116Y0216984D03*
X0306116Y0216646D03*
X0306116Y0216307D03*
X0306116Y0215969D03*
X0306116Y0215630D03*
X0306116Y0215291D03*
X0315596Y0215291D03*
X0315596Y0214953D03*
X0315596Y0214614D03*
X0315596Y0214276D03*
X0315596Y0213937D03*
X0315596Y0213598D03*
X0315596Y0213260D03*
X0315596Y0212921D03*
X0315596Y0212583D03*
X0315596Y0212244D03*
X0315596Y0211906D03*
X0315596Y0211567D03*
X0315596Y0211228D03*
X0315596Y0210890D03*
X0315596Y0210551D03*
X0315596Y0210213D03*
X0315596Y0209874D03*
X0315596Y0209535D03*
X0315596Y0209197D03*
X0315596Y0208858D03*
X0315596Y0208520D03*
X0315596Y0208181D03*
X0315596Y0207843D03*
X0315596Y0207504D03*
X0315935Y0206827D03*
X0316273Y0206150D03*
X0321352Y0208520D03*
X0323383Y0208520D03*
X0324738Y0210213D03*
X0315596Y0215630D03*
X0315596Y0215969D03*
X0315596Y0216307D03*
X0315596Y0216646D03*
X0315596Y0216984D03*
X0315596Y0217323D03*
X0315596Y0217661D03*
X0315596Y0218000D03*
X0315596Y0218339D03*
X0315596Y0218677D03*
X0315596Y0219016D03*
X0315596Y0219354D03*
X0315596Y0219693D03*
X0315596Y0220031D03*
X0315596Y0220370D03*
X0315596Y0220709D03*
X0315596Y0221047D03*
X0315596Y0221386D03*
X0315596Y0221724D03*
X0315596Y0222063D03*
X0315596Y0222402D03*
X0315596Y0222740D03*
X0315596Y0223079D03*
X0315596Y0223417D03*
X0315596Y0223756D03*
X0315596Y0224094D03*
X0315596Y0224433D03*
X0313903Y0192945D03*
X0313903Y0192606D03*
X0313903Y0192268D03*
X0313903Y0191929D03*
X0313903Y0191591D03*
X0313903Y0191252D03*
X0313903Y0189559D03*
X0313903Y0189220D03*
X0317289Y0189898D03*
X0317289Y0190236D03*
X0319320Y0190236D03*
X0319320Y0189898D03*
X0319320Y0192606D03*
X0319320Y0192945D03*
X0308486Y0193283D03*
X0308486Y0193622D03*
X0308486Y0189559D03*
X0308486Y0189220D03*
X0282076Y0175677D03*
X0272596Y0172969D03*
X0267856Y0173984D03*
X0263116Y0172969D03*
X0263116Y0172291D03*
X0261423Y0175677D03*
X0258376Y0175677D03*
X0258376Y0172969D03*
X0258376Y0172291D03*
X0248895Y0173984D03*
X0248895Y0167551D03*
X0243817Y0167551D03*
X0239415Y0172291D03*
X0234675Y0181094D03*
X0236706Y0183803D03*
X0242124Y0183803D03*
X0246864Y0183126D03*
X0229935Y0175677D03*
X0227226Y0167551D03*
X0225195Y0164843D03*
X0220454Y0164843D03*
X0220454Y0164165D03*
X0218761Y0165520D03*
X0214698Y0158748D03*
X0214021Y0159087D03*
X0213683Y0159425D03*
X0220454Y0172969D03*
X0220454Y0175677D03*
X0220454Y0180417D03*
X0220454Y0181094D03*
X0220454Y0183803D03*
X0213683Y0209874D03*
X0210635Y0209874D03*
X0220793Y0214614D03*
X0126667Y0194638D03*
X0124297Y0192268D03*
X0100935Y0194976D03*
X0101273Y0106945D03*
X0094840Y0106268D03*
X0098226Y0098819D03*
X0106013Y0096787D03*
X0115832Y0051756D03*
X0118202Y0045323D03*
X0119218Y0044307D03*
X0127006Y0042276D03*
X0264132Y0040244D03*
X0265147Y0043969D03*
X0267856Y0049386D03*
X0271919Y0050063D03*
X0284785Y0098480D03*
X0289187Y0103220D03*
X0293250Y0103898D03*
X0325754Y0158748D03*
X0326431Y0159087D03*
X0326769Y0159425D03*
X0317628Y0268787D03*
X0317628Y0269126D03*
X0317628Y0269465D03*
X0317628Y0269803D03*
X0317628Y0270142D03*
X0315257Y0270142D03*
X0315257Y0269803D03*
X0315257Y0269465D03*
X0315257Y0269126D03*
X0315257Y0268787D03*
X0314242Y0273866D03*
X0314242Y0274205D03*
X0314242Y0274543D03*
X0314242Y0274882D03*
X0314242Y0275220D03*
X0317628Y0275220D03*
X0317628Y0274882D03*
X0317628Y0274543D03*
X0317628Y0274205D03*
X0317628Y0281654D03*
X0317628Y0284024D03*
X0317628Y0284701D03*
X0317628Y0285039D03*
X0317628Y0285378D03*
X0317628Y0285717D03*
X0317628Y0286055D03*
X0317628Y0286394D03*
X0315935Y0286055D03*
X0315935Y0285717D03*
X0315935Y0285378D03*
X0315935Y0285039D03*
X0315935Y0284701D03*
X0315935Y0284362D03*
X0315935Y0284024D03*
X0314242Y0284024D03*
X0314242Y0284362D03*
X0314242Y0284701D03*
X0314242Y0285039D03*
X0314242Y0285378D03*
X0314242Y0285717D03*
X0314242Y0286055D03*
X0314242Y0286394D03*
X0315257Y0289102D03*
X0315257Y0289441D03*
X0314242Y0291472D03*
X0317628Y0290457D03*
X0317628Y0290118D03*
X0317628Y0289780D03*
X0317628Y0289441D03*
X0317628Y0289102D03*
X0317628Y0304677D03*
X0317628Y0305016D03*
X0317628Y0305354D03*
X0317628Y0305693D03*
X0317628Y0306031D03*
X0314242Y0306031D03*
X0314242Y0305693D03*
X0314242Y0305354D03*
X0314242Y0305016D03*
X0314242Y0304677D03*
X0314242Y0336165D03*
X0314242Y0336504D03*
X0314242Y0336843D03*
X0314242Y0337181D03*
X0314242Y0337520D03*
X0317628Y0337520D03*
X0317628Y0337181D03*
X0317628Y0336843D03*
X0317628Y0336504D03*
X0317628Y0341244D03*
X0317628Y0341583D03*
X0317628Y0341921D03*
X0317628Y0342260D03*
X0317628Y0342937D03*
X0317628Y0343276D03*
X0317628Y0343614D03*
X0315935Y0343276D03*
X0315935Y0342937D03*
X0315935Y0342598D03*
X0315935Y0342260D03*
X0315935Y0341921D03*
X0315935Y0341583D03*
X0315935Y0341244D03*
X0315935Y0346323D03*
X0315935Y0346661D03*
X0315935Y0347000D03*
X0315935Y0347339D03*
X0315935Y0347677D03*
X0315935Y0348016D03*
X0315935Y0348354D03*
X0317628Y0348354D03*
X0317628Y0348016D03*
X0317628Y0347677D03*
X0317628Y0347339D03*
X0317628Y0347000D03*
X0317628Y0346323D03*
X0317628Y0348693D03*
X0271242Y0360205D03*
X0266163Y0360205D03*
X0222486Y0360882D03*
X0222147Y0361220D03*
X0221809Y0361559D03*
X0221470Y0361898D03*
X0221132Y0362236D03*
X0220793Y0359866D03*
X0220454Y0359528D03*
X0220116Y0359189D03*
X0219777Y0358850D03*
X0218761Y0361898D03*
X0214698Y0360882D03*
X0214698Y0359866D03*
D22*
X0217746Y0358173D03*
X0214360Y0365961D03*
X0214360Y0366299D03*
X0214360Y0367654D03*
X0214360Y0367992D03*
X0214360Y0369685D03*
X0218423Y0294858D03*
X0218423Y0294520D03*
X0205557Y0295197D03*
X0192691Y0295197D03*
X0180163Y0292488D03*
X0180163Y0292150D03*
X0141226Y0294181D03*
X0137502Y0292827D03*
X0129714Y0295197D03*
X0129714Y0289780D03*
X0115832Y0289780D03*
X0115155Y0286394D03*
X0109738Y0289780D03*
X0112785Y0296213D03*
X0112785Y0297228D03*
X0091116Y0366299D03*
X0220793Y0216646D03*
X0220116Y0215630D03*
X0224517Y0209874D03*
X0224517Y0209535D03*
X0224517Y0206150D03*
X0224517Y0205811D03*
X0230950Y0209874D03*
X0233659Y0216984D03*
X0233659Y0217323D03*
X0233659Y0217661D03*
X0233320Y0220709D03*
X0233320Y0221047D03*
X0238738Y0220709D03*
X0238061Y0217323D03*
X0250588Y0207504D03*
X0256344Y0214614D03*
X0256344Y0214953D03*
X0256344Y0215291D03*
X0256344Y0215630D03*
X0256344Y0215969D03*
X0256344Y0216307D03*
X0256344Y0216646D03*
X0256344Y0218677D03*
X0256344Y0219016D03*
X0256344Y0219354D03*
X0256344Y0219693D03*
X0256344Y0220031D03*
X0256344Y0220370D03*
X0256344Y0220709D03*
X0256344Y0221047D03*
X0256344Y0221386D03*
X0256344Y0221724D03*
X0256344Y0222063D03*
X0256344Y0222402D03*
X0263793Y0222402D03*
X0263793Y0222063D03*
X0263793Y0221724D03*
X0263793Y0221386D03*
X0263793Y0221047D03*
X0263793Y0220709D03*
X0263793Y0220370D03*
X0263793Y0220031D03*
X0263793Y0219693D03*
X0263793Y0218339D03*
X0263793Y0218000D03*
X0263793Y0217661D03*
X0263793Y0217323D03*
X0263793Y0216984D03*
X0263793Y0216646D03*
X0263793Y0216307D03*
X0263793Y0215969D03*
X0263793Y0215630D03*
X0263793Y0215291D03*
X0263793Y0214953D03*
X0263793Y0214614D03*
X0263454Y0206150D03*
X0275982Y0207504D03*
X0284785Y0213598D03*
X0284785Y0213937D03*
X0284785Y0214276D03*
X0284785Y0214614D03*
X0284785Y0214953D03*
X0284785Y0215291D03*
X0284785Y0215630D03*
X0284785Y0215969D03*
X0284785Y0216307D03*
X0284785Y0216646D03*
X0284785Y0216984D03*
X0284785Y0217323D03*
X0284785Y0217661D03*
X0284785Y0218000D03*
X0284785Y0218339D03*
X0284785Y0218677D03*
X0284785Y0219016D03*
X0284785Y0219354D03*
X0284785Y0219693D03*
X0284785Y0220031D03*
X0284785Y0220370D03*
X0284785Y0220709D03*
X0284785Y0221047D03*
X0284785Y0221386D03*
X0284785Y0221724D03*
X0284785Y0222063D03*
X0284785Y0222402D03*
X0294943Y0222402D03*
X0294943Y0222063D03*
X0294943Y0221724D03*
X0294943Y0221386D03*
X0294943Y0221047D03*
X0294943Y0220709D03*
X0294943Y0220370D03*
X0294943Y0220031D03*
X0294943Y0219693D03*
X0294943Y0219354D03*
X0294943Y0219016D03*
X0294943Y0218677D03*
X0294943Y0218339D03*
X0294943Y0218000D03*
X0294943Y0217661D03*
X0294943Y0217323D03*
X0294943Y0216984D03*
X0294943Y0216646D03*
X0294943Y0216307D03*
X0294943Y0215969D03*
X0294943Y0215630D03*
X0294943Y0215291D03*
X0294943Y0214953D03*
X0294943Y0214614D03*
X0294943Y0214276D03*
X0294943Y0213937D03*
X0294943Y0213598D03*
X0302391Y0213598D03*
X0302391Y0213937D03*
X0302391Y0214276D03*
X0302391Y0214614D03*
X0302391Y0214953D03*
X0302391Y0215291D03*
X0302391Y0215630D03*
X0302391Y0215969D03*
X0302391Y0216307D03*
X0302391Y0216646D03*
X0302391Y0216984D03*
X0302391Y0217323D03*
X0302391Y0217661D03*
X0302391Y0218000D03*
X0302391Y0218339D03*
X0302391Y0218677D03*
X0302391Y0219016D03*
X0302391Y0220370D03*
X0302391Y0220709D03*
X0302391Y0221047D03*
X0302391Y0221386D03*
X0302391Y0221724D03*
X0302391Y0222063D03*
X0302391Y0222402D03*
X0302391Y0192945D03*
X0302391Y0192606D03*
X0302391Y0190236D03*
X0302391Y0189898D03*
X0286139Y0189559D03*
X0286139Y0189220D03*
X0286139Y0191252D03*
X0286139Y0191591D03*
X0286139Y0192606D03*
X0286139Y0192945D03*
X0280722Y0172630D03*
X0276320Y0173646D03*
X0271242Y0172291D03*
X0261761Y0173646D03*
X0242801Y0164504D03*
X0238061Y0164504D03*
X0224179Y0165520D03*
X0223840Y0172291D03*
X0219100Y0172291D03*
X0233320Y0180417D03*
X0292234Y0104913D03*
X0292234Y0104575D03*
X0290202Y0102882D03*
X0287494Y0101866D03*
X0287494Y0101528D03*
X0270903Y0051079D03*
X0270903Y0050740D03*
X0268872Y0049047D03*
X0266163Y0048031D03*
X0266163Y0047693D03*
X0267856Y0044307D03*
X0267856Y0043969D03*
X0264470Y0041937D03*
X0262777Y0040583D03*
X0125990Y0041260D03*
X0118541Y0047693D03*
X0118541Y0048031D03*
X0120911Y0052433D03*
X0120572Y0052772D03*
X0120572Y0053110D03*
X0104998Y0095772D03*
X0100257Y0105929D03*
X0096872Y0103559D03*
X0120234Y0191929D03*
X0120572Y0193961D03*
X0120572Y0194299D03*
X0120572Y0195315D03*
X0115494Y0193622D03*
X0140549Y0195315D03*
X0326092Y0192268D03*
X0326092Y0191929D03*
X0326092Y0191591D03*
X0326092Y0191252D03*
X0326092Y0190913D03*
X0326092Y0190575D03*
D23*
X0307301Y0207504D03*
X0307301Y0207843D03*
X0300868Y0207165D03*
X0285293Y0223079D03*
X0285293Y0223417D03*
X0275474Y0209535D03*
X0275474Y0205811D03*
X0281907Y0207504D03*
X0281907Y0207843D03*
X0264301Y0218677D03*
X0264301Y0219016D03*
X0256852Y0223079D03*
X0256852Y0223417D03*
X0255836Y0217661D03*
X0238569Y0216984D03*
X0222994Y0223079D03*
X0212159Y0207843D03*
X0212159Y0207504D03*
X0217915Y0289441D03*
X0217915Y0289780D03*
X0217915Y0290118D03*
X0217915Y0292150D03*
X0217915Y0292488D03*
X0211820Y0295197D03*
X0198616Y0295197D03*
X0193876Y0291472D03*
X0193876Y0291134D03*
X0187443Y0295197D03*
X0231120Y0291472D03*
X0231120Y0291134D03*
X0143088Y0294858D03*
X0129883Y0294858D03*
X0129545Y0290118D03*
X0112954Y0286732D03*
X0104828Y0194299D03*
X0104828Y0193961D03*
X0104828Y0193622D03*
X0104828Y0193283D03*
X0130561Y0192945D03*
X0100088Y0105591D03*
X0104828Y0095433D03*
X0125820Y0040921D03*
X0263624Y0040921D03*
X0263624Y0041260D03*
X0266671Y0042614D03*
X0266671Y0042953D03*
X0267009Y0043630D03*
X0270734Y0051417D03*
X0292065Y0105252D03*
D24*
X0291218Y0101866D03*
X0285462Y0172291D03*
X0282754Y0189559D03*
X0282754Y0190236D03*
X0282754Y0190575D03*
X0285801Y0190575D03*
X0285801Y0190913D03*
X0285801Y0190236D03*
X0285801Y0189898D03*
X0292572Y0189559D03*
X0292572Y0189220D03*
X0292572Y0191252D03*
X0292572Y0191591D03*
X0296635Y0189559D03*
X0296635Y0189220D03*
X0302053Y0190575D03*
X0302053Y0190913D03*
X0302053Y0191252D03*
X0302053Y0191591D03*
X0302053Y0191929D03*
X0302053Y0192268D03*
X0303407Y0193283D03*
X0303407Y0193622D03*
X0303407Y0189559D03*
X0303407Y0189220D03*
X0288848Y0209874D03*
X0263454Y0209874D03*
X0244494Y0209874D03*
X0242462Y0216984D03*
X0242124Y0217323D03*
X0241785Y0217661D03*
X0241446Y0218000D03*
X0241108Y0218339D03*
X0240769Y0218677D03*
X0232982Y0223417D03*
X0230273Y0219693D03*
X0224856Y0219693D03*
X0224856Y0220031D03*
X0224856Y0220370D03*
X0224856Y0220709D03*
X0224856Y0219354D03*
X0220116Y0219693D03*
X0220116Y0220031D03*
X0220116Y0220370D03*
X0220116Y0220709D03*
X0215714Y0220370D03*
X0215714Y0216984D03*
X0211651Y0216984D03*
X0211313Y0218000D03*
X0210974Y0219016D03*
X0210974Y0220370D03*
X0213006Y0208181D03*
X0218423Y0209874D03*
X0228580Y0174661D03*
X0233320Y0175677D03*
X0247541Y0180417D03*
X0247541Y0180756D03*
X0251943Y0175339D03*
X0251943Y0172291D03*
X0248218Y0173307D03*
X0267179Y0173307D03*
X0219777Y0165181D03*
X0316612Y0270819D03*
X0315935Y0272512D03*
X0315935Y0276575D03*
X0315935Y0303323D03*
X0315935Y0334811D03*
X0315935Y0338874D03*
X0231966Y0291811D03*
X0228580Y0292150D03*
X0228580Y0292488D03*
X0228580Y0289780D03*
X0228580Y0289441D03*
X0206911Y0290118D03*
X0191336Y0289780D03*
X0191336Y0289441D03*
X0191336Y0292150D03*
X0191336Y0292488D03*
X0185919Y0290795D03*
X0185919Y0290457D03*
X0150368Y0291811D03*
X0150029Y0292150D03*
X0149691Y0292488D03*
X0149352Y0292827D03*
X0145289Y0291811D03*
X0145289Y0291472D03*
X0144950Y0293504D03*
X0144950Y0293843D03*
X0140887Y0293843D03*
X0137840Y0294858D03*
X0137502Y0292488D03*
X0137502Y0290795D03*
X0134793Y0294520D03*
X0134454Y0294858D03*
X0131746Y0291472D03*
X0127683Y0292150D03*
X0112785Y0290457D03*
X0112785Y0284701D03*
X0112785Y0296551D03*
X0112785Y0296890D03*
X0102289Y0365961D03*
X0102289Y0369685D03*
X0219100Y0367654D03*
X0219100Y0365961D03*
X0324738Y0211228D03*
X0126328Y0041598D03*
X0118541Y0047016D03*
X0105336Y0096110D03*
X0100596Y0106268D03*
X0095179Y0191591D03*
X0095179Y0195315D03*
X0089423Y0191591D03*
X0115155Y0191591D03*
X0120234Y0191591D03*
D25*
X0129714Y0290457D03*
X0130053Y0294181D03*
X0136486Y0293843D03*
X0136486Y0293504D03*
X0149691Y0291134D03*
X0231628Y0223079D03*
X0281399Y0193961D03*
X0281399Y0193283D03*
X0281399Y0188882D03*
X0291218Y0190575D03*
X0291218Y0190913D03*
X0265824Y0042276D03*
X0263454Y0041598D03*
D26*
X0263285Y0045323D03*
X0263624Y0046000D03*
X0265317Y0049047D03*
X0269718Y0047016D03*
X0270057Y0047693D03*
X0270057Y0048031D03*
X0267348Y0053787D03*
X0288002Y0094417D03*
X0283939Y0097465D03*
X0283939Y0097803D03*
X0286647Y0102882D03*
X0288679Y0107622D03*
X0291387Y0101528D03*
X0291049Y0100850D03*
X0242970Y0164165D03*
X0242970Y0167213D03*
X0238230Y0167213D03*
X0238230Y0164165D03*
X0233490Y0164165D03*
X0233490Y0165858D03*
X0228750Y0173307D03*
X0228750Y0173646D03*
X0228750Y0174323D03*
X0242970Y0183465D03*
X0257868Y0174323D03*
X0279876Y0190236D03*
X0279876Y0192606D03*
X0279876Y0192945D03*
X0285632Y0173984D03*
X0280891Y0172291D03*
X0293757Y0207165D03*
X0295450Y0208181D03*
X0295450Y0208520D03*
X0308655Y0213598D03*
X0308655Y0213937D03*
X0308655Y0214276D03*
X0308655Y0222740D03*
X0308655Y0223079D03*
X0308655Y0223417D03*
X0315765Y0281654D03*
X0315088Y0290118D03*
X0315088Y0290457D03*
X0316781Y0290795D03*
X0316781Y0291134D03*
X0268702Y0357496D03*
X0267009Y0359189D03*
X0270395Y0361220D03*
X0268702Y0362913D03*
X0270734Y0367315D03*
X0272427Y0368331D03*
X0272427Y0368669D03*
X0219608Y0369685D03*
X0224009Y0294858D03*
X0224009Y0294520D03*
X0228750Y0290118D03*
X0229427Y0290457D03*
X0229427Y0290795D03*
X0250080Y0289102D03*
X0250080Y0288764D03*
X0200986Y0290118D03*
X0192183Y0290457D03*
X0192183Y0290795D03*
X0191506Y0290118D03*
X0185411Y0290118D03*
X0185072Y0289780D03*
X0185072Y0289441D03*
X0185072Y0292150D03*
X0185072Y0292488D03*
X0145120Y0293165D03*
X0140718Y0293165D03*
X0140718Y0293504D03*
X0137671Y0292150D03*
X0137671Y0291811D03*
X0137671Y0291472D03*
X0137671Y0291134D03*
X0137332Y0290457D03*
X0137332Y0290118D03*
X0137332Y0289780D03*
X0131915Y0291811D03*
X0131915Y0292150D03*
X0131915Y0292488D03*
X0131915Y0292827D03*
X0131915Y0293165D03*
X0127852Y0291811D03*
X0127852Y0291472D03*
X0127513Y0292488D03*
X0127513Y0292827D03*
X0211143Y0220709D03*
X0210805Y0220031D03*
X0210805Y0219693D03*
X0210805Y0219354D03*
X0211143Y0218677D03*
X0211143Y0218339D03*
X0211482Y0217661D03*
X0211482Y0217323D03*
X0215883Y0217323D03*
X0215883Y0217661D03*
X0215883Y0218000D03*
X0215883Y0218339D03*
X0215883Y0218677D03*
X0215883Y0220031D03*
X0220285Y0215291D03*
X0224687Y0215291D03*
X0224687Y0214953D03*
X0224687Y0215630D03*
X0224687Y0215969D03*
X0224687Y0216307D03*
X0224687Y0216646D03*
X0224687Y0216984D03*
X0224687Y0217323D03*
X0222317Y0223417D03*
X0213175Y0208520D03*
X0211143Y0207165D03*
X0237553Y0217661D03*
X0242970Y0214614D03*
X0250080Y0214276D03*
X0250080Y0213937D03*
X0250080Y0213598D03*
X0130222Y0194976D03*
X0130222Y0194638D03*
X0114986Y0195315D03*
X0120065Y0052094D03*
X0119726Y0051417D03*
X0119726Y0051079D03*
X0119387Y0050740D03*
X0119049Y0050402D03*
X0119387Y0049724D03*
X0119387Y0049386D03*
X0119726Y0049047D03*
X0119726Y0048709D03*
X0118710Y0046339D03*
D27*
X0097210Y0103898D03*
X0084344Y0191591D03*
X0084344Y0191929D03*
X0079265Y0191929D03*
X0079265Y0191591D03*
X0079265Y0195315D03*
X0142580Y0289780D03*
X0150029Y0289780D03*
X0187612Y0291134D03*
X0187612Y0291472D03*
X0220454Y0221386D03*
X0250250Y0209874D03*
X0250250Y0209535D03*
X0250250Y0206150D03*
X0250250Y0205811D03*
X0256006Y0218000D03*
X0256006Y0218339D03*
X0256683Y0222740D03*
X0269210Y0206150D03*
X0269210Y0205811D03*
X0275643Y0206150D03*
X0275643Y0209874D03*
X0279368Y0215291D03*
X0279368Y0215630D03*
X0279368Y0215969D03*
X0279368Y0216307D03*
X0279368Y0216646D03*
X0279368Y0216984D03*
X0279368Y0217323D03*
X0279368Y0219354D03*
X0279368Y0219693D03*
X0279368Y0220031D03*
X0279368Y0220370D03*
X0279368Y0220709D03*
X0279368Y0221047D03*
X0279368Y0221386D03*
X0279368Y0221724D03*
X0285124Y0222740D03*
X0295281Y0222740D03*
X0295281Y0223079D03*
X0295281Y0223417D03*
X0294604Y0207843D03*
X0294604Y0207504D03*
X0297313Y0192945D03*
X0297313Y0192606D03*
X0297313Y0192268D03*
X0297313Y0191929D03*
X0297313Y0191591D03*
X0297313Y0191252D03*
X0297313Y0190913D03*
X0297313Y0190575D03*
X0297313Y0190236D03*
X0297313Y0189898D03*
X0310179Y0189898D03*
X0310179Y0190236D03*
X0310179Y0190575D03*
X0310179Y0190913D03*
X0310179Y0191929D03*
X0310179Y0192268D03*
X0310179Y0192606D03*
X0310179Y0192945D03*
X0321013Y0192268D03*
X0321013Y0191929D03*
X0321013Y0191591D03*
X0321013Y0191252D03*
X0321013Y0190913D03*
X0321013Y0190575D03*
X0325754Y0190236D03*
X0325754Y0189898D03*
X0325754Y0192606D03*
X0325754Y0192945D03*
X0286478Y0193283D03*
X0286478Y0193622D03*
X0281399Y0193622D03*
X0315935Y0267433D03*
X0315935Y0267772D03*
X0315935Y0268110D03*
X0315935Y0268449D03*
X0315935Y0273189D03*
X0315935Y0273528D03*
X0315935Y0275559D03*
X0315935Y0275898D03*
X0315935Y0277591D03*
X0315935Y0277929D03*
X0315935Y0278268D03*
X0315935Y0278606D03*
X0315935Y0280638D03*
X0315935Y0280976D03*
X0315935Y0281315D03*
X0315935Y0282669D03*
X0315935Y0283008D03*
X0315935Y0283346D03*
X0315935Y0283685D03*
X0315935Y0287748D03*
X0315935Y0288087D03*
X0315935Y0288425D03*
X0315935Y0288764D03*
X0315935Y0304000D03*
X0315935Y0304339D03*
X0315935Y0306370D03*
X0315935Y0306709D03*
X0315935Y0308402D03*
X0315935Y0308740D03*
X0315935Y0309079D03*
X0315935Y0309417D03*
X0315935Y0311449D03*
X0315935Y0311787D03*
X0315935Y0312126D03*
X0315935Y0312465D03*
X0315935Y0335488D03*
X0315935Y0335827D03*
X0315935Y0337858D03*
X0315935Y0338197D03*
X0315935Y0339890D03*
X0315935Y0340228D03*
X0315935Y0340567D03*
X0315935Y0340906D03*
X0315935Y0344969D03*
X0315935Y0345307D03*
X0315935Y0345646D03*
X0315935Y0345984D03*
X0271580Y0367654D03*
X0271580Y0367992D03*
X0106691Y0367992D03*
X0106691Y0367654D03*
X0096533Y0367654D03*
X0096533Y0367992D03*
X0096533Y0368331D03*
X0096533Y0368669D03*
X0289187Y0106945D03*
X0284446Y0096787D03*
X0287494Y0095094D03*
X0267856Y0053110D03*
D28*
X0286817Y0095772D03*
X0287494Y0191929D03*
X0287494Y0192268D03*
X0240431Y0223417D03*
X0232305Y0218339D03*
X0213683Y0215969D03*
X0213683Y0222063D03*
X0150029Y0293843D03*
X0150029Y0294181D03*
X0150368Y0294858D03*
X0130053Y0293843D03*
D29*
X0112785Y0293843D03*
X0213683Y0221724D03*
X0213683Y0216646D03*
X0223163Y0222402D03*
X0231628Y0216307D03*
X0231628Y0215969D03*
X0231289Y0215291D03*
X0231289Y0214953D03*
X0098226Y0104575D03*
D30*
X0270226Y0158409D03*
D31*
X0270226Y0186850D03*
X0270226Y0187189D03*
X0270226Y0187528D03*
X0270226Y0187866D03*
X0270226Y0188205D03*
X0270226Y0194638D03*
X0270226Y0194976D03*
D32*
X0245509Y0193961D03*
X0245509Y0193622D03*
X0245509Y0193283D03*
X0245509Y0192945D03*
X0245509Y0192606D03*
X0245509Y0192268D03*
X0245509Y0191929D03*
X0245509Y0191591D03*
X0245509Y0191252D03*
X0245509Y0190913D03*
X0245509Y0190575D03*
X0245509Y0190236D03*
X0245509Y0189898D03*
X0245509Y0189559D03*
X0245509Y0189220D03*
X0245509Y0188882D03*
X0245509Y0188543D03*
D33*
X0306116Y0188543D03*
X0306116Y0188882D03*
X0306116Y0193961D03*
D34*
X0245679Y0194299D03*
D35*
X0305946Y0194299D03*
D36*
X0270226Y0195315D03*
X0270226Y0195654D03*
D37*
X0270226Y0195992D03*
D38*
X0270226Y0196331D03*
D39*
X0270226Y0196669D03*
D40*
X0270226Y0197008D03*
D41*
X0322198Y0205472D03*
D42*
X0260238Y0211906D03*
X0260238Y0212244D03*
X0260238Y0212583D03*
X0260238Y0212921D03*
X0260238Y0213260D03*
X0260238Y0223756D03*
X0260238Y0224094D03*
X0260238Y0224433D03*
X0260238Y0224772D03*
D43*
X0293588Y0224772D03*
X0293588Y0225110D03*
X0293588Y0224433D03*
X0293588Y0224094D03*
X0293588Y0223756D03*
X0293588Y0213260D03*
X0293588Y0212921D03*
X0293588Y0212583D03*
X0293588Y0212244D03*
X0293588Y0211906D03*
D44*
X0240939Y0214953D03*
X0232474Y0218000D03*
X0232135Y0218677D03*
X0232135Y0219016D03*
X0232135Y0219354D03*
X0231458Y0215630D03*
X0222994Y0218339D03*
X0223332Y0222740D03*
X0213852Y0216307D03*
X0143088Y0292150D03*
X0143088Y0292488D03*
X0129883Y0293504D03*
X0129883Y0291134D03*
D45*
X0222655Y0221724D03*
X0240939Y0221724D03*
X0240939Y0222063D03*
X0240939Y0222402D03*
X0240939Y0222740D03*
X0240261Y0216646D03*
X0240261Y0216307D03*
X0240261Y0215969D03*
X0240261Y0215630D03*
X0240261Y0215291D03*
X0247372Y0292827D03*
X0247372Y0297567D03*
X0247372Y0297906D03*
D46*
X0321860Y0215969D03*
D47*
X0321691Y0216307D03*
X0247202Y0299260D03*
X0098903Y0358512D03*
X0098903Y0360882D03*
D48*
X0321521Y0223079D03*
X0321521Y0222740D03*
X0321521Y0222402D03*
X0321521Y0216646D03*
D49*
X0247710Y0292150D03*
X0230781Y0222740D03*
X0231120Y0221724D03*
X0231120Y0221386D03*
X0222655Y0219016D03*
X0222655Y0218677D03*
X0213852Y0221386D03*
D50*
X0240769Y0221386D03*
X0240769Y0221047D03*
X0112785Y0295874D03*
D51*
X0222824Y0222063D03*
X0230950Y0222063D03*
X0230950Y0222402D03*
X0241108Y0223079D03*
X0247541Y0292488D03*
D52*
X0321521Y0224772D03*
D53*
X0260069Y0225110D03*
D54*
X0321521Y0225110D03*
D55*
X0247710Y0284024D03*
D56*
X0247202Y0299598D03*
D57*
X0098903Y0358850D03*
D58*
X0098903Y0362913D03*
X0220116Y0360543D03*
X0220116Y0360205D03*
D59*
X0098903Y0362575D03*
D60*
X0001799Y0003435D02*
X0001799Y0002857D01*
X0001799Y0003050D02*
X0001511Y0003050D01*
X0001414Y0003146D01*
X0001414Y0003339D01*
X0001511Y0003435D01*
X0001799Y0003435D01*
X0002038Y0003339D02*
X0002038Y0003050D01*
X0002230Y0003050D02*
X0002230Y0003339D01*
X0002134Y0003435D01*
X0002038Y0003339D01*
X0002230Y0003339D02*
X0002327Y0003435D01*
X0002423Y0003435D01*
X0002423Y0003050D01*
X0002661Y0003146D02*
X0002661Y0003339D01*
X0002758Y0003435D01*
X0003047Y0003435D01*
X0003047Y0003628D02*
X0003047Y0003050D01*
X0002758Y0003050D01*
X0002661Y0003146D01*
X0003262Y0003146D02*
X0003262Y0003050D01*
X0003358Y0003050D01*
X0003358Y0003146D01*
X0003262Y0003146D01*
X0003597Y0003050D02*
X0003597Y0003339D01*
X0003693Y0003435D01*
X0003789Y0003339D01*
X0003789Y0003050D01*
X0003982Y0003050D02*
X0003982Y0003435D01*
X0003886Y0003435D01*
X0003789Y0003339D01*
X0004220Y0003339D02*
X0004317Y0003435D01*
X0004509Y0003435D01*
X0004605Y0003339D01*
X0004605Y0003146D01*
X0004509Y0003050D01*
X0004317Y0003050D01*
X0004220Y0003146D01*
X0004220Y0003339D01*
X0004828Y0003435D02*
X0005021Y0003435D01*
X0004925Y0003531D02*
X0004925Y0003146D01*
X0004828Y0003050D01*
X0005244Y0003050D02*
X0005340Y0003146D01*
X0005340Y0003531D01*
X0005244Y0003435D02*
X0005437Y0003435D01*
X0005675Y0003339D02*
X0005771Y0003435D01*
X0005964Y0003435D01*
X0006060Y0003339D01*
X0006060Y0003146D01*
X0005964Y0003050D01*
X0005771Y0003050D01*
X0005675Y0003146D01*
X0005675Y0003339D01*
X0006299Y0003339D02*
X0006395Y0003435D01*
X0006684Y0003435D01*
X0006684Y0003628D02*
X0006684Y0003050D01*
X0006395Y0003050D01*
X0006299Y0003146D01*
X0006299Y0003339D01*
X0006922Y0003339D02*
X0007307Y0003339D01*
X0007546Y0003339D02*
X0007642Y0003435D01*
X0007835Y0003435D01*
X0007931Y0003339D01*
X0007931Y0003146D01*
X0007835Y0003050D01*
X0007642Y0003050D01*
X0007546Y0003146D01*
X0007546Y0003339D01*
X0008162Y0003435D02*
X0008258Y0003435D01*
X0008450Y0003243D01*
X0008450Y0003435D02*
X0008450Y0003050D01*
X0008689Y0003243D02*
X0009074Y0003243D01*
X0009074Y0003339D02*
X0008978Y0003435D01*
X0008785Y0003435D01*
X0008689Y0003339D01*
X0008689Y0003243D01*
X0008785Y0003050D02*
X0008978Y0003050D01*
X0009074Y0003146D01*
X0009074Y0003339D01*
X0009312Y0003435D02*
X0009697Y0003050D01*
X0009312Y0003050D01*
X0009312Y0003435D02*
X0009697Y0003435D01*
X0009936Y0003435D02*
X0009936Y0002954D01*
X0010032Y0002857D01*
X0010128Y0002857D01*
X0010225Y0003050D02*
X0009936Y0003050D01*
X0010225Y0003050D02*
X0010321Y0003146D01*
X0010321Y0003435D01*
X0010559Y0003339D02*
X0010656Y0003435D01*
X0010848Y0003435D01*
X0010944Y0003339D01*
X0010944Y0003146D01*
X0010848Y0003050D01*
X0010656Y0003050D01*
X0010559Y0003146D01*
X0010559Y0003339D01*
X0011183Y0003339D02*
X0011279Y0003435D01*
X0011568Y0003435D01*
X0011568Y0003628D02*
X0011568Y0003050D01*
X0011279Y0003050D01*
X0011183Y0003146D01*
X0011183Y0003339D01*
X0011806Y0003339D02*
X0011806Y0003243D01*
X0012192Y0003243D01*
X0012192Y0003339D02*
X0012095Y0003435D01*
X0011903Y0003435D01*
X0011806Y0003339D01*
X0011903Y0003050D02*
X0012095Y0003050D01*
X0012192Y0003146D01*
X0012192Y0003339D01*
X0012430Y0003339D02*
X0012430Y0003050D01*
X0012623Y0003050D02*
X0012623Y0003339D01*
X0012526Y0003435D01*
X0012430Y0003339D01*
X0012623Y0003339D02*
X0012719Y0003435D01*
X0012815Y0003435D01*
X0012815Y0003050D01*
X0013053Y0003050D02*
X0013342Y0003050D01*
X0013439Y0003146D01*
X0013342Y0003243D01*
X0013053Y0003243D01*
X0013053Y0003339D02*
X0013053Y0003050D01*
X0013053Y0003339D02*
X0013150Y0003435D01*
X0013342Y0003435D01*
X0013677Y0003435D02*
X0013966Y0003435D01*
X0014062Y0003339D01*
X0014062Y0003146D01*
X0013966Y0003050D01*
X0013677Y0003050D01*
X0013677Y0002954D02*
X0013677Y0003435D01*
X0013677Y0002954D02*
X0013773Y0002857D01*
X0013870Y0002857D01*
X0014686Y0003050D02*
X0014301Y0003628D01*
X0014924Y0003435D02*
X0015213Y0003435D01*
X0015309Y0003339D01*
X0015213Y0003243D01*
X0015020Y0003243D01*
X0014924Y0003146D01*
X0015020Y0003050D01*
X0015309Y0003050D01*
X0015540Y0003050D02*
X0015829Y0003243D01*
X0015540Y0003435D01*
X0015829Y0003628D02*
X0015829Y0003050D01*
X0016052Y0003050D02*
X0016244Y0003050D01*
X0016148Y0003050D02*
X0016148Y0003628D01*
X0016244Y0003628D01*
X0016564Y0003628D02*
X0016564Y0003724D01*
X0016564Y0003435D02*
X0016564Y0003050D01*
X0016660Y0003050D02*
X0016468Y0003050D01*
X0016564Y0003435D02*
X0016660Y0003435D01*
X0016899Y0003435D02*
X0017187Y0003435D01*
X0017284Y0003339D01*
X0017187Y0003243D01*
X0016995Y0003243D01*
X0016899Y0003146D01*
X0016995Y0003050D01*
X0017284Y0003050D01*
X0017907Y0003050D02*
X0017522Y0003628D01*
X0018138Y0003435D02*
X0018234Y0003435D01*
X0018427Y0003243D01*
X0018427Y0003435D02*
X0018427Y0003050D01*
X0018665Y0003243D02*
X0019050Y0003243D01*
X0019050Y0003339D02*
X0018954Y0003435D01*
X0018761Y0003435D01*
X0018665Y0003339D01*
X0018665Y0003243D01*
X0018761Y0003050D02*
X0018954Y0003050D01*
X0019050Y0003146D01*
X0019050Y0003339D01*
X0019273Y0003435D02*
X0019466Y0003435D01*
X0019370Y0003531D02*
X0019370Y0003146D01*
X0019273Y0003050D01*
X0019697Y0003435D02*
X0019793Y0003435D01*
X0019986Y0003243D01*
X0019986Y0003435D02*
X0019986Y0003050D01*
X0020224Y0003050D02*
X0020513Y0003050D01*
X0020609Y0003146D01*
X0020513Y0003243D01*
X0020224Y0003243D01*
X0020224Y0003339D02*
X0020224Y0003050D01*
X0020224Y0003339D02*
X0020320Y0003435D01*
X0020513Y0003435D01*
X0020832Y0003435D02*
X0021025Y0003435D01*
X0020928Y0003531D02*
X0020928Y0003146D01*
X0020832Y0003050D01*
X0021263Y0003146D02*
X0021359Y0003243D01*
X0021552Y0003243D01*
X0021648Y0003339D01*
X0021552Y0003435D01*
X0021263Y0003435D01*
X0021263Y0003146D02*
X0021359Y0003050D01*
X0021648Y0003050D01*
X0021879Y0003050D02*
X0022168Y0003243D01*
X0021879Y0003435D01*
X0022168Y0003628D02*
X0022168Y0003050D01*
X0022406Y0003050D02*
X0022695Y0003050D01*
X0022791Y0003146D01*
X0022791Y0003339D01*
X0022695Y0003435D01*
X0022406Y0003435D01*
X0023111Y0003435D02*
X0023111Y0003050D01*
X0023207Y0003050D02*
X0023015Y0003050D01*
X0023111Y0003435D02*
X0023207Y0003435D01*
X0023111Y0003628D02*
X0023111Y0003724D01*
X0023445Y0003628D02*
X0023831Y0003243D01*
X0023734Y0003339D02*
X0023445Y0003050D01*
X0023831Y0003050D02*
X0023831Y0003628D01*
X0024069Y0003339D02*
X0024454Y0003339D01*
X0024693Y0003339D02*
X0024789Y0003435D01*
X0024981Y0003435D01*
X0025078Y0003339D01*
X0025078Y0003146D01*
X0024981Y0003050D01*
X0024789Y0003050D01*
X0024693Y0003146D01*
X0024693Y0003339D01*
X0025308Y0003435D02*
X0025405Y0003435D01*
X0025597Y0003243D01*
X0025597Y0003435D02*
X0025597Y0003050D01*
X0025836Y0003243D02*
X0026221Y0003243D01*
X0026221Y0003339D02*
X0026124Y0003435D01*
X0025932Y0003435D01*
X0025836Y0003339D01*
X0025836Y0003243D01*
X0025932Y0003050D02*
X0026124Y0003050D01*
X0026221Y0003146D01*
X0026221Y0003339D01*
X0026459Y0003531D02*
X0026844Y0003146D01*
X0026844Y0003050D01*
X0026459Y0003050D01*
X0026459Y0003531D02*
X0026459Y0003628D01*
X0026844Y0003628D01*
X0027083Y0003339D02*
X0027468Y0003339D01*
X0027706Y0003435D02*
X0027706Y0002954D01*
X0027802Y0002857D01*
X0027899Y0002857D01*
X0027995Y0003050D02*
X0027706Y0003050D01*
X0027995Y0003050D02*
X0028091Y0003146D01*
X0028091Y0003435D01*
X0028330Y0003339D02*
X0028426Y0003435D01*
X0028619Y0003435D01*
X0028715Y0003339D01*
X0028715Y0003146D01*
X0028619Y0003050D01*
X0028426Y0003050D01*
X0028330Y0003146D01*
X0028330Y0003339D01*
X0028953Y0003339D02*
X0029050Y0003435D01*
X0029338Y0003435D01*
X0029338Y0003628D02*
X0029338Y0003050D01*
X0029050Y0003050D01*
X0028953Y0003146D01*
X0028953Y0003339D01*
X0029577Y0003339D02*
X0029577Y0003243D01*
X0029962Y0003243D01*
X0029962Y0003339D02*
X0029866Y0003435D01*
X0029673Y0003435D01*
X0029577Y0003339D01*
X0029673Y0003050D02*
X0029866Y0003050D01*
X0029962Y0003146D01*
X0029962Y0003339D01*
X0030200Y0003339D02*
X0030200Y0003050D01*
X0030393Y0003050D02*
X0030393Y0003339D01*
X0030297Y0003435D01*
X0030200Y0003339D01*
X0030393Y0003339D02*
X0030489Y0003435D01*
X0030585Y0003435D01*
X0030585Y0003050D01*
X0030824Y0003050D02*
X0031113Y0003050D01*
X0031209Y0003146D01*
X0031113Y0003243D01*
X0030824Y0003243D01*
X0030824Y0003339D02*
X0030824Y0003050D01*
X0030824Y0003339D02*
X0030920Y0003435D01*
X0031113Y0003435D01*
X0031447Y0003339D02*
X0031640Y0003339D01*
X0031447Y0003339D02*
X0031447Y0003146D01*
X0031544Y0003050D01*
X0031736Y0003050D01*
X0031832Y0003146D01*
X0031832Y0003531D01*
X0031736Y0003628D01*
X0031544Y0003628D01*
X0031447Y0003531D01*
X0032071Y0003628D02*
X0032456Y0003050D01*
X0032694Y0003050D02*
X0032694Y0003339D01*
X0032791Y0003435D01*
X0032983Y0003435D01*
X0033080Y0003339D01*
X0033303Y0003435D02*
X0033495Y0003435D01*
X0033399Y0003531D02*
X0033399Y0003146D01*
X0033303Y0003050D01*
X0033080Y0003050D02*
X0033080Y0003628D01*
X0033734Y0003339D02*
X0033734Y0003243D01*
X0034119Y0003243D01*
X0034119Y0003339D02*
X0034022Y0003435D01*
X0033830Y0003435D01*
X0033734Y0003339D01*
X0033830Y0003050D02*
X0034022Y0003050D01*
X0034119Y0003146D01*
X0034119Y0003339D01*
X0034357Y0003339D02*
X0034357Y0003243D01*
X0034742Y0003243D01*
X0034742Y0003339D02*
X0034646Y0003435D01*
X0034453Y0003435D01*
X0034357Y0003339D01*
X0034453Y0003050D02*
X0034646Y0003050D01*
X0034742Y0003146D01*
X0034742Y0003339D01*
X0034965Y0003435D02*
X0035158Y0003435D01*
X0035062Y0003531D02*
X0035062Y0003146D01*
X0034965Y0003050D01*
X0035396Y0003050D02*
X0035781Y0003050D01*
X0035396Y0003435D01*
X0035396Y0003531D01*
X0035493Y0003628D01*
X0035685Y0003628D01*
X0035781Y0003531D01*
X0036020Y0003531D02*
X0036020Y0003435D01*
X0036116Y0003339D01*
X0036020Y0003243D01*
X0036020Y0003146D01*
X0036116Y0003050D01*
X0036309Y0003050D01*
X0036405Y0003146D01*
X0036212Y0003339D02*
X0036116Y0003339D01*
X0036020Y0003531D02*
X0036116Y0003628D01*
X0036309Y0003628D01*
X0036405Y0003531D01*
X0036643Y0003628D02*
X0037028Y0003050D01*
X0037267Y0003146D02*
X0037267Y0003339D01*
X0037363Y0003435D01*
X0037652Y0003435D01*
X0037652Y0003628D02*
X0037652Y0003050D01*
X0037363Y0003050D01*
X0037267Y0003146D01*
X0037890Y0003050D02*
X0037890Y0003435D01*
X0037890Y0003050D02*
X0038179Y0003050D01*
X0038276Y0003146D01*
X0038276Y0003435D01*
X0038514Y0003339D02*
X0038514Y0003050D01*
X0038514Y0003339D02*
X0038610Y0003435D01*
X0038803Y0003435D01*
X0038899Y0003339D01*
X0039122Y0003435D02*
X0039315Y0003435D01*
X0039218Y0003531D02*
X0039218Y0003146D01*
X0039122Y0003050D01*
X0038899Y0003050D02*
X0038899Y0003628D01*
X0039634Y0003628D02*
X0039634Y0003724D01*
X0039634Y0003435D02*
X0039634Y0003050D01*
X0039730Y0003050D02*
X0039538Y0003050D01*
X0039634Y0003435D02*
X0039730Y0003435D01*
X0039969Y0003435D02*
X0040258Y0003435D01*
X0040354Y0003339D01*
X0040354Y0003146D01*
X0040258Y0003050D01*
X0039969Y0003050D01*
X0039969Y0002954D02*
X0039969Y0003435D01*
X0039969Y0002954D02*
X0040065Y0002857D01*
X0040161Y0002857D01*
X0040977Y0003050D02*
X0040592Y0003628D01*
X0041216Y0003435D02*
X0041505Y0003435D01*
X0041601Y0003339D01*
X0041505Y0003243D01*
X0041312Y0003243D01*
X0041216Y0003146D01*
X0041312Y0003050D01*
X0041601Y0003050D01*
X0041824Y0003050D02*
X0041920Y0003146D01*
X0041920Y0003531D01*
X0041824Y0003435D02*
X0042017Y0003435D01*
X0042255Y0003339D02*
X0042255Y0003050D01*
X0042255Y0003339D02*
X0042351Y0003435D01*
X0042640Y0003435D01*
X0042640Y0003050D01*
X0042879Y0003243D02*
X0043264Y0003243D01*
X0043264Y0003339D02*
X0043167Y0003435D01*
X0042975Y0003435D01*
X0042879Y0003339D01*
X0042879Y0003243D01*
X0042975Y0003050D02*
X0043167Y0003050D01*
X0043264Y0003146D01*
X0043264Y0003339D01*
X0043502Y0003339D02*
X0043502Y0003050D01*
X0043695Y0003050D02*
X0043695Y0003339D01*
X0043598Y0003435D01*
X0043502Y0003339D01*
X0043695Y0003339D02*
X0043791Y0003435D01*
X0043887Y0003435D01*
X0043887Y0003050D01*
X0044126Y0003050D02*
X0044126Y0003435D01*
X0044511Y0003435D02*
X0044511Y0003146D01*
X0044414Y0003050D01*
X0044126Y0003050D01*
X0044749Y0003050D02*
X0045038Y0003050D01*
X0045134Y0003146D01*
X0045134Y0003339D01*
X0045038Y0003435D01*
X0044749Y0003435D01*
X0045373Y0003339D02*
X0045469Y0003435D01*
X0045662Y0003435D01*
X0045758Y0003339D01*
X0045758Y0003146D01*
X0045662Y0003050D01*
X0045469Y0003050D01*
X0045373Y0003146D01*
X0045373Y0003339D01*
X0045996Y0003531D02*
X0046092Y0003628D01*
X0046381Y0003628D01*
X0046381Y0003050D01*
X0046092Y0003050D01*
X0045996Y0003146D01*
X0045996Y0003531D01*
X0046620Y0003628D02*
X0047005Y0003050D01*
X0047243Y0003243D02*
X0047628Y0003243D01*
X0047628Y0003339D02*
X0047532Y0003435D01*
X0047340Y0003435D01*
X0047243Y0003339D01*
X0047243Y0003243D01*
X0047340Y0003050D02*
X0047532Y0003050D01*
X0047628Y0003146D01*
X0047628Y0003339D01*
X0047867Y0003339D02*
X0047867Y0003050D01*
X0047867Y0003339D02*
X0047963Y0003435D01*
X0048252Y0003435D01*
X0048252Y0003050D01*
X0048490Y0003243D02*
X0048875Y0003243D01*
X0048875Y0003339D02*
X0048779Y0003435D01*
X0048587Y0003435D01*
X0048490Y0003339D01*
X0048490Y0003243D01*
X0048587Y0003050D02*
X0048779Y0003050D01*
X0048875Y0003146D01*
X0048875Y0003339D01*
X0049114Y0003435D02*
X0049403Y0003435D01*
X0049499Y0003339D01*
X0049499Y0003146D01*
X0049403Y0003050D01*
X0049114Y0003050D01*
X0049114Y0002954D02*
X0049114Y0003435D01*
X0049114Y0002954D02*
X0049210Y0002857D01*
X0049306Y0002857D01*
X0049737Y0003050D02*
X0049737Y0003435D01*
X0049737Y0003050D02*
X0050026Y0003050D01*
X0050122Y0003146D01*
X0050122Y0003435D01*
X0050361Y0003339D02*
X0050361Y0003243D01*
X0050746Y0003243D01*
X0050746Y0003339D02*
X0050650Y0003435D01*
X0050457Y0003435D01*
X0050361Y0003339D01*
X0050457Y0003050D02*
X0050650Y0003050D01*
X0050746Y0003146D01*
X0050746Y0003339D01*
X0050984Y0003628D02*
X0051369Y0003050D01*
X0051608Y0003146D02*
X0051704Y0003243D01*
X0051897Y0003243D01*
X0051993Y0003339D01*
X0051897Y0003435D01*
X0051608Y0003435D01*
X0051608Y0003146D02*
X0051704Y0003050D01*
X0051993Y0003050D01*
X0052224Y0003435D02*
X0052320Y0003435D01*
X0052513Y0003243D01*
X0052513Y0003435D02*
X0052513Y0003050D01*
X0052751Y0003243D02*
X0053136Y0003243D01*
X0053136Y0003339D02*
X0053040Y0003435D01*
X0052847Y0003435D01*
X0052751Y0003339D01*
X0052751Y0003243D01*
X0052847Y0003050D02*
X0053040Y0003050D01*
X0053136Y0003146D01*
X0053136Y0003339D01*
X0053375Y0003435D02*
X0053663Y0003435D01*
X0053760Y0003339D01*
X0053663Y0003243D01*
X0053471Y0003243D01*
X0053375Y0003146D01*
X0053471Y0003050D01*
X0053760Y0003050D01*
X0053998Y0003146D02*
X0053998Y0003628D01*
X0054383Y0003628D02*
X0054383Y0003146D01*
X0054287Y0003050D01*
X0054094Y0003050D01*
X0053998Y0003146D01*
X0054622Y0003628D02*
X0055007Y0003050D01*
X0196790Y0188333D02*
X0196540Y0188584D01*
X0196540Y0188834D01*
X0196790Y0189084D01*
X0198041Y0189084D01*
X0198041Y0188834D02*
X0198041Y0189334D01*
X0197541Y0189807D02*
X0198041Y0190307D01*
X0196540Y0190307D01*
X0196540Y0189807D02*
X0196540Y0190808D01*
D61*
X0284761Y0237882D02*
X0084761Y0237882D01*
X0084761Y0247882D01*
X0094761Y0247882D01*
X0094761Y0257882D01*
X0284761Y0257882D01*
X0284761Y0237882D01*
X0300903Y0234102D02*
X0068620Y0234102D01*
X0068335Y0234105D01*
X0068049Y0234116D01*
X0067764Y0234133D01*
X0067480Y0234157D01*
X0067196Y0234188D01*
X0066913Y0234226D01*
X0066632Y0234271D01*
X0066351Y0234322D01*
X0066071Y0234380D01*
X0065793Y0234445D01*
X0065517Y0234517D01*
X0065243Y0234595D01*
X0064970Y0234680D01*
X0064700Y0234772D01*
X0064432Y0234870D01*
X0064166Y0234974D01*
X0063903Y0235085D01*
X0063643Y0235202D01*
X0063385Y0235325D01*
X0063131Y0235455D01*
X0062880Y0235591D01*
X0062632Y0235732D01*
X0062388Y0235880D01*
X0062147Y0236033D01*
X0061911Y0236193D01*
X0061678Y0236358D01*
X0061449Y0236528D01*
X0061224Y0236704D01*
X0061004Y0236886D01*
X0060788Y0237072D01*
X0060577Y0237264D01*
X0060370Y0237461D01*
X0060168Y0237663D01*
X0059971Y0237870D01*
X0059779Y0238081D01*
X0059593Y0238297D01*
X0059411Y0238517D01*
X0059235Y0238742D01*
X0059065Y0238971D01*
X0058900Y0239204D01*
X0058740Y0239440D01*
X0058587Y0239681D01*
X0058439Y0239925D01*
X0058298Y0240173D01*
X0058162Y0240424D01*
X0058032Y0240678D01*
X0057909Y0240936D01*
X0057792Y0241196D01*
X0057681Y0241459D01*
X0057577Y0241725D01*
X0057479Y0241993D01*
X0057387Y0242263D01*
X0057302Y0242536D01*
X0057224Y0242810D01*
X0057152Y0243086D01*
X0057087Y0243364D01*
X0057029Y0243644D01*
X0056978Y0243925D01*
X0056933Y0244206D01*
X0056895Y0244489D01*
X0056864Y0244773D01*
X0056840Y0245057D01*
X0056823Y0245342D01*
X0056812Y0245628D01*
X0056809Y0245913D01*
X0056809Y0340402D01*
X0056812Y0340687D01*
X0056823Y0340973D01*
X0056840Y0341258D01*
X0056864Y0341542D01*
X0056895Y0341826D01*
X0056933Y0342109D01*
X0056978Y0342390D01*
X0057029Y0342671D01*
X0057087Y0342951D01*
X0057152Y0343229D01*
X0057224Y0343505D01*
X0057302Y0343779D01*
X0057387Y0344052D01*
X0057479Y0344322D01*
X0057577Y0344590D01*
X0057681Y0344856D01*
X0057792Y0345119D01*
X0057909Y0345379D01*
X0058032Y0345637D01*
X0058162Y0345891D01*
X0058298Y0346142D01*
X0058439Y0346390D01*
X0058587Y0346634D01*
X0058740Y0346875D01*
X0058900Y0347111D01*
X0059065Y0347344D01*
X0059235Y0347573D01*
X0059411Y0347798D01*
X0059593Y0348018D01*
X0059779Y0348234D01*
X0059971Y0348445D01*
X0060168Y0348652D01*
X0060370Y0348854D01*
X0060577Y0349051D01*
X0060788Y0349243D01*
X0061004Y0349429D01*
X0061224Y0349611D01*
X0061449Y0349787D01*
X0061678Y0349957D01*
X0061911Y0350122D01*
X0062147Y0350282D01*
X0062388Y0350435D01*
X0062632Y0350583D01*
X0062880Y0350724D01*
X0063131Y0350860D01*
X0063385Y0350990D01*
X0063643Y0351113D01*
X0063903Y0351230D01*
X0064166Y0351341D01*
X0064432Y0351445D01*
X0064700Y0351543D01*
X0064970Y0351635D01*
X0065243Y0351720D01*
X0065517Y0351798D01*
X0065793Y0351870D01*
X0066071Y0351935D01*
X0066351Y0351993D01*
X0066632Y0352044D01*
X0066913Y0352089D01*
X0067196Y0352127D01*
X0067480Y0352158D01*
X0067764Y0352182D01*
X0068049Y0352199D01*
X0068335Y0352210D01*
X0068620Y0352213D01*
X0083777Y0352213D01*
X0082793Y0354181D01*
X0114289Y0354181D01*
X0113305Y0352213D01*
X0205431Y0352213D01*
X0204446Y0354181D01*
X0235943Y0354181D01*
X0234958Y0352213D01*
X0255037Y0352213D01*
X0254053Y0354181D01*
X0285549Y0354181D01*
X0284565Y0352213D01*
X0300903Y0352213D01*
X0301188Y0352210D01*
X0301474Y0352199D01*
X0301759Y0352182D01*
X0302043Y0352158D01*
X0302327Y0352127D01*
X0302610Y0352089D01*
X0302891Y0352044D01*
X0303172Y0351993D01*
X0303452Y0351935D01*
X0303730Y0351870D01*
X0304006Y0351798D01*
X0304280Y0351720D01*
X0304553Y0351635D01*
X0304823Y0351543D01*
X0305091Y0351445D01*
X0305357Y0351341D01*
X0305620Y0351230D01*
X0305880Y0351113D01*
X0306138Y0350990D01*
X0306392Y0350860D01*
X0306643Y0350724D01*
X0306891Y0350583D01*
X0307135Y0350435D01*
X0307376Y0350282D01*
X0307612Y0350122D01*
X0307845Y0349957D01*
X0308074Y0349787D01*
X0308299Y0349611D01*
X0308519Y0349429D01*
X0308735Y0349243D01*
X0308946Y0349051D01*
X0309153Y0348854D01*
X0309355Y0348652D01*
X0309552Y0348445D01*
X0309744Y0348234D01*
X0309930Y0348018D01*
X0310112Y0347798D01*
X0310288Y0347573D01*
X0310458Y0347344D01*
X0310623Y0347111D01*
X0310783Y0346875D01*
X0310936Y0346634D01*
X0311084Y0346390D01*
X0311225Y0346142D01*
X0311361Y0345891D01*
X0311491Y0345637D01*
X0311614Y0345379D01*
X0311731Y0345119D01*
X0311842Y0344856D01*
X0311946Y0344590D01*
X0312044Y0344322D01*
X0312136Y0344052D01*
X0312221Y0343779D01*
X0312299Y0343505D01*
X0312371Y0343229D01*
X0312436Y0342951D01*
X0312494Y0342671D01*
X0312545Y0342390D01*
X0312590Y0342109D01*
X0312628Y0341826D01*
X0312659Y0341542D01*
X0312683Y0341258D01*
X0312700Y0340973D01*
X0312711Y0340687D01*
X0312714Y0340402D01*
X0312714Y0245913D01*
X0312711Y0245628D01*
X0312700Y0245342D01*
X0312683Y0245057D01*
X0312659Y0244773D01*
X0312628Y0244489D01*
X0312590Y0244206D01*
X0312545Y0243925D01*
X0312494Y0243644D01*
X0312436Y0243364D01*
X0312371Y0243086D01*
X0312299Y0242810D01*
X0312221Y0242536D01*
X0312136Y0242263D01*
X0312044Y0241993D01*
X0311946Y0241725D01*
X0311842Y0241459D01*
X0311731Y0241196D01*
X0311614Y0240936D01*
X0311491Y0240678D01*
X0311361Y0240424D01*
X0311225Y0240173D01*
X0311084Y0239925D01*
X0310936Y0239681D01*
X0310783Y0239440D01*
X0310623Y0239204D01*
X0310458Y0238971D01*
X0310288Y0238742D01*
X0310112Y0238517D01*
X0309930Y0238297D01*
X0309744Y0238081D01*
X0309552Y0237870D01*
X0309355Y0237663D01*
X0309153Y0237461D01*
X0308946Y0237264D01*
X0308735Y0237072D01*
X0308519Y0236886D01*
X0308299Y0236704D01*
X0308074Y0236528D01*
X0307845Y0236358D01*
X0307612Y0236193D01*
X0307376Y0236033D01*
X0307135Y0235880D01*
X0306891Y0235732D01*
X0306643Y0235591D01*
X0306392Y0235455D01*
X0306138Y0235325D01*
X0305880Y0235202D01*
X0305620Y0235085D01*
X0305357Y0234974D01*
X0305091Y0234870D01*
X0304823Y0234772D01*
X0304553Y0234680D01*
X0304280Y0234595D01*
X0304006Y0234517D01*
X0303730Y0234445D01*
X0303452Y0234380D01*
X0303172Y0234322D01*
X0302891Y0234271D01*
X0302610Y0234226D01*
X0302327Y0234188D01*
X0302043Y0234157D01*
X0301759Y0234133D01*
X0301474Y0234116D01*
X0301188Y0234105D01*
X0300903Y0234102D01*
X0094761Y0257882D02*
X0091011Y0257882D01*
X0091011Y0259132D01*
X0088511Y0259132D01*
X0088511Y0257882D01*
X0091011Y0257882D01*
X0088511Y0257882D02*
X0084761Y0257882D01*
X0084761Y0247882D01*
D62*
X0089593Y0260332D02*
X0091995Y0260332D01*
X0090794Y0260332D02*
X0090794Y0263935D01*
X0091995Y0262734D01*
D63*
X0058994Y0227134D02*
X0161356Y0227134D01*
X0161356Y0160205D01*
X0058994Y0160205D01*
X0058994Y0227134D01*
D64*
X0104005Y0128388D02*
X0139686Y0145026D01*
X0144918Y0143122D01*
X0146582Y0139554D01*
X0151573Y0128849D02*
X0154901Y0121713D01*
X0159893Y0111009D02*
X0161556Y0107440D01*
X0159652Y0102208D01*
X0123971Y0085570D01*
X0118739Y0087474D01*
X0117075Y0091042D01*
X0112083Y0101747D02*
X0108756Y0108883D01*
X0103764Y0119587D02*
X0102100Y0123156D01*
X0104005Y0128388D01*
X0118048Y0115298D02*
X0118052Y0115636D01*
X0118065Y0115974D01*
X0118085Y0116312D01*
X0118114Y0116649D01*
X0118152Y0116985D01*
X0118197Y0117320D01*
X0118251Y0117654D01*
X0118313Y0117986D01*
X0118383Y0118317D01*
X0118461Y0118646D01*
X0118547Y0118973D01*
X0118641Y0119298D01*
X0118744Y0119621D01*
X0118854Y0119940D01*
X0118971Y0120257D01*
X0119097Y0120571D01*
X0119230Y0120882D01*
X0119371Y0121190D01*
X0119519Y0121494D01*
X0119675Y0121794D01*
X0119838Y0122090D01*
X0120008Y0122382D01*
X0120186Y0122670D01*
X0120370Y0122954D01*
X0120562Y0123233D01*
X0120760Y0123507D01*
X0120965Y0123776D01*
X0121176Y0124040D01*
X0121394Y0124299D01*
X0121618Y0124552D01*
X0121848Y0124800D01*
X0122084Y0125042D01*
X0122326Y0125278D01*
X0122574Y0125508D01*
X0122827Y0125732D01*
X0123086Y0125950D01*
X0123350Y0126161D01*
X0123619Y0126366D01*
X0123893Y0126564D01*
X0124172Y0126756D01*
X0124456Y0126940D01*
X0124744Y0127118D01*
X0125036Y0127288D01*
X0125332Y0127451D01*
X0125632Y0127607D01*
X0125936Y0127755D01*
X0126244Y0127896D01*
X0126555Y0128029D01*
X0126869Y0128155D01*
X0127186Y0128272D01*
X0127505Y0128382D01*
X0127828Y0128485D01*
X0128153Y0128579D01*
X0128480Y0128665D01*
X0128809Y0128743D01*
X0129140Y0128813D01*
X0129472Y0128875D01*
X0129806Y0128929D01*
X0130141Y0128974D01*
X0130477Y0129012D01*
X0130814Y0129041D01*
X0131152Y0129061D01*
X0131490Y0129074D01*
X0131828Y0129078D01*
X0132166Y0129074D01*
X0132504Y0129061D01*
X0132842Y0129041D01*
X0133179Y0129012D01*
X0133515Y0128974D01*
X0133850Y0128929D01*
X0134184Y0128875D01*
X0134516Y0128813D01*
X0134847Y0128743D01*
X0135176Y0128665D01*
X0135503Y0128579D01*
X0135828Y0128485D01*
X0136151Y0128382D01*
X0136470Y0128272D01*
X0136787Y0128155D01*
X0137101Y0128029D01*
X0137412Y0127896D01*
X0137720Y0127755D01*
X0138024Y0127607D01*
X0138324Y0127451D01*
X0138620Y0127288D01*
X0138912Y0127118D01*
X0139200Y0126940D01*
X0139484Y0126756D01*
X0139763Y0126564D01*
X0140037Y0126366D01*
X0140306Y0126161D01*
X0140570Y0125950D01*
X0140829Y0125732D01*
X0141082Y0125508D01*
X0141330Y0125278D01*
X0141572Y0125042D01*
X0141808Y0124800D01*
X0142038Y0124552D01*
X0142262Y0124299D01*
X0142480Y0124040D01*
X0142691Y0123776D01*
X0142896Y0123507D01*
X0143094Y0123233D01*
X0143286Y0122954D01*
X0143470Y0122670D01*
X0143648Y0122382D01*
X0143818Y0122090D01*
X0143981Y0121794D01*
X0144137Y0121494D01*
X0144285Y0121190D01*
X0144426Y0120882D01*
X0144559Y0120571D01*
X0144685Y0120257D01*
X0144802Y0119940D01*
X0144912Y0119621D01*
X0145015Y0119298D01*
X0145109Y0118973D01*
X0145195Y0118646D01*
X0145273Y0118317D01*
X0145343Y0117986D01*
X0145405Y0117654D01*
X0145459Y0117320D01*
X0145504Y0116985D01*
X0145542Y0116649D01*
X0145571Y0116312D01*
X0145591Y0115974D01*
X0145604Y0115636D01*
X0145608Y0115298D01*
X0145604Y0114960D01*
X0145591Y0114622D01*
X0145571Y0114284D01*
X0145542Y0113947D01*
X0145504Y0113611D01*
X0145459Y0113276D01*
X0145405Y0112942D01*
X0145343Y0112610D01*
X0145273Y0112279D01*
X0145195Y0111950D01*
X0145109Y0111623D01*
X0145015Y0111298D01*
X0144912Y0110975D01*
X0144802Y0110656D01*
X0144685Y0110339D01*
X0144559Y0110025D01*
X0144426Y0109714D01*
X0144285Y0109406D01*
X0144137Y0109102D01*
X0143981Y0108802D01*
X0143818Y0108506D01*
X0143648Y0108214D01*
X0143470Y0107926D01*
X0143286Y0107642D01*
X0143094Y0107363D01*
X0142896Y0107089D01*
X0142691Y0106820D01*
X0142480Y0106556D01*
X0142262Y0106297D01*
X0142038Y0106044D01*
X0141808Y0105796D01*
X0141572Y0105554D01*
X0141330Y0105318D01*
X0141082Y0105088D01*
X0140829Y0104864D01*
X0140570Y0104646D01*
X0140306Y0104435D01*
X0140037Y0104230D01*
X0139763Y0104032D01*
X0139484Y0103840D01*
X0139200Y0103656D01*
X0138912Y0103478D01*
X0138620Y0103308D01*
X0138324Y0103145D01*
X0138024Y0102989D01*
X0137720Y0102841D01*
X0137412Y0102700D01*
X0137101Y0102567D01*
X0136787Y0102441D01*
X0136470Y0102324D01*
X0136151Y0102214D01*
X0135828Y0102111D01*
X0135503Y0102017D01*
X0135176Y0101931D01*
X0134847Y0101853D01*
X0134516Y0101783D01*
X0134184Y0101721D01*
X0133850Y0101667D01*
X0133515Y0101622D01*
X0133179Y0101584D01*
X0132842Y0101555D01*
X0132504Y0101535D01*
X0132166Y0101522D01*
X0131828Y0101518D01*
X0131490Y0101522D01*
X0131152Y0101535D01*
X0130814Y0101555D01*
X0130477Y0101584D01*
X0130141Y0101622D01*
X0129806Y0101667D01*
X0129472Y0101721D01*
X0129140Y0101783D01*
X0128809Y0101853D01*
X0128480Y0101931D01*
X0128153Y0102017D01*
X0127828Y0102111D01*
X0127505Y0102214D01*
X0127186Y0102324D01*
X0126869Y0102441D01*
X0126555Y0102567D01*
X0126244Y0102700D01*
X0125936Y0102841D01*
X0125632Y0102989D01*
X0125332Y0103145D01*
X0125036Y0103308D01*
X0124744Y0103478D01*
X0124456Y0103656D01*
X0124172Y0103840D01*
X0123893Y0104032D01*
X0123619Y0104230D01*
X0123350Y0104435D01*
X0123086Y0104646D01*
X0122827Y0104864D01*
X0122574Y0105088D01*
X0122326Y0105318D01*
X0122084Y0105554D01*
X0121848Y0105796D01*
X0121618Y0106044D01*
X0121394Y0106297D01*
X0121176Y0106556D01*
X0120965Y0106820D01*
X0120760Y0107089D01*
X0120562Y0107363D01*
X0120370Y0107642D01*
X0120186Y0107926D01*
X0120008Y0108214D01*
X0119838Y0108506D01*
X0119675Y0108802D01*
X0119519Y0109102D01*
X0119371Y0109406D01*
X0119230Y0109714D01*
X0119097Y0110025D01*
X0118971Y0110339D01*
X0118854Y0110656D01*
X0118744Y0110975D01*
X0118641Y0111298D01*
X0118547Y0111623D01*
X0118461Y0111950D01*
X0118383Y0112279D01*
X0118313Y0112610D01*
X0118251Y0112942D01*
X0118197Y0113276D01*
X0118152Y0113611D01*
X0118114Y0113947D01*
X0118085Y0114284D01*
X0118065Y0114622D01*
X0118052Y0114960D01*
X0118048Y0115298D01*
X0125330Y0074128D02*
X0123426Y0068896D01*
X0125090Y0065328D01*
X0125330Y0074128D02*
X0161011Y0090766D01*
X0166243Y0088862D01*
X0167907Y0085294D01*
X0172899Y0074589D02*
X0176226Y0067453D01*
X0181218Y0056749D02*
X0182882Y0053181D01*
X0180978Y0047949D01*
X0145296Y0031310D01*
X0140064Y0033214D01*
X0138400Y0036782D01*
X0133409Y0047487D02*
X0130081Y0054623D01*
X0139374Y0061038D02*
X0139378Y0061376D01*
X0139391Y0061714D01*
X0139411Y0062052D01*
X0139440Y0062389D01*
X0139478Y0062725D01*
X0139523Y0063060D01*
X0139577Y0063394D01*
X0139639Y0063726D01*
X0139709Y0064057D01*
X0139787Y0064386D01*
X0139873Y0064713D01*
X0139967Y0065038D01*
X0140070Y0065361D01*
X0140180Y0065680D01*
X0140297Y0065997D01*
X0140423Y0066311D01*
X0140556Y0066622D01*
X0140697Y0066930D01*
X0140845Y0067234D01*
X0141001Y0067534D01*
X0141164Y0067830D01*
X0141334Y0068122D01*
X0141512Y0068410D01*
X0141696Y0068694D01*
X0141888Y0068973D01*
X0142086Y0069247D01*
X0142291Y0069516D01*
X0142502Y0069780D01*
X0142720Y0070039D01*
X0142944Y0070292D01*
X0143174Y0070540D01*
X0143410Y0070782D01*
X0143652Y0071018D01*
X0143900Y0071248D01*
X0144153Y0071472D01*
X0144412Y0071690D01*
X0144676Y0071901D01*
X0144945Y0072106D01*
X0145219Y0072304D01*
X0145498Y0072496D01*
X0145782Y0072680D01*
X0146070Y0072858D01*
X0146362Y0073028D01*
X0146658Y0073191D01*
X0146958Y0073347D01*
X0147262Y0073495D01*
X0147570Y0073636D01*
X0147881Y0073769D01*
X0148195Y0073895D01*
X0148512Y0074012D01*
X0148831Y0074122D01*
X0149154Y0074225D01*
X0149479Y0074319D01*
X0149806Y0074405D01*
X0150135Y0074483D01*
X0150466Y0074553D01*
X0150798Y0074615D01*
X0151132Y0074669D01*
X0151467Y0074714D01*
X0151803Y0074752D01*
X0152140Y0074781D01*
X0152478Y0074801D01*
X0152816Y0074814D01*
X0153154Y0074818D01*
X0153492Y0074814D01*
X0153830Y0074801D01*
X0154168Y0074781D01*
X0154505Y0074752D01*
X0154841Y0074714D01*
X0155176Y0074669D01*
X0155510Y0074615D01*
X0155842Y0074553D01*
X0156173Y0074483D01*
X0156502Y0074405D01*
X0156829Y0074319D01*
X0157154Y0074225D01*
X0157477Y0074122D01*
X0157796Y0074012D01*
X0158113Y0073895D01*
X0158427Y0073769D01*
X0158738Y0073636D01*
X0159046Y0073495D01*
X0159350Y0073347D01*
X0159650Y0073191D01*
X0159946Y0073028D01*
X0160238Y0072858D01*
X0160526Y0072680D01*
X0160810Y0072496D01*
X0161089Y0072304D01*
X0161363Y0072106D01*
X0161632Y0071901D01*
X0161896Y0071690D01*
X0162155Y0071472D01*
X0162408Y0071248D01*
X0162656Y0071018D01*
X0162898Y0070782D01*
X0163134Y0070540D01*
X0163364Y0070292D01*
X0163588Y0070039D01*
X0163806Y0069780D01*
X0164017Y0069516D01*
X0164222Y0069247D01*
X0164420Y0068973D01*
X0164612Y0068694D01*
X0164796Y0068410D01*
X0164974Y0068122D01*
X0165144Y0067830D01*
X0165307Y0067534D01*
X0165463Y0067234D01*
X0165611Y0066930D01*
X0165752Y0066622D01*
X0165885Y0066311D01*
X0166011Y0065997D01*
X0166128Y0065680D01*
X0166238Y0065361D01*
X0166341Y0065038D01*
X0166435Y0064713D01*
X0166521Y0064386D01*
X0166599Y0064057D01*
X0166669Y0063726D01*
X0166731Y0063394D01*
X0166785Y0063060D01*
X0166830Y0062725D01*
X0166868Y0062389D01*
X0166897Y0062052D01*
X0166917Y0061714D01*
X0166930Y0061376D01*
X0166934Y0061038D01*
X0166930Y0060700D01*
X0166917Y0060362D01*
X0166897Y0060024D01*
X0166868Y0059687D01*
X0166830Y0059351D01*
X0166785Y0059016D01*
X0166731Y0058682D01*
X0166669Y0058350D01*
X0166599Y0058019D01*
X0166521Y0057690D01*
X0166435Y0057363D01*
X0166341Y0057038D01*
X0166238Y0056715D01*
X0166128Y0056396D01*
X0166011Y0056079D01*
X0165885Y0055765D01*
X0165752Y0055454D01*
X0165611Y0055146D01*
X0165463Y0054842D01*
X0165307Y0054542D01*
X0165144Y0054246D01*
X0164974Y0053954D01*
X0164796Y0053666D01*
X0164612Y0053382D01*
X0164420Y0053103D01*
X0164222Y0052829D01*
X0164017Y0052560D01*
X0163806Y0052296D01*
X0163588Y0052037D01*
X0163364Y0051784D01*
X0163134Y0051536D01*
X0162898Y0051294D01*
X0162656Y0051058D01*
X0162408Y0050828D01*
X0162155Y0050604D01*
X0161896Y0050386D01*
X0161632Y0050175D01*
X0161363Y0049970D01*
X0161089Y0049772D01*
X0160810Y0049580D01*
X0160526Y0049396D01*
X0160238Y0049218D01*
X0159946Y0049048D01*
X0159650Y0048885D01*
X0159350Y0048729D01*
X0159046Y0048581D01*
X0158738Y0048440D01*
X0158427Y0048307D01*
X0158113Y0048181D01*
X0157796Y0048064D01*
X0157477Y0047954D01*
X0157154Y0047851D01*
X0156829Y0047757D01*
X0156502Y0047671D01*
X0156173Y0047593D01*
X0155842Y0047523D01*
X0155510Y0047461D01*
X0155176Y0047407D01*
X0154841Y0047362D01*
X0154505Y0047324D01*
X0154168Y0047295D01*
X0153830Y0047275D01*
X0153492Y0047262D01*
X0153154Y0047258D01*
X0152816Y0047262D01*
X0152478Y0047275D01*
X0152140Y0047295D01*
X0151803Y0047324D01*
X0151467Y0047362D01*
X0151132Y0047407D01*
X0150798Y0047461D01*
X0150466Y0047523D01*
X0150135Y0047593D01*
X0149806Y0047671D01*
X0149479Y0047757D01*
X0149154Y0047851D01*
X0148831Y0047954D01*
X0148512Y0048064D01*
X0148195Y0048181D01*
X0147881Y0048307D01*
X0147570Y0048440D01*
X0147262Y0048581D01*
X0146958Y0048729D01*
X0146658Y0048885D01*
X0146362Y0049048D01*
X0146070Y0049218D01*
X0145782Y0049396D01*
X0145498Y0049580D01*
X0145219Y0049772D01*
X0144945Y0049970D01*
X0144676Y0050175D01*
X0144412Y0050386D01*
X0144153Y0050604D01*
X0143900Y0050828D01*
X0143652Y0051058D01*
X0143410Y0051294D01*
X0143174Y0051536D01*
X0142944Y0051784D01*
X0142720Y0052037D01*
X0142502Y0052296D01*
X0142291Y0052560D01*
X0142086Y0052829D01*
X0141888Y0053103D01*
X0141696Y0053382D01*
X0141512Y0053666D01*
X0141334Y0053954D01*
X0141164Y0054246D01*
X0141001Y0054542D01*
X0140845Y0054842D01*
X0140697Y0055146D01*
X0140556Y0055454D01*
X0140423Y0055765D01*
X0140297Y0056079D01*
X0140180Y0056396D01*
X0140070Y0056715D01*
X0139967Y0057038D01*
X0139873Y0057363D01*
X0139787Y0057690D01*
X0139709Y0058019D01*
X0139639Y0058350D01*
X0139577Y0058682D01*
X0139523Y0059016D01*
X0139478Y0059351D01*
X0139440Y0059687D01*
X0139411Y0060024D01*
X0139391Y0060362D01*
X0139378Y0060700D01*
X0139374Y0061038D01*
X0206759Y0053181D02*
X0208663Y0047949D01*
X0244345Y0031310D01*
X0249577Y0033214D01*
X0251241Y0036782D01*
X0256232Y0047487D02*
X0259560Y0054623D01*
X0264551Y0065328D02*
X0266215Y0068896D01*
X0264311Y0074128D01*
X0228630Y0090766D01*
X0223398Y0088862D01*
X0221734Y0085294D01*
X0216742Y0074589D02*
X0213415Y0067453D01*
X0208423Y0056749D02*
X0206759Y0053181D01*
X0222707Y0061038D02*
X0222711Y0061376D01*
X0222724Y0061714D01*
X0222744Y0062052D01*
X0222773Y0062389D01*
X0222811Y0062725D01*
X0222856Y0063060D01*
X0222910Y0063394D01*
X0222972Y0063726D01*
X0223042Y0064057D01*
X0223120Y0064386D01*
X0223206Y0064713D01*
X0223300Y0065038D01*
X0223403Y0065361D01*
X0223513Y0065680D01*
X0223630Y0065997D01*
X0223756Y0066311D01*
X0223889Y0066622D01*
X0224030Y0066930D01*
X0224178Y0067234D01*
X0224334Y0067534D01*
X0224497Y0067830D01*
X0224667Y0068122D01*
X0224845Y0068410D01*
X0225029Y0068694D01*
X0225221Y0068973D01*
X0225419Y0069247D01*
X0225624Y0069516D01*
X0225835Y0069780D01*
X0226053Y0070039D01*
X0226277Y0070292D01*
X0226507Y0070540D01*
X0226743Y0070782D01*
X0226985Y0071018D01*
X0227233Y0071248D01*
X0227486Y0071472D01*
X0227745Y0071690D01*
X0228009Y0071901D01*
X0228278Y0072106D01*
X0228552Y0072304D01*
X0228831Y0072496D01*
X0229115Y0072680D01*
X0229403Y0072858D01*
X0229695Y0073028D01*
X0229991Y0073191D01*
X0230291Y0073347D01*
X0230595Y0073495D01*
X0230903Y0073636D01*
X0231214Y0073769D01*
X0231528Y0073895D01*
X0231845Y0074012D01*
X0232164Y0074122D01*
X0232487Y0074225D01*
X0232812Y0074319D01*
X0233139Y0074405D01*
X0233468Y0074483D01*
X0233799Y0074553D01*
X0234131Y0074615D01*
X0234465Y0074669D01*
X0234800Y0074714D01*
X0235136Y0074752D01*
X0235473Y0074781D01*
X0235811Y0074801D01*
X0236149Y0074814D01*
X0236487Y0074818D01*
X0236825Y0074814D01*
X0237163Y0074801D01*
X0237501Y0074781D01*
X0237838Y0074752D01*
X0238174Y0074714D01*
X0238509Y0074669D01*
X0238843Y0074615D01*
X0239175Y0074553D01*
X0239506Y0074483D01*
X0239835Y0074405D01*
X0240162Y0074319D01*
X0240487Y0074225D01*
X0240810Y0074122D01*
X0241129Y0074012D01*
X0241446Y0073895D01*
X0241760Y0073769D01*
X0242071Y0073636D01*
X0242379Y0073495D01*
X0242683Y0073347D01*
X0242983Y0073191D01*
X0243279Y0073028D01*
X0243571Y0072858D01*
X0243859Y0072680D01*
X0244143Y0072496D01*
X0244422Y0072304D01*
X0244696Y0072106D01*
X0244965Y0071901D01*
X0245229Y0071690D01*
X0245488Y0071472D01*
X0245741Y0071248D01*
X0245989Y0071018D01*
X0246231Y0070782D01*
X0246467Y0070540D01*
X0246697Y0070292D01*
X0246921Y0070039D01*
X0247139Y0069780D01*
X0247350Y0069516D01*
X0247555Y0069247D01*
X0247753Y0068973D01*
X0247945Y0068694D01*
X0248129Y0068410D01*
X0248307Y0068122D01*
X0248477Y0067830D01*
X0248640Y0067534D01*
X0248796Y0067234D01*
X0248944Y0066930D01*
X0249085Y0066622D01*
X0249218Y0066311D01*
X0249344Y0065997D01*
X0249461Y0065680D01*
X0249571Y0065361D01*
X0249674Y0065038D01*
X0249768Y0064713D01*
X0249854Y0064386D01*
X0249932Y0064057D01*
X0250002Y0063726D01*
X0250064Y0063394D01*
X0250118Y0063060D01*
X0250163Y0062725D01*
X0250201Y0062389D01*
X0250230Y0062052D01*
X0250250Y0061714D01*
X0250263Y0061376D01*
X0250267Y0061038D01*
X0250263Y0060700D01*
X0250250Y0060362D01*
X0250230Y0060024D01*
X0250201Y0059687D01*
X0250163Y0059351D01*
X0250118Y0059016D01*
X0250064Y0058682D01*
X0250002Y0058350D01*
X0249932Y0058019D01*
X0249854Y0057690D01*
X0249768Y0057363D01*
X0249674Y0057038D01*
X0249571Y0056715D01*
X0249461Y0056396D01*
X0249344Y0056079D01*
X0249218Y0055765D01*
X0249085Y0055454D01*
X0248944Y0055146D01*
X0248796Y0054842D01*
X0248640Y0054542D01*
X0248477Y0054246D01*
X0248307Y0053954D01*
X0248129Y0053666D01*
X0247945Y0053382D01*
X0247753Y0053103D01*
X0247555Y0052829D01*
X0247350Y0052560D01*
X0247139Y0052296D01*
X0246921Y0052037D01*
X0246697Y0051784D01*
X0246467Y0051536D01*
X0246231Y0051294D01*
X0245989Y0051058D01*
X0245741Y0050828D01*
X0245488Y0050604D01*
X0245229Y0050386D01*
X0244965Y0050175D01*
X0244696Y0049970D01*
X0244422Y0049772D01*
X0244143Y0049580D01*
X0243859Y0049396D01*
X0243571Y0049218D01*
X0243279Y0049048D01*
X0242983Y0048885D01*
X0242683Y0048729D01*
X0242379Y0048581D01*
X0242071Y0048440D01*
X0241760Y0048307D01*
X0241446Y0048181D01*
X0241129Y0048064D01*
X0240810Y0047954D01*
X0240487Y0047851D01*
X0240162Y0047757D01*
X0239835Y0047671D01*
X0239506Y0047593D01*
X0239175Y0047523D01*
X0238843Y0047461D01*
X0238509Y0047407D01*
X0238174Y0047362D01*
X0237838Y0047324D01*
X0237501Y0047295D01*
X0237163Y0047275D01*
X0236825Y0047262D01*
X0236487Y0047258D01*
X0236149Y0047262D01*
X0235811Y0047275D01*
X0235473Y0047295D01*
X0235136Y0047324D01*
X0234800Y0047362D01*
X0234465Y0047407D01*
X0234131Y0047461D01*
X0233799Y0047523D01*
X0233468Y0047593D01*
X0233139Y0047671D01*
X0232812Y0047757D01*
X0232487Y0047851D01*
X0232164Y0047954D01*
X0231845Y0048064D01*
X0231528Y0048181D01*
X0231214Y0048307D01*
X0230903Y0048440D01*
X0230595Y0048581D01*
X0230291Y0048729D01*
X0229991Y0048885D01*
X0229695Y0049048D01*
X0229403Y0049218D01*
X0229115Y0049396D01*
X0228831Y0049580D01*
X0228552Y0049772D01*
X0228278Y0049970D01*
X0228009Y0050175D01*
X0227745Y0050386D01*
X0227486Y0050604D01*
X0227233Y0050828D01*
X0226985Y0051058D01*
X0226743Y0051294D01*
X0226507Y0051536D01*
X0226277Y0051784D01*
X0226053Y0052037D01*
X0225835Y0052296D01*
X0225624Y0052560D01*
X0225419Y0052829D01*
X0225221Y0053103D01*
X0225029Y0053382D01*
X0224845Y0053666D01*
X0224667Y0053954D01*
X0224497Y0054246D01*
X0224334Y0054542D01*
X0224178Y0054842D01*
X0224030Y0055146D01*
X0223889Y0055454D01*
X0223756Y0055765D01*
X0223630Y0056079D01*
X0223513Y0056396D01*
X0223403Y0056715D01*
X0223300Y0057038D01*
X0223206Y0057363D01*
X0223120Y0057690D01*
X0223042Y0058019D01*
X0222972Y0058350D01*
X0222910Y0058682D01*
X0222856Y0059016D01*
X0222811Y0059351D01*
X0222773Y0059687D01*
X0222744Y0060024D01*
X0222724Y0060362D01*
X0222711Y0060700D01*
X0222707Y0061038D01*
X0229989Y0102208D02*
X0228085Y0107440D01*
X0229748Y0111009D01*
X0229989Y0102208D02*
X0265670Y0085570D01*
X0270902Y0087474D01*
X0272566Y0091042D01*
X0277558Y0101747D02*
X0280885Y0108883D01*
X0285877Y0119587D02*
X0287541Y0123156D01*
X0285636Y0128388D01*
X0249955Y0145026D01*
X0244723Y0143122D01*
X0243059Y0139554D01*
X0238068Y0128849D02*
X0234740Y0121713D01*
X0244033Y0115298D02*
X0244037Y0115636D01*
X0244050Y0115974D01*
X0244070Y0116312D01*
X0244099Y0116649D01*
X0244137Y0116985D01*
X0244182Y0117320D01*
X0244236Y0117654D01*
X0244298Y0117986D01*
X0244368Y0118317D01*
X0244446Y0118646D01*
X0244532Y0118973D01*
X0244626Y0119298D01*
X0244729Y0119621D01*
X0244839Y0119940D01*
X0244956Y0120257D01*
X0245082Y0120571D01*
X0245215Y0120882D01*
X0245356Y0121190D01*
X0245504Y0121494D01*
X0245660Y0121794D01*
X0245823Y0122090D01*
X0245993Y0122382D01*
X0246171Y0122670D01*
X0246355Y0122954D01*
X0246547Y0123233D01*
X0246745Y0123507D01*
X0246950Y0123776D01*
X0247161Y0124040D01*
X0247379Y0124299D01*
X0247603Y0124552D01*
X0247833Y0124800D01*
X0248069Y0125042D01*
X0248311Y0125278D01*
X0248559Y0125508D01*
X0248812Y0125732D01*
X0249071Y0125950D01*
X0249335Y0126161D01*
X0249604Y0126366D01*
X0249878Y0126564D01*
X0250157Y0126756D01*
X0250441Y0126940D01*
X0250729Y0127118D01*
X0251021Y0127288D01*
X0251317Y0127451D01*
X0251617Y0127607D01*
X0251921Y0127755D01*
X0252229Y0127896D01*
X0252540Y0128029D01*
X0252854Y0128155D01*
X0253171Y0128272D01*
X0253490Y0128382D01*
X0253813Y0128485D01*
X0254138Y0128579D01*
X0254465Y0128665D01*
X0254794Y0128743D01*
X0255125Y0128813D01*
X0255457Y0128875D01*
X0255791Y0128929D01*
X0256126Y0128974D01*
X0256462Y0129012D01*
X0256799Y0129041D01*
X0257137Y0129061D01*
X0257475Y0129074D01*
X0257813Y0129078D01*
X0258151Y0129074D01*
X0258489Y0129061D01*
X0258827Y0129041D01*
X0259164Y0129012D01*
X0259500Y0128974D01*
X0259835Y0128929D01*
X0260169Y0128875D01*
X0260501Y0128813D01*
X0260832Y0128743D01*
X0261161Y0128665D01*
X0261488Y0128579D01*
X0261813Y0128485D01*
X0262136Y0128382D01*
X0262455Y0128272D01*
X0262772Y0128155D01*
X0263086Y0128029D01*
X0263397Y0127896D01*
X0263705Y0127755D01*
X0264009Y0127607D01*
X0264309Y0127451D01*
X0264605Y0127288D01*
X0264897Y0127118D01*
X0265185Y0126940D01*
X0265469Y0126756D01*
X0265748Y0126564D01*
X0266022Y0126366D01*
X0266291Y0126161D01*
X0266555Y0125950D01*
X0266814Y0125732D01*
X0267067Y0125508D01*
X0267315Y0125278D01*
X0267557Y0125042D01*
X0267793Y0124800D01*
X0268023Y0124552D01*
X0268247Y0124299D01*
X0268465Y0124040D01*
X0268676Y0123776D01*
X0268881Y0123507D01*
X0269079Y0123233D01*
X0269271Y0122954D01*
X0269455Y0122670D01*
X0269633Y0122382D01*
X0269803Y0122090D01*
X0269966Y0121794D01*
X0270122Y0121494D01*
X0270270Y0121190D01*
X0270411Y0120882D01*
X0270544Y0120571D01*
X0270670Y0120257D01*
X0270787Y0119940D01*
X0270897Y0119621D01*
X0271000Y0119298D01*
X0271094Y0118973D01*
X0271180Y0118646D01*
X0271258Y0118317D01*
X0271328Y0117986D01*
X0271390Y0117654D01*
X0271444Y0117320D01*
X0271489Y0116985D01*
X0271527Y0116649D01*
X0271556Y0116312D01*
X0271576Y0115974D01*
X0271589Y0115636D01*
X0271593Y0115298D01*
X0271589Y0114960D01*
X0271576Y0114622D01*
X0271556Y0114284D01*
X0271527Y0113947D01*
X0271489Y0113611D01*
X0271444Y0113276D01*
X0271390Y0112942D01*
X0271328Y0112610D01*
X0271258Y0112279D01*
X0271180Y0111950D01*
X0271094Y0111623D01*
X0271000Y0111298D01*
X0270897Y0110975D01*
X0270787Y0110656D01*
X0270670Y0110339D01*
X0270544Y0110025D01*
X0270411Y0109714D01*
X0270270Y0109406D01*
X0270122Y0109102D01*
X0269966Y0108802D01*
X0269803Y0108506D01*
X0269633Y0108214D01*
X0269455Y0107926D01*
X0269271Y0107642D01*
X0269079Y0107363D01*
X0268881Y0107089D01*
X0268676Y0106820D01*
X0268465Y0106556D01*
X0268247Y0106297D01*
X0268023Y0106044D01*
X0267793Y0105796D01*
X0267557Y0105554D01*
X0267315Y0105318D01*
X0267067Y0105088D01*
X0266814Y0104864D01*
X0266555Y0104646D01*
X0266291Y0104435D01*
X0266022Y0104230D01*
X0265748Y0104032D01*
X0265469Y0103840D01*
X0265185Y0103656D01*
X0264897Y0103478D01*
X0264605Y0103308D01*
X0264309Y0103145D01*
X0264009Y0102989D01*
X0263705Y0102841D01*
X0263397Y0102700D01*
X0263086Y0102567D01*
X0262772Y0102441D01*
X0262455Y0102324D01*
X0262136Y0102214D01*
X0261813Y0102111D01*
X0261488Y0102017D01*
X0261161Y0101931D01*
X0260832Y0101853D01*
X0260501Y0101783D01*
X0260169Y0101721D01*
X0259835Y0101667D01*
X0259500Y0101622D01*
X0259164Y0101584D01*
X0258827Y0101555D01*
X0258489Y0101535D01*
X0258151Y0101522D01*
X0257813Y0101518D01*
X0257475Y0101522D01*
X0257137Y0101535D01*
X0256799Y0101555D01*
X0256462Y0101584D01*
X0256126Y0101622D01*
X0255791Y0101667D01*
X0255457Y0101721D01*
X0255125Y0101783D01*
X0254794Y0101853D01*
X0254465Y0101931D01*
X0254138Y0102017D01*
X0253813Y0102111D01*
X0253490Y0102214D01*
X0253171Y0102324D01*
X0252854Y0102441D01*
X0252540Y0102567D01*
X0252229Y0102700D01*
X0251921Y0102841D01*
X0251617Y0102989D01*
X0251317Y0103145D01*
X0251021Y0103308D01*
X0250729Y0103478D01*
X0250441Y0103656D01*
X0250157Y0103840D01*
X0249878Y0104032D01*
X0249604Y0104230D01*
X0249335Y0104435D01*
X0249071Y0104646D01*
X0248812Y0104864D01*
X0248559Y0105088D01*
X0248311Y0105318D01*
X0248069Y0105554D01*
X0247833Y0105796D01*
X0247603Y0106044D01*
X0247379Y0106297D01*
X0247161Y0106556D01*
X0246950Y0106820D01*
X0246745Y0107089D01*
X0246547Y0107363D01*
X0246355Y0107642D01*
X0246171Y0107926D01*
X0245993Y0108214D01*
X0245823Y0108506D01*
X0245660Y0108802D01*
X0245504Y0109102D01*
X0245356Y0109406D01*
X0245215Y0109714D01*
X0245082Y0110025D01*
X0244956Y0110339D01*
X0244839Y0110656D01*
X0244729Y0110975D01*
X0244626Y0111298D01*
X0244532Y0111623D01*
X0244446Y0111950D01*
X0244368Y0112279D01*
X0244298Y0112610D01*
X0244236Y0112942D01*
X0244182Y0113276D01*
X0244137Y0113611D01*
X0244099Y0113947D01*
X0244070Y0114284D01*
X0244050Y0114622D01*
X0244037Y0114960D01*
X0244033Y0115298D01*
X0187553Y0177535D02*
X0173773Y0177535D01*
X0173773Y0180685D01*
X0183616Y0180685D01*
X0183616Y0185409D01*
X0183616Y0201157D02*
X0183616Y0205882D01*
X0173773Y0205882D01*
X0173773Y0209031D01*
X0187553Y0209031D01*
X0203301Y0201157D02*
X0203301Y0185409D01*
X0323651Y0309902D02*
X0327013Y0309902D01*
X0330950Y0312961D02*
X0330950Y0334220D01*
X0327013Y0337280D02*
X0323651Y0337280D01*
X0319714Y0329996D02*
X0319714Y0323091D01*
D65*
X0248062Y0138842D02*
X0248064Y0138911D01*
X0248070Y0138979D01*
X0248080Y0139047D01*
X0248094Y0139114D01*
X0248112Y0139181D01*
X0248133Y0139246D01*
X0248159Y0139310D01*
X0248188Y0139372D01*
X0248220Y0139432D01*
X0248256Y0139491D01*
X0248296Y0139547D01*
X0248338Y0139601D01*
X0248384Y0139652D01*
X0248433Y0139701D01*
X0248484Y0139747D01*
X0248538Y0139789D01*
X0248594Y0139829D01*
X0248652Y0139865D01*
X0248713Y0139897D01*
X0248775Y0139926D01*
X0248839Y0139952D01*
X0248904Y0139973D01*
X0248971Y0139991D01*
X0249038Y0140005D01*
X0249106Y0140015D01*
X0249174Y0140021D01*
X0249243Y0140023D01*
X0249312Y0140021D01*
X0249380Y0140015D01*
X0249448Y0140005D01*
X0249515Y0139991D01*
X0249582Y0139973D01*
X0249647Y0139952D01*
X0249711Y0139926D01*
X0249773Y0139897D01*
X0249833Y0139865D01*
X0249892Y0139829D01*
X0249948Y0139789D01*
X0250002Y0139747D01*
X0250053Y0139701D01*
X0250102Y0139652D01*
X0250148Y0139601D01*
X0250190Y0139547D01*
X0250230Y0139491D01*
X0250266Y0139432D01*
X0250298Y0139372D01*
X0250327Y0139310D01*
X0250353Y0139246D01*
X0250374Y0139181D01*
X0250392Y0139114D01*
X0250406Y0139047D01*
X0250416Y0138979D01*
X0250422Y0138911D01*
X0250424Y0138842D01*
X0250422Y0138773D01*
X0250416Y0138705D01*
X0250406Y0138637D01*
X0250392Y0138570D01*
X0250374Y0138503D01*
X0250353Y0138438D01*
X0250327Y0138374D01*
X0250298Y0138312D01*
X0250266Y0138251D01*
X0250230Y0138193D01*
X0250190Y0138137D01*
X0250148Y0138083D01*
X0250102Y0138032D01*
X0250053Y0137983D01*
X0250002Y0137937D01*
X0249948Y0137895D01*
X0249892Y0137855D01*
X0249834Y0137819D01*
X0249773Y0137787D01*
X0249711Y0137758D01*
X0249647Y0137732D01*
X0249582Y0137711D01*
X0249515Y0137693D01*
X0249448Y0137679D01*
X0249380Y0137669D01*
X0249312Y0137663D01*
X0249243Y0137661D01*
X0249174Y0137663D01*
X0249106Y0137669D01*
X0249038Y0137679D01*
X0248971Y0137693D01*
X0248904Y0137711D01*
X0248839Y0137732D01*
X0248775Y0137758D01*
X0248713Y0137787D01*
X0248652Y0137819D01*
X0248594Y0137855D01*
X0248538Y0137895D01*
X0248484Y0137937D01*
X0248433Y0137983D01*
X0248384Y0138032D01*
X0248338Y0138083D01*
X0248296Y0138137D01*
X0248256Y0138193D01*
X0248220Y0138251D01*
X0248188Y0138312D01*
X0248159Y0138374D01*
X0248133Y0138438D01*
X0248112Y0138503D01*
X0248094Y0138570D01*
X0248080Y0138637D01*
X0248070Y0138705D01*
X0248064Y0138773D01*
X0248062Y0138842D01*
X0233088Y0106729D02*
X0233090Y0106798D01*
X0233096Y0106866D01*
X0233106Y0106934D01*
X0233120Y0107001D01*
X0233138Y0107068D01*
X0233159Y0107133D01*
X0233185Y0107197D01*
X0233214Y0107259D01*
X0233246Y0107319D01*
X0233282Y0107378D01*
X0233322Y0107434D01*
X0233364Y0107488D01*
X0233410Y0107539D01*
X0233459Y0107588D01*
X0233510Y0107634D01*
X0233564Y0107676D01*
X0233620Y0107716D01*
X0233678Y0107752D01*
X0233739Y0107784D01*
X0233801Y0107813D01*
X0233865Y0107839D01*
X0233930Y0107860D01*
X0233997Y0107878D01*
X0234064Y0107892D01*
X0234132Y0107902D01*
X0234200Y0107908D01*
X0234269Y0107910D01*
X0234338Y0107908D01*
X0234406Y0107902D01*
X0234474Y0107892D01*
X0234541Y0107878D01*
X0234608Y0107860D01*
X0234673Y0107839D01*
X0234737Y0107813D01*
X0234799Y0107784D01*
X0234859Y0107752D01*
X0234918Y0107716D01*
X0234974Y0107676D01*
X0235028Y0107634D01*
X0235079Y0107588D01*
X0235128Y0107539D01*
X0235174Y0107488D01*
X0235216Y0107434D01*
X0235256Y0107378D01*
X0235292Y0107319D01*
X0235324Y0107259D01*
X0235353Y0107197D01*
X0235379Y0107133D01*
X0235400Y0107068D01*
X0235418Y0107001D01*
X0235432Y0106934D01*
X0235442Y0106866D01*
X0235448Y0106798D01*
X0235450Y0106729D01*
X0235448Y0106660D01*
X0235442Y0106592D01*
X0235432Y0106524D01*
X0235418Y0106457D01*
X0235400Y0106390D01*
X0235379Y0106325D01*
X0235353Y0106261D01*
X0235324Y0106199D01*
X0235292Y0106138D01*
X0235256Y0106080D01*
X0235216Y0106024D01*
X0235174Y0105970D01*
X0235128Y0105919D01*
X0235079Y0105870D01*
X0235028Y0105824D01*
X0234974Y0105782D01*
X0234918Y0105742D01*
X0234860Y0105706D01*
X0234799Y0105674D01*
X0234737Y0105645D01*
X0234673Y0105619D01*
X0234608Y0105598D01*
X0234541Y0105580D01*
X0234474Y0105566D01*
X0234406Y0105556D01*
X0234338Y0105550D01*
X0234269Y0105548D01*
X0234200Y0105550D01*
X0234132Y0105556D01*
X0234064Y0105566D01*
X0233997Y0105580D01*
X0233930Y0105598D01*
X0233865Y0105619D01*
X0233801Y0105645D01*
X0233739Y0105674D01*
X0233678Y0105706D01*
X0233620Y0105742D01*
X0233564Y0105782D01*
X0233510Y0105824D01*
X0233459Y0105870D01*
X0233410Y0105919D01*
X0233364Y0105970D01*
X0233322Y0106024D01*
X0233282Y0106080D01*
X0233246Y0106138D01*
X0233214Y0106199D01*
X0233185Y0106261D01*
X0233159Y0106325D01*
X0233138Y0106390D01*
X0233120Y0106457D01*
X0233106Y0106524D01*
X0233096Y0106592D01*
X0233090Y0106660D01*
X0233088Y0106729D01*
X0226737Y0084582D02*
X0226739Y0084651D01*
X0226745Y0084719D01*
X0226755Y0084787D01*
X0226769Y0084854D01*
X0226787Y0084921D01*
X0226808Y0084986D01*
X0226834Y0085050D01*
X0226863Y0085112D01*
X0226895Y0085172D01*
X0226931Y0085231D01*
X0226971Y0085287D01*
X0227013Y0085341D01*
X0227059Y0085392D01*
X0227108Y0085441D01*
X0227159Y0085487D01*
X0227213Y0085529D01*
X0227269Y0085569D01*
X0227327Y0085605D01*
X0227388Y0085637D01*
X0227450Y0085666D01*
X0227514Y0085692D01*
X0227579Y0085713D01*
X0227646Y0085731D01*
X0227713Y0085745D01*
X0227781Y0085755D01*
X0227849Y0085761D01*
X0227918Y0085763D01*
X0227987Y0085761D01*
X0228055Y0085755D01*
X0228123Y0085745D01*
X0228190Y0085731D01*
X0228257Y0085713D01*
X0228322Y0085692D01*
X0228386Y0085666D01*
X0228448Y0085637D01*
X0228508Y0085605D01*
X0228567Y0085569D01*
X0228623Y0085529D01*
X0228677Y0085487D01*
X0228728Y0085441D01*
X0228777Y0085392D01*
X0228823Y0085341D01*
X0228865Y0085287D01*
X0228905Y0085231D01*
X0228941Y0085172D01*
X0228973Y0085112D01*
X0229002Y0085050D01*
X0229028Y0084986D01*
X0229049Y0084921D01*
X0229067Y0084854D01*
X0229081Y0084787D01*
X0229091Y0084719D01*
X0229097Y0084651D01*
X0229099Y0084582D01*
X0229097Y0084513D01*
X0229091Y0084445D01*
X0229081Y0084377D01*
X0229067Y0084310D01*
X0229049Y0084243D01*
X0229028Y0084178D01*
X0229002Y0084114D01*
X0228973Y0084052D01*
X0228941Y0083991D01*
X0228905Y0083933D01*
X0228865Y0083877D01*
X0228823Y0083823D01*
X0228777Y0083772D01*
X0228728Y0083723D01*
X0228677Y0083677D01*
X0228623Y0083635D01*
X0228567Y0083595D01*
X0228509Y0083559D01*
X0228448Y0083527D01*
X0228386Y0083498D01*
X0228322Y0083472D01*
X0228257Y0083451D01*
X0228190Y0083433D01*
X0228123Y0083419D01*
X0228055Y0083409D01*
X0227987Y0083403D01*
X0227918Y0083401D01*
X0227849Y0083403D01*
X0227781Y0083409D01*
X0227713Y0083419D01*
X0227646Y0083433D01*
X0227579Y0083451D01*
X0227514Y0083472D01*
X0227450Y0083498D01*
X0227388Y0083527D01*
X0227327Y0083559D01*
X0227269Y0083595D01*
X0227213Y0083635D01*
X0227159Y0083677D01*
X0227108Y0083723D01*
X0227059Y0083772D01*
X0227013Y0083823D01*
X0226971Y0083877D01*
X0226931Y0083933D01*
X0226895Y0083991D01*
X0226863Y0084052D01*
X0226834Y0084114D01*
X0226808Y0084178D01*
X0226787Y0084243D01*
X0226769Y0084310D01*
X0226755Y0084377D01*
X0226745Y0084445D01*
X0226739Y0084513D01*
X0226737Y0084582D01*
X0211762Y0052469D02*
X0211764Y0052538D01*
X0211770Y0052606D01*
X0211780Y0052674D01*
X0211794Y0052741D01*
X0211812Y0052808D01*
X0211833Y0052873D01*
X0211859Y0052937D01*
X0211888Y0052999D01*
X0211920Y0053059D01*
X0211956Y0053118D01*
X0211996Y0053174D01*
X0212038Y0053228D01*
X0212084Y0053279D01*
X0212133Y0053328D01*
X0212184Y0053374D01*
X0212238Y0053416D01*
X0212294Y0053456D01*
X0212352Y0053492D01*
X0212413Y0053524D01*
X0212475Y0053553D01*
X0212539Y0053579D01*
X0212604Y0053600D01*
X0212671Y0053618D01*
X0212738Y0053632D01*
X0212806Y0053642D01*
X0212874Y0053648D01*
X0212943Y0053650D01*
X0213012Y0053648D01*
X0213080Y0053642D01*
X0213148Y0053632D01*
X0213215Y0053618D01*
X0213282Y0053600D01*
X0213347Y0053579D01*
X0213411Y0053553D01*
X0213473Y0053524D01*
X0213533Y0053492D01*
X0213592Y0053456D01*
X0213648Y0053416D01*
X0213702Y0053374D01*
X0213753Y0053328D01*
X0213802Y0053279D01*
X0213848Y0053228D01*
X0213890Y0053174D01*
X0213930Y0053118D01*
X0213966Y0053059D01*
X0213998Y0052999D01*
X0214027Y0052937D01*
X0214053Y0052873D01*
X0214074Y0052808D01*
X0214092Y0052741D01*
X0214106Y0052674D01*
X0214116Y0052606D01*
X0214122Y0052538D01*
X0214124Y0052469D01*
X0214122Y0052400D01*
X0214116Y0052332D01*
X0214106Y0052264D01*
X0214092Y0052197D01*
X0214074Y0052130D01*
X0214053Y0052065D01*
X0214027Y0052001D01*
X0213998Y0051939D01*
X0213966Y0051878D01*
X0213930Y0051820D01*
X0213890Y0051764D01*
X0213848Y0051710D01*
X0213802Y0051659D01*
X0213753Y0051610D01*
X0213702Y0051564D01*
X0213648Y0051522D01*
X0213592Y0051482D01*
X0213534Y0051446D01*
X0213473Y0051414D01*
X0213411Y0051385D01*
X0213347Y0051359D01*
X0213282Y0051338D01*
X0213215Y0051320D01*
X0213148Y0051306D01*
X0213080Y0051296D01*
X0213012Y0051290D01*
X0212943Y0051288D01*
X0212874Y0051290D01*
X0212806Y0051296D01*
X0212738Y0051306D01*
X0212671Y0051320D01*
X0212604Y0051338D01*
X0212539Y0051359D01*
X0212475Y0051385D01*
X0212413Y0051414D01*
X0212352Y0051446D01*
X0212294Y0051482D01*
X0212238Y0051522D01*
X0212184Y0051564D01*
X0212133Y0051610D01*
X0212084Y0051659D01*
X0212038Y0051710D01*
X0211996Y0051764D01*
X0211956Y0051820D01*
X0211920Y0051878D01*
X0211888Y0051939D01*
X0211859Y0052001D01*
X0211833Y0052065D01*
X0211812Y0052130D01*
X0211794Y0052197D01*
X0211780Y0052264D01*
X0211770Y0052332D01*
X0211764Y0052400D01*
X0211762Y0052469D01*
X0175517Y0052469D02*
X0175519Y0052538D01*
X0175525Y0052606D01*
X0175535Y0052674D01*
X0175549Y0052741D01*
X0175567Y0052808D01*
X0175588Y0052873D01*
X0175614Y0052937D01*
X0175643Y0052999D01*
X0175675Y0053059D01*
X0175711Y0053118D01*
X0175751Y0053174D01*
X0175793Y0053228D01*
X0175839Y0053279D01*
X0175888Y0053328D01*
X0175939Y0053374D01*
X0175993Y0053416D01*
X0176049Y0053456D01*
X0176107Y0053492D01*
X0176168Y0053524D01*
X0176230Y0053553D01*
X0176294Y0053579D01*
X0176359Y0053600D01*
X0176426Y0053618D01*
X0176493Y0053632D01*
X0176561Y0053642D01*
X0176629Y0053648D01*
X0176698Y0053650D01*
X0176767Y0053648D01*
X0176835Y0053642D01*
X0176903Y0053632D01*
X0176970Y0053618D01*
X0177037Y0053600D01*
X0177102Y0053579D01*
X0177166Y0053553D01*
X0177228Y0053524D01*
X0177288Y0053492D01*
X0177347Y0053456D01*
X0177403Y0053416D01*
X0177457Y0053374D01*
X0177508Y0053328D01*
X0177557Y0053279D01*
X0177603Y0053228D01*
X0177645Y0053174D01*
X0177685Y0053118D01*
X0177721Y0053059D01*
X0177753Y0052999D01*
X0177782Y0052937D01*
X0177808Y0052873D01*
X0177829Y0052808D01*
X0177847Y0052741D01*
X0177861Y0052674D01*
X0177871Y0052606D01*
X0177877Y0052538D01*
X0177879Y0052469D01*
X0177877Y0052400D01*
X0177871Y0052332D01*
X0177861Y0052264D01*
X0177847Y0052197D01*
X0177829Y0052130D01*
X0177808Y0052065D01*
X0177782Y0052001D01*
X0177753Y0051939D01*
X0177721Y0051878D01*
X0177685Y0051820D01*
X0177645Y0051764D01*
X0177603Y0051710D01*
X0177557Y0051659D01*
X0177508Y0051610D01*
X0177457Y0051564D01*
X0177403Y0051522D01*
X0177347Y0051482D01*
X0177289Y0051446D01*
X0177228Y0051414D01*
X0177166Y0051385D01*
X0177102Y0051359D01*
X0177037Y0051338D01*
X0176970Y0051320D01*
X0176903Y0051306D01*
X0176835Y0051296D01*
X0176767Y0051290D01*
X0176698Y0051288D01*
X0176629Y0051290D01*
X0176561Y0051296D01*
X0176493Y0051306D01*
X0176426Y0051320D01*
X0176359Y0051338D01*
X0176294Y0051359D01*
X0176230Y0051385D01*
X0176168Y0051414D01*
X0176107Y0051446D01*
X0176049Y0051482D01*
X0175993Y0051522D01*
X0175939Y0051564D01*
X0175888Y0051610D01*
X0175839Y0051659D01*
X0175793Y0051710D01*
X0175751Y0051764D01*
X0175711Y0051820D01*
X0175675Y0051878D01*
X0175643Y0051939D01*
X0175614Y0052001D01*
X0175588Y0052065D01*
X0175567Y0052130D01*
X0175549Y0052197D01*
X0175535Y0052264D01*
X0175525Y0052332D01*
X0175519Y0052400D01*
X0175517Y0052469D01*
X0143403Y0037494D02*
X0143405Y0037563D01*
X0143411Y0037631D01*
X0143421Y0037699D01*
X0143435Y0037766D01*
X0143453Y0037833D01*
X0143474Y0037898D01*
X0143500Y0037962D01*
X0143529Y0038024D01*
X0143561Y0038084D01*
X0143597Y0038143D01*
X0143637Y0038199D01*
X0143679Y0038253D01*
X0143725Y0038304D01*
X0143774Y0038353D01*
X0143825Y0038399D01*
X0143879Y0038441D01*
X0143935Y0038481D01*
X0143993Y0038517D01*
X0144054Y0038549D01*
X0144116Y0038578D01*
X0144180Y0038604D01*
X0144245Y0038625D01*
X0144312Y0038643D01*
X0144379Y0038657D01*
X0144447Y0038667D01*
X0144515Y0038673D01*
X0144584Y0038675D01*
X0144653Y0038673D01*
X0144721Y0038667D01*
X0144789Y0038657D01*
X0144856Y0038643D01*
X0144923Y0038625D01*
X0144988Y0038604D01*
X0145052Y0038578D01*
X0145114Y0038549D01*
X0145174Y0038517D01*
X0145233Y0038481D01*
X0145289Y0038441D01*
X0145343Y0038399D01*
X0145394Y0038353D01*
X0145443Y0038304D01*
X0145489Y0038253D01*
X0145531Y0038199D01*
X0145571Y0038143D01*
X0145607Y0038084D01*
X0145639Y0038024D01*
X0145668Y0037962D01*
X0145694Y0037898D01*
X0145715Y0037833D01*
X0145733Y0037766D01*
X0145747Y0037699D01*
X0145757Y0037631D01*
X0145763Y0037563D01*
X0145765Y0037494D01*
X0145763Y0037425D01*
X0145757Y0037357D01*
X0145747Y0037289D01*
X0145733Y0037222D01*
X0145715Y0037155D01*
X0145694Y0037090D01*
X0145668Y0037026D01*
X0145639Y0036964D01*
X0145607Y0036903D01*
X0145571Y0036845D01*
X0145531Y0036789D01*
X0145489Y0036735D01*
X0145443Y0036684D01*
X0145394Y0036635D01*
X0145343Y0036589D01*
X0145289Y0036547D01*
X0145233Y0036507D01*
X0145175Y0036471D01*
X0145114Y0036439D01*
X0145052Y0036410D01*
X0144988Y0036384D01*
X0144923Y0036363D01*
X0144856Y0036345D01*
X0144789Y0036331D01*
X0144721Y0036321D01*
X0144653Y0036315D01*
X0144584Y0036313D01*
X0144515Y0036315D01*
X0144447Y0036321D01*
X0144379Y0036331D01*
X0144312Y0036345D01*
X0144245Y0036363D01*
X0144180Y0036384D01*
X0144116Y0036410D01*
X0144054Y0036439D01*
X0143993Y0036471D01*
X0143935Y0036507D01*
X0143879Y0036547D01*
X0143825Y0036589D01*
X0143774Y0036635D01*
X0143725Y0036684D01*
X0143679Y0036735D01*
X0143637Y0036789D01*
X0143597Y0036845D01*
X0143561Y0036903D01*
X0143529Y0036964D01*
X0143500Y0037026D01*
X0143474Y0037090D01*
X0143453Y0037155D01*
X0143435Y0037222D01*
X0143421Y0037289D01*
X0143411Y0037357D01*
X0143405Y0037425D01*
X0143403Y0037494D01*
X0128429Y0069607D02*
X0128431Y0069676D01*
X0128437Y0069744D01*
X0128447Y0069812D01*
X0128461Y0069879D01*
X0128479Y0069946D01*
X0128500Y0070011D01*
X0128526Y0070075D01*
X0128555Y0070137D01*
X0128587Y0070197D01*
X0128623Y0070256D01*
X0128663Y0070312D01*
X0128705Y0070366D01*
X0128751Y0070417D01*
X0128800Y0070466D01*
X0128851Y0070512D01*
X0128905Y0070554D01*
X0128961Y0070594D01*
X0129019Y0070630D01*
X0129080Y0070662D01*
X0129142Y0070691D01*
X0129206Y0070717D01*
X0129271Y0070738D01*
X0129338Y0070756D01*
X0129405Y0070770D01*
X0129473Y0070780D01*
X0129541Y0070786D01*
X0129610Y0070788D01*
X0129679Y0070786D01*
X0129747Y0070780D01*
X0129815Y0070770D01*
X0129882Y0070756D01*
X0129949Y0070738D01*
X0130014Y0070717D01*
X0130078Y0070691D01*
X0130140Y0070662D01*
X0130200Y0070630D01*
X0130259Y0070594D01*
X0130315Y0070554D01*
X0130369Y0070512D01*
X0130420Y0070466D01*
X0130469Y0070417D01*
X0130515Y0070366D01*
X0130557Y0070312D01*
X0130597Y0070256D01*
X0130633Y0070197D01*
X0130665Y0070137D01*
X0130694Y0070075D01*
X0130720Y0070011D01*
X0130741Y0069946D01*
X0130759Y0069879D01*
X0130773Y0069812D01*
X0130783Y0069744D01*
X0130789Y0069676D01*
X0130791Y0069607D01*
X0130789Y0069538D01*
X0130783Y0069470D01*
X0130773Y0069402D01*
X0130759Y0069335D01*
X0130741Y0069268D01*
X0130720Y0069203D01*
X0130694Y0069139D01*
X0130665Y0069077D01*
X0130633Y0069016D01*
X0130597Y0068958D01*
X0130557Y0068902D01*
X0130515Y0068848D01*
X0130469Y0068797D01*
X0130420Y0068748D01*
X0130369Y0068702D01*
X0130315Y0068660D01*
X0130259Y0068620D01*
X0130201Y0068584D01*
X0130140Y0068552D01*
X0130078Y0068523D01*
X0130014Y0068497D01*
X0129949Y0068476D01*
X0129882Y0068458D01*
X0129815Y0068444D01*
X0129747Y0068434D01*
X0129679Y0068428D01*
X0129610Y0068426D01*
X0129541Y0068428D01*
X0129473Y0068434D01*
X0129405Y0068444D01*
X0129338Y0068458D01*
X0129271Y0068476D01*
X0129206Y0068497D01*
X0129142Y0068523D01*
X0129080Y0068552D01*
X0129019Y0068584D01*
X0128961Y0068620D01*
X0128905Y0068660D01*
X0128851Y0068702D01*
X0128800Y0068748D01*
X0128751Y0068797D01*
X0128705Y0068848D01*
X0128663Y0068902D01*
X0128623Y0068958D01*
X0128587Y0069016D01*
X0128555Y0069077D01*
X0128526Y0069139D01*
X0128500Y0069203D01*
X0128479Y0069268D01*
X0128461Y0069335D01*
X0128447Y0069402D01*
X0128437Y0069470D01*
X0128431Y0069538D01*
X0128429Y0069607D01*
X0122078Y0091754D02*
X0122080Y0091823D01*
X0122086Y0091891D01*
X0122096Y0091959D01*
X0122110Y0092026D01*
X0122128Y0092093D01*
X0122149Y0092158D01*
X0122175Y0092222D01*
X0122204Y0092284D01*
X0122236Y0092344D01*
X0122272Y0092403D01*
X0122312Y0092459D01*
X0122354Y0092513D01*
X0122400Y0092564D01*
X0122449Y0092613D01*
X0122500Y0092659D01*
X0122554Y0092701D01*
X0122610Y0092741D01*
X0122668Y0092777D01*
X0122729Y0092809D01*
X0122791Y0092838D01*
X0122855Y0092864D01*
X0122920Y0092885D01*
X0122987Y0092903D01*
X0123054Y0092917D01*
X0123122Y0092927D01*
X0123190Y0092933D01*
X0123259Y0092935D01*
X0123328Y0092933D01*
X0123396Y0092927D01*
X0123464Y0092917D01*
X0123531Y0092903D01*
X0123598Y0092885D01*
X0123663Y0092864D01*
X0123727Y0092838D01*
X0123789Y0092809D01*
X0123849Y0092777D01*
X0123908Y0092741D01*
X0123964Y0092701D01*
X0124018Y0092659D01*
X0124069Y0092613D01*
X0124118Y0092564D01*
X0124164Y0092513D01*
X0124206Y0092459D01*
X0124246Y0092403D01*
X0124282Y0092344D01*
X0124314Y0092284D01*
X0124343Y0092222D01*
X0124369Y0092158D01*
X0124390Y0092093D01*
X0124408Y0092026D01*
X0124422Y0091959D01*
X0124432Y0091891D01*
X0124438Y0091823D01*
X0124440Y0091754D01*
X0124438Y0091685D01*
X0124432Y0091617D01*
X0124422Y0091549D01*
X0124408Y0091482D01*
X0124390Y0091415D01*
X0124369Y0091350D01*
X0124343Y0091286D01*
X0124314Y0091224D01*
X0124282Y0091163D01*
X0124246Y0091105D01*
X0124206Y0091049D01*
X0124164Y0090995D01*
X0124118Y0090944D01*
X0124069Y0090895D01*
X0124018Y0090849D01*
X0123964Y0090807D01*
X0123908Y0090767D01*
X0123850Y0090731D01*
X0123789Y0090699D01*
X0123727Y0090670D01*
X0123663Y0090644D01*
X0123598Y0090623D01*
X0123531Y0090605D01*
X0123464Y0090591D01*
X0123396Y0090581D01*
X0123328Y0090575D01*
X0123259Y0090573D01*
X0123190Y0090575D01*
X0123122Y0090581D01*
X0123054Y0090591D01*
X0122987Y0090605D01*
X0122920Y0090623D01*
X0122855Y0090644D01*
X0122791Y0090670D01*
X0122729Y0090699D01*
X0122668Y0090731D01*
X0122610Y0090767D01*
X0122554Y0090807D01*
X0122500Y0090849D01*
X0122449Y0090895D01*
X0122400Y0090944D01*
X0122354Y0090995D01*
X0122312Y0091049D01*
X0122272Y0091105D01*
X0122236Y0091163D01*
X0122204Y0091224D01*
X0122175Y0091286D01*
X0122149Y0091350D01*
X0122128Y0091415D01*
X0122110Y0091482D01*
X0122096Y0091549D01*
X0122086Y0091617D01*
X0122080Y0091685D01*
X0122078Y0091754D01*
X0107103Y0123867D02*
X0107105Y0123936D01*
X0107111Y0124004D01*
X0107121Y0124072D01*
X0107135Y0124139D01*
X0107153Y0124206D01*
X0107174Y0124271D01*
X0107200Y0124335D01*
X0107229Y0124397D01*
X0107261Y0124457D01*
X0107297Y0124516D01*
X0107337Y0124572D01*
X0107379Y0124626D01*
X0107425Y0124677D01*
X0107474Y0124726D01*
X0107525Y0124772D01*
X0107579Y0124814D01*
X0107635Y0124854D01*
X0107693Y0124890D01*
X0107754Y0124922D01*
X0107816Y0124951D01*
X0107880Y0124977D01*
X0107945Y0124998D01*
X0108012Y0125016D01*
X0108079Y0125030D01*
X0108147Y0125040D01*
X0108215Y0125046D01*
X0108284Y0125048D01*
X0108353Y0125046D01*
X0108421Y0125040D01*
X0108489Y0125030D01*
X0108556Y0125016D01*
X0108623Y0124998D01*
X0108688Y0124977D01*
X0108752Y0124951D01*
X0108814Y0124922D01*
X0108874Y0124890D01*
X0108933Y0124854D01*
X0108989Y0124814D01*
X0109043Y0124772D01*
X0109094Y0124726D01*
X0109143Y0124677D01*
X0109189Y0124626D01*
X0109231Y0124572D01*
X0109271Y0124516D01*
X0109307Y0124457D01*
X0109339Y0124397D01*
X0109368Y0124335D01*
X0109394Y0124271D01*
X0109415Y0124206D01*
X0109433Y0124139D01*
X0109447Y0124072D01*
X0109457Y0124004D01*
X0109463Y0123936D01*
X0109465Y0123867D01*
X0109463Y0123798D01*
X0109457Y0123730D01*
X0109447Y0123662D01*
X0109433Y0123595D01*
X0109415Y0123528D01*
X0109394Y0123463D01*
X0109368Y0123399D01*
X0109339Y0123337D01*
X0109307Y0123276D01*
X0109271Y0123218D01*
X0109231Y0123162D01*
X0109189Y0123108D01*
X0109143Y0123057D01*
X0109094Y0123008D01*
X0109043Y0122962D01*
X0108989Y0122920D01*
X0108933Y0122880D01*
X0108875Y0122844D01*
X0108814Y0122812D01*
X0108752Y0122783D01*
X0108688Y0122757D01*
X0108623Y0122736D01*
X0108556Y0122718D01*
X0108489Y0122704D01*
X0108421Y0122694D01*
X0108353Y0122688D01*
X0108284Y0122686D01*
X0108215Y0122688D01*
X0108147Y0122694D01*
X0108079Y0122704D01*
X0108012Y0122718D01*
X0107945Y0122736D01*
X0107880Y0122757D01*
X0107816Y0122783D01*
X0107754Y0122812D01*
X0107693Y0122844D01*
X0107635Y0122880D01*
X0107579Y0122920D01*
X0107525Y0122962D01*
X0107474Y0123008D01*
X0107425Y0123057D01*
X0107379Y0123108D01*
X0107337Y0123162D01*
X0107297Y0123218D01*
X0107261Y0123276D01*
X0107229Y0123337D01*
X0107200Y0123399D01*
X0107174Y0123463D01*
X0107153Y0123528D01*
X0107135Y0123595D01*
X0107121Y0123662D01*
X0107111Y0123730D01*
X0107105Y0123798D01*
X0107103Y0123867D01*
X0139217Y0138842D02*
X0139219Y0138911D01*
X0139225Y0138979D01*
X0139235Y0139047D01*
X0139249Y0139114D01*
X0139267Y0139181D01*
X0139288Y0139246D01*
X0139314Y0139310D01*
X0139343Y0139372D01*
X0139375Y0139432D01*
X0139411Y0139491D01*
X0139451Y0139547D01*
X0139493Y0139601D01*
X0139539Y0139652D01*
X0139588Y0139701D01*
X0139639Y0139747D01*
X0139693Y0139789D01*
X0139749Y0139829D01*
X0139807Y0139865D01*
X0139868Y0139897D01*
X0139930Y0139926D01*
X0139994Y0139952D01*
X0140059Y0139973D01*
X0140126Y0139991D01*
X0140193Y0140005D01*
X0140261Y0140015D01*
X0140329Y0140021D01*
X0140398Y0140023D01*
X0140467Y0140021D01*
X0140535Y0140015D01*
X0140603Y0140005D01*
X0140670Y0139991D01*
X0140737Y0139973D01*
X0140802Y0139952D01*
X0140866Y0139926D01*
X0140928Y0139897D01*
X0140988Y0139865D01*
X0141047Y0139829D01*
X0141103Y0139789D01*
X0141157Y0139747D01*
X0141208Y0139701D01*
X0141257Y0139652D01*
X0141303Y0139601D01*
X0141345Y0139547D01*
X0141385Y0139491D01*
X0141421Y0139432D01*
X0141453Y0139372D01*
X0141482Y0139310D01*
X0141508Y0139246D01*
X0141529Y0139181D01*
X0141547Y0139114D01*
X0141561Y0139047D01*
X0141571Y0138979D01*
X0141577Y0138911D01*
X0141579Y0138842D01*
X0141577Y0138773D01*
X0141571Y0138705D01*
X0141561Y0138637D01*
X0141547Y0138570D01*
X0141529Y0138503D01*
X0141508Y0138438D01*
X0141482Y0138374D01*
X0141453Y0138312D01*
X0141421Y0138251D01*
X0141385Y0138193D01*
X0141345Y0138137D01*
X0141303Y0138083D01*
X0141257Y0138032D01*
X0141208Y0137983D01*
X0141157Y0137937D01*
X0141103Y0137895D01*
X0141047Y0137855D01*
X0140989Y0137819D01*
X0140928Y0137787D01*
X0140866Y0137758D01*
X0140802Y0137732D01*
X0140737Y0137711D01*
X0140670Y0137693D01*
X0140603Y0137679D01*
X0140535Y0137669D01*
X0140467Y0137663D01*
X0140398Y0137661D01*
X0140329Y0137663D01*
X0140261Y0137669D01*
X0140193Y0137679D01*
X0140126Y0137693D01*
X0140059Y0137711D01*
X0139994Y0137732D01*
X0139930Y0137758D01*
X0139868Y0137787D01*
X0139807Y0137819D01*
X0139749Y0137855D01*
X0139693Y0137895D01*
X0139639Y0137937D01*
X0139588Y0137983D01*
X0139539Y0138032D01*
X0139493Y0138083D01*
X0139451Y0138137D01*
X0139411Y0138193D01*
X0139375Y0138251D01*
X0139343Y0138312D01*
X0139314Y0138374D01*
X0139288Y0138438D01*
X0139267Y0138503D01*
X0139249Y0138570D01*
X0139235Y0138637D01*
X0139225Y0138705D01*
X0139219Y0138773D01*
X0139217Y0138842D01*
X0154191Y0106729D02*
X0154193Y0106798D01*
X0154199Y0106866D01*
X0154209Y0106934D01*
X0154223Y0107001D01*
X0154241Y0107068D01*
X0154262Y0107133D01*
X0154288Y0107197D01*
X0154317Y0107259D01*
X0154349Y0107319D01*
X0154385Y0107378D01*
X0154425Y0107434D01*
X0154467Y0107488D01*
X0154513Y0107539D01*
X0154562Y0107588D01*
X0154613Y0107634D01*
X0154667Y0107676D01*
X0154723Y0107716D01*
X0154781Y0107752D01*
X0154842Y0107784D01*
X0154904Y0107813D01*
X0154968Y0107839D01*
X0155033Y0107860D01*
X0155100Y0107878D01*
X0155167Y0107892D01*
X0155235Y0107902D01*
X0155303Y0107908D01*
X0155372Y0107910D01*
X0155441Y0107908D01*
X0155509Y0107902D01*
X0155577Y0107892D01*
X0155644Y0107878D01*
X0155711Y0107860D01*
X0155776Y0107839D01*
X0155840Y0107813D01*
X0155902Y0107784D01*
X0155962Y0107752D01*
X0156021Y0107716D01*
X0156077Y0107676D01*
X0156131Y0107634D01*
X0156182Y0107588D01*
X0156231Y0107539D01*
X0156277Y0107488D01*
X0156319Y0107434D01*
X0156359Y0107378D01*
X0156395Y0107319D01*
X0156427Y0107259D01*
X0156456Y0107197D01*
X0156482Y0107133D01*
X0156503Y0107068D01*
X0156521Y0107001D01*
X0156535Y0106934D01*
X0156545Y0106866D01*
X0156551Y0106798D01*
X0156553Y0106729D01*
X0156551Y0106660D01*
X0156545Y0106592D01*
X0156535Y0106524D01*
X0156521Y0106457D01*
X0156503Y0106390D01*
X0156482Y0106325D01*
X0156456Y0106261D01*
X0156427Y0106199D01*
X0156395Y0106138D01*
X0156359Y0106080D01*
X0156319Y0106024D01*
X0156277Y0105970D01*
X0156231Y0105919D01*
X0156182Y0105870D01*
X0156131Y0105824D01*
X0156077Y0105782D01*
X0156021Y0105742D01*
X0155963Y0105706D01*
X0155902Y0105674D01*
X0155840Y0105645D01*
X0155776Y0105619D01*
X0155711Y0105598D01*
X0155644Y0105580D01*
X0155577Y0105566D01*
X0155509Y0105556D01*
X0155441Y0105550D01*
X0155372Y0105548D01*
X0155303Y0105550D01*
X0155235Y0105556D01*
X0155167Y0105566D01*
X0155100Y0105580D01*
X0155033Y0105598D01*
X0154968Y0105619D01*
X0154904Y0105645D01*
X0154842Y0105674D01*
X0154781Y0105706D01*
X0154723Y0105742D01*
X0154667Y0105782D01*
X0154613Y0105824D01*
X0154562Y0105870D01*
X0154513Y0105919D01*
X0154467Y0105970D01*
X0154425Y0106024D01*
X0154385Y0106080D01*
X0154349Y0106138D01*
X0154317Y0106199D01*
X0154288Y0106261D01*
X0154262Y0106325D01*
X0154241Y0106390D01*
X0154223Y0106457D01*
X0154209Y0106524D01*
X0154199Y0106592D01*
X0154193Y0106660D01*
X0154191Y0106729D01*
X0160542Y0084582D02*
X0160544Y0084651D01*
X0160550Y0084719D01*
X0160560Y0084787D01*
X0160574Y0084854D01*
X0160592Y0084921D01*
X0160613Y0084986D01*
X0160639Y0085050D01*
X0160668Y0085112D01*
X0160700Y0085172D01*
X0160736Y0085231D01*
X0160776Y0085287D01*
X0160818Y0085341D01*
X0160864Y0085392D01*
X0160913Y0085441D01*
X0160964Y0085487D01*
X0161018Y0085529D01*
X0161074Y0085569D01*
X0161132Y0085605D01*
X0161193Y0085637D01*
X0161255Y0085666D01*
X0161319Y0085692D01*
X0161384Y0085713D01*
X0161451Y0085731D01*
X0161518Y0085745D01*
X0161586Y0085755D01*
X0161654Y0085761D01*
X0161723Y0085763D01*
X0161792Y0085761D01*
X0161860Y0085755D01*
X0161928Y0085745D01*
X0161995Y0085731D01*
X0162062Y0085713D01*
X0162127Y0085692D01*
X0162191Y0085666D01*
X0162253Y0085637D01*
X0162313Y0085605D01*
X0162372Y0085569D01*
X0162428Y0085529D01*
X0162482Y0085487D01*
X0162533Y0085441D01*
X0162582Y0085392D01*
X0162628Y0085341D01*
X0162670Y0085287D01*
X0162710Y0085231D01*
X0162746Y0085172D01*
X0162778Y0085112D01*
X0162807Y0085050D01*
X0162833Y0084986D01*
X0162854Y0084921D01*
X0162872Y0084854D01*
X0162886Y0084787D01*
X0162896Y0084719D01*
X0162902Y0084651D01*
X0162904Y0084582D01*
X0162902Y0084513D01*
X0162896Y0084445D01*
X0162886Y0084377D01*
X0162872Y0084310D01*
X0162854Y0084243D01*
X0162833Y0084178D01*
X0162807Y0084114D01*
X0162778Y0084052D01*
X0162746Y0083991D01*
X0162710Y0083933D01*
X0162670Y0083877D01*
X0162628Y0083823D01*
X0162582Y0083772D01*
X0162533Y0083723D01*
X0162482Y0083677D01*
X0162428Y0083635D01*
X0162372Y0083595D01*
X0162314Y0083559D01*
X0162253Y0083527D01*
X0162191Y0083498D01*
X0162127Y0083472D01*
X0162062Y0083451D01*
X0161995Y0083433D01*
X0161928Y0083419D01*
X0161860Y0083409D01*
X0161792Y0083403D01*
X0161723Y0083401D01*
X0161654Y0083403D01*
X0161586Y0083409D01*
X0161518Y0083419D01*
X0161451Y0083433D01*
X0161384Y0083451D01*
X0161319Y0083472D01*
X0161255Y0083498D01*
X0161193Y0083527D01*
X0161132Y0083559D01*
X0161074Y0083595D01*
X0161018Y0083635D01*
X0160964Y0083677D01*
X0160913Y0083723D01*
X0160864Y0083772D01*
X0160818Y0083823D01*
X0160776Y0083877D01*
X0160736Y0083933D01*
X0160700Y0083991D01*
X0160668Y0084052D01*
X0160639Y0084114D01*
X0160613Y0084178D01*
X0160592Y0084243D01*
X0160574Y0084310D01*
X0160560Y0084377D01*
X0160550Y0084445D01*
X0160544Y0084513D01*
X0160542Y0084582D01*
X0243875Y0037494D02*
X0243877Y0037563D01*
X0243883Y0037631D01*
X0243893Y0037699D01*
X0243907Y0037766D01*
X0243925Y0037833D01*
X0243946Y0037898D01*
X0243972Y0037962D01*
X0244001Y0038024D01*
X0244033Y0038084D01*
X0244069Y0038143D01*
X0244109Y0038199D01*
X0244151Y0038253D01*
X0244197Y0038304D01*
X0244246Y0038353D01*
X0244297Y0038399D01*
X0244351Y0038441D01*
X0244407Y0038481D01*
X0244465Y0038517D01*
X0244526Y0038549D01*
X0244588Y0038578D01*
X0244652Y0038604D01*
X0244717Y0038625D01*
X0244784Y0038643D01*
X0244851Y0038657D01*
X0244919Y0038667D01*
X0244987Y0038673D01*
X0245056Y0038675D01*
X0245125Y0038673D01*
X0245193Y0038667D01*
X0245261Y0038657D01*
X0245328Y0038643D01*
X0245395Y0038625D01*
X0245460Y0038604D01*
X0245524Y0038578D01*
X0245586Y0038549D01*
X0245646Y0038517D01*
X0245705Y0038481D01*
X0245761Y0038441D01*
X0245815Y0038399D01*
X0245866Y0038353D01*
X0245915Y0038304D01*
X0245961Y0038253D01*
X0246003Y0038199D01*
X0246043Y0038143D01*
X0246079Y0038084D01*
X0246111Y0038024D01*
X0246140Y0037962D01*
X0246166Y0037898D01*
X0246187Y0037833D01*
X0246205Y0037766D01*
X0246219Y0037699D01*
X0246229Y0037631D01*
X0246235Y0037563D01*
X0246237Y0037494D01*
X0246235Y0037425D01*
X0246229Y0037357D01*
X0246219Y0037289D01*
X0246205Y0037222D01*
X0246187Y0037155D01*
X0246166Y0037090D01*
X0246140Y0037026D01*
X0246111Y0036964D01*
X0246079Y0036903D01*
X0246043Y0036845D01*
X0246003Y0036789D01*
X0245961Y0036735D01*
X0245915Y0036684D01*
X0245866Y0036635D01*
X0245815Y0036589D01*
X0245761Y0036547D01*
X0245705Y0036507D01*
X0245647Y0036471D01*
X0245586Y0036439D01*
X0245524Y0036410D01*
X0245460Y0036384D01*
X0245395Y0036363D01*
X0245328Y0036345D01*
X0245261Y0036331D01*
X0245193Y0036321D01*
X0245125Y0036315D01*
X0245056Y0036313D01*
X0244987Y0036315D01*
X0244919Y0036321D01*
X0244851Y0036331D01*
X0244784Y0036345D01*
X0244717Y0036363D01*
X0244652Y0036384D01*
X0244588Y0036410D01*
X0244526Y0036439D01*
X0244465Y0036471D01*
X0244407Y0036507D01*
X0244351Y0036547D01*
X0244297Y0036589D01*
X0244246Y0036635D01*
X0244197Y0036684D01*
X0244151Y0036735D01*
X0244109Y0036789D01*
X0244069Y0036845D01*
X0244033Y0036903D01*
X0244001Y0036964D01*
X0243972Y0037026D01*
X0243946Y0037090D01*
X0243925Y0037155D01*
X0243907Y0037222D01*
X0243893Y0037289D01*
X0243883Y0037357D01*
X0243877Y0037425D01*
X0243875Y0037494D01*
X0258850Y0069607D02*
X0258852Y0069676D01*
X0258858Y0069744D01*
X0258868Y0069812D01*
X0258882Y0069879D01*
X0258900Y0069946D01*
X0258921Y0070011D01*
X0258947Y0070075D01*
X0258976Y0070137D01*
X0259008Y0070197D01*
X0259044Y0070256D01*
X0259084Y0070312D01*
X0259126Y0070366D01*
X0259172Y0070417D01*
X0259221Y0070466D01*
X0259272Y0070512D01*
X0259326Y0070554D01*
X0259382Y0070594D01*
X0259440Y0070630D01*
X0259501Y0070662D01*
X0259563Y0070691D01*
X0259627Y0070717D01*
X0259692Y0070738D01*
X0259759Y0070756D01*
X0259826Y0070770D01*
X0259894Y0070780D01*
X0259962Y0070786D01*
X0260031Y0070788D01*
X0260100Y0070786D01*
X0260168Y0070780D01*
X0260236Y0070770D01*
X0260303Y0070756D01*
X0260370Y0070738D01*
X0260435Y0070717D01*
X0260499Y0070691D01*
X0260561Y0070662D01*
X0260621Y0070630D01*
X0260680Y0070594D01*
X0260736Y0070554D01*
X0260790Y0070512D01*
X0260841Y0070466D01*
X0260890Y0070417D01*
X0260936Y0070366D01*
X0260978Y0070312D01*
X0261018Y0070256D01*
X0261054Y0070197D01*
X0261086Y0070137D01*
X0261115Y0070075D01*
X0261141Y0070011D01*
X0261162Y0069946D01*
X0261180Y0069879D01*
X0261194Y0069812D01*
X0261204Y0069744D01*
X0261210Y0069676D01*
X0261212Y0069607D01*
X0261210Y0069538D01*
X0261204Y0069470D01*
X0261194Y0069402D01*
X0261180Y0069335D01*
X0261162Y0069268D01*
X0261141Y0069203D01*
X0261115Y0069139D01*
X0261086Y0069077D01*
X0261054Y0069016D01*
X0261018Y0068958D01*
X0260978Y0068902D01*
X0260936Y0068848D01*
X0260890Y0068797D01*
X0260841Y0068748D01*
X0260790Y0068702D01*
X0260736Y0068660D01*
X0260680Y0068620D01*
X0260622Y0068584D01*
X0260561Y0068552D01*
X0260499Y0068523D01*
X0260435Y0068497D01*
X0260370Y0068476D01*
X0260303Y0068458D01*
X0260236Y0068444D01*
X0260168Y0068434D01*
X0260100Y0068428D01*
X0260031Y0068426D01*
X0259962Y0068428D01*
X0259894Y0068434D01*
X0259826Y0068444D01*
X0259759Y0068458D01*
X0259692Y0068476D01*
X0259627Y0068497D01*
X0259563Y0068523D01*
X0259501Y0068552D01*
X0259440Y0068584D01*
X0259382Y0068620D01*
X0259326Y0068660D01*
X0259272Y0068702D01*
X0259221Y0068748D01*
X0259172Y0068797D01*
X0259126Y0068848D01*
X0259084Y0068902D01*
X0259044Y0068958D01*
X0259008Y0069016D01*
X0258976Y0069077D01*
X0258947Y0069139D01*
X0258921Y0069203D01*
X0258900Y0069268D01*
X0258882Y0069335D01*
X0258868Y0069402D01*
X0258858Y0069470D01*
X0258852Y0069538D01*
X0258850Y0069607D01*
X0265201Y0091754D02*
X0265203Y0091823D01*
X0265209Y0091891D01*
X0265219Y0091959D01*
X0265233Y0092026D01*
X0265251Y0092093D01*
X0265272Y0092158D01*
X0265298Y0092222D01*
X0265327Y0092284D01*
X0265359Y0092344D01*
X0265395Y0092403D01*
X0265435Y0092459D01*
X0265477Y0092513D01*
X0265523Y0092564D01*
X0265572Y0092613D01*
X0265623Y0092659D01*
X0265677Y0092701D01*
X0265733Y0092741D01*
X0265791Y0092777D01*
X0265852Y0092809D01*
X0265914Y0092838D01*
X0265978Y0092864D01*
X0266043Y0092885D01*
X0266110Y0092903D01*
X0266177Y0092917D01*
X0266245Y0092927D01*
X0266313Y0092933D01*
X0266382Y0092935D01*
X0266451Y0092933D01*
X0266519Y0092927D01*
X0266587Y0092917D01*
X0266654Y0092903D01*
X0266721Y0092885D01*
X0266786Y0092864D01*
X0266850Y0092838D01*
X0266912Y0092809D01*
X0266972Y0092777D01*
X0267031Y0092741D01*
X0267087Y0092701D01*
X0267141Y0092659D01*
X0267192Y0092613D01*
X0267241Y0092564D01*
X0267287Y0092513D01*
X0267329Y0092459D01*
X0267369Y0092403D01*
X0267405Y0092344D01*
X0267437Y0092284D01*
X0267466Y0092222D01*
X0267492Y0092158D01*
X0267513Y0092093D01*
X0267531Y0092026D01*
X0267545Y0091959D01*
X0267555Y0091891D01*
X0267561Y0091823D01*
X0267563Y0091754D01*
X0267561Y0091685D01*
X0267555Y0091617D01*
X0267545Y0091549D01*
X0267531Y0091482D01*
X0267513Y0091415D01*
X0267492Y0091350D01*
X0267466Y0091286D01*
X0267437Y0091224D01*
X0267405Y0091163D01*
X0267369Y0091105D01*
X0267329Y0091049D01*
X0267287Y0090995D01*
X0267241Y0090944D01*
X0267192Y0090895D01*
X0267141Y0090849D01*
X0267087Y0090807D01*
X0267031Y0090767D01*
X0266973Y0090731D01*
X0266912Y0090699D01*
X0266850Y0090670D01*
X0266786Y0090644D01*
X0266721Y0090623D01*
X0266654Y0090605D01*
X0266587Y0090591D01*
X0266519Y0090581D01*
X0266451Y0090575D01*
X0266382Y0090573D01*
X0266313Y0090575D01*
X0266245Y0090581D01*
X0266177Y0090591D01*
X0266110Y0090605D01*
X0266043Y0090623D01*
X0265978Y0090644D01*
X0265914Y0090670D01*
X0265852Y0090699D01*
X0265791Y0090731D01*
X0265733Y0090767D01*
X0265677Y0090807D01*
X0265623Y0090849D01*
X0265572Y0090895D01*
X0265523Y0090944D01*
X0265477Y0090995D01*
X0265435Y0091049D01*
X0265395Y0091105D01*
X0265359Y0091163D01*
X0265327Y0091224D01*
X0265298Y0091286D01*
X0265272Y0091350D01*
X0265251Y0091415D01*
X0265233Y0091482D01*
X0265219Y0091549D01*
X0265209Y0091617D01*
X0265203Y0091685D01*
X0265201Y0091754D01*
X0280176Y0123867D02*
X0280178Y0123936D01*
X0280184Y0124004D01*
X0280194Y0124072D01*
X0280208Y0124139D01*
X0280226Y0124206D01*
X0280247Y0124271D01*
X0280273Y0124335D01*
X0280302Y0124397D01*
X0280334Y0124457D01*
X0280370Y0124516D01*
X0280410Y0124572D01*
X0280452Y0124626D01*
X0280498Y0124677D01*
X0280547Y0124726D01*
X0280598Y0124772D01*
X0280652Y0124814D01*
X0280708Y0124854D01*
X0280766Y0124890D01*
X0280827Y0124922D01*
X0280889Y0124951D01*
X0280953Y0124977D01*
X0281018Y0124998D01*
X0281085Y0125016D01*
X0281152Y0125030D01*
X0281220Y0125040D01*
X0281288Y0125046D01*
X0281357Y0125048D01*
X0281426Y0125046D01*
X0281494Y0125040D01*
X0281562Y0125030D01*
X0281629Y0125016D01*
X0281696Y0124998D01*
X0281761Y0124977D01*
X0281825Y0124951D01*
X0281887Y0124922D01*
X0281947Y0124890D01*
X0282006Y0124854D01*
X0282062Y0124814D01*
X0282116Y0124772D01*
X0282167Y0124726D01*
X0282216Y0124677D01*
X0282262Y0124626D01*
X0282304Y0124572D01*
X0282344Y0124516D01*
X0282380Y0124457D01*
X0282412Y0124397D01*
X0282441Y0124335D01*
X0282467Y0124271D01*
X0282488Y0124206D01*
X0282506Y0124139D01*
X0282520Y0124072D01*
X0282530Y0124004D01*
X0282536Y0123936D01*
X0282538Y0123867D01*
X0282536Y0123798D01*
X0282530Y0123730D01*
X0282520Y0123662D01*
X0282506Y0123595D01*
X0282488Y0123528D01*
X0282467Y0123463D01*
X0282441Y0123399D01*
X0282412Y0123337D01*
X0282380Y0123276D01*
X0282344Y0123218D01*
X0282304Y0123162D01*
X0282262Y0123108D01*
X0282216Y0123057D01*
X0282167Y0123008D01*
X0282116Y0122962D01*
X0282062Y0122920D01*
X0282006Y0122880D01*
X0281948Y0122844D01*
X0281887Y0122812D01*
X0281825Y0122783D01*
X0281761Y0122757D01*
X0281696Y0122736D01*
X0281629Y0122718D01*
X0281562Y0122704D01*
X0281494Y0122694D01*
X0281426Y0122688D01*
X0281357Y0122686D01*
X0281288Y0122688D01*
X0281220Y0122694D01*
X0281152Y0122704D01*
X0281085Y0122718D01*
X0281018Y0122736D01*
X0280953Y0122757D01*
X0280889Y0122783D01*
X0280827Y0122812D01*
X0280766Y0122844D01*
X0280708Y0122880D01*
X0280652Y0122920D01*
X0280598Y0122962D01*
X0280547Y0123008D01*
X0280498Y0123057D01*
X0280452Y0123108D01*
X0280410Y0123162D01*
X0280370Y0123218D01*
X0280334Y0123276D01*
X0280302Y0123337D01*
X0280273Y0123399D01*
X0280247Y0123463D01*
X0280226Y0123528D01*
X0280208Y0123595D01*
X0280194Y0123662D01*
X0280184Y0123730D01*
X0280178Y0123798D01*
X0280176Y0123867D01*
D66*
X0326716Y0293111D03*
X0326716Y0298911D03*
D67*
X0326710Y0279890D03*
M02*
