G75*
%MOIN*%
%OFA0B0*%
%FSLAX25Y25*%
%IPPOS*%
%LPD*%
%AMOC8*
5,1,8,0,0,1.08239X$1,22.5*
%
%ADD10C,0.00000*%
%ADD11C,0.00039*%
%ADD12R,0.00337X0.00338*%
%ADD13R,0.01350X0.00338*%
%ADD14R,0.01013X0.00338*%
%ADD15R,0.02026X0.00338*%
%ADD16R,0.03038X0.00338*%
%ADD17R,0.03713X0.00338*%
%ADD18R,0.01013X0.00338*%
%ADD19R,0.05064X0.00338*%
%ADD20R,0.05739X0.00338*%
%ADD21R,0.04726X0.00338*%
%ADD22R,0.01688X0.00338*%
%ADD23R,0.00675X0.00338*%
%ADD24R,0.03376X0.00338*%
%ADD25R,0.04389X0.00338*%
%ADD26R,0.04389X0.00338*%
%ADD27R,0.02701X0.00338*%
%ADD28R,0.05402X0.00338*%
%ADD29R,0.01688X0.00338*%
%ADD30R,0.00338X0.00338*%
%ADD31R,0.02363X0.00338*%
%ADD32R,0.02363X0.00338*%
%ADD33R,0.03039X0.00338*%
%ADD34R,0.03714X0.00338*%
%ADD35R,0.04051X0.00338*%
%ADD36R,0.06077X0.00338*%
%ADD37R,0.05739X0.00338*%
%ADD38R,0.06752X0.00338*%
%ADD39R,0.05064X0.00338*%
%ADD40R,1.10057X0.00338*%
%ADD41R,0.00338X0.00338*%
%ADD42R,0.00337X0.00338*%
%ADD43R,0.00338X0.00338*%
%ADD44R,0.00337X0.00338*%
%ADD45R,0.01013X0.00338*%
%ADD46R,0.03714X0.00338*%
%ADD47R,0.01013X0.00338*%
%ADD48R,0.03714X0.00338*%
%ADD49R,1.14783X0.00338*%
%ADD50R,0.65494X0.00338*%
%ADD51R,0.43213X0.00338*%
%ADD52R,0.65832X0.00338*%
%ADD53R,0.43550X0.00338*%
%ADD54R,1.14108X0.00338*%
%ADD55R,1.13433X0.00338*%
%ADD56R,1.12758X0.00338*%
%ADD57R,1.12083X0.00338*%
%ADD58R,1.10732X0.00338*%
%ADD59R,0.10466X0.00338*%
%ADD60R,0.22619X0.00338*%
%ADD61R,0.32409X0.00338*%
%ADD62R,0.06415X0.00338*%
%ADD63R,0.07765X0.00338*%
%ADD64R,0.09115X0.00338*%
%ADD65R,0.09453X0.00338*%
%ADD66R,0.09790X0.00338*%
%ADD67R,0.06414X0.00338*%
%ADD68R,0.07089X0.00338*%
%ADD69R,0.08102X0.00338*%
%ADD70R,0.07090X0.00338*%
%ADD71R,0.07427X0.00338*%
%ADD72R,0.11816X0.00338*%
%ADD73R,0.22281X0.00338*%
%ADD74R,0.11141X0.00338*%
%ADD75R,0.00675X0.00338*%
%ADD76R,0.00675X0.00338*%
%ADD77R,0.02701X0.00338*%
%ADD78R,0.02026X0.00338*%
%ADD79R,0.04051X0.00338*%
%ADD80R,0.04051X0.00338*%
%ADD81R,0.08440X0.00338*%
%ADD82R,0.01013X0.00338*%
%ADD83R,0.01013X0.00338*%
%ADD84R,0.02026X0.00338*%
%ADD85R,0.03038X0.00338*%
%ADD86R,0.03376X0.00338*%
%ADD87R,0.01350X0.00338*%
%ADD88R,0.05402X0.00338*%
%ADD89R,0.02363X0.00338*%
%ADD90R,0.05064X0.00338*%
%ADD91R,0.05739X0.00338*%
%ADD92R,0.01688X0.00338*%
%ADD93R,0.01688X0.00338*%
%ADD94R,0.02363X0.00338*%
%ADD95R,0.05739X0.00338*%
%ADD96R,0.02701X0.00338*%
%ADD97R,0.01350X0.00338*%
%ADD98R,0.01688X0.00338*%
%ADD99R,0.01688X0.00338*%
%ADD100R,0.02363X0.00338*%
%ADD101R,0.05064X0.00338*%
%ADD102R,0.04389X0.00338*%
%ADD103R,0.02363X0.00338*%
%ADD104R,0.03039X0.00338*%
%ADD105R,0.07765X0.00338*%
%ADD106R,0.08102X0.00338*%
%ADD107R,0.08778X0.00338*%
%ADD108R,0.10128X0.00338*%
%ADD109R,0.12829X0.00338*%
%ADD110R,0.13504X0.00338*%
%ADD111C,0.00500*%
%ADD112C,0.00400*%
%ADD113C,0.00700*%
%ADD114C,0.00394*%
%ADD115C,0.00800*%
%ADD116C,0.02756*%
%ADD117R,0.05512X0.02559*%
%ADD118R,0.00787X0.00787*%
D10*
X0003248Y0001500D02*
X0282776Y0001500D01*
X0282776Y0371579D01*
X0003248Y0371579D01*
X0003248Y0001500D01*
X0271752Y0314492D02*
X0271754Y0314576D01*
X0271760Y0314659D01*
X0271770Y0314742D01*
X0271784Y0314825D01*
X0271801Y0314907D01*
X0271823Y0314988D01*
X0271848Y0315067D01*
X0271877Y0315146D01*
X0271910Y0315223D01*
X0271946Y0315298D01*
X0271986Y0315372D01*
X0272029Y0315444D01*
X0272076Y0315513D01*
X0272126Y0315580D01*
X0272179Y0315645D01*
X0272235Y0315707D01*
X0272293Y0315767D01*
X0272355Y0315824D01*
X0272419Y0315877D01*
X0272486Y0315928D01*
X0272555Y0315975D01*
X0272626Y0316020D01*
X0272699Y0316060D01*
X0272774Y0316097D01*
X0272851Y0316131D01*
X0272929Y0316161D01*
X0273008Y0316187D01*
X0273089Y0316210D01*
X0273171Y0316228D01*
X0273253Y0316243D01*
X0273336Y0316254D01*
X0273419Y0316261D01*
X0273503Y0316264D01*
X0273587Y0316263D01*
X0273670Y0316258D01*
X0273754Y0316249D01*
X0273836Y0316236D01*
X0273918Y0316220D01*
X0273999Y0316199D01*
X0274080Y0316175D01*
X0274158Y0316147D01*
X0274236Y0316115D01*
X0274312Y0316079D01*
X0274386Y0316040D01*
X0274458Y0315998D01*
X0274528Y0315952D01*
X0274596Y0315903D01*
X0274661Y0315851D01*
X0274724Y0315796D01*
X0274784Y0315738D01*
X0274842Y0315677D01*
X0274896Y0315613D01*
X0274948Y0315547D01*
X0274996Y0315479D01*
X0275041Y0315408D01*
X0275082Y0315335D01*
X0275121Y0315261D01*
X0275155Y0315185D01*
X0275186Y0315107D01*
X0275213Y0315028D01*
X0275237Y0314947D01*
X0275256Y0314866D01*
X0275272Y0314784D01*
X0275284Y0314701D01*
X0275292Y0314617D01*
X0275296Y0314534D01*
X0275296Y0314450D01*
X0275292Y0314367D01*
X0275284Y0314283D01*
X0275272Y0314200D01*
X0275256Y0314118D01*
X0275237Y0314037D01*
X0275213Y0313956D01*
X0275186Y0313877D01*
X0275155Y0313799D01*
X0275121Y0313723D01*
X0275082Y0313649D01*
X0275041Y0313576D01*
X0274996Y0313505D01*
X0274948Y0313437D01*
X0274896Y0313371D01*
X0274842Y0313307D01*
X0274784Y0313246D01*
X0274724Y0313188D01*
X0274661Y0313133D01*
X0274596Y0313081D01*
X0274528Y0313032D01*
X0274458Y0312986D01*
X0274386Y0312944D01*
X0274312Y0312905D01*
X0274236Y0312869D01*
X0274158Y0312837D01*
X0274080Y0312809D01*
X0273999Y0312785D01*
X0273918Y0312764D01*
X0273836Y0312748D01*
X0273754Y0312735D01*
X0273670Y0312726D01*
X0273587Y0312721D01*
X0273503Y0312720D01*
X0273419Y0312723D01*
X0273336Y0312730D01*
X0273253Y0312741D01*
X0273171Y0312756D01*
X0273089Y0312774D01*
X0273008Y0312797D01*
X0272929Y0312823D01*
X0272851Y0312853D01*
X0272774Y0312887D01*
X0272699Y0312924D01*
X0272626Y0312964D01*
X0272555Y0313009D01*
X0272486Y0313056D01*
X0272419Y0313107D01*
X0272355Y0313160D01*
X0272293Y0313217D01*
X0272235Y0313277D01*
X0272179Y0313339D01*
X0272126Y0313404D01*
X0272076Y0313471D01*
X0272029Y0313540D01*
X0271986Y0313612D01*
X0271946Y0313686D01*
X0271910Y0313761D01*
X0271877Y0313838D01*
X0271848Y0313917D01*
X0271823Y0313996D01*
X0271801Y0314077D01*
X0271784Y0314159D01*
X0271770Y0314242D01*
X0271760Y0314325D01*
X0271754Y0314408D01*
X0271752Y0314492D01*
X0271752Y0326303D02*
X0271754Y0326387D01*
X0271760Y0326470D01*
X0271770Y0326553D01*
X0271784Y0326636D01*
X0271801Y0326718D01*
X0271823Y0326799D01*
X0271848Y0326878D01*
X0271877Y0326957D01*
X0271910Y0327034D01*
X0271946Y0327109D01*
X0271986Y0327183D01*
X0272029Y0327255D01*
X0272076Y0327324D01*
X0272126Y0327391D01*
X0272179Y0327456D01*
X0272235Y0327518D01*
X0272293Y0327578D01*
X0272355Y0327635D01*
X0272419Y0327688D01*
X0272486Y0327739D01*
X0272555Y0327786D01*
X0272626Y0327831D01*
X0272699Y0327871D01*
X0272774Y0327908D01*
X0272851Y0327942D01*
X0272929Y0327972D01*
X0273008Y0327998D01*
X0273089Y0328021D01*
X0273171Y0328039D01*
X0273253Y0328054D01*
X0273336Y0328065D01*
X0273419Y0328072D01*
X0273503Y0328075D01*
X0273587Y0328074D01*
X0273670Y0328069D01*
X0273754Y0328060D01*
X0273836Y0328047D01*
X0273918Y0328031D01*
X0273999Y0328010D01*
X0274080Y0327986D01*
X0274158Y0327958D01*
X0274236Y0327926D01*
X0274312Y0327890D01*
X0274386Y0327851D01*
X0274458Y0327809D01*
X0274528Y0327763D01*
X0274596Y0327714D01*
X0274661Y0327662D01*
X0274724Y0327607D01*
X0274784Y0327549D01*
X0274842Y0327488D01*
X0274896Y0327424D01*
X0274948Y0327358D01*
X0274996Y0327290D01*
X0275041Y0327219D01*
X0275082Y0327146D01*
X0275121Y0327072D01*
X0275155Y0326996D01*
X0275186Y0326918D01*
X0275213Y0326839D01*
X0275237Y0326758D01*
X0275256Y0326677D01*
X0275272Y0326595D01*
X0275284Y0326512D01*
X0275292Y0326428D01*
X0275296Y0326345D01*
X0275296Y0326261D01*
X0275292Y0326178D01*
X0275284Y0326094D01*
X0275272Y0326011D01*
X0275256Y0325929D01*
X0275237Y0325848D01*
X0275213Y0325767D01*
X0275186Y0325688D01*
X0275155Y0325610D01*
X0275121Y0325534D01*
X0275082Y0325460D01*
X0275041Y0325387D01*
X0274996Y0325316D01*
X0274948Y0325248D01*
X0274896Y0325182D01*
X0274842Y0325118D01*
X0274784Y0325057D01*
X0274724Y0324999D01*
X0274661Y0324944D01*
X0274596Y0324892D01*
X0274528Y0324843D01*
X0274458Y0324797D01*
X0274386Y0324755D01*
X0274312Y0324716D01*
X0274236Y0324680D01*
X0274158Y0324648D01*
X0274080Y0324620D01*
X0273999Y0324596D01*
X0273918Y0324575D01*
X0273836Y0324559D01*
X0273754Y0324546D01*
X0273670Y0324537D01*
X0273587Y0324532D01*
X0273503Y0324531D01*
X0273419Y0324534D01*
X0273336Y0324541D01*
X0273253Y0324552D01*
X0273171Y0324567D01*
X0273089Y0324585D01*
X0273008Y0324608D01*
X0272929Y0324634D01*
X0272851Y0324664D01*
X0272774Y0324698D01*
X0272699Y0324735D01*
X0272626Y0324775D01*
X0272555Y0324820D01*
X0272486Y0324867D01*
X0272419Y0324918D01*
X0272355Y0324971D01*
X0272293Y0325028D01*
X0272235Y0325088D01*
X0272179Y0325150D01*
X0272126Y0325215D01*
X0272076Y0325282D01*
X0272029Y0325351D01*
X0271986Y0325423D01*
X0271946Y0325497D01*
X0271910Y0325572D01*
X0271877Y0325649D01*
X0271848Y0325728D01*
X0271823Y0325807D01*
X0271801Y0325888D01*
X0271784Y0325970D01*
X0271770Y0326053D01*
X0271760Y0326136D01*
X0271754Y0326219D01*
X0271752Y0326303D01*
D11*
X0262107Y0359768D02*
X0262109Y0359908D01*
X0262115Y0360048D01*
X0262125Y0360187D01*
X0262139Y0360326D01*
X0262157Y0360465D01*
X0262178Y0360603D01*
X0262204Y0360741D01*
X0262234Y0360878D01*
X0262267Y0361013D01*
X0262305Y0361148D01*
X0262346Y0361282D01*
X0262391Y0361415D01*
X0262439Y0361546D01*
X0262492Y0361675D01*
X0262548Y0361804D01*
X0262607Y0361930D01*
X0262671Y0362055D01*
X0262737Y0362178D01*
X0262808Y0362299D01*
X0262881Y0362418D01*
X0262958Y0362535D01*
X0263039Y0362649D01*
X0263122Y0362761D01*
X0263209Y0362871D01*
X0263299Y0362979D01*
X0263391Y0363083D01*
X0263487Y0363185D01*
X0263586Y0363285D01*
X0263687Y0363381D01*
X0263791Y0363475D01*
X0263898Y0363565D01*
X0264007Y0363652D01*
X0264119Y0363737D01*
X0264233Y0363818D01*
X0264349Y0363896D01*
X0264467Y0363970D01*
X0264588Y0364041D01*
X0264710Y0364109D01*
X0264835Y0364173D01*
X0264961Y0364234D01*
X0265088Y0364291D01*
X0265218Y0364344D01*
X0265349Y0364394D01*
X0265481Y0364439D01*
X0265614Y0364482D01*
X0265749Y0364520D01*
X0265884Y0364554D01*
X0266021Y0364585D01*
X0266158Y0364612D01*
X0266296Y0364634D01*
X0266435Y0364653D01*
X0266574Y0364668D01*
X0266713Y0364679D01*
X0266853Y0364686D01*
X0266993Y0364689D01*
X0267133Y0364688D01*
X0267273Y0364683D01*
X0267412Y0364674D01*
X0267552Y0364661D01*
X0267691Y0364644D01*
X0267829Y0364623D01*
X0267967Y0364599D01*
X0268104Y0364570D01*
X0268240Y0364538D01*
X0268375Y0364501D01*
X0268509Y0364461D01*
X0268642Y0364417D01*
X0268773Y0364369D01*
X0268903Y0364318D01*
X0269032Y0364263D01*
X0269159Y0364204D01*
X0269284Y0364141D01*
X0269407Y0364076D01*
X0269529Y0364006D01*
X0269648Y0363933D01*
X0269766Y0363857D01*
X0269881Y0363778D01*
X0269994Y0363695D01*
X0270104Y0363609D01*
X0270212Y0363520D01*
X0270317Y0363428D01*
X0270420Y0363333D01*
X0270520Y0363235D01*
X0270617Y0363135D01*
X0270711Y0363031D01*
X0270803Y0362925D01*
X0270891Y0362817D01*
X0270976Y0362706D01*
X0271058Y0362592D01*
X0271137Y0362476D01*
X0271212Y0362359D01*
X0271284Y0362239D01*
X0271352Y0362117D01*
X0271417Y0361993D01*
X0271479Y0361867D01*
X0271537Y0361740D01*
X0271591Y0361611D01*
X0271642Y0361480D01*
X0271688Y0361348D01*
X0271731Y0361215D01*
X0271771Y0361081D01*
X0271806Y0360946D01*
X0271838Y0360809D01*
X0271865Y0360672D01*
X0271889Y0360534D01*
X0271909Y0360396D01*
X0271925Y0360257D01*
X0271937Y0360117D01*
X0271945Y0359978D01*
X0271949Y0359838D01*
X0271949Y0359698D01*
X0271945Y0359558D01*
X0271937Y0359419D01*
X0271925Y0359279D01*
X0271909Y0359140D01*
X0271889Y0359002D01*
X0271865Y0358864D01*
X0271838Y0358727D01*
X0271806Y0358590D01*
X0271771Y0358455D01*
X0271731Y0358321D01*
X0271688Y0358188D01*
X0271642Y0358056D01*
X0271591Y0357925D01*
X0271537Y0357796D01*
X0271479Y0357669D01*
X0271417Y0357543D01*
X0271352Y0357419D01*
X0271284Y0357297D01*
X0271212Y0357177D01*
X0271137Y0357060D01*
X0271058Y0356944D01*
X0270976Y0356830D01*
X0270891Y0356719D01*
X0270803Y0356611D01*
X0270711Y0356505D01*
X0270617Y0356401D01*
X0270520Y0356301D01*
X0270420Y0356203D01*
X0270317Y0356108D01*
X0270212Y0356016D01*
X0270104Y0355927D01*
X0269994Y0355841D01*
X0269881Y0355758D01*
X0269766Y0355679D01*
X0269648Y0355603D01*
X0269529Y0355530D01*
X0269407Y0355460D01*
X0269284Y0355395D01*
X0269159Y0355332D01*
X0269032Y0355273D01*
X0268903Y0355218D01*
X0268773Y0355167D01*
X0268642Y0355119D01*
X0268509Y0355075D01*
X0268375Y0355035D01*
X0268240Y0354998D01*
X0268104Y0354966D01*
X0267967Y0354937D01*
X0267829Y0354913D01*
X0267691Y0354892D01*
X0267552Y0354875D01*
X0267412Y0354862D01*
X0267273Y0354853D01*
X0267133Y0354848D01*
X0266993Y0354847D01*
X0266853Y0354850D01*
X0266713Y0354857D01*
X0266574Y0354868D01*
X0266435Y0354883D01*
X0266296Y0354902D01*
X0266158Y0354924D01*
X0266021Y0354951D01*
X0265884Y0354982D01*
X0265749Y0355016D01*
X0265614Y0355054D01*
X0265481Y0355097D01*
X0265349Y0355142D01*
X0265218Y0355192D01*
X0265088Y0355245D01*
X0264961Y0355302D01*
X0264835Y0355363D01*
X0264710Y0355427D01*
X0264588Y0355495D01*
X0264467Y0355566D01*
X0264349Y0355640D01*
X0264233Y0355718D01*
X0264119Y0355799D01*
X0264007Y0355884D01*
X0263898Y0355971D01*
X0263791Y0356061D01*
X0263687Y0356155D01*
X0263586Y0356251D01*
X0263487Y0356351D01*
X0263391Y0356453D01*
X0263299Y0356557D01*
X0263209Y0356665D01*
X0263122Y0356775D01*
X0263039Y0356887D01*
X0262958Y0357001D01*
X0262881Y0357118D01*
X0262808Y0357237D01*
X0262737Y0357358D01*
X0262671Y0357481D01*
X0262607Y0357606D01*
X0262548Y0357732D01*
X0262492Y0357861D01*
X0262439Y0357990D01*
X0262391Y0358121D01*
X0262346Y0358254D01*
X0262305Y0358388D01*
X0262267Y0358523D01*
X0262234Y0358658D01*
X0262204Y0358795D01*
X0262178Y0358933D01*
X0262157Y0359071D01*
X0262139Y0359210D01*
X0262125Y0359349D01*
X0262115Y0359488D01*
X0262109Y0359628D01*
X0262107Y0359768D01*
X0262107Y0135358D02*
X0262109Y0135498D01*
X0262115Y0135638D01*
X0262125Y0135777D01*
X0262139Y0135916D01*
X0262157Y0136055D01*
X0262178Y0136193D01*
X0262204Y0136331D01*
X0262234Y0136468D01*
X0262267Y0136603D01*
X0262305Y0136738D01*
X0262346Y0136872D01*
X0262391Y0137005D01*
X0262439Y0137136D01*
X0262492Y0137265D01*
X0262548Y0137394D01*
X0262607Y0137520D01*
X0262671Y0137645D01*
X0262737Y0137768D01*
X0262808Y0137889D01*
X0262881Y0138008D01*
X0262958Y0138125D01*
X0263039Y0138239D01*
X0263122Y0138351D01*
X0263209Y0138461D01*
X0263299Y0138569D01*
X0263391Y0138673D01*
X0263487Y0138775D01*
X0263586Y0138875D01*
X0263687Y0138971D01*
X0263791Y0139065D01*
X0263898Y0139155D01*
X0264007Y0139242D01*
X0264119Y0139327D01*
X0264233Y0139408D01*
X0264349Y0139486D01*
X0264467Y0139560D01*
X0264588Y0139631D01*
X0264710Y0139699D01*
X0264835Y0139763D01*
X0264961Y0139824D01*
X0265088Y0139881D01*
X0265218Y0139934D01*
X0265349Y0139984D01*
X0265481Y0140029D01*
X0265614Y0140072D01*
X0265749Y0140110D01*
X0265884Y0140144D01*
X0266021Y0140175D01*
X0266158Y0140202D01*
X0266296Y0140224D01*
X0266435Y0140243D01*
X0266574Y0140258D01*
X0266713Y0140269D01*
X0266853Y0140276D01*
X0266993Y0140279D01*
X0267133Y0140278D01*
X0267273Y0140273D01*
X0267412Y0140264D01*
X0267552Y0140251D01*
X0267691Y0140234D01*
X0267829Y0140213D01*
X0267967Y0140189D01*
X0268104Y0140160D01*
X0268240Y0140128D01*
X0268375Y0140091D01*
X0268509Y0140051D01*
X0268642Y0140007D01*
X0268773Y0139959D01*
X0268903Y0139908D01*
X0269032Y0139853D01*
X0269159Y0139794D01*
X0269284Y0139731D01*
X0269407Y0139666D01*
X0269529Y0139596D01*
X0269648Y0139523D01*
X0269766Y0139447D01*
X0269881Y0139368D01*
X0269994Y0139285D01*
X0270104Y0139199D01*
X0270212Y0139110D01*
X0270317Y0139018D01*
X0270420Y0138923D01*
X0270520Y0138825D01*
X0270617Y0138725D01*
X0270711Y0138621D01*
X0270803Y0138515D01*
X0270891Y0138407D01*
X0270976Y0138296D01*
X0271058Y0138182D01*
X0271137Y0138066D01*
X0271212Y0137949D01*
X0271284Y0137829D01*
X0271352Y0137707D01*
X0271417Y0137583D01*
X0271479Y0137457D01*
X0271537Y0137330D01*
X0271591Y0137201D01*
X0271642Y0137070D01*
X0271688Y0136938D01*
X0271731Y0136805D01*
X0271771Y0136671D01*
X0271806Y0136536D01*
X0271838Y0136399D01*
X0271865Y0136262D01*
X0271889Y0136124D01*
X0271909Y0135986D01*
X0271925Y0135847D01*
X0271937Y0135707D01*
X0271945Y0135568D01*
X0271949Y0135428D01*
X0271949Y0135288D01*
X0271945Y0135148D01*
X0271937Y0135009D01*
X0271925Y0134869D01*
X0271909Y0134730D01*
X0271889Y0134592D01*
X0271865Y0134454D01*
X0271838Y0134317D01*
X0271806Y0134180D01*
X0271771Y0134045D01*
X0271731Y0133911D01*
X0271688Y0133778D01*
X0271642Y0133646D01*
X0271591Y0133515D01*
X0271537Y0133386D01*
X0271479Y0133259D01*
X0271417Y0133133D01*
X0271352Y0133009D01*
X0271284Y0132887D01*
X0271212Y0132767D01*
X0271137Y0132650D01*
X0271058Y0132534D01*
X0270976Y0132420D01*
X0270891Y0132309D01*
X0270803Y0132201D01*
X0270711Y0132095D01*
X0270617Y0131991D01*
X0270520Y0131891D01*
X0270420Y0131793D01*
X0270317Y0131698D01*
X0270212Y0131606D01*
X0270104Y0131517D01*
X0269994Y0131431D01*
X0269881Y0131348D01*
X0269766Y0131269D01*
X0269648Y0131193D01*
X0269529Y0131120D01*
X0269407Y0131050D01*
X0269284Y0130985D01*
X0269159Y0130922D01*
X0269032Y0130863D01*
X0268903Y0130808D01*
X0268773Y0130757D01*
X0268642Y0130709D01*
X0268509Y0130665D01*
X0268375Y0130625D01*
X0268240Y0130588D01*
X0268104Y0130556D01*
X0267967Y0130527D01*
X0267829Y0130503D01*
X0267691Y0130482D01*
X0267552Y0130465D01*
X0267412Y0130452D01*
X0267273Y0130443D01*
X0267133Y0130438D01*
X0266993Y0130437D01*
X0266853Y0130440D01*
X0266713Y0130447D01*
X0266574Y0130458D01*
X0266435Y0130473D01*
X0266296Y0130492D01*
X0266158Y0130514D01*
X0266021Y0130541D01*
X0265884Y0130572D01*
X0265749Y0130606D01*
X0265614Y0130644D01*
X0265481Y0130687D01*
X0265349Y0130732D01*
X0265218Y0130782D01*
X0265088Y0130835D01*
X0264961Y0130892D01*
X0264835Y0130953D01*
X0264710Y0131017D01*
X0264588Y0131085D01*
X0264467Y0131156D01*
X0264349Y0131230D01*
X0264233Y0131308D01*
X0264119Y0131389D01*
X0264007Y0131474D01*
X0263898Y0131561D01*
X0263791Y0131651D01*
X0263687Y0131745D01*
X0263586Y0131841D01*
X0263487Y0131941D01*
X0263391Y0132043D01*
X0263299Y0132147D01*
X0263209Y0132255D01*
X0263122Y0132365D01*
X0263039Y0132477D01*
X0262958Y0132591D01*
X0262881Y0132708D01*
X0262808Y0132827D01*
X0262737Y0132948D01*
X0262671Y0133071D01*
X0262607Y0133196D01*
X0262548Y0133322D01*
X0262492Y0133451D01*
X0262439Y0133580D01*
X0262391Y0133711D01*
X0262346Y0133844D01*
X0262305Y0133978D01*
X0262267Y0134113D01*
X0262234Y0134248D01*
X0262204Y0134385D01*
X0262178Y0134523D01*
X0262157Y0134661D01*
X0262139Y0134800D01*
X0262125Y0134939D01*
X0262115Y0135078D01*
X0262109Y0135218D01*
X0262107Y0135358D01*
X0262107Y0017248D02*
X0262109Y0017388D01*
X0262115Y0017528D01*
X0262125Y0017667D01*
X0262139Y0017806D01*
X0262157Y0017945D01*
X0262178Y0018083D01*
X0262204Y0018221D01*
X0262234Y0018358D01*
X0262267Y0018493D01*
X0262305Y0018628D01*
X0262346Y0018762D01*
X0262391Y0018895D01*
X0262439Y0019026D01*
X0262492Y0019155D01*
X0262548Y0019284D01*
X0262607Y0019410D01*
X0262671Y0019535D01*
X0262737Y0019658D01*
X0262808Y0019779D01*
X0262881Y0019898D01*
X0262958Y0020015D01*
X0263039Y0020129D01*
X0263122Y0020241D01*
X0263209Y0020351D01*
X0263299Y0020459D01*
X0263391Y0020563D01*
X0263487Y0020665D01*
X0263586Y0020765D01*
X0263687Y0020861D01*
X0263791Y0020955D01*
X0263898Y0021045D01*
X0264007Y0021132D01*
X0264119Y0021217D01*
X0264233Y0021298D01*
X0264349Y0021376D01*
X0264467Y0021450D01*
X0264588Y0021521D01*
X0264710Y0021589D01*
X0264835Y0021653D01*
X0264961Y0021714D01*
X0265088Y0021771D01*
X0265218Y0021824D01*
X0265349Y0021874D01*
X0265481Y0021919D01*
X0265614Y0021962D01*
X0265749Y0022000D01*
X0265884Y0022034D01*
X0266021Y0022065D01*
X0266158Y0022092D01*
X0266296Y0022114D01*
X0266435Y0022133D01*
X0266574Y0022148D01*
X0266713Y0022159D01*
X0266853Y0022166D01*
X0266993Y0022169D01*
X0267133Y0022168D01*
X0267273Y0022163D01*
X0267412Y0022154D01*
X0267552Y0022141D01*
X0267691Y0022124D01*
X0267829Y0022103D01*
X0267967Y0022079D01*
X0268104Y0022050D01*
X0268240Y0022018D01*
X0268375Y0021981D01*
X0268509Y0021941D01*
X0268642Y0021897D01*
X0268773Y0021849D01*
X0268903Y0021798D01*
X0269032Y0021743D01*
X0269159Y0021684D01*
X0269284Y0021621D01*
X0269407Y0021556D01*
X0269529Y0021486D01*
X0269648Y0021413D01*
X0269766Y0021337D01*
X0269881Y0021258D01*
X0269994Y0021175D01*
X0270104Y0021089D01*
X0270212Y0021000D01*
X0270317Y0020908D01*
X0270420Y0020813D01*
X0270520Y0020715D01*
X0270617Y0020615D01*
X0270711Y0020511D01*
X0270803Y0020405D01*
X0270891Y0020297D01*
X0270976Y0020186D01*
X0271058Y0020072D01*
X0271137Y0019956D01*
X0271212Y0019839D01*
X0271284Y0019719D01*
X0271352Y0019597D01*
X0271417Y0019473D01*
X0271479Y0019347D01*
X0271537Y0019220D01*
X0271591Y0019091D01*
X0271642Y0018960D01*
X0271688Y0018828D01*
X0271731Y0018695D01*
X0271771Y0018561D01*
X0271806Y0018426D01*
X0271838Y0018289D01*
X0271865Y0018152D01*
X0271889Y0018014D01*
X0271909Y0017876D01*
X0271925Y0017737D01*
X0271937Y0017597D01*
X0271945Y0017458D01*
X0271949Y0017318D01*
X0271949Y0017178D01*
X0271945Y0017038D01*
X0271937Y0016899D01*
X0271925Y0016759D01*
X0271909Y0016620D01*
X0271889Y0016482D01*
X0271865Y0016344D01*
X0271838Y0016207D01*
X0271806Y0016070D01*
X0271771Y0015935D01*
X0271731Y0015801D01*
X0271688Y0015668D01*
X0271642Y0015536D01*
X0271591Y0015405D01*
X0271537Y0015276D01*
X0271479Y0015149D01*
X0271417Y0015023D01*
X0271352Y0014899D01*
X0271284Y0014777D01*
X0271212Y0014657D01*
X0271137Y0014540D01*
X0271058Y0014424D01*
X0270976Y0014310D01*
X0270891Y0014199D01*
X0270803Y0014091D01*
X0270711Y0013985D01*
X0270617Y0013881D01*
X0270520Y0013781D01*
X0270420Y0013683D01*
X0270317Y0013588D01*
X0270212Y0013496D01*
X0270104Y0013407D01*
X0269994Y0013321D01*
X0269881Y0013238D01*
X0269766Y0013159D01*
X0269648Y0013083D01*
X0269529Y0013010D01*
X0269407Y0012940D01*
X0269284Y0012875D01*
X0269159Y0012812D01*
X0269032Y0012753D01*
X0268903Y0012698D01*
X0268773Y0012647D01*
X0268642Y0012599D01*
X0268509Y0012555D01*
X0268375Y0012515D01*
X0268240Y0012478D01*
X0268104Y0012446D01*
X0267967Y0012417D01*
X0267829Y0012393D01*
X0267691Y0012372D01*
X0267552Y0012355D01*
X0267412Y0012342D01*
X0267273Y0012333D01*
X0267133Y0012328D01*
X0266993Y0012327D01*
X0266853Y0012330D01*
X0266713Y0012337D01*
X0266574Y0012348D01*
X0266435Y0012363D01*
X0266296Y0012382D01*
X0266158Y0012404D01*
X0266021Y0012431D01*
X0265884Y0012462D01*
X0265749Y0012496D01*
X0265614Y0012534D01*
X0265481Y0012577D01*
X0265349Y0012622D01*
X0265218Y0012672D01*
X0265088Y0012725D01*
X0264961Y0012782D01*
X0264835Y0012843D01*
X0264710Y0012907D01*
X0264588Y0012975D01*
X0264467Y0013046D01*
X0264349Y0013120D01*
X0264233Y0013198D01*
X0264119Y0013279D01*
X0264007Y0013364D01*
X0263898Y0013451D01*
X0263791Y0013541D01*
X0263687Y0013635D01*
X0263586Y0013731D01*
X0263487Y0013831D01*
X0263391Y0013933D01*
X0263299Y0014037D01*
X0263209Y0014145D01*
X0263122Y0014255D01*
X0263039Y0014367D01*
X0262958Y0014481D01*
X0262881Y0014598D01*
X0262808Y0014717D01*
X0262737Y0014838D01*
X0262671Y0014961D01*
X0262607Y0015086D01*
X0262548Y0015212D01*
X0262492Y0015341D01*
X0262439Y0015470D01*
X0262391Y0015601D01*
X0262346Y0015734D01*
X0262305Y0015868D01*
X0262267Y0016003D01*
X0262234Y0016138D01*
X0262204Y0016275D01*
X0262178Y0016413D01*
X0262157Y0016551D01*
X0262139Y0016690D01*
X0262125Y0016829D01*
X0262115Y0016968D01*
X0262109Y0017108D01*
X0262107Y0017248D01*
X0014075Y0017248D02*
X0014077Y0017388D01*
X0014083Y0017528D01*
X0014093Y0017667D01*
X0014107Y0017806D01*
X0014125Y0017945D01*
X0014146Y0018083D01*
X0014172Y0018221D01*
X0014202Y0018358D01*
X0014235Y0018493D01*
X0014273Y0018628D01*
X0014314Y0018762D01*
X0014359Y0018895D01*
X0014407Y0019026D01*
X0014460Y0019155D01*
X0014516Y0019284D01*
X0014575Y0019410D01*
X0014639Y0019535D01*
X0014705Y0019658D01*
X0014776Y0019779D01*
X0014849Y0019898D01*
X0014926Y0020015D01*
X0015007Y0020129D01*
X0015090Y0020241D01*
X0015177Y0020351D01*
X0015267Y0020459D01*
X0015359Y0020563D01*
X0015455Y0020665D01*
X0015554Y0020765D01*
X0015655Y0020861D01*
X0015759Y0020955D01*
X0015866Y0021045D01*
X0015975Y0021132D01*
X0016087Y0021217D01*
X0016201Y0021298D01*
X0016317Y0021376D01*
X0016435Y0021450D01*
X0016556Y0021521D01*
X0016678Y0021589D01*
X0016803Y0021653D01*
X0016929Y0021714D01*
X0017056Y0021771D01*
X0017186Y0021824D01*
X0017317Y0021874D01*
X0017449Y0021919D01*
X0017582Y0021962D01*
X0017717Y0022000D01*
X0017852Y0022034D01*
X0017989Y0022065D01*
X0018126Y0022092D01*
X0018264Y0022114D01*
X0018403Y0022133D01*
X0018542Y0022148D01*
X0018681Y0022159D01*
X0018821Y0022166D01*
X0018961Y0022169D01*
X0019101Y0022168D01*
X0019241Y0022163D01*
X0019380Y0022154D01*
X0019520Y0022141D01*
X0019659Y0022124D01*
X0019797Y0022103D01*
X0019935Y0022079D01*
X0020072Y0022050D01*
X0020208Y0022018D01*
X0020343Y0021981D01*
X0020477Y0021941D01*
X0020610Y0021897D01*
X0020741Y0021849D01*
X0020871Y0021798D01*
X0021000Y0021743D01*
X0021127Y0021684D01*
X0021252Y0021621D01*
X0021375Y0021556D01*
X0021497Y0021486D01*
X0021616Y0021413D01*
X0021734Y0021337D01*
X0021849Y0021258D01*
X0021962Y0021175D01*
X0022072Y0021089D01*
X0022180Y0021000D01*
X0022285Y0020908D01*
X0022388Y0020813D01*
X0022488Y0020715D01*
X0022585Y0020615D01*
X0022679Y0020511D01*
X0022771Y0020405D01*
X0022859Y0020297D01*
X0022944Y0020186D01*
X0023026Y0020072D01*
X0023105Y0019956D01*
X0023180Y0019839D01*
X0023252Y0019719D01*
X0023320Y0019597D01*
X0023385Y0019473D01*
X0023447Y0019347D01*
X0023505Y0019220D01*
X0023559Y0019091D01*
X0023610Y0018960D01*
X0023656Y0018828D01*
X0023699Y0018695D01*
X0023739Y0018561D01*
X0023774Y0018426D01*
X0023806Y0018289D01*
X0023833Y0018152D01*
X0023857Y0018014D01*
X0023877Y0017876D01*
X0023893Y0017737D01*
X0023905Y0017597D01*
X0023913Y0017458D01*
X0023917Y0017318D01*
X0023917Y0017178D01*
X0023913Y0017038D01*
X0023905Y0016899D01*
X0023893Y0016759D01*
X0023877Y0016620D01*
X0023857Y0016482D01*
X0023833Y0016344D01*
X0023806Y0016207D01*
X0023774Y0016070D01*
X0023739Y0015935D01*
X0023699Y0015801D01*
X0023656Y0015668D01*
X0023610Y0015536D01*
X0023559Y0015405D01*
X0023505Y0015276D01*
X0023447Y0015149D01*
X0023385Y0015023D01*
X0023320Y0014899D01*
X0023252Y0014777D01*
X0023180Y0014657D01*
X0023105Y0014540D01*
X0023026Y0014424D01*
X0022944Y0014310D01*
X0022859Y0014199D01*
X0022771Y0014091D01*
X0022679Y0013985D01*
X0022585Y0013881D01*
X0022488Y0013781D01*
X0022388Y0013683D01*
X0022285Y0013588D01*
X0022180Y0013496D01*
X0022072Y0013407D01*
X0021962Y0013321D01*
X0021849Y0013238D01*
X0021734Y0013159D01*
X0021616Y0013083D01*
X0021497Y0013010D01*
X0021375Y0012940D01*
X0021252Y0012875D01*
X0021127Y0012812D01*
X0021000Y0012753D01*
X0020871Y0012698D01*
X0020741Y0012647D01*
X0020610Y0012599D01*
X0020477Y0012555D01*
X0020343Y0012515D01*
X0020208Y0012478D01*
X0020072Y0012446D01*
X0019935Y0012417D01*
X0019797Y0012393D01*
X0019659Y0012372D01*
X0019520Y0012355D01*
X0019380Y0012342D01*
X0019241Y0012333D01*
X0019101Y0012328D01*
X0018961Y0012327D01*
X0018821Y0012330D01*
X0018681Y0012337D01*
X0018542Y0012348D01*
X0018403Y0012363D01*
X0018264Y0012382D01*
X0018126Y0012404D01*
X0017989Y0012431D01*
X0017852Y0012462D01*
X0017717Y0012496D01*
X0017582Y0012534D01*
X0017449Y0012577D01*
X0017317Y0012622D01*
X0017186Y0012672D01*
X0017056Y0012725D01*
X0016929Y0012782D01*
X0016803Y0012843D01*
X0016678Y0012907D01*
X0016556Y0012975D01*
X0016435Y0013046D01*
X0016317Y0013120D01*
X0016201Y0013198D01*
X0016087Y0013279D01*
X0015975Y0013364D01*
X0015866Y0013451D01*
X0015759Y0013541D01*
X0015655Y0013635D01*
X0015554Y0013731D01*
X0015455Y0013831D01*
X0015359Y0013933D01*
X0015267Y0014037D01*
X0015177Y0014145D01*
X0015090Y0014255D01*
X0015007Y0014367D01*
X0014926Y0014481D01*
X0014849Y0014598D01*
X0014776Y0014717D01*
X0014705Y0014838D01*
X0014639Y0014961D01*
X0014575Y0015086D01*
X0014516Y0015212D01*
X0014460Y0015341D01*
X0014407Y0015470D01*
X0014359Y0015601D01*
X0014314Y0015734D01*
X0014273Y0015868D01*
X0014235Y0016003D01*
X0014202Y0016138D01*
X0014172Y0016275D01*
X0014146Y0016413D01*
X0014125Y0016551D01*
X0014107Y0016690D01*
X0014093Y0016829D01*
X0014083Y0016968D01*
X0014077Y0017108D01*
X0014075Y0017248D01*
X0014075Y0359768D02*
X0014077Y0359908D01*
X0014083Y0360048D01*
X0014093Y0360187D01*
X0014107Y0360326D01*
X0014125Y0360465D01*
X0014146Y0360603D01*
X0014172Y0360741D01*
X0014202Y0360878D01*
X0014235Y0361013D01*
X0014273Y0361148D01*
X0014314Y0361282D01*
X0014359Y0361415D01*
X0014407Y0361546D01*
X0014460Y0361675D01*
X0014516Y0361804D01*
X0014575Y0361930D01*
X0014639Y0362055D01*
X0014705Y0362178D01*
X0014776Y0362299D01*
X0014849Y0362418D01*
X0014926Y0362535D01*
X0015007Y0362649D01*
X0015090Y0362761D01*
X0015177Y0362871D01*
X0015267Y0362979D01*
X0015359Y0363083D01*
X0015455Y0363185D01*
X0015554Y0363285D01*
X0015655Y0363381D01*
X0015759Y0363475D01*
X0015866Y0363565D01*
X0015975Y0363652D01*
X0016087Y0363737D01*
X0016201Y0363818D01*
X0016317Y0363896D01*
X0016435Y0363970D01*
X0016556Y0364041D01*
X0016678Y0364109D01*
X0016803Y0364173D01*
X0016929Y0364234D01*
X0017056Y0364291D01*
X0017186Y0364344D01*
X0017317Y0364394D01*
X0017449Y0364439D01*
X0017582Y0364482D01*
X0017717Y0364520D01*
X0017852Y0364554D01*
X0017989Y0364585D01*
X0018126Y0364612D01*
X0018264Y0364634D01*
X0018403Y0364653D01*
X0018542Y0364668D01*
X0018681Y0364679D01*
X0018821Y0364686D01*
X0018961Y0364689D01*
X0019101Y0364688D01*
X0019241Y0364683D01*
X0019380Y0364674D01*
X0019520Y0364661D01*
X0019659Y0364644D01*
X0019797Y0364623D01*
X0019935Y0364599D01*
X0020072Y0364570D01*
X0020208Y0364538D01*
X0020343Y0364501D01*
X0020477Y0364461D01*
X0020610Y0364417D01*
X0020741Y0364369D01*
X0020871Y0364318D01*
X0021000Y0364263D01*
X0021127Y0364204D01*
X0021252Y0364141D01*
X0021375Y0364076D01*
X0021497Y0364006D01*
X0021616Y0363933D01*
X0021734Y0363857D01*
X0021849Y0363778D01*
X0021962Y0363695D01*
X0022072Y0363609D01*
X0022180Y0363520D01*
X0022285Y0363428D01*
X0022388Y0363333D01*
X0022488Y0363235D01*
X0022585Y0363135D01*
X0022679Y0363031D01*
X0022771Y0362925D01*
X0022859Y0362817D01*
X0022944Y0362706D01*
X0023026Y0362592D01*
X0023105Y0362476D01*
X0023180Y0362359D01*
X0023252Y0362239D01*
X0023320Y0362117D01*
X0023385Y0361993D01*
X0023447Y0361867D01*
X0023505Y0361740D01*
X0023559Y0361611D01*
X0023610Y0361480D01*
X0023656Y0361348D01*
X0023699Y0361215D01*
X0023739Y0361081D01*
X0023774Y0360946D01*
X0023806Y0360809D01*
X0023833Y0360672D01*
X0023857Y0360534D01*
X0023877Y0360396D01*
X0023893Y0360257D01*
X0023905Y0360117D01*
X0023913Y0359978D01*
X0023917Y0359838D01*
X0023917Y0359698D01*
X0023913Y0359558D01*
X0023905Y0359419D01*
X0023893Y0359279D01*
X0023877Y0359140D01*
X0023857Y0359002D01*
X0023833Y0358864D01*
X0023806Y0358727D01*
X0023774Y0358590D01*
X0023739Y0358455D01*
X0023699Y0358321D01*
X0023656Y0358188D01*
X0023610Y0358056D01*
X0023559Y0357925D01*
X0023505Y0357796D01*
X0023447Y0357669D01*
X0023385Y0357543D01*
X0023320Y0357419D01*
X0023252Y0357297D01*
X0023180Y0357177D01*
X0023105Y0357060D01*
X0023026Y0356944D01*
X0022944Y0356830D01*
X0022859Y0356719D01*
X0022771Y0356611D01*
X0022679Y0356505D01*
X0022585Y0356401D01*
X0022488Y0356301D01*
X0022388Y0356203D01*
X0022285Y0356108D01*
X0022180Y0356016D01*
X0022072Y0355927D01*
X0021962Y0355841D01*
X0021849Y0355758D01*
X0021734Y0355679D01*
X0021616Y0355603D01*
X0021497Y0355530D01*
X0021375Y0355460D01*
X0021252Y0355395D01*
X0021127Y0355332D01*
X0021000Y0355273D01*
X0020871Y0355218D01*
X0020741Y0355167D01*
X0020610Y0355119D01*
X0020477Y0355075D01*
X0020343Y0355035D01*
X0020208Y0354998D01*
X0020072Y0354966D01*
X0019935Y0354937D01*
X0019797Y0354913D01*
X0019659Y0354892D01*
X0019520Y0354875D01*
X0019380Y0354862D01*
X0019241Y0354853D01*
X0019101Y0354848D01*
X0018961Y0354847D01*
X0018821Y0354850D01*
X0018681Y0354857D01*
X0018542Y0354868D01*
X0018403Y0354883D01*
X0018264Y0354902D01*
X0018126Y0354924D01*
X0017989Y0354951D01*
X0017852Y0354982D01*
X0017717Y0355016D01*
X0017582Y0355054D01*
X0017449Y0355097D01*
X0017317Y0355142D01*
X0017186Y0355192D01*
X0017056Y0355245D01*
X0016929Y0355302D01*
X0016803Y0355363D01*
X0016678Y0355427D01*
X0016556Y0355495D01*
X0016435Y0355566D01*
X0016317Y0355640D01*
X0016201Y0355718D01*
X0016087Y0355799D01*
X0015975Y0355884D01*
X0015866Y0355971D01*
X0015759Y0356061D01*
X0015655Y0356155D01*
X0015554Y0356251D01*
X0015455Y0356351D01*
X0015359Y0356453D01*
X0015267Y0356557D01*
X0015177Y0356665D01*
X0015090Y0356775D01*
X0015007Y0356887D01*
X0014926Y0357001D01*
X0014849Y0357118D01*
X0014776Y0357237D01*
X0014705Y0357358D01*
X0014639Y0357481D01*
X0014575Y0357606D01*
X0014516Y0357732D01*
X0014460Y0357861D01*
X0014407Y0357990D01*
X0014359Y0358121D01*
X0014314Y0358254D01*
X0014273Y0358388D01*
X0014235Y0358523D01*
X0014202Y0358658D01*
X0014172Y0358795D01*
X0014146Y0358933D01*
X0014125Y0359071D01*
X0014107Y0359210D01*
X0014093Y0359349D01*
X0014083Y0359488D01*
X0014077Y0359628D01*
X0014075Y0359768D01*
D12*
X0042747Y0356991D03*
X0046798Y0356316D03*
X0049499Y0356316D03*
X0050849Y0356991D03*
X0060302Y0294873D03*
X0058952Y0290822D03*
X0065704Y0283732D03*
X0027218Y0191230D03*
X0052875Y0189205D03*
X0048824Y0088938D03*
X0069755Y0050114D03*
X0069755Y0034585D03*
X0160906Y0156458D03*
X0160906Y0156795D03*
X0170359Y0171987D03*
X0171034Y0171987D03*
X0171710Y0171987D03*
X0170359Y0180090D03*
X0180487Y0180090D03*
X0191290Y0180090D03*
X0195342Y0180090D03*
X0199393Y0171987D03*
X0195342Y0161522D03*
X0218298Y0171987D03*
X0226401Y0185491D03*
X0226401Y0189880D03*
X0263536Y0202709D03*
X0264887Y0203384D03*
X0265562Y0203384D03*
X0266237Y0203046D03*
X0266912Y0203046D03*
X0264887Y0204734D03*
X0275015Y0182790D03*
X0275015Y0182453D03*
X0275015Y0182115D03*
X0275015Y0181778D03*
X0275015Y0181440D03*
X0275015Y0181102D03*
X0275015Y0180765D03*
X0275015Y0180427D03*
X0275015Y0180090D03*
X0275015Y0179752D03*
X0275015Y0179414D03*
X0275015Y0179077D03*
X0275015Y0178739D03*
X0275015Y0178402D03*
X0275015Y0178064D03*
X0275015Y0177726D03*
X0275015Y0177389D03*
X0275015Y0177051D03*
X0275015Y0176714D03*
X0275015Y0176376D03*
X0275015Y0176038D03*
X0275015Y0175701D03*
X0275015Y0175363D03*
X0275015Y0175026D03*
X0275015Y0174688D03*
X0275015Y0174350D03*
X0275015Y0174013D03*
X0275015Y0173675D03*
X0275015Y0173338D03*
X0275015Y0173000D03*
X0275015Y0172662D03*
X0275015Y0172325D03*
X0275015Y0171987D03*
X0275015Y0171650D03*
X0275015Y0171312D03*
X0275015Y0170974D03*
X0275015Y0170637D03*
X0275015Y0170299D03*
X0275015Y0169962D03*
X0275015Y0169624D03*
X0275015Y0169286D03*
X0275015Y0168949D03*
X0275015Y0168611D03*
X0275015Y0168274D03*
X0275015Y0167936D03*
X0275015Y0167598D03*
X0275015Y0167261D03*
X0275015Y0166923D03*
X0275015Y0166586D03*
X0275015Y0166248D03*
X0275015Y0165910D03*
X0275015Y0165573D03*
X0275015Y0165235D03*
X0275015Y0164898D03*
X0275015Y0164560D03*
X0275015Y0164222D03*
X0275015Y0163885D03*
X0275015Y0163547D03*
X0275015Y0163210D03*
X0275015Y0162197D03*
X0275015Y0161859D03*
X0275015Y0161522D03*
X0275015Y0161184D03*
X0275015Y0160846D03*
X0275015Y0160509D03*
X0275015Y0159496D03*
X0275015Y0159158D03*
X0275015Y0158821D03*
X0275015Y0158483D03*
X0275015Y0158146D03*
X0275015Y0157808D03*
X0274340Y0156120D03*
X0235853Y0097040D03*
X0238554Y0095690D03*
X0237204Y0094002D03*
X0214247Y0051127D03*
X0211546Y0041337D03*
X0210871Y0039311D03*
X0177111Y0213849D03*
X0175761Y0216550D03*
X0190615Y0280694D03*
X0193991Y0284745D03*
X0199393Y0284745D03*
X0199393Y0281707D03*
X0172385Y0289471D03*
X0261511Y0282720D03*
D13*
X0264043Y0267528D03*
X0262693Y0303313D03*
X0218130Y0354290D03*
X0216104Y0355978D03*
X0215766Y0355641D03*
X0215429Y0355303D03*
X0214416Y0354628D03*
X0214416Y0354290D03*
X0214416Y0357666D03*
X0218130Y0357666D03*
X0217792Y0361718D03*
X0217792Y0362055D03*
X0217792Y0364418D03*
X0217792Y0364756D03*
X0217792Y0365094D03*
X0215091Y0365094D03*
X0212728Y0365094D03*
X0212728Y0364756D03*
X0212728Y0364418D03*
X0212728Y0364081D03*
X0212728Y0363743D03*
X0212728Y0363406D03*
X0212728Y0363068D03*
X0212728Y0362730D03*
X0212728Y0362393D03*
X0170528Y0362393D03*
X0170528Y0362730D03*
X0170528Y0363068D03*
X0170528Y0363406D03*
X0170528Y0363743D03*
X0170528Y0364081D03*
X0170528Y0364418D03*
X0170528Y0364756D03*
X0170528Y0365431D03*
X0168165Y0365094D03*
X0166139Y0365094D03*
X0165464Y0362730D03*
X0165464Y0362393D03*
X0163101Y0365094D03*
X0160400Y0365094D03*
X0160400Y0364756D03*
X0160400Y0364418D03*
X0160400Y0364081D03*
X0160400Y0363068D03*
X0160400Y0362730D03*
X0160400Y0362393D03*
X0166477Y0358004D03*
X0164451Y0354628D03*
X0164451Y0353615D03*
X0191797Y0292510D03*
X0191797Y0291497D03*
X0191797Y0291159D03*
X0191797Y0290822D03*
X0191797Y0290484D03*
X0191797Y0290147D03*
X0191797Y0289809D03*
X0191797Y0289471D03*
X0191797Y0289134D03*
X0192472Y0286095D03*
X0191459Y0285420D03*
X0191459Y0285083D03*
X0191459Y0284745D03*
X0191459Y0284408D03*
X0193147Y0283395D03*
X0194160Y0285083D03*
X0197536Y0284408D03*
X0198211Y0289134D03*
X0198211Y0289471D03*
X0198211Y0289809D03*
X0198211Y0290147D03*
X0198211Y0290484D03*
X0198211Y0290822D03*
X0198211Y0291159D03*
X0198211Y0291497D03*
X0198211Y0292510D03*
X0176267Y0216888D03*
X0184707Y0214187D03*
X0178630Y0205409D03*
X0178630Y0205072D03*
X0178630Y0204734D03*
X0178630Y0204397D03*
X0178630Y0204059D03*
X0178630Y0203721D03*
X0178630Y0203384D03*
X0178630Y0203046D03*
X0178630Y0202709D03*
X0178630Y0202371D03*
X0178630Y0202033D03*
X0172216Y0202709D03*
X0172216Y0203046D03*
X0172216Y0203384D03*
X0172216Y0203721D03*
X0172216Y0204059D03*
X0172216Y0204397D03*
X0172216Y0204734D03*
X0172216Y0205072D03*
X0172216Y0205409D03*
X0167827Y0205072D03*
X0167827Y0204734D03*
X0167827Y0204397D03*
X0167827Y0204059D03*
X0167827Y0203721D03*
X0167827Y0203384D03*
X0167827Y0203046D03*
X0167827Y0202709D03*
X0164789Y0202709D03*
X0164789Y0203046D03*
X0164789Y0203384D03*
X0164789Y0203721D03*
X0164789Y0204059D03*
X0164789Y0204397D03*
X0164789Y0204734D03*
X0164789Y0205072D03*
X0164789Y0205409D03*
X0161413Y0205747D03*
X0161413Y0203384D03*
X0161413Y0203046D03*
X0161413Y0202709D03*
X0161413Y0202371D03*
X0161413Y0202033D03*
X0158374Y0202033D03*
X0158374Y0202371D03*
X0158374Y0204397D03*
X0158374Y0204734D03*
X0158374Y0205072D03*
X0158374Y0205409D03*
X0158374Y0205747D03*
X0177618Y0179414D03*
X0177618Y0178064D03*
X0177618Y0177726D03*
X0179981Y0177051D03*
X0182344Y0178064D03*
X0182006Y0180090D03*
X0189433Y0179077D03*
X0189433Y0177051D03*
X0194160Y0178064D03*
X0194835Y0171987D03*
X0196523Y0171312D03*
X0196523Y0169962D03*
X0194498Y0168949D03*
X0198886Y0169962D03*
X0203613Y0168949D03*
X0205976Y0168949D03*
X0213403Y0168949D03*
X0213741Y0169286D03*
X0215429Y0169962D03*
X0215429Y0171312D03*
X0213741Y0171987D03*
X0217792Y0168949D03*
X0220155Y0169962D03*
X0219817Y0171987D03*
X0227582Y0185491D03*
X0226907Y0187517D03*
X0226907Y0187854D03*
X0226907Y0188192D03*
X0226907Y0188530D03*
X0228595Y0188530D03*
X0228595Y0188192D03*
X0228595Y0187854D03*
X0237372Y0188867D03*
X0237372Y0189205D03*
X0239398Y0189542D03*
X0239398Y0189880D03*
X0244800Y0189880D03*
X0244800Y0189542D03*
X0253577Y0189205D03*
X0253577Y0188867D03*
X0253577Y0186504D03*
X0253577Y0186166D03*
X0256278Y0187517D03*
X0256278Y0187854D03*
X0261680Y0186504D03*
X0261680Y0186166D03*
X0264380Y0185829D03*
X0264380Y0185491D03*
X0264380Y0187517D03*
X0264380Y0187854D03*
X0261680Y0189542D03*
X0261680Y0189880D03*
X0267081Y0189880D03*
X0267081Y0189542D03*
X0269107Y0189205D03*
X0269107Y0188867D03*
X0269107Y0186504D03*
X0269107Y0186166D03*
X0267081Y0185829D03*
X0267081Y0185491D03*
X0256278Y0202033D03*
X0256278Y0202371D03*
X0256278Y0202709D03*
X0256278Y0203046D03*
X0256278Y0203384D03*
X0256278Y0204397D03*
X0256278Y0204734D03*
X0256278Y0205072D03*
X0256278Y0205409D03*
X0256278Y0205747D03*
X0253240Y0205747D03*
X0253240Y0205409D03*
X0253240Y0205072D03*
X0253240Y0204734D03*
X0253240Y0204397D03*
X0253240Y0203384D03*
X0253240Y0203046D03*
X0253240Y0202709D03*
X0253240Y0202371D03*
X0253240Y0202033D03*
X0249864Y0202033D03*
X0249864Y0202371D03*
X0249864Y0202709D03*
X0249864Y0203046D03*
X0249864Y0203721D03*
X0249864Y0204059D03*
X0249864Y0204397D03*
X0249864Y0204734D03*
X0249189Y0205072D03*
X0249189Y0205409D03*
X0247500Y0205409D03*
X0247500Y0205072D03*
X0246825Y0204734D03*
X0246825Y0204397D03*
X0246825Y0204059D03*
X0246825Y0203721D03*
X0246825Y0203046D03*
X0246825Y0202709D03*
X0246825Y0202371D03*
X0246825Y0202033D03*
X0234672Y0203046D03*
X0230958Y0203046D03*
X0230958Y0202709D03*
X0230958Y0202371D03*
X0230958Y0202033D03*
X0230958Y0203384D03*
X0230958Y0204397D03*
X0230958Y0204734D03*
X0230958Y0205072D03*
X0230958Y0205409D03*
X0230958Y0205747D03*
X0227920Y0205747D03*
X0227920Y0205409D03*
X0227920Y0205072D03*
X0227920Y0204734D03*
X0227920Y0204397D03*
X0227920Y0203384D03*
X0227920Y0203046D03*
X0227920Y0202709D03*
X0227920Y0202371D03*
X0227920Y0202033D03*
X0224544Y0202709D03*
X0224544Y0203046D03*
X0224544Y0203384D03*
X0224544Y0204397D03*
X0224544Y0204734D03*
X0224544Y0205072D03*
X0224544Y0205409D03*
X0212053Y0205409D03*
X0212053Y0205072D03*
X0212053Y0204734D03*
X0212053Y0204397D03*
X0212053Y0204059D03*
X0212053Y0203721D03*
X0212053Y0203384D03*
X0212053Y0203046D03*
X0212053Y0202709D03*
X0209352Y0203046D03*
X0209014Y0203384D03*
X0209014Y0203721D03*
X0209014Y0204059D03*
X0209014Y0204397D03*
X0209014Y0204734D03*
X0199224Y0204397D03*
X0199224Y0205409D03*
X0190446Y0203046D03*
X0168165Y0179077D03*
X0168165Y0178064D03*
X0168165Y0177051D03*
X0172891Y0169962D03*
X0175254Y0168949D03*
X0172554Y0163885D03*
X0177618Y0163210D03*
X0177618Y0161859D03*
X0177618Y0161522D03*
X0166477Y0161184D03*
X0190446Y0169962D03*
X0191797Y0161184D03*
X0229608Y0169286D03*
X0229608Y0171650D03*
X0231971Y0169962D03*
X0265731Y0209123D03*
X0265731Y0210811D03*
X0267756Y0209461D03*
X0267756Y0208110D03*
X0266406Y0207435D03*
X0272145Y0208448D03*
X0235685Y0104468D03*
X0234334Y0101429D03*
X0233996Y0100754D03*
X0233659Y0100079D03*
X0235685Y0097378D03*
X0238723Y0097040D03*
X0237372Y0093664D03*
X0237035Y0092989D03*
X0235685Y0089951D03*
X0235347Y0089276D03*
X0232309Y0094677D03*
X0240411Y0100754D03*
X0214416Y0050789D03*
X0213065Y0047751D03*
X0212728Y0047076D03*
X0212390Y0046401D03*
X0214416Y0043700D03*
X0215766Y0041337D03*
X0217454Y0043362D03*
X0219142Y0047076D03*
X0215429Y0038636D03*
X0214416Y0036273D03*
X0214078Y0035597D03*
X0209014Y0038973D03*
X0209689Y0040661D03*
X0210027Y0041337D03*
X0088492Y0187854D03*
X0088492Y0188192D03*
X0088492Y0188530D03*
X0088492Y0188867D03*
X0088492Y0189205D03*
X0088492Y0189542D03*
X0088492Y0189880D03*
X0088492Y0190218D03*
X0088492Y0190555D03*
X0088492Y0190893D03*
X0088492Y0191230D03*
X0085116Y0191230D03*
X0085116Y0190893D03*
X0085116Y0190555D03*
X0085116Y0190218D03*
X0085116Y0189880D03*
X0085116Y0189542D03*
X0085116Y0188867D03*
X0085116Y0188530D03*
X0085116Y0188192D03*
X0085116Y0187854D03*
X0082077Y0189880D03*
X0082077Y0190218D03*
X0082077Y0190555D03*
X0082077Y0190893D03*
X0080052Y0189880D03*
X0080052Y0189542D03*
X0079376Y0190218D03*
X0079376Y0190555D03*
X0077689Y0190555D03*
X0077689Y0190218D03*
X0077689Y0189880D03*
X0077689Y0189542D03*
X0077689Y0188867D03*
X0077689Y0188530D03*
X0077689Y0188192D03*
X0077689Y0187854D03*
X0074313Y0188530D03*
X0071949Y0189205D03*
X0071949Y0189542D03*
X0071949Y0189880D03*
X0071949Y0190218D03*
X0071949Y0190555D03*
X0072624Y0191230D03*
X0064522Y0190555D03*
X0063847Y0191230D03*
X0064522Y0188530D03*
X0054394Y0188530D03*
X0054394Y0188867D03*
X0054394Y0189205D03*
X0054394Y0188192D03*
X0054394Y0187854D03*
X0054394Y0191568D03*
X0051356Y0191568D03*
X0049330Y0190893D03*
X0049330Y0190555D03*
X0049330Y0190218D03*
X0049330Y0189880D03*
X0049330Y0189542D03*
X0049330Y0189205D03*
X0049330Y0188867D03*
X0049330Y0188530D03*
X0051356Y0188530D03*
X0051356Y0188867D03*
X0051356Y0189205D03*
X0051356Y0188192D03*
X0051356Y0187854D03*
X0046292Y0188530D03*
X0046292Y0188867D03*
X0046292Y0189205D03*
X0046292Y0189542D03*
X0046292Y0189880D03*
X0046292Y0190218D03*
X0046292Y0190555D03*
X0046292Y0190893D03*
X0043929Y0191230D03*
X0041903Y0191230D03*
X0041228Y0190555D03*
X0041228Y0190218D03*
X0041228Y0189880D03*
X0041228Y0189542D03*
X0041228Y0189205D03*
X0041565Y0188867D03*
X0033801Y0188867D03*
X0033801Y0188530D03*
X0028737Y0188530D03*
X0028737Y0188867D03*
X0028737Y0189205D03*
X0028737Y0190218D03*
X0028737Y0190555D03*
X0028737Y0190893D03*
X0028737Y0191230D03*
X0048993Y0103117D03*
X0043254Y0101429D03*
X0044266Y0099404D03*
X0044604Y0098728D03*
X0046292Y0095015D03*
X0046630Y0094340D03*
X0046967Y0093664D03*
X0047980Y0091301D03*
X0048993Y0089276D03*
X0064185Y0047076D03*
X0064522Y0046401D03*
X0064860Y0045725D03*
X0066548Y0042349D03*
X0067223Y0040661D03*
X0067561Y0039986D03*
X0067898Y0039311D03*
X0068911Y0036948D03*
X0069924Y0034922D03*
X0070937Y0044713D03*
X0071274Y0046063D03*
X0071274Y0046401D03*
X0070937Y0047076D03*
X0070599Y0047751D03*
X0070261Y0048426D03*
X0060809Y0280356D03*
X0063172Y0281707D03*
X0065872Y0285420D03*
X0064185Y0289471D03*
X0062834Y0290484D03*
X0060809Y0289134D03*
X0060809Y0287108D03*
X0058445Y0285083D03*
X0055744Y0285420D03*
X0058445Y0281707D03*
X0058783Y0290147D03*
X0060809Y0294535D03*
X0062159Y0295548D03*
X0063847Y0296223D03*
X0059458Y0295548D03*
X0057770Y0296223D03*
X0085791Y0285420D03*
X0090855Y0291497D03*
X0099295Y0285420D03*
X0129679Y0291159D03*
X0052706Y0355641D03*
X0052369Y0355303D03*
X0053381Y0361718D03*
X0053381Y0362393D03*
X0053381Y0362730D03*
X0053381Y0363068D03*
X0053381Y0364081D03*
X0053381Y0364418D03*
X0053381Y0364756D03*
X0053381Y0365094D03*
X0053381Y0365431D03*
X0051018Y0365094D03*
X0048993Y0365094D03*
X0048317Y0364418D03*
X0048317Y0364081D03*
X0048317Y0363743D03*
X0048317Y0363406D03*
X0048317Y0363068D03*
X0048655Y0362730D03*
X0043254Y0362730D03*
X0043254Y0362393D03*
X0043254Y0362055D03*
X0043254Y0361718D03*
X0043254Y0363068D03*
X0043254Y0365431D03*
X0041228Y0355641D03*
X0041565Y0355303D03*
D14*
X0051187Y0362393D03*
X0051187Y0362730D03*
X0051187Y0363068D03*
X0051187Y0363406D03*
X0051187Y0363743D03*
X0051187Y0364081D03*
X0051187Y0364418D03*
X0051187Y0364756D03*
X0053213Y0362055D03*
X0053213Y0355978D03*
X0051862Y0354966D03*
X0056589Y0290822D03*
X0055238Y0285758D03*
X0056589Y0282720D03*
X0059289Y0283395D03*
X0058614Y0284745D03*
X0062665Y0283732D03*
X0066041Y0285083D03*
X0078195Y0285420D03*
X0143014Y0291159D03*
X0192303Y0287108D03*
X0192978Y0284408D03*
X0207833Y0217225D03*
X0215260Y0217225D03*
X0215260Y0216888D03*
X0215260Y0216550D03*
X0215260Y0216213D03*
X0215260Y0215875D03*
X0215260Y0217563D03*
X0215260Y0217901D03*
X0215260Y0213512D03*
X0215260Y0213174D03*
X0215260Y0212837D03*
X0215260Y0212499D03*
X0215260Y0212161D03*
X0215260Y0211824D03*
X0215260Y0211486D03*
X0230789Y0206085D03*
X0234165Y0204734D03*
X0234165Y0204397D03*
X0234165Y0204059D03*
X0234165Y0203721D03*
X0234165Y0203384D03*
X0234841Y0202709D03*
X0234841Y0205072D03*
X0234841Y0205409D03*
X0236191Y0209798D03*
X0236191Y0210136D03*
X0236191Y0210473D03*
X0236191Y0210811D03*
X0236191Y0211149D03*
X0236191Y0211486D03*
X0236191Y0211824D03*
X0236191Y0212161D03*
X0236191Y0212499D03*
X0236191Y0212837D03*
X0236191Y0213174D03*
X0236191Y0213512D03*
X0236191Y0213849D03*
X0236191Y0214187D03*
X0236191Y0214525D03*
X0236191Y0214862D03*
X0236191Y0215200D03*
X0236191Y0215537D03*
X0236191Y0215875D03*
X0236191Y0216213D03*
X0236191Y0216550D03*
X0236191Y0216888D03*
X0236191Y0217225D03*
X0236191Y0217563D03*
X0236191Y0217901D03*
X0236866Y0219589D03*
X0243618Y0206085D03*
X0243618Y0205747D03*
X0243618Y0203384D03*
X0243618Y0203046D03*
X0243618Y0202709D03*
X0243618Y0202371D03*
X0243618Y0202033D03*
X0253071Y0206085D03*
X0264549Y0207097D03*
X0264549Y0208785D03*
X0224713Y0169286D03*
X0215260Y0171987D03*
X0213909Y0169962D03*
X0210533Y0170974D03*
X0208508Y0170974D03*
X0201081Y0170974D03*
X0196354Y0171987D03*
X0195004Y0169962D03*
X0190278Y0169624D03*
X0190278Y0169286D03*
X0190278Y0168949D03*
X0190278Y0168611D03*
X0186902Y0169286D03*
X0180825Y0169286D03*
X0180825Y0169624D03*
X0180825Y0169962D03*
X0180825Y0170299D03*
X0180825Y0170637D03*
X0180825Y0170974D03*
X0180825Y0171312D03*
X0185551Y0176714D03*
X0185551Y0177051D03*
X0185551Y0177389D03*
X0185551Y0177726D03*
X0185551Y0178064D03*
X0185551Y0178402D03*
X0185551Y0178739D03*
X0185551Y0179077D03*
X0185551Y0179414D03*
X0185551Y0180090D03*
X0177449Y0180090D03*
X0172722Y0171987D03*
X0171372Y0176714D03*
X0171372Y0177051D03*
X0171372Y0177389D03*
X0171372Y0177726D03*
X0171372Y0178064D03*
X0171372Y0178402D03*
X0171372Y0178739D03*
X0171372Y0179077D03*
X0171372Y0179414D03*
X0171372Y0180090D03*
X0176098Y0163885D03*
X0177449Y0163885D03*
X0180150Y0161859D03*
X0195004Y0178739D03*
X0195004Y0179077D03*
X0194329Y0180090D03*
X0192978Y0202709D03*
X0192978Y0203046D03*
X0192978Y0203384D03*
X0192978Y0203721D03*
X0192978Y0204059D03*
X0192978Y0204397D03*
X0192978Y0204734D03*
X0192978Y0205072D03*
X0192978Y0205409D03*
X0184876Y0205409D03*
X0184876Y0205072D03*
X0184876Y0204734D03*
X0184876Y0204397D03*
X0184876Y0204059D03*
X0184876Y0203721D03*
X0184876Y0203384D03*
X0184876Y0203046D03*
X0184876Y0202709D03*
X0234841Y0102442D03*
X0234165Y0101092D03*
X0238217Y0100416D03*
X0238217Y0100079D03*
X0238892Y0096703D03*
X0236866Y0092652D03*
X0235516Y0089613D03*
X0217285Y0047076D03*
X0217285Y0042687D03*
X0217285Y0042349D03*
X0215260Y0038298D03*
X0215260Y0037961D03*
X0214585Y0036948D03*
X0214585Y0036610D03*
X0213909Y0035260D03*
X0213909Y0034922D03*
X0209183Y0039311D03*
X0209183Y0039649D03*
X0209858Y0040999D03*
X0211884Y0043025D03*
X0212559Y0046738D03*
X0213234Y0048089D03*
X0213234Y0048426D03*
X0082246Y0189542D03*
X0082246Y0191230D03*
X0074819Y0190555D03*
X0074819Y0190218D03*
X0074819Y0189880D03*
X0074819Y0189542D03*
X0074819Y0189205D03*
X0072118Y0188867D03*
X0066717Y0188867D03*
X0066717Y0188530D03*
X0066717Y0189205D03*
X0066717Y0189542D03*
X0066717Y0189880D03*
X0064691Y0190218D03*
X0064016Y0190893D03*
X0064691Y0189205D03*
X0064691Y0188867D03*
X0046461Y0191230D03*
X0041734Y0190893D03*
X0041734Y0188530D03*
X0039033Y0188530D03*
X0039033Y0188867D03*
X0039033Y0189205D03*
X0039033Y0189542D03*
X0039033Y0189880D03*
X0039033Y0190218D03*
X0039033Y0190555D03*
X0039033Y0190893D03*
X0039033Y0191230D03*
X0039033Y0191568D03*
X0043085Y0102104D03*
X0043085Y0101767D03*
X0044435Y0099066D03*
X0045110Y0097716D03*
X0045110Y0097378D03*
X0046461Y0094677D03*
X0047136Y0093327D03*
X0047136Y0092989D03*
X0047811Y0091976D03*
X0047811Y0091639D03*
X0049161Y0100416D03*
X0049161Y0100754D03*
X0070093Y0048764D03*
X0070768Y0047413D03*
X0070768Y0045050D03*
X0067392Y0040324D03*
X0068067Y0038973D03*
X0068067Y0038636D03*
X0068742Y0037623D03*
X0068742Y0037285D03*
X0064691Y0046063D03*
X0064016Y0047413D03*
X0064016Y0047751D03*
X0262524Y0285758D03*
X0261848Y0287108D03*
X0218636Y0354966D03*
X0218636Y0355303D03*
X0218636Y0355641D03*
X0218636Y0356316D03*
X0218636Y0356654D03*
X0220661Y0361718D03*
X0220661Y0362055D03*
X0220661Y0362393D03*
X0220661Y0362730D03*
X0220661Y0363068D03*
X0220661Y0365431D03*
X0213909Y0356991D03*
X0213909Y0356654D03*
X0213909Y0356316D03*
X0213909Y0355641D03*
X0213909Y0355303D03*
X0173398Y0362393D03*
X0173398Y0362730D03*
X0173398Y0363068D03*
X0173398Y0363406D03*
X0173398Y0363743D03*
X0173398Y0364081D03*
X0173398Y0364418D03*
X0173398Y0364756D03*
X0173398Y0365094D03*
X0173398Y0365431D03*
X0165970Y0364756D03*
X0165295Y0363068D03*
X0163270Y0363068D03*
X0163270Y0362730D03*
X0163270Y0362393D03*
X0163270Y0364081D03*
X0163270Y0364418D03*
X0163270Y0364756D03*
D15*
X0173229Y0356654D03*
X0173229Y0355641D03*
X0215091Y0353953D03*
X0217454Y0353953D03*
X0217454Y0358004D03*
X0215091Y0358004D03*
X0218129Y0362730D03*
X0263368Y0306351D03*
X0263705Y0306014D03*
X0264043Y0305676D03*
X0263368Y0275630D03*
X0265731Y0210473D03*
X0265731Y0210136D03*
X0265731Y0209798D03*
X0265731Y0209461D03*
X0267756Y0209123D03*
X0267756Y0208785D03*
X0267756Y0208448D03*
X0266406Y0206760D03*
X0264043Y0189205D03*
X0264043Y0188867D03*
X0264043Y0188530D03*
X0264043Y0188192D03*
X0262017Y0187179D03*
X0262017Y0186842D03*
X0253240Y0186842D03*
X0253240Y0187179D03*
X0253240Y0187517D03*
X0253240Y0187854D03*
X0253240Y0188192D03*
X0253240Y0188530D03*
X0240411Y0188530D03*
X0240411Y0188867D03*
X0240411Y0189205D03*
X0240411Y0188192D03*
X0240411Y0186504D03*
X0240411Y0186166D03*
X0237035Y0186166D03*
X0237035Y0186504D03*
X0230621Y0189205D03*
X0229945Y0185491D03*
X0227245Y0185829D03*
X0227245Y0186166D03*
X0227245Y0186842D03*
X0227245Y0187179D03*
X0224206Y0171987D03*
X0219818Y0168949D03*
X0233321Y0171650D03*
X0233321Y0171987D03*
X0205638Y0170974D03*
X0203950Y0169624D03*
X0195173Y0178402D03*
X0190784Y0178064D03*
X0190784Y0177726D03*
X0190446Y0178402D03*
X0186395Y0171987D03*
X0190446Y0170299D03*
X0182006Y0177051D03*
X0181331Y0163547D03*
X0167490Y0163885D03*
X0158712Y0202709D03*
X0158712Y0203046D03*
X0161075Y0205072D03*
X0163776Y0215200D03*
X0163776Y0215537D03*
X0163776Y0215875D03*
X0191459Y0216550D03*
X0151960Y0286095D03*
X0171541Y0291159D03*
X0110773Y0291159D03*
X0088829Y0288796D03*
X0082415Y0291159D03*
X0065197Y0288796D03*
X0064860Y0289134D03*
X0062834Y0290147D03*
X0060808Y0289471D03*
X0063509Y0285420D03*
X0064522Y0286095D03*
X0056757Y0289134D03*
X0056420Y0288796D03*
X0054056Y0190893D03*
X0051694Y0190893D03*
X0044604Y0099741D03*
X0049330Y0089613D03*
X0067560Y0048426D03*
X0067223Y0046738D03*
X0066548Y0043362D03*
X0066885Y0042687D03*
X0070936Y0045725D03*
X0070261Y0035260D03*
X0210702Y0041674D03*
X0211040Y0042349D03*
X0214078Y0044037D03*
X0217117Y0046063D03*
X0217454Y0044037D03*
X0235347Y0097716D03*
X0238723Y0097716D03*
X0238385Y0099741D03*
D16*
X0236529Y0103792D03*
X0231802Y0093664D03*
X0235178Y0091301D03*
X0181162Y0160846D03*
X0185889Y0169962D03*
X0191966Y0202033D03*
X0191966Y0202371D03*
X0191966Y0205747D03*
X0187914Y0215200D03*
X0187239Y0215875D03*
X0186564Y0216550D03*
X0181162Y0216550D03*
X0181162Y0216213D03*
X0181162Y0215875D03*
X0181162Y0212837D03*
X0177111Y0210811D03*
X0169009Y0213174D03*
X0168334Y0215537D03*
X0167658Y0217225D03*
X0166308Y0205747D03*
X0166308Y0202371D03*
X0166308Y0202033D03*
X0233153Y0168949D03*
X0272314Y0207773D03*
X0272314Y0208110D03*
X0263536Y0268878D03*
X0263536Y0272254D03*
X0263536Y0299599D03*
X0263536Y0330996D03*
X0214247Y0361718D03*
X0214247Y0362055D03*
X0214247Y0365431D03*
X0166983Y0363743D03*
X0166983Y0362055D03*
X0092712Y0290147D03*
X0085960Y0290484D03*
X0075832Y0289134D03*
X0058277Y0291497D03*
X0050174Y0362055D03*
X0063003Y0188192D03*
X0049499Y0089951D03*
X0070430Y0035597D03*
D17*
X0070768Y0035935D03*
X0049837Y0090288D03*
X0063341Y0189542D03*
X0027555Y0189542D03*
X0027555Y0189880D03*
X0057939Y0286095D03*
X0064016Y0295886D03*
X0092374Y0288796D03*
X0161244Y0219251D03*
X0163270Y0217225D03*
X0167996Y0212161D03*
X0184876Y0206085D03*
X0184876Y0205747D03*
X0184876Y0202371D03*
X0184876Y0202033D03*
X0223362Y0204059D03*
D18*
X0227751Y0206085D03*
X0218298Y0206085D03*
X0218298Y0205747D03*
X0218298Y0205409D03*
X0218298Y0205072D03*
X0218298Y0204734D03*
X0218298Y0204397D03*
X0218298Y0204059D03*
X0218298Y0203721D03*
X0218298Y0203384D03*
X0218298Y0203046D03*
X0218298Y0202709D03*
X0209521Y0202709D03*
X0209521Y0205072D03*
X0209521Y0205409D03*
X0199393Y0205072D03*
X0199393Y0204734D03*
X0199393Y0203384D03*
X0199393Y0203046D03*
X0199393Y0202709D03*
X0190615Y0202709D03*
X0189940Y0203384D03*
X0189940Y0203721D03*
X0189940Y0204059D03*
X0189940Y0204397D03*
X0189940Y0204734D03*
X0190615Y0205072D03*
X0190615Y0205409D03*
X0176436Y0212837D03*
X0167658Y0205409D03*
X0161582Y0210811D03*
X0165633Y0180090D03*
X0165633Y0179752D03*
X0165633Y0179414D03*
X0165633Y0179077D03*
X0165633Y0178739D03*
X0165633Y0178064D03*
X0165633Y0177726D03*
X0165633Y0177389D03*
X0165633Y0177051D03*
X0165633Y0176714D03*
X0168334Y0177726D03*
X0168334Y0178739D03*
X0168334Y0179414D03*
X0168334Y0179752D03*
X0168334Y0171650D03*
X0168334Y0171312D03*
X0168334Y0170974D03*
X0168334Y0170637D03*
X0168334Y0170299D03*
X0168334Y0169962D03*
X0168334Y0169624D03*
X0173060Y0169624D03*
X0173060Y0169286D03*
X0173060Y0170637D03*
X0173060Y0170974D03*
X0173060Y0171312D03*
X0175086Y0171650D03*
X0175086Y0171987D03*
X0177786Y0171650D03*
X0177786Y0168611D03*
X0175086Y0168611D03*
X0173060Y0163210D03*
X0173060Y0162197D03*
X0173060Y0160846D03*
X0173060Y0160509D03*
X0170359Y0162197D03*
X0170359Y0163210D03*
X0168334Y0163210D03*
X0168334Y0162197D03*
X0168334Y0160846D03*
X0165633Y0163210D03*
X0177786Y0161184D03*
X0179812Y0161184D03*
X0179812Y0161522D03*
X0180487Y0163210D03*
X0182513Y0163210D03*
X0184538Y0163210D03*
X0184538Y0162197D03*
X0184538Y0161859D03*
X0184538Y0161522D03*
X0184538Y0161184D03*
X0182513Y0161184D03*
X0187239Y0161184D03*
X0187239Y0161522D03*
X0187239Y0161859D03*
X0187239Y0162197D03*
X0187239Y0163210D03*
X0189265Y0163210D03*
X0189265Y0162197D03*
X0189265Y0161859D03*
X0189265Y0161522D03*
X0189265Y0161184D03*
X0191966Y0161522D03*
X0191966Y0161859D03*
X0191966Y0162197D03*
X0191966Y0163210D03*
X0193991Y0163547D03*
X0193991Y0163885D03*
X0193991Y0161522D03*
X0193991Y0161184D03*
X0193991Y0160846D03*
X0193991Y0160509D03*
X0196692Y0160509D03*
X0196692Y0160846D03*
X0196692Y0161184D03*
X0196692Y0161522D03*
X0196692Y0163547D03*
X0196692Y0168611D03*
X0196692Y0168949D03*
X0196692Y0169286D03*
X0196692Y0170637D03*
X0196692Y0170974D03*
X0198718Y0169624D03*
X0198718Y0169286D03*
X0200743Y0169286D03*
X0201418Y0169624D03*
X0201418Y0169962D03*
X0201418Y0170299D03*
X0201418Y0170637D03*
X0200743Y0171312D03*
X0203444Y0171312D03*
X0203444Y0170974D03*
X0203444Y0170637D03*
X0203444Y0171650D03*
X0203444Y0171987D03*
X0206145Y0171650D03*
X0206145Y0169624D03*
X0208170Y0169286D03*
X0208170Y0168949D03*
X0208170Y0168611D03*
X0208170Y0170299D03*
X0208170Y0170637D03*
X0208845Y0171312D03*
X0210196Y0171312D03*
X0210871Y0170637D03*
X0210871Y0170299D03*
X0210871Y0168949D03*
X0212897Y0170637D03*
X0212897Y0170974D03*
X0212897Y0171312D03*
X0215597Y0170974D03*
X0215597Y0170637D03*
X0215597Y0169286D03*
X0215597Y0168949D03*
X0215597Y0168611D03*
X0220324Y0169624D03*
X0220324Y0170637D03*
X0220324Y0170974D03*
X0220324Y0171312D03*
X0222349Y0171312D03*
X0222349Y0170974D03*
X0222349Y0170637D03*
X0222349Y0170299D03*
X0225050Y0170299D03*
X0225050Y0170637D03*
X0225050Y0170974D03*
X0225050Y0171312D03*
X0227076Y0171312D03*
X0227076Y0170974D03*
X0227076Y0170637D03*
X0227076Y0170299D03*
X0227076Y0169962D03*
X0227076Y0169624D03*
X0227076Y0169286D03*
X0225050Y0168949D03*
X0225050Y0168611D03*
X0227076Y0171650D03*
X0227076Y0171987D03*
X0229777Y0171312D03*
X0229777Y0170974D03*
X0229777Y0170637D03*
X0229777Y0170299D03*
X0229777Y0169962D03*
X0229777Y0169624D03*
X0231802Y0169624D03*
X0231802Y0169286D03*
X0232477Y0171312D03*
X0234503Y0171312D03*
X0234503Y0170974D03*
X0234503Y0170637D03*
X0234503Y0169286D03*
X0231127Y0187854D03*
X0237204Y0202709D03*
X0237204Y0203046D03*
X0237204Y0203384D03*
X0237204Y0203721D03*
X0237204Y0204059D03*
X0237204Y0204397D03*
X0237204Y0204734D03*
X0237204Y0205072D03*
X0237204Y0205409D03*
X0238554Y0209798D03*
X0240580Y0206085D03*
X0240580Y0205747D03*
X0240580Y0205409D03*
X0240580Y0205072D03*
X0240580Y0204734D03*
X0240580Y0204397D03*
X0240580Y0202371D03*
X0240580Y0202033D03*
X0256109Y0206085D03*
X0264212Y0202033D03*
X0268263Y0205072D03*
X0270288Y0205072D03*
X0272314Y0206760D03*
X0272314Y0207097D03*
X0272314Y0208785D03*
X0272314Y0209123D03*
X0203444Y0168611D03*
X0196692Y0177389D03*
X0193991Y0177389D03*
X0193991Y0177726D03*
X0191966Y0179414D03*
X0189265Y0179414D03*
X0189265Y0171987D03*
X0189265Y0171650D03*
X0189265Y0171312D03*
X0189265Y0170974D03*
X0189265Y0170637D03*
X0191290Y0170637D03*
X0191290Y0170974D03*
X0191290Y0171312D03*
X0191290Y0171650D03*
X0191290Y0171987D03*
X0193991Y0171312D03*
X0193991Y0170974D03*
X0193991Y0170637D03*
X0187239Y0170637D03*
X0187239Y0170974D03*
X0187239Y0171312D03*
X0187239Y0170299D03*
X0187239Y0168949D03*
X0184538Y0170299D03*
X0184538Y0170637D03*
X0184538Y0170974D03*
X0184538Y0171312D03*
X0182513Y0177726D03*
X0182513Y0178739D03*
X0182513Y0179077D03*
X0182513Y0179414D03*
X0177786Y0179077D03*
X0177786Y0178739D03*
X0177786Y0177389D03*
X0234503Y0102104D03*
X0234503Y0101767D03*
X0233828Y0100416D03*
X0237204Y0093327D03*
X0238554Y0096028D03*
X0238554Y0096365D03*
X0235853Y0090288D03*
X0235178Y0088938D03*
X0235178Y0088600D03*
X0238554Y0100754D03*
X0213572Y0048764D03*
X0212897Y0047413D03*
X0216948Y0046738D03*
X0216948Y0046401D03*
X0217623Y0043025D03*
X0214922Y0037623D03*
X0214922Y0037285D03*
X0214247Y0035935D03*
X0210196Y0036610D03*
X0209521Y0039986D03*
X0209521Y0040324D03*
X0074481Y0188867D03*
X0072456Y0190893D03*
X0069755Y0190893D03*
X0069755Y0188867D03*
X0069755Y0188530D03*
X0061653Y0188530D03*
X0061653Y0188867D03*
X0061653Y0189205D03*
X0044097Y0189205D03*
X0044097Y0189542D03*
X0044097Y0189880D03*
X0044097Y0190218D03*
X0044097Y0190555D03*
X0044097Y0190893D03*
X0044097Y0188867D03*
X0044097Y0188530D03*
X0035995Y0188530D03*
X0035995Y0188867D03*
X0035995Y0189205D03*
X0035995Y0189542D03*
X0035995Y0189880D03*
X0035995Y0190218D03*
X0035995Y0190555D03*
X0035995Y0190893D03*
X0035995Y0191230D03*
X0035995Y0191568D03*
X0033969Y0191568D03*
X0033969Y0191230D03*
X0033969Y0190893D03*
X0033969Y0190555D03*
X0033969Y0190218D03*
X0033969Y0189880D03*
X0033969Y0189542D03*
X0033969Y0189205D03*
X0042747Y0102442D03*
X0044773Y0098391D03*
X0044773Y0098053D03*
X0046798Y0094002D03*
X0047473Y0092652D03*
X0047473Y0092314D03*
X0068405Y0050452D03*
X0070430Y0048089D03*
X0071105Y0046738D03*
X0071105Y0044375D03*
X0067729Y0039649D03*
X0068405Y0038298D03*
X0068405Y0037961D03*
X0065029Y0045388D03*
X0064353Y0046738D03*
X0063678Y0048089D03*
X0065029Y0282720D03*
X0063003Y0284408D03*
X0063003Y0284745D03*
X0062328Y0283395D03*
X0062328Y0286095D03*
X0057601Y0289471D03*
X0056926Y0291159D03*
X0055576Y0285083D03*
X0082584Y0291497D03*
X0089336Y0287108D03*
X0042072Y0354966D03*
X0040721Y0355978D03*
X0039371Y0362393D03*
X0039371Y0362730D03*
X0039371Y0363068D03*
X0039371Y0363406D03*
X0039371Y0363743D03*
X0039371Y0364081D03*
X0039371Y0364418D03*
X0039371Y0364756D03*
X0046123Y0365431D03*
X0046123Y0363068D03*
X0046123Y0362730D03*
X0046123Y0362393D03*
X0046123Y0362055D03*
X0046123Y0361718D03*
X0048824Y0362393D03*
X0048824Y0364756D03*
X0056251Y0364756D03*
X0056251Y0365094D03*
X0056251Y0365431D03*
X0056251Y0364418D03*
X0056251Y0364081D03*
X0056251Y0363068D03*
X0056251Y0362730D03*
X0056251Y0362393D03*
X0056251Y0362055D03*
X0056251Y0361718D03*
X0149428Y0291159D03*
X0193991Y0286095D03*
X0166983Y0354290D03*
X0166308Y0358679D03*
X0168334Y0362393D03*
X0168334Y0362730D03*
X0168334Y0364081D03*
X0168334Y0364418D03*
X0168334Y0364756D03*
X0170359Y0365094D03*
X0214247Y0357329D03*
X0218298Y0354628D03*
X0215597Y0362393D03*
X0215597Y0362730D03*
X0215597Y0363068D03*
X0215597Y0363406D03*
X0215597Y0363743D03*
X0215597Y0364081D03*
X0215597Y0364418D03*
X0215597Y0364756D03*
X0217623Y0365431D03*
X0217623Y0364081D03*
X0264212Y0303313D03*
D19*
X0250032Y0219589D03*
X0250032Y0219251D03*
X0211546Y0219251D03*
X0211546Y0218913D03*
X0211546Y0219589D03*
X0211546Y0210136D03*
X0211546Y0209798D03*
X0204119Y0209798D03*
X0204119Y0210136D03*
X0153479Y0285420D03*
X0153479Y0285758D03*
X0153479Y0288121D03*
X0153479Y0288459D03*
X0153479Y0290484D03*
X0153479Y0290822D03*
X0147403Y0288459D03*
X0147403Y0288121D03*
X0141326Y0290484D03*
X0141326Y0290822D03*
X0116344Y0290822D03*
X0116344Y0290484D03*
X0116344Y0287108D03*
X0109592Y0285758D03*
X0109592Y0285420D03*
X0109592Y0290484D03*
X0109592Y0290822D03*
X0077857Y0290484D03*
X0178462Y0290484D03*
X0178462Y0290822D03*
X0045448Y0100754D03*
X0050174Y0090626D03*
X0071105Y0036273D03*
X0234503Y0091976D03*
D20*
X0215935Y0049101D03*
X0215260Y0045388D03*
X0215260Y0045050D03*
X0161244Y0211824D03*
X0161244Y0218576D03*
X0147065Y0285420D03*
X0147065Y0285758D03*
X0147065Y0290484D03*
X0147065Y0290822D03*
X0098451Y0291159D03*
X0098451Y0291497D03*
X0091024Y0290484D03*
X0084272Y0290147D03*
X0050512Y0090964D03*
X0071443Y0036610D03*
X0251045Y0215537D03*
X0251045Y0215875D03*
X0251045Y0216213D03*
D21*
X0249864Y0218913D03*
X0272820Y0189880D03*
X0272820Y0189542D03*
X0272820Y0185829D03*
X0272820Y0185491D03*
X0211377Y0210473D03*
X0203950Y0210473D03*
X0161075Y0211486D03*
X0161075Y0218913D03*
X0109423Y0286095D03*
X0116512Y0291159D03*
X0090855Y0286095D03*
X0178293Y0291159D03*
X0237035Y0103117D03*
X0238385Y0102442D03*
X0239060Y0102104D03*
X0232984Y0092652D03*
X0232308Y0092989D03*
X0215766Y0049439D03*
X0217117Y0048764D03*
X0217792Y0048426D03*
X0214416Y0039986D03*
X0073300Y0037285D03*
X0072625Y0036948D03*
X0051694Y0091301D03*
X0052369Y0091639D03*
X0047642Y0101767D03*
D22*
X0068067Y0050114D03*
X0070768Y0045388D03*
X0165970Y0160509D03*
X0165970Y0160846D03*
X0165970Y0162197D03*
X0167996Y0161859D03*
X0175423Y0169286D03*
X0177449Y0169286D03*
X0177449Y0168949D03*
X0177449Y0171312D03*
X0175423Y0171312D03*
X0181500Y0163885D03*
X0186226Y0163885D03*
X0194329Y0163210D03*
X0196354Y0163210D03*
X0194329Y0168611D03*
X0194329Y0170299D03*
X0199055Y0170299D03*
X0203781Y0169286D03*
X0205807Y0171312D03*
X0213234Y0170299D03*
X0213234Y0168611D03*
X0230789Y0188192D03*
X0230789Y0188530D03*
X0230789Y0188867D03*
X0240917Y0202709D03*
X0240917Y0203046D03*
X0248344Y0205747D03*
X0248344Y0206085D03*
X0256447Y0210811D03*
X0256447Y0211149D03*
X0256447Y0211486D03*
X0256447Y0211824D03*
X0256447Y0212161D03*
X0256447Y0212499D03*
X0256447Y0212837D03*
X0256447Y0213174D03*
X0256447Y0213512D03*
X0256447Y0213849D03*
X0256447Y0214187D03*
X0256447Y0214525D03*
X0256447Y0214862D03*
X0256447Y0215200D03*
X0256447Y0215537D03*
X0256447Y0215875D03*
X0256447Y0216213D03*
X0256447Y0216550D03*
X0256447Y0216888D03*
X0256447Y0217225D03*
X0256447Y0217563D03*
X0256447Y0217901D03*
X0256447Y0218238D03*
X0256447Y0218576D03*
X0264549Y0208448D03*
X0264549Y0208110D03*
X0264549Y0207773D03*
X0264549Y0207435D03*
X0266575Y0207097D03*
X0266575Y0206422D03*
X0266575Y0206085D03*
X0191628Y0177389D03*
X0191628Y0177051D03*
X0189602Y0178739D03*
X0161244Y0205409D03*
X0155167Y0287108D03*
X0155167Y0288796D03*
X0155167Y0289134D03*
X0155167Y0289471D03*
X0155167Y0289809D03*
X0155167Y0290147D03*
X0157193Y0290147D03*
X0157193Y0289809D03*
X0157193Y0289471D03*
X0157193Y0289134D03*
X0157193Y0288796D03*
X0157193Y0288459D03*
X0157193Y0288121D03*
X0151116Y0288796D03*
X0151116Y0289134D03*
X0151116Y0289471D03*
X0151116Y0289809D03*
X0151116Y0290147D03*
X0149091Y0290147D03*
X0149091Y0289809D03*
X0149091Y0289471D03*
X0149091Y0289134D03*
X0149091Y0288796D03*
X0149091Y0287108D03*
X0151116Y0287108D03*
X0143014Y0286095D03*
X0143014Y0285758D03*
X0143014Y0285420D03*
X0143014Y0288121D03*
X0143014Y0288459D03*
X0143014Y0288796D03*
X0143014Y0289134D03*
X0143014Y0289471D03*
X0143014Y0289809D03*
X0143014Y0290147D03*
X0128159Y0287108D03*
X0128159Y0286095D03*
X0128159Y0285758D03*
X0128159Y0285420D03*
X0118031Y0285420D03*
X0118031Y0285758D03*
X0118031Y0286095D03*
X0118031Y0288121D03*
X0118031Y0288459D03*
X0118031Y0288796D03*
X0118031Y0289134D03*
X0118031Y0289471D03*
X0118031Y0289809D03*
X0118031Y0290147D03*
X0113980Y0290147D03*
X0113980Y0289809D03*
X0113980Y0289471D03*
X0113980Y0289134D03*
X0113980Y0288796D03*
X0113980Y0288459D03*
X0113980Y0288121D03*
X0107904Y0291159D03*
X0078195Y0291497D03*
X0063341Y0285083D03*
X0061990Y0283057D03*
X0055913Y0295548D03*
X0045785Y0364756D03*
X0045785Y0365094D03*
X0164620Y0354290D03*
X0180150Y0290147D03*
X0180150Y0289809D03*
X0180150Y0289471D03*
X0180150Y0289134D03*
X0180150Y0288796D03*
X0180150Y0288459D03*
X0180150Y0288121D03*
X0180150Y0286095D03*
X0180150Y0285758D03*
X0180150Y0285420D03*
X0192978Y0284070D03*
X0192978Y0283732D03*
X0216610Y0356316D03*
X0217961Y0357329D03*
X0217961Y0362393D03*
X0073469Y0191568D03*
X0073469Y0188192D03*
X0073469Y0187854D03*
X0069417Y0191230D03*
X0209183Y0038636D03*
X0209858Y0036948D03*
X0212559Y0046063D03*
D23*
X0215429Y0046063D03*
X0219480Y0046738D03*
X0212728Y0040661D03*
X0211715Y0036948D03*
X0232308Y0095015D03*
X0236697Y0099741D03*
X0240749Y0100416D03*
X0273158Y0155107D03*
X0273833Y0155445D03*
X0274171Y0155783D03*
X0266744Y0186166D03*
X0266744Y0186504D03*
X0264718Y0186504D03*
X0264718Y0186166D03*
X0266744Y0188867D03*
X0266744Y0189205D03*
X0261342Y0189205D03*
X0261342Y0188867D03*
X0261342Y0188530D03*
X0261342Y0188192D03*
X0261342Y0187854D03*
X0261342Y0187517D03*
X0261342Y0185829D03*
X0261342Y0185491D03*
X0255940Y0185491D03*
X0255940Y0185829D03*
X0255940Y0189542D03*
X0255940Y0189880D03*
X0263705Y0202371D03*
X0263368Y0203046D03*
X0263030Y0203721D03*
X0263030Y0204059D03*
X0263030Y0204397D03*
X0263030Y0204734D03*
X0263030Y0205072D03*
X0263030Y0205409D03*
X0263030Y0205747D03*
X0263030Y0206085D03*
X0263030Y0206422D03*
X0263030Y0206760D03*
X0263030Y0207097D03*
X0263030Y0207435D03*
X0263030Y0207773D03*
X0263030Y0208110D03*
X0263030Y0208448D03*
X0263030Y0208785D03*
X0263030Y0209123D03*
X0263030Y0209461D03*
X0263030Y0209798D03*
X0263030Y0210136D03*
X0263030Y0210473D03*
X0263030Y0210811D03*
X0263030Y0211149D03*
X0263030Y0211486D03*
X0263030Y0211824D03*
X0263030Y0212161D03*
X0263030Y0212499D03*
X0263030Y0212837D03*
X0263030Y0213174D03*
X0263030Y0213512D03*
X0263030Y0213849D03*
X0263030Y0214187D03*
X0263030Y0214525D03*
X0263030Y0214862D03*
X0263030Y0215200D03*
X0263030Y0215537D03*
X0263030Y0215875D03*
X0263030Y0216213D03*
X0263030Y0216550D03*
X0263030Y0216888D03*
X0263030Y0217225D03*
X0263030Y0217563D03*
X0263030Y0217901D03*
X0263030Y0218238D03*
X0263030Y0218576D03*
X0263030Y0218913D03*
X0263030Y0219251D03*
X0263030Y0219589D03*
X0263030Y0219926D03*
X0263030Y0220264D03*
X0263030Y0220601D03*
X0253577Y0217901D03*
X0253577Y0217563D03*
X0253577Y0217225D03*
X0253577Y0216888D03*
X0253577Y0216550D03*
X0253577Y0213512D03*
X0253577Y0213174D03*
X0253577Y0212837D03*
X0253577Y0212499D03*
X0253577Y0212161D03*
X0253577Y0211824D03*
X0253577Y0211486D03*
X0246150Y0211486D03*
X0246150Y0211149D03*
X0246150Y0210811D03*
X0246150Y0210473D03*
X0246150Y0210136D03*
X0246150Y0209798D03*
X0246150Y0211824D03*
X0246150Y0212161D03*
X0246150Y0212499D03*
X0246150Y0212837D03*
X0246150Y0213174D03*
X0246150Y0213512D03*
X0246150Y0215537D03*
X0246150Y0215875D03*
X0246150Y0216213D03*
X0246150Y0216550D03*
X0246150Y0216888D03*
X0246150Y0217225D03*
X0246150Y0217563D03*
X0246150Y0217901D03*
X0238723Y0217901D03*
X0238723Y0217563D03*
X0238723Y0217225D03*
X0238723Y0216888D03*
X0238723Y0216550D03*
X0238723Y0216213D03*
X0238723Y0215875D03*
X0238723Y0215537D03*
X0238723Y0215200D03*
X0238723Y0214862D03*
X0238723Y0214525D03*
X0238723Y0214187D03*
X0238723Y0213849D03*
X0238723Y0213512D03*
X0238723Y0213174D03*
X0238723Y0212837D03*
X0238723Y0212499D03*
X0238723Y0212161D03*
X0238723Y0211824D03*
X0238723Y0211486D03*
X0238723Y0211149D03*
X0238723Y0210811D03*
X0238723Y0210473D03*
X0238723Y0210136D03*
X0237035Y0218913D03*
X0237035Y0219251D03*
X0207664Y0217901D03*
X0207664Y0217563D03*
X0207664Y0216888D03*
X0207664Y0216550D03*
X0207664Y0216213D03*
X0207664Y0215875D03*
X0207664Y0215537D03*
X0207664Y0215200D03*
X0207664Y0214862D03*
X0207664Y0214525D03*
X0207664Y0214187D03*
X0207664Y0213849D03*
X0207664Y0213512D03*
X0207664Y0213174D03*
X0207664Y0212837D03*
X0207664Y0212499D03*
X0207664Y0212161D03*
X0207664Y0211824D03*
X0207664Y0211486D03*
X0200237Y0211486D03*
X0200237Y0211824D03*
X0200237Y0212161D03*
X0200237Y0212499D03*
X0200237Y0212837D03*
X0200237Y0215537D03*
X0200237Y0215875D03*
X0200237Y0216213D03*
X0200237Y0216550D03*
X0200237Y0216888D03*
X0200237Y0217225D03*
X0200237Y0217563D03*
X0200237Y0217901D03*
X0200237Y0218238D03*
X0200237Y0218576D03*
X0200237Y0218913D03*
X0200237Y0219251D03*
X0200237Y0219589D03*
X0194497Y0179414D03*
X0189771Y0180090D03*
X0184369Y0180090D03*
X0182344Y0177389D03*
X0177618Y0171987D03*
X0174917Y0163885D03*
X0172891Y0161184D03*
X0168165Y0161184D03*
X0168165Y0160509D03*
X0166477Y0161859D03*
X0168165Y0169286D03*
X0168165Y0171987D03*
X0168165Y0176714D03*
X0168165Y0177389D03*
X0168165Y0180090D03*
X0187070Y0168611D03*
X0191459Y0163885D03*
X0196523Y0163885D03*
X0196523Y0170299D03*
X0205976Y0169286D03*
X0205976Y0168611D03*
X0205976Y0171987D03*
X0209014Y0171987D03*
X0210702Y0169286D03*
X0210702Y0168611D03*
X0215429Y0170299D03*
X0220155Y0169286D03*
X0229608Y0171987D03*
X0268769Y0204734D03*
X0270795Y0204734D03*
X0272145Y0206422D03*
X0265056Y0264827D03*
X0265056Y0265164D03*
X0265056Y0265502D03*
X0262692Y0265502D03*
X0262692Y0265164D03*
X0262692Y0264827D03*
X0261680Y0269891D03*
X0261680Y0270228D03*
X0261680Y0270566D03*
X0261680Y0270904D03*
X0265056Y0270904D03*
X0265056Y0270566D03*
X0265056Y0270228D03*
X0265056Y0277656D03*
X0265056Y0280019D03*
X0265056Y0280694D03*
X0265056Y0281707D03*
X0263368Y0281707D03*
X0263368Y0280694D03*
X0263368Y0280356D03*
X0263368Y0280019D03*
X0261680Y0280019D03*
X0261680Y0280356D03*
X0261680Y0280694D03*
X0261680Y0281707D03*
X0262692Y0285083D03*
X0262692Y0285420D03*
X0265056Y0285420D03*
X0265056Y0285083D03*
X0265056Y0285758D03*
X0265056Y0286095D03*
X0265056Y0300612D03*
X0265056Y0300950D03*
X0265056Y0301287D03*
X0265056Y0301625D03*
X0265056Y0301963D03*
X0261680Y0301963D03*
X0261680Y0301625D03*
X0261680Y0301287D03*
X0261680Y0300950D03*
X0261680Y0300612D03*
X0261680Y0332009D03*
X0261680Y0332346D03*
X0261680Y0332684D03*
X0261680Y0333022D03*
X0261680Y0333359D03*
X0265056Y0333359D03*
X0265056Y0333022D03*
X0265056Y0332684D03*
X0265056Y0332346D03*
X0265056Y0337073D03*
X0265056Y0337410D03*
X0265056Y0337748D03*
X0265056Y0338086D03*
X0265056Y0338761D03*
X0265056Y0339098D03*
X0265056Y0339436D03*
X0263368Y0339098D03*
X0263368Y0338761D03*
X0263368Y0338423D03*
X0263368Y0338086D03*
X0263368Y0337748D03*
X0263368Y0337410D03*
X0263368Y0337073D03*
X0263368Y0342137D03*
X0263368Y0342474D03*
X0263368Y0342812D03*
X0263368Y0343150D03*
X0263368Y0343487D03*
X0263368Y0343825D03*
X0263368Y0344162D03*
X0265056Y0344162D03*
X0265056Y0343825D03*
X0265056Y0343487D03*
X0265056Y0343150D03*
X0265056Y0342812D03*
X0265056Y0342137D03*
X0265056Y0344500D03*
X0218805Y0355978D03*
X0213741Y0355978D03*
X0170190Y0356654D03*
X0169853Y0356991D03*
X0169515Y0357329D03*
X0169178Y0357666D03*
X0168840Y0358004D03*
X0166477Y0357666D03*
X0168503Y0355641D03*
X0168165Y0355303D03*
X0167827Y0354966D03*
X0167490Y0354628D03*
X0162426Y0355641D03*
X0162426Y0356654D03*
X0199562Y0294873D03*
X0199562Y0294535D03*
X0199562Y0294198D03*
X0199562Y0293860D03*
X0199562Y0293523D03*
X0199562Y0292510D03*
X0199562Y0291497D03*
X0199562Y0291159D03*
X0199562Y0290822D03*
X0199562Y0290484D03*
X0199562Y0290147D03*
X0199562Y0289809D03*
X0199562Y0289471D03*
X0199562Y0289134D03*
X0199562Y0288796D03*
X0199562Y0288459D03*
X0199562Y0288121D03*
X0199562Y0287108D03*
X0199562Y0286095D03*
X0199562Y0285758D03*
X0199562Y0285420D03*
X0199562Y0285083D03*
X0199562Y0284408D03*
X0199562Y0284070D03*
X0199562Y0283732D03*
X0199562Y0283395D03*
X0199562Y0283057D03*
X0199562Y0282720D03*
X0199562Y0280694D03*
X0199562Y0280356D03*
X0197536Y0283732D03*
X0197536Y0284070D03*
X0197536Y0285420D03*
X0197536Y0285758D03*
X0195848Y0282720D03*
X0192472Y0285758D03*
X0191121Y0280356D03*
X0168503Y0210811D03*
X0161413Y0206085D03*
X0158375Y0206085D03*
X0161413Y0155783D03*
X0161751Y0155445D03*
X0162426Y0155107D03*
X0074650Y0190893D03*
X0072287Y0188530D03*
X0048993Y0191230D03*
X0049330Y0103455D03*
X0042916Y0102780D03*
X0046292Y0095352D03*
X0054056Y0093327D03*
X0063847Y0048426D03*
X0066210Y0042012D03*
X0067223Y0040999D03*
X0074988Y0038973D03*
X0065197Y0283057D03*
X0065535Y0283395D03*
X0065873Y0284070D03*
X0065873Y0284408D03*
X0065873Y0284745D03*
X0066548Y0285758D03*
X0066548Y0286095D03*
X0066885Y0287108D03*
X0066548Y0288121D03*
X0066210Y0288459D03*
X0065535Y0289471D03*
X0065535Y0289809D03*
X0065535Y0290147D03*
X0065197Y0290822D03*
X0064860Y0291159D03*
X0065197Y0292510D03*
X0065873Y0293523D03*
X0065873Y0293860D03*
X0066210Y0294198D03*
X0066210Y0294535D03*
X0066210Y0294873D03*
X0066210Y0295211D03*
X0063509Y0294198D03*
X0062834Y0293860D03*
X0062497Y0293523D03*
X0060808Y0293523D03*
X0060808Y0293860D03*
X0060808Y0294198D03*
X0060133Y0295211D03*
X0061484Y0295211D03*
X0059121Y0293523D03*
X0058108Y0294198D03*
X0055745Y0293860D03*
X0055745Y0293523D03*
X0055407Y0294198D03*
X0055407Y0294535D03*
X0055407Y0294873D03*
X0055407Y0295211D03*
X0056420Y0292510D03*
X0056420Y0290484D03*
X0056082Y0290147D03*
X0056082Y0289809D03*
X0056082Y0289471D03*
X0055407Y0288459D03*
X0055069Y0288121D03*
X0054732Y0287108D03*
X0055069Y0286095D03*
X0055745Y0284745D03*
X0055745Y0284408D03*
X0055745Y0284070D03*
X0056082Y0283395D03*
X0056420Y0283057D03*
X0058783Y0284070D03*
X0058783Y0284408D03*
X0059121Y0283732D03*
X0062834Y0284070D03*
X0064860Y0287108D03*
X0064860Y0288121D03*
X0064860Y0288459D03*
X0062834Y0290822D03*
X0062497Y0291159D03*
X0060808Y0288796D03*
X0060808Y0288459D03*
X0060808Y0288121D03*
X0058783Y0290484D03*
X0059121Y0291159D03*
X0056757Y0288459D03*
X0056757Y0288121D03*
X0056757Y0287108D03*
X0082415Y0289134D03*
X0095244Y0288121D03*
X0053381Y0356316D03*
X0053381Y0356654D03*
X0053381Y0356991D03*
X0053381Y0357329D03*
X0053381Y0357666D03*
X0053381Y0358004D03*
X0050343Y0356316D03*
X0050005Y0356991D03*
X0048993Y0356991D03*
X0047980Y0356991D03*
X0047642Y0356316D03*
X0046292Y0356991D03*
X0045279Y0356991D03*
X0044942Y0356316D03*
X0043929Y0356316D03*
X0043591Y0356991D03*
X0040553Y0356991D03*
X0040553Y0356654D03*
X0040553Y0356316D03*
X0040553Y0357329D03*
X0040553Y0357666D03*
X0040553Y0358004D03*
X0044604Y0363068D03*
D24*
X0039202Y0362055D03*
X0077688Y0291159D03*
X0077688Y0285758D03*
X0085453Y0288796D03*
X0089167Y0290147D03*
X0063847Y0285758D03*
X0057770Y0285758D03*
X0127991Y0288121D03*
X0127991Y0288459D03*
X0140482Y0291159D03*
X0153310Y0291159D03*
X0166139Y0290822D03*
X0166139Y0290484D03*
X0165464Y0353953D03*
X0162088Y0361718D03*
X0162088Y0362055D03*
X0162088Y0363406D03*
X0162088Y0363743D03*
X0162088Y0365431D03*
X0180994Y0217225D03*
X0180994Y0216888D03*
X0181331Y0213849D03*
X0181331Y0213512D03*
X0181331Y0213174D03*
X0185720Y0213512D03*
X0186395Y0216888D03*
X0178631Y0206085D03*
X0172216Y0206085D03*
X0172216Y0205747D03*
X0172216Y0202371D03*
X0172216Y0202033D03*
X0167827Y0211824D03*
X0168503Y0212837D03*
X0180994Y0176714D03*
X0171541Y0168611D03*
X0166814Y0168611D03*
X0171879Y0161859D03*
X0185720Y0160846D03*
X0190446Y0160846D03*
X0209352Y0169962D03*
X0218805Y0168611D03*
X0223869Y0169962D03*
X0228257Y0168949D03*
X0233659Y0185491D03*
X0233659Y0185829D03*
X0233659Y0187517D03*
X0233659Y0187854D03*
X0233659Y0188867D03*
X0233659Y0189205D03*
X0223531Y0203721D03*
X0232308Y0209798D03*
X0232308Y0210136D03*
X0232308Y0210473D03*
X0232308Y0210811D03*
X0232308Y0211149D03*
X0232308Y0211486D03*
X0232308Y0211824D03*
X0232308Y0212161D03*
X0232308Y0212499D03*
X0232308Y0212837D03*
X0232308Y0213174D03*
X0232308Y0213512D03*
X0232308Y0213849D03*
X0232308Y0214187D03*
X0232308Y0214525D03*
X0232308Y0214862D03*
X0232308Y0215200D03*
X0232308Y0215537D03*
X0232308Y0215875D03*
X0232308Y0216213D03*
X0232308Y0216550D03*
X0232308Y0216888D03*
X0232308Y0217225D03*
X0232308Y0217563D03*
X0232308Y0217901D03*
X0232308Y0218238D03*
X0232308Y0218576D03*
X0242436Y0218576D03*
X0242436Y0218238D03*
X0242436Y0217901D03*
X0242436Y0217563D03*
X0242436Y0217225D03*
X0242436Y0216888D03*
X0242436Y0216550D03*
X0242436Y0216213D03*
X0242436Y0215875D03*
X0242436Y0215537D03*
X0242436Y0215200D03*
X0242436Y0214862D03*
X0242436Y0214525D03*
X0242436Y0214187D03*
X0242436Y0213849D03*
X0242436Y0213512D03*
X0242436Y0213174D03*
X0242436Y0212837D03*
X0242436Y0212499D03*
X0242436Y0212161D03*
X0242436Y0211824D03*
X0242436Y0211486D03*
X0242436Y0211149D03*
X0242436Y0210811D03*
X0242436Y0210473D03*
X0242436Y0210136D03*
X0242436Y0209798D03*
X0249864Y0209798D03*
X0249864Y0210136D03*
X0249864Y0210473D03*
X0249864Y0210811D03*
X0249864Y0211149D03*
X0249864Y0211486D03*
X0249864Y0211824D03*
X0249864Y0212161D03*
X0249864Y0212499D03*
X0249864Y0212837D03*
X0249864Y0213174D03*
X0249864Y0213512D03*
X0249864Y0213849D03*
X0249864Y0214187D03*
X0249864Y0214525D03*
X0249864Y0214862D03*
X0249864Y0215200D03*
X0249864Y0216550D03*
X0249864Y0216888D03*
X0249864Y0217225D03*
X0249864Y0217563D03*
X0249864Y0217901D03*
X0249864Y0218238D03*
X0249864Y0218576D03*
X0249864Y0189205D03*
X0249864Y0188867D03*
X0249864Y0186504D03*
X0249864Y0186166D03*
X0273495Y0186842D03*
X0273495Y0187179D03*
X0273495Y0187517D03*
X0273495Y0187854D03*
X0273495Y0188192D03*
X0273495Y0188530D03*
X0211040Y0202371D03*
X0211377Y0210811D03*
X0211377Y0211149D03*
X0211377Y0211486D03*
X0211377Y0211824D03*
X0211377Y0212161D03*
X0211377Y0212499D03*
X0211377Y0212837D03*
X0211377Y0213174D03*
X0211377Y0213512D03*
X0211377Y0213849D03*
X0211377Y0214187D03*
X0211377Y0214525D03*
X0211377Y0215875D03*
X0211377Y0216213D03*
X0211377Y0216550D03*
X0211377Y0216888D03*
X0211377Y0217225D03*
X0211377Y0217563D03*
X0211377Y0217901D03*
X0211377Y0218238D03*
X0211377Y0218576D03*
X0203950Y0218576D03*
X0203950Y0218238D03*
X0203950Y0217901D03*
X0203950Y0217563D03*
X0203950Y0217225D03*
X0203950Y0216888D03*
X0203950Y0216550D03*
X0203950Y0216213D03*
X0203950Y0215875D03*
X0203950Y0215537D03*
X0203950Y0215200D03*
X0203950Y0214862D03*
X0203950Y0212837D03*
X0203950Y0212499D03*
X0203950Y0212161D03*
X0203950Y0211824D03*
X0203950Y0211486D03*
X0203950Y0211149D03*
X0203950Y0210811D03*
X0198211Y0203721D03*
X0239736Y0101429D03*
X0239736Y0101092D03*
X0237710Y0099404D03*
X0235009Y0098391D03*
X0235009Y0098053D03*
X0218467Y0047751D03*
X0218467Y0047413D03*
X0216442Y0045725D03*
X0213741Y0044713D03*
X0213741Y0044375D03*
X0215429Y0040999D03*
X0215429Y0040661D03*
X0212053Y0038636D03*
X0210365Y0037285D03*
X0088492Y0191568D03*
X0068573Y0191568D03*
X0068573Y0190555D03*
X0068573Y0190218D03*
X0068236Y0188192D03*
X0063509Y0189880D03*
X0048318Y0102442D03*
X0044942Y0100079D03*
X0053044Y0092314D03*
X0068573Y0049777D03*
X0068573Y0049439D03*
X0068911Y0049101D03*
X0066548Y0044713D03*
X0066548Y0044375D03*
X0073975Y0037961D03*
D25*
X0073806Y0037623D03*
X0052875Y0091976D03*
X0048149Y0102104D03*
X0052875Y0189542D03*
X0052875Y0189880D03*
X0052875Y0190218D03*
X0052875Y0190555D03*
X0078532Y0189205D03*
X0060977Y0282720D03*
X0077857Y0290822D03*
X0135249Y0291159D03*
X0159556Y0291159D03*
X0165633Y0288459D03*
X0165633Y0288121D03*
X0165633Y0286095D03*
X0165633Y0285758D03*
X0165633Y0285420D03*
X0203444Y0213849D03*
X0223025Y0205747D03*
X0223025Y0202033D03*
X0254759Y0203721D03*
X0254759Y0204059D03*
X0218298Y0048089D03*
X0214247Y0039649D03*
X0214247Y0039311D03*
D26*
X0214585Y0040324D03*
X0211209Y0037961D03*
X0211209Y0037623D03*
X0239567Y0101767D03*
X0248344Y0203384D03*
X0232815Y0219251D03*
X0232815Y0219589D03*
X0229439Y0204059D03*
X0229439Y0203721D03*
X0211884Y0214862D03*
X0211884Y0215200D03*
X0204457Y0219251D03*
X0204457Y0219589D03*
X0186226Y0213174D03*
X0170697Y0219251D03*
X0159894Y0204059D03*
X0159894Y0203721D03*
X0141663Y0287108D03*
X0146390Y0291159D03*
X0178799Y0287108D03*
X0091024Y0290822D03*
X0077520Y0286095D03*
D27*
X0075663Y0288121D03*
X0082415Y0290822D03*
X0082752Y0290484D03*
X0085453Y0288459D03*
X0085791Y0290822D03*
X0088829Y0289809D03*
X0092880Y0289809D03*
X0092880Y0289471D03*
X0097269Y0288796D03*
X0097607Y0288459D03*
X0097944Y0288121D03*
X0060809Y0292510D03*
X0060809Y0280694D03*
X0050343Y0361718D03*
X0050343Y0365431D03*
X0139131Y0288459D03*
X0139131Y0288121D03*
X0139131Y0285758D03*
X0139131Y0285420D03*
X0154661Y0286095D03*
X0176267Y0285758D03*
X0176267Y0285420D03*
X0176267Y0288121D03*
X0176267Y0288459D03*
X0180656Y0219589D03*
X0177955Y0215875D03*
X0172554Y0215875D03*
X0172554Y0215537D03*
X0172554Y0216213D03*
X0172554Y0216550D03*
X0172554Y0216888D03*
X0167827Y0216888D03*
X0167827Y0216550D03*
X0167827Y0216213D03*
X0167827Y0215875D03*
X0163439Y0216550D03*
X0163439Y0213174D03*
X0159387Y0213174D03*
X0159050Y0214187D03*
X0158712Y0215200D03*
X0158712Y0216550D03*
X0166139Y0206085D03*
X0160738Y0204397D03*
X0180994Y0171987D03*
X0176267Y0170974D03*
X0167490Y0161522D03*
X0195848Y0169624D03*
X0199561Y0168611D03*
X0199561Y0171650D03*
X0195173Y0176714D03*
X0195173Y0177051D03*
X0214754Y0169624D03*
X0230283Y0185829D03*
X0230283Y0186504D03*
X0230283Y0186842D03*
X0233321Y0186842D03*
X0233321Y0187179D03*
X0233321Y0186504D03*
X0233321Y0186166D03*
X0240073Y0185829D03*
X0240073Y0185491D03*
X0240073Y0187517D03*
X0240073Y0187854D03*
X0244124Y0185829D03*
X0244124Y0185491D03*
X0249526Y0186842D03*
X0249526Y0187179D03*
X0249526Y0187517D03*
X0249526Y0187854D03*
X0249526Y0188192D03*
X0249526Y0188530D03*
X0250876Y0189542D03*
X0250876Y0189880D03*
X0250876Y0185829D03*
X0250876Y0185491D03*
X0232984Y0168611D03*
X0236360Y0206085D03*
X0211040Y0206085D03*
X0192134Y0206085D03*
X0190109Y0213174D03*
X0189771Y0213512D03*
X0189433Y0213849D03*
X0189096Y0214187D03*
X0188758Y0214525D03*
X0188421Y0214862D03*
X0263368Y0268540D03*
X0263368Y0272592D03*
X0263368Y0299262D03*
X0263368Y0330658D03*
X0263368Y0334710D03*
X0166815Y0361718D03*
X0166815Y0363406D03*
X0272145Y0207435D03*
X0238723Y0098391D03*
X0074313Y0038298D03*
X0066548Y0043700D03*
X0053381Y0092652D03*
X0048655Y0102780D03*
X0043254Y0187854D03*
X0043254Y0191568D03*
X0037514Y0187854D03*
X0063172Y0187854D03*
X0068236Y0187854D03*
D28*
X0097607Y0287108D03*
X0084441Y0289471D03*
X0084441Y0289809D03*
X0078026Y0290147D03*
X0179306Y0219251D03*
X0228933Y0190218D03*
X0228933Y0189542D03*
X0228933Y0185154D03*
X0238723Y0186842D03*
X0238723Y0187179D03*
X0213403Y0038973D03*
X0211040Y0038298D03*
D29*
X0235853Y0090626D03*
X0233828Y0099741D03*
X0194666Y0169286D03*
X0209521Y0171650D03*
X0218298Y0209798D03*
X0218298Y0210136D03*
X0218298Y0210473D03*
X0218298Y0210811D03*
X0218298Y0211149D03*
X0218298Y0211486D03*
X0218298Y0211824D03*
X0218298Y0212161D03*
X0218298Y0212499D03*
X0218298Y0212837D03*
X0218298Y0213174D03*
X0218298Y0213512D03*
X0218298Y0213849D03*
X0218298Y0214187D03*
X0218298Y0214525D03*
X0218298Y0214862D03*
X0218298Y0215200D03*
X0218298Y0215537D03*
X0218298Y0215875D03*
X0218298Y0216213D03*
X0218298Y0216550D03*
X0218298Y0216888D03*
X0218298Y0217225D03*
X0218298Y0217563D03*
X0218298Y0217901D03*
X0218298Y0218238D03*
X0218298Y0218576D03*
X0218298Y0218913D03*
X0218298Y0219251D03*
X0218298Y0219589D03*
X0225725Y0219589D03*
X0225725Y0219251D03*
X0225725Y0218913D03*
X0225725Y0218576D03*
X0225725Y0218238D03*
X0225725Y0215200D03*
X0225725Y0214862D03*
X0225725Y0214525D03*
X0225725Y0214187D03*
X0225725Y0213849D03*
X0225725Y0211149D03*
X0225725Y0210811D03*
X0225725Y0210473D03*
X0225725Y0210136D03*
X0225725Y0209798D03*
X0243281Y0205409D03*
X0243281Y0205072D03*
X0264887Y0213174D03*
X0264887Y0213512D03*
X0264887Y0213849D03*
X0264887Y0214187D03*
X0264887Y0214525D03*
X0264887Y0214862D03*
X0264887Y0215200D03*
X0264887Y0215537D03*
X0264887Y0215875D03*
X0264887Y0216213D03*
X0264887Y0216550D03*
X0264887Y0216888D03*
X0264887Y0217225D03*
X0264887Y0217563D03*
X0264887Y0217901D03*
X0264887Y0218238D03*
X0272989Y0218238D03*
X0272989Y0217901D03*
X0272989Y0217563D03*
X0272989Y0217225D03*
X0272989Y0216888D03*
X0272989Y0216550D03*
X0272989Y0216213D03*
X0272989Y0215875D03*
X0272989Y0215537D03*
X0272989Y0215200D03*
X0272989Y0214862D03*
X0272989Y0214525D03*
X0272989Y0214187D03*
X0272989Y0213849D03*
X0272989Y0213512D03*
X0272989Y0213174D03*
X0262861Y0274955D03*
X0262861Y0275292D03*
X0262861Y0275968D03*
X0262861Y0276305D03*
X0262861Y0306689D03*
X0262861Y0307027D03*
X0220324Y0364756D03*
X0220324Y0365094D03*
X0216948Y0356654D03*
X0173060Y0356991D03*
X0173060Y0355303D03*
X0173060Y0290147D03*
X0173060Y0289809D03*
X0173735Y0289471D03*
X0173735Y0289134D03*
X0173735Y0288796D03*
X0173735Y0288459D03*
X0173735Y0288121D03*
X0173735Y0286095D03*
X0173735Y0285758D03*
X0173735Y0285420D03*
X0175761Y0288796D03*
X0175761Y0289134D03*
X0175761Y0289471D03*
X0175761Y0289809D03*
X0175761Y0290147D03*
X0170359Y0290147D03*
X0170359Y0289809D03*
X0169684Y0289471D03*
X0169684Y0289134D03*
X0169684Y0288796D03*
X0169684Y0288459D03*
X0169684Y0288121D03*
X0169684Y0286095D03*
X0169684Y0285758D03*
X0169684Y0285420D03*
X0167658Y0288796D03*
X0167658Y0289134D03*
X0167658Y0289471D03*
X0167658Y0289809D03*
X0167658Y0290147D03*
X0164282Y0290147D03*
X0164282Y0289809D03*
X0161582Y0289809D03*
X0161582Y0289471D03*
X0161582Y0289134D03*
X0161582Y0288796D03*
X0161582Y0288459D03*
X0161582Y0288121D03*
X0161582Y0286095D03*
X0161582Y0285758D03*
X0161582Y0285420D03*
X0163607Y0287108D03*
X0161582Y0290147D03*
X0138625Y0290147D03*
X0138625Y0289809D03*
X0138625Y0289471D03*
X0138625Y0289134D03*
X0138625Y0288796D03*
X0136599Y0288796D03*
X0136599Y0288459D03*
X0136599Y0288121D03*
X0136599Y0289134D03*
X0136599Y0289471D03*
X0136599Y0289809D03*
X0136599Y0290147D03*
X0132548Y0290147D03*
X0132548Y0289809D03*
X0132548Y0289471D03*
X0132548Y0289134D03*
X0132548Y0288796D03*
X0129847Y0288796D03*
X0129847Y0289134D03*
X0129847Y0289471D03*
X0129847Y0289809D03*
X0129847Y0290147D03*
X0129847Y0290484D03*
X0129847Y0290822D03*
X0126471Y0290822D03*
X0126471Y0290484D03*
X0126471Y0290147D03*
X0126471Y0289809D03*
X0126471Y0289471D03*
X0126471Y0289134D03*
X0126471Y0288796D03*
X0136599Y0286095D03*
X0136599Y0285758D03*
X0136599Y0285420D03*
X0109592Y0287108D03*
X0109592Y0288121D03*
X0109592Y0288459D03*
X0109592Y0288796D03*
X0109592Y0289134D03*
X0109592Y0289471D03*
X0109592Y0289809D03*
X0109592Y0290147D03*
X0100139Y0289134D03*
X0091361Y0285420D03*
X0065704Y0295548D03*
X0058277Y0285420D03*
X0059627Y0283057D03*
X0043422Y0364756D03*
X0043422Y0365094D03*
X0039371Y0365094D03*
X0161582Y0219589D03*
X0168334Y0211149D03*
X0175761Y0180090D03*
X0176436Y0170299D03*
X0197367Y0210811D03*
X0197367Y0211149D03*
X0197367Y0211486D03*
X0197367Y0211824D03*
X0197367Y0212161D03*
X0197367Y0212499D03*
X0197367Y0212837D03*
X0197367Y0213174D03*
X0197367Y0213512D03*
X0197367Y0213849D03*
X0197367Y0214187D03*
X0197367Y0214525D03*
X0197367Y0214862D03*
X0197367Y0215200D03*
X0197367Y0215537D03*
X0197367Y0215875D03*
X0197367Y0216213D03*
X0197367Y0216550D03*
X0197367Y0216888D03*
X0197367Y0217225D03*
X0197367Y0217563D03*
X0197367Y0217901D03*
X0197367Y0218238D03*
X0197367Y0218576D03*
X0197367Y0218913D03*
X0197367Y0219251D03*
X0197367Y0219589D03*
X0193991Y0285420D03*
X0193991Y0285758D03*
X0077857Y0191568D03*
X0054225Y0191230D03*
X0051525Y0191230D03*
X0053550Y0092989D03*
X0074481Y0038636D03*
D30*
X0070768Y0044037D03*
X0161244Y0156120D03*
X0160569Y0157808D03*
X0160569Y0158146D03*
X0160569Y0158483D03*
X0160569Y0158821D03*
X0160569Y0159158D03*
X0160569Y0159496D03*
X0160569Y0160509D03*
X0160569Y0160846D03*
X0160569Y0161184D03*
X0160569Y0161522D03*
X0160569Y0161859D03*
X0160569Y0162197D03*
X0160569Y0163210D03*
X0160569Y0163547D03*
X0160569Y0163885D03*
X0160569Y0164222D03*
X0160569Y0164560D03*
X0160569Y0164898D03*
X0160569Y0165235D03*
X0160569Y0165573D03*
X0160569Y0165910D03*
X0160569Y0166248D03*
X0160569Y0166586D03*
X0160569Y0166923D03*
X0160569Y0167261D03*
X0160569Y0167598D03*
X0160569Y0167936D03*
X0160569Y0168274D03*
X0160569Y0168611D03*
X0160569Y0168949D03*
X0160569Y0169286D03*
X0160569Y0169624D03*
X0160569Y0169962D03*
X0160569Y0170299D03*
X0160569Y0170637D03*
X0160569Y0170974D03*
X0160569Y0171312D03*
X0160569Y0171650D03*
X0160569Y0171987D03*
X0160569Y0172325D03*
X0160569Y0172662D03*
X0160569Y0173000D03*
X0160569Y0173338D03*
X0160569Y0173675D03*
X0160569Y0174013D03*
X0160569Y0174350D03*
X0160569Y0174688D03*
X0160569Y0175026D03*
X0160569Y0175363D03*
X0160569Y0175701D03*
X0160569Y0176038D03*
X0160569Y0176376D03*
X0160569Y0176714D03*
X0160569Y0177051D03*
X0160569Y0177389D03*
X0160569Y0177726D03*
X0160569Y0178064D03*
X0160569Y0178402D03*
X0160569Y0178739D03*
X0160569Y0179077D03*
X0160569Y0179414D03*
X0160569Y0179752D03*
X0160569Y0180090D03*
X0160569Y0180427D03*
X0160569Y0180765D03*
X0160569Y0181102D03*
X0160569Y0181440D03*
X0160569Y0181778D03*
X0160569Y0182115D03*
X0160569Y0182453D03*
X0160569Y0182790D03*
X0172722Y0180090D03*
X0184876Y0171987D03*
X0186902Y0180090D03*
X0196354Y0180090D03*
X0190278Y0163885D03*
X0189602Y0163885D03*
X0184876Y0163885D03*
X0171372Y0163885D03*
X0170697Y0163885D03*
X0165970Y0163885D03*
X0215260Y0215537D03*
X0231465Y0189880D03*
X0231465Y0185491D03*
X0222687Y0171987D03*
X0263199Y0203384D03*
X0263874Y0204397D03*
X0264549Y0204059D03*
X0265224Y0204059D03*
X0266575Y0203721D03*
X0266575Y0202371D03*
X0266575Y0205747D03*
X0274677Y0205747D03*
X0274677Y0205409D03*
X0274677Y0205072D03*
X0274677Y0204734D03*
X0274677Y0204397D03*
X0274677Y0204059D03*
X0274677Y0203721D03*
X0274677Y0203384D03*
X0274677Y0203046D03*
X0274677Y0202709D03*
X0274677Y0202371D03*
X0274677Y0202033D03*
X0274677Y0206085D03*
X0274677Y0206422D03*
X0274677Y0206760D03*
X0274677Y0207097D03*
X0274677Y0207435D03*
X0274677Y0207773D03*
X0274677Y0208110D03*
X0274677Y0208448D03*
X0274677Y0208785D03*
X0274677Y0209123D03*
X0274677Y0209461D03*
X0274677Y0209798D03*
X0274677Y0210136D03*
X0274677Y0210473D03*
X0274677Y0210811D03*
X0274677Y0211149D03*
X0274677Y0211486D03*
X0274677Y0211824D03*
X0274677Y0212161D03*
X0274677Y0212499D03*
X0274677Y0212837D03*
X0274677Y0213174D03*
X0274677Y0213512D03*
X0274677Y0213849D03*
X0274677Y0214187D03*
X0274677Y0214525D03*
X0274677Y0214862D03*
X0274677Y0215200D03*
X0274677Y0215537D03*
X0274677Y0215875D03*
X0274677Y0216213D03*
X0274677Y0216550D03*
X0274677Y0216888D03*
X0274677Y0217225D03*
X0274677Y0217563D03*
X0274677Y0217901D03*
X0274677Y0218238D03*
X0274677Y0218576D03*
X0274677Y0218913D03*
X0274677Y0219251D03*
X0274677Y0219589D03*
X0274677Y0219926D03*
X0274677Y0220264D03*
X0274677Y0220601D03*
X0265224Y0269891D03*
X0265224Y0280356D03*
X0265224Y0282720D03*
X0265224Y0332009D03*
X0265224Y0338423D03*
X0265224Y0342474D03*
X0265224Y0344838D03*
X0190278Y0294873D03*
X0190278Y0294535D03*
X0190278Y0294198D03*
X0190278Y0293860D03*
X0190278Y0293523D03*
X0190278Y0292510D03*
X0190278Y0291497D03*
X0190278Y0291159D03*
X0190278Y0290822D03*
X0190278Y0290484D03*
X0190278Y0290147D03*
X0190278Y0289809D03*
X0190278Y0289471D03*
X0190278Y0289134D03*
X0190278Y0288796D03*
X0190278Y0288459D03*
X0190278Y0288121D03*
X0190278Y0287108D03*
X0190278Y0286095D03*
X0190278Y0285758D03*
X0190278Y0285420D03*
X0190278Y0285083D03*
X0190278Y0284745D03*
X0190278Y0284408D03*
X0190278Y0284070D03*
X0190278Y0283732D03*
X0190278Y0283395D03*
X0190278Y0283057D03*
X0190278Y0282720D03*
X0190278Y0281707D03*
X0163945Y0289471D03*
X0155843Y0291159D03*
X0126809Y0291159D03*
X0126134Y0291159D03*
X0109254Y0291159D03*
X0100476Y0288796D03*
X0084947Y0291159D03*
X0082246Y0288796D03*
X0065366Y0290484D03*
X0061315Y0294873D03*
X0058614Y0293860D03*
X0055913Y0283732D03*
X0051187Y0356316D03*
X0048486Y0356316D03*
X0047136Y0356991D03*
X0045785Y0356316D03*
X0044435Y0356991D03*
X0043085Y0356316D03*
X0026205Y0191230D03*
X0061990Y0191230D03*
X0074144Y0191230D03*
X0211884Y0043362D03*
X0214585Y0043362D03*
X0215260Y0041674D03*
X0217285Y0042012D03*
X0230789Y0094677D03*
X0235516Y0104805D03*
X0274677Y0156458D03*
X0274677Y0156795D03*
D31*
X0241255Y0203384D03*
X0256109Y0209798D03*
X0256109Y0210136D03*
X0256109Y0210473D03*
X0256109Y0218913D03*
X0256109Y0219251D03*
X0256109Y0219589D03*
X0233153Y0170299D03*
X0228426Y0168611D03*
X0205469Y0170637D03*
X0190615Y0163547D03*
X0190615Y0160509D03*
X0185889Y0160509D03*
X0185889Y0163547D03*
X0181162Y0162197D03*
X0181162Y0160509D03*
X0176436Y0169624D03*
X0176436Y0169962D03*
X0176436Y0170637D03*
X0190615Y0179752D03*
X0190615Y0210811D03*
X0185214Y0213849D03*
X0172385Y0213512D03*
X0172385Y0213174D03*
X0172385Y0212837D03*
X0172385Y0212499D03*
X0172385Y0212161D03*
X0172385Y0211824D03*
X0172385Y0211486D03*
X0172385Y0211149D03*
X0163607Y0213512D03*
X0163607Y0213849D03*
X0163607Y0214187D03*
X0163607Y0214525D03*
X0163607Y0214862D03*
X0163607Y0216213D03*
X0158881Y0216888D03*
X0158881Y0214862D03*
X0158881Y0214525D03*
X0160906Y0204734D03*
X0158881Y0203384D03*
X0148753Y0286095D03*
X0139300Y0286095D03*
X0133223Y0286095D03*
X0171710Y0290484D03*
X0171710Y0290822D03*
X0176436Y0286095D03*
X0216273Y0353278D03*
X0216273Y0358679D03*
X0218298Y0363068D03*
X0264212Y0287108D03*
X0238554Y0097378D03*
X0214922Y0050452D03*
X0212897Y0045725D03*
X0210871Y0042012D03*
X0217623Y0044375D03*
X0217623Y0044713D03*
X0067729Y0045388D03*
X0067729Y0045725D03*
X0067054Y0047076D03*
X0067729Y0047751D03*
X0067729Y0048089D03*
X0063003Y0191568D03*
X0085284Y0285758D03*
X0085284Y0286095D03*
X0088660Y0289134D03*
X0088660Y0289471D03*
X0079883Y0289134D03*
X0079883Y0288796D03*
X0079883Y0288459D03*
X0079883Y0288121D03*
D32*
X0075494Y0288459D03*
X0075494Y0288796D03*
X0085622Y0288121D03*
X0085622Y0287108D03*
X0093049Y0289134D03*
X0132886Y0288459D03*
X0132886Y0288121D03*
X0132886Y0285758D03*
X0132886Y0285420D03*
X0170022Y0219589D03*
X0167996Y0211486D03*
X0159219Y0213512D03*
X0159219Y0213849D03*
X0158543Y0215537D03*
X0158543Y0215875D03*
X0158543Y0216213D03*
X0197705Y0210473D03*
X0197705Y0210136D03*
X0197705Y0209798D03*
X0227413Y0189205D03*
X0227413Y0188867D03*
X0227413Y0186504D03*
X0242943Y0204397D03*
X0242943Y0204734D03*
X0263199Y0277656D03*
X0262524Y0286095D03*
X0217961Y0356991D03*
X0214585Y0354966D03*
X0219986Y0364081D03*
X0219986Y0364418D03*
X0167321Y0365431D03*
X0197705Y0285083D03*
X0197705Y0284745D03*
X0078195Y0191230D03*
X0078195Y0190893D03*
X0068067Y0048764D03*
X0067392Y0047413D03*
X0067392Y0046401D03*
X0067392Y0046063D03*
X0066717Y0043025D03*
X0211209Y0042687D03*
X0217285Y0043700D03*
X0235516Y0090964D03*
X0231465Y0094002D03*
X0231465Y0094340D03*
X0234165Y0099404D03*
X0236191Y0104130D03*
X0238892Y0098053D03*
D33*
X0215260Y0050114D03*
X0176774Y0162197D03*
X0172047Y0161522D03*
X0172047Y0163547D03*
X0167321Y0163547D03*
X0172047Y0170299D03*
X0176774Y0178402D03*
X0181500Y0178402D03*
X0185551Y0179752D03*
X0186226Y0171650D03*
X0186226Y0169624D03*
X0180825Y0168949D03*
X0180825Y0168611D03*
X0180825Y0171650D03*
X0171372Y0179752D03*
X0161244Y0211149D03*
X0163270Y0216888D03*
X0159219Y0217225D03*
X0169346Y0213512D03*
X0172722Y0217225D03*
X0172722Y0217563D03*
X0176774Y0217225D03*
X0186902Y0216213D03*
X0187577Y0215537D03*
X0211209Y0205747D03*
X0211209Y0202033D03*
X0195004Y0179752D03*
X0195679Y0171650D03*
X0199730Y0168949D03*
X0214585Y0171650D03*
X0219311Y0170299D03*
X0224037Y0169624D03*
X0224037Y0171650D03*
X0230114Y0186166D03*
X0230114Y0187179D03*
X0230114Y0187517D03*
X0236191Y0202033D03*
X0236191Y0202371D03*
X0236191Y0205747D03*
X0263874Y0266515D03*
X0172047Y0361718D03*
X0172047Y0362055D03*
X0167321Y0358342D03*
X0165970Y0291159D03*
X0145715Y0286095D03*
X0097100Y0289134D03*
X0093049Y0287108D03*
X0091024Y0291159D03*
X0063341Y0291497D03*
X0047811Y0191568D03*
X0047811Y0188192D03*
X0047811Y0187854D03*
X0043085Y0188192D03*
X0037683Y0188192D03*
X0066717Y0044037D03*
D34*
X0066379Y0045050D03*
X0166983Y0168949D03*
X0171710Y0168949D03*
X0171710Y0171650D03*
X0176436Y0176714D03*
X0176436Y0177051D03*
X0176436Y0179752D03*
X0181162Y0179752D03*
X0190615Y0176714D03*
X0195342Y0162197D03*
X0195342Y0161859D03*
X0204794Y0169962D03*
X0204794Y0170299D03*
X0209521Y0169624D03*
X0218973Y0171650D03*
X0198042Y0204059D03*
X0190615Y0216888D03*
X0178462Y0205747D03*
X0168334Y0212499D03*
X0166983Y0178402D03*
X0176436Y0163547D03*
X0176436Y0160846D03*
X0176436Y0160509D03*
X0211546Y0215537D03*
X0216273Y0353615D03*
X0216273Y0358342D03*
X0085284Y0289134D03*
X0057601Y0295886D03*
X0039371Y0361718D03*
X0039371Y0365431D03*
X0083934Y0191568D03*
X0083934Y0189205D03*
D35*
X0032450Y0188192D03*
X0032450Y0187854D03*
X0027386Y0187854D03*
X0027386Y0188192D03*
X0027386Y0191568D03*
X0045279Y0100416D03*
X0168165Y0217563D03*
X0197874Y0206085D03*
X0197874Y0205747D03*
X0197874Y0202371D03*
X0197874Y0202033D03*
X0203613Y0214187D03*
X0203613Y0214525D03*
X0204288Y0218913D03*
X0216779Y0202371D03*
X0216779Y0202033D03*
X0223193Y0202371D03*
X0223193Y0206085D03*
X0226907Y0211486D03*
X0226907Y0211824D03*
X0226907Y0212161D03*
X0226907Y0212499D03*
X0226907Y0212837D03*
X0226907Y0213174D03*
X0226907Y0213512D03*
X0226907Y0215537D03*
X0226907Y0215875D03*
X0226907Y0216213D03*
X0226907Y0216550D03*
X0226907Y0216888D03*
X0226907Y0217225D03*
X0226907Y0217563D03*
X0226907Y0217901D03*
X0232646Y0218913D03*
X0242774Y0218913D03*
X0242774Y0219251D03*
X0242774Y0219589D03*
X0242099Y0204059D03*
X0242099Y0203721D03*
X0244800Y0189205D03*
X0244800Y0188867D03*
X0244800Y0188530D03*
X0244800Y0188192D03*
X0244800Y0187854D03*
X0244800Y0187517D03*
X0244800Y0187179D03*
X0244800Y0186842D03*
X0244800Y0186504D03*
X0244800Y0186166D03*
X0233996Y0189542D03*
X0233996Y0189880D03*
X0228933Y0189880D03*
X0257628Y0189205D03*
X0257628Y0188867D03*
X0257628Y0188530D03*
X0257628Y0188192D03*
X0257628Y0187179D03*
X0257628Y0186842D03*
X0257628Y0186504D03*
X0257628Y0186166D03*
X0268431Y0186842D03*
X0268431Y0187179D03*
X0268431Y0187517D03*
X0268431Y0187854D03*
X0268431Y0188192D03*
X0268431Y0188530D03*
X0273158Y0188867D03*
X0273158Y0189205D03*
X0273158Y0186504D03*
X0273158Y0186166D03*
X0263368Y0263476D03*
X0263368Y0263814D03*
X0263368Y0264152D03*
X0263368Y0264489D03*
X0263368Y0269216D03*
X0263368Y0269553D03*
X0263368Y0271916D03*
X0263368Y0273604D03*
X0263368Y0273942D03*
X0263368Y0274280D03*
X0263368Y0274617D03*
X0263368Y0277318D03*
X0263368Y0278668D03*
X0263368Y0279006D03*
X0263368Y0279344D03*
X0263368Y0279681D03*
X0263368Y0283732D03*
X0263368Y0284070D03*
X0263368Y0284408D03*
X0263368Y0284745D03*
X0263368Y0299937D03*
X0263368Y0300275D03*
X0263368Y0302300D03*
X0263368Y0304326D03*
X0263368Y0304663D03*
X0263368Y0305001D03*
X0263368Y0305339D03*
X0263368Y0307364D03*
X0263368Y0307702D03*
X0263368Y0331334D03*
X0263368Y0331671D03*
X0263368Y0333697D03*
X0263368Y0335722D03*
X0263368Y0336060D03*
X0263368Y0336398D03*
X0263368Y0336735D03*
X0263368Y0340786D03*
X0263368Y0341124D03*
X0263368Y0341462D03*
X0263368Y0341799D03*
X0219142Y0363406D03*
X0219142Y0363743D03*
X0135418Y0287108D03*
X0097944Y0285758D03*
X0090517Y0285758D03*
X0054732Y0363406D03*
X0054732Y0363743D03*
X0044604Y0363743D03*
X0044604Y0363406D03*
X0044604Y0364081D03*
X0044604Y0364418D03*
X0236697Y0103455D03*
X0231971Y0093327D03*
X0235009Y0091639D03*
X0215429Y0049777D03*
D36*
X0234334Y0092314D03*
X0235009Y0188192D03*
X0235009Y0188530D03*
X0188083Y0219589D03*
X0179981Y0214525D03*
X0161413Y0212161D03*
X0161413Y0218238D03*
X0097944Y0289809D03*
X0097944Y0290147D03*
X0098282Y0290822D03*
X0078026Y0289809D03*
D37*
X0097438Y0286095D03*
X0098113Y0289471D03*
X0098113Y0290484D03*
X0171034Y0214187D03*
X0171034Y0213849D03*
X0202769Y0213512D03*
X0202769Y0213174D03*
X0171710Y0287108D03*
X0237204Y0102780D03*
X0236529Y0099066D03*
X0236529Y0098728D03*
D38*
X0178968Y0211149D03*
X0178968Y0211486D03*
X0179306Y0212161D03*
X0179306Y0212499D03*
X0170866Y0218576D03*
X0161413Y0217901D03*
X0161413Y0212837D03*
X0060809Y0289809D03*
X0046292Y0101092D03*
D39*
X0047136Y0101429D03*
X0159894Y0287108D03*
X0159894Y0290484D03*
X0159894Y0290822D03*
X0134911Y0290822D03*
X0134911Y0290484D03*
D40*
X0217792Y0154770D03*
D41*
X0160569Y0157133D03*
X0160569Y0159834D03*
X0160569Y0162534D03*
X0190278Y0282044D03*
X0190278Y0286433D03*
X0190278Y0287446D03*
X0190278Y0291835D03*
X0190278Y0292847D03*
X0066717Y0287446D03*
X0066717Y0286433D03*
D42*
X0096088Y0291835D03*
X0275015Y0162534D03*
X0275015Y0159834D03*
X0275015Y0157133D03*
D43*
X0196354Y0282382D03*
X0190278Y0282382D03*
X0190278Y0281369D03*
X0190278Y0286771D03*
X0190278Y0287783D03*
X0190278Y0292172D03*
X0190278Y0293185D03*
X0175423Y0287783D03*
X0172047Y0287783D03*
X0159894Y0287783D03*
X0159219Y0287783D03*
X0138287Y0287783D03*
X0134911Y0287783D03*
X0066717Y0287783D03*
X0160569Y0162872D03*
X0160569Y0160171D03*
X0160569Y0157470D03*
D44*
X0162932Y0287783D03*
X0141326Y0287783D03*
X0275015Y0162872D03*
X0275015Y0160171D03*
X0275015Y0157470D03*
D45*
X0191966Y0162534D03*
X0189265Y0162534D03*
X0187239Y0162534D03*
X0184538Y0162534D03*
X0182513Y0162534D03*
X0177786Y0162534D03*
X0173060Y0162534D03*
X0170359Y0162534D03*
X0168334Y0162534D03*
X0165633Y0162534D03*
X0062328Y0281031D03*
D46*
X0195342Y0162534D03*
D47*
X0191966Y0162872D03*
X0189265Y0162872D03*
X0187239Y0162872D03*
X0184538Y0162872D03*
X0182513Y0162872D03*
X0177786Y0162872D03*
X0173060Y0162872D03*
X0170359Y0162872D03*
X0168334Y0162872D03*
X0165633Y0162872D03*
X0177111Y0287783D03*
X0058952Y0281369D03*
X0056926Y0286771D03*
X0054901Y0286771D03*
X0056926Y0292172D03*
D48*
X0195342Y0162872D03*
D49*
X0217792Y0183128D03*
X0217792Y0183466D03*
X0217792Y0183803D03*
X0217792Y0184141D03*
X0217792Y0184478D03*
X0217792Y0190893D03*
X0217792Y0191230D03*
D50*
X0193147Y0190218D03*
X0193147Y0189880D03*
X0193147Y0189542D03*
X0193147Y0189205D03*
X0193147Y0188867D03*
X0193147Y0188530D03*
X0193147Y0188192D03*
X0193147Y0187854D03*
X0193147Y0187517D03*
X0193147Y0187179D03*
X0193147Y0186842D03*
X0193147Y0186504D03*
X0193147Y0186166D03*
X0193147Y0185829D03*
X0193147Y0185491D03*
X0193147Y0185154D03*
X0193147Y0184816D03*
D51*
X0253577Y0184816D03*
X0253577Y0185154D03*
X0253577Y0190218D03*
D52*
X0193316Y0190555D03*
D53*
X0253408Y0190555D03*
D54*
X0217792Y0191568D03*
X0217792Y0191906D03*
D55*
X0217792Y0192243D03*
D56*
X0217792Y0192581D03*
D57*
X0217792Y0192918D03*
D58*
X0217792Y0193256D03*
D59*
X0269613Y0201696D03*
D60*
X0207833Y0208110D03*
X0207833Y0208448D03*
X0207833Y0208785D03*
X0207833Y0209123D03*
X0207833Y0209461D03*
X0207833Y0219926D03*
X0207833Y0220264D03*
X0207833Y0220601D03*
X0207833Y0220939D03*
D61*
X0241086Y0220939D03*
X0241086Y0221277D03*
X0241086Y0220601D03*
X0241086Y0220264D03*
X0241086Y0219926D03*
X0241086Y0209461D03*
X0241086Y0209123D03*
X0241086Y0208785D03*
X0241086Y0208448D03*
X0241086Y0208110D03*
D62*
X0188590Y0211149D03*
X0179137Y0211824D03*
X0179812Y0214862D03*
X0179812Y0215200D03*
X0179812Y0215537D03*
X0171034Y0218913D03*
X0161582Y0212499D03*
X0077857Y0287108D03*
X0077857Y0289471D03*
D63*
X0170359Y0217901D03*
X0188590Y0217901D03*
X0188590Y0218238D03*
X0188590Y0218576D03*
X0188590Y0218913D03*
X0187914Y0212837D03*
X0187914Y0212499D03*
X0187914Y0212161D03*
X0187914Y0211824D03*
X0187914Y0211486D03*
D64*
X0269276Y0212161D03*
D65*
X0269107Y0212499D03*
X0194835Y0295211D03*
X0046967Y0354290D03*
X0046967Y0356654D03*
D66*
X0268938Y0219251D03*
X0268938Y0218913D03*
X0268938Y0218576D03*
X0268938Y0212837D03*
D67*
X0180150Y0214187D03*
X0170697Y0214525D03*
X0091024Y0288121D03*
X0091024Y0288459D03*
D68*
X0161582Y0217563D03*
X0170359Y0215200D03*
X0170359Y0214862D03*
X0178462Y0218913D03*
X0195342Y0288121D03*
D69*
X0188421Y0217563D03*
X0188421Y0217225D03*
D70*
X0178799Y0217563D03*
X0178799Y0217901D03*
D71*
X0178631Y0218238D03*
X0178631Y0218576D03*
X0170528Y0218238D03*
X0188758Y0219251D03*
X0195173Y0288459D03*
D72*
X0268938Y0220939D03*
D73*
X0207664Y0221277D03*
D74*
X0268938Y0221277D03*
D75*
X0265056Y0265840D03*
X0262692Y0265840D03*
X0261680Y0271241D03*
X0265056Y0271241D03*
X0265056Y0281031D03*
X0265056Y0282044D03*
X0263368Y0282044D03*
X0263368Y0281031D03*
X0261680Y0281031D03*
X0261680Y0282044D03*
X0265056Y0286433D03*
X0261680Y0287446D03*
X0199562Y0287446D03*
X0199562Y0286433D03*
X0199562Y0282044D03*
X0199562Y0281031D03*
X0190446Y0281031D03*
X0199562Y0291835D03*
X0199562Y0292847D03*
X0065535Y0292847D03*
X0064860Y0287446D03*
X0056757Y0287446D03*
X0055069Y0287446D03*
X0055069Y0286433D03*
X0056082Y0292847D03*
D76*
X0056082Y0293185D03*
X0056757Y0287783D03*
X0055069Y0287783D03*
X0060808Y0287783D03*
X0064860Y0287783D03*
X0064860Y0286771D03*
X0066885Y0286771D03*
X0065535Y0293185D03*
X0132042Y0287783D03*
X0171203Y0287783D03*
X0194835Y0282382D03*
X0199562Y0282382D03*
X0199562Y0281369D03*
X0199562Y0286771D03*
X0199562Y0287783D03*
X0199562Y0292172D03*
X0199562Y0293185D03*
X0261680Y0282382D03*
X0261680Y0281369D03*
X0263368Y0281369D03*
X0265056Y0281369D03*
X0265056Y0282382D03*
X0265056Y0266177D03*
X0262692Y0266177D03*
D77*
X0264043Y0266852D03*
X0133730Y0286433D03*
X0093218Y0287446D03*
X0079714Y0287446D03*
X0060809Y0286433D03*
X0060809Y0292847D03*
D78*
X0060808Y0286771D03*
X0117863Y0287783D03*
X0136431Y0287783D03*
X0139806Y0287783D03*
X0142845Y0287783D03*
X0157699Y0287783D03*
X0161413Y0287783D03*
X0173566Y0287783D03*
X0264043Y0267190D03*
D79*
X0263368Y0271579D03*
X0263368Y0276980D03*
X0263368Y0308377D03*
D80*
X0263368Y0308039D03*
X0263368Y0302638D03*
X0263368Y0276643D03*
X0263368Y0334034D03*
X0135418Y0287446D03*
D81*
X0195342Y0280019D03*
D82*
X0060640Y0287446D03*
X0059289Y0281031D03*
D83*
X0062665Y0281369D03*
X0064691Y0292172D03*
X0116006Y0287783D03*
X0163945Y0287783D03*
D84*
X0264043Y0287446D03*
X0063509Y0282044D03*
X0058108Y0282044D03*
D85*
X0058277Y0282382D03*
X0092712Y0286771D03*
X0263536Y0302975D03*
X0263536Y0334372D03*
D86*
X0063172Y0282382D03*
X0060808Y0292172D03*
X0060808Y0293185D03*
D87*
X0057095Y0286433D03*
X0064860Y0286433D03*
X0191797Y0291835D03*
X0191797Y0292847D03*
X0198211Y0292847D03*
X0198211Y0291835D03*
D88*
X0077689Y0286433D03*
D89*
X0075832Y0287446D03*
X0085284Y0286433D03*
X0139975Y0286433D03*
X0177111Y0286433D03*
D90*
X0159894Y0287446D03*
X0091024Y0286433D03*
D91*
X0097438Y0286433D03*
X0171710Y0287446D03*
D92*
X0173735Y0286433D03*
X0169684Y0286433D03*
X0167658Y0286433D03*
X0163607Y0286433D03*
X0163607Y0287446D03*
X0161582Y0286433D03*
X0136599Y0286433D03*
X0109592Y0286433D03*
X0109592Y0287446D03*
D93*
X0118031Y0286433D03*
X0128159Y0286433D03*
X0128159Y0287446D03*
X0143014Y0286433D03*
X0149091Y0286433D03*
X0149091Y0287446D03*
X0151116Y0287446D03*
X0151116Y0286433D03*
X0155167Y0286433D03*
X0155167Y0287446D03*
X0180150Y0286433D03*
X0192303Y0286433D03*
D94*
X0262524Y0286433D03*
X0085622Y0287446D03*
D95*
X0077857Y0286771D03*
X0097438Y0286771D03*
D96*
X0098282Y0287783D03*
X0093218Y0287783D03*
X0085453Y0286771D03*
X0133730Y0286771D03*
X0179643Y0287783D03*
D97*
X0192472Y0286771D03*
X0191797Y0292172D03*
X0191797Y0293185D03*
X0198211Y0293185D03*
X0198211Y0292172D03*
X0262017Y0286771D03*
X0133730Y0287783D03*
X0089504Y0286771D03*
D98*
X0109592Y0286771D03*
X0109592Y0287783D03*
X0136599Y0286771D03*
X0161582Y0286771D03*
X0163607Y0286771D03*
X0167658Y0286771D03*
X0169684Y0286771D03*
X0169684Y0287783D03*
X0173735Y0286771D03*
D99*
X0180150Y0286771D03*
X0155167Y0286771D03*
X0155167Y0287783D03*
X0151116Y0287783D03*
X0151116Y0286771D03*
X0149091Y0286771D03*
X0149091Y0287783D03*
X0143014Y0286771D03*
X0128159Y0286771D03*
X0118031Y0286771D03*
X0113980Y0287783D03*
X0095750Y0287783D03*
D100*
X0079883Y0287783D03*
X0075832Y0287783D03*
X0139975Y0286771D03*
X0177111Y0286771D03*
X0264212Y0286771D03*
D101*
X0116344Y0287446D03*
X0097438Y0287446D03*
D102*
X0141663Y0287446D03*
X0178799Y0287446D03*
D103*
X0085622Y0287783D03*
D104*
X0128159Y0287783D03*
D105*
X0195004Y0288796D03*
X0195004Y0293523D03*
X0195004Y0293860D03*
D106*
X0060809Y0291835D03*
D107*
X0194835Y0295548D03*
D108*
X0046967Y0354628D03*
D109*
X0046967Y0358679D03*
X0167827Y0356316D03*
X0167827Y0355978D03*
D110*
X0046967Y0358342D03*
D111*
X0062480Y0350988D02*
X0061496Y0349020D01*
X0153622Y0349020D01*
X0152638Y0350988D01*
X0184134Y0350988D01*
X0183150Y0349020D01*
X0203228Y0349020D01*
X0202244Y0350988D01*
X0233740Y0350988D01*
X0232756Y0349020D01*
X0249094Y0349020D01*
X0249379Y0349017D01*
X0249665Y0349006D01*
X0249950Y0348989D01*
X0250234Y0348965D01*
X0250518Y0348934D01*
X0250801Y0348896D01*
X0251082Y0348851D01*
X0251363Y0348800D01*
X0251643Y0348742D01*
X0251921Y0348677D01*
X0252197Y0348605D01*
X0252471Y0348527D01*
X0252744Y0348442D01*
X0253014Y0348350D01*
X0253282Y0348252D01*
X0253548Y0348148D01*
X0253811Y0348037D01*
X0254071Y0347920D01*
X0254329Y0347797D01*
X0254583Y0347667D01*
X0254834Y0347531D01*
X0255082Y0347390D01*
X0255326Y0347242D01*
X0255567Y0347089D01*
X0255803Y0346929D01*
X0256036Y0346764D01*
X0256265Y0346594D01*
X0256490Y0346418D01*
X0256710Y0346236D01*
X0256926Y0346050D01*
X0257137Y0345858D01*
X0257344Y0345661D01*
X0257546Y0345459D01*
X0257743Y0345252D01*
X0257935Y0345041D01*
X0258121Y0344825D01*
X0258303Y0344605D01*
X0258479Y0344380D01*
X0258649Y0344151D01*
X0258814Y0343918D01*
X0258974Y0343682D01*
X0259127Y0343441D01*
X0259275Y0343197D01*
X0259416Y0342949D01*
X0259552Y0342698D01*
X0259682Y0342444D01*
X0259805Y0342186D01*
X0259922Y0341926D01*
X0260033Y0341663D01*
X0260137Y0341397D01*
X0260235Y0341129D01*
X0260327Y0340859D01*
X0260412Y0340586D01*
X0260490Y0340312D01*
X0260562Y0340036D01*
X0260627Y0339758D01*
X0260685Y0339478D01*
X0260736Y0339197D01*
X0260781Y0338916D01*
X0260819Y0338633D01*
X0260850Y0338349D01*
X0260874Y0338065D01*
X0260891Y0337780D01*
X0260902Y0337494D01*
X0260905Y0337209D01*
X0260906Y0337209D02*
X0260906Y0242720D01*
X0260905Y0242720D02*
X0260902Y0242435D01*
X0260891Y0242149D01*
X0260874Y0241864D01*
X0260850Y0241580D01*
X0260819Y0241296D01*
X0260781Y0241013D01*
X0260736Y0240732D01*
X0260685Y0240451D01*
X0260627Y0240171D01*
X0260562Y0239893D01*
X0260490Y0239617D01*
X0260412Y0239343D01*
X0260327Y0239070D01*
X0260235Y0238800D01*
X0260137Y0238532D01*
X0260033Y0238266D01*
X0259922Y0238003D01*
X0259805Y0237743D01*
X0259682Y0237485D01*
X0259552Y0237231D01*
X0259416Y0236980D01*
X0259275Y0236732D01*
X0259127Y0236488D01*
X0258974Y0236247D01*
X0258814Y0236011D01*
X0258649Y0235778D01*
X0258479Y0235549D01*
X0258303Y0235324D01*
X0258121Y0235104D01*
X0257935Y0234888D01*
X0257743Y0234677D01*
X0257546Y0234470D01*
X0257344Y0234268D01*
X0257137Y0234071D01*
X0256926Y0233879D01*
X0256710Y0233693D01*
X0256490Y0233511D01*
X0256265Y0233335D01*
X0256036Y0233165D01*
X0255803Y0233000D01*
X0255567Y0232840D01*
X0255326Y0232687D01*
X0255082Y0232539D01*
X0254834Y0232398D01*
X0254583Y0232262D01*
X0254329Y0232132D01*
X0254071Y0232009D01*
X0253811Y0231892D01*
X0253548Y0231781D01*
X0253282Y0231677D01*
X0253014Y0231579D01*
X0252744Y0231487D01*
X0252471Y0231402D01*
X0252197Y0231324D01*
X0251921Y0231252D01*
X0251643Y0231187D01*
X0251363Y0231129D01*
X0251082Y0231078D01*
X0250801Y0231033D01*
X0250518Y0230995D01*
X0250234Y0230964D01*
X0249950Y0230940D01*
X0249665Y0230923D01*
X0249379Y0230912D01*
X0249094Y0230909D01*
X0016811Y0230909D01*
X0016526Y0230912D01*
X0016240Y0230923D01*
X0015955Y0230940D01*
X0015671Y0230964D01*
X0015387Y0230995D01*
X0015104Y0231033D01*
X0014823Y0231078D01*
X0014542Y0231129D01*
X0014262Y0231187D01*
X0013984Y0231252D01*
X0013708Y0231324D01*
X0013434Y0231402D01*
X0013161Y0231487D01*
X0012891Y0231579D01*
X0012623Y0231677D01*
X0012357Y0231781D01*
X0012094Y0231892D01*
X0011834Y0232009D01*
X0011576Y0232132D01*
X0011322Y0232262D01*
X0011071Y0232398D01*
X0010823Y0232539D01*
X0010579Y0232687D01*
X0010338Y0232840D01*
X0010102Y0233000D01*
X0009869Y0233165D01*
X0009640Y0233335D01*
X0009415Y0233511D01*
X0009195Y0233693D01*
X0008979Y0233879D01*
X0008768Y0234071D01*
X0008561Y0234268D01*
X0008359Y0234470D01*
X0008162Y0234677D01*
X0007970Y0234888D01*
X0007784Y0235104D01*
X0007602Y0235324D01*
X0007426Y0235549D01*
X0007256Y0235778D01*
X0007091Y0236011D01*
X0006931Y0236247D01*
X0006778Y0236488D01*
X0006630Y0236732D01*
X0006489Y0236980D01*
X0006353Y0237231D01*
X0006223Y0237485D01*
X0006100Y0237743D01*
X0005983Y0238003D01*
X0005872Y0238266D01*
X0005768Y0238532D01*
X0005670Y0238800D01*
X0005578Y0239070D01*
X0005493Y0239343D01*
X0005415Y0239617D01*
X0005343Y0239893D01*
X0005278Y0240171D01*
X0005220Y0240451D01*
X0005169Y0240732D01*
X0005124Y0241013D01*
X0005086Y0241296D01*
X0005055Y0241580D01*
X0005031Y0241864D01*
X0005014Y0242149D01*
X0005003Y0242435D01*
X0005000Y0242720D01*
X0005000Y0337209D01*
X0005003Y0337494D01*
X0005014Y0337780D01*
X0005031Y0338065D01*
X0005055Y0338349D01*
X0005086Y0338633D01*
X0005124Y0338916D01*
X0005169Y0339197D01*
X0005220Y0339478D01*
X0005278Y0339758D01*
X0005343Y0340036D01*
X0005415Y0340312D01*
X0005493Y0340586D01*
X0005578Y0340859D01*
X0005670Y0341129D01*
X0005768Y0341397D01*
X0005872Y0341663D01*
X0005983Y0341926D01*
X0006100Y0342186D01*
X0006223Y0342444D01*
X0006353Y0342698D01*
X0006489Y0342949D01*
X0006630Y0343197D01*
X0006778Y0343441D01*
X0006931Y0343682D01*
X0007091Y0343918D01*
X0007256Y0344151D01*
X0007426Y0344380D01*
X0007602Y0344605D01*
X0007784Y0344825D01*
X0007970Y0345041D01*
X0008162Y0345252D01*
X0008359Y0345459D01*
X0008561Y0345661D01*
X0008768Y0345858D01*
X0008979Y0346050D01*
X0009195Y0346236D01*
X0009415Y0346418D01*
X0009640Y0346594D01*
X0009869Y0346764D01*
X0010102Y0346929D01*
X0010338Y0347089D01*
X0010579Y0347242D01*
X0010823Y0347390D01*
X0011071Y0347531D01*
X0011322Y0347667D01*
X0011576Y0347797D01*
X0011834Y0347920D01*
X0012094Y0348037D01*
X0012357Y0348148D01*
X0012623Y0348252D01*
X0012891Y0348350D01*
X0013161Y0348442D01*
X0013434Y0348527D01*
X0013708Y0348605D01*
X0013984Y0348677D01*
X0014262Y0348742D01*
X0014542Y0348800D01*
X0014823Y0348851D01*
X0015104Y0348896D01*
X0015387Y0348934D01*
X0015671Y0348965D01*
X0015955Y0348989D01*
X0016240Y0349006D01*
X0016526Y0349017D01*
X0016811Y0349020D01*
X0031969Y0349020D01*
X0030984Y0350988D01*
X0062480Y0350988D01*
X0039203Y0255939D02*
X0036703Y0255939D01*
X0036703Y0254689D01*
X0039203Y0254689D01*
X0039203Y0255939D01*
X0039203Y0254689D02*
X0042953Y0254689D01*
X0042953Y0244689D01*
X0032953Y0244689D01*
X0032953Y0254689D01*
X0036703Y0254689D01*
X0042953Y0254689D02*
X0232953Y0254689D01*
X0232953Y0234689D01*
X0032953Y0234689D01*
X0032953Y0244689D01*
X0125768Y0206323D02*
X0125768Y0197465D01*
X0125768Y0206323D02*
X0133642Y0206323D01*
X0145453Y0199433D02*
X0145453Y0181717D01*
X0133642Y0174827D02*
X0125768Y0174827D01*
X0125768Y0183685D01*
D112*
X0040186Y0257139D02*
X0037784Y0257139D01*
X0038985Y0257139D02*
X0038985Y0260742D01*
X0040186Y0259541D01*
D113*
X0112778Y0181087D02*
X0116047Y0181087D01*
X0114412Y0179452D02*
X0114412Y0182722D01*
X0114412Y0199866D02*
X0114412Y0203135D01*
D114*
X0109547Y0223941D02*
X0007185Y0223941D01*
X0007185Y0157012D01*
X0109547Y0157012D01*
X0109547Y0223941D01*
D115*
X0087877Y0141833D02*
X0093109Y0139929D01*
X0094773Y0136361D01*
X0087877Y0141833D02*
X0052196Y0125195D01*
X0050292Y0119963D01*
X0051955Y0116395D01*
X0056947Y0105690D02*
X0060275Y0098554D01*
X0065266Y0087849D02*
X0066930Y0084281D01*
X0072162Y0082377D01*
X0107844Y0099015D01*
X0109748Y0104247D01*
X0108084Y0107816D01*
X0103092Y0118520D02*
X0099765Y0125656D01*
X0066240Y0112105D02*
X0066244Y0112443D01*
X0066257Y0112781D01*
X0066277Y0113119D01*
X0066306Y0113456D01*
X0066344Y0113792D01*
X0066389Y0114127D01*
X0066443Y0114461D01*
X0066505Y0114793D01*
X0066575Y0115124D01*
X0066653Y0115453D01*
X0066739Y0115780D01*
X0066833Y0116105D01*
X0066936Y0116428D01*
X0067046Y0116747D01*
X0067163Y0117064D01*
X0067289Y0117378D01*
X0067422Y0117689D01*
X0067563Y0117997D01*
X0067711Y0118301D01*
X0067867Y0118601D01*
X0068030Y0118897D01*
X0068200Y0119189D01*
X0068378Y0119477D01*
X0068562Y0119761D01*
X0068754Y0120040D01*
X0068952Y0120314D01*
X0069157Y0120583D01*
X0069368Y0120847D01*
X0069586Y0121106D01*
X0069810Y0121359D01*
X0070040Y0121607D01*
X0070276Y0121849D01*
X0070518Y0122085D01*
X0070766Y0122315D01*
X0071019Y0122539D01*
X0071278Y0122757D01*
X0071542Y0122968D01*
X0071811Y0123173D01*
X0072085Y0123371D01*
X0072364Y0123563D01*
X0072648Y0123747D01*
X0072936Y0123925D01*
X0073228Y0124095D01*
X0073524Y0124258D01*
X0073824Y0124414D01*
X0074128Y0124562D01*
X0074436Y0124703D01*
X0074747Y0124836D01*
X0075061Y0124962D01*
X0075378Y0125079D01*
X0075697Y0125189D01*
X0076020Y0125292D01*
X0076345Y0125386D01*
X0076672Y0125472D01*
X0077001Y0125550D01*
X0077332Y0125620D01*
X0077664Y0125682D01*
X0077998Y0125736D01*
X0078333Y0125781D01*
X0078669Y0125819D01*
X0079006Y0125848D01*
X0079344Y0125868D01*
X0079682Y0125881D01*
X0080020Y0125885D01*
X0080358Y0125881D01*
X0080696Y0125868D01*
X0081034Y0125848D01*
X0081371Y0125819D01*
X0081707Y0125781D01*
X0082042Y0125736D01*
X0082376Y0125682D01*
X0082708Y0125620D01*
X0083039Y0125550D01*
X0083368Y0125472D01*
X0083695Y0125386D01*
X0084020Y0125292D01*
X0084343Y0125189D01*
X0084662Y0125079D01*
X0084979Y0124962D01*
X0085293Y0124836D01*
X0085604Y0124703D01*
X0085912Y0124562D01*
X0086216Y0124414D01*
X0086516Y0124258D01*
X0086812Y0124095D01*
X0087104Y0123925D01*
X0087392Y0123747D01*
X0087676Y0123563D01*
X0087955Y0123371D01*
X0088229Y0123173D01*
X0088498Y0122968D01*
X0088762Y0122757D01*
X0089021Y0122539D01*
X0089274Y0122315D01*
X0089522Y0122085D01*
X0089764Y0121849D01*
X0090000Y0121607D01*
X0090230Y0121359D01*
X0090454Y0121106D01*
X0090672Y0120847D01*
X0090883Y0120583D01*
X0091088Y0120314D01*
X0091286Y0120040D01*
X0091478Y0119761D01*
X0091662Y0119477D01*
X0091840Y0119189D01*
X0092010Y0118897D01*
X0092173Y0118601D01*
X0092329Y0118301D01*
X0092477Y0117997D01*
X0092618Y0117689D01*
X0092751Y0117378D01*
X0092877Y0117064D01*
X0092994Y0116747D01*
X0093104Y0116428D01*
X0093207Y0116105D01*
X0093301Y0115780D01*
X0093387Y0115453D01*
X0093465Y0115124D01*
X0093535Y0114793D01*
X0093597Y0114461D01*
X0093651Y0114127D01*
X0093696Y0113792D01*
X0093734Y0113456D01*
X0093763Y0113119D01*
X0093783Y0112781D01*
X0093796Y0112443D01*
X0093800Y0112105D01*
X0093796Y0111767D01*
X0093783Y0111429D01*
X0093763Y0111091D01*
X0093734Y0110754D01*
X0093696Y0110418D01*
X0093651Y0110083D01*
X0093597Y0109749D01*
X0093535Y0109417D01*
X0093465Y0109086D01*
X0093387Y0108757D01*
X0093301Y0108430D01*
X0093207Y0108105D01*
X0093104Y0107782D01*
X0092994Y0107463D01*
X0092877Y0107146D01*
X0092751Y0106832D01*
X0092618Y0106521D01*
X0092477Y0106213D01*
X0092329Y0105909D01*
X0092173Y0105609D01*
X0092010Y0105313D01*
X0091840Y0105021D01*
X0091662Y0104733D01*
X0091478Y0104449D01*
X0091286Y0104170D01*
X0091088Y0103896D01*
X0090883Y0103627D01*
X0090672Y0103363D01*
X0090454Y0103104D01*
X0090230Y0102851D01*
X0090000Y0102603D01*
X0089764Y0102361D01*
X0089522Y0102125D01*
X0089274Y0101895D01*
X0089021Y0101671D01*
X0088762Y0101453D01*
X0088498Y0101242D01*
X0088229Y0101037D01*
X0087955Y0100839D01*
X0087676Y0100647D01*
X0087392Y0100463D01*
X0087104Y0100285D01*
X0086812Y0100115D01*
X0086516Y0099952D01*
X0086216Y0099796D01*
X0085912Y0099648D01*
X0085604Y0099507D01*
X0085293Y0099374D01*
X0084979Y0099248D01*
X0084662Y0099131D01*
X0084343Y0099021D01*
X0084020Y0098918D01*
X0083695Y0098824D01*
X0083368Y0098738D01*
X0083039Y0098660D01*
X0082708Y0098590D01*
X0082376Y0098528D01*
X0082042Y0098474D01*
X0081707Y0098429D01*
X0081371Y0098391D01*
X0081034Y0098362D01*
X0080696Y0098342D01*
X0080358Y0098329D01*
X0080020Y0098325D01*
X0079682Y0098329D01*
X0079344Y0098342D01*
X0079006Y0098362D01*
X0078669Y0098391D01*
X0078333Y0098429D01*
X0077998Y0098474D01*
X0077664Y0098528D01*
X0077332Y0098590D01*
X0077001Y0098660D01*
X0076672Y0098738D01*
X0076345Y0098824D01*
X0076020Y0098918D01*
X0075697Y0099021D01*
X0075378Y0099131D01*
X0075061Y0099248D01*
X0074747Y0099374D01*
X0074436Y0099507D01*
X0074128Y0099648D01*
X0073824Y0099796D01*
X0073524Y0099952D01*
X0073228Y0100115D01*
X0072936Y0100285D01*
X0072648Y0100463D01*
X0072364Y0100647D01*
X0072085Y0100839D01*
X0071811Y0101037D01*
X0071542Y0101242D01*
X0071278Y0101453D01*
X0071019Y0101671D01*
X0070766Y0101895D01*
X0070518Y0102125D01*
X0070276Y0102361D01*
X0070040Y0102603D01*
X0069810Y0102851D01*
X0069586Y0103104D01*
X0069368Y0103363D01*
X0069157Y0103627D01*
X0068952Y0103896D01*
X0068754Y0104170D01*
X0068562Y0104449D01*
X0068378Y0104733D01*
X0068200Y0105021D01*
X0068030Y0105313D01*
X0067867Y0105609D01*
X0067711Y0105909D01*
X0067563Y0106213D01*
X0067422Y0106521D01*
X0067289Y0106832D01*
X0067163Y0107146D01*
X0067046Y0107463D01*
X0066936Y0107782D01*
X0066833Y0108105D01*
X0066739Y0108430D01*
X0066653Y0108757D01*
X0066575Y0109086D01*
X0066505Y0109417D01*
X0066443Y0109749D01*
X0066389Y0110083D01*
X0066344Y0110418D01*
X0066306Y0110754D01*
X0066277Y0111091D01*
X0066257Y0111429D01*
X0066244Y0111767D01*
X0066240Y0112105D01*
X0073521Y0070935D02*
X0071617Y0065703D01*
X0073281Y0062135D01*
X0073521Y0070935D02*
X0109203Y0087573D01*
X0114435Y0085669D01*
X0116099Y0082101D01*
X0121090Y0071396D02*
X0124418Y0064260D01*
X0129409Y0053556D02*
X0131073Y0049988D01*
X0129169Y0044756D01*
X0093487Y0028117D01*
X0088256Y0030021D01*
X0086592Y0033590D01*
X0081600Y0044294D02*
X0078272Y0051430D01*
X0087565Y0057845D02*
X0087569Y0058183D01*
X0087582Y0058521D01*
X0087602Y0058859D01*
X0087631Y0059196D01*
X0087669Y0059532D01*
X0087714Y0059867D01*
X0087768Y0060201D01*
X0087830Y0060533D01*
X0087900Y0060864D01*
X0087978Y0061193D01*
X0088064Y0061520D01*
X0088158Y0061845D01*
X0088261Y0062168D01*
X0088371Y0062487D01*
X0088488Y0062804D01*
X0088614Y0063118D01*
X0088747Y0063429D01*
X0088888Y0063737D01*
X0089036Y0064041D01*
X0089192Y0064341D01*
X0089355Y0064637D01*
X0089525Y0064929D01*
X0089703Y0065217D01*
X0089887Y0065501D01*
X0090079Y0065780D01*
X0090277Y0066054D01*
X0090482Y0066323D01*
X0090693Y0066587D01*
X0090911Y0066846D01*
X0091135Y0067099D01*
X0091365Y0067347D01*
X0091601Y0067589D01*
X0091843Y0067825D01*
X0092091Y0068055D01*
X0092344Y0068279D01*
X0092603Y0068497D01*
X0092867Y0068708D01*
X0093136Y0068913D01*
X0093410Y0069111D01*
X0093689Y0069303D01*
X0093973Y0069487D01*
X0094261Y0069665D01*
X0094553Y0069835D01*
X0094849Y0069998D01*
X0095149Y0070154D01*
X0095453Y0070302D01*
X0095761Y0070443D01*
X0096072Y0070576D01*
X0096386Y0070702D01*
X0096703Y0070819D01*
X0097022Y0070929D01*
X0097345Y0071032D01*
X0097670Y0071126D01*
X0097997Y0071212D01*
X0098326Y0071290D01*
X0098657Y0071360D01*
X0098989Y0071422D01*
X0099323Y0071476D01*
X0099658Y0071521D01*
X0099994Y0071559D01*
X0100331Y0071588D01*
X0100669Y0071608D01*
X0101007Y0071621D01*
X0101345Y0071625D01*
X0101683Y0071621D01*
X0102021Y0071608D01*
X0102359Y0071588D01*
X0102696Y0071559D01*
X0103032Y0071521D01*
X0103367Y0071476D01*
X0103701Y0071422D01*
X0104033Y0071360D01*
X0104364Y0071290D01*
X0104693Y0071212D01*
X0105020Y0071126D01*
X0105345Y0071032D01*
X0105668Y0070929D01*
X0105987Y0070819D01*
X0106304Y0070702D01*
X0106618Y0070576D01*
X0106929Y0070443D01*
X0107237Y0070302D01*
X0107541Y0070154D01*
X0107841Y0069998D01*
X0108137Y0069835D01*
X0108429Y0069665D01*
X0108717Y0069487D01*
X0109001Y0069303D01*
X0109280Y0069111D01*
X0109554Y0068913D01*
X0109823Y0068708D01*
X0110087Y0068497D01*
X0110346Y0068279D01*
X0110599Y0068055D01*
X0110847Y0067825D01*
X0111089Y0067589D01*
X0111325Y0067347D01*
X0111555Y0067099D01*
X0111779Y0066846D01*
X0111997Y0066587D01*
X0112208Y0066323D01*
X0112413Y0066054D01*
X0112611Y0065780D01*
X0112803Y0065501D01*
X0112987Y0065217D01*
X0113165Y0064929D01*
X0113335Y0064637D01*
X0113498Y0064341D01*
X0113654Y0064041D01*
X0113802Y0063737D01*
X0113943Y0063429D01*
X0114076Y0063118D01*
X0114202Y0062804D01*
X0114319Y0062487D01*
X0114429Y0062168D01*
X0114532Y0061845D01*
X0114626Y0061520D01*
X0114712Y0061193D01*
X0114790Y0060864D01*
X0114860Y0060533D01*
X0114922Y0060201D01*
X0114976Y0059867D01*
X0115021Y0059532D01*
X0115059Y0059196D01*
X0115088Y0058859D01*
X0115108Y0058521D01*
X0115121Y0058183D01*
X0115125Y0057845D01*
X0115121Y0057507D01*
X0115108Y0057169D01*
X0115088Y0056831D01*
X0115059Y0056494D01*
X0115021Y0056158D01*
X0114976Y0055823D01*
X0114922Y0055489D01*
X0114860Y0055157D01*
X0114790Y0054826D01*
X0114712Y0054497D01*
X0114626Y0054170D01*
X0114532Y0053845D01*
X0114429Y0053522D01*
X0114319Y0053203D01*
X0114202Y0052886D01*
X0114076Y0052572D01*
X0113943Y0052261D01*
X0113802Y0051953D01*
X0113654Y0051649D01*
X0113498Y0051349D01*
X0113335Y0051053D01*
X0113165Y0050761D01*
X0112987Y0050473D01*
X0112803Y0050189D01*
X0112611Y0049910D01*
X0112413Y0049636D01*
X0112208Y0049367D01*
X0111997Y0049103D01*
X0111779Y0048844D01*
X0111555Y0048591D01*
X0111325Y0048343D01*
X0111089Y0048101D01*
X0110847Y0047865D01*
X0110599Y0047635D01*
X0110346Y0047411D01*
X0110087Y0047193D01*
X0109823Y0046982D01*
X0109554Y0046777D01*
X0109280Y0046579D01*
X0109001Y0046387D01*
X0108717Y0046203D01*
X0108429Y0046025D01*
X0108137Y0045855D01*
X0107841Y0045692D01*
X0107541Y0045536D01*
X0107237Y0045388D01*
X0106929Y0045247D01*
X0106618Y0045114D01*
X0106304Y0044988D01*
X0105987Y0044871D01*
X0105668Y0044761D01*
X0105345Y0044658D01*
X0105020Y0044564D01*
X0104693Y0044478D01*
X0104364Y0044400D01*
X0104033Y0044330D01*
X0103701Y0044268D01*
X0103367Y0044214D01*
X0103032Y0044169D01*
X0102696Y0044131D01*
X0102359Y0044102D01*
X0102021Y0044082D01*
X0101683Y0044069D01*
X0101345Y0044065D01*
X0101007Y0044069D01*
X0100669Y0044082D01*
X0100331Y0044102D01*
X0099994Y0044131D01*
X0099658Y0044169D01*
X0099323Y0044214D01*
X0098989Y0044268D01*
X0098657Y0044330D01*
X0098326Y0044400D01*
X0097997Y0044478D01*
X0097670Y0044564D01*
X0097345Y0044658D01*
X0097022Y0044761D01*
X0096703Y0044871D01*
X0096386Y0044988D01*
X0096072Y0045114D01*
X0095761Y0045247D01*
X0095453Y0045388D01*
X0095149Y0045536D01*
X0094849Y0045692D01*
X0094553Y0045855D01*
X0094261Y0046025D01*
X0093973Y0046203D01*
X0093689Y0046387D01*
X0093410Y0046579D01*
X0093136Y0046777D01*
X0092867Y0046982D01*
X0092603Y0047193D01*
X0092344Y0047411D01*
X0092091Y0047635D01*
X0091843Y0047865D01*
X0091601Y0048101D01*
X0091365Y0048343D01*
X0091135Y0048591D01*
X0090911Y0048844D01*
X0090693Y0049103D01*
X0090482Y0049367D01*
X0090277Y0049636D01*
X0090079Y0049910D01*
X0089887Y0050189D01*
X0089703Y0050473D01*
X0089525Y0050761D01*
X0089355Y0051053D01*
X0089192Y0051349D01*
X0089036Y0051649D01*
X0088888Y0051953D01*
X0088747Y0052261D01*
X0088614Y0052572D01*
X0088488Y0052886D01*
X0088371Y0053203D01*
X0088261Y0053522D01*
X0088158Y0053845D01*
X0088064Y0054170D01*
X0087978Y0054497D01*
X0087900Y0054826D01*
X0087830Y0055157D01*
X0087768Y0055489D01*
X0087714Y0055823D01*
X0087669Y0056158D01*
X0087631Y0056494D01*
X0087602Y0056831D01*
X0087582Y0057169D01*
X0087569Y0057507D01*
X0087565Y0057845D01*
X0154950Y0049988D02*
X0156855Y0044756D01*
X0192536Y0028117D01*
X0197768Y0030021D01*
X0199432Y0033590D01*
X0204424Y0044294D02*
X0207751Y0051430D01*
X0212743Y0062135D02*
X0214407Y0065703D01*
X0212502Y0070935D01*
X0176821Y0087573D01*
X0171589Y0085669D01*
X0169925Y0082101D01*
X0164934Y0071396D02*
X0161606Y0064260D01*
X0156614Y0053556D02*
X0154950Y0049988D01*
X0170899Y0057845D02*
X0170903Y0058183D01*
X0170916Y0058521D01*
X0170936Y0058859D01*
X0170965Y0059196D01*
X0171003Y0059532D01*
X0171048Y0059867D01*
X0171102Y0060201D01*
X0171164Y0060533D01*
X0171234Y0060864D01*
X0171312Y0061193D01*
X0171398Y0061520D01*
X0171492Y0061845D01*
X0171595Y0062168D01*
X0171705Y0062487D01*
X0171822Y0062804D01*
X0171948Y0063118D01*
X0172081Y0063429D01*
X0172222Y0063737D01*
X0172370Y0064041D01*
X0172526Y0064341D01*
X0172689Y0064637D01*
X0172859Y0064929D01*
X0173037Y0065217D01*
X0173221Y0065501D01*
X0173413Y0065780D01*
X0173611Y0066054D01*
X0173816Y0066323D01*
X0174027Y0066587D01*
X0174245Y0066846D01*
X0174469Y0067099D01*
X0174699Y0067347D01*
X0174935Y0067589D01*
X0175177Y0067825D01*
X0175425Y0068055D01*
X0175678Y0068279D01*
X0175937Y0068497D01*
X0176201Y0068708D01*
X0176470Y0068913D01*
X0176744Y0069111D01*
X0177023Y0069303D01*
X0177307Y0069487D01*
X0177595Y0069665D01*
X0177887Y0069835D01*
X0178183Y0069998D01*
X0178483Y0070154D01*
X0178787Y0070302D01*
X0179095Y0070443D01*
X0179406Y0070576D01*
X0179720Y0070702D01*
X0180037Y0070819D01*
X0180356Y0070929D01*
X0180679Y0071032D01*
X0181004Y0071126D01*
X0181331Y0071212D01*
X0181660Y0071290D01*
X0181991Y0071360D01*
X0182323Y0071422D01*
X0182657Y0071476D01*
X0182992Y0071521D01*
X0183328Y0071559D01*
X0183665Y0071588D01*
X0184003Y0071608D01*
X0184341Y0071621D01*
X0184679Y0071625D01*
X0185017Y0071621D01*
X0185355Y0071608D01*
X0185693Y0071588D01*
X0186030Y0071559D01*
X0186366Y0071521D01*
X0186701Y0071476D01*
X0187035Y0071422D01*
X0187367Y0071360D01*
X0187698Y0071290D01*
X0188027Y0071212D01*
X0188354Y0071126D01*
X0188679Y0071032D01*
X0189002Y0070929D01*
X0189321Y0070819D01*
X0189638Y0070702D01*
X0189952Y0070576D01*
X0190263Y0070443D01*
X0190571Y0070302D01*
X0190875Y0070154D01*
X0191175Y0069998D01*
X0191471Y0069835D01*
X0191763Y0069665D01*
X0192051Y0069487D01*
X0192335Y0069303D01*
X0192614Y0069111D01*
X0192888Y0068913D01*
X0193157Y0068708D01*
X0193421Y0068497D01*
X0193680Y0068279D01*
X0193933Y0068055D01*
X0194181Y0067825D01*
X0194423Y0067589D01*
X0194659Y0067347D01*
X0194889Y0067099D01*
X0195113Y0066846D01*
X0195331Y0066587D01*
X0195542Y0066323D01*
X0195747Y0066054D01*
X0195945Y0065780D01*
X0196137Y0065501D01*
X0196321Y0065217D01*
X0196499Y0064929D01*
X0196669Y0064637D01*
X0196832Y0064341D01*
X0196988Y0064041D01*
X0197136Y0063737D01*
X0197277Y0063429D01*
X0197410Y0063118D01*
X0197536Y0062804D01*
X0197653Y0062487D01*
X0197763Y0062168D01*
X0197866Y0061845D01*
X0197960Y0061520D01*
X0198046Y0061193D01*
X0198124Y0060864D01*
X0198194Y0060533D01*
X0198256Y0060201D01*
X0198310Y0059867D01*
X0198355Y0059532D01*
X0198393Y0059196D01*
X0198422Y0058859D01*
X0198442Y0058521D01*
X0198455Y0058183D01*
X0198459Y0057845D01*
X0198455Y0057507D01*
X0198442Y0057169D01*
X0198422Y0056831D01*
X0198393Y0056494D01*
X0198355Y0056158D01*
X0198310Y0055823D01*
X0198256Y0055489D01*
X0198194Y0055157D01*
X0198124Y0054826D01*
X0198046Y0054497D01*
X0197960Y0054170D01*
X0197866Y0053845D01*
X0197763Y0053522D01*
X0197653Y0053203D01*
X0197536Y0052886D01*
X0197410Y0052572D01*
X0197277Y0052261D01*
X0197136Y0051953D01*
X0196988Y0051649D01*
X0196832Y0051349D01*
X0196669Y0051053D01*
X0196499Y0050761D01*
X0196321Y0050473D01*
X0196137Y0050189D01*
X0195945Y0049910D01*
X0195747Y0049636D01*
X0195542Y0049367D01*
X0195331Y0049103D01*
X0195113Y0048844D01*
X0194889Y0048591D01*
X0194659Y0048343D01*
X0194423Y0048101D01*
X0194181Y0047865D01*
X0193933Y0047635D01*
X0193680Y0047411D01*
X0193421Y0047193D01*
X0193157Y0046982D01*
X0192888Y0046777D01*
X0192614Y0046579D01*
X0192335Y0046387D01*
X0192051Y0046203D01*
X0191763Y0046025D01*
X0191471Y0045855D01*
X0191175Y0045692D01*
X0190875Y0045536D01*
X0190571Y0045388D01*
X0190263Y0045247D01*
X0189952Y0045114D01*
X0189638Y0044988D01*
X0189321Y0044871D01*
X0189002Y0044761D01*
X0188679Y0044658D01*
X0188354Y0044564D01*
X0188027Y0044478D01*
X0187698Y0044400D01*
X0187367Y0044330D01*
X0187035Y0044268D01*
X0186701Y0044214D01*
X0186366Y0044169D01*
X0186030Y0044131D01*
X0185693Y0044102D01*
X0185355Y0044082D01*
X0185017Y0044069D01*
X0184679Y0044065D01*
X0184341Y0044069D01*
X0184003Y0044082D01*
X0183665Y0044102D01*
X0183328Y0044131D01*
X0182992Y0044169D01*
X0182657Y0044214D01*
X0182323Y0044268D01*
X0181991Y0044330D01*
X0181660Y0044400D01*
X0181331Y0044478D01*
X0181004Y0044564D01*
X0180679Y0044658D01*
X0180356Y0044761D01*
X0180037Y0044871D01*
X0179720Y0044988D01*
X0179406Y0045114D01*
X0179095Y0045247D01*
X0178787Y0045388D01*
X0178483Y0045536D01*
X0178183Y0045692D01*
X0177887Y0045855D01*
X0177595Y0046025D01*
X0177307Y0046203D01*
X0177023Y0046387D01*
X0176744Y0046579D01*
X0176470Y0046777D01*
X0176201Y0046982D01*
X0175937Y0047193D01*
X0175678Y0047411D01*
X0175425Y0047635D01*
X0175177Y0047865D01*
X0174935Y0048101D01*
X0174699Y0048343D01*
X0174469Y0048591D01*
X0174245Y0048844D01*
X0174027Y0049103D01*
X0173816Y0049367D01*
X0173611Y0049636D01*
X0173413Y0049910D01*
X0173221Y0050189D01*
X0173037Y0050473D01*
X0172859Y0050761D01*
X0172689Y0051053D01*
X0172526Y0051349D01*
X0172370Y0051649D01*
X0172222Y0051953D01*
X0172081Y0052261D01*
X0171948Y0052572D01*
X0171822Y0052886D01*
X0171705Y0053203D01*
X0171595Y0053522D01*
X0171492Y0053845D01*
X0171398Y0054170D01*
X0171312Y0054497D01*
X0171234Y0054826D01*
X0171164Y0055157D01*
X0171102Y0055489D01*
X0171048Y0055823D01*
X0171003Y0056158D01*
X0170965Y0056494D01*
X0170936Y0056831D01*
X0170916Y0057169D01*
X0170903Y0057507D01*
X0170899Y0057845D01*
X0178180Y0099015D02*
X0176276Y0104247D01*
X0177940Y0107816D01*
X0178180Y0099015D02*
X0213862Y0082377D01*
X0219094Y0084281D01*
X0220757Y0087849D01*
X0225749Y0098554D02*
X0229077Y0105690D01*
X0234068Y0116395D02*
X0235732Y0119963D01*
X0233828Y0125195D01*
X0198146Y0141833D01*
X0192914Y0139929D01*
X0191251Y0136361D01*
X0186259Y0125656D02*
X0182931Y0118520D01*
X0192224Y0112105D02*
X0192228Y0112443D01*
X0192241Y0112781D01*
X0192261Y0113119D01*
X0192290Y0113456D01*
X0192328Y0113792D01*
X0192373Y0114127D01*
X0192427Y0114461D01*
X0192489Y0114793D01*
X0192559Y0115124D01*
X0192637Y0115453D01*
X0192723Y0115780D01*
X0192817Y0116105D01*
X0192920Y0116428D01*
X0193030Y0116747D01*
X0193147Y0117064D01*
X0193273Y0117378D01*
X0193406Y0117689D01*
X0193547Y0117997D01*
X0193695Y0118301D01*
X0193851Y0118601D01*
X0194014Y0118897D01*
X0194184Y0119189D01*
X0194362Y0119477D01*
X0194546Y0119761D01*
X0194738Y0120040D01*
X0194936Y0120314D01*
X0195141Y0120583D01*
X0195352Y0120847D01*
X0195570Y0121106D01*
X0195794Y0121359D01*
X0196024Y0121607D01*
X0196260Y0121849D01*
X0196502Y0122085D01*
X0196750Y0122315D01*
X0197003Y0122539D01*
X0197262Y0122757D01*
X0197526Y0122968D01*
X0197795Y0123173D01*
X0198069Y0123371D01*
X0198348Y0123563D01*
X0198632Y0123747D01*
X0198920Y0123925D01*
X0199212Y0124095D01*
X0199508Y0124258D01*
X0199808Y0124414D01*
X0200112Y0124562D01*
X0200420Y0124703D01*
X0200731Y0124836D01*
X0201045Y0124962D01*
X0201362Y0125079D01*
X0201681Y0125189D01*
X0202004Y0125292D01*
X0202329Y0125386D01*
X0202656Y0125472D01*
X0202985Y0125550D01*
X0203316Y0125620D01*
X0203648Y0125682D01*
X0203982Y0125736D01*
X0204317Y0125781D01*
X0204653Y0125819D01*
X0204990Y0125848D01*
X0205328Y0125868D01*
X0205666Y0125881D01*
X0206004Y0125885D01*
X0206342Y0125881D01*
X0206680Y0125868D01*
X0207018Y0125848D01*
X0207355Y0125819D01*
X0207691Y0125781D01*
X0208026Y0125736D01*
X0208360Y0125682D01*
X0208692Y0125620D01*
X0209023Y0125550D01*
X0209352Y0125472D01*
X0209679Y0125386D01*
X0210004Y0125292D01*
X0210327Y0125189D01*
X0210646Y0125079D01*
X0210963Y0124962D01*
X0211277Y0124836D01*
X0211588Y0124703D01*
X0211896Y0124562D01*
X0212200Y0124414D01*
X0212500Y0124258D01*
X0212796Y0124095D01*
X0213088Y0123925D01*
X0213376Y0123747D01*
X0213660Y0123563D01*
X0213939Y0123371D01*
X0214213Y0123173D01*
X0214482Y0122968D01*
X0214746Y0122757D01*
X0215005Y0122539D01*
X0215258Y0122315D01*
X0215506Y0122085D01*
X0215748Y0121849D01*
X0215984Y0121607D01*
X0216214Y0121359D01*
X0216438Y0121106D01*
X0216656Y0120847D01*
X0216867Y0120583D01*
X0217072Y0120314D01*
X0217270Y0120040D01*
X0217462Y0119761D01*
X0217646Y0119477D01*
X0217824Y0119189D01*
X0217994Y0118897D01*
X0218157Y0118601D01*
X0218313Y0118301D01*
X0218461Y0117997D01*
X0218602Y0117689D01*
X0218735Y0117378D01*
X0218861Y0117064D01*
X0218978Y0116747D01*
X0219088Y0116428D01*
X0219191Y0116105D01*
X0219285Y0115780D01*
X0219371Y0115453D01*
X0219449Y0115124D01*
X0219519Y0114793D01*
X0219581Y0114461D01*
X0219635Y0114127D01*
X0219680Y0113792D01*
X0219718Y0113456D01*
X0219747Y0113119D01*
X0219767Y0112781D01*
X0219780Y0112443D01*
X0219784Y0112105D01*
X0219780Y0111767D01*
X0219767Y0111429D01*
X0219747Y0111091D01*
X0219718Y0110754D01*
X0219680Y0110418D01*
X0219635Y0110083D01*
X0219581Y0109749D01*
X0219519Y0109417D01*
X0219449Y0109086D01*
X0219371Y0108757D01*
X0219285Y0108430D01*
X0219191Y0108105D01*
X0219088Y0107782D01*
X0218978Y0107463D01*
X0218861Y0107146D01*
X0218735Y0106832D01*
X0218602Y0106521D01*
X0218461Y0106213D01*
X0218313Y0105909D01*
X0218157Y0105609D01*
X0217994Y0105313D01*
X0217824Y0105021D01*
X0217646Y0104733D01*
X0217462Y0104449D01*
X0217270Y0104170D01*
X0217072Y0103896D01*
X0216867Y0103627D01*
X0216656Y0103363D01*
X0216438Y0103104D01*
X0216214Y0102851D01*
X0215984Y0102603D01*
X0215748Y0102361D01*
X0215506Y0102125D01*
X0215258Y0101895D01*
X0215005Y0101671D01*
X0214746Y0101453D01*
X0214482Y0101242D01*
X0214213Y0101037D01*
X0213939Y0100839D01*
X0213660Y0100647D01*
X0213376Y0100463D01*
X0213088Y0100285D01*
X0212796Y0100115D01*
X0212500Y0099952D01*
X0212200Y0099796D01*
X0211896Y0099648D01*
X0211588Y0099507D01*
X0211277Y0099374D01*
X0210963Y0099248D01*
X0210646Y0099131D01*
X0210327Y0099021D01*
X0210004Y0098918D01*
X0209679Y0098824D01*
X0209352Y0098738D01*
X0209023Y0098660D01*
X0208692Y0098590D01*
X0208360Y0098528D01*
X0208026Y0098474D01*
X0207691Y0098429D01*
X0207355Y0098391D01*
X0207018Y0098362D01*
X0206680Y0098342D01*
X0206342Y0098329D01*
X0206004Y0098325D01*
X0205666Y0098329D01*
X0205328Y0098342D01*
X0204990Y0098362D01*
X0204653Y0098391D01*
X0204317Y0098429D01*
X0203982Y0098474D01*
X0203648Y0098528D01*
X0203316Y0098590D01*
X0202985Y0098660D01*
X0202656Y0098738D01*
X0202329Y0098824D01*
X0202004Y0098918D01*
X0201681Y0099021D01*
X0201362Y0099131D01*
X0201045Y0099248D01*
X0200731Y0099374D01*
X0200420Y0099507D01*
X0200112Y0099648D01*
X0199808Y0099796D01*
X0199508Y0099952D01*
X0199212Y0100115D01*
X0198920Y0100285D01*
X0198632Y0100463D01*
X0198348Y0100647D01*
X0198069Y0100839D01*
X0197795Y0101037D01*
X0197526Y0101242D01*
X0197262Y0101453D01*
X0197003Y0101671D01*
X0196750Y0101895D01*
X0196502Y0102125D01*
X0196260Y0102361D01*
X0196024Y0102603D01*
X0195794Y0102851D01*
X0195570Y0103104D01*
X0195352Y0103363D01*
X0195141Y0103627D01*
X0194936Y0103896D01*
X0194738Y0104170D01*
X0194546Y0104449D01*
X0194362Y0104733D01*
X0194184Y0105021D01*
X0194014Y0105313D01*
X0193851Y0105609D01*
X0193695Y0105909D01*
X0193547Y0106213D01*
X0193406Y0106521D01*
X0193273Y0106832D01*
X0193147Y0107146D01*
X0193030Y0107463D01*
X0192920Y0107782D01*
X0192817Y0108105D01*
X0192723Y0108430D01*
X0192637Y0108757D01*
X0192559Y0109086D01*
X0192489Y0109417D01*
X0192427Y0109749D01*
X0192373Y0110083D01*
X0192328Y0110418D01*
X0192290Y0110754D01*
X0192261Y0111091D01*
X0192241Y0111429D01*
X0192228Y0111767D01*
X0192224Y0112105D01*
X0271843Y0306709D02*
X0275205Y0306709D01*
X0279142Y0309768D02*
X0279142Y0331028D01*
X0275205Y0334087D02*
X0271843Y0334087D01*
X0267906Y0326803D02*
X0267906Y0319898D01*
D116*
X0196254Y0135649D02*
X0196256Y0135718D01*
X0196262Y0135786D01*
X0196272Y0135854D01*
X0196286Y0135921D01*
X0196304Y0135988D01*
X0196325Y0136053D01*
X0196351Y0136117D01*
X0196380Y0136179D01*
X0196412Y0136239D01*
X0196448Y0136298D01*
X0196488Y0136354D01*
X0196530Y0136408D01*
X0196576Y0136459D01*
X0196625Y0136508D01*
X0196676Y0136554D01*
X0196730Y0136596D01*
X0196786Y0136636D01*
X0196844Y0136672D01*
X0196905Y0136704D01*
X0196967Y0136733D01*
X0197031Y0136759D01*
X0197096Y0136780D01*
X0197163Y0136798D01*
X0197230Y0136812D01*
X0197298Y0136822D01*
X0197366Y0136828D01*
X0197435Y0136830D01*
X0197504Y0136828D01*
X0197572Y0136822D01*
X0197640Y0136812D01*
X0197707Y0136798D01*
X0197774Y0136780D01*
X0197839Y0136759D01*
X0197903Y0136733D01*
X0197965Y0136704D01*
X0198025Y0136672D01*
X0198084Y0136636D01*
X0198140Y0136596D01*
X0198194Y0136554D01*
X0198245Y0136508D01*
X0198294Y0136459D01*
X0198340Y0136408D01*
X0198382Y0136354D01*
X0198422Y0136298D01*
X0198458Y0136239D01*
X0198490Y0136179D01*
X0198519Y0136117D01*
X0198545Y0136053D01*
X0198566Y0135988D01*
X0198584Y0135921D01*
X0198598Y0135854D01*
X0198608Y0135786D01*
X0198614Y0135718D01*
X0198616Y0135649D01*
X0198614Y0135580D01*
X0198608Y0135512D01*
X0198598Y0135444D01*
X0198584Y0135377D01*
X0198566Y0135310D01*
X0198545Y0135245D01*
X0198519Y0135181D01*
X0198490Y0135119D01*
X0198458Y0135058D01*
X0198422Y0135000D01*
X0198382Y0134944D01*
X0198340Y0134890D01*
X0198294Y0134839D01*
X0198245Y0134790D01*
X0198194Y0134744D01*
X0198140Y0134702D01*
X0198084Y0134662D01*
X0198026Y0134626D01*
X0197965Y0134594D01*
X0197903Y0134565D01*
X0197839Y0134539D01*
X0197774Y0134518D01*
X0197707Y0134500D01*
X0197640Y0134486D01*
X0197572Y0134476D01*
X0197504Y0134470D01*
X0197435Y0134468D01*
X0197366Y0134470D01*
X0197298Y0134476D01*
X0197230Y0134486D01*
X0197163Y0134500D01*
X0197096Y0134518D01*
X0197031Y0134539D01*
X0196967Y0134565D01*
X0196905Y0134594D01*
X0196844Y0134626D01*
X0196786Y0134662D01*
X0196730Y0134702D01*
X0196676Y0134744D01*
X0196625Y0134790D01*
X0196576Y0134839D01*
X0196530Y0134890D01*
X0196488Y0134944D01*
X0196448Y0135000D01*
X0196412Y0135058D01*
X0196380Y0135119D01*
X0196351Y0135181D01*
X0196325Y0135245D01*
X0196304Y0135310D01*
X0196286Y0135377D01*
X0196272Y0135444D01*
X0196262Y0135512D01*
X0196256Y0135580D01*
X0196254Y0135649D01*
X0181279Y0103536D02*
X0181281Y0103605D01*
X0181287Y0103673D01*
X0181297Y0103741D01*
X0181311Y0103808D01*
X0181329Y0103875D01*
X0181350Y0103940D01*
X0181376Y0104004D01*
X0181405Y0104066D01*
X0181437Y0104126D01*
X0181473Y0104185D01*
X0181513Y0104241D01*
X0181555Y0104295D01*
X0181601Y0104346D01*
X0181650Y0104395D01*
X0181701Y0104441D01*
X0181755Y0104483D01*
X0181811Y0104523D01*
X0181869Y0104559D01*
X0181930Y0104591D01*
X0181992Y0104620D01*
X0182056Y0104646D01*
X0182121Y0104667D01*
X0182188Y0104685D01*
X0182255Y0104699D01*
X0182323Y0104709D01*
X0182391Y0104715D01*
X0182460Y0104717D01*
X0182529Y0104715D01*
X0182597Y0104709D01*
X0182665Y0104699D01*
X0182732Y0104685D01*
X0182799Y0104667D01*
X0182864Y0104646D01*
X0182928Y0104620D01*
X0182990Y0104591D01*
X0183050Y0104559D01*
X0183109Y0104523D01*
X0183165Y0104483D01*
X0183219Y0104441D01*
X0183270Y0104395D01*
X0183319Y0104346D01*
X0183365Y0104295D01*
X0183407Y0104241D01*
X0183447Y0104185D01*
X0183483Y0104126D01*
X0183515Y0104066D01*
X0183544Y0104004D01*
X0183570Y0103940D01*
X0183591Y0103875D01*
X0183609Y0103808D01*
X0183623Y0103741D01*
X0183633Y0103673D01*
X0183639Y0103605D01*
X0183641Y0103536D01*
X0183639Y0103467D01*
X0183633Y0103399D01*
X0183623Y0103331D01*
X0183609Y0103264D01*
X0183591Y0103197D01*
X0183570Y0103132D01*
X0183544Y0103068D01*
X0183515Y0103006D01*
X0183483Y0102945D01*
X0183447Y0102887D01*
X0183407Y0102831D01*
X0183365Y0102777D01*
X0183319Y0102726D01*
X0183270Y0102677D01*
X0183219Y0102631D01*
X0183165Y0102589D01*
X0183109Y0102549D01*
X0183051Y0102513D01*
X0182990Y0102481D01*
X0182928Y0102452D01*
X0182864Y0102426D01*
X0182799Y0102405D01*
X0182732Y0102387D01*
X0182665Y0102373D01*
X0182597Y0102363D01*
X0182529Y0102357D01*
X0182460Y0102355D01*
X0182391Y0102357D01*
X0182323Y0102363D01*
X0182255Y0102373D01*
X0182188Y0102387D01*
X0182121Y0102405D01*
X0182056Y0102426D01*
X0181992Y0102452D01*
X0181930Y0102481D01*
X0181869Y0102513D01*
X0181811Y0102549D01*
X0181755Y0102589D01*
X0181701Y0102631D01*
X0181650Y0102677D01*
X0181601Y0102726D01*
X0181555Y0102777D01*
X0181513Y0102831D01*
X0181473Y0102887D01*
X0181437Y0102945D01*
X0181405Y0103006D01*
X0181376Y0103068D01*
X0181350Y0103132D01*
X0181329Y0103197D01*
X0181311Y0103264D01*
X0181297Y0103331D01*
X0181287Y0103399D01*
X0181281Y0103467D01*
X0181279Y0103536D01*
X0174928Y0081389D02*
X0174930Y0081458D01*
X0174936Y0081526D01*
X0174946Y0081594D01*
X0174960Y0081661D01*
X0174978Y0081728D01*
X0174999Y0081793D01*
X0175025Y0081857D01*
X0175054Y0081919D01*
X0175086Y0081979D01*
X0175122Y0082038D01*
X0175162Y0082094D01*
X0175204Y0082148D01*
X0175250Y0082199D01*
X0175299Y0082248D01*
X0175350Y0082294D01*
X0175404Y0082336D01*
X0175460Y0082376D01*
X0175518Y0082412D01*
X0175579Y0082444D01*
X0175641Y0082473D01*
X0175705Y0082499D01*
X0175770Y0082520D01*
X0175837Y0082538D01*
X0175904Y0082552D01*
X0175972Y0082562D01*
X0176040Y0082568D01*
X0176109Y0082570D01*
X0176178Y0082568D01*
X0176246Y0082562D01*
X0176314Y0082552D01*
X0176381Y0082538D01*
X0176448Y0082520D01*
X0176513Y0082499D01*
X0176577Y0082473D01*
X0176639Y0082444D01*
X0176699Y0082412D01*
X0176758Y0082376D01*
X0176814Y0082336D01*
X0176868Y0082294D01*
X0176919Y0082248D01*
X0176968Y0082199D01*
X0177014Y0082148D01*
X0177056Y0082094D01*
X0177096Y0082038D01*
X0177132Y0081979D01*
X0177164Y0081919D01*
X0177193Y0081857D01*
X0177219Y0081793D01*
X0177240Y0081728D01*
X0177258Y0081661D01*
X0177272Y0081594D01*
X0177282Y0081526D01*
X0177288Y0081458D01*
X0177290Y0081389D01*
X0177288Y0081320D01*
X0177282Y0081252D01*
X0177272Y0081184D01*
X0177258Y0081117D01*
X0177240Y0081050D01*
X0177219Y0080985D01*
X0177193Y0080921D01*
X0177164Y0080859D01*
X0177132Y0080798D01*
X0177096Y0080740D01*
X0177056Y0080684D01*
X0177014Y0080630D01*
X0176968Y0080579D01*
X0176919Y0080530D01*
X0176868Y0080484D01*
X0176814Y0080442D01*
X0176758Y0080402D01*
X0176700Y0080366D01*
X0176639Y0080334D01*
X0176577Y0080305D01*
X0176513Y0080279D01*
X0176448Y0080258D01*
X0176381Y0080240D01*
X0176314Y0080226D01*
X0176246Y0080216D01*
X0176178Y0080210D01*
X0176109Y0080208D01*
X0176040Y0080210D01*
X0175972Y0080216D01*
X0175904Y0080226D01*
X0175837Y0080240D01*
X0175770Y0080258D01*
X0175705Y0080279D01*
X0175641Y0080305D01*
X0175579Y0080334D01*
X0175518Y0080366D01*
X0175460Y0080402D01*
X0175404Y0080442D01*
X0175350Y0080484D01*
X0175299Y0080530D01*
X0175250Y0080579D01*
X0175204Y0080630D01*
X0175162Y0080684D01*
X0175122Y0080740D01*
X0175086Y0080798D01*
X0175054Y0080859D01*
X0175025Y0080921D01*
X0174999Y0080985D01*
X0174978Y0081050D01*
X0174960Y0081117D01*
X0174946Y0081184D01*
X0174936Y0081252D01*
X0174930Y0081320D01*
X0174928Y0081389D01*
X0159954Y0049276D02*
X0159956Y0049345D01*
X0159962Y0049413D01*
X0159972Y0049481D01*
X0159986Y0049548D01*
X0160004Y0049615D01*
X0160025Y0049680D01*
X0160051Y0049744D01*
X0160080Y0049806D01*
X0160112Y0049866D01*
X0160148Y0049925D01*
X0160188Y0049981D01*
X0160230Y0050035D01*
X0160276Y0050086D01*
X0160325Y0050135D01*
X0160376Y0050181D01*
X0160430Y0050223D01*
X0160486Y0050263D01*
X0160544Y0050299D01*
X0160605Y0050331D01*
X0160667Y0050360D01*
X0160731Y0050386D01*
X0160796Y0050407D01*
X0160863Y0050425D01*
X0160930Y0050439D01*
X0160998Y0050449D01*
X0161066Y0050455D01*
X0161135Y0050457D01*
X0161204Y0050455D01*
X0161272Y0050449D01*
X0161340Y0050439D01*
X0161407Y0050425D01*
X0161474Y0050407D01*
X0161539Y0050386D01*
X0161603Y0050360D01*
X0161665Y0050331D01*
X0161725Y0050299D01*
X0161784Y0050263D01*
X0161840Y0050223D01*
X0161894Y0050181D01*
X0161945Y0050135D01*
X0161994Y0050086D01*
X0162040Y0050035D01*
X0162082Y0049981D01*
X0162122Y0049925D01*
X0162158Y0049866D01*
X0162190Y0049806D01*
X0162219Y0049744D01*
X0162245Y0049680D01*
X0162266Y0049615D01*
X0162284Y0049548D01*
X0162298Y0049481D01*
X0162308Y0049413D01*
X0162314Y0049345D01*
X0162316Y0049276D01*
X0162314Y0049207D01*
X0162308Y0049139D01*
X0162298Y0049071D01*
X0162284Y0049004D01*
X0162266Y0048937D01*
X0162245Y0048872D01*
X0162219Y0048808D01*
X0162190Y0048746D01*
X0162158Y0048685D01*
X0162122Y0048627D01*
X0162082Y0048571D01*
X0162040Y0048517D01*
X0161994Y0048466D01*
X0161945Y0048417D01*
X0161894Y0048371D01*
X0161840Y0048329D01*
X0161784Y0048289D01*
X0161726Y0048253D01*
X0161665Y0048221D01*
X0161603Y0048192D01*
X0161539Y0048166D01*
X0161474Y0048145D01*
X0161407Y0048127D01*
X0161340Y0048113D01*
X0161272Y0048103D01*
X0161204Y0048097D01*
X0161135Y0048095D01*
X0161066Y0048097D01*
X0160998Y0048103D01*
X0160930Y0048113D01*
X0160863Y0048127D01*
X0160796Y0048145D01*
X0160731Y0048166D01*
X0160667Y0048192D01*
X0160605Y0048221D01*
X0160544Y0048253D01*
X0160486Y0048289D01*
X0160430Y0048329D01*
X0160376Y0048371D01*
X0160325Y0048417D01*
X0160276Y0048466D01*
X0160230Y0048517D01*
X0160188Y0048571D01*
X0160148Y0048627D01*
X0160112Y0048685D01*
X0160080Y0048746D01*
X0160051Y0048808D01*
X0160025Y0048872D01*
X0160004Y0048937D01*
X0159986Y0049004D01*
X0159972Y0049071D01*
X0159962Y0049139D01*
X0159956Y0049207D01*
X0159954Y0049276D01*
X0123708Y0049276D02*
X0123710Y0049345D01*
X0123716Y0049413D01*
X0123726Y0049481D01*
X0123740Y0049548D01*
X0123758Y0049615D01*
X0123779Y0049680D01*
X0123805Y0049744D01*
X0123834Y0049806D01*
X0123866Y0049866D01*
X0123902Y0049925D01*
X0123942Y0049981D01*
X0123984Y0050035D01*
X0124030Y0050086D01*
X0124079Y0050135D01*
X0124130Y0050181D01*
X0124184Y0050223D01*
X0124240Y0050263D01*
X0124298Y0050299D01*
X0124359Y0050331D01*
X0124421Y0050360D01*
X0124485Y0050386D01*
X0124550Y0050407D01*
X0124617Y0050425D01*
X0124684Y0050439D01*
X0124752Y0050449D01*
X0124820Y0050455D01*
X0124889Y0050457D01*
X0124958Y0050455D01*
X0125026Y0050449D01*
X0125094Y0050439D01*
X0125161Y0050425D01*
X0125228Y0050407D01*
X0125293Y0050386D01*
X0125357Y0050360D01*
X0125419Y0050331D01*
X0125479Y0050299D01*
X0125538Y0050263D01*
X0125594Y0050223D01*
X0125648Y0050181D01*
X0125699Y0050135D01*
X0125748Y0050086D01*
X0125794Y0050035D01*
X0125836Y0049981D01*
X0125876Y0049925D01*
X0125912Y0049866D01*
X0125944Y0049806D01*
X0125973Y0049744D01*
X0125999Y0049680D01*
X0126020Y0049615D01*
X0126038Y0049548D01*
X0126052Y0049481D01*
X0126062Y0049413D01*
X0126068Y0049345D01*
X0126070Y0049276D01*
X0126068Y0049207D01*
X0126062Y0049139D01*
X0126052Y0049071D01*
X0126038Y0049004D01*
X0126020Y0048937D01*
X0125999Y0048872D01*
X0125973Y0048808D01*
X0125944Y0048746D01*
X0125912Y0048685D01*
X0125876Y0048627D01*
X0125836Y0048571D01*
X0125794Y0048517D01*
X0125748Y0048466D01*
X0125699Y0048417D01*
X0125648Y0048371D01*
X0125594Y0048329D01*
X0125538Y0048289D01*
X0125480Y0048253D01*
X0125419Y0048221D01*
X0125357Y0048192D01*
X0125293Y0048166D01*
X0125228Y0048145D01*
X0125161Y0048127D01*
X0125094Y0048113D01*
X0125026Y0048103D01*
X0124958Y0048097D01*
X0124889Y0048095D01*
X0124820Y0048097D01*
X0124752Y0048103D01*
X0124684Y0048113D01*
X0124617Y0048127D01*
X0124550Y0048145D01*
X0124485Y0048166D01*
X0124421Y0048192D01*
X0124359Y0048221D01*
X0124298Y0048253D01*
X0124240Y0048289D01*
X0124184Y0048329D01*
X0124130Y0048371D01*
X0124079Y0048417D01*
X0124030Y0048466D01*
X0123984Y0048517D01*
X0123942Y0048571D01*
X0123902Y0048627D01*
X0123866Y0048685D01*
X0123834Y0048746D01*
X0123805Y0048808D01*
X0123779Y0048872D01*
X0123758Y0048937D01*
X0123740Y0049004D01*
X0123726Y0049071D01*
X0123716Y0049139D01*
X0123710Y0049207D01*
X0123708Y0049276D01*
X0108733Y0081389D02*
X0108735Y0081458D01*
X0108741Y0081526D01*
X0108751Y0081594D01*
X0108765Y0081661D01*
X0108783Y0081728D01*
X0108804Y0081793D01*
X0108830Y0081857D01*
X0108859Y0081919D01*
X0108891Y0081979D01*
X0108927Y0082038D01*
X0108967Y0082094D01*
X0109009Y0082148D01*
X0109055Y0082199D01*
X0109104Y0082248D01*
X0109155Y0082294D01*
X0109209Y0082336D01*
X0109265Y0082376D01*
X0109323Y0082412D01*
X0109384Y0082444D01*
X0109446Y0082473D01*
X0109510Y0082499D01*
X0109575Y0082520D01*
X0109642Y0082538D01*
X0109709Y0082552D01*
X0109777Y0082562D01*
X0109845Y0082568D01*
X0109914Y0082570D01*
X0109983Y0082568D01*
X0110051Y0082562D01*
X0110119Y0082552D01*
X0110186Y0082538D01*
X0110253Y0082520D01*
X0110318Y0082499D01*
X0110382Y0082473D01*
X0110444Y0082444D01*
X0110504Y0082412D01*
X0110563Y0082376D01*
X0110619Y0082336D01*
X0110673Y0082294D01*
X0110724Y0082248D01*
X0110773Y0082199D01*
X0110819Y0082148D01*
X0110861Y0082094D01*
X0110901Y0082038D01*
X0110937Y0081979D01*
X0110969Y0081919D01*
X0110998Y0081857D01*
X0111024Y0081793D01*
X0111045Y0081728D01*
X0111063Y0081661D01*
X0111077Y0081594D01*
X0111087Y0081526D01*
X0111093Y0081458D01*
X0111095Y0081389D01*
X0111093Y0081320D01*
X0111087Y0081252D01*
X0111077Y0081184D01*
X0111063Y0081117D01*
X0111045Y0081050D01*
X0111024Y0080985D01*
X0110998Y0080921D01*
X0110969Y0080859D01*
X0110937Y0080798D01*
X0110901Y0080740D01*
X0110861Y0080684D01*
X0110819Y0080630D01*
X0110773Y0080579D01*
X0110724Y0080530D01*
X0110673Y0080484D01*
X0110619Y0080442D01*
X0110563Y0080402D01*
X0110505Y0080366D01*
X0110444Y0080334D01*
X0110382Y0080305D01*
X0110318Y0080279D01*
X0110253Y0080258D01*
X0110186Y0080240D01*
X0110119Y0080226D01*
X0110051Y0080216D01*
X0109983Y0080210D01*
X0109914Y0080208D01*
X0109845Y0080210D01*
X0109777Y0080216D01*
X0109709Y0080226D01*
X0109642Y0080240D01*
X0109575Y0080258D01*
X0109510Y0080279D01*
X0109446Y0080305D01*
X0109384Y0080334D01*
X0109323Y0080366D01*
X0109265Y0080402D01*
X0109209Y0080442D01*
X0109155Y0080484D01*
X0109104Y0080530D01*
X0109055Y0080579D01*
X0109009Y0080630D01*
X0108967Y0080684D01*
X0108927Y0080740D01*
X0108891Y0080798D01*
X0108859Y0080859D01*
X0108830Y0080921D01*
X0108804Y0080985D01*
X0108783Y0081050D01*
X0108765Y0081117D01*
X0108751Y0081184D01*
X0108741Y0081252D01*
X0108735Y0081320D01*
X0108733Y0081389D01*
X0102383Y0103536D02*
X0102385Y0103605D01*
X0102391Y0103673D01*
X0102401Y0103741D01*
X0102415Y0103808D01*
X0102433Y0103875D01*
X0102454Y0103940D01*
X0102480Y0104004D01*
X0102509Y0104066D01*
X0102541Y0104126D01*
X0102577Y0104185D01*
X0102617Y0104241D01*
X0102659Y0104295D01*
X0102705Y0104346D01*
X0102754Y0104395D01*
X0102805Y0104441D01*
X0102859Y0104483D01*
X0102915Y0104523D01*
X0102973Y0104559D01*
X0103034Y0104591D01*
X0103096Y0104620D01*
X0103160Y0104646D01*
X0103225Y0104667D01*
X0103292Y0104685D01*
X0103359Y0104699D01*
X0103427Y0104709D01*
X0103495Y0104715D01*
X0103564Y0104717D01*
X0103633Y0104715D01*
X0103701Y0104709D01*
X0103769Y0104699D01*
X0103836Y0104685D01*
X0103903Y0104667D01*
X0103968Y0104646D01*
X0104032Y0104620D01*
X0104094Y0104591D01*
X0104154Y0104559D01*
X0104213Y0104523D01*
X0104269Y0104483D01*
X0104323Y0104441D01*
X0104374Y0104395D01*
X0104423Y0104346D01*
X0104469Y0104295D01*
X0104511Y0104241D01*
X0104551Y0104185D01*
X0104587Y0104126D01*
X0104619Y0104066D01*
X0104648Y0104004D01*
X0104674Y0103940D01*
X0104695Y0103875D01*
X0104713Y0103808D01*
X0104727Y0103741D01*
X0104737Y0103673D01*
X0104743Y0103605D01*
X0104745Y0103536D01*
X0104743Y0103467D01*
X0104737Y0103399D01*
X0104727Y0103331D01*
X0104713Y0103264D01*
X0104695Y0103197D01*
X0104674Y0103132D01*
X0104648Y0103068D01*
X0104619Y0103006D01*
X0104587Y0102945D01*
X0104551Y0102887D01*
X0104511Y0102831D01*
X0104469Y0102777D01*
X0104423Y0102726D01*
X0104374Y0102677D01*
X0104323Y0102631D01*
X0104269Y0102589D01*
X0104213Y0102549D01*
X0104155Y0102513D01*
X0104094Y0102481D01*
X0104032Y0102452D01*
X0103968Y0102426D01*
X0103903Y0102405D01*
X0103836Y0102387D01*
X0103769Y0102373D01*
X0103701Y0102363D01*
X0103633Y0102357D01*
X0103564Y0102355D01*
X0103495Y0102357D01*
X0103427Y0102363D01*
X0103359Y0102373D01*
X0103292Y0102387D01*
X0103225Y0102405D01*
X0103160Y0102426D01*
X0103096Y0102452D01*
X0103034Y0102481D01*
X0102973Y0102513D01*
X0102915Y0102549D01*
X0102859Y0102589D01*
X0102805Y0102631D01*
X0102754Y0102677D01*
X0102705Y0102726D01*
X0102659Y0102777D01*
X0102617Y0102831D01*
X0102577Y0102887D01*
X0102541Y0102945D01*
X0102509Y0103006D01*
X0102480Y0103068D01*
X0102454Y0103132D01*
X0102433Y0103197D01*
X0102415Y0103264D01*
X0102401Y0103331D01*
X0102391Y0103399D01*
X0102385Y0103467D01*
X0102383Y0103536D01*
X0087408Y0135649D02*
X0087410Y0135718D01*
X0087416Y0135786D01*
X0087426Y0135854D01*
X0087440Y0135921D01*
X0087458Y0135988D01*
X0087479Y0136053D01*
X0087505Y0136117D01*
X0087534Y0136179D01*
X0087566Y0136239D01*
X0087602Y0136298D01*
X0087642Y0136354D01*
X0087684Y0136408D01*
X0087730Y0136459D01*
X0087779Y0136508D01*
X0087830Y0136554D01*
X0087884Y0136596D01*
X0087940Y0136636D01*
X0087998Y0136672D01*
X0088059Y0136704D01*
X0088121Y0136733D01*
X0088185Y0136759D01*
X0088250Y0136780D01*
X0088317Y0136798D01*
X0088384Y0136812D01*
X0088452Y0136822D01*
X0088520Y0136828D01*
X0088589Y0136830D01*
X0088658Y0136828D01*
X0088726Y0136822D01*
X0088794Y0136812D01*
X0088861Y0136798D01*
X0088928Y0136780D01*
X0088993Y0136759D01*
X0089057Y0136733D01*
X0089119Y0136704D01*
X0089179Y0136672D01*
X0089238Y0136636D01*
X0089294Y0136596D01*
X0089348Y0136554D01*
X0089399Y0136508D01*
X0089448Y0136459D01*
X0089494Y0136408D01*
X0089536Y0136354D01*
X0089576Y0136298D01*
X0089612Y0136239D01*
X0089644Y0136179D01*
X0089673Y0136117D01*
X0089699Y0136053D01*
X0089720Y0135988D01*
X0089738Y0135921D01*
X0089752Y0135854D01*
X0089762Y0135786D01*
X0089768Y0135718D01*
X0089770Y0135649D01*
X0089768Y0135580D01*
X0089762Y0135512D01*
X0089752Y0135444D01*
X0089738Y0135377D01*
X0089720Y0135310D01*
X0089699Y0135245D01*
X0089673Y0135181D01*
X0089644Y0135119D01*
X0089612Y0135058D01*
X0089576Y0135000D01*
X0089536Y0134944D01*
X0089494Y0134890D01*
X0089448Y0134839D01*
X0089399Y0134790D01*
X0089348Y0134744D01*
X0089294Y0134702D01*
X0089238Y0134662D01*
X0089180Y0134626D01*
X0089119Y0134594D01*
X0089057Y0134565D01*
X0088993Y0134539D01*
X0088928Y0134518D01*
X0088861Y0134500D01*
X0088794Y0134486D01*
X0088726Y0134476D01*
X0088658Y0134470D01*
X0088589Y0134468D01*
X0088520Y0134470D01*
X0088452Y0134476D01*
X0088384Y0134486D01*
X0088317Y0134500D01*
X0088250Y0134518D01*
X0088185Y0134539D01*
X0088121Y0134565D01*
X0088059Y0134594D01*
X0087998Y0134626D01*
X0087940Y0134662D01*
X0087884Y0134702D01*
X0087830Y0134744D01*
X0087779Y0134790D01*
X0087730Y0134839D01*
X0087684Y0134890D01*
X0087642Y0134944D01*
X0087602Y0135000D01*
X0087566Y0135058D01*
X0087534Y0135119D01*
X0087505Y0135181D01*
X0087479Y0135245D01*
X0087458Y0135310D01*
X0087440Y0135377D01*
X0087426Y0135444D01*
X0087416Y0135512D01*
X0087410Y0135580D01*
X0087408Y0135649D01*
X0055295Y0120674D02*
X0055297Y0120743D01*
X0055303Y0120811D01*
X0055313Y0120879D01*
X0055327Y0120946D01*
X0055345Y0121013D01*
X0055366Y0121078D01*
X0055392Y0121142D01*
X0055421Y0121204D01*
X0055453Y0121264D01*
X0055489Y0121323D01*
X0055529Y0121379D01*
X0055571Y0121433D01*
X0055617Y0121484D01*
X0055666Y0121533D01*
X0055717Y0121579D01*
X0055771Y0121621D01*
X0055827Y0121661D01*
X0055885Y0121697D01*
X0055946Y0121729D01*
X0056008Y0121758D01*
X0056072Y0121784D01*
X0056137Y0121805D01*
X0056204Y0121823D01*
X0056271Y0121837D01*
X0056339Y0121847D01*
X0056407Y0121853D01*
X0056476Y0121855D01*
X0056545Y0121853D01*
X0056613Y0121847D01*
X0056681Y0121837D01*
X0056748Y0121823D01*
X0056815Y0121805D01*
X0056880Y0121784D01*
X0056944Y0121758D01*
X0057006Y0121729D01*
X0057066Y0121697D01*
X0057125Y0121661D01*
X0057181Y0121621D01*
X0057235Y0121579D01*
X0057286Y0121533D01*
X0057335Y0121484D01*
X0057381Y0121433D01*
X0057423Y0121379D01*
X0057463Y0121323D01*
X0057499Y0121264D01*
X0057531Y0121204D01*
X0057560Y0121142D01*
X0057586Y0121078D01*
X0057607Y0121013D01*
X0057625Y0120946D01*
X0057639Y0120879D01*
X0057649Y0120811D01*
X0057655Y0120743D01*
X0057657Y0120674D01*
X0057655Y0120605D01*
X0057649Y0120537D01*
X0057639Y0120469D01*
X0057625Y0120402D01*
X0057607Y0120335D01*
X0057586Y0120270D01*
X0057560Y0120206D01*
X0057531Y0120144D01*
X0057499Y0120083D01*
X0057463Y0120025D01*
X0057423Y0119969D01*
X0057381Y0119915D01*
X0057335Y0119864D01*
X0057286Y0119815D01*
X0057235Y0119769D01*
X0057181Y0119727D01*
X0057125Y0119687D01*
X0057067Y0119651D01*
X0057006Y0119619D01*
X0056944Y0119590D01*
X0056880Y0119564D01*
X0056815Y0119543D01*
X0056748Y0119525D01*
X0056681Y0119511D01*
X0056613Y0119501D01*
X0056545Y0119495D01*
X0056476Y0119493D01*
X0056407Y0119495D01*
X0056339Y0119501D01*
X0056271Y0119511D01*
X0056204Y0119525D01*
X0056137Y0119543D01*
X0056072Y0119564D01*
X0056008Y0119590D01*
X0055946Y0119619D01*
X0055885Y0119651D01*
X0055827Y0119687D01*
X0055771Y0119727D01*
X0055717Y0119769D01*
X0055666Y0119815D01*
X0055617Y0119864D01*
X0055571Y0119915D01*
X0055529Y0119969D01*
X0055489Y0120025D01*
X0055453Y0120083D01*
X0055421Y0120144D01*
X0055392Y0120206D01*
X0055366Y0120270D01*
X0055345Y0120335D01*
X0055327Y0120402D01*
X0055313Y0120469D01*
X0055303Y0120537D01*
X0055297Y0120605D01*
X0055295Y0120674D01*
X0070269Y0088561D02*
X0070271Y0088630D01*
X0070277Y0088698D01*
X0070287Y0088766D01*
X0070301Y0088833D01*
X0070319Y0088900D01*
X0070340Y0088965D01*
X0070366Y0089029D01*
X0070395Y0089091D01*
X0070427Y0089151D01*
X0070463Y0089210D01*
X0070503Y0089266D01*
X0070545Y0089320D01*
X0070591Y0089371D01*
X0070640Y0089420D01*
X0070691Y0089466D01*
X0070745Y0089508D01*
X0070801Y0089548D01*
X0070859Y0089584D01*
X0070920Y0089616D01*
X0070982Y0089645D01*
X0071046Y0089671D01*
X0071111Y0089692D01*
X0071178Y0089710D01*
X0071245Y0089724D01*
X0071313Y0089734D01*
X0071381Y0089740D01*
X0071450Y0089742D01*
X0071519Y0089740D01*
X0071587Y0089734D01*
X0071655Y0089724D01*
X0071722Y0089710D01*
X0071789Y0089692D01*
X0071854Y0089671D01*
X0071918Y0089645D01*
X0071980Y0089616D01*
X0072040Y0089584D01*
X0072099Y0089548D01*
X0072155Y0089508D01*
X0072209Y0089466D01*
X0072260Y0089420D01*
X0072309Y0089371D01*
X0072355Y0089320D01*
X0072397Y0089266D01*
X0072437Y0089210D01*
X0072473Y0089151D01*
X0072505Y0089091D01*
X0072534Y0089029D01*
X0072560Y0088965D01*
X0072581Y0088900D01*
X0072599Y0088833D01*
X0072613Y0088766D01*
X0072623Y0088698D01*
X0072629Y0088630D01*
X0072631Y0088561D01*
X0072629Y0088492D01*
X0072623Y0088424D01*
X0072613Y0088356D01*
X0072599Y0088289D01*
X0072581Y0088222D01*
X0072560Y0088157D01*
X0072534Y0088093D01*
X0072505Y0088031D01*
X0072473Y0087970D01*
X0072437Y0087912D01*
X0072397Y0087856D01*
X0072355Y0087802D01*
X0072309Y0087751D01*
X0072260Y0087702D01*
X0072209Y0087656D01*
X0072155Y0087614D01*
X0072099Y0087574D01*
X0072041Y0087538D01*
X0071980Y0087506D01*
X0071918Y0087477D01*
X0071854Y0087451D01*
X0071789Y0087430D01*
X0071722Y0087412D01*
X0071655Y0087398D01*
X0071587Y0087388D01*
X0071519Y0087382D01*
X0071450Y0087380D01*
X0071381Y0087382D01*
X0071313Y0087388D01*
X0071245Y0087398D01*
X0071178Y0087412D01*
X0071111Y0087430D01*
X0071046Y0087451D01*
X0070982Y0087477D01*
X0070920Y0087506D01*
X0070859Y0087538D01*
X0070801Y0087574D01*
X0070745Y0087614D01*
X0070691Y0087656D01*
X0070640Y0087702D01*
X0070591Y0087751D01*
X0070545Y0087802D01*
X0070503Y0087856D01*
X0070463Y0087912D01*
X0070427Y0087970D01*
X0070395Y0088031D01*
X0070366Y0088093D01*
X0070340Y0088157D01*
X0070319Y0088222D01*
X0070301Y0088289D01*
X0070287Y0088356D01*
X0070277Y0088424D01*
X0070271Y0088492D01*
X0070269Y0088561D01*
X0076620Y0066415D02*
X0076622Y0066484D01*
X0076628Y0066552D01*
X0076638Y0066620D01*
X0076652Y0066687D01*
X0076670Y0066754D01*
X0076691Y0066819D01*
X0076717Y0066883D01*
X0076746Y0066945D01*
X0076778Y0067005D01*
X0076814Y0067064D01*
X0076854Y0067120D01*
X0076896Y0067174D01*
X0076942Y0067225D01*
X0076991Y0067274D01*
X0077042Y0067320D01*
X0077096Y0067362D01*
X0077152Y0067402D01*
X0077210Y0067438D01*
X0077271Y0067470D01*
X0077333Y0067499D01*
X0077397Y0067525D01*
X0077462Y0067546D01*
X0077529Y0067564D01*
X0077596Y0067578D01*
X0077664Y0067588D01*
X0077732Y0067594D01*
X0077801Y0067596D01*
X0077870Y0067594D01*
X0077938Y0067588D01*
X0078006Y0067578D01*
X0078073Y0067564D01*
X0078140Y0067546D01*
X0078205Y0067525D01*
X0078269Y0067499D01*
X0078331Y0067470D01*
X0078391Y0067438D01*
X0078450Y0067402D01*
X0078506Y0067362D01*
X0078560Y0067320D01*
X0078611Y0067274D01*
X0078660Y0067225D01*
X0078706Y0067174D01*
X0078748Y0067120D01*
X0078788Y0067064D01*
X0078824Y0067005D01*
X0078856Y0066945D01*
X0078885Y0066883D01*
X0078911Y0066819D01*
X0078932Y0066754D01*
X0078950Y0066687D01*
X0078964Y0066620D01*
X0078974Y0066552D01*
X0078980Y0066484D01*
X0078982Y0066415D01*
X0078980Y0066346D01*
X0078974Y0066278D01*
X0078964Y0066210D01*
X0078950Y0066143D01*
X0078932Y0066076D01*
X0078911Y0066011D01*
X0078885Y0065947D01*
X0078856Y0065885D01*
X0078824Y0065824D01*
X0078788Y0065766D01*
X0078748Y0065710D01*
X0078706Y0065656D01*
X0078660Y0065605D01*
X0078611Y0065556D01*
X0078560Y0065510D01*
X0078506Y0065468D01*
X0078450Y0065428D01*
X0078392Y0065392D01*
X0078331Y0065360D01*
X0078269Y0065331D01*
X0078205Y0065305D01*
X0078140Y0065284D01*
X0078073Y0065266D01*
X0078006Y0065252D01*
X0077938Y0065242D01*
X0077870Y0065236D01*
X0077801Y0065234D01*
X0077732Y0065236D01*
X0077664Y0065242D01*
X0077596Y0065252D01*
X0077529Y0065266D01*
X0077462Y0065284D01*
X0077397Y0065305D01*
X0077333Y0065331D01*
X0077271Y0065360D01*
X0077210Y0065392D01*
X0077152Y0065428D01*
X0077096Y0065468D01*
X0077042Y0065510D01*
X0076991Y0065556D01*
X0076942Y0065605D01*
X0076896Y0065656D01*
X0076854Y0065710D01*
X0076814Y0065766D01*
X0076778Y0065824D01*
X0076746Y0065885D01*
X0076717Y0065947D01*
X0076691Y0066011D01*
X0076670Y0066076D01*
X0076652Y0066143D01*
X0076638Y0066210D01*
X0076628Y0066278D01*
X0076622Y0066346D01*
X0076620Y0066415D01*
X0091595Y0034301D02*
X0091597Y0034370D01*
X0091603Y0034438D01*
X0091613Y0034506D01*
X0091627Y0034573D01*
X0091645Y0034640D01*
X0091666Y0034705D01*
X0091692Y0034769D01*
X0091721Y0034831D01*
X0091753Y0034891D01*
X0091789Y0034950D01*
X0091829Y0035006D01*
X0091871Y0035060D01*
X0091917Y0035111D01*
X0091966Y0035160D01*
X0092017Y0035206D01*
X0092071Y0035248D01*
X0092127Y0035288D01*
X0092185Y0035324D01*
X0092246Y0035356D01*
X0092308Y0035385D01*
X0092372Y0035411D01*
X0092437Y0035432D01*
X0092504Y0035450D01*
X0092571Y0035464D01*
X0092639Y0035474D01*
X0092707Y0035480D01*
X0092776Y0035482D01*
X0092845Y0035480D01*
X0092913Y0035474D01*
X0092981Y0035464D01*
X0093048Y0035450D01*
X0093115Y0035432D01*
X0093180Y0035411D01*
X0093244Y0035385D01*
X0093306Y0035356D01*
X0093366Y0035324D01*
X0093425Y0035288D01*
X0093481Y0035248D01*
X0093535Y0035206D01*
X0093586Y0035160D01*
X0093635Y0035111D01*
X0093681Y0035060D01*
X0093723Y0035006D01*
X0093763Y0034950D01*
X0093799Y0034891D01*
X0093831Y0034831D01*
X0093860Y0034769D01*
X0093886Y0034705D01*
X0093907Y0034640D01*
X0093925Y0034573D01*
X0093939Y0034506D01*
X0093949Y0034438D01*
X0093955Y0034370D01*
X0093957Y0034301D01*
X0093955Y0034232D01*
X0093949Y0034164D01*
X0093939Y0034096D01*
X0093925Y0034029D01*
X0093907Y0033962D01*
X0093886Y0033897D01*
X0093860Y0033833D01*
X0093831Y0033771D01*
X0093799Y0033710D01*
X0093763Y0033652D01*
X0093723Y0033596D01*
X0093681Y0033542D01*
X0093635Y0033491D01*
X0093586Y0033442D01*
X0093535Y0033396D01*
X0093481Y0033354D01*
X0093425Y0033314D01*
X0093367Y0033278D01*
X0093306Y0033246D01*
X0093244Y0033217D01*
X0093180Y0033191D01*
X0093115Y0033170D01*
X0093048Y0033152D01*
X0092981Y0033138D01*
X0092913Y0033128D01*
X0092845Y0033122D01*
X0092776Y0033120D01*
X0092707Y0033122D01*
X0092639Y0033128D01*
X0092571Y0033138D01*
X0092504Y0033152D01*
X0092437Y0033170D01*
X0092372Y0033191D01*
X0092308Y0033217D01*
X0092246Y0033246D01*
X0092185Y0033278D01*
X0092127Y0033314D01*
X0092071Y0033354D01*
X0092017Y0033396D01*
X0091966Y0033442D01*
X0091917Y0033491D01*
X0091871Y0033542D01*
X0091829Y0033596D01*
X0091789Y0033652D01*
X0091753Y0033710D01*
X0091721Y0033771D01*
X0091692Y0033833D01*
X0091666Y0033897D01*
X0091645Y0033962D01*
X0091627Y0034029D01*
X0091613Y0034096D01*
X0091603Y0034164D01*
X0091597Y0034232D01*
X0091595Y0034301D01*
X0192067Y0034301D02*
X0192069Y0034370D01*
X0192075Y0034438D01*
X0192085Y0034506D01*
X0192099Y0034573D01*
X0192117Y0034640D01*
X0192138Y0034705D01*
X0192164Y0034769D01*
X0192193Y0034831D01*
X0192225Y0034891D01*
X0192261Y0034950D01*
X0192301Y0035006D01*
X0192343Y0035060D01*
X0192389Y0035111D01*
X0192438Y0035160D01*
X0192489Y0035206D01*
X0192543Y0035248D01*
X0192599Y0035288D01*
X0192657Y0035324D01*
X0192718Y0035356D01*
X0192780Y0035385D01*
X0192844Y0035411D01*
X0192909Y0035432D01*
X0192976Y0035450D01*
X0193043Y0035464D01*
X0193111Y0035474D01*
X0193179Y0035480D01*
X0193248Y0035482D01*
X0193317Y0035480D01*
X0193385Y0035474D01*
X0193453Y0035464D01*
X0193520Y0035450D01*
X0193587Y0035432D01*
X0193652Y0035411D01*
X0193716Y0035385D01*
X0193778Y0035356D01*
X0193838Y0035324D01*
X0193897Y0035288D01*
X0193953Y0035248D01*
X0194007Y0035206D01*
X0194058Y0035160D01*
X0194107Y0035111D01*
X0194153Y0035060D01*
X0194195Y0035006D01*
X0194235Y0034950D01*
X0194271Y0034891D01*
X0194303Y0034831D01*
X0194332Y0034769D01*
X0194358Y0034705D01*
X0194379Y0034640D01*
X0194397Y0034573D01*
X0194411Y0034506D01*
X0194421Y0034438D01*
X0194427Y0034370D01*
X0194429Y0034301D01*
X0194427Y0034232D01*
X0194421Y0034164D01*
X0194411Y0034096D01*
X0194397Y0034029D01*
X0194379Y0033962D01*
X0194358Y0033897D01*
X0194332Y0033833D01*
X0194303Y0033771D01*
X0194271Y0033710D01*
X0194235Y0033652D01*
X0194195Y0033596D01*
X0194153Y0033542D01*
X0194107Y0033491D01*
X0194058Y0033442D01*
X0194007Y0033396D01*
X0193953Y0033354D01*
X0193897Y0033314D01*
X0193839Y0033278D01*
X0193778Y0033246D01*
X0193716Y0033217D01*
X0193652Y0033191D01*
X0193587Y0033170D01*
X0193520Y0033152D01*
X0193453Y0033138D01*
X0193385Y0033128D01*
X0193317Y0033122D01*
X0193248Y0033120D01*
X0193179Y0033122D01*
X0193111Y0033128D01*
X0193043Y0033138D01*
X0192976Y0033152D01*
X0192909Y0033170D01*
X0192844Y0033191D01*
X0192780Y0033217D01*
X0192718Y0033246D01*
X0192657Y0033278D01*
X0192599Y0033314D01*
X0192543Y0033354D01*
X0192489Y0033396D01*
X0192438Y0033442D01*
X0192389Y0033491D01*
X0192343Y0033542D01*
X0192301Y0033596D01*
X0192261Y0033652D01*
X0192225Y0033710D01*
X0192193Y0033771D01*
X0192164Y0033833D01*
X0192138Y0033897D01*
X0192117Y0033962D01*
X0192099Y0034029D01*
X0192085Y0034096D01*
X0192075Y0034164D01*
X0192069Y0034232D01*
X0192067Y0034301D01*
X0207041Y0066415D02*
X0207043Y0066484D01*
X0207049Y0066552D01*
X0207059Y0066620D01*
X0207073Y0066687D01*
X0207091Y0066754D01*
X0207112Y0066819D01*
X0207138Y0066883D01*
X0207167Y0066945D01*
X0207199Y0067005D01*
X0207235Y0067064D01*
X0207275Y0067120D01*
X0207317Y0067174D01*
X0207363Y0067225D01*
X0207412Y0067274D01*
X0207463Y0067320D01*
X0207517Y0067362D01*
X0207573Y0067402D01*
X0207631Y0067438D01*
X0207692Y0067470D01*
X0207754Y0067499D01*
X0207818Y0067525D01*
X0207883Y0067546D01*
X0207950Y0067564D01*
X0208017Y0067578D01*
X0208085Y0067588D01*
X0208153Y0067594D01*
X0208222Y0067596D01*
X0208291Y0067594D01*
X0208359Y0067588D01*
X0208427Y0067578D01*
X0208494Y0067564D01*
X0208561Y0067546D01*
X0208626Y0067525D01*
X0208690Y0067499D01*
X0208752Y0067470D01*
X0208812Y0067438D01*
X0208871Y0067402D01*
X0208927Y0067362D01*
X0208981Y0067320D01*
X0209032Y0067274D01*
X0209081Y0067225D01*
X0209127Y0067174D01*
X0209169Y0067120D01*
X0209209Y0067064D01*
X0209245Y0067005D01*
X0209277Y0066945D01*
X0209306Y0066883D01*
X0209332Y0066819D01*
X0209353Y0066754D01*
X0209371Y0066687D01*
X0209385Y0066620D01*
X0209395Y0066552D01*
X0209401Y0066484D01*
X0209403Y0066415D01*
X0209401Y0066346D01*
X0209395Y0066278D01*
X0209385Y0066210D01*
X0209371Y0066143D01*
X0209353Y0066076D01*
X0209332Y0066011D01*
X0209306Y0065947D01*
X0209277Y0065885D01*
X0209245Y0065824D01*
X0209209Y0065766D01*
X0209169Y0065710D01*
X0209127Y0065656D01*
X0209081Y0065605D01*
X0209032Y0065556D01*
X0208981Y0065510D01*
X0208927Y0065468D01*
X0208871Y0065428D01*
X0208813Y0065392D01*
X0208752Y0065360D01*
X0208690Y0065331D01*
X0208626Y0065305D01*
X0208561Y0065284D01*
X0208494Y0065266D01*
X0208427Y0065252D01*
X0208359Y0065242D01*
X0208291Y0065236D01*
X0208222Y0065234D01*
X0208153Y0065236D01*
X0208085Y0065242D01*
X0208017Y0065252D01*
X0207950Y0065266D01*
X0207883Y0065284D01*
X0207818Y0065305D01*
X0207754Y0065331D01*
X0207692Y0065360D01*
X0207631Y0065392D01*
X0207573Y0065428D01*
X0207517Y0065468D01*
X0207463Y0065510D01*
X0207412Y0065556D01*
X0207363Y0065605D01*
X0207317Y0065656D01*
X0207275Y0065710D01*
X0207235Y0065766D01*
X0207199Y0065824D01*
X0207167Y0065885D01*
X0207138Y0065947D01*
X0207112Y0066011D01*
X0207091Y0066076D01*
X0207073Y0066143D01*
X0207059Y0066210D01*
X0207049Y0066278D01*
X0207043Y0066346D01*
X0207041Y0066415D01*
X0213392Y0088561D02*
X0213394Y0088630D01*
X0213400Y0088698D01*
X0213410Y0088766D01*
X0213424Y0088833D01*
X0213442Y0088900D01*
X0213463Y0088965D01*
X0213489Y0089029D01*
X0213518Y0089091D01*
X0213550Y0089151D01*
X0213586Y0089210D01*
X0213626Y0089266D01*
X0213668Y0089320D01*
X0213714Y0089371D01*
X0213763Y0089420D01*
X0213814Y0089466D01*
X0213868Y0089508D01*
X0213924Y0089548D01*
X0213982Y0089584D01*
X0214043Y0089616D01*
X0214105Y0089645D01*
X0214169Y0089671D01*
X0214234Y0089692D01*
X0214301Y0089710D01*
X0214368Y0089724D01*
X0214436Y0089734D01*
X0214504Y0089740D01*
X0214573Y0089742D01*
X0214642Y0089740D01*
X0214710Y0089734D01*
X0214778Y0089724D01*
X0214845Y0089710D01*
X0214912Y0089692D01*
X0214977Y0089671D01*
X0215041Y0089645D01*
X0215103Y0089616D01*
X0215163Y0089584D01*
X0215222Y0089548D01*
X0215278Y0089508D01*
X0215332Y0089466D01*
X0215383Y0089420D01*
X0215432Y0089371D01*
X0215478Y0089320D01*
X0215520Y0089266D01*
X0215560Y0089210D01*
X0215596Y0089151D01*
X0215628Y0089091D01*
X0215657Y0089029D01*
X0215683Y0088965D01*
X0215704Y0088900D01*
X0215722Y0088833D01*
X0215736Y0088766D01*
X0215746Y0088698D01*
X0215752Y0088630D01*
X0215754Y0088561D01*
X0215752Y0088492D01*
X0215746Y0088424D01*
X0215736Y0088356D01*
X0215722Y0088289D01*
X0215704Y0088222D01*
X0215683Y0088157D01*
X0215657Y0088093D01*
X0215628Y0088031D01*
X0215596Y0087970D01*
X0215560Y0087912D01*
X0215520Y0087856D01*
X0215478Y0087802D01*
X0215432Y0087751D01*
X0215383Y0087702D01*
X0215332Y0087656D01*
X0215278Y0087614D01*
X0215222Y0087574D01*
X0215164Y0087538D01*
X0215103Y0087506D01*
X0215041Y0087477D01*
X0214977Y0087451D01*
X0214912Y0087430D01*
X0214845Y0087412D01*
X0214778Y0087398D01*
X0214710Y0087388D01*
X0214642Y0087382D01*
X0214573Y0087380D01*
X0214504Y0087382D01*
X0214436Y0087388D01*
X0214368Y0087398D01*
X0214301Y0087412D01*
X0214234Y0087430D01*
X0214169Y0087451D01*
X0214105Y0087477D01*
X0214043Y0087506D01*
X0213982Y0087538D01*
X0213924Y0087574D01*
X0213868Y0087614D01*
X0213814Y0087656D01*
X0213763Y0087702D01*
X0213714Y0087751D01*
X0213668Y0087802D01*
X0213626Y0087856D01*
X0213586Y0087912D01*
X0213550Y0087970D01*
X0213518Y0088031D01*
X0213489Y0088093D01*
X0213463Y0088157D01*
X0213442Y0088222D01*
X0213424Y0088289D01*
X0213410Y0088356D01*
X0213400Y0088424D01*
X0213394Y0088492D01*
X0213392Y0088561D01*
X0228367Y0120674D02*
X0228369Y0120743D01*
X0228375Y0120811D01*
X0228385Y0120879D01*
X0228399Y0120946D01*
X0228417Y0121013D01*
X0228438Y0121078D01*
X0228464Y0121142D01*
X0228493Y0121204D01*
X0228525Y0121264D01*
X0228561Y0121323D01*
X0228601Y0121379D01*
X0228643Y0121433D01*
X0228689Y0121484D01*
X0228738Y0121533D01*
X0228789Y0121579D01*
X0228843Y0121621D01*
X0228899Y0121661D01*
X0228957Y0121697D01*
X0229018Y0121729D01*
X0229080Y0121758D01*
X0229144Y0121784D01*
X0229209Y0121805D01*
X0229276Y0121823D01*
X0229343Y0121837D01*
X0229411Y0121847D01*
X0229479Y0121853D01*
X0229548Y0121855D01*
X0229617Y0121853D01*
X0229685Y0121847D01*
X0229753Y0121837D01*
X0229820Y0121823D01*
X0229887Y0121805D01*
X0229952Y0121784D01*
X0230016Y0121758D01*
X0230078Y0121729D01*
X0230138Y0121697D01*
X0230197Y0121661D01*
X0230253Y0121621D01*
X0230307Y0121579D01*
X0230358Y0121533D01*
X0230407Y0121484D01*
X0230453Y0121433D01*
X0230495Y0121379D01*
X0230535Y0121323D01*
X0230571Y0121264D01*
X0230603Y0121204D01*
X0230632Y0121142D01*
X0230658Y0121078D01*
X0230679Y0121013D01*
X0230697Y0120946D01*
X0230711Y0120879D01*
X0230721Y0120811D01*
X0230727Y0120743D01*
X0230729Y0120674D01*
X0230727Y0120605D01*
X0230721Y0120537D01*
X0230711Y0120469D01*
X0230697Y0120402D01*
X0230679Y0120335D01*
X0230658Y0120270D01*
X0230632Y0120206D01*
X0230603Y0120144D01*
X0230571Y0120083D01*
X0230535Y0120025D01*
X0230495Y0119969D01*
X0230453Y0119915D01*
X0230407Y0119864D01*
X0230358Y0119815D01*
X0230307Y0119769D01*
X0230253Y0119727D01*
X0230197Y0119687D01*
X0230139Y0119651D01*
X0230078Y0119619D01*
X0230016Y0119590D01*
X0229952Y0119564D01*
X0229887Y0119543D01*
X0229820Y0119525D01*
X0229753Y0119511D01*
X0229685Y0119501D01*
X0229617Y0119495D01*
X0229548Y0119493D01*
X0229479Y0119495D01*
X0229411Y0119501D01*
X0229343Y0119511D01*
X0229276Y0119525D01*
X0229209Y0119543D01*
X0229144Y0119564D01*
X0229080Y0119590D01*
X0229018Y0119619D01*
X0228957Y0119651D01*
X0228899Y0119687D01*
X0228843Y0119727D01*
X0228789Y0119769D01*
X0228738Y0119815D01*
X0228689Y0119864D01*
X0228643Y0119915D01*
X0228601Y0119969D01*
X0228561Y0120025D01*
X0228525Y0120083D01*
X0228493Y0120144D01*
X0228464Y0120206D01*
X0228438Y0120270D01*
X0228417Y0120335D01*
X0228399Y0120402D01*
X0228385Y0120469D01*
X0228375Y0120537D01*
X0228369Y0120605D01*
X0228367Y0120674D01*
D117*
X0274907Y0289918D03*
X0274907Y0295718D03*
D118*
X0274902Y0276697D03*
M02*
