G75*
%MOIN*%
%OFA0B0*%
%FSLAX25Y25*%
%IPPOS*%
%LPD*%
%AMOC8*
5,1,8,0,0,1.08239X$1,22.5*
%
%ADD10C,0.00000*%
%ADD11C,0.00039*%
%ADD12R,0.01350X0.00338*%
%ADD13R,0.02026X0.00338*%
%ADD14R,0.00338X0.00338*%
%ADD15R,0.04389X0.00338*%
%ADD16R,0.05402X0.00338*%
%ADD17R,0.03038X0.00338*%
%ADD18R,0.02701X0.00338*%
%ADD19R,0.02363X0.00338*%
%ADD20R,0.02363X0.00338*%
%ADD21R,0.01688X0.00338*%
%ADD22R,0.04051X0.00338*%
%ADD23R,0.05064X0.00338*%
%ADD24R,0.04726X0.00338*%
%ADD25R,0.03713X0.00338*%
%ADD26R,0.01013X0.00338*%
%ADD27R,0.03376X0.00338*%
%ADD28R,0.01013X0.00338*%
%ADD29R,0.05402X0.00338*%
%ADD30R,0.02363X0.00338*%
%ADD31R,0.03714X0.00338*%
%ADD32R,0.06077X0.00338*%
%ADD33R,0.02026X0.00338*%
%ADD34R,0.04726X0.00338*%
%ADD35R,0.06752X0.00338*%
%ADD36R,0.07427X0.00338*%
%ADD37R,0.08102X0.00338*%
%ADD38R,0.08778X0.00338*%
%ADD39R,0.09453X0.00338*%
%ADD40R,0.10128X0.00338*%
%ADD41R,0.10803X0.00338*%
%ADD42R,0.11478X0.00338*%
%ADD43R,0.12154X0.00338*%
%ADD44R,0.03039X0.00338*%
%ADD45R,0.12829X0.00338*%
%ADD46R,0.13504X0.00338*%
%ADD47R,0.04389X0.00338*%
%ADD48R,0.14179X0.00338*%
%ADD49R,0.14854X0.00338*%
%ADD50R,0.15530X0.00338*%
%ADD51R,0.00675X0.00338*%
%ADD52R,0.16205X0.00338*%
%ADD53R,0.16880X0.00338*%
%ADD54R,0.17555X0.00338*%
%ADD55R,0.18230X0.00338*%
%ADD56R,0.18906X0.00338*%
%ADD57R,0.19581X0.00338*%
%ADD58R,0.20256X0.00338*%
%ADD59R,0.20931X0.00338*%
%ADD60R,0.21606X0.00338*%
%ADD61R,0.22281X0.00338*%
%ADD62R,0.22957X0.00338*%
%ADD63R,0.23632X0.00338*%
%ADD64R,0.24307X0.00338*%
%ADD65R,0.24982X0.00338*%
%ADD66R,0.25657X0.00338*%
%ADD67R,0.26333X0.00338*%
%ADD68R,0.27008X0.00338*%
%ADD69R,0.27683X0.00338*%
%ADD70R,0.28358X0.00338*%
%ADD71R,0.29033X0.00338*%
%ADD72R,0.00337X0.00338*%
%ADD73R,0.01688X0.00338*%
%ADD74R,0.05064X0.00338*%
%ADD75R,0.05739X0.00338*%
%ADD76R,0.06077X0.00338*%
%ADD77R,0.06414X0.00338*%
%ADD78R,0.07089X0.00338*%
%ADD79R,0.07765X0.00338*%
%ADD80R,0.08440X0.00338*%
%ADD81R,0.09115X0.00338*%
%ADD82R,0.09790X0.00338*%
%ADD83R,0.10465X0.00338*%
%ADD84R,0.10803X0.00338*%
%ADD85R,0.11141X0.00338*%
%ADD86R,0.02026X0.00338*%
%ADD87R,0.11141X0.00338*%
%ADD88R,0.11478X0.00338*%
%ADD89R,0.11816X0.00338*%
%ADD90R,0.12154X0.00338*%
%ADD91R,0.12491X0.00338*%
%ADD92R,0.00675X0.00338*%
%ADD93R,0.12491X0.00338*%
%ADD94R,0.12829X0.00338*%
%ADD95R,0.03376X0.00338*%
%ADD96R,0.13166X0.00338*%
%ADD97R,0.12829X0.00338*%
%ADD98R,0.13166X0.00338*%
%ADD99R,0.02701X0.00338*%
%ADD100R,0.13166X0.00338*%
%ADD101R,0.13504X0.00338*%
%ADD102R,0.01350X0.00338*%
%ADD103R,0.02363X0.00338*%
%ADD104R,0.13504X0.00338*%
%ADD105R,0.02363X0.00338*%
%ADD106R,0.12154X0.00338*%
%ADD107R,0.11478X0.00338*%
%ADD108R,0.10803X0.00338*%
%ADD109R,0.09790X0.00338*%
%ADD110R,0.10128X0.00338*%
%ADD111R,0.09453X0.00338*%
%ADD112R,0.09790X0.00338*%
%ADD113R,0.08440X0.00338*%
%ADD114R,0.08778X0.00338*%
%ADD115R,0.08102X0.00338*%
%ADD116R,0.08440X0.00338*%
%ADD117R,0.07089X0.00338*%
%ADD118R,0.07427X0.00338*%
%ADD119R,0.06752X0.00338*%
%ADD120R,0.07089X0.00338*%
%ADD121R,0.05739X0.00338*%
%ADD122R,0.06077X0.00338*%
%ADD123R,0.05402X0.00338*%
%ADD124R,0.05739X0.00338*%
%ADD125R,0.27008X0.00338*%
%ADD126R,0.26333X0.00338*%
%ADD127R,0.03714X0.00338*%
%ADD128R,0.10466X0.00338*%
%ADD129R,0.06415X0.00338*%
%ADD130R,0.05739X0.00338*%
%ADD131R,0.04389X0.00338*%
%ADD132R,0.01350X0.00338*%
%ADD133R,0.01013X0.00338*%
%ADD134R,0.03038X0.00338*%
%ADD135R,0.03039X0.00338*%
%ADD136R,0.04389X0.00338*%
%ADD137R,0.01013X0.00338*%
%ADD138R,0.01013X0.00338*%
%ADD139R,0.03038X0.00338*%
%ADD140R,0.02701X0.00338*%
%ADD141R,0.03039X0.00338*%
%ADD142R,0.01688X0.00338*%
%ADD143R,0.01013X0.00338*%
%ADD144R,0.09115X0.00338*%
%ADD145R,0.07765X0.00338*%
%ADD146R,0.16205X0.00338*%
%ADD147R,0.16205X0.00338*%
%ADD148R,0.21944X0.00338*%
%ADD149R,0.07090X0.00338*%
%ADD150R,0.02559X0.05512*%
%ADD151C,0.00400*%
%ADD152C,0.00500*%
%ADD153C,0.00800*%
%ADD154C,0.02756*%
D10*
X0003248Y0001500D02*
X0282776Y0001500D01*
X0282776Y0371579D01*
X0003248Y0371579D01*
X0003248Y0001500D01*
X0271752Y0314492D02*
X0271754Y0314576D01*
X0271760Y0314659D01*
X0271770Y0314742D01*
X0271784Y0314825D01*
X0271801Y0314907D01*
X0271823Y0314988D01*
X0271848Y0315067D01*
X0271877Y0315146D01*
X0271910Y0315223D01*
X0271946Y0315298D01*
X0271986Y0315372D01*
X0272029Y0315444D01*
X0272076Y0315513D01*
X0272126Y0315580D01*
X0272179Y0315645D01*
X0272235Y0315707D01*
X0272293Y0315767D01*
X0272355Y0315824D01*
X0272419Y0315877D01*
X0272486Y0315928D01*
X0272555Y0315975D01*
X0272626Y0316020D01*
X0272699Y0316060D01*
X0272774Y0316097D01*
X0272851Y0316131D01*
X0272929Y0316161D01*
X0273008Y0316187D01*
X0273089Y0316210D01*
X0273171Y0316228D01*
X0273253Y0316243D01*
X0273336Y0316254D01*
X0273419Y0316261D01*
X0273503Y0316264D01*
X0273587Y0316263D01*
X0273670Y0316258D01*
X0273754Y0316249D01*
X0273836Y0316236D01*
X0273918Y0316220D01*
X0273999Y0316199D01*
X0274080Y0316175D01*
X0274158Y0316147D01*
X0274236Y0316115D01*
X0274312Y0316079D01*
X0274386Y0316040D01*
X0274458Y0315998D01*
X0274528Y0315952D01*
X0274596Y0315903D01*
X0274661Y0315851D01*
X0274724Y0315796D01*
X0274784Y0315738D01*
X0274842Y0315677D01*
X0274896Y0315613D01*
X0274948Y0315547D01*
X0274996Y0315479D01*
X0275041Y0315408D01*
X0275082Y0315335D01*
X0275121Y0315261D01*
X0275155Y0315185D01*
X0275186Y0315107D01*
X0275213Y0315028D01*
X0275237Y0314947D01*
X0275256Y0314866D01*
X0275272Y0314784D01*
X0275284Y0314701D01*
X0275292Y0314617D01*
X0275296Y0314534D01*
X0275296Y0314450D01*
X0275292Y0314367D01*
X0275284Y0314283D01*
X0275272Y0314200D01*
X0275256Y0314118D01*
X0275237Y0314037D01*
X0275213Y0313956D01*
X0275186Y0313877D01*
X0275155Y0313799D01*
X0275121Y0313723D01*
X0275082Y0313649D01*
X0275041Y0313576D01*
X0274996Y0313505D01*
X0274948Y0313437D01*
X0274896Y0313371D01*
X0274842Y0313307D01*
X0274784Y0313246D01*
X0274724Y0313188D01*
X0274661Y0313133D01*
X0274596Y0313081D01*
X0274528Y0313032D01*
X0274458Y0312986D01*
X0274386Y0312944D01*
X0274312Y0312905D01*
X0274236Y0312869D01*
X0274158Y0312837D01*
X0274080Y0312809D01*
X0273999Y0312785D01*
X0273918Y0312764D01*
X0273836Y0312748D01*
X0273754Y0312735D01*
X0273670Y0312726D01*
X0273587Y0312721D01*
X0273503Y0312720D01*
X0273419Y0312723D01*
X0273336Y0312730D01*
X0273253Y0312741D01*
X0273171Y0312756D01*
X0273089Y0312774D01*
X0273008Y0312797D01*
X0272929Y0312823D01*
X0272851Y0312853D01*
X0272774Y0312887D01*
X0272699Y0312924D01*
X0272626Y0312964D01*
X0272555Y0313009D01*
X0272486Y0313056D01*
X0272419Y0313107D01*
X0272355Y0313160D01*
X0272293Y0313217D01*
X0272235Y0313277D01*
X0272179Y0313339D01*
X0272126Y0313404D01*
X0272076Y0313471D01*
X0272029Y0313540D01*
X0271986Y0313612D01*
X0271946Y0313686D01*
X0271910Y0313761D01*
X0271877Y0313838D01*
X0271848Y0313917D01*
X0271823Y0313996D01*
X0271801Y0314077D01*
X0271784Y0314159D01*
X0271770Y0314242D01*
X0271760Y0314325D01*
X0271754Y0314408D01*
X0271752Y0314492D01*
X0271752Y0326303D02*
X0271754Y0326387D01*
X0271760Y0326470D01*
X0271770Y0326553D01*
X0271784Y0326636D01*
X0271801Y0326718D01*
X0271823Y0326799D01*
X0271848Y0326878D01*
X0271877Y0326957D01*
X0271910Y0327034D01*
X0271946Y0327109D01*
X0271986Y0327183D01*
X0272029Y0327255D01*
X0272076Y0327324D01*
X0272126Y0327391D01*
X0272179Y0327456D01*
X0272235Y0327518D01*
X0272293Y0327578D01*
X0272355Y0327635D01*
X0272419Y0327688D01*
X0272486Y0327739D01*
X0272555Y0327786D01*
X0272626Y0327831D01*
X0272699Y0327871D01*
X0272774Y0327908D01*
X0272851Y0327942D01*
X0272929Y0327972D01*
X0273008Y0327998D01*
X0273089Y0328021D01*
X0273171Y0328039D01*
X0273253Y0328054D01*
X0273336Y0328065D01*
X0273419Y0328072D01*
X0273503Y0328075D01*
X0273587Y0328074D01*
X0273670Y0328069D01*
X0273754Y0328060D01*
X0273836Y0328047D01*
X0273918Y0328031D01*
X0273999Y0328010D01*
X0274080Y0327986D01*
X0274158Y0327958D01*
X0274236Y0327926D01*
X0274312Y0327890D01*
X0274386Y0327851D01*
X0274458Y0327809D01*
X0274528Y0327763D01*
X0274596Y0327714D01*
X0274661Y0327662D01*
X0274724Y0327607D01*
X0274784Y0327549D01*
X0274842Y0327488D01*
X0274896Y0327424D01*
X0274948Y0327358D01*
X0274996Y0327290D01*
X0275041Y0327219D01*
X0275082Y0327146D01*
X0275121Y0327072D01*
X0275155Y0326996D01*
X0275186Y0326918D01*
X0275213Y0326839D01*
X0275237Y0326758D01*
X0275256Y0326677D01*
X0275272Y0326595D01*
X0275284Y0326512D01*
X0275292Y0326428D01*
X0275296Y0326345D01*
X0275296Y0326261D01*
X0275292Y0326178D01*
X0275284Y0326094D01*
X0275272Y0326011D01*
X0275256Y0325929D01*
X0275237Y0325848D01*
X0275213Y0325767D01*
X0275186Y0325688D01*
X0275155Y0325610D01*
X0275121Y0325534D01*
X0275082Y0325460D01*
X0275041Y0325387D01*
X0274996Y0325316D01*
X0274948Y0325248D01*
X0274896Y0325182D01*
X0274842Y0325118D01*
X0274784Y0325057D01*
X0274724Y0324999D01*
X0274661Y0324944D01*
X0274596Y0324892D01*
X0274528Y0324843D01*
X0274458Y0324797D01*
X0274386Y0324755D01*
X0274312Y0324716D01*
X0274236Y0324680D01*
X0274158Y0324648D01*
X0274080Y0324620D01*
X0273999Y0324596D01*
X0273918Y0324575D01*
X0273836Y0324559D01*
X0273754Y0324546D01*
X0273670Y0324537D01*
X0273587Y0324532D01*
X0273503Y0324531D01*
X0273419Y0324534D01*
X0273336Y0324541D01*
X0273253Y0324552D01*
X0273171Y0324567D01*
X0273089Y0324585D01*
X0273008Y0324608D01*
X0272929Y0324634D01*
X0272851Y0324664D01*
X0272774Y0324698D01*
X0272699Y0324735D01*
X0272626Y0324775D01*
X0272555Y0324820D01*
X0272486Y0324867D01*
X0272419Y0324918D01*
X0272355Y0324971D01*
X0272293Y0325028D01*
X0272235Y0325088D01*
X0272179Y0325150D01*
X0272126Y0325215D01*
X0272076Y0325282D01*
X0272029Y0325351D01*
X0271986Y0325423D01*
X0271946Y0325497D01*
X0271910Y0325572D01*
X0271877Y0325649D01*
X0271848Y0325728D01*
X0271823Y0325807D01*
X0271801Y0325888D01*
X0271784Y0325970D01*
X0271770Y0326053D01*
X0271760Y0326136D01*
X0271754Y0326219D01*
X0271752Y0326303D01*
D11*
X0262107Y0359768D02*
X0262109Y0359908D01*
X0262115Y0360048D01*
X0262125Y0360187D01*
X0262139Y0360326D01*
X0262157Y0360465D01*
X0262178Y0360603D01*
X0262204Y0360741D01*
X0262234Y0360878D01*
X0262267Y0361013D01*
X0262305Y0361148D01*
X0262346Y0361282D01*
X0262391Y0361415D01*
X0262439Y0361546D01*
X0262492Y0361675D01*
X0262548Y0361804D01*
X0262607Y0361930D01*
X0262671Y0362055D01*
X0262737Y0362178D01*
X0262808Y0362299D01*
X0262881Y0362418D01*
X0262958Y0362535D01*
X0263039Y0362649D01*
X0263122Y0362761D01*
X0263209Y0362871D01*
X0263299Y0362979D01*
X0263391Y0363083D01*
X0263487Y0363185D01*
X0263586Y0363285D01*
X0263687Y0363381D01*
X0263791Y0363475D01*
X0263898Y0363565D01*
X0264007Y0363652D01*
X0264119Y0363737D01*
X0264233Y0363818D01*
X0264349Y0363896D01*
X0264467Y0363970D01*
X0264588Y0364041D01*
X0264710Y0364109D01*
X0264835Y0364173D01*
X0264961Y0364234D01*
X0265088Y0364291D01*
X0265218Y0364344D01*
X0265349Y0364394D01*
X0265481Y0364439D01*
X0265614Y0364482D01*
X0265749Y0364520D01*
X0265884Y0364554D01*
X0266021Y0364585D01*
X0266158Y0364612D01*
X0266296Y0364634D01*
X0266435Y0364653D01*
X0266574Y0364668D01*
X0266713Y0364679D01*
X0266853Y0364686D01*
X0266993Y0364689D01*
X0267133Y0364688D01*
X0267273Y0364683D01*
X0267412Y0364674D01*
X0267552Y0364661D01*
X0267691Y0364644D01*
X0267829Y0364623D01*
X0267967Y0364599D01*
X0268104Y0364570D01*
X0268240Y0364538D01*
X0268375Y0364501D01*
X0268509Y0364461D01*
X0268642Y0364417D01*
X0268773Y0364369D01*
X0268903Y0364318D01*
X0269032Y0364263D01*
X0269159Y0364204D01*
X0269284Y0364141D01*
X0269407Y0364076D01*
X0269529Y0364006D01*
X0269648Y0363933D01*
X0269766Y0363857D01*
X0269881Y0363778D01*
X0269994Y0363695D01*
X0270104Y0363609D01*
X0270212Y0363520D01*
X0270317Y0363428D01*
X0270420Y0363333D01*
X0270520Y0363235D01*
X0270617Y0363135D01*
X0270711Y0363031D01*
X0270803Y0362925D01*
X0270891Y0362817D01*
X0270976Y0362706D01*
X0271058Y0362592D01*
X0271137Y0362476D01*
X0271212Y0362359D01*
X0271284Y0362239D01*
X0271352Y0362117D01*
X0271417Y0361993D01*
X0271479Y0361867D01*
X0271537Y0361740D01*
X0271591Y0361611D01*
X0271642Y0361480D01*
X0271688Y0361348D01*
X0271731Y0361215D01*
X0271771Y0361081D01*
X0271806Y0360946D01*
X0271838Y0360809D01*
X0271865Y0360672D01*
X0271889Y0360534D01*
X0271909Y0360396D01*
X0271925Y0360257D01*
X0271937Y0360117D01*
X0271945Y0359978D01*
X0271949Y0359838D01*
X0271949Y0359698D01*
X0271945Y0359558D01*
X0271937Y0359419D01*
X0271925Y0359279D01*
X0271909Y0359140D01*
X0271889Y0359002D01*
X0271865Y0358864D01*
X0271838Y0358727D01*
X0271806Y0358590D01*
X0271771Y0358455D01*
X0271731Y0358321D01*
X0271688Y0358188D01*
X0271642Y0358056D01*
X0271591Y0357925D01*
X0271537Y0357796D01*
X0271479Y0357669D01*
X0271417Y0357543D01*
X0271352Y0357419D01*
X0271284Y0357297D01*
X0271212Y0357177D01*
X0271137Y0357060D01*
X0271058Y0356944D01*
X0270976Y0356830D01*
X0270891Y0356719D01*
X0270803Y0356611D01*
X0270711Y0356505D01*
X0270617Y0356401D01*
X0270520Y0356301D01*
X0270420Y0356203D01*
X0270317Y0356108D01*
X0270212Y0356016D01*
X0270104Y0355927D01*
X0269994Y0355841D01*
X0269881Y0355758D01*
X0269766Y0355679D01*
X0269648Y0355603D01*
X0269529Y0355530D01*
X0269407Y0355460D01*
X0269284Y0355395D01*
X0269159Y0355332D01*
X0269032Y0355273D01*
X0268903Y0355218D01*
X0268773Y0355167D01*
X0268642Y0355119D01*
X0268509Y0355075D01*
X0268375Y0355035D01*
X0268240Y0354998D01*
X0268104Y0354966D01*
X0267967Y0354937D01*
X0267829Y0354913D01*
X0267691Y0354892D01*
X0267552Y0354875D01*
X0267412Y0354862D01*
X0267273Y0354853D01*
X0267133Y0354848D01*
X0266993Y0354847D01*
X0266853Y0354850D01*
X0266713Y0354857D01*
X0266574Y0354868D01*
X0266435Y0354883D01*
X0266296Y0354902D01*
X0266158Y0354924D01*
X0266021Y0354951D01*
X0265884Y0354982D01*
X0265749Y0355016D01*
X0265614Y0355054D01*
X0265481Y0355097D01*
X0265349Y0355142D01*
X0265218Y0355192D01*
X0265088Y0355245D01*
X0264961Y0355302D01*
X0264835Y0355363D01*
X0264710Y0355427D01*
X0264588Y0355495D01*
X0264467Y0355566D01*
X0264349Y0355640D01*
X0264233Y0355718D01*
X0264119Y0355799D01*
X0264007Y0355884D01*
X0263898Y0355971D01*
X0263791Y0356061D01*
X0263687Y0356155D01*
X0263586Y0356251D01*
X0263487Y0356351D01*
X0263391Y0356453D01*
X0263299Y0356557D01*
X0263209Y0356665D01*
X0263122Y0356775D01*
X0263039Y0356887D01*
X0262958Y0357001D01*
X0262881Y0357118D01*
X0262808Y0357237D01*
X0262737Y0357358D01*
X0262671Y0357481D01*
X0262607Y0357606D01*
X0262548Y0357732D01*
X0262492Y0357861D01*
X0262439Y0357990D01*
X0262391Y0358121D01*
X0262346Y0358254D01*
X0262305Y0358388D01*
X0262267Y0358523D01*
X0262234Y0358658D01*
X0262204Y0358795D01*
X0262178Y0358933D01*
X0262157Y0359071D01*
X0262139Y0359210D01*
X0262125Y0359349D01*
X0262115Y0359488D01*
X0262109Y0359628D01*
X0262107Y0359768D01*
X0262107Y0135358D02*
X0262109Y0135498D01*
X0262115Y0135638D01*
X0262125Y0135777D01*
X0262139Y0135916D01*
X0262157Y0136055D01*
X0262178Y0136193D01*
X0262204Y0136331D01*
X0262234Y0136468D01*
X0262267Y0136603D01*
X0262305Y0136738D01*
X0262346Y0136872D01*
X0262391Y0137005D01*
X0262439Y0137136D01*
X0262492Y0137265D01*
X0262548Y0137394D01*
X0262607Y0137520D01*
X0262671Y0137645D01*
X0262737Y0137768D01*
X0262808Y0137889D01*
X0262881Y0138008D01*
X0262958Y0138125D01*
X0263039Y0138239D01*
X0263122Y0138351D01*
X0263209Y0138461D01*
X0263299Y0138569D01*
X0263391Y0138673D01*
X0263487Y0138775D01*
X0263586Y0138875D01*
X0263687Y0138971D01*
X0263791Y0139065D01*
X0263898Y0139155D01*
X0264007Y0139242D01*
X0264119Y0139327D01*
X0264233Y0139408D01*
X0264349Y0139486D01*
X0264467Y0139560D01*
X0264588Y0139631D01*
X0264710Y0139699D01*
X0264835Y0139763D01*
X0264961Y0139824D01*
X0265088Y0139881D01*
X0265218Y0139934D01*
X0265349Y0139984D01*
X0265481Y0140029D01*
X0265614Y0140072D01*
X0265749Y0140110D01*
X0265884Y0140144D01*
X0266021Y0140175D01*
X0266158Y0140202D01*
X0266296Y0140224D01*
X0266435Y0140243D01*
X0266574Y0140258D01*
X0266713Y0140269D01*
X0266853Y0140276D01*
X0266993Y0140279D01*
X0267133Y0140278D01*
X0267273Y0140273D01*
X0267412Y0140264D01*
X0267552Y0140251D01*
X0267691Y0140234D01*
X0267829Y0140213D01*
X0267967Y0140189D01*
X0268104Y0140160D01*
X0268240Y0140128D01*
X0268375Y0140091D01*
X0268509Y0140051D01*
X0268642Y0140007D01*
X0268773Y0139959D01*
X0268903Y0139908D01*
X0269032Y0139853D01*
X0269159Y0139794D01*
X0269284Y0139731D01*
X0269407Y0139666D01*
X0269529Y0139596D01*
X0269648Y0139523D01*
X0269766Y0139447D01*
X0269881Y0139368D01*
X0269994Y0139285D01*
X0270104Y0139199D01*
X0270212Y0139110D01*
X0270317Y0139018D01*
X0270420Y0138923D01*
X0270520Y0138825D01*
X0270617Y0138725D01*
X0270711Y0138621D01*
X0270803Y0138515D01*
X0270891Y0138407D01*
X0270976Y0138296D01*
X0271058Y0138182D01*
X0271137Y0138066D01*
X0271212Y0137949D01*
X0271284Y0137829D01*
X0271352Y0137707D01*
X0271417Y0137583D01*
X0271479Y0137457D01*
X0271537Y0137330D01*
X0271591Y0137201D01*
X0271642Y0137070D01*
X0271688Y0136938D01*
X0271731Y0136805D01*
X0271771Y0136671D01*
X0271806Y0136536D01*
X0271838Y0136399D01*
X0271865Y0136262D01*
X0271889Y0136124D01*
X0271909Y0135986D01*
X0271925Y0135847D01*
X0271937Y0135707D01*
X0271945Y0135568D01*
X0271949Y0135428D01*
X0271949Y0135288D01*
X0271945Y0135148D01*
X0271937Y0135009D01*
X0271925Y0134869D01*
X0271909Y0134730D01*
X0271889Y0134592D01*
X0271865Y0134454D01*
X0271838Y0134317D01*
X0271806Y0134180D01*
X0271771Y0134045D01*
X0271731Y0133911D01*
X0271688Y0133778D01*
X0271642Y0133646D01*
X0271591Y0133515D01*
X0271537Y0133386D01*
X0271479Y0133259D01*
X0271417Y0133133D01*
X0271352Y0133009D01*
X0271284Y0132887D01*
X0271212Y0132767D01*
X0271137Y0132650D01*
X0271058Y0132534D01*
X0270976Y0132420D01*
X0270891Y0132309D01*
X0270803Y0132201D01*
X0270711Y0132095D01*
X0270617Y0131991D01*
X0270520Y0131891D01*
X0270420Y0131793D01*
X0270317Y0131698D01*
X0270212Y0131606D01*
X0270104Y0131517D01*
X0269994Y0131431D01*
X0269881Y0131348D01*
X0269766Y0131269D01*
X0269648Y0131193D01*
X0269529Y0131120D01*
X0269407Y0131050D01*
X0269284Y0130985D01*
X0269159Y0130922D01*
X0269032Y0130863D01*
X0268903Y0130808D01*
X0268773Y0130757D01*
X0268642Y0130709D01*
X0268509Y0130665D01*
X0268375Y0130625D01*
X0268240Y0130588D01*
X0268104Y0130556D01*
X0267967Y0130527D01*
X0267829Y0130503D01*
X0267691Y0130482D01*
X0267552Y0130465D01*
X0267412Y0130452D01*
X0267273Y0130443D01*
X0267133Y0130438D01*
X0266993Y0130437D01*
X0266853Y0130440D01*
X0266713Y0130447D01*
X0266574Y0130458D01*
X0266435Y0130473D01*
X0266296Y0130492D01*
X0266158Y0130514D01*
X0266021Y0130541D01*
X0265884Y0130572D01*
X0265749Y0130606D01*
X0265614Y0130644D01*
X0265481Y0130687D01*
X0265349Y0130732D01*
X0265218Y0130782D01*
X0265088Y0130835D01*
X0264961Y0130892D01*
X0264835Y0130953D01*
X0264710Y0131017D01*
X0264588Y0131085D01*
X0264467Y0131156D01*
X0264349Y0131230D01*
X0264233Y0131308D01*
X0264119Y0131389D01*
X0264007Y0131474D01*
X0263898Y0131561D01*
X0263791Y0131651D01*
X0263687Y0131745D01*
X0263586Y0131841D01*
X0263487Y0131941D01*
X0263391Y0132043D01*
X0263299Y0132147D01*
X0263209Y0132255D01*
X0263122Y0132365D01*
X0263039Y0132477D01*
X0262958Y0132591D01*
X0262881Y0132708D01*
X0262808Y0132827D01*
X0262737Y0132948D01*
X0262671Y0133071D01*
X0262607Y0133196D01*
X0262548Y0133322D01*
X0262492Y0133451D01*
X0262439Y0133580D01*
X0262391Y0133711D01*
X0262346Y0133844D01*
X0262305Y0133978D01*
X0262267Y0134113D01*
X0262234Y0134248D01*
X0262204Y0134385D01*
X0262178Y0134523D01*
X0262157Y0134661D01*
X0262139Y0134800D01*
X0262125Y0134939D01*
X0262115Y0135078D01*
X0262109Y0135218D01*
X0262107Y0135358D01*
X0262107Y0017248D02*
X0262109Y0017388D01*
X0262115Y0017528D01*
X0262125Y0017667D01*
X0262139Y0017806D01*
X0262157Y0017945D01*
X0262178Y0018083D01*
X0262204Y0018221D01*
X0262234Y0018358D01*
X0262267Y0018493D01*
X0262305Y0018628D01*
X0262346Y0018762D01*
X0262391Y0018895D01*
X0262439Y0019026D01*
X0262492Y0019155D01*
X0262548Y0019284D01*
X0262607Y0019410D01*
X0262671Y0019535D01*
X0262737Y0019658D01*
X0262808Y0019779D01*
X0262881Y0019898D01*
X0262958Y0020015D01*
X0263039Y0020129D01*
X0263122Y0020241D01*
X0263209Y0020351D01*
X0263299Y0020459D01*
X0263391Y0020563D01*
X0263487Y0020665D01*
X0263586Y0020765D01*
X0263687Y0020861D01*
X0263791Y0020955D01*
X0263898Y0021045D01*
X0264007Y0021132D01*
X0264119Y0021217D01*
X0264233Y0021298D01*
X0264349Y0021376D01*
X0264467Y0021450D01*
X0264588Y0021521D01*
X0264710Y0021589D01*
X0264835Y0021653D01*
X0264961Y0021714D01*
X0265088Y0021771D01*
X0265218Y0021824D01*
X0265349Y0021874D01*
X0265481Y0021919D01*
X0265614Y0021962D01*
X0265749Y0022000D01*
X0265884Y0022034D01*
X0266021Y0022065D01*
X0266158Y0022092D01*
X0266296Y0022114D01*
X0266435Y0022133D01*
X0266574Y0022148D01*
X0266713Y0022159D01*
X0266853Y0022166D01*
X0266993Y0022169D01*
X0267133Y0022168D01*
X0267273Y0022163D01*
X0267412Y0022154D01*
X0267552Y0022141D01*
X0267691Y0022124D01*
X0267829Y0022103D01*
X0267967Y0022079D01*
X0268104Y0022050D01*
X0268240Y0022018D01*
X0268375Y0021981D01*
X0268509Y0021941D01*
X0268642Y0021897D01*
X0268773Y0021849D01*
X0268903Y0021798D01*
X0269032Y0021743D01*
X0269159Y0021684D01*
X0269284Y0021621D01*
X0269407Y0021556D01*
X0269529Y0021486D01*
X0269648Y0021413D01*
X0269766Y0021337D01*
X0269881Y0021258D01*
X0269994Y0021175D01*
X0270104Y0021089D01*
X0270212Y0021000D01*
X0270317Y0020908D01*
X0270420Y0020813D01*
X0270520Y0020715D01*
X0270617Y0020615D01*
X0270711Y0020511D01*
X0270803Y0020405D01*
X0270891Y0020297D01*
X0270976Y0020186D01*
X0271058Y0020072D01*
X0271137Y0019956D01*
X0271212Y0019839D01*
X0271284Y0019719D01*
X0271352Y0019597D01*
X0271417Y0019473D01*
X0271479Y0019347D01*
X0271537Y0019220D01*
X0271591Y0019091D01*
X0271642Y0018960D01*
X0271688Y0018828D01*
X0271731Y0018695D01*
X0271771Y0018561D01*
X0271806Y0018426D01*
X0271838Y0018289D01*
X0271865Y0018152D01*
X0271889Y0018014D01*
X0271909Y0017876D01*
X0271925Y0017737D01*
X0271937Y0017597D01*
X0271945Y0017458D01*
X0271949Y0017318D01*
X0271949Y0017178D01*
X0271945Y0017038D01*
X0271937Y0016899D01*
X0271925Y0016759D01*
X0271909Y0016620D01*
X0271889Y0016482D01*
X0271865Y0016344D01*
X0271838Y0016207D01*
X0271806Y0016070D01*
X0271771Y0015935D01*
X0271731Y0015801D01*
X0271688Y0015668D01*
X0271642Y0015536D01*
X0271591Y0015405D01*
X0271537Y0015276D01*
X0271479Y0015149D01*
X0271417Y0015023D01*
X0271352Y0014899D01*
X0271284Y0014777D01*
X0271212Y0014657D01*
X0271137Y0014540D01*
X0271058Y0014424D01*
X0270976Y0014310D01*
X0270891Y0014199D01*
X0270803Y0014091D01*
X0270711Y0013985D01*
X0270617Y0013881D01*
X0270520Y0013781D01*
X0270420Y0013683D01*
X0270317Y0013588D01*
X0270212Y0013496D01*
X0270104Y0013407D01*
X0269994Y0013321D01*
X0269881Y0013238D01*
X0269766Y0013159D01*
X0269648Y0013083D01*
X0269529Y0013010D01*
X0269407Y0012940D01*
X0269284Y0012875D01*
X0269159Y0012812D01*
X0269032Y0012753D01*
X0268903Y0012698D01*
X0268773Y0012647D01*
X0268642Y0012599D01*
X0268509Y0012555D01*
X0268375Y0012515D01*
X0268240Y0012478D01*
X0268104Y0012446D01*
X0267967Y0012417D01*
X0267829Y0012393D01*
X0267691Y0012372D01*
X0267552Y0012355D01*
X0267412Y0012342D01*
X0267273Y0012333D01*
X0267133Y0012328D01*
X0266993Y0012327D01*
X0266853Y0012330D01*
X0266713Y0012337D01*
X0266574Y0012348D01*
X0266435Y0012363D01*
X0266296Y0012382D01*
X0266158Y0012404D01*
X0266021Y0012431D01*
X0265884Y0012462D01*
X0265749Y0012496D01*
X0265614Y0012534D01*
X0265481Y0012577D01*
X0265349Y0012622D01*
X0265218Y0012672D01*
X0265088Y0012725D01*
X0264961Y0012782D01*
X0264835Y0012843D01*
X0264710Y0012907D01*
X0264588Y0012975D01*
X0264467Y0013046D01*
X0264349Y0013120D01*
X0264233Y0013198D01*
X0264119Y0013279D01*
X0264007Y0013364D01*
X0263898Y0013451D01*
X0263791Y0013541D01*
X0263687Y0013635D01*
X0263586Y0013731D01*
X0263487Y0013831D01*
X0263391Y0013933D01*
X0263299Y0014037D01*
X0263209Y0014145D01*
X0263122Y0014255D01*
X0263039Y0014367D01*
X0262958Y0014481D01*
X0262881Y0014598D01*
X0262808Y0014717D01*
X0262737Y0014838D01*
X0262671Y0014961D01*
X0262607Y0015086D01*
X0262548Y0015212D01*
X0262492Y0015341D01*
X0262439Y0015470D01*
X0262391Y0015601D01*
X0262346Y0015734D01*
X0262305Y0015868D01*
X0262267Y0016003D01*
X0262234Y0016138D01*
X0262204Y0016275D01*
X0262178Y0016413D01*
X0262157Y0016551D01*
X0262139Y0016690D01*
X0262125Y0016829D01*
X0262115Y0016968D01*
X0262109Y0017108D01*
X0262107Y0017248D01*
X0014075Y0017248D02*
X0014077Y0017388D01*
X0014083Y0017528D01*
X0014093Y0017667D01*
X0014107Y0017806D01*
X0014125Y0017945D01*
X0014146Y0018083D01*
X0014172Y0018221D01*
X0014202Y0018358D01*
X0014235Y0018493D01*
X0014273Y0018628D01*
X0014314Y0018762D01*
X0014359Y0018895D01*
X0014407Y0019026D01*
X0014460Y0019155D01*
X0014516Y0019284D01*
X0014575Y0019410D01*
X0014639Y0019535D01*
X0014705Y0019658D01*
X0014776Y0019779D01*
X0014849Y0019898D01*
X0014926Y0020015D01*
X0015007Y0020129D01*
X0015090Y0020241D01*
X0015177Y0020351D01*
X0015267Y0020459D01*
X0015359Y0020563D01*
X0015455Y0020665D01*
X0015554Y0020765D01*
X0015655Y0020861D01*
X0015759Y0020955D01*
X0015866Y0021045D01*
X0015975Y0021132D01*
X0016087Y0021217D01*
X0016201Y0021298D01*
X0016317Y0021376D01*
X0016435Y0021450D01*
X0016556Y0021521D01*
X0016678Y0021589D01*
X0016803Y0021653D01*
X0016929Y0021714D01*
X0017056Y0021771D01*
X0017186Y0021824D01*
X0017317Y0021874D01*
X0017449Y0021919D01*
X0017582Y0021962D01*
X0017717Y0022000D01*
X0017852Y0022034D01*
X0017989Y0022065D01*
X0018126Y0022092D01*
X0018264Y0022114D01*
X0018403Y0022133D01*
X0018542Y0022148D01*
X0018681Y0022159D01*
X0018821Y0022166D01*
X0018961Y0022169D01*
X0019101Y0022168D01*
X0019241Y0022163D01*
X0019380Y0022154D01*
X0019520Y0022141D01*
X0019659Y0022124D01*
X0019797Y0022103D01*
X0019935Y0022079D01*
X0020072Y0022050D01*
X0020208Y0022018D01*
X0020343Y0021981D01*
X0020477Y0021941D01*
X0020610Y0021897D01*
X0020741Y0021849D01*
X0020871Y0021798D01*
X0021000Y0021743D01*
X0021127Y0021684D01*
X0021252Y0021621D01*
X0021375Y0021556D01*
X0021497Y0021486D01*
X0021616Y0021413D01*
X0021734Y0021337D01*
X0021849Y0021258D01*
X0021962Y0021175D01*
X0022072Y0021089D01*
X0022180Y0021000D01*
X0022285Y0020908D01*
X0022388Y0020813D01*
X0022488Y0020715D01*
X0022585Y0020615D01*
X0022679Y0020511D01*
X0022771Y0020405D01*
X0022859Y0020297D01*
X0022944Y0020186D01*
X0023026Y0020072D01*
X0023105Y0019956D01*
X0023180Y0019839D01*
X0023252Y0019719D01*
X0023320Y0019597D01*
X0023385Y0019473D01*
X0023447Y0019347D01*
X0023505Y0019220D01*
X0023559Y0019091D01*
X0023610Y0018960D01*
X0023656Y0018828D01*
X0023699Y0018695D01*
X0023739Y0018561D01*
X0023774Y0018426D01*
X0023806Y0018289D01*
X0023833Y0018152D01*
X0023857Y0018014D01*
X0023877Y0017876D01*
X0023893Y0017737D01*
X0023905Y0017597D01*
X0023913Y0017458D01*
X0023917Y0017318D01*
X0023917Y0017178D01*
X0023913Y0017038D01*
X0023905Y0016899D01*
X0023893Y0016759D01*
X0023877Y0016620D01*
X0023857Y0016482D01*
X0023833Y0016344D01*
X0023806Y0016207D01*
X0023774Y0016070D01*
X0023739Y0015935D01*
X0023699Y0015801D01*
X0023656Y0015668D01*
X0023610Y0015536D01*
X0023559Y0015405D01*
X0023505Y0015276D01*
X0023447Y0015149D01*
X0023385Y0015023D01*
X0023320Y0014899D01*
X0023252Y0014777D01*
X0023180Y0014657D01*
X0023105Y0014540D01*
X0023026Y0014424D01*
X0022944Y0014310D01*
X0022859Y0014199D01*
X0022771Y0014091D01*
X0022679Y0013985D01*
X0022585Y0013881D01*
X0022488Y0013781D01*
X0022388Y0013683D01*
X0022285Y0013588D01*
X0022180Y0013496D01*
X0022072Y0013407D01*
X0021962Y0013321D01*
X0021849Y0013238D01*
X0021734Y0013159D01*
X0021616Y0013083D01*
X0021497Y0013010D01*
X0021375Y0012940D01*
X0021252Y0012875D01*
X0021127Y0012812D01*
X0021000Y0012753D01*
X0020871Y0012698D01*
X0020741Y0012647D01*
X0020610Y0012599D01*
X0020477Y0012555D01*
X0020343Y0012515D01*
X0020208Y0012478D01*
X0020072Y0012446D01*
X0019935Y0012417D01*
X0019797Y0012393D01*
X0019659Y0012372D01*
X0019520Y0012355D01*
X0019380Y0012342D01*
X0019241Y0012333D01*
X0019101Y0012328D01*
X0018961Y0012327D01*
X0018821Y0012330D01*
X0018681Y0012337D01*
X0018542Y0012348D01*
X0018403Y0012363D01*
X0018264Y0012382D01*
X0018126Y0012404D01*
X0017989Y0012431D01*
X0017852Y0012462D01*
X0017717Y0012496D01*
X0017582Y0012534D01*
X0017449Y0012577D01*
X0017317Y0012622D01*
X0017186Y0012672D01*
X0017056Y0012725D01*
X0016929Y0012782D01*
X0016803Y0012843D01*
X0016678Y0012907D01*
X0016556Y0012975D01*
X0016435Y0013046D01*
X0016317Y0013120D01*
X0016201Y0013198D01*
X0016087Y0013279D01*
X0015975Y0013364D01*
X0015866Y0013451D01*
X0015759Y0013541D01*
X0015655Y0013635D01*
X0015554Y0013731D01*
X0015455Y0013831D01*
X0015359Y0013933D01*
X0015267Y0014037D01*
X0015177Y0014145D01*
X0015090Y0014255D01*
X0015007Y0014367D01*
X0014926Y0014481D01*
X0014849Y0014598D01*
X0014776Y0014717D01*
X0014705Y0014838D01*
X0014639Y0014961D01*
X0014575Y0015086D01*
X0014516Y0015212D01*
X0014460Y0015341D01*
X0014407Y0015470D01*
X0014359Y0015601D01*
X0014314Y0015734D01*
X0014273Y0015868D01*
X0014235Y0016003D01*
X0014202Y0016138D01*
X0014172Y0016275D01*
X0014146Y0016413D01*
X0014125Y0016551D01*
X0014107Y0016690D01*
X0014093Y0016829D01*
X0014083Y0016968D01*
X0014077Y0017108D01*
X0014075Y0017248D01*
X0014075Y0359768D02*
X0014077Y0359908D01*
X0014083Y0360048D01*
X0014093Y0360187D01*
X0014107Y0360326D01*
X0014125Y0360465D01*
X0014146Y0360603D01*
X0014172Y0360741D01*
X0014202Y0360878D01*
X0014235Y0361013D01*
X0014273Y0361148D01*
X0014314Y0361282D01*
X0014359Y0361415D01*
X0014407Y0361546D01*
X0014460Y0361675D01*
X0014516Y0361804D01*
X0014575Y0361930D01*
X0014639Y0362055D01*
X0014705Y0362178D01*
X0014776Y0362299D01*
X0014849Y0362418D01*
X0014926Y0362535D01*
X0015007Y0362649D01*
X0015090Y0362761D01*
X0015177Y0362871D01*
X0015267Y0362979D01*
X0015359Y0363083D01*
X0015455Y0363185D01*
X0015554Y0363285D01*
X0015655Y0363381D01*
X0015759Y0363475D01*
X0015866Y0363565D01*
X0015975Y0363652D01*
X0016087Y0363737D01*
X0016201Y0363818D01*
X0016317Y0363896D01*
X0016435Y0363970D01*
X0016556Y0364041D01*
X0016678Y0364109D01*
X0016803Y0364173D01*
X0016929Y0364234D01*
X0017056Y0364291D01*
X0017186Y0364344D01*
X0017317Y0364394D01*
X0017449Y0364439D01*
X0017582Y0364482D01*
X0017717Y0364520D01*
X0017852Y0364554D01*
X0017989Y0364585D01*
X0018126Y0364612D01*
X0018264Y0364634D01*
X0018403Y0364653D01*
X0018542Y0364668D01*
X0018681Y0364679D01*
X0018821Y0364686D01*
X0018961Y0364689D01*
X0019101Y0364688D01*
X0019241Y0364683D01*
X0019380Y0364674D01*
X0019520Y0364661D01*
X0019659Y0364644D01*
X0019797Y0364623D01*
X0019935Y0364599D01*
X0020072Y0364570D01*
X0020208Y0364538D01*
X0020343Y0364501D01*
X0020477Y0364461D01*
X0020610Y0364417D01*
X0020741Y0364369D01*
X0020871Y0364318D01*
X0021000Y0364263D01*
X0021127Y0364204D01*
X0021252Y0364141D01*
X0021375Y0364076D01*
X0021497Y0364006D01*
X0021616Y0363933D01*
X0021734Y0363857D01*
X0021849Y0363778D01*
X0021962Y0363695D01*
X0022072Y0363609D01*
X0022180Y0363520D01*
X0022285Y0363428D01*
X0022388Y0363333D01*
X0022488Y0363235D01*
X0022585Y0363135D01*
X0022679Y0363031D01*
X0022771Y0362925D01*
X0022859Y0362817D01*
X0022944Y0362706D01*
X0023026Y0362592D01*
X0023105Y0362476D01*
X0023180Y0362359D01*
X0023252Y0362239D01*
X0023320Y0362117D01*
X0023385Y0361993D01*
X0023447Y0361867D01*
X0023505Y0361740D01*
X0023559Y0361611D01*
X0023610Y0361480D01*
X0023656Y0361348D01*
X0023699Y0361215D01*
X0023739Y0361081D01*
X0023774Y0360946D01*
X0023806Y0360809D01*
X0023833Y0360672D01*
X0023857Y0360534D01*
X0023877Y0360396D01*
X0023893Y0360257D01*
X0023905Y0360117D01*
X0023913Y0359978D01*
X0023917Y0359838D01*
X0023917Y0359698D01*
X0023913Y0359558D01*
X0023905Y0359419D01*
X0023893Y0359279D01*
X0023877Y0359140D01*
X0023857Y0359002D01*
X0023833Y0358864D01*
X0023806Y0358727D01*
X0023774Y0358590D01*
X0023739Y0358455D01*
X0023699Y0358321D01*
X0023656Y0358188D01*
X0023610Y0358056D01*
X0023559Y0357925D01*
X0023505Y0357796D01*
X0023447Y0357669D01*
X0023385Y0357543D01*
X0023320Y0357419D01*
X0023252Y0357297D01*
X0023180Y0357177D01*
X0023105Y0357060D01*
X0023026Y0356944D01*
X0022944Y0356830D01*
X0022859Y0356719D01*
X0022771Y0356611D01*
X0022679Y0356505D01*
X0022585Y0356401D01*
X0022488Y0356301D01*
X0022388Y0356203D01*
X0022285Y0356108D01*
X0022180Y0356016D01*
X0022072Y0355927D01*
X0021962Y0355841D01*
X0021849Y0355758D01*
X0021734Y0355679D01*
X0021616Y0355603D01*
X0021497Y0355530D01*
X0021375Y0355460D01*
X0021252Y0355395D01*
X0021127Y0355332D01*
X0021000Y0355273D01*
X0020871Y0355218D01*
X0020741Y0355167D01*
X0020610Y0355119D01*
X0020477Y0355075D01*
X0020343Y0355035D01*
X0020208Y0354998D01*
X0020072Y0354966D01*
X0019935Y0354937D01*
X0019797Y0354913D01*
X0019659Y0354892D01*
X0019520Y0354875D01*
X0019380Y0354862D01*
X0019241Y0354853D01*
X0019101Y0354848D01*
X0018961Y0354847D01*
X0018821Y0354850D01*
X0018681Y0354857D01*
X0018542Y0354868D01*
X0018403Y0354883D01*
X0018264Y0354902D01*
X0018126Y0354924D01*
X0017989Y0354951D01*
X0017852Y0354982D01*
X0017717Y0355016D01*
X0017582Y0355054D01*
X0017449Y0355097D01*
X0017317Y0355142D01*
X0017186Y0355192D01*
X0017056Y0355245D01*
X0016929Y0355302D01*
X0016803Y0355363D01*
X0016678Y0355427D01*
X0016556Y0355495D01*
X0016435Y0355566D01*
X0016317Y0355640D01*
X0016201Y0355718D01*
X0016087Y0355799D01*
X0015975Y0355884D01*
X0015866Y0355971D01*
X0015759Y0356061D01*
X0015655Y0356155D01*
X0015554Y0356251D01*
X0015455Y0356351D01*
X0015359Y0356453D01*
X0015267Y0356557D01*
X0015177Y0356665D01*
X0015090Y0356775D01*
X0015007Y0356887D01*
X0014926Y0357001D01*
X0014849Y0357118D01*
X0014776Y0357237D01*
X0014705Y0357358D01*
X0014639Y0357481D01*
X0014575Y0357606D01*
X0014516Y0357732D01*
X0014460Y0357861D01*
X0014407Y0357990D01*
X0014359Y0358121D01*
X0014314Y0358254D01*
X0014273Y0358388D01*
X0014235Y0358523D01*
X0014202Y0358658D01*
X0014172Y0358795D01*
X0014146Y0358933D01*
X0014125Y0359071D01*
X0014107Y0359210D01*
X0014093Y0359349D01*
X0014083Y0359488D01*
X0014077Y0359628D01*
X0014075Y0359768D01*
D12*
X0102671Y0361042D03*
X0102671Y0361380D03*
X0102671Y0361718D03*
X0102671Y0362055D03*
X0102671Y0362393D03*
X0102671Y0362730D03*
X0102671Y0363068D03*
X0102671Y0363406D03*
X0102671Y0363743D03*
X0102671Y0364081D03*
X0102671Y0364418D03*
X0106047Y0358342D03*
X0106047Y0358004D03*
X0106047Y0357666D03*
X0106722Y0356654D03*
X0107397Y0358679D03*
X0107397Y0359017D03*
X0113811Y0359017D03*
X0113811Y0364756D03*
X0118876Y0355641D03*
X0122589Y0354966D03*
X0123939Y0353953D03*
X0134067Y0358679D03*
X0134067Y0361380D03*
X0134067Y0362393D03*
X0134067Y0365094D03*
X0139131Y0365094D03*
X0152973Y0365094D03*
X0166139Y0362730D03*
X0172554Y0359692D03*
X0176943Y0365094D03*
X0177280Y0355303D03*
X0178630Y0353953D03*
X0204963Y0259425D03*
X0177618Y0243558D03*
X0177618Y0243220D03*
X0177618Y0240182D03*
X0177618Y0239845D03*
X0177618Y0239169D03*
X0177618Y0238832D03*
X0177618Y0238494D03*
X0177618Y0238157D03*
X0165464Y0238157D03*
X0165464Y0238494D03*
X0165464Y0238832D03*
X0165464Y0239169D03*
X0165464Y0239507D03*
X0165464Y0240857D03*
X0165464Y0241195D03*
X0165464Y0241533D03*
X0165464Y0242208D03*
X0165464Y0242545D03*
X0165464Y0242883D03*
X0159387Y0242883D03*
X0155674Y0243896D03*
X0138456Y0243896D03*
X0138456Y0241870D03*
X0138456Y0241533D03*
X0138456Y0240857D03*
X0138456Y0239169D03*
X0138456Y0238494D03*
X0138456Y0238157D03*
X0135080Y0240857D03*
X0135080Y0241195D03*
X0132380Y0242545D03*
X0132380Y0242883D03*
X0129004Y0239507D03*
X0129004Y0239169D03*
X0126303Y0239169D03*
X0126303Y0239507D03*
X0122927Y0242208D03*
X0122927Y0242545D03*
X0122927Y0242883D03*
X0125290Y0243896D03*
X0115837Y0256724D03*
X0112124Y0254699D03*
X0108748Y0255712D03*
X0108748Y0256724D03*
X0108748Y0257062D03*
X0108748Y0257400D03*
X0108748Y0257737D03*
X0101320Y0253011D03*
X0101320Y0252673D03*
X0101320Y0252336D03*
X0101320Y0251660D03*
X0101320Y0251323D03*
X0101320Y0250985D03*
X0101320Y0250648D03*
X0110773Y0243558D03*
X0110773Y0243220D03*
X0110773Y0242883D03*
X0110773Y0242545D03*
X0110773Y0242208D03*
X0110773Y0241870D03*
X0110773Y0241533D03*
X0110773Y0241195D03*
X0110773Y0240857D03*
X0110773Y0240520D03*
X0110773Y0240182D03*
X0110773Y0239845D03*
X0110773Y0239507D03*
X0110773Y0239169D03*
X0082415Y0145992D03*
X0087479Y0144979D03*
X0072962Y0145992D03*
X0061821Y0114933D03*
X0043591Y0144979D03*
X0031437Y0145992D03*
X0027386Y0081173D03*
X0027386Y0055178D03*
X0061821Y0021418D03*
X0095919Y0054841D03*
X0095919Y0081511D03*
X0173904Y0005889D03*
X0174917Y0008252D03*
X0174917Y0008590D03*
X0175930Y0011290D03*
X0175930Y0011628D03*
X0231296Y0020068D03*
X0231971Y0024794D03*
X0231971Y0025132D03*
X0231296Y0026482D03*
D13*
X0231633Y0025807D03*
X0231633Y0025470D03*
X0232308Y0024457D03*
X0232308Y0024119D03*
X0231971Y0023444D03*
X0231296Y0021756D03*
X0231296Y0021418D03*
X0230958Y0020743D03*
X0230958Y0020406D03*
X0226232Y0022094D03*
X0226232Y0022431D03*
X0226907Y0024457D03*
X0227245Y0025132D03*
X0227245Y0025470D03*
X0203950Y0077460D03*
X0203950Y0077797D03*
X0203613Y0079485D03*
X0201587Y0082861D03*
X0201587Y0083199D03*
X0201249Y0084887D03*
X0201249Y0085224D03*
X0199224Y0079148D03*
X0149597Y0068345D03*
X0149597Y0068007D03*
X0146558Y0065644D03*
X0145883Y0063956D03*
X0145546Y0068345D03*
X0145883Y0069695D03*
X0171879Y0013654D03*
X0171541Y0012303D03*
X0171203Y0011628D03*
X0170866Y0010953D03*
X0170528Y0009602D03*
X0170190Y0008927D03*
X0170190Y0008590D03*
X0169853Y0007914D03*
X0173566Y0006226D03*
X0174917Y0007239D03*
X0175255Y0007914D03*
X0175930Y0009940D03*
X0176267Y0010615D03*
X0176267Y0010953D03*
X0175592Y0011966D03*
X0096256Y0055516D03*
X0096256Y0080836D03*
X0071949Y0146330D03*
X0030425Y0146330D03*
X0027049Y0080498D03*
X0027049Y0055853D03*
X0138456Y0239507D03*
X0115499Y0257400D03*
X0115499Y0257737D03*
X0112799Y0257400D03*
X0112799Y0257062D03*
X0112461Y0257737D03*
X0126978Y0353278D03*
X0126978Y0355641D03*
X0129679Y0359354D03*
X0129679Y0359692D03*
X0129679Y0360030D03*
X0129679Y0360367D03*
X0129679Y0360705D03*
X0129679Y0361042D03*
X0129679Y0361380D03*
X0129679Y0361718D03*
X0129679Y0362055D03*
X0129679Y0362393D03*
X0129679Y0362730D03*
X0129679Y0363068D03*
X0129679Y0363406D03*
X0129679Y0364081D03*
X0129679Y0364418D03*
X0122927Y0364418D03*
X0122927Y0364081D03*
X0122927Y0363743D03*
X0122927Y0363406D03*
X0122927Y0363068D03*
X0122927Y0362730D03*
X0122927Y0362393D03*
X0122927Y0362055D03*
X0122927Y0361718D03*
X0122927Y0361380D03*
X0122927Y0361042D03*
X0122927Y0360705D03*
X0122927Y0360367D03*
X0122927Y0360030D03*
X0122927Y0359692D03*
X0122927Y0359354D03*
X0122927Y0359017D03*
X0122927Y0358679D03*
X0103008Y0357666D03*
X0103008Y0357329D03*
X0143520Y0359354D03*
X0143520Y0359692D03*
X0143520Y0360030D03*
X0143520Y0360367D03*
X0143520Y0360705D03*
X0143520Y0361042D03*
X0143520Y0361380D03*
X0143520Y0361718D03*
X0143520Y0362730D03*
X0143520Y0363068D03*
X0143520Y0363406D03*
X0143520Y0363743D03*
X0143520Y0364081D03*
X0143520Y0364418D03*
X0148584Y0364418D03*
X0148584Y0364081D03*
X0148584Y0363743D03*
X0148584Y0363406D03*
X0148584Y0363068D03*
X0148584Y0362730D03*
X0148584Y0362393D03*
X0148584Y0362055D03*
X0148584Y0360367D03*
X0148584Y0360030D03*
X0148584Y0359692D03*
X0148584Y0359354D03*
X0143858Y0355641D03*
X0143858Y0353278D03*
X0156349Y0353278D03*
X0158037Y0359354D03*
X0158712Y0361718D03*
X0159050Y0362055D03*
X0159387Y0362393D03*
X0159725Y0362730D03*
X0160062Y0363068D03*
X0160738Y0361042D03*
X0163776Y0360705D03*
X0163776Y0362730D03*
X0163776Y0363068D03*
X0169515Y0363068D03*
X0169515Y0363406D03*
X0169515Y0363743D03*
X0169515Y0362730D03*
X0169515Y0362393D03*
X0171879Y0361042D03*
X0172554Y0362730D03*
X0171203Y0365094D03*
X0175592Y0363406D03*
X0173904Y0355641D03*
X0173904Y0353278D03*
D14*
X0151116Y0359692D03*
X0151116Y0360030D03*
X0151116Y0360367D03*
X0151116Y0362730D03*
X0151116Y0363068D03*
X0151116Y0363406D03*
X0151116Y0363743D03*
X0151116Y0364081D03*
X0151116Y0364418D03*
X0151116Y0364756D03*
X0151116Y0365094D03*
X0140988Y0359692D03*
X0125459Y0359692D03*
X0125459Y0360030D03*
X0125459Y0360367D03*
X0125459Y0360705D03*
X0125459Y0361042D03*
X0125459Y0361380D03*
X0125459Y0361718D03*
X0125459Y0362055D03*
X0125459Y0362393D03*
X0125459Y0362730D03*
X0125459Y0363068D03*
X0125459Y0363406D03*
X0125459Y0363743D03*
X0125459Y0364081D03*
X0125459Y0359354D03*
X0125459Y0359017D03*
X0125459Y0358679D03*
X0115331Y0359692D03*
X0115331Y0364081D03*
X0109254Y0364081D03*
X0109254Y0364418D03*
X0109254Y0364756D03*
X0109254Y0365094D03*
X0109254Y0365431D03*
X0109254Y0365769D03*
X0109254Y0363743D03*
X0109254Y0363406D03*
X0109254Y0363068D03*
X0109254Y0362730D03*
X0109254Y0362393D03*
X0109254Y0362055D03*
X0109254Y0361718D03*
X0109254Y0361380D03*
X0109254Y0361042D03*
X0109254Y0360705D03*
X0109254Y0360367D03*
X0109254Y0360030D03*
X0109254Y0359692D03*
X0109254Y0359354D03*
X0109254Y0359017D03*
X0109254Y0358679D03*
X0109254Y0358342D03*
X0109254Y0358004D03*
X0109254Y0357666D03*
X0109254Y0357329D03*
X0109254Y0356991D03*
X0109254Y0356654D03*
X0109254Y0356316D03*
X0109254Y0355978D03*
X0109254Y0355641D03*
X0109254Y0355303D03*
X0109254Y0354966D03*
X0109254Y0354628D03*
X0108579Y0353953D03*
X0141663Y0259425D03*
X0145039Y0253348D03*
X0123433Y0240520D03*
X0114656Y0254361D03*
X0111280Y0243896D03*
X0181500Y0243896D03*
X0072793Y0144979D03*
X0072118Y0144979D03*
X0175423Y0006226D03*
X0201081Y0079148D03*
D15*
X0148078Y0066657D03*
X0173735Y0006564D03*
X0097438Y0057879D03*
X0097438Y0078472D03*
X0025867Y0078135D03*
X0025867Y0058217D03*
X0131198Y0238832D03*
X0102840Y0255712D03*
X0079883Y0251660D03*
X0079883Y0251323D03*
X0079883Y0250985D03*
X0079883Y0250648D03*
X0161582Y0238832D03*
D16*
X0137106Y0240520D03*
X0159050Y0363743D03*
X0159050Y0364081D03*
X0061821Y0113583D03*
X0097944Y0077460D03*
X0097944Y0058892D03*
X0025361Y0059229D03*
X0173229Y0006902D03*
X0201250Y0080498D03*
X0202600Y0081173D03*
X0203950Y0081848D03*
X0203950Y0082186D03*
D17*
X0205469Y0083199D03*
X0201418Y0083874D03*
X0175086Y0012303D03*
X0171034Y0007239D03*
X0096763Y0056529D03*
X0096763Y0079823D03*
X0091361Y0146330D03*
X0077182Y0146330D03*
X0030594Y0143291D03*
X0026542Y0079485D03*
X0026542Y0056866D03*
X0120395Y0243896D03*
X0109592Y0250648D03*
X0109592Y0250985D03*
X0109592Y0251323D03*
X0109592Y0251660D03*
X0086635Y0256724D03*
X0086635Y0257062D03*
X0086635Y0257400D03*
X0086635Y0257737D03*
X0135924Y0257737D03*
X0135924Y0257400D03*
X0135924Y0257062D03*
X0135924Y0256724D03*
X0135924Y0255712D03*
X0135924Y0254699D03*
X0135924Y0254361D03*
X0135924Y0254024D03*
X0135924Y0253686D03*
X0135924Y0253348D03*
X0135924Y0253011D03*
X0135924Y0252673D03*
X0135924Y0252336D03*
X0135924Y0251998D03*
X0135924Y0251660D03*
X0135924Y0251323D03*
X0135924Y0250985D03*
X0135924Y0250648D03*
X0135924Y0250310D03*
X0135924Y0249972D03*
X0135924Y0249635D03*
X0135924Y0249297D03*
X0135924Y0248960D03*
X0158881Y0248960D03*
X0158881Y0249297D03*
X0158881Y0249635D03*
X0158881Y0249972D03*
X0158881Y0250310D03*
X0158881Y0250648D03*
X0158881Y0250985D03*
X0158881Y0251323D03*
X0158881Y0251660D03*
X0158881Y0251998D03*
X0158881Y0252336D03*
X0158881Y0252673D03*
X0158881Y0253011D03*
X0158881Y0253348D03*
X0158881Y0253686D03*
X0158881Y0254024D03*
X0158881Y0254361D03*
X0158881Y0254699D03*
X0158881Y0255712D03*
X0158881Y0256724D03*
X0158881Y0257062D03*
X0158881Y0257400D03*
X0158881Y0257737D03*
X0178462Y0242208D03*
X0178462Y0241870D03*
X0178462Y0241533D03*
X0188590Y0255712D03*
X0206145Y0257737D03*
X0206145Y0250985D03*
X0139975Y0353278D03*
X0119044Y0353953D03*
X0119044Y0354290D03*
X0177111Y0359692D03*
X0177111Y0364756D03*
D18*
X0177955Y0354628D03*
X0177955Y0354290D03*
X0152635Y0353278D03*
X0152635Y0355641D03*
X0148922Y0361380D03*
X0148922Y0361718D03*
X0148246Y0364756D03*
X0148246Y0365094D03*
X0143183Y0362055D03*
X0135756Y0355641D03*
X0135756Y0353278D03*
X0133392Y0359692D03*
X0133392Y0360030D03*
X0133392Y0360367D03*
X0133392Y0360705D03*
X0133392Y0361042D03*
X0133392Y0362730D03*
X0133392Y0363068D03*
X0133392Y0363406D03*
X0133392Y0363743D03*
X0133392Y0364081D03*
X0129341Y0364756D03*
X0129341Y0365094D03*
X0123264Y0354628D03*
X0122589Y0365094D03*
X0114824Y0354628D03*
X0101996Y0257737D03*
X0101996Y0257400D03*
X0101996Y0257062D03*
X0101996Y0256724D03*
X0093556Y0251660D03*
X0093556Y0251323D03*
X0093556Y0250985D03*
X0093556Y0250648D03*
X0093556Y0250310D03*
X0093556Y0249972D03*
X0093556Y0249635D03*
X0093556Y0249297D03*
X0093556Y0248960D03*
X0079039Y0256724D03*
X0079039Y0257062D03*
X0079039Y0257400D03*
X0079039Y0257737D03*
X0142845Y0257400D03*
X0142845Y0257062D03*
X0142845Y0256724D03*
X0143520Y0259425D03*
X0142845Y0253011D03*
X0142845Y0252673D03*
X0142845Y0252336D03*
X0142845Y0251998D03*
X0142845Y0251660D03*
X0142845Y0251323D03*
X0142845Y0250985D03*
X0142845Y0250648D03*
X0142845Y0250310D03*
X0142845Y0249972D03*
X0142845Y0249635D03*
X0142845Y0249297D03*
X0142845Y0248960D03*
X0155336Y0242545D03*
X0177280Y0250648D03*
X0177280Y0250985D03*
X0177280Y0251323D03*
X0177280Y0251660D03*
X0177280Y0251998D03*
X0177280Y0252336D03*
X0177280Y0252673D03*
X0177280Y0253011D03*
X0177280Y0253348D03*
X0177280Y0253686D03*
X0177280Y0254024D03*
X0177280Y0254361D03*
X0177280Y0254699D03*
X0177280Y0255712D03*
X0177280Y0256724D03*
X0177280Y0257062D03*
X0177280Y0257400D03*
X0177280Y0257737D03*
X0177280Y0258075D03*
X0177280Y0258412D03*
X0177280Y0258750D03*
X0177280Y0259088D03*
X0177280Y0259425D03*
X0188758Y0254361D03*
X0188758Y0254024D03*
X0188758Y0253348D03*
X0188758Y0252673D03*
X0188758Y0252336D03*
X0188758Y0251998D03*
X0181331Y0239169D03*
X0200237Y0250648D03*
X0200237Y0250985D03*
X0200237Y0251323D03*
X0200237Y0251660D03*
X0200237Y0251998D03*
X0200237Y0252336D03*
X0200237Y0252673D03*
X0200237Y0253011D03*
X0200237Y0253348D03*
X0200237Y0253686D03*
X0200237Y0254024D03*
X0200237Y0254361D03*
X0200237Y0254699D03*
X0200237Y0255712D03*
X0200237Y0256724D03*
X0200237Y0257062D03*
X0200237Y0257400D03*
X0206313Y0257400D03*
X0206313Y0257062D03*
X0206313Y0256724D03*
X0206313Y0251660D03*
X0206313Y0251323D03*
X0206313Y0250648D03*
X0270795Y0335047D03*
X0270795Y0335385D03*
X0270795Y0335722D03*
X0270795Y0340449D03*
X0270795Y0340786D03*
X0085791Y0144304D03*
X0085791Y0143967D03*
X0072287Y0144642D03*
X0072287Y0142954D03*
X0030762Y0142954D03*
X0030762Y0144642D03*
X0026711Y0079823D03*
X0026711Y0056529D03*
X0096594Y0056191D03*
X0096594Y0080160D03*
X0170191Y0007577D03*
X0172216Y0013316D03*
X0203613Y0078810D03*
X0231296Y0022431D03*
D19*
X0231127Y0021081D03*
X0227076Y0024119D03*
X0227076Y0024794D03*
X0204119Y0078135D03*
X0204119Y0078472D03*
X0203444Y0079148D03*
X0203444Y0079823D03*
X0171034Y0011290D03*
X0171034Y0010615D03*
X0170359Y0009265D03*
X0175086Y0007577D03*
X0146052Y0064293D03*
X0143351Y0242545D03*
X0143351Y0242883D03*
X0137950Y0243220D03*
X0137950Y0243558D03*
X0155505Y0242883D03*
X0169684Y0353278D03*
X0169684Y0355641D03*
X0172385Y0360367D03*
X0165633Y0355641D03*
X0163607Y0361042D03*
X0163607Y0361380D03*
X0164282Y0365094D03*
X0148753Y0360705D03*
X0143351Y0362393D03*
D20*
X0135587Y0354628D03*
X0129510Y0358679D03*
X0129510Y0359017D03*
X0129510Y0363743D03*
X0122758Y0364756D03*
X0118031Y0364418D03*
X0118031Y0364081D03*
X0118031Y0363743D03*
X0118031Y0363406D03*
X0118031Y0363068D03*
X0118031Y0362393D03*
X0118031Y0362055D03*
X0118031Y0361718D03*
X0118031Y0361380D03*
X0118031Y0361042D03*
X0118031Y0360705D03*
X0118031Y0360367D03*
X0118031Y0360030D03*
X0118031Y0359692D03*
X0118031Y0359354D03*
X0118031Y0359017D03*
X0118031Y0358679D03*
X0152467Y0354628D03*
X0156518Y0355641D03*
X0161244Y0355641D03*
X0161244Y0353278D03*
X0163945Y0363406D03*
X0172047Y0362393D03*
X0172722Y0363743D03*
X0172047Y0360705D03*
X0172722Y0360030D03*
X0103177Y0259425D03*
X0159894Y0242208D03*
X0159894Y0241870D03*
X0159894Y0241533D03*
X0178124Y0242545D03*
X0178124Y0242883D03*
X0181500Y0239507D03*
X0201081Y0084549D03*
X0201081Y0084212D03*
X0201756Y0083536D03*
X0227413Y0025807D03*
X0231465Y0022094D03*
X0232140Y0023782D03*
X0176098Y0010278D03*
X0171372Y0011966D03*
X0170022Y0008252D03*
X0146390Y0065306D03*
X0145715Y0069357D03*
X0096425Y0080498D03*
X0096425Y0055853D03*
X0026880Y0056191D03*
X0026880Y0080160D03*
X0049837Y0142954D03*
X0049837Y0143291D03*
X0049837Y0146330D03*
D21*
X0034307Y0144979D03*
X0081571Y0146330D03*
X0086972Y0143629D03*
X0149766Y0069357D03*
X0174748Y0008927D03*
X0230114Y0027495D03*
X0205807Y0083536D03*
X0174073Y0239169D03*
X0174073Y0239507D03*
X0174073Y0239845D03*
X0174073Y0240182D03*
X0174073Y0240520D03*
X0174073Y0240857D03*
X0174073Y0241195D03*
X0174073Y0241533D03*
X0174073Y0241870D03*
X0174073Y0242208D03*
X0174073Y0242545D03*
X0174073Y0242883D03*
X0159219Y0242545D03*
X0155843Y0242208D03*
X0155843Y0241870D03*
X0155843Y0241533D03*
X0155843Y0241195D03*
X0155843Y0240857D03*
X0155843Y0240520D03*
X0155843Y0240182D03*
X0155843Y0239845D03*
X0155843Y0239507D03*
X0155843Y0239169D03*
X0155843Y0243220D03*
X0155843Y0243558D03*
X0143689Y0243558D03*
X0143689Y0243220D03*
X0143689Y0242208D03*
X0143689Y0241870D03*
X0143689Y0241533D03*
X0143689Y0241195D03*
X0143689Y0240857D03*
X0143689Y0240520D03*
X0143689Y0240182D03*
X0143689Y0239845D03*
X0143689Y0239507D03*
X0143689Y0239169D03*
X0138287Y0238832D03*
X0138287Y0241195D03*
X0138287Y0242208D03*
X0131535Y0242208D03*
X0131535Y0241870D03*
X0131535Y0241533D03*
X0122758Y0241870D03*
X0119382Y0241870D03*
X0119382Y0241533D03*
X0119382Y0241195D03*
X0119382Y0240857D03*
X0119382Y0240520D03*
X0119382Y0240182D03*
X0119382Y0239845D03*
X0119382Y0239507D03*
X0119382Y0239169D03*
X0119382Y0242208D03*
X0119382Y0242545D03*
X0119382Y0242883D03*
X0107228Y0242883D03*
X0107228Y0242545D03*
X0107228Y0242208D03*
X0107228Y0241870D03*
X0107228Y0241533D03*
X0107228Y0241195D03*
X0107228Y0240857D03*
X0107228Y0240520D03*
X0107228Y0240182D03*
X0107228Y0239845D03*
X0107228Y0239507D03*
X0107228Y0239169D03*
X0101152Y0251998D03*
X0112630Y0258075D03*
X0115331Y0258075D03*
X0177449Y0354966D03*
X0175423Y0361042D03*
X0175423Y0361380D03*
X0175423Y0361718D03*
X0175423Y0362055D03*
X0175423Y0362393D03*
X0175423Y0362730D03*
X0175423Y0363068D03*
X0172722Y0363068D03*
X0172722Y0363406D03*
X0178799Y0363068D03*
X0178799Y0362730D03*
X0178799Y0362393D03*
X0178799Y0362055D03*
X0158543Y0361380D03*
X0113980Y0358679D03*
X0113980Y0365094D03*
D22*
X0117187Y0362730D03*
X0164789Y0362393D03*
X0170866Y0361718D03*
X0170528Y0364756D03*
X0176943Y0360705D03*
X0176943Y0360367D03*
X0124952Y0243558D03*
X0124952Y0243220D03*
X0131029Y0238494D03*
X0131029Y0238157D03*
X0107735Y0243896D03*
X0161413Y0238494D03*
X0161413Y0238157D03*
X0061821Y0114258D03*
X0026036Y0078472D03*
X0026036Y0057879D03*
X0061821Y0022094D03*
X0097269Y0057541D03*
X0097269Y0078810D03*
X0172554Y0012978D03*
X0174917Y0009265D03*
X0229945Y0027158D03*
D23*
X0174410Y0009602D03*
X0173060Y0012641D03*
X0193316Y0259425D03*
X0171034Y0364081D03*
X0158881Y0364418D03*
X0158881Y0364756D03*
X0158881Y0363406D03*
D24*
X0159050Y0365094D03*
X0159387Y0360705D03*
X0159387Y0359692D03*
X0165127Y0360030D03*
X0165127Y0360367D03*
X0165464Y0364081D03*
X0165464Y0364418D03*
X0165464Y0364756D03*
X0170866Y0362055D03*
X0176942Y0363743D03*
X0258641Y0339436D03*
X0258641Y0339098D03*
X0258641Y0338761D03*
X0167152Y0243558D03*
X0167152Y0243220D03*
X0167152Y0240182D03*
X0085791Y0255712D03*
X0061821Y0113920D03*
X0097607Y0078135D03*
X0097607Y0058217D03*
X0061821Y0022431D03*
X0025698Y0058554D03*
X0025698Y0077797D03*
X0171879Y0009940D03*
X0227920Y0023444D03*
D25*
X0227413Y0023782D03*
X0171372Y0010278D03*
X0097100Y0057204D03*
X0097100Y0079148D03*
X0081571Y0143967D03*
X0081571Y0144304D03*
X0026205Y0078810D03*
X0026205Y0057541D03*
X0118031Y0365094D03*
D26*
X0118031Y0354966D03*
X0118031Y0354628D03*
X0118031Y0353615D03*
X0118031Y0353278D03*
X0120057Y0353278D03*
X0120057Y0353615D03*
X0120057Y0354628D03*
X0120057Y0354966D03*
X0124108Y0353615D03*
X0134236Y0359017D03*
X0134236Y0359354D03*
X0134236Y0361718D03*
X0134236Y0362055D03*
X0134236Y0364418D03*
X0134236Y0364756D03*
X0138963Y0355641D03*
X0138963Y0355303D03*
X0138963Y0354966D03*
X0138963Y0354628D03*
X0138963Y0354290D03*
X0138963Y0353953D03*
X0138963Y0353615D03*
X0134911Y0354290D03*
X0151791Y0354290D03*
X0155843Y0354290D03*
X0155843Y0353953D03*
X0155843Y0353615D03*
X0155843Y0354628D03*
X0155843Y0354966D03*
X0155843Y0355303D03*
X0157868Y0354966D03*
X0157868Y0354628D03*
X0157868Y0354290D03*
X0157868Y0353953D03*
X0161244Y0353615D03*
X0161244Y0361380D03*
X0153142Y0361380D03*
X0153142Y0361718D03*
X0153142Y0362055D03*
X0153142Y0362393D03*
X0153142Y0362730D03*
X0153142Y0363068D03*
X0153142Y0363406D03*
X0153142Y0363743D03*
X0153142Y0364081D03*
X0153142Y0364418D03*
X0153142Y0364756D03*
X0153142Y0361042D03*
X0153142Y0360705D03*
X0153142Y0360367D03*
X0153142Y0360030D03*
X0153142Y0359692D03*
X0153142Y0359354D03*
X0172722Y0355303D03*
X0172722Y0354966D03*
X0172722Y0354628D03*
X0172722Y0354290D03*
X0172722Y0353953D03*
X0174748Y0353953D03*
X0174748Y0354290D03*
X0174748Y0354628D03*
X0174748Y0354966D03*
X0174748Y0355303D03*
X0174748Y0353615D03*
X0178799Y0353615D03*
X0176774Y0359354D03*
X0107904Y0361042D03*
X0107904Y0361380D03*
X0107904Y0361718D03*
X0107904Y0362055D03*
X0107904Y0362393D03*
X0107904Y0362730D03*
X0107904Y0363068D03*
X0107904Y0363406D03*
X0107904Y0363743D03*
X0107904Y0364081D03*
X0107904Y0364418D03*
X0112630Y0258412D03*
X0115331Y0258412D03*
X0116006Y0255712D03*
X0118031Y0243896D03*
X0163270Y0241870D03*
X0087648Y0145992D03*
X0087648Y0145655D03*
X0087648Y0145317D03*
X0084947Y0145317D03*
X0084947Y0145655D03*
X0084947Y0145992D03*
X0084947Y0144979D03*
X0084947Y0144642D03*
X0084947Y0143629D03*
X0084947Y0143291D03*
X0084947Y0142954D03*
X0082921Y0142954D03*
X0082921Y0143291D03*
X0082921Y0143629D03*
X0082921Y0144642D03*
X0082921Y0144979D03*
X0082921Y0145317D03*
X0080896Y0145655D03*
X0080896Y0145992D03*
X0080220Y0145317D03*
X0080220Y0144979D03*
X0080220Y0144642D03*
X0080220Y0143629D03*
X0080220Y0143291D03*
X0080220Y0142954D03*
X0073469Y0143629D03*
X0073469Y0143967D03*
X0073469Y0144304D03*
X0070768Y0143629D03*
X0070768Y0145317D03*
X0070768Y0145655D03*
X0070768Y0145992D03*
X0054563Y0145992D03*
X0054563Y0145655D03*
X0054563Y0145317D03*
X0054563Y0144979D03*
X0054563Y0144642D03*
X0054563Y0144304D03*
X0054563Y0143967D03*
X0054563Y0143629D03*
X0054563Y0143291D03*
X0054563Y0142954D03*
X0031606Y0145655D03*
X0029581Y0144979D03*
X0027555Y0081511D03*
X0027555Y0054841D03*
X0095750Y0054503D03*
X0095750Y0081848D03*
X0145715Y0071045D03*
X0145715Y0068007D03*
X0146390Y0063618D03*
X0171372Y0013991D03*
X0231465Y0026145D03*
X0269951Y0341124D03*
D27*
X0200237Y0257737D03*
X0180994Y0240520D03*
X0180994Y0240182D03*
X0180994Y0239845D03*
X0174917Y0243896D03*
X0166814Y0243896D03*
X0162763Y0240520D03*
X0162763Y0240182D03*
X0162763Y0239845D03*
X0161075Y0240857D03*
X0161075Y0241195D03*
X0161075Y0243220D03*
X0161075Y0243558D03*
X0137444Y0242883D03*
X0124615Y0238832D03*
X0124615Y0238494D03*
X0124615Y0238157D03*
X0106384Y0259425D03*
X0143520Y0358679D03*
X0148584Y0358679D03*
X0148584Y0359017D03*
X0143520Y0365094D03*
X0170528Y0361380D03*
X0086129Y0146330D03*
X0061821Y0114595D03*
X0044604Y0144642D03*
X0035151Y0144642D03*
X0026373Y0079148D03*
X0026373Y0057204D03*
X0061821Y0021756D03*
X0096932Y0056866D03*
X0096932Y0079485D03*
X0199899Y0079823D03*
X0205301Y0082861D03*
X0228257Y0026482D03*
D28*
X0226401Y0021756D03*
X0199393Y0078810D03*
X0200743Y0085562D03*
X0091361Y0142954D03*
X0091361Y0143291D03*
X0091361Y0143629D03*
X0091361Y0143967D03*
X0091361Y0144304D03*
X0091361Y0144642D03*
X0091361Y0144979D03*
X0091361Y0145317D03*
X0091361Y0145655D03*
X0091361Y0145992D03*
X0082584Y0145655D03*
X0077182Y0145655D03*
X0077182Y0145992D03*
X0077182Y0145317D03*
X0077182Y0144979D03*
X0077182Y0144642D03*
X0077182Y0144304D03*
X0077182Y0143967D03*
X0077182Y0143629D03*
X0077182Y0143291D03*
X0077182Y0142954D03*
X0073131Y0145655D03*
X0071105Y0144979D03*
X0050849Y0145655D03*
X0050849Y0145992D03*
X0048824Y0145992D03*
X0048824Y0145655D03*
X0048149Y0145317D03*
X0048149Y0144979D03*
X0048149Y0144642D03*
X0048149Y0144304D03*
X0048149Y0143967D03*
X0048824Y0143629D03*
X0050849Y0143629D03*
X0043422Y0143629D03*
X0043422Y0143967D03*
X0043422Y0144304D03*
X0043422Y0145317D03*
X0043422Y0145655D03*
X0043422Y0145992D03*
X0038696Y0145992D03*
X0038696Y0145655D03*
X0038696Y0145317D03*
X0038696Y0144979D03*
X0038696Y0144642D03*
X0038696Y0144304D03*
X0038696Y0143967D03*
X0038696Y0143629D03*
X0038696Y0146330D03*
X0033969Y0145992D03*
X0033969Y0145655D03*
X0033969Y0145317D03*
X0033969Y0144304D03*
X0033969Y0143967D03*
X0033969Y0143629D03*
X0031944Y0143629D03*
X0031944Y0143967D03*
X0031944Y0144304D03*
X0029243Y0143629D03*
X0029243Y0145317D03*
X0029243Y0145655D03*
X0029243Y0145992D03*
X0112968Y0255712D03*
X0114993Y0254699D03*
X0139975Y0259425D03*
X0177786Y0243896D03*
X0199393Y0259425D03*
X0254759Y0335047D03*
X0254759Y0335385D03*
X0254759Y0335722D03*
X0254759Y0336060D03*
X0254759Y0336398D03*
X0254759Y0336735D03*
X0254759Y0337073D03*
X0254759Y0337410D03*
X0254759Y0337748D03*
X0254759Y0338086D03*
X0254759Y0338423D03*
X0254759Y0338761D03*
X0254759Y0339098D03*
X0254759Y0339436D03*
X0254759Y0339774D03*
X0254759Y0340111D03*
X0254759Y0340449D03*
X0254759Y0340786D03*
X0254759Y0341124D03*
X0271639Y0340111D03*
X0271639Y0336060D03*
X0169684Y0353615D03*
X0166983Y0363406D03*
X0157531Y0355303D03*
X0157531Y0353615D03*
X0156855Y0363068D03*
X0139300Y0363068D03*
X0139300Y0363406D03*
X0139300Y0363743D03*
X0139300Y0364081D03*
X0139300Y0364418D03*
X0139300Y0364756D03*
X0139300Y0362730D03*
X0139300Y0362393D03*
X0139300Y0362055D03*
X0139300Y0361718D03*
X0139300Y0361380D03*
X0139300Y0361042D03*
X0139300Y0360705D03*
X0139300Y0360367D03*
X0139300Y0360030D03*
X0139300Y0359692D03*
X0139300Y0359354D03*
X0139300Y0359017D03*
X0139300Y0358679D03*
X0132548Y0355641D03*
X0132548Y0355303D03*
X0132548Y0354966D03*
X0132548Y0354290D03*
X0132548Y0353953D03*
X0132548Y0353615D03*
X0132548Y0353278D03*
X0130523Y0353278D03*
X0130523Y0353615D03*
X0130523Y0353953D03*
X0130523Y0354290D03*
X0130523Y0354966D03*
X0130523Y0355303D03*
X0130523Y0355641D03*
X0128497Y0354966D03*
X0128497Y0354628D03*
X0128497Y0354290D03*
X0126471Y0354290D03*
X0126471Y0353953D03*
X0126471Y0353615D03*
X0126471Y0354628D03*
X0126471Y0354966D03*
X0126471Y0355303D03*
X0122420Y0355303D03*
X0118369Y0355303D03*
X0115668Y0354290D03*
X0113643Y0359354D03*
X0113643Y0359692D03*
X0113643Y0360030D03*
X0113643Y0360367D03*
X0113643Y0360705D03*
X0113643Y0361042D03*
X0113643Y0361380D03*
X0113643Y0361718D03*
X0113643Y0362055D03*
X0113643Y0362393D03*
X0113643Y0362730D03*
X0113643Y0363068D03*
X0113643Y0363406D03*
X0113643Y0363743D03*
X0113643Y0364081D03*
X0113643Y0364418D03*
X0108241Y0358004D03*
X0108241Y0357666D03*
X0108241Y0357329D03*
X0108241Y0356991D03*
X0106891Y0356991D03*
X0106891Y0356316D03*
D29*
X0061821Y0022769D03*
D30*
X0146727Y0065981D03*
X0226401Y0022769D03*
D31*
X0231127Y0022769D03*
D32*
X0061821Y0023106D03*
D33*
X0145546Y0069020D03*
X0146221Y0064969D03*
X0149934Y0069020D03*
X0226569Y0023106D03*
D34*
X0230621Y0023106D03*
D35*
X0098620Y0060242D03*
X0098620Y0076109D03*
X0061821Y0112908D03*
X0024685Y0060580D03*
X0061821Y0023444D03*
X0148584Y0259425D03*
X0259654Y0336735D03*
X0259654Y0337073D03*
X0259654Y0337410D03*
D36*
X0259992Y0336060D03*
X0202600Y0259088D03*
X0202600Y0258750D03*
X0202600Y0258075D03*
X0202600Y0250310D03*
X0202600Y0249972D03*
X0202600Y0249635D03*
X0202600Y0249297D03*
X0202600Y0248960D03*
X0105709Y0248960D03*
X0105709Y0249635D03*
X0082753Y0258075D03*
X0082753Y0258412D03*
X0082753Y0258750D03*
X0082753Y0259088D03*
X0082753Y0259425D03*
X0061821Y0112570D03*
X0024348Y0075096D03*
X0024348Y0061255D03*
X0061821Y0023782D03*
X0098957Y0060917D03*
D37*
X0099295Y0061593D03*
X0099295Y0074759D03*
X0061821Y0112232D03*
X0024010Y0061930D03*
X0061821Y0024119D03*
X0158374Y0259425D03*
D38*
X0145883Y0254699D03*
X0145883Y0254361D03*
X0145883Y0254024D03*
X0145883Y0253686D03*
X0061821Y0111895D03*
X0023673Y0073746D03*
X0023673Y0062605D03*
X0061821Y0024457D03*
X0099632Y0062268D03*
D39*
X0099970Y0062943D03*
X0099970Y0073408D03*
X0061821Y0111557D03*
X0023335Y0063281D03*
X0061821Y0024794D03*
D40*
X0061821Y0025132D03*
X0022997Y0063956D03*
X0022997Y0072396D03*
X0061821Y0111220D03*
X0100308Y0063618D03*
D41*
X0100645Y0064293D03*
X0100645Y0072058D03*
X0061821Y0110882D03*
X0061821Y0025470D03*
X0146559Y0258750D03*
D42*
X0061821Y0110544D03*
X0022322Y0071045D03*
X0022322Y0065306D03*
X0061821Y0025807D03*
D43*
X0061821Y0026145D03*
X0101320Y0065644D03*
X0101320Y0070708D03*
X0061821Y0110207D03*
D44*
X0072118Y0143291D03*
X0054563Y0146330D03*
X0131535Y0240857D03*
X0131535Y0241195D03*
X0131535Y0243896D03*
X0137612Y0242545D03*
X0143014Y0253348D03*
X0143014Y0255712D03*
X0143014Y0257737D03*
X0161244Y0243896D03*
X0188927Y0253011D03*
X0188927Y0253686D03*
X0188927Y0254699D03*
X0190278Y0256724D03*
X0190278Y0257062D03*
X0190278Y0257400D03*
X0190278Y0257737D03*
X0196354Y0257737D03*
X0196354Y0257400D03*
X0196354Y0257062D03*
X0196354Y0256724D03*
X0196354Y0251660D03*
X0196354Y0251323D03*
X0196354Y0250985D03*
X0196354Y0250648D03*
X0190278Y0250648D03*
X0190278Y0250985D03*
X0190278Y0251323D03*
X0190278Y0251660D03*
X0207833Y0251998D03*
X0207833Y0252336D03*
X0207833Y0252673D03*
X0207833Y0253011D03*
X0207833Y0253348D03*
X0207833Y0253686D03*
X0207833Y0254024D03*
X0207833Y0254361D03*
X0207833Y0254699D03*
X0207833Y0255712D03*
X0131535Y0354628D03*
X0143689Y0359017D03*
X0143689Y0364756D03*
X0165970Y0359354D03*
X0118031Y0364756D03*
X0199730Y0079485D03*
X0228089Y0026145D03*
D45*
X0061821Y0026482D03*
X0021647Y0066657D03*
X0021647Y0066994D03*
X0021647Y0069357D03*
X0021647Y0069695D03*
X0061821Y0109869D03*
D46*
X0061821Y0109532D03*
X0101996Y0068345D03*
X0101996Y0068007D03*
X0061821Y0026820D03*
D47*
X0201756Y0080836D03*
X0203106Y0081511D03*
X0230114Y0026820D03*
X0165295Y0359692D03*
X0164620Y0361718D03*
X0164620Y0362055D03*
X0170697Y0364418D03*
X0176774Y0364081D03*
D48*
X0061821Y0109194D03*
X0061821Y0027158D03*
D49*
X0061821Y0027495D03*
X0061821Y0108856D03*
X0146221Y0357666D03*
X0146221Y0358004D03*
X0146221Y0358342D03*
X0146221Y0365431D03*
X0146221Y0365769D03*
X0146221Y0366106D03*
D50*
X0061821Y0108519D03*
X0061821Y0027833D03*
D51*
X0095581Y0054165D03*
X0095581Y0082186D03*
X0149597Y0069695D03*
X0198886Y0080836D03*
X0200237Y0081511D03*
X0205638Y0083874D03*
X0229608Y0027833D03*
X0159050Y0239169D03*
X0159050Y0239507D03*
X0159050Y0239845D03*
X0159050Y0240182D03*
X0159050Y0240520D03*
X0163101Y0241533D03*
X0163101Y0242208D03*
X0163101Y0242545D03*
X0163101Y0242883D03*
X0169178Y0243896D03*
X0172554Y0243896D03*
X0182344Y0243896D03*
X0163101Y0259425D03*
X0144195Y0243896D03*
X0143182Y0243896D03*
X0137106Y0243896D03*
X0133730Y0243896D03*
X0129341Y0243896D03*
X0126640Y0243896D03*
X0123940Y0243896D03*
X0111786Y0254361D03*
X0110436Y0243896D03*
X0105034Y0243896D03*
X0101658Y0253348D03*
X0113812Y0353278D03*
X0113812Y0353615D03*
X0113812Y0353953D03*
X0113812Y0354290D03*
X0113812Y0354966D03*
X0113812Y0355303D03*
X0113812Y0355641D03*
X0115837Y0355641D03*
X0115837Y0355303D03*
X0115837Y0354966D03*
X0115837Y0353953D03*
X0115837Y0353615D03*
X0115837Y0353278D03*
X0119551Y0355303D03*
X0122251Y0355641D03*
X0122251Y0354290D03*
X0122251Y0353953D03*
X0122251Y0353615D03*
X0122251Y0353278D03*
X0124277Y0353278D03*
X0124277Y0354966D03*
X0124277Y0355303D03*
X0124277Y0355641D03*
X0127991Y0355303D03*
X0128328Y0353953D03*
X0127991Y0353615D03*
X0120564Y0358679D03*
X0120564Y0359017D03*
X0120564Y0359354D03*
X0120564Y0359692D03*
X0120564Y0360030D03*
X0120564Y0360367D03*
X0120564Y0360705D03*
X0120564Y0361042D03*
X0120564Y0362730D03*
X0120564Y0363068D03*
X0120564Y0363406D03*
X0120564Y0363743D03*
X0115499Y0363743D03*
X0115499Y0363406D03*
X0115499Y0363068D03*
X0115499Y0361042D03*
X0115499Y0360705D03*
X0115499Y0360367D03*
X0115499Y0360030D03*
X0109085Y0366106D03*
X0107397Y0359354D03*
X0107397Y0358342D03*
X0103008Y0358342D03*
X0103008Y0358004D03*
X0103008Y0356991D03*
X0103008Y0356654D03*
X0126640Y0365094D03*
X0134743Y0355303D03*
X0134743Y0354966D03*
X0134743Y0353953D03*
X0134743Y0353615D03*
X0141157Y0360030D03*
X0141157Y0360367D03*
X0141157Y0360705D03*
X0141157Y0361042D03*
X0141157Y0362730D03*
X0141157Y0363068D03*
X0141157Y0363406D03*
X0141157Y0363743D03*
X0143182Y0355303D03*
X0143182Y0354966D03*
X0143182Y0354628D03*
X0143182Y0354290D03*
X0143182Y0353953D03*
X0143182Y0353615D03*
X0144871Y0353615D03*
X0145208Y0353953D03*
X0145208Y0354290D03*
X0145208Y0354628D03*
X0145208Y0354966D03*
X0144871Y0355303D03*
X0150947Y0360705D03*
X0151623Y0355303D03*
X0151623Y0354966D03*
X0151623Y0353953D03*
X0151623Y0353615D03*
X0161413Y0353953D03*
X0161413Y0354290D03*
X0161413Y0354628D03*
X0161413Y0354966D03*
X0161413Y0355303D03*
X0165464Y0355303D03*
X0165464Y0354966D03*
X0165464Y0354628D03*
X0165464Y0354290D03*
X0165464Y0353953D03*
X0165464Y0353615D03*
X0165464Y0353278D03*
X0169853Y0353953D03*
X0169853Y0354290D03*
X0169853Y0354628D03*
X0169853Y0354966D03*
X0169853Y0355303D03*
X0172891Y0353615D03*
X0176942Y0353615D03*
X0176942Y0353278D03*
X0176942Y0353953D03*
X0176942Y0355641D03*
X0178968Y0355641D03*
X0178968Y0355303D03*
X0178968Y0354966D03*
X0178968Y0353278D03*
X0172216Y0359354D03*
X0166139Y0361380D03*
X0271808Y0339774D03*
X0271808Y0339436D03*
X0271808Y0339098D03*
X0271808Y0338761D03*
X0271808Y0338423D03*
X0271808Y0338086D03*
X0271808Y0337748D03*
X0271808Y0337410D03*
X0271808Y0337073D03*
X0271808Y0336735D03*
X0271808Y0336398D03*
X0027724Y0081848D03*
X0027724Y0054503D03*
D52*
X0061821Y0028170D03*
X0061821Y0108181D03*
X0262355Y0334710D03*
X0262355Y0341462D03*
X0262355Y0341799D03*
D53*
X0061821Y0107844D03*
X0061821Y0028508D03*
D54*
X0061821Y0028845D03*
X0061821Y0107506D03*
D55*
X0061821Y0107168D03*
X0061821Y0029183D03*
D56*
X0061821Y0029521D03*
X0061821Y0106831D03*
D57*
X0061821Y0106493D03*
X0061821Y0029858D03*
D58*
X0061821Y0030196D03*
X0061821Y0106156D03*
D59*
X0061821Y0105818D03*
X0061821Y0030533D03*
D60*
X0061821Y0030871D03*
X0061821Y0105480D03*
X0123939Y0357666D03*
X0123939Y0358004D03*
X0123939Y0358342D03*
X0123939Y0365431D03*
X0123939Y0366106D03*
D61*
X0061821Y0105143D03*
X0061821Y0031209D03*
D62*
X0061821Y0031546D03*
X0061821Y0104805D03*
D63*
X0061821Y0104468D03*
X0061821Y0031884D03*
D64*
X0061821Y0032221D03*
X0061821Y0104130D03*
D65*
X0061821Y0103792D03*
X0061821Y0032559D03*
D66*
X0061821Y0032897D03*
X0061821Y0103455D03*
D67*
X0061821Y0033234D03*
D68*
X0061821Y0033572D03*
D69*
X0061821Y0033909D03*
X0061821Y0102442D03*
D70*
X0061821Y0102104D03*
X0061821Y0034247D03*
D71*
X0061821Y0034585D03*
D72*
X0095412Y0053828D03*
X0095412Y0082524D03*
X0044773Y0144979D03*
X0031269Y0144979D03*
X0027893Y0082186D03*
X0027893Y0054165D03*
X0117019Y0243896D03*
X0123095Y0243896D03*
X0100814Y0253348D03*
X0171710Y0243896D03*
X0206145Y0259425D03*
X0146052Y0359692D03*
X0146052Y0360030D03*
X0146052Y0360367D03*
X0146052Y0360705D03*
X0146052Y0361042D03*
X0146052Y0361380D03*
X0146052Y0361718D03*
X0146052Y0362055D03*
X0146052Y0362393D03*
X0146052Y0362730D03*
X0146052Y0363068D03*
X0146052Y0363406D03*
X0146052Y0363743D03*
X0146052Y0364081D03*
X0127147Y0364081D03*
X0127147Y0363743D03*
X0127147Y0363406D03*
X0127147Y0363068D03*
X0127147Y0362730D03*
X0127147Y0362393D03*
X0127147Y0362055D03*
X0127147Y0361718D03*
X0127147Y0361380D03*
X0127147Y0361042D03*
X0127147Y0360705D03*
X0127147Y0360367D03*
X0127147Y0360030D03*
X0127147Y0359692D03*
X0127147Y0359354D03*
X0127147Y0359017D03*
X0127147Y0358679D03*
X0126471Y0364756D03*
X0108916Y0354290D03*
X0106891Y0357329D03*
X0104190Y0355641D03*
X0101489Y0355641D03*
X0101489Y0355978D03*
X0101489Y0356316D03*
X0101489Y0356654D03*
X0101489Y0356991D03*
X0101489Y0357329D03*
X0101489Y0357666D03*
X0101489Y0358004D03*
X0101489Y0358342D03*
X0101489Y0358679D03*
X0101489Y0359017D03*
X0101489Y0359354D03*
X0101489Y0359692D03*
X0101489Y0360030D03*
X0101489Y0360367D03*
X0101489Y0360705D03*
X0101489Y0361042D03*
X0101489Y0361380D03*
X0101489Y0361718D03*
X0101489Y0362055D03*
X0101489Y0362393D03*
X0101489Y0362730D03*
X0101489Y0363068D03*
X0101489Y0363406D03*
X0101489Y0363743D03*
X0101489Y0364081D03*
X0101489Y0364418D03*
X0101489Y0364756D03*
X0101489Y0365094D03*
X0101489Y0365431D03*
X0101489Y0365769D03*
X0101489Y0366106D03*
X0101489Y0355303D03*
X0101489Y0354966D03*
X0101489Y0354628D03*
X0101489Y0354290D03*
X0101489Y0353953D03*
D73*
X0123771Y0354290D03*
X0152804Y0358679D03*
X0152804Y0359017D03*
X0158206Y0361042D03*
X0169684Y0361042D03*
X0169684Y0360705D03*
X0169684Y0360367D03*
X0169684Y0360030D03*
X0169684Y0359692D03*
X0178462Y0361042D03*
X0178462Y0361380D03*
X0178462Y0361718D03*
X0178462Y0363406D03*
X0115668Y0257062D03*
X0112968Y0256724D03*
X0123095Y0241533D03*
X0127147Y0241533D03*
X0127147Y0241870D03*
X0127147Y0242208D03*
X0127147Y0242545D03*
X0127147Y0242883D03*
X0127147Y0240520D03*
X0127147Y0240182D03*
X0127147Y0239845D03*
X0133223Y0240182D03*
X0133223Y0240520D03*
X0133223Y0239507D03*
X0133223Y0239169D03*
X0135924Y0241533D03*
X0135924Y0241870D03*
X0135924Y0242208D03*
X0163607Y0239507D03*
X0163607Y0239169D03*
X0165633Y0241870D03*
X0169684Y0241870D03*
X0169684Y0241533D03*
X0169684Y0241195D03*
X0169684Y0240857D03*
X0169684Y0242208D03*
X0169684Y0242545D03*
X0169684Y0242883D03*
X0177786Y0240520D03*
X0177786Y0239507D03*
X0181838Y0238832D03*
X0181838Y0238494D03*
X0181838Y0238157D03*
X0181838Y0241533D03*
X0181838Y0241870D03*
X0181838Y0242208D03*
X0181838Y0242545D03*
X0181838Y0242883D03*
X0181838Y0243220D03*
X0181838Y0243558D03*
X0087310Y0144642D03*
X0087310Y0143291D03*
X0087310Y0142954D03*
X0096088Y0081173D03*
X0096088Y0055178D03*
X0146052Y0070708D03*
X0027218Y0080836D03*
X0027218Y0055516D03*
D74*
X0025530Y0058892D03*
X0025530Y0077460D03*
X0097776Y0077797D03*
X0097776Y0058554D03*
X0147740Y0066994D03*
X0143689Y0238157D03*
X0143689Y0238494D03*
X0143689Y0238832D03*
X0155843Y0238832D03*
X0155843Y0238494D03*
X0155843Y0238157D03*
X0167321Y0239845D03*
X0167321Y0240520D03*
X0174073Y0238832D03*
X0174073Y0238494D03*
X0174073Y0238157D03*
X0174073Y0243220D03*
X0174073Y0243558D03*
X0131535Y0243558D03*
X0131535Y0243220D03*
X0125459Y0241195D03*
X0125459Y0240857D03*
X0119382Y0238832D03*
X0119382Y0238494D03*
X0119382Y0238157D03*
X0119382Y0243220D03*
X0119382Y0243558D03*
X0107228Y0243558D03*
X0107228Y0243220D03*
X0107228Y0238832D03*
X0107228Y0238494D03*
X0107228Y0238157D03*
X0159219Y0360030D03*
X0159219Y0360367D03*
X0165295Y0363743D03*
D75*
X0193316Y0259088D03*
X0193316Y0258412D03*
X0193316Y0249972D03*
X0193316Y0249635D03*
X0193316Y0249297D03*
X0193316Y0248960D03*
X0179812Y0240857D03*
X0137275Y0240182D03*
X0112968Y0238832D03*
X0112968Y0238494D03*
X0112968Y0238157D03*
X0201418Y0080160D03*
X0098113Y0059229D03*
X0025192Y0059567D03*
D76*
X0025023Y0059905D03*
X0025023Y0076447D03*
X0061821Y0113245D03*
X0098282Y0059567D03*
X0203613Y0082524D03*
X0179643Y0241195D03*
X0193485Y0258075D03*
X0193485Y0258750D03*
X0108072Y0253348D03*
X0108072Y0253011D03*
X0108072Y0252673D03*
X0108072Y0252336D03*
X0108072Y0251998D03*
X0105034Y0253686D03*
X0105034Y0254024D03*
X0105034Y0254361D03*
X0105034Y0254699D03*
X0105034Y0258075D03*
X0105034Y0258412D03*
X0105034Y0258750D03*
X0105034Y0259088D03*
X0082077Y0253348D03*
X0082077Y0253011D03*
X0082077Y0252673D03*
X0082077Y0252336D03*
X0082077Y0251998D03*
X0105034Y0360367D03*
D77*
X0105203Y0360705D03*
X0105203Y0364756D03*
X0105203Y0365094D03*
X0098451Y0076447D03*
X0098451Y0059905D03*
X0024854Y0060242D03*
X0024854Y0076109D03*
D78*
X0024517Y0060917D03*
X0098788Y0060580D03*
X0104865Y0353615D03*
D79*
X0105878Y0250310D03*
X0105878Y0249972D03*
X0105878Y0249297D03*
X0136262Y0239845D03*
X0202431Y0258412D03*
X0099126Y0075096D03*
X0099126Y0061255D03*
X0024179Y0061593D03*
X0024179Y0074759D03*
D80*
X0023842Y0062268D03*
X0099464Y0061930D03*
D81*
X0099801Y0062605D03*
X0099801Y0073746D03*
X0023504Y0073408D03*
X0023504Y0062943D03*
D82*
X0023166Y0063618D03*
X0100139Y0063281D03*
D83*
X0100476Y0063956D03*
X0100476Y0072396D03*
X0022829Y0072058D03*
X0022829Y0064293D03*
X0082921Y0248960D03*
X0082921Y0249297D03*
X0082921Y0249635D03*
X0082921Y0249972D03*
X0082921Y0250310D03*
D84*
X0022660Y0064631D03*
D85*
X0022491Y0071383D03*
X0100814Y0064631D03*
D86*
X0145546Y0068682D03*
X0145883Y0070032D03*
X0149259Y0067332D03*
X0146221Y0064631D03*
D87*
X0100814Y0071720D03*
X0022491Y0064969D03*
D88*
X0100983Y0064969D03*
D89*
X0101152Y0065306D03*
X0101152Y0071045D03*
X0022154Y0070708D03*
X0022154Y0065644D03*
D90*
X0021985Y0065981D03*
D91*
X0021816Y0070032D03*
X0101489Y0065981D03*
D92*
X0148584Y0065981D03*
D93*
X0101489Y0070370D03*
X0021816Y0066319D03*
D94*
X0021647Y0069020D03*
X0101658Y0066319D03*
D95*
X0147234Y0066319D03*
D96*
X0101827Y0066657D03*
X0101827Y0066994D03*
X0101827Y0069357D03*
X0101827Y0069695D03*
X0021478Y0068345D03*
X0021478Y0068007D03*
D97*
X0021647Y0067332D03*
X0101658Y0070032D03*
D98*
X0101827Y0067332D03*
X0021478Y0068682D03*
D99*
X0146221Y0067332D03*
X0142845Y0255036D03*
X0142845Y0256049D03*
X0177280Y0256049D03*
X0177280Y0255036D03*
X0188758Y0255036D03*
X0188758Y0256049D03*
X0200237Y0256049D03*
X0200237Y0255036D03*
D100*
X0101827Y0069020D03*
X0021478Y0067669D03*
D101*
X0101996Y0067669D03*
D102*
X0145883Y0067669D03*
X0204288Y0077122D03*
X0113136Y0256387D03*
X0108748Y0256387D03*
X0108748Y0255374D03*
D103*
X0146052Y0070370D03*
X0149428Y0067669D03*
D104*
X0101996Y0068682D03*
D105*
X0149766Y0068682D03*
D106*
X0021985Y0070370D03*
D107*
X0100983Y0071383D03*
D108*
X0022660Y0071720D03*
D109*
X0023166Y0072733D03*
D110*
X0100308Y0072733D03*
D111*
X0023335Y0073071D03*
D112*
X0100139Y0073071D03*
D113*
X0023842Y0074084D03*
D114*
X0099632Y0074084D03*
D115*
X0024010Y0074421D03*
D116*
X0099464Y0074421D03*
D117*
X0024517Y0075434D03*
D118*
X0098957Y0075434D03*
D119*
X0024685Y0075772D03*
D120*
X0098788Y0075772D03*
D121*
X0025192Y0076784D03*
D122*
X0098282Y0076784D03*
D123*
X0025361Y0077122D03*
D124*
X0098113Y0077122D03*
D125*
X0061821Y0102780D03*
D126*
X0061821Y0103117D03*
D127*
X0044773Y0142954D03*
X0044773Y0143291D03*
X0044773Y0146330D03*
X0040046Y0143291D03*
X0040046Y0142954D03*
X0035320Y0142954D03*
X0035320Y0143291D03*
X0035320Y0146330D03*
X0149428Y0361042D03*
X0177111Y0360030D03*
X0177111Y0364418D03*
X0202094Y0259425D03*
X0258135Y0339774D03*
D128*
X0181162Y0250310D03*
X0181162Y0249972D03*
X0181162Y0249635D03*
X0181162Y0249297D03*
X0181162Y0248960D03*
X0146727Y0258075D03*
X0146727Y0258412D03*
X0146727Y0259088D03*
D129*
X0193316Y0250310D03*
D130*
X0259148Y0337748D03*
X0259148Y0338086D03*
X0259148Y0338423D03*
X0083596Y0254699D03*
X0083596Y0254361D03*
X0083596Y0254024D03*
X0083596Y0253686D03*
D131*
X0085960Y0255036D03*
X0085960Y0256049D03*
X0102840Y0256049D03*
X0102840Y0255036D03*
D132*
X0108748Y0255036D03*
X0115162Y0255036D03*
D133*
X0112968Y0256049D03*
X0112292Y0255036D03*
D134*
X0135924Y0255036D03*
X0135924Y0256049D03*
X0158881Y0256049D03*
X0158881Y0255036D03*
D135*
X0207833Y0255036D03*
X0207833Y0256049D03*
D136*
X0102840Y0255374D03*
X0085960Y0255374D03*
X0085960Y0256387D03*
D137*
X0104528Y0256387D03*
X0112630Y0255374D03*
X0116006Y0256387D03*
D138*
X0115668Y0255374D03*
D139*
X0102164Y0256387D03*
X0135924Y0256387D03*
X0135924Y0255374D03*
X0158881Y0255374D03*
X0158881Y0256387D03*
D140*
X0142845Y0255374D03*
X0177280Y0255374D03*
X0177280Y0256387D03*
X0188758Y0255374D03*
X0200237Y0255374D03*
X0200237Y0256387D03*
D141*
X0207833Y0256387D03*
X0207833Y0255374D03*
X0188927Y0256387D03*
X0143014Y0256387D03*
D142*
X0108916Y0256049D03*
D143*
X0116006Y0256049D03*
D144*
X0135924Y0258075D03*
X0135924Y0258412D03*
X0135924Y0258750D03*
X0135924Y0259088D03*
X0158881Y0259088D03*
X0158881Y0258750D03*
X0158881Y0258412D03*
X0158881Y0258075D03*
D145*
X0135249Y0259425D03*
X0260160Y0336398D03*
D146*
X0262355Y0334034D03*
D147*
X0262355Y0334372D03*
D148*
X0123771Y0365769D03*
D149*
X0105203Y0366444D03*
D150*
X0016405Y0145195D03*
X0010605Y0145195D03*
D151*
X0071479Y0211262D02*
X0070712Y0212030D01*
X0070712Y0213564D01*
X0071479Y0214331D01*
X0072246Y0214331D01*
X0073014Y0213564D01*
X0073014Y0212030D01*
X0072246Y0211262D01*
X0071479Y0211262D01*
X0073014Y0212030D02*
X0073781Y0211262D01*
X0074548Y0211262D01*
X0075316Y0212030D01*
X0075316Y0213564D01*
X0074548Y0214331D01*
X0073781Y0214331D01*
X0073014Y0213564D01*
X0070712Y0215866D02*
X0070712Y0218935D01*
X0070712Y0217401D02*
X0075316Y0217401D01*
X0073781Y0218935D01*
X0070712Y0283564D02*
X0070712Y0286633D01*
X0070712Y0285099D02*
X0075316Y0285099D01*
X0073781Y0286633D01*
D152*
X0006791Y0347957D02*
X0006791Y0151106D01*
X0279232Y0151106D01*
X0279232Y0347957D01*
X0006791Y0347957D01*
D153*
X0031791Y0140280D02*
X0053445Y0140280D01*
X0053445Y0140279D02*
X0053507Y0140277D01*
X0053568Y0140271D01*
X0053629Y0140262D01*
X0053690Y0140248D01*
X0053749Y0140231D01*
X0053807Y0140210D01*
X0053864Y0140185D01*
X0053919Y0140157D01*
X0053972Y0140126D01*
X0054023Y0140091D01*
X0054072Y0140053D01*
X0054119Y0140012D01*
X0054162Y0139969D01*
X0054203Y0139922D01*
X0054241Y0139873D01*
X0054276Y0139822D01*
X0054307Y0139769D01*
X0054335Y0139714D01*
X0054360Y0139657D01*
X0054381Y0139599D01*
X0054398Y0139540D01*
X0054412Y0139479D01*
X0054421Y0139418D01*
X0054427Y0139357D01*
X0054429Y0139295D01*
X0054429Y0137720D01*
X0054429Y0129059D02*
X0054429Y0127484D01*
X0054427Y0127422D01*
X0054421Y0127361D01*
X0054412Y0127300D01*
X0054398Y0127239D01*
X0054381Y0127180D01*
X0054360Y0127122D01*
X0054335Y0127065D01*
X0054307Y0127010D01*
X0054276Y0126957D01*
X0054241Y0126906D01*
X0054203Y0126857D01*
X0054162Y0126810D01*
X0054119Y0126767D01*
X0054072Y0126726D01*
X0054023Y0126688D01*
X0053972Y0126653D01*
X0053919Y0126622D01*
X0053864Y0126594D01*
X0053807Y0126569D01*
X0053749Y0126548D01*
X0053690Y0126531D01*
X0053629Y0126517D01*
X0053568Y0126508D01*
X0053507Y0126502D01*
X0053445Y0126500D01*
X0031791Y0126500D01*
X0031729Y0126502D01*
X0031668Y0126508D01*
X0031607Y0126517D01*
X0031546Y0126531D01*
X0031487Y0126548D01*
X0031429Y0126569D01*
X0031372Y0126594D01*
X0031317Y0126622D01*
X0031264Y0126653D01*
X0031213Y0126688D01*
X0031164Y0126726D01*
X0031117Y0126767D01*
X0031074Y0126810D01*
X0031033Y0126857D01*
X0030995Y0126906D01*
X0030960Y0126957D01*
X0030929Y0127010D01*
X0030901Y0127065D01*
X0030876Y0127122D01*
X0030855Y0127180D01*
X0030838Y0127239D01*
X0030824Y0127300D01*
X0030815Y0127361D01*
X0030809Y0127422D01*
X0030807Y0127484D01*
X0030807Y0129059D01*
X0036713Y0130437D02*
X0036713Y0136343D01*
X0048524Y0136343D01*
X0048524Y0130437D01*
X0036713Y0130437D01*
X0030807Y0137720D02*
X0030807Y0139295D01*
X0030809Y0139357D01*
X0030815Y0139418D01*
X0030824Y0139479D01*
X0030838Y0139540D01*
X0030855Y0139599D01*
X0030876Y0139657D01*
X0030901Y0139714D01*
X0030929Y0139769D01*
X0030960Y0139822D01*
X0030995Y0139873D01*
X0031033Y0139922D01*
X0031074Y0139969D01*
X0031117Y0140012D01*
X0031164Y0140053D01*
X0031213Y0140091D01*
X0031264Y0140126D01*
X0031317Y0140157D01*
X0031372Y0140185D01*
X0031429Y0140210D01*
X0031487Y0140231D01*
X0031546Y0140248D01*
X0031607Y0140262D01*
X0031668Y0140271D01*
X0031729Y0140277D01*
X0031791Y0140279D01*
X0062303Y0110723D02*
X0045600Y0094020D01*
X0062303Y0077316D01*
X0079006Y0094020D01*
X0062303Y0110723D01*
X0055413Y0094020D02*
X0055415Y0094189D01*
X0055421Y0094358D01*
X0055432Y0094527D01*
X0055446Y0094695D01*
X0055465Y0094863D01*
X0055488Y0095031D01*
X0055514Y0095198D01*
X0055545Y0095364D01*
X0055580Y0095530D01*
X0055619Y0095694D01*
X0055663Y0095858D01*
X0055710Y0096020D01*
X0055761Y0096181D01*
X0055816Y0096341D01*
X0055875Y0096500D01*
X0055937Y0096657D01*
X0056004Y0096812D01*
X0056075Y0096966D01*
X0056149Y0097118D01*
X0056227Y0097268D01*
X0056308Y0097416D01*
X0056393Y0097562D01*
X0056482Y0097706D01*
X0056574Y0097848D01*
X0056670Y0097987D01*
X0056769Y0098124D01*
X0056871Y0098259D01*
X0056977Y0098391D01*
X0057086Y0098520D01*
X0057198Y0098647D01*
X0057313Y0098771D01*
X0057431Y0098892D01*
X0057552Y0099010D01*
X0057676Y0099125D01*
X0057803Y0099237D01*
X0057932Y0099346D01*
X0058064Y0099452D01*
X0058199Y0099554D01*
X0058336Y0099653D01*
X0058475Y0099749D01*
X0058617Y0099841D01*
X0058761Y0099930D01*
X0058907Y0100015D01*
X0059055Y0100096D01*
X0059205Y0100174D01*
X0059357Y0100248D01*
X0059511Y0100319D01*
X0059666Y0100386D01*
X0059823Y0100448D01*
X0059982Y0100507D01*
X0060142Y0100562D01*
X0060303Y0100613D01*
X0060465Y0100660D01*
X0060629Y0100704D01*
X0060793Y0100743D01*
X0060959Y0100778D01*
X0061125Y0100809D01*
X0061292Y0100835D01*
X0061460Y0100858D01*
X0061628Y0100877D01*
X0061796Y0100891D01*
X0061965Y0100902D01*
X0062134Y0100908D01*
X0062303Y0100910D01*
X0062472Y0100908D01*
X0062641Y0100902D01*
X0062810Y0100891D01*
X0062978Y0100877D01*
X0063146Y0100858D01*
X0063314Y0100835D01*
X0063481Y0100809D01*
X0063647Y0100778D01*
X0063813Y0100743D01*
X0063977Y0100704D01*
X0064141Y0100660D01*
X0064303Y0100613D01*
X0064464Y0100562D01*
X0064624Y0100507D01*
X0064783Y0100448D01*
X0064940Y0100386D01*
X0065095Y0100319D01*
X0065249Y0100248D01*
X0065401Y0100174D01*
X0065551Y0100096D01*
X0065699Y0100015D01*
X0065845Y0099930D01*
X0065989Y0099841D01*
X0066131Y0099749D01*
X0066270Y0099653D01*
X0066407Y0099554D01*
X0066542Y0099452D01*
X0066674Y0099346D01*
X0066803Y0099237D01*
X0066930Y0099125D01*
X0067054Y0099010D01*
X0067175Y0098892D01*
X0067293Y0098771D01*
X0067408Y0098647D01*
X0067520Y0098520D01*
X0067629Y0098391D01*
X0067735Y0098259D01*
X0067837Y0098124D01*
X0067936Y0097987D01*
X0068032Y0097848D01*
X0068124Y0097706D01*
X0068213Y0097562D01*
X0068298Y0097416D01*
X0068379Y0097268D01*
X0068457Y0097118D01*
X0068531Y0096966D01*
X0068602Y0096812D01*
X0068669Y0096657D01*
X0068731Y0096500D01*
X0068790Y0096341D01*
X0068845Y0096181D01*
X0068896Y0096020D01*
X0068943Y0095858D01*
X0068987Y0095694D01*
X0069026Y0095530D01*
X0069061Y0095364D01*
X0069092Y0095198D01*
X0069118Y0095031D01*
X0069141Y0094863D01*
X0069160Y0094695D01*
X0069174Y0094527D01*
X0069185Y0094358D01*
X0069191Y0094189D01*
X0069193Y0094020D01*
X0069191Y0093851D01*
X0069185Y0093682D01*
X0069174Y0093513D01*
X0069160Y0093345D01*
X0069141Y0093177D01*
X0069118Y0093009D01*
X0069092Y0092842D01*
X0069061Y0092676D01*
X0069026Y0092510D01*
X0068987Y0092346D01*
X0068943Y0092182D01*
X0068896Y0092020D01*
X0068845Y0091859D01*
X0068790Y0091699D01*
X0068731Y0091540D01*
X0068669Y0091383D01*
X0068602Y0091228D01*
X0068531Y0091074D01*
X0068457Y0090922D01*
X0068379Y0090772D01*
X0068298Y0090624D01*
X0068213Y0090478D01*
X0068124Y0090334D01*
X0068032Y0090192D01*
X0067936Y0090053D01*
X0067837Y0089916D01*
X0067735Y0089781D01*
X0067629Y0089649D01*
X0067520Y0089520D01*
X0067408Y0089393D01*
X0067293Y0089269D01*
X0067175Y0089148D01*
X0067054Y0089030D01*
X0066930Y0088915D01*
X0066803Y0088803D01*
X0066674Y0088694D01*
X0066542Y0088588D01*
X0066407Y0088486D01*
X0066270Y0088387D01*
X0066131Y0088291D01*
X0065989Y0088199D01*
X0065845Y0088110D01*
X0065699Y0088025D01*
X0065551Y0087944D01*
X0065401Y0087866D01*
X0065249Y0087792D01*
X0065095Y0087721D01*
X0064940Y0087654D01*
X0064783Y0087592D01*
X0064624Y0087533D01*
X0064464Y0087478D01*
X0064303Y0087427D01*
X0064141Y0087380D01*
X0063977Y0087336D01*
X0063813Y0087297D01*
X0063647Y0087262D01*
X0063481Y0087231D01*
X0063314Y0087205D01*
X0063146Y0087182D01*
X0062978Y0087163D01*
X0062810Y0087149D01*
X0062641Y0087138D01*
X0062472Y0087132D01*
X0062303Y0087130D01*
X0062134Y0087132D01*
X0061965Y0087138D01*
X0061796Y0087149D01*
X0061628Y0087163D01*
X0061460Y0087182D01*
X0061292Y0087205D01*
X0061125Y0087231D01*
X0060959Y0087262D01*
X0060793Y0087297D01*
X0060629Y0087336D01*
X0060465Y0087380D01*
X0060303Y0087427D01*
X0060142Y0087478D01*
X0059982Y0087533D01*
X0059823Y0087592D01*
X0059666Y0087654D01*
X0059511Y0087721D01*
X0059357Y0087792D01*
X0059205Y0087866D01*
X0059055Y0087944D01*
X0058907Y0088025D01*
X0058761Y0088110D01*
X0058617Y0088199D01*
X0058475Y0088291D01*
X0058336Y0088387D01*
X0058199Y0088486D01*
X0058064Y0088588D01*
X0057932Y0088694D01*
X0057803Y0088803D01*
X0057676Y0088915D01*
X0057552Y0089030D01*
X0057431Y0089148D01*
X0057313Y0089269D01*
X0057198Y0089393D01*
X0057086Y0089520D01*
X0056977Y0089649D01*
X0056871Y0089781D01*
X0056769Y0089916D01*
X0056670Y0090053D01*
X0056574Y0090192D01*
X0056482Y0090334D01*
X0056393Y0090478D01*
X0056308Y0090624D01*
X0056227Y0090772D01*
X0056149Y0090922D01*
X0056075Y0091074D01*
X0056004Y0091228D01*
X0055937Y0091383D01*
X0055875Y0091540D01*
X0055816Y0091699D01*
X0055761Y0091859D01*
X0055710Y0092020D01*
X0055663Y0092182D01*
X0055619Y0092346D01*
X0055580Y0092510D01*
X0055545Y0092676D01*
X0055514Y0092842D01*
X0055488Y0093009D01*
X0055465Y0093177D01*
X0055446Y0093345D01*
X0055432Y0093513D01*
X0055421Y0093682D01*
X0055415Y0093851D01*
X0055413Y0094020D01*
X0034744Y0085132D02*
X0051447Y0068429D01*
X0034744Y0051726D01*
X0018041Y0068429D01*
X0034744Y0085132D01*
X0027854Y0068429D02*
X0027856Y0068598D01*
X0027862Y0068767D01*
X0027873Y0068936D01*
X0027887Y0069104D01*
X0027906Y0069272D01*
X0027929Y0069440D01*
X0027955Y0069607D01*
X0027986Y0069773D01*
X0028021Y0069939D01*
X0028060Y0070103D01*
X0028104Y0070267D01*
X0028151Y0070429D01*
X0028202Y0070590D01*
X0028257Y0070750D01*
X0028316Y0070909D01*
X0028378Y0071066D01*
X0028445Y0071221D01*
X0028516Y0071375D01*
X0028590Y0071527D01*
X0028668Y0071677D01*
X0028749Y0071825D01*
X0028834Y0071971D01*
X0028923Y0072115D01*
X0029015Y0072257D01*
X0029111Y0072396D01*
X0029210Y0072533D01*
X0029312Y0072668D01*
X0029418Y0072800D01*
X0029527Y0072929D01*
X0029639Y0073056D01*
X0029754Y0073180D01*
X0029872Y0073301D01*
X0029993Y0073419D01*
X0030117Y0073534D01*
X0030244Y0073646D01*
X0030373Y0073755D01*
X0030505Y0073861D01*
X0030640Y0073963D01*
X0030777Y0074062D01*
X0030916Y0074158D01*
X0031058Y0074250D01*
X0031202Y0074339D01*
X0031348Y0074424D01*
X0031496Y0074505D01*
X0031646Y0074583D01*
X0031798Y0074657D01*
X0031952Y0074728D01*
X0032107Y0074795D01*
X0032264Y0074857D01*
X0032423Y0074916D01*
X0032583Y0074971D01*
X0032744Y0075022D01*
X0032906Y0075069D01*
X0033070Y0075113D01*
X0033234Y0075152D01*
X0033400Y0075187D01*
X0033566Y0075218D01*
X0033733Y0075244D01*
X0033901Y0075267D01*
X0034069Y0075286D01*
X0034237Y0075300D01*
X0034406Y0075311D01*
X0034575Y0075317D01*
X0034744Y0075319D01*
X0034913Y0075317D01*
X0035082Y0075311D01*
X0035251Y0075300D01*
X0035419Y0075286D01*
X0035587Y0075267D01*
X0035755Y0075244D01*
X0035922Y0075218D01*
X0036088Y0075187D01*
X0036254Y0075152D01*
X0036418Y0075113D01*
X0036582Y0075069D01*
X0036744Y0075022D01*
X0036905Y0074971D01*
X0037065Y0074916D01*
X0037224Y0074857D01*
X0037381Y0074795D01*
X0037536Y0074728D01*
X0037690Y0074657D01*
X0037842Y0074583D01*
X0037992Y0074505D01*
X0038140Y0074424D01*
X0038286Y0074339D01*
X0038430Y0074250D01*
X0038572Y0074158D01*
X0038711Y0074062D01*
X0038848Y0073963D01*
X0038983Y0073861D01*
X0039115Y0073755D01*
X0039244Y0073646D01*
X0039371Y0073534D01*
X0039495Y0073419D01*
X0039616Y0073301D01*
X0039734Y0073180D01*
X0039849Y0073056D01*
X0039961Y0072929D01*
X0040070Y0072800D01*
X0040176Y0072668D01*
X0040278Y0072533D01*
X0040377Y0072396D01*
X0040473Y0072257D01*
X0040565Y0072115D01*
X0040654Y0071971D01*
X0040739Y0071825D01*
X0040820Y0071677D01*
X0040898Y0071527D01*
X0040972Y0071375D01*
X0041043Y0071221D01*
X0041110Y0071066D01*
X0041172Y0070909D01*
X0041231Y0070750D01*
X0041286Y0070590D01*
X0041337Y0070429D01*
X0041384Y0070267D01*
X0041428Y0070103D01*
X0041467Y0069939D01*
X0041502Y0069773D01*
X0041533Y0069607D01*
X0041559Y0069440D01*
X0041582Y0069272D01*
X0041601Y0069104D01*
X0041615Y0068936D01*
X0041626Y0068767D01*
X0041632Y0068598D01*
X0041634Y0068429D01*
X0041632Y0068260D01*
X0041626Y0068091D01*
X0041615Y0067922D01*
X0041601Y0067754D01*
X0041582Y0067586D01*
X0041559Y0067418D01*
X0041533Y0067251D01*
X0041502Y0067085D01*
X0041467Y0066919D01*
X0041428Y0066755D01*
X0041384Y0066591D01*
X0041337Y0066429D01*
X0041286Y0066268D01*
X0041231Y0066108D01*
X0041172Y0065949D01*
X0041110Y0065792D01*
X0041043Y0065637D01*
X0040972Y0065483D01*
X0040898Y0065331D01*
X0040820Y0065181D01*
X0040739Y0065033D01*
X0040654Y0064887D01*
X0040565Y0064743D01*
X0040473Y0064601D01*
X0040377Y0064462D01*
X0040278Y0064325D01*
X0040176Y0064190D01*
X0040070Y0064058D01*
X0039961Y0063929D01*
X0039849Y0063802D01*
X0039734Y0063678D01*
X0039616Y0063557D01*
X0039495Y0063439D01*
X0039371Y0063324D01*
X0039244Y0063212D01*
X0039115Y0063103D01*
X0038983Y0062997D01*
X0038848Y0062895D01*
X0038711Y0062796D01*
X0038572Y0062700D01*
X0038430Y0062608D01*
X0038286Y0062519D01*
X0038140Y0062434D01*
X0037992Y0062353D01*
X0037842Y0062275D01*
X0037690Y0062201D01*
X0037536Y0062130D01*
X0037381Y0062063D01*
X0037224Y0062001D01*
X0037065Y0061942D01*
X0036905Y0061887D01*
X0036744Y0061836D01*
X0036582Y0061789D01*
X0036418Y0061745D01*
X0036254Y0061706D01*
X0036088Y0061671D01*
X0035922Y0061640D01*
X0035755Y0061614D01*
X0035587Y0061591D01*
X0035419Y0061572D01*
X0035251Y0061558D01*
X0035082Y0061547D01*
X0034913Y0061541D01*
X0034744Y0061539D01*
X0034575Y0061541D01*
X0034406Y0061547D01*
X0034237Y0061558D01*
X0034069Y0061572D01*
X0033901Y0061591D01*
X0033733Y0061614D01*
X0033566Y0061640D01*
X0033400Y0061671D01*
X0033234Y0061706D01*
X0033070Y0061745D01*
X0032906Y0061789D01*
X0032744Y0061836D01*
X0032583Y0061887D01*
X0032423Y0061942D01*
X0032264Y0062001D01*
X0032107Y0062063D01*
X0031952Y0062130D01*
X0031798Y0062201D01*
X0031646Y0062275D01*
X0031496Y0062353D01*
X0031348Y0062434D01*
X0031202Y0062519D01*
X0031058Y0062608D01*
X0030916Y0062700D01*
X0030777Y0062796D01*
X0030640Y0062895D01*
X0030505Y0062997D01*
X0030373Y0063103D01*
X0030244Y0063212D01*
X0030117Y0063324D01*
X0029993Y0063439D01*
X0029872Y0063557D01*
X0029754Y0063678D01*
X0029639Y0063802D01*
X0029527Y0063929D01*
X0029418Y0064058D01*
X0029312Y0064190D01*
X0029210Y0064325D01*
X0029111Y0064462D01*
X0029015Y0064601D01*
X0028923Y0064743D01*
X0028834Y0064887D01*
X0028749Y0065033D01*
X0028668Y0065181D01*
X0028590Y0065331D01*
X0028516Y0065483D01*
X0028445Y0065637D01*
X0028378Y0065792D01*
X0028316Y0065949D01*
X0028257Y0066108D01*
X0028202Y0066268D01*
X0028151Y0066429D01*
X0028104Y0066591D01*
X0028060Y0066755D01*
X0028021Y0066919D01*
X0027986Y0067085D01*
X0027955Y0067251D01*
X0027929Y0067418D01*
X0027906Y0067586D01*
X0027887Y0067754D01*
X0027873Y0067922D01*
X0027862Y0068091D01*
X0027856Y0068260D01*
X0027854Y0068429D01*
X0045600Y0042839D02*
X0062303Y0026135D01*
X0079006Y0042839D01*
X0062303Y0059542D01*
X0045600Y0042839D01*
X0055413Y0042839D02*
X0055415Y0043008D01*
X0055421Y0043177D01*
X0055432Y0043346D01*
X0055446Y0043514D01*
X0055465Y0043682D01*
X0055488Y0043850D01*
X0055514Y0044017D01*
X0055545Y0044183D01*
X0055580Y0044349D01*
X0055619Y0044513D01*
X0055663Y0044677D01*
X0055710Y0044839D01*
X0055761Y0045000D01*
X0055816Y0045160D01*
X0055875Y0045319D01*
X0055937Y0045476D01*
X0056004Y0045631D01*
X0056075Y0045785D01*
X0056149Y0045937D01*
X0056227Y0046087D01*
X0056308Y0046235D01*
X0056393Y0046381D01*
X0056482Y0046525D01*
X0056574Y0046667D01*
X0056670Y0046806D01*
X0056769Y0046943D01*
X0056871Y0047078D01*
X0056977Y0047210D01*
X0057086Y0047339D01*
X0057198Y0047466D01*
X0057313Y0047590D01*
X0057431Y0047711D01*
X0057552Y0047829D01*
X0057676Y0047944D01*
X0057803Y0048056D01*
X0057932Y0048165D01*
X0058064Y0048271D01*
X0058199Y0048373D01*
X0058336Y0048472D01*
X0058475Y0048568D01*
X0058617Y0048660D01*
X0058761Y0048749D01*
X0058907Y0048834D01*
X0059055Y0048915D01*
X0059205Y0048993D01*
X0059357Y0049067D01*
X0059511Y0049138D01*
X0059666Y0049205D01*
X0059823Y0049267D01*
X0059982Y0049326D01*
X0060142Y0049381D01*
X0060303Y0049432D01*
X0060465Y0049479D01*
X0060629Y0049523D01*
X0060793Y0049562D01*
X0060959Y0049597D01*
X0061125Y0049628D01*
X0061292Y0049654D01*
X0061460Y0049677D01*
X0061628Y0049696D01*
X0061796Y0049710D01*
X0061965Y0049721D01*
X0062134Y0049727D01*
X0062303Y0049729D01*
X0062472Y0049727D01*
X0062641Y0049721D01*
X0062810Y0049710D01*
X0062978Y0049696D01*
X0063146Y0049677D01*
X0063314Y0049654D01*
X0063481Y0049628D01*
X0063647Y0049597D01*
X0063813Y0049562D01*
X0063977Y0049523D01*
X0064141Y0049479D01*
X0064303Y0049432D01*
X0064464Y0049381D01*
X0064624Y0049326D01*
X0064783Y0049267D01*
X0064940Y0049205D01*
X0065095Y0049138D01*
X0065249Y0049067D01*
X0065401Y0048993D01*
X0065551Y0048915D01*
X0065699Y0048834D01*
X0065845Y0048749D01*
X0065989Y0048660D01*
X0066131Y0048568D01*
X0066270Y0048472D01*
X0066407Y0048373D01*
X0066542Y0048271D01*
X0066674Y0048165D01*
X0066803Y0048056D01*
X0066930Y0047944D01*
X0067054Y0047829D01*
X0067175Y0047711D01*
X0067293Y0047590D01*
X0067408Y0047466D01*
X0067520Y0047339D01*
X0067629Y0047210D01*
X0067735Y0047078D01*
X0067837Y0046943D01*
X0067936Y0046806D01*
X0068032Y0046667D01*
X0068124Y0046525D01*
X0068213Y0046381D01*
X0068298Y0046235D01*
X0068379Y0046087D01*
X0068457Y0045937D01*
X0068531Y0045785D01*
X0068602Y0045631D01*
X0068669Y0045476D01*
X0068731Y0045319D01*
X0068790Y0045160D01*
X0068845Y0045000D01*
X0068896Y0044839D01*
X0068943Y0044677D01*
X0068987Y0044513D01*
X0069026Y0044349D01*
X0069061Y0044183D01*
X0069092Y0044017D01*
X0069118Y0043850D01*
X0069141Y0043682D01*
X0069160Y0043514D01*
X0069174Y0043346D01*
X0069185Y0043177D01*
X0069191Y0043008D01*
X0069193Y0042839D01*
X0069191Y0042670D01*
X0069185Y0042501D01*
X0069174Y0042332D01*
X0069160Y0042164D01*
X0069141Y0041996D01*
X0069118Y0041828D01*
X0069092Y0041661D01*
X0069061Y0041495D01*
X0069026Y0041329D01*
X0068987Y0041165D01*
X0068943Y0041001D01*
X0068896Y0040839D01*
X0068845Y0040678D01*
X0068790Y0040518D01*
X0068731Y0040359D01*
X0068669Y0040202D01*
X0068602Y0040047D01*
X0068531Y0039893D01*
X0068457Y0039741D01*
X0068379Y0039591D01*
X0068298Y0039443D01*
X0068213Y0039297D01*
X0068124Y0039153D01*
X0068032Y0039011D01*
X0067936Y0038872D01*
X0067837Y0038735D01*
X0067735Y0038600D01*
X0067629Y0038468D01*
X0067520Y0038339D01*
X0067408Y0038212D01*
X0067293Y0038088D01*
X0067175Y0037967D01*
X0067054Y0037849D01*
X0066930Y0037734D01*
X0066803Y0037622D01*
X0066674Y0037513D01*
X0066542Y0037407D01*
X0066407Y0037305D01*
X0066270Y0037206D01*
X0066131Y0037110D01*
X0065989Y0037018D01*
X0065845Y0036929D01*
X0065699Y0036844D01*
X0065551Y0036763D01*
X0065401Y0036685D01*
X0065249Y0036611D01*
X0065095Y0036540D01*
X0064940Y0036473D01*
X0064783Y0036411D01*
X0064624Y0036352D01*
X0064464Y0036297D01*
X0064303Y0036246D01*
X0064141Y0036199D01*
X0063977Y0036155D01*
X0063813Y0036116D01*
X0063647Y0036081D01*
X0063481Y0036050D01*
X0063314Y0036024D01*
X0063146Y0036001D01*
X0062978Y0035982D01*
X0062810Y0035968D01*
X0062641Y0035957D01*
X0062472Y0035951D01*
X0062303Y0035949D01*
X0062134Y0035951D01*
X0061965Y0035957D01*
X0061796Y0035968D01*
X0061628Y0035982D01*
X0061460Y0036001D01*
X0061292Y0036024D01*
X0061125Y0036050D01*
X0060959Y0036081D01*
X0060793Y0036116D01*
X0060629Y0036155D01*
X0060465Y0036199D01*
X0060303Y0036246D01*
X0060142Y0036297D01*
X0059982Y0036352D01*
X0059823Y0036411D01*
X0059666Y0036473D01*
X0059511Y0036540D01*
X0059357Y0036611D01*
X0059205Y0036685D01*
X0059055Y0036763D01*
X0058907Y0036844D01*
X0058761Y0036929D01*
X0058617Y0037018D01*
X0058475Y0037110D01*
X0058336Y0037206D01*
X0058199Y0037305D01*
X0058064Y0037407D01*
X0057932Y0037513D01*
X0057803Y0037622D01*
X0057676Y0037734D01*
X0057552Y0037849D01*
X0057431Y0037967D01*
X0057313Y0038088D01*
X0057198Y0038212D01*
X0057086Y0038339D01*
X0056977Y0038468D01*
X0056871Y0038600D01*
X0056769Y0038735D01*
X0056670Y0038872D01*
X0056574Y0039011D01*
X0056482Y0039153D01*
X0056393Y0039297D01*
X0056308Y0039443D01*
X0056227Y0039591D01*
X0056149Y0039741D01*
X0056075Y0039893D01*
X0056004Y0040047D01*
X0055937Y0040202D01*
X0055875Y0040359D01*
X0055816Y0040518D01*
X0055761Y0040678D01*
X0055710Y0040839D01*
X0055663Y0041001D01*
X0055619Y0041165D01*
X0055580Y0041329D01*
X0055545Y0041495D01*
X0055514Y0041661D01*
X0055488Y0041828D01*
X0055465Y0041996D01*
X0055446Y0042164D01*
X0055432Y0042332D01*
X0055421Y0042501D01*
X0055415Y0042670D01*
X0055413Y0042839D01*
X0073159Y0068429D02*
X0089862Y0085132D01*
X0106566Y0068429D01*
X0089862Y0051726D01*
X0073159Y0068429D01*
X0082972Y0068429D02*
X0082974Y0068598D01*
X0082980Y0068767D01*
X0082991Y0068936D01*
X0083005Y0069104D01*
X0083024Y0069272D01*
X0083047Y0069440D01*
X0083073Y0069607D01*
X0083104Y0069773D01*
X0083139Y0069939D01*
X0083178Y0070103D01*
X0083222Y0070267D01*
X0083269Y0070429D01*
X0083320Y0070590D01*
X0083375Y0070750D01*
X0083434Y0070909D01*
X0083496Y0071066D01*
X0083563Y0071221D01*
X0083634Y0071375D01*
X0083708Y0071527D01*
X0083786Y0071677D01*
X0083867Y0071825D01*
X0083952Y0071971D01*
X0084041Y0072115D01*
X0084133Y0072257D01*
X0084229Y0072396D01*
X0084328Y0072533D01*
X0084430Y0072668D01*
X0084536Y0072800D01*
X0084645Y0072929D01*
X0084757Y0073056D01*
X0084872Y0073180D01*
X0084990Y0073301D01*
X0085111Y0073419D01*
X0085235Y0073534D01*
X0085362Y0073646D01*
X0085491Y0073755D01*
X0085623Y0073861D01*
X0085758Y0073963D01*
X0085895Y0074062D01*
X0086034Y0074158D01*
X0086176Y0074250D01*
X0086320Y0074339D01*
X0086466Y0074424D01*
X0086614Y0074505D01*
X0086764Y0074583D01*
X0086916Y0074657D01*
X0087070Y0074728D01*
X0087225Y0074795D01*
X0087382Y0074857D01*
X0087541Y0074916D01*
X0087701Y0074971D01*
X0087862Y0075022D01*
X0088024Y0075069D01*
X0088188Y0075113D01*
X0088352Y0075152D01*
X0088518Y0075187D01*
X0088684Y0075218D01*
X0088851Y0075244D01*
X0089019Y0075267D01*
X0089187Y0075286D01*
X0089355Y0075300D01*
X0089524Y0075311D01*
X0089693Y0075317D01*
X0089862Y0075319D01*
X0090031Y0075317D01*
X0090200Y0075311D01*
X0090369Y0075300D01*
X0090537Y0075286D01*
X0090705Y0075267D01*
X0090873Y0075244D01*
X0091040Y0075218D01*
X0091206Y0075187D01*
X0091372Y0075152D01*
X0091536Y0075113D01*
X0091700Y0075069D01*
X0091862Y0075022D01*
X0092023Y0074971D01*
X0092183Y0074916D01*
X0092342Y0074857D01*
X0092499Y0074795D01*
X0092654Y0074728D01*
X0092808Y0074657D01*
X0092960Y0074583D01*
X0093110Y0074505D01*
X0093258Y0074424D01*
X0093404Y0074339D01*
X0093548Y0074250D01*
X0093690Y0074158D01*
X0093829Y0074062D01*
X0093966Y0073963D01*
X0094101Y0073861D01*
X0094233Y0073755D01*
X0094362Y0073646D01*
X0094489Y0073534D01*
X0094613Y0073419D01*
X0094734Y0073301D01*
X0094852Y0073180D01*
X0094967Y0073056D01*
X0095079Y0072929D01*
X0095188Y0072800D01*
X0095294Y0072668D01*
X0095396Y0072533D01*
X0095495Y0072396D01*
X0095591Y0072257D01*
X0095683Y0072115D01*
X0095772Y0071971D01*
X0095857Y0071825D01*
X0095938Y0071677D01*
X0096016Y0071527D01*
X0096090Y0071375D01*
X0096161Y0071221D01*
X0096228Y0071066D01*
X0096290Y0070909D01*
X0096349Y0070750D01*
X0096404Y0070590D01*
X0096455Y0070429D01*
X0096502Y0070267D01*
X0096546Y0070103D01*
X0096585Y0069939D01*
X0096620Y0069773D01*
X0096651Y0069607D01*
X0096677Y0069440D01*
X0096700Y0069272D01*
X0096719Y0069104D01*
X0096733Y0068936D01*
X0096744Y0068767D01*
X0096750Y0068598D01*
X0096752Y0068429D01*
X0096750Y0068260D01*
X0096744Y0068091D01*
X0096733Y0067922D01*
X0096719Y0067754D01*
X0096700Y0067586D01*
X0096677Y0067418D01*
X0096651Y0067251D01*
X0096620Y0067085D01*
X0096585Y0066919D01*
X0096546Y0066755D01*
X0096502Y0066591D01*
X0096455Y0066429D01*
X0096404Y0066268D01*
X0096349Y0066108D01*
X0096290Y0065949D01*
X0096228Y0065792D01*
X0096161Y0065637D01*
X0096090Y0065483D01*
X0096016Y0065331D01*
X0095938Y0065181D01*
X0095857Y0065033D01*
X0095772Y0064887D01*
X0095683Y0064743D01*
X0095591Y0064601D01*
X0095495Y0064462D01*
X0095396Y0064325D01*
X0095294Y0064190D01*
X0095188Y0064058D01*
X0095079Y0063929D01*
X0094967Y0063802D01*
X0094852Y0063678D01*
X0094734Y0063557D01*
X0094613Y0063439D01*
X0094489Y0063324D01*
X0094362Y0063212D01*
X0094233Y0063103D01*
X0094101Y0062997D01*
X0093966Y0062895D01*
X0093829Y0062796D01*
X0093690Y0062700D01*
X0093548Y0062608D01*
X0093404Y0062519D01*
X0093258Y0062434D01*
X0093110Y0062353D01*
X0092960Y0062275D01*
X0092808Y0062201D01*
X0092654Y0062130D01*
X0092499Y0062063D01*
X0092342Y0062001D01*
X0092183Y0061942D01*
X0092023Y0061887D01*
X0091862Y0061836D01*
X0091700Y0061789D01*
X0091536Y0061745D01*
X0091372Y0061706D01*
X0091206Y0061671D01*
X0091040Y0061640D01*
X0090873Y0061614D01*
X0090705Y0061591D01*
X0090537Y0061572D01*
X0090369Y0061558D01*
X0090200Y0061547D01*
X0090031Y0061541D01*
X0089862Y0061539D01*
X0089693Y0061541D01*
X0089524Y0061547D01*
X0089355Y0061558D01*
X0089187Y0061572D01*
X0089019Y0061591D01*
X0088851Y0061614D01*
X0088684Y0061640D01*
X0088518Y0061671D01*
X0088352Y0061706D01*
X0088188Y0061745D01*
X0088024Y0061789D01*
X0087862Y0061836D01*
X0087701Y0061887D01*
X0087541Y0061942D01*
X0087382Y0062001D01*
X0087225Y0062063D01*
X0087070Y0062130D01*
X0086916Y0062201D01*
X0086764Y0062275D01*
X0086614Y0062353D01*
X0086466Y0062434D01*
X0086320Y0062519D01*
X0086176Y0062608D01*
X0086034Y0062700D01*
X0085895Y0062796D01*
X0085758Y0062895D01*
X0085623Y0062997D01*
X0085491Y0063103D01*
X0085362Y0063212D01*
X0085235Y0063324D01*
X0085111Y0063439D01*
X0084990Y0063557D01*
X0084872Y0063678D01*
X0084757Y0063802D01*
X0084645Y0063929D01*
X0084536Y0064058D01*
X0084430Y0064190D01*
X0084328Y0064325D01*
X0084229Y0064462D01*
X0084133Y0064601D01*
X0084041Y0064743D01*
X0083952Y0064887D01*
X0083867Y0065033D01*
X0083786Y0065181D01*
X0083708Y0065331D01*
X0083634Y0065483D01*
X0083563Y0065637D01*
X0083496Y0065792D01*
X0083434Y0065949D01*
X0083375Y0066108D01*
X0083320Y0066268D01*
X0083269Y0066429D01*
X0083222Y0066591D01*
X0083178Y0066755D01*
X0083139Y0066919D01*
X0083104Y0067085D01*
X0083073Y0067251D01*
X0083047Y0067418D01*
X0083024Y0067586D01*
X0083005Y0067754D01*
X0082991Y0067922D01*
X0082980Y0068091D01*
X0082974Y0068260D01*
X0082972Y0068429D01*
X0092815Y0126500D02*
X0071161Y0126500D01*
X0071099Y0126502D01*
X0071038Y0126508D01*
X0070977Y0126517D01*
X0070916Y0126531D01*
X0070857Y0126548D01*
X0070799Y0126569D01*
X0070742Y0126594D01*
X0070687Y0126622D01*
X0070634Y0126653D01*
X0070583Y0126688D01*
X0070534Y0126726D01*
X0070487Y0126767D01*
X0070444Y0126810D01*
X0070403Y0126857D01*
X0070365Y0126906D01*
X0070330Y0126957D01*
X0070299Y0127010D01*
X0070271Y0127065D01*
X0070246Y0127122D01*
X0070225Y0127180D01*
X0070208Y0127239D01*
X0070194Y0127300D01*
X0070185Y0127361D01*
X0070179Y0127422D01*
X0070177Y0127484D01*
X0070177Y0129059D01*
X0076083Y0130437D02*
X0076083Y0136343D01*
X0087894Y0136343D01*
X0087894Y0130437D01*
X0076083Y0130437D01*
X0070177Y0137720D02*
X0070177Y0139295D01*
X0070179Y0139357D01*
X0070185Y0139418D01*
X0070194Y0139479D01*
X0070208Y0139540D01*
X0070225Y0139599D01*
X0070246Y0139657D01*
X0070271Y0139714D01*
X0070299Y0139769D01*
X0070330Y0139822D01*
X0070365Y0139873D01*
X0070403Y0139922D01*
X0070444Y0139969D01*
X0070487Y0140012D01*
X0070534Y0140053D01*
X0070583Y0140091D01*
X0070634Y0140126D01*
X0070687Y0140157D01*
X0070742Y0140185D01*
X0070799Y0140210D01*
X0070857Y0140231D01*
X0070916Y0140248D01*
X0070977Y0140262D01*
X0071038Y0140271D01*
X0071099Y0140277D01*
X0071161Y0140279D01*
X0071161Y0140280D02*
X0092815Y0140280D01*
X0092815Y0140279D02*
X0092877Y0140277D01*
X0092938Y0140271D01*
X0092999Y0140262D01*
X0093060Y0140248D01*
X0093119Y0140231D01*
X0093177Y0140210D01*
X0093234Y0140185D01*
X0093289Y0140157D01*
X0093342Y0140126D01*
X0093393Y0140091D01*
X0093442Y0140053D01*
X0093489Y0140012D01*
X0093532Y0139969D01*
X0093573Y0139922D01*
X0093611Y0139873D01*
X0093646Y0139822D01*
X0093677Y0139769D01*
X0093705Y0139714D01*
X0093730Y0139657D01*
X0093751Y0139599D01*
X0093768Y0139540D01*
X0093782Y0139479D01*
X0093791Y0139418D01*
X0093797Y0139357D01*
X0093799Y0139295D01*
X0093799Y0137720D01*
X0093799Y0129059D02*
X0093799Y0127484D01*
X0093797Y0127422D01*
X0093791Y0127361D01*
X0093782Y0127300D01*
X0093768Y0127239D01*
X0093751Y0127180D01*
X0093730Y0127122D01*
X0093705Y0127065D01*
X0093677Y0127010D01*
X0093646Y0126957D01*
X0093611Y0126906D01*
X0093573Y0126857D01*
X0093532Y0126810D01*
X0093489Y0126767D01*
X0093442Y0126726D01*
X0093393Y0126688D01*
X0093342Y0126653D01*
X0093289Y0126622D01*
X0093234Y0126594D01*
X0093177Y0126569D01*
X0093119Y0126548D01*
X0093060Y0126531D01*
X0092999Y0126517D01*
X0092938Y0126508D01*
X0092877Y0126502D01*
X0092815Y0126500D01*
X0142622Y0124598D02*
X0129156Y0087602D01*
X0131509Y0082556D01*
X0135209Y0081210D01*
X0146308Y0077170D02*
X0153707Y0074477D01*
X0164805Y0070437D02*
X0168505Y0069091D01*
X0173551Y0071444D01*
X0187016Y0108440D01*
X0184663Y0113486D01*
X0180964Y0114832D01*
X0186246Y0102413D02*
X0188599Y0097367D01*
X0192299Y0096020D01*
X0186246Y0102413D02*
X0199712Y0139409D01*
X0204758Y0141762D01*
X0208457Y0140415D01*
X0219556Y0136375D02*
X0226955Y0133682D01*
X0238054Y0129643D02*
X0241754Y0128296D01*
X0244107Y0123250D01*
X0230641Y0086254D01*
X0225595Y0083901D01*
X0221896Y0085248D01*
X0226333Y0082318D02*
X0231380Y0084671D01*
X0235079Y0083325D01*
X0226333Y0082318D02*
X0212868Y0045323D01*
X0215221Y0040276D01*
X0218921Y0038930D01*
X0213638Y0051349D02*
X0211285Y0056395D01*
X0207585Y0057742D01*
X0213638Y0051349D02*
X0200173Y0014354D01*
X0195127Y0012000D01*
X0191427Y0013347D01*
X0180328Y0017387D02*
X0172929Y0020080D01*
X0161830Y0024119D02*
X0158131Y0025466D01*
X0155778Y0030512D01*
X0169243Y0067508D01*
X0174289Y0069861D01*
X0177989Y0068514D01*
X0189088Y0064475D02*
X0196487Y0061782D01*
X0170928Y0040931D02*
X0170932Y0041269D01*
X0170945Y0041607D01*
X0170965Y0041945D01*
X0170994Y0042282D01*
X0171032Y0042618D01*
X0171077Y0042953D01*
X0171131Y0043287D01*
X0171193Y0043619D01*
X0171263Y0043950D01*
X0171341Y0044279D01*
X0171427Y0044606D01*
X0171521Y0044931D01*
X0171624Y0045254D01*
X0171734Y0045573D01*
X0171851Y0045890D01*
X0171977Y0046204D01*
X0172110Y0046515D01*
X0172251Y0046823D01*
X0172399Y0047127D01*
X0172555Y0047427D01*
X0172718Y0047723D01*
X0172888Y0048015D01*
X0173066Y0048303D01*
X0173250Y0048587D01*
X0173442Y0048866D01*
X0173640Y0049140D01*
X0173845Y0049409D01*
X0174056Y0049673D01*
X0174274Y0049932D01*
X0174498Y0050185D01*
X0174728Y0050433D01*
X0174964Y0050675D01*
X0175206Y0050911D01*
X0175454Y0051141D01*
X0175707Y0051365D01*
X0175966Y0051583D01*
X0176230Y0051794D01*
X0176499Y0051999D01*
X0176773Y0052197D01*
X0177052Y0052389D01*
X0177336Y0052573D01*
X0177624Y0052751D01*
X0177916Y0052921D01*
X0178212Y0053084D01*
X0178512Y0053240D01*
X0178816Y0053388D01*
X0179124Y0053529D01*
X0179435Y0053662D01*
X0179749Y0053788D01*
X0180066Y0053905D01*
X0180385Y0054015D01*
X0180708Y0054118D01*
X0181033Y0054212D01*
X0181360Y0054298D01*
X0181689Y0054376D01*
X0182020Y0054446D01*
X0182352Y0054508D01*
X0182686Y0054562D01*
X0183021Y0054607D01*
X0183357Y0054645D01*
X0183694Y0054674D01*
X0184032Y0054694D01*
X0184370Y0054707D01*
X0184708Y0054711D01*
X0185046Y0054707D01*
X0185384Y0054694D01*
X0185722Y0054674D01*
X0186059Y0054645D01*
X0186395Y0054607D01*
X0186730Y0054562D01*
X0187064Y0054508D01*
X0187396Y0054446D01*
X0187727Y0054376D01*
X0188056Y0054298D01*
X0188383Y0054212D01*
X0188708Y0054118D01*
X0189031Y0054015D01*
X0189350Y0053905D01*
X0189667Y0053788D01*
X0189981Y0053662D01*
X0190292Y0053529D01*
X0190600Y0053388D01*
X0190904Y0053240D01*
X0191204Y0053084D01*
X0191500Y0052921D01*
X0191792Y0052751D01*
X0192080Y0052573D01*
X0192364Y0052389D01*
X0192643Y0052197D01*
X0192917Y0051999D01*
X0193186Y0051794D01*
X0193450Y0051583D01*
X0193709Y0051365D01*
X0193962Y0051141D01*
X0194210Y0050911D01*
X0194452Y0050675D01*
X0194688Y0050433D01*
X0194918Y0050185D01*
X0195142Y0049932D01*
X0195360Y0049673D01*
X0195571Y0049409D01*
X0195776Y0049140D01*
X0195974Y0048866D01*
X0196166Y0048587D01*
X0196350Y0048303D01*
X0196528Y0048015D01*
X0196698Y0047723D01*
X0196861Y0047427D01*
X0197017Y0047127D01*
X0197165Y0046823D01*
X0197306Y0046515D01*
X0197439Y0046204D01*
X0197565Y0045890D01*
X0197682Y0045573D01*
X0197792Y0045254D01*
X0197895Y0044931D01*
X0197989Y0044606D01*
X0198075Y0044279D01*
X0198153Y0043950D01*
X0198223Y0043619D01*
X0198285Y0043287D01*
X0198339Y0042953D01*
X0198384Y0042618D01*
X0198422Y0042282D01*
X0198451Y0041945D01*
X0198471Y0041607D01*
X0198484Y0041269D01*
X0198488Y0040931D01*
X0198484Y0040593D01*
X0198471Y0040255D01*
X0198451Y0039917D01*
X0198422Y0039580D01*
X0198384Y0039244D01*
X0198339Y0038909D01*
X0198285Y0038575D01*
X0198223Y0038243D01*
X0198153Y0037912D01*
X0198075Y0037583D01*
X0197989Y0037256D01*
X0197895Y0036931D01*
X0197792Y0036608D01*
X0197682Y0036289D01*
X0197565Y0035972D01*
X0197439Y0035658D01*
X0197306Y0035347D01*
X0197165Y0035039D01*
X0197017Y0034735D01*
X0196861Y0034435D01*
X0196698Y0034139D01*
X0196528Y0033847D01*
X0196350Y0033559D01*
X0196166Y0033275D01*
X0195974Y0032996D01*
X0195776Y0032722D01*
X0195571Y0032453D01*
X0195360Y0032189D01*
X0195142Y0031930D01*
X0194918Y0031677D01*
X0194688Y0031429D01*
X0194452Y0031187D01*
X0194210Y0030951D01*
X0193962Y0030721D01*
X0193709Y0030497D01*
X0193450Y0030279D01*
X0193186Y0030068D01*
X0192917Y0029863D01*
X0192643Y0029665D01*
X0192364Y0029473D01*
X0192080Y0029289D01*
X0191792Y0029111D01*
X0191500Y0028941D01*
X0191204Y0028778D01*
X0190904Y0028622D01*
X0190600Y0028474D01*
X0190292Y0028333D01*
X0189981Y0028200D01*
X0189667Y0028074D01*
X0189350Y0027957D01*
X0189031Y0027847D01*
X0188708Y0027744D01*
X0188383Y0027650D01*
X0188056Y0027564D01*
X0187727Y0027486D01*
X0187396Y0027416D01*
X0187064Y0027354D01*
X0186730Y0027300D01*
X0186395Y0027255D01*
X0186059Y0027217D01*
X0185722Y0027188D01*
X0185384Y0027168D01*
X0185046Y0027155D01*
X0184708Y0027151D01*
X0184370Y0027155D01*
X0184032Y0027168D01*
X0183694Y0027188D01*
X0183357Y0027217D01*
X0183021Y0027255D01*
X0182686Y0027300D01*
X0182352Y0027354D01*
X0182020Y0027416D01*
X0181689Y0027486D01*
X0181360Y0027564D01*
X0181033Y0027650D01*
X0180708Y0027744D01*
X0180385Y0027847D01*
X0180066Y0027957D01*
X0179749Y0028074D01*
X0179435Y0028200D01*
X0179124Y0028333D01*
X0178816Y0028474D01*
X0178512Y0028622D01*
X0178212Y0028778D01*
X0177916Y0028941D01*
X0177624Y0029111D01*
X0177336Y0029289D01*
X0177052Y0029473D01*
X0176773Y0029665D01*
X0176499Y0029863D01*
X0176230Y0030068D01*
X0175966Y0030279D01*
X0175707Y0030497D01*
X0175454Y0030721D01*
X0175206Y0030951D01*
X0174964Y0031187D01*
X0174728Y0031429D01*
X0174498Y0031677D01*
X0174274Y0031930D01*
X0174056Y0032189D01*
X0173845Y0032453D01*
X0173640Y0032722D01*
X0173442Y0032996D01*
X0173250Y0033275D01*
X0173066Y0033559D01*
X0172888Y0033847D01*
X0172718Y0034139D01*
X0172555Y0034435D01*
X0172399Y0034735D01*
X0172251Y0035039D01*
X0172110Y0035347D01*
X0171977Y0035658D01*
X0171851Y0035972D01*
X0171734Y0036289D01*
X0171624Y0036608D01*
X0171521Y0036931D01*
X0171427Y0037256D01*
X0171341Y0037583D01*
X0171263Y0037912D01*
X0171193Y0038243D01*
X0171131Y0038575D01*
X0171077Y0038909D01*
X0171032Y0039244D01*
X0170994Y0039580D01*
X0170965Y0039917D01*
X0170945Y0040255D01*
X0170932Y0040593D01*
X0170928Y0040931D01*
X0203398Y0091981D02*
X0210797Y0089287D01*
X0201397Y0112831D02*
X0201401Y0113169D01*
X0201414Y0113507D01*
X0201434Y0113845D01*
X0201463Y0114182D01*
X0201501Y0114518D01*
X0201546Y0114853D01*
X0201600Y0115187D01*
X0201662Y0115519D01*
X0201732Y0115850D01*
X0201810Y0116179D01*
X0201896Y0116506D01*
X0201990Y0116831D01*
X0202093Y0117154D01*
X0202203Y0117473D01*
X0202320Y0117790D01*
X0202446Y0118104D01*
X0202579Y0118415D01*
X0202720Y0118723D01*
X0202868Y0119027D01*
X0203024Y0119327D01*
X0203187Y0119623D01*
X0203357Y0119915D01*
X0203535Y0120203D01*
X0203719Y0120487D01*
X0203911Y0120766D01*
X0204109Y0121040D01*
X0204314Y0121309D01*
X0204525Y0121573D01*
X0204743Y0121832D01*
X0204967Y0122085D01*
X0205197Y0122333D01*
X0205433Y0122575D01*
X0205675Y0122811D01*
X0205923Y0123041D01*
X0206176Y0123265D01*
X0206435Y0123483D01*
X0206699Y0123694D01*
X0206968Y0123899D01*
X0207242Y0124097D01*
X0207521Y0124289D01*
X0207805Y0124473D01*
X0208093Y0124651D01*
X0208385Y0124821D01*
X0208681Y0124984D01*
X0208981Y0125140D01*
X0209285Y0125288D01*
X0209593Y0125429D01*
X0209904Y0125562D01*
X0210218Y0125688D01*
X0210535Y0125805D01*
X0210854Y0125915D01*
X0211177Y0126018D01*
X0211502Y0126112D01*
X0211829Y0126198D01*
X0212158Y0126276D01*
X0212489Y0126346D01*
X0212821Y0126408D01*
X0213155Y0126462D01*
X0213490Y0126507D01*
X0213826Y0126545D01*
X0214163Y0126574D01*
X0214501Y0126594D01*
X0214839Y0126607D01*
X0215177Y0126611D01*
X0215515Y0126607D01*
X0215853Y0126594D01*
X0216191Y0126574D01*
X0216528Y0126545D01*
X0216864Y0126507D01*
X0217199Y0126462D01*
X0217533Y0126408D01*
X0217865Y0126346D01*
X0218196Y0126276D01*
X0218525Y0126198D01*
X0218852Y0126112D01*
X0219177Y0126018D01*
X0219500Y0125915D01*
X0219819Y0125805D01*
X0220136Y0125688D01*
X0220450Y0125562D01*
X0220761Y0125429D01*
X0221069Y0125288D01*
X0221373Y0125140D01*
X0221673Y0124984D01*
X0221969Y0124821D01*
X0222261Y0124651D01*
X0222549Y0124473D01*
X0222833Y0124289D01*
X0223112Y0124097D01*
X0223386Y0123899D01*
X0223655Y0123694D01*
X0223919Y0123483D01*
X0224178Y0123265D01*
X0224431Y0123041D01*
X0224679Y0122811D01*
X0224921Y0122575D01*
X0225157Y0122333D01*
X0225387Y0122085D01*
X0225611Y0121832D01*
X0225829Y0121573D01*
X0226040Y0121309D01*
X0226245Y0121040D01*
X0226443Y0120766D01*
X0226635Y0120487D01*
X0226819Y0120203D01*
X0226997Y0119915D01*
X0227167Y0119623D01*
X0227330Y0119327D01*
X0227486Y0119027D01*
X0227634Y0118723D01*
X0227775Y0118415D01*
X0227908Y0118104D01*
X0228034Y0117790D01*
X0228151Y0117473D01*
X0228261Y0117154D01*
X0228364Y0116831D01*
X0228458Y0116506D01*
X0228544Y0116179D01*
X0228622Y0115850D01*
X0228692Y0115519D01*
X0228754Y0115187D01*
X0228808Y0114853D01*
X0228853Y0114518D01*
X0228891Y0114182D01*
X0228920Y0113845D01*
X0228940Y0113507D01*
X0228953Y0113169D01*
X0228957Y0112831D01*
X0228953Y0112493D01*
X0228940Y0112155D01*
X0228920Y0111817D01*
X0228891Y0111480D01*
X0228853Y0111144D01*
X0228808Y0110809D01*
X0228754Y0110475D01*
X0228692Y0110143D01*
X0228622Y0109812D01*
X0228544Y0109483D01*
X0228458Y0109156D01*
X0228364Y0108831D01*
X0228261Y0108508D01*
X0228151Y0108189D01*
X0228034Y0107872D01*
X0227908Y0107558D01*
X0227775Y0107247D01*
X0227634Y0106939D01*
X0227486Y0106635D01*
X0227330Y0106335D01*
X0227167Y0106039D01*
X0226997Y0105747D01*
X0226819Y0105459D01*
X0226635Y0105175D01*
X0226443Y0104896D01*
X0226245Y0104622D01*
X0226040Y0104353D01*
X0225829Y0104089D01*
X0225611Y0103830D01*
X0225387Y0103577D01*
X0225157Y0103329D01*
X0224921Y0103087D01*
X0224679Y0102851D01*
X0224431Y0102621D01*
X0224178Y0102397D01*
X0223919Y0102179D01*
X0223655Y0101968D01*
X0223386Y0101763D01*
X0223112Y0101565D01*
X0222833Y0101373D01*
X0222549Y0101189D01*
X0222261Y0101011D01*
X0221969Y0100841D01*
X0221673Y0100678D01*
X0221373Y0100522D01*
X0221069Y0100374D01*
X0220761Y0100233D01*
X0220450Y0100100D01*
X0220136Y0099974D01*
X0219819Y0099857D01*
X0219500Y0099747D01*
X0219177Y0099644D01*
X0218852Y0099550D01*
X0218525Y0099464D01*
X0218196Y0099386D01*
X0217865Y0099316D01*
X0217533Y0099254D01*
X0217199Y0099200D01*
X0216864Y0099155D01*
X0216528Y0099117D01*
X0216191Y0099088D01*
X0215853Y0099068D01*
X0215515Y0099055D01*
X0215177Y0099051D01*
X0214839Y0099055D01*
X0214501Y0099068D01*
X0214163Y0099088D01*
X0213826Y0099117D01*
X0213490Y0099155D01*
X0213155Y0099200D01*
X0212821Y0099254D01*
X0212489Y0099316D01*
X0212158Y0099386D01*
X0211829Y0099464D01*
X0211502Y0099550D01*
X0211177Y0099644D01*
X0210854Y0099747D01*
X0210535Y0099857D01*
X0210218Y0099974D01*
X0209904Y0100100D01*
X0209593Y0100233D01*
X0209285Y0100374D01*
X0208981Y0100522D01*
X0208681Y0100678D01*
X0208385Y0100841D01*
X0208093Y0101011D01*
X0207805Y0101189D01*
X0207521Y0101373D01*
X0207242Y0101565D01*
X0206968Y0101763D01*
X0206699Y0101968D01*
X0206435Y0102179D01*
X0206176Y0102397D01*
X0205923Y0102621D01*
X0205675Y0102851D01*
X0205433Y0103087D01*
X0205197Y0103329D01*
X0204967Y0103577D01*
X0204743Y0103830D01*
X0204525Y0104089D01*
X0204314Y0104353D01*
X0204109Y0104622D01*
X0203911Y0104896D01*
X0203719Y0105175D01*
X0203535Y0105459D01*
X0203357Y0105747D01*
X0203187Y0106039D01*
X0203024Y0106335D01*
X0202868Y0106635D01*
X0202720Y0106939D01*
X0202579Y0107247D01*
X0202446Y0107558D01*
X0202320Y0107872D01*
X0202203Y0108189D01*
X0202093Y0108508D01*
X0201990Y0108831D01*
X0201896Y0109156D01*
X0201810Y0109483D01*
X0201732Y0109812D01*
X0201662Y0110143D01*
X0201600Y0110475D01*
X0201546Y0110809D01*
X0201501Y0111144D01*
X0201463Y0111480D01*
X0201434Y0111817D01*
X0201414Y0112155D01*
X0201401Y0112493D01*
X0201397Y0112831D01*
X0169865Y0118872D02*
X0162466Y0121565D01*
X0151367Y0125605D02*
X0147668Y0126951D01*
X0142622Y0124598D01*
X0144306Y0098021D02*
X0144310Y0098359D01*
X0144323Y0098697D01*
X0144343Y0099035D01*
X0144372Y0099372D01*
X0144410Y0099708D01*
X0144455Y0100043D01*
X0144509Y0100377D01*
X0144571Y0100709D01*
X0144641Y0101040D01*
X0144719Y0101369D01*
X0144805Y0101696D01*
X0144899Y0102021D01*
X0145002Y0102344D01*
X0145112Y0102663D01*
X0145229Y0102980D01*
X0145355Y0103294D01*
X0145488Y0103605D01*
X0145629Y0103913D01*
X0145777Y0104217D01*
X0145933Y0104517D01*
X0146096Y0104813D01*
X0146266Y0105105D01*
X0146444Y0105393D01*
X0146628Y0105677D01*
X0146820Y0105956D01*
X0147018Y0106230D01*
X0147223Y0106499D01*
X0147434Y0106763D01*
X0147652Y0107022D01*
X0147876Y0107275D01*
X0148106Y0107523D01*
X0148342Y0107765D01*
X0148584Y0108001D01*
X0148832Y0108231D01*
X0149085Y0108455D01*
X0149344Y0108673D01*
X0149608Y0108884D01*
X0149877Y0109089D01*
X0150151Y0109287D01*
X0150430Y0109479D01*
X0150714Y0109663D01*
X0151002Y0109841D01*
X0151294Y0110011D01*
X0151590Y0110174D01*
X0151890Y0110330D01*
X0152194Y0110478D01*
X0152502Y0110619D01*
X0152813Y0110752D01*
X0153127Y0110878D01*
X0153444Y0110995D01*
X0153763Y0111105D01*
X0154086Y0111208D01*
X0154411Y0111302D01*
X0154738Y0111388D01*
X0155067Y0111466D01*
X0155398Y0111536D01*
X0155730Y0111598D01*
X0156064Y0111652D01*
X0156399Y0111697D01*
X0156735Y0111735D01*
X0157072Y0111764D01*
X0157410Y0111784D01*
X0157748Y0111797D01*
X0158086Y0111801D01*
X0158424Y0111797D01*
X0158762Y0111784D01*
X0159100Y0111764D01*
X0159437Y0111735D01*
X0159773Y0111697D01*
X0160108Y0111652D01*
X0160442Y0111598D01*
X0160774Y0111536D01*
X0161105Y0111466D01*
X0161434Y0111388D01*
X0161761Y0111302D01*
X0162086Y0111208D01*
X0162409Y0111105D01*
X0162728Y0110995D01*
X0163045Y0110878D01*
X0163359Y0110752D01*
X0163670Y0110619D01*
X0163978Y0110478D01*
X0164282Y0110330D01*
X0164582Y0110174D01*
X0164878Y0110011D01*
X0165170Y0109841D01*
X0165458Y0109663D01*
X0165742Y0109479D01*
X0166021Y0109287D01*
X0166295Y0109089D01*
X0166564Y0108884D01*
X0166828Y0108673D01*
X0167087Y0108455D01*
X0167340Y0108231D01*
X0167588Y0108001D01*
X0167830Y0107765D01*
X0168066Y0107523D01*
X0168296Y0107275D01*
X0168520Y0107022D01*
X0168738Y0106763D01*
X0168949Y0106499D01*
X0169154Y0106230D01*
X0169352Y0105956D01*
X0169544Y0105677D01*
X0169728Y0105393D01*
X0169906Y0105105D01*
X0170076Y0104813D01*
X0170239Y0104517D01*
X0170395Y0104217D01*
X0170543Y0103913D01*
X0170684Y0103605D01*
X0170817Y0103294D01*
X0170943Y0102980D01*
X0171060Y0102663D01*
X0171170Y0102344D01*
X0171273Y0102021D01*
X0171367Y0101696D01*
X0171453Y0101369D01*
X0171531Y0101040D01*
X0171601Y0100709D01*
X0171663Y0100377D01*
X0171717Y0100043D01*
X0171762Y0099708D01*
X0171800Y0099372D01*
X0171829Y0099035D01*
X0171849Y0098697D01*
X0171862Y0098359D01*
X0171866Y0098021D01*
X0171862Y0097683D01*
X0171849Y0097345D01*
X0171829Y0097007D01*
X0171800Y0096670D01*
X0171762Y0096334D01*
X0171717Y0095999D01*
X0171663Y0095665D01*
X0171601Y0095333D01*
X0171531Y0095002D01*
X0171453Y0094673D01*
X0171367Y0094346D01*
X0171273Y0094021D01*
X0171170Y0093698D01*
X0171060Y0093379D01*
X0170943Y0093062D01*
X0170817Y0092748D01*
X0170684Y0092437D01*
X0170543Y0092129D01*
X0170395Y0091825D01*
X0170239Y0091525D01*
X0170076Y0091229D01*
X0169906Y0090937D01*
X0169728Y0090649D01*
X0169544Y0090365D01*
X0169352Y0090086D01*
X0169154Y0089812D01*
X0168949Y0089543D01*
X0168738Y0089279D01*
X0168520Y0089020D01*
X0168296Y0088767D01*
X0168066Y0088519D01*
X0167830Y0088277D01*
X0167588Y0088041D01*
X0167340Y0087811D01*
X0167087Y0087587D01*
X0166828Y0087369D01*
X0166564Y0087158D01*
X0166295Y0086953D01*
X0166021Y0086755D01*
X0165742Y0086563D01*
X0165458Y0086379D01*
X0165170Y0086201D01*
X0164878Y0086031D01*
X0164582Y0085868D01*
X0164282Y0085712D01*
X0163978Y0085564D01*
X0163670Y0085423D01*
X0163359Y0085290D01*
X0163045Y0085164D01*
X0162728Y0085047D01*
X0162409Y0084937D01*
X0162086Y0084834D01*
X0161761Y0084740D01*
X0161434Y0084654D01*
X0161105Y0084576D01*
X0160774Y0084506D01*
X0160442Y0084444D01*
X0160108Y0084390D01*
X0159773Y0084345D01*
X0159437Y0084307D01*
X0159100Y0084278D01*
X0158762Y0084258D01*
X0158424Y0084245D01*
X0158086Y0084241D01*
X0157748Y0084245D01*
X0157410Y0084258D01*
X0157072Y0084278D01*
X0156735Y0084307D01*
X0156399Y0084345D01*
X0156064Y0084390D01*
X0155730Y0084444D01*
X0155398Y0084506D01*
X0155067Y0084576D01*
X0154738Y0084654D01*
X0154411Y0084740D01*
X0154086Y0084834D01*
X0153763Y0084937D01*
X0153444Y0085047D01*
X0153127Y0085164D01*
X0152813Y0085290D01*
X0152502Y0085423D01*
X0152194Y0085564D01*
X0151890Y0085712D01*
X0151590Y0085868D01*
X0151294Y0086031D01*
X0151002Y0086201D01*
X0150714Y0086379D01*
X0150430Y0086563D01*
X0150151Y0086755D01*
X0149877Y0086953D01*
X0149608Y0087158D01*
X0149344Y0087369D01*
X0149085Y0087587D01*
X0148832Y0087811D01*
X0148584Y0088041D01*
X0148342Y0088277D01*
X0148106Y0088519D01*
X0147876Y0088767D01*
X0147652Y0089020D01*
X0147434Y0089279D01*
X0147223Y0089543D01*
X0147018Y0089812D01*
X0146820Y0090086D01*
X0146628Y0090365D01*
X0146444Y0090649D01*
X0146266Y0090937D01*
X0146096Y0091229D01*
X0145933Y0091525D01*
X0145777Y0091825D01*
X0145629Y0092129D01*
X0145488Y0092437D01*
X0145355Y0092748D01*
X0145229Y0093062D01*
X0145112Y0093379D01*
X0145002Y0093698D01*
X0144899Y0094021D01*
X0144805Y0094346D01*
X0144719Y0094673D01*
X0144641Y0095002D01*
X0144571Y0095333D01*
X0144509Y0095665D01*
X0144455Y0095999D01*
X0144410Y0096334D01*
X0144372Y0096670D01*
X0144343Y0097007D01*
X0144323Y0097345D01*
X0144310Y0097683D01*
X0144306Y0098021D01*
X0230019Y0034890D02*
X0237419Y0032197D01*
X0248517Y0028158D02*
X0252217Y0026811D01*
X0257263Y0029164D01*
X0270728Y0066160D01*
X0268375Y0071206D01*
X0264676Y0072553D01*
X0253577Y0076592D02*
X0246178Y0079285D01*
X0228018Y0055741D02*
X0228022Y0056079D01*
X0228035Y0056417D01*
X0228055Y0056755D01*
X0228084Y0057092D01*
X0228122Y0057428D01*
X0228167Y0057763D01*
X0228221Y0058097D01*
X0228283Y0058429D01*
X0228353Y0058760D01*
X0228431Y0059089D01*
X0228517Y0059416D01*
X0228611Y0059741D01*
X0228714Y0060064D01*
X0228824Y0060383D01*
X0228941Y0060700D01*
X0229067Y0061014D01*
X0229200Y0061325D01*
X0229341Y0061633D01*
X0229489Y0061937D01*
X0229645Y0062237D01*
X0229808Y0062533D01*
X0229978Y0062825D01*
X0230156Y0063113D01*
X0230340Y0063397D01*
X0230532Y0063676D01*
X0230730Y0063950D01*
X0230935Y0064219D01*
X0231146Y0064483D01*
X0231364Y0064742D01*
X0231588Y0064995D01*
X0231818Y0065243D01*
X0232054Y0065485D01*
X0232296Y0065721D01*
X0232544Y0065951D01*
X0232797Y0066175D01*
X0233056Y0066393D01*
X0233320Y0066604D01*
X0233589Y0066809D01*
X0233863Y0067007D01*
X0234142Y0067199D01*
X0234426Y0067383D01*
X0234714Y0067561D01*
X0235006Y0067731D01*
X0235302Y0067894D01*
X0235602Y0068050D01*
X0235906Y0068198D01*
X0236214Y0068339D01*
X0236525Y0068472D01*
X0236839Y0068598D01*
X0237156Y0068715D01*
X0237475Y0068825D01*
X0237798Y0068928D01*
X0238123Y0069022D01*
X0238450Y0069108D01*
X0238779Y0069186D01*
X0239110Y0069256D01*
X0239442Y0069318D01*
X0239776Y0069372D01*
X0240111Y0069417D01*
X0240447Y0069455D01*
X0240784Y0069484D01*
X0241122Y0069504D01*
X0241460Y0069517D01*
X0241798Y0069521D01*
X0242136Y0069517D01*
X0242474Y0069504D01*
X0242812Y0069484D01*
X0243149Y0069455D01*
X0243485Y0069417D01*
X0243820Y0069372D01*
X0244154Y0069318D01*
X0244486Y0069256D01*
X0244817Y0069186D01*
X0245146Y0069108D01*
X0245473Y0069022D01*
X0245798Y0068928D01*
X0246121Y0068825D01*
X0246440Y0068715D01*
X0246757Y0068598D01*
X0247071Y0068472D01*
X0247382Y0068339D01*
X0247690Y0068198D01*
X0247994Y0068050D01*
X0248294Y0067894D01*
X0248590Y0067731D01*
X0248882Y0067561D01*
X0249170Y0067383D01*
X0249454Y0067199D01*
X0249733Y0067007D01*
X0250007Y0066809D01*
X0250276Y0066604D01*
X0250540Y0066393D01*
X0250799Y0066175D01*
X0251052Y0065951D01*
X0251300Y0065721D01*
X0251542Y0065485D01*
X0251778Y0065243D01*
X0252008Y0064995D01*
X0252232Y0064742D01*
X0252450Y0064483D01*
X0252661Y0064219D01*
X0252866Y0063950D01*
X0253064Y0063676D01*
X0253256Y0063397D01*
X0253440Y0063113D01*
X0253618Y0062825D01*
X0253788Y0062533D01*
X0253951Y0062237D01*
X0254107Y0061937D01*
X0254255Y0061633D01*
X0254396Y0061325D01*
X0254529Y0061014D01*
X0254655Y0060700D01*
X0254772Y0060383D01*
X0254882Y0060064D01*
X0254985Y0059741D01*
X0255079Y0059416D01*
X0255165Y0059089D01*
X0255243Y0058760D01*
X0255313Y0058429D01*
X0255375Y0058097D01*
X0255429Y0057763D01*
X0255474Y0057428D01*
X0255512Y0057092D01*
X0255541Y0056755D01*
X0255561Y0056417D01*
X0255574Y0056079D01*
X0255578Y0055741D01*
X0255574Y0055403D01*
X0255561Y0055065D01*
X0255541Y0054727D01*
X0255512Y0054390D01*
X0255474Y0054054D01*
X0255429Y0053719D01*
X0255375Y0053385D01*
X0255313Y0053053D01*
X0255243Y0052722D01*
X0255165Y0052393D01*
X0255079Y0052066D01*
X0254985Y0051741D01*
X0254882Y0051418D01*
X0254772Y0051099D01*
X0254655Y0050782D01*
X0254529Y0050468D01*
X0254396Y0050157D01*
X0254255Y0049849D01*
X0254107Y0049545D01*
X0253951Y0049245D01*
X0253788Y0048949D01*
X0253618Y0048657D01*
X0253440Y0048369D01*
X0253256Y0048085D01*
X0253064Y0047806D01*
X0252866Y0047532D01*
X0252661Y0047263D01*
X0252450Y0046999D01*
X0252232Y0046740D01*
X0252008Y0046487D01*
X0251778Y0046239D01*
X0251542Y0045997D01*
X0251300Y0045761D01*
X0251052Y0045531D01*
X0250799Y0045307D01*
X0250540Y0045089D01*
X0250276Y0044878D01*
X0250007Y0044673D01*
X0249733Y0044475D01*
X0249454Y0044283D01*
X0249170Y0044099D01*
X0248882Y0043921D01*
X0248590Y0043751D01*
X0248294Y0043588D01*
X0247994Y0043432D01*
X0247690Y0043284D01*
X0247382Y0043143D01*
X0247071Y0043010D01*
X0246757Y0042884D01*
X0246440Y0042767D01*
X0246121Y0042657D01*
X0245798Y0042554D01*
X0245473Y0042460D01*
X0245146Y0042374D01*
X0244817Y0042296D01*
X0244486Y0042226D01*
X0244154Y0042164D01*
X0243820Y0042110D01*
X0243485Y0042065D01*
X0243149Y0042027D01*
X0242812Y0041998D01*
X0242474Y0041978D01*
X0242136Y0041965D01*
X0241798Y0041961D01*
X0241460Y0041965D01*
X0241122Y0041978D01*
X0240784Y0041998D01*
X0240447Y0042027D01*
X0240111Y0042065D01*
X0239776Y0042110D01*
X0239442Y0042164D01*
X0239110Y0042226D01*
X0238779Y0042296D01*
X0238450Y0042374D01*
X0238123Y0042460D01*
X0237798Y0042554D01*
X0237475Y0042657D01*
X0237156Y0042767D01*
X0236839Y0042884D01*
X0236525Y0043010D01*
X0236214Y0043143D01*
X0235906Y0043284D01*
X0235602Y0043432D01*
X0235302Y0043588D01*
X0235006Y0043751D01*
X0234714Y0043921D01*
X0234426Y0044099D01*
X0234142Y0044283D01*
X0233863Y0044475D01*
X0233589Y0044673D01*
X0233320Y0044878D01*
X0233056Y0045089D01*
X0232797Y0045307D01*
X0232544Y0045531D01*
X0232296Y0045761D01*
X0232054Y0045997D01*
X0231818Y0046239D01*
X0231588Y0046487D01*
X0231364Y0046740D01*
X0231146Y0046999D01*
X0230935Y0047263D01*
X0230730Y0047532D01*
X0230532Y0047806D01*
X0230340Y0048085D01*
X0230156Y0048369D01*
X0229978Y0048657D01*
X0229808Y0048949D01*
X0229645Y0049245D01*
X0229489Y0049545D01*
X0229341Y0049849D01*
X0229200Y0050157D01*
X0229067Y0050468D01*
X0228941Y0050782D01*
X0228824Y0051099D01*
X0228714Y0051418D01*
X0228611Y0051741D01*
X0228517Y0052066D01*
X0228431Y0052393D01*
X0228353Y0052722D01*
X0228283Y0053053D01*
X0228221Y0053385D01*
X0228167Y0053719D01*
X0228122Y0054054D01*
X0228084Y0054390D01*
X0228055Y0054727D01*
X0228035Y0055065D01*
X0228022Y0055403D01*
X0228018Y0055741D01*
D154*
X0217910Y0045153D02*
X0217912Y0045222D01*
X0217918Y0045290D01*
X0217928Y0045358D01*
X0217942Y0045425D01*
X0217960Y0045492D01*
X0217981Y0045557D01*
X0218007Y0045621D01*
X0218036Y0045683D01*
X0218068Y0045743D01*
X0218104Y0045802D01*
X0218144Y0045858D01*
X0218186Y0045912D01*
X0218232Y0045963D01*
X0218281Y0046012D01*
X0218332Y0046058D01*
X0218386Y0046100D01*
X0218442Y0046140D01*
X0218500Y0046176D01*
X0218561Y0046208D01*
X0218623Y0046237D01*
X0218687Y0046263D01*
X0218752Y0046284D01*
X0218819Y0046302D01*
X0218886Y0046316D01*
X0218954Y0046326D01*
X0219022Y0046332D01*
X0219091Y0046334D01*
X0219160Y0046332D01*
X0219228Y0046326D01*
X0219296Y0046316D01*
X0219363Y0046302D01*
X0219430Y0046284D01*
X0219495Y0046263D01*
X0219559Y0046237D01*
X0219621Y0046208D01*
X0219681Y0046176D01*
X0219740Y0046140D01*
X0219796Y0046100D01*
X0219850Y0046058D01*
X0219901Y0046012D01*
X0219950Y0045963D01*
X0219996Y0045912D01*
X0220038Y0045858D01*
X0220078Y0045802D01*
X0220114Y0045743D01*
X0220146Y0045683D01*
X0220175Y0045621D01*
X0220201Y0045557D01*
X0220222Y0045492D01*
X0220240Y0045425D01*
X0220254Y0045358D01*
X0220264Y0045290D01*
X0220270Y0045222D01*
X0220272Y0045153D01*
X0220270Y0045084D01*
X0220264Y0045016D01*
X0220254Y0044948D01*
X0220240Y0044881D01*
X0220222Y0044814D01*
X0220201Y0044749D01*
X0220175Y0044685D01*
X0220146Y0044623D01*
X0220114Y0044562D01*
X0220078Y0044504D01*
X0220038Y0044448D01*
X0219996Y0044394D01*
X0219950Y0044343D01*
X0219901Y0044294D01*
X0219850Y0044248D01*
X0219796Y0044206D01*
X0219740Y0044166D01*
X0219682Y0044130D01*
X0219621Y0044098D01*
X0219559Y0044069D01*
X0219495Y0044043D01*
X0219430Y0044022D01*
X0219363Y0044004D01*
X0219296Y0043990D01*
X0219228Y0043980D01*
X0219160Y0043974D01*
X0219091Y0043972D01*
X0219022Y0043974D01*
X0218954Y0043980D01*
X0218886Y0043990D01*
X0218819Y0044004D01*
X0218752Y0044022D01*
X0218687Y0044043D01*
X0218623Y0044069D01*
X0218561Y0044098D01*
X0218500Y0044130D01*
X0218442Y0044166D01*
X0218386Y0044206D01*
X0218332Y0044248D01*
X0218281Y0044294D01*
X0218232Y0044343D01*
X0218186Y0044394D01*
X0218144Y0044448D01*
X0218104Y0044504D01*
X0218068Y0044562D01*
X0218036Y0044623D01*
X0218007Y0044685D01*
X0217981Y0044749D01*
X0217960Y0044814D01*
X0217942Y0044881D01*
X0217928Y0044948D01*
X0217918Y0045016D01*
X0217912Y0045084D01*
X0217910Y0045153D01*
X0206234Y0051519D02*
X0206236Y0051588D01*
X0206242Y0051656D01*
X0206252Y0051724D01*
X0206266Y0051791D01*
X0206284Y0051858D01*
X0206305Y0051923D01*
X0206331Y0051987D01*
X0206360Y0052049D01*
X0206392Y0052109D01*
X0206428Y0052168D01*
X0206468Y0052224D01*
X0206510Y0052278D01*
X0206556Y0052329D01*
X0206605Y0052378D01*
X0206656Y0052424D01*
X0206710Y0052466D01*
X0206766Y0052506D01*
X0206824Y0052542D01*
X0206885Y0052574D01*
X0206947Y0052603D01*
X0207011Y0052629D01*
X0207076Y0052650D01*
X0207143Y0052668D01*
X0207210Y0052682D01*
X0207278Y0052692D01*
X0207346Y0052698D01*
X0207415Y0052700D01*
X0207484Y0052698D01*
X0207552Y0052692D01*
X0207620Y0052682D01*
X0207687Y0052668D01*
X0207754Y0052650D01*
X0207819Y0052629D01*
X0207883Y0052603D01*
X0207945Y0052574D01*
X0208005Y0052542D01*
X0208064Y0052506D01*
X0208120Y0052466D01*
X0208174Y0052424D01*
X0208225Y0052378D01*
X0208274Y0052329D01*
X0208320Y0052278D01*
X0208362Y0052224D01*
X0208402Y0052168D01*
X0208438Y0052109D01*
X0208470Y0052049D01*
X0208499Y0051987D01*
X0208525Y0051923D01*
X0208546Y0051858D01*
X0208564Y0051791D01*
X0208578Y0051724D01*
X0208588Y0051656D01*
X0208594Y0051588D01*
X0208596Y0051519D01*
X0208594Y0051450D01*
X0208588Y0051382D01*
X0208578Y0051314D01*
X0208564Y0051247D01*
X0208546Y0051180D01*
X0208525Y0051115D01*
X0208499Y0051051D01*
X0208470Y0050989D01*
X0208438Y0050928D01*
X0208402Y0050870D01*
X0208362Y0050814D01*
X0208320Y0050760D01*
X0208274Y0050709D01*
X0208225Y0050660D01*
X0208174Y0050614D01*
X0208120Y0050572D01*
X0208064Y0050532D01*
X0208006Y0050496D01*
X0207945Y0050464D01*
X0207883Y0050435D01*
X0207819Y0050409D01*
X0207754Y0050388D01*
X0207687Y0050370D01*
X0207620Y0050356D01*
X0207552Y0050346D01*
X0207484Y0050340D01*
X0207415Y0050338D01*
X0207346Y0050340D01*
X0207278Y0050346D01*
X0207210Y0050356D01*
X0207143Y0050370D01*
X0207076Y0050388D01*
X0207011Y0050409D01*
X0206947Y0050435D01*
X0206885Y0050464D01*
X0206824Y0050496D01*
X0206766Y0050532D01*
X0206710Y0050572D01*
X0206656Y0050614D01*
X0206605Y0050660D01*
X0206556Y0050709D01*
X0206510Y0050760D01*
X0206468Y0050814D01*
X0206428Y0050870D01*
X0206392Y0050928D01*
X0206360Y0050989D01*
X0206331Y0051051D01*
X0206305Y0051115D01*
X0206284Y0051180D01*
X0206266Y0051247D01*
X0206252Y0051314D01*
X0206242Y0051382D01*
X0206236Y0051450D01*
X0206234Y0051519D01*
X0230028Y0078449D02*
X0230030Y0078518D01*
X0230036Y0078586D01*
X0230046Y0078654D01*
X0230060Y0078721D01*
X0230078Y0078788D01*
X0230099Y0078853D01*
X0230125Y0078917D01*
X0230154Y0078979D01*
X0230186Y0079039D01*
X0230222Y0079098D01*
X0230262Y0079154D01*
X0230304Y0079208D01*
X0230350Y0079259D01*
X0230399Y0079308D01*
X0230450Y0079354D01*
X0230504Y0079396D01*
X0230560Y0079436D01*
X0230618Y0079472D01*
X0230679Y0079504D01*
X0230741Y0079533D01*
X0230805Y0079559D01*
X0230870Y0079580D01*
X0230937Y0079598D01*
X0231004Y0079612D01*
X0231072Y0079622D01*
X0231140Y0079628D01*
X0231209Y0079630D01*
X0231278Y0079628D01*
X0231346Y0079622D01*
X0231414Y0079612D01*
X0231481Y0079598D01*
X0231548Y0079580D01*
X0231613Y0079559D01*
X0231677Y0079533D01*
X0231739Y0079504D01*
X0231799Y0079472D01*
X0231858Y0079436D01*
X0231914Y0079396D01*
X0231968Y0079354D01*
X0232019Y0079308D01*
X0232068Y0079259D01*
X0232114Y0079208D01*
X0232156Y0079154D01*
X0232196Y0079098D01*
X0232232Y0079039D01*
X0232264Y0078979D01*
X0232293Y0078917D01*
X0232319Y0078853D01*
X0232340Y0078788D01*
X0232358Y0078721D01*
X0232372Y0078654D01*
X0232382Y0078586D01*
X0232388Y0078518D01*
X0232390Y0078449D01*
X0232388Y0078380D01*
X0232382Y0078312D01*
X0232372Y0078244D01*
X0232358Y0078177D01*
X0232340Y0078110D01*
X0232319Y0078045D01*
X0232293Y0077981D01*
X0232264Y0077919D01*
X0232232Y0077858D01*
X0232196Y0077800D01*
X0232156Y0077744D01*
X0232114Y0077690D01*
X0232068Y0077639D01*
X0232019Y0077590D01*
X0231968Y0077544D01*
X0231914Y0077502D01*
X0231858Y0077462D01*
X0231800Y0077426D01*
X0231739Y0077394D01*
X0231677Y0077365D01*
X0231613Y0077339D01*
X0231548Y0077318D01*
X0231481Y0077300D01*
X0231414Y0077286D01*
X0231346Y0077276D01*
X0231278Y0077270D01*
X0231209Y0077268D01*
X0231140Y0077270D01*
X0231072Y0077276D01*
X0231004Y0077286D01*
X0230937Y0077300D01*
X0230870Y0077318D01*
X0230805Y0077339D01*
X0230741Y0077365D01*
X0230679Y0077394D01*
X0230618Y0077426D01*
X0230560Y0077462D01*
X0230504Y0077502D01*
X0230450Y0077544D01*
X0230399Y0077590D01*
X0230350Y0077639D01*
X0230304Y0077690D01*
X0230262Y0077744D01*
X0230222Y0077800D01*
X0230186Y0077858D01*
X0230154Y0077919D01*
X0230125Y0077981D01*
X0230099Y0078045D01*
X0230078Y0078110D01*
X0230060Y0078177D01*
X0230046Y0078244D01*
X0230036Y0078312D01*
X0230030Y0078380D01*
X0230028Y0078449D01*
X0224584Y0090124D02*
X0224586Y0090193D01*
X0224592Y0090261D01*
X0224602Y0090329D01*
X0224616Y0090396D01*
X0224634Y0090463D01*
X0224655Y0090528D01*
X0224681Y0090592D01*
X0224710Y0090654D01*
X0224742Y0090714D01*
X0224778Y0090773D01*
X0224818Y0090829D01*
X0224860Y0090883D01*
X0224906Y0090934D01*
X0224955Y0090983D01*
X0225006Y0091029D01*
X0225060Y0091071D01*
X0225116Y0091111D01*
X0225174Y0091147D01*
X0225235Y0091179D01*
X0225297Y0091208D01*
X0225361Y0091234D01*
X0225426Y0091255D01*
X0225493Y0091273D01*
X0225560Y0091287D01*
X0225628Y0091297D01*
X0225696Y0091303D01*
X0225765Y0091305D01*
X0225834Y0091303D01*
X0225902Y0091297D01*
X0225970Y0091287D01*
X0226037Y0091273D01*
X0226104Y0091255D01*
X0226169Y0091234D01*
X0226233Y0091208D01*
X0226295Y0091179D01*
X0226355Y0091147D01*
X0226414Y0091111D01*
X0226470Y0091071D01*
X0226524Y0091029D01*
X0226575Y0090983D01*
X0226624Y0090934D01*
X0226670Y0090883D01*
X0226712Y0090829D01*
X0226752Y0090773D01*
X0226788Y0090714D01*
X0226820Y0090654D01*
X0226849Y0090592D01*
X0226875Y0090528D01*
X0226896Y0090463D01*
X0226914Y0090396D01*
X0226928Y0090329D01*
X0226938Y0090261D01*
X0226944Y0090193D01*
X0226946Y0090124D01*
X0226944Y0090055D01*
X0226938Y0089987D01*
X0226928Y0089919D01*
X0226914Y0089852D01*
X0226896Y0089785D01*
X0226875Y0089720D01*
X0226849Y0089656D01*
X0226820Y0089594D01*
X0226788Y0089533D01*
X0226752Y0089475D01*
X0226712Y0089419D01*
X0226670Y0089365D01*
X0226624Y0089314D01*
X0226575Y0089265D01*
X0226524Y0089219D01*
X0226470Y0089177D01*
X0226414Y0089137D01*
X0226356Y0089101D01*
X0226295Y0089069D01*
X0226233Y0089040D01*
X0226169Y0089014D01*
X0226104Y0088993D01*
X0226037Y0088975D01*
X0225970Y0088961D01*
X0225902Y0088951D01*
X0225834Y0088945D01*
X0225765Y0088943D01*
X0225696Y0088945D01*
X0225628Y0088951D01*
X0225560Y0088961D01*
X0225493Y0088975D01*
X0225426Y0088993D01*
X0225361Y0089014D01*
X0225297Y0089040D01*
X0225235Y0089069D01*
X0225174Y0089101D01*
X0225116Y0089137D01*
X0225060Y0089177D01*
X0225006Y0089219D01*
X0224955Y0089265D01*
X0224906Y0089314D01*
X0224860Y0089365D01*
X0224818Y0089419D01*
X0224778Y0089475D01*
X0224742Y0089533D01*
X0224710Y0089594D01*
X0224681Y0089656D01*
X0224655Y0089720D01*
X0224634Y0089785D01*
X0224616Y0089852D01*
X0224602Y0089919D01*
X0224592Y0089987D01*
X0224586Y0090055D01*
X0224584Y0090124D01*
X0236703Y0123420D02*
X0236705Y0123489D01*
X0236711Y0123557D01*
X0236721Y0123625D01*
X0236735Y0123692D01*
X0236753Y0123759D01*
X0236774Y0123824D01*
X0236800Y0123888D01*
X0236829Y0123950D01*
X0236861Y0124010D01*
X0236897Y0124069D01*
X0236937Y0124125D01*
X0236979Y0124179D01*
X0237025Y0124230D01*
X0237074Y0124279D01*
X0237125Y0124325D01*
X0237179Y0124367D01*
X0237235Y0124407D01*
X0237293Y0124443D01*
X0237354Y0124475D01*
X0237416Y0124504D01*
X0237480Y0124530D01*
X0237545Y0124551D01*
X0237612Y0124569D01*
X0237679Y0124583D01*
X0237747Y0124593D01*
X0237815Y0124599D01*
X0237884Y0124601D01*
X0237953Y0124599D01*
X0238021Y0124593D01*
X0238089Y0124583D01*
X0238156Y0124569D01*
X0238223Y0124551D01*
X0238288Y0124530D01*
X0238352Y0124504D01*
X0238414Y0124475D01*
X0238474Y0124443D01*
X0238533Y0124407D01*
X0238589Y0124367D01*
X0238643Y0124325D01*
X0238694Y0124279D01*
X0238743Y0124230D01*
X0238789Y0124179D01*
X0238831Y0124125D01*
X0238871Y0124069D01*
X0238907Y0124010D01*
X0238939Y0123950D01*
X0238968Y0123888D01*
X0238994Y0123824D01*
X0239015Y0123759D01*
X0239033Y0123692D01*
X0239047Y0123625D01*
X0239057Y0123557D01*
X0239063Y0123489D01*
X0239065Y0123420D01*
X0239063Y0123351D01*
X0239057Y0123283D01*
X0239047Y0123215D01*
X0239033Y0123148D01*
X0239015Y0123081D01*
X0238994Y0123016D01*
X0238968Y0122952D01*
X0238939Y0122890D01*
X0238907Y0122829D01*
X0238871Y0122771D01*
X0238831Y0122715D01*
X0238789Y0122661D01*
X0238743Y0122610D01*
X0238694Y0122561D01*
X0238643Y0122515D01*
X0238589Y0122473D01*
X0238533Y0122433D01*
X0238475Y0122397D01*
X0238414Y0122365D01*
X0238352Y0122336D01*
X0238288Y0122310D01*
X0238223Y0122289D01*
X0238156Y0122271D01*
X0238089Y0122257D01*
X0238021Y0122247D01*
X0237953Y0122241D01*
X0237884Y0122239D01*
X0237815Y0122241D01*
X0237747Y0122247D01*
X0237679Y0122257D01*
X0237612Y0122271D01*
X0237545Y0122289D01*
X0237480Y0122310D01*
X0237416Y0122336D01*
X0237354Y0122365D01*
X0237293Y0122397D01*
X0237235Y0122433D01*
X0237179Y0122473D01*
X0237125Y0122515D01*
X0237074Y0122561D01*
X0237025Y0122610D01*
X0236979Y0122661D01*
X0236937Y0122715D01*
X0236897Y0122771D01*
X0236861Y0122829D01*
X0236829Y0122890D01*
X0236800Y0122952D01*
X0236774Y0123016D01*
X0236753Y0123081D01*
X0236735Y0123148D01*
X0236721Y0123215D01*
X0236711Y0123283D01*
X0236705Y0123351D01*
X0236703Y0123420D01*
X0203407Y0135539D02*
X0203409Y0135608D01*
X0203415Y0135676D01*
X0203425Y0135744D01*
X0203439Y0135811D01*
X0203457Y0135878D01*
X0203478Y0135943D01*
X0203504Y0136007D01*
X0203533Y0136069D01*
X0203565Y0136129D01*
X0203601Y0136188D01*
X0203641Y0136244D01*
X0203683Y0136298D01*
X0203729Y0136349D01*
X0203778Y0136398D01*
X0203829Y0136444D01*
X0203883Y0136486D01*
X0203939Y0136526D01*
X0203997Y0136562D01*
X0204058Y0136594D01*
X0204120Y0136623D01*
X0204184Y0136649D01*
X0204249Y0136670D01*
X0204316Y0136688D01*
X0204383Y0136702D01*
X0204451Y0136712D01*
X0204519Y0136718D01*
X0204588Y0136720D01*
X0204657Y0136718D01*
X0204725Y0136712D01*
X0204793Y0136702D01*
X0204860Y0136688D01*
X0204927Y0136670D01*
X0204992Y0136649D01*
X0205056Y0136623D01*
X0205118Y0136594D01*
X0205178Y0136562D01*
X0205237Y0136526D01*
X0205293Y0136486D01*
X0205347Y0136444D01*
X0205398Y0136398D01*
X0205447Y0136349D01*
X0205493Y0136298D01*
X0205535Y0136244D01*
X0205575Y0136188D01*
X0205611Y0136129D01*
X0205643Y0136069D01*
X0205672Y0136007D01*
X0205698Y0135943D01*
X0205719Y0135878D01*
X0205737Y0135811D01*
X0205751Y0135744D01*
X0205761Y0135676D01*
X0205767Y0135608D01*
X0205769Y0135539D01*
X0205767Y0135470D01*
X0205761Y0135402D01*
X0205751Y0135334D01*
X0205737Y0135267D01*
X0205719Y0135200D01*
X0205698Y0135135D01*
X0205672Y0135071D01*
X0205643Y0135009D01*
X0205611Y0134948D01*
X0205575Y0134890D01*
X0205535Y0134834D01*
X0205493Y0134780D01*
X0205447Y0134729D01*
X0205398Y0134680D01*
X0205347Y0134634D01*
X0205293Y0134592D01*
X0205237Y0134552D01*
X0205179Y0134516D01*
X0205118Y0134484D01*
X0205056Y0134455D01*
X0204992Y0134429D01*
X0204927Y0134408D01*
X0204860Y0134390D01*
X0204793Y0134376D01*
X0204725Y0134366D01*
X0204657Y0134360D01*
X0204588Y0134358D01*
X0204519Y0134360D01*
X0204451Y0134366D01*
X0204383Y0134376D01*
X0204316Y0134390D01*
X0204249Y0134408D01*
X0204184Y0134429D01*
X0204120Y0134455D01*
X0204058Y0134484D01*
X0203997Y0134516D01*
X0203939Y0134552D01*
X0203883Y0134592D01*
X0203829Y0134634D01*
X0203778Y0134680D01*
X0203729Y0134729D01*
X0203683Y0134780D01*
X0203641Y0134834D01*
X0203601Y0134890D01*
X0203565Y0134948D01*
X0203533Y0135009D01*
X0203504Y0135071D01*
X0203478Y0135135D01*
X0203457Y0135200D01*
X0203439Y0135267D01*
X0203425Y0135334D01*
X0203415Y0135402D01*
X0203409Y0135470D01*
X0203407Y0135539D01*
X0179613Y0108610D02*
X0179615Y0108679D01*
X0179621Y0108747D01*
X0179631Y0108815D01*
X0179645Y0108882D01*
X0179663Y0108949D01*
X0179684Y0109014D01*
X0179710Y0109078D01*
X0179739Y0109140D01*
X0179771Y0109200D01*
X0179807Y0109259D01*
X0179847Y0109315D01*
X0179889Y0109369D01*
X0179935Y0109420D01*
X0179984Y0109469D01*
X0180035Y0109515D01*
X0180089Y0109557D01*
X0180145Y0109597D01*
X0180203Y0109633D01*
X0180264Y0109665D01*
X0180326Y0109694D01*
X0180390Y0109720D01*
X0180455Y0109741D01*
X0180522Y0109759D01*
X0180589Y0109773D01*
X0180657Y0109783D01*
X0180725Y0109789D01*
X0180794Y0109791D01*
X0180863Y0109789D01*
X0180931Y0109783D01*
X0180999Y0109773D01*
X0181066Y0109759D01*
X0181133Y0109741D01*
X0181198Y0109720D01*
X0181262Y0109694D01*
X0181324Y0109665D01*
X0181384Y0109633D01*
X0181443Y0109597D01*
X0181499Y0109557D01*
X0181553Y0109515D01*
X0181604Y0109469D01*
X0181653Y0109420D01*
X0181699Y0109369D01*
X0181741Y0109315D01*
X0181781Y0109259D01*
X0181817Y0109200D01*
X0181849Y0109140D01*
X0181878Y0109078D01*
X0181904Y0109014D01*
X0181925Y0108949D01*
X0181943Y0108882D01*
X0181957Y0108815D01*
X0181967Y0108747D01*
X0181973Y0108679D01*
X0181975Y0108610D01*
X0181973Y0108541D01*
X0181967Y0108473D01*
X0181957Y0108405D01*
X0181943Y0108338D01*
X0181925Y0108271D01*
X0181904Y0108206D01*
X0181878Y0108142D01*
X0181849Y0108080D01*
X0181817Y0108019D01*
X0181781Y0107961D01*
X0181741Y0107905D01*
X0181699Y0107851D01*
X0181653Y0107800D01*
X0181604Y0107751D01*
X0181553Y0107705D01*
X0181499Y0107663D01*
X0181443Y0107623D01*
X0181385Y0107587D01*
X0181324Y0107555D01*
X0181262Y0107526D01*
X0181198Y0107500D01*
X0181133Y0107479D01*
X0181066Y0107461D01*
X0180999Y0107447D01*
X0180931Y0107437D01*
X0180863Y0107431D01*
X0180794Y0107429D01*
X0180725Y0107431D01*
X0180657Y0107437D01*
X0180589Y0107447D01*
X0180522Y0107461D01*
X0180455Y0107479D01*
X0180390Y0107500D01*
X0180326Y0107526D01*
X0180264Y0107555D01*
X0180203Y0107587D01*
X0180145Y0107623D01*
X0180089Y0107663D01*
X0180035Y0107705D01*
X0179984Y0107751D01*
X0179935Y0107800D01*
X0179889Y0107851D01*
X0179847Y0107905D01*
X0179807Y0107961D01*
X0179771Y0108019D01*
X0179739Y0108080D01*
X0179710Y0108142D01*
X0179684Y0108206D01*
X0179663Y0108271D01*
X0179645Y0108338D01*
X0179631Y0108405D01*
X0179621Y0108473D01*
X0179615Y0108541D01*
X0179613Y0108610D01*
X0191288Y0102243D02*
X0191290Y0102312D01*
X0191296Y0102380D01*
X0191306Y0102448D01*
X0191320Y0102515D01*
X0191338Y0102582D01*
X0191359Y0102647D01*
X0191385Y0102711D01*
X0191414Y0102773D01*
X0191446Y0102833D01*
X0191482Y0102892D01*
X0191522Y0102948D01*
X0191564Y0103002D01*
X0191610Y0103053D01*
X0191659Y0103102D01*
X0191710Y0103148D01*
X0191764Y0103190D01*
X0191820Y0103230D01*
X0191878Y0103266D01*
X0191939Y0103298D01*
X0192001Y0103327D01*
X0192065Y0103353D01*
X0192130Y0103374D01*
X0192197Y0103392D01*
X0192264Y0103406D01*
X0192332Y0103416D01*
X0192400Y0103422D01*
X0192469Y0103424D01*
X0192538Y0103422D01*
X0192606Y0103416D01*
X0192674Y0103406D01*
X0192741Y0103392D01*
X0192808Y0103374D01*
X0192873Y0103353D01*
X0192937Y0103327D01*
X0192999Y0103298D01*
X0193059Y0103266D01*
X0193118Y0103230D01*
X0193174Y0103190D01*
X0193228Y0103148D01*
X0193279Y0103102D01*
X0193328Y0103053D01*
X0193374Y0103002D01*
X0193416Y0102948D01*
X0193456Y0102892D01*
X0193492Y0102833D01*
X0193524Y0102773D01*
X0193553Y0102711D01*
X0193579Y0102647D01*
X0193600Y0102582D01*
X0193618Y0102515D01*
X0193632Y0102448D01*
X0193642Y0102380D01*
X0193648Y0102312D01*
X0193650Y0102243D01*
X0193648Y0102174D01*
X0193642Y0102106D01*
X0193632Y0102038D01*
X0193618Y0101971D01*
X0193600Y0101904D01*
X0193579Y0101839D01*
X0193553Y0101775D01*
X0193524Y0101713D01*
X0193492Y0101652D01*
X0193456Y0101594D01*
X0193416Y0101538D01*
X0193374Y0101484D01*
X0193328Y0101433D01*
X0193279Y0101384D01*
X0193228Y0101338D01*
X0193174Y0101296D01*
X0193118Y0101256D01*
X0193060Y0101220D01*
X0192999Y0101188D01*
X0192937Y0101159D01*
X0192873Y0101133D01*
X0192808Y0101112D01*
X0192741Y0101094D01*
X0192674Y0101080D01*
X0192606Y0101070D01*
X0192538Y0101064D01*
X0192469Y0101062D01*
X0192400Y0101064D01*
X0192332Y0101070D01*
X0192264Y0101080D01*
X0192197Y0101094D01*
X0192130Y0101112D01*
X0192065Y0101133D01*
X0192001Y0101159D01*
X0191939Y0101188D01*
X0191878Y0101220D01*
X0191820Y0101256D01*
X0191764Y0101296D01*
X0191710Y0101338D01*
X0191659Y0101384D01*
X0191610Y0101433D01*
X0191564Y0101484D01*
X0191522Y0101538D01*
X0191482Y0101594D01*
X0191446Y0101652D01*
X0191414Y0101713D01*
X0191385Y0101775D01*
X0191359Y0101839D01*
X0191338Y0101904D01*
X0191320Y0101971D01*
X0191306Y0102038D01*
X0191296Y0102106D01*
X0191290Y0102174D01*
X0191288Y0102243D01*
X0167494Y0075313D02*
X0167496Y0075382D01*
X0167502Y0075450D01*
X0167512Y0075518D01*
X0167526Y0075585D01*
X0167544Y0075652D01*
X0167565Y0075717D01*
X0167591Y0075781D01*
X0167620Y0075843D01*
X0167652Y0075903D01*
X0167688Y0075962D01*
X0167728Y0076018D01*
X0167770Y0076072D01*
X0167816Y0076123D01*
X0167865Y0076172D01*
X0167916Y0076218D01*
X0167970Y0076260D01*
X0168026Y0076300D01*
X0168084Y0076336D01*
X0168145Y0076368D01*
X0168207Y0076397D01*
X0168271Y0076423D01*
X0168336Y0076444D01*
X0168403Y0076462D01*
X0168470Y0076476D01*
X0168538Y0076486D01*
X0168606Y0076492D01*
X0168675Y0076494D01*
X0168744Y0076492D01*
X0168812Y0076486D01*
X0168880Y0076476D01*
X0168947Y0076462D01*
X0169014Y0076444D01*
X0169079Y0076423D01*
X0169143Y0076397D01*
X0169205Y0076368D01*
X0169265Y0076336D01*
X0169324Y0076300D01*
X0169380Y0076260D01*
X0169434Y0076218D01*
X0169485Y0076172D01*
X0169534Y0076123D01*
X0169580Y0076072D01*
X0169622Y0076018D01*
X0169662Y0075962D01*
X0169698Y0075903D01*
X0169730Y0075843D01*
X0169759Y0075781D01*
X0169785Y0075717D01*
X0169806Y0075652D01*
X0169824Y0075585D01*
X0169838Y0075518D01*
X0169848Y0075450D01*
X0169854Y0075382D01*
X0169856Y0075313D01*
X0169854Y0075244D01*
X0169848Y0075176D01*
X0169838Y0075108D01*
X0169824Y0075041D01*
X0169806Y0074974D01*
X0169785Y0074909D01*
X0169759Y0074845D01*
X0169730Y0074783D01*
X0169698Y0074722D01*
X0169662Y0074664D01*
X0169622Y0074608D01*
X0169580Y0074554D01*
X0169534Y0074503D01*
X0169485Y0074454D01*
X0169434Y0074408D01*
X0169380Y0074366D01*
X0169324Y0074326D01*
X0169266Y0074290D01*
X0169205Y0074258D01*
X0169143Y0074229D01*
X0169079Y0074203D01*
X0169014Y0074182D01*
X0168947Y0074164D01*
X0168880Y0074150D01*
X0168812Y0074140D01*
X0168744Y0074134D01*
X0168675Y0074132D01*
X0168606Y0074134D01*
X0168538Y0074140D01*
X0168470Y0074150D01*
X0168403Y0074164D01*
X0168336Y0074182D01*
X0168271Y0074203D01*
X0168207Y0074229D01*
X0168145Y0074258D01*
X0168084Y0074290D01*
X0168026Y0074326D01*
X0167970Y0074366D01*
X0167916Y0074408D01*
X0167865Y0074454D01*
X0167816Y0074503D01*
X0167770Y0074554D01*
X0167728Y0074608D01*
X0167688Y0074664D01*
X0167652Y0074722D01*
X0167620Y0074783D01*
X0167591Y0074845D01*
X0167565Y0074909D01*
X0167544Y0074974D01*
X0167526Y0075041D01*
X0167512Y0075108D01*
X0167502Y0075176D01*
X0167496Y0075244D01*
X0167494Y0075313D01*
X0172938Y0063638D02*
X0172940Y0063707D01*
X0172946Y0063775D01*
X0172956Y0063843D01*
X0172970Y0063910D01*
X0172988Y0063977D01*
X0173009Y0064042D01*
X0173035Y0064106D01*
X0173064Y0064168D01*
X0173096Y0064228D01*
X0173132Y0064287D01*
X0173172Y0064343D01*
X0173214Y0064397D01*
X0173260Y0064448D01*
X0173309Y0064497D01*
X0173360Y0064543D01*
X0173414Y0064585D01*
X0173470Y0064625D01*
X0173528Y0064661D01*
X0173589Y0064693D01*
X0173651Y0064722D01*
X0173715Y0064748D01*
X0173780Y0064769D01*
X0173847Y0064787D01*
X0173914Y0064801D01*
X0173982Y0064811D01*
X0174050Y0064817D01*
X0174119Y0064819D01*
X0174188Y0064817D01*
X0174256Y0064811D01*
X0174324Y0064801D01*
X0174391Y0064787D01*
X0174458Y0064769D01*
X0174523Y0064748D01*
X0174587Y0064722D01*
X0174649Y0064693D01*
X0174709Y0064661D01*
X0174768Y0064625D01*
X0174824Y0064585D01*
X0174878Y0064543D01*
X0174929Y0064497D01*
X0174978Y0064448D01*
X0175024Y0064397D01*
X0175066Y0064343D01*
X0175106Y0064287D01*
X0175142Y0064228D01*
X0175174Y0064168D01*
X0175203Y0064106D01*
X0175229Y0064042D01*
X0175250Y0063977D01*
X0175268Y0063910D01*
X0175282Y0063843D01*
X0175292Y0063775D01*
X0175298Y0063707D01*
X0175300Y0063638D01*
X0175298Y0063569D01*
X0175292Y0063501D01*
X0175282Y0063433D01*
X0175268Y0063366D01*
X0175250Y0063299D01*
X0175229Y0063234D01*
X0175203Y0063170D01*
X0175174Y0063108D01*
X0175142Y0063047D01*
X0175106Y0062989D01*
X0175066Y0062933D01*
X0175024Y0062879D01*
X0174978Y0062828D01*
X0174929Y0062779D01*
X0174878Y0062733D01*
X0174824Y0062691D01*
X0174768Y0062651D01*
X0174710Y0062615D01*
X0174649Y0062583D01*
X0174587Y0062554D01*
X0174523Y0062528D01*
X0174458Y0062507D01*
X0174391Y0062489D01*
X0174324Y0062475D01*
X0174256Y0062465D01*
X0174188Y0062459D01*
X0174119Y0062457D01*
X0174050Y0062459D01*
X0173982Y0062465D01*
X0173914Y0062475D01*
X0173847Y0062489D01*
X0173780Y0062507D01*
X0173715Y0062528D01*
X0173651Y0062554D01*
X0173589Y0062583D01*
X0173528Y0062615D01*
X0173470Y0062651D01*
X0173414Y0062691D01*
X0173360Y0062733D01*
X0173309Y0062779D01*
X0173260Y0062828D01*
X0173214Y0062879D01*
X0173172Y0062933D01*
X0173132Y0062989D01*
X0173096Y0063047D01*
X0173064Y0063108D01*
X0173035Y0063170D01*
X0173009Y0063234D01*
X0172988Y0063299D01*
X0172970Y0063366D01*
X0172956Y0063433D01*
X0172946Y0063501D01*
X0172940Y0063569D01*
X0172938Y0063638D01*
X0160819Y0030342D02*
X0160821Y0030411D01*
X0160827Y0030479D01*
X0160837Y0030547D01*
X0160851Y0030614D01*
X0160869Y0030681D01*
X0160890Y0030746D01*
X0160916Y0030810D01*
X0160945Y0030872D01*
X0160977Y0030932D01*
X0161013Y0030991D01*
X0161053Y0031047D01*
X0161095Y0031101D01*
X0161141Y0031152D01*
X0161190Y0031201D01*
X0161241Y0031247D01*
X0161295Y0031289D01*
X0161351Y0031329D01*
X0161409Y0031365D01*
X0161470Y0031397D01*
X0161532Y0031426D01*
X0161596Y0031452D01*
X0161661Y0031473D01*
X0161728Y0031491D01*
X0161795Y0031505D01*
X0161863Y0031515D01*
X0161931Y0031521D01*
X0162000Y0031523D01*
X0162069Y0031521D01*
X0162137Y0031515D01*
X0162205Y0031505D01*
X0162272Y0031491D01*
X0162339Y0031473D01*
X0162404Y0031452D01*
X0162468Y0031426D01*
X0162530Y0031397D01*
X0162590Y0031365D01*
X0162649Y0031329D01*
X0162705Y0031289D01*
X0162759Y0031247D01*
X0162810Y0031201D01*
X0162859Y0031152D01*
X0162905Y0031101D01*
X0162947Y0031047D01*
X0162987Y0030991D01*
X0163023Y0030932D01*
X0163055Y0030872D01*
X0163084Y0030810D01*
X0163110Y0030746D01*
X0163131Y0030681D01*
X0163149Y0030614D01*
X0163163Y0030547D01*
X0163173Y0030479D01*
X0163179Y0030411D01*
X0163181Y0030342D01*
X0163179Y0030273D01*
X0163173Y0030205D01*
X0163163Y0030137D01*
X0163149Y0030070D01*
X0163131Y0030003D01*
X0163110Y0029938D01*
X0163084Y0029874D01*
X0163055Y0029812D01*
X0163023Y0029751D01*
X0162987Y0029693D01*
X0162947Y0029637D01*
X0162905Y0029583D01*
X0162859Y0029532D01*
X0162810Y0029483D01*
X0162759Y0029437D01*
X0162705Y0029395D01*
X0162649Y0029355D01*
X0162591Y0029319D01*
X0162530Y0029287D01*
X0162468Y0029258D01*
X0162404Y0029232D01*
X0162339Y0029211D01*
X0162272Y0029193D01*
X0162205Y0029179D01*
X0162137Y0029169D01*
X0162069Y0029163D01*
X0162000Y0029161D01*
X0161931Y0029163D01*
X0161863Y0029169D01*
X0161795Y0029179D01*
X0161728Y0029193D01*
X0161661Y0029211D01*
X0161596Y0029232D01*
X0161532Y0029258D01*
X0161470Y0029287D01*
X0161409Y0029319D01*
X0161351Y0029355D01*
X0161295Y0029395D01*
X0161241Y0029437D01*
X0161190Y0029483D01*
X0161141Y0029532D01*
X0161095Y0029583D01*
X0161053Y0029637D01*
X0161013Y0029693D01*
X0160977Y0029751D01*
X0160945Y0029812D01*
X0160916Y0029874D01*
X0160890Y0029938D01*
X0160869Y0030003D01*
X0160851Y0030070D01*
X0160837Y0030137D01*
X0160827Y0030205D01*
X0160821Y0030273D01*
X0160819Y0030342D01*
X0194116Y0018223D02*
X0194118Y0018292D01*
X0194124Y0018360D01*
X0194134Y0018428D01*
X0194148Y0018495D01*
X0194166Y0018562D01*
X0194187Y0018627D01*
X0194213Y0018691D01*
X0194242Y0018753D01*
X0194274Y0018813D01*
X0194310Y0018872D01*
X0194350Y0018928D01*
X0194392Y0018982D01*
X0194438Y0019033D01*
X0194487Y0019082D01*
X0194538Y0019128D01*
X0194592Y0019170D01*
X0194648Y0019210D01*
X0194706Y0019246D01*
X0194767Y0019278D01*
X0194829Y0019307D01*
X0194893Y0019333D01*
X0194958Y0019354D01*
X0195025Y0019372D01*
X0195092Y0019386D01*
X0195160Y0019396D01*
X0195228Y0019402D01*
X0195297Y0019404D01*
X0195366Y0019402D01*
X0195434Y0019396D01*
X0195502Y0019386D01*
X0195569Y0019372D01*
X0195636Y0019354D01*
X0195701Y0019333D01*
X0195765Y0019307D01*
X0195827Y0019278D01*
X0195887Y0019246D01*
X0195946Y0019210D01*
X0196002Y0019170D01*
X0196056Y0019128D01*
X0196107Y0019082D01*
X0196156Y0019033D01*
X0196202Y0018982D01*
X0196244Y0018928D01*
X0196284Y0018872D01*
X0196320Y0018813D01*
X0196352Y0018753D01*
X0196381Y0018691D01*
X0196407Y0018627D01*
X0196428Y0018562D01*
X0196446Y0018495D01*
X0196460Y0018428D01*
X0196470Y0018360D01*
X0196476Y0018292D01*
X0196478Y0018223D01*
X0196476Y0018154D01*
X0196470Y0018086D01*
X0196460Y0018018D01*
X0196446Y0017951D01*
X0196428Y0017884D01*
X0196407Y0017819D01*
X0196381Y0017755D01*
X0196352Y0017693D01*
X0196320Y0017632D01*
X0196284Y0017574D01*
X0196244Y0017518D01*
X0196202Y0017464D01*
X0196156Y0017413D01*
X0196107Y0017364D01*
X0196056Y0017318D01*
X0196002Y0017276D01*
X0195946Y0017236D01*
X0195888Y0017200D01*
X0195827Y0017168D01*
X0195765Y0017139D01*
X0195701Y0017113D01*
X0195636Y0017092D01*
X0195569Y0017074D01*
X0195502Y0017060D01*
X0195434Y0017050D01*
X0195366Y0017044D01*
X0195297Y0017042D01*
X0195228Y0017044D01*
X0195160Y0017050D01*
X0195092Y0017060D01*
X0195025Y0017074D01*
X0194958Y0017092D01*
X0194893Y0017113D01*
X0194829Y0017139D01*
X0194767Y0017168D01*
X0194706Y0017200D01*
X0194648Y0017236D01*
X0194592Y0017276D01*
X0194538Y0017318D01*
X0194487Y0017364D01*
X0194438Y0017413D01*
X0194392Y0017464D01*
X0194350Y0017518D01*
X0194310Y0017574D01*
X0194274Y0017632D01*
X0194242Y0017693D01*
X0194213Y0017755D01*
X0194187Y0017819D01*
X0194166Y0017884D01*
X0194148Y0017951D01*
X0194134Y0018018D01*
X0194124Y0018086D01*
X0194118Y0018154D01*
X0194116Y0018223D01*
X0134198Y0087432D02*
X0134200Y0087501D01*
X0134206Y0087569D01*
X0134216Y0087637D01*
X0134230Y0087704D01*
X0134248Y0087771D01*
X0134269Y0087836D01*
X0134295Y0087900D01*
X0134324Y0087962D01*
X0134356Y0088022D01*
X0134392Y0088081D01*
X0134432Y0088137D01*
X0134474Y0088191D01*
X0134520Y0088242D01*
X0134569Y0088291D01*
X0134620Y0088337D01*
X0134674Y0088379D01*
X0134730Y0088419D01*
X0134788Y0088455D01*
X0134849Y0088487D01*
X0134911Y0088516D01*
X0134975Y0088542D01*
X0135040Y0088563D01*
X0135107Y0088581D01*
X0135174Y0088595D01*
X0135242Y0088605D01*
X0135310Y0088611D01*
X0135379Y0088613D01*
X0135448Y0088611D01*
X0135516Y0088605D01*
X0135584Y0088595D01*
X0135651Y0088581D01*
X0135718Y0088563D01*
X0135783Y0088542D01*
X0135847Y0088516D01*
X0135909Y0088487D01*
X0135969Y0088455D01*
X0136028Y0088419D01*
X0136084Y0088379D01*
X0136138Y0088337D01*
X0136189Y0088291D01*
X0136238Y0088242D01*
X0136284Y0088191D01*
X0136326Y0088137D01*
X0136366Y0088081D01*
X0136402Y0088022D01*
X0136434Y0087962D01*
X0136463Y0087900D01*
X0136489Y0087836D01*
X0136510Y0087771D01*
X0136528Y0087704D01*
X0136542Y0087637D01*
X0136552Y0087569D01*
X0136558Y0087501D01*
X0136560Y0087432D01*
X0136558Y0087363D01*
X0136552Y0087295D01*
X0136542Y0087227D01*
X0136528Y0087160D01*
X0136510Y0087093D01*
X0136489Y0087028D01*
X0136463Y0086964D01*
X0136434Y0086902D01*
X0136402Y0086841D01*
X0136366Y0086783D01*
X0136326Y0086727D01*
X0136284Y0086673D01*
X0136238Y0086622D01*
X0136189Y0086573D01*
X0136138Y0086527D01*
X0136084Y0086485D01*
X0136028Y0086445D01*
X0135970Y0086409D01*
X0135909Y0086377D01*
X0135847Y0086348D01*
X0135783Y0086322D01*
X0135718Y0086301D01*
X0135651Y0086283D01*
X0135584Y0086269D01*
X0135516Y0086259D01*
X0135448Y0086253D01*
X0135379Y0086251D01*
X0135310Y0086253D01*
X0135242Y0086259D01*
X0135174Y0086269D01*
X0135107Y0086283D01*
X0135040Y0086301D01*
X0134975Y0086322D01*
X0134911Y0086348D01*
X0134849Y0086377D01*
X0134788Y0086409D01*
X0134730Y0086445D01*
X0134674Y0086485D01*
X0134620Y0086527D01*
X0134569Y0086573D01*
X0134520Y0086622D01*
X0134474Y0086673D01*
X0134432Y0086727D01*
X0134392Y0086783D01*
X0134356Y0086841D01*
X0134324Y0086902D01*
X0134295Y0086964D01*
X0134269Y0087028D01*
X0134248Y0087093D01*
X0134230Y0087160D01*
X0134216Y0087227D01*
X0134206Y0087295D01*
X0134200Y0087363D01*
X0134198Y0087432D01*
X0146317Y0120728D02*
X0146319Y0120797D01*
X0146325Y0120865D01*
X0146335Y0120933D01*
X0146349Y0121000D01*
X0146367Y0121067D01*
X0146388Y0121132D01*
X0146414Y0121196D01*
X0146443Y0121258D01*
X0146475Y0121318D01*
X0146511Y0121377D01*
X0146551Y0121433D01*
X0146593Y0121487D01*
X0146639Y0121538D01*
X0146688Y0121587D01*
X0146739Y0121633D01*
X0146793Y0121675D01*
X0146849Y0121715D01*
X0146907Y0121751D01*
X0146968Y0121783D01*
X0147030Y0121812D01*
X0147094Y0121838D01*
X0147159Y0121859D01*
X0147226Y0121877D01*
X0147293Y0121891D01*
X0147361Y0121901D01*
X0147429Y0121907D01*
X0147498Y0121909D01*
X0147567Y0121907D01*
X0147635Y0121901D01*
X0147703Y0121891D01*
X0147770Y0121877D01*
X0147837Y0121859D01*
X0147902Y0121838D01*
X0147966Y0121812D01*
X0148028Y0121783D01*
X0148088Y0121751D01*
X0148147Y0121715D01*
X0148203Y0121675D01*
X0148257Y0121633D01*
X0148308Y0121587D01*
X0148357Y0121538D01*
X0148403Y0121487D01*
X0148445Y0121433D01*
X0148485Y0121377D01*
X0148521Y0121318D01*
X0148553Y0121258D01*
X0148582Y0121196D01*
X0148608Y0121132D01*
X0148629Y0121067D01*
X0148647Y0121000D01*
X0148661Y0120933D01*
X0148671Y0120865D01*
X0148677Y0120797D01*
X0148679Y0120728D01*
X0148677Y0120659D01*
X0148671Y0120591D01*
X0148661Y0120523D01*
X0148647Y0120456D01*
X0148629Y0120389D01*
X0148608Y0120324D01*
X0148582Y0120260D01*
X0148553Y0120198D01*
X0148521Y0120137D01*
X0148485Y0120079D01*
X0148445Y0120023D01*
X0148403Y0119969D01*
X0148357Y0119918D01*
X0148308Y0119869D01*
X0148257Y0119823D01*
X0148203Y0119781D01*
X0148147Y0119741D01*
X0148089Y0119705D01*
X0148028Y0119673D01*
X0147966Y0119644D01*
X0147902Y0119618D01*
X0147837Y0119597D01*
X0147770Y0119579D01*
X0147703Y0119565D01*
X0147635Y0119555D01*
X0147567Y0119549D01*
X0147498Y0119547D01*
X0147429Y0119549D01*
X0147361Y0119555D01*
X0147293Y0119565D01*
X0147226Y0119579D01*
X0147159Y0119597D01*
X0147094Y0119618D01*
X0147030Y0119644D01*
X0146968Y0119673D01*
X0146907Y0119705D01*
X0146849Y0119741D01*
X0146793Y0119781D01*
X0146739Y0119823D01*
X0146688Y0119869D01*
X0146639Y0119918D01*
X0146593Y0119969D01*
X0146551Y0120023D01*
X0146511Y0120079D01*
X0146475Y0120137D01*
X0146443Y0120198D01*
X0146414Y0120260D01*
X0146388Y0120324D01*
X0146367Y0120389D01*
X0146349Y0120456D01*
X0146335Y0120523D01*
X0146325Y0120591D01*
X0146319Y0120659D01*
X0146317Y0120728D01*
X0251206Y0033034D02*
X0251208Y0033103D01*
X0251214Y0033171D01*
X0251224Y0033239D01*
X0251238Y0033306D01*
X0251256Y0033373D01*
X0251277Y0033438D01*
X0251303Y0033502D01*
X0251332Y0033564D01*
X0251364Y0033624D01*
X0251400Y0033683D01*
X0251440Y0033739D01*
X0251482Y0033793D01*
X0251528Y0033844D01*
X0251577Y0033893D01*
X0251628Y0033939D01*
X0251682Y0033981D01*
X0251738Y0034021D01*
X0251796Y0034057D01*
X0251857Y0034089D01*
X0251919Y0034118D01*
X0251983Y0034144D01*
X0252048Y0034165D01*
X0252115Y0034183D01*
X0252182Y0034197D01*
X0252250Y0034207D01*
X0252318Y0034213D01*
X0252387Y0034215D01*
X0252456Y0034213D01*
X0252524Y0034207D01*
X0252592Y0034197D01*
X0252659Y0034183D01*
X0252726Y0034165D01*
X0252791Y0034144D01*
X0252855Y0034118D01*
X0252917Y0034089D01*
X0252977Y0034057D01*
X0253036Y0034021D01*
X0253092Y0033981D01*
X0253146Y0033939D01*
X0253197Y0033893D01*
X0253246Y0033844D01*
X0253292Y0033793D01*
X0253334Y0033739D01*
X0253374Y0033683D01*
X0253410Y0033624D01*
X0253442Y0033564D01*
X0253471Y0033502D01*
X0253497Y0033438D01*
X0253518Y0033373D01*
X0253536Y0033306D01*
X0253550Y0033239D01*
X0253560Y0033171D01*
X0253566Y0033103D01*
X0253568Y0033034D01*
X0253566Y0032965D01*
X0253560Y0032897D01*
X0253550Y0032829D01*
X0253536Y0032762D01*
X0253518Y0032695D01*
X0253497Y0032630D01*
X0253471Y0032566D01*
X0253442Y0032504D01*
X0253410Y0032443D01*
X0253374Y0032385D01*
X0253334Y0032329D01*
X0253292Y0032275D01*
X0253246Y0032224D01*
X0253197Y0032175D01*
X0253146Y0032129D01*
X0253092Y0032087D01*
X0253036Y0032047D01*
X0252978Y0032011D01*
X0252917Y0031979D01*
X0252855Y0031950D01*
X0252791Y0031924D01*
X0252726Y0031903D01*
X0252659Y0031885D01*
X0252592Y0031871D01*
X0252524Y0031861D01*
X0252456Y0031855D01*
X0252387Y0031853D01*
X0252318Y0031855D01*
X0252250Y0031861D01*
X0252182Y0031871D01*
X0252115Y0031885D01*
X0252048Y0031903D01*
X0251983Y0031924D01*
X0251919Y0031950D01*
X0251857Y0031979D01*
X0251796Y0032011D01*
X0251738Y0032047D01*
X0251682Y0032087D01*
X0251628Y0032129D01*
X0251577Y0032175D01*
X0251528Y0032224D01*
X0251482Y0032275D01*
X0251440Y0032329D01*
X0251400Y0032385D01*
X0251364Y0032443D01*
X0251332Y0032504D01*
X0251303Y0032566D01*
X0251277Y0032630D01*
X0251256Y0032695D01*
X0251238Y0032762D01*
X0251224Y0032829D01*
X0251214Y0032897D01*
X0251208Y0032965D01*
X0251206Y0033034D01*
X0263325Y0066330D02*
X0263327Y0066399D01*
X0263333Y0066467D01*
X0263343Y0066535D01*
X0263357Y0066602D01*
X0263375Y0066669D01*
X0263396Y0066734D01*
X0263422Y0066798D01*
X0263451Y0066860D01*
X0263483Y0066920D01*
X0263519Y0066979D01*
X0263559Y0067035D01*
X0263601Y0067089D01*
X0263647Y0067140D01*
X0263696Y0067189D01*
X0263747Y0067235D01*
X0263801Y0067277D01*
X0263857Y0067317D01*
X0263915Y0067353D01*
X0263976Y0067385D01*
X0264038Y0067414D01*
X0264102Y0067440D01*
X0264167Y0067461D01*
X0264234Y0067479D01*
X0264301Y0067493D01*
X0264369Y0067503D01*
X0264437Y0067509D01*
X0264506Y0067511D01*
X0264575Y0067509D01*
X0264643Y0067503D01*
X0264711Y0067493D01*
X0264778Y0067479D01*
X0264845Y0067461D01*
X0264910Y0067440D01*
X0264974Y0067414D01*
X0265036Y0067385D01*
X0265096Y0067353D01*
X0265155Y0067317D01*
X0265211Y0067277D01*
X0265265Y0067235D01*
X0265316Y0067189D01*
X0265365Y0067140D01*
X0265411Y0067089D01*
X0265453Y0067035D01*
X0265493Y0066979D01*
X0265529Y0066920D01*
X0265561Y0066860D01*
X0265590Y0066798D01*
X0265616Y0066734D01*
X0265637Y0066669D01*
X0265655Y0066602D01*
X0265669Y0066535D01*
X0265679Y0066467D01*
X0265685Y0066399D01*
X0265687Y0066330D01*
X0265685Y0066261D01*
X0265679Y0066193D01*
X0265669Y0066125D01*
X0265655Y0066058D01*
X0265637Y0065991D01*
X0265616Y0065926D01*
X0265590Y0065862D01*
X0265561Y0065800D01*
X0265529Y0065739D01*
X0265493Y0065681D01*
X0265453Y0065625D01*
X0265411Y0065571D01*
X0265365Y0065520D01*
X0265316Y0065471D01*
X0265265Y0065425D01*
X0265211Y0065383D01*
X0265155Y0065343D01*
X0265097Y0065307D01*
X0265036Y0065275D01*
X0264974Y0065246D01*
X0264910Y0065220D01*
X0264845Y0065199D01*
X0264778Y0065181D01*
X0264711Y0065167D01*
X0264643Y0065157D01*
X0264575Y0065151D01*
X0264506Y0065149D01*
X0264437Y0065151D01*
X0264369Y0065157D01*
X0264301Y0065167D01*
X0264234Y0065181D01*
X0264167Y0065199D01*
X0264102Y0065220D01*
X0264038Y0065246D01*
X0263976Y0065275D01*
X0263915Y0065307D01*
X0263857Y0065343D01*
X0263801Y0065383D01*
X0263747Y0065425D01*
X0263696Y0065471D01*
X0263647Y0065520D01*
X0263601Y0065571D01*
X0263559Y0065625D01*
X0263519Y0065681D01*
X0263483Y0065739D01*
X0263451Y0065800D01*
X0263422Y0065862D01*
X0263396Y0065926D01*
X0263375Y0065991D01*
X0263357Y0066058D01*
X0263343Y0066125D01*
X0263333Y0066193D01*
X0263327Y0066261D01*
X0263325Y0066330D01*
M02*
