  0
SECTION
  2
HEADER
  9
$ACADVER
  1
AC1009
  9
$FILLMODE
 70
1
  9
$EXTMIN
 10
-0.0050
 20
-0.0050
 30
0.0000
  9
$EXTMAX
 10
239.0050
 20
207.1167
 30
0.0000
  0
ENDSEC
  0
SECTION
  2
TABLES
  0
TABLE
  2
LTYPE
 70
1
  0
LTYPE
  2
CONTINUOUS
 70
64
  3
Solid line
 72
65
 73
0
 40
0
  0
ENDTAB
  0
TABLE
  2
LAYER
 70
255
  0
LAYER
  2
1
 70
64
 62
14
  6
CONTINUOUS
  0
LAYER
  2
16
 70
64
 62
174
  6
CONTINUOUS
  0
LAYER
  2
17
 70
64
 62
94
  6
CONTINUOUS
  0
LAYER
  2
18
 70
64
 62
94
  6
CONTINUOUS
  0
LAYER
  2
19
 70
64
 62
54
  6
CONTINUOUS
  0
LAYER
  2
20
 70
64
 62
178
  6
CONTINUOUS
  0
LAYER
  2
21
 70
64
 62
250
  6
CONTINUOUS
  0
LAYER
  2
22
 70
64
 62
250
  6
CONTINUOUS
  0
LAYER
  2
23
 70
64
 62
178
  6
CONTINUOUS
  0
LAYER
  2
24
 70
64
 62
178
  6
CONTINUOUS
  0
LAYER
  2
25
 70
64
 62
250
  6
CONTINUOUS
  0
LAYER
  2
26
 70
64
 62
250
  6
CONTINUOUS
  0
LAYER
  2
27
 70
64
 62
250
  6
CONTINUOUS
  0
LAYER
  2
28
 70
64
 62
250
  6
CONTINUOUS
  0
LAYER
  2
45
 70
64
 62
250
  6
CONTINUOUS
  0
ENDTAB
  0
ENDSEC
  0
SECTION
  2
BLOCKS
  0
BLOCK
  8
0
  2
RECT
 70
64
 10
0.0000
 20
0.0000
 30
0.0000
  3
RECT
  0
SOLID
  8
0
 10
-0.5000
 20
-0.5000
 30
0.0000
 11
0.5000
 21
-0.5000
 31
0.0000
 12
-0.5000
 22
0.5000
 32
0.0000
 13
0.5000
 23
0.5000
 33
0.0000
  0
ENDBLK
  8
0
  0
BLOCK
  8
0
  2
PIE
 70
64
 10
0.0000
 20
0.0000
 30
0.0000
  3
PIE
  0
POLYLINE
  8
0
 66
1
 10
0.0000
 20
0.0000
 30
0.0000
 40
0.5000
 41
0.5000
 70
0
  0
VERTEX
  8
0
 10
0.0000
 20
-0.2500
 30
0.0000
 42
1.0000
  0
VERTEX
  8
0
 10
0.0000
 20
0.2500
 30
0.0000
 42
1.0000
  0
VERTEX
  8
0
 10
0.0000
 20
-0.2500
 30
0.0000
  0
SEQEND
  8
0
  0
ENDBLK
  8
0
  0
BLOCK
  8
0
  2
OCTAGONP
 70
64
 10
0.0000
 20
0.0000
 30
0.0000
  3
OCTAGONP
  0
POLYLINE
  8
0
 66
1
 10
0.0000
 20
0.0000
 30
0.0000
 40
0.5000
 41
0.5000
 70
0
  0
VERTEX
  8
0
 10
-0.2500
 20
-0.1036
 30
0.0000
  0
VERTEX
  8
0
 10
-0.2500
 20
0.1036
 30
0.0000
  0
VERTEX
  8
0
 10
-0.1036
 20
0.2500
 30
0.0000
  0
VERTEX
  8
0
 10
0.1036
 20
0.2500
 30
0.0000
  0
VERTEX
  8
0
 10
0.2500
 20
0.1036
 30
0.0000
  0
VERTEX
  8
0
 10
0.2500
 20
-0.1036
 30
0.0000
  0
VERTEX
  8
0
 10
0.1036
 20
-0.2500
 30
0.0000
  0
VERTEX
  8
0
 10
-0.1036
 20
-0.2500
 30
0.0000
  0
VERTEX
  8
0
 10
-0.2500
 20
-0.1036
 30
0.0000
  0
VERTEX
  8
0
 10
-0.2500
 20
0.1036
 30
0.0000
  0
SEQEND
  8
0
  0
ENDBLK
  8
0
  0
BLOCK
  8
0
  2
SQUAREP
 70
64
 10
0.0000
 20
0.0000
 30
0.0000
  3
SQUAREP
  0
SOLID
  8
0
 10
-0.5000
 20
-0.5000
 30
0.0000
 11
0.5000
 21
-0.5000
 31
0.0000
 12
-0.5000
 22
0.5000
 32
0.0000
 13
0.5000
 23
0.5000
 33
0.0000
  0
ENDBLK
  8
0
  0
BLOCK
  8
0
  2
ROUNDP
 70
64
 10
0.0000
 20
0.0000
 30
0.0000
  3
ROUNDP
  0
POLYLINE
  8
0
 66
1
 10
0.0000
 20
0.0000
 30
0.0000
 40
0.5000
 41
0.5000
 70
0
  0
VERTEX
  8
0
 10
0.0000
 20
-0.2500
 30
0.0000
 42
1.0000
  0
VERTEX
  8
0
 10
0.0000
 20
0.2500
 30
0.0000
 42
1.0000
  0
VERTEX
  8
0
 10
0.0000
 20
-0.2500
 30
0.0000
  0
SEQEND
  8
0
  0
ENDBLK
  8
0
  0
BLOCK
  8
0
  2
ANNULUSP
 70
64
 10
0.0000
 20
0.0000
 30
0.0000
  3
ANNULUSP
  0
POLYLINE
  8
0
 66
1
 10
0.0000
 20
0.0000
 30
0.0000
 40
0.5000
 41
0.5000
 70
0
  0
VERTEX
  8
0
 10
0.0000
 20
-0.2500
 30
0.0000
 42
1.0000
  0
VERTEX
  8
0
 10
0.0000
 20
0.2500
 30
0.0000
 42
1.0000
  0
VERTEX
  8
0
 10
0.0000
 20
-0.2500
 30
0.0000
  0
SEQEND
  8
0
  0
ENDBLK
  8
0
  0
BLOCK
  8
0
  2
THERMALP
 70
64
 10
0.0000
 20
0.0000
 30
0.0000
  3
THERMALP
  0
POLYLINE
  8
0
 66
1
 10
0.0000
 20
0.0000
 30
0.0000
 40
0.1000
 41
0.1000
 70
0
  0
VERTEX
  8
0
 10
-0.2379
 20
0.4500
 30
0.0000
  0
VERTEX
  8
0
 10
0.2379
 20
0.4500
 30
0.0000
  0
SEQEND
  8
0
  0
POLYLINE
  8
0
 66
1
 10
0.0000
 20
0.0000
 30
0.0000
 40
0.0500
 41
0.0500
 70
0
  0
VERTEX
  8
0
 10
0.2379
 20
0.4250
 30
0.0000
 42
1.0000
  0
VERTEX
  8
0
 10
0.2379
 20
0.4750
 30
0.0000
  0
SEQEND
  8
0
  0
POLYLINE
  8
0
 66
1
 10
0.0000
 20
0.0000
 30
0.0000
 40
0.0500
 41
0.0500
 70
0
  0
VERTEX
  8
0
 10
-0.2379
 20
0.4750
 30
0.0000
 42
1.0000
  0
VERTEX
  8
0
 10
-0.2379
 20
0.4250
 30
0.0000
  0
SEQEND
  8
0
  0
POLYLINE
  8
0
 66
1
 10
0.0000
 20
0.0000
 30
0.0000
 40
0.1000
 41
0.1000
 70
0
  0
VERTEX
  8
0
 10
0.4500
 20
0.2379
 30
0.0000
  0
VERTEX
  8
0
 10
0.4500
 20
-0.2379
 30
0.0000
  0
SEQEND
  8
0
  0
POLYLINE
  8
0
 66
1
 10
0.0000
 20
0.0000
 30
0.0000
 40
0.0500
 41
0.0500
 70
0
  0
VERTEX
  8
0
 10
0.4250
 20
-0.2379
 30
0.0000
 42
1.0000
  0
VERTEX
  8
0
 10
0.4750
 20
-0.2379
 30
0.0000
  0
SEQEND
  8
0
  0
POLYLINE
  8
0
 66
1
 10
0.0000
 20
0.0000
 30
0.0000
 40
0.0500
 41
0.0500
 70
0
  0
VERTEX
  8
0
 10
0.4750
 20
0.2379
 30
0.0000
 42
1.0000
  0
VERTEX
  8
0
 10
0.4250
 20
0.2379
 30
0.0000
  0
SEQEND
  8
0
  0
POLYLINE
  8
0
 66
1
 10
0.0000
 20
0.0000
 30
0.0000
 40
0.1000
 41
0.1000
 70
0
  0
VERTEX
  8
0
 10
0.2379
 20
-0.4500
 30
0.0000
  0
VERTEX
  8
0
 10
-0.2379
 20
-0.4500
 30
0.0000
  0
SEQEND
  8
0
  0
POLYLINE
  8
0
 66
1
 10
0.0000
 20
0.0000
 30
0.0000
 40
0.0500
 41
0.0500
 70
0
  0
VERTEX
  8
0
 10
-0.2379
 20
-0.4250
 30
0.0000
 42
1.0000
  0
VERTEX
  8
0
 10
-0.2379
 20
-0.4750
 30
0.0000
  0
SEQEND
  8
0
  0
POLYLINE
  8
0
 66
1
 10
0.0000
 20
0.0000
 30
0.0000
 40
0.0500
 41
0.0500
 70
0
  0
VERTEX
  8
0
 10
0.2379
 20
-0.4750
 30
0.0000
 42
1.0000
  0
VERTEX
  8
0
 10
0.2379
 20
-0.4250
 30
0.0000
  0
SEQEND
  8
0
  0
POLYLINE
  8
0
 66
1
 10
0.0000
 20
0.0000
 30
0.0000
 40
0.1000
 41
0.1000
 70
0
  0
VERTEX
  8
0
 10
-0.4500
 20
-0.2379
 30
0.0000
  0
VERTEX
  8
0
 10
-0.4500
 20
0.2379
 30
0.0000
  0
SEQEND
  8
0
  0
POLYLINE
  8
0
 66
1
 10
0.0000
 20
0.0000
 30
0.0000
 40
0.0500
 41
0.0500
 70
0
  0
VERTEX
  8
0
 10
-0.4250
 20
0.2379
 30
0.0000
 42
1.0000
  0
VERTEX
  8
0
 10
-0.4750
 20
0.2379
 30
0.0000
  0
SEQEND
  8
0
  0
POLYLINE
  8
0
 66
1
 10
0.0000
 20
0.0000
 30
0.0000
 40
0.0500
 41
0.0500
 70
0
  0
VERTEX
  8
0
 10
-0.4750
 20
-0.2379
 30
0.0000
 42
1.0000
  0
VERTEX
  8
0
 10
-0.4250
 20
-0.2379
 30
0.0000
  0
SEQEND
  8
0
  0
ENDBLK
  8
0
  0
BLOCK
  8
0
  2
OCTAGONV
 70
64
 10
0.0000
 20
0.0000
 30
0.0000
  3
OCTAGONV
  0
POLYLINE
  8
0
 66
1
 10
0.0000
 20
0.0000
 30
0.0000
 40
0.5000
 41
0.5000
 70
0
  0
VERTEX
  8
0
 10
-0.2500
 20
-0.1036
 30
0.0000
  0
VERTEX
  8
0
 10
-0.2500
 20
0.1036
 30
0.0000
  0
VERTEX
  8
0
 10
-0.1036
 20
0.2500
 30
0.0000
  0
VERTEX
  8
0
 10
0.1036
 20
0.2500
 30
0.0000
  0
VERTEX
  8
0
 10
0.2500
 20
0.1036
 30
0.0000
  0
VERTEX
  8
0
 10
0.2500
 20
-0.1036
 30
0.0000
  0
VERTEX
  8
0
 10
0.1036
 20
-0.2500
 30
0.0000
  0
VERTEX
  8
0
 10
-0.1036
 20
-0.2500
 30
0.0000
  0
VERTEX
  8
0
 10
-0.2500
 20
-0.1036
 30
0.0000
  0
VERTEX
  8
0
 10
-0.2500
 20
0.1036
 30
0.0000
  0
SEQEND
  8
0
  0
ENDBLK
  8
0
  0
BLOCK
  8
0
  2
SQUAREV
 70
64
 10
0.0000
 20
0.0000
 30
0.0000
  3
SQUAREV
  0
SOLID
  8
0
 10
-0.5000
 20
-0.5000
 30
0.0000
 11
0.5000
 21
-0.5000
 31
0.0000
 12
-0.5000
 22
0.5000
 32
0.0000
 13
0.5000
 23
0.5000
 33
0.0000
  0
ENDBLK
  8
0
  0
BLOCK
  8
0
  2
ROUNDV
 70
64
 10
0.0000
 20
0.0000
 30
0.0000
  3
ROUNDV
  0
POLYLINE
  8
0
 66
1
 10
0.0000
 20
0.0000
 30
0.0000
 40
0.5000
 41
0.5000
 70
0
  0
VERTEX
  8
0
 10
0.0000
 20
-0.2500
 30
0.0000
 42
1.0000
  0
VERTEX
  8
0
 10
0.0000
 20
0.2500
 30
0.0000
 42
1.0000
  0
VERTEX
  8
0
 10
0.0000
 20
-0.2500
 30
0.0000
  0
SEQEND
  8
0
  0
ENDBLK
  8
0
  0
BLOCK
  8
0
  2
ANNULUSV
 70
64
 10
0.0000
 20
0.0000
 30
0.0000
  3
ANNULUSV
  0
POLYLINE
  8
0
 66
1
 10
0.0000
 20
0.0000
 30
0.0000
 40
0.5000
 41
0.5000
 70
0
  0
VERTEX
  8
0
 10
0.0000
 20
-0.2500
 30
0.0000
 42
1.0000
  0
VERTEX
  8
0
 10
0.0000
 20
0.2500
 30
0.0000
 42
1.0000
  0
VERTEX
  8
0
 10
0.0000
 20
-0.2500
 30
0.0000
  0
SEQEND
  8
0
  0
ENDBLK
  8
0
  0
BLOCK
  8
0
  2
THERMALV
 70
64
 10
0.0000
 20
0.0000
 30
0.0000
  3
THERMALV
  0
POLYLINE
  8
0
 66
1
 10
0.0000
 20
0.0000
 30
0.0000
 40
0.1000
 41
0.1000
 70
0
  0
VERTEX
  8
0
 10
-0.2379
 20
0.4500
 30
0.0000
  0
VERTEX
  8
0
 10
0.2379
 20
0.4500
 30
0.0000
  0
SEQEND
  8
0
  0
POLYLINE
  8
0
 66
1
 10
0.0000
 20
0.0000
 30
0.0000
 40
0.0500
 41
0.0500
 70
0
  0
VERTEX
  8
0
 10
0.2379
 20
0.4250
 30
0.0000
 42
1.0000
  0
VERTEX
  8
0
 10
0.2379
 20
0.4750
 30
0.0000
  0
SEQEND
  8
0
  0
POLYLINE
  8
0
 66
1
 10
0.0000
 20
0.0000
 30
0.0000
 40
0.0500
 41
0.0500
 70
0
  0
VERTEX
  8
0
 10
-0.2379
 20
0.4750
 30
0.0000
 42
1.0000
  0
VERTEX
  8
0
 10
-0.2379
 20
0.4250
 30
0.0000
  0
SEQEND
  8
0
  0
POLYLINE
  8
0
 66
1
 10
0.0000
 20
0.0000
 30
0.0000
 40
0.1000
 41
0.1000
 70
0
  0
VERTEX
  8
0
 10
0.4500
 20
0.2379
 30
0.0000
  0
VERTEX
  8
0
 10
0.4500
 20
-0.2379
 30
0.0000
  0
SEQEND
  8
0
  0
POLYLINE
  8
0
 66
1
 10
0.0000
 20
0.0000
 30
0.0000
 40
0.0500
 41
0.0500
 70
0
  0
VERTEX
  8
0
 10
0.4250
 20
-0.2379
 30
0.0000
 42
1.0000
  0
VERTEX
  8
0
 10
0.4750
 20
-0.2379
 30
0.0000
  0
SEQEND
  8
0
  0
POLYLINE
  8
0
 66
1
 10
0.0000
 20
0.0000
 30
0.0000
 40
0.0500
 41
0.0500
 70
0
  0
VERTEX
  8
0
 10
0.4750
 20
0.2379
 30
0.0000
 42
1.0000
  0
VERTEX
  8
0
 10
0.4250
 20
0.2379
 30
0.0000
  0
SEQEND
  8
0
  0
POLYLINE
  8
0
 66
1
 10
0.0000
 20
0.0000
 30
0.0000
 40
0.1000
 41
0.1000
 70
0
  0
VERTEX
  8
0
 10
0.2379
 20
-0.4500
 30
0.0000
  0
VERTEX
  8
0
 10
-0.2379
 20
-0.4500
 30
0.0000
  0
SEQEND
  8
0
  0
POLYLINE
  8
0
 66
1
 10
0.0000
 20
0.0000
 30
0.0000
 40
0.0500
 41
0.0500
 70
0
  0
VERTEX
  8
0
 10
-0.2379
 20
-0.4250
 30
0.0000
 42
1.0000
  0
VERTEX
  8
0
 10
-0.2379
 20
-0.4750
 30
0.0000
  0
SEQEND
  8
0
  0
POLYLINE
  8
0
 66
1
 10
0.0000
 20
0.0000
 30
0.0000
 40
0.0500
 41
0.0500
 70
0
  0
VERTEX
  8
0
 10
0.2379
 20
-0.4750
 30
0.0000
 42
1.0000
  0
VERTEX
  8
0
 10
0.2379
 20
-0.4250
 30
0.0000
  0
SEQEND
  8
0
  0
POLYLINE
  8
0
 66
1
 10
0.0000
 20
0.0000
 30
0.0000
 40
0.1000
 41
0.1000
 70
0
  0
VERTEX
  8
0
 10
-0.4500
 20
-0.2379
 30
0.0000
  0
VERTEX
  8
0
 10
-0.4500
 20
0.2379
 30
0.0000
  0
SEQEND
  8
0
  0
POLYLINE
  8
0
 66
1
 10
0.0000
 20
0.0000
 30
0.0000
 40
0.0500
 41
0.0500
 70
0
  0
VERTEX
  8
0
 10
-0.4250
 20
0.2379
 30
0.0000
 42
1.0000
  0
VERTEX
  8
0
 10
-0.4750
 20
0.2379
 30
0.0000
  0
SEQEND
  8
0
  0
POLYLINE
  8
0
 66
1
 10
0.0000
 20
0.0000
 30
0.0000
 40
0.0500
 41
0.0500
 70
0
  0
VERTEX
  8
0
 10
-0.4750
 20
-0.2379
 30
0.0000
 42
1.0000
  0
VERTEX
  8
0
 10
-0.4250
 20
-0.2379
 30
0.0000
  0
SEQEND
  8
0
  0
ENDBLK
  8
0
  0
ENDSEC
  0
SECTION
  2
ENTITIES
  0
POLYLINE
  8
20
 66
1
 10
0.0000
 20
0.0000
 30
0.0000
 40
0.0100
 41
0.0100
 70
0
  0
VERTEX
  8
20
 10
27.9524
 20
124.7129
 30
0.0000
  0
VERTEX
  8
20
 10
16.7097
 20
135.9555
 30
0.0000
  0
SEQEND
  8
0
  0
POLYLINE
  8
20
 66
1
 10
0.0000
 20
0.0000
 30
0.0000
 40
0.0050
 41
0.0050
 70
0
  0
VERTEX
  8
20
 10
16.7115
 20
135.9573
 30
0.0000
 42
1.0000
  0
VERTEX
  8
20
 10
16.7080
 20
135.9538
 30
0.0000
  0
SEQEND
  8
0
  0
POLYLINE
  8
20
 66
1
 10
0.0000
 20
0.0000
 30
0.0000
 40
0.0050
 41
0.0050
 70
0
  0
VERTEX
  8
20
 10
27.9506
 20
124.7111
 30
0.0000
 42
1.0000
  0
VERTEX
  8
20
 10
27.9542
 20
124.7147
 30
0.0000
  0
SEQEND
  8
0
  0
POLYLINE
  8
20
 66
1
 10
0.0000
 20
0.0000
 30
0.0000
 40
0.0100
 41
0.0100
 70
0
  0
VERTEX
  8
20
 10
16.7097
 20
135.9555
 30
0.0000
 42
0.4142
  0
VERTEX
  8
20
 10
15.2955
 20
135.9555
 30
0.0000
  0
SEQEND
  8
0
  0
POLYLINE
  8
20
 66
1
 10
0.0000
 20
0.0000
 30
0.0000
 40
0.0050
 41
0.0050
 70
0
  0
VERTEX
  8
20
 10
16.7080
 20
135.9538
 30
0.0000
 42
1.0000
  0
VERTEX
  8
20
 10
16.7115
 20
135.9573
 30
0.0000
  0
SEQEND
  8
0
  0
POLYLINE
  8
20
 66
1
 10
0.0000
 20
0.0000
 30
0.0000
 40
0.0050
 41
0.0050
 70
0
  0
VERTEX
  8
20
 10
15.2938
 20
135.9573
 30
0.0000
 42
1.0000
  0
VERTEX
  8
20
 10
15.2973
 20
135.9538
 30
0.0000
  0
SEQEND
  8
0
  0
POLYLINE
  8
20
 66
1
 10
0.0000
 20
0.0000
 30
0.0000
 40
0.0100
 41
0.0100
 70
0
  0
VERTEX
  8
20
 10
15.2955
 20
135.9555
 30
0.0000
  0
VERTEX
  8
20
 10
4.0529
 20
124.7129
 30
0.0000
  0
SEQEND
  8
0
  0
POLYLINE
  8
20
 66
1
 10
0.0000
 20
0.0000
 30
0.0000
 40
0.0050
 41
0.0050
 70
0
  0
VERTEX
  8
20
 10
4.0511
 20
124.7147
 30
0.0000
 42
1.0000
  0
VERTEX
  8
20
 10
4.0547
 20
124.7111
 30
0.0000
  0
SEQEND
  8
0
  0
POLYLINE
  8
20
 66
1
 10
0.0000
 20
0.0000
 30
0.0000
 40
0.0050
 41
0.0050
 70
0
  0
VERTEX
  8
20
 10
15.2973
 20
135.9538
 30
0.0000
 42
1.0000
  0
VERTEX
  8
20
 10
15.2938
 20
135.9573
 30
0.0000
  0
SEQEND
  8
0
  0
POLYLINE
  8
20
 66
1
 10
0.0000
 20
0.0000
 30
0.0000
 40
0.0100
 41
0.0100
 70
0
  0
VERTEX
  8
20
 10
4.0529
 20
124.7129
 30
0.0000
 42
0.4142
  0
VERTEX
  8
20
 10
4.0529
 20
123.2987
 30
0.0000
  0
SEQEND
  8
0
  0
POLYLINE
  8
20
 66
1
 10
0.0000
 20
0.0000
 30
0.0000
 40
0.0050
 41
0.0050
 70
0
  0
VERTEX
  8
20
 10
4.0547
 20
124.7111
 30
0.0000
 42
1.0000
  0
VERTEX
  8
20
 10
4.0511
 20
124.7147
 30
0.0000
  0
SEQEND
  8
0
  0
POLYLINE
  8
20
 66
1
 10
0.0000
 20
0.0000
 30
0.0000
 40
0.0050
 41
0.0050
 70
0
  0
VERTEX
  8
20
 10
4.0511
 20
123.2969
 30
0.0000
 42
1.0000
  0
VERTEX
  8
20
 10
4.0547
 20
123.3004
 30
0.0000
  0
SEQEND
  8
0
  0
POLYLINE
  8
20
 66
1
 10
0.0000
 20
0.0000
 30
0.0000
 40
0.0100
 41
0.0100
 70
0
  0
VERTEX
  8
20
 10
4.0529
 20
123.2987
 30
0.0000
  0
VERTEX
  8
20
 10
15.2955
 20
112.0560
 30
0.0000
  0
SEQEND
  8
0
  0
POLYLINE
  8
20
 66
1
 10
0.0000
 20
0.0000
 30
0.0000
 40
0.0050
 41
0.0050
 70
0
  0
VERTEX
  8
20
 10
15.2938
 20
112.0543
 30
0.0000
 42
1.0000
  0
VERTEX
  8
20
 10
15.2973
 20
112.0578
 30
0.0000
  0
SEQEND
  8
0
  0
POLYLINE
  8
20
 66
1
 10
0.0000
 20
0.0000
 30
0.0000
 40
0.0050
 41
0.0050
 70
0
  0
VERTEX
  8
20
 10
4.0547
 20
123.3004
 30
0.0000
 42
1.0000
  0
VERTEX
  8
20
 10
4.0511
 20
123.2969
 30
0.0000
  0
SEQEND
  8
0
  0
POLYLINE
  8
20
 66
1
 10
0.0000
 20
0.0000
 30
0.0000
 40
0.0100
 41
0.0100
 70
0
  0
VERTEX
  8
20
 10
15.2955
 20
112.0560
 30
0.0000
 42
0.4142
  0
VERTEX
  8
20
 10
16.7097
 20
112.0560
 30
0.0000
  0
SEQEND
  8
0
  0
POLYLINE
  8
20
 66
1
 10
0.0000
 20
0.0000
 30
0.0000
 40
0.0050
 41
0.0050
 70
0
  0
VERTEX
  8
20
 10
15.2973
 20
112.0578
 30
0.0000
 42
1.0000
  0
VERTEX
  8
20
 10
15.2938
 20
112.0543
 30
0.0000
  0
SEQEND
  8
0
  0
POLYLINE
  8
20
 66
1
 10
0.0000
 20
0.0000
 30
0.0000
 40
0.0050
 41
0.0050
 70
0
  0
VERTEX
  8
20
 10
16.7115
 20
112.0543
 30
0.0000
 42
1.0000
  0
VERTEX
  8
20
 10
16.7080
 20
112.0578
 30
0.0000
  0
SEQEND
  8
0
  0
POLYLINE
  8
20
 66
1
 10
0.0000
 20
0.0000
 30
0.0000
 40
0.0100
 41
0.0100
 70
0
  0
VERTEX
  8
20
 10
16.7097
 20
112.0560
 30
0.0000
  0
VERTEX
  8
20
 10
27.9524
 20
123.2987
 30
0.0000
  0
SEQEND
  8
0
  0
POLYLINE
  8
20
 66
1
 10
0.0000
 20
0.0000
 30
0.0000
 40
0.0050
 41
0.0050
 70
0
  0
VERTEX
  8
20
 10
27.9542
 20
123.2969
 30
0.0000
 42
1.0000
  0
VERTEX
  8
20
 10
27.9506
 20
123.3004
 30
0.0000
  0
SEQEND
  8
0
  0
POLYLINE
  8
20
 66
1
 10
0.0000
 20
0.0000
 30
0.0000
 40
0.0050
 41
0.0050
 70
0
  0
VERTEX
  8
20
 10
16.7080
 20
112.0578
 30
0.0000
 42
1.0000
  0
VERTEX
  8
20
 10
16.7115
 20
112.0543
 30
0.0000
  0
SEQEND
  8
0
  0
POLYLINE
  8
20
 66
1
 10
0.0000
 20
0.0000
 30
0.0000
 40
0.0100
 41
0.0100
 70
0
  0
VERTEX
  8
20
 10
27.9524
 20
123.2987
 30
0.0000
 42
0.4142
  0
VERTEX
  8
20
 10
27.9524
 20
124.7129
 30
0.0000
  0
SEQEND
  8
0
  0
POLYLINE
  8
20
 66
1
 10
0.0000
 20
0.0000
 30
0.0000
 40
0.0050
 41
0.0050
 70
0
  0
VERTEX
  8
20
 10
27.9506
 20
123.3004
 30
0.0000
 42
1.0000
  0
VERTEX
  8
20
 10
27.9542
 20
123.2969
 30
0.0000
  0
SEQEND
  8
0
  0
POLYLINE
  8
20
 66
1
 10
0.0000
 20
0.0000
 30
0.0000
 40
0.0050
 41
0.0050
 70
0
  0
VERTEX
  8
20
 10
27.9542
 20
124.7147
 30
0.0000
 42
1.0000
  0
VERTEX
  8
20
 10
27.9506
 20
124.7111
 30
0.0000
  0
SEQEND
  8
0
  0
POLYLINE
  8
20
 66
1
 10
0.0000
 20
0.0000
 30
0.0000
 40
0.0100
 41
0.0100
 70
0
  0
VERTEX
  8
20
 10
24.0000
 20
139.0000
 30
0.0000
  0
VERTEX
  8
20
 10
8.0000
 20
139.0000
 30
0.0000
  0
SEQEND
  8
0
  0
POLYLINE
  8
20
 66
1
 10
0.0000
 20
0.0000
 30
0.0000
 40
0.0050
 41
0.0050
 70
0
  0
VERTEX
  8
20
 10
8.0000
 20
139.0025
 30
0.0000
 42
1.0000
  0
VERTEX
  8
20
 10
8.0000
 20
138.9975
 30
0.0000
  0
SEQEND
  8
0
  0
POLYLINE
  8
20
 66
1
 10
0.0000
 20
0.0000
 30
0.0000
 40
0.0050
 41
0.0050
 70
0
  0
VERTEX
  8
20
 10
24.0000
 20
138.9975
 30
0.0000
 42
1.0000
  0
VERTEX
  8
20
 10
24.0000
 20
139.0025
 30
0.0000
  0
SEQEND
  8
0
  0
POLYLINE
  8
20
 66
1
 10
0.0000
 20
0.0000
 30
0.0000
 40
0.0100
 41
0.0100
 70
0
  0
VERTEX
  8
20
 10
7.0000
 20
140.0000
 30
0.0000
 42
0.4142
  0
VERTEX
  8
20
 10
8.0000
 20
139.0000
 30
0.0000
  0
SEQEND
  8
0
  0
POLYLINE
  8
20
 66
1
 10
0.0000
 20
0.0000
 30
0.0000
 40
0.0050
 41
0.0050
 70
0
  0
VERTEX
  8
20
 10
7.0025
 20
140.0000
 30
0.0000
 42
1.0000
  0
VERTEX
  8
20
 10
6.9975
 20
140.0000
 30
0.0000
  0
SEQEND
  8
0
  0
POLYLINE
  8
20
 66
1
 10
0.0000
 20
0.0000
 30
0.0000
 40
0.0050
 41
0.0050
 70
0
  0
VERTEX
  8
20
 10
8.0000
 20
138.9975
 30
0.0000
 42
1.0000
  0
VERTEX
  8
20
 10
8.0000
 20
139.0025
 30
0.0000
  0
SEQEND
  8
0
  0
POLYLINE
  8
20
 66
1
 10
0.0000
 20
0.0000
 30
0.0000
 40
0.0100
 41
0.0100
 70
0
  0
VERTEX
  8
20
 10
7.0000
 20
140.0000
 30
0.0000
  0
VERTEX
  8
20
 10
7.0000
 20
141.0000
 30
0.0000
  0
SEQEND
  8
0
  0
POLYLINE
  8
20
 66
1
 10
0.0000
 20
0.0000
 30
0.0000
 40
0.0050
 41
0.0050
 70
0
  0
VERTEX
  8
20
 10
7.0025
 20
141.0000
 30
0.0000
 42
1.0000
  0
VERTEX
  8
20
 10
6.9975
 20
141.0000
 30
0.0000
  0
SEQEND
  8
0
  0
POLYLINE
  8
20
 66
1
 10
0.0000
 20
0.0000
 30
0.0000
 40
0.0050
 41
0.0050
 70
0
  0
VERTEX
  8
20
 10
6.9975
 20
140.0000
 30
0.0000
 42
1.0000
  0
VERTEX
  8
20
 10
7.0025
 20
140.0000
 30
0.0000
  0
SEQEND
  8
0
  0
POLYLINE
  8
20
 66
1
 10
0.0000
 20
0.0000
 30
0.0000
 40
0.0100
 41
0.0100
 70
0
  0
VERTEX
  8
20
 10
8.0000
 20
142.0000
 30
0.0000
 42
0.4142
  0
VERTEX
  8
20
 10
7.0000
 20
141.0000
 30
0.0000
  0
SEQEND
  8
0
  0
POLYLINE
  8
20
 66
1
 10
0.0000
 20
0.0000
 30
0.0000
 40
0.0050
 41
0.0050
 70
0
  0
VERTEX
  8
20
 10
8.0000
 20
141.9975
 30
0.0000
 42
1.0000
  0
VERTEX
  8
20
 10
8.0000
 20
142.0025
 30
0.0000
  0
SEQEND
  8
0
  0
POLYLINE
  8
20
 66
1
 10
0.0000
 20
0.0000
 30
0.0000
 40
0.0050
 41
0.0050
 70
0
  0
VERTEX
  8
20
 10
6.9975
 20
141.0000
 30
0.0000
 42
1.0000
  0
VERTEX
  8
20
 10
7.0025
 20
141.0000
 30
0.0000
  0
SEQEND
  8
0
  0
POLYLINE
  8
20
 66
1
 10
0.0000
 20
0.0000
 30
0.0000
 40
0.0100
 41
0.0100
 70
0
  0
VERTEX
  8
20
 10
8.0000
 20
142.0000
 30
0.0000
  0
VERTEX
  8
20
 10
24.0000
 20
142.0000
 30
0.0000
  0
SEQEND
  8
0
  0
POLYLINE
  8
20
 66
1
 10
0.0000
 20
0.0000
 30
0.0000
 40
0.0050
 41
0.0050
 70
0
  0
VERTEX
  8
20
 10
24.0000
 20
141.9975
 30
0.0000
 42
1.0000
  0
VERTEX
  8
20
 10
24.0000
 20
142.0025
 30
0.0000
  0
SEQEND
  8
0
  0
POLYLINE
  8
20
 66
1
 10
0.0000
 20
0.0000
 30
0.0000
 40
0.0050
 41
0.0050
 70
0
  0
VERTEX
  8
20
 10
8.0000
 20
142.0025
 30
0.0000
 42
1.0000
  0
VERTEX
  8
20
 10
8.0000
 20
141.9975
 30
0.0000
  0
SEQEND
  8
0
  0
POLYLINE
  8
20
 66
1
 10
0.0000
 20
0.0000
 30
0.0000
 40
0.0100
 41
0.0100
 70
0
  0
VERTEX
  8
20
 10
25.0000
 20
141.0000
 30
0.0000
 42
0.4142
  0
VERTEX
  8
20
 10
24.0000
 20
142.0000
 30
0.0000
  0
SEQEND
  8
0
  0
POLYLINE
  8
20
 66
1
 10
0.0000
 20
0.0000
 30
0.0000
 40
0.0050
 41
0.0050
 70
0
  0
VERTEX
  8
20
 10
24.9975
 20
141.0000
 30
0.0000
 42
1.0000
  0
VERTEX
  8
20
 10
25.0025
 20
141.0000
 30
0.0000
  0
SEQEND
  8
0
  0
POLYLINE
  8
20
 66
1
 10
0.0000
 20
0.0000
 30
0.0000
 40
0.0050
 41
0.0050
 70
0
  0
VERTEX
  8
20
 10
24.0000
 20
142.0025
 30
0.0000
 42
1.0000
  0
VERTEX
  8
20
 10
24.0000
 20
141.9975
 30
0.0000
  0
SEQEND
  8
0
  0
POLYLINE
  8
20
 66
1
 10
0.0000
 20
0.0000
 30
0.0000
 40
0.0100
 41
0.0100
 70
0
  0
VERTEX
  8
20
 10
25.0000
 20
141.0000
 30
0.0000
  0
VERTEX
  8
20
 10
25.0000
 20
140.0000
 30
0.0000
  0
SEQEND
  8
0
  0
POLYLINE
  8
20
 66
1
 10
0.0000
 20
0.0000
 30
0.0000
 40
0.0050
 41
0.0050
 70
0
  0
VERTEX
  8
20
 10
24.9975
 20
140.0000
 30
0.0000
 42
1.0000
  0
VERTEX
  8
20
 10
25.0025
 20
140.0000
 30
0.0000
  0
SEQEND
  8
0
  0
POLYLINE
  8
20
 66
1
 10
0.0000
 20
0.0000
 30
0.0000
 40
0.0050
 41
0.0050
 70
0
  0
VERTEX
  8
20
 10
25.0025
 20
141.0000
 30
0.0000
 42
1.0000
  0
VERTEX
  8
20
 10
24.9975
 20
141.0000
 30
0.0000
  0
SEQEND
  8
0
  0
POLYLINE
  8
20
 66
1
 10
0.0000
 20
0.0000
 30
0.0000
 40
0.0100
 41
0.0100
 70
0
  0
VERTEX
  8
20
 10
24.0000
 20
139.0000
 30
0.0000
 42
0.4142
  0
VERTEX
  8
20
 10
25.0000
 20
140.0000
 30
0.0000
  0
SEQEND
  8
0
  0
POLYLINE
  8
20
 66
1
 10
0.0000
 20
0.0000
 30
0.0000
 40
0.0050
 41
0.0050
 70
0
  0
VERTEX
  8
20
 10
24.0000
 20
139.0025
 30
0.0000
 42
1.0000
  0
VERTEX
  8
20
 10
24.0000
 20
138.9975
 30
0.0000
  0
SEQEND
  8
0
  0
POLYLINE
  8
20
 66
1
 10
0.0000
 20
0.0000
 30
0.0000
 40
0.0050
 41
0.0050
 70
0
  0
VERTEX
  8
20
 10
25.0025
 20
140.0000
 30
0.0000
 42
1.0000
  0
VERTEX
  8
20
 10
24.9975
 20
140.0000
 30
0.0000
  0
SEQEND
  8
0
  0
POLYLINE
  8
20
 66
1
 10
0.0000
 20
0.0000
 30
0.0000
 40
0.0100
 41
0.0100
 70
0
  0
VERTEX
  8
20
 10
98.2955
 20
135.9555
 30
0.0000
  0
VERTEX
  8
20
 10
87.0529
 20
124.7129
 30
0.0000
  0
SEQEND
  8
0
  0
POLYLINE
  8
20
 66
1
 10
0.0000
 20
0.0000
 30
0.0000
 40
0.0050
 41
0.0050
 70
0
  0
VERTEX
  8
20
 10
87.0511
 20
124.7147
 30
0.0000
 42
1.0000
  0
VERTEX
  8
20
 10
87.0547
 20
124.7111
 30
0.0000
  0
SEQEND
  8
0
  0
POLYLINE
  8
20
 66
1
 10
0.0000
 20
0.0000
 30
0.0000
 40
0.0050
 41
0.0050
 70
0
  0
VERTEX
  8
20
 10
98.2973
 20
135.9538
 30
0.0000
 42
1.0000
  0
VERTEX
  8
20
 10
98.2938
 20
135.9573
 30
0.0000
  0
SEQEND
  8
0
  0
POLYLINE
  8
20
 66
1
 10
0.0000
 20
0.0000
 30
0.0000
 40
0.0100
 41
0.0100
 70
0
  0
VERTEX
  8
20
 10
87.0529
 20
124.7129
 30
0.0000
 42
0.4142
  0
VERTEX
  8
20
 10
87.0529
 20
123.2987
 30
0.0000
  0
SEQEND
  8
0
  0
POLYLINE
  8
20
 66
1
 10
0.0000
 20
0.0000
 30
0.0000
 40
0.0050
 41
0.0050
 70
0
  0
VERTEX
  8
20
 10
87.0547
 20
124.7111
 30
0.0000
 42
1.0000
  0
VERTEX
  8
20
 10
87.0511
 20
124.7147
 30
0.0000
  0
SEQEND
  8
0
  0
POLYLINE
  8
20
 66
1
 10
0.0000
 20
0.0000
 30
0.0000
 40
0.0050
 41
0.0050
 70
0
  0
VERTEX
  8
20
 10
87.0511
 20
123.2969
 30
0.0000
 42
1.0000
  0
VERTEX
  8
20
 10
87.0547
 20
123.3004
 30
0.0000
  0
SEQEND
  8
0
  0
POLYLINE
  8
20
 66
1
 10
0.0000
 20
0.0000
 30
0.0000
 40
0.0100
 41
0.0100
 70
0
  0
VERTEX
  8
20
 10
87.0529
 20
123.2987
 30
0.0000
  0
VERTEX
  8
20
 10
98.2955
 20
112.0560
 30
0.0000
  0
SEQEND
  8
0
  0
POLYLINE
  8
20
 66
1
 10
0.0000
 20
0.0000
 30
0.0000
 40
0.0050
 41
0.0050
 70
0
  0
VERTEX
  8
20
 10
98.2938
 20
112.0543
 30
0.0000
 42
1.0000
  0
VERTEX
  8
20
 10
98.2973
 20
112.0578
 30
0.0000
  0
SEQEND
  8
0
  0
POLYLINE
  8
20
 66
1
 10
0.0000
 20
0.0000
 30
0.0000
 40
0.0050
 41
0.0050
 70
0
  0
VERTEX
  8
20
 10
87.0547
 20
123.3004
 30
0.0000
 42
1.0000
  0
VERTEX
  8
20
 10
87.0511
 20
123.2969
 30
0.0000
  0
SEQEND
  8
0
  0
POLYLINE
  8
20
 66
1
 10
0.0000
 20
0.0000
 30
0.0000
 40
0.0100
 41
0.0100
 70
0
  0
VERTEX
  8
20
 10
98.2955
 20
112.0560
 30
0.0000
 42
0.4142
  0
VERTEX
  8
20
 10
99.7097
 20
112.0560
 30
0.0000
  0
SEQEND
  8
0
  0
POLYLINE
  8
20
 66
1
 10
0.0000
 20
0.0000
 30
0.0000
 40
0.0050
 41
0.0050
 70
0
  0
VERTEX
  8
20
 10
98.2973
 20
112.0578
 30
0.0000
 42
1.0000
  0
VERTEX
  8
20
 10
98.2938
 20
112.0543
 30
0.0000
  0
SEQEND
  8
0
  0
POLYLINE
  8
20
 66
1
 10
0.0000
 20
0.0000
 30
0.0000
 40
0.0050
 41
0.0050
 70
0
  0
VERTEX
  8
20
 10
99.7115
 20
112.0543
 30
0.0000
 42
1.0000
  0
VERTEX
  8
20
 10
99.7080
 20
112.0578
 30
0.0000
  0
SEQEND
  8
0
  0
POLYLINE
  8
20
 66
1
 10
0.0000
 20
0.0000
 30
0.0000
 40
0.0100
 41
0.0100
 70
0
  0
VERTEX
  8
20
 10
99.7097
 20
112.0560
 30
0.0000
  0
VERTEX
  8
20
 10
110.9524
 20
123.2987
 30
0.0000
  0
SEQEND
  8
0
  0
POLYLINE
  8
20
 66
1
 10
0.0000
 20
0.0000
 30
0.0000
 40
0.0050
 41
0.0050
 70
0
  0
VERTEX
  8
20
 10
110.9542
 20
123.2969
 30
0.0000
 42
1.0000
  0
VERTEX
  8
20
 10
110.9506
 20
123.3004
 30
0.0000
  0
SEQEND
  8
0
  0
POLYLINE
  8
20
 66
1
 10
0.0000
 20
0.0000
 30
0.0000
 40
0.0050
 41
0.0050
 70
0
  0
VERTEX
  8
20
 10
99.7080
 20
112.0578
 30
0.0000
 42
1.0000
  0
VERTEX
  8
20
 10
99.7115
 20
112.0543
 30
0.0000
  0
SEQEND
  8
0
  0
POLYLINE
  8
20
 66
1
 10
0.0000
 20
0.0000
 30
0.0000
 40
0.0100
 41
0.0100
 70
0
  0
VERTEX
  8
20
 10
110.9524
 20
123.2987
 30
0.0000
 42
0.4142
  0
VERTEX
  8
20
 10
110.9524
 20
124.7129
 30
0.0000
  0
SEQEND
  8
0
  0
POLYLINE
  8
20
 66
1
 10
0.0000
 20
0.0000
 30
0.0000
 40
0.0050
 41
0.0050
 70
0
  0
VERTEX
  8
20
 10
110.9506
 20
123.3004
 30
0.0000
 42
1.0000
  0
VERTEX
  8
20
 10
110.9542
 20
123.2969
 30
0.0000
  0
SEQEND
  8
0
  0
POLYLINE
  8
20
 66
1
 10
0.0000
 20
0.0000
 30
0.0000
 40
0.0050
 41
0.0050
 70
0
  0
VERTEX
  8
20
 10
110.9542
 20
124.7147
 30
0.0000
 42
1.0000
  0
VERTEX
  8
20
 10
110.9506
 20
124.7111
 30
0.0000
  0
SEQEND
  8
0
  0
POLYLINE
  8
20
 66
1
 10
0.0000
 20
0.0000
 30
0.0000
 40
0.0100
 41
0.0100
 70
0
  0
VERTEX
  8
20
 10
110.9524
 20
124.7129
 30
0.0000
  0
VERTEX
  8
20
 10
99.7097
 20
135.9555
 30
0.0000
  0
SEQEND
  8
0
  0
POLYLINE
  8
20
 66
1
 10
0.0000
 20
0.0000
 30
0.0000
 40
0.0050
 41
0.0050
 70
0
  0
VERTEX
  8
20
 10
99.7115
 20
135.9573
 30
0.0000
 42
1.0000
  0
VERTEX
  8
20
 10
99.7080
 20
135.9538
 30
0.0000
  0
SEQEND
  8
0
  0
POLYLINE
  8
20
 66
1
 10
0.0000
 20
0.0000
 30
0.0000
 40
0.0050
 41
0.0050
 70
0
  0
VERTEX
  8
20
 10
110.9506
 20
124.7111
 30
0.0000
 42
1.0000
  0
VERTEX
  8
20
 10
110.9542
 20
124.7147
 30
0.0000
  0
SEQEND
  8
0
  0
POLYLINE
  8
20
 66
1
 10
0.0000
 20
0.0000
 30
0.0000
 40
0.0100
 41
0.0100
 70
0
  0
VERTEX
  8
20
 10
99.7097
 20
135.9555
 30
0.0000
 42
0.4142
  0
VERTEX
  8
20
 10
98.2955
 20
135.9555
 30
0.0000
  0
SEQEND
  8
0
  0
POLYLINE
  8
20
 66
1
 10
0.0000
 20
0.0000
 30
0.0000
 40
0.0050
 41
0.0050
 70
0
  0
VERTEX
  8
20
 10
99.7080
 20
135.9538
 30
0.0000
 42
1.0000
  0
VERTEX
  8
20
 10
99.7115
 20
135.9573
 30
0.0000
  0
SEQEND
  8
0
  0
POLYLINE
  8
20
 66
1
 10
0.0000
 20
0.0000
 30
0.0000
 40
0.0050
 41
0.0050
 70
0
  0
VERTEX
  8
20
 10
98.2938
 20
135.9573
 30
0.0000
 42
1.0000
  0
VERTEX
  8
20
 10
98.2973
 20
135.9538
 30
0.0000
  0
SEQEND
  8
0
  0
POLYLINE
  8
20
 66
1
 10
0.0000
 20
0.0000
 30
0.0000
 40
0.0100
 41
0.0100
 70
0
  0
VERTEX
  8
20
 10
154.0000
 20
145.0000
 30
0.0000
  0
VERTEX
  8
20
 10
85.0000
 20
145.0000
 30
0.0000
  0
SEQEND
  8
0
  0
POLYLINE
  8
20
 66
1
 10
0.0000
 20
0.0000
 30
0.0000
 40
0.0050
 41
0.0050
 70
0
  0
VERTEX
  8
20
 10
85.0000
 20
145.0025
 30
0.0000
 42
1.0000
  0
VERTEX
  8
20
 10
85.0000
 20
144.9975
 30
0.0000
  0
SEQEND
  8
0
  0
POLYLINE
  8
20
 66
1
 10
0.0000
 20
0.0000
 30
0.0000
 40
0.0050
 41
0.0050
 70
0
  0
VERTEX
  8
20
 10
154.0000
 20
144.9975
 30
0.0000
 42
1.0000
  0
VERTEX
  8
20
 10
154.0000
 20
145.0025
 30
0.0000
  0
SEQEND
  8
0
  0
POLYLINE
  8
20
 66
1
 10
0.0000
 20
0.0000
 30
0.0000
 40
0.0100
 41
0.0100
 70
0
  0
VERTEX
  8
20
 10
85.0000
 20
145.0000
 30
0.0000
  0
VERTEX
  8
20
 10
85.0000
 20
195.0000
 30
0.0000
  0
SEQEND
  8
0
  0
POLYLINE
  8
20
 66
1
 10
0.0000
 20
0.0000
 30
0.0000
 40
0.0050
 41
0.0050
 70
0
  0
VERTEX
  8
20
 10
85.0025
 20
195.0000
 30
0.0000
 42
1.0000
  0
VERTEX
  8
20
 10
84.9975
 20
195.0000
 30
0.0000
  0
SEQEND
  8
0
  0
POLYLINE
  8
20
 66
1
 10
0.0000
 20
0.0000
 30
0.0000
 40
0.0050
 41
0.0050
 70
0
  0
VERTEX
  8
20
 10
84.9975
 20
145.0000
 30
0.0000
 42
1.0000
  0
VERTEX
  8
20
 10
85.0025
 20
145.0000
 30
0.0000
  0
SEQEND
  8
0
  0
POLYLINE
  8
20
 66
1
 10
0.0000
 20
0.0000
 30
0.0000
 40
0.0100
 41
0.0100
 70
0
  0
VERTEX
  8
20
 10
85.0000
 20
195.0000
 30
0.0000
  0
VERTEX
  8
20
 10
154.0000
 20
195.0000
 30
0.0000
  0
SEQEND
  8
0
  0
POLYLINE
  8
20
 66
1
 10
0.0000
 20
0.0000
 30
0.0000
 40
0.0050
 41
0.0050
 70
0
  0
VERTEX
  8
20
 10
154.0000
 20
194.9975
 30
0.0000
 42
1.0000
  0
VERTEX
  8
20
 10
154.0000
 20
195.0025
 30
0.0000
  0
SEQEND
  8
0
  0
POLYLINE
  8
20
 66
1
 10
0.0000
 20
0.0000
 30
0.0000
 40
0.0050
 41
0.0050
 70
0
  0
VERTEX
  8
20
 10
85.0000
 20
195.0025
 30
0.0000
 42
1.0000
  0
VERTEX
  8
20
 10
85.0000
 20
194.9975
 30
0.0000
  0
SEQEND
  8
0
  0
POLYLINE
  8
20
 66
1
 10
0.0000
 20
0.0000
 30
0.0000
 40
0.0100
 41
0.0100
 70
0
  0
VERTEX
  8
20
 10
154.0000
 20
195.0000
 30
0.0000
  0
VERTEX
  8
20
 10
154.0000
 20
145.0000
 30
0.0000
  0
SEQEND
  8
0
  0
POLYLINE
  8
20
 66
1
 10
0.0000
 20
0.0000
 30
0.0000
 40
0.0050
 41
0.0050
 70
0
  0
VERTEX
  8
20
 10
153.9975
 20
145.0000
 30
0.0000
 42
1.0000
  0
VERTEX
  8
20
 10
154.0025
 20
145.0000
 30
0.0000
  0
SEQEND
  8
0
  0
POLYLINE
  8
20
 66
1
 10
0.0000
 20
0.0000
 30
0.0000
 40
0.0050
 41
0.0050
 70
0
  0
VERTEX
  8
20
 10
154.0025
 20
195.0000
 30
0.0000
 42
1.0000
  0
VERTEX
  8
20
 10
153.9975
 20
195.0000
 30
0.0000
  0
SEQEND
  8
0
  0
POLYLINE
  8
20
 66
1
 10
0.0000
 20
0.0000
 30
0.0000
 40
0.0100
 41
0.0100
 70
0
  0
VERTEX
  8
20
 10
90.0000
 20
140.0000
 30
0.0000
  0
VERTEX
  8
20
 10
90.0000
 20
141.0000
 30
0.0000
  0
SEQEND
  8
0
  0
POLYLINE
  8
20
 66
1
 10
0.0000
 20
0.0000
 30
0.0000
 40
0.0050
 41
0.0050
 70
0
  0
VERTEX
  8
20
 10
90.0025
 20
141.0000
 30
0.0000
 42
1.0000
  0
VERTEX
  8
20
 10
89.9975
 20
141.0000
 30
0.0000
  0
SEQEND
  8
0
  0
POLYLINE
  8
20
 66
1
 10
0.0000
 20
0.0000
 30
0.0000
 40
0.0050
 41
0.0050
 70
0
  0
VERTEX
  8
20
 10
89.9975
 20
140.0000
 30
0.0000
 42
1.0000
  0
VERTEX
  8
20
 10
90.0025
 20
140.0000
 30
0.0000
  0
SEQEND
  8
0
  0
POLYLINE
  8
20
 66
1
 10
0.0000
 20
0.0000
 30
0.0000
 40
0.0100
 41
0.0100
 70
0
  0
VERTEX
  8
20
 10
91.0000
 20
142.0000
 30
0.0000
 42
0.4142
  0
VERTEX
  8
20
 10
90.0000
 20
141.0000
 30
0.0000
  0
SEQEND
  8
0
  0
POLYLINE
  8
20
 66
1
 10
0.0000
 20
0.0000
 30
0.0000
 40
0.0050
 41
0.0050
 70
0
  0
VERTEX
  8
20
 10
91.0000
 20
141.9975
 30
0.0000
 42
1.0000
  0
VERTEX
  8
20
 10
91.0000
 20
142.0025
 30
0.0000
  0
SEQEND
  8
0
  0
POLYLINE
  8
20
 66
1
 10
0.0000
 20
0.0000
 30
0.0000
 40
0.0050
 41
0.0050
 70
0
  0
VERTEX
  8
20
 10
89.9975
 20
141.0000
 30
0.0000
 42
1.0000
  0
VERTEX
  8
20
 10
90.0025
 20
141.0000
 30
0.0000
  0
SEQEND
  8
0
  0
POLYLINE
  8
20
 66
1
 10
0.0000
 20
0.0000
 30
0.0000
 40
0.0100
 41
0.0100
 70
0
  0
VERTEX
  8
20
 10
91.0000
 20
142.0000
 30
0.0000
  0
VERTEX
  8
20
 10
107.0000
 20
142.0000
 30
0.0000
  0
SEQEND
  8
0
  0
POLYLINE
  8
20
 66
1
 10
0.0000
 20
0.0000
 30
0.0000
 40
0.0050
 41
0.0050
 70
0
  0
VERTEX
  8
20
 10
107.0000
 20
141.9975
 30
0.0000
 42
1.0000
  0
VERTEX
  8
20
 10
107.0000
 20
142.0025
 30
0.0000
  0
SEQEND
  8
0
  0
POLYLINE
  8
20
 66
1
 10
0.0000
 20
0.0000
 30
0.0000
 40
0.0050
 41
0.0050
 70
0
  0
VERTEX
  8
20
 10
91.0000
 20
142.0025
 30
0.0000
 42
1.0000
  0
VERTEX
  8
20
 10
91.0000
 20
141.9975
 30
0.0000
  0
SEQEND
  8
0
  0
POLYLINE
  8
20
 66
1
 10
0.0000
 20
0.0000
 30
0.0000
 40
0.0100
 41
0.0100
 70
0
  0
VERTEX
  8
20
 10
108.0000
 20
141.0000
 30
0.0000
 42
0.4142
  0
VERTEX
  8
20
 10
107.0000
 20
142.0000
 30
0.0000
  0
SEQEND
  8
0
  0
POLYLINE
  8
20
 66
1
 10
0.0000
 20
0.0000
 30
0.0000
 40
0.0050
 41
0.0050
 70
0
  0
VERTEX
  8
20
 10
107.9975
 20
141.0000
 30
0.0000
 42
1.0000
  0
VERTEX
  8
20
 10
108.0025
 20
141.0000
 30
0.0000
  0
SEQEND
  8
0
  0
POLYLINE
  8
20
 66
1
 10
0.0000
 20
0.0000
 30
0.0000
 40
0.0050
 41
0.0050
 70
0
  0
VERTEX
  8
20
 10
107.0000
 20
142.0025
 30
0.0000
 42
1.0000
  0
VERTEX
  8
20
 10
107.0000
 20
141.9975
 30
0.0000
  0
SEQEND
  8
0
  0
POLYLINE
  8
20
 66
1
 10
0.0000
 20
0.0000
 30
0.0000
 40
0.0100
 41
0.0100
 70
0
  0
VERTEX
  8
20
 10
108.0000
 20
141.0000
 30
0.0000
  0
VERTEX
  8
20
 10
108.0000
 20
140.0000
 30
0.0000
  0
SEQEND
  8
0
  0
POLYLINE
  8
20
 66
1
 10
0.0000
 20
0.0000
 30
0.0000
 40
0.0050
 41
0.0050
 70
0
  0
VERTEX
  8
20
 10
107.9975
 20
140.0000
 30
0.0000
 42
1.0000
  0
VERTEX
  8
20
 10
108.0025
 20
140.0000
 30
0.0000
  0
SEQEND
  8
0
  0
POLYLINE
  8
20
 66
1
 10
0.0000
 20
0.0000
 30
0.0000
 40
0.0050
 41
0.0050
 70
0
  0
VERTEX
  8
20
 10
108.0025
 20
141.0000
 30
0.0000
 42
1.0000
  0
VERTEX
  8
20
 10
107.9975
 20
141.0000
 30
0.0000
  0
SEQEND
  8
0
  0
POLYLINE
  8
20
 66
1
 10
0.0000
 20
0.0000
 30
0.0000
 40
0.0100
 41
0.0100
 70
0
  0
VERTEX
  8
20
 10
107.0000
 20
139.0000
 30
0.0000
 42
0.4142
  0
VERTEX
  8
20
 10
108.0000
 20
140.0000
 30
0.0000
  0
SEQEND
  8
0
  0
POLYLINE
  8
20
 66
1
 10
0.0000
 20
0.0000
 30
0.0000
 40
0.0050
 41
0.0050
 70
0
  0
VERTEX
  8
20
 10
107.0000
 20
139.0025
 30
0.0000
 42
1.0000
  0
VERTEX
  8
20
 10
107.0000
 20
138.9975
 30
0.0000
  0
SEQEND
  8
0
  0
POLYLINE
  8
20
 66
1
 10
0.0000
 20
0.0000
 30
0.0000
 40
0.0050
 41
0.0050
 70
0
  0
VERTEX
  8
20
 10
108.0025
 20
140.0000
 30
0.0000
 42
1.0000
  0
VERTEX
  8
20
 10
107.9975
 20
140.0000
 30
0.0000
  0
SEQEND
  8
0
  0
POLYLINE
  8
20
 66
1
 10
0.0000
 20
0.0000
 30
0.0000
 40
0.0100
 41
0.0100
 70
0
  0
VERTEX
  8
20
 10
107.0000
 20
139.0000
 30
0.0000
  0
VERTEX
  8
20
 10
91.0000
 20
139.0000
 30
0.0000
  0
SEQEND
  8
0
  0
POLYLINE
  8
20
 66
1
 10
0.0000
 20
0.0000
 30
0.0000
 40
0.0050
 41
0.0050
 70
0
  0
VERTEX
  8
20
 10
91.0000
 20
139.0025
 30
0.0000
 42
1.0000
  0
VERTEX
  8
20
 10
91.0000
 20
138.9975
 30
0.0000
  0
SEQEND
  8
0
  0
POLYLINE
  8
20
 66
1
 10
0.0000
 20
0.0000
 30
0.0000
 40
0.0050
 41
0.0050
 70
0
  0
VERTEX
  8
20
 10
107.0000
 20
138.9975
 30
0.0000
 42
1.0000
  0
VERTEX
  8
20
 10
107.0000
 20
139.0025
 30
0.0000
  0
SEQEND
  8
0
  0
POLYLINE
  8
20
 66
1
 10
0.0000
 20
0.0000
 30
0.0000
 40
0.0100
 41
0.0100
 70
0
  0
VERTEX
  8
20
 10
90.0000
 20
140.0000
 30
0.0000
 42
0.4142
  0
VERTEX
  8
20
 10
91.0000
 20
139.0000
 30
0.0000
  0
SEQEND
  8
0
  0
POLYLINE
  8
20
 66
1
 10
0.0000
 20
0.0000
 30
0.0000
 40
0.0050
 41
0.0050
 70
0
  0
VERTEX
  8
20
 10
90.0025
 20
140.0000
 30
0.0000
 42
1.0000
  0
VERTEX
  8
20
 10
89.9975
 20
140.0000
 30
0.0000
  0
SEQEND
  8
0
  0
POLYLINE
  8
20
 66
1
 10
0.0000
 20
0.0000
 30
0.0000
 40
0.0050
 41
0.0050
 70
0
  0
VERTEX
  8
20
 10
91.0000
 20
138.9975
 30
0.0000
 42
1.0000
  0
VERTEX
  8
20
 10
91.0000
 20
139.0025
 30
0.0000
  0
SEQEND
  8
0
  0
POLYLINE
  8
20
 66
1
 10
0.0000
 20
0.0000
 30
0.0000
 40
0.0100
 41
0.0100
 70
0
  0
VERTEX
  8
20
 10
0.0000
 20
39.5000
 30
0.0000
  0
VERTEX
  8
20
 10
0.0000
 20
0.0000
 30
0.0000
  0
SEQEND
  8
0
  0
POLYLINE
  8
20
 66
1
 10
0.0000
 20
0.0000
 30
0.0000
 40
0.0050
 41
0.0050
 70
0
  0
VERTEX
  8
20
 10
-0.0025
 20
0.0000
 30
0.0000
 42
1.0000
  0
VERTEX
  8
20
 10
0.0025
 20
0.0000
 30
0.0000
  0
SEQEND
  8
0
  0
POLYLINE
  8
20
 66
1
 10
0.0000
 20
0.0000
 30
0.0000
 40
0.0050
 41
0.0050
 70
0
  0
VERTEX
  8
20
 10
0.0025
 20
39.5000
 30
0.0000
 42
1.0000
  0
VERTEX
  8
20
 10
-0.0025
 20
39.5000
 30
0.0000
  0
SEQEND
  8
0
  0
POLYLINE
  8
20
 66
1
 10
0.0000
 20
0.0000
 30
0.0000
 40
0.0100
 41
0.0100
 70
0
  0
VERTEX
  8
20
 10
0.0000
 20
0.0000
 30
0.0000
  0
VERTEX
  8
20
 10
73.0000
 20
0.0000
 30
0.0000
  0
SEQEND
  8
0
  0
POLYLINE
  8
20
 66
1
 10
0.0000
 20
0.0000
 30
0.0000
 40
0.0050
 41
0.0050
 70
0
  0
VERTEX
  8
20
 10
73.0000
 20
-0.0025
 30
0.0000
 42
1.0000
  0
VERTEX
  8
20
 10
73.0000
 20
0.0025
 30
0.0000
  0
SEQEND
  8
0
  0
POLYLINE
  8
20
 66
1
 10
0.0000
 20
0.0000
 30
0.0000
 40
0.0050
 41
0.0050
 70
0
  0
VERTEX
  8
20
 10
0.0000
 20
0.0025
 30
0.0000
 42
1.0000
  0
VERTEX
  8
20
 10
0.0000
 20
-0.0025
 30
0.0000
  0
SEQEND
  8
0
  0
POLYLINE
  8
20
 66
1
 10
0.0000
 20
0.0000
 30
0.0000
 40
0.0100
 41
0.0100
 70
0
  0
VERTEX
  8
20
 10
73.0000
 20
0.0000
 30
0.0000
  0
VERTEX
  8
20
 10
73.0000
 20
69.0000
 30
0.0000
  0
SEQEND
  8
0
  0
POLYLINE
  8
20
 66
1
 10
0.0000
 20
0.0000
 30
0.0000
 40
0.0050
 41
0.0050
 70
0
  0
VERTEX
  8
20
 10
73.0025
 20
69.0000
 30
0.0000
 42
1.0000
  0
VERTEX
  8
20
 10
72.9975
 20
69.0000
 30
0.0000
  0
SEQEND
  8
0
  0
POLYLINE
  8
20
 66
1
 10
0.0000
 20
0.0000
 30
0.0000
 40
0.0050
 41
0.0050
 70
0
  0
VERTEX
  8
20
 10
72.9975
 20
0.0000
 30
0.0000
 42
1.0000
  0
VERTEX
  8
20
 10
73.0025
 20
0.0000
 30
0.0000
  0
SEQEND
  8
0
  0
POLYLINE
  8
20
 66
1
 10
0.0000
 20
0.0000
 30
0.0000
 40
0.0100
 41
0.0100
 70
0
  0
VERTEX
  8
20
 10
29.0000
 20
58.7500
 30
0.0000
  0
VERTEX
  8
20
 10
64.0000
 20
58.7500
 30
0.0000
  0
SEQEND
  8
0
  0
POLYLINE
  8
20
 66
1
 10
0.0000
 20
0.0000
 30
0.0000
 40
0.0050
 41
0.0050
 70
0
  0
VERTEX
  8
20
 10
64.0000
 20
58.7475
 30
0.0000
 42
1.0000
  0
VERTEX
  8
20
 10
64.0000
 20
58.7525
 30
0.0000
  0
SEQEND
  8
0
  0
POLYLINE
  8
20
 66
1
 10
0.0000
 20
0.0000
 30
0.0000
 40
0.0050
 41
0.0050
 70
0
  0
VERTEX
  8
20
 10
29.0000
 20
58.7525
 30
0.0000
 42
1.0000
  0
VERTEX
  8
20
 10
29.0000
 20
58.7475
 30
0.0000
  0
SEQEND
  8
0
  0
POLYLINE
  8
20
 66
1
 10
0.0000
 20
0.0000
 30
0.0000
 40
0.0100
 41
0.0100
 70
0
  0
VERTEX
  8
20
 10
64.0000
 20
58.7500
 30
0.0000
 42
0.4142
  0
VERTEX
  8
20
 10
67.0000
 20
61.7500
 30
0.0000
  0
SEQEND
  8
0
  0
POLYLINE
  8
20
 66
1
 10
0.0000
 20
0.0000
 30
0.0000
 40
0.0050
 41
0.0050
 70
0
  0
VERTEX
  8
20
 10
64.0000
 20
58.7525
 30
0.0000
 42
1.0000
  0
VERTEX
  8
20
 10
64.0000
 20
58.7475
 30
0.0000
  0
SEQEND
  8
0
  0
POLYLINE
  8
20
 66
1
 10
0.0000
 20
0.0000
 30
0.0000
 40
0.0050
 41
0.0050
 70
0
  0
VERTEX
  8
20
 10
67.0025
 20
61.7500
 30
0.0000
 42
1.0000
  0
VERTEX
  8
20
 10
66.9975
 20
61.7500
 30
0.0000
  0
SEQEND
  8
0
  0
POLYLINE
  8
20
 66
1
 10
0.0000
 20
0.0000
 30
0.0000
 40
0.0100
 41
0.0100
 70
0
  0
VERTEX
  8
20
 10
67.0000
 20
61.7500
 30
0.0000
  0
VERTEX
  8
20
 10
67.0000
 20
69.0000
 30
0.0000
  0
SEQEND
  8
0
  0
POLYLINE
  8
20
 66
1
 10
0.0000
 20
0.0000
 30
0.0000
 40
0.0050
 41
0.0050
 70
0
  0
VERTEX
  8
20
 10
67.0025
 20
69.0000
 30
0.0000
 42
1.0000
  0
VERTEX
  8
20
 10
66.9975
 20
69.0000
 30
0.0000
  0
SEQEND
  8
0
  0
POLYLINE
  8
20
 66
1
 10
0.0000
 20
0.0000
 30
0.0000
 40
0.0050
 41
0.0050
 70
0
  0
VERTEX
  8
20
 10
66.9975
 20
61.7500
 30
0.0000
 42
1.0000
  0
VERTEX
  8
20
 10
67.0025
 20
61.7500
 30
0.0000
  0
SEQEND
  8
0
  0
POLYLINE
  8
20
 66
1
 10
0.0000
 20
0.0000
 30
0.0000
 40
0.0100
 41
0.0100
 70
0
  0
VERTEX
  8
20
 10
0.0000
 20
39.5000
 30
0.0000
  0
VERTEX
  8
20
 10
29.0000
 20
39.5000
 30
0.0000
  0
SEQEND
  8
0
  0
POLYLINE
  8
20
 66
1
 10
0.0000
 20
0.0000
 30
0.0000
 40
0.0050
 41
0.0050
 70
0
  0
VERTEX
  8
20
 10
29.0000
 20
39.4975
 30
0.0000
 42
1.0000
  0
VERTEX
  8
20
 10
29.0000
 20
39.5025
 30
0.0000
  0
SEQEND
  8
0
  0
POLYLINE
  8
20
 66
1
 10
0.0000
 20
0.0000
 30
0.0000
 40
0.0050
 41
0.0050
 70
0
  0
VERTEX
  8
20
 10
0.0000
 20
39.5025
 30
0.0000
 42
1.0000
  0
VERTEX
  8
20
 10
0.0000
 20
39.4975
 30
0.0000
  0
SEQEND
  8
0
  0
POLYLINE
  8
20
 66
1
 10
0.0000
 20
0.0000
 30
0.0000
 40
0.0100
 41
0.0100
 70
0
  0
VERTEX
  8
20
 10
29.0000
 20
39.5000
 30
0.0000
  0
VERTEX
  8
20
 10
29.0000
 20
43.0000
 30
0.0000
  0
SEQEND
  8
0
  0
POLYLINE
  8
20
 66
1
 10
0.0000
 20
0.0000
 30
0.0000
 40
0.0050
 41
0.0050
 70
0
  0
VERTEX
  8
20
 10
29.0025
 20
43.0000
 30
0.0000
 42
1.0000
  0
VERTEX
  8
20
 10
28.9975
 20
43.0000
 30
0.0000
  0
SEQEND
  8
0
  0
POLYLINE
  8
20
 66
1
 10
0.0000
 20
0.0000
 30
0.0000
 40
0.0050
 41
0.0050
 70
0
  0
VERTEX
  8
20
 10
28.9975
 20
39.5000
 30
0.0000
 42
1.0000
  0
VERTEX
  8
20
 10
29.0025
 20
39.5000
 30
0.0000
  0
SEQEND
  8
0
  0
POLYLINE
  8
20
 66
1
 10
0.0000
 20
0.0000
 30
0.0000
 40
0.0100
 41
0.0100
 70
0
  0
VERTEX
  8
20
 10
29.0000
 20
55.0000
 30
0.0000
  0
VERTEX
  8
20
 10
29.0000
 20
58.7500
 30
0.0000
  0
SEQEND
  8
0
  0
POLYLINE
  8
20
 66
1
 10
0.0000
 20
0.0000
 30
0.0000
 40
0.0050
 41
0.0050
 70
0
  0
VERTEX
  8
20
 10
29.0025
 20
58.7500
 30
0.0000
 42
1.0000
  0
VERTEX
  8
20
 10
28.9975
 20
58.7500
 30
0.0000
  0
SEQEND
  8
0
  0
POLYLINE
  8
20
 66
1
 10
0.0000
 20
0.0000
 30
0.0000
 40
0.0050
 41
0.0050
 70
0
  0
VERTEX
  8
20
 10
28.9975
 20
55.0000
 30
0.0000
 42
1.0000
  0
VERTEX
  8
20
 10
29.0025
 20
55.0000
 30
0.0000
  0
SEQEND
  8
0
  0
POLYLINE
  8
20
 66
1
 10
0.0000
 20
0.0000
 30
0.0000
 40
0.0100
 41
0.0100
 70
0
  0
VERTEX
  8
20
 10
29.0000
 20
55.0000
 30
0.0000
  0
VERTEX
  8
20
 10
39.0000
 20
55.0000
 30
0.0000
  0
SEQEND
  8
0
  0
POLYLINE
  8
20
 66
1
 10
0.0000
 20
0.0000
 30
0.0000
 40
0.0050
 41
0.0050
 70
0
  0
VERTEX
  8
20
 10
39.0000
 20
54.9975
 30
0.0000
 42
1.0000
  0
VERTEX
  8
20
 10
39.0000
 20
55.0025
 30
0.0000
  0
SEQEND
  8
0
  0
POLYLINE
  8
20
 66
1
 10
0.0000
 20
0.0000
 30
0.0000
 40
0.0050
 41
0.0050
 70
0
  0
VERTEX
  8
20
 10
29.0000
 20
55.0025
 30
0.0000
 42
1.0000
  0
VERTEX
  8
20
 10
29.0000
 20
54.9975
 30
0.0000
  0
SEQEND
  8
0
  0
POLYLINE
  8
20
 66
1
 10
0.0000
 20
0.0000
 30
0.0000
 40
0.0100
 41
0.0100
 70
0
  0
VERTEX
  8
20
 10
39.0000
 20
55.0000
 30
0.0000
  0
VERTEX
  8
20
 10
39.0000
 20
43.0000
 30
0.0000
  0
SEQEND
  8
0
  0
POLYLINE
  8
20
 66
1
 10
0.0000
 20
0.0000
 30
0.0000
 40
0.0050
 41
0.0050
 70
0
  0
VERTEX
  8
20
 10
38.9975
 20
43.0000
 30
0.0000
 42
1.0000
  0
VERTEX
  8
20
 10
39.0025
 20
43.0000
 30
0.0000
  0
SEQEND
  8
0
  0
POLYLINE
  8
20
 66
1
 10
0.0000
 20
0.0000
 30
0.0000
 40
0.0050
 41
0.0050
 70
0
  0
VERTEX
  8
20
 10
39.0025
 20
55.0000
 30
0.0000
 42
1.0000
  0
VERTEX
  8
20
 10
38.9975
 20
55.0000
 30
0.0000
  0
SEQEND
  8
0
  0
POLYLINE
  8
20
 66
1
 10
0.0000
 20
0.0000
 30
0.0000
 40
0.0100
 41
0.0100
 70
0
  0
VERTEX
  8
20
 10
39.0000
 20
43.0000
 30
0.0000
  0
VERTEX
  8
20
 10
29.0000
 20
43.0000
 30
0.0000
  0
SEQEND
  8
0
  0
POLYLINE
  8
20
 66
1
 10
0.0000
 20
0.0000
 30
0.0000
 40
0.0050
 41
0.0050
 70
0
  0
VERTEX
  8
20
 10
29.0000
 20
43.0025
 30
0.0000
 42
1.0000
  0
VERTEX
  8
20
 10
29.0000
 20
42.9975
 30
0.0000
  0
SEQEND
  8
0
  0
POLYLINE
  8
20
 66
1
 10
0.0000
 20
0.0000
 30
0.0000
 40
0.0050
 41
0.0050
 70
0
  0
VERTEX
  8
20
 10
39.0000
 20
42.9975
 30
0.0000
 42
1.0000
  0
VERTEX
  8
20
 10
39.0000
 20
43.0025
 30
0.0000
  0
SEQEND
  8
0
  0
POLYLINE
  8
20
 66
1
 10
0.0000
 20
0.0000
 30
0.0000
 40
0.0100
 41
0.0100
 70
0
  0
VERTEX
  8
20
 10
67.0000
 20
69.0000
 30
0.0000
  0
VERTEX
  8
20
 10
73.0000
 20
69.0000
 30
0.0000
  0
SEQEND
  8
0
  0
POLYLINE
  8
20
 66
1
 10
0.0000
 20
0.0000
 30
0.0000
 40
0.0050
 41
0.0050
 70
0
  0
VERTEX
  8
20
 10
73.0000
 20
68.9975
 30
0.0000
 42
1.0000
  0
VERTEX
  8
20
 10
73.0000
 20
69.0025
 30
0.0000
  0
SEQEND
  8
0
  0
POLYLINE
  8
20
 66
1
 10
0.0000
 20
0.0000
 30
0.0000
 40
0.0050
 41
0.0050
 70
0
  0
VERTEX
  8
20
 10
67.0000
 20
69.0025
 30
0.0000
 42
1.0000
  0
VERTEX
  8
20
 10
67.0000
 20
68.9975
 30
0.0000
  0
SEQEND
  8
0
  0
POLYLINE
  8
20
 66
1
 10
0.0000
 20
0.0000
 30
0.0000
 40
0.0100
 41
0.0100
 70
0
  0
VERTEX
  8
20
 10
156.0000
 20
87.0000
 30
0.0000
  0
VERTEX
  8
20
 10
156.0000
 20
95.0000
 30
0.0000
  0
SEQEND
  8
0
  0
POLYLINE
  8
20
 66
1
 10
0.0000
 20
0.0000
 30
0.0000
 40
0.0050
 41
0.0050
 70
0
  0
VERTEX
  8
20
 10
156.0025
 20
95.0000
 30
0.0000
 42
1.0000
  0
VERTEX
  8
20
 10
155.9975
 20
95.0000
 30
0.0000
  0
SEQEND
  8
0
  0
POLYLINE
  8
20
 66
1
 10
0.0000
 20
0.0000
 30
0.0000
 40
0.0050
 41
0.0050
 70
0
  0
VERTEX
  8
20
 10
155.9975
 20
87.0000
 30
0.0000
 42
1.0000
  0
VERTEX
  8
20
 10
156.0025
 20
87.0000
 30
0.0000
  0
SEQEND
  8
0
  0
POLYLINE
  8
20
 66
1
 10
0.0000
 20
0.0000
 30
0.0000
 40
0.0100
 41
0.0100
 70
0
  0
VERTEX
  8
20
 10
156.0000
 20
95.0000
 30
0.0000
  0
VERTEX
  8
20
 10
83.0000
 20
95.0000
 30
0.0000
  0
SEQEND
  8
0
  0
POLYLINE
  8
20
 66
1
 10
0.0000
 20
0.0000
 30
0.0000
 40
0.0050
 41
0.0050
 70
0
  0
VERTEX
  8
20
 10
83.0000
 20
95.0025
 30
0.0000
 42
1.0000
  0
VERTEX
  8
20
 10
83.0000
 20
94.9975
 30
0.0000
  0
SEQEND
  8
0
  0
POLYLINE
  8
20
 66
1
 10
0.0000
 20
0.0000
 30
0.0000
 40
0.0050
 41
0.0050
 70
0
  0
VERTEX
  8
20
 10
156.0000
 20
94.9975
 30
0.0000
 42
1.0000
  0
VERTEX
  8
20
 10
156.0000
 20
95.0025
 30
0.0000
  0
SEQEND
  8
0
  0
POLYLINE
  8
20
 66
1
 10
0.0000
 20
0.0000
 30
0.0000
 40
0.0100
 41
0.0100
 70
0
  0
VERTEX
  8
20
 10
83.0000
 20
95.0000
 30
0.0000
  0
VERTEX
  8
20
 10
83.0000
 20
54.0000
 30
0.0000
  0
SEQEND
  8
0
  0
POLYLINE
  8
20
 66
1
 10
0.0000
 20
0.0000
 30
0.0000
 40
0.0050
 41
0.0050
 70
0
  0
VERTEX
  8
20
 10
82.9975
 20
54.0000
 30
0.0000
 42
1.0000
  0
VERTEX
  8
20
 10
83.0025
 20
54.0000
 30
0.0000
  0
SEQEND
  8
0
  0
POLYLINE
  8
20
 66
1
 10
0.0000
 20
0.0000
 30
0.0000
 40
0.0050
 41
0.0050
 70
0
  0
VERTEX
  8
20
 10
83.0025
 20
95.0000
 30
0.0000
 42
1.0000
  0
VERTEX
  8
20
 10
82.9975
 20
95.0000
 30
0.0000
  0
SEQEND
  8
0
  0
POLYLINE
  8
20
 66
1
 10
0.0000
 20
0.0000
 30
0.0000
 40
0.0100
 41
0.0100
 70
0
  0
VERTEX
  8
20
 10
83.0000
 20
44.0000
 30
0.0000
  0
VERTEX
  8
20
 10
83.0000
 20
0.0000
 30
0.0000
  0
SEQEND
  8
0
  0
POLYLINE
  8
20
 66
1
 10
0.0000
 20
0.0000
 30
0.0000
 40
0.0050
 41
0.0050
 70
0
  0
VERTEX
  8
20
 10
82.9975
 20
0.0000
 30
0.0000
 42
1.0000
  0
VERTEX
  8
20
 10
83.0025
 20
0.0000
 30
0.0000
  0
SEQEND
  8
0
  0
POLYLINE
  8
20
 66
1
 10
0.0000
 20
0.0000
 30
0.0000
 40
0.0050
 41
0.0050
 70
0
  0
VERTEX
  8
20
 10
83.0025
 20
44.0000
 30
0.0000
 42
1.0000
  0
VERTEX
  8
20
 10
82.9975
 20
44.0000
 30
0.0000
  0
SEQEND
  8
0
  0
POLYLINE
  8
20
 66
1
 10
0.0000
 20
0.0000
 30
0.0000
 40
0.0100
 41
0.0100
 70
0
  0
VERTEX
  8
20
 10
83.0000
 20
0.0000
 30
0.0000
  0
VERTEX
  8
20
 10
156.0000
 20
0.0000
 30
0.0000
  0
SEQEND
  8
0
  0
POLYLINE
  8
20
 66
1
 10
0.0000
 20
0.0000
 30
0.0000
 40
0.0050
 41
0.0050
 70
0
  0
VERTEX
  8
20
 10
156.0000
 20
-0.0025
 30
0.0000
 42
1.0000
  0
VERTEX
  8
20
 10
156.0000
 20
0.0025
 30
0.0000
  0
SEQEND
  8
0
  0
POLYLINE
  8
20
 66
1
 10
0.0000
 20
0.0000
 30
0.0000
 40
0.0050
 41
0.0050
 70
0
  0
VERTEX
  8
20
 10
83.0000
 20
0.0025
 30
0.0000
 42
1.0000
  0
VERTEX
  8
20
 10
83.0000
 20
-0.0025
 30
0.0000
  0
SEQEND
  8
0
  0
POLYLINE
  8
20
 66
1
 10
0.0000
 20
0.0000
 30
0.0000
 40
0.0100
 41
0.0100
 70
0
  0
VERTEX
  8
20
 10
156.0000
 20
0.0000
 30
0.0000
  0
VERTEX
  8
20
 10
156.0000
 20
69.0000
 30
0.0000
  0
SEQEND
  8
0
  0
POLYLINE
  8
20
 66
1
 10
0.0000
 20
0.0000
 30
0.0000
 40
0.0050
 41
0.0050
 70
0
  0
VERTEX
  8
20
 10
156.0025
 20
69.0000
 30
0.0000
 42
1.0000
  0
VERTEX
  8
20
 10
155.9975
 20
69.0000
 30
0.0000
  0
SEQEND
  8
0
  0
POLYLINE
  8
20
 66
1
 10
0.0000
 20
0.0000
 30
0.0000
 40
0.0050
 41
0.0050
 70
0
  0
VERTEX
  8
20
 10
155.9975
 20
0.0000
 30
0.0000
 42
1.0000
  0
VERTEX
  8
20
 10
156.0025
 20
0.0000
 30
0.0000
  0
SEQEND
  8
0
  0
POLYLINE
  8
20
 66
1
 10
0.0000
 20
0.0000
 30
0.0000
 40
0.0100
 41
0.0100
 70
0
  0
VERTEX
  8
20
 10
151.0000
 20
77.0000
 30
0.0000
  0
VERTEX
  8
20
 10
150.0000
 20
77.0000
 30
0.0000
  0
SEQEND
  8
0
  0
POLYLINE
  8
20
 66
1
 10
0.0000
 20
0.0000
 30
0.0000
 40
0.0050
 41
0.0050
 70
0
  0
VERTEX
  8
20
 10
150.0000
 20
77.0025
 30
0.0000
 42
1.0000
  0
VERTEX
  8
20
 10
150.0000
 20
76.9975
 30
0.0000
  0
SEQEND
  8
0
  0
POLYLINE
  8
20
 66
1
 10
0.0000
 20
0.0000
 30
0.0000
 40
0.0050
 41
0.0050
 70
0
  0
VERTEX
  8
20
 10
151.0000
 20
76.9975
 30
0.0000
 42
1.0000
  0
VERTEX
  8
20
 10
151.0000
 20
77.0025
 30
0.0000
  0
SEQEND
  8
0
  0
POLYLINE
  8
20
 66
1
 10
0.0000
 20
0.0000
 30
0.0000
 40
0.0100
 41
0.0100
 70
0
  0
VERTEX
  8
20
 10
150.0000
 20
77.0000
 30
0.0000
  0
VERTEX
  8
20
 10
150.0000
 20
87.0000
 30
0.0000
  0
SEQEND
  8
0
  0
POLYLINE
  8
20
 66
1
 10
0.0000
 20
0.0000
 30
0.0000
 40
0.0050
 41
0.0050
 70
0
  0
VERTEX
  8
20
 10
150.0025
 20
87.0000
 30
0.0000
 42
1.0000
  0
VERTEX
  8
20
 10
149.9975
 20
87.0000
 30
0.0000
  0
SEQEND
  8
0
  0
POLYLINE
  8
20
 66
1
 10
0.0000
 20
0.0000
 30
0.0000
 40
0.0050
 41
0.0050
 70
0
  0
VERTEX
  8
20
 10
149.9975
 20
77.0000
 30
0.0000
 42
1.0000
  0
VERTEX
  8
20
 10
150.0025
 20
77.0000
 30
0.0000
  0
SEQEND
  8
0
  0
POLYLINE
  8
20
 66
1
 10
0.0000
 20
0.0000
 30
0.0000
 40
0.0100
 41
0.0100
 70
0
  0
VERTEX
  8
20
 10
150.0000
 20
87.0000
 30
0.0000
  0
VERTEX
  8
20
 10
156.0000
 20
87.0000
 30
0.0000
  0
SEQEND
  8
0
  0
POLYLINE
  8
20
 66
1
 10
0.0000
 20
0.0000
 30
0.0000
 40
0.0050
 41
0.0050
 70
0
  0
VERTEX
  8
20
 10
156.0000
 20
86.9975
 30
0.0000
 42
1.0000
  0
VERTEX
  8
20
 10
156.0000
 20
87.0025
 30
0.0000
  0
SEQEND
  8
0
  0
POLYLINE
  8
20
 66
1
 10
0.0000
 20
0.0000
 30
0.0000
 40
0.0050
 41
0.0050
 70
0
  0
VERTEX
  8
20
 10
150.0000
 20
87.0025
 30
0.0000
 42
1.0000
  0
VERTEX
  8
20
 10
150.0000
 20
86.9975
 30
0.0000
  0
SEQEND
  8
0
  0
POLYLINE
  8
20
 66
1
 10
0.0000
 20
0.0000
 30
0.0000
 40
0.0100
 41
0.0100
 70
0
  0
VERTEX
  8
20
 10
83.0000
 20
54.0000
 30
0.0000
  0
VERTEX
  8
20
 10
96.0000
 20
54.0000
 30
0.0000
  0
SEQEND
  8
0
  0
POLYLINE
  8
20
 66
1
 10
0.0000
 20
0.0000
 30
0.0000
 40
0.0050
 41
0.0050
 70
0
  0
VERTEX
  8
20
 10
96.0000
 20
53.9975
 30
0.0000
 42
1.0000
  0
VERTEX
  8
20
 10
96.0000
 20
54.0025
 30
0.0000
  0
SEQEND
  8
0
  0
POLYLINE
  8
20
 66
1
 10
0.0000
 20
0.0000
 30
0.0000
 40
0.0050
 41
0.0050
 70
0
  0
VERTEX
  8
20
 10
83.0000
 20
54.0025
 30
0.0000
 42
1.0000
  0
VERTEX
  8
20
 10
83.0000
 20
53.9975
 30
0.0000
  0
SEQEND
  8
0
  0
POLYLINE
  8
20
 66
1
 10
0.0000
 20
0.0000
 30
0.0000
 40
0.0100
 41
0.0100
 70
0
  0
VERTEX
  8
20
 10
96.0000
 20
54.0000
 30
0.0000
  0
VERTEX
  8
20
 10
96.0000
 20
44.0000
 30
0.0000
  0
SEQEND
  8
0
  0
POLYLINE
  8
20
 66
1
 10
0.0000
 20
0.0000
 30
0.0000
 40
0.0050
 41
0.0050
 70
0
  0
VERTEX
  8
20
 10
95.9975
 20
44.0000
 30
0.0000
 42
1.0000
  0
VERTEX
  8
20
 10
96.0025
 20
44.0000
 30
0.0000
  0
SEQEND
  8
0
  0
POLYLINE
  8
20
 66
1
 10
0.0000
 20
0.0000
 30
0.0000
 40
0.0050
 41
0.0050
 70
0
  0
VERTEX
  8
20
 10
96.0025
 20
54.0000
 30
0.0000
 42
1.0000
  0
VERTEX
  8
20
 10
95.9975
 20
54.0000
 30
0.0000
  0
SEQEND
  8
0
  0
POLYLINE
  8
20
 66
1
 10
0.0000
 20
0.0000
 30
0.0000
 40
0.0100
 41
0.0100
 70
0
  0
VERTEX
  8
20
 10
96.0000
 20
44.0000
 30
0.0000
  0
VERTEX
  8
20
 10
83.0000
 20
44.0000
 30
0.0000
  0
SEQEND
  8
0
  0
POLYLINE
  8
20
 66
1
 10
0.0000
 20
0.0000
 30
0.0000
 40
0.0050
 41
0.0050
 70
0
  0
VERTEX
  8
20
 10
83.0000
 20
44.0025
 30
0.0000
 42
1.0000
  0
VERTEX
  8
20
 10
83.0000
 20
43.9975
 30
0.0000
  0
SEQEND
  8
0
  0
POLYLINE
  8
20
 66
1
 10
0.0000
 20
0.0000
 30
0.0000
 40
0.0050
 41
0.0050
 70
0
  0
VERTEX
  8
20
 10
96.0000
 20
43.9975
 30
0.0000
 42
1.0000
  0
VERTEX
  8
20
 10
96.0000
 20
44.0025
 30
0.0000
  0
SEQEND
  8
0
  0
POLYLINE
  8
20
 66
1
 10
0.0000
 20
0.0000
 30
0.0000
 40
0.0100
 41
0.0100
 70
0
  0
VERTEX
  8
20
 10
91.0000
 20
66.0000
 30
0.0000
  0
VERTEX
  8
20
 10
143.0000
 20
66.0000
 30
0.0000
  0
SEQEND
  8
0
  0
POLYLINE
  8
20
 66
1
 10
0.0000
 20
0.0000
 30
0.0000
 40
0.0050
 41
0.0050
 70
0
  0
VERTEX
  8
20
 10
143.0000
 20
65.9975
 30
0.0000
 42
1.0000
  0
VERTEX
  8
20
 10
143.0000
 20
66.0025
 30
0.0000
  0
SEQEND
  8
0
  0
POLYLINE
  8
20
 66
1
 10
0.0000
 20
0.0000
 30
0.0000
 40
0.0050
 41
0.0050
 70
0
  0
VERTEX
  8
20
 10
91.0000
 20
66.0025
 30
0.0000
 42
1.0000
  0
VERTEX
  8
20
 10
91.0000
 20
65.9975
 30
0.0000
  0
SEQEND
  8
0
  0
POLYLINE
  8
20
 66
1
 10
0.0000
 20
0.0000
 30
0.0000
 40
0.0100
 41
0.0100
 70
0
  0
VERTEX
  8
20
 10
143.0000
 20
66.0000
 30
0.0000
  0
VERTEX
  8
20
 10
143.0000
 20
59.5000
 30
0.0000
  0
SEQEND
  8
0
  0
POLYLINE
  8
20
 66
1
 10
0.0000
 20
0.0000
 30
0.0000
 40
0.0050
 41
0.0050
 70
0
  0
VERTEX
  8
20
 10
142.9975
 20
59.5000
 30
0.0000
 42
1.0000
  0
VERTEX
  8
20
 10
143.0025
 20
59.5000
 30
0.0000
  0
SEQEND
  8
0
  0
POLYLINE
  8
20
 66
1
 10
0.0000
 20
0.0000
 30
0.0000
 40
0.0050
 41
0.0050
 70
0
  0
VERTEX
  8
20
 10
143.0025
 20
66.0000
 30
0.0000
 42
1.0000
  0
VERTEX
  8
20
 10
142.9975
 20
66.0000
 30
0.0000
  0
SEQEND
  8
0
  0
POLYLINE
  8
20
 66
1
 10
0.0000
 20
0.0000
 30
0.0000
 40
0.0100
 41
0.0100
 70
0
  0
VERTEX
  8
20
 10
143.0000
 20
59.5000
 30
0.0000
  0
VERTEX
  8
20
 10
91.0000
 20
59.5000
 30
0.0000
  0
SEQEND
  8
0
  0
POLYLINE
  8
20
 66
1
 10
0.0000
 20
0.0000
 30
0.0000
 40
0.0050
 41
0.0050
 70
0
  0
VERTEX
  8
20
 10
91.0000
 20
59.5025
 30
0.0000
 42
1.0000
  0
VERTEX
  8
20
 10
91.0000
 20
59.4975
 30
0.0000
  0
SEQEND
  8
0
  0
POLYLINE
  8
20
 66
1
 10
0.0000
 20
0.0000
 30
0.0000
 40
0.0050
 41
0.0050
 70
0
  0
VERTEX
  8
20
 10
143.0000
 20
59.4975
 30
0.0000
 42
1.0000
  0
VERTEX
  8
20
 10
143.0000
 20
59.5025
 30
0.0000
  0
SEQEND
  8
0
  0
POLYLINE
  8
20
 66
1
 10
0.0000
 20
0.0000
 30
0.0000
 40
0.0100
 41
0.0100
 70
0
  0
VERTEX
  8
20
 10
91.0000
 20
59.5000
 30
0.0000
  0
VERTEX
  8
20
 10
91.0000
 20
66.0000
 30
0.0000
  0
SEQEND
  8
0
  0
POLYLINE
  8
20
 66
1
 10
0.0000
 20
0.0000
 30
0.0000
 40
0.0050
 41
0.0050
 70
0
  0
VERTEX
  8
20
 10
91.0025
 20
66.0000
 30
0.0000
 42
1.0000
  0
VERTEX
  8
20
 10
90.9975
 20
66.0000
 30
0.0000
  0
SEQEND
  8
0
  0
POLYLINE
  8
20
 66
1
 10
0.0000
 20
0.0000
 30
0.0000
 40
0.0050
 41
0.0050
 70
0
  0
VERTEX
  8
20
 10
90.9975
 20
59.5000
 30
0.0000
 42
1.0000
  0
VERTEX
  8
20
 10
91.0025
 20
59.5000
 30
0.0000
  0
SEQEND
  8
0
  0
POLYLINE
  8
20
 66
1
 10
0.0000
 20
0.0000
 30
0.0000
 40
0.0100
 41
0.0100
 70
0
  0
VERTEX
  8
20
 10
151.0000
 20
77.0000
 30
0.0000
  0
VERTEX
  8
20
 10
151.0000
 20
69.0000
 30
0.0000
  0
SEQEND
  8
0
  0
POLYLINE
  8
20
 66
1
 10
0.0000
 20
0.0000
 30
0.0000
 40
0.0050
 41
0.0050
 70
0
  0
VERTEX
  8
20
 10
150.9975
 20
69.0000
 30
0.0000
 42
1.0000
  0
VERTEX
  8
20
 10
151.0025
 20
69.0000
 30
0.0000
  0
SEQEND
  8
0
  0
POLYLINE
  8
20
 66
1
 10
0.0000
 20
0.0000
 30
0.0000
 40
0.0050
 41
0.0050
 70
0
  0
VERTEX
  8
20
 10
151.0025
 20
77.0000
 30
0.0000
 42
1.0000
  0
VERTEX
  8
20
 10
150.9975
 20
77.0000
 30
0.0000
  0
SEQEND
  8
0
  0
POLYLINE
  8
20
 66
1
 10
0.0000
 20
0.0000
 30
0.0000
 40
0.0100
 41
0.0100
 70
0
  0
VERTEX
  8
20
 10
151.0000
 20
69.0000
 30
0.0000
  0
VERTEX
  8
20
 10
156.0000
 20
69.0000
 30
0.0000
  0
SEQEND
  8
0
  0
POLYLINE
  8
20
 66
1
 10
0.0000
 20
0.0000
 30
0.0000
 40
0.0050
 41
0.0050
 70
0
  0
VERTEX
  8
20
 10
156.0000
 20
68.9975
 30
0.0000
 42
1.0000
  0
VERTEX
  8
20
 10
156.0000
 20
69.0025
 30
0.0000
  0
SEQEND
  8
0
  0
POLYLINE
  8
20
 66
1
 10
0.0000
 20
0.0000
 30
0.0000
 40
0.0050
 41
0.0050
 70
0
  0
VERTEX
  8
20
 10
151.0000
 20
69.0025
 30
0.0000
 42
1.0000
  0
VERTEX
  8
20
 10
151.0000
 20
68.9975
 30
0.0000
  0
SEQEND
  8
0
  0
POLYLINE
  8
20
 66
1
 10
0.0000
 20
0.0000
 30
0.0000
 40
0.0100
 41
0.0100
 70
0
  0
VERTEX
  8
20
 10
239.0000
 20
31.0000
 30
0.0000
  0
VERTEX
  8
20
 10
239.0000
 20
95.0000
 30
0.0000
  0
SEQEND
  8
0
  0
POLYLINE
  8
20
 66
1
 10
0.0000
 20
0.0000
 30
0.0000
 40
0.0050
 41
0.0050
 70
0
  0
VERTEX
  8
20
 10
239.0025
 20
95.0000
 30
0.0000
 42
1.0000
  0
VERTEX
  8
20
 10
238.9975
 20
95.0000
 30
0.0000
  0
SEQEND
  8
0
  0
POLYLINE
  8
20
 66
1
 10
0.0000
 20
0.0000
 30
0.0000
 40
0.0050
 41
0.0050
 70
0
  0
VERTEX
  8
20
 10
238.9975
 20
31.0000
 30
0.0000
 42
1.0000
  0
VERTEX
  8
20
 10
239.0025
 20
31.0000
 30
0.0000
  0
SEQEND
  8
0
  0
POLYLINE
  8
20
 66
1
 10
0.0000
 20
0.0000
 30
0.0000
 40
0.0100
 41
0.0100
 70
0
  0
VERTEX
  8
20
 10
239.0000
 20
95.0000
 30
0.0000
  0
VERTEX
  8
20
 10
166.0000
 20
95.0000
 30
0.0000
  0
SEQEND
  8
0
  0
POLYLINE
  8
20
 66
1
 10
0.0000
 20
0.0000
 30
0.0000
 40
0.0050
 41
0.0050
 70
0
  0
VERTEX
  8
20
 10
166.0000
 20
95.0025
 30
0.0000
 42
1.0000
  0
VERTEX
  8
20
 10
166.0000
 20
94.9975
 30
0.0000
  0
SEQEND
  8
0
  0
POLYLINE
  8
20
 66
1
 10
0.0000
 20
0.0000
 30
0.0000
 40
0.0050
 41
0.0050
 70
0
  0
VERTEX
  8
20
 10
239.0000
 20
94.9975
 30
0.0000
 42
1.0000
  0
VERTEX
  8
20
 10
239.0000
 20
95.0025
 30
0.0000
  0
SEQEND
  8
0
  0
POLYLINE
  8
20
 66
1
 10
0.0000
 20
0.0000
 30
0.0000
 40
0.0100
 41
0.0100
 70
0
  0
VERTEX
  8
20
 10
166.0000
 20
95.0000
 30
0.0000
  0
VERTEX
  8
20
 10
166.0000
 20
54.0000
 30
0.0000
  0
SEQEND
  8
0
  0
POLYLINE
  8
20
 66
1
 10
0.0000
 20
0.0000
 30
0.0000
 40
0.0050
 41
0.0050
 70
0
  0
VERTEX
  8
20
 10
165.9975
 20
54.0000
 30
0.0000
 42
1.0000
  0
VERTEX
  8
20
 10
166.0025
 20
54.0000
 30
0.0000
  0
SEQEND
  8
0
  0
POLYLINE
  8
20
 66
1
 10
0.0000
 20
0.0000
 30
0.0000
 40
0.0050
 41
0.0050
 70
0
  0
VERTEX
  8
20
 10
166.0025
 20
95.0000
 30
0.0000
 42
1.0000
  0
VERTEX
  8
20
 10
165.9975
 20
95.0000
 30
0.0000
  0
SEQEND
  8
0
  0
POLYLINE
  8
20
 66
1
 10
0.0000
 20
0.0000
 30
0.0000
 40
0.0100
 41
0.0100
 70
0
  0
VERTEX
  8
20
 10
166.0000
 20
54.0000
 30
0.0000
  0
VERTEX
  8
20
 10
229.0000
 20
54.0000
 30
0.0000
  0
SEQEND
  8
0
  0
POLYLINE
  8
20
 66
1
 10
0.0000
 20
0.0000
 30
0.0000
 40
0.0050
 41
0.0050
 70
0
  0
VERTEX
  8
20
 10
229.0000
 20
53.9975
 30
0.0000
 42
1.0000
  0
VERTEX
  8
20
 10
229.0000
 20
54.0025
 30
0.0000
  0
SEQEND
  8
0
  0
POLYLINE
  8
20
 66
1
 10
0.0000
 20
0.0000
 30
0.0000
 40
0.0050
 41
0.0050
 70
0
  0
VERTEX
  8
20
 10
166.0000
 20
54.0025
 30
0.0000
 42
1.0000
  0
VERTEX
  8
20
 10
166.0000
 20
53.9975
 30
0.0000
  0
SEQEND
  8
0
  0
LINE
  8
20
 10
73.0000
 20
201.0000
 30
0.0000
 11
0.0000
 21
201.0000
 31
0.0000
  0
LINE
  8
20
 10
0.0000
 20
201.0000
 30
0.0000
 11
0.0000
 21
107.0000
 31
0.0000
  0
LINE
  8
20
 10
0.0000
 20
107.0000
 30
0.0000
 11
73.0000
 21
107.0000
 31
0.0000
  0
LINE
  8
20
 10
73.0000
 20
107.0000
 30
0.0000
 11
73.0000
 21
201.0000
 31
0.0000
  0
LINE
  8
20
 10
156.0000
 20
201.0000
 30
0.0000
 11
83.0000
 21
201.0000
 31
0.0000
  0
LINE
  8
20
 10
83.0000
 20
201.0000
 30
0.0000
 11
83.0000
 21
107.0000
 31
0.0000
  0
LINE
  8
20
 10
83.0000
 20
107.0000
 30
0.0000
 11
156.0000
 21
107.0000
 31
0.0000
  0
LINE
  8
20
 10
156.0000
 20
107.0000
 30
0.0000
 11
156.0000
 21
201.0000
 31
0.0000
  0
LINE
  8
20
 10
238.0000
 20
95.0000
 30
0.0000
 11
167.0000
 21
95.0000
 31
0.0000
  0
POLYLINE
  8
20
 66
1
 10
0.0000
 20
0.0000
 30
0.0000
 40
0.0100
 41
0.0100
 70
0
  0
VERTEX
  8
20
 10
229.0000
 20
31.0000
 30
0.0000
  0
VERTEX
  8
20
 10
229.0000
 20
54.0000
 30
0.0000
  0
SEQEND
  8
0
  0
POLYLINE
  8
20
 66
1
 10
0.0000
 20
0.0000
 30
0.0000
 40
0.0050
 41
0.0050
 70
0
  0
VERTEX
  8
20
 10
229.0025
 20
54.0000
 30
0.0000
 42
1.0000
  0
VERTEX
  8
20
 10
228.9975
 20
54.0000
 30
0.0000
  0
SEQEND
  8
0
  0
POLYLINE
  8
20
 66
1
 10
0.0000
 20
0.0000
 30
0.0000
 40
0.0050
 41
0.0050
 70
0
  0
VERTEX
  8
20
 10
228.9975
 20
31.0000
 30
0.0000
 42
1.0000
  0
VERTEX
  8
20
 10
229.0025
 20
31.0000
 30
0.0000
  0
SEQEND
  8
0
  0
POLYLINE
  8
20
 66
1
 10
0.0000
 20
0.0000
 30
0.0000
 40
0.0100
 41
0.0100
 70
0
  0
VERTEX
  8
20
 10
229.0000
 20
31.0000
 30
0.0000
  0
VERTEX
  8
20
 10
239.0000
 20
31.0000
 30
0.0000
  0
SEQEND
  8
0
  0
POLYLINE
  8
20
 66
1
 10
0.0000
 20
0.0000
 30
0.0000
 40
0.0050
 41
0.0050
 70
0
  0
VERTEX
  8
20
 10
239.0000
 20
30.9975
 30
0.0000
 42
1.0000
  0
VERTEX
  8
20
 10
239.0000
 20
31.0025
 30
0.0000
  0
SEQEND
  8
0
  0
POLYLINE
  8
20
 66
1
 10
0.0000
 20
0.0000
 30
0.0000
 40
0.0050
 41
0.0050
 70
0
  0
VERTEX
  8
20
 10
229.0000
 20
31.0025
 30
0.0000
 42
1.0000
  0
VERTEX
  8
20
 10
229.0000
 20
30.9975
 30
0.0000
  0
SEQEND
  8
0
  0
POLYLINE
  8
23
 66
1
 10
0.0000
 20
0.0000
 30
0.0000
 40
0.2032
 41
0.2032
 70
0
  0
VERTEX
  8
23
 10
34.3730
 20
203.8316
 30
0.0000
  0
VERTEX
  8
23
 10
34.3730
 20
206.1704
 30
0.0000
  0
SEQEND
  8
0
  0
POLYLINE
  8
23
 66
1
 10
0.0000
 20
0.0000
 30
0.0000
 40
0.1016
 41
0.1016
 70
0
  0
VERTEX
  8
23
 10
34.4238
 20
206.1704
 30
0.0000
 42
1.0000
  0
VERTEX
  8
23
 10
34.3222
 20
206.1704
 30
0.0000
  0
SEQEND
  8
0
  0
POLYLINE
  8
23
 66
1
 10
0.0000
 20
0.0000
 30
0.0000
 40
0.1016
 41
0.1016
 70
0
  0
VERTEX
  8
23
 10
34.3222
 20
203.8316
 30
0.0000
 42
1.0000
  0
VERTEX
  8
23
 10
34.4238
 20
203.8316
 30
0.0000
  0
SEQEND
  8
0
  0
POLYLINE
  8
23
 66
1
 10
0.0000
 20
0.0000
 30
0.0000
 40
0.2032
 41
0.2032
 70
0
  0
VERTEX
  8
23
 10
33.5934
 20
206.1704
 30
0.0000
  0
VERTEX
  8
23
 10
35.1526
 20
206.1704
 30
0.0000
  0
SEQEND
  8
0
  0
POLYLINE
  8
23
 66
1
 10
0.0000
 20
0.0000
 30
0.0000
 40
0.1016
 41
0.1016
 70
0
  0
VERTEX
  8
23
 10
35.1526
 20
206.1196
 30
0.0000
 42
1.0000
  0
VERTEX
  8
23
 10
35.1526
 20
206.2212
 30
0.0000
  0
SEQEND
  8
0
  0
POLYLINE
  8
23
 66
1
 10
0.0000
 20
0.0000
 30
0.0000
 40
0.1016
 41
0.1016
 70
0
  0
VERTEX
  8
23
 10
33.5934
 20
206.2212
 30
0.0000
 42
1.0000
  0
VERTEX
  8
23
 10
33.5934
 20
206.1196
 30
0.0000
  0
SEQEND
  8
0
  0
POLYLINE
  8
23
 66
1
 10
0.0000
 20
0.0000
 30
0.0000
 40
0.2032
 41
0.2032
 70
0
  0
VERTEX
  8
23
 10
37.1016
 20
206.1704
 30
0.0000
  0
VERTEX
  8
23
 10
36.3220
 20
206.1704
 30
0.0000
  0
SEQEND
  8
0
  0
POLYLINE
  8
23
 66
1
 10
0.0000
 20
0.0000
 30
0.0000
 40
0.1016
 41
0.1016
 70
0
  0
VERTEX
  8
23
 10
36.3220
 20
206.2212
 30
0.0000
 42
1.0000
  0
VERTEX
  8
23
 10
36.3220
 20
206.1196
 30
0.0000
  0
SEQEND
  8
0
  0
POLYLINE
  8
23
 66
1
 10
0.0000
 20
0.0000
 30
0.0000
 40
0.1016
 41
0.1016
 70
0
  0
VERTEX
  8
23
 10
37.1016
 20
206.1196
 30
0.0000
 42
1.0000
  0
VERTEX
  8
23
 10
37.1016
 20
206.2212
 30
0.0000
  0
SEQEND
  8
0
  0
POLYLINE
  8
23
 66
1
 10
0.0000
 20
0.0000
 30
0.0000
 40
0.2032
 41
0.2032
 70
0
  0
VERTEX
  8
23
 10
36.3220
 20
206.1704
 30
0.0000
  0
VERTEX
  8
23
 10
35.9322
 20
205.7806
 30
0.0000
  0
SEQEND
  8
0
  0
POLYLINE
  8
23
 66
1
 10
0.0000
 20
0.0000
 30
0.0000
 40
0.1016
 41
0.1016
 70
0
  0
VERTEX
  8
23
 10
35.8963
 20
205.8165
 30
0.0000
 42
1.0000
  0
VERTEX
  8
23
 10
35.9681
 20
205.7447
 30
0.0000
  0
SEQEND
  8
0
  0
POLYLINE
  8
23
 66
1
 10
0.0000
 20
0.0000
 30
0.0000
 40
0.1016
 41
0.1016
 70
0
  0
VERTEX
  8
23
 10
36.3579
 20
206.1345
 30
0.0000
 42
1.0000
  0
VERTEX
  8
23
 10
36.2861
 20
206.2063
 30
0.0000
  0
SEQEND
  8
0
  0
POLYLINE
  8
23
 66
1
 10
0.0000
 20
0.0000
 30
0.0000
 40
0.2032
 41
0.2032
 70
0
  0
VERTEX
  8
23
 10
35.9322
 20
205.7806
 30
0.0000
  0
VERTEX
  8
23
 10
35.9322
 20
204.2214
 30
0.0000
  0
SEQEND
  8
0
  0
POLYLINE
  8
23
 66
1
 10
0.0000
 20
0.0000
 30
0.0000
 40
0.1016
 41
0.1016
 70
0
  0
VERTEX
  8
23
 10
35.8814
 20
204.2214
 30
0.0000
 42
1.0000
  0
VERTEX
  8
23
 10
35.9830
 20
204.2214
 30
0.0000
  0
SEQEND
  8
0
  0
POLYLINE
  8
23
 66
1
 10
0.0000
 20
0.0000
 30
0.0000
 40
0.1016
 41
0.1016
 70
0
  0
VERTEX
  8
23
 10
35.9830
 20
205.7806
 30
0.0000
 42
1.0000
  0
VERTEX
  8
23
 10
35.8814
 20
205.7806
 30
0.0000
  0
SEQEND
  8
0
  0
POLYLINE
  8
23
 66
1
 10
0.0000
 20
0.0000
 30
0.0000
 40
0.2032
 41
0.2032
 70
0
  0
VERTEX
  8
23
 10
35.9322
 20
204.2214
 30
0.0000
  0
VERTEX
  8
23
 10
36.3220
 20
203.8316
 30
0.0000
  0
SEQEND
  8
0
  0
POLYLINE
  8
23
 66
1
 10
0.0000
 20
0.0000
 30
0.0000
 40
0.1016
 41
0.1016
 70
0
  0
VERTEX
  8
23
 10
36.2861
 20
203.7957
 30
0.0000
 42
1.0000
  0
VERTEX
  8
23
 10
36.3579
 20
203.8675
 30
0.0000
  0
SEQEND
  8
0
  0
POLYLINE
  8
23
 66
1
 10
0.0000
 20
0.0000
 30
0.0000
 40
0.1016
 41
0.1016
 70
0
  0
VERTEX
  8
23
 10
35.9681
 20
204.2573
 30
0.0000
 42
1.0000
  0
VERTEX
  8
23
 10
35.8963
 20
204.1855
 30
0.0000
  0
SEQEND
  8
0
  0
POLYLINE
  8
23
 66
1
 10
0.0000
 20
0.0000
 30
0.0000
 40
0.2032
 41
0.2032
 70
0
  0
VERTEX
  8
23
 10
36.3220
 20
203.8316
 30
0.0000
  0
VERTEX
  8
23
 10
37.1016
 20
203.8316
 30
0.0000
  0
SEQEND
  8
0
  0
POLYLINE
  8
23
 66
1
 10
0.0000
 20
0.0000
 30
0.0000
 40
0.1016
 41
0.1016
 70
0
  0
VERTEX
  8
23
 10
37.1016
 20
203.7808
 30
0.0000
 42
1.0000
  0
VERTEX
  8
23
 10
37.1016
 20
203.8824
 30
0.0000
  0
SEQEND
  8
0
  0
POLYLINE
  8
23
 66
1
 10
0.0000
 20
0.0000
 30
0.0000
 40
0.1016
 41
0.1016
 70
0
  0
VERTEX
  8
23
 10
36.3220
 20
203.8824
 30
0.0000
 42
1.0000
  0
VERTEX
  8
23
 10
36.3220
 20
203.7808
 30
0.0000
  0
SEQEND
  8
0
  0
POLYLINE
  8
23
 66
1
 10
0.0000
 20
0.0000
 30
0.0000
 40
0.2032
 41
0.2032
 70
0
  0
VERTEX
  8
23
 10
37.1016
 20
203.8316
 30
0.0000
  0
VERTEX
  8
23
 10
37.4914
 20
204.2214
 30
0.0000
  0
SEQEND
  8
0
  0
POLYLINE
  8
23
 66
1
 10
0.0000
 20
0.0000
 30
0.0000
 40
0.1016
 41
0.1016
 70
0
  0
VERTEX
  8
23
 10
37.5273
 20
204.1855
 30
0.0000
 42
1.0000
  0
VERTEX
  8
23
 10
37.4555
 20
204.2573
 30
0.0000
  0
SEQEND
  8
0
  0
POLYLINE
  8
23
 66
1
 10
0.0000
 20
0.0000
 30
0.0000
 40
0.1016
 41
0.1016
 70
0
  0
VERTEX
  8
23
 10
37.0657
 20
203.8675
 30
0.0000
 42
1.0000
  0
VERTEX
  8
23
 10
37.1375
 20
203.7957
 30
0.0000
  0
SEQEND
  8
0
  0
POLYLINE
  8
23
 66
1
 10
0.0000
 20
0.0000
 30
0.0000
 40
0.2032
 41
0.2032
 70
0
  0
VERTEX
  8
23
 10
37.4914
 20
204.2214
 30
0.0000
  0
VERTEX
  8
23
 10
37.4914
 20
205.7806
 30
0.0000
  0
SEQEND
  8
0
  0
POLYLINE
  8
23
 66
1
 10
0.0000
 20
0.0000
 30
0.0000
 40
0.1016
 41
0.1016
 70
0
  0
VERTEX
  8
23
 10
37.5422
 20
205.7806
 30
0.0000
 42
1.0000
  0
VERTEX
  8
23
 10
37.4406
 20
205.7806
 30
0.0000
  0
SEQEND
  8
0
  0
POLYLINE
  8
23
 66
1
 10
0.0000
 20
0.0000
 30
0.0000
 40
0.1016
 41
0.1016
 70
0
  0
VERTEX
  8
23
 10
37.4406
 20
204.2214
 30
0.0000
 42
1.0000
  0
VERTEX
  8
23
 10
37.5422
 20
204.2214
 30
0.0000
  0
SEQEND
  8
0
  0
POLYLINE
  8
23
 66
1
 10
0.0000
 20
0.0000
 30
0.0000
 40
0.2032
 41
0.2032
 70
0
  0
VERTEX
  8
23
 10
37.4914
 20
205.7806
 30
0.0000
  0
VERTEX
  8
23
 10
37.1016
 20
206.1704
 30
0.0000
  0
SEQEND
  8
0
  0
POLYLINE
  8
23
 66
1
 10
0.0000
 20
0.0000
 30
0.0000
 40
0.1016
 41
0.1016
 70
0
  0
VERTEX
  8
23
 10
37.1375
 20
206.2063
 30
0.0000
 42
1.0000
  0
VERTEX
  8
23
 10
37.0657
 20
206.1345
 30
0.0000
  0
SEQEND
  8
0
  0
POLYLINE
  8
23
 66
1
 10
0.0000
 20
0.0000
 30
0.0000
 40
0.1016
 41
0.1016
 70
0
  0
VERTEX
  8
23
 10
37.4555
 20
205.7447
 30
0.0000
 42
1.0000
  0
VERTEX
  8
23
 10
37.5273
 20
205.8165
 30
0.0000
  0
SEQEND
  8
0
  0
POLYLINE
  8
23
 66
1
 10
0.0000
 20
0.0000
 30
0.0000
 40
0.2032
 41
0.2032
 70
0
  0
VERTEX
  8
23
 10
38.2710
 20
203.8316
 30
0.0000
  0
VERTEX
  8
23
 10
38.2710
 20
206.1704
 30
0.0000
  0
SEQEND
  8
0
  0
POLYLINE
  8
23
 66
1
 10
0.0000
 20
0.0000
 30
0.0000
 40
0.1016
 41
0.1016
 70
0
  0
VERTEX
  8
23
 10
38.3218
 20
206.1704
 30
0.0000
 42
1.0000
  0
VERTEX
  8
23
 10
38.2202
 20
206.1704
 30
0.0000
  0
SEQEND
  8
0
  0
POLYLINE
  8
23
 66
1
 10
0.0000
 20
0.0000
 30
0.0000
 40
0.1016
 41
0.1016
 70
0
  0
VERTEX
  8
23
 10
38.2202
 20
203.8316
 30
0.0000
 42
1.0000
  0
VERTEX
  8
23
 10
38.3218
 20
203.8316
 30
0.0000
  0
SEQEND
  8
0
  0
POLYLINE
  8
23
 66
1
 10
0.0000
 20
0.0000
 30
0.0000
 40
0.2032
 41
0.2032
 70
0
  0
VERTEX
  8
23
 10
38.2710
 20
206.1704
 30
0.0000
  0
VERTEX
  8
23
 10
39.4404
 20
206.1704
 30
0.0000
  0
SEQEND
  8
0
  0
POLYLINE
  8
23
 66
1
 10
0.0000
 20
0.0000
 30
0.0000
 40
0.1016
 41
0.1016
 70
0
  0
VERTEX
  8
23
 10
39.4404
 20
206.1196
 30
0.0000
 42
1.0000
  0
VERTEX
  8
23
 10
39.4404
 20
206.2212
 30
0.0000
  0
SEQEND
  8
0
  0
POLYLINE
  8
23
 66
1
 10
0.0000
 20
0.0000
 30
0.0000
 40
0.1016
 41
0.1016
 70
0
  0
VERTEX
  8
23
 10
38.2710
 20
206.2212
 30
0.0000
 42
1.0000
  0
VERTEX
  8
23
 10
38.2710
 20
206.1196
 30
0.0000
  0
SEQEND
  8
0
  0
POLYLINE
  8
23
 66
1
 10
0.0000
 20
0.0000
 30
0.0000
 40
0.2032
 41
0.2032
 70
0
  0
VERTEX
  8
23
 10
39.4404
 20
206.1704
 30
0.0000
  0
VERTEX
  8
23
 10
39.8302
 20
205.7806
 30
0.0000
  0
SEQEND
  8
0
  0
POLYLINE
  8
23
 66
1
 10
0.0000
 20
0.0000
 30
0.0000
 40
0.1016
 41
0.1016
 70
0
  0
VERTEX
  8
23
 10
39.7943
 20
205.7447
 30
0.0000
 42
1.0000
  0
VERTEX
  8
23
 10
39.8661
 20
205.8165
 30
0.0000
  0
SEQEND
  8
0
  0
POLYLINE
  8
23
 66
1
 10
0.0000
 20
0.0000
 30
0.0000
 40
0.1016
 41
0.1016
 70
0
  0
VERTEX
  8
23
 10
39.4763
 20
206.2063
 30
0.0000
 42
1.0000
  0
VERTEX
  8
23
 10
39.4045
 20
206.1345
 30
0.0000
  0
SEQEND
  8
0
  0
POLYLINE
  8
23
 66
1
 10
0.0000
 20
0.0000
 30
0.0000
 40
0.2032
 41
0.2032
 70
0
  0
VERTEX
  8
23
 10
39.8302
 20
205.7806
 30
0.0000
  0
VERTEX
  8
23
 10
39.8302
 20
205.0010
 30
0.0000
  0
SEQEND
  8
0
  0
POLYLINE
  8
23
 66
1
 10
0.0000
 20
0.0000
 30
0.0000
 40
0.1016
 41
0.1016
 70
0
  0
VERTEX
  8
23
 10
39.7794
 20
205.0010
 30
0.0000
 42
1.0000
  0
VERTEX
  8
23
 10
39.8810
 20
205.0010
 30
0.0000
  0
SEQEND
  8
0
  0
POLYLINE
  8
23
 66
1
 10
0.0000
 20
0.0000
 30
0.0000
 40
0.1016
 41
0.1016
 70
0
  0
VERTEX
  8
23
 10
39.8810
 20
205.7806
 30
0.0000
 42
1.0000
  0
VERTEX
  8
23
 10
39.7794
 20
205.7806
 30
0.0000
  0
SEQEND
  8
0
  0
POLYLINE
  8
23
 66
1
 10
0.0000
 20
0.0000
 30
0.0000
 40
0.2032
 41
0.2032
 70
0
  0
VERTEX
  8
23
 10
39.8302
 20
205.0010
 30
0.0000
  0
VERTEX
  8
23
 10
39.4404
 20
204.6112
 30
0.0000
  0
SEQEND
  8
0
  0
POLYLINE
  8
23
 66
1
 10
0.0000
 20
0.0000
 30
0.0000
 40
0.1016
 41
0.1016
 70
0
  0
VERTEX
  8
23
 10
39.4045
 20
204.6471
 30
0.0000
 42
1.0000
  0
VERTEX
  8
23
 10
39.4763
 20
204.5753
 30
0.0000
  0
SEQEND
  8
0
  0
POLYLINE
  8
23
 66
1
 10
0.0000
 20
0.0000
 30
0.0000
 40
0.1016
 41
0.1016
 70
0
  0
VERTEX
  8
23
 10
39.8661
 20
204.9651
 30
0.0000
 42
1.0000
  0
VERTEX
  8
23
 10
39.7943
 20
205.0369
 30
0.0000
  0
SEQEND
  8
0
  0
POLYLINE
  8
23
 66
1
 10
0.0000
 20
0.0000
 30
0.0000
 40
0.2032
 41
0.2032
 70
0
  0
VERTEX
  8
23
 10
39.4404
 20
204.6112
 30
0.0000
  0
VERTEX
  8
23
 10
38.2710
 20
204.6112
 30
0.0000
  0
SEQEND
  8
0
  0
POLYLINE
  8
23
 66
1
 10
0.0000
 20
0.0000
 30
0.0000
 40
0.1016
 41
0.1016
 70
0
  0
VERTEX
  8
23
 10
38.2710
 20
204.6620
 30
0.0000
 42
1.0000
  0
VERTEX
  8
23
 10
38.2710
 20
204.5604
 30
0.0000
  0
SEQEND
  8
0
  0
POLYLINE
  8
23
 66
1
 10
0.0000
 20
0.0000
 30
0.0000
 40
0.1016
 41
0.1016
 70
0
  0
VERTEX
  8
23
 10
39.4404
 20
204.5604
 30
0.0000
 42
1.0000
  0
VERTEX
  8
23
 10
39.4404
 20
204.6620
 30
0.0000
  0
SEQEND
  8
0
  0
POLYLINE
  8
23
 66
1
 10
0.0000
 20
0.0000
 30
0.0000
 40
0.2032
 41
0.2032
 70
0
  0
VERTEX
  8
23
 10
114.6444
 20
205.7806
 30
0.0000
  0
VERTEX
  8
23
 10
114.2546
 20
206.1704
 30
0.0000
  0
SEQEND
  8
0
  0
POLYLINE
  8
23
 66
1
 10
0.0000
 20
0.0000
 30
0.0000
 40
0.1016
 41
0.1016
 70
0
  0
VERTEX
  8
23
 10
114.2905
 20
206.2063
 30
0.0000
 42
1.0000
  0
VERTEX
  8
23
 10
114.2187
 20
206.1345
 30
0.0000
  0
SEQEND
  8
0
  0
POLYLINE
  8
23
 66
1
 10
0.0000
 20
0.0000
 30
0.0000
 40
0.1016
 41
0.1016
 70
0
  0
VERTEX
  8
23
 10
114.6085
 20
205.7447
 30
0.0000
 42
1.0000
  0
VERTEX
  8
23
 10
114.6803
 20
205.8165
 30
0.0000
  0
SEQEND
  8
0
  0
POLYLINE
  8
23
 66
1
 10
0.0000
 20
0.0000
 30
0.0000
 40
0.2032
 41
0.2032
 70
0
  0
VERTEX
  8
23
 10
114.2546
 20
206.1704
 30
0.0000
  0
VERTEX
  8
23
 10
113.4750
 20
206.1704
 30
0.0000
  0
SEQEND
  8
0
  0
POLYLINE
  8
23
 66
1
 10
0.0000
 20
0.0000
 30
0.0000
 40
0.1016
 41
0.1016
 70
0
  0
VERTEX
  8
23
 10
113.4750
 20
206.2212
 30
0.0000
 42
1.0000
  0
VERTEX
  8
23
 10
113.4750
 20
206.1196
 30
0.0000
  0
SEQEND
  8
0
  0
POLYLINE
  8
23
 66
1
 10
0.0000
 20
0.0000
 30
0.0000
 40
0.1016
 41
0.1016
 70
0
  0
VERTEX
  8
23
 10
114.2546
 20
206.1196
 30
0.0000
 42
1.0000
  0
VERTEX
  8
23
 10
114.2546
 20
206.2212
 30
0.0000
  0
SEQEND
  8
0
  0
POLYLINE
  8
23
 66
1
 10
0.0000
 20
0.0000
 30
0.0000
 40
0.2032
 41
0.2032
 70
0
  0
VERTEX
  8
23
 10
113.4750
 20
206.1704
 30
0.0000
  0
VERTEX
  8
23
 10
113.0852
 20
205.7806
 30
0.0000
  0
SEQEND
  8
0
  0
POLYLINE
  8
23
 66
1
 10
0.0000
 20
0.0000
 30
0.0000
 40
0.1016
 41
0.1016
 70
0
  0
VERTEX
  8
23
 10
113.0493
 20
205.8165
 30
0.0000
 42
1.0000
  0
VERTEX
  8
23
 10
113.1211
 20
205.7447
 30
0.0000
  0
SEQEND
  8
0
  0
POLYLINE
  8
23
 66
1
 10
0.0000
 20
0.0000
 30
0.0000
 40
0.1016
 41
0.1016
 70
0
  0
VERTEX
  8
23
 10
113.5109
 20
206.1345
 30
0.0000
 42
1.0000
  0
VERTEX
  8
23
 10
113.4391
 20
206.2063
 30
0.0000
  0
SEQEND
  8
0
  0
POLYLINE
  8
23
 66
1
 10
0.0000
 20
0.0000
 30
0.0000
 40
0.2032
 41
0.2032
 70
0
  0
VERTEX
  8
23
 10
113.0852
 20
205.7806
 30
0.0000
  0
VERTEX
  8
23
 10
113.0852
 20
205.3908
 30
0.0000
  0
SEQEND
  8
0
  0
POLYLINE
  8
23
 66
1
 10
0.0000
 20
0.0000
 30
0.0000
 40
0.1016
 41
0.1016
 70
0
  0
VERTEX
  8
23
 10
113.0344
 20
205.3908
 30
0.0000
 42
1.0000
  0
VERTEX
  8
23
 10
113.1360
 20
205.3908
 30
0.0000
  0
SEQEND
  8
0
  0
POLYLINE
  8
23
 66
1
 10
0.0000
 20
0.0000
 30
0.0000
 40
0.1016
 41
0.1016
 70
0
  0
VERTEX
  8
23
 10
113.1360
 20
205.7806
 30
0.0000
 42
1.0000
  0
VERTEX
  8
23
 10
113.0344
 20
205.7806
 30
0.0000
  0
SEQEND
  8
0
  0
POLYLINE
  8
23
 66
1
 10
0.0000
 20
0.0000
 30
0.0000
 40
0.2032
 41
0.2032
 70
0
  0
VERTEX
  8
23
 10
113.0852
 20
205.3908
 30
0.0000
  0
VERTEX
  8
23
 10
113.4750
 20
205.0010
 30
0.0000
  0
SEQEND
  8
0
  0
POLYLINE
  8
23
 66
1
 10
0.0000
 20
0.0000
 30
0.0000
 40
0.1016
 41
0.1016
 70
0
  0
VERTEX
  8
23
 10
113.4391
 20
204.9651
 30
0.0000
 42
1.0000
  0
VERTEX
  8
23
 10
113.5109
 20
205.0369
 30
0.0000
  0
SEQEND
  8
0
  0
POLYLINE
  8
23
 66
1
 10
0.0000
 20
0.0000
 30
0.0000
 40
0.1016
 41
0.1016
 70
0
  0
VERTEX
  8
23
 10
113.1211
 20
205.4267
 30
0.0000
 42
1.0000
  0
VERTEX
  8
23
 10
113.0493
 20
205.3549
 30
0.0000
  0
SEQEND
  8
0
  0
POLYLINE
  8
23
 66
1
 10
0.0000
 20
0.0000
 30
0.0000
 40
0.2032
 41
0.2032
 70
0
  0
VERTEX
  8
23
 10
113.4750
 20
205.0010
 30
0.0000
  0
VERTEX
  8
23
 10
114.2546
 20
205.0010
 30
0.0000
  0
SEQEND
  8
0
  0
POLYLINE
  8
23
 66
1
 10
0.0000
 20
0.0000
 30
0.0000
 40
0.1016
 41
0.1016
 70
0
  0
VERTEX
  8
23
 10
114.2546
 20
204.9502
 30
0.0000
 42
1.0000
  0
VERTEX
  8
23
 10
114.2546
 20
205.0518
 30
0.0000
  0
SEQEND
  8
0
  0
POLYLINE
  8
23
 66
1
 10
0.0000
 20
0.0000
 30
0.0000
 40
0.1016
 41
0.1016
 70
0
  0
VERTEX
  8
23
 10
113.4750
 20
205.0518
 30
0.0000
 42
1.0000
  0
VERTEX
  8
23
 10
113.4750
 20
204.9502
 30
0.0000
  0
SEQEND
  8
0
  0
POLYLINE
  8
23
 66
1
 10
0.0000
 20
0.0000
 30
0.0000
 40
0.2032
 41
0.2032
 70
0
  0
VERTEX
  8
23
 10
114.2546
 20
205.0010
 30
0.0000
  0
VERTEX
  8
23
 10
114.6444
 20
204.6112
 30
0.0000
  0
SEQEND
  8
0
  0
POLYLINE
  8
23
 66
1
 10
0.0000
 20
0.0000
 30
0.0000
 40
0.1016
 41
0.1016
 70
0
  0
VERTEX
  8
23
 10
114.6085
 20
204.5753
 30
0.0000
 42
1.0000
  0
VERTEX
  8
23
 10
114.6803
 20
204.6471
 30
0.0000
  0
SEQEND
  8
0
  0
POLYLINE
  8
23
 66
1
 10
0.0000
 20
0.0000
 30
0.0000
 40
0.1016
 41
0.1016
 70
0
  0
VERTEX
  8
23
 10
114.2905
 20
205.0369
 30
0.0000
 42
1.0000
  0
VERTEX
  8
23
 10
114.2187
 20
204.9651
 30
0.0000
  0
SEQEND
  8
0
  0
POLYLINE
  8
23
 66
1
 10
0.0000
 20
0.0000
 30
0.0000
 40
0.2032
 41
0.2032
 70
0
  0
VERTEX
  8
23
 10
114.6444
 20
204.6112
 30
0.0000
  0
VERTEX
  8
23
 10
114.6444
 20
204.2214
 30
0.0000
  0
SEQEND
  8
0
  0
POLYLINE
  8
23
 66
1
 10
0.0000
 20
0.0000
 30
0.0000
 40
0.1016
 41
0.1016
 70
0
  0
VERTEX
  8
23
 10
114.5936
 20
204.2214
 30
0.0000
 42
1.0000
  0
VERTEX
  8
23
 10
114.6952
 20
204.2214
 30
0.0000
  0
SEQEND
  8
0
  0
POLYLINE
  8
23
 66
1
 10
0.0000
 20
0.0000
 30
0.0000
 40
0.1016
 41
0.1016
 70
0
  0
VERTEX
  8
23
 10
114.6952
 20
204.6112
 30
0.0000
 42
1.0000
  0
VERTEX
  8
23
 10
114.5936
 20
204.6112
 30
0.0000
  0
SEQEND
  8
0
  0
POLYLINE
  8
23
 66
1
 10
0.0000
 20
0.0000
 30
0.0000
 40
0.2032
 41
0.2032
 70
0
  0
VERTEX
  8
23
 10
114.6444
 20
204.2214
 30
0.0000
  0
VERTEX
  8
23
 10
114.2546
 20
203.8316
 30
0.0000
  0
SEQEND
  8
0
  0
POLYLINE
  8
23
 66
1
 10
0.0000
 20
0.0000
 30
0.0000
 40
0.1016
 41
0.1016
 70
0
  0
VERTEX
  8
23
 10
114.2187
 20
203.8675
 30
0.0000
 42
1.0000
  0
VERTEX
  8
23
 10
114.2905
 20
203.7957
 30
0.0000
  0
SEQEND
  8
0
  0
POLYLINE
  8
23
 66
1
 10
0.0000
 20
0.0000
 30
0.0000
 40
0.1016
 41
0.1016
 70
0
  0
VERTEX
  8
23
 10
114.6803
 20
204.1855
 30
0.0000
 42
1.0000
  0
VERTEX
  8
23
 10
114.6085
 20
204.2573
 30
0.0000
  0
SEQEND
  8
0
  0
POLYLINE
  8
23
 66
1
 10
0.0000
 20
0.0000
 30
0.0000
 40
0.2032
 41
0.2032
 70
0
  0
VERTEX
  8
23
 10
114.2546
 20
203.8316
 30
0.0000
  0
VERTEX
  8
23
 10
113.4750
 20
203.8316
 30
0.0000
  0
SEQEND
  8
0
  0
POLYLINE
  8
23
 66
1
 10
0.0000
 20
0.0000
 30
0.0000
 40
0.1016
 41
0.1016
 70
0
  0
VERTEX
  8
23
 10
113.4750
 20
203.8824
 30
0.0000
 42
1.0000
  0
VERTEX
  8
23
 10
113.4750
 20
203.7808
 30
0.0000
  0
SEQEND
  8
0
  0
POLYLINE
  8
23
 66
1
 10
0.0000
 20
0.0000
 30
0.0000
 40
0.1016
 41
0.1016
 70
0
  0
VERTEX
  8
23
 10
114.2546
 20
203.7808
 30
0.0000
 42
1.0000
  0
VERTEX
  8
23
 10
114.2546
 20
203.8824
 30
0.0000
  0
SEQEND
  8
0
  0
POLYLINE
  8
23
 66
1
 10
0.0000
 20
0.0000
 30
0.0000
 40
0.2032
 41
0.2032
 70
0
  0
VERTEX
  8
23
 10
113.4750
 20
203.8316
 30
0.0000
  0
VERTEX
  8
23
 10
113.0852
 20
204.2214
 30
0.0000
  0
SEQEND
  8
0
  0
POLYLINE
  8
23
 66
1
 10
0.0000
 20
0.0000
 30
0.0000
 40
0.1016
 41
0.1016
 70
0
  0
VERTEX
  8
23
 10
113.1211
 20
204.2573
 30
0.0000
 42
1.0000
  0
VERTEX
  8
23
 10
113.0493
 20
204.1855
 30
0.0000
  0
SEQEND
  8
0
  0
POLYLINE
  8
23
 66
1
 10
0.0000
 20
0.0000
 30
0.0000
 40
0.1016
 41
0.1016
 70
0
  0
VERTEX
  8
23
 10
113.4391
 20
203.7957
 30
0.0000
 42
1.0000
  0
VERTEX
  8
23
 10
113.5109
 20
203.8675
 30
0.0000
  0
SEQEND
  8
0
  0
POLYLINE
  8
23
 66
1
 10
0.0000
 20
0.0000
 30
0.0000
 40
0.2032
 41
0.2032
 70
0
  0
VERTEX
  8
23
 10
116.9832
 20
205.7806
 30
0.0000
  0
VERTEX
  8
23
 10
116.5934
 20
206.1704
 30
0.0000
  0
SEQEND
  8
0
  0
POLYLINE
  8
23
 66
1
 10
0.0000
 20
0.0000
 30
0.0000
 40
0.1016
 41
0.1016
 70
0
  0
VERTEX
  8
23
 10
116.6293
 20
206.2063
 30
0.0000
 42
1.0000
  0
VERTEX
  8
23
 10
116.5575
 20
206.1345
 30
0.0000
  0
SEQEND
  8
0
  0
POLYLINE
  8
23
 66
1
 10
0.0000
 20
0.0000
 30
0.0000
 40
0.1016
 41
0.1016
 70
0
  0
VERTEX
  8
23
 10
116.9473
 20
205.7447
 30
0.0000
 42
1.0000
  0
VERTEX
  8
23
 10
117.0191
 20
205.8165
 30
0.0000
  0
SEQEND
  8
0
  0
POLYLINE
  8
23
 66
1
 10
0.0000
 20
0.0000
 30
0.0000
 40
0.2032
 41
0.2032
 70
0
  0
VERTEX
  8
23
 10
116.5934
 20
206.1704
 30
0.0000
  0
VERTEX
  8
23
 10
115.8138
 20
206.1704
 30
0.0000
  0
SEQEND
  8
0
  0
POLYLINE
  8
23
 66
1
 10
0.0000
 20
0.0000
 30
0.0000
 40
0.1016
 41
0.1016
 70
0
  0
VERTEX
  8
23
 10
115.8138
 20
206.2212
 30
0.0000
 42
1.0000
  0
VERTEX
  8
23
 10
115.8138
 20
206.1196
 30
0.0000
  0
SEQEND
  8
0
  0
POLYLINE
  8
23
 66
1
 10
0.0000
 20
0.0000
 30
0.0000
 40
0.1016
 41
0.1016
 70
0
  0
VERTEX
  8
23
 10
116.5934
 20
206.1196
 30
0.0000
 42
1.0000
  0
VERTEX
  8
23
 10
116.5934
 20
206.2212
 30
0.0000
  0
SEQEND
  8
0
  0
POLYLINE
  8
23
 66
1
 10
0.0000
 20
0.0000
 30
0.0000
 40
0.2032
 41
0.2032
 70
0
  0
VERTEX
  8
23
 10
115.8138
 20
206.1704
 30
0.0000
  0
VERTEX
  8
23
 10
115.4240
 20
205.7806
 30
0.0000
  0
SEQEND
  8
0
  0
POLYLINE
  8
23
 66
1
 10
0.0000
 20
0.0000
 30
0.0000
 40
0.1016
 41
0.1016
 70
0
  0
VERTEX
  8
23
 10
115.3881
 20
205.8165
 30
0.0000
 42
1.0000
  0
VERTEX
  8
23
 10
115.4599
 20
205.7447
 30
0.0000
  0
SEQEND
  8
0
  0
POLYLINE
  8
23
 66
1
 10
0.0000
 20
0.0000
 30
0.0000
 40
0.1016
 41
0.1016
 70
0
  0
VERTEX
  8
23
 10
115.8497
 20
206.1345
 30
0.0000
 42
1.0000
  0
VERTEX
  8
23
 10
115.7779
 20
206.2063
 30
0.0000
  0
SEQEND
  8
0
  0
POLYLINE
  8
23
 66
1
 10
0.0000
 20
0.0000
 30
0.0000
 40
0.2032
 41
0.2032
 70
0
  0
VERTEX
  8
23
 10
115.4240
 20
205.7806
 30
0.0000
  0
VERTEX
  8
23
 10
115.4240
 20
204.2214
 30
0.0000
  0
SEQEND
  8
0
  0
POLYLINE
  8
23
 66
1
 10
0.0000
 20
0.0000
 30
0.0000
 40
0.1016
 41
0.1016
 70
0
  0
VERTEX
  8
23
 10
115.3732
 20
204.2214
 30
0.0000
 42
1.0000
  0
VERTEX
  8
23
 10
115.4748
 20
204.2214
 30
0.0000
  0
SEQEND
  8
0
  0
POLYLINE
  8
23
 66
1
 10
0.0000
 20
0.0000
 30
0.0000
 40
0.1016
 41
0.1016
 70
0
  0
VERTEX
  8
23
 10
115.4748
 20
205.7806
 30
0.0000
 42
1.0000
  0
VERTEX
  8
23
 10
115.3732
 20
205.7806
 30
0.0000
  0
SEQEND
  8
0
  0
POLYLINE
  8
23
 66
1
 10
0.0000
 20
0.0000
 30
0.0000
 40
0.2032
 41
0.2032
 70
0
  0
VERTEX
  8
23
 10
115.4240
 20
204.2214
 30
0.0000
  0
VERTEX
  8
23
 10
115.8138
 20
203.8316
 30
0.0000
  0
SEQEND
  8
0
  0
POLYLINE
  8
23
 66
1
 10
0.0000
 20
0.0000
 30
0.0000
 40
0.1016
 41
0.1016
 70
0
  0
VERTEX
  8
23
 10
115.7779
 20
203.7957
 30
0.0000
 42
1.0000
  0
VERTEX
  8
23
 10
115.8497
 20
203.8675
 30
0.0000
  0
SEQEND
  8
0
  0
POLYLINE
  8
23
 66
1
 10
0.0000
 20
0.0000
 30
0.0000
 40
0.1016
 41
0.1016
 70
0
  0
VERTEX
  8
23
 10
115.4599
 20
204.2573
 30
0.0000
 42
1.0000
  0
VERTEX
  8
23
 10
115.3881
 20
204.1855
 30
0.0000
  0
SEQEND
  8
0
  0
POLYLINE
  8
23
 66
1
 10
0.0000
 20
0.0000
 30
0.0000
 40
0.2032
 41
0.2032
 70
0
  0
VERTEX
  8
23
 10
115.8138
 20
203.8316
 30
0.0000
  0
VERTEX
  8
23
 10
116.5934
 20
203.8316
 30
0.0000
  0
SEQEND
  8
0
  0
POLYLINE
  8
23
 66
1
 10
0.0000
 20
0.0000
 30
0.0000
 40
0.1016
 41
0.1016
 70
0
  0
VERTEX
  8
23
 10
116.5934
 20
203.7808
 30
0.0000
 42
1.0000
  0
VERTEX
  8
23
 10
116.5934
 20
203.8824
 30
0.0000
  0
SEQEND
  8
0
  0
POLYLINE
  8
23
 66
1
 10
0.0000
 20
0.0000
 30
0.0000
 40
0.1016
 41
0.1016
 70
0
  0
VERTEX
  8
23
 10
115.8138
 20
203.8824
 30
0.0000
 42
1.0000
  0
VERTEX
  8
23
 10
115.8138
 20
203.7808
 30
0.0000
  0
SEQEND
  8
0
  0
POLYLINE
  8
23
 66
1
 10
0.0000
 20
0.0000
 30
0.0000
 40
0.2032
 41
0.2032
 70
0
  0
VERTEX
  8
23
 10
116.5934
 20
203.8316
 30
0.0000
  0
VERTEX
  8
23
 10
116.9832
 20
204.2214
 30
0.0000
  0
SEQEND
  8
0
  0
POLYLINE
  8
23
 66
1
 10
0.0000
 20
0.0000
 30
0.0000
 40
0.1016
 41
0.1016
 70
0
  0
VERTEX
  8
23
 10
117.0191
 20
204.1855
 30
0.0000
 42
1.0000
  0
VERTEX
  8
23
 10
116.9473
 20
204.2573
 30
0.0000
  0
SEQEND
  8
0
  0
POLYLINE
  8
23
 66
1
 10
0.0000
 20
0.0000
 30
0.0000
 40
0.1016
 41
0.1016
 70
0
  0
VERTEX
  8
23
 10
116.5575
 20
203.8675
 30
0.0000
 42
1.0000
  0
VERTEX
  8
23
 10
116.6293
 20
203.7957
 30
0.0000
  0
SEQEND
  8
0
  0
POLYLINE
  8
23
 66
1
 10
0.0000
 20
0.0000
 30
0.0000
 40
0.2032
 41
0.2032
 70
0
  0
VERTEX
  8
23
 10
117.7628
 20
203.8316
 30
0.0000
  0
VERTEX
  8
23
 10
117.7628
 20
206.1704
 30
0.0000
  0
SEQEND
  8
0
  0
POLYLINE
  8
23
 66
1
 10
0.0000
 20
0.0000
 30
0.0000
 40
0.1016
 41
0.1016
 70
0
  0
VERTEX
  8
23
 10
117.8136
 20
206.1704
 30
0.0000
 42
1.0000
  0
VERTEX
  8
23
 10
117.7120
 20
206.1704
 30
0.0000
  0
SEQEND
  8
0
  0
POLYLINE
  8
23
 66
1
 10
0.0000
 20
0.0000
 30
0.0000
 40
0.1016
 41
0.1016
 70
0
  0
VERTEX
  8
23
 10
117.7120
 20
203.8316
 30
0.0000
 42
1.0000
  0
VERTEX
  8
23
 10
117.8136
 20
203.8316
 30
0.0000
  0
SEQEND
  8
0
  0
POLYLINE
  8
23
 66
1
 10
0.0000
 20
0.0000
 30
0.0000
 40
0.2032
 41
0.2032
 70
0
  0
VERTEX
  8
23
 10
117.7628
 20
206.1704
 30
0.0000
  0
VERTEX
  8
23
 10
118.9322
 20
206.1704
 30
0.0000
  0
SEQEND
  8
0
  0
POLYLINE
  8
23
 66
1
 10
0.0000
 20
0.0000
 30
0.0000
 40
0.1016
 41
0.1016
 70
0
  0
VERTEX
  8
23
 10
118.9322
 20
206.1196
 30
0.0000
 42
1.0000
  0
VERTEX
  8
23
 10
118.9322
 20
206.2212
 30
0.0000
  0
SEQEND
  8
0
  0
POLYLINE
  8
23
 66
1
 10
0.0000
 20
0.0000
 30
0.0000
 40
0.1016
 41
0.1016
 70
0
  0
VERTEX
  8
23
 10
117.7628
 20
206.2212
 30
0.0000
 42
1.0000
  0
VERTEX
  8
23
 10
117.7628
 20
206.1196
 30
0.0000
  0
SEQEND
  8
0
  0
POLYLINE
  8
23
 66
1
 10
0.0000
 20
0.0000
 30
0.0000
 40
0.2032
 41
0.2032
 70
0
  0
VERTEX
  8
23
 10
118.9322
 20
206.1704
 30
0.0000
  0
VERTEX
  8
23
 10
119.3220
 20
205.7806
 30
0.0000
  0
SEQEND
  8
0
  0
POLYLINE
  8
23
 66
1
 10
0.0000
 20
0.0000
 30
0.0000
 40
0.1016
 41
0.1016
 70
0
  0
VERTEX
  8
23
 10
119.2861
 20
205.7447
 30
0.0000
 42
1.0000
  0
VERTEX
  8
23
 10
119.3579
 20
205.8165
 30
0.0000
  0
SEQEND
  8
0
  0
POLYLINE
  8
23
 66
1
 10
0.0000
 20
0.0000
 30
0.0000
 40
0.1016
 41
0.1016
 70
0
  0
VERTEX
  8
23
 10
118.9681
 20
206.2063
 30
0.0000
 42
1.0000
  0
VERTEX
  8
23
 10
118.8963
 20
206.1345
 30
0.0000
  0
SEQEND
  8
0
  0
POLYLINE
  8
23
 66
1
 10
0.0000
 20
0.0000
 30
0.0000
 40
0.2032
 41
0.2032
 70
0
  0
VERTEX
  8
23
 10
119.3220
 20
205.7806
 30
0.0000
  0
VERTEX
  8
23
 10
119.3220
 20
205.0010
 30
0.0000
  0
SEQEND
  8
0
  0
POLYLINE
  8
23
 66
1
 10
0.0000
 20
0.0000
 30
0.0000
 40
0.1016
 41
0.1016
 70
0
  0
VERTEX
  8
23
 10
119.2712
 20
205.0010
 30
0.0000
 42
1.0000
  0
VERTEX
  8
23
 10
119.3728
 20
205.0010
 30
0.0000
  0
SEQEND
  8
0
  0
POLYLINE
  8
23
 66
1
 10
0.0000
 20
0.0000
 30
0.0000
 40
0.1016
 41
0.1016
 70
0
  0
VERTEX
  8
23
 10
119.3728
 20
205.7806
 30
0.0000
 42
1.0000
  0
VERTEX
  8
23
 10
119.2712
 20
205.7806
 30
0.0000
  0
SEQEND
  8
0
  0
POLYLINE
  8
23
 66
1
 10
0.0000
 20
0.0000
 30
0.0000
 40
0.2032
 41
0.2032
 70
0
  0
VERTEX
  8
23
 10
119.3220
 20
205.0010
 30
0.0000
  0
VERTEX
  8
23
 10
118.9322
 20
204.6112
 30
0.0000
  0
SEQEND
  8
0
  0
POLYLINE
  8
23
 66
1
 10
0.0000
 20
0.0000
 30
0.0000
 40
0.1016
 41
0.1016
 70
0
  0
VERTEX
  8
23
 10
118.8963
 20
204.6471
 30
0.0000
 42
1.0000
  0
VERTEX
  8
23
 10
118.9681
 20
204.5753
 30
0.0000
  0
SEQEND
  8
0
  0
POLYLINE
  8
23
 66
1
 10
0.0000
 20
0.0000
 30
0.0000
 40
0.1016
 41
0.1016
 70
0
  0
VERTEX
  8
23
 10
119.3579
 20
204.9651
 30
0.0000
 42
1.0000
  0
VERTEX
  8
23
 10
119.2861
 20
205.0369
 30
0.0000
  0
SEQEND
  8
0
  0
POLYLINE
  8
23
 66
1
 10
0.0000
 20
0.0000
 30
0.0000
 40
0.2032
 41
0.2032
 70
0
  0
VERTEX
  8
23
 10
118.9322
 20
204.6112
 30
0.0000
  0
VERTEX
  8
23
 10
117.7628
 20
204.6112
 30
0.0000
  0
SEQEND
  8
0
  0
POLYLINE
  8
23
 66
1
 10
0.0000
 20
0.0000
 30
0.0000
 40
0.1016
 41
0.1016
 70
0
  0
VERTEX
  8
23
 10
117.7628
 20
204.6620
 30
0.0000
 42
1.0000
  0
VERTEX
  8
23
 10
117.7628
 20
204.5604
 30
0.0000
  0
SEQEND
  8
0
  0
POLYLINE
  8
23
 66
1
 10
0.0000
 20
0.0000
 30
0.0000
 40
0.1016
 41
0.1016
 70
0
  0
VERTEX
  8
23
 10
118.9322
 20
204.5604
 30
0.0000
 42
1.0000
  0
VERTEX
  8
23
 10
118.9322
 20
204.6620
 30
0.0000
  0
SEQEND
  8
0
  0
POLYLINE
  8
23
 66
1
 10
0.0000
 20
0.0000
 30
0.0000
 40
0.2032
 41
0.2032
 70
0
  0
VERTEX
  8
23
 10
118.5424
 20
204.6112
 30
0.0000
  0
VERTEX
  8
23
 10
119.3220
 20
203.8316
 30
0.0000
  0
SEQEND
  8
0
  0
POLYLINE
  8
23
 66
1
 10
0.0000
 20
0.0000
 30
0.0000
 40
0.1016
 41
0.1016
 70
0
  0
VERTEX
  8
23
 10
119.2861
 20
203.7957
 30
0.0000
 42
1.0000
  0
VERTEX
  8
23
 10
119.3579
 20
203.8675
 30
0.0000
  0
SEQEND
  8
0
  0
POLYLINE
  8
23
 66
1
 10
0.0000
 20
0.0000
 30
0.0000
 40
0.1016
 41
0.1016
 70
0
  0
VERTEX
  8
23
 10
118.5783
 20
204.6471
 30
0.0000
 42
1.0000
  0
VERTEX
  8
23
 10
118.5065
 20
204.5753
 30
0.0000
  0
SEQEND
  8
0
  0
POLYLINE
  8
23
 66
1
 10
0.0000
 20
0.0000
 30
0.0000
 40
0.2032
 41
0.2032
 70
0
  0
VERTEX
  8
23
 10
121.6608
 20
206.1704
 30
0.0000
  0
VERTEX
  8
23
 10
120.1016
 20
206.1704
 30
0.0000
  0
SEQEND
  8
0
  0
POLYLINE
  8
23
 66
1
 10
0.0000
 20
0.0000
 30
0.0000
 40
0.1016
 41
0.1016
 70
0
  0
VERTEX
  8
23
 10
120.1016
 20
206.2212
 30
0.0000
 42
1.0000
  0
VERTEX
  8
23
 10
120.1016
 20
206.1196
 30
0.0000
  0
SEQEND
  8
0
  0
POLYLINE
  8
23
 66
1
 10
0.0000
 20
0.0000
 30
0.0000
 40
0.1016
 41
0.1016
 70
0
  0
VERTEX
  8
23
 10
121.6608
 20
206.1196
 30
0.0000
 42
1.0000
  0
VERTEX
  8
23
 10
121.6608
 20
206.2212
 30
0.0000
  0
SEQEND
  8
0
  0
POLYLINE
  8
23
 66
1
 10
0.0000
 20
0.0000
 30
0.0000
 40
0.2032
 41
0.2032
 70
0
  0
VERTEX
  8
23
 10
120.1016
 20
206.1704
 30
0.0000
  0
VERTEX
  8
23
 10
120.1016
 20
203.8316
 30
0.0000
  0
SEQEND
  8
0
  0
POLYLINE
  8
23
 66
1
 10
0.0000
 20
0.0000
 30
0.0000
 40
0.1016
 41
0.1016
 70
0
  0
VERTEX
  8
23
 10
120.0508
 20
203.8316
 30
0.0000
 42
1.0000
  0
VERTEX
  8
23
 10
120.1524
 20
203.8316
 30
0.0000
  0
SEQEND
  8
0
  0
POLYLINE
  8
23
 66
1
 10
0.0000
 20
0.0000
 30
0.0000
 40
0.1016
 41
0.1016
 70
0
  0
VERTEX
  8
23
 10
120.1524
 20
206.1704
 30
0.0000
 42
1.0000
  0
VERTEX
  8
23
 10
120.0508
 20
206.1704
 30
0.0000
  0
SEQEND
  8
0
  0
POLYLINE
  8
23
 66
1
 10
0.0000
 20
0.0000
 30
0.0000
 40
0.2032
 41
0.2032
 70
0
  0
VERTEX
  8
23
 10
120.1016
 20
203.8316
 30
0.0000
  0
VERTEX
  8
23
 10
121.6608
 20
203.8316
 30
0.0000
  0
SEQEND
  8
0
  0
POLYLINE
  8
23
 66
1
 10
0.0000
 20
0.0000
 30
0.0000
 40
0.1016
 41
0.1016
 70
0
  0
VERTEX
  8
23
 10
121.6608
 20
203.7808
 30
0.0000
 42
1.0000
  0
VERTEX
  8
23
 10
121.6608
 20
203.8824
 30
0.0000
  0
SEQEND
  8
0
  0
POLYLINE
  8
23
 66
1
 10
0.0000
 20
0.0000
 30
0.0000
 40
0.1016
 41
0.1016
 70
0
  0
VERTEX
  8
23
 10
120.1016
 20
203.8824
 30
0.0000
 42
1.0000
  0
VERTEX
  8
23
 10
120.1016
 20
203.7808
 30
0.0000
  0
SEQEND
  8
0
  0
POLYLINE
  8
23
 66
1
 10
0.0000
 20
0.0000
 30
0.0000
 40
0.2032
 41
0.2032
 70
0
  0
VERTEX
  8
23
 10
120.1016
 20
205.0010
 30
0.0000
  0
VERTEX
  8
23
 10
120.8812
 20
205.0010
 30
0.0000
  0
SEQEND
  8
0
  0
POLYLINE
  8
23
 66
1
 10
0.0000
 20
0.0000
 30
0.0000
 40
0.1016
 41
0.1016
 70
0
  0
VERTEX
  8
23
 10
120.8812
 20
204.9502
 30
0.0000
 42
1.0000
  0
VERTEX
  8
23
 10
120.8812
 20
205.0518
 30
0.0000
  0
SEQEND
  8
0
  0
POLYLINE
  8
23
 66
1
 10
0.0000
 20
0.0000
 30
0.0000
 40
0.1016
 41
0.1016
 70
0
  0
VERTEX
  8
23
 10
120.1016
 20
205.0518
 30
0.0000
 42
1.0000
  0
VERTEX
  8
23
 10
120.1016
 20
204.9502
 30
0.0000
  0
SEQEND
  8
0
  0
POLYLINE
  8
23
 66
1
 10
0.0000
 20
0.0000
 30
0.0000
 40
0.2032
 41
0.2032
 70
0
  0
VERTEX
  8
23
 10
123.9996
 20
206.1704
 30
0.0000
  0
VERTEX
  8
23
 10
122.4404
 20
206.1704
 30
0.0000
  0
SEQEND
  8
0
  0
POLYLINE
  8
23
 66
1
 10
0.0000
 20
0.0000
 30
0.0000
 40
0.1016
 41
0.1016
 70
0
  0
VERTEX
  8
23
 10
122.4404
 20
206.2212
 30
0.0000
 42
1.0000
  0
VERTEX
  8
23
 10
122.4404
 20
206.1196
 30
0.0000
  0
SEQEND
  8
0
  0
POLYLINE
  8
23
 66
1
 10
0.0000
 20
0.0000
 30
0.0000
 40
0.1016
 41
0.1016
 70
0
  0
VERTEX
  8
23
 10
123.9996
 20
206.1196
 30
0.0000
 42
1.0000
  0
VERTEX
  8
23
 10
123.9996
 20
206.2212
 30
0.0000
  0
SEQEND
  8
0
  0
POLYLINE
  8
23
 66
1
 10
0.0000
 20
0.0000
 30
0.0000
 40
0.2032
 41
0.2032
 70
0
  0
VERTEX
  8
23
 10
122.4404
 20
206.1704
 30
0.0000
  0
VERTEX
  8
23
 10
122.4404
 20
203.8316
 30
0.0000
  0
SEQEND
  8
0
  0
POLYLINE
  8
23
 66
1
 10
0.0000
 20
0.0000
 30
0.0000
 40
0.1016
 41
0.1016
 70
0
  0
VERTEX
  8
23
 10
122.3896
 20
203.8316
 30
0.0000
 42
1.0000
  0
VERTEX
  8
23
 10
122.4912
 20
203.8316
 30
0.0000
  0
SEQEND
  8
0
  0
POLYLINE
  8
23
 66
1
 10
0.0000
 20
0.0000
 30
0.0000
 40
0.1016
 41
0.1016
 70
0
  0
VERTEX
  8
23
 10
122.4912
 20
206.1704
 30
0.0000
 42
1.0000
  0
VERTEX
  8
23
 10
122.3896
 20
206.1704
 30
0.0000
  0
SEQEND
  8
0
  0
POLYLINE
  8
23
 66
1
 10
0.0000
 20
0.0000
 30
0.0000
 40
0.2032
 41
0.2032
 70
0
  0
VERTEX
  8
23
 10
122.4404
 20
203.8316
 30
0.0000
  0
VERTEX
  8
23
 10
123.9996
 20
203.8316
 30
0.0000
  0
SEQEND
  8
0
  0
POLYLINE
  8
23
 66
1
 10
0.0000
 20
0.0000
 30
0.0000
 40
0.1016
 41
0.1016
 70
0
  0
VERTEX
  8
23
 10
123.9996
 20
203.7808
 30
0.0000
 42
1.0000
  0
VERTEX
  8
23
 10
123.9996
 20
203.8824
 30
0.0000
  0
SEQEND
  8
0
  0
POLYLINE
  8
23
 66
1
 10
0.0000
 20
0.0000
 30
0.0000
 40
0.1016
 41
0.1016
 70
0
  0
VERTEX
  8
23
 10
122.4404
 20
203.8824
 30
0.0000
 42
1.0000
  0
VERTEX
  8
23
 10
122.4404
 20
203.7808
 30
0.0000
  0
SEQEND
  8
0
  0
POLYLINE
  8
23
 66
1
 10
0.0000
 20
0.0000
 30
0.0000
 40
0.2032
 41
0.2032
 70
0
  0
VERTEX
  8
23
 10
122.4404
 20
205.0010
 30
0.0000
  0
VERTEX
  8
23
 10
123.2200
 20
205.0010
 30
0.0000
  0
SEQEND
  8
0
  0
POLYLINE
  8
23
 66
1
 10
0.0000
 20
0.0000
 30
0.0000
 40
0.1016
 41
0.1016
 70
0
  0
VERTEX
  8
23
 10
123.2200
 20
204.9502
 30
0.0000
 42
1.0000
  0
VERTEX
  8
23
 10
123.2200
 20
205.0518
 30
0.0000
  0
SEQEND
  8
0
  0
POLYLINE
  8
23
 66
1
 10
0.0000
 20
0.0000
 30
0.0000
 40
0.1016
 41
0.1016
 70
0
  0
VERTEX
  8
23
 10
122.4404
 20
205.0518
 30
0.0000
 42
1.0000
  0
VERTEX
  8
23
 10
122.4404
 20
204.9502
 30
0.0000
  0
SEQEND
  8
0
  0
POLYLINE
  8
23
 66
1
 10
0.0000
 20
0.0000
 30
0.0000
 40
0.2032
 41
0.2032
 70
0
  0
VERTEX
  8
23
 10
124.7792
 20
203.8316
 30
0.0000
  0
VERTEX
  8
23
 10
124.7792
 20
206.1704
 30
0.0000
  0
SEQEND
  8
0
  0
POLYLINE
  8
23
 66
1
 10
0.0000
 20
0.0000
 30
0.0000
 40
0.1016
 41
0.1016
 70
0
  0
VERTEX
  8
23
 10
124.8300
 20
206.1704
 30
0.0000
 42
1.0000
  0
VERTEX
  8
23
 10
124.7284
 20
206.1704
 30
0.0000
  0
SEQEND
  8
0
  0
POLYLINE
  8
23
 66
1
 10
0.0000
 20
0.0000
 30
0.0000
 40
0.1016
 41
0.1016
 70
0
  0
VERTEX
  8
23
 10
124.7284
 20
203.8316
 30
0.0000
 42
1.0000
  0
VERTEX
  8
23
 10
124.8300
 20
203.8316
 30
0.0000
  0
SEQEND
  8
0
  0
POLYLINE
  8
23
 66
1
 10
0.0000
 20
0.0000
 30
0.0000
 40
0.2032
 41
0.2032
 70
0
  0
VERTEX
  8
23
 10
124.7792
 20
206.1704
 30
0.0000
  0
VERTEX
  8
23
 10
126.3384
 20
203.8316
 30
0.0000
  0
SEQEND
  8
0
  0
POLYLINE
  8
23
 66
1
 10
0.0000
 20
0.0000
 30
0.0000
 40
0.1016
 41
0.1016
 70
0
  0
VERTEX
  8
23
 10
126.2961
 20
203.8034
 30
0.0000
 42
1.0000
  0
VERTEX
  8
23
 10
126.3807
 20
203.8598
 30
0.0000
  0
SEQEND
  8
0
  0
POLYLINE
  8
23
 66
1
 10
0.0000
 20
0.0000
 30
0.0000
 40
0.1016
 41
0.1016
 70
0
  0
VERTEX
  8
23
 10
124.8215
 20
206.1986
 30
0.0000
 42
1.0000
  0
VERTEX
  8
23
 10
124.7369
 20
206.1422
 30
0.0000
  0
SEQEND
  8
0
  0
POLYLINE
  8
23
 66
1
 10
0.0000
 20
0.0000
 30
0.0000
 40
0.2032
 41
0.2032
 70
0
  0
VERTEX
  8
23
 10
126.3384
 20
203.8316
 30
0.0000
  0
VERTEX
  8
23
 10
126.3384
 20
206.1704
 30
0.0000
  0
SEQEND
  8
0
  0
POLYLINE
  8
23
 66
1
 10
0.0000
 20
0.0000
 30
0.0000
 40
0.1016
 41
0.1016
 70
0
  0
VERTEX
  8
23
 10
126.3892
 20
206.1704
 30
0.0000
 42
1.0000
  0
VERTEX
  8
23
 10
126.2876
 20
206.1704
 30
0.0000
  0
SEQEND
  8
0
  0
POLYLINE
  8
23
 66
1
 10
0.0000
 20
0.0000
 30
0.0000
 40
0.1016
 41
0.1016
 70
0
  0
VERTEX
  8
23
 10
126.2876
 20
203.8316
 30
0.0000
 42
1.0000
  0
VERTEX
  8
23
 10
126.3892
 20
203.8316
 30
0.0000
  0
SEQEND
  8
0
  0
POLYLINE
  8
23
 66
1
 10
0.0000
 20
0.0000
 30
0.0000
 40
0.2032
 41
0.2032
 70
0
  0
VERTEX
  8
23
 10
29.3056
 20
96.8316
 30
0.0000
  0
VERTEX
  8
23
 10
29.3056
 20
99.1704
 30
0.0000
  0
SEQEND
  8
0
  0
POLYLINE
  8
23
 66
1
 10
0.0000
 20
0.0000
 30
0.0000
 40
0.1016
 41
0.1016
 70
0
  0
VERTEX
  8
23
 10
29.3564
 20
99.1704
 30
0.0000
 42
1.0000
  0
VERTEX
  8
23
 10
29.2548
 20
99.1704
 30
0.0000
  0
SEQEND
  8
0
  0
POLYLINE
  8
23
 66
1
 10
0.0000
 20
0.0000
 30
0.0000
 40
0.1016
 41
0.1016
 70
0
  0
VERTEX
  8
23
 10
29.2548
 20
96.8316
 30
0.0000
 42
1.0000
  0
VERTEX
  8
23
 10
29.3564
 20
96.8316
 30
0.0000
  0
SEQEND
  8
0
  0
POLYLINE
  8
23
 66
1
 10
0.0000
 20
0.0000
 30
0.0000
 40
0.2032
 41
0.2032
 70
0
  0
VERTEX
  8
23
 10
29.3056
 20
99.1704
 30
0.0000
  0
VERTEX
  8
23
 10
30.4750
 20
99.1704
 30
0.0000
  0
SEQEND
  8
0
  0
POLYLINE
  8
23
 66
1
 10
0.0000
 20
0.0000
 30
0.0000
 40
0.1016
 41
0.1016
 70
0
  0
VERTEX
  8
23
 10
30.4750
 20
99.1196
 30
0.0000
 42
1.0000
  0
VERTEX
  8
23
 10
30.4750
 20
99.2212
 30
0.0000
  0
SEQEND
  8
0
  0
POLYLINE
  8
23
 66
1
 10
0.0000
 20
0.0000
 30
0.0000
 40
0.1016
 41
0.1016
 70
0
  0
VERTEX
  8
23
 10
29.3056
 20
99.2212
 30
0.0000
 42
1.0000
  0
VERTEX
  8
23
 10
29.3056
 20
99.1196
 30
0.0000
  0
SEQEND
  8
0
  0
POLYLINE
  8
23
 66
1
 10
0.0000
 20
0.0000
 30
0.0000
 40
0.2032
 41
0.2032
 70
0
  0
VERTEX
  8
23
 10
30.4750
 20
99.1704
 30
0.0000
  0
VERTEX
  8
23
 10
30.8648
 20
98.7806
 30
0.0000
  0
SEQEND
  8
0
  0
POLYLINE
  8
23
 66
1
 10
0.0000
 20
0.0000
 30
0.0000
 40
0.1016
 41
0.1016
 70
0
  0
VERTEX
  8
23
 10
30.8289
 20
98.7447
 30
0.0000
 42
1.0000
  0
VERTEX
  8
23
 10
30.9007
 20
98.8165
 30
0.0000
  0
SEQEND
  8
0
  0
POLYLINE
  8
23
 66
1
 10
0.0000
 20
0.0000
 30
0.0000
 40
0.1016
 41
0.1016
 70
0
  0
VERTEX
  8
23
 10
30.5109
 20
99.2063
 30
0.0000
 42
1.0000
  0
VERTEX
  8
23
 10
30.4391
 20
99.1345
 30
0.0000
  0
SEQEND
  8
0
  0
POLYLINE
  8
23
 66
1
 10
0.0000
 20
0.0000
 30
0.0000
 40
0.2032
 41
0.2032
 70
0
  0
VERTEX
  8
23
 10
30.8648
 20
98.7806
 30
0.0000
  0
VERTEX
  8
23
 10
30.8648
 20
98.0010
 30
0.0000
  0
SEQEND
  8
0
  0
POLYLINE
  8
23
 66
1
 10
0.0000
 20
0.0000
 30
0.0000
 40
0.1016
 41
0.1016
 70
0
  0
VERTEX
  8
23
 10
30.8140
 20
98.0010
 30
0.0000
 42
1.0000
  0
VERTEX
  8
23
 10
30.9156
 20
98.0010
 30
0.0000
  0
SEQEND
  8
0
  0
POLYLINE
  8
23
 66
1
 10
0.0000
 20
0.0000
 30
0.0000
 40
0.1016
 41
0.1016
 70
0
  0
VERTEX
  8
23
 10
30.9156
 20
98.7806
 30
0.0000
 42
1.0000
  0
VERTEX
  8
23
 10
30.8140
 20
98.7806
 30
0.0000
  0
SEQEND
  8
0
  0
POLYLINE
  8
23
 66
1
 10
0.0000
 20
0.0000
 30
0.0000
 40
0.2032
 41
0.2032
 70
0
  0
VERTEX
  8
23
 10
30.8648
 20
98.0010
 30
0.0000
  0
VERTEX
  8
23
 10
30.4750
 20
97.6112
 30
0.0000
  0
SEQEND
  8
0
  0
POLYLINE
  8
23
 66
1
 10
0.0000
 20
0.0000
 30
0.0000
 40
0.1016
 41
0.1016
 70
0
  0
VERTEX
  8
23
 10
30.4391
 20
97.6471
 30
0.0000
 42
1.0000
  0
VERTEX
  8
23
 10
30.5109
 20
97.5753
 30
0.0000
  0
SEQEND
  8
0
  0
POLYLINE
  8
23
 66
1
 10
0.0000
 20
0.0000
 30
0.0000
 40
0.1016
 41
0.1016
 70
0
  0
VERTEX
  8
23
 10
30.9007
 20
97.9651
 30
0.0000
 42
1.0000
  0
VERTEX
  8
23
 10
30.8289
 20
98.0369
 30
0.0000
  0
SEQEND
  8
0
  0
POLYLINE
  8
23
 66
1
 10
0.0000
 20
0.0000
 30
0.0000
 40
0.2032
 41
0.2032
 70
0
  0
VERTEX
  8
23
 10
30.4750
 20
97.6112
 30
0.0000
  0
VERTEX
  8
23
 10
29.3056
 20
97.6112
 30
0.0000
  0
SEQEND
  8
0
  0
POLYLINE
  8
23
 66
1
 10
0.0000
 20
0.0000
 30
0.0000
 40
0.1016
 41
0.1016
 70
0
  0
VERTEX
  8
23
 10
29.3056
 20
97.6620
 30
0.0000
 42
1.0000
  0
VERTEX
  8
23
 10
29.3056
 20
97.5604
 30
0.0000
  0
SEQEND
  8
0
  0
POLYLINE
  8
23
 66
1
 10
0.0000
 20
0.0000
 30
0.0000
 40
0.1016
 41
0.1016
 70
0
  0
VERTEX
  8
23
 10
30.4750
 20
97.5604
 30
0.0000
 42
1.0000
  0
VERTEX
  8
23
 10
30.4750
 20
97.6620
 30
0.0000
  0
SEQEND
  8
0
  0
POLYLINE
  8
23
 66
1
 10
0.0000
 20
0.0000
 30
0.0000
 40
0.2032
 41
0.2032
 70
0
  0
VERTEX
  8
23
 10
31.6444
 20
96.8316
 30
0.0000
  0
VERTEX
  8
23
 10
32.4240
 20
96.8316
 30
0.0000
  0
SEQEND
  8
0
  0
POLYLINE
  8
23
 66
1
 10
0.0000
 20
0.0000
 30
0.0000
 40
0.1016
 41
0.1016
 70
0
  0
VERTEX
  8
23
 10
32.4240
 20
96.7808
 30
0.0000
 42
1.0000
  0
VERTEX
  8
23
 10
32.4240
 20
96.8824
 30
0.0000
  0
SEQEND
  8
0
  0
POLYLINE
  8
23
 66
1
 10
0.0000
 20
0.0000
 30
0.0000
 40
0.1016
 41
0.1016
 70
0
  0
VERTEX
  8
23
 10
31.6444
 20
96.8824
 30
0.0000
 42
1.0000
  0
VERTEX
  8
23
 10
31.6444
 20
96.7808
 30
0.0000
  0
SEQEND
  8
0
  0
POLYLINE
  8
23
 66
1
 10
0.0000
 20
0.0000
 30
0.0000
 40
0.2032
 41
0.2032
 70
0
  0
VERTEX
  8
23
 10
32.0342
 20
96.8316
 30
0.0000
  0
VERTEX
  8
23
 10
32.0342
 20
99.1704
 30
0.0000
  0
SEQEND
  8
0
  0
POLYLINE
  8
23
 66
1
 10
0.0000
 20
0.0000
 30
0.0000
 40
0.1016
 41
0.1016
 70
0
  0
VERTEX
  8
23
 10
32.0850
 20
99.1704
 30
0.0000
 42
1.0000
  0
VERTEX
  8
23
 10
31.9834
 20
99.1704
 30
0.0000
  0
SEQEND
  8
0
  0
POLYLINE
  8
23
 66
1
 10
0.0000
 20
0.0000
 30
0.0000
 40
0.1016
 41
0.1016
 70
0
  0
VERTEX
  8
23
 10
31.9834
 20
96.8316
 30
0.0000
 42
1.0000
  0
VERTEX
  8
23
 10
32.0850
 20
96.8316
 30
0.0000
  0
SEQEND
  8
0
  0
POLYLINE
  8
23
 66
1
 10
0.0000
 20
0.0000
 30
0.0000
 40
0.2032
 41
0.2032
 70
0
  0
VERTEX
  8
23
 10
31.6444
 20
99.1704
 30
0.0000
  0
VERTEX
  8
23
 10
32.4240
 20
99.1704
 30
0.0000
  0
SEQEND
  8
0
  0
POLYLINE
  8
23
 66
1
 10
0.0000
 20
0.0000
 30
0.0000
 40
0.1016
 41
0.1016
 70
0
  0
VERTEX
  8
23
 10
32.4240
 20
99.1196
 30
0.0000
 42
1.0000
  0
VERTEX
  8
23
 10
32.4240
 20
99.2212
 30
0.0000
  0
SEQEND
  8
0
  0
POLYLINE
  8
23
 66
1
 10
0.0000
 20
0.0000
 30
0.0000
 40
0.1016
 41
0.1016
 70
0
  0
VERTEX
  8
23
 10
31.6444
 20
99.2212
 30
0.0000
 42
1.0000
  0
VERTEX
  8
23
 10
31.6444
 20
99.1196
 30
0.0000
  0
SEQEND
  8
0
  0
POLYLINE
  8
23
 66
1
 10
0.0000
 20
0.0000
 30
0.0000
 40
0.2032
 41
0.2032
 70
0
  0
VERTEX
  8
23
 10
35.5424
 20
99.1704
 30
0.0000
  0
VERTEX
  8
23
 10
37.1016
 20
99.1704
 30
0.0000
  0
SEQEND
  8
0
  0
POLYLINE
  8
23
 66
1
 10
0.0000
 20
0.0000
 30
0.0000
 40
0.1016
 41
0.1016
 70
0
  0
VERTEX
  8
23
 10
37.1016
 20
99.1196
 30
0.0000
 42
1.0000
  0
VERTEX
  8
23
 10
37.1016
 20
99.2212
 30
0.0000
  0
SEQEND
  8
0
  0
POLYLINE
  8
23
 66
1
 10
0.0000
 20
0.0000
 30
0.0000
 40
0.1016
 41
0.1016
 70
0
  0
VERTEX
  8
23
 10
35.5424
 20
99.2212
 30
0.0000
 42
1.0000
  0
VERTEX
  8
23
 10
35.5424
 20
99.1196
 30
0.0000
  0
SEQEND
  8
0
  0
POLYLINE
  8
23
 66
1
 10
0.0000
 20
0.0000
 30
0.0000
 40
0.2032
 41
0.2032
 70
0
  0
VERTEX
  8
23
 10
37.1016
 20
99.1704
 30
0.0000
  0
VERTEX
  8
23
 10
37.1016
 20
98.7806
 30
0.0000
  0
SEQEND
  8
0
  0
POLYLINE
  8
23
 66
1
 10
0.0000
 20
0.0000
 30
0.0000
 40
0.1016
 41
0.1016
 70
0
  0
VERTEX
  8
23
 10
37.0508
 20
98.7806
 30
0.0000
 42
1.0000
  0
VERTEX
  8
23
 10
37.1524
 20
98.7806
 30
0.0000
  0
SEQEND
  8
0
  0
POLYLINE
  8
23
 66
1
 10
0.0000
 20
0.0000
 30
0.0000
 40
0.1016
 41
0.1016
 70
0
  0
VERTEX
  8
23
 10
37.1524
 20
99.1704
 30
0.0000
 42
1.0000
  0
VERTEX
  8
23
 10
37.0508
 20
99.1704
 30
0.0000
  0
SEQEND
  8
0
  0
POLYLINE
  8
23
 66
1
 10
0.0000
 20
0.0000
 30
0.0000
 40
0.2032
 41
0.2032
 70
0
  0
VERTEX
  8
23
 10
37.1016
 20
98.7806
 30
0.0000
  0
VERTEX
  8
23
 10
35.5424
 20
97.2214
 30
0.0000
  0
SEQEND
  8
0
  0
POLYLINE
  8
23
 66
1
 10
0.0000
 20
0.0000
 30
0.0000
 40
0.1016
 41
0.1016
 70
0
  0
VERTEX
  8
23
 10
35.5065
 20
97.2573
 30
0.0000
 42
1.0000
  0
VERTEX
  8
23
 10
35.5783
 20
97.1855
 30
0.0000
  0
SEQEND
  8
0
  0
POLYLINE
  8
23
 66
1
 10
0.0000
 20
0.0000
 30
0.0000
 40
0.1016
 41
0.1016
 70
0
  0
VERTEX
  8
23
 10
37.1375
 20
98.7447
 30
0.0000
 42
1.0000
  0
VERTEX
  8
23
 10
37.0657
 20
98.8165
 30
0.0000
  0
SEQEND
  8
0
  0
POLYLINE
  8
23
 66
1
 10
0.0000
 20
0.0000
 30
0.0000
 40
0.2032
 41
0.2032
 70
0
  0
VERTEX
  8
23
 10
35.5424
 20
97.2214
 30
0.0000
  0
VERTEX
  8
23
 10
35.5424
 20
96.8316
 30
0.0000
  0
SEQEND
  8
0
  0
POLYLINE
  8
23
 66
1
 10
0.0000
 20
0.0000
 30
0.0000
 40
0.1016
 41
0.1016
 70
0
  0
VERTEX
  8
23
 10
35.4916
 20
96.8316
 30
0.0000
 42
1.0000
  0
VERTEX
  8
23
 10
35.5932
 20
96.8316
 30
0.0000
  0
SEQEND
  8
0
  0
POLYLINE
  8
23
 66
1
 10
0.0000
 20
0.0000
 30
0.0000
 40
0.1016
 41
0.1016
 70
0
  0
VERTEX
  8
23
 10
35.5932
 20
97.2214
 30
0.0000
 42
1.0000
  0
VERTEX
  8
23
 10
35.4916
 20
97.2214
 30
0.0000
  0
SEQEND
  8
0
  0
POLYLINE
  8
23
 66
1
 10
0.0000
 20
0.0000
 30
0.0000
 40
0.2032
 41
0.2032
 70
0
  0
VERTEX
  8
23
 10
35.5424
 20
96.8316
 30
0.0000
  0
VERTEX
  8
23
 10
37.1016
 20
96.8316
 30
0.0000
  0
SEQEND
  8
0
  0
POLYLINE
  8
23
 66
1
 10
0.0000
 20
0.0000
 30
0.0000
 40
0.1016
 41
0.1016
 70
0
  0
VERTEX
  8
23
 10
37.1016
 20
96.7808
 30
0.0000
 42
1.0000
  0
VERTEX
  8
23
 10
37.1016
 20
96.8824
 30
0.0000
  0
SEQEND
  8
0
  0
POLYLINE
  8
23
 66
1
 10
0.0000
 20
0.0000
 30
0.0000
 40
0.1016
 41
0.1016
 70
0
  0
VERTEX
  8
23
 10
35.5424
 20
96.8824
 30
0.0000
 42
1.0000
  0
VERTEX
  8
23
 10
35.5424
 20
96.7808
 30
0.0000
  0
SEQEND
  8
0
  0
POLYLINE
  8
23
 66
1
 10
0.0000
 20
0.0000
 30
0.0000
 40
0.2032
 41
0.2032
 70
0
  0
VERTEX
  8
23
 10
39.4404
 20
99.1704
 30
0.0000
  0
VERTEX
  8
23
 10
37.8812
 20
99.1704
 30
0.0000
  0
SEQEND
  8
0
  0
POLYLINE
  8
23
 66
1
 10
0.0000
 20
0.0000
 30
0.0000
 40
0.1016
 41
0.1016
 70
0
  0
VERTEX
  8
23
 10
37.8812
 20
99.2212
 30
0.0000
 42
1.0000
  0
VERTEX
  8
23
 10
37.8812
 20
99.1196
 30
0.0000
  0
SEQEND
  8
0
  0
POLYLINE
  8
23
 66
1
 10
0.0000
 20
0.0000
 30
0.0000
 40
0.1016
 41
0.1016
 70
0
  0
VERTEX
  8
23
 10
39.4404
 20
99.1196
 30
0.0000
 42
1.0000
  0
VERTEX
  8
23
 10
39.4404
 20
99.2212
 30
0.0000
  0
SEQEND
  8
0
  0
POLYLINE
  8
23
 66
1
 10
0.0000
 20
0.0000
 30
0.0000
 40
0.2032
 41
0.2032
 70
0
  0
VERTEX
  8
23
 10
37.8812
 20
99.1704
 30
0.0000
  0
VERTEX
  8
23
 10
37.8812
 20
96.8316
 30
0.0000
  0
SEQEND
  8
0
  0
POLYLINE
  8
23
 66
1
 10
0.0000
 20
0.0000
 30
0.0000
 40
0.1016
 41
0.1016
 70
0
  0
VERTEX
  8
23
 10
37.8304
 20
96.8316
 30
0.0000
 42
1.0000
  0
VERTEX
  8
23
 10
37.9320
 20
96.8316
 30
0.0000
  0
SEQEND
  8
0
  0
POLYLINE
  8
23
 66
1
 10
0.0000
 20
0.0000
 30
0.0000
 40
0.1016
 41
0.1016
 70
0
  0
VERTEX
  8
23
 10
37.9320
 20
99.1704
 30
0.0000
 42
1.0000
  0
VERTEX
  8
23
 10
37.8304
 20
99.1704
 30
0.0000
  0
SEQEND
  8
0
  0
POLYLINE
  8
23
 66
1
 10
0.0000
 20
0.0000
 30
0.0000
 40
0.2032
 41
0.2032
 70
0
  0
VERTEX
  8
23
 10
37.8812
 20
96.8316
 30
0.0000
  0
VERTEX
  8
23
 10
39.4404
 20
96.8316
 30
0.0000
  0
SEQEND
  8
0
  0
POLYLINE
  8
23
 66
1
 10
0.0000
 20
0.0000
 30
0.0000
 40
0.1016
 41
0.1016
 70
0
  0
VERTEX
  8
23
 10
39.4404
 20
96.7808
 30
0.0000
 42
1.0000
  0
VERTEX
  8
23
 10
39.4404
 20
96.8824
 30
0.0000
  0
SEQEND
  8
0
  0
POLYLINE
  8
23
 66
1
 10
0.0000
 20
0.0000
 30
0.0000
 40
0.1016
 41
0.1016
 70
0
  0
VERTEX
  8
23
 10
37.8812
 20
96.8824
 30
0.0000
 42
1.0000
  0
VERTEX
  8
23
 10
37.8812
 20
96.7808
 30
0.0000
  0
SEQEND
  8
0
  0
POLYLINE
  8
23
 66
1
 10
0.0000
 20
0.0000
 30
0.0000
 40
0.2032
 41
0.2032
 70
0
  0
VERTEX
  8
23
 10
37.8812
 20
98.0010
 30
0.0000
  0
VERTEX
  8
23
 10
38.6608
 20
98.0010
 30
0.0000
  0
SEQEND
  8
0
  0
POLYLINE
  8
23
 66
1
 10
0.0000
 20
0.0000
 30
0.0000
 40
0.1016
 41
0.1016
 70
0
  0
VERTEX
  8
23
 10
38.6608
 20
97.9502
 30
0.0000
 42
1.0000
  0
VERTEX
  8
23
 10
38.6608
 20
98.0518
 30
0.0000
  0
SEQEND
  8
0
  0
POLYLINE
  8
23
 66
1
 10
0.0000
 20
0.0000
 30
0.0000
 40
0.1016
 41
0.1016
 70
0
  0
VERTEX
  8
23
 10
37.8812
 20
98.0518
 30
0.0000
 42
1.0000
  0
VERTEX
  8
23
 10
37.8812
 20
97.9502
 30
0.0000
  0
SEQEND
  8
0
  0
POLYLINE
  8
23
 66
1
 10
0.0000
 20
0.0000
 30
0.0000
 40
0.2032
 41
0.2032
 70
0
  0
VERTEX
  8
23
 10
40.2200
 20
96.8316
 30
0.0000
  0
VERTEX
  8
23
 10
40.2200
 20
99.1704
 30
0.0000
  0
SEQEND
  8
0
  0
POLYLINE
  8
23
 66
1
 10
0.0000
 20
0.0000
 30
0.0000
 40
0.1016
 41
0.1016
 70
0
  0
VERTEX
  8
23
 10
40.2708
 20
99.1704
 30
0.0000
 42
1.0000
  0
VERTEX
  8
23
 10
40.1692
 20
99.1704
 30
0.0000
  0
SEQEND
  8
0
  0
POLYLINE
  8
23
 66
1
 10
0.0000
 20
0.0000
 30
0.0000
 40
0.1016
 41
0.1016
 70
0
  0
VERTEX
  8
23
 10
40.1692
 20
96.8316
 30
0.0000
 42
1.0000
  0
VERTEX
  8
23
 10
40.2708
 20
96.8316
 30
0.0000
  0
SEQEND
  8
0
  0
POLYLINE
  8
23
 66
1
 10
0.0000
 20
0.0000
 30
0.0000
 40
0.2032
 41
0.2032
 70
0
  0
VERTEX
  8
23
 10
40.2200
 20
99.1704
 30
0.0000
  0
VERTEX
  8
23
 10
41.3894
 20
99.1704
 30
0.0000
  0
SEQEND
  8
0
  0
POLYLINE
  8
23
 66
1
 10
0.0000
 20
0.0000
 30
0.0000
 40
0.1016
 41
0.1016
 70
0
  0
VERTEX
  8
23
 10
41.3894
 20
99.1196
 30
0.0000
 42
1.0000
  0
VERTEX
  8
23
 10
41.3894
 20
99.2212
 30
0.0000
  0
SEQEND
  8
0
  0
POLYLINE
  8
23
 66
1
 10
0.0000
 20
0.0000
 30
0.0000
 40
0.1016
 41
0.1016
 70
0
  0
VERTEX
  8
23
 10
40.2200
 20
99.2212
 30
0.0000
 42
1.0000
  0
VERTEX
  8
23
 10
40.2200
 20
99.1196
 30
0.0000
  0
SEQEND
  8
0
  0
POLYLINE
  8
23
 66
1
 10
0.0000
 20
0.0000
 30
0.0000
 40
0.2032
 41
0.2032
 70
0
  0
VERTEX
  8
23
 10
41.3894
 20
99.1704
 30
0.0000
  0
VERTEX
  8
23
 10
41.7792
 20
98.7806
 30
0.0000
  0
SEQEND
  8
0
  0
POLYLINE
  8
23
 66
1
 10
0.0000
 20
0.0000
 30
0.0000
 40
0.1016
 41
0.1016
 70
0
  0
VERTEX
  8
23
 10
41.7433
 20
98.7447
 30
0.0000
 42
1.0000
  0
VERTEX
  8
23
 10
41.8151
 20
98.8165
 30
0.0000
  0
SEQEND
  8
0
  0
POLYLINE
  8
23
 66
1
 10
0.0000
 20
0.0000
 30
0.0000
 40
0.1016
 41
0.1016
 70
0
  0
VERTEX
  8
23
 10
41.4253
 20
99.2063
 30
0.0000
 42
1.0000
  0
VERTEX
  8
23
 10
41.3535
 20
99.1345
 30
0.0000
  0
SEQEND
  8
0
  0
POLYLINE
  8
23
 66
1
 10
0.0000
 20
0.0000
 30
0.0000
 40
0.2032
 41
0.2032
 70
0
  0
VERTEX
  8
23
 10
41.7792
 20
98.7806
 30
0.0000
  0
VERTEX
  8
23
 10
41.7792
 20
98.0010
 30
0.0000
  0
SEQEND
  8
0
  0
POLYLINE
  8
23
 66
1
 10
0.0000
 20
0.0000
 30
0.0000
 40
0.1016
 41
0.1016
 70
0
  0
VERTEX
  8
23
 10
41.7284
 20
98.0010
 30
0.0000
 42
1.0000
  0
VERTEX
  8
23
 10
41.8300
 20
98.0010
 30
0.0000
  0
SEQEND
  8
0
  0
POLYLINE
  8
23
 66
1
 10
0.0000
 20
0.0000
 30
0.0000
 40
0.1016
 41
0.1016
 70
0
  0
VERTEX
  8
23
 10
41.8300
 20
98.7806
 30
0.0000
 42
1.0000
  0
VERTEX
  8
23
 10
41.7284
 20
98.7806
 30
0.0000
  0
SEQEND
  8
0
  0
POLYLINE
  8
23
 66
1
 10
0.0000
 20
0.0000
 30
0.0000
 40
0.2032
 41
0.2032
 70
0
  0
VERTEX
  8
23
 10
41.7792
 20
98.0010
 30
0.0000
  0
VERTEX
  8
23
 10
41.3894
 20
97.6112
 30
0.0000
  0
SEQEND
  8
0
  0
POLYLINE
  8
23
 66
1
 10
0.0000
 20
0.0000
 30
0.0000
 40
0.1016
 41
0.1016
 70
0
  0
VERTEX
  8
23
 10
41.3535
 20
97.6471
 30
0.0000
 42
1.0000
  0
VERTEX
  8
23
 10
41.4253
 20
97.5753
 30
0.0000
  0
SEQEND
  8
0
  0
POLYLINE
  8
23
 66
1
 10
0.0000
 20
0.0000
 30
0.0000
 40
0.1016
 41
0.1016
 70
0
  0
VERTEX
  8
23
 10
41.8151
 20
97.9651
 30
0.0000
 42
1.0000
  0
VERTEX
  8
23
 10
41.7433
 20
98.0369
 30
0.0000
  0
SEQEND
  8
0
  0
POLYLINE
  8
23
 66
1
 10
0.0000
 20
0.0000
 30
0.0000
 40
0.2032
 41
0.2032
 70
0
  0
VERTEX
  8
23
 10
41.3894
 20
97.6112
 30
0.0000
  0
VERTEX
  8
23
 10
40.2200
 20
97.6112
 30
0.0000
  0
SEQEND
  8
0
  0
POLYLINE
  8
23
 66
1
 10
0.0000
 20
0.0000
 30
0.0000
 40
0.1016
 41
0.1016
 70
0
  0
VERTEX
  8
23
 10
40.2200
 20
97.6620
 30
0.0000
 42
1.0000
  0
VERTEX
  8
23
 10
40.2200
 20
97.5604
 30
0.0000
  0
SEQEND
  8
0
  0
POLYLINE
  8
23
 66
1
 10
0.0000
 20
0.0000
 30
0.0000
 40
0.1016
 41
0.1016
 70
0
  0
VERTEX
  8
23
 10
41.3894
 20
97.5604
 30
0.0000
 42
1.0000
  0
VERTEX
  8
23
 10
41.3894
 20
97.6620
 30
0.0000
  0
SEQEND
  8
0
  0
POLYLINE
  8
23
 66
1
 10
0.0000
 20
0.0000
 30
0.0000
 40
0.2032
 41
0.2032
 70
0
  0
VERTEX
  8
23
 10
40.9996
 20
97.6112
 30
0.0000
  0
VERTEX
  8
23
 10
41.7792
 20
96.8316
 30
0.0000
  0
SEQEND
  8
0
  0
POLYLINE
  8
23
 66
1
 10
0.0000
 20
0.0000
 30
0.0000
 40
0.1016
 41
0.1016
 70
0
  0
VERTEX
  8
23
 10
41.7433
 20
96.7957
 30
0.0000
 42
1.0000
  0
VERTEX
  8
23
 10
41.8151
 20
96.8675
 30
0.0000
  0
SEQEND
  8
0
  0
POLYLINE
  8
23
 66
1
 10
0.0000
 20
0.0000
 30
0.0000
 40
0.1016
 41
0.1016
 70
0
  0
VERTEX
  8
23
 10
41.0355
 20
97.6471
 30
0.0000
 42
1.0000
  0
VERTEX
  8
23
 10
40.9637
 20
97.5753
 30
0.0000
  0
SEQEND
  8
0
  0
POLYLINE
  8
23
 66
1
 10
0.0000
 20
0.0000
 30
0.0000
 40
0.2032
 41
0.2032
 70
0
  0
VERTEX
  8
23
 10
43.7282
 20
99.1704
 30
0.0000
  0
VERTEX
  8
23
 10
42.9486
 20
99.1704
 30
0.0000
  0
SEQEND
  8
0
  0
POLYLINE
  8
23
 66
1
 10
0.0000
 20
0.0000
 30
0.0000
 40
0.1016
 41
0.1016
 70
0
  0
VERTEX
  8
23
 10
42.9486
 20
99.2212
 30
0.0000
 42
1.0000
  0
VERTEX
  8
23
 10
42.9486
 20
99.1196
 30
0.0000
  0
SEQEND
  8
0
  0
POLYLINE
  8
23
 66
1
 10
0.0000
 20
0.0000
 30
0.0000
 40
0.1016
 41
0.1016
 70
0
  0
VERTEX
  8
23
 10
43.7282
 20
99.1196
 30
0.0000
 42
1.0000
  0
VERTEX
  8
23
 10
43.7282
 20
99.2212
 30
0.0000
  0
SEQEND
  8
0
  0
POLYLINE
  8
23
 66
1
 10
0.0000
 20
0.0000
 30
0.0000
 40
0.2032
 41
0.2032
 70
0
  0
VERTEX
  8
23
 10
42.9486
 20
99.1704
 30
0.0000
  0
VERTEX
  8
23
 10
42.5588
 20
98.7806
 30
0.0000
  0
SEQEND
  8
0
  0
POLYLINE
  8
23
 66
1
 10
0.0000
 20
0.0000
 30
0.0000
 40
0.1016
 41
0.1016
 70
0
  0
VERTEX
  8
23
 10
42.5229
 20
98.8165
 30
0.0000
 42
1.0000
  0
VERTEX
  8
23
 10
42.5947
 20
98.7447
 30
0.0000
  0
SEQEND
  8
0
  0
POLYLINE
  8
23
 66
1
 10
0.0000
 20
0.0000
 30
0.0000
 40
0.1016
 41
0.1016
 70
0
  0
VERTEX
  8
23
 10
42.9845
 20
99.1345
 30
0.0000
 42
1.0000
  0
VERTEX
  8
23
 10
42.9127
 20
99.2063
 30
0.0000
  0
SEQEND
  8
0
  0
POLYLINE
  8
23
 66
1
 10
0.0000
 20
0.0000
 30
0.0000
 40
0.2032
 41
0.2032
 70
0
  0
VERTEX
  8
23
 10
42.5588
 20
98.7806
 30
0.0000
  0
VERTEX
  8
23
 10
42.5588
 20
97.2214
 30
0.0000
  0
SEQEND
  8
0
  0
POLYLINE
  8
23
 66
1
 10
0.0000
 20
0.0000
 30
0.0000
 40
0.1016
 41
0.1016
 70
0
  0
VERTEX
  8
23
 10
42.5080
 20
97.2214
 30
0.0000
 42
1.0000
  0
VERTEX
  8
23
 10
42.6096
 20
97.2214
 30
0.0000
  0
SEQEND
  8
0
  0
POLYLINE
  8
23
 66
1
 10
0.0000
 20
0.0000
 30
0.0000
 40
0.1016
 41
0.1016
 70
0
  0
VERTEX
  8
23
 10
42.6096
 20
98.7806
 30
0.0000
 42
1.0000
  0
VERTEX
  8
23
 10
42.5080
 20
98.7806
 30
0.0000
  0
SEQEND
  8
0
  0
POLYLINE
  8
23
 66
1
 10
0.0000
 20
0.0000
 30
0.0000
 40
0.2032
 41
0.2032
 70
0
  0
VERTEX
  8
23
 10
42.5588
 20
97.2214
 30
0.0000
  0
VERTEX
  8
23
 10
42.9486
 20
96.8316
 30
0.0000
  0
SEQEND
  8
0
  0
POLYLINE
  8
23
 66
1
 10
0.0000
 20
0.0000
 30
0.0000
 40
0.1016
 41
0.1016
 70
0
  0
VERTEX
  8
23
 10
42.9127
 20
96.7957
 30
0.0000
 42
1.0000
  0
VERTEX
  8
23
 10
42.9845
 20
96.8675
 30
0.0000
  0
SEQEND
  8
0
  0
POLYLINE
  8
23
 66
1
 10
0.0000
 20
0.0000
 30
0.0000
 40
0.1016
 41
0.1016
 70
0
  0
VERTEX
  8
23
 10
42.5947
 20
97.2573
 30
0.0000
 42
1.0000
  0
VERTEX
  8
23
 10
42.5229
 20
97.1855
 30
0.0000
  0
SEQEND
  8
0
  0
POLYLINE
  8
23
 66
1
 10
0.0000
 20
0.0000
 30
0.0000
 40
0.2032
 41
0.2032
 70
0
  0
VERTEX
  8
23
 10
42.9486
 20
96.8316
 30
0.0000
  0
VERTEX
  8
23
 10
43.7282
 20
96.8316
 30
0.0000
  0
SEQEND
  8
0
  0
POLYLINE
  8
23
 66
1
 10
0.0000
 20
0.0000
 30
0.0000
 40
0.1016
 41
0.1016
 70
0
  0
VERTEX
  8
23
 10
43.7282
 20
96.7808
 30
0.0000
 42
1.0000
  0
VERTEX
  8
23
 10
43.7282
 20
96.8824
 30
0.0000
  0
SEQEND
  8
0
  0
POLYLINE
  8
23
 66
1
 10
0.0000
 20
0.0000
 30
0.0000
 40
0.1016
 41
0.1016
 70
0
  0
VERTEX
  8
23
 10
42.9486
 20
96.8824
 30
0.0000
 42
1.0000
  0
VERTEX
  8
23
 10
42.9486
 20
96.7808
 30
0.0000
  0
SEQEND
  8
0
  0
POLYLINE
  8
23
 66
1
 10
0.0000
 20
0.0000
 30
0.0000
 40
0.2032
 41
0.2032
 70
0
  0
VERTEX
  8
23
 10
43.7282
 20
96.8316
 30
0.0000
  0
VERTEX
  8
23
 10
44.1180
 20
97.2214
 30
0.0000
  0
SEQEND
  8
0
  0
POLYLINE
  8
23
 66
1
 10
0.0000
 20
0.0000
 30
0.0000
 40
0.1016
 41
0.1016
 70
0
  0
VERTEX
  8
23
 10
44.1539
 20
97.1855
 30
0.0000
 42
1.0000
  0
VERTEX
  8
23
 10
44.0821
 20
97.2573
 30
0.0000
  0
SEQEND
  8
0
  0
POLYLINE
  8
23
 66
1
 10
0.0000
 20
0.0000
 30
0.0000
 40
0.1016
 41
0.1016
 70
0
  0
VERTEX
  8
23
 10
43.6923
 20
96.8675
 30
0.0000
 42
1.0000
  0
VERTEX
  8
23
 10
43.7641
 20
96.7957
 30
0.0000
  0
SEQEND
  8
0
  0
POLYLINE
  8
23
 66
1
 10
0.0000
 20
0.0000
 30
0.0000
 40
0.2032
 41
0.2032
 70
0
  0
VERTEX
  8
23
 10
44.1180
 20
97.2214
 30
0.0000
  0
VERTEX
  8
23
 10
44.1180
 20
98.7806
 30
0.0000
  0
SEQEND
  8
0
  0
POLYLINE
  8
23
 66
1
 10
0.0000
 20
0.0000
 30
0.0000
 40
0.1016
 41
0.1016
 70
0
  0
VERTEX
  8
23
 10
44.1688
 20
98.7806
 30
0.0000
 42
1.0000
  0
VERTEX
  8
23
 10
44.0672
 20
98.7806
 30
0.0000
  0
SEQEND
  8
0
  0
POLYLINE
  8
23
 66
1
 10
0.0000
 20
0.0000
 30
0.0000
 40
0.1016
 41
0.1016
 70
0
  0
VERTEX
  8
23
 10
44.0672
 20
97.2214
 30
0.0000
 42
1.0000
  0
VERTEX
  8
23
 10
44.1688
 20
97.2214
 30
0.0000
  0
SEQEND
  8
0
  0
POLYLINE
  8
23
 66
1
 10
0.0000
 20
0.0000
 30
0.0000
 40
0.2032
 41
0.2032
 70
0
  0
VERTEX
  8
23
 10
44.1180
 20
98.7806
 30
0.0000
  0
VERTEX
  8
23
 10
43.7282
 20
99.1704
 30
0.0000
  0
SEQEND
  8
0
  0
POLYLINE
  8
23
 66
1
 10
0.0000
 20
0.0000
 30
0.0000
 40
0.1016
 41
0.1016
 70
0
  0
VERTEX
  8
23
 10
43.7641
 20
99.2063
 30
0.0000
 42
1.0000
  0
VERTEX
  8
23
 10
43.6923
 20
99.1345
 30
0.0000
  0
SEQEND
  8
0
  0
POLYLINE
  8
23
 66
1
 10
0.0000
 20
0.0000
 30
0.0000
 40
0.1016
 41
0.1016
 70
0
  0
VERTEX
  8
23
 10
44.0821
 20
98.7447
 30
0.0000
 42
1.0000
  0
VERTEX
  8
23
 10
44.1539
 20
98.8165
 30
0.0000
  0
SEQEND
  8
0
  0
POLYLINE
  8
23
 66
1
 10
0.0000
 20
0.0000
 30
0.0000
 40
0.2032
 41
0.2032
 70
0
  0
VERTEX
  8
23
 10
113.0852
 20
96.8316
 30
0.0000
  0
VERTEX
  8
23
 10
113.0852
 20
99.1704
 30
0.0000
  0
SEQEND
  8
0
  0
POLYLINE
  8
23
 66
1
 10
0.0000
 20
0.0000
 30
0.0000
 40
0.1016
 41
0.1016
 70
0
  0
VERTEX
  8
23
 10
113.1360
 20
99.1704
 30
0.0000
 42
1.0000
  0
VERTEX
  8
23
 10
113.0344
 20
99.1704
 30
0.0000
  0
SEQEND
  8
0
  0
POLYLINE
  8
23
 66
1
 10
0.0000
 20
0.0000
 30
0.0000
 40
0.1016
 41
0.1016
 70
0
  0
VERTEX
  8
23
 10
113.0344
 20
96.8316
 30
0.0000
 42
1.0000
  0
VERTEX
  8
23
 10
113.1360
 20
96.8316
 30
0.0000
  0
SEQEND
  8
0
  0
POLYLINE
  8
23
 66
1
 10
0.0000
 20
0.0000
 30
0.0000
 40
0.2032
 41
0.2032
 70
0
  0
VERTEX
  8
23
 10
113.0852
 20
99.1704
 30
0.0000
  0
VERTEX
  8
23
 10
114.2546
 20
99.1704
 30
0.0000
  0
SEQEND
  8
0
  0
POLYLINE
  8
23
 66
1
 10
0.0000
 20
0.0000
 30
0.0000
 40
0.1016
 41
0.1016
 70
0
  0
VERTEX
  8
23
 10
114.2546
 20
99.1196
 30
0.0000
 42
1.0000
  0
VERTEX
  8
23
 10
114.2546
 20
99.2212
 30
0.0000
  0
SEQEND
  8
0
  0
POLYLINE
  8
23
 66
1
 10
0.0000
 20
0.0000
 30
0.0000
 40
0.1016
 41
0.1016
 70
0
  0
VERTEX
  8
23
 10
113.0852
 20
99.2212
 30
0.0000
 42
1.0000
  0
VERTEX
  8
23
 10
113.0852
 20
99.1196
 30
0.0000
  0
SEQEND
  8
0
  0
POLYLINE
  8
23
 66
1
 10
0.0000
 20
0.0000
 30
0.0000
 40
0.2032
 41
0.2032
 70
0
  0
VERTEX
  8
23
 10
114.2546
 20
99.1704
 30
0.0000
  0
VERTEX
  8
23
 10
114.6444
 20
98.7806
 30
0.0000
  0
SEQEND
  8
0
  0
POLYLINE
  8
23
 66
1
 10
0.0000
 20
0.0000
 30
0.0000
 40
0.1016
 41
0.1016
 70
0
  0
VERTEX
  8
23
 10
114.6085
 20
98.7447
 30
0.0000
 42
1.0000
  0
VERTEX
  8
23
 10
114.6803
 20
98.8165
 30
0.0000
  0
SEQEND
  8
0
  0
POLYLINE
  8
23
 66
1
 10
0.0000
 20
0.0000
 30
0.0000
 40
0.1016
 41
0.1016
 70
0
  0
VERTEX
  8
23
 10
114.2905
 20
99.2063
 30
0.0000
 42
1.0000
  0
VERTEX
  8
23
 10
114.2187
 20
99.1345
 30
0.0000
  0
SEQEND
  8
0
  0
POLYLINE
  8
23
 66
1
 10
0.0000
 20
0.0000
 30
0.0000
 40
0.2032
 41
0.2032
 70
0
  0
VERTEX
  8
23
 10
114.6444
 20
98.7806
 30
0.0000
  0
VERTEX
  8
23
 10
114.6444
 20
98.3908
 30
0.0000
  0
SEQEND
  8
0
  0
POLYLINE
  8
23
 66
1
 10
0.0000
 20
0.0000
 30
0.0000
 40
0.1016
 41
0.1016
 70
0
  0
VERTEX
  8
23
 10
114.5936
 20
98.3908
 30
0.0000
 42
1.0000
  0
VERTEX
  8
23
 10
114.6952
 20
98.3908
 30
0.0000
  0
SEQEND
  8
0
  0
POLYLINE
  8
23
 66
1
 10
0.0000
 20
0.0000
 30
0.0000
 40
0.1016
 41
0.1016
 70
0
  0
VERTEX
  8
23
 10
114.6952
 20
98.7806
 30
0.0000
 42
1.0000
  0
VERTEX
  8
23
 10
114.5936
 20
98.7806
 30
0.0000
  0
SEQEND
  8
0
  0
POLYLINE
  8
23
 66
1
 10
0.0000
 20
0.0000
 30
0.0000
 40
0.2032
 41
0.2032
 70
0
  0
VERTEX
  8
23
 10
114.6444
 20
98.3908
 30
0.0000
  0
VERTEX
  8
23
 10
114.2546
 20
98.0010
 30
0.0000
  0
SEQEND
  8
0
  0
POLYLINE
  8
23
 66
1
 10
0.0000
 20
0.0000
 30
0.0000
 40
0.1016
 41
0.1016
 70
0
  0
VERTEX
  8
23
 10
114.2187
 20
98.0369
 30
0.0000
 42
1.0000
  0
VERTEX
  8
23
 10
114.2905
 20
97.9651
 30
0.0000
  0
SEQEND
  8
0
  0
POLYLINE
  8
23
 66
1
 10
0.0000
 20
0.0000
 30
0.0000
 40
0.1016
 41
0.1016
 70
0
  0
VERTEX
  8
23
 10
114.6803
 20
98.3549
 30
0.0000
 42
1.0000
  0
VERTEX
  8
23
 10
114.6085
 20
98.4267
 30
0.0000
  0
SEQEND
  8
0
  0
POLYLINE
  8
23
 66
1
 10
0.0000
 20
0.0000
 30
0.0000
 40
0.2032
 41
0.2032
 70
0
  0
VERTEX
  8
23
 10
114.2546
 20
98.0010
 30
0.0000
  0
VERTEX
  8
23
 10
114.6444
 20
97.6112
 30
0.0000
  0
SEQEND
  8
0
  0
POLYLINE
  8
23
 66
1
 10
0.0000
 20
0.0000
 30
0.0000
 40
0.1016
 41
0.1016
 70
0
  0
VERTEX
  8
23
 10
114.6085
 20
97.5753
 30
0.0000
 42
1.0000
  0
VERTEX
  8
23
 10
114.6803
 20
97.6471
 30
0.0000
  0
SEQEND
  8
0
  0
POLYLINE
  8
23
 66
1
 10
0.0000
 20
0.0000
 30
0.0000
 40
0.1016
 41
0.1016
 70
0
  0
VERTEX
  8
23
 10
114.2905
 20
98.0369
 30
0.0000
 42
1.0000
  0
VERTEX
  8
23
 10
114.2187
 20
97.9651
 30
0.0000
  0
SEQEND
  8
0
  0
POLYLINE
  8
23
 66
1
 10
0.0000
 20
0.0000
 30
0.0000
 40
0.2032
 41
0.2032
 70
0
  0
VERTEX
  8
23
 10
114.6444
 20
97.6112
 30
0.0000
  0
VERTEX
  8
23
 10
114.6444
 20
97.2214
 30
0.0000
  0
SEQEND
  8
0
  0
POLYLINE
  8
23
 66
1
 10
0.0000
 20
0.0000
 30
0.0000
 40
0.1016
 41
0.1016
 70
0
  0
VERTEX
  8
23
 10
114.5936
 20
97.2214
 30
0.0000
 42
1.0000
  0
VERTEX
  8
23
 10
114.6952
 20
97.2214
 30
0.0000
  0
SEQEND
  8
0
  0
POLYLINE
  8
23
 66
1
 10
0.0000
 20
0.0000
 30
0.0000
 40
0.1016
 41
0.1016
 70
0
  0
VERTEX
  8
23
 10
114.6952
 20
97.6112
 30
0.0000
 42
1.0000
  0
VERTEX
  8
23
 10
114.5936
 20
97.6112
 30
0.0000
  0
SEQEND
  8
0
  0
POLYLINE
  8
23
 66
1
 10
0.0000
 20
0.0000
 30
0.0000
 40
0.2032
 41
0.2032
 70
0
  0
VERTEX
  8
23
 10
114.6444
 20
97.2214
 30
0.0000
  0
VERTEX
  8
23
 10
114.2546
 20
96.8316
 30
0.0000
  0
SEQEND
  8
0
  0
POLYLINE
  8
23
 66
1
 10
0.0000
 20
0.0000
 30
0.0000
 40
0.1016
 41
0.1016
 70
0
  0
VERTEX
  8
23
 10
114.2187
 20
96.8675
 30
0.0000
 42
1.0000
  0
VERTEX
  8
23
 10
114.2905
 20
96.7957
 30
0.0000
  0
SEQEND
  8
0
  0
POLYLINE
  8
23
 66
1
 10
0.0000
 20
0.0000
 30
0.0000
 40
0.1016
 41
0.1016
 70
0
  0
VERTEX
  8
23
 10
114.6803
 20
97.1855
 30
0.0000
 42
1.0000
  0
VERTEX
  8
23
 10
114.6085
 20
97.2573
 30
0.0000
  0
SEQEND
  8
0
  0
POLYLINE
  8
23
 66
1
 10
0.0000
 20
0.0000
 30
0.0000
 40
0.2032
 41
0.2032
 70
0
  0
VERTEX
  8
23
 10
114.2546
 20
96.8316
 30
0.0000
  0
VERTEX
  8
23
 10
113.0852
 20
96.8316
 30
0.0000
  0
SEQEND
  8
0
  0
POLYLINE
  8
23
 66
1
 10
0.0000
 20
0.0000
 30
0.0000
 40
0.1016
 41
0.1016
 70
0
  0
VERTEX
  8
23
 10
113.0852
 20
96.8824
 30
0.0000
 42
1.0000
  0
VERTEX
  8
23
 10
113.0852
 20
96.7808
 30
0.0000
  0
SEQEND
  8
0
  0
POLYLINE
  8
23
 66
1
 10
0.0000
 20
0.0000
 30
0.0000
 40
0.1016
 41
0.1016
 70
0
  0
VERTEX
  8
23
 10
114.2546
 20
96.7808
 30
0.0000
 42
1.0000
  0
VERTEX
  8
23
 10
114.2546
 20
96.8824
 30
0.0000
  0
SEQEND
  8
0
  0
POLYLINE
  8
23
 66
1
 10
0.0000
 20
0.0000
 30
0.0000
 40
0.2032
 41
0.2032
 70
0
  0
VERTEX
  8
23
 10
113.0852
 20
98.0010
 30
0.0000
  0
VERTEX
  8
23
 10
114.2546
 20
98.0010
 30
0.0000
  0
SEQEND
  8
0
  0
POLYLINE
  8
23
 66
1
 10
0.0000
 20
0.0000
 30
0.0000
 40
0.1016
 41
0.1016
 70
0
  0
VERTEX
  8
23
 10
114.2546
 20
97.9502
 30
0.0000
 42
1.0000
  0
VERTEX
  8
23
 10
114.2546
 20
98.0518
 30
0.0000
  0
SEQEND
  8
0
  0
POLYLINE
  8
23
 66
1
 10
0.0000
 20
0.0000
 30
0.0000
 40
0.1016
 41
0.1016
 70
0
  0
VERTEX
  8
23
 10
113.0852
 20
98.0518
 30
0.0000
 42
1.0000
  0
VERTEX
  8
23
 10
113.0852
 20
97.9502
 30
0.0000
  0
SEQEND
  8
0
  0
POLYLINE
  8
23
 66
1
 10
0.0000
 20
0.0000
 30
0.0000
 40
0.2032
 41
0.2032
 70
0
  0
VERTEX
  8
23
 10
116.5934
 20
99.1704
 30
0.0000
  0
VERTEX
  8
23
 10
115.8138
 20
99.1704
 30
0.0000
  0
SEQEND
  8
0
  0
POLYLINE
  8
23
 66
1
 10
0.0000
 20
0.0000
 30
0.0000
 40
0.1016
 41
0.1016
 70
0
  0
VERTEX
  8
23
 10
115.8138
 20
99.2212
 30
0.0000
 42
1.0000
  0
VERTEX
  8
23
 10
115.8138
 20
99.1196
 30
0.0000
  0
SEQEND
  8
0
  0
POLYLINE
  8
23
 66
1
 10
0.0000
 20
0.0000
 30
0.0000
 40
0.1016
 41
0.1016
 70
0
  0
VERTEX
  8
23
 10
116.5934
 20
99.1196
 30
0.0000
 42
1.0000
  0
VERTEX
  8
23
 10
116.5934
 20
99.2212
 30
0.0000
  0
SEQEND
  8
0
  0
POLYLINE
  8
23
 66
1
 10
0.0000
 20
0.0000
 30
0.0000
 40
0.2032
 41
0.2032
 70
0
  0
VERTEX
  8
23
 10
115.8138
 20
99.1704
 30
0.0000
  0
VERTEX
  8
23
 10
115.4240
 20
98.7806
 30
0.0000
  0
SEQEND
  8
0
  0
POLYLINE
  8
23
 66
1
 10
0.0000
 20
0.0000
 30
0.0000
 40
0.1016
 41
0.1016
 70
0
  0
VERTEX
  8
23
 10
115.3881
 20
98.8165
 30
0.0000
 42
1.0000
  0
VERTEX
  8
23
 10
115.4599
 20
98.7447
 30
0.0000
  0
SEQEND
  8
0
  0
POLYLINE
  8
23
 66
1
 10
0.0000
 20
0.0000
 30
0.0000
 40
0.1016
 41
0.1016
 70
0
  0
VERTEX
  8
23
 10
115.8497
 20
99.1345
 30
0.0000
 42
1.0000
  0
VERTEX
  8
23
 10
115.7779
 20
99.2063
 30
0.0000
  0
SEQEND
  8
0
  0
POLYLINE
  8
23
 66
1
 10
0.0000
 20
0.0000
 30
0.0000
 40
0.2032
 41
0.2032
 70
0
  0
VERTEX
  8
23
 10
115.4240
 20
98.7806
 30
0.0000
  0
VERTEX
  8
23
 10
115.4240
 20
97.2214
 30
0.0000
  0
SEQEND
  8
0
  0
POLYLINE
  8
23
 66
1
 10
0.0000
 20
0.0000
 30
0.0000
 40
0.1016
 41
0.1016
 70
0
  0
VERTEX
  8
23
 10
115.3732
 20
97.2214
 30
0.0000
 42
1.0000
  0
VERTEX
  8
23
 10
115.4748
 20
97.2214
 30
0.0000
  0
SEQEND
  8
0
  0
POLYLINE
  8
23
 66
1
 10
0.0000
 20
0.0000
 30
0.0000
 40
0.1016
 41
0.1016
 70
0
  0
VERTEX
  8
23
 10
115.4748
 20
98.7806
 30
0.0000
 42
1.0000
  0
VERTEX
  8
23
 10
115.3732
 20
98.7806
 30
0.0000
  0
SEQEND
  8
0
  0
POLYLINE
  8
23
 66
1
 10
0.0000
 20
0.0000
 30
0.0000
 40
0.2032
 41
0.2032
 70
0
  0
VERTEX
  8
23
 10
115.4240
 20
97.2214
 30
0.0000
  0
VERTEX
  8
23
 10
115.8138
 20
96.8316
 30
0.0000
  0
SEQEND
  8
0
  0
POLYLINE
  8
23
 66
1
 10
0.0000
 20
0.0000
 30
0.0000
 40
0.1016
 41
0.1016
 70
0
  0
VERTEX
  8
23
 10
115.7779
 20
96.7957
 30
0.0000
 42
1.0000
  0
VERTEX
  8
23
 10
115.8497
 20
96.8675
 30
0.0000
  0
SEQEND
  8
0
  0
POLYLINE
  8
23
 66
1
 10
0.0000
 20
0.0000
 30
0.0000
 40
0.1016
 41
0.1016
 70
0
  0
VERTEX
  8
23
 10
115.4599
 20
97.2573
 30
0.0000
 42
1.0000
  0
VERTEX
  8
23
 10
115.3881
 20
97.1855
 30
0.0000
  0
SEQEND
  8
0
  0
POLYLINE
  8
23
 66
1
 10
0.0000
 20
0.0000
 30
0.0000
 40
0.2032
 41
0.2032
 70
0
  0
VERTEX
  8
23
 10
115.8138
 20
96.8316
 30
0.0000
  0
VERTEX
  8
23
 10
116.5934
 20
96.8316
 30
0.0000
  0
SEQEND
  8
0
  0
POLYLINE
  8
23
 66
1
 10
0.0000
 20
0.0000
 30
0.0000
 40
0.1016
 41
0.1016
 70
0
  0
VERTEX
  8
23
 10
116.5934
 20
96.7808
 30
0.0000
 42
1.0000
  0
VERTEX
  8
23
 10
116.5934
 20
96.8824
 30
0.0000
  0
SEQEND
  8
0
  0
POLYLINE
  8
23
 66
1
 10
0.0000
 20
0.0000
 30
0.0000
 40
0.1016
 41
0.1016
 70
0
  0
VERTEX
  8
23
 10
115.8138
 20
96.8824
 30
0.0000
 42
1.0000
  0
VERTEX
  8
23
 10
115.8138
 20
96.7808
 30
0.0000
  0
SEQEND
  8
0
  0
POLYLINE
  8
23
 66
1
 10
0.0000
 20
0.0000
 30
0.0000
 40
0.2032
 41
0.2032
 70
0
  0
VERTEX
  8
23
 10
116.5934
 20
96.8316
 30
0.0000
  0
VERTEX
  8
23
 10
116.9832
 20
97.2214
 30
0.0000
  0
SEQEND
  8
0
  0
POLYLINE
  8
23
 66
1
 10
0.0000
 20
0.0000
 30
0.0000
 40
0.1016
 41
0.1016
 70
0
  0
VERTEX
  8
23
 10
117.0191
 20
97.1855
 30
0.0000
 42
1.0000
  0
VERTEX
  8
23
 10
116.9473
 20
97.2573
 30
0.0000
  0
SEQEND
  8
0
  0
POLYLINE
  8
23
 66
1
 10
0.0000
 20
0.0000
 30
0.0000
 40
0.1016
 41
0.1016
 70
0
  0
VERTEX
  8
23
 10
116.5575
 20
96.8675
 30
0.0000
 42
1.0000
  0
VERTEX
  8
23
 10
116.6293
 20
96.7957
 30
0.0000
  0
SEQEND
  8
0
  0
POLYLINE
  8
23
 66
1
 10
0.0000
 20
0.0000
 30
0.0000
 40
0.2032
 41
0.2032
 70
0
  0
VERTEX
  8
23
 10
116.9832
 20
97.2214
 30
0.0000
  0
VERTEX
  8
23
 10
116.9832
 20
98.7806
 30
0.0000
  0
SEQEND
  8
0
  0
POLYLINE
  8
23
 66
1
 10
0.0000
 20
0.0000
 30
0.0000
 40
0.1016
 41
0.1016
 70
0
  0
VERTEX
  8
23
 10
117.0340
 20
98.7806
 30
0.0000
 42
1.0000
  0
VERTEX
  8
23
 10
116.9324
 20
98.7806
 30
0.0000
  0
SEQEND
  8
0
  0
POLYLINE
  8
23
 66
1
 10
0.0000
 20
0.0000
 30
0.0000
 40
0.1016
 41
0.1016
 70
0
  0
VERTEX
  8
23
 10
116.9324
 20
97.2214
 30
0.0000
 42
1.0000
  0
VERTEX
  8
23
 10
117.0340
 20
97.2214
 30
0.0000
  0
SEQEND
  8
0
  0
POLYLINE
  8
23
 66
1
 10
0.0000
 20
0.0000
 30
0.0000
 40
0.2032
 41
0.2032
 70
0
  0
VERTEX
  8
23
 10
116.9832
 20
98.7806
 30
0.0000
  0
VERTEX
  8
23
 10
116.5934
 20
99.1704
 30
0.0000
  0
SEQEND
  8
0
  0
POLYLINE
  8
23
 66
1
 10
0.0000
 20
0.0000
 30
0.0000
 40
0.1016
 41
0.1016
 70
0
  0
VERTEX
  8
23
 10
116.6293
 20
99.2063
 30
0.0000
 42
1.0000
  0
VERTEX
  8
23
 10
116.5575
 20
99.1345
 30
0.0000
  0
SEQEND
  8
0
  0
POLYLINE
  8
23
 66
1
 10
0.0000
 20
0.0000
 30
0.0000
 40
0.1016
 41
0.1016
 70
0
  0
VERTEX
  8
23
 10
116.9473
 20
98.7447
 30
0.0000
 42
1.0000
  0
VERTEX
  8
23
 10
117.0191
 20
98.8165
 30
0.0000
  0
SEQEND
  8
0
  0
POLYLINE
  8
23
 66
1
 10
0.0000
 20
0.0000
 30
0.0000
 40
0.2032
 41
0.2032
 70
0
  0
VERTEX
  8
23
 10
118.5424
 20
96.8316
 30
0.0000
  0
VERTEX
  8
23
 10
118.5424
 20
99.1704
 30
0.0000
  0
SEQEND
  8
0
  0
POLYLINE
  8
23
 66
1
 10
0.0000
 20
0.0000
 30
0.0000
 40
0.1016
 41
0.1016
 70
0
  0
VERTEX
  8
23
 10
118.5932
 20
99.1704
 30
0.0000
 42
1.0000
  0
VERTEX
  8
23
 10
118.4916
 20
99.1704
 30
0.0000
  0
SEQEND
  8
0
  0
POLYLINE
  8
23
 66
1
 10
0.0000
 20
0.0000
 30
0.0000
 40
0.1016
 41
0.1016
 70
0
  0
VERTEX
  8
23
 10
118.4916
 20
96.8316
 30
0.0000
 42
1.0000
  0
VERTEX
  8
23
 10
118.5932
 20
96.8316
 30
0.0000
  0
SEQEND
  8
0
  0
POLYLINE
  8
23
 66
1
 10
0.0000
 20
0.0000
 30
0.0000
 40
0.2032
 41
0.2032
 70
0
  0
VERTEX
  8
23
 10
117.7628
 20
99.1704
 30
0.0000
  0
VERTEX
  8
23
 10
119.3220
 20
99.1704
 30
0.0000
  0
SEQEND
  8
0
  0
POLYLINE
  8
23
 66
1
 10
0.0000
 20
0.0000
 30
0.0000
 40
0.1016
 41
0.1016
 70
0
  0
VERTEX
  8
23
 10
119.3220
 20
99.1196
 30
0.0000
 42
1.0000
  0
VERTEX
  8
23
 10
119.3220
 20
99.2212
 30
0.0000
  0
SEQEND
  8
0
  0
POLYLINE
  8
23
 66
1
 10
0.0000
 20
0.0000
 30
0.0000
 40
0.1016
 41
0.1016
 70
0
  0
VERTEX
  8
23
 10
117.7628
 20
99.2212
 30
0.0000
 42
1.0000
  0
VERTEX
  8
23
 10
117.7628
 20
99.1196
 30
0.0000
  0
SEQEND
  8
0
  0
POLYLINE
  8
23
 66
1
 10
0.0000
 20
0.0000
 30
0.0000
 40
0.2032
 41
0.2032
 70
0
  0
VERTEX
  8
23
 10
120.8812
 20
96.8316
 30
0.0000
  0
VERTEX
  8
23
 10
120.8812
 20
99.1704
 30
0.0000
  0
SEQEND
  8
0
  0
POLYLINE
  8
23
 66
1
 10
0.0000
 20
0.0000
 30
0.0000
 40
0.1016
 41
0.1016
 70
0
  0
VERTEX
  8
23
 10
120.9320
 20
99.1704
 30
0.0000
 42
1.0000
  0
VERTEX
  8
23
 10
120.8304
 20
99.1704
 30
0.0000
  0
SEQEND
  8
0
  0
POLYLINE
  8
23
 66
1
 10
0.0000
 20
0.0000
 30
0.0000
 40
0.1016
 41
0.1016
 70
0
  0
VERTEX
  8
23
 10
120.8304
 20
96.8316
 30
0.0000
 42
1.0000
  0
VERTEX
  8
23
 10
120.9320
 20
96.8316
 30
0.0000
  0
SEQEND
  8
0
  0
POLYLINE
  8
23
 66
1
 10
0.0000
 20
0.0000
 30
0.0000
 40
0.2032
 41
0.2032
 70
0
  0
VERTEX
  8
23
 10
120.1016
 20
99.1704
 30
0.0000
  0
VERTEX
  8
23
 10
121.6608
 20
99.1704
 30
0.0000
  0
SEQEND
  8
0
  0
POLYLINE
  8
23
 66
1
 10
0.0000
 20
0.0000
 30
0.0000
 40
0.1016
 41
0.1016
 70
0
  0
VERTEX
  8
23
 10
121.6608
 20
99.1196
 30
0.0000
 42
1.0000
  0
VERTEX
  8
23
 10
121.6608
 20
99.2212
 30
0.0000
  0
SEQEND
  8
0
  0
POLYLINE
  8
23
 66
1
 10
0.0000
 20
0.0000
 30
0.0000
 40
0.1016
 41
0.1016
 70
0
  0
VERTEX
  8
23
 10
120.1016
 20
99.2212
 30
0.0000
 42
1.0000
  0
VERTEX
  8
23
 10
120.1016
 20
99.1196
 30
0.0000
  0
SEQEND
  8
0
  0
POLYLINE
  8
23
 66
1
 10
0.0000
 20
0.0000
 30
0.0000
 40
0.2032
 41
0.2032
 70
0
  0
VERTEX
  8
23
 10
123.6098
 20
99.1704
 30
0.0000
  0
VERTEX
  8
23
 10
122.8302
 20
99.1704
 30
0.0000
  0
SEQEND
  8
0
  0
POLYLINE
  8
23
 66
1
 10
0.0000
 20
0.0000
 30
0.0000
 40
0.1016
 41
0.1016
 70
0
  0
VERTEX
  8
23
 10
122.8302
 20
99.2212
 30
0.0000
 42
1.0000
  0
VERTEX
  8
23
 10
122.8302
 20
99.1196
 30
0.0000
  0
SEQEND
  8
0
  0
POLYLINE
  8
23
 66
1
 10
0.0000
 20
0.0000
 30
0.0000
 40
0.1016
 41
0.1016
 70
0
  0
VERTEX
  8
23
 10
123.6098
 20
99.1196
 30
0.0000
 42
1.0000
  0
VERTEX
  8
23
 10
123.6098
 20
99.2212
 30
0.0000
  0
SEQEND
  8
0
  0
POLYLINE
  8
23
 66
1
 10
0.0000
 20
0.0000
 30
0.0000
 40
0.2032
 41
0.2032
 70
0
  0
VERTEX
  8
23
 10
122.8302
 20
99.1704
 30
0.0000
  0
VERTEX
  8
23
 10
122.4404
 20
98.7806
 30
0.0000
  0
SEQEND
  8
0
  0
POLYLINE
  8
23
 66
1
 10
0.0000
 20
0.0000
 30
0.0000
 40
0.1016
 41
0.1016
 70
0
  0
VERTEX
  8
23
 10
122.4045
 20
98.8165
 30
0.0000
 42
1.0000
  0
VERTEX
  8
23
 10
122.4763
 20
98.7447
 30
0.0000
  0
SEQEND
  8
0
  0
POLYLINE
  8
23
 66
1
 10
0.0000
 20
0.0000
 30
0.0000
 40
0.1016
 41
0.1016
 70
0
  0
VERTEX
  8
23
 10
122.8661
 20
99.1345
 30
0.0000
 42
1.0000
  0
VERTEX
  8
23
 10
122.7943
 20
99.2063
 30
0.0000
  0
SEQEND
  8
0
  0
POLYLINE
  8
23
 66
1
 10
0.0000
 20
0.0000
 30
0.0000
 40
0.2032
 41
0.2032
 70
0
  0
VERTEX
  8
23
 10
122.4404
 20
98.7806
 30
0.0000
  0
VERTEX
  8
23
 10
122.4404
 20
97.2214
 30
0.0000
  0
SEQEND
  8
0
  0
POLYLINE
  8
23
 66
1
 10
0.0000
 20
0.0000
 30
0.0000
 40
0.1016
 41
0.1016
 70
0
  0
VERTEX
  8
23
 10
122.3896
 20
97.2214
 30
0.0000
 42
1.0000
  0
VERTEX
  8
23
 10
122.4912
 20
97.2214
 30
0.0000
  0
SEQEND
  8
0
  0
POLYLINE
  8
23
 66
1
 10
0.0000
 20
0.0000
 30
0.0000
 40
0.1016
 41
0.1016
 70
0
  0
VERTEX
  8
23
 10
122.4912
 20
98.7806
 30
0.0000
 42
1.0000
  0
VERTEX
  8
23
 10
122.3896
 20
98.7806
 30
0.0000
  0
SEQEND
  8
0
  0
POLYLINE
  8
23
 66
1
 10
0.0000
 20
0.0000
 30
0.0000
 40
0.2032
 41
0.2032
 70
0
  0
VERTEX
  8
23
 10
122.4404
 20
97.2214
 30
0.0000
  0
VERTEX
  8
23
 10
122.8302
 20
96.8316
 30
0.0000
  0
SEQEND
  8
0
  0
POLYLINE
  8
23
 66
1
 10
0.0000
 20
0.0000
 30
0.0000
 40
0.1016
 41
0.1016
 70
0
  0
VERTEX
  8
23
 10
122.7943
 20
96.7957
 30
0.0000
 42
1.0000
  0
VERTEX
  8
23
 10
122.8661
 20
96.8675
 30
0.0000
  0
SEQEND
  8
0
  0
POLYLINE
  8
23
 66
1
 10
0.0000
 20
0.0000
 30
0.0000
 40
0.1016
 41
0.1016
 70
0
  0
VERTEX
  8
23
 10
122.4763
 20
97.2573
 30
0.0000
 42
1.0000
  0
VERTEX
  8
23
 10
122.4045
 20
97.1855
 30
0.0000
  0
SEQEND
  8
0
  0
POLYLINE
  8
23
 66
1
 10
0.0000
 20
0.0000
 30
0.0000
 40
0.2032
 41
0.2032
 70
0
  0
VERTEX
  8
23
 10
122.8302
 20
96.8316
 30
0.0000
  0
VERTEX
  8
23
 10
123.6098
 20
96.8316
 30
0.0000
  0
SEQEND
  8
0
  0
POLYLINE
  8
23
 66
1
 10
0.0000
 20
0.0000
 30
0.0000
 40
0.1016
 41
0.1016
 70
0
  0
VERTEX
  8
23
 10
123.6098
 20
96.7808
 30
0.0000
 42
1.0000
  0
VERTEX
  8
23
 10
123.6098
 20
96.8824
 30
0.0000
  0
SEQEND
  8
0
  0
POLYLINE
  8
23
 66
1
 10
0.0000
 20
0.0000
 30
0.0000
 40
0.1016
 41
0.1016
 70
0
  0
VERTEX
  8
23
 10
122.8302
 20
96.8824
 30
0.0000
 42
1.0000
  0
VERTEX
  8
23
 10
122.8302
 20
96.7808
 30
0.0000
  0
SEQEND
  8
0
  0
POLYLINE
  8
23
 66
1
 10
0.0000
 20
0.0000
 30
0.0000
 40
0.2032
 41
0.2032
 70
0
  0
VERTEX
  8
23
 10
123.6098
 20
96.8316
 30
0.0000
  0
VERTEX
  8
23
 10
123.9996
 20
97.2214
 30
0.0000
  0
SEQEND
  8
0
  0
POLYLINE
  8
23
 66
1
 10
0.0000
 20
0.0000
 30
0.0000
 40
0.1016
 41
0.1016
 70
0
  0
VERTEX
  8
23
 10
124.0355
 20
97.1855
 30
0.0000
 42
1.0000
  0
VERTEX
  8
23
 10
123.9637
 20
97.2573
 30
0.0000
  0
SEQEND
  8
0
  0
POLYLINE
  8
23
 66
1
 10
0.0000
 20
0.0000
 30
0.0000
 40
0.1016
 41
0.1016
 70
0
  0
VERTEX
  8
23
 10
123.5739
 20
96.8675
 30
0.0000
 42
1.0000
  0
VERTEX
  8
23
 10
123.6457
 20
96.7957
 30
0.0000
  0
SEQEND
  8
0
  0
POLYLINE
  8
23
 66
1
 10
0.0000
 20
0.0000
 30
0.0000
 40
0.2032
 41
0.2032
 70
0
  0
VERTEX
  8
23
 10
123.9996
 20
97.2214
 30
0.0000
  0
VERTEX
  8
23
 10
123.9996
 20
98.7806
 30
0.0000
  0
SEQEND
  8
0
  0
POLYLINE
  8
23
 66
1
 10
0.0000
 20
0.0000
 30
0.0000
 40
0.1016
 41
0.1016
 70
0
  0
VERTEX
  8
23
 10
124.0504
 20
98.7806
 30
0.0000
 42
1.0000
  0
VERTEX
  8
23
 10
123.9488
 20
98.7806
 30
0.0000
  0
SEQEND
  8
0
  0
POLYLINE
  8
23
 66
1
 10
0.0000
 20
0.0000
 30
0.0000
 40
0.1016
 41
0.1016
 70
0
  0
VERTEX
  8
23
 10
123.9488
 20
97.2214
 30
0.0000
 42
1.0000
  0
VERTEX
  8
23
 10
124.0504
 20
97.2214
 30
0.0000
  0
SEQEND
  8
0
  0
POLYLINE
  8
23
 66
1
 10
0.0000
 20
0.0000
 30
0.0000
 40
0.2032
 41
0.2032
 70
0
  0
VERTEX
  8
23
 10
123.9996
 20
98.7806
 30
0.0000
  0
VERTEX
  8
23
 10
123.6098
 20
99.1704
 30
0.0000
  0
SEQEND
  8
0
  0
POLYLINE
  8
23
 66
1
 10
0.0000
 20
0.0000
 30
0.0000
 40
0.1016
 41
0.1016
 70
0
  0
VERTEX
  8
23
 10
123.6457
 20
99.2063
 30
0.0000
 42
1.0000
  0
VERTEX
  8
23
 10
123.5739
 20
99.1345
 30
0.0000
  0
SEQEND
  8
0
  0
POLYLINE
  8
23
 66
1
 10
0.0000
 20
0.0000
 30
0.0000
 40
0.1016
 41
0.1016
 70
0
  0
VERTEX
  8
23
 10
123.9637
 20
98.7447
 30
0.0000
 42
1.0000
  0
VERTEX
  8
23
 10
124.0355
 20
98.8165
 30
0.0000
  0
SEQEND
  8
0
  0
POLYLINE
  8
23
 66
1
 10
0.0000
 20
0.0000
 30
0.0000
 40
0.2032
 41
0.2032
 70
0
  0
VERTEX
  8
23
 10
124.7792
 20
96.8316
 30
0.0000
  0
VERTEX
  8
23
 10
124.7792
 20
99.1704
 30
0.0000
  0
SEQEND
  8
0
  0
POLYLINE
  8
23
 66
1
 10
0.0000
 20
0.0000
 30
0.0000
 40
0.1016
 41
0.1016
 70
0
  0
VERTEX
  8
23
 10
124.8300
 20
99.1704
 30
0.0000
 42
1.0000
  0
VERTEX
  8
23
 10
124.7284
 20
99.1704
 30
0.0000
  0
SEQEND
  8
0
  0
POLYLINE
  8
23
 66
1
 10
0.0000
 20
0.0000
 30
0.0000
 40
0.1016
 41
0.1016
 70
0
  0
VERTEX
  8
23
 10
124.7284
 20
96.8316
 30
0.0000
 42
1.0000
  0
VERTEX
  8
23
 10
124.8300
 20
96.8316
 30
0.0000
  0
SEQEND
  8
0
  0
POLYLINE
  8
23
 66
1
 10
0.0000
 20
0.0000
 30
0.0000
 40
0.2032
 41
0.2032
 70
0
  0
VERTEX
  8
23
 10
124.7792
 20
99.1704
 30
0.0000
  0
VERTEX
  8
23
 10
125.5588
 20
98.3908
 30
0.0000
  0
SEQEND
  8
0
  0
POLYLINE
  8
23
 66
1
 10
0.0000
 20
0.0000
 30
0.0000
 40
0.1016
 41
0.1016
 70
0
  0
VERTEX
  8
23
 10
125.5229
 20
98.3549
 30
0.0000
 42
1.0000
  0
VERTEX
  8
23
 10
125.5947
 20
98.4267
 30
0.0000
  0
SEQEND
  8
0
  0
POLYLINE
  8
23
 66
1
 10
0.0000
 20
0.0000
 30
0.0000
 40
0.1016
 41
0.1016
 70
0
  0
VERTEX
  8
23
 10
124.8151
 20
99.2063
 30
0.0000
 42
1.0000
  0
VERTEX
  8
23
 10
124.7433
 20
99.1345
 30
0.0000
  0
SEQEND
  8
0
  0
POLYLINE
  8
23
 66
1
 10
0.0000
 20
0.0000
 30
0.0000
 40
0.2032
 41
0.2032
 70
0
  0
VERTEX
  8
23
 10
125.5588
 20
98.3908
 30
0.0000
  0
VERTEX
  8
23
 10
126.3384
 20
99.1704
 30
0.0000
  0
SEQEND
  8
0
  0
POLYLINE
  8
23
 66
1
 10
0.0000
 20
0.0000
 30
0.0000
 40
0.1016
 41
0.1016
 70
0
  0
VERTEX
  8
23
 10
126.3743
 20
99.1345
 30
0.0000
 42
1.0000
  0
VERTEX
  8
23
 10
126.3025
 20
99.2063
 30
0.0000
  0
SEQEND
  8
0
  0
POLYLINE
  8
23
 66
1
 10
0.0000
 20
0.0000
 30
0.0000
 40
0.1016
 41
0.1016
 70
0
  0
VERTEX
  8
23
 10
125.5229
 20
98.4267
 30
0.0000
 42
1.0000
  0
VERTEX
  8
23
 10
125.5947
 20
98.3549
 30
0.0000
  0
SEQEND
  8
0
  0
POLYLINE
  8
23
 66
1
 10
0.0000
 20
0.0000
 30
0.0000
 40
0.2032
 41
0.2032
 70
0
  0
VERTEX
  8
23
 10
126.3384
 20
99.1704
 30
0.0000
  0
VERTEX
  8
23
 10
126.3384
 20
96.8316
 30
0.0000
  0
SEQEND
  8
0
  0
POLYLINE
  8
23
 66
1
 10
0.0000
 20
0.0000
 30
0.0000
 40
0.1016
 41
0.1016
 70
0
  0
VERTEX
  8
23
 10
126.2876
 20
96.8316
 30
0.0000
 42
1.0000
  0
VERTEX
  8
23
 10
126.3892
 20
96.8316
 30
0.0000
  0
SEQEND
  8
0
  0
POLYLINE
  8
23
 66
1
 10
0.0000
 20
0.0000
 30
0.0000
 40
0.1016
 41
0.1016
 70
0
  0
VERTEX
  8
23
 10
126.3892
 20
99.1704
 30
0.0000
 42
1.0000
  0
VERTEX
  8
23
 10
126.2876
 20
99.1704
 30
0.0000
  0
SEQEND
  8
0
  0
POLYLINE
  8
23
 66
1
 10
0.0000
 20
0.0000
 30
0.0000
 40
0.2032
 41
0.2032
 70
0
  0
VERTEX
  8
23
 10
194.9158
 20
96.8316
 30
0.0000
  0
VERTEX
  8
23
 10
194.9158
 20
99.1704
 30
0.0000
  0
SEQEND
  8
0
  0
POLYLINE
  8
23
 66
1
 10
0.0000
 20
0.0000
 30
0.0000
 40
0.1016
 41
0.1016
 70
0
  0
VERTEX
  8
23
 10
194.9666
 20
99.1704
 30
0.0000
 42
1.0000
  0
VERTEX
  8
23
 10
194.8650
 20
99.1704
 30
0.0000
  0
SEQEND
  8
0
  0
POLYLINE
  8
23
 66
1
 10
0.0000
 20
0.0000
 30
0.0000
 40
0.1016
 41
0.1016
 70
0
  0
VERTEX
  8
23
 10
194.8650
 20
96.8316
 30
0.0000
 42
1.0000
  0
VERTEX
  8
23
 10
194.9666
 20
96.8316
 30
0.0000
  0
SEQEND
  8
0
  0
POLYLINE
  8
23
 66
1
 10
0.0000
 20
0.0000
 30
0.0000
 40
0.2032
 41
0.2032
 70
0
  0
VERTEX
  8
23
 10
194.9158
 20
99.1704
 30
0.0000
  0
VERTEX
  8
23
 10
196.0852
 20
99.1704
 30
0.0000
  0
SEQEND
  8
0
  0
POLYLINE
  8
23
 66
1
 10
0.0000
 20
0.0000
 30
0.0000
 40
0.1016
 41
0.1016
 70
0
  0
VERTEX
  8
23
 10
196.0852
 20
99.1196
 30
0.0000
 42
1.0000
  0
VERTEX
  8
23
 10
196.0852
 20
99.2212
 30
0.0000
  0
SEQEND
  8
0
  0
POLYLINE
  8
23
 66
1
 10
0.0000
 20
0.0000
 30
0.0000
 40
0.1016
 41
0.1016
 70
0
  0
VERTEX
  8
23
 10
194.9158
 20
99.2212
 30
0.0000
 42
1.0000
  0
VERTEX
  8
23
 10
194.9158
 20
99.1196
 30
0.0000
  0
SEQEND
  8
0
  0
POLYLINE
  8
23
 66
1
 10
0.0000
 20
0.0000
 30
0.0000
 40
0.2032
 41
0.2032
 70
0
  0
VERTEX
  8
23
 10
196.0852
 20
99.1704
 30
0.0000
  0
VERTEX
  8
23
 10
196.4750
 20
98.7806
 30
0.0000
  0
SEQEND
  8
0
  0
POLYLINE
  8
23
 66
1
 10
0.0000
 20
0.0000
 30
0.0000
 40
0.1016
 41
0.1016
 70
0
  0
VERTEX
  8
23
 10
196.4391
 20
98.7447
 30
0.0000
 42
1.0000
  0
VERTEX
  8
23
 10
196.5109
 20
98.8165
 30
0.0000
  0
SEQEND
  8
0
  0
POLYLINE
  8
23
 66
1
 10
0.0000
 20
0.0000
 30
0.0000
 40
0.1016
 41
0.1016
 70
0
  0
VERTEX
  8
23
 10
196.1211
 20
99.2063
 30
0.0000
 42
1.0000
  0
VERTEX
  8
23
 10
196.0493
 20
99.1345
 30
0.0000
  0
SEQEND
  8
0
  0
POLYLINE
  8
23
 66
1
 10
0.0000
 20
0.0000
 30
0.0000
 40
0.2032
 41
0.2032
 70
0
  0
VERTEX
  8
23
 10
196.4750
 20
98.7806
 30
0.0000
  0
VERTEX
  8
23
 10
196.4750
 20
98.3908
 30
0.0000
  0
SEQEND
  8
0
  0
POLYLINE
  8
23
 66
1
 10
0.0000
 20
0.0000
 30
0.0000
 40
0.1016
 41
0.1016
 70
0
  0
VERTEX
  8
23
 10
196.4242
 20
98.3908
 30
0.0000
 42
1.0000
  0
VERTEX
  8
23
 10
196.5258
 20
98.3908
 30
0.0000
  0
SEQEND
  8
0
  0
POLYLINE
  8
23
 66
1
 10
0.0000
 20
0.0000
 30
0.0000
 40
0.1016
 41
0.1016
 70
0
  0
VERTEX
  8
23
 10
196.5258
 20
98.7806
 30
0.0000
 42
1.0000
  0
VERTEX
  8
23
 10
196.4242
 20
98.7806
 30
0.0000
  0
SEQEND
  8
0
  0
POLYLINE
  8
23
 66
1
 10
0.0000
 20
0.0000
 30
0.0000
 40
0.2032
 41
0.2032
 70
0
  0
VERTEX
  8
23
 10
196.4750
 20
98.3908
 30
0.0000
  0
VERTEX
  8
23
 10
196.0852
 20
98.0010
 30
0.0000
  0
SEQEND
  8
0
  0
POLYLINE
  8
23
 66
1
 10
0.0000
 20
0.0000
 30
0.0000
 40
0.1016
 41
0.1016
 70
0
  0
VERTEX
  8
23
 10
196.0493
 20
98.0369
 30
0.0000
 42
1.0000
  0
VERTEX
  8
23
 10
196.1211
 20
97.9651
 30
0.0000
  0
SEQEND
  8
0
  0
POLYLINE
  8
23
 66
1
 10
0.0000
 20
0.0000
 30
0.0000
 40
0.1016
 41
0.1016
 70
0
  0
VERTEX
  8
23
 10
196.5109
 20
98.3549
 30
0.0000
 42
1.0000
  0
VERTEX
  8
23
 10
196.4391
 20
98.4267
 30
0.0000
  0
SEQEND
  8
0
  0
POLYLINE
  8
23
 66
1
 10
0.0000
 20
0.0000
 30
0.0000
 40
0.2032
 41
0.2032
 70
0
  0
VERTEX
  8
23
 10
196.0852
 20
98.0010
 30
0.0000
  0
VERTEX
  8
23
 10
196.4750
 20
97.6112
 30
0.0000
  0
SEQEND
  8
0
  0
POLYLINE
  8
23
 66
1
 10
0.0000
 20
0.0000
 30
0.0000
 40
0.1016
 41
0.1016
 70
0
  0
VERTEX
  8
23
 10
196.4391
 20
97.5753
 30
0.0000
 42
1.0000
  0
VERTEX
  8
23
 10
196.5109
 20
97.6471
 30
0.0000
  0
SEQEND
  8
0
  0
POLYLINE
  8
23
 66
1
 10
0.0000
 20
0.0000
 30
0.0000
 40
0.1016
 41
0.1016
 70
0
  0
VERTEX
  8
23
 10
196.1211
 20
98.0369
 30
0.0000
 42
1.0000
  0
VERTEX
  8
23
 10
196.0493
 20
97.9651
 30
0.0000
  0
SEQEND
  8
0
  0
POLYLINE
  8
23
 66
1
 10
0.0000
 20
0.0000
 30
0.0000
 40
0.2032
 41
0.2032
 70
0
  0
VERTEX
  8
23
 10
196.4750
 20
97.6112
 30
0.0000
  0
VERTEX
  8
23
 10
196.4750
 20
97.2214
 30
0.0000
  0
SEQEND
  8
0
  0
POLYLINE
  8
23
 66
1
 10
0.0000
 20
0.0000
 30
0.0000
 40
0.1016
 41
0.1016
 70
0
  0
VERTEX
  8
23
 10
196.4242
 20
97.2214
 30
0.0000
 42
1.0000
  0
VERTEX
  8
23
 10
196.5258
 20
97.2214
 30
0.0000
  0
SEQEND
  8
0
  0
POLYLINE
  8
23
 66
1
 10
0.0000
 20
0.0000
 30
0.0000
 40
0.1016
 41
0.1016
 70
0
  0
VERTEX
  8
23
 10
196.5258
 20
97.6112
 30
0.0000
 42
1.0000
  0
VERTEX
  8
23
 10
196.4242
 20
97.6112
 30
0.0000
  0
SEQEND
  8
0
  0
POLYLINE
  8
23
 66
1
 10
0.0000
 20
0.0000
 30
0.0000
 40
0.2032
 41
0.2032
 70
0
  0
VERTEX
  8
23
 10
196.4750
 20
97.2214
 30
0.0000
  0
VERTEX
  8
23
 10
196.0852
 20
96.8316
 30
0.0000
  0
SEQEND
  8
0
  0
POLYLINE
  8
23
 66
1
 10
0.0000
 20
0.0000
 30
0.0000
 40
0.1016
 41
0.1016
 70
0
  0
VERTEX
  8
23
 10
196.0493
 20
96.8675
 30
0.0000
 42
1.0000
  0
VERTEX
  8
23
 10
196.1211
 20
96.7957
 30
0.0000
  0
SEQEND
  8
0
  0
POLYLINE
  8
23
 66
1
 10
0.0000
 20
0.0000
 30
0.0000
 40
0.1016
 41
0.1016
 70
0
  0
VERTEX
  8
23
 10
196.5109
 20
97.1855
 30
0.0000
 42
1.0000
  0
VERTEX
  8
23
 10
196.4391
 20
97.2573
 30
0.0000
  0
SEQEND
  8
0
  0
POLYLINE
  8
23
 66
1
 10
0.0000
 20
0.0000
 30
0.0000
 40
0.2032
 41
0.2032
 70
0
  0
VERTEX
  8
23
 10
196.0852
 20
96.8316
 30
0.0000
  0
VERTEX
  8
23
 10
194.9158
 20
96.8316
 30
0.0000
  0
SEQEND
  8
0
  0
POLYLINE
  8
23
 66
1
 10
0.0000
 20
0.0000
 30
0.0000
 40
0.1016
 41
0.1016
 70
0
  0
VERTEX
  8
23
 10
194.9158
 20
96.8824
 30
0.0000
 42
1.0000
  0
VERTEX
  8
23
 10
194.9158
 20
96.7808
 30
0.0000
  0
SEQEND
  8
0
  0
POLYLINE
  8
23
 66
1
 10
0.0000
 20
0.0000
 30
0.0000
 40
0.1016
 41
0.1016
 70
0
  0
VERTEX
  8
23
 10
196.0852
 20
96.7808
 30
0.0000
 42
1.0000
  0
VERTEX
  8
23
 10
196.0852
 20
96.8824
 30
0.0000
  0
SEQEND
  8
0
  0
POLYLINE
  8
23
 66
1
 10
0.0000
 20
0.0000
 30
0.0000
 40
0.2032
 41
0.2032
 70
0
  0
VERTEX
  8
23
 10
194.9158
 20
98.0010
 30
0.0000
  0
VERTEX
  8
23
 10
196.0852
 20
98.0010
 30
0.0000
  0
SEQEND
  8
0
  0
POLYLINE
  8
23
 66
1
 10
0.0000
 20
0.0000
 30
0.0000
 40
0.1016
 41
0.1016
 70
0
  0
VERTEX
  8
23
 10
196.0852
 20
97.9502
 30
0.0000
 42
1.0000
  0
VERTEX
  8
23
 10
196.0852
 20
98.0518
 30
0.0000
  0
SEQEND
  8
0
  0
POLYLINE
  8
23
 66
1
 10
0.0000
 20
0.0000
 30
0.0000
 40
0.1016
 41
0.1016
 70
0
  0
VERTEX
  8
23
 10
194.9158
 20
98.0518
 30
0.0000
 42
1.0000
  0
VERTEX
  8
23
 10
194.9158
 20
97.9502
 30
0.0000
  0
SEQEND
  8
0
  0
POLYLINE
  8
23
 66
1
 10
0.0000
 20
0.0000
 30
0.0000
 40
0.2032
 41
0.2032
 70
0
  0
VERTEX
  8
23
 10
197.2546
 20
96.8316
 30
0.0000
  0
VERTEX
  8
23
 10
197.2546
 20
98.3908
 30
0.0000
  0
SEQEND
  8
0
  0
POLYLINE
  8
23
 66
1
 10
0.0000
 20
0.0000
 30
0.0000
 40
0.1016
 41
0.1016
 70
0
  0
VERTEX
  8
23
 10
197.3054
 20
98.3908
 30
0.0000
 42
1.0000
  0
VERTEX
  8
23
 10
197.2038
 20
98.3908
 30
0.0000
  0
SEQEND
  8
0
  0
POLYLINE
  8
23
 66
1
 10
0.0000
 20
0.0000
 30
0.0000
 40
0.1016
 41
0.1016
 70
0
  0
VERTEX
  8
23
 10
197.2038
 20
96.8316
 30
0.0000
 42
1.0000
  0
VERTEX
  8
23
 10
197.3054
 20
96.8316
 30
0.0000
  0
SEQEND
  8
0
  0
POLYLINE
  8
23
 66
1
 10
0.0000
 20
0.0000
 30
0.0000
 40
0.2032
 41
0.2032
 70
0
  0
VERTEX
  8
23
 10
197.2546
 20
98.3908
 30
0.0000
  0
VERTEX
  8
23
 10
198.0342
 20
99.1704
 30
0.0000
  0
SEQEND
  8
0
  0
POLYLINE
  8
23
 66
1
 10
0.0000
 20
0.0000
 30
0.0000
 40
0.1016
 41
0.1016
 70
0
  0
VERTEX
  8
23
 10
198.0701
 20
99.1345
 30
0.0000
 42
1.0000
  0
VERTEX
  8
23
 10
197.9983
 20
99.2063
 30
0.0000
  0
SEQEND
  8
0
  0
POLYLINE
  8
23
 66
1
 10
0.0000
 20
0.0000
 30
0.0000
 40
0.1016
 41
0.1016
 70
0
  0
VERTEX
  8
23
 10
197.2187
 20
98.4267
 30
0.0000
 42
1.0000
  0
VERTEX
  8
23
 10
197.2905
 20
98.3549
 30
0.0000
  0
SEQEND
  8
0
  0
POLYLINE
  8
23
 66
1
 10
0.0000
 20
0.0000
 30
0.0000
 40
0.2032
 41
0.2032
 70
0
  0
VERTEX
  8
23
 10
198.0342
 20
99.1704
 30
0.0000
  0
VERTEX
  8
23
 10
198.8138
 20
98.3908
 30
0.0000
  0
SEQEND
  8
0
  0
POLYLINE
  8
23
 66
1
 10
0.0000
 20
0.0000
 30
0.0000
 40
0.1016
 41
0.1016
 70
0
  0
VERTEX
  8
23
 10
198.7779
 20
98.3549
 30
0.0000
 42
1.0000
  0
VERTEX
  8
23
 10
198.8497
 20
98.4267
 30
0.0000
  0
SEQEND
  8
0
  0
POLYLINE
  8
23
 66
1
 10
0.0000
 20
0.0000
 30
0.0000
 40
0.1016
 41
0.1016
 70
0
  0
VERTEX
  8
23
 10
198.0701
 20
99.2063
 30
0.0000
 42
1.0000
  0
VERTEX
  8
23
 10
197.9983
 20
99.1345
 30
0.0000
  0
SEQEND
  8
0
  0
POLYLINE
  8
23
 66
1
 10
0.0000
 20
0.0000
 30
0.0000
 40
0.2032
 41
0.2032
 70
0
  0
VERTEX
  8
23
 10
198.8138
 20
98.3908
 30
0.0000
  0
VERTEX
  8
23
 10
198.8138
 20
96.8316
 30
0.0000
  0
SEQEND
  8
0
  0
POLYLINE
  8
23
 66
1
 10
0.0000
 20
0.0000
 30
0.0000
 40
0.1016
 41
0.1016
 70
0
  0
VERTEX
  8
23
 10
198.7630
 20
96.8316
 30
0.0000
 42
1.0000
  0
VERTEX
  8
23
 10
198.8646
 20
96.8316
 30
0.0000
  0
SEQEND
  8
0
  0
POLYLINE
  8
23
 66
1
 10
0.0000
 20
0.0000
 30
0.0000
 40
0.1016
 41
0.1016
 70
0
  0
VERTEX
  8
23
 10
198.8646
 20
98.3908
 30
0.0000
 42
1.0000
  0
VERTEX
  8
23
 10
198.7630
 20
98.3908
 30
0.0000
  0
SEQEND
  8
0
  0
POLYLINE
  8
23
 66
1
 10
0.0000
 20
0.0000
 30
0.0000
 40
0.2032
 41
0.2032
 70
0
  0
VERTEX
  8
23
 10
197.2546
 20
98.0010
 30
0.0000
  0
VERTEX
  8
23
 10
198.8138
 20
98.0010
 30
0.0000
  0
SEQEND
  8
0
  0
POLYLINE
  8
23
 66
1
 10
0.0000
 20
0.0000
 30
0.0000
 40
0.1016
 41
0.1016
 70
0
  0
VERTEX
  8
23
 10
198.8138
 20
97.9502
 30
0.0000
 42
1.0000
  0
VERTEX
  8
23
 10
198.8138
 20
98.0518
 30
0.0000
  0
SEQEND
  8
0
  0
POLYLINE
  8
23
 66
1
 10
0.0000
 20
0.0000
 30
0.0000
 40
0.1016
 41
0.1016
 70
0
  0
VERTEX
  8
23
 10
197.2546
 20
98.0518
 30
0.0000
 42
1.0000
  0
VERTEX
  8
23
 10
197.2546
 20
97.9502
 30
0.0000
  0
SEQEND
  8
0
  0
POLYLINE
  8
23
 66
1
 10
0.0000
 20
0.0000
 30
0.0000
 40
0.2032
 41
0.2032
 70
0
  0
VERTEX
  8
23
 10
200.3730
 20
96.8316
 30
0.0000
  0
VERTEX
  8
23
 10
200.3730
 20
99.1704
 30
0.0000
  0
SEQEND
  8
0
  0
POLYLINE
  8
23
 66
1
 10
0.0000
 20
0.0000
 30
0.0000
 40
0.1016
 41
0.1016
 70
0
  0
VERTEX
  8
23
 10
200.4238
 20
99.1704
 30
0.0000
 42
1.0000
  0
VERTEX
  8
23
 10
200.3222
 20
99.1704
 30
0.0000
  0
SEQEND
  8
0
  0
POLYLINE
  8
23
 66
1
 10
0.0000
 20
0.0000
 30
0.0000
 40
0.1016
 41
0.1016
 70
0
  0
VERTEX
  8
23
 10
200.3222
 20
96.8316
 30
0.0000
 42
1.0000
  0
VERTEX
  8
23
 10
200.4238
 20
96.8316
 30
0.0000
  0
SEQEND
  8
0
  0
POLYLINE
  8
23
 66
1
 10
0.0000
 20
0.0000
 30
0.0000
 40
0.2032
 41
0.2032
 70
0
  0
VERTEX
  8
23
 10
199.5934
 20
99.1704
 30
0.0000
  0
VERTEX
  8
23
 10
201.1526
 20
99.1704
 30
0.0000
  0
SEQEND
  8
0
  0
POLYLINE
  8
23
 66
1
 10
0.0000
 20
0.0000
 30
0.0000
 40
0.1016
 41
0.1016
 70
0
  0
VERTEX
  8
23
 10
201.1526
 20
99.1196
 30
0.0000
 42
1.0000
  0
VERTEX
  8
23
 10
201.1526
 20
99.2212
 30
0.0000
  0
SEQEND
  8
0
  0
POLYLINE
  8
23
 66
1
 10
0.0000
 20
0.0000
 30
0.0000
 40
0.1016
 41
0.1016
 70
0
  0
VERTEX
  8
23
 10
199.5934
 20
99.2212
 30
0.0000
 42
1.0000
  0
VERTEX
  8
23
 10
199.5934
 20
99.1196
 30
0.0000
  0
SEQEND
  8
0
  0
POLYLINE
  8
23
 66
1
 10
0.0000
 20
0.0000
 30
0.0000
 40
0.2032
 41
0.2032
 70
0
  0
VERTEX
  8
23
 10
202.7118
 20
96.8316
 30
0.0000
  0
VERTEX
  8
23
 10
202.7118
 20
99.1704
 30
0.0000
  0
SEQEND
  8
0
  0
POLYLINE
  8
23
 66
1
 10
0.0000
 20
0.0000
 30
0.0000
 40
0.1016
 41
0.1016
 70
0
  0
VERTEX
  8
23
 10
202.7626
 20
99.1704
 30
0.0000
 42
1.0000
  0
VERTEX
  8
23
 10
202.6610
 20
99.1704
 30
0.0000
  0
SEQEND
  8
0
  0
POLYLINE
  8
23
 66
1
 10
0.0000
 20
0.0000
 30
0.0000
 40
0.1016
 41
0.1016
 70
0
  0
VERTEX
  8
23
 10
202.6610
 20
96.8316
 30
0.0000
 42
1.0000
  0
VERTEX
  8
23
 10
202.7626
 20
96.8316
 30
0.0000
  0
SEQEND
  8
0
  0
POLYLINE
  8
23
 66
1
 10
0.0000
 20
0.0000
 30
0.0000
 40
0.2032
 41
0.2032
 70
0
  0
VERTEX
  8
23
 10
201.9322
 20
99.1704
 30
0.0000
  0
VERTEX
  8
23
 10
203.4914
 20
99.1704
 30
0.0000
  0
SEQEND
  8
0
  0
POLYLINE
  8
23
 66
1
 10
0.0000
 20
0.0000
 30
0.0000
 40
0.1016
 41
0.1016
 70
0
  0
VERTEX
  8
23
 10
203.4914
 20
99.1196
 30
0.0000
 42
1.0000
  0
VERTEX
  8
23
 10
203.4914
 20
99.2212
 30
0.0000
  0
SEQEND
  8
0
  0
POLYLINE
  8
23
 66
1
 10
0.0000
 20
0.0000
 30
0.0000
 40
0.1016
 41
0.1016
 70
0
  0
VERTEX
  8
23
 10
201.9322
 20
99.2212
 30
0.0000
 42
1.0000
  0
VERTEX
  8
23
 10
201.9322
 20
99.1196
 30
0.0000
  0
SEQEND
  8
0
  0
POLYLINE
  8
23
 66
1
 10
0.0000
 20
0.0000
 30
0.0000
 40
0.2032
 41
0.2032
 70
0
  0
VERTEX
  8
23
 10
205.8302
 20
99.1704
 30
0.0000
  0
VERTEX
  8
23
 10
204.2710
 20
99.1704
 30
0.0000
  0
SEQEND
  8
0
  0
POLYLINE
  8
23
 66
1
 10
0.0000
 20
0.0000
 30
0.0000
 40
0.1016
 41
0.1016
 70
0
  0
VERTEX
  8
23
 10
204.2710
 20
99.2212
 30
0.0000
 42
1.0000
  0
VERTEX
  8
23
 10
204.2710
 20
99.1196
 30
0.0000
  0
SEQEND
  8
0
  0
POLYLINE
  8
23
 66
1
 10
0.0000
 20
0.0000
 30
0.0000
 40
0.1016
 41
0.1016
 70
0
  0
VERTEX
  8
23
 10
205.8302
 20
99.1196
 30
0.0000
 42
1.0000
  0
VERTEX
  8
23
 10
205.8302
 20
99.2212
 30
0.0000
  0
SEQEND
  8
0
  0
POLYLINE
  8
23
 66
1
 10
0.0000
 20
0.0000
 30
0.0000
 40
0.2032
 41
0.2032
 70
0
  0
VERTEX
  8
23
 10
204.2710
 20
99.1704
 30
0.0000
  0
VERTEX
  8
23
 10
204.2710
 20
96.8316
 30
0.0000
  0
SEQEND
  8
0
  0
POLYLINE
  8
23
 66
1
 10
0.0000
 20
0.0000
 30
0.0000
 40
0.1016
 41
0.1016
 70
0
  0
VERTEX
  8
23
 10
204.2202
 20
96.8316
 30
0.0000
 42
1.0000
  0
VERTEX
  8
23
 10
204.3218
 20
96.8316
 30
0.0000
  0
SEQEND
  8
0
  0
POLYLINE
  8
23
 66
1
 10
0.0000
 20
0.0000
 30
0.0000
 40
0.1016
 41
0.1016
 70
0
  0
VERTEX
  8
23
 10
204.3218
 20
99.1704
 30
0.0000
 42
1.0000
  0
VERTEX
  8
23
 10
204.2202
 20
99.1704
 30
0.0000
  0
SEQEND
  8
0
  0
POLYLINE
  8
23
 66
1
 10
0.0000
 20
0.0000
 30
0.0000
 40
0.2032
 41
0.2032
 70
0
  0
VERTEX
  8
23
 10
204.2710
 20
96.8316
 30
0.0000
  0
VERTEX
  8
23
 10
205.8302
 20
96.8316
 30
0.0000
  0
SEQEND
  8
0
  0
POLYLINE
  8
23
 66
1
 10
0.0000
 20
0.0000
 30
0.0000
 40
0.1016
 41
0.1016
 70
0
  0
VERTEX
  8
23
 10
205.8302
 20
96.7808
 30
0.0000
 42
1.0000
  0
VERTEX
  8
23
 10
205.8302
 20
96.8824
 30
0.0000
  0
SEQEND
  8
0
  0
POLYLINE
  8
23
 66
1
 10
0.0000
 20
0.0000
 30
0.0000
 40
0.1016
 41
0.1016
 70
0
  0
VERTEX
  8
23
 10
204.2710
 20
96.8824
 30
0.0000
 42
1.0000
  0
VERTEX
  8
23
 10
204.2710
 20
96.7808
 30
0.0000
  0
SEQEND
  8
0
  0
POLYLINE
  8
23
 66
1
 10
0.0000
 20
0.0000
 30
0.0000
 40
0.2032
 41
0.2032
 70
0
  0
VERTEX
  8
23
 10
204.2710
 20
98.0010
 30
0.0000
  0
VERTEX
  8
23
 10
205.0506
 20
98.0010
 30
0.0000
  0
SEQEND
  8
0
  0
POLYLINE
  8
23
 66
1
 10
0.0000
 20
0.0000
 30
0.0000
 40
0.1016
 41
0.1016
 70
0
  0
VERTEX
  8
23
 10
205.0506
 20
97.9502
 30
0.0000
 42
1.0000
  0
VERTEX
  8
23
 10
205.0506
 20
98.0518
 30
0.0000
  0
SEQEND
  8
0
  0
POLYLINE
  8
23
 66
1
 10
0.0000
 20
0.0000
 30
0.0000
 40
0.1016
 41
0.1016
 70
0
  0
VERTEX
  8
23
 10
204.2710
 20
98.0518
 30
0.0000
 42
1.0000
  0
VERTEX
  8
23
 10
204.2710
 20
97.9502
 30
0.0000
  0
SEQEND
  8
0
  0
POLYLINE
  8
23
 66
1
 10
0.0000
 20
0.0000
 30
0.0000
 40
0.2032
 41
0.2032
 70
0
  0
VERTEX
  8
23
 10
206.6098
 20
96.8316
 30
0.0000
  0
VERTEX
  8
23
 10
206.6098
 20
99.1704
 30
0.0000
  0
SEQEND
  8
0
  0
POLYLINE
  8
23
 66
1
 10
0.0000
 20
0.0000
 30
0.0000
 40
0.1016
 41
0.1016
 70
0
  0
VERTEX
  8
23
 10
206.6606
 20
99.1704
 30
0.0000
 42
1.0000
  0
VERTEX
  8
23
 10
206.5590
 20
99.1704
 30
0.0000
  0
SEQEND
  8
0
  0
POLYLINE
  8
23
 66
1
 10
0.0000
 20
0.0000
 30
0.0000
 40
0.1016
 41
0.1016
 70
0
  0
VERTEX
  8
23
 10
206.5590
 20
96.8316
 30
0.0000
 42
1.0000
  0
VERTEX
  8
23
 10
206.6606
 20
96.8316
 30
0.0000
  0
SEQEND
  8
0
  0
POLYLINE
  8
23
 66
1
 10
0.0000
 20
0.0000
 30
0.0000
 40
0.2032
 41
0.2032
 70
0
  0
VERTEX
  8
23
 10
206.6098
 20
99.1704
 30
0.0000
  0
VERTEX
  8
23
 10
207.7792
 20
99.1704
 30
0.0000
  0
SEQEND
  8
0
  0
POLYLINE
  8
23
 66
1
 10
0.0000
 20
0.0000
 30
0.0000
 40
0.1016
 41
0.1016
 70
0
  0
VERTEX
  8
23
 10
207.7792
 20
99.1196
 30
0.0000
 42
1.0000
  0
VERTEX
  8
23
 10
207.7792
 20
99.2212
 30
0.0000
  0
SEQEND
  8
0
  0
POLYLINE
  8
23
 66
1
 10
0.0000
 20
0.0000
 30
0.0000
 40
0.1016
 41
0.1016
 70
0
  0
VERTEX
  8
23
 10
206.6098
 20
99.2212
 30
0.0000
 42
1.0000
  0
VERTEX
  8
23
 10
206.6098
 20
99.1196
 30
0.0000
  0
SEQEND
  8
0
  0
POLYLINE
  8
23
 66
1
 10
0.0000
 20
0.0000
 30
0.0000
 40
0.2032
 41
0.2032
 70
0
  0
VERTEX
  8
23
 10
207.7792
 20
99.1704
 30
0.0000
  0
VERTEX
  8
23
 10
208.1690
 20
98.7806
 30
0.0000
  0
SEQEND
  8
0
  0
POLYLINE
  8
23
 66
1
 10
0.0000
 20
0.0000
 30
0.0000
 40
0.1016
 41
0.1016
 70
0
  0
VERTEX
  8
23
 10
208.1331
 20
98.7447
 30
0.0000
 42
1.0000
  0
VERTEX
  8
23
 10
208.2049
 20
98.8165
 30
0.0000
  0
SEQEND
  8
0
  0
POLYLINE
  8
23
 66
1
 10
0.0000
 20
0.0000
 30
0.0000
 40
0.1016
 41
0.1016
 70
0
  0
VERTEX
  8
23
 10
207.8151
 20
99.2063
 30
0.0000
 42
1.0000
  0
VERTEX
  8
23
 10
207.7433
 20
99.1345
 30
0.0000
  0
SEQEND
  8
0
  0
POLYLINE
  8
23
 66
1
 10
0.0000
 20
0.0000
 30
0.0000
 40
0.2032
 41
0.2032
 70
0
  0
VERTEX
  8
23
 10
208.1690
 20
98.7806
 30
0.0000
  0
VERTEX
  8
23
 10
208.1690
 20
98.0010
 30
0.0000
  0
SEQEND
  8
0
  0
POLYLINE
  8
23
 66
1
 10
0.0000
 20
0.0000
 30
0.0000
 40
0.1016
 41
0.1016
 70
0
  0
VERTEX
  8
23
 10
208.1182
 20
98.0010
 30
0.0000
 42
1.0000
  0
VERTEX
  8
23
 10
208.2198
 20
98.0010
 30
0.0000
  0
SEQEND
  8
0
  0
POLYLINE
  8
23
 66
1
 10
0.0000
 20
0.0000
 30
0.0000
 40
0.1016
 41
0.1016
 70
0
  0
VERTEX
  8
23
 10
208.2198
 20
98.7806
 30
0.0000
 42
1.0000
  0
VERTEX
  8
23
 10
208.1182
 20
98.7806
 30
0.0000
  0
SEQEND
  8
0
  0
POLYLINE
  8
23
 66
1
 10
0.0000
 20
0.0000
 30
0.0000
 40
0.2032
 41
0.2032
 70
0
  0
VERTEX
  8
23
 10
208.1690
 20
98.0010
 30
0.0000
  0
VERTEX
  8
23
 10
207.7792
 20
97.6112
 30
0.0000
  0
SEQEND
  8
0
  0
POLYLINE
  8
23
 66
1
 10
0.0000
 20
0.0000
 30
0.0000
 40
0.1016
 41
0.1016
 70
0
  0
VERTEX
  8
23
 10
207.7433
 20
97.6471
 30
0.0000
 42
1.0000
  0
VERTEX
  8
23
 10
207.8151
 20
97.5753
 30
0.0000
  0
SEQEND
  8
0
  0
POLYLINE
  8
23
 66
1
 10
0.0000
 20
0.0000
 30
0.0000
 40
0.1016
 41
0.1016
 70
0
  0
VERTEX
  8
23
 10
208.2049
 20
97.9651
 30
0.0000
 42
1.0000
  0
VERTEX
  8
23
 10
208.1331
 20
98.0369
 30
0.0000
  0
SEQEND
  8
0
  0
POLYLINE
  8
23
 66
1
 10
0.0000
 20
0.0000
 30
0.0000
 40
0.2032
 41
0.2032
 70
0
  0
VERTEX
  8
23
 10
207.7792
 20
97.6112
 30
0.0000
  0
VERTEX
  8
23
 10
206.6098
 20
97.6112
 30
0.0000
  0
SEQEND
  8
0
  0
POLYLINE
  8
23
 66
1
 10
0.0000
 20
0.0000
 30
0.0000
 40
0.1016
 41
0.1016
 70
0
  0
VERTEX
  8
23
 10
206.6098
 20
97.6620
 30
0.0000
 42
1.0000
  0
VERTEX
  8
23
 10
206.6098
 20
97.5604
 30
0.0000
  0
SEQEND
  8
0
  0
POLYLINE
  8
23
 66
1
 10
0.0000
 20
0.0000
 30
0.0000
 40
0.1016
 41
0.1016
 70
0
  0
VERTEX
  8
23
 10
207.7792
 20
97.5604
 30
0.0000
 42
1.0000
  0
VERTEX
  8
23
 10
207.7792
 20
97.6620
 30
0.0000
  0
SEQEND
  8
0
  0
POLYLINE
  8
23
 66
1
 10
0.0000
 20
0.0000
 30
0.0000
 40
0.2032
 41
0.2032
 70
0
  0
VERTEX
  8
23
 10
207.3894
 20
97.6112
 30
0.0000
  0
VERTEX
  8
23
 10
208.1690
 20
96.8316
 30
0.0000
  0
SEQEND
  8
0
  0
POLYLINE
  8
23
 66
1
 10
0.0000
 20
0.0000
 30
0.0000
 40
0.1016
 41
0.1016
 70
0
  0
VERTEX
  8
23
 10
208.1331
 20
96.7957
 30
0.0000
 42
1.0000
  0
VERTEX
  8
23
 10
208.2049
 20
96.8675
 30
0.0000
  0
SEQEND
  8
0
  0
POLYLINE
  8
23
 66
1
 10
0.0000
 20
0.0000
 30
0.0000
 40
0.1016
 41
0.1016
 70
0
  0
VERTEX
  8
23
 10
207.4253
 20
97.6471
 30
0.0000
 42
1.0000
  0
VERTEX
  8
23
 10
207.3535
 20
97.5753
 30
0.0000
  0
SEQEND
  8
0
  0
POLYLINE
  8
23
 66
1
 10
0.0000
 20
0.0000
 30
0.0000
 40
0.2032
 41
0.2032
 70
0
  0
VERTEX
  8
23
 10
208.9486
 20
99.1704
 30
0.0000
  0
VERTEX
  8
23
 10
208.9486
 20
98.7806
 30
0.0000
  0
SEQEND
  8
0
  0
POLYLINE
  8
23
 66
1
 10
0.0000
 20
0.0000
 30
0.0000
 40
0.1016
 41
0.1016
 70
0
  0
VERTEX
  8
23
 10
208.8978
 20
98.7806
 30
0.0000
 42
1.0000
  0
VERTEX
  8
23
 10
208.9994
 20
98.7806
 30
0.0000
  0
SEQEND
  8
0
  0
POLYLINE
  8
23
 66
1
 10
0.0000
 20
0.0000
 30
0.0000
 40
0.1016
 41
0.1016
 70
0
  0
VERTEX
  8
23
 10
208.9994
 20
99.1704
 30
0.0000
 42
1.0000
  0
VERTEX
  8
23
 10
208.8978
 20
99.1704
 30
0.0000
  0
SEQEND
  8
0
  0
POLYLINE
  8
23
 66
1
 10
0.0000
 20
0.0000
 30
0.0000
 40
0.2032
 41
0.2032
 70
0
  0
VERTEX
  8
23
 10
208.9486
 20
98.7806
 30
0.0000
  0
VERTEX
  8
23
 10
209.7282
 20
98.0010
 30
0.0000
  0
SEQEND
  8
0
  0
POLYLINE
  8
23
 66
1
 10
0.0000
 20
0.0000
 30
0.0000
 40
0.1016
 41
0.1016
 70
0
  0
VERTEX
  8
23
 10
209.6923
 20
97.9651
 30
0.0000
 42
1.0000
  0
VERTEX
  8
23
 10
209.7641
 20
98.0369
 30
0.0000
  0
SEQEND
  8
0
  0
POLYLINE
  8
23
 66
1
 10
0.0000
 20
0.0000
 30
0.0000
 40
0.1016
 41
0.1016
 70
0
  0
VERTEX
  8
23
 10
208.9845
 20
98.8165
 30
0.0000
 42
1.0000
  0
VERTEX
  8
23
 10
208.9127
 20
98.7447
 30
0.0000
  0
SEQEND
  8
0
  0
POLYLINE
  8
23
 66
1
 10
0.0000
 20
0.0000
 30
0.0000
 40
0.2032
 41
0.2032
 70
0
  0
VERTEX
  8
23
 10
209.7282
 20
98.0010
 30
0.0000
  0
VERTEX
  8
23
 10
210.5078
 20
98.7806
 30
0.0000
  0
SEQEND
  8
0
  0
POLYLINE
  8
23
 66
1
 10
0.0000
 20
0.0000
 30
0.0000
 40
0.1016
 41
0.1016
 70
0
  0
VERTEX
  8
23
 10
210.5437
 20
98.7447
 30
0.0000
 42
1.0000
  0
VERTEX
  8
23
 10
210.4719
 20
98.8165
 30
0.0000
  0
SEQEND
  8
0
  0
POLYLINE
  8
23
 66
1
 10
0.0000
 20
0.0000
 30
0.0000
 40
0.1016
 41
0.1016
 70
0
  0
VERTEX
  8
23
 10
209.6923
 20
98.0369
 30
0.0000
 42
1.0000
  0
VERTEX
  8
23
 10
209.7641
 20
97.9651
 30
0.0000
  0
SEQEND
  8
0
  0
POLYLINE
  8
23
 66
1
 10
0.0000
 20
0.0000
 30
0.0000
 40
0.2032
 41
0.2032
 70
0
  0
VERTEX
  8
23
 10
210.5078
 20
98.7806
 30
0.0000
  0
VERTEX
  8
23
 10
210.5078
 20
99.1704
 30
0.0000
  0
SEQEND
  8
0
  0
POLYLINE
  8
23
 66
1
 10
0.0000
 20
0.0000
 30
0.0000
 40
0.1016
 41
0.1016
 70
0
  0
VERTEX
  8
23
 10
210.5586
 20
99.1704
 30
0.0000
 42
1.0000
  0
VERTEX
  8
23
 10
210.4570
 20
99.1704
 30
0.0000
  0
SEQEND
  8
0
  0
POLYLINE
  8
23
 66
1
 10
0.0000
 20
0.0000
 30
0.0000
 40
0.1016
 41
0.1016
 70
0
  0
VERTEX
  8
23
 10
210.4570
 20
98.7806
 30
0.0000
 42
1.0000
  0
VERTEX
  8
23
 10
210.5586
 20
98.7806
 30
0.0000
  0
SEQEND
  8
0
  0
POLYLINE
  8
23
 66
1
 10
0.0000
 20
0.0000
 30
0.0000
 40
0.2032
 41
0.2032
 70
0
  0
VERTEX
  8
23
 10
209.7282
 20
98.0010
 30
0.0000
  0
VERTEX
  8
23
 10
209.7282
 20
96.8316
 30
0.0000
  0
SEQEND
  8
0
  0
POLYLINE
  8
23
 66
1
 10
0.0000
 20
0.0000
 30
0.0000
 40
0.1016
 41
0.1016
 70
0
  0
VERTEX
  8
23
 10
209.6774
 20
96.8316
 30
0.0000
 42
1.0000
  0
VERTEX
  8
23
 10
209.7790
 20
96.8316
 30
0.0000
  0
SEQEND
  8
0
  0
POLYLINE
  8
23
 66
1
 10
0.0000
 20
0.0000
 30
0.0000
 40
0.1016
 41
0.1016
 70
0
  0
VERTEX
  8
23
 10
209.7790
 20
98.0010
 30
0.0000
 42
1.0000
  0
VERTEX
  8
23
 10
209.6774
 20
98.0010
 30
0.0000
  0
SEQEND
  8
0
  0
POLYLINE
  8
20
 66
1
 10
0.0000
 20
0.0000
 30
0.0000
 40
0.0100
 41
0.0100
 70
0
  0
VERTEX
  8
20
 10
40.3289
 20
125.5163
 30
0.0000
 42
1.0000
  0
VERTEX
  8
20
 10
40.3289
 20
137.5163
 30
0.0000
 42
1.0000
  0
VERTEX
  8
20
 10
40.3289
 20
125.5163
 30
0.0000
  0
SEQEND
  8
0
  0
POLYLINE
  8
20
 66
1
 10
0.0000
 20
0.0000
 30
0.0000
 40
0.0100
 41
0.0100
 70
0
  0
VERTEX
  8
20
 10
54.8299
 20
129.2782
 30
0.0000
 42
1.0000
  0
VERTEX
  8
20
 10
54.8299
 20
141.2782
 30
0.0000
 42
1.0000
  0
VERTEX
  8
20
 10
54.8299
 20
129.2782
 30
0.0000
  0
SEQEND
  8
0
  0
POLYLINE
  8
20
 66
1
 10
0.0000
 20
0.0000
 30
0.0000
 40
0.0100
 41
0.0100
 70
0
  0
VERTEX
  8
20
 10
47.0908
 20
111.0154
 30
0.0000
 42
1.0000
  0
VERTEX
  8
20
 10
47.0908
 20
123.0154
 30
0.0000
 42
1.0000
  0
VERTEX
  8
20
 10
47.0908
 20
111.0154
 30
0.0000
  0
SEQEND
  8
0
  0
POLYLINE
  8
20
 66
1
 10
0.0000
 20
0.0000
 30
0.0000
 40
0.0100
 41
0.0100
 70
0
  0
VERTEX
  8
20
 10
61.5917
 20
114.7773
 30
0.0000
 42
1.0000
  0
VERTEX
  8
20
 10
61.5917
 20
126.7773
 30
0.0000
 42
1.0000
  0
VERTEX
  8
20
 10
61.5917
 20
114.7773
 30
0.0000
  0
SEQEND
  8
0
  0
POLYLINE
  8
20
 66
1
 10
0.0000
 20
0.0000
 30
0.0000
 40
0.0100
 41
0.0100
 70
0
  0
VERTEX
  8
20
 10
123.3289
 20
125.5163
 30
0.0000
 42
1.0000
  0
VERTEX
  8
20
 10
123.3289
 20
137.5163
 30
0.0000
 42
1.0000
  0
VERTEX
  8
20
 10
123.3289
 20
125.5163
 30
0.0000
  0
SEQEND
  8
0
  0
POLYLINE
  8
20
 66
1
 10
0.0000
 20
0.0000
 30
0.0000
 40
0.0100
 41
0.0100
 70
0
  0
VERTEX
  8
20
 10
137.8298
 20
129.2782
 30
0.0000
 42
1.0000
  0
VERTEX
  8
20
 10
137.8298
 20
141.2782
 30
0.0000
 42
1.0000
  0
VERTEX
  8
20
 10
137.8298
 20
129.2782
 30
0.0000
  0
SEQEND
  8
0
  0
POLYLINE
  8
20
 66
1
 10
0.0000
 20
0.0000
 30
0.0000
 40
0.0100
 41
0.0100
 70
0
  0
VERTEX
  8
20
 10
130.0908
 20
111.0154
 30
0.0000
 42
1.0000
  0
VERTEX
  8
20
 10
130.0908
 20
123.0154
 30
0.0000
 42
1.0000
  0
VERTEX
  8
20
 10
130.0908
 20
111.0154
 30
0.0000
  0
SEQEND
  8
0
  0
POLYLINE
  8
20
 66
1
 10
0.0000
 20
0.0000
 30
0.0000
 40
0.0100
 41
0.0100
 70
0
  0
VERTEX
  8
20
 10
144.5917
 20
114.7773
 30
0.0000
 42
1.0000
  0
VERTEX
  8
20
 10
144.5917
 20
126.7773
 30
0.0000
 42
1.0000
  0
VERTEX
  8
20
 10
144.5917
 20
114.7773
 30
0.0000
  0
SEQEND
  8
0
  0
POLYLINE
  8
20
 66
1
 10
0.0000
 20
0.0000
 30
0.0000
 40
0.0100
 41
0.0100
 70
0
  0
VERTEX
  8
20
 10
52.5000
 20
23.0937
 30
0.0000
 42
1.0000
  0
VERTEX
  8
20
 10
52.5000
 20
35.0937
 30
0.0000
 42
1.0000
  0
VERTEX
  8
20
 10
52.5000
 20
23.0937
 30
0.0000
  0
SEQEND
  8
0
  0
POLYLINE
  8
20
 66
1
 10
0.0000
 20
0.0000
 30
0.0000
 40
0.0100
 41
0.0100
 70
0
  0
VERTEX
  8
20
 10
47.0833
 20
9.3117
 30
0.0000
 42
1.0000
  0
VERTEX
  8
20
 10
47.0833
 20
21.3117
 30
0.0000
 42
1.0000
  0
VERTEX
  8
20
 10
47.0833
 20
9.3117
 30
0.0000
  0
SEQEND
  8
0
  0
POLYLINE
  8
20
 66
1
 10
0.0000
 20
0.0000
 30
0.0000
 40
0.0100
 41
0.0100
 70
0
  0
VERTEX
  8
20
 10
20.5000
 20
23.2782
 30
0.0000
 42
1.0000
  0
VERTEX
  8
20
 10
20.5000
 20
35.2782
 30
0.0000
 42
1.0000
  0
VERTEX
  8
20
 10
20.5000
 20
23.2782
 30
0.0000
  0
SEQEND
  8
0
  0
POLYLINE
  8
20
 66
1
 10
0.0000
 20
0.0000
 30
0.0000
 40
0.0100
 41
0.0100
 70
0
  0
VERTEX
  8
20
 10
25.9167
 20
9.3117
 30
0.0000
 42
1.0000
  0
VERTEX
  8
20
 10
25.9167
 20
21.3117
 30
0.0000
 42
1.0000
  0
VERTEX
  8
20
 10
25.9167
 20
9.3117
 30
0.0000
  0
SEQEND
  8
0
  0
POLYLINE
  8
20
 66
1
 10
0.0000
 20
0.0000
 30
0.0000
 40
0.0100
 41
0.0100
 70
0
  0
VERTEX
  8
20
 10
135.5000
 20
23.0937
 30
0.0000
 42
1.0000
  0
VERTEX
  8
20
 10
135.5000
 20
35.0937
 30
0.0000
 42
1.0000
  0
VERTEX
  8
20
 10
135.5000
 20
23.0937
 30
0.0000
  0
SEQEND
  8
0
  0
POLYLINE
  8
20
 66
1
 10
0.0000
 20
0.0000
 30
0.0000
 40
0.0100
 41
0.0100
 70
0
  0
VERTEX
  8
20
 10
130.0833
 20
9.3117
 30
0.0000
 42
1.0000
  0
VERTEX
  8
20
 10
130.0833
 20
21.3117
 30
0.0000
 42
1.0000
  0
VERTEX
  8
20
 10
130.0833
 20
9.3117
 30
0.0000
  0
SEQEND
  8
0
  0
POLYLINE
  8
20
 66
1
 10
0.0000
 20
0.0000
 30
0.0000
 40
0.0100
 41
0.0100
 70
0
  0
VERTEX
  8
20
 10
103.5000
 20
23.2782
 30
0.0000
 42
1.0000
  0
VERTEX
  8
20
 10
103.5000
 20
35.2782
 30
0.0000
 42
1.0000
  0
VERTEX
  8
20
 10
103.5000
 20
23.2782
 30
0.0000
  0
SEQEND
  8
0
  0
POLYLINE
  8
20
 66
1
 10
0.0000
 20
0.0000
 30
0.0000
 40
0.0100
 41
0.0100
 70
0
  0
VERTEX
  8
20
 10
108.9167
 20
9.3117
 30
0.0000
 42
1.0000
  0
VERTEX
  8
20
 10
108.9167
 20
21.3117
 30
0.0000
 42
1.0000
  0
VERTEX
  8
20
 10
108.9167
 20
9.3117
 30
0.0000
  0
SEQEND
  8
0
  0
POLYLINE
  8
20
 66
1
 10
0.0000
 20
0.0000
 30
0.0000
 40
0.0100
 41
0.0100
 70
0
  0
VERTEX
  8
20
 10
7.0000
 20
134.7500
 30
0.0000
 42
1.0000
  0
VERTEX
  8
20
 10
7.0000
 20
137.2500
 30
0.0000
 42
1.0000
  0
VERTEX
  8
20
 10
7.0000
 20
134.7500
 30
0.0000
  0
SEQEND
  8
0
  0
POLYLINE
  8
20
 66
1
 10
0.0000
 20
0.0000
 30
0.0000
 40
0.0100
 41
0.0100
 70
0
  0
VERTEX
  8
20
 10
68.0000
 20
139.7500
 30
0.0000
 42
1.0000
  0
VERTEX
  8
20
 10
68.0000
 20
142.2500
 30
0.0000
 42
1.0000
  0
VERTEX
  8
20
 10
68.0000
 20
139.7500
 30
0.0000
  0
SEQEND
  8
0
  0
POLYLINE
  8
20
 66
1
 10
0.0000
 20
0.0000
 30
0.0000
 40
0.0100
 41
0.0100
 70
0
  0
VERTEX
  8
20
 10
5.0000
 20
109.7500
 30
0.0000
 42
1.0000
  0
VERTEX
  8
20
 10
5.0000
 20
112.2500
 30
0.0000
 42
1.0000
  0
VERTEX
  8
20
 10
5.0000
 20
109.7500
 30
0.0000
  0
SEQEND
  8
0
  0
POLYLINE
  8
20
 66
1
 10
0.0000
 20
0.0000
 30
0.0000
 40
0.0100
 41
0.0100
 70
0
  0
VERTEX
  8
20
 10
90.0000
 20
134.7500
 30
0.0000
 42
1.0000
  0
VERTEX
  8
20
 10
90.0000
 20
137.2500
 30
0.0000
 42
1.0000
  0
VERTEX
  8
20
 10
90.0000
 20
134.7500
 30
0.0000
  0
SEQEND
  8
0
  0
POLYLINE
  8
20
 66
1
 10
0.0000
 20
0.0000
 30
0.0000
 40
0.0100
 41
0.0100
 70
0
  0
VERTEX
  8
20
 10
151.0000
 20
139.7500
 30
0.0000
 42
1.0000
  0
VERTEX
  8
20
 10
151.0000
 20
142.2500
 30
0.0000
 42
1.0000
  0
VERTEX
  8
20
 10
151.0000
 20
139.7500
 30
0.0000
  0
SEQEND
  8
0
  0
POLYLINE
  8
20
 66
1
 10
0.0000
 20
0.0000
 30
0.0000
 40
0.0100
 41
0.0100
 70
0
  0
VERTEX
  8
20
 10
88.0000
 20
109.7500
 30
0.0000
 42
1.0000
  0
VERTEX
  8
20
 10
88.0000
 20
112.2500
 30
0.0000
 42
1.0000
  0
VERTEX
  8
20
 10
88.0000
 20
109.7500
 30
0.0000
  0
SEQEND
  8
0
  0
POLYLINE
  8
20
 66
1
 10
0.0000
 20
0.0000
 30
0.0000
 40
0.0100
 41
0.0100
 70
0
  0
VERTEX
  8
20
 10
7.0000
 20
28.7500
 30
0.0000
 42
1.0000
  0
VERTEX
  8
20
 10
7.0000
 20
31.2500
 30
0.0000
 42
1.0000
  0
VERTEX
  8
20
 10
7.0000
 20
28.7500
 30
0.0000
  0
SEQEND
  8
0
  0
POLYLINE
  8
20
 66
1
 10
0.0000
 20
0.0000
 30
0.0000
 40
0.0100
 41
0.0100
 70
0
  0
VERTEX
  8
20
 10
68.0000
 20
33.7500
 30
0.0000
 42
1.0000
  0
VERTEX
  8
20
 10
68.0000
 20
36.2500
 30
0.0000
 42
1.0000
  0
VERTEX
  8
20
 10
68.0000
 20
33.7500
 30
0.0000
  0
SEQEND
  8
0
  0
POLYLINE
  8
20
 66
1
 10
0.0000
 20
0.0000
 30
0.0000
 40
0.0100
 41
0.0100
 70
0
  0
VERTEX
  8
20
 10
5.0000
 20
3.7500
 30
0.0000
 42
1.0000
  0
VERTEX
  8
20
 10
5.0000
 20
6.2500
 30
0.0000
 42
1.0000
  0
VERTEX
  8
20
 10
5.0000
 20
3.7500
 30
0.0000
  0
SEQEND
  8
0
  0
POLYLINE
  8
20
 66
1
 10
0.0000
 20
0.0000
 30
0.0000
 40
0.0100
 41
0.0100
 70
0
  0
VERTEX
  8
20
 10
90.0000
 20
28.7500
 30
0.0000
 42
1.0000
  0
VERTEX
  8
20
 10
90.0000
 20
31.2500
 30
0.0000
 42
1.0000
  0
VERTEX
  8
20
 10
90.0000
 20
28.7500
 30
0.0000
  0
SEQEND
  8
0
  0
POLYLINE
  8
20
 66
1
 10
0.0000
 20
0.0000
 30
0.0000
 40
0.0100
 41
0.0100
 70
0
  0
VERTEX
  8
20
 10
151.0000
 20
33.7500
 30
0.0000
 42
1.0000
  0
VERTEX
  8
20
 10
151.0000
 20
36.2500
 30
0.0000
 42
1.0000
  0
VERTEX
  8
20
 10
151.0000
 20
33.7500
 30
0.0000
  0
SEQEND
  8
0
  0
POLYLINE
  8
20
 66
1
 10
0.0000
 20
0.0000
 30
0.0000
 40
0.0100
 41
0.0100
 70
0
  0
VERTEX
  8
20
 10
88.0000
 20
3.7500
 30
0.0000
 42
1.0000
  0
VERTEX
  8
20
 10
88.0000
 20
6.2500
 30
0.0000
 42
1.0000
  0
VERTEX
  8
20
 10
88.0000
 20
3.7500
 30
0.0000
  0
SEQEND
  8
0
  0
POLYLINE
  8
20
 66
1
 10
0.0000
 20
0.0000
 30
0.0000
 40
0.0100
 41
0.0100
 70
0
  0
VERTEX
  8
20
 10
234.0000
 20
33.7500
 30
0.0000
 42
1.0000
  0
VERTEX
  8
20
 10
234.0000
 20
36.2500
 30
0.0000
 42
1.0000
  0
VERTEX
  8
20
 10
234.0000
 20
33.7500
 30
0.0000
  0
SEQEND
  8
0
  0
POLYLINE
  8
20
 66
1
 10
0.0000
 20
0.0000
 30
0.0000
 40
0.0100
 41
0.0100
 70
0
  0
VERTEX
  8
20
 10
68.0000
 20
109.7500
 30
0.0000
 42
1.0000
  0
VERTEX
  8
20
 10
68.0000
 20
112.2500
 30
0.0000
 42
1.0000
  0
VERTEX
  8
20
 10
68.0000
 20
109.7500
 30
0.0000
  0
SEQEND
  8
0
  0
POLYLINE
  8
20
 66
1
 10
0.0000
 20
0.0000
 30
0.0000
 40
0.0100
 41
0.0100
 70
0
  0
VERTEX
  8
20
 10
68.0000
 20
196.7500
 30
0.0000
 42
1.0000
  0
VERTEX
  8
20
 10
68.0000
 20
199.2500
 30
0.0000
 42
1.0000
  0
VERTEX
  8
20
 10
68.0000
 20
196.7500
 30
0.0000
  0
SEQEND
  8
0
  0
POLYLINE
  8
20
 66
1
 10
0.0000
 20
0.0000
 30
0.0000
 40
0.0100
 41
0.0100
 70
0
  0
VERTEX
  8
20
 10
5.0000
 20
196.7500
 30
0.0000
 42
1.0000
  0
VERTEX
  8
20
 10
5.0000
 20
199.2500
 30
0.0000
 42
1.0000
  0
VERTEX
  8
20
 10
5.0000
 20
196.7500
 30
0.0000
  0
SEQEND
  8
0
  0
POLYLINE
  8
20
 66
1
 10
0.0000
 20
0.0000
 30
0.0000
 40
0.0100
 41
0.0100
 70
0
  0
VERTEX
  8
20
 10
151.0000
 20
109.7500
 30
0.0000
 42
1.0000
  0
VERTEX
  8
20
 10
151.0000
 20
112.2500
 30
0.0000
 42
1.0000
  0
VERTEX
  8
20
 10
151.0000
 20
109.7500
 30
0.0000
  0
SEQEND
  8
0
  0
POLYLINE
  8
20
 66
1
 10
0.0000
 20
0.0000
 30
0.0000
 40
0.0100
 41
0.0100
 70
0
  0
VERTEX
  8
20
 10
151.0000
 20
196.7500
 30
0.0000
 42
1.0000
  0
VERTEX
  8
20
 10
151.0000
 20
199.2500
 30
0.0000
 42
1.0000
  0
VERTEX
  8
20
 10
151.0000
 20
196.7500
 30
0.0000
  0
SEQEND
  8
0
  0
POLYLINE
  8
20
 66
1
 10
0.0000
 20
0.0000
 30
0.0000
 40
0.0100
 41
0.0100
 70
0
  0
VERTEX
  8
20
 10
88.0000
 20
196.7500
 30
0.0000
 42
1.0000
  0
VERTEX
  8
20
 10
88.0000
 20
199.2500
 30
0.0000
 42
1.0000
  0
VERTEX
  8
20
 10
88.0000
 20
196.7500
 30
0.0000
  0
SEQEND
  8
0
  0
POLYLINE
  8
20
 66
1
 10
0.0000
 20
0.0000
 30
0.0000
 40
0.0100
 41
0.0100
 70
0
  0
VERTEX
  8
20
 10
68.0000
 20
3.7500
 30
0.0000
 42
1.0000
  0
VERTEX
  8
20
 10
68.0000
 20
6.2500
 30
0.0000
 42
1.0000
  0
VERTEX
  8
20
 10
68.0000
 20
3.7500
 30
0.0000
  0
SEQEND
  8
0
  0
POLYLINE
  8
20
 66
1
 10
0.0000
 20
0.0000
 30
0.0000
 40
0.0100
 41
0.0100
 70
0
  0
VERTEX
  8
20
 10
234.0000
 20
90.7500
 30
0.0000
 42
1.0000
  0
VERTEX
  8
20
 10
234.0000
 20
93.2500
 30
0.0000
 42
1.0000
  0
VERTEX
  8
20
 10
234.0000
 20
90.7500
 30
0.0000
  0
SEQEND
  8
0
  0
POLYLINE
  8
20
 66
1
 10
0.0000
 20
0.0000
 30
0.0000
 40
0.0100
 41
0.0100
 70
0
  0
VERTEX
  8
20
 10
171.0000
 20
90.7500
 30
0.0000
 42
1.0000
  0
VERTEX
  8
20
 10
171.0000
 20
93.2500
 30
0.0000
 42
1.0000
  0
VERTEX
  8
20
 10
171.0000
 20
90.7500
 30
0.0000
  0
SEQEND
  8
0
  0
POLYLINE
  8
20
 66
1
 10
0.0000
 20
0.0000
 30
0.0000
 40
0.0100
 41
0.0100
 70
0
  0
VERTEX
  8
20
 10
90.0000
 20
28.7500
 30
0.0000
 42
1.0000
  0
VERTEX
  8
20
 10
90.0000
 20
31.2500
 30
0.0000
 42
1.0000
  0
VERTEX
  8
20
 10
90.0000
 20
28.7500
 30
0.0000
  0
SEQEND
  8
0
  0
POLYLINE
  8
20
 66
1
 10
0.0000
 20
0.0000
 30
0.0000
 40
0.0100
 41
0.0100
 70
0
  0
VERTEX
  8
20
 10
151.0000
 20
33.7500
 30
0.0000
 42
1.0000
  0
VERTEX
  8
20
 10
151.0000
 20
36.2500
 30
0.0000
 42
1.0000
  0
VERTEX
  8
20
 10
151.0000
 20
33.7500
 30
0.0000
  0
SEQEND
  8
0
  0
POLYLINE
  8
20
 66
1
 10
0.0000
 20
0.0000
 30
0.0000
 40
0.0100
 41
0.0100
 70
0
  0
VERTEX
  8
20
 10
88.0000
 20
3.7500
 30
0.0000
 42
1.0000
  0
VERTEX
  8
20
 10
88.0000
 20
6.2500
 30
0.0000
 42
1.0000
  0
VERTEX
  8
20
 10
88.0000
 20
3.7500
 30
0.0000
  0
SEQEND
  8
0
  0
POLYLINE
  8
20
 66
1
 10
0.0000
 20
0.0000
 30
0.0000
 40
0.0100
 41
0.0100
 70
0
  0
VERTEX
  8
20
 10
151.0000
 20
3.7500
 30
0.0000
 42
1.0000
  0
VERTEX
  8
20
 10
151.0000
 20
6.2500
 30
0.0000
 42
1.0000
  0
VERTEX
  8
20
 10
151.0000
 20
3.7500
 30
0.0000
  0
SEQEND
  8
0
  0
POLYLINE
  8
20
 66
1
 10
0.0000
 20
0.0000
 30
0.0000
 40
0.0100
 41
0.0100
 70
0
  0
VERTEX
  8
20
 10
151.0000
 20
90.7500
 30
0.0000
 42
1.0000
  0
VERTEX
  8
20
 10
151.0000
 20
93.2500
 30
0.0000
 42
1.0000
  0
VERTEX
  8
20
 10
151.0000
 20
90.7500
 30
0.0000
  0
SEQEND
  8
0
  0
POLYLINE
  8
20
 66
1
 10
0.0000
 20
0.0000
 30
0.0000
 40
0.0100
 41
0.0100
 70
0
  0
VERTEX
  8
20
 10
88.0000
 20
90.7500
 30
0.0000
 42
1.0000
  0
VERTEX
  8
20
 10
88.0000
 20
93.2500
 30
0.0000
 42
1.0000
  0
VERTEX
  8
20
 10
88.0000
 20
90.7500
 30
0.0000
  0
SEQEND
  8
0
  0
ENDSEC
  0
EOF
