  0
SECTION
  2
HEADER
  9
$ACADVER
  1
AC1009
  9
$FILLMODE
 70
1
  9
$EXTMIN
 10
-0.0050
 20
0.0000
 30
0.0000
  9
$EXTMAX
 10
237.0050
 20
216.5560
 30
0.0000
  0
ENDSEC
  0
SECTION
  2
TABLES
  0
TABLE
  2
LTYPE
 70
1
  0
LTYPE
  2
CONTINUOUS
 70
64
  3
Solid line
 72
65
 73
0
 40
0
  0
ENDTAB
  0
TABLE
  2
LAYER
 70
255
  0
LAYER
  2
1
 70
64
 62
14
  6
CONTINUOUS
  0
LAYER
  2
20
 70
64
 62
178
  6
CONTINUOUS
  0
LAYER
  2
23
 70
64
 62
178
  6
CONTINUOUS
  0
ENDTAB
  0
ENDSEC
  0
SECTION
  2
BLOCKS
  0
BLOCK
  8
0
  2
RECT
 70
64
 10
0.0000
 20
0.0000
 30
0.0000
  3
RECT
  0
SOLID
  8
0
 10
-0.5000
 20
-0.5000
 30
0.0000
 11
0.5000
 21
-0.5000
 31
0.0000
 12
-0.5000
 22
0.5000
 32
0.0000
 13
0.5000
 23
0.5000
 33
0.0000
  0
ENDBLK
  8
0
  0
BLOCK
  8
0
  2
PIE
 70
64
 10
0.0000
 20
0.0000
 30
0.0000
  3
PIE
  0
POLYLINE
  8
0
 66
1
 10
0.0000
 20
0.0000
 30
0.0000
 40
0.5000
 41
0.5000
 70
0
  0
VERTEX
  8
0
 10
0.0000
 20
-0.2500
 30
0.0000
 42
1.0000
  0
VERTEX
  8
0
 10
0.0000
 20
0.2500
 30
0.0000
 42
1.0000
  0
VERTEX
  8
0
 10
0.0000
 20
-0.2500
 30
0.0000
  0
SEQEND
  8
0
  0
ENDBLK
  8
0
  0
BLOCK
  8
0
  2
OCTAGONP
 70
64
 10
0.0000
 20
0.0000
 30
0.0000
  3
OCTAGONP
  0
POLYLINE
  8
0
 66
1
 10
0.0000
 20
0.0000
 30
0.0000
 40
0.5000
 41
0.5000
 70
0
  0
VERTEX
  8
0
 10
-0.2500
 20
-0.1036
 30
0.0000
  0
VERTEX
  8
0
 10
-0.2500
 20
0.1036
 30
0.0000
  0
VERTEX
  8
0
 10
-0.1036
 20
0.2500
 30
0.0000
  0
VERTEX
  8
0
 10
0.1036
 20
0.2500
 30
0.0000
  0
VERTEX
  8
0
 10
0.2500
 20
0.1036
 30
0.0000
  0
VERTEX
  8
0
 10
0.2500
 20
-0.1036
 30
0.0000
  0
VERTEX
  8
0
 10
0.1036
 20
-0.2500
 30
0.0000
  0
VERTEX
  8
0
 10
-0.1036
 20
-0.2500
 30
0.0000
  0
VERTEX
  8
0
 10
-0.2500
 20
-0.1036
 30
0.0000
  0
VERTEX
  8
0
 10
-0.2500
 20
0.1036
 30
0.0000
  0
SEQEND
  8
0
  0
ENDBLK
  8
0
  0
BLOCK
  8
0
  2
SQUAREP
 70
64
 10
0.0000
 20
0.0000
 30
0.0000
  3
SQUAREP
  0
SOLID
  8
0
 10
-0.5000
 20
-0.5000
 30
0.0000
 11
0.5000
 21
-0.5000
 31
0.0000
 12
-0.5000
 22
0.5000
 32
0.0000
 13
0.5000
 23
0.5000
 33
0.0000
  0
ENDBLK
  8
0
  0
BLOCK
  8
0
  2
ROUNDP
 70
64
 10
0.0000
 20
0.0000
 30
0.0000
  3
ROUNDP
  0
POLYLINE
  8
0
 66
1
 10
0.0000
 20
0.0000
 30
0.0000
 40
0.5000
 41
0.5000
 70
0
  0
VERTEX
  8
0
 10
0.0000
 20
-0.2500
 30
0.0000
 42
1.0000
  0
VERTEX
  8
0
 10
0.0000
 20
0.2500
 30
0.0000
 42
1.0000
  0
VERTEX
  8
0
 10
0.0000
 20
-0.2500
 30
0.0000
  0
SEQEND
  8
0
  0
ENDBLK
  8
0
  0
BLOCK
  8
0
  2
ANNULUSP
 70
64
 10
0.0000
 20
0.0000
 30
0.0000
  3
ANNULUSP
  0
POLYLINE
  8
0
 66
1
 10
0.0000
 20
0.0000
 30
0.0000
 40
0.5000
 41
0.5000
 70
0
  0
VERTEX
  8
0
 10
0.0000
 20
-0.2500
 30
0.0000
 42
1.0000
  0
VERTEX
  8
0
 10
0.0000
 20
0.2500
 30
0.0000
 42
1.0000
  0
VERTEX
  8
0
 10
0.0000
 20
-0.2500
 30
0.0000
  0
SEQEND
  8
0
  0
ENDBLK
  8
0
  0
BLOCK
  8
0
  2
THERMALP
 70
64
 10
0.0000
 20
0.0000
 30
0.0000
  3
THERMALP
  0
POLYLINE
  8
0
 66
1
 10
0.0000
 20
0.0000
 30
0.0000
 40
0.1000
 41
0.1000
 70
0
  0
VERTEX
  8
0
 10
-0.2379
 20
0.4500
 30
0.0000
  0
VERTEX
  8
0
 10
0.2379
 20
0.4500
 30
0.0000
  0
SEQEND
  8
0
  0
POLYLINE
  8
0
 66
1
 10
0.0000
 20
0.0000
 30
0.0000
 40
0.0500
 41
0.0500
 70
0
  0
VERTEX
  8
0
 10
0.2379
 20
0.4250
 30
0.0000
 42
1.0000
  0
VERTEX
  8
0
 10
0.2379
 20
0.4750
 30
0.0000
  0
SEQEND
  8
0
  0
POLYLINE
  8
0
 66
1
 10
0.0000
 20
0.0000
 30
0.0000
 40
0.0500
 41
0.0500
 70
0
  0
VERTEX
  8
0
 10
-0.2379
 20
0.4750
 30
0.0000
 42
1.0000
  0
VERTEX
  8
0
 10
-0.2379
 20
0.4250
 30
0.0000
  0
SEQEND
  8
0
  0
POLYLINE
  8
0
 66
1
 10
0.0000
 20
0.0000
 30
0.0000
 40
0.1000
 41
0.1000
 70
0
  0
VERTEX
  8
0
 10
0.4500
 20
0.2379
 30
0.0000
  0
VERTEX
  8
0
 10
0.4500
 20
-0.2379
 30
0.0000
  0
SEQEND
  8
0
  0
POLYLINE
  8
0
 66
1
 10
0.0000
 20
0.0000
 30
0.0000
 40
0.0500
 41
0.0500
 70
0
  0
VERTEX
  8
0
 10
0.4250
 20
-0.2379
 30
0.0000
 42
1.0000
  0
VERTEX
  8
0
 10
0.4750
 20
-0.2379
 30
0.0000
  0
SEQEND
  8
0
  0
POLYLINE
  8
0
 66
1
 10
0.0000
 20
0.0000
 30
0.0000
 40
0.0500
 41
0.0500
 70
0
  0
VERTEX
  8
0
 10
0.4750
 20
0.2379
 30
0.0000
 42
1.0000
  0
VERTEX
  8
0
 10
0.4250
 20
0.2379
 30
0.0000
  0
SEQEND
  8
0
  0
POLYLINE
  8
0
 66
1
 10
0.0000
 20
0.0000
 30
0.0000
 40
0.1000
 41
0.1000
 70
0
  0
VERTEX
  8
0
 10
0.2379
 20
-0.4500
 30
0.0000
  0
VERTEX
  8
0
 10
-0.2379
 20
-0.4500
 30
0.0000
  0
SEQEND
  8
0
  0
POLYLINE
  8
0
 66
1
 10
0.0000
 20
0.0000
 30
0.0000
 40
0.0500
 41
0.0500
 70
0
  0
VERTEX
  8
0
 10
-0.2379
 20
-0.4250
 30
0.0000
 42
1.0000
  0
VERTEX
  8
0
 10
-0.2379
 20
-0.4750
 30
0.0000
  0
SEQEND
  8
0
  0
POLYLINE
  8
0
 66
1
 10
0.0000
 20
0.0000
 30
0.0000
 40
0.0500
 41
0.0500
 70
0
  0
VERTEX
  8
0
 10
0.2379
 20
-0.4750
 30
0.0000
 42
1.0000
  0
VERTEX
  8
0
 10
0.2379
 20
-0.4250
 30
0.0000
  0
SEQEND
  8
0
  0
POLYLINE
  8
0
 66
1
 10
0.0000
 20
0.0000
 30
0.0000
 40
0.1000
 41
0.1000
 70
0
  0
VERTEX
  8
0
 10
-0.4500
 20
-0.2379
 30
0.0000
  0
VERTEX
  8
0
 10
-0.4500
 20
0.2379
 30
0.0000
  0
SEQEND
  8
0
  0
POLYLINE
  8
0
 66
1
 10
0.0000
 20
0.0000
 30
0.0000
 40
0.0500
 41
0.0500
 70
0
  0
VERTEX
  8
0
 10
-0.4250
 20
0.2379
 30
0.0000
 42
1.0000
  0
VERTEX
  8
0
 10
-0.4750
 20
0.2379
 30
0.0000
  0
SEQEND
  8
0
  0
POLYLINE
  8
0
 66
1
 10
0.0000
 20
0.0000
 30
0.0000
 40
0.0500
 41
0.0500
 70
0
  0
VERTEX
  8
0
 10
-0.4750
 20
-0.2379
 30
0.0000
 42
1.0000
  0
VERTEX
  8
0
 10
-0.4250
 20
-0.2379
 30
0.0000
  0
SEQEND
  8
0
  0
ENDBLK
  8
0
  0
BLOCK
  8
0
  2
OCTAGONV
 70
64
 10
0.0000
 20
0.0000
 30
0.0000
  3
OCTAGONV
  0
POLYLINE
  8
0
 66
1
 10
0.0000
 20
0.0000
 30
0.0000
 40
0.5000
 41
0.5000
 70
0
  0
VERTEX
  8
0
 10
-0.2500
 20
-0.1036
 30
0.0000
  0
VERTEX
  8
0
 10
-0.2500
 20
0.1036
 30
0.0000
  0
VERTEX
  8
0
 10
-0.1036
 20
0.2500
 30
0.0000
  0
VERTEX
  8
0
 10
0.1036
 20
0.2500
 30
0.0000
  0
VERTEX
  8
0
 10
0.2500
 20
0.1036
 30
0.0000
  0
VERTEX
  8
0
 10
0.2500
 20
-0.1036
 30
0.0000
  0
VERTEX
  8
0
 10
0.1036
 20
-0.2500
 30
0.0000
  0
VERTEX
  8
0
 10
-0.1036
 20
-0.2500
 30
0.0000
  0
VERTEX
  8
0
 10
-0.2500
 20
-0.1036
 30
0.0000
  0
VERTEX
  8
0
 10
-0.2500
 20
0.1036
 30
0.0000
  0
SEQEND
  8
0
  0
ENDBLK
  8
0
  0
BLOCK
  8
0
  2
SQUAREV
 70
64
 10
0.0000
 20
0.0000
 30
0.0000
  3
SQUAREV
  0
SOLID
  8
0
 10
-0.5000
 20
-0.5000
 30
0.0000
 11
0.5000
 21
-0.5000
 31
0.0000
 12
-0.5000
 22
0.5000
 32
0.0000
 13
0.5000
 23
0.5000
 33
0.0000
  0
ENDBLK
  8
0
  0
BLOCK
  8
0
  2
ROUNDV
 70
64
 10
0.0000
 20
0.0000
 30
0.0000
  3
ROUNDV
  0
POLYLINE
  8
0
 66
1
 10
0.0000
 20
0.0000
 30
0.0000
 40
0.5000
 41
0.5000
 70
0
  0
VERTEX
  8
0
 10
0.0000
 20
-0.2500
 30
0.0000
 42
1.0000
  0
VERTEX
  8
0
 10
0.0000
 20
0.2500
 30
0.0000
 42
1.0000
  0
VERTEX
  8
0
 10
0.0000
 20
-0.2500
 30
0.0000
  0
SEQEND
  8
0
  0
ENDBLK
  8
0
  0
BLOCK
  8
0
  2
ANNULUSV
 70
64
 10
0.0000
 20
0.0000
 30
0.0000
  3
ANNULUSV
  0
POLYLINE
  8
0
 66
1
 10
0.0000
 20
0.0000
 30
0.0000
 40
0.5000
 41
0.5000
 70
0
  0
VERTEX
  8
0
 10
0.0000
 20
-0.2500
 30
0.0000
 42
1.0000
  0
VERTEX
  8
0
 10
0.0000
 20
0.2500
 30
0.0000
 42
1.0000
  0
VERTEX
  8
0
 10
0.0000
 20
-0.2500
 30
0.0000
  0
SEQEND
  8
0
  0
ENDBLK
  8
0
  0
BLOCK
  8
0
  2
THERMALV
 70
64
 10
0.0000
 20
0.0000
 30
0.0000
  3
THERMALV
  0
POLYLINE
  8
0
 66
1
 10
0.0000
 20
0.0000
 30
0.0000
 40
0.1000
 41
0.1000
 70
0
  0
VERTEX
  8
0
 10
-0.2379
 20
0.4500
 30
0.0000
  0
VERTEX
  8
0
 10
0.2379
 20
0.4500
 30
0.0000
  0
SEQEND
  8
0
  0
POLYLINE
  8
0
 66
1
 10
0.0000
 20
0.0000
 30
0.0000
 40
0.0500
 41
0.0500
 70
0
  0
VERTEX
  8
0
 10
0.2379
 20
0.4250
 30
0.0000
 42
1.0000
  0
VERTEX
  8
0
 10
0.2379
 20
0.4750
 30
0.0000
  0
SEQEND
  8
0
  0
POLYLINE
  8
0
 66
1
 10
0.0000
 20
0.0000
 30
0.0000
 40
0.0500
 41
0.0500
 70
0
  0
VERTEX
  8
0
 10
-0.2379
 20
0.4750
 30
0.0000
 42
1.0000
  0
VERTEX
  8
0
 10
-0.2379
 20
0.4250
 30
0.0000
  0
SEQEND
  8
0
  0
POLYLINE
  8
0
 66
1
 10
0.0000
 20
0.0000
 30
0.0000
 40
0.1000
 41
0.1000
 70
0
  0
VERTEX
  8
0
 10
0.4500
 20
0.2379
 30
0.0000
  0
VERTEX
  8
0
 10
0.4500
 20
-0.2379
 30
0.0000
  0
SEQEND
  8
0
  0
POLYLINE
  8
0
 66
1
 10
0.0000
 20
0.0000
 30
0.0000
 40
0.0500
 41
0.0500
 70
0
  0
VERTEX
  8
0
 10
0.4250
 20
-0.2379
 30
0.0000
 42
1.0000
  0
VERTEX
  8
0
 10
0.4750
 20
-0.2379
 30
0.0000
  0
SEQEND
  8
0
  0
POLYLINE
  8
0
 66
1
 10
0.0000
 20
0.0000
 30
0.0000
 40
0.0500
 41
0.0500
 70
0
  0
VERTEX
  8
0
 10
0.4750
 20
0.2379
 30
0.0000
 42
1.0000
  0
VERTEX
  8
0
 10
0.4250
 20
0.2379
 30
0.0000
  0
SEQEND
  8
0
  0
POLYLINE
  8
0
 66
1
 10
0.0000
 20
0.0000
 30
0.0000
 40
0.1000
 41
0.1000
 70
0
  0
VERTEX
  8
0
 10
0.2379
 20
-0.4500
 30
0.0000
  0
VERTEX
  8
0
 10
-0.2379
 20
-0.4500
 30
0.0000
  0
SEQEND
  8
0
  0
POLYLINE
  8
0
 66
1
 10
0.0000
 20
0.0000
 30
0.0000
 40
0.0500
 41
0.0500
 70
0
  0
VERTEX
  8
0
 10
-0.2379
 20
-0.4250
 30
0.0000
 42
1.0000
  0
VERTEX
  8
0
 10
-0.2379
 20
-0.4750
 30
0.0000
  0
SEQEND
  8
0
  0
POLYLINE
  8
0
 66
1
 10
0.0000
 20
0.0000
 30
0.0000
 40
0.0500
 41
0.0500
 70
0
  0
VERTEX
  8
0
 10
0.2379
 20
-0.4750
 30
0.0000
 42
1.0000
  0
VERTEX
  8
0
 10
0.2379
 20
-0.4250
 30
0.0000
  0
SEQEND
  8
0
  0
POLYLINE
  8
0
 66
1
 10
0.0000
 20
0.0000
 30
0.0000
 40
0.1000
 41
0.1000
 70
0
  0
VERTEX
  8
0
 10
-0.4500
 20
-0.2379
 30
0.0000
  0
VERTEX
  8
0
 10
-0.4500
 20
0.2379
 30
0.0000
  0
SEQEND
  8
0
  0
POLYLINE
  8
0
 66
1
 10
0.0000
 20
0.0000
 30
0.0000
 40
0.0500
 41
0.0500
 70
0
  0
VERTEX
  8
0
 10
-0.4250
 20
0.2379
 30
0.0000
 42
1.0000
  0
VERTEX
  8
0
 10
-0.4750
 20
0.2379
 30
0.0000
  0
SEQEND
  8
0
  0
POLYLINE
  8
0
 66
1
 10
0.0000
 20
0.0000
 30
0.0000
 40
0.0500
 41
0.0500
 70
0
  0
VERTEX
  8
0
 10
-0.4750
 20
-0.2379
 30
0.0000
 42
1.0000
  0
VERTEX
  8
0
 10
-0.4250
 20
-0.2379
 30
0.0000
  0
SEQEND
  8
0
  0
ENDBLK
  8
0
  0
ENDSEC
  0
SECTION
  2
ENTITIES
  0
LINE
  8
20
 10
0.0000
 20
93.0000
 30
0.0000
 11
0.0000
 21
88.5000
 31
0.0000
  0
LINE
  8
20
 10
0.0000
 20
39.0000
 30
0.0000
 11
0.0000
 21
1.0000
 31
0.0000
  0
ARC
  8
20
 10
1.0000
 20
1.0000
 30
0.0000
 40
1.0000
 50
180.0000
 51
270.0000
  0
LINE
  8
20
 10
1.0000
 20
0.0000
 30
0.0000
 11
70.0000
 21
0.0000
 31
0.0000
  0
ARC
  8
20
 10
70.0000
 20
1.0000
 30
0.0000
 40
1.0000
 50
270.0000
 51
0.0000
  0
LINE
  8
20
 10
71.0000
 20
1.0000
 30
0.0000
 11
71.0000
 21
67.0000
 31
0.0000
  0
LINE
  8
20
 10
71.0000
 20
86.0000
 30
0.0000
 11
71.0000
 21
93.0000
 31
0.0000
  0
ARC
  8
20
 10
70.0000
 20
93.0000
 30
0.0000
 40
1.0000
 50
0.0000
 51
90.0000
  0
LINE
  8
20
 10
70.0000
 20
94.0000
 30
0.0000
 11
1.0000
 21
94.0000
 31
0.0000
  0
ARC
  8
20
 10
1.0000
 20
93.0000
 30
0.0000
 40
1.0000
 50
90.0000
 51
180.0000
  0
LINE
  8
20
 10
0.0000
 20
215.0000
 30
0.0000
 11
0.0000
 21
123.0000
 31
0.0000
  0
ARC
  8
20
 10
1.0000
 20
123.0000
 30
0.0000
 40
1.0000
 50
180.0000
 51
270.0000
  0
LINE
  8
20
 10
1.0000
 20
122.0000
 30
0.0000
 11
70.0000
 21
122.0000
 31
0.0000
  0
ARC
  8
20
 10
70.0000
 20
123.0000
 30
0.0000
 40
1.0000
 50
270.0000
 51
0.0000
  0
LINE
  8
20
 10
71.0000
 20
123.0000
 30
0.0000
 11
71.0000
 21
215.0000
 31
0.0000
  0
ARC
  8
20
 10
70.0000
 20
215.0000
 30
0.0000
 40
1.0000
 50
0.0000
 51
90.0000
  0
LINE
  8
20
 10
70.0000
 20
216.0000
 30
0.0000
 11
1.0000
 21
216.0000
 31
0.0000
  0
ARC
  8
20
 10
1.0000
 20
215.0000
 30
0.0000
 40
1.0000
 50
90.0000
 51
180.0000
  0
LINE
  8
20
 10
46.6610
 20
151.2025
 30
0.0000
 11
35.4600
 21
155.2793
 31
0.0000
  0
ARC
  8
20
 10
35.2890
 20
154.8094
 30
0.0000
 40
0.5000
 50
69.9998
 51
159.9999
  0
LINE
  8
20
 10
34.8192
 20
154.9804
 30
0.0000
 11
30.3729
 21
142.7644
 31
0.0000
  0
ARC
  8
20
 10
30.8428
 20
142.5934
 30
0.0000
 40
0.5000
 50
160.0003
 51
250.0001
  0
LINE
  8
20
 10
30.6718
 20
142.1236
 30
0.0000
 11
40.8988
 21
138.4012
 31
0.0000
  0
LINE
  8
20
 10
53.0868
 20
130.9541
 30
0.0000
 11
64.2878
 21
126.8773
 31
0.0000
  0
ARC
  8
20
 10
64.4588
 20
127.3472
 30
0.0000
 40
0.5000
 50
249.9998
 51
339.9999
  0
LINE
  8
20
 10
64.9286
 20
127.1762
 30
0.0000
 11
69.3749
 21
139.3922
 31
0.0000
  0
ARC
  8
20
 10
68.9050
 20
139.5632
 30
0.0000
 40
0.5000
 50
340.0003
 51
70.0001
  0
LINE
  8
20
 10
69.0760
 20
140.0330
 30
0.0000
 11
59.3188
 21
143.5844
 31
0.0000
  0
ARC
  8
20
 10
59.4898
 20
144.0542
 30
0.0000
 40
0.5000
 50
160.0003
 51
250.0001
  0
LINE
  8
20
 10
59.0200
 20
144.2252
 30
0.0000
 11
62.5749
 21
153.9922
 31
0.0000
  0
ARC
  8
20
 10
62.1050
 20
154.1632
 30
0.0000
 40
0.5000
 50
340.0003
 51
70.0001
  0
LINE
  8
20
 10
62.2760
 20
154.6330
 30
0.0000
 11
50.0600
 21
159.0793
 31
0.0000
  0
ARC
  8
20
 10
49.8890
 20
158.6094
 30
0.0000
 40
0.5000
 50
69.9998
 51
159.9999
  0
LINE
  8
20
 10
49.4192
 20
158.7804
 30
0.0000
 11
46.6610
 21
151.2025
 31
0.0000
  0
LINE
  8
20
 10
37.0019
 20
127.6946
 30
0.0000
 11
49.6878
 21
123.0773
 31
0.0000
  0
ARC
  8
20
 10
49.8588
 20
123.5472
 30
0.0000
 40
0.5000
 50
249.9998
 51
339.9999
  0
LINE
  8
20
 10
50.3286
 20
123.3762
 30
0.0000
 11
53.0868
 21
130.9541
 31
0.0000
  0
LINE
  8
20
 10
40.8988
 20
138.4012
 30
0.0000
 11
37.0019
 21
127.6946
 31
0.0000
  0
POLYLINE
  8
20
 66
1
 10
0.0000
 20
0.0000
 30
0.0000
 40
0.0100
 41
0.0100
 70
0
  0
VERTEX
  8
20
 10
15.3536
 20
151.1464
 30
0.0000
  0
VERTEX
  8
20
 10
27.1464
 20
139.3536
 30
0.0000
  0
SEQEND
  8
0
  0
POLYLINE
  8
20
 66
1
 10
0.0000
 20
0.0000
 30
0.0000
 40
0.0050
 41
0.0050
 70
0
  0
VERTEX
  8
20
 10
27.1447
 20
139.3518
 30
0.0000
 42
1.0000
  0
VERTEX
  8
20
 10
27.1482
 20
139.3553
 30
0.0000
  0
SEQEND
  8
0
  0
POLYLINE
  8
20
 66
1
 10
0.0000
 20
0.0000
 30
0.0000
 40
0.0050
 41
0.0050
 70
0
  0
VERTEX
  8
20
 10
15.3553
 20
151.1482
 30
0.0000
 42
1.0000
  0
VERTEX
  8
20
 10
15.3518
 20
151.1447
 30
0.0000
  0
SEQEND
  8
0
  0
POLYLINE
  8
20
 66
1
 10
0.0000
 20
0.0000
 30
0.0000
 40
0.0100
 41
0.0100
 70
0
  0
VERTEX
  8
20
 10
27.1464
 20
138.6464
 30
0.0000
 42
0.4142
  0
VERTEX
  8
20
 10
27.1464
 20
139.3536
 30
0.0000
  0
SEQEND
  8
0
  0
POLYLINE
  8
20
 66
1
 10
0.0000
 20
0.0000
 30
0.0000
 40
0.0050
 41
0.0050
 70
0
  0
VERTEX
  8
20
 10
27.1447
 20
138.6482
 30
0.0000
 42
1.0000
  0
VERTEX
  8
20
 10
27.1482
 20
138.6447
 30
0.0000
  0
SEQEND
  8
0
  0
POLYLINE
  8
20
 66
1
 10
0.0000
 20
0.0000
 30
0.0000
 40
0.0050
 41
0.0050
 70
0
  0
VERTEX
  8
20
 10
27.1482
 20
139.3553
 30
0.0000
 42
1.0000
  0
VERTEX
  8
20
 10
27.1447
 20
139.3518
 30
0.0000
  0
SEQEND
  8
0
  0
POLYLINE
  8
20
 66
1
 10
0.0000
 20
0.0000
 30
0.0000
 40
0.0100
 41
0.0100
 70
0
  0
VERTEX
  8
20
 10
27.1464
 20
138.6464
 30
0.0000
  0
VERTEX
  8
20
 10
15.3536
 20
126.8536
 30
0.0000
  0
SEQEND
  8
0
  0
POLYLINE
  8
20
 66
1
 10
0.0000
 20
0.0000
 30
0.0000
 40
0.0050
 41
0.0050
 70
0
  0
VERTEX
  8
20
 10
15.3518
 20
126.8553
 30
0.0000
 42
1.0000
  0
VERTEX
  8
20
 10
15.3553
 20
126.8518
 30
0.0000
  0
SEQEND
  8
0
  0
POLYLINE
  8
20
 66
1
 10
0.0000
 20
0.0000
 30
0.0000
 40
0.0050
 41
0.0050
 70
0
  0
VERTEX
  8
20
 10
27.1482
 20
138.6447
 30
0.0000
 42
1.0000
  0
VERTEX
  8
20
 10
27.1447
 20
138.6482
 30
0.0000
  0
SEQEND
  8
0
  0
POLYLINE
  8
20
 66
1
 10
0.0000
 20
0.0000
 30
0.0000
 40
0.0100
 41
0.0100
 70
0
  0
VERTEX
  8
20
 10
14.6464
 20
126.8536
 30
0.0000
 42
0.4142
  0
VERTEX
  8
20
 10
15.3536
 20
126.8536
 30
0.0000
  0
SEQEND
  8
0
  0
POLYLINE
  8
20
 66
1
 10
0.0000
 20
0.0000
 30
0.0000
 40
0.0050
 41
0.0050
 70
0
  0
VERTEX
  8
20
 10
14.6482
 20
126.8553
 30
0.0000
 42
1.0000
  0
VERTEX
  8
20
 10
14.6447
 20
126.8518
 30
0.0000
  0
SEQEND
  8
0
  0
POLYLINE
  8
20
 66
1
 10
0.0000
 20
0.0000
 30
0.0000
 40
0.0050
 41
0.0050
 70
0
  0
VERTEX
  8
20
 10
15.3553
 20
126.8518
 30
0.0000
 42
1.0000
  0
VERTEX
  8
20
 10
15.3518
 20
126.8553
 30
0.0000
  0
SEQEND
  8
0
  0
POLYLINE
  8
20
 66
1
 10
0.0000
 20
0.0000
 30
0.0000
 40
0.0100
 41
0.0100
 70
0
  0
VERTEX
  8
20
 10
14.6464
 20
126.8536
 30
0.0000
  0
VERTEX
  8
20
 10
2.8536
 20
138.6464
 30
0.0000
  0
SEQEND
  8
0
  0
POLYLINE
  8
20
 66
1
 10
0.0000
 20
0.0000
 30
0.0000
 40
0.0050
 41
0.0050
 70
0
  0
VERTEX
  8
20
 10
2.8553
 20
138.6482
 30
0.0000
 42
1.0000
  0
VERTEX
  8
20
 10
2.8518
 20
138.6447
 30
0.0000
  0
SEQEND
  8
0
  0
POLYLINE
  8
20
 66
1
 10
0.0000
 20
0.0000
 30
0.0000
 40
0.0050
 41
0.0050
 70
0
  0
VERTEX
  8
20
 10
14.6447
 20
126.8518
 30
0.0000
 42
1.0000
  0
VERTEX
  8
20
 10
14.6482
 20
126.8553
 30
0.0000
  0
SEQEND
  8
0
  0
POLYLINE
  8
20
 66
1
 10
0.0000
 20
0.0000
 30
0.0000
 40
0.0100
 41
0.0100
 70
0
  0
VERTEX
  8
20
 10
2.8536
 20
139.3536
 30
0.0000
 42
0.4142
  0
VERTEX
  8
20
 10
2.8536
 20
138.6464
 30
0.0000
  0
SEQEND
  8
0
  0
POLYLINE
  8
20
 66
1
 10
0.0000
 20
0.0000
 30
0.0000
 40
0.0050
 41
0.0050
 70
0
  0
VERTEX
  8
20
 10
2.8553
 20
139.3518
 30
0.0000
 42
1.0000
  0
VERTEX
  8
20
 10
2.8518
 20
139.3553
 30
0.0000
  0
SEQEND
  8
0
  0
POLYLINE
  8
20
 66
1
 10
0.0000
 20
0.0000
 30
0.0000
 40
0.0050
 41
0.0050
 70
0
  0
VERTEX
  8
20
 10
2.8518
 20
138.6447
 30
0.0000
 42
1.0000
  0
VERTEX
  8
20
 10
2.8553
 20
138.6482
 30
0.0000
  0
SEQEND
  8
0
  0
POLYLINE
  8
20
 66
1
 10
0.0000
 20
0.0000
 30
0.0000
 40
0.0100
 41
0.0100
 70
0
  0
VERTEX
  8
20
 10
2.8536
 20
139.3536
 30
0.0000
  0
VERTEX
  8
20
 10
14.6464
 20
151.1464
 30
0.0000
  0
SEQEND
  8
0
  0
POLYLINE
  8
20
 66
1
 10
0.0000
 20
0.0000
 30
0.0000
 40
0.0050
 41
0.0050
 70
0
  0
VERTEX
  8
20
 10
14.6482
 20
151.1447
 30
0.0000
 42
1.0000
  0
VERTEX
  8
20
 10
14.6447
 20
151.1482
 30
0.0000
  0
SEQEND
  8
0
  0
POLYLINE
  8
20
 66
1
 10
0.0000
 20
0.0000
 30
0.0000
 40
0.0050
 41
0.0050
 70
0
  0
VERTEX
  8
20
 10
2.8518
 20
139.3553
 30
0.0000
 42
1.0000
  0
VERTEX
  8
20
 10
2.8553
 20
139.3518
 30
0.0000
  0
SEQEND
  8
0
  0
POLYLINE
  8
20
 66
1
 10
0.0000
 20
0.0000
 30
0.0000
 40
0.0100
 41
0.0100
 70
0
  0
VERTEX
  8
20
 10
15.3536
 20
151.1464
 30
0.0000
 42
0.4142
  0
VERTEX
  8
20
 10
14.6464
 20
151.1464
 30
0.0000
  0
SEQEND
  8
0
  0
POLYLINE
  8
20
 66
1
 10
0.0000
 20
0.0000
 30
0.0000
 40
0.0050
 41
0.0050
 70
0
  0
VERTEX
  8
20
 10
15.3518
 20
151.1447
 30
0.0000
 42
1.0000
  0
VERTEX
  8
20
 10
15.3553
 20
151.1482
 30
0.0000
  0
SEQEND
  8
0
  0
POLYLINE
  8
20
 66
1
 10
0.0000
 20
0.0000
 30
0.0000
 40
0.0050
 41
0.0050
 70
0
  0
VERTEX
  8
20
 10
14.6447
 20
151.1482
 30
0.0000
 42
1.0000
  0
VERTEX
  8
20
 10
14.6482
 20
151.1447
 30
0.0000
  0
SEQEND
  8
0
  0
POLYLINE
  8
20
 66
1
 10
0.0000
 20
0.0000
 30
0.0000
 40
0.0100
 41
0.0100
 70
0
  0
VERTEX
  8
20
 10
6.0000
 20
157.5000
 30
0.0000
  0
VERTEX
  8
20
 10
6.0000
 20
153.5000
 30
0.0000
  0
SEQEND
  8
0
  0
POLYLINE
  8
20
 66
1
 10
0.0000
 20
0.0000
 30
0.0000
 40
0.0050
 41
0.0050
 70
0
  0
VERTEX
  8
20
 10
5.9975
 20
153.5000
 30
0.0000
 42
1.0000
  0
VERTEX
  8
20
 10
6.0025
 20
153.5000
 30
0.0000
  0
SEQEND
  8
0
  0
POLYLINE
  8
20
 66
1
 10
0.0000
 20
0.0000
 30
0.0000
 40
0.0050
 41
0.0050
 70
0
  0
VERTEX
  8
20
 10
6.0025
 20
157.5000
 30
0.0000
 42
1.0000
  0
VERTEX
  8
20
 10
5.9975
 20
157.5000
 30
0.0000
  0
SEQEND
  8
0
  0
POLYLINE
  8
20
 66
1
 10
0.0000
 20
0.0000
 30
0.0000
 40
0.0100
 41
0.0100
 70
0
  0
VERTEX
  8
20
 10
6.0000
 20
153.5000
 30
0.0000
 42
0.4142
  0
VERTEX
  8
20
 10
6.5000
 20
153.0000
 30
0.0000
  0
SEQEND
  8
0
  0
POLYLINE
  8
20
 66
1
 10
0.0000
 20
0.0000
 30
0.0000
 40
0.0050
 41
0.0050
 70
0
  0
VERTEX
  8
20
 10
6.0025
 20
153.5000
 30
0.0000
 42
1.0000
  0
VERTEX
  8
20
 10
5.9975
 20
153.5000
 30
0.0000
  0
SEQEND
  8
0
  0
POLYLINE
  8
20
 66
1
 10
0.0000
 20
0.0000
 30
0.0000
 40
0.0050
 41
0.0050
 70
0
  0
VERTEX
  8
20
 10
6.5000
 20
152.9975
 30
0.0000
 42
1.0000
  0
VERTEX
  8
20
 10
6.5000
 20
153.0025
 30
0.0000
  0
SEQEND
  8
0
  0
POLYLINE
  8
20
 66
1
 10
0.0000
 20
0.0000
 30
0.0000
 40
0.0100
 41
0.0100
 70
0
  0
VERTEX
  8
20
 10
6.5000
 20
158.0000
 30
0.0000
  0
VERTEX
  8
20
 10
23.5000
 20
158.0000
 30
0.0000
  0
SEQEND
  8
0
  0
POLYLINE
  8
20
 66
1
 10
0.0000
 20
0.0000
 30
0.0000
 40
0.0050
 41
0.0050
 70
0
  0
VERTEX
  8
20
 10
23.5000
 20
157.9975
 30
0.0000
 42
1.0000
  0
VERTEX
  8
20
 10
23.5000
 20
158.0025
 30
0.0000
  0
SEQEND
  8
0
  0
POLYLINE
  8
20
 66
1
 10
0.0000
 20
0.0000
 30
0.0000
 40
0.0050
 41
0.0050
 70
0
  0
VERTEX
  8
20
 10
6.5000
 20
158.0025
 30
0.0000
 42
1.0000
  0
VERTEX
  8
20
 10
6.5000
 20
157.9975
 30
0.0000
  0
SEQEND
  8
0
  0
POLYLINE
  8
20
 66
1
 10
0.0000
 20
0.0000
 30
0.0000
 40
0.0100
 41
0.0100
 70
0
  0
VERTEX
  8
20
 10
24.0000
 20
157.5000
 30
0.0000
 42
0.4142
  0
VERTEX
  8
20
 10
23.5000
 20
158.0000
 30
0.0000
  0
SEQEND
  8
0
  0
POLYLINE
  8
20
 66
1
 10
0.0000
 20
0.0000
 30
0.0000
 40
0.0050
 41
0.0050
 70
0
  0
VERTEX
  8
20
 10
23.9975
 20
157.5000
 30
0.0000
 42
1.0000
  0
VERTEX
  8
20
 10
24.0025
 20
157.5000
 30
0.0000
  0
SEQEND
  8
0
  0
POLYLINE
  8
20
 66
1
 10
0.0000
 20
0.0000
 30
0.0000
 40
0.0050
 41
0.0050
 70
0
  0
VERTEX
  8
20
 10
23.5000
 20
158.0025
 30
0.0000
 42
1.0000
  0
VERTEX
  8
20
 10
23.5000
 20
157.9975
 30
0.0000
  0
SEQEND
  8
0
  0
POLYLINE
  8
20
 66
1
 10
0.0000
 20
0.0000
 30
0.0000
 40
0.0100
 41
0.0100
 70
0
  0
VERTEX
  8
20
 10
24.0000
 20
157.5000
 30
0.0000
  0
VERTEX
  8
20
 10
24.0000
 20
153.5000
 30
0.0000
  0
SEQEND
  8
0
  0
POLYLINE
  8
20
 66
1
 10
0.0000
 20
0.0000
 30
0.0000
 40
0.0050
 41
0.0050
 70
0
  0
VERTEX
  8
20
 10
23.9975
 20
153.5000
 30
0.0000
 42
1.0000
  0
VERTEX
  8
20
 10
24.0025
 20
153.5000
 30
0.0000
  0
SEQEND
  8
0
  0
POLYLINE
  8
20
 66
1
 10
0.0000
 20
0.0000
 30
0.0000
 40
0.0050
 41
0.0050
 70
0
  0
VERTEX
  8
20
 10
24.0025
 20
157.5000
 30
0.0000
 42
1.0000
  0
VERTEX
  8
20
 10
23.9975
 20
157.5000
 30
0.0000
  0
SEQEND
  8
0
  0
POLYLINE
  8
20
 66
1
 10
0.0000
 20
0.0000
 30
0.0000
 40
0.0100
 41
0.0100
 70
0
  0
VERTEX
  8
20
 10
23.5000
 20
153.0000
 30
0.0000
 42
0.4142
  0
VERTEX
  8
20
 10
24.0000
 20
153.5000
 30
0.0000
  0
SEQEND
  8
0
  0
POLYLINE
  8
20
 66
1
 10
0.0000
 20
0.0000
 30
0.0000
 40
0.0050
 41
0.0050
 70
0
  0
VERTEX
  8
20
 10
23.5000
 20
153.0025
 30
0.0000
 42
1.0000
  0
VERTEX
  8
20
 10
23.5000
 20
152.9975
 30
0.0000
  0
SEQEND
  8
0
  0
POLYLINE
  8
20
 66
1
 10
0.0000
 20
0.0000
 30
0.0000
 40
0.0050
 41
0.0050
 70
0
  0
VERTEX
  8
20
 10
24.0025
 20
153.5000
 30
0.0000
 42
1.0000
  0
VERTEX
  8
20
 10
23.9975
 20
153.5000
 30
0.0000
  0
SEQEND
  8
0
  0
POLYLINE
  8
20
 66
1
 10
0.0000
 20
0.0000
 30
0.0000
 40
0.0100
 41
0.0100
 70
0
  0
VERTEX
  8
20
 10
23.5000
 20
153.0000
 30
0.0000
  0
VERTEX
  8
20
 10
6.5000
 20
153.0000
 30
0.0000
  0
SEQEND
  8
0
  0
POLYLINE
  8
20
 66
1
 10
0.0000
 20
0.0000
 30
0.0000
 40
0.0050
 41
0.0050
 70
0
  0
VERTEX
  8
20
 10
6.5000
 20
153.0025
 30
0.0000
 42
1.0000
  0
VERTEX
  8
20
 10
6.5000
 20
152.9975
 30
0.0000
  0
SEQEND
  8
0
  0
POLYLINE
  8
20
 66
1
 10
0.0000
 20
0.0000
 30
0.0000
 40
0.0050
 41
0.0050
 70
0
  0
VERTEX
  8
20
 10
23.5000
 20
152.9975
 30
0.0000
 42
1.0000
  0
VERTEX
  8
20
 10
23.5000
 20
153.0025
 30
0.0000
  0
SEQEND
  8
0
  0
POLYLINE
  8
20
 66
1
 10
0.0000
 20
0.0000
 30
0.0000
 40
0.0100
 41
0.0100
 70
0
  0
VERTEX
  8
20
 10
6.5000
 20
158.0000
 30
0.0000
 42
0.4142
  0
VERTEX
  8
20
 10
6.0000
 20
157.5000
 30
0.0000
  0
SEQEND
  8
0
  0
POLYLINE
  8
20
 66
1
 10
0.0000
 20
0.0000
 30
0.0000
 40
0.0050
 41
0.0050
 70
0
  0
VERTEX
  8
20
 10
6.5000
 20
157.9975
 30
0.0000
 42
1.0000
  0
VERTEX
  8
20
 10
6.5000
 20
158.0025
 30
0.0000
  0
SEQEND
  8
0
  0
POLYLINE
  8
20
 66
1
 10
0.0000
 20
0.0000
 30
0.0000
 40
0.0050
 41
0.0050
 70
0
  0
VERTEX
  8
20
 10
5.9975
 20
157.5000
 30
0.0000
 42
1.0000
  0
VERTEX
  8
20
 10
6.0025
 20
157.5000
 30
0.0000
  0
SEQEND
  8
0
  0
POLYLINE
  8
20
 66
1
 10
0.0000
 20
0.0000
 30
0.0000
 40
0.0100
 41
0.0100
 70
0
  0
VERTEX
  8
20
 10
1.0000
 20
210.0000
 30
0.0000
  0
VERTEX
  8
20
 10
70.0000
 20
210.0000
 30
0.0000
  0
SEQEND
  8
0
  0
POLYLINE
  8
20
 66
1
 10
0.0000
 20
0.0000
 30
0.0000
 40
0.0050
 41
0.0050
 70
0
  0
VERTEX
  8
20
 10
70.0000
 20
209.9975
 30
0.0000
 42
1.0000
  0
VERTEX
  8
20
 10
70.0000
 20
210.0025
 30
0.0000
  0
SEQEND
  8
0
  0
POLYLINE
  8
20
 66
1
 10
0.0000
 20
0.0000
 30
0.0000
 40
0.0050
 41
0.0050
 70
0
  0
VERTEX
  8
20
 10
1.0000
 20
210.0025
 30
0.0000
 42
1.0000
  0
VERTEX
  8
20
 10
1.0000
 20
209.9975
 30
0.0000
  0
SEQEND
  8
0
  0
POLYLINE
  8
20
 66
1
 10
0.0000
 20
0.0000
 30
0.0000
 40
0.0100
 41
0.0100
 70
0
  0
VERTEX
  8
20
 10
70.0000
 20
210.0000
 30
0.0000
  0
VERTEX
  8
20
 10
70.0000
 20
160.0000
 30
0.0000
  0
SEQEND
  8
0
  0
POLYLINE
  8
20
 66
1
 10
0.0000
 20
0.0000
 30
0.0000
 40
0.0050
 41
0.0050
 70
0
  0
VERTEX
  8
20
 10
69.9975
 20
160.0000
 30
0.0000
 42
1.0000
  0
VERTEX
  8
20
 10
70.0025
 20
160.0000
 30
0.0000
  0
SEQEND
  8
0
  0
POLYLINE
  8
20
 66
1
 10
0.0000
 20
0.0000
 30
0.0000
 40
0.0050
 41
0.0050
 70
0
  0
VERTEX
  8
20
 10
70.0025
 20
210.0000
 30
0.0000
 42
1.0000
  0
VERTEX
  8
20
 10
69.9975
 20
210.0000
 30
0.0000
  0
SEQEND
  8
0
  0
POLYLINE
  8
20
 66
1
 10
0.0000
 20
0.0000
 30
0.0000
 40
0.0100
 41
0.0100
 70
0
  0
VERTEX
  8
20
 10
70.0000
 20
160.0000
 30
0.0000
  0
VERTEX
  8
20
 10
1.0000
 20
160.0000
 30
0.0000
  0
SEQEND
  8
0
  0
POLYLINE
  8
20
 66
1
 10
0.0000
 20
0.0000
 30
0.0000
 40
0.0050
 41
0.0050
 70
0
  0
VERTEX
  8
20
 10
1.0000
 20
160.0025
 30
0.0000
 42
1.0000
  0
VERTEX
  8
20
 10
1.0000
 20
159.9975
 30
0.0000
  0
SEQEND
  8
0
  0
POLYLINE
  8
20
 66
1
 10
0.0000
 20
0.0000
 30
0.0000
 40
0.0050
 41
0.0050
 70
0
  0
VERTEX
  8
20
 10
70.0000
 20
159.9975
 30
0.0000
 42
1.0000
  0
VERTEX
  8
20
 10
70.0000
 20
160.0025
 30
0.0000
  0
SEQEND
  8
0
  0
POLYLINE
  8
20
 66
1
 10
0.0000
 20
0.0000
 30
0.0000
 40
0.0100
 41
0.0100
 70
0
  0
VERTEX
  8
20
 10
1.0000
 20
160.0000
 30
0.0000
  0
VERTEX
  8
20
 10
1.0000
 20
210.0000
 30
0.0000
  0
SEQEND
  8
0
  0
POLYLINE
  8
20
 66
1
 10
0.0000
 20
0.0000
 30
0.0000
 40
0.0050
 41
0.0050
 70
0
  0
VERTEX
  8
20
 10
1.0025
 20
210.0000
 30
0.0000
 42
1.0000
  0
VERTEX
  8
20
 10
0.9975
 20
210.0000
 30
0.0000
  0
SEQEND
  8
0
  0
POLYLINE
  8
20
 66
1
 10
0.0000
 20
0.0000
 30
0.0000
 40
0.0050
 41
0.0050
 70
0
  0
VERTEX
  8
20
 10
0.9975
 20
160.0000
 30
0.0000
 42
1.0000
  0
VERTEX
  8
20
 10
1.0025
 20
160.0000
 30
0.0000
  0
SEQEND
  8
0
  0
LINE
  8
20
 10
36.9263
 20
11.3416
 30
0.0000
 11
41.9324
 21
22.0773
 31
0.0000
  0
ARC
  8
20
 10
41.5410
 20
22.2599
 30
0.0000
 40
0.4320
 50
334.9997
 51
64.9998
  0
ARC
  8
20
 10
37.3795
 20
11.1303
 30
0.0000
 40
0.5000
 50
154.9999
 51
244.9999
  0
LINE
  8
20
 10
37.1682
 20
10.6772
 30
0.0000
 11
48.9502
 21
5.1831
 31
0.0000
  0
ARC
  8
20
 10
49.1615
 20
5.6363
 30
0.0000
 40
0.5000
 50
244.9999
 51
334.9999
  0
LINE
  8
20
 10
49.6146
 20
5.4250
 30
0.0000
 11
55.1374
 21
17.2686
 31
0.0000
  0
ARC
  8
20
 10
54.7459
 20
17.4512
 30
0.0000
 40
0.4320
 50
334.9997
 51
64.9998
  0
ARC
  8
20
 10
55.1398
 20
18.2958
 30
0.0000
 40
0.5000
 50
154.9999
 51
244.9999
  0
LINE
  8
20
 10
54.6866
 20
18.5071
 30
0.0000
 11
60.6087
 21
31.2070
 31
0.0000
  0
ARC
  8
20
 10
60.1555
 20
31.4183
 30
0.0000
 40
0.5000
 50
334.9999
 51
64.9999
  0
LINE
  8
20
 10
60.3668
 20
31.8714
 30
0.0000
 11
48.5848
 21
37.3655
 31
0.0000
  0
ARC
  8
20
 10
48.3735
 20
36.9123
 30
0.0000
 40
0.5000
 50
65.0002
 51
154.9997
  0
ARC
  8
20
 10
41.9348
 20
23.1045
 30
0.0000
 40
0.5000
 50
154.9999
 51
244.9999
  0
LINE
  8
20
 10
41.4817
 20
23.3158
 30
0.0000
 11
47.9204
 21
37.1236
 31
0.0000
  0
LINE
  8
20
 10
33.8318
 20
10.6772
 30
0.0000
 11
22.0498
 21
5.1831
 31
0.0000
  0
ARC
  8
20
 10
21.8385
 20
5.6363
 30
0.0000
 40
0.5000
 50
205.0001
 51
295.0001
  0
LINE
  8
20
 10
21.3854
 20
5.4250
 30
0.0000
 11
15.8626
 21
17.2686
 31
0.0000
  0
ARC
  8
20
 10
16.2541
 20
17.4512
 30
0.0000
 40
0.4320
 50
115.0002
 51
205.0003
  0
ARC
  8
20
 10
15.8602
 20
18.2958
 30
0.0000
 40
0.5000
 50
295.0001
 51
25.0001
  0
LINE
  8
20
 10
16.3134
 20
18.5071
 30
0.0000
 11
10.3913
 21
31.2070
 31
0.0000
  0
LINE
  8
20
 10
34.0737
 20
11.3416
 30
0.0000
 11
29.0676
 21
22.0773
 31
0.0000
  0
ARC
  8
20
 10
29.4590
 20
22.2599
 30
0.0000
 40
0.4320
 50
115.0002
 51
205.0003
  0
ARC
  8
20
 10
33.6205
 20
11.1303
 30
0.0000
 40
0.5000
 50
295.0001
 51
25.0001
  0
ARC
  8
20
 10
10.8445
 20
31.4183
 30
0.0000
 40
0.5000
 50
115.0001
 51
205.0001
  0
LINE
  8
20
 10
10.6332
 20
31.8714
 30
0.0000
 11
22.4152
 21
37.3655
 31
0.0000
  0
ARC
  8
20
 10
22.6265
 20
36.9123
 30
0.0000
 40
0.5000
 50
25.0003
 51
114.9998
  0
ARC
  8
20
 10
29.0652
 20
23.1045
 30
0.0000
 40
0.5000
 50
295.0001
 51
25.0001
  0
LINE
  8
20
 10
29.5183
 20
23.3158
 30
0.0000
 11
23.0796
 21
37.1236
 31
0.0000
  0
POLYLINE
  8
20
 66
1
 10
0.0000
 20
0.0000
 30
0.0000
 40
0.0100
 41
0.0100
 70
0
  0
VERTEX
  8
20
 10
28.0000
 20
57.0000
 30
0.0000
  0
VERTEX
  8
20
 10
66.0000
 20
57.0000
 30
0.0000
  0
SEQEND
  8
0
  0
POLYLINE
  8
20
 66
1
 10
0.0000
 20
0.0000
 30
0.0000
 40
0.0050
 41
0.0050
 70
0
  0
VERTEX
  8
20
 10
66.0000
 20
56.9975
 30
0.0000
 42
1.0000
  0
VERTEX
  8
20
 10
66.0000
 20
57.0025
 30
0.0000
  0
SEQEND
  8
0
  0
POLYLINE
  8
20
 66
1
 10
0.0000
 20
0.0000
 30
0.0000
 40
0.0050
 41
0.0050
 70
0
  0
VERTEX
  8
20
 10
28.0000
 20
57.0025
 30
0.0000
 42
1.0000
  0
VERTEX
  8
20
 10
28.0000
 20
56.9975
 30
0.0000
  0
SEQEND
  8
0
  0
POLYLINE
  8
20
 66
1
 10
0.0000
 20
0.0000
 30
0.0000
 40
0.0100
 41
0.0100
 70
0
  0
VERTEX
  8
20
 10
66.0000
 20
57.0000
 30
0.0000
  0
VERTEX
  8
20
 10
66.0000
 20
67.0000
 30
0.0000
  0
SEQEND
  8
0
  0
POLYLINE
  8
20
 66
1
 10
0.0000
 20
0.0000
 30
0.0000
 40
0.0050
 41
0.0050
 70
0
  0
VERTEX
  8
20
 10
66.0025
 20
67.0000
 30
0.0000
 42
1.0000
  0
VERTEX
  8
20
 10
65.9975
 20
67.0000
 30
0.0000
  0
SEQEND
  8
0
  0
POLYLINE
  8
20
 66
1
 10
0.0000
 20
0.0000
 30
0.0000
 40
0.0050
 41
0.0050
 70
0
  0
VERTEX
  8
20
 10
65.9975
 20
57.0000
 30
0.0000
 42
1.0000
  0
VERTEX
  8
20
 10
66.0025
 20
57.0000
 30
0.0000
  0
SEQEND
  8
0
  0
POLYLINE
  8
20
 66
1
 10
0.0000
 20
0.0000
 30
0.0000
 40
0.0100
 41
0.0100
 70
0
  0
VERTEX
  8
20
 10
66.0000
 20
67.0000
 30
0.0000
  0
VERTEX
  8
20
 10
71.0000
 20
67.0000
 30
0.0000
  0
SEQEND
  8
0
  0
POLYLINE
  8
20
 66
1
 10
0.0000
 20
0.0000
 30
0.0000
 40
0.0050
 41
0.0050
 70
0
  0
VERTEX
  8
20
 10
71.0000
 20
66.9975
 30
0.0000
 42
1.0000
  0
VERTEX
  8
20
 10
71.0000
 20
67.0025
 30
0.0000
  0
SEQEND
  8
0
  0
POLYLINE
  8
20
 66
1
 10
0.0000
 20
0.0000
 30
0.0000
 40
0.0050
 41
0.0050
 70
0
  0
VERTEX
  8
20
 10
66.0000
 20
67.0025
 30
0.0000
 42
1.0000
  0
VERTEX
  8
20
 10
66.0000
 20
66.9975
 30
0.0000
  0
SEQEND
  8
0
  0
POLYLINE
  8
20
 66
1
 10
0.0000
 20
0.0000
 30
0.0000
 40
0.0100
 41
0.0100
 70
0
  0
VERTEX
  8
20
 10
0.0000
 20
39.0000
 30
0.0000
  0
VERTEX
  8
20
 10
28.0000
 20
39.0000
 30
0.0000
  0
SEQEND
  8
0
  0
POLYLINE
  8
20
 66
1
 10
0.0000
 20
0.0000
 30
0.0000
 40
0.0050
 41
0.0050
 70
0
  0
VERTEX
  8
20
 10
28.0000
 20
38.9975
 30
0.0000
 42
1.0000
  0
VERTEX
  8
20
 10
28.0000
 20
39.0025
 30
0.0000
  0
SEQEND
  8
0
  0
POLYLINE
  8
20
 66
1
 10
0.0000
 20
0.0000
 30
0.0000
 40
0.0050
 41
0.0050
 70
0
  0
VERTEX
  8
20
 10
0.0000
 20
39.0025
 30
0.0000
 42
1.0000
  0
VERTEX
  8
20
 10
0.0000
 20
38.9975
 30
0.0000
  0
SEQEND
  8
0
  0
POLYLINE
  8
20
 66
1
 10
0.0000
 20
0.0000
 30
0.0000
 40
0.0100
 41
0.0100
 70
0
  0
VERTEX
  8
20
 10
28.0000
 20
39.0000
 30
0.0000
  0
VERTEX
  8
20
 10
28.0000
 20
43.0000
 30
0.0000
  0
SEQEND
  8
0
  0
POLYLINE
  8
20
 66
1
 10
0.0000
 20
0.0000
 30
0.0000
 40
0.0050
 41
0.0050
 70
0
  0
VERTEX
  8
20
 10
28.0025
 20
43.0000
 30
0.0000
 42
1.0000
  0
VERTEX
  8
20
 10
27.9975
 20
43.0000
 30
0.0000
  0
SEQEND
  8
0
  0
POLYLINE
  8
20
 66
1
 10
0.0000
 20
0.0000
 30
0.0000
 40
0.0050
 41
0.0050
 70
0
  0
VERTEX
  8
20
 10
27.9975
 20
39.0000
 30
0.0000
 42
1.0000
  0
VERTEX
  8
20
 10
28.0025
 20
39.0000
 30
0.0000
  0
SEQEND
  8
0
  0
POLYLINE
  8
20
 66
1
 10
0.0000
 20
0.0000
 30
0.0000
 40
0.0100
 41
0.0100
 70
0
  0
VERTEX
  8
20
 10
28.0000
 20
43.0000
 30
0.0000
  0
VERTEX
  8
20
 10
43.0000
 20
43.0000
 30
0.0000
  0
SEQEND
  8
0
  0
POLYLINE
  8
20
 66
1
 10
0.0000
 20
0.0000
 30
0.0000
 40
0.0050
 41
0.0050
 70
0
  0
VERTEX
  8
20
 10
43.0000
 20
42.9975
 30
0.0000
 42
1.0000
  0
VERTEX
  8
20
 10
43.0000
 20
43.0025
 30
0.0000
  0
SEQEND
  8
0
  0
POLYLINE
  8
20
 66
1
 10
0.0000
 20
0.0000
 30
0.0000
 40
0.0050
 41
0.0050
 70
0
  0
VERTEX
  8
20
 10
28.0000
 20
43.0025
 30
0.0000
 42
1.0000
  0
VERTEX
  8
20
 10
28.0000
 20
42.9975
 30
0.0000
  0
SEQEND
  8
0
  0
POLYLINE
  8
20
 66
1
 10
0.0000
 20
0.0000
 30
0.0000
 40
0.0100
 41
0.0100
 70
0
  0
VERTEX
  8
20
 10
43.0000
 20
43.0000
 30
0.0000
  0
VERTEX
  8
20
 10
43.0000
 20
54.0000
 30
0.0000
  0
SEQEND
  8
0
  0
POLYLINE
  8
20
 66
1
 10
0.0000
 20
0.0000
 30
0.0000
 40
0.0050
 41
0.0050
 70
0
  0
VERTEX
  8
20
 10
43.0025
 20
54.0000
 30
0.0000
 42
1.0000
  0
VERTEX
  8
20
 10
42.9975
 20
54.0000
 30
0.0000
  0
SEQEND
  8
0
  0
POLYLINE
  8
20
 66
1
 10
0.0000
 20
0.0000
 30
0.0000
 40
0.0050
 41
0.0050
 70
0
  0
VERTEX
  8
20
 10
42.9975
 20
43.0000
 30
0.0000
 42
1.0000
  0
VERTEX
  8
20
 10
43.0025
 20
43.0000
 30
0.0000
  0
SEQEND
  8
0
  0
POLYLINE
  8
20
 66
1
 10
0.0000
 20
0.0000
 30
0.0000
 40
0.0100
 41
0.0100
 70
0
  0
VERTEX
  8
20
 10
43.0000
 20
54.0000
 30
0.0000
  0
VERTEX
  8
20
 10
28.0000
 20
54.0000
 30
0.0000
  0
SEQEND
  8
0
  0
POLYLINE
  8
20
 66
1
 10
0.0000
 20
0.0000
 30
0.0000
 40
0.0050
 41
0.0050
 70
0
  0
VERTEX
  8
20
 10
28.0000
 20
54.0025
 30
0.0000
 42
1.0000
  0
VERTEX
  8
20
 10
28.0000
 20
53.9975
 30
0.0000
  0
SEQEND
  8
0
  0
POLYLINE
  8
20
 66
1
 10
0.0000
 20
0.0000
 30
0.0000
 40
0.0050
 41
0.0050
 70
0
  0
VERTEX
  8
20
 10
43.0000
 20
53.9975
 30
0.0000
 42
1.0000
  0
VERTEX
  8
20
 10
43.0000
 20
54.0025
 30
0.0000
  0
SEQEND
  8
0
  0
POLYLINE
  8
20
 66
1
 10
0.0000
 20
0.0000
 30
0.0000
 40
0.0100
 41
0.0100
 70
0
  0
VERTEX
  8
20
 10
28.0000
 20
54.0000
 30
0.0000
  0
VERTEX
  8
20
 10
28.0000
 20
57.0000
 30
0.0000
  0
SEQEND
  8
0
  0
POLYLINE
  8
20
 66
1
 10
0.0000
 20
0.0000
 30
0.0000
 40
0.0050
 41
0.0050
 70
0
  0
VERTEX
  8
20
 10
28.0025
 20
57.0000
 30
0.0000
 42
1.0000
  0
VERTEX
  8
20
 10
27.9975
 20
57.0000
 30
0.0000
  0
SEQEND
  8
0
  0
POLYLINE
  8
20
 66
1
 10
0.0000
 20
0.0000
 30
0.0000
 40
0.0050
 41
0.0050
 70
0
  0
VERTEX
  8
20
 10
27.9975
 20
54.0000
 30
0.0000
 42
1.0000
  0
VERTEX
  8
20
 10
28.0025
 20
54.0000
 30
0.0000
  0
SEQEND
  8
0
  0
POLYLINE
  8
20
 66
1
 10
0.0000
 20
0.0000
 30
0.0000
 40
0.0100
 41
0.0100
 70
0
  0
VERTEX
  8
20
 10
71.0000
 20
86.0000
 30
0.0000
  0
VERTEX
  8
20
 10
66.0000
 20
86.0000
 30
0.0000
  0
SEQEND
  8
0
  0
POLYLINE
  8
20
 66
1
 10
0.0000
 20
0.0000
 30
0.0000
 40
0.0050
 41
0.0050
 70
0
  0
VERTEX
  8
20
 10
66.0000
 20
86.0025
 30
0.0000
 42
1.0000
  0
VERTEX
  8
20
 10
66.0000
 20
85.9975
 30
0.0000
  0
SEQEND
  8
0
  0
POLYLINE
  8
20
 66
1
 10
0.0000
 20
0.0000
 30
0.0000
 40
0.0050
 41
0.0050
 70
0
  0
VERTEX
  8
20
 10
71.0000
 20
85.9975
 30
0.0000
 42
1.0000
  0
VERTEX
  8
20
 10
71.0000
 20
86.0025
 30
0.0000
  0
SEQEND
  8
0
  0
POLYLINE
  8
20
 66
1
 10
0.0000
 20
0.0000
 30
0.0000
 40
0.0100
 41
0.0100
 70
0
  0
VERTEX
  8
20
 10
66.0000
 20
86.0000
 30
0.0000
  0
VERTEX
  8
20
 10
66.0000
 20
88.5000
 30
0.0000
  0
SEQEND
  8
0
  0
POLYLINE
  8
20
 66
1
 10
0.0000
 20
0.0000
 30
0.0000
 40
0.0050
 41
0.0050
 70
0
  0
VERTEX
  8
20
 10
66.0025
 20
88.5000
 30
0.0000
 42
1.0000
  0
VERTEX
  8
20
 10
65.9975
 20
88.5000
 30
0.0000
  0
SEQEND
  8
0
  0
POLYLINE
  8
20
 66
1
 10
0.0000
 20
0.0000
 30
0.0000
 40
0.0050
 41
0.0050
 70
0
  0
VERTEX
  8
20
 10
65.9975
 20
86.0000
 30
0.0000
 42
1.0000
  0
VERTEX
  8
20
 10
66.0025
 20
86.0000
 30
0.0000
  0
SEQEND
  8
0
  0
POLYLINE
  8
20
 66
1
 10
0.0000
 20
0.0000
 30
0.0000
 40
0.0100
 41
0.0100
 70
0
  0
VERTEX
  8
20
 10
66.0000
 20
88.5000
 30
0.0000
  0
VERTEX
  8
20
 10
0.0000
 20
88.5000
 30
0.0000
  0
SEQEND
  8
0
  0
POLYLINE
  8
20
 66
1
 10
0.0000
 20
0.0000
 30
0.0000
 40
0.0050
 41
0.0050
 70
0
  0
VERTEX
  8
20
 10
0.0000
 20
88.5025
 30
0.0000
 42
1.0000
  0
VERTEX
  8
20
 10
0.0000
 20
88.4975
 30
0.0000
  0
SEQEND
  8
0
  0
POLYLINE
  8
20
 66
1
 10
0.0000
 20
0.0000
 30
0.0000
 40
0.0050
 41
0.0050
 70
0
  0
VERTEX
  8
20
 10
66.0000
 20
88.4975
 30
0.0000
 42
1.0000
  0
VERTEX
  8
20
 10
66.0000
 20
88.5025
 30
0.0000
  0
SEQEND
  8
0
  0
LINE
  8
20
 10
83.0000
 20
93.0000
 30
0.0000
 11
83.0000
 21
47.0000
 31
0.0000
  0
LINE
  8
20
 10
154.0000
 20
53.0000
 30
0.0000
 11
154.0000
 21
67.0000
 31
0.0000
  0
LINE
  8
20
 10
154.0000
 20
86.0000
 30
0.0000
 11
154.0000
 21
93.0000
 31
0.0000
  0
ARC
  8
20
 10
153.0000
 20
93.0000
 30
0.0000
 40
1.0000
 50
0.0000
 51
90.0000
  0
LINE
  8
20
 10
153.0000
 20
94.0000
 30
0.0000
 11
84.0000
 21
94.0000
 31
0.0000
  0
ARC
  8
20
 10
84.0000
 20
93.0000
 30
0.0000
 40
1.0000
 50
90.0000
 51
180.0000
  0
POLYLINE
  8
20
 66
1
 10
0.0000
 20
0.0000
 30
0.0000
 40
0.0100
 41
0.0100
 70
0
  0
VERTEX
  8
20
 10
149.0000
 20
67.0000
 30
0.0000
  0
VERTEX
  8
20
 10
154.0000
 20
67.0000
 30
0.0000
  0
SEQEND
  8
0
  0
POLYLINE
  8
20
 66
1
 10
0.0000
 20
0.0000
 30
0.0000
 40
0.0050
 41
0.0050
 70
0
  0
VERTEX
  8
20
 10
154.0000
 20
66.9975
 30
0.0000
 42
1.0000
  0
VERTEX
  8
20
 10
154.0000
 20
67.0025
 30
0.0000
  0
SEQEND
  8
0
  0
POLYLINE
  8
20
 66
1
 10
0.0000
 20
0.0000
 30
0.0000
 40
0.0050
 41
0.0050
 70
0
  0
VERTEX
  8
20
 10
149.0000
 20
67.0025
 30
0.0000
 42
1.0000
  0
VERTEX
  8
20
 10
149.0000
 20
66.9975
 30
0.0000
  0
SEQEND
  8
0
  0
POLYLINE
  8
20
 66
1
 10
0.0000
 20
0.0000
 30
0.0000
 40
0.0100
 41
0.0100
 70
0
  0
VERTEX
  8
20
 10
111.0000
 20
43.0000
 30
0.0000
  0
VERTEX
  8
20
 10
126.0000
 20
43.0000
 30
0.0000
  0
SEQEND
  8
0
  0
POLYLINE
  8
20
 66
1
 10
0.0000
 20
0.0000
 30
0.0000
 40
0.0050
 41
0.0050
 70
0
  0
VERTEX
  8
20
 10
126.0000
 20
42.9975
 30
0.0000
 42
1.0000
  0
VERTEX
  8
20
 10
126.0000
 20
43.0025
 30
0.0000
  0
SEQEND
  8
0
  0
POLYLINE
  8
20
 66
1
 10
0.0000
 20
0.0000
 30
0.0000
 40
0.0050
 41
0.0050
 70
0
  0
VERTEX
  8
20
 10
111.0000
 20
43.0025
 30
0.0000
 42
1.0000
  0
VERTEX
  8
20
 10
111.0000
 20
42.9975
 30
0.0000
  0
SEQEND
  8
0
  0
POLYLINE
  8
20
 66
1
 10
0.0000
 20
0.0000
 30
0.0000
 40
0.0100
 41
0.0100
 70
0
  0
VERTEX
  8
20
 10
126.0000
 20
43.0000
 30
0.0000
  0
VERTEX
  8
20
 10
126.0000
 20
54.0000
 30
0.0000
  0
SEQEND
  8
0
  0
POLYLINE
  8
20
 66
1
 10
0.0000
 20
0.0000
 30
0.0000
 40
0.0050
 41
0.0050
 70
0
  0
VERTEX
  8
20
 10
126.0025
 20
54.0000
 30
0.0000
 42
1.0000
  0
VERTEX
  8
20
 10
125.9975
 20
54.0000
 30
0.0000
  0
SEQEND
  8
0
  0
POLYLINE
  8
20
 66
1
 10
0.0000
 20
0.0000
 30
0.0000
 40
0.0050
 41
0.0050
 70
0
  0
VERTEX
  8
20
 10
125.9975
 20
43.0000
 30
0.0000
 42
1.0000
  0
VERTEX
  8
20
 10
126.0025
 20
43.0000
 30
0.0000
  0
SEQEND
  8
0
  0
POLYLINE
  8
20
 66
1
 10
0.0000
 20
0.0000
 30
0.0000
 40
0.0100
 41
0.0100
 70
0
  0
VERTEX
  8
20
 10
126.0000
 20
54.0000
 30
0.0000
  0
VERTEX
  8
20
 10
111.0000
 20
54.0000
 30
0.0000
  0
SEQEND
  8
0
  0
POLYLINE
  8
20
 66
1
 10
0.0000
 20
0.0000
 30
0.0000
 40
0.0050
 41
0.0050
 70
0
  0
VERTEX
  8
20
 10
111.0000
 20
54.0025
 30
0.0000
 42
1.0000
  0
VERTEX
  8
20
 10
111.0000
 20
53.9975
 30
0.0000
  0
SEQEND
  8
0
  0
POLYLINE
  8
20
 66
1
 10
0.0000
 20
0.0000
 30
0.0000
 40
0.0050
 41
0.0050
 70
0
  0
VERTEX
  8
20
 10
126.0000
 20
53.9975
 30
0.0000
 42
1.0000
  0
VERTEX
  8
20
 10
126.0000
 20
54.0025
 30
0.0000
  0
SEQEND
  8
0
  0
POLYLINE
  8
20
 66
1
 10
0.0000
 20
0.0000
 30
0.0000
 40
0.0100
 41
0.0100
 70
0
  0
VERTEX
  8
20
 10
111.0000
 20
54.0000
 30
0.0000
  0
VERTEX
  8
20
 10
111.0000
 20
43.0000
 30
0.0000
  0
SEQEND
  8
0
  0
POLYLINE
  8
20
 66
1
 10
0.0000
 20
0.0000
 30
0.0000
 40
0.0050
 41
0.0050
 70
0
  0
VERTEX
  8
20
 10
110.9975
 20
43.0000
 30
0.0000
 42
1.0000
  0
VERTEX
  8
20
 10
111.0025
 20
43.0000
 30
0.0000
  0
SEQEND
  8
0
  0
POLYLINE
  8
20
 66
1
 10
0.0000
 20
0.0000
 30
0.0000
 40
0.0050
 41
0.0050
 70
0
  0
VERTEX
  8
20
 10
111.0025
 20
54.0000
 30
0.0000
 42
1.0000
  0
VERTEX
  8
20
 10
110.9975
 20
54.0000
 30
0.0000
  0
SEQEND
  8
0
  0
POLYLINE
  8
20
 66
1
 10
0.0000
 20
0.0000
 30
0.0000
 40
0.0100
 41
0.0100
 70
0
  0
VERTEX
  8
20
 10
154.0000
 20
86.0000
 30
0.0000
  0
VERTEX
  8
20
 10
149.0000
 20
86.0000
 30
0.0000
  0
SEQEND
  8
0
  0
POLYLINE
  8
20
 66
1
 10
0.0000
 20
0.0000
 30
0.0000
 40
0.0050
 41
0.0050
 70
0
  0
VERTEX
  8
20
 10
149.0000
 20
86.0025
 30
0.0000
 42
1.0000
  0
VERTEX
  8
20
 10
149.0000
 20
85.9975
 30
0.0000
  0
SEQEND
  8
0
  0
POLYLINE
  8
20
 66
1
 10
0.0000
 20
0.0000
 30
0.0000
 40
0.0050
 41
0.0050
 70
0
  0
VERTEX
  8
20
 10
154.0000
 20
85.9975
 30
0.0000
 42
1.0000
  0
VERTEX
  8
20
 10
154.0000
 20
86.0025
 30
0.0000
  0
SEQEND
  8
0
  0
POLYLINE
  8
20
 66
1
 10
0.0000
 20
0.0000
 30
0.0000
 40
0.0100
 41
0.0100
 70
0
  0
VERTEX
  8
20
 10
149.0000
 20
86.0000
 30
0.0000
  0
VERTEX
  8
20
 10
149.0000
 20
67.0000
 30
0.0000
  0
SEQEND
  8
0
  0
POLYLINE
  8
20
 66
1
 10
0.0000
 20
0.0000
 30
0.0000
 40
0.0050
 41
0.0050
 70
0
  0
VERTEX
  8
20
 10
148.9975
 20
67.0000
 30
0.0000
 42
1.0000
  0
VERTEX
  8
20
 10
149.0025
 20
67.0000
 30
0.0000
  0
SEQEND
  8
0
  0
POLYLINE
  8
20
 66
1
 10
0.0000
 20
0.0000
 30
0.0000
 40
0.0050
 41
0.0050
 70
0
  0
VERTEX
  8
20
 10
149.0025
 20
86.0000
 30
0.0000
 42
1.0000
  0
VERTEX
  8
20
 10
148.9975
 20
86.0000
 30
0.0000
  0
SEQEND
  8
0
  0
POLYLINE
  8
20
 66
1
 10
0.0000
 20
0.0000
 30
0.0000
 40
0.0100
 41
0.0100
 70
0
  0
VERTEX
  8
20
 10
83.0000
 20
47.0000
 30
0.0000
  0
VERTEX
  8
20
 10
83.0000
 20
40.0000
 30
0.0000
  0
SEQEND
  8
0
  0
POLYLINE
  8
20
 66
1
 10
0.0000
 20
0.0000
 30
0.0000
 40
0.0050
 41
0.0050
 70
0
  0
VERTEX
  8
20
 10
82.9975
 20
40.0000
 30
0.0000
 42
1.0000
  0
VERTEX
  8
20
 10
83.0025
 20
40.0000
 30
0.0000
  0
SEQEND
  8
0
  0
POLYLINE
  8
20
 66
1
 10
0.0000
 20
0.0000
 30
0.0000
 40
0.0050
 41
0.0050
 70
0
  0
VERTEX
  8
20
 10
83.0025
 20
47.0000
 30
0.0000
 42
1.0000
  0
VERTEX
  8
20
 10
82.9975
 20
47.0000
 30
0.0000
  0
SEQEND
  8
0
  0
POLYLINE
  8
20
 66
1
 10
0.0000
 20
0.0000
 30
0.0000
 40
0.0100
 41
0.0100
 70
0
  0
VERTEX
  8
20
 10
83.0000
 20
40.0000
 30
0.0000
 42
0.4142
  0
VERTEX
  8
20
 10
84.0000
 20
39.0000
 30
0.0000
  0
SEQEND
  8
0
  0
POLYLINE
  8
20
 66
1
 10
0.0000
 20
0.0000
 30
0.0000
 40
0.0050
 41
0.0050
 70
0
  0
VERTEX
  8
20
 10
83.0025
 20
40.0000
 30
0.0000
 42
1.0000
  0
VERTEX
  8
20
 10
82.9975
 20
40.0000
 30
0.0000
  0
SEQEND
  8
0
  0
POLYLINE
  8
20
 66
1
 10
0.0000
 20
0.0000
 30
0.0000
 40
0.0050
 41
0.0050
 70
0
  0
VERTEX
  8
20
 10
84.0000
 20
38.9975
 30
0.0000
 42
1.0000
  0
VERTEX
  8
20
 10
84.0000
 20
39.0025
 30
0.0000
  0
SEQEND
  8
0
  0
POLYLINE
  8
20
 66
1
 10
0.0000
 20
0.0000
 30
0.0000
 40
0.0100
 41
0.0100
 70
0
  0
VERTEX
  8
20
 10
84.0000
 20
39.0000
 30
0.0000
  0
VERTEX
  8
20
 10
153.0000
 20
39.0000
 30
0.0000
  0
SEQEND
  8
0
  0
POLYLINE
  8
20
 66
1
 10
0.0000
 20
0.0000
 30
0.0000
 40
0.0050
 41
0.0050
 70
0
  0
VERTEX
  8
20
 10
153.0000
 20
38.9975
 30
0.0000
 42
1.0000
  0
VERTEX
  8
20
 10
153.0000
 20
39.0025
 30
0.0000
  0
SEQEND
  8
0
  0
POLYLINE
  8
20
 66
1
 10
0.0000
 20
0.0000
 30
0.0000
 40
0.0050
 41
0.0050
 70
0
  0
VERTEX
  8
20
 10
84.0000
 20
39.0025
 30
0.0000
 42
1.0000
  0
VERTEX
  8
20
 10
84.0000
 20
38.9975
 30
0.0000
  0
SEQEND
  8
0
  0
POLYLINE
  8
20
 66
1
 10
0.0000
 20
0.0000
 30
0.0000
 40
0.0100
 41
0.0100
 70
0
  0
VERTEX
  8
20
 10
153.0000
 20
39.0000
 30
0.0000
 42
0.4142
  0
VERTEX
  8
20
 10
154.0000
 20
40.0000
 30
0.0000
  0
SEQEND
  8
0
  0
POLYLINE
  8
20
 66
1
 10
0.0000
 20
0.0000
 30
0.0000
 40
0.0050
 41
0.0050
 70
0
  0
VERTEX
  8
20
 10
153.0000
 20
39.0025
 30
0.0000
 42
1.0000
  0
VERTEX
  8
20
 10
153.0000
 20
38.9975
 30
0.0000
  0
SEQEND
  8
0
  0
POLYLINE
  8
20
 66
1
 10
0.0000
 20
0.0000
 30
0.0000
 40
0.0050
 41
0.0050
 70
0
  0
VERTEX
  8
20
 10
154.0025
 20
40.0000
 30
0.0000
 42
1.0000
  0
VERTEX
  8
20
 10
153.9975
 20
40.0000
 30
0.0000
  0
SEQEND
  8
0
  0
POLYLINE
  8
20
 66
1
 10
0.0000
 20
0.0000
 30
0.0000
 40
0.0100
 41
0.0100
 70
0
  0
VERTEX
  8
20
 10
154.0000
 20
40.0000
 30
0.0000
  0
VERTEX
  8
20
 10
154.0000
 20
53.0000
 30
0.0000
  0
SEQEND
  8
0
  0
POLYLINE
  8
20
 66
1
 10
0.0000
 20
0.0000
 30
0.0000
 40
0.0050
 41
0.0050
 70
0
  0
VERTEX
  8
20
 10
154.0025
 20
53.0000
 30
0.0000
 42
1.0000
  0
VERTEX
  8
20
 10
153.9975
 20
53.0000
 30
0.0000
  0
SEQEND
  8
0
  0
POLYLINE
  8
20
 66
1
 10
0.0000
 20
0.0000
 30
0.0000
 40
0.0050
 41
0.0050
 70
0
  0
VERTEX
  8
20
 10
153.9975
 20
40.0000
 30
0.0000
 42
1.0000
  0
VERTEX
  8
20
 10
154.0025
 20
40.0000
 30
0.0000
  0
SEQEND
  8
0
  0
LINE
  8
20
 10
166.0000
 20
93.0000
 30
0.0000
 11
166.0000
 21
47.0000
 31
0.0000
  0
LINE
  8
20
 10
237.0000
 20
53.0000
 30
0.0000
 11
237.0000
 21
67.0000
 31
0.0000
  0
LINE
  8
20
 10
237.0000
 20
86.0000
 30
0.0000
 11
237.0000
 21
93.0000
 31
0.0000
  0
ARC
  8
20
 10
236.0000
 20
93.0000
 30
0.0000
 40
1.0000
 50
0.0000
 51
90.0000
  0
LINE
  8
20
 10
236.0000
 20
94.0000
 30
0.0000
 11
167.0000
 21
94.0000
 31
0.0000
  0
ARC
  8
20
 10
167.0000
 20
93.0000
 30
0.0000
 40
1.0000
 50
90.0000
 51
180.0000
  0
POLYLINE
  8
20
 66
1
 10
0.0000
 20
0.0000
 30
0.0000
 40
0.0100
 41
0.0100
 70
0
  0
VERTEX
  8
20
 10
237.0000
 20
86.0000
 30
0.0000
  0
VERTEX
  8
20
 10
237.0000
 20
67.0000
 30
0.0000
  0
SEQEND
  8
0
  0
POLYLINE
  8
20
 66
1
 10
0.0000
 20
0.0000
 30
0.0000
 40
0.0050
 41
0.0050
 70
0
  0
VERTEX
  8
20
 10
236.9975
 20
67.0000
 30
0.0000
 42
1.0000
  0
VERTEX
  8
20
 10
237.0025
 20
67.0000
 30
0.0000
  0
SEQEND
  8
0
  0
POLYLINE
  8
20
 66
1
 10
0.0000
 20
0.0000
 30
0.0000
 40
0.0050
 41
0.0050
 70
0
  0
VERTEX
  8
20
 10
237.0025
 20
86.0000
 30
0.0000
 42
1.0000
  0
VERTEX
  8
20
 10
236.9975
 20
86.0000
 30
0.0000
  0
SEQEND
  8
0
  0
POLYLINE
  8
20
 66
1
 10
0.0000
 20
0.0000
 30
0.0000
 40
0.0100
 41
0.0100
 70
0
  0
VERTEX
  8
20
 10
166.0000
 20
47.0000
 30
0.0000
  0
VERTEX
  8
20
 10
166.0000
 20
40.0000
 30
0.0000
  0
SEQEND
  8
0
  0
POLYLINE
  8
20
 66
1
 10
0.0000
 20
0.0000
 30
0.0000
 40
0.0050
 41
0.0050
 70
0
  0
VERTEX
  8
20
 10
165.9975
 20
40.0000
 30
0.0000
 42
1.0000
  0
VERTEX
  8
20
 10
166.0025
 20
40.0000
 30
0.0000
  0
SEQEND
  8
0
  0
POLYLINE
  8
20
 66
1
 10
0.0000
 20
0.0000
 30
0.0000
 40
0.0050
 41
0.0050
 70
0
  0
VERTEX
  8
20
 10
166.0025
 20
47.0000
 30
0.0000
 42
1.0000
  0
VERTEX
  8
20
 10
165.9975
 20
47.0000
 30
0.0000
  0
SEQEND
  8
0
  0
POLYLINE
  8
20
 66
1
 10
0.0000
 20
0.0000
 30
0.0000
 40
0.0100
 41
0.0100
 70
0
  0
VERTEX
  8
20
 10
166.0000
 20
40.0000
 30
0.0000
 42
0.4142
  0
VERTEX
  8
20
 10
167.0000
 20
39.0000
 30
0.0000
  0
SEQEND
  8
0
  0
POLYLINE
  8
20
 66
1
 10
0.0000
 20
0.0000
 30
0.0000
 40
0.0050
 41
0.0050
 70
0
  0
VERTEX
  8
20
 10
166.0025
 20
40.0000
 30
0.0000
 42
1.0000
  0
VERTEX
  8
20
 10
165.9975
 20
40.0000
 30
0.0000
  0
SEQEND
  8
0
  0
POLYLINE
  8
20
 66
1
 10
0.0000
 20
0.0000
 30
0.0000
 40
0.0050
 41
0.0050
 70
0
  0
VERTEX
  8
20
 10
167.0000
 20
38.9975
 30
0.0000
 42
1.0000
  0
VERTEX
  8
20
 10
167.0000
 20
39.0025
 30
0.0000
  0
SEQEND
  8
0
  0
POLYLINE
  8
20
 66
1
 10
0.0000
 20
0.0000
 30
0.0000
 40
0.0100
 41
0.0100
 70
0
  0
VERTEX
  8
20
 10
167.0000
 20
39.0000
 30
0.0000
  0
VERTEX
  8
20
 10
236.0000
 20
39.0000
 30
0.0000
  0
SEQEND
  8
0
  0
POLYLINE
  8
20
 66
1
 10
0.0000
 20
0.0000
 30
0.0000
 40
0.0050
 41
0.0050
 70
0
  0
VERTEX
  8
20
 10
236.0000
 20
38.9975
 30
0.0000
 42
1.0000
  0
VERTEX
  8
20
 10
236.0000
 20
39.0025
 30
0.0000
  0
SEQEND
  8
0
  0
POLYLINE
  8
20
 66
1
 10
0.0000
 20
0.0000
 30
0.0000
 40
0.0050
 41
0.0050
 70
0
  0
VERTEX
  8
20
 10
167.0000
 20
39.0025
 30
0.0000
 42
1.0000
  0
VERTEX
  8
20
 10
167.0000
 20
38.9975
 30
0.0000
  0
SEQEND
  8
0
  0
POLYLINE
  8
20
 66
1
 10
0.0000
 20
0.0000
 30
0.0000
 40
0.0100
 41
0.0100
 70
0
  0
VERTEX
  8
20
 10
236.0000
 20
39.0000
 30
0.0000
 42
0.4142
  0
VERTEX
  8
20
 10
237.0000
 20
40.0000
 30
0.0000
  0
SEQEND
  8
0
  0
POLYLINE
  8
20
 66
1
 10
0.0000
 20
0.0000
 30
0.0000
 40
0.0050
 41
0.0050
 70
0
  0
VERTEX
  8
20
 10
236.0000
 20
39.0025
 30
0.0000
 42
1.0000
  0
VERTEX
  8
20
 10
236.0000
 20
38.9975
 30
0.0000
  0
SEQEND
  8
0
  0
POLYLINE
  8
20
 66
1
 10
0.0000
 20
0.0000
 30
0.0000
 40
0.0050
 41
0.0050
 70
0
  0
VERTEX
  8
20
 10
237.0025
 20
40.0000
 30
0.0000
 42
1.0000
  0
VERTEX
  8
20
 10
236.9975
 20
40.0000
 30
0.0000
  0
SEQEND
  8
0
  0
POLYLINE
  8
20
 66
1
 10
0.0000
 20
0.0000
 30
0.0000
 40
0.0100
 41
0.0100
 70
0
  0
VERTEX
  8
20
 10
237.0000
 20
40.0000
 30
0.0000
  0
VERTEX
  8
20
 10
237.0000
 20
53.0000
 30
0.0000
  0
SEQEND
  8
0
  0
POLYLINE
  8
20
 66
1
 10
0.0000
 20
0.0000
 30
0.0000
 40
0.0050
 41
0.0050
 70
0
  0
VERTEX
  8
20
 10
237.0025
 20
53.0000
 30
0.0000
 42
1.0000
  0
VERTEX
  8
20
 10
236.9975
 20
53.0000
 30
0.0000
  0
SEQEND
  8
0
  0
POLYLINE
  8
20
 66
1
 10
0.0000
 20
0.0000
 30
0.0000
 40
0.0050
 41
0.0050
 70
0
  0
VERTEX
  8
20
 10
236.9975
 20
40.0000
 30
0.0000
 42
1.0000
  0
VERTEX
  8
20
 10
237.0025
 20
40.0000
 30
0.0000
  0
SEQEND
  8
0
  0
LINE
  8
20
 10
83.0000
 20
215.0000
 30
0.0000
 11
83.0000
 21
160.0000
 31
0.0000
  0
ARC
  8
20
 10
84.0000
 20
160.0000
 30
0.0000
 40
1.0000
 50
180.0000
 51
270.0000
  0
LINE
  8
20
 10
84.0000
 20
159.0000
 30
0.0000
 11
153.0000
 21
159.0000
 31
0.0000
  0
ARC
  8
20
 10
153.0000
 20
160.0000
 30
0.0000
 40
1.0000
 50
270.0000
 51
0.0000
  0
LINE
  8
20
 10
154.0000
 20
160.0000
 30
0.0000
 11
154.0000
 21
215.0000
 31
0.0000
  0
ARC
  8
20
 10
153.0000
 20
215.0000
 30
0.0000
 40
1.0000
 50
0.0000
 51
90.0000
  0
LINE
  8
20
 10
153.0000
 20
216.0000
 30
0.0000
 11
84.0000
 21
216.0000
 31
0.0000
  0
ARC
  8
20
 10
84.0000
 20
215.0000
 30
0.0000
 40
1.0000
 50
90.0000
 51
180.0000
  0
POINT
  8
23
 10
4.0000
 20
4.0000
 30
0.0000
  0
CIRCLE
  8
20
 10
4.0000
 20
4.0000
 30
0.0000
 40
1.4000
  0
POINT
  8
23
 10
67.0000
 20
4.0000
 30
0.0000
  0
CIRCLE
  8
20
 10
67.0000
 20
4.0000
 30
0.0000
 40
1.4000
  0
POINT
  8
23
 10
67.0000
 20
34.0000
 30
0.0000
  0
CIRCLE
  8
20
 10
67.0000
 20
34.0000
 30
0.0000
 40
1.4000
  0
POINT
  8
23
 10
4.0000
 20
91.0000
 30
0.0000
  0
CIRCLE
  8
20
 10
4.0000
 20
91.0000
 30
0.0000
 40
1.4000
  0
POINT
  8
23
 10
67.0000
 20
91.0000
 30
0.0000
  0
CIRCLE
  8
20
 10
67.0000
 20
91.0000
 30
0.0000
 40
1.4000
  0
POINT
  8
23
 10
4.0000
 20
126.0000
 30
0.0000
  0
CIRCLE
  8
20
 10
4.0000
 20
126.0000
 30
0.0000
 40
1.4000
  0
POINT
  8
23
 10
67.0000
 20
126.0000
 30
0.0000
  0
CIRCLE
  8
20
 10
67.0000
 20
126.0000
 30
0.0000
 40
1.4000
  0
POINT
  8
23
 10
67.0000
 20
156.0000
 30
0.0000
  0
CIRCLE
  8
20
 10
67.0000
 20
156.0000
 30
0.0000
 40
1.4000
  0
POINT
  8
23
 10
4.0000
 20
213.0000
 30
0.0000
  0
CIRCLE
  8
20
 10
4.0000
 20
213.0000
 30
0.0000
 40
1.4000
  0
POINT
  8
23
 10
67.0000
 20
213.0000
 30
0.0000
  0
CIRCLE
  8
20
 10
67.0000
 20
213.0000
 30
0.0000
 40
1.4000
  0
POINT
  8
23
 10
170.0000
 20
91.0000
 30
0.0000
  0
CIRCLE
  8
20
 10
170.0000
 20
91.0000
 30
0.0000
 40
1.4000
  0
POINT
  8
23
 10
233.0000
 20
91.0000
 30
0.0000
  0
CIRCLE
  8
20
 10
233.0000
 20
91.0000
 30
0.0000
 40
1.4000
  0
POINT
  8
23
 10
87.0000
 20
91.0000
 30
0.0000
  0
CIRCLE
  8
20
 10
87.0000
 20
91.0000
 30
0.0000
 40
1.4000
  0
POINT
  8
23
 10
150.0000
 20
91.0000
 30
0.0000
  0
CIRCLE
  8
20
 10
150.0000
 20
91.0000
 30
0.0000
 40
1.4000
  0
POINT
  8
23
 10
87.0000
 20
213.0000
 30
0.0000
  0
CIRCLE
  8
20
 10
87.0000
 20
213.0000
 30
0.0000
 40
1.4000
  0
POINT
  8
23
 10
150.0000
 20
213.0000
 30
0.0000
  0
CIRCLE
  8
20
 10
150.0000
 20
213.0000
 30
0.0000
 40
1.4000
  0
ENDSEC
  0
EOF
