  0
SECTION
  2
HEADER
  9
$ACADVER
  1
AC1009
  9
$FILLMODE
 70
1
  9
$EXTMIN
 10
-2.003000
 20
-0.000197
 30
0.000000
  9
$EXTMAX
 10
11.299409
 20
6.793543
 30
0.000000
  0
ENDSEC
  0
SECTION
  2
TABLES
  0
TABLE
  2
LTYPE
 70
1
  0
LTYPE
  2
CONTINUOUS
 70
64
  3
Solid line
 72
65
 73
0
 40
0
  0
ENDTAB
  0
TABLE
  2
LAYER
 70
255
  0
LAYER
  2
1
 70
64
 62
14
  6
CONTINUOUS
  0
LAYER
  2
20
 70
64
 62
1
  6
CONTINUOUS
  0
LAYER
  2
23
 70
64
 62
178
  6
CONTINUOUS
  0
ENDTAB
  0
ENDSEC
  0
SECTION
  2
BLOCKS
  0
BLOCK
  8
0
  2
RECT
 70
64
 10
0.000000
 20
0.000000
 30
0.000000
  3
RECT
  0
SOLID
  8
0
 10
-0.500000
 20
-0.500000
 30
0.000000
 11
0.500000
 21
-0.500000
 31
0.000000
 12
-0.500000
 22
0.500000
 32
0.000000
 13
0.500000
 23
0.500000
 33
0.000000
  0
ENDBLK
  8
0
  0
BLOCK
  8
0
  2
PIE
 70
64
 10
0.000000
 20
0.000000
 30
0.000000
  3
PIE
  0
POLYLINE
  8
0
 66
1
 10
0.000000
 20
0.000000
 30
0.000000
 40
0.500000
 41
0.500000
 70
0
  0
VERTEX
  8
0
 10
0.000000
 20
-0.250000
 30
0.000000
 42
1.000000
  0
VERTEX
  8
0
 10
0.000000
 20
0.250000
 30
0.000000
 42
1.000000
  0
VERTEX
  8
0
 10
0.000000
 20
-0.250000
 30
0.000000
  0
SEQEND
  8
0
  0
ENDBLK
  8
0
  0
BLOCK
  8
0
  2
OCTAGONP
 70
64
 10
0.000000
 20
0.000000
 30
0.000000
  3
OCTAGONP
  0
POLYLINE
  8
0
 66
1
 10
0.000000
 20
0.000000
 30
0.000000
 40
0.500000
 41
0.500000
 70
0
  0
VERTEX
  8
0
 10
-0.250000
 20
-0.103553
 30
0.000000
  0
VERTEX
  8
0
 10
-0.250000
 20
0.103553
 30
0.000000
  0
VERTEX
  8
0
 10
-0.103553
 20
0.250000
 30
0.000000
  0
VERTEX
  8
0
 10
0.103553
 20
0.250000
 30
0.000000
  0
VERTEX
  8
0
 10
0.250000
 20
0.103553
 30
0.000000
  0
VERTEX
  8
0
 10
0.250000
 20
-0.103553
 30
0.000000
  0
VERTEX
  8
0
 10
0.103553
 20
-0.250000
 30
0.000000
  0
VERTEX
  8
0
 10
-0.103553
 20
-0.250000
 30
0.000000
  0
VERTEX
  8
0
 10
-0.250000
 20
-0.103553
 30
0.000000
  0
VERTEX
  8
0
 10
-0.250000
 20
0.103553
 30
0.000000
  0
SEQEND
  8
0
  0
ENDBLK
  8
0
  0
BLOCK
  8
0
  2
SQUAREP
 70
64
 10
0.000000
 20
0.000000
 30
0.000000
  3
SQUAREP
  0
SOLID
  8
0
 10
-0.500000
 20
-0.500000
 30
0.000000
 11
0.500000
 21
-0.500000
 31
0.000000
 12
-0.500000
 22
0.500000
 32
0.000000
 13
0.500000
 23
0.500000
 33
0.000000
  0
ENDBLK
  8
0
  0
BLOCK
  8
0
  2
ROUNDP
 70
64
 10
0.000000
 20
0.000000
 30
0.000000
  3
ROUNDP
  0
POLYLINE
  8
0
 66
1
 10
0.000000
 20
0.000000
 30
0.000000
 40
0.500000
 41
0.500000
 70
0
  0
VERTEX
  8
0
 10
0.000000
 20
-0.250000
 30
0.000000
 42
1.000000
  0
VERTEX
  8
0
 10
0.000000
 20
0.250000
 30
0.000000
 42
1.000000
  0
VERTEX
  8
0
 10
0.000000
 20
-0.250000
 30
0.000000
  0
SEQEND
  8
0
  0
ENDBLK
  8
0
  0
BLOCK
  8
0
  2
ANNULUSP
 70
64
 10
0.000000
 20
0.000000
 30
0.000000
  3
ANNULUSP
  0
POLYLINE
  8
0
 66
1
 10
0.000000
 20
0.000000
 30
0.000000
 40
0.500000
 41
0.500000
 70
0
  0
VERTEX
  8
0
 10
0.000000
 20
-0.250000
 30
0.000000
 42
1.000000
  0
VERTEX
  8
0
 10
0.000000
 20
0.250000
 30
0.000000
 42
1.000000
  0
VERTEX
  8
0
 10
0.000000
 20
-0.250000
 30
0.000000
  0
SEQEND
  8
0
  0
ENDBLK
  8
0
  0
BLOCK
  8
0
  2
THERMALP
 70
64
 10
0.000000
 20
0.000000
 30
0.000000
  3
THERMALP
  0
POLYLINE
  8
0
 66
1
 10
0.000000
 20
0.000000
 30
0.000000
 40
0.100000
 41
0.100000
 70
0
  0
VERTEX
  8
0
 10
-0.237868
 20
0.450000
 30
0.000000
  0
VERTEX
  8
0
 10
0.237868
 20
0.450000
 30
0.000000
  0
SEQEND
  8
0
  0
POLYLINE
  8
0
 66
1
 10
0.000000
 20
0.000000
 30
0.000000
 40
0.050000
 41
0.050000
 70
0
  0
VERTEX
  8
0
 10
0.237868
 20
0.425000
 30
0.000000
 42
1.000000
  0
VERTEX
  8
0
 10
0.237868
 20
0.475000
 30
0.000000
  0
SEQEND
  8
0
  0
POLYLINE
  8
0
 66
1
 10
0.000000
 20
0.000000
 30
0.000000
 40
0.050000
 41
0.050000
 70
0
  0
VERTEX
  8
0
 10
-0.237868
 20
0.475000
 30
0.000000
 42
1.000000
  0
VERTEX
  8
0
 10
-0.237868
 20
0.425000
 30
0.000000
  0
SEQEND
  8
0
  0
POLYLINE
  8
0
 66
1
 10
0.000000
 20
0.000000
 30
0.000000
 40
0.100000
 41
0.100000
 70
0
  0
VERTEX
  8
0
 10
0.450000
 20
0.237868
 30
0.000000
  0
VERTEX
  8
0
 10
0.450000
 20
-0.237868
 30
0.000000
  0
SEQEND
  8
0
  0
POLYLINE
  8
0
 66
1
 10
0.000000
 20
0.000000
 30
0.000000
 40
0.050000
 41
0.050000
 70
0
  0
VERTEX
  8
0
 10
0.425000
 20
-0.237868
 30
0.000000
 42
1.000000
  0
VERTEX
  8
0
 10
0.475000
 20
-0.237868
 30
0.000000
  0
SEQEND
  8
0
  0
POLYLINE
  8
0
 66
1
 10
0.000000
 20
0.000000
 30
0.000000
 40
0.050000
 41
0.050000
 70
0
  0
VERTEX
  8
0
 10
0.475000
 20
0.237868
 30
0.000000
 42
1.000000
  0
VERTEX
  8
0
 10
0.425000
 20
0.237868
 30
0.000000
  0
SEQEND
  8
0
  0
POLYLINE
  8
0
 66
1
 10
0.000000
 20
0.000000
 30
0.000000
 40
0.100000
 41
0.100000
 70
0
  0
VERTEX
  8
0
 10
0.237868
 20
-0.450000
 30
0.000000
  0
VERTEX
  8
0
 10
-0.237868
 20
-0.450000
 30
0.000000
  0
SEQEND
  8
0
  0
POLYLINE
  8
0
 66
1
 10
0.000000
 20
0.000000
 30
0.000000
 40
0.050000
 41
0.050000
 70
0
  0
VERTEX
  8
0
 10
-0.237868
 20
-0.425000
 30
0.000000
 42
1.000000
  0
VERTEX
  8
0
 10
-0.237868
 20
-0.475000
 30
0.000000
  0
SEQEND
  8
0
  0
POLYLINE
  8
0
 66
1
 10
0.000000
 20
0.000000
 30
0.000000
 40
0.050000
 41
0.050000
 70
0
  0
VERTEX
  8
0
 10
0.237868
 20
-0.475000
 30
0.000000
 42
1.000000
  0
VERTEX
  8
0
 10
0.237868
 20
-0.425000
 30
0.000000
  0
SEQEND
  8
0
  0
POLYLINE
  8
0
 66
1
 10
0.000000
 20
0.000000
 30
0.000000
 40
0.100000
 41
0.100000
 70
0
  0
VERTEX
  8
0
 10
-0.450000
 20
-0.237868
 30
0.000000
  0
VERTEX
  8
0
 10
-0.450000
 20
0.237868
 30
0.000000
  0
SEQEND
  8
0
  0
POLYLINE
  8
0
 66
1
 10
0.000000
 20
0.000000
 30
0.000000
 40
0.050000
 41
0.050000
 70
0
  0
VERTEX
  8
0
 10
-0.425000
 20
0.237868
 30
0.000000
 42
1.000000
  0
VERTEX
  8
0
 10
-0.475000
 20
0.237868
 30
0.000000
  0
SEQEND
  8
0
  0
POLYLINE
  8
0
 66
1
 10
0.000000
 20
0.000000
 30
0.000000
 40
0.050000
 41
0.050000
 70
0
  0
VERTEX
  8
0
 10
-0.475000
 20
-0.237868
 30
0.000000
 42
1.000000
  0
VERTEX
  8
0
 10
-0.425000
 20
-0.237868
 30
0.000000
  0
SEQEND
  8
0
  0
ENDBLK
  8
0
  0
BLOCK
  8
0
  2
OCTAGONV
 70
64
 10
0.000000
 20
0.000000
 30
0.000000
  3
OCTAGONV
  0
POLYLINE
  8
0
 66
1
 10
0.000000
 20
0.000000
 30
0.000000
 40
0.500000
 41
0.500000
 70
0
  0
VERTEX
  8
0
 10
-0.250000
 20
-0.103553
 30
0.000000
  0
VERTEX
  8
0
 10
-0.250000
 20
0.103553
 30
0.000000
  0
VERTEX
  8
0
 10
-0.103553
 20
0.250000
 30
0.000000
  0
VERTEX
  8
0
 10
0.103553
 20
0.250000
 30
0.000000
  0
VERTEX
  8
0
 10
0.250000
 20
0.103553
 30
0.000000
  0
VERTEX
  8
0
 10
0.250000
 20
-0.103553
 30
0.000000
  0
VERTEX
  8
0
 10
0.103553
 20
-0.250000
 30
0.000000
  0
VERTEX
  8
0
 10
-0.103553
 20
-0.250000
 30
0.000000
  0
VERTEX
  8
0
 10
-0.250000
 20
-0.103553
 30
0.000000
  0
VERTEX
  8
0
 10
-0.250000
 20
0.103553
 30
0.000000
  0
SEQEND
  8
0
  0
ENDBLK
  8
0
  0
BLOCK
  8
0
  2
SQUAREV
 70
64
 10
0.000000
 20
0.000000
 30
0.000000
  3
SQUAREV
  0
SOLID
  8
0
 10
-0.500000
 20
-0.500000
 30
0.000000
 11
0.500000
 21
-0.500000
 31
0.000000
 12
-0.500000
 22
0.500000
 32
0.000000
 13
0.500000
 23
0.500000
 33
0.000000
  0
ENDBLK
  8
0
  0
BLOCK
  8
0
  2
ROUNDV
 70
64
 10
0.000000
 20
0.000000
 30
0.000000
  3
ROUNDV
  0
POLYLINE
  8
0
 66
1
 10
0.000000
 20
0.000000
 30
0.000000
 40
0.500000
 41
0.500000
 70
0
  0
VERTEX
  8
0
 10
0.000000
 20
-0.250000
 30
0.000000
 42
1.000000
  0
VERTEX
  8
0
 10
0.000000
 20
0.250000
 30
0.000000
 42
1.000000
  0
VERTEX
  8
0
 10
0.000000
 20
-0.250000
 30
0.000000
  0
SEQEND
  8
0
  0
ENDBLK
  8
0
  0
BLOCK
  8
0
  2
ANNULUSV
 70
64
 10
0.000000
 20
0.000000
 30
0.000000
  3
ANNULUSV
  0
POLYLINE
  8
0
 66
1
 10
0.000000
 20
0.000000
 30
0.000000
 40
0.500000
 41
0.500000
 70
0
  0
VERTEX
  8
0
 10
0.000000
 20
-0.250000
 30
0.000000
 42
1.000000
  0
VERTEX
  8
0
 10
0.000000
 20
0.250000
 30
0.000000
 42
1.000000
  0
VERTEX
  8
0
 10
0.000000
 20
-0.250000
 30
0.000000
  0
SEQEND
  8
0
  0
ENDBLK
  8
0
  0
BLOCK
  8
0
  2
THERMALV
 70
64
 10
0.000000
 20
0.000000
 30
0.000000
  3
THERMALV
  0
POLYLINE
  8
0
 66
1
 10
0.000000
 20
0.000000
 30
0.000000
 40
0.100000
 41
0.100000
 70
0
  0
VERTEX
  8
0
 10
-0.237868
 20
0.450000
 30
0.000000
  0
VERTEX
  8
0
 10
0.237868
 20
0.450000
 30
0.000000
  0
SEQEND
  8
0
  0
POLYLINE
  8
0
 66
1
 10
0.000000
 20
0.000000
 30
0.000000
 40
0.050000
 41
0.050000
 70
0
  0
VERTEX
  8
0
 10
0.237868
 20
0.425000
 30
0.000000
 42
1.000000
  0
VERTEX
  8
0
 10
0.237868
 20
0.475000
 30
0.000000
  0
SEQEND
  8
0
  0
POLYLINE
  8
0
 66
1
 10
0.000000
 20
0.000000
 30
0.000000
 40
0.050000
 41
0.050000
 70
0
  0
VERTEX
  8
0
 10
-0.237868
 20
0.475000
 30
0.000000
 42
1.000000
  0
VERTEX
  8
0
 10
-0.237868
 20
0.425000
 30
0.000000
  0
SEQEND
  8
0
  0
POLYLINE
  8
0
 66
1
 10
0.000000
 20
0.000000
 30
0.000000
 40
0.100000
 41
0.100000
 70
0
  0
VERTEX
  8
0
 10
0.450000
 20
0.237868
 30
0.000000
  0
VERTEX
  8
0
 10
0.450000
 20
-0.237868
 30
0.000000
  0
SEQEND
  8
0
  0
POLYLINE
  8
0
 66
1
 10
0.000000
 20
0.000000
 30
0.000000
 40
0.050000
 41
0.050000
 70
0
  0
VERTEX
  8
0
 10
0.425000
 20
-0.237868
 30
0.000000
 42
1.000000
  0
VERTEX
  8
0
 10
0.475000
 20
-0.237868
 30
0.000000
  0
SEQEND
  8
0
  0
POLYLINE
  8
0
 66
1
 10
0.000000
 20
0.000000
 30
0.000000
 40
0.050000
 41
0.050000
 70
0
  0
VERTEX
  8
0
 10
0.475000
 20
0.237868
 30
0.000000
 42
1.000000
  0
VERTEX
  8
0
 10
0.425000
 20
0.237868
 30
0.000000
  0
SEQEND
  8
0
  0
POLYLINE
  8
0
 66
1
 10
0.000000
 20
0.000000
 30
0.000000
 40
0.100000
 41
0.100000
 70
0
  0
VERTEX
  8
0
 10
0.237868
 20
-0.450000
 30
0.000000
  0
VERTEX
  8
0
 10
-0.237868
 20
-0.450000
 30
0.000000
  0
SEQEND
  8
0
  0
POLYLINE
  8
0
 66
1
 10
0.000000
 20
0.000000
 30
0.000000
 40
0.050000
 41
0.050000
 70
0
  0
VERTEX
  8
0
 10
-0.237868
 20
-0.425000
 30
0.000000
 42
1.000000
  0
VERTEX
  8
0
 10
-0.237868
 20
-0.475000
 30
0.000000
  0
SEQEND
  8
0
  0
POLYLINE
  8
0
 66
1
 10
0.000000
 20
0.000000
 30
0.000000
 40
0.050000
 41
0.050000
 70
0
  0
VERTEX
  8
0
 10
0.237868
 20
-0.475000
 30
0.000000
 42
1.000000
  0
VERTEX
  8
0
 10
0.237868
 20
-0.425000
 30
0.000000
  0
SEQEND
  8
0
  0
POLYLINE
  8
0
 66
1
 10
0.000000
 20
0.000000
 30
0.000000
 40
0.100000
 41
0.100000
 70
0
  0
VERTEX
  8
0
 10
-0.450000
 20
-0.237868
 30
0.000000
  0
VERTEX
  8
0
 10
-0.450000
 20
0.237868
 30
0.000000
  0
SEQEND
  8
0
  0
POLYLINE
  8
0
 66
1
 10
0.000000
 20
0.000000
 30
0.000000
 40
0.050000
 41
0.050000
 70
0
  0
VERTEX
  8
0
 10
-0.425000
 20
0.237868
 30
0.000000
 42
1.000000
  0
VERTEX
  8
0
 10
-0.475000
 20
0.237868
 30
0.000000
  0
SEQEND
  8
0
  0
POLYLINE
  8
0
 66
1
 10
0.000000
 20
0.000000
 30
0.000000
 40
0.050000
 41
0.050000
 70
0
  0
VERTEX
  8
0
 10
-0.475000
 20
-0.237868
 30
0.000000
 42
1.000000
  0
VERTEX
  8
0
 10
-0.425000
 20
-0.237868
 30
0.000000
  0
SEQEND
  8
0
  0
ENDBLK
  8
0
  0
ENDSEC
  0
SECTION
  2
ENTITIES
  0
LINE
  8
20
 10
0.000000
 20
2.952756
 30
0.000000
 11
0.000000
 21
2.775591
 31
0.000000
  0
LINE
  8
20
 10
0.000000
 20
1.535433
 30
0.000000
 11
0.000000
 21
0.039370
 31
0.000000
  0
ARC
  8
20
 10
0.039370
 20
0.039370
 30
0.000000
 40
0.039370
 50
180.000000
 51
270.000000
  0
LINE
  8
20
 10
0.039370
 20
0.000000
 30
0.000000
 11
2.755906
 21
0.000000
 31
0.000000
  0
ARC
  8
20
 10
2.755906
 20
0.039370
 30
0.000000
 40
0.039370
 50
270.000000
 51
0.000000
  0
LINE
  8
20
 10
2.795276
 20
0.039370
 30
0.000000
 11
2.795276
 21
2.637795
 31
0.000000
  0
LINE
  8
20
 10
2.795276
 20
2.677165
 30
0.000000
 11
2.795276
 21
2.952756
 31
0.000000
  0
ARC
  8
20
 10
2.755906
 20
2.952756
 30
0.000000
 40
0.039370
 50
0.000000
 51
90.000000
  0
LINE
  8
20
 10
2.755906
 20
2.992126
 30
0.000000
 11
0.039370
 21
2.992126
 31
0.000000
  0
ARC
  8
20
 10
0.039370
 20
2.952756
 30
0.000000
 40
0.039370
 50
90.000000
 51
180.000000
  0
LINE
  8
20
 10
0.000000
 20
6.732283
 30
0.000000
 11
0.000000
 21
3.110236
 31
0.000000
  0
ARC
  8
20
 10
0.039370
 20
3.110236
 30
0.000000
 40
0.039370
 50
180.000000
 51
270.000000
  0
LINE
  8
20
 10
0.039370
 20
3.070866
 30
0.000000
 11
2.755906
 21
3.070866
 31
0.000000
  0
ARC
  8
20
 10
2.755906
 20
3.110236
 30
0.000000
 40
0.039370
 50
270.000000
 51
0.000000
  0
LINE
  8
20
 10
2.795276
 20
3.110236
 30
0.000000
 11
2.795276
 21
6.732283
 31
0.000000
  0
ARC
  8
20
 10
2.755906
 20
6.732283
 30
0.000000
 40
0.039370
 50
0.000000
 51
90.000000
  0
LINE
  8
20
 10
2.755906
 20
6.771654
 30
0.000000
 11
0.039370
 21
6.771654
 31
0.000000
  0
ARC
  8
20
 10
0.039370
 20
6.732283
 30
0.000000
 40
0.039370
 50
90.000000
 51
180.000000
  0
LINE
  8
20
 10
1.837048
 20
4.220569
 30
0.000000
 11
1.396064
 21
4.381074
 31
0.000000
  0
ARC
  8
20
 10
1.389332
 20
4.362576
 30
0.000000
 40
0.019685
 50
69.999807
 51
159.999929
  0
LINE
  8
20
 10
1.370834
 20
4.369309
 30
0.000000
 11
1.195784
 21
3.888364
 31
0.000000
  0
ARC
  8
20
 10
1.214282
 20
3.881631
 30
0.000000
 40
0.019685
 50
160.000265
 51
250.000143
  0
LINE
  8
20
 10
1.207550
 20
3.863133
 30
0.000000
 11
1.610189
 21
3.716584
 31
0.000000
  0
LINE
  8
20
 10
2.090031
 20
3.423391
 30
0.000000
 11
2.531014
 21
3.262887
 31
0.000000
  0
ARC
  8
20
 10
2.537747
 20
3.281384
 30
0.000000
 40
0.019685
 50
249.999807
 51
339.999929
  0
LINE
  8
20
 10
2.556245
 20
3.274652
 30
0.000000
 11
2.731294
 21
3.755597
 31
0.000000
  0
ARC
  8
20
 10
2.712796
 20
3.762330
 30
0.000000
 40
0.019685
 50
340.000265
 51
70.000143
  0
LINE
  8
20
 10
2.719529
 20
3.780828
 30
0.000000
 11
2.335387
 21
3.920644
 31
0.000000
  0
ARC
  8
20
 10
2.342120
 20
3.939142
 30
0.000000
 40
0.019685
 50
160.000265
 51
250.000143
  0
LINE
  8
20
 10
2.323622
 20
3.945874
 30
0.000000
 11
2.463578
 21
4.330400
 31
0.000000
  0
ARC
  8
20
 10
2.445080
 20
4.337133
 30
0.000000
 40
0.019685
 50
340.000265
 51
70.000143
  0
LINE
  8
20
 10
2.451813
 20
4.355631
 30
0.000000
 11
1.970868
 21
4.530680
 31
0.000000
  0
ARC
  8
20
 10
1.964135
 20
4.512183
 30
0.000000
 40
0.019685
 50
69.999807
 51
159.999929
  0
LINE
  8
20
 10
1.945637
 20
4.518915
 30
0.000000
 11
1.837048
 21
4.220569
 31
0.000000
  0
LINE
  8
20
 10
1.456768
 20
3.295063
 30
0.000000
 11
1.956211
 21
3.113280
 31
0.000000
  0
ARC
  8
20
 10
1.962944
 20
3.131778
 30
0.000000
 40
0.019685
 50
249.999807
 51
339.999929
  0
LINE
  8
20
 10
1.981442
 20
3.125046
 30
0.000000
 11
2.090031
 21
3.423391
 31
0.000000
  0
LINE
  8
20
 10
1.610189
 20
3.716584
 30
0.000000
 11
1.456768
 21
3.295063
 31
0.000000
  0
POLYLINE
  8
20
 66
1
 10
0.000000
 20
0.000000
 30
0.000000
 40
0.000394
 41
0.000394
 70
0
  0
VERTEX
  8
20
 10
0.604471
 20
4.218364
 30
0.000000
  0
VERTEX
  8
20
 10
1.068758
 20
3.754077
 30
0.000000
  0
SEQEND
  8
0
  0
POLYLINE
  8
20
 66
1
 10
0.000000
 20
0.000000
 30
0.000000
 40
0.000197
 41
0.000197
 70
0
  0
VERTEX
  8
20
 10
1.068688
 20
3.754007
 30
0.000000
 42
1.000000
  0
VERTEX
  8
20
 10
1.068827
 20
3.754146
 30
0.000000
  0
SEQEND
  8
0
  0
POLYLINE
  8
20
 66
1
 10
0.000000
 20
0.000000
 30
0.000000
 40
0.000197
 41
0.000197
 70
0
  0
VERTEX
  8
20
 10
0.604540
 20
4.218434
 30
0.000000
 42
1.000000
  0
VERTEX
  8
20
 10
0.604401
 20
4.218294
 30
0.000000
  0
SEQEND
  8
0
  0
POLYLINE
  8
20
 66
1
 10
0.000000
 20
0.000000
 30
0.000000
 40
0.000394
 41
0.000394
 70
0
  0
VERTEX
  8
20
 10
1.068758
 20
3.726238
 30
0.000000
 42
0.414214
  0
VERTEX
  8
20
 10
1.068758
 20
3.754077
 30
0.000000
  0
SEQEND
  8
0
  0
POLYLINE
  8
20
 66
1
 10
0.000000
 20
0.000000
 30
0.000000
 40
0.000197
 41
0.000197
 70
0
  0
VERTEX
  8
20
 10
1.068688
 20
3.726308
 30
0.000000
 42
1.000000
  0
VERTEX
  8
20
 10
1.068827
 20
3.726168
 30
0.000000
  0
SEQEND
  8
0
  0
POLYLINE
  8
20
 66
1
 10
0.000000
 20
0.000000
 30
0.000000
 40
0.000197
 41
0.000197
 70
0
  0
VERTEX
  8
20
 10
1.068827
 20
3.754146
 30
0.000000
 42
1.000000
  0
VERTEX
  8
20
 10
1.068688
 20
3.754007
 30
0.000000
  0
SEQEND
  8
0
  0
POLYLINE
  8
20
 66
1
 10
0.000000
 20
0.000000
 30
0.000000
 40
0.000394
 41
0.000394
 70
0
  0
VERTEX
  8
20
 10
1.068758
 20
3.726238
 30
0.000000
  0
VERTEX
  8
20
 10
0.604471
 20
3.261951
 30
0.000000
  0
SEQEND
  8
0
  0
POLYLINE
  8
20
 66
1
 10
0.000000
 20
0.000000
 30
0.000000
 40
0.000197
 41
0.000197
 70
0
  0
VERTEX
  8
20
 10
0.604401
 20
3.262021
 30
0.000000
 42
1.000000
  0
VERTEX
  8
20
 10
0.604540
 20
3.261881
 30
0.000000
  0
SEQEND
  8
0
  0
POLYLINE
  8
20
 66
1
 10
0.000000
 20
0.000000
 30
0.000000
 40
0.000197
 41
0.000197
 70
0
  0
VERTEX
  8
20
 10
1.068827
 20
3.726168
 30
0.000000
 42
1.000000
  0
VERTEX
  8
20
 10
1.068688
 20
3.726308
 30
0.000000
  0
SEQEND
  8
0
  0
POLYLINE
  8
20
 66
1
 10
0.000000
 20
0.000000
 30
0.000000
 40
0.000394
 41
0.000394
 70
0
  0
VERTEX
  8
20
 10
0.576632
 20
3.261951
 30
0.000000
 42
0.414214
  0
VERTEX
  8
20
 10
0.604471
 20
3.261951
 30
0.000000
  0
SEQEND
  8
0
  0
POLYLINE
  8
20
 66
1
 10
0.000000
 20
0.000000
 30
0.000000
 40
0.000197
 41
0.000197
 70
0
  0
VERTEX
  8
20
 10
0.576701
 20
3.262021
 30
0.000000
 42
1.000000
  0
VERTEX
  8
20
 10
0.576562
 20
3.261881
 30
0.000000
  0
SEQEND
  8
0
  0
POLYLINE
  8
20
 66
1
 10
0.000000
 20
0.000000
 30
0.000000
 40
0.000197
 41
0.000197
 70
0
  0
VERTEX
  8
20
 10
0.604540
 20
3.261881
 30
0.000000
 42
1.000000
  0
VERTEX
  8
20
 10
0.604401
 20
3.262021
 30
0.000000
  0
SEQEND
  8
0
  0
POLYLINE
  8
20
 66
1
 10
0.000000
 20
0.000000
 30
0.000000
 40
0.000394
 41
0.000394
 70
0
  0
VERTEX
  8
20
 10
0.576632
 20
3.261951
 30
0.000000
  0
VERTEX
  8
20
 10
0.112345
 20
3.726238
 30
0.000000
  0
SEQEND
  8
0
  0
POLYLINE
  8
20
 66
1
 10
0.000000
 20
0.000000
 30
0.000000
 40
0.000197
 41
0.000197
 70
0
  0
VERTEX
  8
20
 10
0.112414
 20
3.726308
 30
0.000000
 42
1.000000
  0
VERTEX
  8
20
 10
0.112275
 20
3.726168
 30
0.000000
  0
SEQEND
  8
0
  0
POLYLINE
  8
20
 66
1
 10
0.000000
 20
0.000000
 30
0.000000
 40
0.000197
 41
0.000197
 70
0
  0
VERTEX
  8
20
 10
0.576562
 20
3.261881
 30
0.000000
 42
1.000000
  0
VERTEX
  8
20
 10
0.576701
 20
3.262021
 30
0.000000
  0
SEQEND
  8
0
  0
POLYLINE
  8
20
 66
1
 10
0.000000
 20
0.000000
 30
0.000000
 40
0.000394
 41
0.000394
 70
0
  0
VERTEX
  8
20
 10
0.112345
 20
3.754077
 30
0.000000
 42
0.414214
  0
VERTEX
  8
20
 10
0.112345
 20
3.726238
 30
0.000000
  0
SEQEND
  8
0
  0
POLYLINE
  8
20
 66
1
 10
0.000000
 20
0.000000
 30
0.000000
 40
0.000197
 41
0.000197
 70
0
  0
VERTEX
  8
20
 10
0.112414
 20
3.754007
 30
0.000000
 42
1.000000
  0
VERTEX
  8
20
 10
0.112275
 20
3.754146
 30
0.000000
  0
SEQEND
  8
0
  0
POLYLINE
  8
20
 66
1
 10
0.000000
 20
0.000000
 30
0.000000
 40
0.000197
 41
0.000197
 70
0
  0
VERTEX
  8
20
 10
0.112275
 20
3.726168
 30
0.000000
 42
1.000000
  0
VERTEX
  8
20
 10
0.112414
 20
3.726308
 30
0.000000
  0
SEQEND
  8
0
  0
POLYLINE
  8
20
 66
1
 10
0.000000
 20
0.000000
 30
0.000000
 40
0.000394
 41
0.000394
 70
0
  0
VERTEX
  8
20
 10
0.112345
 20
3.754077
 30
0.000000
  0
VERTEX
  8
20
 10
0.576632
 20
4.218364
 30
0.000000
  0
SEQEND
  8
0
  0
POLYLINE
  8
20
 66
1
 10
0.000000
 20
0.000000
 30
0.000000
 40
0.000197
 41
0.000197
 70
0
  0
VERTEX
  8
20
 10
0.576701
 20
4.218294
 30
0.000000
 42
1.000000
  0
VERTEX
  8
20
 10
0.576562
 20
4.218434
 30
0.000000
  0
SEQEND
  8
0
  0
POLYLINE
  8
20
 66
1
 10
0.000000
 20
0.000000
 30
0.000000
 40
0.000197
 41
0.000197
 70
0
  0
VERTEX
  8
20
 10
0.112275
 20
3.754146
 30
0.000000
 42
1.000000
  0
VERTEX
  8
20
 10
0.112414
 20
3.754007
 30
0.000000
  0
SEQEND
  8
0
  0
POLYLINE
  8
20
 66
1
 10
0.000000
 20
0.000000
 30
0.000000
 40
0.000394
 41
0.000394
 70
0
  0
VERTEX
  8
20
 10
0.604471
 20
4.218364
 30
0.000000
 42
0.414214
  0
VERTEX
  8
20
 10
0.576632
 20
4.218364
 30
0.000000
  0
SEQEND
  8
0
  0
POLYLINE
  8
20
 66
1
 10
0.000000
 20
0.000000
 30
0.000000
 40
0.000197
 41
0.000197
 70
0
  0
VERTEX
  8
20
 10
0.604401
 20
4.218294
 30
0.000000
 42
1.000000
  0
VERTEX
  8
20
 10
0.604540
 20
4.218434
 30
0.000000
  0
SEQEND
  8
0
  0
POLYLINE
  8
20
 66
1
 10
0.000000
 20
0.000000
 30
0.000000
 40
0.000197
 41
0.000197
 70
0
  0
VERTEX
  8
20
 10
0.576562
 20
4.218434
 30
0.000000
 42
1.000000
  0
VERTEX
  8
20
 10
0.576701
 20
4.218294
 30
0.000000
  0
SEQEND
  8
0
  0
POLYLINE
  8
20
 66
1
 10
0.000000
 20
0.000000
 30
0.000000
 40
0.000394
 41
0.000394
 70
0
  0
VERTEX
  8
20
 10
0.236220
 20
4.468504
 30
0.000000
  0
VERTEX
  8
20
 10
0.236220
 20
4.311024
 30
0.000000
  0
SEQEND
  8
0
  0
POLYLINE
  8
20
 66
1
 10
0.000000
 20
0.000000
 30
0.000000
 40
0.000197
 41
0.000197
 70
0
  0
VERTEX
  8
20
 10
0.236122
 20
4.311024
 30
0.000000
 42
1.000000
  0
VERTEX
  8
20
 10
0.236319
 20
4.311024
 30
0.000000
  0
SEQEND
  8
0
  0
POLYLINE
  8
20
 66
1
 10
0.000000
 20
0.000000
 30
0.000000
 40
0.000197
 41
0.000197
 70
0
  0
VERTEX
  8
20
 10
0.236319
 20
4.468504
 30
0.000000
 42
1.000000
  0
VERTEX
  8
20
 10
0.236122
 20
4.468504
 30
0.000000
  0
SEQEND
  8
0
  0
POLYLINE
  8
20
 66
1
 10
0.000000
 20
0.000000
 30
0.000000
 40
0.000394
 41
0.000394
 70
0
  0
VERTEX
  8
20
 10
0.236220
 20
4.311024
 30
0.000000
 42
0.414214
  0
VERTEX
  8
20
 10
0.255906
 20
4.291339
 30
0.000000
  0
SEQEND
  8
0
  0
POLYLINE
  8
20
 66
1
 10
0.000000
 20
0.000000
 30
0.000000
 40
0.000197
 41
0.000197
 70
0
  0
VERTEX
  8
20
 10
0.236319
 20
4.311024
 30
0.000000
 42
1.000000
  0
VERTEX
  8
20
 10
0.236122
 20
4.311024
 30
0.000000
  0
SEQEND
  8
0
  0
POLYLINE
  8
20
 66
1
 10
0.000000
 20
0.000000
 30
0.000000
 40
0.000197
 41
0.000197
 70
0
  0
VERTEX
  8
20
 10
0.255906
 20
4.291240
 30
0.000000
 42
1.000000
  0
VERTEX
  8
20
 10
0.255906
 20
4.291437
 30
0.000000
  0
SEQEND
  8
0
  0
POLYLINE
  8
20
 66
1
 10
0.000000
 20
0.000000
 30
0.000000
 40
0.000394
 41
0.000394
 70
0
  0
VERTEX
  8
20
 10
0.255906
 20
4.488189
 30
0.000000
  0
VERTEX
  8
20
 10
0.925197
 20
4.488189
 30
0.000000
  0
SEQEND
  8
0
  0
POLYLINE
  8
20
 66
1
 10
0.000000
 20
0.000000
 30
0.000000
 40
0.000197
 41
0.000197
 70
0
  0
VERTEX
  8
20
 10
0.925197
 20
4.488091
 30
0.000000
 42
1.000000
  0
VERTEX
  8
20
 10
0.925197
 20
4.488287
 30
0.000000
  0
SEQEND
  8
0
  0
POLYLINE
  8
20
 66
1
 10
0.000000
 20
0.000000
 30
0.000000
 40
0.000197
 41
0.000197
 70
0
  0
VERTEX
  8
20
 10
0.255906
 20
4.488287
 30
0.000000
 42
1.000000
  0
VERTEX
  8
20
 10
0.255906
 20
4.488091
 30
0.000000
  0
SEQEND
  8
0
  0
POLYLINE
  8
20
 66
1
 10
0.000000
 20
0.000000
 30
0.000000
 40
0.000394
 41
0.000394
 70
0
  0
VERTEX
  8
20
 10
0.944882
 20
4.468504
 30
0.000000
 42
0.414214
  0
VERTEX
  8
20
 10
0.925197
 20
4.488189
 30
0.000000
  0
SEQEND
  8
0
  0
POLYLINE
  8
20
 66
1
 10
0.000000
 20
0.000000
 30
0.000000
 40
0.000197
 41
0.000197
 70
0
  0
VERTEX
  8
20
 10
0.944783
 20
4.468504
 30
0.000000
 42
1.000000
  0
VERTEX
  8
20
 10
0.944980
 20
4.468504
 30
0.000000
  0
SEQEND
  8
0
  0
POLYLINE
  8
20
 66
1
 10
0.000000
 20
0.000000
 30
0.000000
 40
0.000197
 41
0.000197
 70
0
  0
VERTEX
  8
20
 10
0.925197
 20
4.488287
 30
0.000000
 42
1.000000
  0
VERTEX
  8
20
 10
0.925197
 20
4.488091
 30
0.000000
  0
SEQEND
  8
0
  0
POLYLINE
  8
20
 66
1
 10
0.000000
 20
0.000000
 30
0.000000
 40
0.000394
 41
0.000394
 70
0
  0
VERTEX
  8
20
 10
0.944882
 20
4.468504
 30
0.000000
  0
VERTEX
  8
20
 10
0.944882
 20
4.311024
 30
0.000000
  0
SEQEND
  8
0
  0
POLYLINE
  8
20
 66
1
 10
0.000000
 20
0.000000
 30
0.000000
 40
0.000197
 41
0.000197
 70
0
  0
VERTEX
  8
20
 10
0.944783
 20
4.311024
 30
0.000000
 42
1.000000
  0
VERTEX
  8
20
 10
0.944980
 20
4.311024
 30
0.000000
  0
SEQEND
  8
0
  0
POLYLINE
  8
20
 66
1
 10
0.000000
 20
0.000000
 30
0.000000
 40
0.000197
 41
0.000197
 70
0
  0
VERTEX
  8
20
 10
0.944980
 20
4.468504
 30
0.000000
 42
1.000000
  0
VERTEX
  8
20
 10
0.944783
 20
4.468504
 30
0.000000
  0
SEQEND
  8
0
  0
POLYLINE
  8
20
 66
1
 10
0.000000
 20
0.000000
 30
0.000000
 40
0.000394
 41
0.000394
 70
0
  0
VERTEX
  8
20
 10
0.925197
 20
4.291339
 30
0.000000
 42
0.414214
  0
VERTEX
  8
20
 10
0.944882
 20
4.311024
 30
0.000000
  0
SEQEND
  8
0
  0
POLYLINE
  8
20
 66
1
 10
0.000000
 20
0.000000
 30
0.000000
 40
0.000197
 41
0.000197
 70
0
  0
VERTEX
  8
20
 10
0.925197
 20
4.291437
 30
0.000000
 42
1.000000
  0
VERTEX
  8
20
 10
0.925197
 20
4.291240
 30
0.000000
  0
SEQEND
  8
0
  0
POLYLINE
  8
20
 66
1
 10
0.000000
 20
0.000000
 30
0.000000
 40
0.000197
 41
0.000197
 70
0
  0
VERTEX
  8
20
 10
0.944980
 20
4.311024
 30
0.000000
 42
1.000000
  0
VERTEX
  8
20
 10
0.944783
 20
4.311024
 30
0.000000
  0
SEQEND
  8
0
  0
POLYLINE
  8
20
 66
1
 10
0.000000
 20
0.000000
 30
0.000000
 40
0.000394
 41
0.000394
 70
0
  0
VERTEX
  8
20
 10
0.925197
 20
4.291339
 30
0.000000
  0
VERTEX
  8
20
 10
0.255906
 20
4.291339
 30
0.000000
  0
SEQEND
  8
0
  0
POLYLINE
  8
20
 66
1
 10
0.000000
 20
0.000000
 30
0.000000
 40
0.000197
 41
0.000197
 70
0
  0
VERTEX
  8
20
 10
0.255906
 20
4.291437
 30
0.000000
 42
1.000000
  0
VERTEX
  8
20
 10
0.255906
 20
4.291240
 30
0.000000
  0
SEQEND
  8
0
  0
POLYLINE
  8
20
 66
1
 10
0.000000
 20
0.000000
 30
0.000000
 40
0.000197
 41
0.000197
 70
0
  0
VERTEX
  8
20
 10
0.925197
 20
4.291240
 30
0.000000
 42
1.000000
  0
VERTEX
  8
20
 10
0.925197
 20
4.291437
 30
0.000000
  0
SEQEND
  8
0
  0
POLYLINE
  8
20
 66
1
 10
0.000000
 20
0.000000
 30
0.000000
 40
0.000394
 41
0.000394
 70
0
  0
VERTEX
  8
20
 10
0.255906
 20
4.488189
 30
0.000000
 42
0.414214
  0
VERTEX
  8
20
 10
0.236220
 20
4.468504
 30
0.000000
  0
SEQEND
  8
0
  0
POLYLINE
  8
20
 66
1
 10
0.000000
 20
0.000000
 30
0.000000
 40
0.000197
 41
0.000197
 70
0
  0
VERTEX
  8
20
 10
0.255906
 20
4.488091
 30
0.000000
 42
1.000000
  0
VERTEX
  8
20
 10
0.255906
 20
4.488287
 30
0.000000
  0
SEQEND
  8
0
  0
POLYLINE
  8
20
 66
1
 10
0.000000
 20
0.000000
 30
0.000000
 40
0.000197
 41
0.000197
 70
0
  0
VERTEX
  8
20
 10
0.236122
 20
4.468504
 30
0.000000
 42
1.000000
  0
VERTEX
  8
20
 10
0.236319
 20
4.468504
 30
0.000000
  0
SEQEND
  8
0
  0
POLYLINE
  8
20
 66
1
 10
0.000000
 20
0.000000
 30
0.000000
 40
0.000394
 41
0.000394
 70
0
  0
VERTEX
  8
20
 10
0.039370
 20
6.535433
 30
0.000000
  0
VERTEX
  8
20
 10
2.755906
 20
6.535433
 30
0.000000
  0
SEQEND
  8
0
  0
POLYLINE
  8
20
 66
1
 10
0.000000
 20
0.000000
 30
0.000000
 40
0.000197
 41
0.000197
 70
0
  0
VERTEX
  8
20
 10
2.755906
 20
6.535335
 30
0.000000
 42
1.000000
  0
VERTEX
  8
20
 10
2.755906
 20
6.535531
 30
0.000000
  0
SEQEND
  8
0
  0
POLYLINE
  8
20
 66
1
 10
0.000000
 20
0.000000
 30
0.000000
 40
0.000197
 41
0.000197
 70
0
  0
VERTEX
  8
20
 10
0.039370
 20
6.535531
 30
0.000000
 42
1.000000
  0
VERTEX
  8
20
 10
0.039370
 20
6.535335
 30
0.000000
  0
SEQEND
  8
0
  0
POLYLINE
  8
20
 66
1
 10
0.000000
 20
0.000000
 30
0.000000
 40
0.000394
 41
0.000394
 70
0
  0
VERTEX
  8
20
 10
2.755906
 20
6.535433
 30
0.000000
  0
VERTEX
  8
20
 10
2.755906
 20
4.566929
 30
0.000000
  0
SEQEND
  8
0
  0
POLYLINE
  8
20
 66
1
 10
0.000000
 20
0.000000
 30
0.000000
 40
0.000197
 41
0.000197
 70
0
  0
VERTEX
  8
20
 10
2.755807
 20
4.566929
 30
0.000000
 42
1.000000
  0
VERTEX
  8
20
 10
2.756004
 20
4.566929
 30
0.000000
  0
SEQEND
  8
0
  0
POLYLINE
  8
20
 66
1
 10
0.000000
 20
0.000000
 30
0.000000
 40
0.000197
 41
0.000197
 70
0
  0
VERTEX
  8
20
 10
2.756004
 20
6.535433
 30
0.000000
 42
1.000000
  0
VERTEX
  8
20
 10
2.755807
 20
6.535433
 30
0.000000
  0
SEQEND
  8
0
  0
POLYLINE
  8
20
 66
1
 10
0.000000
 20
0.000000
 30
0.000000
 40
0.000394
 41
0.000394
 70
0
  0
VERTEX
  8
20
 10
2.755906
 20
4.566929
 30
0.000000
  0
VERTEX
  8
20
 10
0.039370
 20
4.566929
 30
0.000000
  0
SEQEND
  8
0
  0
POLYLINE
  8
20
 66
1
 10
0.000000
 20
0.000000
 30
0.000000
 40
0.000197
 41
0.000197
 70
0
  0
VERTEX
  8
20
 10
0.039370
 20
4.567028
 30
0.000000
 42
1.000000
  0
VERTEX
  8
20
 10
0.039370
 20
4.566831
 30
0.000000
  0
SEQEND
  8
0
  0
POLYLINE
  8
20
 66
1
 10
0.000000
 20
0.000000
 30
0.000000
 40
0.000197
 41
0.000197
 70
0
  0
VERTEX
  8
20
 10
2.755906
 20
4.566831
 30
0.000000
 42
1.000000
  0
VERTEX
  8
20
 10
2.755906
 20
4.567028
 30
0.000000
  0
SEQEND
  8
0
  0
POLYLINE
  8
20
 66
1
 10
0.000000
 20
0.000000
 30
0.000000
 40
0.000394
 41
0.000394
 70
0
  0
VERTEX
  8
20
 10
0.039370
 20
4.566929
 30
0.000000
  0
VERTEX
  8
20
 10
0.039370
 20
6.535433
 30
0.000000
  0
SEQEND
  8
0
  0
POLYLINE
  8
20
 66
1
 10
0.000000
 20
0.000000
 30
0.000000
 40
0.000197
 41
0.000197
 70
0
  0
VERTEX
  8
20
 10
0.039469
 20
6.535433
 30
0.000000
 42
1.000000
  0
VERTEX
  8
20
 10
0.039272
 20
6.535433
 30
0.000000
  0
SEQEND
  8
0
  0
POLYLINE
  8
20
 66
1
 10
0.000000
 20
0.000000
 30
0.000000
 40
0.000197
 41
0.000197
 70
0
  0
VERTEX
  8
20
 10
0.039272
 20
4.566929
 30
0.000000
 42
1.000000
  0
VERTEX
  8
20
 10
0.039469
 20
4.566929
 30
0.000000
  0
SEQEND
  8
0
  0
LINE
  8
20
 10
1.453792
 20
0.446521
 30
0.000000
 11
1.650884
 21
0.869185
 31
0.000000
  0
ARC
  8
20
 10
1.635471
 20
0.876373
 30
0.000000
 40
0.017006
 50
334.999671
 51
64.999846
  0
ARC
  8
20
 10
1.471633
 20
0.438201
 30
0.000000
 40
0.019685
 50
154.999937
 51
244.999937
  0
LINE
  8
20
 10
1.463313
 20
0.420361
 30
0.000000
 11
1.927172
 21
0.204060
 31
0.000000
  0
ARC
  8
20
 10
1.935491
 20
0.221901
 30
0.000000
 40
0.019685
 50
244.999937
 51
334.999937
  0
LINE
  8
20
 10
1.953332
 20
0.213581
 30
0.000000
 11
2.170764
 21
0.679867
 31
0.000000
  0
ARC
  8
20
 10
2.155351
 20
0.687055
 30
0.000000
 40
0.017006
 50
334.999671
 51
64.999846
  0
ARC
  8
20
 10
2.170858
 20
0.720308
 30
0.000000
 40
0.019685
 50
154.999937
 51
244.999937
  0
LINE
  8
20
 10
2.153017
 20
0.728628
 30
0.000000
 11
2.386168
 21
1.228621
 31
0.000000
  0
ARC
  8
20
 10
2.368327
 20
1.236940
 30
0.000000
 40
0.019685
 50
334.999937
 51
64.999937
  0
LINE
  8
20
 10
2.376647
 20
1.254781
 30
0.000000
 11
1.912788
 21
1.471081
 31
0.000000
  0
ARC
  8
20
 10
1.904469
 20
1.453241
 30
0.000000
 40
0.019685
 50
65.000175
 51
154.999699
  0
ARC
  8
20
 10
1.650977
 20
0.909626
 30
0.000000
 40
0.019685
 50
154.999937
 51
244.999937
  0
LINE
  8
20
 10
1.633137
 20
0.917945
 30
0.000000
 11
1.886628
 21
1.461560
 31
0.000000
  0
LINE
  8
20
 10
1.331962
 20
0.420361
 30
0.000000
 11
0.868104
 21
0.204060
 31
0.000000
  0
ARC
  8
20
 10
0.859785
 20
0.221901
 30
0.000000
 40
0.019685
 50
205.000063
 51
295.000063
  0
LINE
  8
20
 10
0.841944
 20
0.213581
 30
0.000000
 11
0.624511
 21
0.679867
 31
0.000000
  0
ARC
  8
20
 10
0.639924
 20
0.687055
 30
0.000000
 40
0.017006
 50
115.000154
 51
205.000329
  0
ARC
  8
20
 10
0.624418
 20
0.720308
 30
0.000000
 40
0.019685
 50
295.000063
 51
25.000063
  0
LINE
  8
20
 10
0.642258
 20
0.728628
 30
0.000000
 11
0.409108
 21
1.228621
 31
0.000000
  0
LINE
  8
20
 10
1.341484
 20
0.446521
 30
0.000000
 11
1.144392
 21
0.869185
 31
0.000000
  0
ARC
  8
20
 10
1.159805
 20
0.876373
 30
0.000000
 40
0.017006
 50
115.000154
 51
205.000329
  0
ARC
  8
20
 10
1.323643
 20
0.438201
 30
0.000000
 40
0.019685
 50
295.000063
 51
25.000063
  0
ARC
  8
20
 10
0.426948
 20
1.236940
 30
0.000000
 40
0.019685
 50
115.000063
 51
205.000063
  0
LINE
  8
20
 10
0.418629
 20
1.254781
 30
0.000000
 11
0.882488
 21
1.471081
 31
0.000000
  0
ARC
  8
20
 10
0.890807
 20
1.453241
 30
0.000000
 40
0.019685
 50
25.000301
 51
114.999825
  0
ARC
  8
20
 10
1.144298
 20
0.909626
 30
0.000000
 40
0.019685
 50
295.000063
 51
25.000063
  0
LINE
  8
20
 10
1.162139
 20
0.917945
 30
0.000000
 11
0.908648
 21
1.461560
 31
0.000000
  0
POLYLINE
  8
20
 66
1
 10
0.000000
 20
0.000000
 30
0.000000
 40
0.000394
 41
0.000394
 70
0
  0
VERTEX
  8
20
 10
1.102362
 20
2.244094
 30
0.000000
  0
VERTEX
  8
20
 10
2.598425
 20
2.244094
 30
0.000000
  0
SEQEND
  8
0
  0
POLYLINE
  8
20
 66
1
 10
0.000000
 20
0.000000
 30
0.000000
 40
0.000197
 41
0.000197
 70
0
  0
VERTEX
  8
20
 10
2.598425
 20
2.243996
 30
0.000000
 42
1.000000
  0
VERTEX
  8
20
 10
2.598425
 20
2.244193
 30
0.000000
  0
SEQEND
  8
0
  0
POLYLINE
  8
20
 66
1
 10
0.000000
 20
0.000000
 30
0.000000
 40
0.000197
 41
0.000197
 70
0
  0
VERTEX
  8
20
 10
1.102362
 20
2.244193
 30
0.000000
 42
1.000000
  0
VERTEX
  8
20
 10
1.102362
 20
2.243996
 30
0.000000
  0
SEQEND
  8
0
  0
POLYLINE
  8
20
 66
1
 10
0.000000
 20
0.000000
 30
0.000000
 40
0.000394
 41
0.000394
 70
0
  0
VERTEX
  8
20
 10
2.598425
 20
2.244094
 30
0.000000
  0
VERTEX
  8
20
 10
2.598425
 20
2.637795
 30
0.000000
  0
SEQEND
  8
0
  0
POLYLINE
  8
20
 66
1
 10
0.000000
 20
0.000000
 30
0.000000
 40
0.000197
 41
0.000197
 70
0
  0
VERTEX
  8
20
 10
2.598524
 20
2.637795
 30
0.000000
 42
1.000000
  0
VERTEX
  8
20
 10
2.598327
 20
2.637795
 30
0.000000
  0
SEQEND
  8
0
  0
POLYLINE
  8
20
 66
1
 10
0.000000
 20
0.000000
 30
0.000000
 40
0.000197
 41
0.000197
 70
0
  0
VERTEX
  8
20
 10
2.598327
 20
2.244094
 30
0.000000
 42
1.000000
  0
VERTEX
  8
20
 10
2.598524
 20
2.244094
 30
0.000000
  0
SEQEND
  8
0
  0
POLYLINE
  8
20
 66
1
 10
0.000000
 20
0.000000
 30
0.000000
 40
0.000394
 41
0.000394
 70
0
  0
VERTEX
  8
20
 10
2.598425
 20
2.637795
 30
0.000000
  0
VERTEX
  8
20
 10
2.795276
 20
2.637795
 30
0.000000
  0
SEQEND
  8
0
  0
POLYLINE
  8
20
 66
1
 10
0.000000
 20
0.000000
 30
0.000000
 40
0.000197
 41
0.000197
 70
0
  0
VERTEX
  8
20
 10
2.795276
 20
2.637697
 30
0.000000
 42
1.000000
  0
VERTEX
  8
20
 10
2.795276
 20
2.637894
 30
0.000000
  0
SEQEND
  8
0
  0
POLYLINE
  8
20
 66
1
 10
0.000000
 20
0.000000
 30
0.000000
 40
0.000197
 41
0.000197
 70
0
  0
VERTEX
  8
20
 10
2.598425
 20
2.637894
 30
0.000000
 42
1.000000
  0
VERTEX
  8
20
 10
2.598425
 20
2.637697
 30
0.000000
  0
SEQEND
  8
0
  0
POLYLINE
  8
20
 66
1
 10
0.000000
 20
0.000000
 30
0.000000
 40
0.000394
 41
0.000394
 70
0
  0
VERTEX
  8
20
 10
0.000000
 20
1.535433
 30
0.000000
  0
VERTEX
  8
20
 10
1.102362
 20
1.535433
 30
0.000000
  0
SEQEND
  8
0
  0
POLYLINE
  8
20
 66
1
 10
0.000000
 20
0.000000
 30
0.000000
 40
0.000197
 41
0.000197
 70
0
  0
VERTEX
  8
20
 10
1.102362
 20
1.535335
 30
0.000000
 42
1.000000
  0
VERTEX
  8
20
 10
1.102362
 20
1.535531
 30
0.000000
  0
SEQEND
  8
0
  0
POLYLINE
  8
20
 66
1
 10
0.000000
 20
0.000000
 30
0.000000
 40
0.000197
 41
0.000197
 70
0
  0
VERTEX
  8
20
 10
0.000000
 20
1.535531
 30
0.000000
 42
1.000000
  0
VERTEX
  8
20
 10
0.000000
 20
1.535335
 30
0.000000
  0
SEQEND
  8
0
  0
POLYLINE
  8
20
 66
1
 10
0.000000
 20
0.000000
 30
0.000000
 40
0.000394
 41
0.000394
 70
0
  0
VERTEX
  8
20
 10
1.102362
 20
1.535433
 30
0.000000
  0
VERTEX
  8
20
 10
1.102362
 20
1.692913
 30
0.000000
  0
SEQEND
  8
0
  0
POLYLINE
  8
20
 66
1
 10
0.000000
 20
0.000000
 30
0.000000
 40
0.000197
 41
0.000197
 70
0
  0
VERTEX
  8
20
 10
1.102461
 20
1.692913
 30
0.000000
 42
1.000000
  0
VERTEX
  8
20
 10
1.102264
 20
1.692913
 30
0.000000
  0
SEQEND
  8
0
  0
POLYLINE
  8
20
 66
1
 10
0.000000
 20
0.000000
 30
0.000000
 40
0.000197
 41
0.000197
 70
0
  0
VERTEX
  8
20
 10
1.102264
 20
1.535433
 30
0.000000
 42
1.000000
  0
VERTEX
  8
20
 10
1.102461
 20
1.535433
 30
0.000000
  0
SEQEND
  8
0
  0
POLYLINE
  8
20
 66
1
 10
0.000000
 20
0.000000
 30
0.000000
 40
0.000394
 41
0.000394
 70
0
  0
VERTEX
  8
20
 10
1.102362
 20
1.692913
 30
0.000000
  0
VERTEX
  8
20
 10
1.692913
 20
1.692913
 30
0.000000
  0
SEQEND
  8
0
  0
POLYLINE
  8
20
 66
1
 10
0.000000
 20
0.000000
 30
0.000000
 40
0.000197
 41
0.000197
 70
0
  0
VERTEX
  8
20
 10
1.692913
 20
1.692815
 30
0.000000
 42
1.000000
  0
VERTEX
  8
20
 10
1.692913
 20
1.693012
 30
0.000000
  0
SEQEND
  8
0
  0
POLYLINE
  8
20
 66
1
 10
0.000000
 20
0.000000
 30
0.000000
 40
0.000197
 41
0.000197
 70
0
  0
VERTEX
  8
20
 10
1.102362
 20
1.693012
 30
0.000000
 42
1.000000
  0
VERTEX
  8
20
 10
1.102362
 20
1.692815
 30
0.000000
  0
SEQEND
  8
0
  0
POLYLINE
  8
20
 66
1
 10
0.000000
 20
0.000000
 30
0.000000
 40
0.000394
 41
0.000394
 70
0
  0
VERTEX
  8
20
 10
1.692913
 20
1.692913
 30
0.000000
  0
VERTEX
  8
20
 10
1.692913
 20
2.125984
 30
0.000000
  0
SEQEND
  8
0
  0
POLYLINE
  8
20
 66
1
 10
0.000000
 20
0.000000
 30
0.000000
 40
0.000197
 41
0.000197
 70
0
  0
VERTEX
  8
20
 10
1.693012
 20
2.125984
 30
0.000000
 42
1.000000
  0
VERTEX
  8
20
 10
1.692815
 20
2.125984
 30
0.000000
  0
SEQEND
  8
0
  0
POLYLINE
  8
20
 66
1
 10
0.000000
 20
0.000000
 30
0.000000
 40
0.000197
 41
0.000197
 70
0
  0
VERTEX
  8
20
 10
1.692815
 20
1.692913
 30
0.000000
 42
1.000000
  0
VERTEX
  8
20
 10
1.693012
 20
1.692913
 30
0.000000
  0
SEQEND
  8
0
  0
POLYLINE
  8
20
 66
1
 10
0.000000
 20
0.000000
 30
0.000000
 40
0.000394
 41
0.000394
 70
0
  0
VERTEX
  8
20
 10
1.692913
 20
2.125984
 30
0.000000
  0
VERTEX
  8
20
 10
1.102362
 20
2.125984
 30
0.000000
  0
SEQEND
  8
0
  0
POLYLINE
  8
20
 66
1
 10
0.000000
 20
0.000000
 30
0.000000
 40
0.000197
 41
0.000197
 70
0
  0
VERTEX
  8
20
 10
1.102362
 20
2.126083
 30
0.000000
 42
1.000000
  0
VERTEX
  8
20
 10
1.102362
 20
2.125886
 30
0.000000
  0
SEQEND
  8
0
  0
POLYLINE
  8
20
 66
1
 10
0.000000
 20
0.000000
 30
0.000000
 40
0.000197
 41
0.000197
 70
0
  0
VERTEX
  8
20
 10
1.692913
 20
2.125886
 30
0.000000
 42
1.000000
  0
VERTEX
  8
20
 10
1.692913
 20
2.126083
 30
0.000000
  0
SEQEND
  8
0
  0
POLYLINE
  8
20
 66
1
 10
0.000000
 20
0.000000
 30
0.000000
 40
0.000394
 41
0.000394
 70
0
  0
VERTEX
  8
20
 10
1.102362
 20
2.125984
 30
0.000000
  0
VERTEX
  8
20
 10
1.102362
 20
2.244094
 30
0.000000
  0
SEQEND
  8
0
  0
POLYLINE
  8
20
 66
1
 10
0.000000
 20
0.000000
 30
0.000000
 40
0.000197
 41
0.000197
 70
0
  0
VERTEX
  8
20
 10
1.102461
 20
2.244094
 30
0.000000
 42
1.000000
  0
VERTEX
  8
20
 10
1.102264
 20
2.244094
 30
0.000000
  0
SEQEND
  8
0
  0
POLYLINE
  8
20
 66
1
 10
0.000000
 20
0.000000
 30
0.000000
 40
0.000197
 41
0.000197
 70
0
  0
VERTEX
  8
20
 10
1.102264
 20
2.125984
 30
0.000000
 42
1.000000
  0
VERTEX
  8
20
 10
1.102461
 20
2.125984
 30
0.000000
  0
SEQEND
  8
0
  0
POLYLINE
  8
20
 66
1
 10
0.000000
 20
0.000000
 30
0.000000
 40
0.000394
 41
0.000394
 70
0
  0
VERTEX
  8
20
 10
2.795276
 20
2.677165
 30
0.000000
  0
VERTEX
  8
20
 10
2.598425
 20
2.677165
 30
0.000000
  0
SEQEND
  8
0
  0
POLYLINE
  8
20
 66
1
 10
0.000000
 20
0.000000
 30
0.000000
 40
0.000197
 41
0.000197
 70
0
  0
VERTEX
  8
20
 10
2.598425
 20
2.677264
 30
0.000000
 42
1.000000
  0
VERTEX
  8
20
 10
2.598425
 20
2.677067
 30
0.000000
  0
SEQEND
  8
0
  0
POLYLINE
  8
20
 66
1
 10
0.000000
 20
0.000000
 30
0.000000
 40
0.000197
 41
0.000197
 70
0
  0
VERTEX
  8
20
 10
2.795276
 20
2.677067
 30
0.000000
 42
1.000000
  0
VERTEX
  8
20
 10
2.795276
 20
2.677264
 30
0.000000
  0
SEQEND
  8
0
  0
POLYLINE
  8
20
 66
1
 10
0.000000
 20
0.000000
 30
0.000000
 40
0.000394
 41
0.000394
 70
0
  0
VERTEX
  8
20
 10
2.598425
 20
2.677165
 30
0.000000
  0
VERTEX
  8
20
 10
2.598425
 20
2.775591
 30
0.000000
  0
SEQEND
  8
0
  0
POLYLINE
  8
20
 66
1
 10
0.000000
 20
0.000000
 30
0.000000
 40
0.000197
 41
0.000197
 70
0
  0
VERTEX
  8
20
 10
2.598524
 20
2.775591
 30
0.000000
 42
1.000000
  0
VERTEX
  8
20
 10
2.598327
 20
2.775591
 30
0.000000
  0
SEQEND
  8
0
  0
POLYLINE
  8
20
 66
1
 10
0.000000
 20
0.000000
 30
0.000000
 40
0.000197
 41
0.000197
 70
0
  0
VERTEX
  8
20
 10
2.598327
 20
2.677165
 30
0.000000
 42
1.000000
  0
VERTEX
  8
20
 10
2.598524
 20
2.677165
 30
0.000000
  0
SEQEND
  8
0
  0
POLYLINE
  8
20
 66
1
 10
0.000000
 20
0.000000
 30
0.000000
 40
0.000394
 41
0.000394
 70
0
  0
VERTEX
  8
20
 10
2.598425
 20
2.775591
 30
0.000000
  0
VERTEX
  8
20
 10
0.000000
 20
2.775591
 30
0.000000
  0
SEQEND
  8
0
  0
POLYLINE
  8
20
 66
1
 10
0.000000
 20
0.000000
 30
0.000000
 40
0.000197
 41
0.000197
 70
0
  0
VERTEX
  8
20
 10
0.000000
 20
2.775689
 30
0.000000
 42
1.000000
  0
VERTEX
  8
20
 10
0.000000
 20
2.775492
 30
0.000000
  0
SEQEND
  8
0
  0
POLYLINE
  8
20
 66
1
 10
0.000000
 20
0.000000
 30
0.000000
 40
0.000197
 41
0.000197
 70
0
  0
VERTEX
  8
20
 10
2.598425
 20
2.775492
 30
0.000000
 42
1.000000
  0
VERTEX
  8
20
 10
2.598425
 20
2.775689
 30
0.000000
  0
SEQEND
  8
0
  0
LINE
  8
20
 10
2.834646
 20
4.389764
 30
0.000000
 11
2.834646
 21
2.578740
 31
0.000000
  0
LINE
  8
20
 10
5.629921
 20
2.814961
 30
0.000000
 11
5.629921
 21
3.366142
 31
0.000000
  0
LINE
  8
20
 10
5.629921
 20
4.114173
 30
0.000000
 11
5.629921
 21
4.389764
 31
0.000000
  0
ARC
  8
20
 10
5.590551
 20
4.389764
 30
0.000000
 40
0.039370
 50
0.000000
 51
90.000000
  0
LINE
  8
20
 10
5.590551
 20
4.429134
 30
0.000000
 11
2.874016
 21
4.429134
 31
0.000000
  0
ARC
  8
20
 10
2.874016
 20
4.389764
 30
0.000000
 40
0.039370
 50
90.000000
 51
180.000000
  0
POLYLINE
  8
20
 66
1
 10
0.000000
 20
0.000000
 30
0.000000
 40
0.000394
 41
0.000394
 70
0
  0
VERTEX
  8
20
 10
5.433071
 20
3.366142
 30
0.000000
  0
VERTEX
  8
20
 10
5.629921
 20
3.366142
 30
0.000000
  0
SEQEND
  8
0
  0
POLYLINE
  8
20
 66
1
 10
0.000000
 20
0.000000
 30
0.000000
 40
0.000197
 41
0.000197
 70
0
  0
VERTEX
  8
20
 10
5.629921
 20
3.366043
 30
0.000000
 42
1.000000
  0
VERTEX
  8
20
 10
5.629921
 20
3.366240
 30
0.000000
  0
SEQEND
  8
0
  0
POLYLINE
  8
20
 66
1
 10
0.000000
 20
0.000000
 30
0.000000
 40
0.000197
 41
0.000197
 70
0
  0
VERTEX
  8
20
 10
5.433071
 20
3.366240
 30
0.000000
 42
1.000000
  0
VERTEX
  8
20
 10
5.433071
 20
3.366043
 30
0.000000
  0
SEQEND
  8
0
  0
POLYLINE
  8
20
 66
1
 10
0.000000
 20
0.000000
 30
0.000000
 40
0.000394
 41
0.000394
 70
0
  0
VERTEX
  8
20
 10
3.937008
 20
2.421260
 30
0.000000
  0
VERTEX
  8
20
 10
4.527559
 20
2.421260
 30
0.000000
  0
SEQEND
  8
0
  0
POLYLINE
  8
20
 66
1
 10
0.000000
 20
0.000000
 30
0.000000
 40
0.000197
 41
0.000197
 70
0
  0
VERTEX
  8
20
 10
4.527559
 20
2.421161
 30
0.000000
 42
1.000000
  0
VERTEX
  8
20
 10
4.527559
 20
2.421358
 30
0.000000
  0
SEQEND
  8
0
  0
POLYLINE
  8
20
 66
1
 10
0.000000
 20
0.000000
 30
0.000000
 40
0.000197
 41
0.000197
 70
0
  0
VERTEX
  8
20
 10
3.937008
 20
2.421358
 30
0.000000
 42
1.000000
  0
VERTEX
  8
20
 10
3.937008
 20
2.421161
 30
0.000000
  0
SEQEND
  8
0
  0
POLYLINE
  8
20
 66
1
 10
0.000000
 20
0.000000
 30
0.000000
 40
0.000394
 41
0.000394
 70
0
  0
VERTEX
  8
20
 10
4.527559
 20
2.421260
 30
0.000000
  0
VERTEX
  8
20
 10
4.527559
 20
2.854331
 30
0.000000
  0
SEQEND
  8
0
  0
POLYLINE
  8
20
 66
1
 10
0.000000
 20
0.000000
 30
0.000000
 40
0.000197
 41
0.000197
 70
0
  0
VERTEX
  8
20
 10
4.527657
 20
2.854331
 30
0.000000
 42
1.000000
  0
VERTEX
  8
20
 10
4.527461
 20
2.854331
 30
0.000000
  0
SEQEND
  8
0
  0
POLYLINE
  8
20
 66
1
 10
0.000000
 20
0.000000
 30
0.000000
 40
0.000197
 41
0.000197
 70
0
  0
VERTEX
  8
20
 10
4.527461
 20
2.421260
 30
0.000000
 42
1.000000
  0
VERTEX
  8
20
 10
4.527657
 20
2.421260
 30
0.000000
  0
SEQEND
  8
0
  0
POLYLINE
  8
20
 66
1
 10
0.000000
 20
0.000000
 30
0.000000
 40
0.000394
 41
0.000394
 70
0
  0
VERTEX
  8
20
 10
4.527559
 20
2.854331
 30
0.000000
  0
VERTEX
  8
20
 10
3.937008
 20
2.854331
 30
0.000000
  0
SEQEND
  8
0
  0
POLYLINE
  8
20
 66
1
 10
0.000000
 20
0.000000
 30
0.000000
 40
0.000197
 41
0.000197
 70
0
  0
VERTEX
  8
20
 10
3.937008
 20
2.854429
 30
0.000000
 42
1.000000
  0
VERTEX
  8
20
 10
3.937008
 20
2.854232
 30
0.000000
  0
SEQEND
  8
0
  0
POLYLINE
  8
20
 66
1
 10
0.000000
 20
0.000000
 30
0.000000
 40
0.000197
 41
0.000197
 70
0
  0
VERTEX
  8
20
 10
4.527559
 20
2.854232
 30
0.000000
 42
1.000000
  0
VERTEX
  8
20
 10
4.527559
 20
2.854429
 30
0.000000
  0
SEQEND
  8
0
  0
POLYLINE
  8
20
 66
1
 10
0.000000
 20
0.000000
 30
0.000000
 40
0.000394
 41
0.000394
 70
0
  0
VERTEX
  8
20
 10
3.937008
 20
2.854331
 30
0.000000
  0
VERTEX
  8
20
 10
3.937008
 20
2.421260
 30
0.000000
  0
SEQEND
  8
0
  0
POLYLINE
  8
20
 66
1
 10
0.000000
 20
0.000000
 30
0.000000
 40
0.000197
 41
0.000197
 70
0
  0
VERTEX
  8
20
 10
3.936909
 20
2.421260
 30
0.000000
 42
1.000000
  0
VERTEX
  8
20
 10
3.937106
 20
2.421260
 30
0.000000
  0
SEQEND
  8
0
  0
POLYLINE
  8
20
 66
1
 10
0.000000
 20
0.000000
 30
0.000000
 40
0.000197
 41
0.000197
 70
0
  0
VERTEX
  8
20
 10
3.937106
 20
2.854331
 30
0.000000
 42
1.000000
  0
VERTEX
  8
20
 10
3.936909
 20
2.854331
 30
0.000000
  0
SEQEND
  8
0
  0
POLYLINE
  8
20
 66
1
 10
0.000000
 20
0.000000
 30
0.000000
 40
0.000394
 41
0.000394
 70
0
  0
VERTEX
  8
20
 10
5.629921
 20
4.114173
 30
0.000000
  0
VERTEX
  8
20
 10
5.433071
 20
4.114173
 30
0.000000
  0
SEQEND
  8
0
  0
POLYLINE
  8
20
 66
1
 10
0.000000
 20
0.000000
 30
0.000000
 40
0.000197
 41
0.000197
 70
0
  0
VERTEX
  8
20
 10
5.433071
 20
4.114272
 30
0.000000
 42
1.000000
  0
VERTEX
  8
20
 10
5.433071
 20
4.114075
 30
0.000000
  0
SEQEND
  8
0
  0
POLYLINE
  8
20
 66
1
 10
0.000000
 20
0.000000
 30
0.000000
 40
0.000197
 41
0.000197
 70
0
  0
VERTEX
  8
20
 10
5.629921
 20
4.114075
 30
0.000000
 42
1.000000
  0
VERTEX
  8
20
 10
5.629921
 20
4.114272
 30
0.000000
  0
SEQEND
  8
0
  0
POLYLINE
  8
20
 66
1
 10
0.000000
 20
0.000000
 30
0.000000
 40
0.000394
 41
0.000394
 70
0
  0
VERTEX
  8
20
 10
5.433071
 20
4.114173
 30
0.000000
  0
VERTEX
  8
20
 10
5.433071
 20
3.366142
 30
0.000000
  0
SEQEND
  8
0
  0
POLYLINE
  8
20
 66
1
 10
0.000000
 20
0.000000
 30
0.000000
 40
0.000197
 41
0.000197
 70
0
  0
VERTEX
  8
20
 10
5.432972
 20
3.366142
 30
0.000000
 42
1.000000
  0
VERTEX
  8
20
 10
5.433169
 20
3.366142
 30
0.000000
  0
SEQEND
  8
0
  0
POLYLINE
  8
20
 66
1
 10
0.000000
 20
0.000000
 30
0.000000
 40
0.000197
 41
0.000197
 70
0
  0
VERTEX
  8
20
 10
5.433169
 20
4.114173
 30
0.000000
 42
1.000000
  0
VERTEX
  8
20
 10
5.432972
 20
4.114173
 30
0.000000
  0
SEQEND
  8
0
  0
POLYLINE
  8
20
 66
1
 10
0.000000
 20
0.000000
 30
0.000000
 40
0.000394
 41
0.000394
 70
0
  0
VERTEX
  8
20
 10
2.834646
 20
2.578740
 30
0.000000
  0
VERTEX
  8
20
 10
2.834646
 20
2.303150
 30
0.000000
  0
SEQEND
  8
0
  0
POLYLINE
  8
20
 66
1
 10
0.000000
 20
0.000000
 30
0.000000
 40
0.000197
 41
0.000197
 70
0
  0
VERTEX
  8
20
 10
2.834547
 20
2.303150
 30
0.000000
 42
1.000000
  0
VERTEX
  8
20
 10
2.834744
 20
2.303150
 30
0.000000
  0
SEQEND
  8
0
  0
POLYLINE
  8
20
 66
1
 10
0.000000
 20
0.000000
 30
0.000000
 40
0.000197
 41
0.000197
 70
0
  0
VERTEX
  8
20
 10
2.834744
 20
2.578740
 30
0.000000
 42
1.000000
  0
VERTEX
  8
20
 10
2.834547
 20
2.578740
 30
0.000000
  0
SEQEND
  8
0
  0
POLYLINE
  8
20
 66
1
 10
0.000000
 20
0.000000
 30
0.000000
 40
0.000394
 41
0.000394
 70
0
  0
VERTEX
  8
20
 10
2.834646
 20
2.303150
 30
0.000000
 42
0.414214
  0
VERTEX
  8
20
 10
2.874016
 20
2.263780
 30
0.000000
  0
SEQEND
  8
0
  0
POLYLINE
  8
20
 66
1
 10
0.000000
 20
0.000000
 30
0.000000
 40
0.000197
 41
0.000197
 70
0
  0
VERTEX
  8
20
 10
2.834744
 20
2.303150
 30
0.000000
 42
1.000000
  0
VERTEX
  8
20
 10
2.834547
 20
2.303150
 30
0.000000
  0
SEQEND
  8
0
  0
POLYLINE
  8
20
 66
1
 10
0.000000
 20
0.000000
 30
0.000000
 40
0.000197
 41
0.000197
 70
0
  0
VERTEX
  8
20
 10
2.874016
 20
2.263681
 30
0.000000
 42
1.000000
  0
VERTEX
  8
20
 10
2.874016
 20
2.263878
 30
0.000000
  0
SEQEND
  8
0
  0
POLYLINE
  8
20
 66
1
 10
0.000000
 20
0.000000
 30
0.000000
 40
0.000394
 41
0.000394
 70
0
  0
VERTEX
  8
20
 10
2.874016
 20
2.263780
 30
0.000000
  0
VERTEX
  8
20
 10
5.590551
 20
2.263780
 30
0.000000
  0
SEQEND
  8
0
  0
POLYLINE
  8
20
 66
1
 10
0.000000
 20
0.000000
 30
0.000000
 40
0.000197
 41
0.000197
 70
0
  0
VERTEX
  8
20
 10
5.590551
 20
2.263681
 30
0.000000
 42
1.000000
  0
VERTEX
  8
20
 10
5.590551
 20
2.263878
 30
0.000000
  0
SEQEND
  8
0
  0
POLYLINE
  8
20
 66
1
 10
0.000000
 20
0.000000
 30
0.000000
 40
0.000197
 41
0.000197
 70
0
  0
VERTEX
  8
20
 10
2.874016
 20
2.263878
 30
0.000000
 42
1.000000
  0
VERTEX
  8
20
 10
2.874016
 20
2.263681
 30
0.000000
  0
SEQEND
  8
0
  0
POLYLINE
  8
20
 66
1
 10
0.000000
 20
0.000000
 30
0.000000
 40
0.000394
 41
0.000394
 70
0
  0
VERTEX
  8
20
 10
5.590551
 20
2.263780
 30
0.000000
 42
0.414214
  0
VERTEX
  8
20
 10
5.629921
 20
2.303150
 30
0.000000
  0
SEQEND
  8
0
  0
POLYLINE
  8
20
 66
1
 10
0.000000
 20
0.000000
 30
0.000000
 40
0.000197
 41
0.000197
 70
0
  0
VERTEX
  8
20
 10
5.590551
 20
2.263878
 30
0.000000
 42
1.000000
  0
VERTEX
  8
20
 10
5.590551
 20
2.263681
 30
0.000000
  0
SEQEND
  8
0
  0
POLYLINE
  8
20
 66
1
 10
0.000000
 20
0.000000
 30
0.000000
 40
0.000197
 41
0.000197
 70
0
  0
VERTEX
  8
20
 10
5.630020
 20
2.303150
 30
0.000000
 42
1.000000
  0
VERTEX
  8
20
 10
5.629823
 20
2.303150
 30
0.000000
  0
SEQEND
  8
0
  0
POLYLINE
  8
20
 66
1
 10
0.000000
 20
0.000000
 30
0.000000
 40
0.000394
 41
0.000394
 70
0
  0
VERTEX
  8
20
 10
5.629921
 20
2.303150
 30
0.000000
  0
VERTEX
  8
20
 10
5.629921
 20
2.814961
 30
0.000000
  0
SEQEND
  8
0
  0
POLYLINE
  8
20
 66
1
 10
0.000000
 20
0.000000
 30
0.000000
 40
0.000197
 41
0.000197
 70
0
  0
VERTEX
  8
20
 10
5.630020
 20
2.814961
 30
0.000000
 42
1.000000
  0
VERTEX
  8
20
 10
5.629823
 20
2.814961
 30
0.000000
  0
SEQEND
  8
0
  0
POLYLINE
  8
20
 66
1
 10
0.000000
 20
0.000000
 30
0.000000
 40
0.000197
 41
0.000197
 70
0
  0
VERTEX
  8
20
 10
5.629823
 20
2.303150
 30
0.000000
 42
1.000000
  0
VERTEX
  8
20
 10
5.630020
 20
2.303150
 30
0.000000
  0
SEQEND
  8
0
  0
LINE
  8
20
 10
2.834646
 20
2.125984
 30
0.000000
 11
2.834646
 21
0.314961
 31
0.000000
  0
LINE
  8
20
 10
5.629921
 20
0.551181
 30
0.000000
 11
5.629921
 21
1.102362
 31
0.000000
  0
LINE
  8
20
 10
5.629921
 20
1.850394
 30
0.000000
 11
5.629921
 21
2.125984
 31
0.000000
  0
ARC
  8
20
 10
5.590551
 20
2.125984
 30
0.000000
 40
0.039370
 50
0.000000
 51
90.000000
  0
LINE
  8
20
 10
5.590551
 20
2.165354
 30
0.000000
 11
2.874016
 21
2.165354
 31
0.000000
  0
ARC
  8
20
 10
2.874016
 20
2.125984
 30
0.000000
 40
0.039370
 50
90.000000
 51
180.000000
  0
POLYLINE
  8
20
 66
1
 10
0.000000
 20
0.000000
 30
0.000000
 40
0.000394
 41
0.000394
 70
0
  0
VERTEX
  8
20
 10
5.629921
 20
1.850394
 30
0.000000
  0
VERTEX
  8
20
 10
5.629921
 20
1.102362
 30
0.000000
  0
SEQEND
  8
0
  0
POLYLINE
  8
20
 66
1
 10
0.000000
 20
0.000000
 30
0.000000
 40
0.000197
 41
0.000197
 70
0
  0
VERTEX
  8
20
 10
5.629823
 20
1.102362
 30
0.000000
 42
1.000000
  0
VERTEX
  8
20
 10
5.630020
 20
1.102362
 30
0.000000
  0
SEQEND
  8
0
  0
POLYLINE
  8
20
 66
1
 10
0.000000
 20
0.000000
 30
0.000000
 40
0.000197
 41
0.000197
 70
0
  0
VERTEX
  8
20
 10
5.630020
 20
1.850394
 30
0.000000
 42
1.000000
  0
VERTEX
  8
20
 10
5.629823
 20
1.850394
 30
0.000000
  0
SEQEND
  8
0
  0
POLYLINE
  8
20
 66
1
 10
0.000000
 20
0.000000
 30
0.000000
 40
0.000394
 41
0.000394
 70
0
  0
VERTEX
  8
20
 10
2.834646
 20
0.314961
 30
0.000000
  0
VERTEX
  8
20
 10
2.834646
 20
0.039370
 30
0.000000
  0
SEQEND
  8
0
  0
POLYLINE
  8
20
 66
1
 10
0.000000
 20
0.000000
 30
0.000000
 40
0.000197
 41
0.000197
 70
0
  0
VERTEX
  8
20
 10
2.834547
 20
0.039370
 30
0.000000
 42
1.000000
  0
VERTEX
  8
20
 10
2.834744
 20
0.039370
 30
0.000000
  0
SEQEND
  8
0
  0
POLYLINE
  8
20
 66
1
 10
0.000000
 20
0.000000
 30
0.000000
 40
0.000197
 41
0.000197
 70
0
  0
VERTEX
  8
20
 10
2.834744
 20
0.314961
 30
0.000000
 42
1.000000
  0
VERTEX
  8
20
 10
2.834547
 20
0.314961
 30
0.000000
  0
SEQEND
  8
0
  0
POLYLINE
  8
20
 66
1
 10
0.000000
 20
0.000000
 30
0.000000
 40
0.000394
 41
0.000394
 70
0
  0
VERTEX
  8
20
 10
2.834646
 20
0.039370
 30
0.000000
 42
0.414214
  0
VERTEX
  8
20
 10
2.874016
 20
0.000000
 30
0.000000
  0
SEQEND
  8
0
  0
POLYLINE
  8
20
 66
1
 10
0.000000
 20
0.000000
 30
0.000000
 40
0.000197
 41
0.000197
 70
0
  0
VERTEX
  8
20
 10
2.834744
 20
0.039370
 30
0.000000
 42
1.000000
  0
VERTEX
  8
20
 10
2.834547
 20
0.039370
 30
0.000000
  0
SEQEND
  8
0
  0
POLYLINE
  8
20
 66
1
 10
0.000000
 20
0.000000
 30
0.000000
 40
0.000197
 41
0.000197
 70
0
  0
VERTEX
  8
20
 10
2.874016
 20
-0.000098
 30
0.000000
 42
1.000000
  0
VERTEX
  8
20
 10
2.874016
 20
0.000098
 30
0.000000
  0
SEQEND
  8
0
  0
POLYLINE
  8
20
 66
1
 10
0.000000
 20
0.000000
 30
0.000000
 40
0.000394
 41
0.000394
 70
0
  0
VERTEX
  8
20
 10
2.874016
 20
0.000000
 30
0.000000
  0
VERTEX
  8
20
 10
5.590551
 20
0.000000
 30
0.000000
  0
SEQEND
  8
0
  0
POLYLINE
  8
20
 66
1
 10
0.000000
 20
0.000000
 30
0.000000
 40
0.000197
 41
0.000197
 70
0
  0
VERTEX
  8
20
 10
5.590551
 20
-0.000098
 30
0.000000
 42
1.000000
  0
VERTEX
  8
20
 10
5.590551
 20
0.000098
 30
0.000000
  0
SEQEND
  8
0
  0
POLYLINE
  8
20
 66
1
 10
0.000000
 20
0.000000
 30
0.000000
 40
0.000197
 41
0.000197
 70
0
  0
VERTEX
  8
20
 10
2.874016
 20
0.000098
 30
0.000000
 42
1.000000
  0
VERTEX
  8
20
 10
2.874016
 20
-0.000098
 30
0.000000
  0
SEQEND
  8
0
  0
POLYLINE
  8
20
 66
1
 10
0.000000
 20
0.000000
 30
0.000000
 40
0.000394
 41
0.000394
 70
0
  0
VERTEX
  8
20
 10
5.590551
 20
0.000000
 30
0.000000
 42
0.414214
  0
VERTEX
  8
20
 10
5.629921
 20
0.039370
 30
0.000000
  0
SEQEND
  8
0
  0
POLYLINE
  8
20
 66
1
 10
0.000000
 20
0.000000
 30
0.000000
 40
0.000197
 41
0.000197
 70
0
  0
VERTEX
  8
20
 10
5.590551
 20
0.000098
 30
0.000000
 42
1.000000
  0
VERTEX
  8
20
 10
5.590551
 20
-0.000098
 30
0.000000
  0
SEQEND
  8
0
  0
POLYLINE
  8
20
 66
1
 10
0.000000
 20
0.000000
 30
0.000000
 40
0.000197
 41
0.000197
 70
0
  0
VERTEX
  8
20
 10
5.630020
 20
0.039370
 30
0.000000
 42
1.000000
  0
VERTEX
  8
20
 10
5.629823
 20
0.039370
 30
0.000000
  0
SEQEND
  8
0
  0
POLYLINE
  8
20
 66
1
 10
0.000000
 20
0.000000
 30
0.000000
 40
0.000394
 41
0.000394
 70
0
  0
VERTEX
  8
20
 10
5.629921
 20
0.039370
 30
0.000000
  0
VERTEX
  8
20
 10
5.629921
 20
0.551181
 30
0.000000
  0
SEQEND
  8
0
  0
POLYLINE
  8
20
 66
1
 10
0.000000
 20
0.000000
 30
0.000000
 40
0.000197
 41
0.000197
 70
0
  0
VERTEX
  8
20
 10
5.630020
 20
0.551181
 30
0.000000
 42
1.000000
  0
VERTEX
  8
20
 10
5.629823
 20
0.551181
 30
0.000000
  0
SEQEND
  8
0
  0
POLYLINE
  8
20
 66
1
 10
0.000000
 20
0.000000
 30
0.000000
 40
0.000197
 41
0.000197
 70
0
  0
VERTEX
  8
20
 10
5.629823
 20
0.039370
 30
0.000000
 42
1.000000
  0
VERTEX
  8
20
 10
5.630020
 20
0.039370
 30
0.000000
  0
SEQEND
  8
0
  0
LINE
  8
20
 10
2.834646
 20
6.732283
 30
0.000000
 11
2.834646
 21
4.566929
 31
0.000000
  0
ARC
  8
20
 10
2.874016
 20
4.566929
 30
0.000000
 40
0.039370
 50
180.000000
 51
270.000000
  0
LINE
  8
20
 10
2.874016
 20
4.527559
 30
0.000000
 11
5.590551
 21
4.527559
 31
0.000000
  0
ARC
  8
20
 10
5.590551
 20
4.566929
 30
0.000000
 40
0.039370
 50
270.000000
 51
0.000000
  0
LINE
  8
20
 10
5.629921
 20
4.566929
 30
0.000000
 11
5.629921
 21
6.732283
 31
0.000000
  0
ARC
  8
20
 10
5.590551
 20
6.732283
 30
0.000000
 40
0.039370
 50
0.000000
 51
90.000000
  0
LINE
  8
20
 10
5.590551
 20
6.771654
 30
0.000000
 11
2.874016
 21
6.771654
 31
0.000000
  0
ARC
  8
20
 10
2.874016
 20
6.732283
 30
0.000000
 40
0.039370
 50
90.000000
 51
180.000000
  0
LINE
  8
20
 10
5.669291
 20
2.952756
 30
0.000000
 11
5.669291
 21
2.775591
 31
0.000000
  0
LINE
  8
20
 10
5.669291
 20
1.535433
 30
0.000000
 11
5.669291
 21
0.039370
 31
0.000000
  0
ARC
  8
20
 10
5.708661
 20
0.039370
 30
0.000000
 40
0.039370
 50
180.000000
 51
270.000000
  0
LINE
  8
20
 10
5.708661
 20
0.000000
 30
0.000000
 11
8.425197
 21
0.000000
 31
0.000000
  0
ARC
  8
20
 10
8.425197
 20
0.039370
 30
0.000000
 40
0.039370
 50
270.000000
 51
0.000000
  0
LINE
  8
20
 10
8.464567
 20
0.039370
 30
0.000000
 11
8.464567
 21
2.637795
 31
0.000000
  0
LINE
  8
20
 10
8.464567
 20
2.677165
 30
0.000000
 11
8.464567
 21
2.952756
 31
0.000000
  0
ARC
  8
20
 10
8.425197
 20
2.952756
 30
0.000000
 40
0.039370
 50
0.000000
 51
90.000000
  0
LINE
  8
20
 10
8.425197
 20
2.992126
 30
0.000000
 11
5.708661
 21
2.992126
 31
0.000000
  0
ARC
  8
20
 10
5.708661
 20
2.952756
 30
0.000000
 40
0.039370
 50
90.000000
 51
180.000000
  0
LINE
  8
20
 10
5.669291
 20
6.732283
 30
0.000000
 11
5.669291
 21
3.110236
 31
0.000000
  0
ARC
  8
20
 10
5.708661
 20
3.110236
 30
0.000000
 40
0.039370
 50
180.000000
 51
270.000000
  0
LINE
  8
20
 10
5.708661
 20
3.070866
 30
0.000000
 11
8.425197
 21
3.070866
 31
0.000000
  0
ARC
  8
20
 10
8.425197
 20
3.110236
 30
0.000000
 40
0.039370
 50
270.000000
 51
0.000000
  0
LINE
  8
20
 10
8.464567
 20
3.110236
 30
0.000000
 11
8.464567
 21
6.732283
 31
0.000000
  0
ARC
  8
20
 10
8.425197
 20
6.732283
 30
0.000000
 40
0.039370
 50
0.000000
 51
90.000000
  0
LINE
  8
20
 10
8.425197
 20
6.771654
 30
0.000000
 11
5.708661
 21
6.771654
 31
0.000000
  0
ARC
  8
20
 10
5.708661
 20
6.732283
 30
0.000000
 40
0.039370
 50
90.000000
 51
180.000000
  0
LINE
  8
20
 10
7.506339
 20
4.220569
 30
0.000000
 11
7.065356
 21
4.381074
 31
0.000000
  0
ARC
  8
20
 10
7.058623
 20
4.362576
 30
0.000000
 40
0.019685
 50
69.999807
 51
159.999929
  0
LINE
  8
20
 10
7.040125
 20
4.369309
 30
0.000000
 11
6.865076
 21
3.888364
 31
0.000000
  0
ARC
  8
20
 10
6.883574
 20
3.881631
 30
0.000000
 40
0.019685
 50
160.000265
 51
250.000143
  0
LINE
  8
20
 10
6.876841
 20
3.863133
 30
0.000000
 11
7.279481
 21
3.716584
 31
0.000000
  0
LINE
  8
20
 10
7.759322
 20
3.423391
 30
0.000000
 11
8.200305
 21
3.262887
 31
0.000000
  0
ARC
  8
20
 10
8.207038
 20
3.281384
 30
0.000000
 40
0.019685
 50
249.999807
 51
339.999929
  0
LINE
  8
20
 10
8.225536
 20
3.274652
 30
0.000000
 11
8.400586
 21
3.755597
 31
0.000000
  0
ARC
  8
20
 10
8.382088
 20
3.762330
 30
0.000000
 40
0.019685
 50
340.000265
 51
70.000143
  0
LINE
  8
20
 10
8.388820
 20
3.780828
 30
0.000000
 11
8.004679
 21
3.920644
 31
0.000000
  0
ARC
  8
20
 10
8.011411
 20
3.939142
 30
0.000000
 40
0.019685
 50
160.000265
 51
250.000143
  0
LINE
  8
20
 10
7.992913
 20
3.945874
 30
0.000000
 11
8.132869
 21
4.330400
 31
0.000000
  0
ARC
  8
20
 10
8.114371
 20
4.337133
 30
0.000000
 40
0.019685
 50
340.000265
 51
70.000143
  0
LINE
  8
20
 10
8.121104
 20
4.355631
 30
0.000000
 11
7.640159
 21
4.530680
 31
0.000000
  0
ARC
  8
20
 10
7.633426
 20
4.512183
 30
0.000000
 40
0.019685
 50
69.999807
 51
159.999929
  0
LINE
  8
20
 10
7.614929
 20
4.518915
 30
0.000000
 11
7.506339
 21
4.220569
 31
0.000000
  0
LINE
  8
20
 10
7.126060
 20
3.295063
 30
0.000000
 11
7.625502
 21
3.113280
 31
0.000000
  0
ARC
  8
20
 10
7.632235
 20
3.131778
 30
0.000000
 40
0.019685
 50
249.999807
 51
339.999929
  0
LINE
  8
20
 10
7.650733
 20
3.125046
 30
0.000000
 11
7.759322
 21
3.423391
 31
0.000000
  0
LINE
  8
20
 10
7.279481
 20
3.716584
 30
0.000000
 11
7.126060
 21
3.295063
 31
0.000000
  0
POLYLINE
  8
20
 66
1
 10
0.000000
 20
0.000000
 30
0.000000
 40
0.000394
 41
0.000394
 70
0
  0
VERTEX
  8
20
 10
6.273762
 20
4.218364
 30
0.000000
  0
VERTEX
  8
20
 10
6.738049
 20
3.754077
 30
0.000000
  0
SEQEND
  8
0
  0
POLYLINE
  8
20
 66
1
 10
0.000000
 20
0.000000
 30
0.000000
 40
0.000197
 41
0.000197
 70
0
  0
VERTEX
  8
20
 10
6.737979
 20
3.754007
 30
0.000000
 42
1.000000
  0
VERTEX
  8
20
 10
6.738119
 20
3.754146
 30
0.000000
  0
SEQEND
  8
0
  0
POLYLINE
  8
20
 66
1
 10
0.000000
 20
0.000000
 30
0.000000
 40
0.000197
 41
0.000197
 70
0
  0
VERTEX
  8
20
 10
6.273832
 20
4.218434
 30
0.000000
 42
1.000000
  0
VERTEX
  8
20
 10
6.273692
 20
4.218294
 30
0.000000
  0
SEQEND
  8
0
  0
POLYLINE
  8
20
 66
1
 10
0.000000
 20
0.000000
 30
0.000000
 40
0.000394
 41
0.000394
 70
0
  0
VERTEX
  8
20
 10
6.738049
 20
3.726238
 30
0.000000
 42
0.414214
  0
VERTEX
  8
20
 10
6.738049
 20
3.754077
 30
0.000000
  0
SEQEND
  8
0
  0
POLYLINE
  8
20
 66
1
 10
0.000000
 20
0.000000
 30
0.000000
 40
0.000197
 41
0.000197
 70
0
  0
VERTEX
  8
20
 10
6.737979
 20
3.726308
 30
0.000000
 42
1.000000
  0
VERTEX
  8
20
 10
6.738119
 20
3.726168
 30
0.000000
  0
SEQEND
  8
0
  0
POLYLINE
  8
20
 66
1
 10
0.000000
 20
0.000000
 30
0.000000
 40
0.000197
 41
0.000197
 70
0
  0
VERTEX
  8
20
 10
6.738119
 20
3.754146
 30
0.000000
 42
1.000000
  0
VERTEX
  8
20
 10
6.737979
 20
3.754007
 30
0.000000
  0
SEQEND
  8
0
  0
POLYLINE
  8
20
 66
1
 10
0.000000
 20
0.000000
 30
0.000000
 40
0.000394
 41
0.000394
 70
0
  0
VERTEX
  8
20
 10
6.738049
 20
3.726238
 30
0.000000
  0
VERTEX
  8
20
 10
6.273762
 20
3.261951
 30
0.000000
  0
SEQEND
  8
0
  0
POLYLINE
  8
20
 66
1
 10
0.000000
 20
0.000000
 30
0.000000
 40
0.000197
 41
0.000197
 70
0
  0
VERTEX
  8
20
 10
6.273692
 20
3.262021
 30
0.000000
 42
1.000000
  0
VERTEX
  8
20
 10
6.273832
 20
3.261881
 30
0.000000
  0
SEQEND
  8
0
  0
POLYLINE
  8
20
 66
1
 10
0.000000
 20
0.000000
 30
0.000000
 40
0.000197
 41
0.000197
 70
0
  0
VERTEX
  8
20
 10
6.738119
 20
3.726168
 30
0.000000
 42
1.000000
  0
VERTEX
  8
20
 10
6.737979
 20
3.726308
 30
0.000000
  0
SEQEND
  8
0
  0
POLYLINE
  8
20
 66
1
 10
0.000000
 20
0.000000
 30
0.000000
 40
0.000394
 41
0.000394
 70
0
  0
VERTEX
  8
20
 10
6.245923
 20
3.261951
 30
0.000000
 42
0.414214
  0
VERTEX
  8
20
 10
6.273762
 20
3.261951
 30
0.000000
  0
SEQEND
  8
0
  0
POLYLINE
  8
20
 66
1
 10
0.000000
 20
0.000000
 30
0.000000
 40
0.000197
 41
0.000197
 70
0
  0
VERTEX
  8
20
 10
6.245993
 20
3.262021
 30
0.000000
 42
1.000000
  0
VERTEX
  8
20
 10
6.245854
 20
3.261881
 30
0.000000
  0
SEQEND
  8
0
  0
POLYLINE
  8
20
 66
1
 10
0.000000
 20
0.000000
 30
0.000000
 40
0.000197
 41
0.000197
 70
0
  0
VERTEX
  8
20
 10
6.273832
 20
3.261881
 30
0.000000
 42
1.000000
  0
VERTEX
  8
20
 10
6.273692
 20
3.262021
 30
0.000000
  0
SEQEND
  8
0
  0
POLYLINE
  8
20
 66
1
 10
0.000000
 20
0.000000
 30
0.000000
 40
0.000394
 41
0.000394
 70
0
  0
VERTEX
  8
20
 10
6.245923
 20
3.261951
 30
0.000000
  0
VERTEX
  8
20
 10
5.781636
 20
3.726238
 30
0.000000
  0
SEQEND
  8
0
  0
POLYLINE
  8
20
 66
1
 10
0.000000
 20
0.000000
 30
0.000000
 40
0.000197
 41
0.000197
 70
0
  0
VERTEX
  8
20
 10
5.781706
 20
3.726308
 30
0.000000
 42
1.000000
  0
VERTEX
  8
20
 10
5.781566
 20
3.726168
 30
0.000000
  0
SEQEND
  8
0
  0
POLYLINE
  8
20
 66
1
 10
0.000000
 20
0.000000
 30
0.000000
 40
0.000197
 41
0.000197
 70
0
  0
VERTEX
  8
20
 10
6.245854
 20
3.261881
 30
0.000000
 42
1.000000
  0
VERTEX
  8
20
 10
6.245993
 20
3.262021
 30
0.000000
  0
SEQEND
  8
0
  0
POLYLINE
  8
20
 66
1
 10
0.000000
 20
0.000000
 30
0.000000
 40
0.000394
 41
0.000394
 70
0
  0
VERTEX
  8
20
 10
5.781636
 20
3.754077
 30
0.000000
 42
0.414214
  0
VERTEX
  8
20
 10
5.781636
 20
3.726238
 30
0.000000
  0
SEQEND
  8
0
  0
POLYLINE
  8
20
 66
1
 10
0.000000
 20
0.000000
 30
0.000000
 40
0.000197
 41
0.000197
 70
0
  0
VERTEX
  8
20
 10
5.781706
 20
3.754007
 30
0.000000
 42
1.000000
  0
VERTEX
  8
20
 10
5.781566
 20
3.754146
 30
0.000000
  0
SEQEND
  8
0
  0
POLYLINE
  8
20
 66
1
 10
0.000000
 20
0.000000
 30
0.000000
 40
0.000197
 41
0.000197
 70
0
  0
VERTEX
  8
20
 10
5.781566
 20
3.726168
 30
0.000000
 42
1.000000
  0
VERTEX
  8
20
 10
5.781706
 20
3.726308
 30
0.000000
  0
SEQEND
  8
0
  0
POLYLINE
  8
20
 66
1
 10
0.000000
 20
0.000000
 30
0.000000
 40
0.000394
 41
0.000394
 70
0
  0
VERTEX
  8
20
 10
5.781636
 20
3.754077
 30
0.000000
  0
VERTEX
  8
20
 10
6.245923
 20
4.218364
 30
0.000000
  0
SEQEND
  8
0
  0
POLYLINE
  8
20
 66
1
 10
0.000000
 20
0.000000
 30
0.000000
 40
0.000197
 41
0.000197
 70
0
  0
VERTEX
  8
20
 10
6.245993
 20
4.218294
 30
0.000000
 42
1.000000
  0
VERTEX
  8
20
 10
6.245854
 20
4.218434
 30
0.000000
  0
SEQEND
  8
0
  0
POLYLINE
  8
20
 66
1
 10
0.000000
 20
0.000000
 30
0.000000
 40
0.000197
 41
0.000197
 70
0
  0
VERTEX
  8
20
 10
5.781566
 20
3.754146
 30
0.000000
 42
1.000000
  0
VERTEX
  8
20
 10
5.781706
 20
3.754007
 30
0.000000
  0
SEQEND
  8
0
  0
POLYLINE
  8
20
 66
1
 10
0.000000
 20
0.000000
 30
0.000000
 40
0.000394
 41
0.000394
 70
0
  0
VERTEX
  8
20
 10
6.273762
 20
4.218364
 30
0.000000
 42
0.414214
  0
VERTEX
  8
20
 10
6.245923
 20
4.218364
 30
0.000000
  0
SEQEND
  8
0
  0
POLYLINE
  8
20
 66
1
 10
0.000000
 20
0.000000
 30
0.000000
 40
0.000197
 41
0.000197
 70
0
  0
VERTEX
  8
20
 10
6.273692
 20
4.218294
 30
0.000000
 42
1.000000
  0
VERTEX
  8
20
 10
6.273832
 20
4.218434
 30
0.000000
  0
SEQEND
  8
0
  0
POLYLINE
  8
20
 66
1
 10
0.000000
 20
0.000000
 30
0.000000
 40
0.000197
 41
0.000197
 70
0
  0
VERTEX
  8
20
 10
6.245854
 20
4.218434
 30
0.000000
 42
1.000000
  0
VERTEX
  8
20
 10
6.245993
 20
4.218294
 30
0.000000
  0
SEQEND
  8
0
  0
POLYLINE
  8
20
 66
1
 10
0.000000
 20
0.000000
 30
0.000000
 40
0.000394
 41
0.000394
 70
0
  0
VERTEX
  8
20
 10
5.905512
 20
4.468504
 30
0.000000
  0
VERTEX
  8
20
 10
5.905512
 20
4.311024
 30
0.000000
  0
SEQEND
  8
0
  0
POLYLINE
  8
20
 66
1
 10
0.000000
 20
0.000000
 30
0.000000
 40
0.000197
 41
0.000197
 70
0
  0
VERTEX
  8
20
 10
5.905413
 20
4.311024
 30
0.000000
 42
1.000000
  0
VERTEX
  8
20
 10
5.905610
 20
4.311024
 30
0.000000
  0
SEQEND
  8
0
  0
POLYLINE
  8
20
 66
1
 10
0.000000
 20
0.000000
 30
0.000000
 40
0.000197
 41
0.000197
 70
0
  0
VERTEX
  8
20
 10
5.905610
 20
4.468504
 30
0.000000
 42
1.000000
  0
VERTEX
  8
20
 10
5.905413
 20
4.468504
 30
0.000000
  0
SEQEND
  8
0
  0
POLYLINE
  8
20
 66
1
 10
0.000000
 20
0.000000
 30
0.000000
 40
0.000394
 41
0.000394
 70
0
  0
VERTEX
  8
20
 10
5.905512
 20
4.311024
 30
0.000000
 42
0.414214
  0
VERTEX
  8
20
 10
5.925197
 20
4.291339
 30
0.000000
  0
SEQEND
  8
0
  0
POLYLINE
  8
20
 66
1
 10
0.000000
 20
0.000000
 30
0.000000
 40
0.000197
 41
0.000197
 70
0
  0
VERTEX
  8
20
 10
5.905610
 20
4.311024
 30
0.000000
 42
1.000000
  0
VERTEX
  8
20
 10
5.905413
 20
4.311024
 30
0.000000
  0
SEQEND
  8
0
  0
POLYLINE
  8
20
 66
1
 10
0.000000
 20
0.000000
 30
0.000000
 40
0.000197
 41
0.000197
 70
0
  0
VERTEX
  8
20
 10
5.925197
 20
4.291240
 30
0.000000
 42
1.000000
  0
VERTEX
  8
20
 10
5.925197
 20
4.291437
 30
0.000000
  0
SEQEND
  8
0
  0
POLYLINE
  8
20
 66
1
 10
0.000000
 20
0.000000
 30
0.000000
 40
0.000394
 41
0.000394
 70
0
  0
VERTEX
  8
20
 10
5.925197
 20
4.488189
 30
0.000000
  0
VERTEX
  8
20
 10
6.594488
 20
4.488189
 30
0.000000
  0
SEQEND
  8
0
  0
POLYLINE
  8
20
 66
1
 10
0.000000
 20
0.000000
 30
0.000000
 40
0.000197
 41
0.000197
 70
0
  0
VERTEX
  8
20
 10
6.594488
 20
4.488091
 30
0.000000
 42
1.000000
  0
VERTEX
  8
20
 10
6.594488
 20
4.488287
 30
0.000000
  0
SEQEND
  8
0
  0
POLYLINE
  8
20
 66
1
 10
0.000000
 20
0.000000
 30
0.000000
 40
0.000197
 41
0.000197
 70
0
  0
VERTEX
  8
20
 10
5.925197
 20
4.488287
 30
0.000000
 42
1.000000
  0
VERTEX
  8
20
 10
5.925197
 20
4.488091
 30
0.000000
  0
SEQEND
  8
0
  0
POLYLINE
  8
20
 66
1
 10
0.000000
 20
0.000000
 30
0.000000
 40
0.000394
 41
0.000394
 70
0
  0
VERTEX
  8
20
 10
6.614173
 20
4.468504
 30
0.000000
 42
0.414214
  0
VERTEX
  8
20
 10
6.594488
 20
4.488189
 30
0.000000
  0
SEQEND
  8
0
  0
POLYLINE
  8
20
 66
1
 10
0.000000
 20
0.000000
 30
0.000000
 40
0.000197
 41
0.000197
 70
0
  0
VERTEX
  8
20
 10
6.614075
 20
4.468504
 30
0.000000
 42
1.000000
  0
VERTEX
  8
20
 10
6.614272
 20
4.468504
 30
0.000000
  0
SEQEND
  8
0
  0
POLYLINE
  8
20
 66
1
 10
0.000000
 20
0.000000
 30
0.000000
 40
0.000197
 41
0.000197
 70
0
  0
VERTEX
  8
20
 10
6.594488
 20
4.488287
 30
0.000000
 42
1.000000
  0
VERTEX
  8
20
 10
6.594488
 20
4.488091
 30
0.000000
  0
SEQEND
  8
0
  0
POLYLINE
  8
20
 66
1
 10
0.000000
 20
0.000000
 30
0.000000
 40
0.000394
 41
0.000394
 70
0
  0
VERTEX
  8
20
 10
6.614173
 20
4.468504
 30
0.000000
  0
VERTEX
  8
20
 10
6.614173
 20
4.311024
 30
0.000000
  0
SEQEND
  8
0
  0
POLYLINE
  8
20
 66
1
 10
0.000000
 20
0.000000
 30
0.000000
 40
0.000197
 41
0.000197
 70
0
  0
VERTEX
  8
20
 10
6.614075
 20
4.311024
 30
0.000000
 42
1.000000
  0
VERTEX
  8
20
 10
6.614272
 20
4.311024
 30
0.000000
  0
SEQEND
  8
0
  0
POLYLINE
  8
20
 66
1
 10
0.000000
 20
0.000000
 30
0.000000
 40
0.000197
 41
0.000197
 70
0
  0
VERTEX
  8
20
 10
6.614272
 20
4.468504
 30
0.000000
 42
1.000000
  0
VERTEX
  8
20
 10
6.614075
 20
4.468504
 30
0.000000
  0
SEQEND
  8
0
  0
POLYLINE
  8
20
 66
1
 10
0.000000
 20
0.000000
 30
0.000000
 40
0.000394
 41
0.000394
 70
0
  0
VERTEX
  8
20
 10
6.594488
 20
4.291339
 30
0.000000
 42
0.414214
  0
VERTEX
  8
20
 10
6.614173
 20
4.311024
 30
0.000000
  0
SEQEND
  8
0
  0
POLYLINE
  8
20
 66
1
 10
0.000000
 20
0.000000
 30
0.000000
 40
0.000197
 41
0.000197
 70
0
  0
VERTEX
  8
20
 10
6.594488
 20
4.291437
 30
0.000000
 42
1.000000
  0
VERTEX
  8
20
 10
6.594488
 20
4.291240
 30
0.000000
  0
SEQEND
  8
0
  0
POLYLINE
  8
20
 66
1
 10
0.000000
 20
0.000000
 30
0.000000
 40
0.000197
 41
0.000197
 70
0
  0
VERTEX
  8
20
 10
6.614272
 20
4.311024
 30
0.000000
 42
1.000000
  0
VERTEX
  8
20
 10
6.614075
 20
4.311024
 30
0.000000
  0
SEQEND
  8
0
  0
POLYLINE
  8
20
 66
1
 10
0.000000
 20
0.000000
 30
0.000000
 40
0.000394
 41
0.000394
 70
0
  0
VERTEX
  8
20
 10
6.594488
 20
4.291339
 30
0.000000
  0
VERTEX
  8
20
 10
5.925197
 20
4.291339
 30
0.000000
  0
SEQEND
  8
0
  0
POLYLINE
  8
20
 66
1
 10
0.000000
 20
0.000000
 30
0.000000
 40
0.000197
 41
0.000197
 70
0
  0
VERTEX
  8
20
 10
5.925197
 20
4.291437
 30
0.000000
 42
1.000000
  0
VERTEX
  8
20
 10
5.925197
 20
4.291240
 30
0.000000
  0
SEQEND
  8
0
  0
POLYLINE
  8
20
 66
1
 10
0.000000
 20
0.000000
 30
0.000000
 40
0.000197
 41
0.000197
 70
0
  0
VERTEX
  8
20
 10
6.594488
 20
4.291240
 30
0.000000
 42
1.000000
  0
VERTEX
  8
20
 10
6.594488
 20
4.291437
 30
0.000000
  0
SEQEND
  8
0
  0
POLYLINE
  8
20
 66
1
 10
0.000000
 20
0.000000
 30
0.000000
 40
0.000394
 41
0.000394
 70
0
  0
VERTEX
  8
20
 10
5.925197
 20
4.488189
 30
0.000000
 42
0.414214
  0
VERTEX
  8
20
 10
5.905512
 20
4.468504
 30
0.000000
  0
SEQEND
  8
0
  0
POLYLINE
  8
20
 66
1
 10
0.000000
 20
0.000000
 30
0.000000
 40
0.000197
 41
0.000197
 70
0
  0
VERTEX
  8
20
 10
5.925197
 20
4.488091
 30
0.000000
 42
1.000000
  0
VERTEX
  8
20
 10
5.925197
 20
4.488287
 30
0.000000
  0
SEQEND
  8
0
  0
POLYLINE
  8
20
 66
1
 10
0.000000
 20
0.000000
 30
0.000000
 40
0.000197
 41
0.000197
 70
0
  0
VERTEX
  8
20
 10
5.905413
 20
4.468504
 30
0.000000
 42
1.000000
  0
VERTEX
  8
20
 10
5.905610
 20
4.468504
 30
0.000000
  0
SEQEND
  8
0
  0
POLYLINE
  8
20
 66
1
 10
0.000000
 20
0.000000
 30
0.000000
 40
0.000394
 41
0.000394
 70
0
  0
VERTEX
  8
20
 10
5.708661
 20
6.535433
 30
0.000000
  0
VERTEX
  8
20
 10
8.425197
 20
6.535433
 30
0.000000
  0
SEQEND
  8
0
  0
POLYLINE
  8
20
 66
1
 10
0.000000
 20
0.000000
 30
0.000000
 40
0.000197
 41
0.000197
 70
0
  0
VERTEX
  8
20
 10
8.425197
 20
6.535335
 30
0.000000
 42
1.000000
  0
VERTEX
  8
20
 10
8.425197
 20
6.535531
 30
0.000000
  0
SEQEND
  8
0
  0
POLYLINE
  8
20
 66
1
 10
0.000000
 20
0.000000
 30
0.000000
 40
0.000197
 41
0.000197
 70
0
  0
VERTEX
  8
20
 10
5.708661
 20
6.535531
 30
0.000000
 42
1.000000
  0
VERTEX
  8
20
 10
5.708661
 20
6.535335
 30
0.000000
  0
SEQEND
  8
0
  0
POLYLINE
  8
20
 66
1
 10
0.000000
 20
0.000000
 30
0.000000
 40
0.000394
 41
0.000394
 70
0
  0
VERTEX
  8
20
 10
8.425197
 20
6.535433
 30
0.000000
  0
VERTEX
  8
20
 10
8.425197
 20
4.566929
 30
0.000000
  0
SEQEND
  8
0
  0
POLYLINE
  8
20
 66
1
 10
0.000000
 20
0.000000
 30
0.000000
 40
0.000197
 41
0.000197
 70
0
  0
VERTEX
  8
20
 10
8.425098
 20
4.566929
 30
0.000000
 42
1.000000
  0
VERTEX
  8
20
 10
8.425295
 20
4.566929
 30
0.000000
  0
SEQEND
  8
0
  0
POLYLINE
  8
20
 66
1
 10
0.000000
 20
0.000000
 30
0.000000
 40
0.000197
 41
0.000197
 70
0
  0
VERTEX
  8
20
 10
8.425295
 20
6.535433
 30
0.000000
 42
1.000000
  0
VERTEX
  8
20
 10
8.425098
 20
6.535433
 30
0.000000
  0
SEQEND
  8
0
  0
POLYLINE
  8
20
 66
1
 10
0.000000
 20
0.000000
 30
0.000000
 40
0.000394
 41
0.000394
 70
0
  0
VERTEX
  8
20
 10
8.425197
 20
4.566929
 30
0.000000
  0
VERTEX
  8
20
 10
5.708661
 20
4.566929
 30
0.000000
  0
SEQEND
  8
0
  0
POLYLINE
  8
20
 66
1
 10
0.000000
 20
0.000000
 30
0.000000
 40
0.000197
 41
0.000197
 70
0
  0
VERTEX
  8
20
 10
5.708661
 20
4.567028
 30
0.000000
 42
1.000000
  0
VERTEX
  8
20
 10
5.708661
 20
4.566831
 30
0.000000
  0
SEQEND
  8
0
  0
POLYLINE
  8
20
 66
1
 10
0.000000
 20
0.000000
 30
0.000000
 40
0.000197
 41
0.000197
 70
0
  0
VERTEX
  8
20
 10
8.425197
 20
4.566831
 30
0.000000
 42
1.000000
  0
VERTEX
  8
20
 10
8.425197
 20
4.567028
 30
0.000000
  0
SEQEND
  8
0
  0
POLYLINE
  8
20
 66
1
 10
0.000000
 20
0.000000
 30
0.000000
 40
0.000394
 41
0.000394
 70
0
  0
VERTEX
  8
20
 10
5.708661
 20
4.566929
 30
0.000000
  0
VERTEX
  8
20
 10
5.708661
 20
6.535433
 30
0.000000
  0
SEQEND
  8
0
  0
POLYLINE
  8
20
 66
1
 10
0.000000
 20
0.000000
 30
0.000000
 40
0.000197
 41
0.000197
 70
0
  0
VERTEX
  8
20
 10
5.708760
 20
6.535433
 30
0.000000
 42
1.000000
  0
VERTEX
  8
20
 10
5.708563
 20
6.535433
 30
0.000000
  0
SEQEND
  8
0
  0
POLYLINE
  8
20
 66
1
 10
0.000000
 20
0.000000
 30
0.000000
 40
0.000197
 41
0.000197
 70
0
  0
VERTEX
  8
20
 10
5.708563
 20
4.566929
 30
0.000000
 42
1.000000
  0
VERTEX
  8
20
 10
5.708760
 20
4.566929
 30
0.000000
  0
SEQEND
  8
0
  0
LINE
  8
20
 10
7.123083
 20
0.446521
 30
0.000000
 11
7.320175
 21
0.869185
 31
0.000000
  0
ARC
  8
20
 10
7.304762
 20
0.876373
 30
0.000000
 40
0.017006
 50
334.999671
 51
64.999846
  0
ARC
  8
20
 10
7.140924
 20
0.438201
 30
0.000000
 40
0.019685
 50
154.999937
 51
244.999937
  0
LINE
  8
20
 10
7.132605
 20
0.420361
 30
0.000000
 11
7.596463
 21
0.204060
 31
0.000000
  0
ARC
  8
20
 10
7.604782
 20
0.221901
 30
0.000000
 40
0.019685
 50
244.999937
 51
334.999937
  0
LINE
  8
20
 10
7.622623
 20
0.213581
 30
0.000000
 11
7.840056
 21
0.679867
 31
0.000000
  0
ARC
  8
20
 10
7.824643
 20
0.687055
 30
0.000000
 40
0.017006
 50
334.999671
 51
64.999846
  0
ARC
  8
20
 10
7.840149
 20
0.720308
 30
0.000000
 40
0.019685
 50
154.999937
 51
244.999937
  0
LINE
  8
20
 10
7.822309
 20
0.728628
 30
0.000000
 11
8.055459
 21
1.228621
 31
0.000000
  0
ARC
  8
20
 10
8.037619
 20
1.236940
 30
0.000000
 40
0.019685
 50
334.999937
 51
64.999937
  0
LINE
  8
20
 10
8.045938
 20
1.254781
 30
0.000000
 11
7.582079
 21
1.471081
 31
0.000000
  0
ARC
  8
20
 10
7.573760
 20
1.453241
 30
0.000000
 40
0.019685
 50
65.000175
 51
154.999699
  0
ARC
  8
20
 10
7.320269
 20
0.909626
 30
0.000000
 40
0.019685
 50
154.999937
 51
244.999937
  0
LINE
  8
20
 10
7.302428
 20
0.917945
 30
0.000000
 11
7.555919
 21
1.461560
 31
0.000000
  0
LINE
  8
20
 10
7.001253
 20
0.420361
 30
0.000000
 11
6.537395
 21
0.204060
 31
0.000000
  0
ARC
  8
20
 10
6.529076
 20
0.221901
 30
0.000000
 40
0.019685
 50
205.000063
 51
295.000063
  0
LINE
  8
20
 10
6.511235
 20
0.213581
 30
0.000000
 11
6.293803
 21
0.679867
 31
0.000000
  0
ARC
  8
20
 10
6.309216
 20
0.687055
 30
0.000000
 40
0.017006
 50
115.000154
 51
205.000329
  0
ARC
  8
20
 10
6.293709
 20
0.720308
 30
0.000000
 40
0.019685
 50
295.000063
 51
25.000063
  0
LINE
  8
20
 10
6.311550
 20
0.728628
 30
0.000000
 11
6.078399
 21
1.228621
 31
0.000000
  0
LINE
  8
20
 10
7.010775
 20
0.446521
 30
0.000000
 11
6.813683
 21
0.869185
 31
0.000000
  0
ARC
  8
20
 10
6.829096
 20
0.876373
 30
0.000000
 40
0.017006
 50
115.000154
 51
205.000329
  0
ARC
  8
20
 10
6.992934
 20
0.438201
 30
0.000000
 40
0.019685
 50
295.000063
 51
25.000063
  0
ARC
  8
20
 10
6.096240
 20
1.236940
 30
0.000000
 40
0.019685
 50
115.000063
 51
205.000063
  0
LINE
  8
20
 10
6.087920
 20
1.254781
 30
0.000000
 11
6.551779
 21
1.471081
 31
0.000000
  0
ARC
  8
20
 10
6.560098
 20
1.453241
 30
0.000000
 40
0.019685
 50
25.000301
 51
114.999825
  0
ARC
  8
20
 10
6.813590
 20
0.909626
 30
0.000000
 40
0.019685
 50
295.000063
 51
25.000063
  0
LINE
  8
20
 10
6.831430
 20
0.917945
 30
0.000000
 11
6.577939
 21
1.461560
 31
0.000000
  0
POLYLINE
  8
20
 66
1
 10
0.000000
 20
0.000000
 30
0.000000
 40
0.000394
 41
0.000394
 70
0
  0
VERTEX
  8
20
 10
6.771654
 20
2.244094
 30
0.000000
  0
VERTEX
  8
20
 10
8.267717
 20
2.244094
 30
0.000000
  0
SEQEND
  8
0
  0
POLYLINE
  8
20
 66
1
 10
0.000000
 20
0.000000
 30
0.000000
 40
0.000197
 41
0.000197
 70
0
  0
VERTEX
  8
20
 10
8.267717
 20
2.243996
 30
0.000000
 42
1.000000
  0
VERTEX
  8
20
 10
8.267717
 20
2.244193
 30
0.000000
  0
SEQEND
  8
0
  0
POLYLINE
  8
20
 66
1
 10
0.000000
 20
0.000000
 30
0.000000
 40
0.000197
 41
0.000197
 70
0
  0
VERTEX
  8
20
 10
6.771654
 20
2.244193
 30
0.000000
 42
1.000000
  0
VERTEX
  8
20
 10
6.771654
 20
2.243996
 30
0.000000
  0
SEQEND
  8
0
  0
POLYLINE
  8
20
 66
1
 10
0.000000
 20
0.000000
 30
0.000000
 40
0.000394
 41
0.000394
 70
0
  0
VERTEX
  8
20
 10
8.267717
 20
2.244094
 30
0.000000
  0
VERTEX
  8
20
 10
8.267717
 20
2.637795
 30
0.000000
  0
SEQEND
  8
0
  0
POLYLINE
  8
20
 66
1
 10
0.000000
 20
0.000000
 30
0.000000
 40
0.000197
 41
0.000197
 70
0
  0
VERTEX
  8
20
 10
8.267815
 20
2.637795
 30
0.000000
 42
1.000000
  0
VERTEX
  8
20
 10
8.267618
 20
2.637795
 30
0.000000
  0
SEQEND
  8
0
  0
POLYLINE
  8
20
 66
1
 10
0.000000
 20
0.000000
 30
0.000000
 40
0.000197
 41
0.000197
 70
0
  0
VERTEX
  8
20
 10
8.267618
 20
2.244094
 30
0.000000
 42
1.000000
  0
VERTEX
  8
20
 10
8.267815
 20
2.244094
 30
0.000000
  0
SEQEND
  8
0
  0
POLYLINE
  8
20
 66
1
 10
0.000000
 20
0.000000
 30
0.000000
 40
0.000394
 41
0.000394
 70
0
  0
VERTEX
  8
20
 10
8.267717
 20
2.637795
 30
0.000000
  0
VERTEX
  8
20
 10
8.464567
 20
2.637795
 30
0.000000
  0
SEQEND
  8
0
  0
POLYLINE
  8
20
 66
1
 10
0.000000
 20
0.000000
 30
0.000000
 40
0.000197
 41
0.000197
 70
0
  0
VERTEX
  8
20
 10
8.464567
 20
2.637697
 30
0.000000
 42
1.000000
  0
VERTEX
  8
20
 10
8.464567
 20
2.637894
 30
0.000000
  0
SEQEND
  8
0
  0
POLYLINE
  8
20
 66
1
 10
0.000000
 20
0.000000
 30
0.000000
 40
0.000197
 41
0.000197
 70
0
  0
VERTEX
  8
20
 10
8.267717
 20
2.637894
 30
0.000000
 42
1.000000
  0
VERTEX
  8
20
 10
8.267717
 20
2.637697
 30
0.000000
  0
SEQEND
  8
0
  0
POLYLINE
  8
20
 66
1
 10
0.000000
 20
0.000000
 30
0.000000
 40
0.000394
 41
0.000394
 70
0
  0
VERTEX
  8
20
 10
5.669291
 20
1.535433
 30
0.000000
  0
VERTEX
  8
20
 10
6.771654
 20
1.535433
 30
0.000000
  0
SEQEND
  8
0
  0
POLYLINE
  8
20
 66
1
 10
0.000000
 20
0.000000
 30
0.000000
 40
0.000197
 41
0.000197
 70
0
  0
VERTEX
  8
20
 10
6.771654
 20
1.535335
 30
0.000000
 42
1.000000
  0
VERTEX
  8
20
 10
6.771654
 20
1.535531
 30
0.000000
  0
SEQEND
  8
0
  0
POLYLINE
  8
20
 66
1
 10
0.000000
 20
0.000000
 30
0.000000
 40
0.000197
 41
0.000197
 70
0
  0
VERTEX
  8
20
 10
5.669291
 20
1.535531
 30
0.000000
 42
1.000000
  0
VERTEX
  8
20
 10
5.669291
 20
1.535335
 30
0.000000
  0
SEQEND
  8
0
  0
POLYLINE
  8
20
 66
1
 10
0.000000
 20
0.000000
 30
0.000000
 40
0.000394
 41
0.000394
 70
0
  0
VERTEX
  8
20
 10
6.771654
 20
1.535433
 30
0.000000
  0
VERTEX
  8
20
 10
6.771654
 20
1.692913
 30
0.000000
  0
SEQEND
  8
0
  0
POLYLINE
  8
20
 66
1
 10
0.000000
 20
0.000000
 30
0.000000
 40
0.000197
 41
0.000197
 70
0
  0
VERTEX
  8
20
 10
6.771752
 20
1.692913
 30
0.000000
 42
1.000000
  0
VERTEX
  8
20
 10
6.771555
 20
1.692913
 30
0.000000
  0
SEQEND
  8
0
  0
POLYLINE
  8
20
 66
1
 10
0.000000
 20
0.000000
 30
0.000000
 40
0.000197
 41
0.000197
 70
0
  0
VERTEX
  8
20
 10
6.771555
 20
1.535433
 30
0.000000
 42
1.000000
  0
VERTEX
  8
20
 10
6.771752
 20
1.535433
 30
0.000000
  0
SEQEND
  8
0
  0
POLYLINE
  8
20
 66
1
 10
0.000000
 20
0.000000
 30
0.000000
 40
0.000394
 41
0.000394
 70
0
  0
VERTEX
  8
20
 10
6.771654
 20
1.692913
 30
0.000000
  0
VERTEX
  8
20
 10
7.362205
 20
1.692913
 30
0.000000
  0
SEQEND
  8
0
  0
POLYLINE
  8
20
 66
1
 10
0.000000
 20
0.000000
 30
0.000000
 40
0.000197
 41
0.000197
 70
0
  0
VERTEX
  8
20
 10
7.362205
 20
1.692815
 30
0.000000
 42
1.000000
  0
VERTEX
  8
20
 10
7.362205
 20
1.693012
 30
0.000000
  0
SEQEND
  8
0
  0
POLYLINE
  8
20
 66
1
 10
0.000000
 20
0.000000
 30
0.000000
 40
0.000197
 41
0.000197
 70
0
  0
VERTEX
  8
20
 10
6.771654
 20
1.693012
 30
0.000000
 42
1.000000
  0
VERTEX
  8
20
 10
6.771654
 20
1.692815
 30
0.000000
  0
SEQEND
  8
0
  0
POLYLINE
  8
20
 66
1
 10
0.000000
 20
0.000000
 30
0.000000
 40
0.000394
 41
0.000394
 70
0
  0
VERTEX
  8
20
 10
7.362205
 20
1.692913
 30
0.000000
  0
VERTEX
  8
20
 10
7.362205
 20
2.125984
 30
0.000000
  0
SEQEND
  8
0
  0
POLYLINE
  8
20
 66
1
 10
0.000000
 20
0.000000
 30
0.000000
 40
0.000197
 41
0.000197
 70
0
  0
VERTEX
  8
20
 10
7.362303
 20
2.125984
 30
0.000000
 42
1.000000
  0
VERTEX
  8
20
 10
7.362106
 20
2.125984
 30
0.000000
  0
SEQEND
  8
0
  0
POLYLINE
  8
20
 66
1
 10
0.000000
 20
0.000000
 30
0.000000
 40
0.000197
 41
0.000197
 70
0
  0
VERTEX
  8
20
 10
7.362106
 20
1.692913
 30
0.000000
 42
1.000000
  0
VERTEX
  8
20
 10
7.362303
 20
1.692913
 30
0.000000
  0
SEQEND
  8
0
  0
POLYLINE
  8
20
 66
1
 10
0.000000
 20
0.000000
 30
0.000000
 40
0.000394
 41
0.000394
 70
0
  0
VERTEX
  8
20
 10
7.362205
 20
2.125984
 30
0.000000
  0
VERTEX
  8
20
 10
6.771654
 20
2.125984
 30
0.000000
  0
SEQEND
  8
0
  0
POLYLINE
  8
20
 66
1
 10
0.000000
 20
0.000000
 30
0.000000
 40
0.000197
 41
0.000197
 70
0
  0
VERTEX
  8
20
 10
6.771654
 20
2.126083
 30
0.000000
 42
1.000000
  0
VERTEX
  8
20
 10
6.771654
 20
2.125886
 30
0.000000
  0
SEQEND
  8
0
  0
POLYLINE
  8
20
 66
1
 10
0.000000
 20
0.000000
 30
0.000000
 40
0.000197
 41
0.000197
 70
0
  0
VERTEX
  8
20
 10
7.362205
 20
2.125886
 30
0.000000
 42
1.000000
  0
VERTEX
  8
20
 10
7.362205
 20
2.126083
 30
0.000000
  0
SEQEND
  8
0
  0
POLYLINE
  8
20
 66
1
 10
0.000000
 20
0.000000
 30
0.000000
 40
0.000394
 41
0.000394
 70
0
  0
VERTEX
  8
20
 10
6.771654
 20
2.125984
 30
0.000000
  0
VERTEX
  8
20
 10
6.771654
 20
2.244094
 30
0.000000
  0
SEQEND
  8
0
  0
POLYLINE
  8
20
 66
1
 10
0.000000
 20
0.000000
 30
0.000000
 40
0.000197
 41
0.000197
 70
0
  0
VERTEX
  8
20
 10
6.771752
 20
2.244094
 30
0.000000
 42
1.000000
  0
VERTEX
  8
20
 10
6.771555
 20
2.244094
 30
0.000000
  0
SEQEND
  8
0
  0
POLYLINE
  8
20
 66
1
 10
0.000000
 20
0.000000
 30
0.000000
 40
0.000197
 41
0.000197
 70
0
  0
VERTEX
  8
20
 10
6.771555
 20
2.125984
 30
0.000000
 42
1.000000
  0
VERTEX
  8
20
 10
6.771752
 20
2.125984
 30
0.000000
  0
SEQEND
  8
0
  0
POLYLINE
  8
20
 66
1
 10
0.000000
 20
0.000000
 30
0.000000
 40
0.000394
 41
0.000394
 70
0
  0
VERTEX
  8
20
 10
8.464567
 20
2.677165
 30
0.000000
  0
VERTEX
  8
20
 10
8.267717
 20
2.677165
 30
0.000000
  0
SEQEND
  8
0
  0
POLYLINE
  8
20
 66
1
 10
0.000000
 20
0.000000
 30
0.000000
 40
0.000197
 41
0.000197
 70
0
  0
VERTEX
  8
20
 10
8.267717
 20
2.677264
 30
0.000000
 42
1.000000
  0
VERTEX
  8
20
 10
8.267717
 20
2.677067
 30
0.000000
  0
SEQEND
  8
0
  0
POLYLINE
  8
20
 66
1
 10
0.000000
 20
0.000000
 30
0.000000
 40
0.000197
 41
0.000197
 70
0
  0
VERTEX
  8
20
 10
8.464567
 20
2.677067
 30
0.000000
 42
1.000000
  0
VERTEX
  8
20
 10
8.464567
 20
2.677264
 30
0.000000
  0
SEQEND
  8
0
  0
POLYLINE
  8
20
 66
1
 10
0.000000
 20
0.000000
 30
0.000000
 40
0.000394
 41
0.000394
 70
0
  0
VERTEX
  8
20
 10
8.267717
 20
2.677165
 30
0.000000
  0
VERTEX
  8
20
 10
8.267717
 20
2.775591
 30
0.000000
  0
SEQEND
  8
0
  0
POLYLINE
  8
20
 66
1
 10
0.000000
 20
0.000000
 30
0.000000
 40
0.000197
 41
0.000197
 70
0
  0
VERTEX
  8
20
 10
8.267815
 20
2.775591
 30
0.000000
 42
1.000000
  0
VERTEX
  8
20
 10
8.267618
 20
2.775591
 30
0.000000
  0
SEQEND
  8
0
  0
POLYLINE
  8
20
 66
1
 10
0.000000
 20
0.000000
 30
0.000000
 40
0.000197
 41
0.000197
 70
0
  0
VERTEX
  8
20
 10
8.267618
 20
2.677165
 30
0.000000
 42
1.000000
  0
VERTEX
  8
20
 10
8.267815
 20
2.677165
 30
0.000000
  0
SEQEND
  8
0
  0
POLYLINE
  8
20
 66
1
 10
0.000000
 20
0.000000
 30
0.000000
 40
0.000394
 41
0.000394
 70
0
  0
VERTEX
  8
20
 10
8.267717
 20
2.775591
 30
0.000000
  0
VERTEX
  8
20
 10
5.669291
 20
2.775591
 30
0.000000
  0
SEQEND
  8
0
  0
POLYLINE
  8
20
 66
1
 10
0.000000
 20
0.000000
 30
0.000000
 40
0.000197
 41
0.000197
 70
0
  0
VERTEX
  8
20
 10
5.669291
 20
2.775689
 30
0.000000
 42
1.000000
  0
VERTEX
  8
20
 10
5.669291
 20
2.775492
 30
0.000000
  0
SEQEND
  8
0
  0
POLYLINE
  8
20
 66
1
 10
0.000000
 20
0.000000
 30
0.000000
 40
0.000197
 41
0.000197
 70
0
  0
VERTEX
  8
20
 10
8.267717
 20
2.775492
 30
0.000000
 42
1.000000
  0
VERTEX
  8
20
 10
8.267717
 20
2.775689
 30
0.000000
  0
SEQEND
  8
0
  0
LINE
  8
20
 10
8.503937
 20
4.389764
 30
0.000000
 11
8.503937
 21
2.578740
 31
0.000000
  0
LINE
  8
20
 10
11.299213
 20
2.814961
 30
0.000000
 11
11.299213
 21
3.366142
 31
0.000000
  0
LINE
  8
20
 10
11.299213
 20
4.114173
 30
0.000000
 11
11.299213
 21
4.389764
 31
0.000000
  0
ARC
  8
20
 10
11.259843
 20
4.389764
 30
0.000000
 40
0.039370
 50
0.000000
 51
90.000000
  0
LINE
  8
20
 10
11.259843
 20
4.429134
 30
0.000000
 11
8.543307
 21
4.429134
 31
0.000000
  0
ARC
  8
20
 10
8.543307
 20
4.389764
 30
0.000000
 40
0.039370
 50
90.000000
 51
180.000000
  0
POLYLINE
  8
20
 66
1
 10
0.000000
 20
0.000000
 30
0.000000
 40
0.000394
 41
0.000394
 70
0
  0
VERTEX
  8
20
 10
11.102362
 20
3.366142
 30
0.000000
  0
VERTEX
  8
20
 10
11.299213
 20
3.366142
 30
0.000000
  0
SEQEND
  8
0
  0
POLYLINE
  8
20
 66
1
 10
0.000000
 20
0.000000
 30
0.000000
 40
0.000197
 41
0.000197
 70
0
  0
VERTEX
  8
20
 10
11.299213
 20
3.366043
 30
0.000000
 42
1.000000
  0
VERTEX
  8
20
 10
11.299213
 20
3.366240
 30
0.000000
  0
SEQEND
  8
0
  0
POLYLINE
  8
20
 66
1
 10
0.000000
 20
0.000000
 30
0.000000
 40
0.000197
 41
0.000197
 70
0
  0
VERTEX
  8
20
 10
11.102362
 20
3.366240
 30
0.000000
 42
1.000000
  0
VERTEX
  8
20
 10
11.102362
 20
3.366043
 30
0.000000
  0
SEQEND
  8
0
  0
POLYLINE
  8
20
 66
1
 10
0.000000
 20
0.000000
 30
0.000000
 40
0.000394
 41
0.000394
 70
0
  0
VERTEX
  8
20
 10
9.606299
 20
2.421260
 30
0.000000
  0
VERTEX
  8
20
 10
10.196850
 20
2.421260
 30
0.000000
  0
SEQEND
  8
0
  0
POLYLINE
  8
20
 66
1
 10
0.000000
 20
0.000000
 30
0.000000
 40
0.000197
 41
0.000197
 70
0
  0
VERTEX
  8
20
 10
10.196850
 20
2.421161
 30
0.000000
 42
1.000000
  0
VERTEX
  8
20
 10
10.196850
 20
2.421358
 30
0.000000
  0
SEQEND
  8
0
  0
POLYLINE
  8
20
 66
1
 10
0.000000
 20
0.000000
 30
0.000000
 40
0.000197
 41
0.000197
 70
0
  0
VERTEX
  8
20
 10
9.606299
 20
2.421358
 30
0.000000
 42
1.000000
  0
VERTEX
  8
20
 10
9.606299
 20
2.421161
 30
0.000000
  0
SEQEND
  8
0
  0
POLYLINE
  8
20
 66
1
 10
0.000000
 20
0.000000
 30
0.000000
 40
0.000394
 41
0.000394
 70
0
  0
VERTEX
  8
20
 10
10.196850
 20
2.421260
 30
0.000000
  0
VERTEX
  8
20
 10
10.196850
 20
2.854331
 30
0.000000
  0
SEQEND
  8
0
  0
POLYLINE
  8
20
 66
1
 10
0.000000
 20
0.000000
 30
0.000000
 40
0.000197
 41
0.000197
 70
0
  0
VERTEX
  8
20
 10
10.196949
 20
2.854331
 30
0.000000
 42
1.000000
  0
VERTEX
  8
20
 10
10.196752
 20
2.854331
 30
0.000000
  0
SEQEND
  8
0
  0
POLYLINE
  8
20
 66
1
 10
0.000000
 20
0.000000
 30
0.000000
 40
0.000197
 41
0.000197
 70
0
  0
VERTEX
  8
20
 10
10.196752
 20
2.421260
 30
0.000000
 42
1.000000
  0
VERTEX
  8
20
 10
10.196949
 20
2.421260
 30
0.000000
  0
SEQEND
  8
0
  0
POLYLINE
  8
20
 66
1
 10
0.000000
 20
0.000000
 30
0.000000
 40
0.000394
 41
0.000394
 70
0
  0
VERTEX
  8
20
 10
10.196850
 20
2.854331
 30
0.000000
  0
VERTEX
  8
20
 10
9.606299
 20
2.854331
 30
0.000000
  0
SEQEND
  8
0
  0
POLYLINE
  8
20
 66
1
 10
0.000000
 20
0.000000
 30
0.000000
 40
0.000197
 41
0.000197
 70
0
  0
VERTEX
  8
20
 10
9.606299
 20
2.854429
 30
0.000000
 42
1.000000
  0
VERTEX
  8
20
 10
9.606299
 20
2.854232
 30
0.000000
  0
SEQEND
  8
0
  0
POLYLINE
  8
20
 66
1
 10
0.000000
 20
0.000000
 30
0.000000
 40
0.000197
 41
0.000197
 70
0
  0
VERTEX
  8
20
 10
10.196850
 20
2.854232
 30
0.000000
 42
1.000000
  0
VERTEX
  8
20
 10
10.196850
 20
2.854429
 30
0.000000
  0
SEQEND
  8
0
  0
POLYLINE
  8
20
 66
1
 10
0.000000
 20
0.000000
 30
0.000000
 40
0.000394
 41
0.000394
 70
0
  0
VERTEX
  8
20
 10
9.606299
 20
2.854331
 30
0.000000
  0
VERTEX
  8
20
 10
9.606299
 20
2.421260
 30
0.000000
  0
SEQEND
  8
0
  0
POLYLINE
  8
20
 66
1
 10
0.000000
 20
0.000000
 30
0.000000
 40
0.000197
 41
0.000197
 70
0
  0
VERTEX
  8
20
 10
9.606201
 20
2.421260
 30
0.000000
 42
1.000000
  0
VERTEX
  8
20
 10
9.606398
 20
2.421260
 30
0.000000
  0
SEQEND
  8
0
  0
POLYLINE
  8
20
 66
1
 10
0.000000
 20
0.000000
 30
0.000000
 40
0.000197
 41
0.000197
 70
0
  0
VERTEX
  8
20
 10
9.606398
 20
2.854331
 30
0.000000
 42
1.000000
  0
VERTEX
  8
20
 10
9.606201
 20
2.854331
 30
0.000000
  0
SEQEND
  8
0
  0
POLYLINE
  8
20
 66
1
 10
0.000000
 20
0.000000
 30
0.000000
 40
0.000394
 41
0.000394
 70
0
  0
VERTEX
  8
20
 10
11.299213
 20
4.114173
 30
0.000000
  0
VERTEX
  8
20
 10
11.102362
 20
4.114173
 30
0.000000
  0
SEQEND
  8
0
  0
POLYLINE
  8
20
 66
1
 10
0.000000
 20
0.000000
 30
0.000000
 40
0.000197
 41
0.000197
 70
0
  0
VERTEX
  8
20
 10
11.102362
 20
4.114272
 30
0.000000
 42
1.000000
  0
VERTEX
  8
20
 10
11.102362
 20
4.114075
 30
0.000000
  0
SEQEND
  8
0
  0
POLYLINE
  8
20
 66
1
 10
0.000000
 20
0.000000
 30
0.000000
 40
0.000197
 41
0.000197
 70
0
  0
VERTEX
  8
20
 10
11.299213
 20
4.114075
 30
0.000000
 42
1.000000
  0
VERTEX
  8
20
 10
11.299213
 20
4.114272
 30
0.000000
  0
SEQEND
  8
0
  0
POLYLINE
  8
20
 66
1
 10
0.000000
 20
0.000000
 30
0.000000
 40
0.000394
 41
0.000394
 70
0
  0
VERTEX
  8
20
 10
11.102362
 20
4.114173
 30
0.000000
  0
VERTEX
  8
20
 10
11.102362
 20
3.366142
 30
0.000000
  0
SEQEND
  8
0
  0
POLYLINE
  8
20
 66
1
 10
0.000000
 20
0.000000
 30
0.000000
 40
0.000197
 41
0.000197
 70
0
  0
VERTEX
  8
20
 10
11.102264
 20
3.366142
 30
0.000000
 42
1.000000
  0
VERTEX
  8
20
 10
11.102461
 20
3.366142
 30
0.000000
  0
SEQEND
  8
0
  0
POLYLINE
  8
20
 66
1
 10
0.000000
 20
0.000000
 30
0.000000
 40
0.000197
 41
0.000197
 70
0
  0
VERTEX
  8
20
 10
11.102461
 20
4.114173
 30
0.000000
 42
1.000000
  0
VERTEX
  8
20
 10
11.102264
 20
4.114173
 30
0.000000
  0
SEQEND
  8
0
  0
POLYLINE
  8
20
 66
1
 10
0.000000
 20
0.000000
 30
0.000000
 40
0.000394
 41
0.000394
 70
0
  0
VERTEX
  8
20
 10
8.503937
 20
2.578740
 30
0.000000
  0
VERTEX
  8
20
 10
8.503937
 20
2.303150
 30
0.000000
  0
SEQEND
  8
0
  0
POLYLINE
  8
20
 66
1
 10
0.000000
 20
0.000000
 30
0.000000
 40
0.000197
 41
0.000197
 70
0
  0
VERTEX
  8
20
 10
8.503839
 20
2.303150
 30
0.000000
 42
1.000000
  0
VERTEX
  8
20
 10
8.504035
 20
2.303150
 30
0.000000
  0
SEQEND
  8
0
  0
POLYLINE
  8
20
 66
1
 10
0.000000
 20
0.000000
 30
0.000000
 40
0.000197
 41
0.000197
 70
0
  0
VERTEX
  8
20
 10
8.504035
 20
2.578740
 30
0.000000
 42
1.000000
  0
VERTEX
  8
20
 10
8.503839
 20
2.578740
 30
0.000000
  0
SEQEND
  8
0
  0
POLYLINE
  8
20
 66
1
 10
0.000000
 20
0.000000
 30
0.000000
 40
0.000394
 41
0.000394
 70
0
  0
VERTEX
  8
20
 10
8.503937
 20
2.303150
 30
0.000000
 42
0.414214
  0
VERTEX
  8
20
 10
8.543307
 20
2.263780
 30
0.000000
  0
SEQEND
  8
0
  0
POLYLINE
  8
20
 66
1
 10
0.000000
 20
0.000000
 30
0.000000
 40
0.000197
 41
0.000197
 70
0
  0
VERTEX
  8
20
 10
8.504035
 20
2.303150
 30
0.000000
 42
1.000000
  0
VERTEX
  8
20
 10
8.503839
 20
2.303150
 30
0.000000
  0
SEQEND
  8
0
  0
POLYLINE
  8
20
 66
1
 10
0.000000
 20
0.000000
 30
0.000000
 40
0.000197
 41
0.000197
 70
0
  0
VERTEX
  8
20
 10
8.543307
 20
2.263681
 30
0.000000
 42
1.000000
  0
VERTEX
  8
20
 10
8.543307
 20
2.263878
 30
0.000000
  0
SEQEND
  8
0
  0
POLYLINE
  8
20
 66
1
 10
0.000000
 20
0.000000
 30
0.000000
 40
0.000394
 41
0.000394
 70
0
  0
VERTEX
  8
20
 10
8.543307
 20
2.263780
 30
0.000000
  0
VERTEX
  8
20
 10
11.259843
 20
2.263780
 30
0.000000
  0
SEQEND
  8
0
  0
POLYLINE
  8
20
 66
1
 10
0.000000
 20
0.000000
 30
0.000000
 40
0.000197
 41
0.000197
 70
0
  0
VERTEX
  8
20
 10
11.259843
 20
2.263681
 30
0.000000
 42
1.000000
  0
VERTEX
  8
20
 10
11.259843
 20
2.263878
 30
0.000000
  0
SEQEND
  8
0
  0
POLYLINE
  8
20
 66
1
 10
0.000000
 20
0.000000
 30
0.000000
 40
0.000197
 41
0.000197
 70
0
  0
VERTEX
  8
20
 10
8.543307
 20
2.263878
 30
0.000000
 42
1.000000
  0
VERTEX
  8
20
 10
8.543307
 20
2.263681
 30
0.000000
  0
SEQEND
  8
0
  0
POLYLINE
  8
20
 66
1
 10
0.000000
 20
0.000000
 30
0.000000
 40
0.000394
 41
0.000394
 70
0
  0
VERTEX
  8
20
 10
11.259843
 20
2.263780
 30
0.000000
 42
0.414214
  0
VERTEX
  8
20
 10
11.299213
 20
2.303150
 30
0.000000
  0
SEQEND
  8
0
  0
POLYLINE
  8
20
 66
1
 10
0.000000
 20
0.000000
 30
0.000000
 40
0.000197
 41
0.000197
 70
0
  0
VERTEX
  8
20
 10
11.259843
 20
2.263878
 30
0.000000
 42
1.000000
  0
VERTEX
  8
20
 10
11.259843
 20
2.263681
 30
0.000000
  0
SEQEND
  8
0
  0
POLYLINE
  8
20
 66
1
 10
0.000000
 20
0.000000
 30
0.000000
 40
0.000197
 41
0.000197
 70
0
  0
VERTEX
  8
20
 10
11.299311
 20
2.303150
 30
0.000000
 42
1.000000
  0
VERTEX
  8
20
 10
11.299114
 20
2.303150
 30
0.000000
  0
SEQEND
  8
0
  0
POLYLINE
  8
20
 66
1
 10
0.000000
 20
0.000000
 30
0.000000
 40
0.000394
 41
0.000394
 70
0
  0
VERTEX
  8
20
 10
11.299213
 20
2.303150
 30
0.000000
  0
VERTEX
  8
20
 10
11.299213
 20
2.814961
 30
0.000000
  0
SEQEND
  8
0
  0
POLYLINE
  8
20
 66
1
 10
0.000000
 20
0.000000
 30
0.000000
 40
0.000197
 41
0.000197
 70
0
  0
VERTEX
  8
20
 10
11.299311
 20
2.814961
 30
0.000000
 42
1.000000
  0
VERTEX
  8
20
 10
11.299114
 20
2.814961
 30
0.000000
  0
SEQEND
  8
0
  0
POLYLINE
  8
20
 66
1
 10
0.000000
 20
0.000000
 30
0.000000
 40
0.000197
 41
0.000197
 70
0
  0
VERTEX
  8
20
 10
11.299114
 20
2.303150
 30
0.000000
 42
1.000000
  0
VERTEX
  8
20
 10
11.299311
 20
2.303150
 30
0.000000
  0
SEQEND
  8
0
  0
LINE
  8
20
 10
8.503937
 20
2.125984
 30
0.000000
 11
8.503937
 21
0.314961
 31
0.000000
  0
LINE
  8
20
 10
11.299213
 20
0.551181
 30
0.000000
 11
11.299213
 21
1.102362
 31
0.000000
  0
LINE
  8
20
 10
11.299213
 20
1.850394
 30
0.000000
 11
11.299213
 21
2.125984
 31
0.000000
  0
ARC
  8
20
 10
11.259843
 20
2.125984
 30
0.000000
 40
0.039370
 50
0.000000
 51
90.000000
  0
LINE
  8
20
 10
11.259843
 20
2.165354
 30
0.000000
 11
8.543307
 21
2.165354
 31
0.000000
  0
ARC
  8
20
 10
8.543307
 20
2.125984
 30
0.000000
 40
0.039370
 50
90.000000
 51
180.000000
  0
POLYLINE
  8
20
 66
1
 10
0.000000
 20
0.000000
 30
0.000000
 40
0.000394
 41
0.000394
 70
0
  0
VERTEX
  8
20
 10
11.299213
 20
1.850394
 30
0.000000
  0
VERTEX
  8
20
 10
11.299213
 20
1.102362
 30
0.000000
  0
SEQEND
  8
0
  0
POLYLINE
  8
20
 66
1
 10
0.000000
 20
0.000000
 30
0.000000
 40
0.000197
 41
0.000197
 70
0
  0
VERTEX
  8
20
 10
11.299114
 20
1.102362
 30
0.000000
 42
1.000000
  0
VERTEX
  8
20
 10
11.299311
 20
1.102362
 30
0.000000
  0
SEQEND
  8
0
  0
POLYLINE
  8
20
 66
1
 10
0.000000
 20
0.000000
 30
0.000000
 40
0.000197
 41
0.000197
 70
0
  0
VERTEX
  8
20
 10
11.299311
 20
1.850394
 30
0.000000
 42
1.000000
  0
VERTEX
  8
20
 10
11.299114
 20
1.850394
 30
0.000000
  0
SEQEND
  8
0
  0
POLYLINE
  8
20
 66
1
 10
0.000000
 20
0.000000
 30
0.000000
 40
0.000394
 41
0.000394
 70
0
  0
VERTEX
  8
20
 10
8.503937
 20
0.314961
 30
0.000000
  0
VERTEX
  8
20
 10
8.503937
 20
0.039370
 30
0.000000
  0
SEQEND
  8
0
  0
POLYLINE
  8
20
 66
1
 10
0.000000
 20
0.000000
 30
0.000000
 40
0.000197
 41
0.000197
 70
0
  0
VERTEX
  8
20
 10
8.503839
 20
0.039370
 30
0.000000
 42
1.000000
  0
VERTEX
  8
20
 10
8.504035
 20
0.039370
 30
0.000000
  0
SEQEND
  8
0
  0
POLYLINE
  8
20
 66
1
 10
0.000000
 20
0.000000
 30
0.000000
 40
0.000197
 41
0.000197
 70
0
  0
VERTEX
  8
20
 10
8.504035
 20
0.314961
 30
0.000000
 42
1.000000
  0
VERTEX
  8
20
 10
8.503839
 20
0.314961
 30
0.000000
  0
SEQEND
  8
0
  0
POLYLINE
  8
20
 66
1
 10
0.000000
 20
0.000000
 30
0.000000
 40
0.000394
 41
0.000394
 70
0
  0
VERTEX
  8
20
 10
8.503937
 20
0.039370
 30
0.000000
 42
0.414214
  0
VERTEX
  8
20
 10
8.543307
 20
0.000000
 30
0.000000
  0
SEQEND
  8
0
  0
POLYLINE
  8
20
 66
1
 10
0.000000
 20
0.000000
 30
0.000000
 40
0.000197
 41
0.000197
 70
0
  0
VERTEX
  8
20
 10
8.504035
 20
0.039370
 30
0.000000
 42
1.000000
  0
VERTEX
  8
20
 10
8.503839
 20
0.039370
 30
0.000000
  0
SEQEND
  8
0
  0
POLYLINE
  8
20
 66
1
 10
0.000000
 20
0.000000
 30
0.000000
 40
0.000197
 41
0.000197
 70
0
  0
VERTEX
  8
20
 10
8.543307
 20
-0.000098
 30
0.000000
 42
1.000000
  0
VERTEX
  8
20
 10
8.543307
 20
0.000098
 30
0.000000
  0
SEQEND
  8
0
  0
POLYLINE
  8
20
 66
1
 10
0.000000
 20
0.000000
 30
0.000000
 40
0.000394
 41
0.000394
 70
0
  0
VERTEX
  8
20
 10
8.543307
 20
0.000000
 30
0.000000
  0
VERTEX
  8
20
 10
11.259843
 20
0.000000
 30
0.000000
  0
SEQEND
  8
0
  0
POLYLINE
  8
20
 66
1
 10
0.000000
 20
0.000000
 30
0.000000
 40
0.000197
 41
0.000197
 70
0
  0
VERTEX
  8
20
 10
11.259843
 20
-0.000098
 30
0.000000
 42
1.000000
  0
VERTEX
  8
20
 10
11.259843
 20
0.000098
 30
0.000000
  0
SEQEND
  8
0
  0
POLYLINE
  8
20
 66
1
 10
0.000000
 20
0.000000
 30
0.000000
 40
0.000197
 41
0.000197
 70
0
  0
VERTEX
  8
20
 10
8.543307
 20
0.000098
 30
0.000000
 42
1.000000
  0
VERTEX
  8
20
 10
8.543307
 20
-0.000098
 30
0.000000
  0
SEQEND
  8
0
  0
POLYLINE
  8
20
 66
1
 10
0.000000
 20
0.000000
 30
0.000000
 40
0.000394
 41
0.000394
 70
0
  0
VERTEX
  8
20
 10
11.259843
 20
0.000000
 30
0.000000
 42
0.414214
  0
VERTEX
  8
20
 10
11.299213
 20
0.039370
 30
0.000000
  0
SEQEND
  8
0
  0
POLYLINE
  8
20
 66
1
 10
0.000000
 20
0.000000
 30
0.000000
 40
0.000197
 41
0.000197
 70
0
  0
VERTEX
  8
20
 10
11.259843
 20
0.000098
 30
0.000000
 42
1.000000
  0
VERTEX
  8
20
 10
11.259843
 20
-0.000098
 30
0.000000
  0
SEQEND
  8
0
  0
POLYLINE
  8
20
 66
1
 10
0.000000
 20
0.000000
 30
0.000000
 40
0.000197
 41
0.000197
 70
0
  0
VERTEX
  8
20
 10
11.299311
 20
0.039370
 30
0.000000
 42
1.000000
  0
VERTEX
  8
20
 10
11.299114
 20
0.039370
 30
0.000000
  0
SEQEND
  8
0
  0
POLYLINE
  8
20
 66
1
 10
0.000000
 20
0.000000
 30
0.000000
 40
0.000394
 41
0.000394
 70
0
  0
VERTEX
  8
20
 10
11.299213
 20
0.039370
 30
0.000000
  0
VERTEX
  8
20
 10
11.299213
 20
0.551181
 30
0.000000
  0
SEQEND
  8
0
  0
POLYLINE
  8
20
 66
1
 10
0.000000
 20
0.000000
 30
0.000000
 40
0.000197
 41
0.000197
 70
0
  0
VERTEX
  8
20
 10
11.299311
 20
0.551181
 30
0.000000
 42
1.000000
  0
VERTEX
  8
20
 10
11.299114
 20
0.551181
 30
0.000000
  0
SEQEND
  8
0
  0
POLYLINE
  8
20
 66
1
 10
0.000000
 20
0.000000
 30
0.000000
 40
0.000197
 41
0.000197
 70
0
  0
VERTEX
  8
20
 10
11.299114
 20
0.039370
 30
0.000000
 42
1.000000
  0
VERTEX
  8
20
 10
11.299311
 20
0.039370
 30
0.000000
  0
SEQEND
  8
0
  0
LINE
  8
20
 10
8.503937
 20
6.732283
 30
0.000000
 11
8.503937
 21
4.566929
 31
0.000000
  0
ARC
  8
20
 10
8.543307
 20
4.566929
 30
0.000000
 40
0.039370
 50
180.000000
 51
270.000000
  0
LINE
  8
20
 10
8.543307
 20
4.527559
 30
0.000000
 11
11.259843
 21
4.527559
 31
0.000000
  0
ARC
  8
20
 10
11.259843
 20
4.566929
 30
0.000000
 40
0.039370
 50
270.000000
 51
0.000000
  0
LINE
  8
20
 10
11.299213
 20
4.566929
 30
0.000000
 11
11.299213
 21
6.732283
 31
0.000000
  0
ARC
  8
20
 10
11.259843
 20
6.732283
 30
0.000000
 40
0.039370
 50
0.000000
 51
90.000000
  0
LINE
  8
20
 10
11.259843
 20
6.771654
 30
0.000000
 11
8.543307
 21
6.771654
 31
0.000000
  0
ARC
  8
20
 10
8.543307
 20
6.732283
 30
0.000000
 40
0.039370
 50
90.000000
 51
180.000000
  0
POLYLINE
  8
20
 66
1
 10
0.000000
 20
0.000000
 30
0.000000
 40
0.006000
 41
0.006000
 70
0
  0
VERTEX
  8
20
 10
-2.000000
 20
6.000000
 30
0.000000
  0
VERTEX
  8
20
 10
-2.000000
 20
5.000000
 30
0.000000
  0
SEQEND
  8
0
  0
POLYLINE
  8
20
 66
1
 10
0.000000
 20
0.000000
 30
0.000000
 40
0.003000
 41
0.003000
 70
0
  0
VERTEX
  8
20
 10
-2.001500
 20
5.000000
 30
0.000000
 42
1.000000
  0
VERTEX
  8
20
 10
-1.998500
 20
5.000000
 30
0.000000
  0
SEQEND
  8
0
  0
POLYLINE
  8
20
 66
1
 10
0.000000
 20
0.000000
 30
0.000000
 40
0.003000
 41
0.003000
 70
0
  0
VERTEX
  8
20
 10
-1.998500
 20
6.000000
 30
0.000000
 42
1.000000
  0
VERTEX
  8
20
 10
-2.001500
 20
6.000000
 30
0.000000
  0
SEQEND
  8
0
  0
POLYLINE
  8
20
 66
1
 10
0.000000
 20
0.000000
 30
0.000000
 40
0.006000
 41
0.006000
 70
0
  0
VERTEX
  8
20
 10
-2.000000
 20
5.000000
 30
0.000000
  0
VERTEX
  8
20
 10
-1.000000
 20
5.000000
 30
0.000000
  0
SEQEND
  8
0
  0
POLYLINE
  8
20
 66
1
 10
0.000000
 20
0.000000
 30
0.000000
 40
0.003000
 41
0.003000
 70
0
  0
VERTEX
  8
20
 10
-1.000000
 20
4.998500
 30
0.000000
 42
1.000000
  0
VERTEX
  8
20
 10
-1.000000
 20
5.001500
 30
0.000000
  0
SEQEND
  8
0
  0
POLYLINE
  8
20
 66
1
 10
0.000000
 20
0.000000
 30
0.000000
 40
0.003000
 41
0.003000
 70
0
  0
VERTEX
  8
20
 10
-2.000000
 20
5.001500
 30
0.000000
 42
1.000000
  0
VERTEX
  8
20
 10
-2.000000
 20
4.998500
 30
0.000000
  0
SEQEND
  8
0
  0
POLYLINE
  8
20
 66
1
 10
0.000000
 20
0.000000
 30
0.000000
 40
0.006000
 41
0.006000
 70
0
  0
VERTEX
  8
20
 10
-1.000000
 20
5.000000
 30
0.000000
  0
VERTEX
  8
20
 10
-1.000000
 20
6.000000
 30
0.000000
  0
SEQEND
  8
0
  0
POLYLINE
  8
20
 66
1
 10
0.000000
 20
0.000000
 30
0.000000
 40
0.003000
 41
0.003000
 70
0
  0
VERTEX
  8
20
 10
-0.998500
 20
6.000000
 30
0.000000
 42
1.000000
  0
VERTEX
  8
20
 10
-1.001500
 20
6.000000
 30
0.000000
  0
SEQEND
  8
0
  0
POLYLINE
  8
20
 66
1
 10
0.000000
 20
0.000000
 30
0.000000
 40
0.003000
 41
0.003000
 70
0
  0
VERTEX
  8
20
 10
-1.001500
 20
5.000000
 30
0.000000
 42
1.000000
  0
VERTEX
  8
20
 10
-0.998500
 20
5.000000
 30
0.000000
  0
SEQEND
  8
0
  0
POLYLINE
  8
20
 66
1
 10
0.000000
 20
0.000000
 30
0.000000
 40
0.006000
 41
0.006000
 70
0
  0
VERTEX
  8
20
 10
-1.000000
 20
6.000000
 30
0.000000
  0
VERTEX
  8
20
 10
-2.000000
 20
6.000000
 30
0.000000
  0
SEQEND
  8
0
  0
POLYLINE
  8
20
 66
1
 10
0.000000
 20
0.000000
 30
0.000000
 40
0.003000
 41
0.003000
 70
0
  0
VERTEX
  8
20
 10
-2.000000
 20
6.001500
 30
0.000000
 42
1.000000
  0
VERTEX
  8
20
 10
-2.000000
 20
5.998500
 30
0.000000
  0
SEQEND
  8
0
  0
POLYLINE
  8
20
 66
1
 10
0.000000
 20
0.000000
 30
0.000000
 40
0.003000
 41
0.003000
 70
0
  0
VERTEX
  8
20
 10
-1.000000
 20
5.998500
 30
0.000000
 42
1.000000
  0
VERTEX
  8
20
 10
-1.000000
 20
6.001500
 30
0.000000
  0
SEQEND
  8
0
  0
POLYLINE
  8
20
 66
1
 10
0.000000
 20
0.000000
 30
0.000000
 40
0.006000
 41
0.006000
 70
0
  0
VERTEX
  8
20
 10
-1.762526
 20
5.555329
 30
0.000000
  0
VERTEX
  8
20
 10
-1.741174
 20
5.576681
 30
0.000000
  0
SEQEND
  8
0
  0
POLYLINE
  8
20
 66
1
 10
0.000000
 20
0.000000
 30
0.000000
 40
0.003000
 41
0.003000
 70
0
  0
VERTEX
  8
20
 10
-1.740114
 20
5.575620
 30
0.000000
 42
1.000000
  0
VERTEX
  8
20
 10
-1.742235
 20
5.577741
 30
0.000000
  0
SEQEND
  8
0
  0
POLYLINE
  8
20
 66
1
 10
0.000000
 20
0.000000
 30
0.000000
 40
0.003000
 41
0.003000
 70
0
  0
VERTEX
  8
20
 10
-1.763586
 20
5.556390
 30
0.000000
 42
1.000000
  0
VERTEX
  8
20
 10
-1.761465
 20
5.554268
 30
0.000000
  0
SEQEND
  8
0
  0
POLYLINE
  8
20
 66
1
 10
0.000000
 20
0.000000
 30
0.000000
 40
0.006000
 41
0.006000
 70
0
  0
VERTEX
  8
20
 10
-1.741174
 20
5.576681
 30
0.000000
  0
VERTEX
  8
20
 10
-1.741174
 20
5.512626
 30
0.000000
  0
SEQEND
  8
0
  0
POLYLINE
  8
20
 66
1
 10
0.000000
 20
0.000000
 30
0.000000
 40
0.003000
 41
0.003000
 70
0
  0
VERTEX
  8
20
 10
-1.742674
 20
5.512626
 30
0.000000
 42
1.000000
  0
VERTEX
  8
20
 10
-1.739674
 20
5.512626
 30
0.000000
  0
SEQEND
  8
0
  0
POLYLINE
  8
20
 66
1
 10
0.000000
 20
0.000000
 30
0.000000
 40
0.003000
 41
0.003000
 70
0
  0
VERTEX
  8
20
 10
-1.739674
 20
5.576681
 30
0.000000
 42
1.000000
  0
VERTEX
  8
20
 10
-1.742674
 20
5.576681
 30
0.000000
  0
SEQEND
  8
0
  0
POLYLINE
  8
20
 66
1
 10
0.000000
 20
0.000000
 30
0.000000
 40
0.006000
 41
0.006000
 70
0
  0
VERTEX
  8
20
 10
-1.762526
 20
5.512626
 30
0.000000
  0
VERTEX
  8
20
 10
-1.719823
 20
5.512626
 30
0.000000
  0
SEQEND
  8
0
  0
POLYLINE
  8
20
 66
1
 10
0.000000
 20
0.000000
 30
0.000000
 40
0.003000
 41
0.003000
 70
0
  0
VERTEX
  8
20
 10
-1.719823
 20
5.511126
 30
0.000000
 42
1.000000
  0
VERTEX
  8
20
 10
-1.719823
 20
5.514126
 30
0.000000
  0
SEQEND
  8
0
  0
POLYLINE
  8
20
 66
1
 10
0.000000
 20
0.000000
 30
0.000000
 40
0.003000
 41
0.003000
 70
0
  0
VERTEX
  8
20
 10
-1.762526
 20
5.514126
 30
0.000000
 42
1.000000
  0
VERTEX
  8
20
 10
-1.762526
 20
5.511126
 30
0.000000
  0
SEQEND
  8
0
  0
POLYLINE
  8
20
 66
1
 10
0.000000
 20
0.000000
 30
0.000000
 40
0.006000
 41
0.006000
 70
0
  0
VERTEX
  8
20
 10
-1.687395
 20
5.587356
 30
0.000000
  0
VERTEX
  8
20
 10
-1.687395
 20
5.566005
 30
0.000000
  0
SEQEND
  8
0
  0
POLYLINE
  8
20
 66
1
 10
0.000000
 20
0.000000
 30
0.000000
 40
0.003000
 41
0.003000
 70
0
  0
VERTEX
  8
20
 10
-1.688895
 20
5.566005
 30
0.000000
 42
1.000000
  0
VERTEX
  8
20
 10
-1.685895
 20
5.566005
 30
0.000000
  0
SEQEND
  8
0
  0
POLYLINE
  8
20
 66
1
 10
0.000000
 20
0.000000
 30
0.000000
 40
0.003000
 41
0.003000
 70
0
  0
VERTEX
  8
20
 10
-1.685895
 20
5.587356
 30
0.000000
 42
1.000000
  0
VERTEX
  8
20
 10
-1.688895
 20
5.587356
 30
0.000000
  0
SEQEND
  8
0
  0
POLYLINE
  8
20
 66
1
 10
0.000000
 20
0.000000
 30
0.000000
 40
0.006000
 41
0.006000
 70
0
  0
VERTEX
  8
20
 10
-1.687395
 20
5.566005
 30
0.000000
  0
VERTEX
  8
20
 10
-1.698071
 20
5.555329
 30
0.000000
  0
SEQEND
  8
0
  0
POLYLINE
  8
20
 66
1
 10
0.000000
 20
0.000000
 30
0.000000
 40
0.003000
 41
0.003000
 70
0
  0
VERTEX
  8
20
 10
-1.699132
 20
5.556390
 30
0.000000
 42
1.000000
  0
VERTEX
  8
20
 10
-1.697010
 20
5.554268
 30
0.000000
  0
SEQEND
  8
0
  0
POLYLINE
  8
20
 66
1
 10
0.000000
 20
0.000000
 30
0.000000
 40
0.003000
 41
0.003000
 70
0
  0
VERTEX
  8
20
 10
-1.686335
 20
5.564944
 30
0.000000
 42
1.000000
  0
VERTEX
  8
20
 10
-1.688456
 20
5.567066
 30
0.000000
  0
SEQEND
  8
0
  0
POLYLINE
  8
20
 66
1
 10
0.000000
 20
0.000000
 30
0.000000
 40
0.006000
 41
0.006000
 70
0
  0
VERTEX
  8
20
 10
-1.666044
 20
5.587356
 30
0.000000
  0
VERTEX
  8
20
 10
-1.666044
 20
5.566005
 30
0.000000
  0
SEQEND
  8
0
  0
POLYLINE
  8
20
 66
1
 10
0.000000
 20
0.000000
 30
0.000000
 40
0.003000
 41
0.003000
 70
0
  0
VERTEX
  8
20
 10
-1.667544
 20
5.566005
 30
0.000000
 42
1.000000
  0
VERTEX
  8
20
 10
-1.664544
 20
5.566005
 30
0.000000
  0
SEQEND
  8
0
  0
POLYLINE
  8
20
 66
1
 10
0.000000
 20
0.000000
 30
0.000000
 40
0.003000
 41
0.003000
 70
0
  0
VERTEX
  8
20
 10
-1.664544
 20
5.587356
 30
0.000000
 42
1.000000
  0
VERTEX
  8
20
 10
-1.667544
 20
5.587356
 30
0.000000
  0
SEQEND
  8
0
  0
POLYLINE
  8
20
 66
1
 10
0.000000
 20
0.000000
 30
0.000000
 40
0.006000
 41
0.006000
 70
0
  0
VERTEX
  8
20
 10
-1.666044
 20
5.566005
 30
0.000000
  0
VERTEX
  8
20
 10
-1.676719
 20
5.555329
 30
0.000000
  0
SEQEND
  8
0
  0
POLYLINE
  8
20
 66
1
 10
0.000000
 20
0.000000
 30
0.000000
 40
0.003000
 41
0.003000
 70
0
  0
VERTEX
  8
20
 10
-1.677780
 20
5.556390
 30
0.000000
 42
1.000000
  0
VERTEX
  8
20
 10
-1.675659
 20
5.554268
 30
0.000000
  0
SEQEND
  8
0
  0
POLYLINE
  8
20
 66
1
 10
0.000000
 20
0.000000
 30
0.000000
 40
0.003000
 41
0.003000
 70
0
  0
VERTEX
  8
20
 10
-1.664983
 20
5.564944
 30
0.000000
 42
1.000000
  0
VERTEX
  8
20
 10
-1.667104
 20
5.567066
 30
0.000000
  0
SEQEND
  8
0
  0
POLYLINE
  8
20
 66
1
 10
0.000000
 20
0.000000
 30
0.000000
 40
0.006000
 41
0.006000
 70
0
  0
VERTEX
  8
20
 10
-1.579903
 20
5.512626
 30
0.000000
  0
VERTEX
  8
20
 10
-1.547876
 20
5.512626
 30
0.000000
  0
SEQEND
  8
0
  0
POLYLINE
  8
20
 66
1
 10
0.000000
 20
0.000000
 30
0.000000
 40
0.003000
 41
0.003000
 70
0
  0
VERTEX
  8
20
 10
-1.547876
 20
5.511126
 30
0.000000
 42
1.000000
  0
VERTEX
  8
20
 10
-1.547876
 20
5.514126
 30
0.000000
  0
SEQEND
  8
0
  0
POLYLINE
  8
20
 66
1
 10
0.000000
 20
0.000000
 30
0.000000
 40
0.003000
 41
0.003000
 70
0
  0
VERTEX
  8
20
 10
-1.579903
 20
5.514126
 30
0.000000
 42
1.000000
  0
VERTEX
  8
20
 10
-1.579903
 20
5.511126
 30
0.000000
  0
SEQEND
  8
0
  0
POLYLINE
  8
20
 66
1
 10
0.000000
 20
0.000000
 30
0.000000
 40
0.006000
 41
0.006000
 70
0
  0
VERTEX
  8
20
 10
-1.547876
 20
5.512626
 30
0.000000
  0
VERTEX
  8
20
 10
-1.537200
 20
5.523302
 30
0.000000
  0
SEQEND
  8
0
  0
POLYLINE
  8
20
 66
1
 10
0.000000
 20
0.000000
 30
0.000000
 40
0.003000
 41
0.003000
 70
0
  0
VERTEX
  8
20
 10
-1.536140
 20
5.522241
 30
0.000000
 42
1.000000
  0
VERTEX
  8
20
 10
-1.538261
 20
5.524362
 30
0.000000
  0
SEQEND
  8
0
  0
POLYLINE
  8
20
 66
1
 10
0.000000
 20
0.000000
 30
0.000000
 40
0.003000
 41
0.003000
 70
0
  0
VERTEX
  8
20
 10
-1.548937
 20
5.513687
 30
0.000000
 42
1.000000
  0
VERTEX
  8
20
 10
-1.546815
 20
5.511565
 30
0.000000
  0
SEQEND
  8
0
  0
POLYLINE
  8
20
 66
1
 10
0.000000
 20
0.000000
 30
0.000000
 40
0.006000
 41
0.006000
 70
0
  0
VERTEX
  8
20
 10
-1.537200
 20
5.523302
 30
0.000000
  0
VERTEX
  8
20
 10
-1.547876
 20
5.533977
 30
0.000000
  0
SEQEND
  8
0
  0
POLYLINE
  8
20
 66
1
 10
0.000000
 20
0.000000
 30
0.000000
 40
0.003000
 41
0.003000
 70
0
  0
VERTEX
  8
20
 10
-1.546815
 20
5.535038
 30
0.000000
 42
1.000000
  0
VERTEX
  8
20
 10
-1.548937
 20
5.532917
 30
0.000000
  0
SEQEND
  8
0
  0
POLYLINE
  8
20
 66
1
 10
0.000000
 20
0.000000
 30
0.000000
 40
0.003000
 41
0.003000
 70
0
  0
VERTEX
  8
20
 10
-1.538261
 20
5.522241
 30
0.000000
 42
1.000000
  0
VERTEX
  8
20
 10
-1.536140
 20
5.524362
 30
0.000000
  0
SEQEND
  8
0
  0
POLYLINE
  8
20
 66
1
 10
0.000000
 20
0.000000
 30
0.000000
 40
0.006000
 41
0.006000
 70
0
  0
VERTEX
  8
20
 10
-1.547876
 20
5.533977
 30
0.000000
  0
VERTEX
  8
20
 10
-1.569228
 20
5.533977
 30
0.000000
  0
SEQEND
  8
0
  0
POLYLINE
  8
20
 66
1
 10
0.000000
 20
0.000000
 30
0.000000
 40
0.003000
 41
0.003000
 70
0
  0
VERTEX
  8
20
 10
-1.569228
 20
5.535477
 30
0.000000
 42
1.000000
  0
VERTEX
  8
20
 10
-1.569228
 20
5.532477
 30
0.000000
  0
SEQEND
  8
0
  0
POLYLINE
  8
20
 66
1
 10
0.000000
 20
0.000000
 30
0.000000
 40
0.003000
 41
0.003000
 70
0
  0
VERTEX
  8
20
 10
-1.547876
 20
5.532477
 30
0.000000
 42
1.000000
  0
VERTEX
  8
20
 10
-1.547876
 20
5.535477
 30
0.000000
  0
SEQEND
  8
0
  0
POLYLINE
  8
20
 66
1
 10
0.000000
 20
0.000000
 30
0.000000
 40
0.006000
 41
0.006000
 70
0
  0
VERTEX
  8
20
 10
-1.569228
 20
5.533977
 30
0.000000
  0
VERTEX
  8
20
 10
-1.579903
 20
5.544653
 30
0.000000
  0
SEQEND
  8
0
  0
POLYLINE
  8
20
 66
1
 10
0.000000
 20
0.000000
 30
0.000000
 40
0.003000
 41
0.003000
 70
0
  0
VERTEX
  8
20
 10
-1.578843
 20
5.545714
 30
0.000000
 42
1.000000
  0
VERTEX
  8
20
 10
-1.580964
 20
5.543593
 30
0.000000
  0
SEQEND
  8
0
  0
POLYLINE
  8
20
 66
1
 10
0.000000
 20
0.000000
 30
0.000000
 40
0.003000
 41
0.003000
 70
0
  0
VERTEX
  8
20
 10
-1.570288
 20
5.532917
 30
0.000000
 42
1.000000
  0
VERTEX
  8
20
 10
-1.568167
 20
5.535038
 30
0.000000
  0
SEQEND
  8
0
  0
POLYLINE
  8
20
 66
1
 10
0.000000
 20
0.000000
 30
0.000000
 40
0.006000
 41
0.006000
 70
0
  0
VERTEX
  8
20
 10
-1.579903
 20
5.544653
 30
0.000000
  0
VERTEX
  8
20
 10
-1.569228
 20
5.555329
 30
0.000000
  0
SEQEND
  8
0
  0
POLYLINE
  8
20
 66
1
 10
0.000000
 20
0.000000
 30
0.000000
 40
0.003000
 41
0.003000
 70
0
  0
VERTEX
  8
20
 10
-1.568167
 20
5.554268
 30
0.000000
 42
1.000000
  0
VERTEX
  8
20
 10
-1.570288
 20
5.556390
 30
0.000000
  0
SEQEND
  8
0
  0
POLYLINE
  8
20
 66
1
 10
0.000000
 20
0.000000
 30
0.000000
 40
0.003000
 41
0.003000
 70
0
  0
VERTEX
  8
20
 10
-1.580964
 20
5.545714
 30
0.000000
 42
1.000000
  0
VERTEX
  8
20
 10
-1.578843
 20
5.543593
 30
0.000000
  0
SEQEND
  8
0
  0
POLYLINE
  8
20
 66
1
 10
0.000000
 20
0.000000
 30
0.000000
 40
0.006000
 41
0.006000
 70
0
  0
VERTEX
  8
20
 10
-1.569228
 20
5.555329
 30
0.000000
  0
VERTEX
  8
20
 10
-1.537200
 20
5.555329
 30
0.000000
  0
SEQEND
  8
0
  0
POLYLINE
  8
20
 66
1
 10
0.000000
 20
0.000000
 30
0.000000
 40
0.003000
 41
0.003000
 70
0
  0
VERTEX
  8
20
 10
-1.537200
 20
5.553829
 30
0.000000
 42
1.000000
  0
VERTEX
  8
20
 10
-1.537200
 20
5.556829
 30
0.000000
  0
SEQEND
  8
0
  0
POLYLINE
  8
20
 66
1
 10
0.000000
 20
0.000000
 30
0.000000
 40
0.003000
 41
0.003000
 70
0
  0
VERTEX
  8
20
 10
-1.569228
 20
5.556829
 30
0.000000
 42
1.000000
  0
VERTEX
  8
20
 10
-1.569228
 20
5.553829
 30
0.000000
  0
SEQEND
  8
0
  0
POLYLINE
  8
20
 66
1
 10
0.000000
 20
0.000000
 30
0.000000
 40
0.006000
 41
0.006000
 70
0
  0
VERTEX
  8
20
 10
-1.472745
 20
5.491274
 30
0.000000
  0
VERTEX
  8
20
 10
-1.472745
 20
5.555329
 30
0.000000
  0
SEQEND
  8
0
  0
POLYLINE
  8
20
 66
1
 10
0.000000
 20
0.000000
 30
0.000000
 40
0.003000
 41
0.003000
 70
0
  0
VERTEX
  8
20
 10
-1.471245
 20
5.555329
 30
0.000000
 42
1.000000
  0
VERTEX
  8
20
 10
-1.474245
 20
5.555329
 30
0.000000
  0
SEQEND
  8
0
  0
POLYLINE
  8
20
 66
1
 10
0.000000
 20
0.000000
 30
0.000000
 40
0.003000
 41
0.003000
 70
0
  0
VERTEX
  8
20
 10
-1.474245
 20
5.491274
 30
0.000000
 42
1.000000
  0
VERTEX
  8
20
 10
-1.471245
 20
5.491274
 30
0.000000
  0
SEQEND
  8
0
  0
POLYLINE
  8
20
 66
1
 10
0.000000
 20
0.000000
 30
0.000000
 40
0.006000
 41
0.006000
 70
0
  0
VERTEX
  8
20
 10
-1.472745
 20
5.555329
 30
0.000000
  0
VERTEX
  8
20
 10
-1.504773
 20
5.555329
 30
0.000000
  0
SEQEND
  8
0
  0
POLYLINE
  8
20
 66
1
 10
0.000000
 20
0.000000
 30
0.000000
 40
0.003000
 41
0.003000
 70
0
  0
VERTEX
  8
20
 10
-1.504773
 20
5.556829
 30
0.000000
 42
1.000000
  0
VERTEX
  8
20
 10
-1.504773
 20
5.553829
 30
0.000000
  0
SEQEND
  8
0
  0
POLYLINE
  8
20
 66
1
 10
0.000000
 20
0.000000
 30
0.000000
 40
0.003000
 41
0.003000
 70
0
  0
VERTEX
  8
20
 10
-1.472745
 20
5.553829
 30
0.000000
 42
1.000000
  0
VERTEX
  8
20
 10
-1.472745
 20
5.556829
 30
0.000000
  0
SEQEND
  8
0
  0
POLYLINE
  8
20
 66
1
 10
0.000000
 20
0.000000
 30
0.000000
 40
0.006000
 41
0.006000
 70
0
  0
VERTEX
  8
20
 10
-1.504773
 20
5.555329
 30
0.000000
  0
VERTEX
  8
20
 10
-1.515448
 20
5.544653
 30
0.000000
  0
SEQEND
  8
0
  0
POLYLINE
  8
20
 66
1
 10
0.000000
 20
0.000000
 30
0.000000
 40
0.003000
 41
0.003000
 70
0
  0
VERTEX
  8
20
 10
-1.516509
 20
5.545714
 30
0.000000
 42
1.000000
  0
VERTEX
  8
20
 10
-1.514388
 20
5.543593
 30
0.000000
  0
SEQEND
  8
0
  0
POLYLINE
  8
20
 66
1
 10
0.000000
 20
0.000000
 30
0.000000
 40
0.003000
 41
0.003000
 70
0
  0
VERTEX
  8
20
 10
-1.503712
 20
5.554268
 30
0.000000
 42
1.000000
  0
VERTEX
  8
20
 10
-1.505833
 20
5.556390
 30
0.000000
  0
SEQEND
  8
0
  0
POLYLINE
  8
20
 66
1
 10
0.000000
 20
0.000000
 30
0.000000
 40
0.006000
 41
0.006000
 70
0
  0
VERTEX
  8
20
 10
-1.515448
 20
5.544653
 30
0.000000
  0
VERTEX
  8
20
 10
-1.515448
 20
5.523302
 30
0.000000
  0
SEQEND
  8
0
  0
POLYLINE
  8
20
 66
1
 10
0.000000
 20
0.000000
 30
0.000000
 40
0.003000
 41
0.003000
 70
0
  0
VERTEX
  8
20
 10
-1.516948
 20
5.523302
 30
0.000000
 42
1.000000
  0
VERTEX
  8
20
 10
-1.513948
 20
5.523302
 30
0.000000
  0
SEQEND
  8
0
  0
POLYLINE
  8
20
 66
1
 10
0.000000
 20
0.000000
 30
0.000000
 40
0.003000
 41
0.003000
 70
0
  0
VERTEX
  8
20
 10
-1.513948
 20
5.544653
 30
0.000000
 42
1.000000
  0
VERTEX
  8
20
 10
-1.516948
 20
5.544653
 30
0.000000
  0
SEQEND
  8
0
  0
POLYLINE
  8
20
 66
1
 10
0.000000
 20
0.000000
 30
0.000000
 40
0.006000
 41
0.006000
 70
0
  0
VERTEX
  8
20
 10
-1.515448
 20
5.523302
 30
0.000000
  0
VERTEX
  8
20
 10
-1.504773
 20
5.512626
 30
0.000000
  0
SEQEND
  8
0
  0
POLYLINE
  8
20
 66
1
 10
0.000000
 20
0.000000
 30
0.000000
 40
0.003000
 41
0.003000
 70
0
  0
VERTEX
  8
20
 10
-1.505833
 20
5.511565
 30
0.000000
 42
1.000000
  0
VERTEX
  8
20
 10
-1.503712
 20
5.513687
 30
0.000000
  0
SEQEND
  8
0
  0
POLYLINE
  8
20
 66
1
 10
0.000000
 20
0.000000
 30
0.000000
 40
0.003000
 41
0.003000
 70
0
  0
VERTEX
  8
20
 10
-1.514388
 20
5.524362
 30
0.000000
 42
1.000000
  0
VERTEX
  8
20
 10
-1.516509
 20
5.522241
 30
0.000000
  0
SEQEND
  8
0
  0
POLYLINE
  8
20
 66
1
 10
0.000000
 20
0.000000
 30
0.000000
 40
0.006000
 41
0.006000
 70
0
  0
VERTEX
  8
20
 10
-1.504773
 20
5.512626
 30
0.000000
  0
VERTEX
  8
20
 10
-1.472745
 20
5.512626
 30
0.000000
  0
SEQEND
  8
0
  0
POLYLINE
  8
20
 66
1
 10
0.000000
 20
0.000000
 30
0.000000
 40
0.003000
 41
0.003000
 70
0
  0
VERTEX
  8
20
 10
-1.472745
 20
5.511126
 30
0.000000
 42
1.000000
  0
VERTEX
  8
20
 10
-1.472745
 20
5.514126
 30
0.000000
  0
SEQEND
  8
0
  0
POLYLINE
  8
20
 66
1
 10
0.000000
 20
0.000000
 30
0.000000
 40
0.003000
 41
0.003000
 70
0
  0
VERTEX
  8
20
 10
-1.504773
 20
5.514126
 30
0.000000
 42
1.000000
  0
VERTEX
  8
20
 10
-1.504773
 20
5.511126
 30
0.000000
  0
SEQEND
  8
0
  0
POLYLINE
  8
20
 66
1
 10
0.000000
 20
0.000000
 30
0.000000
 40
0.006000
 41
0.006000
 70
0
  0
VERTEX
  8
20
 10
-1.450993
 20
5.555329
 30
0.000000
  0
VERTEX
  8
20
 10
-1.450993
 20
5.523302
 30
0.000000
  0
SEQEND
  8
0
  0
POLYLINE
  8
20
 66
1
 10
0.000000
 20
0.000000
 30
0.000000
 40
0.003000
 41
0.003000
 70
0
  0
VERTEX
  8
20
 10
-1.452493
 20
5.523302
 30
0.000000
 42
1.000000
  0
VERTEX
  8
20
 10
-1.449493
 20
5.523302
 30
0.000000
  0
SEQEND
  8
0
  0
POLYLINE
  8
20
 66
1
 10
0.000000
 20
0.000000
 30
0.000000
 40
0.003000
 41
0.003000
 70
0
  0
VERTEX
  8
20
 10
-1.449493
 20
5.555329
 30
0.000000
 42
1.000000
  0
VERTEX
  8
20
 10
-1.452493
 20
5.555329
 30
0.000000
  0
SEQEND
  8
0
  0
POLYLINE
  8
20
 66
1
 10
0.000000
 20
0.000000
 30
0.000000
 40
0.006000
 41
0.006000
 70
0
  0
VERTEX
  8
20
 10
-1.450993
 20
5.523302
 30
0.000000
  0
VERTEX
  8
20
 10
-1.440318
 20
5.512626
 30
0.000000
  0
SEQEND
  8
0
  0
POLYLINE
  8
20
 66
1
 10
0.000000
 20
0.000000
 30
0.000000
 40
0.003000
 41
0.003000
 70
0
  0
VERTEX
  8
20
 10
-1.441378
 20
5.511565
 30
0.000000
 42
1.000000
  0
VERTEX
  8
20
 10
-1.439257
 20
5.513687
 30
0.000000
  0
SEQEND
  8
0
  0
POLYLINE
  8
20
 66
1
 10
0.000000
 20
0.000000
 30
0.000000
 40
0.003000
 41
0.003000
 70
0
  0
VERTEX
  8
20
 10
-1.449933
 20
5.524362
 30
0.000000
 42
1.000000
  0
VERTEX
  8
20
 10
-1.452054
 20
5.522241
 30
0.000000
  0
SEQEND
  8
0
  0
POLYLINE
  8
20
 66
1
 10
0.000000
 20
0.000000
 30
0.000000
 40
0.006000
 41
0.006000
 70
0
  0
VERTEX
  8
20
 10
-1.440318
 20
5.512626
 30
0.000000
  0
VERTEX
  8
20
 10
-1.408290
 20
5.512626
 30
0.000000
  0
SEQEND
  8
0
  0
POLYLINE
  8
20
 66
1
 10
0.000000
 20
0.000000
 30
0.000000
 40
0.003000
 41
0.003000
 70
0
  0
VERTEX
  8
20
 10
-1.408290
 20
5.511126
 30
0.000000
 42
1.000000
  0
VERTEX
  8
20
 10
-1.408290
 20
5.514126
 30
0.000000
  0
SEQEND
  8
0
  0
POLYLINE
  8
20
 66
1
 10
0.000000
 20
0.000000
 30
0.000000
 40
0.003000
 41
0.003000
 70
0
  0
VERTEX
  8
20
 10
-1.440318
 20
5.514126
 30
0.000000
 42
1.000000
  0
VERTEX
  8
20
 10
-1.440318
 20
5.511126
 30
0.000000
  0
SEQEND
  8
0
  0
POLYLINE
  8
20
 66
1
 10
0.000000
 20
0.000000
 30
0.000000
 40
0.006000
 41
0.006000
 70
0
  0
VERTEX
  8
20
 10
-1.408290
 20
5.512626
 30
0.000000
  0
VERTEX
  8
20
 10
-1.408290
 20
5.555329
 30
0.000000
  0
SEQEND
  8
0
  0
POLYLINE
  8
20
 66
1
 10
0.000000
 20
0.000000
 30
0.000000
 40
0.003000
 41
0.003000
 70
0
  0
VERTEX
  8
20
 10
-1.406790
 20
5.555329
 30
0.000000
 42
1.000000
  0
VERTEX
  8
20
 10
-1.409790
 20
5.555329
 30
0.000000
  0
SEQEND
  8
0
  0
POLYLINE
  8
20
 66
1
 10
0.000000
 20
0.000000
 30
0.000000
 40
0.003000
 41
0.003000
 70
0
  0
VERTEX
  8
20
 10
-1.409790
 20
5.512626
 30
0.000000
 42
1.000000
  0
VERTEX
  8
20
 10
-1.406790
 20
5.512626
 30
0.000000
  0
SEQEND
  8
0
  0
POLYLINE
  8
20
 66
1
 10
0.000000
 20
0.000000
 30
0.000000
 40
0.006000
 41
0.006000
 70
0
  0
VERTEX
  8
20
 10
-1.375863
 20
5.555329
 30
0.000000
  0
VERTEX
  8
20
 10
-1.354511
 20
5.555329
 30
0.000000
  0
SEQEND
  8
0
  0
POLYLINE
  8
20
 66
1
 10
0.000000
 20
0.000000
 30
0.000000
 40
0.003000
 41
0.003000
 70
0
  0
VERTEX
  8
20
 10
-1.354511
 20
5.553829
 30
0.000000
 42
1.000000
  0
VERTEX
  8
20
 10
-1.354511
 20
5.556829
 30
0.000000
  0
SEQEND
  8
0
  0
POLYLINE
  8
20
 66
1
 10
0.000000
 20
0.000000
 30
0.000000
 40
0.003000
 41
0.003000
 70
0
  0
VERTEX
  8
20
 10
-1.375863
 20
5.556829
 30
0.000000
 42
1.000000
  0
VERTEX
  8
20
 10
-1.375863
 20
5.553829
 30
0.000000
  0
SEQEND
  8
0
  0
POLYLINE
  8
20
 66
1
 10
0.000000
 20
0.000000
 30
0.000000
 40
0.006000
 41
0.006000
 70
0
  0
VERTEX
  8
20
 10
-1.354511
 20
5.555329
 30
0.000000
  0
VERTEX
  8
20
 10
-1.343835
 20
5.544653
 30
0.000000
  0
SEQEND
  8
0
  0
POLYLINE
  8
20
 66
1
 10
0.000000
 20
0.000000
 30
0.000000
 40
0.003000
 41
0.003000
 70
0
  0
VERTEX
  8
20
 10
-1.344896
 20
5.543593
 30
0.000000
 42
1.000000
  0
VERTEX
  8
20
 10
-1.342775
 20
5.545714
 30
0.000000
  0
SEQEND
  8
0
  0
POLYLINE
  8
20
 66
1
 10
0.000000
 20
0.000000
 30
0.000000
 40
0.003000
 41
0.003000
 70
0
  0
VERTEX
  8
20
 10
-1.353451
 20
5.556390
 30
0.000000
 42
1.000000
  0
VERTEX
  8
20
 10
-1.355572
 20
5.554268
 30
0.000000
  0
SEQEND
  8
0
  0
POLYLINE
  8
20
 66
1
 10
0.000000
 20
0.000000
 30
0.000000
 40
0.006000
 41
0.006000
 70
0
  0
VERTEX
  8
20
 10
-1.343835
 20
5.544653
 30
0.000000
  0
VERTEX
  8
20
 10
-1.343835
 20
5.512626
 30
0.000000
  0
SEQEND
  8
0
  0
POLYLINE
  8
20
 66
1
 10
0.000000
 20
0.000000
 30
0.000000
 40
0.003000
 41
0.003000
 70
0
  0
VERTEX
  8
20
 10
-1.345335
 20
5.512626
 30
0.000000
 42
1.000000
  0
VERTEX
  8
20
 10
-1.342335
 20
5.512626
 30
0.000000
  0
SEQEND
  8
0
  0
POLYLINE
  8
20
 66
1
 10
0.000000
 20
0.000000
 30
0.000000
 40
0.003000
 41
0.003000
 70
0
  0
VERTEX
  8
20
 10
-1.342335
 20
5.544653
 30
0.000000
 42
1.000000
  0
VERTEX
  8
20
 10
-1.345335
 20
5.544653
 30
0.000000
  0
SEQEND
  8
0
  0
POLYLINE
  8
20
 66
1
 10
0.000000
 20
0.000000
 30
0.000000
 40
0.006000
 41
0.006000
 70
0
  0
VERTEX
  8
20
 10
-1.343835
 20
5.512626
 30
0.000000
  0
VERTEX
  8
20
 10
-1.375863
 20
5.512626
 30
0.000000
  0
SEQEND
  8
0
  0
POLYLINE
  8
20
 66
1
 10
0.000000
 20
0.000000
 30
0.000000
 40
0.003000
 41
0.003000
 70
0
  0
VERTEX
  8
20
 10
-1.375863
 20
5.514126
 30
0.000000
 42
1.000000
  0
VERTEX
  8
20
 10
-1.375863
 20
5.511126
 30
0.000000
  0
SEQEND
  8
0
  0
POLYLINE
  8
20
 66
1
 10
0.000000
 20
0.000000
 30
0.000000
 40
0.003000
 41
0.003000
 70
0
  0
VERTEX
  8
20
 10
-1.343835
 20
5.511126
 30
0.000000
 42
1.000000
  0
VERTEX
  8
20
 10
-1.343835
 20
5.514126
 30
0.000000
  0
SEQEND
  8
0
  0
POLYLINE
  8
20
 66
1
 10
0.000000
 20
0.000000
 30
0.000000
 40
0.006000
 41
0.006000
 70
0
  0
VERTEX
  8
20
 10
-1.375863
 20
5.512626
 30
0.000000
  0
VERTEX
  8
20
 10
-1.386539
 20
5.523302
 30
0.000000
  0
SEQEND
  8
0
  0
POLYLINE
  8
20
 66
1
 10
0.000000
 20
0.000000
 30
0.000000
 40
0.003000
 41
0.003000
 70
0
  0
VERTEX
  8
20
 10
-1.385478
 20
5.524362
 30
0.000000
 42
1.000000
  0
VERTEX
  8
20
 10
-1.387599
 20
5.522241
 30
0.000000
  0
SEQEND
  8
0
  0
POLYLINE
  8
20
 66
1
 10
0.000000
 20
0.000000
 30
0.000000
 40
0.003000
 41
0.003000
 70
0
  0
VERTEX
  8
20
 10
-1.376923
 20
5.511565
 30
0.000000
 42
1.000000
  0
VERTEX
  8
20
 10
-1.374802
 20
5.513687
 30
0.000000
  0
SEQEND
  8
0
  0
POLYLINE
  8
20
 66
1
 10
0.000000
 20
0.000000
 30
0.000000
 40
0.006000
 41
0.006000
 70
0
  0
VERTEX
  8
20
 10
-1.386539
 20
5.523302
 30
0.000000
  0
VERTEX
  8
20
 10
-1.375863
 20
5.533977
 30
0.000000
  0
SEQEND
  8
0
  0
POLYLINE
  8
20
 66
1
 10
0.000000
 20
0.000000
 30
0.000000
 40
0.003000
 41
0.003000
 70
0
  0
VERTEX
  8
20
 10
-1.374802
 20
5.532917
 30
0.000000
 42
1.000000
  0
VERTEX
  8
20
 10
-1.376923
 20
5.535038
 30
0.000000
  0
SEQEND
  8
0
  0
POLYLINE
  8
20
 66
1
 10
0.000000
 20
0.000000
 30
0.000000
 40
0.003000
 41
0.003000
 70
0
  0
VERTEX
  8
20
 10
-1.387599
 20
5.524362
 30
0.000000
 42
1.000000
  0
VERTEX
  8
20
 10
-1.385478
 20
5.522241
 30
0.000000
  0
SEQEND
  8
0
  0
POLYLINE
  8
20
 66
1
 10
0.000000
 20
0.000000
 30
0.000000
 40
0.006000
 41
0.006000
 70
0
  0
VERTEX
  8
20
 10
-1.375863
 20
5.533977
 30
0.000000
  0
VERTEX
  8
20
 10
-1.343835
 20
5.533977
 30
0.000000
  0
SEQEND
  8
0
  0
POLYLINE
  8
20
 66
1
 10
0.000000
 20
0.000000
 30
0.000000
 40
0.003000
 41
0.003000
 70
0
  0
VERTEX
  8
20
 10
-1.343835
 20
5.532477
 30
0.000000
 42
1.000000
  0
VERTEX
  8
20
 10
-1.343835
 20
5.535477
 30
0.000000
  0
SEQEND
  8
0
  0
POLYLINE
  8
20
 66
1
 10
0.000000
 20
0.000000
 30
0.000000
 40
0.003000
 41
0.003000
 70
0
  0
VERTEX
  8
20
 10
-1.375863
 20
5.535477
 30
0.000000
 42
1.000000
  0
VERTEX
  8
20
 10
-1.375863
 20
5.532477
 30
0.000000
  0
SEQEND
  8
0
  0
POLYLINE
  8
20
 66
1
 10
0.000000
 20
0.000000
 30
0.000000
 40
0.006000
 41
0.006000
 70
0
  0
VERTEX
  8
20
 10
-1.322084
 20
5.512626
 30
0.000000
  0
VERTEX
  8
20
 10
-1.322084
 20
5.555329
 30
0.000000
  0
SEQEND
  8
0
  0
POLYLINE
  8
20
 66
1
 10
0.000000
 20
0.000000
 30
0.000000
 40
0.003000
 41
0.003000
 70
0
  0
VERTEX
  8
20
 10
-1.320584
 20
5.555329
 30
0.000000
 42
1.000000
  0
VERTEX
  8
20
 10
-1.323584
 20
5.555329
 30
0.000000
  0
SEQEND
  8
0
  0
POLYLINE
  8
20
 66
1
 10
0.000000
 20
0.000000
 30
0.000000
 40
0.003000
 41
0.003000
 70
0
  0
VERTEX
  8
20
 10
-1.323584
 20
5.512626
 30
0.000000
 42
1.000000
  0
VERTEX
  8
20
 10
-1.320584
 20
5.512626
 30
0.000000
  0
SEQEND
  8
0
  0
POLYLINE
  8
20
 66
1
 10
0.000000
 20
0.000000
 30
0.000000
 40
0.006000
 41
0.006000
 70
0
  0
VERTEX
  8
20
 10
-1.322084
 20
5.533977
 30
0.000000
  0
VERTEX
  8
20
 10
-1.300732
 20
5.555329
 30
0.000000
  0
SEQEND
  8
0
  0
POLYLINE
  8
20
 66
1
 10
0.000000
 20
0.000000
 30
0.000000
 40
0.003000
 41
0.003000
 70
0
  0
VERTEX
  8
20
 10
-1.299671
 20
5.554268
 30
0.000000
 42
1.000000
  0
VERTEX
  8
20
 10
-1.301793
 20
5.556390
 30
0.000000
  0
SEQEND
  8
0
  0
POLYLINE
  8
20
 66
1
 10
0.000000
 20
0.000000
 30
0.000000
 40
0.003000
 41
0.003000
 70
0
  0
VERTEX
  8
20
 10
-1.323144
 20
5.535038
 30
0.000000
 42
1.000000
  0
VERTEX
  8
20
 10
-1.321023
 20
5.532917
 30
0.000000
  0
SEQEND
  8
0
  0
POLYLINE
  8
20
 66
1
 10
0.000000
 20
0.000000
 30
0.000000
 40
0.006000
 41
0.006000
 70
0
  0
VERTEX
  8
20
 10
-1.300732
 20
5.555329
 30
0.000000
  0
VERTEX
  8
20
 10
-1.290056
 20
5.555329
 30
0.000000
  0
SEQEND
  8
0
  0
POLYLINE
  8
20
 66
1
 10
0.000000
 20
0.000000
 30
0.000000
 40
0.003000
 41
0.003000
 70
0
  0
VERTEX
  8
20
 10
-1.290056
 20
5.553829
 30
0.000000
 42
1.000000
  0
VERTEX
  8
20
 10
-1.290056
 20
5.556829
 30
0.000000
  0
SEQEND
  8
0
  0
POLYLINE
  8
20
 66
1
 10
0.000000
 20
0.000000
 30
0.000000
 40
0.003000
 41
0.003000
 70
0
  0
VERTEX
  8
20
 10
-1.300732
 20
5.556829
 30
0.000000
 42
1.000000
  0
VERTEX
  8
20
 10
-1.300732
 20
5.553829
 30
0.000000
  0
SEQEND
  8
0
  0
POLYLINE
  8
20
 66
1
 10
0.000000
 20
0.000000
 30
0.000000
 40
0.006000
 41
0.006000
 70
0
  0
VERTEX
  8
20
 10
-1.236344
 20
5.512626
 30
0.000000
  0
VERTEX
  8
20
 10
-1.257695
 20
5.512626
 30
0.000000
  0
SEQEND
  8
0
  0
POLYLINE
  8
20
 66
1
 10
0.000000
 20
0.000000
 30
0.000000
 40
0.003000
 41
0.003000
 70
0
  0
VERTEX
  8
20
 10
-1.257695
 20
5.514126
 30
0.000000
 42
1.000000
  0
VERTEX
  8
20
 10
-1.257695
 20
5.511126
 30
0.000000
  0
SEQEND
  8
0
  0
POLYLINE
  8
20
 66
1
 10
0.000000
 20
0.000000
 30
0.000000
 40
0.003000
 41
0.003000
 70
0
  0
VERTEX
  8
20
 10
-1.236344
 20
5.511126
 30
0.000000
 42
1.000000
  0
VERTEX
  8
20
 10
-1.236344
 20
5.514126
 30
0.000000
  0
SEQEND
  8
0
  0
POLYLINE
  8
20
 66
1
 10
0.000000
 20
0.000000
 30
0.000000
 40
0.006000
 41
0.006000
 70
0
  0
VERTEX
  8
20
 10
-1.257695
 20
5.512626
 30
0.000000
  0
VERTEX
  8
20
 10
-1.268371
 20
5.523302
 30
0.000000
  0
SEQEND
  8
0
  0
POLYLINE
  8
20
 66
1
 10
0.000000
 20
0.000000
 30
0.000000
 40
0.003000
 41
0.003000
 70
0
  0
VERTEX
  8
20
 10
-1.267310
 20
5.524362
 30
0.000000
 42
1.000000
  0
VERTEX
  8
20
 10
-1.269432
 20
5.522241
 30
0.000000
  0
SEQEND
  8
0
  0
POLYLINE
  8
20
 66
1
 10
0.000000
 20
0.000000
 30
0.000000
 40
0.003000
 41
0.003000
 70
0
  0
VERTEX
  8
20
 10
-1.258756
 20
5.511565
 30
0.000000
 42
1.000000
  0
VERTEX
  8
20
 10
-1.256635
 20
5.513687
 30
0.000000
  0
SEQEND
  8
0
  0
POLYLINE
  8
20
 66
1
 10
0.000000
 20
0.000000
 30
0.000000
 40
0.006000
 41
0.006000
 70
0
  0
VERTEX
  8
20
 10
-1.268371
 20
5.523302
 30
0.000000
  0
VERTEX
  8
20
 10
-1.268371
 20
5.544653
 30
0.000000
  0
SEQEND
  8
0
  0
POLYLINE
  8
20
 66
1
 10
0.000000
 20
0.000000
 30
0.000000
 40
0.003000
 41
0.003000
 70
0
  0
VERTEX
  8
20
 10
-1.266871
 20
5.544653
 30
0.000000
 42
1.000000
  0
VERTEX
  8
20
 10
-1.269871
 20
5.544653
 30
0.000000
  0
SEQEND
  8
0
  0
POLYLINE
  8
20
 66
1
 10
0.000000
 20
0.000000
 30
0.000000
 40
0.003000
 41
0.003000
 70
0
  0
VERTEX
  8
20
 10
-1.269871
 20
5.523302
 30
0.000000
 42
1.000000
  0
VERTEX
  8
20
 10
-1.266871
 20
5.523302
 30
0.000000
  0
SEQEND
  8
0
  0
POLYLINE
  8
20
 66
1
 10
0.000000
 20
0.000000
 30
0.000000
 40
0.006000
 41
0.006000
 70
0
  0
VERTEX
  8
20
 10
-1.268371
 20
5.544653
 30
0.000000
  0
VERTEX
  8
20
 10
-1.257695
 20
5.555329
 30
0.000000
  0
SEQEND
  8
0
  0
POLYLINE
  8
20
 66
1
 10
0.000000
 20
0.000000
 30
0.000000
 40
0.003000
 41
0.003000
 70
0
  0
VERTEX
  8
20
 10
-1.256635
 20
5.554268
 30
0.000000
 42
1.000000
  0
VERTEX
  8
20
 10
-1.258756
 20
5.556390
 30
0.000000
  0
SEQEND
  8
0
  0
POLYLINE
  8
20
 66
1
 10
0.000000
 20
0.000000
 30
0.000000
 40
0.003000
 41
0.003000
 70
0
  0
VERTEX
  8
20
 10
-1.269432
 20
5.545714
 30
0.000000
 42
1.000000
  0
VERTEX
  8
20
 10
-1.267310
 20
5.543593
 30
0.000000
  0
SEQEND
  8
0
  0
POLYLINE
  8
20
 66
1
 10
0.000000
 20
0.000000
 30
0.000000
 40
0.006000
 41
0.006000
 70
0
  0
VERTEX
  8
20
 10
-1.257695
 20
5.555329
 30
0.000000
  0
VERTEX
  8
20
 10
-1.236344
 20
5.555329
 30
0.000000
  0
SEQEND
  8
0
  0
POLYLINE
  8
20
 66
1
 10
0.000000
 20
0.000000
 30
0.000000
 40
0.003000
 41
0.003000
 70
0
  0
VERTEX
  8
20
 10
-1.236344
 20
5.553829
 30
0.000000
 42
1.000000
  0
VERTEX
  8
20
 10
-1.236344
 20
5.556829
 30
0.000000
  0
SEQEND
  8
0
  0
POLYLINE
  8
20
 66
1
 10
0.000000
 20
0.000000
 30
0.000000
 40
0.003000
 41
0.003000
 70
0
  0
VERTEX
  8
20
 10
-1.257695
 20
5.556829
 30
0.000000
 42
1.000000
  0
VERTEX
  8
20
 10
-1.257695
 20
5.553829
 30
0.000000
  0
SEQEND
  8
0
  0
POLYLINE
  8
20
 66
1
 10
0.000000
 20
0.000000
 30
0.000000
 40
0.006000
 41
0.006000
 70
0
  0
VERTEX
  8
20
 10
-1.236344
 20
5.555329
 30
0.000000
  0
VERTEX
  8
20
 10
-1.225668
 20
5.544653
 30
0.000000
  0
SEQEND
  8
0
  0
POLYLINE
  8
20
 66
1
 10
0.000000
 20
0.000000
 30
0.000000
 40
0.003000
 41
0.003000
 70
0
  0
VERTEX
  8
20
 10
-1.226729
 20
5.543593
 30
0.000000
 42
1.000000
  0
VERTEX
  8
20
 10
-1.224607
 20
5.545714
 30
0.000000
  0
SEQEND
  8
0
  0
POLYLINE
  8
20
 66
1
 10
0.000000
 20
0.000000
 30
0.000000
 40
0.003000
 41
0.003000
 70
0
  0
VERTEX
  8
20
 10
-1.235283
 20
5.556390
 30
0.000000
 42
1.000000
  0
VERTEX
  8
20
 10
-1.237404
 20
5.554268
 30
0.000000
  0
SEQEND
  8
0
  0
POLYLINE
  8
20
 66
1
 10
0.000000
 20
0.000000
 30
0.000000
 40
0.006000
 41
0.006000
 70
0
  0
VERTEX
  8
20
 10
-1.225668
 20
5.544653
 30
0.000000
  0
VERTEX
  8
20
 10
-1.225668
 20
5.533977
 30
0.000000
  0
SEQEND
  8
0
  0
POLYLINE
  8
20
 66
1
 10
0.000000
 20
0.000000
 30
0.000000
 40
0.003000
 41
0.003000
 70
0
  0
VERTEX
  8
20
 10
-1.227168
 20
5.533977
 30
0.000000
 42
1.000000
  0
VERTEX
  8
20
 10
-1.224168
 20
5.533977
 30
0.000000
  0
SEQEND
  8
0
  0
POLYLINE
  8
20
 66
1
 10
0.000000
 20
0.000000
 30
0.000000
 40
0.003000
 41
0.003000
 70
0
  0
VERTEX
  8
20
 10
-1.224168
 20
5.544653
 30
0.000000
 42
1.000000
  0
VERTEX
  8
20
 10
-1.227168
 20
5.544653
 30
0.000000
  0
SEQEND
  8
0
  0
POLYLINE
  8
20
 66
1
 10
0.000000
 20
0.000000
 30
0.000000
 40
0.006000
 41
0.006000
 70
0
  0
VERTEX
  8
20
 10
-1.225668
 20
5.533977
 30
0.000000
  0
VERTEX
  8
20
 10
-1.268371
 20
5.533977
 30
0.000000
  0
SEQEND
  8
0
  0
POLYLINE
  8
20
 66
1
 10
0.000000
 20
0.000000
 30
0.000000
 40
0.003000
 41
0.003000
 70
0
  0
VERTEX
  8
20
 10
-1.268371
 20
5.535477
 30
0.000000
 42
1.000000
  0
VERTEX
  8
20
 10
-1.268371
 20
5.532477
 30
0.000000
  0
SEQEND
  8
0
  0
POLYLINE
  8
20
 66
1
 10
0.000000
 20
0.000000
 30
0.000000
 40
0.003000
 41
0.003000
 70
0
  0
VERTEX
  8
20
 10
-1.225668
 20
5.532477
 30
0.000000
 42
1.000000
  0
VERTEX
  8
20
 10
-1.225668
 20
5.535477
 30
0.000000
  0
SEQEND
  8
0
  0
POLYLINE
  8
20
 66
1
 10
0.000000
 20
0.000000
 30
0.000000
 40
0.006000
 41
0.006000
 70
0
  0
VERTEX
  8
20
 10
-1.751783
 20
5.407626
 30
0.000000
  0
VERTEX
  8
20
 10
-1.751783
 20
5.450329
 30
0.000000
  0
SEQEND
  8
0
  0
POLYLINE
  8
20
 66
1
 10
0.000000
 20
0.000000
 30
0.000000
 40
0.003000
 41
0.003000
 70
0
  0
VERTEX
  8
20
 10
-1.750283
 20
5.450329
 30
0.000000
 42
1.000000
  0
VERTEX
  8
20
 10
-1.753283
 20
5.450329
 30
0.000000
  0
SEQEND
  8
0
  0
POLYLINE
  8
20
 66
1
 10
0.000000
 20
0.000000
 30
0.000000
 40
0.003000
 41
0.003000
 70
0
  0
VERTEX
  8
20
 10
-1.753283
 20
5.407626
 30
0.000000
 42
1.000000
  0
VERTEX
  8
20
 10
-1.750283
 20
5.407626
 30
0.000000
  0
SEQEND
  8
0
  0
POLYLINE
  8
20
 66
1
 10
0.000000
 20
0.000000
 30
0.000000
 40
0.006000
 41
0.006000
 70
0
  0
VERTEX
  8
20
 10
-1.751783
 20
5.428977
 30
0.000000
  0
VERTEX
  8
20
 10
-1.730432
 20
5.450329
 30
0.000000
  0
SEQEND
  8
0
  0
POLYLINE
  8
20
 66
1
 10
0.000000
 20
0.000000
 30
0.000000
 40
0.003000
 41
0.003000
 70
0
  0
VERTEX
  8
20
 10
-1.729371
 20
5.449268
 30
0.000000
 42
1.000000
  0
VERTEX
  8
20
 10
-1.731493
 20
5.451390
 30
0.000000
  0
SEQEND
  8
0
  0
POLYLINE
  8
20
 66
1
 10
0.000000
 20
0.000000
 30
0.000000
 40
0.003000
 41
0.003000
 70
0
  0
VERTEX
  8
20
 10
-1.752844
 20
5.430038
 30
0.000000
 42
1.000000
  0
VERTEX
  8
20
 10
-1.750723
 20
5.427917
 30
0.000000
  0
SEQEND
  8
0
  0
POLYLINE
  8
20
 66
1
 10
0.000000
 20
0.000000
 30
0.000000
 40
0.006000
 41
0.006000
 70
0
  0
VERTEX
  8
20
 10
-1.730432
 20
5.450329
 30
0.000000
  0
VERTEX
  8
20
 10
-1.719756
 20
5.450329
 30
0.000000
  0
SEQEND
  8
0
  0
POLYLINE
  8
20
 66
1
 10
0.000000
 20
0.000000
 30
0.000000
 40
0.003000
 41
0.003000
 70
0
  0
VERTEX
  8
20
 10
-1.719756
 20
5.448829
 30
0.000000
 42
1.000000
  0
VERTEX
  8
20
 10
-1.719756
 20
5.451829
 30
0.000000
  0
SEQEND
  8
0
  0
POLYLINE
  8
20
 66
1
 10
0.000000
 20
0.000000
 30
0.000000
 40
0.003000
 41
0.003000
 70
0
  0
VERTEX
  8
20
 10
-1.730432
 20
5.451829
 30
0.000000
 42
1.000000
  0
VERTEX
  8
20
 10
-1.730432
 20
5.448829
 30
0.000000
  0
SEQEND
  8
0
  0
POLYLINE
  8
20
 66
1
 10
0.000000
 20
0.000000
 30
0.000000
 40
0.006000
 41
0.006000
 70
0
  0
VERTEX
  8
20
 10
-1.666044
 20
5.407626
 30
0.000000
  0
VERTEX
  8
20
 10
-1.687395
 20
5.407626
 30
0.000000
  0
SEQEND
  8
0
  0
POLYLINE
  8
20
 66
1
 10
0.000000
 20
0.000000
 30
0.000000
 40
0.003000
 41
0.003000
 70
0
  0
VERTEX
  8
20
 10
-1.687395
 20
5.409126
 30
0.000000
 42
1.000000
  0
VERTEX
  8
20
 10
-1.687395
 20
5.406126
 30
0.000000
  0
SEQEND
  8
0
  0
POLYLINE
  8
20
 66
1
 10
0.000000
 20
0.000000
 30
0.000000
 40
0.003000
 41
0.003000
 70
0
  0
VERTEX
  8
20
 10
-1.666044
 20
5.406126
 30
0.000000
 42
1.000000
  0
VERTEX
  8
20
 10
-1.666044
 20
5.409126
 30
0.000000
  0
SEQEND
  8
0
  0
POLYLINE
  8
20
 66
1
 10
0.000000
 20
0.000000
 30
0.000000
 40
0.006000
 41
0.006000
 70
0
  0
VERTEX
  8
20
 10
-1.687395
 20
5.407626
 30
0.000000
  0
VERTEX
  8
20
 10
-1.698071
 20
5.418302
 30
0.000000
  0
SEQEND
  8
0
  0
POLYLINE
  8
20
 66
1
 10
0.000000
 20
0.000000
 30
0.000000
 40
0.003000
 41
0.003000
 70
0
  0
VERTEX
  8
20
 10
-1.697010
 20
5.419362
 30
0.000000
 42
1.000000
  0
VERTEX
  8
20
 10
-1.699132
 20
5.417241
 30
0.000000
  0
SEQEND
  8
0
  0
POLYLINE
  8
20
 66
1
 10
0.000000
 20
0.000000
 30
0.000000
 40
0.003000
 41
0.003000
 70
0
  0
VERTEX
  8
20
 10
-1.688456
 20
5.406565
 30
0.000000
 42
1.000000
  0
VERTEX
  8
20
 10
-1.686335
 20
5.408687
 30
0.000000
  0
SEQEND
  8
0
  0
POLYLINE
  8
20
 66
1
 10
0.000000
 20
0.000000
 30
0.000000
 40
0.006000
 41
0.006000
 70
0
  0
VERTEX
  8
20
 10
-1.698071
 20
5.418302
 30
0.000000
  0
VERTEX
  8
20
 10
-1.698071
 20
5.439653
 30
0.000000
  0
SEQEND
  8
0
  0
POLYLINE
  8
20
 66
1
 10
0.000000
 20
0.000000
 30
0.000000
 40
0.003000
 41
0.003000
 70
0
  0
VERTEX
  8
20
 10
-1.696571
 20
5.439653
 30
0.000000
 42
1.000000
  0
VERTEX
  8
20
 10
-1.699571
 20
5.439653
 30
0.000000
  0
SEQEND
  8
0
  0
POLYLINE
  8
20
 66
1
 10
0.000000
 20
0.000000
 30
0.000000
 40
0.003000
 41
0.003000
 70
0
  0
VERTEX
  8
20
 10
-1.699571
 20
5.418302
 30
0.000000
 42
1.000000
  0
VERTEX
  8
20
 10
-1.696571
 20
5.418302
 30
0.000000
  0
SEQEND
  8
0
  0
POLYLINE
  8
20
 66
1
 10
0.000000
 20
0.000000
 30
0.000000
 40
0.006000
 41
0.006000
 70
0
  0
VERTEX
  8
20
 10
-1.698071
 20
5.439653
 30
0.000000
  0
VERTEX
  8
20
 10
-1.687395
 20
5.450329
 30
0.000000
  0
SEQEND
  8
0
  0
POLYLINE
  8
20
 66
1
 10
0.000000
 20
0.000000
 30
0.000000
 40
0.003000
 41
0.003000
 70
0
  0
VERTEX
  8
20
 10
-1.686335
 20
5.449268
 30
0.000000
 42
1.000000
  0
VERTEX
  8
20
 10
-1.688456
 20
5.451390
 30
0.000000
  0
SEQEND
  8
0
  0
POLYLINE
  8
20
 66
1
 10
0.000000
 20
0.000000
 30
0.000000
 40
0.003000
 41
0.003000
 70
0
  0
VERTEX
  8
20
 10
-1.699132
 20
5.440714
 30
0.000000
 42
1.000000
  0
VERTEX
  8
20
 10
-1.697010
 20
5.438593
 30
0.000000
  0
SEQEND
  8
0
  0
POLYLINE
  8
20
 66
1
 10
0.000000
 20
0.000000
 30
0.000000
 40
0.006000
 41
0.006000
 70
0
  0
VERTEX
  8
20
 10
-1.687395
 20
5.450329
 30
0.000000
  0
VERTEX
  8
20
 10
-1.666044
 20
5.450329
 30
0.000000
  0
SEQEND
  8
0
  0
POLYLINE
  8
20
 66
1
 10
0.000000
 20
0.000000
 30
0.000000
 40
0.003000
 41
0.003000
 70
0
  0
VERTEX
  8
20
 10
-1.666044
 20
5.448829
 30
0.000000
 42
1.000000
  0
VERTEX
  8
20
 10
-1.666044
 20
5.451829
 30
0.000000
  0
SEQEND
  8
0
  0
POLYLINE
  8
20
 66
1
 10
0.000000
 20
0.000000
 30
0.000000
 40
0.003000
 41
0.003000
 70
0
  0
VERTEX
  8
20
 10
-1.687395
 20
5.451829
 30
0.000000
 42
1.000000
  0
VERTEX
  8
20
 10
-1.687395
 20
5.448829
 30
0.000000
  0
SEQEND
  8
0
  0
POLYLINE
  8
20
 66
1
 10
0.000000
 20
0.000000
 30
0.000000
 40
0.006000
 41
0.006000
 70
0
  0
VERTEX
  8
20
 10
-1.666044
 20
5.450329
 30
0.000000
  0
VERTEX
  8
20
 10
-1.655368
 20
5.439653
 30
0.000000
  0
SEQEND
  8
0
  0
POLYLINE
  8
20
 66
1
 10
0.000000
 20
0.000000
 30
0.000000
 40
0.003000
 41
0.003000
 70
0
  0
VERTEX
  8
20
 10
-1.656428
 20
5.438593
 30
0.000000
 42
1.000000
  0
VERTEX
  8
20
 10
-1.654307
 20
5.440714
 30
0.000000
  0
SEQEND
  8
0
  0
POLYLINE
  8
20
 66
1
 10
0.000000
 20
0.000000
 30
0.000000
 40
0.003000
 41
0.003000
 70
0
  0
VERTEX
  8
20
 10
-1.664983
 20
5.451390
 30
0.000000
 42
1.000000
  0
VERTEX
  8
20
 10
-1.667104
 20
5.449268
 30
0.000000
  0
SEQEND
  8
0
  0
POLYLINE
  8
20
 66
1
 10
0.000000
 20
0.000000
 30
0.000000
 40
0.006000
 41
0.006000
 70
0
  0
VERTEX
  8
20
 10
-1.655368
 20
5.439653
 30
0.000000
  0
VERTEX
  8
20
 10
-1.655368
 20
5.428977
 30
0.000000
  0
SEQEND
  8
0
  0
POLYLINE
  8
20
 66
1
 10
0.000000
 20
0.000000
 30
0.000000
 40
0.003000
 41
0.003000
 70
0
  0
VERTEX
  8
20
 10
-1.656868
 20
5.428977
 30
0.000000
 42
1.000000
  0
VERTEX
  8
20
 10
-1.653868
 20
5.428977
 30
0.000000
  0
SEQEND
  8
0
  0
POLYLINE
  8
20
 66
1
 10
0.000000
 20
0.000000
 30
0.000000
 40
0.003000
 41
0.003000
 70
0
  0
VERTEX
  8
20
 10
-1.653868
 20
5.439653
 30
0.000000
 42
1.000000
  0
VERTEX
  8
20
 10
-1.656868
 20
5.439653
 30
0.000000
  0
SEQEND
  8
0
  0
POLYLINE
  8
20
 66
1
 10
0.000000
 20
0.000000
 30
0.000000
 40
0.006000
 41
0.006000
 70
0
  0
VERTEX
  8
20
 10
-1.655368
 20
5.428977
 30
0.000000
  0
VERTEX
  8
20
 10
-1.698071
 20
5.428977
 30
0.000000
  0
SEQEND
  8
0
  0
POLYLINE
  8
20
 66
1
 10
0.000000
 20
0.000000
 30
0.000000
 40
0.003000
 41
0.003000
 70
0
  0
VERTEX
  8
20
 10
-1.698071
 20
5.430477
 30
0.000000
 42
1.000000
  0
VERTEX
  8
20
 10
-1.698071
 20
5.427477
 30
0.000000
  0
SEQEND
  8
0
  0
POLYLINE
  8
20
 66
1
 10
0.000000
 20
0.000000
 30
0.000000
 40
0.003000
 41
0.003000
 70
0
  0
VERTEX
  8
20
 10
-1.655368
 20
5.427477
 30
0.000000
 42
1.000000
  0
VERTEX
  8
20
 10
-1.655368
 20
5.430477
 30
0.000000
  0
SEQEND
  8
0
  0
POLYLINE
  8
20
 66
1
 10
0.000000
 20
0.000000
 30
0.000000
 40
0.006000
 41
0.006000
 70
0
  0
VERTEX
  8
20
 10
-1.622940
 20
5.407626
 30
0.000000
  0
VERTEX
  8
20
 10
-1.622940
 20
5.461005
 30
0.000000
  0
SEQEND
  8
0
  0
POLYLINE
  8
20
 66
1
 10
0.000000
 20
0.000000
 30
0.000000
 40
0.003000
 41
0.003000
 70
0
  0
VERTEX
  8
20
 10
-1.621440
 20
5.461005
 30
0.000000
 42
1.000000
  0
VERTEX
  8
20
 10
-1.624440
 20
5.461005
 30
0.000000
  0
SEQEND
  8
0
  0
POLYLINE
  8
20
 66
1
 10
0.000000
 20
0.000000
 30
0.000000
 40
0.003000
 41
0.003000
 70
0
  0
VERTEX
  8
20
 10
-1.624440
 20
5.407626
 30
0.000000
 42
1.000000
  0
VERTEX
  8
20
 10
-1.621440
 20
5.407626
 30
0.000000
  0
SEQEND
  8
0
  0
POLYLINE
  8
20
 66
1
 10
0.000000
 20
0.000000
 30
0.000000
 40
0.006000
 41
0.006000
 70
0
  0
VERTEX
  8
20
 10
-1.622940
 20
5.461005
 30
0.000000
  0
VERTEX
  8
20
 10
-1.612264
 20
5.471681
 30
0.000000
  0
SEQEND
  8
0
  0
POLYLINE
  8
20
 66
1
 10
0.000000
 20
0.000000
 30
0.000000
 40
0.003000
 41
0.003000
 70
0
  0
VERTEX
  8
20
 10
-1.611204
 20
5.470620
 30
0.000000
 42
1.000000
  0
VERTEX
  8
20
 10
-1.613325
 20
5.472741
 30
0.000000
  0
SEQEND
  8
0
  0
POLYLINE
  8
20
 66
1
 10
0.000000
 20
0.000000
 30
0.000000
 40
0.003000
 41
0.003000
 70
0
  0
VERTEX
  8
20
 10
-1.624001
 20
5.462066
 30
0.000000
 42
1.000000
  0
VERTEX
  8
20
 10
-1.621880
 20
5.459944
 30
0.000000
  0
SEQEND
  8
0
  0
POLYLINE
  8
20
 66
1
 10
0.000000
 20
0.000000
 30
0.000000
 40
0.006000
 41
0.006000
 70
0
  0
VERTEX
  8
20
 10
-1.633616
 20
5.439653
 30
0.000000
  0
VERTEX
  8
20
 10
-1.612264
 20
5.439653
 30
0.000000
  0
SEQEND
  8
0
  0
POLYLINE
  8
20
 66
1
 10
0.000000
 20
0.000000
 30
0.000000
 40
0.003000
 41
0.003000
 70
0
  0
VERTEX
  8
20
 10
-1.612264
 20
5.438153
 30
0.000000
 42
1.000000
  0
VERTEX
  8
20
 10
-1.612264
 20
5.441153
 30
0.000000
  0
SEQEND
  8
0
  0
POLYLINE
  8
20
 66
1
 10
0.000000
 20
0.000000
 30
0.000000
 40
0.003000
 41
0.003000
 70
0
  0
VERTEX
  8
20
 10
-1.633616
 20
5.441153
 30
0.000000
 42
1.000000
  0
VERTEX
  8
20
 10
-1.633616
 20
5.438153
 30
0.000000
  0
SEQEND
  8
0
  0
POLYLINE
  8
20
 66
1
 10
0.000000
 20
0.000000
 30
0.000000
 40
0.006000
 41
0.006000
 70
0
  0
VERTEX
  8
20
 10
-1.558619
 20
5.407626
 30
0.000000
  0
VERTEX
  8
20
 10
-1.579970
 20
5.407626
 30
0.000000
  0
SEQEND
  8
0
  0
POLYLINE
  8
20
 66
1
 10
0.000000
 20
0.000000
 30
0.000000
 40
0.003000
 41
0.003000
 70
0
  0
VERTEX
  8
20
 10
-1.579970
 20
5.409126
 30
0.000000
 42
1.000000
  0
VERTEX
  8
20
 10
-1.579970
 20
5.406126
 30
0.000000
  0
SEQEND
  8
0
  0
POLYLINE
  8
20
 66
1
 10
0.000000
 20
0.000000
 30
0.000000
 40
0.003000
 41
0.003000
 70
0
  0
VERTEX
  8
20
 10
-1.558619
 20
5.406126
 30
0.000000
 42
1.000000
  0
VERTEX
  8
20
 10
-1.558619
 20
5.409126
 30
0.000000
  0
SEQEND
  8
0
  0
POLYLINE
  8
20
 66
1
 10
0.000000
 20
0.000000
 30
0.000000
 40
0.006000
 41
0.006000
 70
0
  0
VERTEX
  8
20
 10
-1.579970
 20
5.407626
 30
0.000000
  0
VERTEX
  8
20
 10
-1.590646
 20
5.418302
 30
0.000000
  0
SEQEND
  8
0
  0
POLYLINE
  8
20
 66
1
 10
0.000000
 20
0.000000
 30
0.000000
 40
0.003000
 41
0.003000
 70
0
  0
VERTEX
  8
20
 10
-1.589585
 20
5.419362
 30
0.000000
 42
1.000000
  0
VERTEX
  8
20
 10
-1.591707
 20
5.417241
 30
0.000000
  0
SEQEND
  8
0
  0
POLYLINE
  8
20
 66
1
 10
0.000000
 20
0.000000
 30
0.000000
 40
0.003000
 41
0.003000
 70
0
  0
VERTEX
  8
20
 10
-1.581031
 20
5.406565
 30
0.000000
 42
1.000000
  0
VERTEX
  8
20
 10
-1.578910
 20
5.408687
 30
0.000000
  0
SEQEND
  8
0
  0
POLYLINE
  8
20
 66
1
 10
0.000000
 20
0.000000
 30
0.000000
 40
0.006000
 41
0.006000
 70
0
  0
VERTEX
  8
20
 10
-1.590646
 20
5.418302
 30
0.000000
  0
VERTEX
  8
20
 10
-1.590646
 20
5.439653
 30
0.000000
  0
SEQEND
  8
0
  0
POLYLINE
  8
20
 66
1
 10
0.000000
 20
0.000000
 30
0.000000
 40
0.003000
 41
0.003000
 70
0
  0
VERTEX
  8
20
 10
-1.589146
 20
5.439653
 30
0.000000
 42
1.000000
  0
VERTEX
  8
20
 10
-1.592146
 20
5.439653
 30
0.000000
  0
SEQEND
  8
0
  0
POLYLINE
  8
20
 66
1
 10
0.000000
 20
0.000000
 30
0.000000
 40
0.003000
 41
0.003000
 70
0
  0
VERTEX
  8
20
 10
-1.592146
 20
5.418302
 30
0.000000
 42
1.000000
  0
VERTEX
  8
20
 10
-1.589146
 20
5.418302
 30
0.000000
  0
SEQEND
  8
0
  0
POLYLINE
  8
20
 66
1
 10
0.000000
 20
0.000000
 30
0.000000
 40
0.006000
 41
0.006000
 70
0
  0
VERTEX
  8
20
 10
-1.590646
 20
5.439653
 30
0.000000
  0
VERTEX
  8
20
 10
-1.579970
 20
5.450329
 30
0.000000
  0
SEQEND
  8
0
  0
POLYLINE
  8
20
 66
1
 10
0.000000
 20
0.000000
 30
0.000000
 40
0.003000
 41
0.003000
 70
0
  0
VERTEX
  8
20
 10
-1.578910
 20
5.449268
 30
0.000000
 42
1.000000
  0
VERTEX
  8
20
 10
-1.581031
 20
5.451390
 30
0.000000
  0
SEQEND
  8
0
  0
POLYLINE
  8
20
 66
1
 10
0.000000
 20
0.000000
 30
0.000000
 40
0.003000
 41
0.003000
 70
0
  0
VERTEX
  8
20
 10
-1.591707
 20
5.440714
 30
0.000000
 42
1.000000
  0
VERTEX
  8
20
 10
-1.589585
 20
5.438593
 30
0.000000
  0
SEQEND
  8
0
  0
POLYLINE
  8
20
 66
1
 10
0.000000
 20
0.000000
 30
0.000000
 40
0.006000
 41
0.006000
 70
0
  0
VERTEX
  8
20
 10
-1.579970
 20
5.450329
 30
0.000000
  0
VERTEX
  8
20
 10
-1.558619
 20
5.450329
 30
0.000000
  0
SEQEND
  8
0
  0
POLYLINE
  8
20
 66
1
 10
0.000000
 20
0.000000
 30
0.000000
 40
0.003000
 41
0.003000
 70
0
  0
VERTEX
  8
20
 10
-1.558619
 20
5.448829
 30
0.000000
 42
1.000000
  0
VERTEX
  8
20
 10
-1.558619
 20
5.451829
 30
0.000000
  0
SEQEND
  8
0
  0
POLYLINE
  8
20
 66
1
 10
0.000000
 20
0.000000
 30
0.000000
 40
0.003000
 41
0.003000
 70
0
  0
VERTEX
  8
20
 10
-1.579970
 20
5.451829
 30
0.000000
 42
1.000000
  0
VERTEX
  8
20
 10
-1.579970
 20
5.448829
 30
0.000000
  0
SEQEND
  8
0
  0
POLYLINE
  8
20
 66
1
 10
0.000000
 20
0.000000
 30
0.000000
 40
0.006000
 41
0.006000
 70
0
  0
VERTEX
  8
20
 10
-1.558619
 20
5.450329
 30
0.000000
  0
VERTEX
  8
20
 10
-1.547943
 20
5.439653
 30
0.000000
  0
SEQEND
  8
0
  0
POLYLINE
  8
20
 66
1
 10
0.000000
 20
0.000000
 30
0.000000
 40
0.003000
 41
0.003000
 70
0
  0
VERTEX
  8
20
 10
-1.549003
 20
5.438593
 30
0.000000
 42
1.000000
  0
VERTEX
  8
20
 10
-1.546882
 20
5.440714
 30
0.000000
  0
SEQEND
  8
0
  0
POLYLINE
  8
20
 66
1
 10
0.000000
 20
0.000000
 30
0.000000
 40
0.003000
 41
0.003000
 70
0
  0
VERTEX
  8
20
 10
-1.557558
 20
5.451390
 30
0.000000
 42
1.000000
  0
VERTEX
  8
20
 10
-1.559679
 20
5.449268
 30
0.000000
  0
SEQEND
  8
0
  0
POLYLINE
  8
20
 66
1
 10
0.000000
 20
0.000000
 30
0.000000
 40
0.006000
 41
0.006000
 70
0
  0
VERTEX
  8
20
 10
-1.547943
 20
5.439653
 30
0.000000
  0
VERTEX
  8
20
 10
-1.547943
 20
5.428977
 30
0.000000
  0
SEQEND
  8
0
  0
POLYLINE
  8
20
 66
1
 10
0.000000
 20
0.000000
 30
0.000000
 40
0.003000
 41
0.003000
 70
0
  0
VERTEX
  8
20
 10
-1.549443
 20
5.428977
 30
0.000000
 42
1.000000
  0
VERTEX
  8
20
 10
-1.546443
 20
5.428977
 30
0.000000
  0
SEQEND
  8
0
  0
POLYLINE
  8
20
 66
1
 10
0.000000
 20
0.000000
 30
0.000000
 40
0.003000
 41
0.003000
 70
0
  0
VERTEX
  8
20
 10
-1.546443
 20
5.439653
 30
0.000000
 42
1.000000
  0
VERTEX
  8
20
 10
-1.549443
 20
5.439653
 30
0.000000
  0
SEQEND
  8
0
  0
POLYLINE
  8
20
 66
1
 10
0.000000
 20
0.000000
 30
0.000000
 40
0.006000
 41
0.006000
 70
0
  0
VERTEX
  8
20
 10
-1.547943
 20
5.428977
 30
0.000000
  0
VERTEX
  8
20
 10
-1.590646
 20
5.428977
 30
0.000000
  0
SEQEND
  8
0
  0
POLYLINE
  8
20
 66
1
 10
0.000000
 20
0.000000
 30
0.000000
 40
0.003000
 41
0.003000
 70
0
  0
VERTEX
  8
20
 10
-1.590646
 20
5.430477
 30
0.000000
 42
1.000000
  0
VERTEX
  8
20
 10
-1.590646
 20
5.427477
 30
0.000000
  0
SEQEND
  8
0
  0
POLYLINE
  8
20
 66
1
 10
0.000000
 20
0.000000
 30
0.000000
 40
0.003000
 41
0.003000
 70
0
  0
VERTEX
  8
20
 10
-1.547943
 20
5.427477
 30
0.000000
 42
1.000000
  0
VERTEX
  8
20
 10
-1.547943
 20
5.430477
 30
0.000000
  0
SEQEND
  8
0
  0
POLYLINE
  8
20
 66
1
 10
0.000000
 20
0.000000
 30
0.000000
 40
0.006000
 41
0.006000
 70
0
  0
VERTEX
  8
20
 10
-1.526191
 20
5.407626
 30
0.000000
  0
VERTEX
  8
20
 10
-1.526191
 20
5.450329
 30
0.000000
  0
SEQEND
  8
0
  0
POLYLINE
  8
20
 66
1
 10
0.000000
 20
0.000000
 30
0.000000
 40
0.003000
 41
0.003000
 70
0
  0
VERTEX
  8
20
 10
-1.524691
 20
5.450329
 30
0.000000
 42
1.000000
  0
VERTEX
  8
20
 10
-1.527691
 20
5.450329
 30
0.000000
  0
SEQEND
  8
0
  0
POLYLINE
  8
20
 66
1
 10
0.000000
 20
0.000000
 30
0.000000
 40
0.003000
 41
0.003000
 70
0
  0
VERTEX
  8
20
 10
-1.527691
 20
5.407626
 30
0.000000
 42
1.000000
  0
VERTEX
  8
20
 10
-1.524691
 20
5.407626
 30
0.000000
  0
SEQEND
  8
0
  0
POLYLINE
  8
20
 66
1
 10
0.000000
 20
0.000000
 30
0.000000
 40
0.006000
 41
0.006000
 70
0
  0
VERTEX
  8
20
 10
-1.526191
 20
5.428977
 30
0.000000
  0
VERTEX
  8
20
 10
-1.504839
 20
5.450329
 30
0.000000
  0
SEQEND
  8
0
  0
POLYLINE
  8
20
 66
1
 10
0.000000
 20
0.000000
 30
0.000000
 40
0.003000
 41
0.003000
 70
0
  0
VERTEX
  8
20
 10
-1.503779
 20
5.449268
 30
0.000000
 42
1.000000
  0
VERTEX
  8
20
 10
-1.505900
 20
5.451390
 30
0.000000
  0
SEQEND
  8
0
  0
POLYLINE
  8
20
 66
1
 10
0.000000
 20
0.000000
 30
0.000000
 40
0.003000
 41
0.003000
 70
0
  0
VERTEX
  8
20
 10
-1.527252
 20
5.430038
 30
0.000000
 42
1.000000
  0
VERTEX
  8
20
 10
-1.525130
 20
5.427917
 30
0.000000
  0
SEQEND
  8
0
  0
POLYLINE
  8
20
 66
1
 10
0.000000
 20
0.000000
 30
0.000000
 40
0.006000
 41
0.006000
 70
0
  0
VERTEX
  8
20
 10
-1.504839
 20
5.450329
 30
0.000000
  0
VERTEX
  8
20
 10
-1.494164
 20
5.450329
 30
0.000000
  0
SEQEND
  8
0
  0
POLYLINE
  8
20
 66
1
 10
0.000000
 20
0.000000
 30
0.000000
 40
0.003000
 41
0.003000
 70
0
  0
VERTEX
  8
20
 10
-1.494164
 20
5.448829
 30
0.000000
 42
1.000000
  0
VERTEX
  8
20
 10
-1.494164
 20
5.451829
 30
0.000000
  0
SEQEND
  8
0
  0
POLYLINE
  8
20
 66
1
 10
0.000000
 20
0.000000
 30
0.000000
 40
0.003000
 41
0.003000
 70
0
  0
VERTEX
  8
20
 10
-1.504839
 20
5.451829
 30
0.000000
 42
1.000000
  0
VERTEX
  8
20
 10
-1.504839
 20
5.448829
 30
0.000000
  0
SEQEND
  8
0
  0
POLYLINE
  8
20
 66
1
 10
0.000000
 20
0.000000
 30
0.000000
 40
0.006000
 41
0.006000
 70
0
  0
VERTEX
  8
20
 10
-1.440451
 20
5.407626
 30
0.000000
  0
VERTEX
  8
20
 10
-1.461803
 20
5.407626
 30
0.000000
  0
SEQEND
  8
0
  0
POLYLINE
  8
20
 66
1
 10
0.000000
 20
0.000000
 30
0.000000
 40
0.003000
 41
0.003000
 70
0
  0
VERTEX
  8
20
 10
-1.461803
 20
5.409126
 30
0.000000
 42
1.000000
  0
VERTEX
  8
20
 10
-1.461803
 20
5.406126
 30
0.000000
  0
SEQEND
  8
0
  0
POLYLINE
  8
20
 66
1
 10
0.000000
 20
0.000000
 30
0.000000
 40
0.003000
 41
0.003000
 70
0
  0
VERTEX
  8
20
 10
-1.440451
 20
5.406126
 30
0.000000
 42
1.000000
  0
VERTEX
  8
20
 10
-1.440451
 20
5.409126
 30
0.000000
  0
SEQEND
  8
0
  0
POLYLINE
  8
20
 66
1
 10
0.000000
 20
0.000000
 30
0.000000
 40
0.006000
 41
0.006000
 70
0
  0
VERTEX
  8
20
 10
-1.461803
 20
5.407626
 30
0.000000
  0
VERTEX
  8
20
 10
-1.472478
 20
5.418302
 30
0.000000
  0
SEQEND
  8
0
  0
POLYLINE
  8
20
 66
1
 10
0.000000
 20
0.000000
 30
0.000000
 40
0.003000
 41
0.003000
 70
0
  0
VERTEX
  8
20
 10
-1.471418
 20
5.419362
 30
0.000000
 42
1.000000
  0
VERTEX
  8
20
 10
-1.473539
 20
5.417241
 30
0.000000
  0
SEQEND
  8
0
  0
POLYLINE
  8
20
 66
1
 10
0.000000
 20
0.000000
 30
0.000000
 40
0.003000
 41
0.003000
 70
0
  0
VERTEX
  8
20
 10
-1.462863
 20
5.406565
 30
0.000000
 42
1.000000
  0
VERTEX
  8
20
 10
-1.460742
 20
5.408687
 30
0.000000
  0
SEQEND
  8
0
  0
POLYLINE
  8
20
 66
1
 10
0.000000
 20
0.000000
 30
0.000000
 40
0.006000
 41
0.006000
 70
0
  0
VERTEX
  8
20
 10
-1.472478
 20
5.418302
 30
0.000000
  0
VERTEX
  8
20
 10
-1.472478
 20
5.439653
 30
0.000000
  0
SEQEND
  8
0
  0
POLYLINE
  8
20
 66
1
 10
0.000000
 20
0.000000
 30
0.000000
 40
0.003000
 41
0.003000
 70
0
  0
VERTEX
  8
20
 10
-1.470978
 20
5.439653
 30
0.000000
 42
1.000000
  0
VERTEX
  8
20
 10
-1.473978
 20
5.439653
 30
0.000000
  0
SEQEND
  8
0
  0
POLYLINE
  8
20
 66
1
 10
0.000000
 20
0.000000
 30
0.000000
 40
0.003000
 41
0.003000
 70
0
  0
VERTEX
  8
20
 10
-1.473978
 20
5.418302
 30
0.000000
 42
1.000000
  0
VERTEX
  8
20
 10
-1.470978
 20
5.418302
 30
0.000000
  0
SEQEND
  8
0
  0
POLYLINE
  8
20
 66
1
 10
0.000000
 20
0.000000
 30
0.000000
 40
0.006000
 41
0.006000
 70
0
  0
VERTEX
  8
20
 10
-1.472478
 20
5.439653
 30
0.000000
  0
VERTEX
  8
20
 10
-1.461803
 20
5.450329
 30
0.000000
  0
SEQEND
  8
0
  0
POLYLINE
  8
20
 66
1
 10
0.000000
 20
0.000000
 30
0.000000
 40
0.003000
 41
0.003000
 70
0
  0
VERTEX
  8
20
 10
-1.460742
 20
5.449268
 30
0.000000
 42
1.000000
  0
VERTEX
  8
20
 10
-1.462863
 20
5.451390
 30
0.000000
  0
SEQEND
  8
0
  0
POLYLINE
  8
20
 66
1
 10
0.000000
 20
0.000000
 30
0.000000
 40
0.003000
 41
0.003000
 70
0
  0
VERTEX
  8
20
 10
-1.473539
 20
5.440714
 30
0.000000
 42
1.000000
  0
VERTEX
  8
20
 10
-1.471418
 20
5.438593
 30
0.000000
  0
SEQEND
  8
0
  0
POLYLINE
  8
20
 66
1
 10
0.000000
 20
0.000000
 30
0.000000
 40
0.006000
 41
0.006000
 70
0
  0
VERTEX
  8
20
 10
-1.461803
 20
5.450329
 30
0.000000
  0
VERTEX
  8
20
 10
-1.440451
 20
5.450329
 30
0.000000
  0
SEQEND
  8
0
  0
POLYLINE
  8
20
 66
1
 10
0.000000
 20
0.000000
 30
0.000000
 40
0.003000
 41
0.003000
 70
0
  0
VERTEX
  8
20
 10
-1.440451
 20
5.448829
 30
0.000000
 42
1.000000
  0
VERTEX
  8
20
 10
-1.440451
 20
5.451829
 30
0.000000
  0
SEQEND
  8
0
  0
POLYLINE
  8
20
 66
1
 10
0.000000
 20
0.000000
 30
0.000000
 40
0.003000
 41
0.003000
 70
0
  0
VERTEX
  8
20
 10
-1.461803
 20
5.451829
 30
0.000000
 42
1.000000
  0
VERTEX
  8
20
 10
-1.461803
 20
5.448829
 30
0.000000
  0
SEQEND
  8
0
  0
POLYLINE
  8
20
 66
1
 10
0.000000
 20
0.000000
 30
0.000000
 40
0.006000
 41
0.006000
 70
0
  0
VERTEX
  8
20
 10
-1.440451
 20
5.450329
 30
0.000000
  0
VERTEX
  8
20
 10
-1.429775
 20
5.439653
 30
0.000000
  0
SEQEND
  8
0
  0
POLYLINE
  8
20
 66
1
 10
0.000000
 20
0.000000
 30
0.000000
 40
0.003000
 41
0.003000
 70
0
  0
VERTEX
  8
20
 10
-1.430836
 20
5.438593
 30
0.000000
 42
1.000000
  0
VERTEX
  8
20
 10
-1.428715
 20
5.440714
 30
0.000000
  0
SEQEND
  8
0
  0
POLYLINE
  8
20
 66
1
 10
0.000000
 20
0.000000
 30
0.000000
 40
0.003000
 41
0.003000
 70
0
  0
VERTEX
  8
20
 10
-1.439390
 20
5.451390
 30
0.000000
 42
1.000000
  0
VERTEX
  8
20
 10
-1.441512
 20
5.449268
 30
0.000000
  0
SEQEND
  8
0
  0
POLYLINE
  8
20
 66
1
 10
0.000000
 20
0.000000
 30
0.000000
 40
0.006000
 41
0.006000
 70
0
  0
VERTEX
  8
20
 10
-1.429775
 20
5.439653
 30
0.000000
  0
VERTEX
  8
20
 10
-1.429775
 20
5.428977
 30
0.000000
  0
SEQEND
  8
0
  0
POLYLINE
  8
20
 66
1
 10
0.000000
 20
0.000000
 30
0.000000
 40
0.003000
 41
0.003000
 70
0
  0
VERTEX
  8
20
 10
-1.431275
 20
5.428977
 30
0.000000
 42
1.000000
  0
VERTEX
  8
20
 10
-1.428275
 20
5.428977
 30
0.000000
  0
SEQEND
  8
0
  0
POLYLINE
  8
20
 66
1
 10
0.000000
 20
0.000000
 30
0.000000
 40
0.003000
 41
0.003000
 70
0
  0
VERTEX
  8
20
 10
-1.428275
 20
5.439653
 30
0.000000
 42
1.000000
  0
VERTEX
  8
20
 10
-1.431275
 20
5.439653
 30
0.000000
  0
SEQEND
  8
0
  0
POLYLINE
  8
20
 66
1
 10
0.000000
 20
0.000000
 30
0.000000
 40
0.006000
 41
0.006000
 70
0
  0
VERTEX
  8
20
 10
-1.429775
 20
5.428977
 30
0.000000
  0
VERTEX
  8
20
 10
-1.472478
 20
5.428977
 30
0.000000
  0
SEQEND
  8
0
  0
POLYLINE
  8
20
 66
1
 10
0.000000
 20
0.000000
 30
0.000000
 40
0.003000
 41
0.003000
 70
0
  0
VERTEX
  8
20
 10
-1.472478
 20
5.430477
 30
0.000000
 42
1.000000
  0
VERTEX
  8
20
 10
-1.472478
 20
5.427477
 30
0.000000
  0
SEQEND
  8
0
  0
POLYLINE
  8
20
 66
1
 10
0.000000
 20
0.000000
 30
0.000000
 40
0.003000
 41
0.003000
 70
0
  0
VERTEX
  8
20
 10
-1.429775
 20
5.427477
 30
0.000000
 42
1.000000
  0
VERTEX
  8
20
 10
-1.429775
 20
5.430477
 30
0.000000
  0
SEQEND
  8
0
  0
POLYLINE
  8
20
 66
1
 10
0.000000
 20
0.000000
 30
0.000000
 40
0.006000
 41
0.006000
 70
0
  0
VERTEX
  8
20
 10
-1.408023
 20
5.407626
 30
0.000000
  0
VERTEX
  8
20
 10
-1.408023
 20
5.450329
 30
0.000000
  0
SEQEND
  8
0
  0
POLYLINE
  8
20
 66
1
 10
0.000000
 20
0.000000
 30
0.000000
 40
0.003000
 41
0.003000
 70
0
  0
VERTEX
  8
20
 10
-1.406523
 20
5.450329
 30
0.000000
 42
1.000000
  0
VERTEX
  8
20
 10
-1.409523
 20
5.450329
 30
0.000000
  0
SEQEND
  8
0
  0
POLYLINE
  8
20
 66
1
 10
0.000000
 20
0.000000
 30
0.000000
 40
0.003000
 41
0.003000
 70
0
  0
VERTEX
  8
20
 10
-1.409523
 20
5.407626
 30
0.000000
 42
1.000000
  0
VERTEX
  8
20
 10
-1.406523
 20
5.407626
 30
0.000000
  0
SEQEND
  8
0
  0
POLYLINE
  8
20
 66
1
 10
0.000000
 20
0.000000
 30
0.000000
 40
0.006000
 41
0.006000
 70
0
  0
VERTEX
  8
20
 10
-1.408023
 20
5.450329
 30
0.000000
  0
VERTEX
  8
20
 10
-1.375996
 20
5.450329
 30
0.000000
  0
SEQEND
  8
0
  0
POLYLINE
  8
20
 66
1
 10
0.000000
 20
0.000000
 30
0.000000
 40
0.003000
 41
0.003000
 70
0
  0
VERTEX
  8
20
 10
-1.375996
 20
5.448829
 30
0.000000
 42
1.000000
  0
VERTEX
  8
20
 10
-1.375996
 20
5.451829
 30
0.000000
  0
SEQEND
  8
0
  0
POLYLINE
  8
20
 66
1
 10
0.000000
 20
0.000000
 30
0.000000
 40
0.003000
 41
0.003000
 70
0
  0
VERTEX
  8
20
 10
-1.408023
 20
5.451829
 30
0.000000
 42
1.000000
  0
VERTEX
  8
20
 10
-1.408023
 20
5.448829
 30
0.000000
  0
SEQEND
  8
0
  0
POLYLINE
  8
20
 66
1
 10
0.000000
 20
0.000000
 30
0.000000
 40
0.006000
 41
0.006000
 70
0
  0
VERTEX
  8
20
 10
-1.375996
 20
5.450329
 30
0.000000
  0
VERTEX
  8
20
 10
-1.365320
 20
5.439653
 30
0.000000
  0
SEQEND
  8
0
  0
POLYLINE
  8
20
 66
1
 10
0.000000
 20
0.000000
 30
0.000000
 40
0.003000
 41
0.003000
 70
0
  0
VERTEX
  8
20
 10
-1.366381
 20
5.438593
 30
0.000000
 42
1.000000
  0
VERTEX
  8
20
 10
-1.364260
 20
5.440714
 30
0.000000
  0
SEQEND
  8
0
  0
POLYLINE
  8
20
 66
1
 10
0.000000
 20
0.000000
 30
0.000000
 40
0.003000
 41
0.003000
 70
0
  0
VERTEX
  8
20
 10
-1.374936
 20
5.451390
 30
0.000000
 42
1.000000
  0
VERTEX
  8
20
 10
-1.377057
 20
5.449268
 30
0.000000
  0
SEQEND
  8
0
  0
POLYLINE
  8
20
 66
1
 10
0.000000
 20
0.000000
 30
0.000000
 40
0.006000
 41
0.006000
 70
0
  0
VERTEX
  8
20
 10
-1.365320
 20
5.439653
 30
0.000000
  0
VERTEX
  8
20
 10
-1.365320
 20
5.407626
 30
0.000000
  0
SEQEND
  8
0
  0
POLYLINE
  8
20
 66
1
 10
0.000000
 20
0.000000
 30
0.000000
 40
0.003000
 41
0.003000
 70
0
  0
VERTEX
  8
20
 10
-1.366820
 20
5.407626
 30
0.000000
 42
1.000000
  0
VERTEX
  8
20
 10
-1.363820
 20
5.407626
 30
0.000000
  0
SEQEND
  8
0
  0
POLYLINE
  8
20
 66
1
 10
0.000000
 20
0.000000
 30
0.000000
 40
0.003000
 41
0.003000
 70
0
  0
VERTEX
  8
20
 10
-1.363820
 20
5.439653
 30
0.000000
 42
1.000000
  0
VERTEX
  8
20
 10
-1.366820
 20
5.439653
 30
0.000000
  0
SEQEND
  8
0
  0
POLYLINE
  8
20
 66
1
 10
0.000000
 20
0.000000
 30
0.000000
 40
0.006000
 41
0.006000
 70
0
  0
VERTEX
  8
20
 10
-1.300865
 20
5.450329
 30
0.000000
  0
VERTEX
  8
20
 10
-1.332893
 20
5.450329
 30
0.000000
  0
SEQEND
  8
0
  0
POLYLINE
  8
20
 66
1
 10
0.000000
 20
0.000000
 30
0.000000
 40
0.003000
 41
0.003000
 70
0
  0
VERTEX
  8
20
 10
-1.332893
 20
5.451829
 30
0.000000
 42
1.000000
  0
VERTEX
  8
20
 10
-1.332893
 20
5.448829
 30
0.000000
  0
SEQEND
  8
0
  0
POLYLINE
  8
20
 66
1
 10
0.000000
 20
0.000000
 30
0.000000
 40
0.003000
 41
0.003000
 70
0
  0
VERTEX
  8
20
 10
-1.300865
 20
5.448829
 30
0.000000
 42
1.000000
  0
VERTEX
  8
20
 10
-1.300865
 20
5.451829
 30
0.000000
  0
SEQEND
  8
0
  0
POLYLINE
  8
20
 66
1
 10
0.000000
 20
0.000000
 30
0.000000
 40
0.006000
 41
0.006000
 70
0
  0
VERTEX
  8
20
 10
-1.332893
 20
5.450329
 30
0.000000
  0
VERTEX
  8
20
 10
-1.343569
 20
5.439653
 30
0.000000
  0
SEQEND
  8
0
  0
POLYLINE
  8
20
 66
1
 10
0.000000
 20
0.000000
 30
0.000000
 40
0.003000
 41
0.003000
 70
0
  0
VERTEX
  8
20
 10
-1.344629
 20
5.440714
 30
0.000000
 42
1.000000
  0
VERTEX
  8
20
 10
-1.342508
 20
5.438593
 30
0.000000
  0
SEQEND
  8
0
  0
POLYLINE
  8
20
 66
1
 10
0.000000
 20
0.000000
 30
0.000000
 40
0.003000
 41
0.003000
 70
0
  0
VERTEX
  8
20
 10
-1.331832
 20
5.449268
 30
0.000000
 42
1.000000
  0
VERTEX
  8
20
 10
-1.333954
 20
5.451390
 30
0.000000
  0
SEQEND
  8
0
  0
POLYLINE
  8
20
 66
1
 10
0.000000
 20
0.000000
 30
0.000000
 40
0.006000
 41
0.006000
 70
0
  0
VERTEX
  8
20
 10
-1.343569
 20
5.439653
 30
0.000000
  0
VERTEX
  8
20
 10
-1.343569
 20
5.418302
 30
0.000000
  0
SEQEND
  8
0
  0
POLYLINE
  8
20
 66
1
 10
0.000000
 20
0.000000
 30
0.000000
 40
0.003000
 41
0.003000
 70
0
  0
VERTEX
  8
20
 10
-1.345069
 20
5.418302
 30
0.000000
 42
1.000000
  0
VERTEX
  8
20
 10
-1.342069
 20
5.418302
 30
0.000000
  0
SEQEND
  8
0
  0
POLYLINE
  8
20
 66
1
 10
0.000000
 20
0.000000
 30
0.000000
 40
0.003000
 41
0.003000
 70
0
  0
VERTEX
  8
20
 10
-1.342069
 20
5.439653
 30
0.000000
 42
1.000000
  0
VERTEX
  8
20
 10
-1.345069
 20
5.439653
 30
0.000000
  0
SEQEND
  8
0
  0
POLYLINE
  8
20
 66
1
 10
0.000000
 20
0.000000
 30
0.000000
 40
0.006000
 41
0.006000
 70
0
  0
VERTEX
  8
20
 10
-1.343569
 20
5.418302
 30
0.000000
  0
VERTEX
  8
20
 10
-1.332893
 20
5.407626
 30
0.000000
  0
SEQEND
  8
0
  0
POLYLINE
  8
20
 66
1
 10
0.000000
 20
0.000000
 30
0.000000
 40
0.003000
 41
0.003000
 70
0
  0
VERTEX
  8
20
 10
-1.333953
 20
5.406565
 30
0.000000
 42
1.000000
  0
VERTEX
  8
20
 10
-1.331832
 20
5.408687
 30
0.000000
  0
SEQEND
  8
0
  0
POLYLINE
  8
20
 66
1
 10
0.000000
 20
0.000000
 30
0.000000
 40
0.003000
 41
0.003000
 70
0
  0
VERTEX
  8
20
 10
-1.342508
 20
5.419362
 30
0.000000
 42
1.000000
  0
VERTEX
  8
20
 10
-1.344629
 20
5.417241
 30
0.000000
  0
SEQEND
  8
0
  0
POLYLINE
  8
20
 66
1
 10
0.000000
 20
0.000000
 30
0.000000
 40
0.006000
 41
0.006000
 70
0
  0
VERTEX
  8
20
 10
-1.332893
 20
5.407626
 30
0.000000
  0
VERTEX
  8
20
 10
-1.300865
 20
5.407626
 30
0.000000
  0
SEQEND
  8
0
  0
POLYLINE
  8
20
 66
1
 10
0.000000
 20
0.000000
 30
0.000000
 40
0.003000
 41
0.003000
 70
0
  0
VERTEX
  8
20
 10
-1.300865
 20
5.406126
 30
0.000000
 42
1.000000
  0
VERTEX
  8
20
 10
-1.300865
 20
5.409126
 30
0.000000
  0
SEQEND
  8
0
  0
POLYLINE
  8
20
 66
1
 10
0.000000
 20
0.000000
 30
0.000000
 40
0.003000
 41
0.003000
 70
0
  0
VERTEX
  8
20
 10
-1.332893
 20
5.409126
 30
0.000000
 42
1.000000
  0
VERTEX
  8
20
 10
-1.332893
 20
5.406126
 30
0.000000
  0
SEQEND
  8
0
  0
POLYLINE
  8
20
 66
1
 10
0.000000
 20
0.000000
 30
0.000000
 40
0.006000
 41
0.006000
 70
0
  0
VERTEX
  8
20
 10
-1.247086
 20
5.407626
 30
0.000000
  0
VERTEX
  8
20
 10
-1.268438
 20
5.407626
 30
0.000000
  0
SEQEND
  8
0
  0
POLYLINE
  8
20
 66
1
 10
0.000000
 20
0.000000
 30
0.000000
 40
0.003000
 41
0.003000
 70
0
  0
VERTEX
  8
20
 10
-1.268438
 20
5.409126
 30
0.000000
 42
1.000000
  0
VERTEX
  8
20
 10
-1.268438
 20
5.406126
 30
0.000000
  0
SEQEND
  8
0
  0
POLYLINE
  8
20
 66
1
 10
0.000000
 20
0.000000
 30
0.000000
 40
0.003000
 41
0.003000
 70
0
  0
VERTEX
  8
20
 10
-1.247086
 20
5.406126
 30
0.000000
 42
1.000000
  0
VERTEX
  8
20
 10
-1.247086
 20
5.409126
 30
0.000000
  0
SEQEND
  8
0
  0
POLYLINE
  8
20
 66
1
 10
0.000000
 20
0.000000
 30
0.000000
 40
0.006000
 41
0.006000
 70
0
  0
VERTEX
  8
20
 10
-1.268438
 20
5.407626
 30
0.000000
  0
VERTEX
  8
20
 10
-1.279114
 20
5.418302
 30
0.000000
  0
SEQEND
  8
0
  0
POLYLINE
  8
20
 66
1
 10
0.000000
 20
0.000000
 30
0.000000
 40
0.003000
 41
0.003000
 70
0
  0
VERTEX
  8
20
 10
-1.278053
 20
5.419362
 30
0.000000
 42
1.000000
  0
VERTEX
  8
20
 10
-1.280174
 20
5.417241
 30
0.000000
  0
SEQEND
  8
0
  0
POLYLINE
  8
20
 66
1
 10
0.000000
 20
0.000000
 30
0.000000
 40
0.003000
 41
0.003000
 70
0
  0
VERTEX
  8
20
 10
-1.269499
 20
5.406565
 30
0.000000
 42
1.000000
  0
VERTEX
  8
20
 10
-1.267377
 20
5.408687
 30
0.000000
  0
SEQEND
  8
0
  0
POLYLINE
  8
20
 66
1
 10
0.000000
 20
0.000000
 30
0.000000
 40
0.006000
 41
0.006000
 70
0
  0
VERTEX
  8
20
 10
-1.279114
 20
5.418302
 30
0.000000
  0
VERTEX
  8
20
 10
-1.279114
 20
5.439653
 30
0.000000
  0
SEQEND
  8
0
  0
POLYLINE
  8
20
 66
1
 10
0.000000
 20
0.000000
 30
0.000000
 40
0.003000
 41
0.003000
 70
0
  0
VERTEX
  8
20
 10
-1.277614
 20
5.439653
 30
0.000000
 42
1.000000
  0
VERTEX
  8
20
 10
-1.280614
 20
5.439653
 30
0.000000
  0
SEQEND
  8
0
  0
POLYLINE
  8
20
 66
1
 10
0.000000
 20
0.000000
 30
0.000000
 40
0.003000
 41
0.003000
 70
0
  0
VERTEX
  8
20
 10
-1.280614
 20
5.418302
 30
0.000000
 42
1.000000
  0
VERTEX
  8
20
 10
-1.277614
 20
5.418302
 30
0.000000
  0
SEQEND
  8
0
  0
POLYLINE
  8
20
 66
1
 10
0.000000
 20
0.000000
 30
0.000000
 40
0.006000
 41
0.006000
 70
0
  0
VERTEX
  8
20
 10
-1.279114
 20
5.439653
 30
0.000000
  0
VERTEX
  8
20
 10
-1.268438
 20
5.450329
 30
0.000000
  0
SEQEND
  8
0
  0
POLYLINE
  8
20
 66
1
 10
0.000000
 20
0.000000
 30
0.000000
 40
0.003000
 41
0.003000
 70
0
  0
VERTEX
  8
20
 10
-1.267377
 20
5.449268
 30
0.000000
 42
1.000000
  0
VERTEX
  8
20
 10
-1.269499
 20
5.451390
 30
0.000000
  0
SEQEND
  8
0
  0
POLYLINE
  8
20
 66
1
 10
0.000000
 20
0.000000
 30
0.000000
 40
0.003000
 41
0.003000
 70
0
  0
VERTEX
  8
20
 10
-1.280174
 20
5.440714
 30
0.000000
 42
1.000000
  0
VERTEX
  8
20
 10
-1.278053
 20
5.438593
 30
0.000000
  0
SEQEND
  8
0
  0
POLYLINE
  8
20
 66
1
 10
0.000000
 20
0.000000
 30
0.000000
 40
0.006000
 41
0.006000
 70
0
  0
VERTEX
  8
20
 10
-1.268438
 20
5.450329
 30
0.000000
  0
VERTEX
  8
20
 10
-1.247086
 20
5.450329
 30
0.000000
  0
SEQEND
  8
0
  0
POLYLINE
  8
20
 66
1
 10
0.000000
 20
0.000000
 30
0.000000
 40
0.003000
 41
0.003000
 70
0
  0
VERTEX
  8
20
 10
-1.247086
 20
5.448829
 30
0.000000
 42
1.000000
  0
VERTEX
  8
20
 10
-1.247086
 20
5.451829
 30
0.000000
  0
SEQEND
  8
0
  0
POLYLINE
  8
20
 66
1
 10
0.000000
 20
0.000000
 30
0.000000
 40
0.003000
 41
0.003000
 70
0
  0
VERTEX
  8
20
 10
-1.268438
 20
5.451829
 30
0.000000
 42
1.000000
  0
VERTEX
  8
20
 10
-1.268438
 20
5.448829
 30
0.000000
  0
SEQEND
  8
0
  0
POLYLINE
  8
20
 66
1
 10
0.000000
 20
0.000000
 30
0.000000
 40
0.006000
 41
0.006000
 70
0
  0
VERTEX
  8
20
 10
-1.247086
 20
5.450329
 30
0.000000
  0
VERTEX
  8
20
 10
-1.236410
 20
5.439653
 30
0.000000
  0
SEQEND
  8
0
  0
POLYLINE
  8
20
 66
1
 10
0.000000
 20
0.000000
 30
0.000000
 40
0.003000
 41
0.003000
 70
0
  0
VERTEX
  8
20
 10
-1.237471
 20
5.438593
 30
0.000000
 42
1.000000
  0
VERTEX
  8
20
 10
-1.235350
 20
5.440714
 30
0.000000
  0
SEQEND
  8
0
  0
POLYLINE
  8
20
 66
1
 10
0.000000
 20
0.000000
 30
0.000000
 40
0.003000
 41
0.003000
 70
0
  0
VERTEX
  8
20
 10
-1.246026
 20
5.451390
 30
0.000000
 42
1.000000
  0
VERTEX
  8
20
 10
-1.248147
 20
5.449268
 30
0.000000
  0
SEQEND
  8
0
  0
POLYLINE
  8
20
 66
1
 10
0.000000
 20
0.000000
 30
0.000000
 40
0.006000
 41
0.006000
 70
0
  0
VERTEX
  8
20
 10
-1.236410
 20
5.439653
 30
0.000000
  0
VERTEX
  8
20
 10
-1.236410
 20
5.428977
 30
0.000000
  0
SEQEND
  8
0
  0
POLYLINE
  8
20
 66
1
 10
0.000000
 20
0.000000
 30
0.000000
 40
0.003000
 41
0.003000
 70
0
  0
VERTEX
  8
20
 10
-1.237910
 20
5.428977
 30
0.000000
 42
1.000000
  0
VERTEX
  8
20
 10
-1.234910
 20
5.428977
 30
0.000000
  0
SEQEND
  8
0
  0
POLYLINE
  8
20
 66
1
 10
0.000000
 20
0.000000
 30
0.000000
 40
0.003000
 41
0.003000
 70
0
  0
VERTEX
  8
20
 10
-1.234910
 20
5.439653
 30
0.000000
 42
1.000000
  0
VERTEX
  8
20
 10
-1.237910
 20
5.439653
 30
0.000000
  0
SEQEND
  8
0
  0
POLYLINE
  8
20
 66
1
 10
0.000000
 20
0.000000
 30
0.000000
 40
0.006000
 41
0.006000
 70
0
  0
VERTEX
  8
20
 10
-1.236410
 20
5.428977
 30
0.000000
  0
VERTEX
  8
20
 10
-1.279114
 20
5.428977
 30
0.000000
  0
SEQEND
  8
0
  0
POLYLINE
  8
20
 66
1
 10
0.000000
 20
0.000000
 30
0.000000
 40
0.003000
 41
0.003000
 70
0
  0
VERTEX
  8
20
 10
-1.279114
 20
5.430477
 30
0.000000
 42
1.000000
  0
VERTEX
  8
20
 10
-1.279114
 20
5.427477
 30
0.000000
  0
SEQEND
  8
0
  0
POLYLINE
  8
20
 66
1
 10
0.000000
 20
0.000000
 30
0.000000
 40
0.003000
 41
0.003000
 70
0
  0
VERTEX
  8
20
 10
-1.236410
 20
5.427477
 30
0.000000
 42
1.000000
  0
VERTEX
  8
20
 10
-1.236410
 20
5.430477
 30
0.000000
  0
SEQEND
  8
0
  0
POINT
  8
23
 10
0.157480
 20
0.157480
 30
0.000000
  0
CIRCLE
  8
20
 10
0.157480
 20
0.157480
 30
0.000000
 40
0.055118
  0
POINT
  8
23
 10
2.637795
 20
0.157480
 30
0.000000
  0
CIRCLE
  8
20
 10
2.637795
 20
0.157480
 30
0.000000
 40
0.055118
  0
POINT
  8
23
 10
2.637795
 20
1.338583
 30
0.000000
  0
CIRCLE
  8
20
 10
2.637795
 20
1.338583
 30
0.000000
 40
0.055118
  0
POINT
  8
23
 10
0.157480
 20
2.874016
 30
0.000000
  0
CIRCLE
  8
20
 10
0.157480
 20
2.874016
 30
0.000000
 40
0.055118
  0
POINT
  8
23
 10
2.637795
 20
2.874016
 30
0.000000
  0
CIRCLE
  8
20
 10
2.637795
 20
2.874016
 30
0.000000
 40
0.055118
  0
POINT
  8
23
 10
0.157480
 20
3.228346
 30
0.000000
  0
CIRCLE
  8
20
 10
0.157480
 20
3.228346
 30
0.000000
 40
0.055118
  0
POINT
  8
23
 10
2.637795
 20
3.228346
 30
0.000000
  0
CIRCLE
  8
20
 10
2.637795
 20
3.228346
 30
0.000000
 40
0.055118
  0
POINT
  8
23
 10
2.637795
 20
4.409449
 30
0.000000
  0
CIRCLE
  8
20
 10
2.637795
 20
4.409449
 30
0.000000
 40
0.055118
  0
POINT
  8
23
 10
0.157480
 20
6.653543
 30
0.000000
  0
CIRCLE
  8
20
 10
0.157480
 20
6.653543
 30
0.000000
 40
0.055118
  0
POINT
  8
23
 10
2.637795
 20
6.653543
 30
0.000000
  0
CIRCLE
  8
20
 10
2.637795
 20
6.653543
 30
0.000000
 40
0.055118
  0
POINT
  8
23
 10
5.826772
 20
0.157480
 30
0.000000
  0
CIRCLE
  8
20
 10
5.826772
 20
0.157480
 30
0.000000
 40
0.055118
  0
POINT
  8
23
 10
8.307087
 20
0.157480
 30
0.000000
  0
CIRCLE
  8
20
 10
8.307087
 20
0.157480
 30
0.000000
 40
0.055118
  0
POINT
  8
23
 10
8.307087
 20
1.338583
 30
0.000000
  0
CIRCLE
  8
20
 10
8.307087
 20
1.338583
 30
0.000000
 40
0.055118
  0
POINT
  8
23
 10
5.826772
 20
2.874016
 30
0.000000
  0
CIRCLE
  8
20
 10
5.826772
 20
2.874016
 30
0.000000
 40
0.055118
  0
POINT
  8
23
 10
8.307087
 20
2.874016
 30
0.000000
  0
CIRCLE
  8
20
 10
8.307087
 20
2.874016
 30
0.000000
 40
0.055118
  0
POINT
  8
23
 10
2.992126
 20
2.047244
 30
0.000000
  0
CIRCLE
  8
20
 10
2.992126
 20
2.047244
 30
0.000000
 40
0.055118
  0
POINT
  8
23
 10
5.472441
 20
2.047244
 30
0.000000
  0
CIRCLE
  8
20
 10
5.472441
 20
2.047244
 30
0.000000
 40
0.055118
  0
POINT
  8
23
 10
5.826772
 20
3.228346
 30
0.000000
  0
CIRCLE
  8
20
 10
5.826772
 20
3.228346
 30
0.000000
 40
0.055118
  0
POINT
  8
23
 10
2.992126
 20
4.311024
 30
0.000000
  0
CIRCLE
  8
20
 10
2.992126
 20
4.311024
 30
0.000000
 40
0.055118
  0
POINT
  8
23
 10
5.472441
 20
4.311024
 30
0.000000
  0
CIRCLE
  8
20
 10
5.472441
 20
4.311024
 30
0.000000
 40
0.055118
  0
POINT
  8
23
 10
8.307087
 20
3.228346
 30
0.000000
  0
CIRCLE
  8
20
 10
8.307087
 20
3.228346
 30
0.000000
 40
0.055118
  0
POINT
  8
23
 10
8.307087
 20
4.409449
 30
0.000000
  0
CIRCLE
  8
20
 10
8.307087
 20
4.409449
 30
0.000000
 40
0.055118
  0
POINT
  8
23
 10
2.992126
 20
6.653543
 30
0.000000
  0
CIRCLE
  8
20
 10
2.992126
 20
6.653543
 30
0.000000
 40
0.055118
  0
POINT
  8
23
 10
5.472441
 20
6.653543
 30
0.000000
  0
CIRCLE
  8
20
 10
5.472441
 20
6.653543
 30
0.000000
 40
0.055118
  0
POINT
  8
23
 10
5.826772
 20
6.653543
 30
0.000000
  0
CIRCLE
  8
20
 10
5.826772
 20
6.653543
 30
0.000000
 40
0.055118
  0
POINT
  8
23
 10
8.307087
 20
6.653543
 30
0.000000
  0
CIRCLE
  8
20
 10
8.307087
 20
6.653543
 30
0.000000
 40
0.055118
  0
POINT
  8
23
 10
8.661417
 20
4.311024
 30
0.000000
  0
CIRCLE
  8
20
 10
8.661417
 20
4.311024
 30
0.000000
 40
0.055118
  0
POINT
  8
23
 10
11.141732
 20
4.311024
 30
0.000000
  0
CIRCLE
  8
20
 10
11.141732
 20
4.311024
 30
0.000000
 40
0.055118
  0
POINT
  8
23
 10
8.661417
 20
2.047244
 30
0.000000
  0
CIRCLE
  8
20
 10
8.661417
 20
2.047244
 30
0.000000
 40
0.055118
  0
POINT
  8
23
 10
11.141732
 20
2.047244
 30
0.000000
  0
CIRCLE
  8
20
 10
11.141732
 20
2.047244
 30
0.000000
 40
0.055118
  0
POINT
  8
23
 10
8.661417
 20
6.653543
 30
0.000000
  0
CIRCLE
  8
20
 10
8.661417
 20
6.653543
 30
0.000000
 40
0.055118
  0
POINT
  8
23
 10
11.141732
 20
6.653543
 30
0.000000
  0
CIRCLE
  8
20
 10
11.141732
 20
6.653543
 30
0.000000
 40
0.055118
  0
ENDSEC
  0
EOF
