  0
SECTION
  2
HEADER
  9
$ACADVER
  1
AC1009
  9
$FILLMODE
 70
1
  9
$EXTMIN
 10
-31.8262
 20
-0.0762
 30
0.0000
  9
$EXTMAX
 10
431.8762
 20
711.2762
 30
0.0000
  0
ENDSEC
  0
SECTION
  2
TABLES
  0
TABLE
  2
LTYPE
 70
1
  0
LTYPE
  2
CONTINUOUS
 70
64
  3
Solid line
 72
65
 73
0
 40
0
  0
ENDTAB
  0
TABLE
  2
LAYER
 70
255
  0
LAYER
  2
1
 70
64
 62
14
  6
CONTINUOUS
  0
LAYER
  2
17
 70
64
 62
94
  6
CONTINUOUS
  0
LAYER
  2
18
 70
64
 62
94
  6
CONTINUOUS
  0
LAYER
  2
19
 70
64
 62
54
  6
CONTINUOUS
  0
LAYER
  2
20
 70
64
 62
1
  6
CONTINUOUS
  0
LAYER
  2
21
 70
64
 62
250
  6
CONTINUOUS
  0
LAYER
  2
23
 70
64
 62
178
  6
CONTINUOUS
  0
LAYER
  2
25
 70
64
 62
250
  6
CONTINUOUS
  0
LAYER
  2
39
 70
64
 62
14
  6
CONTINUOUS
  0
LAYER
  2
41
 70
64
 62
14
  6
CONTINUOUS
  0
LAYER
  2
45
 70
64
 62
250
  6
CONTINUOUS
  0
LAYER
  2
51
 70
64
 62
250
  6
CONTINUOUS
  0
ENDTAB
  0
ENDSEC
  0
SECTION
  2
BLOCKS
  0
BLOCK
  8
0
  2
RECT
 70
64
 10
0.0000
 20
0.0000
 30
0.0000
  3
RECT
  0
SOLID
  8
0
 10
-0.5000
 20
-0.5000
 30
0.0000
 11
0.5000
 21
-0.5000
 31
0.0000
 12
-0.5000
 22
0.5000
 32
0.0000
 13
0.5000
 23
0.5000
 33
0.0000
  0
ENDBLK
  8
0
  0
BLOCK
  8
0
  2
PIE
 70
64
 10
0.0000
 20
0.0000
 30
0.0000
  3
PIE
  0
POLYLINE
  8
0
 66
1
 10
0.0000
 20
0.0000
 30
0.0000
 40
0.5000
 41
0.5000
 70
0
  0
VERTEX
  8
0
 10
0.0000
 20
-0.2500
 30
0.0000
 42
1.0000
  0
VERTEX
  8
0
 10
0.0000
 20
0.2500
 30
0.0000
 42
1.0000
  0
VERTEX
  8
0
 10
0.0000
 20
-0.2500
 30
0.0000
  0
SEQEND
  8
0
  0
ENDBLK
  8
0
  0
BLOCK
  8
0
  2
OCTAGONP
 70
64
 10
0.0000
 20
0.0000
 30
0.0000
  3
OCTAGONP
  0
POLYLINE
  8
0
 66
1
 10
0.0000
 20
0.0000
 30
0.0000
 40
0.5000
 41
0.5000
 70
0
  0
VERTEX
  8
0
 10
-0.2500
 20
-0.1036
 30
0.0000
  0
VERTEX
  8
0
 10
-0.2500
 20
0.1036
 30
0.0000
  0
VERTEX
  8
0
 10
-0.1036
 20
0.2500
 30
0.0000
  0
VERTEX
  8
0
 10
0.1036
 20
0.2500
 30
0.0000
  0
VERTEX
  8
0
 10
0.2500
 20
0.1036
 30
0.0000
  0
VERTEX
  8
0
 10
0.2500
 20
-0.1036
 30
0.0000
  0
VERTEX
  8
0
 10
0.1036
 20
-0.2500
 30
0.0000
  0
VERTEX
  8
0
 10
-0.1036
 20
-0.2500
 30
0.0000
  0
VERTEX
  8
0
 10
-0.2500
 20
-0.1036
 30
0.0000
  0
VERTEX
  8
0
 10
-0.2500
 20
0.1036
 30
0.0000
  0
SEQEND
  8
0
  0
ENDBLK
  8
0
  0
BLOCK
  8
0
  2
SQUAREP
 70
64
 10
0.0000
 20
0.0000
 30
0.0000
  3
SQUAREP
  0
SOLID
  8
0
 10
-0.5000
 20
-0.5000
 30
0.0000
 11
0.5000
 21
-0.5000
 31
0.0000
 12
-0.5000
 22
0.5000
 32
0.0000
 13
0.5000
 23
0.5000
 33
0.0000
  0
ENDBLK
  8
0
  0
BLOCK
  8
0
  2
ROUNDP
 70
64
 10
0.0000
 20
0.0000
 30
0.0000
  3
ROUNDP
  0
POLYLINE
  8
0
 66
1
 10
0.0000
 20
0.0000
 30
0.0000
 40
0.5000
 41
0.5000
 70
0
  0
VERTEX
  8
0
 10
0.0000
 20
-0.2500
 30
0.0000
 42
1.0000
  0
VERTEX
  8
0
 10
0.0000
 20
0.2500
 30
0.0000
 42
1.0000
  0
VERTEX
  8
0
 10
0.0000
 20
-0.2500
 30
0.0000
  0
SEQEND
  8
0
  0
ENDBLK
  8
0
  0
BLOCK
  8
0
  2
ANNULUSP
 70
64
 10
0.0000
 20
0.0000
 30
0.0000
  3
ANNULUSP
  0
POLYLINE
  8
0
 66
1
 10
0.0000
 20
0.0000
 30
0.0000
 40
0.5000
 41
0.5000
 70
0
  0
VERTEX
  8
0
 10
0.0000
 20
-0.2500
 30
0.0000
 42
1.0000
  0
VERTEX
  8
0
 10
0.0000
 20
0.2500
 30
0.0000
 42
1.0000
  0
VERTEX
  8
0
 10
0.0000
 20
-0.2500
 30
0.0000
  0
SEQEND
  8
0
  0
ENDBLK
  8
0
  0
BLOCK
  8
0
  2
THERMALP
 70
64
 10
0.0000
 20
0.0000
 30
0.0000
  3
THERMALP
  0
POLYLINE
  8
0
 66
1
 10
0.0000
 20
0.0000
 30
0.0000
 40
0.1000
 41
0.1000
 70
0
  0
VERTEX
  8
0
 10
-0.2379
 20
0.4500
 30
0.0000
  0
VERTEX
  8
0
 10
0.2379
 20
0.4500
 30
0.0000
  0
SEQEND
  8
0
  0
POLYLINE
  8
0
 66
1
 10
0.0000
 20
0.0000
 30
0.0000
 40
0.0500
 41
0.0500
 70
0
  0
VERTEX
  8
0
 10
0.2379
 20
0.4250
 30
0.0000
 42
1.0000
  0
VERTEX
  8
0
 10
0.2379
 20
0.4750
 30
0.0000
  0
SEQEND
  8
0
  0
POLYLINE
  8
0
 66
1
 10
0.0000
 20
0.0000
 30
0.0000
 40
0.0500
 41
0.0500
 70
0
  0
VERTEX
  8
0
 10
-0.2379
 20
0.4750
 30
0.0000
 42
1.0000
  0
VERTEX
  8
0
 10
-0.2379
 20
0.4250
 30
0.0000
  0
SEQEND
  8
0
  0
POLYLINE
  8
0
 66
1
 10
0.0000
 20
0.0000
 30
0.0000
 40
0.1000
 41
0.1000
 70
0
  0
VERTEX
  8
0
 10
0.4500
 20
0.2379
 30
0.0000
  0
VERTEX
  8
0
 10
0.4500
 20
-0.2379
 30
0.0000
  0
SEQEND
  8
0
  0
POLYLINE
  8
0
 66
1
 10
0.0000
 20
0.0000
 30
0.0000
 40
0.0500
 41
0.0500
 70
0
  0
VERTEX
  8
0
 10
0.4250
 20
-0.2379
 30
0.0000
 42
1.0000
  0
VERTEX
  8
0
 10
0.4750
 20
-0.2379
 30
0.0000
  0
SEQEND
  8
0
  0
POLYLINE
  8
0
 66
1
 10
0.0000
 20
0.0000
 30
0.0000
 40
0.0500
 41
0.0500
 70
0
  0
VERTEX
  8
0
 10
0.4750
 20
0.2379
 30
0.0000
 42
1.0000
  0
VERTEX
  8
0
 10
0.4250
 20
0.2379
 30
0.0000
  0
SEQEND
  8
0
  0
POLYLINE
  8
0
 66
1
 10
0.0000
 20
0.0000
 30
0.0000
 40
0.1000
 41
0.1000
 70
0
  0
VERTEX
  8
0
 10
0.2379
 20
-0.4500
 30
0.0000
  0
VERTEX
  8
0
 10
-0.2379
 20
-0.4500
 30
0.0000
  0
SEQEND
  8
0
  0
POLYLINE
  8
0
 66
1
 10
0.0000
 20
0.0000
 30
0.0000
 40
0.0500
 41
0.0500
 70
0
  0
VERTEX
  8
0
 10
-0.2379
 20
-0.4250
 30
0.0000
 42
1.0000
  0
VERTEX
  8
0
 10
-0.2379
 20
-0.4750
 30
0.0000
  0
SEQEND
  8
0
  0
POLYLINE
  8
0
 66
1
 10
0.0000
 20
0.0000
 30
0.0000
 40
0.0500
 41
0.0500
 70
0
  0
VERTEX
  8
0
 10
0.2379
 20
-0.4750
 30
0.0000
 42
1.0000
  0
VERTEX
  8
0
 10
0.2379
 20
-0.4250
 30
0.0000
  0
SEQEND
  8
0
  0
POLYLINE
  8
0
 66
1
 10
0.0000
 20
0.0000
 30
0.0000
 40
0.1000
 41
0.1000
 70
0
  0
VERTEX
  8
0
 10
-0.4500
 20
-0.2379
 30
0.0000
  0
VERTEX
  8
0
 10
-0.4500
 20
0.2379
 30
0.0000
  0
SEQEND
  8
0
  0
POLYLINE
  8
0
 66
1
 10
0.0000
 20
0.0000
 30
0.0000
 40
0.0500
 41
0.0500
 70
0
  0
VERTEX
  8
0
 10
-0.4250
 20
0.2379
 30
0.0000
 42
1.0000
  0
VERTEX
  8
0
 10
-0.4750
 20
0.2379
 30
0.0000
  0
SEQEND
  8
0
  0
POLYLINE
  8
0
 66
1
 10
0.0000
 20
0.0000
 30
0.0000
 40
0.0500
 41
0.0500
 70
0
  0
VERTEX
  8
0
 10
-0.4750
 20
-0.2379
 30
0.0000
 42
1.0000
  0
VERTEX
  8
0
 10
-0.4250
 20
-0.2379
 30
0.0000
  0
SEQEND
  8
0
  0
ENDBLK
  8
0
  0
BLOCK
  8
0
  2
OCTAGONV
 70
64
 10
0.0000
 20
0.0000
 30
0.0000
  3
OCTAGONV
  0
POLYLINE
  8
0
 66
1
 10
0.0000
 20
0.0000
 30
0.0000
 40
0.5000
 41
0.5000
 70
0
  0
VERTEX
  8
0
 10
-0.2500
 20
-0.1036
 30
0.0000
  0
VERTEX
  8
0
 10
-0.2500
 20
0.1036
 30
0.0000
  0
VERTEX
  8
0
 10
-0.1036
 20
0.2500
 30
0.0000
  0
VERTEX
  8
0
 10
0.1036
 20
0.2500
 30
0.0000
  0
VERTEX
  8
0
 10
0.2500
 20
0.1036
 30
0.0000
  0
VERTEX
  8
0
 10
0.2500
 20
-0.1036
 30
0.0000
  0
VERTEX
  8
0
 10
0.1036
 20
-0.2500
 30
0.0000
  0
VERTEX
  8
0
 10
-0.1036
 20
-0.2500
 30
0.0000
  0
VERTEX
  8
0
 10
-0.2500
 20
-0.1036
 30
0.0000
  0
VERTEX
  8
0
 10
-0.2500
 20
0.1036
 30
0.0000
  0
SEQEND
  8
0
  0
ENDBLK
  8
0
  0
BLOCK
  8
0
  2
SQUAREV
 70
64
 10
0.0000
 20
0.0000
 30
0.0000
  3
SQUAREV
  0
SOLID
  8
0
 10
-0.5000
 20
-0.5000
 30
0.0000
 11
0.5000
 21
-0.5000
 31
0.0000
 12
-0.5000
 22
0.5000
 32
0.0000
 13
0.5000
 23
0.5000
 33
0.0000
  0
ENDBLK
  8
0
  0
BLOCK
  8
0
  2
ROUNDV
 70
64
 10
0.0000
 20
0.0000
 30
0.0000
  3
ROUNDV
  0
POLYLINE
  8
0
 66
1
 10
0.0000
 20
0.0000
 30
0.0000
 40
0.5000
 41
0.5000
 70
0
  0
VERTEX
  8
0
 10
0.0000
 20
-0.2500
 30
0.0000
 42
1.0000
  0
VERTEX
  8
0
 10
0.0000
 20
0.2500
 30
0.0000
 42
1.0000
  0
VERTEX
  8
0
 10
0.0000
 20
-0.2500
 30
0.0000
  0
SEQEND
  8
0
  0
ENDBLK
  8
0
  0
BLOCK
  8
0
  2
ANNULUSV
 70
64
 10
0.0000
 20
0.0000
 30
0.0000
  3
ANNULUSV
  0
POLYLINE
  8
0
 66
1
 10
0.0000
 20
0.0000
 30
0.0000
 40
0.5000
 41
0.5000
 70
0
  0
VERTEX
  8
0
 10
0.0000
 20
-0.2500
 30
0.0000
 42
1.0000
  0
VERTEX
  8
0
 10
0.0000
 20
0.2500
 30
0.0000
 42
1.0000
  0
VERTEX
  8
0
 10
0.0000
 20
-0.2500
 30
0.0000
  0
SEQEND
  8
0
  0
ENDBLK
  8
0
  0
BLOCK
  8
0
  2
THERMALV
 70
64
 10
0.0000
 20
0.0000
 30
0.0000
  3
THERMALV
  0
POLYLINE
  8
0
 66
1
 10
0.0000
 20
0.0000
 30
0.0000
 40
0.1000
 41
0.1000
 70
0
  0
VERTEX
  8
0
 10
-0.2379
 20
0.4500
 30
0.0000
  0
VERTEX
  8
0
 10
0.2379
 20
0.4500
 30
0.0000
  0
SEQEND
  8
0
  0
POLYLINE
  8
0
 66
1
 10
0.0000
 20
0.0000
 30
0.0000
 40
0.0500
 41
0.0500
 70
0
  0
VERTEX
  8
0
 10
0.2379
 20
0.4250
 30
0.0000
 42
1.0000
  0
VERTEX
  8
0
 10
0.2379
 20
0.4750
 30
0.0000
  0
SEQEND
  8
0
  0
POLYLINE
  8
0
 66
1
 10
0.0000
 20
0.0000
 30
0.0000
 40
0.0500
 41
0.0500
 70
0
  0
VERTEX
  8
0
 10
-0.2379
 20
0.4750
 30
0.0000
 42
1.0000
  0
VERTEX
  8
0
 10
-0.2379
 20
0.4250
 30
0.0000
  0
SEQEND
  8
0
  0
POLYLINE
  8
0
 66
1
 10
0.0000
 20
0.0000
 30
0.0000
 40
0.1000
 41
0.1000
 70
0
  0
VERTEX
  8
0
 10
0.4500
 20
0.2379
 30
0.0000
  0
VERTEX
  8
0
 10
0.4500
 20
-0.2379
 30
0.0000
  0
SEQEND
  8
0
  0
POLYLINE
  8
0
 66
1
 10
0.0000
 20
0.0000
 30
0.0000
 40
0.0500
 41
0.0500
 70
0
  0
VERTEX
  8
0
 10
0.4250
 20
-0.2379
 30
0.0000
 42
1.0000
  0
VERTEX
  8
0
 10
0.4750
 20
-0.2379
 30
0.0000
  0
SEQEND
  8
0
  0
POLYLINE
  8
0
 66
1
 10
0.0000
 20
0.0000
 30
0.0000
 40
0.0500
 41
0.0500
 70
0
  0
VERTEX
  8
0
 10
0.4750
 20
0.2379
 30
0.0000
 42
1.0000
  0
VERTEX
  8
0
 10
0.4250
 20
0.2379
 30
0.0000
  0
SEQEND
  8
0
  0
POLYLINE
  8
0
 66
1
 10
0.0000
 20
0.0000
 30
0.0000
 40
0.1000
 41
0.1000
 70
0
  0
VERTEX
  8
0
 10
0.2379
 20
-0.4500
 30
0.0000
  0
VERTEX
  8
0
 10
-0.2379
 20
-0.4500
 30
0.0000
  0
SEQEND
  8
0
  0
POLYLINE
  8
0
 66
1
 10
0.0000
 20
0.0000
 30
0.0000
 40
0.0500
 41
0.0500
 70
0
  0
VERTEX
  8
0
 10
-0.2379
 20
-0.4250
 30
0.0000
 42
1.0000
  0
VERTEX
  8
0
 10
-0.2379
 20
-0.4750
 30
0.0000
  0
SEQEND
  8
0
  0
POLYLINE
  8
0
 66
1
 10
0.0000
 20
0.0000
 30
0.0000
 40
0.0500
 41
0.0500
 70
0
  0
VERTEX
  8
0
 10
0.2379
 20
-0.4750
 30
0.0000
 42
1.0000
  0
VERTEX
  8
0
 10
0.2379
 20
-0.4250
 30
0.0000
  0
SEQEND
  8
0
  0
POLYLINE
  8
0
 66
1
 10
0.0000
 20
0.0000
 30
0.0000
 40
0.1000
 41
0.1000
 70
0
  0
VERTEX
  8
0
 10
-0.4500
 20
-0.2379
 30
0.0000
  0
VERTEX
  8
0
 10
-0.4500
 20
0.2379
 30
0.0000
  0
SEQEND
  8
0
  0
POLYLINE
  8
0
 66
1
 10
0.0000
 20
0.0000
 30
0.0000
 40
0.0500
 41
0.0500
 70
0
  0
VERTEX
  8
0
 10
-0.4250
 20
0.2379
 30
0.0000
 42
1.0000
  0
VERTEX
  8
0
 10
-0.4750
 20
0.2379
 30
0.0000
  0
SEQEND
  8
0
  0
POLYLINE
  8
0
 66
1
 10
0.0000
 20
0.0000
 30
0.0000
 40
0.0500
 41
0.0500
 70
0
  0
VERTEX
  8
0
 10
-0.4750
 20
-0.2379
 30
0.0000
 42
1.0000
  0
VERTEX
  8
0
 10
-0.4250
 20
-0.2379
 30
0.0000
  0
SEQEND
  8
0
  0
ENDBLK
  8
0
  0
ENDSEC
  0
SECTION
  2
ENTITIES
  0
LINE
  8
20
 10
15.2400
 20
199.7000
 30
0.0000
 11
15.2400
 21
107.7000
 31
0.0000
  0
ARC
  8
20
 10
16.2400
 20
107.7000
 30
0.0000
 40
1.0000
 50
180.0000
 51
270.0000
  0
ARC
  8
20
 10
85.2400
 20
107.7000
 30
0.0000
 40
1.0000
 50
270.0000
 51
0.0000
  0
LINE
  8
20
 10
86.2400
 20
107.7000
 30
0.0000
 11
86.2400
 21
199.7000
 31
0.0000
  0
ARC
  8
20
 10
85.2400
 20
199.7000
 30
0.0000
 40
1.0000
 50
0.0000
 51
90.0000
  0
ARC
  8
20
 10
16.2400
 20
199.7000
 30
0.0000
 40
1.0000
 50
90.0000
 51
180.0000
  0
LINE
  8
20
 10
61.9010
 20
135.9025
 30
0.0000
 11
50.7000
 21
139.9793
 31
0.0000
  0
ARC
  8
20
 10
50.5290
 20
139.5094
 30
0.0000
 40
0.5000
 50
69.9998
 51
159.9999
  0
LINE
  8
20
 10
50.0592
 20
139.6804
 30
0.0000
 11
45.6129
 21
127.4644
 31
0.0000
  0
ARC
  8
20
 10
46.0828
 20
127.2934
 30
0.0000
 40
0.5000
 50
160.0003
 51
250.0001
  0
LINE
  8
20
 10
45.9118
 20
126.8236
 30
0.0000
 11
56.1388
 21
123.1012
 31
0.0000
  0
LINE
  8
20
 10
68.3268
 20
115.6541
 30
0.0000
 11
79.5278
 21
111.5773
 31
0.0000
  0
ARC
  8
20
 10
79.6988
 20
112.0472
 30
0.0000
 40
0.5000
 50
249.9998
 51
339.9999
  0
LINE
  8
20
 10
80.1686
 20
111.8762
 30
0.0000
 11
84.6149
 21
124.0922
 31
0.0000
  0
ARC
  8
20
 10
84.1450
 20
124.2632
 30
0.0000
 40
0.5000
 50
340.0003
 51
70.0001
  0
LINE
  8
20
 10
84.3160
 20
124.7330
 30
0.0000
 11
74.5588
 21
128.2844
 31
0.0000
  0
ARC
  8
20
 10
74.7298
 20
128.7542
 30
0.0000
 40
0.5000
 50
160.0003
 51
250.0001
  0
LINE
  8
20
 10
74.2600
 20
128.9252
 30
0.0000
 11
77.8149
 21
138.6922
 31
0.0000
  0
ARC
  8
20
 10
77.3450
 20
138.8632
 30
0.0000
 40
0.5000
 50
340.0003
 51
70.0001
  0
LINE
  8
20
 10
77.5160
 20
139.3330
 30
0.0000
 11
65.3000
 21
143.7793
 31
0.0000
  0
ARC
  8
20
 10
65.1290
 20
143.3094
 30
0.0000
 40
0.5000
 50
69.9998
 51
159.9999
  0
LINE
  8
20
 10
64.6592
 20
143.4804
 30
0.0000
 11
61.9010
 21
135.9025
 31
0.0000
  0
LINE
  8
20
 10
52.2419
 20
112.3946
 30
0.0000
 11
64.9278
 21
107.7773
 31
0.0000
  0
ARC
  8
20
 10
65.0988
 20
108.2472
 30
0.0000
 40
0.5000
 50
249.9998
 51
339.9999
  0
LINE
  8
20
 10
65.5686
 20
108.0762
 30
0.0000
 11
68.3268
 21
115.6541
 31
0.0000
  0
LINE
  8
20
 10
56.1388
 20
123.1012
 30
0.0000
 11
52.2419
 21
112.3946
 31
0.0000
  0
POLYLINE
  8
20
 66
1
 10
0.0000
 20
0.0000
 30
0.0000
 40
0.0100
 41
0.0100
 70
0
  0
VERTEX
  8
20
 10
30.5936
 20
135.8464
 30
0.0000
  0
VERTEX
  8
20
 10
42.3864
 20
124.0536
 30
0.0000
  0
SEQEND
  8
0
  0
POLYLINE
  8
20
 66
1
 10
0.0000
 20
0.0000
 30
0.0000
 40
0.0050
 41
0.0050
 70
0
  0
VERTEX
  8
20
 10
42.3847
 20
124.0518
 30
0.0000
 42
1.0000
  0
VERTEX
  8
20
 10
42.3882
 20
124.0553
 30
0.0000
  0
SEQEND
  8
0
  0
POLYLINE
  8
20
 66
1
 10
0.0000
 20
0.0000
 30
0.0000
 40
0.0050
 41
0.0050
 70
0
  0
VERTEX
  8
20
 10
30.5953
 20
135.8482
 30
0.0000
 42
1.0000
  0
VERTEX
  8
20
 10
30.5918
 20
135.8447
 30
0.0000
  0
SEQEND
  8
0
  0
POLYLINE
  8
20
 66
1
 10
0.0000
 20
0.0000
 30
0.0000
 40
0.0100
 41
0.0100
 70
0
  0
VERTEX
  8
20
 10
42.3864
 20
123.3464
 30
0.0000
 42
0.4142
  0
VERTEX
  8
20
 10
42.3864
 20
124.0536
 30
0.0000
  0
SEQEND
  8
0
  0
POLYLINE
  8
20
 66
1
 10
0.0000
 20
0.0000
 30
0.0000
 40
0.0050
 41
0.0050
 70
0
  0
VERTEX
  8
20
 10
42.3847
 20
123.3482
 30
0.0000
 42
1.0000
  0
VERTEX
  8
20
 10
42.3882
 20
123.3447
 30
0.0000
  0
SEQEND
  8
0
  0
POLYLINE
  8
20
 66
1
 10
0.0000
 20
0.0000
 30
0.0000
 40
0.0050
 41
0.0050
 70
0
  0
VERTEX
  8
20
 10
42.3882
 20
124.0553
 30
0.0000
 42
1.0000
  0
VERTEX
  8
20
 10
42.3847
 20
124.0518
 30
0.0000
  0
SEQEND
  8
0
  0
POLYLINE
  8
20
 66
1
 10
0.0000
 20
0.0000
 30
0.0000
 40
0.0100
 41
0.0100
 70
0
  0
VERTEX
  8
20
 10
42.3864
 20
123.3464
 30
0.0000
  0
VERTEX
  8
20
 10
30.5936
 20
111.5536
 30
0.0000
  0
SEQEND
  8
0
  0
POLYLINE
  8
20
 66
1
 10
0.0000
 20
0.0000
 30
0.0000
 40
0.0050
 41
0.0050
 70
0
  0
VERTEX
  8
20
 10
30.5918
 20
111.5553
 30
0.0000
 42
1.0000
  0
VERTEX
  8
20
 10
30.5953
 20
111.5518
 30
0.0000
  0
SEQEND
  8
0
  0
POLYLINE
  8
20
 66
1
 10
0.0000
 20
0.0000
 30
0.0000
 40
0.0050
 41
0.0050
 70
0
  0
VERTEX
  8
20
 10
42.3882
 20
123.3447
 30
0.0000
 42
1.0000
  0
VERTEX
  8
20
 10
42.3847
 20
123.3482
 30
0.0000
  0
SEQEND
  8
0
  0
POLYLINE
  8
20
 66
1
 10
0.0000
 20
0.0000
 30
0.0000
 40
0.0100
 41
0.0100
 70
0
  0
VERTEX
  8
20
 10
29.8864
 20
111.5536
 30
0.0000
 42
0.4142
  0
VERTEX
  8
20
 10
30.5936
 20
111.5536
 30
0.0000
  0
SEQEND
  8
0
  0
POLYLINE
  8
20
 66
1
 10
0.0000
 20
0.0000
 30
0.0000
 40
0.0050
 41
0.0050
 70
0
  0
VERTEX
  8
20
 10
29.8882
 20
111.5553
 30
0.0000
 42
1.0000
  0
VERTEX
  8
20
 10
29.8847
 20
111.5518
 30
0.0000
  0
SEQEND
  8
0
  0
POLYLINE
  8
20
 66
1
 10
0.0000
 20
0.0000
 30
0.0000
 40
0.0050
 41
0.0050
 70
0
  0
VERTEX
  8
20
 10
30.5953
 20
111.5518
 30
0.0000
 42
1.0000
  0
VERTEX
  8
20
 10
30.5918
 20
111.5553
 30
0.0000
  0
SEQEND
  8
0
  0
POLYLINE
  8
20
 66
1
 10
0.0000
 20
0.0000
 30
0.0000
 40
0.0100
 41
0.0100
 70
0
  0
VERTEX
  8
20
 10
29.8864
 20
111.5536
 30
0.0000
  0
VERTEX
  8
20
 10
18.0936
 20
123.3464
 30
0.0000
  0
SEQEND
  8
0
  0
POLYLINE
  8
20
 66
1
 10
0.0000
 20
0.0000
 30
0.0000
 40
0.0050
 41
0.0050
 70
0
  0
VERTEX
  8
20
 10
18.0953
 20
123.3482
 30
0.0000
 42
1.0000
  0
VERTEX
  8
20
 10
18.0918
 20
123.3447
 30
0.0000
  0
SEQEND
  8
0
  0
POLYLINE
  8
20
 66
1
 10
0.0000
 20
0.0000
 30
0.0000
 40
0.0050
 41
0.0050
 70
0
  0
VERTEX
  8
20
 10
29.8847
 20
111.5518
 30
0.0000
 42
1.0000
  0
VERTEX
  8
20
 10
29.8882
 20
111.5553
 30
0.0000
  0
SEQEND
  8
0
  0
POLYLINE
  8
20
 66
1
 10
0.0000
 20
0.0000
 30
0.0000
 40
0.0100
 41
0.0100
 70
0
  0
VERTEX
  8
20
 10
18.0936
 20
124.0536
 30
0.0000
 42
0.4142
  0
VERTEX
  8
20
 10
18.0936
 20
123.3464
 30
0.0000
  0
SEQEND
  8
0
  0
POLYLINE
  8
20
 66
1
 10
0.0000
 20
0.0000
 30
0.0000
 40
0.0050
 41
0.0050
 70
0
  0
VERTEX
  8
20
 10
18.0953
 20
124.0518
 30
0.0000
 42
1.0000
  0
VERTEX
  8
20
 10
18.0918
 20
124.0553
 30
0.0000
  0
SEQEND
  8
0
  0
POLYLINE
  8
20
 66
1
 10
0.0000
 20
0.0000
 30
0.0000
 40
0.0050
 41
0.0050
 70
0
  0
VERTEX
  8
20
 10
18.0918
 20
123.3447
 30
0.0000
 42
1.0000
  0
VERTEX
  8
20
 10
18.0953
 20
123.3482
 30
0.0000
  0
SEQEND
  8
0
  0
POLYLINE
  8
20
 66
1
 10
0.0000
 20
0.0000
 30
0.0000
 40
0.0100
 41
0.0100
 70
0
  0
VERTEX
  8
20
 10
18.0936
 20
124.0536
 30
0.0000
  0
VERTEX
  8
20
 10
29.8864
 20
135.8464
 30
0.0000
  0
SEQEND
  8
0
  0
POLYLINE
  8
20
 66
1
 10
0.0000
 20
0.0000
 30
0.0000
 40
0.0050
 41
0.0050
 70
0
  0
VERTEX
  8
20
 10
29.8882
 20
135.8447
 30
0.0000
 42
1.0000
  0
VERTEX
  8
20
 10
29.8847
 20
135.8482
 30
0.0000
  0
SEQEND
  8
0
  0
POLYLINE
  8
20
 66
1
 10
0.0000
 20
0.0000
 30
0.0000
 40
0.0050
 41
0.0050
 70
0
  0
VERTEX
  8
20
 10
18.0918
 20
124.0553
 30
0.0000
 42
1.0000
  0
VERTEX
  8
20
 10
18.0953
 20
124.0518
 30
0.0000
  0
SEQEND
  8
0
  0
POLYLINE
  8
20
 66
1
 10
0.0000
 20
0.0000
 30
0.0000
 40
0.0100
 41
0.0100
 70
0
  0
VERTEX
  8
20
 10
30.5936
 20
135.8464
 30
0.0000
 42
0.4142
  0
VERTEX
  8
20
 10
29.8864
 20
135.8464
 30
0.0000
  0
SEQEND
  8
0
  0
POLYLINE
  8
20
 66
1
 10
0.0000
 20
0.0000
 30
0.0000
 40
0.0050
 41
0.0050
 70
0
  0
VERTEX
  8
20
 10
30.5918
 20
135.8447
 30
0.0000
 42
1.0000
  0
VERTEX
  8
20
 10
30.5953
 20
135.8482
 30
0.0000
  0
SEQEND
  8
0
  0
POLYLINE
  8
20
 66
1
 10
0.0000
 20
0.0000
 30
0.0000
 40
0.0050
 41
0.0050
 70
0
  0
VERTEX
  8
20
 10
29.8847
 20
135.8482
 30
0.0000
 42
1.0000
  0
VERTEX
  8
20
 10
29.8882
 20
135.8447
 30
0.0000
  0
SEQEND
  8
0
  0
POLYLINE
  8
20
 66
1
 10
0.0000
 20
0.0000
 30
0.0000
 40
0.0100
 41
0.0100
 70
0
  0
VERTEX
  8
20
 10
21.2400
 20
142.2000
 30
0.0000
  0
VERTEX
  8
20
 10
21.2400
 20
138.2000
 30
0.0000
  0
SEQEND
  8
0
  0
POLYLINE
  8
20
 66
1
 10
0.0000
 20
0.0000
 30
0.0000
 40
0.0050
 41
0.0050
 70
0
  0
VERTEX
  8
20
 10
21.2375
 20
138.2000
 30
0.0000
 42
1.0000
  0
VERTEX
  8
20
 10
21.2425
 20
138.2000
 30
0.0000
  0
SEQEND
  8
0
  0
POLYLINE
  8
20
 66
1
 10
0.0000
 20
0.0000
 30
0.0000
 40
0.0050
 41
0.0050
 70
0
  0
VERTEX
  8
20
 10
21.2425
 20
142.2000
 30
0.0000
 42
1.0000
  0
VERTEX
  8
20
 10
21.2375
 20
142.2000
 30
0.0000
  0
SEQEND
  8
0
  0
POLYLINE
  8
20
 66
1
 10
0.0000
 20
0.0000
 30
0.0000
 40
0.0100
 41
0.0100
 70
0
  0
VERTEX
  8
20
 10
21.2400
 20
138.2000
 30
0.0000
 42
0.4142
  0
VERTEX
  8
20
 10
21.7400
 20
137.7000
 30
0.0000
  0
SEQEND
  8
0
  0
POLYLINE
  8
20
 66
1
 10
0.0000
 20
0.0000
 30
0.0000
 40
0.0050
 41
0.0050
 70
0
  0
VERTEX
  8
20
 10
21.2425
 20
138.2000
 30
0.0000
 42
1.0000
  0
VERTEX
  8
20
 10
21.2375
 20
138.2000
 30
0.0000
  0
SEQEND
  8
0
  0
POLYLINE
  8
20
 66
1
 10
0.0000
 20
0.0000
 30
0.0000
 40
0.0050
 41
0.0050
 70
0
  0
VERTEX
  8
20
 10
21.7400
 20
137.6975
 30
0.0000
 42
1.0000
  0
VERTEX
  8
20
 10
21.7400
 20
137.7025
 30
0.0000
  0
SEQEND
  8
0
  0
POLYLINE
  8
20
 66
1
 10
0.0000
 20
0.0000
 30
0.0000
 40
0.0100
 41
0.0100
 70
0
  0
VERTEX
  8
20
 10
21.7400
 20
142.7000
 30
0.0000
  0
VERTEX
  8
20
 10
38.7400
 20
142.7000
 30
0.0000
  0
SEQEND
  8
0
  0
POLYLINE
  8
20
 66
1
 10
0.0000
 20
0.0000
 30
0.0000
 40
0.0050
 41
0.0050
 70
0
  0
VERTEX
  8
20
 10
38.7400
 20
142.6975
 30
0.0000
 42
1.0000
  0
VERTEX
  8
20
 10
38.7400
 20
142.7025
 30
0.0000
  0
SEQEND
  8
0
  0
POLYLINE
  8
20
 66
1
 10
0.0000
 20
0.0000
 30
0.0000
 40
0.0050
 41
0.0050
 70
0
  0
VERTEX
  8
20
 10
21.7400
 20
142.7025
 30
0.0000
 42
1.0000
  0
VERTEX
  8
20
 10
21.7400
 20
142.6975
 30
0.0000
  0
SEQEND
  8
0
  0
POLYLINE
  8
20
 66
1
 10
0.0000
 20
0.0000
 30
0.0000
 40
0.0100
 41
0.0100
 70
0
  0
VERTEX
  8
20
 10
39.2400
 20
142.2000
 30
0.0000
 42
0.4142
  0
VERTEX
  8
20
 10
38.7400
 20
142.7000
 30
0.0000
  0
SEQEND
  8
0
  0
POLYLINE
  8
20
 66
1
 10
0.0000
 20
0.0000
 30
0.0000
 40
0.0050
 41
0.0050
 70
0
  0
VERTEX
  8
20
 10
39.2375
 20
142.2000
 30
0.0000
 42
1.0000
  0
VERTEX
  8
20
 10
39.2425
 20
142.2000
 30
0.0000
  0
SEQEND
  8
0
  0
POLYLINE
  8
20
 66
1
 10
0.0000
 20
0.0000
 30
0.0000
 40
0.0050
 41
0.0050
 70
0
  0
VERTEX
  8
20
 10
38.7400
 20
142.7025
 30
0.0000
 42
1.0000
  0
VERTEX
  8
20
 10
38.7400
 20
142.6975
 30
0.0000
  0
SEQEND
  8
0
  0
POLYLINE
  8
20
 66
1
 10
0.0000
 20
0.0000
 30
0.0000
 40
0.0100
 41
0.0100
 70
0
  0
VERTEX
  8
20
 10
39.2400
 20
142.2000
 30
0.0000
  0
VERTEX
  8
20
 10
39.2400
 20
138.2000
 30
0.0000
  0
SEQEND
  8
0
  0
POLYLINE
  8
20
 66
1
 10
0.0000
 20
0.0000
 30
0.0000
 40
0.0050
 41
0.0050
 70
0
  0
VERTEX
  8
20
 10
39.2375
 20
138.2000
 30
0.0000
 42
1.0000
  0
VERTEX
  8
20
 10
39.2425
 20
138.2000
 30
0.0000
  0
SEQEND
  8
0
  0
POLYLINE
  8
20
 66
1
 10
0.0000
 20
0.0000
 30
0.0000
 40
0.0050
 41
0.0050
 70
0
  0
VERTEX
  8
20
 10
39.2425
 20
142.2000
 30
0.0000
 42
1.0000
  0
VERTEX
  8
20
 10
39.2375
 20
142.2000
 30
0.0000
  0
SEQEND
  8
0
  0
POLYLINE
  8
20
 66
1
 10
0.0000
 20
0.0000
 30
0.0000
 40
0.0100
 41
0.0100
 70
0
  0
VERTEX
  8
20
 10
38.7400
 20
137.7000
 30
0.0000
 42
0.4142
  0
VERTEX
  8
20
 10
39.2400
 20
138.2000
 30
0.0000
  0
SEQEND
  8
0
  0
POLYLINE
  8
20
 66
1
 10
0.0000
 20
0.0000
 30
0.0000
 40
0.0050
 41
0.0050
 70
0
  0
VERTEX
  8
20
 10
38.7400
 20
137.7025
 30
0.0000
 42
1.0000
  0
VERTEX
  8
20
 10
38.7400
 20
137.6975
 30
0.0000
  0
SEQEND
  8
0
  0
POLYLINE
  8
20
 66
1
 10
0.0000
 20
0.0000
 30
0.0000
 40
0.0050
 41
0.0050
 70
0
  0
VERTEX
  8
20
 10
39.2425
 20
138.2000
 30
0.0000
 42
1.0000
  0
VERTEX
  8
20
 10
39.2375
 20
138.2000
 30
0.0000
  0
SEQEND
  8
0
  0
POLYLINE
  8
20
 66
1
 10
0.0000
 20
0.0000
 30
0.0000
 40
0.0100
 41
0.0100
 70
0
  0
VERTEX
  8
20
 10
38.7400
 20
137.7000
 30
0.0000
  0
VERTEX
  8
20
 10
21.7400
 20
137.7000
 30
0.0000
  0
SEQEND
  8
0
  0
POLYLINE
  8
20
 66
1
 10
0.0000
 20
0.0000
 30
0.0000
 40
0.0050
 41
0.0050
 70
0
  0
VERTEX
  8
20
 10
21.7400
 20
137.7025
 30
0.0000
 42
1.0000
  0
VERTEX
  8
20
 10
21.7400
 20
137.6975
 30
0.0000
  0
SEQEND
  8
0
  0
POLYLINE
  8
20
 66
1
 10
0.0000
 20
0.0000
 30
0.0000
 40
0.0050
 41
0.0050
 70
0
  0
VERTEX
  8
20
 10
38.7400
 20
137.6975
 30
0.0000
 42
1.0000
  0
VERTEX
  8
20
 10
38.7400
 20
137.7025
 30
0.0000
  0
SEQEND
  8
0
  0
POLYLINE
  8
20
 66
1
 10
0.0000
 20
0.0000
 30
0.0000
 40
0.0100
 41
0.0100
 70
0
  0
VERTEX
  8
20
 10
21.7400
 20
142.7000
 30
0.0000
 42
0.4142
  0
VERTEX
  8
20
 10
21.2400
 20
142.2000
 30
0.0000
  0
SEQEND
  8
0
  0
POLYLINE
  8
20
 66
1
 10
0.0000
 20
0.0000
 30
0.0000
 40
0.0050
 41
0.0050
 70
0
  0
VERTEX
  8
20
 10
21.7400
 20
142.6975
 30
0.0000
 42
1.0000
  0
VERTEX
  8
20
 10
21.7400
 20
142.7025
 30
0.0000
  0
SEQEND
  8
0
  0
POLYLINE
  8
20
 66
1
 10
0.0000
 20
0.0000
 30
0.0000
 40
0.0050
 41
0.0050
 70
0
  0
VERTEX
  8
20
 10
21.2375
 20
142.2000
 30
0.0000
 42
1.0000
  0
VERTEX
  8
20
 10
21.2425
 20
142.2000
 30
0.0000
  0
SEQEND
  8
0
  0
POLYLINE
  8
20
 66
1
 10
0.0000
 20
0.0000
 30
0.0000
 40
0.1524
 41
0.1524
 70
0
  0
VERTEX
  8
20
 10
-31.7500
 20
25.4000
 30
0.0000
  0
VERTEX
  8
20
 10
-31.7500
 20
0.0000
 30
0.0000
  0
SEQEND
  8
0
  0
POLYLINE
  8
20
 66
1
 10
0.0000
 20
0.0000
 30
0.0000
 40
0.0762
 41
0.0762
 70
0
  0
VERTEX
  8
20
 10
-31.7881
 20
0.0000
 30
0.0000
 42
1.0000
  0
VERTEX
  8
20
 10
-31.7119
 20
0.0000
 30
0.0000
  0
SEQEND
  8
0
  0
POLYLINE
  8
20
 66
1
 10
0.0000
 20
0.0000
 30
0.0000
 40
0.0762
 41
0.0762
 70
0
  0
VERTEX
  8
20
 10
-31.7119
 20
25.4000
 30
0.0000
 42
1.0000
  0
VERTEX
  8
20
 10
-31.7881
 20
25.4000
 30
0.0000
  0
SEQEND
  8
0
  0
POLYLINE
  8
20
 66
1
 10
0.0000
 20
0.0000
 30
0.0000
 40
0.1524
 41
0.1524
 70
0
  0
VERTEX
  8
20
 10
-31.7500
 20
0.0000
 30
0.0000
  0
VERTEX
  8
20
 10
-6.3500
 20
0.0000
 30
0.0000
  0
SEQEND
  8
0
  0
POLYLINE
  8
20
 66
1
 10
0.0000
 20
0.0000
 30
0.0000
 40
0.0762
 41
0.0762
 70
0
  0
VERTEX
  8
20
 10
-6.3500
 20
-0.0381
 30
0.0000
 42
1.0000
  0
VERTEX
  8
20
 10
-6.3500
 20
0.0381
 30
0.0000
  0
SEQEND
  8
0
  0
POLYLINE
  8
20
 66
1
 10
0.0000
 20
0.0000
 30
0.0000
 40
0.0762
 41
0.0762
 70
0
  0
VERTEX
  8
20
 10
-31.7500
 20
0.0381
 30
0.0000
 42
1.0000
  0
VERTEX
  8
20
 10
-31.7500
 20
-0.0381
 30
0.0000
  0
SEQEND
  8
0
  0
POLYLINE
  8
20
 66
1
 10
0.0000
 20
0.0000
 30
0.0000
 40
0.1524
 41
0.1524
 70
0
  0
VERTEX
  8
20
 10
-6.3500
 20
0.0000
 30
0.0000
  0
VERTEX
  8
20
 10
-6.3500
 20
25.4000
 30
0.0000
  0
SEQEND
  8
0
  0
POLYLINE
  8
20
 66
1
 10
0.0000
 20
0.0000
 30
0.0000
 40
0.0762
 41
0.0762
 70
0
  0
VERTEX
  8
20
 10
-6.3119
 20
25.4000
 30
0.0000
 42
1.0000
  0
VERTEX
  8
20
 10
-6.3881
 20
25.4000
 30
0.0000
  0
SEQEND
  8
0
  0
POLYLINE
  8
20
 66
1
 10
0.0000
 20
0.0000
 30
0.0000
 40
0.0762
 41
0.0762
 70
0
  0
VERTEX
  8
20
 10
-6.3881
 20
0.0000
 30
0.0000
 42
1.0000
  0
VERTEX
  8
20
 10
-6.3119
 20
0.0000
 30
0.0000
  0
SEQEND
  8
0
  0
POLYLINE
  8
20
 66
1
 10
0.0000
 20
0.0000
 30
0.0000
 40
0.1524
 41
0.1524
 70
0
  0
VERTEX
  8
20
 10
-6.3500
 20
25.4000
 30
0.0000
  0
VERTEX
  8
20
 10
-31.7500
 20
25.4000
 30
0.0000
  0
SEQEND
  8
0
  0
POLYLINE
  8
20
 66
1
 10
0.0000
 20
0.0000
 30
0.0000
 40
0.0762
 41
0.0762
 70
0
  0
VERTEX
  8
20
 10
-31.7500
 20
25.4381
 30
0.0000
 42
1.0000
  0
VERTEX
  8
20
 10
-31.7500
 20
25.3619
 30
0.0000
  0
SEQEND
  8
0
  0
POLYLINE
  8
20
 66
1
 10
0.0000
 20
0.0000
 30
0.0000
 40
0.0762
 41
0.0762
 70
0
  0
VERTEX
  8
20
 10
-6.3500
 20
25.3619
 30
0.0000
 42
1.0000
  0
VERTEX
  8
20
 10
-6.3500
 20
25.4381
 30
0.0000
  0
SEQEND
  8
0
  0
LINE
  8
20
 10
15.2400
 20
105.7000
 30
0.0000
 11
15.2400
 21
13.7000
 31
0.0000
  0
ARC
  8
20
 10
16.2400
 20
13.7000
 30
0.0000
 40
1.0000
 50
180.0000
 51
270.0000
  0
LINE
  8
20
 10
16.2400
 20
12.7000
 30
0.0000
 11
85.2400
 21
12.7000
 31
0.0000
  0
ARC
  8
20
 10
85.2400
 20
13.7000
 30
0.0000
 40
1.0000
 50
270.0000
 51
0.0000
  0
ARC
  8
20
 10
85.2400
 20
105.7000
 30
0.0000
 40
1.0000
 50
0.0000
 51
90.0000
  0
LINE
  8
20
 10
85.2400
 20
106.7000
 30
0.0000
 11
16.2400
 21
106.7000
 31
0.0000
  0
ARC
  8
20
 10
16.2400
 20
105.7000
 30
0.0000
 40
1.0000
 50
90.0000
 51
180.0000
  0
LINE
  8
20
 10
86.2400
 20
105.7000
 30
0.0000
 11
86.2400
 21
13.7000
 31
0.0000
  0
POLYLINE
  8
51
 66
1
 10
0.0000
 20
0.0000
 30
0.0000
 40
0.1524
 41
0.1524
 70
0
  0
VERTEX
  8
51
 10
0.0000
 20
0.0000
 30
0.0000
  0
VERTEX
  8
51
 10
431.8000
 20
0.0000
 30
0.0000
  0
SEQEND
  8
0
  0
POLYLINE
  8
51
 66
1
 10
0.0000
 20
0.0000
 30
0.0000
 40
0.0762
 41
0.0762
 70
0
  0
VERTEX
  8
51
 10
431.8000
 20
-0.0381
 30
0.0000
 42
1.0000
  0
VERTEX
  8
51
 10
431.8000
 20
0.0381
 30
0.0000
  0
SEQEND
  8
0
  0
POLYLINE
  8
51
 66
1
 10
0.0000
 20
0.0000
 30
0.0000
 40
0.0762
 41
0.0762
 70
0
  0
VERTEX
  8
51
 10
0.0000
 20
0.0381
 30
0.0000
 42
1.0000
  0
VERTEX
  8
51
 10
0.0000
 20
-0.0381
 30
0.0000
  0
SEQEND
  8
0
  0
POLYLINE
  8
51
 66
1
 10
0.0000
 20
0.0000
 30
0.0000
 40
0.1524
 41
0.1524
 70
0
  0
VERTEX
  8
51
 10
0.0000
 20
711.2000
 30
0.0000
  0
VERTEX
  8
51
 10
0.0000
 20
0.0000
 30
0.0000
  0
SEQEND
  8
0
  0
POLYLINE
  8
51
 66
1
 10
0.0000
 20
0.0000
 30
0.0000
 40
0.0762
 41
0.0762
 70
0
  0
VERTEX
  8
51
 10
-0.0381
 20
0.0000
 30
0.0000
 42
1.0000
  0
VERTEX
  8
51
 10
0.0381
 20
0.0000
 30
0.0000
  0
SEQEND
  8
0
  0
POLYLINE
  8
51
 66
1
 10
0.0000
 20
0.0000
 30
0.0000
 40
0.0762
 41
0.0762
 70
0
  0
VERTEX
  8
51
 10
0.0381
 20
711.2000
 30
0.0000
 42
1.0000
  0
VERTEX
  8
51
 10
-0.0381
 20
711.2000
 30
0.0000
  0
SEQEND
  8
0
  0
POLYLINE
  8
51
 66
1
 10
0.0000
 20
0.0000
 30
0.0000
 40
0.1524
 41
0.1524
 70
0
  0
VERTEX
  8
51
 10
431.8000
 20
711.2000
 30
0.0000
  0
VERTEX
  8
51
 10
0.0000
 20
711.2000
 30
0.0000
  0
SEQEND
  8
0
  0
POLYLINE
  8
51
 66
1
 10
0.0000
 20
0.0000
 30
0.0000
 40
0.0762
 41
0.0762
 70
0
  0
VERTEX
  8
51
 10
0.0000
 20
711.2381
 30
0.0000
 42
1.0000
  0
VERTEX
  8
51
 10
0.0000
 20
711.1619
 30
0.0000
  0
SEQEND
  8
0
  0
POLYLINE
  8
51
 66
1
 10
0.0000
 20
0.0000
 30
0.0000
 40
0.0762
 41
0.0762
 70
0
  0
VERTEX
  8
51
 10
431.8000
 20
711.1619
 30
0.0000
 42
1.0000
  0
VERTEX
  8
51
 10
431.8000
 20
711.2381
 30
0.0000
  0
SEQEND
  8
0
  0
POLYLINE
  8
51
 66
1
 10
0.0000
 20
0.0000
 30
0.0000
 40
0.1524
 41
0.1524
 70
0
  0
VERTEX
  8
51
 10
431.8000
 20
0.0000
 30
0.0000
  0
VERTEX
  8
51
 10
431.8000
 20
711.2000
 30
0.0000
  0
SEQEND
  8
0
  0
POLYLINE
  8
51
 66
1
 10
0.0000
 20
0.0000
 30
0.0000
 40
0.0762
 41
0.0762
 70
0
  0
VERTEX
  8
51
 10
431.8381
 20
711.2000
 30
0.0000
 42
1.0000
  0
VERTEX
  8
51
 10
431.7619
 20
711.2000
 30
0.0000
  0
SEQEND
  8
0
  0
POLYLINE
  8
51
 66
1
 10
0.0000
 20
0.0000
 30
0.0000
 40
0.0762
 41
0.0762
 70
0
  0
VERTEX
  8
51
 10
431.7619
 20
0.0000
 30
0.0000
 42
1.0000
  0
VERTEX
  8
51
 10
431.8381
 20
0.0000
 30
0.0000
  0
SEQEND
  8
0
  0
LINE
  8
20
 10
86.2400
 20
201.7000
 30
0.0000
 11
86.2400
 21
206.7000
 31
0.0000
  0
LINE
  8
20
 10
86.2400
 20
206.7000
 30
0.0000
 11
86.2400
 21
243.7000
 31
0.0000
  0
ARC
  8
20
 10
85.2400
 20
243.7000
 30
0.0000
 40
1.0000
 50
0.0000
 51
90.0000
  0
ARC
  8
20
 10
16.2400
 20
243.7000
 30
0.0000
 40
1.0000
 50
90.0000
 51
180.0000
  0
LINE
  8
20
 10
15.2400
 20
243.7000
 30
0.0000
 11
15.2400
 21
206.7000
 31
0.0000
  0
LINE
  8
20
 10
15.2400
 20
206.7000
 30
0.0000
 11
15.2400
 21
201.7000
 31
0.0000
  0
ARC
  8
20
 10
16.2400
 20
201.7000
 30
0.0000
 40
1.0000
 50
180.0000
 51
270.0000
  0
LINE
  8
20
 10
16.2400
 20
200.7000
 30
0.0000
 11
85.2400
 21
200.7000
 31
0.0000
  0
ARC
  8
20
 10
85.2400
 20
201.7000
 30
0.0000
 40
1.0000
 50
270.0000
 51
0.0000
  0
LINE
  8
20
 10
39.5790
 20
215.4975
 30
0.0000
 11
50.7800
 21
211.4207
 31
0.0000
  0
ARC
  8
20
 10
50.9510
 20
211.8906
 30
0.0000
 40
0.5000
 50
249.9998
 51
339.9999
  0
LINE
  8
20
 10
51.4208
 20
211.7196
 30
0.0000
 11
55.8671
 21
223.9356
 31
0.0000
  0
ARC
  8
20
 10
55.3972
 20
224.1066
 30
0.0000
 40
0.5000
 50
340.0003
 51
70.0001
  0
LINE
  8
20
 10
55.5682
 20
224.5764
 30
0.0000
 11
45.3412
 21
228.2988
 31
0.0000
  0
LINE
  8
20
 10
33.1532
 20
235.7459
 30
0.0000
 11
21.9522
 21
239.8227
 31
0.0000
  0
ARC
  8
20
 10
21.7812
 20
239.3528
 30
0.0000
 40
0.5000
 50
69.9998
 51
159.9999
  0
LINE
  8
20
 10
21.3114
 20
239.5238
 30
0.0000
 11
16.8651
 21
227.3078
 31
0.0000
  0
ARC
  8
20
 10
17.3350
 20
227.1368
 30
0.0000
 40
0.5000
 50
160.0003
 51
250.0001
  0
LINE
  8
20
 10
17.1640
 20
226.6670
 30
0.0000
 11
26.9212
 21
223.1157
 31
0.0000
  0
ARC
  8
20
 10
26.7502
 20
222.6458
 30
0.0000
 40
0.5000
 50
340.0003
 51
70.0001
  0
LINE
  8
20
 10
27.2200
 20
222.4748
 30
0.0000
 11
23.6651
 21
212.7078
 31
0.0000
  0
ARC
  8
20
 10
24.1350
 20
212.5368
 30
0.0000
 40
0.5000
 50
160.0003
 51
250.0001
  0
LINE
  8
20
 10
23.9640
 20
212.0670
 30
0.0000
 11
36.1800
 21
207.6207
 31
0.0000
  0
ARC
  8
20
 10
36.3510
 20
208.0906
 30
0.0000
 40
0.5000
 50
249.9998
 51
339.9999
  0
LINE
  8
20
 10
36.8208
 20
207.9196
 30
0.0000
 11
39.5790
 21
215.4975
 31
0.0000
  0
LINE
  8
20
 10
49.2381
 20
239.0054
 30
0.0000
 11
36.5522
 21
243.6227
 31
0.0000
  0
ARC
  8
20
 10
36.3812
 20
243.1528
 30
0.0000
 40
0.5000
 50
69.9998
 51
159.9999
  0
LINE
  8
20
 10
35.9114
 20
243.3238
 30
0.0000
 11
33.1532
 21
235.7459
 31
0.0000
  0
LINE
  8
20
 10
45.3412
 20
228.2988
 30
0.0000
 11
49.2381
 21
239.0054
 31
0.0000
  0
POLYLINE
  8
20
 66
1
 10
0.0000
 20
0.0000
 30
0.0000
 40
0.0100
 41
0.0100
 70
0
  0
VERTEX
  8
20
 10
70.8864
 20
215.5536
 30
0.0000
  0
VERTEX
  8
20
 10
59.0936
 20
227.3464
 30
0.0000
  0
SEQEND
  8
0
  0
POLYLINE
  8
20
 66
1
 10
0.0000
 20
0.0000
 30
0.0000
 40
0.0050
 41
0.0050
 70
0
  0
VERTEX
  8
20
 10
59.0953
 20
227.3482
 30
0.0000
 42
1.0000
  0
VERTEX
  8
20
 10
59.0918
 20
227.3447
 30
0.0000
  0
SEQEND
  8
0
  0
POLYLINE
  8
20
 66
1
 10
0.0000
 20
0.0000
 30
0.0000
 40
0.0050
 41
0.0050
 70
0
  0
VERTEX
  8
20
 10
70.8847
 20
215.5518
 30
0.0000
 42
1.0000
  0
VERTEX
  8
20
 10
70.8882
 20
215.5553
 30
0.0000
  0
SEQEND
  8
0
  0
POLYLINE
  8
20
 66
1
 10
0.0000
 20
0.0000
 30
0.0000
 40
0.0100
 41
0.0100
 70
0
  0
VERTEX
  8
20
 10
59.0936
 20
228.0536
 30
0.0000
 42
0.4142
  0
VERTEX
  8
20
 10
59.0936
 20
227.3464
 30
0.0000
  0
SEQEND
  8
0
  0
POLYLINE
  8
20
 66
1
 10
0.0000
 20
0.0000
 30
0.0000
 40
0.0050
 41
0.0050
 70
0
  0
VERTEX
  8
20
 10
59.0953
 20
228.0518
 30
0.0000
 42
1.0000
  0
VERTEX
  8
20
 10
59.0918
 20
228.0553
 30
0.0000
  0
SEQEND
  8
0
  0
POLYLINE
  8
20
 66
1
 10
0.0000
 20
0.0000
 30
0.0000
 40
0.0050
 41
0.0050
 70
0
  0
VERTEX
  8
20
 10
59.0918
 20
227.3447
 30
0.0000
 42
1.0000
  0
VERTEX
  8
20
 10
59.0953
 20
227.3482
 30
0.0000
  0
SEQEND
  8
0
  0
POLYLINE
  8
20
 66
1
 10
0.0000
 20
0.0000
 30
0.0000
 40
0.0100
 41
0.0100
 70
0
  0
VERTEX
  8
20
 10
59.0936
 20
228.0536
 30
0.0000
  0
VERTEX
  8
20
 10
70.8864
 20
239.8464
 30
0.0000
  0
SEQEND
  8
0
  0
POLYLINE
  8
20
 66
1
 10
0.0000
 20
0.0000
 30
0.0000
 40
0.0050
 41
0.0050
 70
0
  0
VERTEX
  8
20
 10
70.8882
 20
239.8447
 30
0.0000
 42
1.0000
  0
VERTEX
  8
20
 10
70.8847
 20
239.8482
 30
0.0000
  0
SEQEND
  8
0
  0
POLYLINE
  8
20
 66
1
 10
0.0000
 20
0.0000
 30
0.0000
 40
0.0050
 41
0.0050
 70
0
  0
VERTEX
  8
20
 10
59.0918
 20
228.0553
 30
0.0000
 42
1.0000
  0
VERTEX
  8
20
 10
59.0953
 20
228.0518
 30
0.0000
  0
SEQEND
  8
0
  0
POLYLINE
  8
20
 66
1
 10
0.0000
 20
0.0000
 30
0.0000
 40
0.0100
 41
0.0100
 70
0
  0
VERTEX
  8
20
 10
71.5936
 20
239.8464
 30
0.0000
 42
0.4142
  0
VERTEX
  8
20
 10
70.8864
 20
239.8464
 30
0.0000
  0
SEQEND
  8
0
  0
POLYLINE
  8
20
 66
1
 10
0.0000
 20
0.0000
 30
0.0000
 40
0.0050
 41
0.0050
 70
0
  0
VERTEX
  8
20
 10
71.5918
 20
239.8447
 30
0.0000
 42
1.0000
  0
VERTEX
  8
20
 10
71.5953
 20
239.8482
 30
0.0000
  0
SEQEND
  8
0
  0
POLYLINE
  8
20
 66
1
 10
0.0000
 20
0.0000
 30
0.0000
 40
0.0050
 41
0.0050
 70
0
  0
VERTEX
  8
20
 10
70.8847
 20
239.8482
 30
0.0000
 42
1.0000
  0
VERTEX
  8
20
 10
70.8882
 20
239.8447
 30
0.0000
  0
SEQEND
  8
0
  0
POLYLINE
  8
20
 66
1
 10
0.0000
 20
0.0000
 30
0.0000
 40
0.0100
 41
0.0100
 70
0
  0
VERTEX
  8
20
 10
71.5936
 20
239.8464
 30
0.0000
  0
VERTEX
  8
20
 10
83.3864
 20
228.0536
 30
0.0000
  0
SEQEND
  8
0
  0
POLYLINE
  8
20
 66
1
 10
0.0000
 20
0.0000
 30
0.0000
 40
0.0050
 41
0.0050
 70
0
  0
VERTEX
  8
20
 10
83.3847
 20
228.0518
 30
0.0000
 42
1.0000
  0
VERTEX
  8
20
 10
83.3882
 20
228.0553
 30
0.0000
  0
SEQEND
  8
0
  0
POLYLINE
  8
20
 66
1
 10
0.0000
 20
0.0000
 30
0.0000
 40
0.0050
 41
0.0050
 70
0
  0
VERTEX
  8
20
 10
71.5953
 20
239.8482
 30
0.0000
 42
1.0000
  0
VERTEX
  8
20
 10
71.5918
 20
239.8447
 30
0.0000
  0
SEQEND
  8
0
  0
POLYLINE
  8
20
 66
1
 10
0.0000
 20
0.0000
 30
0.0000
 40
0.0100
 41
0.0100
 70
0
  0
VERTEX
  8
20
 10
83.3864
 20
227.3464
 30
0.0000
 42
0.4142
  0
VERTEX
  8
20
 10
83.3864
 20
228.0536
 30
0.0000
  0
SEQEND
  8
0
  0
POLYLINE
  8
20
 66
1
 10
0.0000
 20
0.0000
 30
0.0000
 40
0.0050
 41
0.0050
 70
0
  0
VERTEX
  8
20
 10
83.3847
 20
227.3482
 30
0.0000
 42
1.0000
  0
VERTEX
  8
20
 10
83.3882
 20
227.3447
 30
0.0000
  0
SEQEND
  8
0
  0
POLYLINE
  8
20
 66
1
 10
0.0000
 20
0.0000
 30
0.0000
 40
0.0050
 41
0.0050
 70
0
  0
VERTEX
  8
20
 10
83.3882
 20
228.0553
 30
0.0000
 42
1.0000
  0
VERTEX
  8
20
 10
83.3847
 20
228.0518
 30
0.0000
  0
SEQEND
  8
0
  0
POLYLINE
  8
20
 66
1
 10
0.0000
 20
0.0000
 30
0.0000
 40
0.0100
 41
0.0100
 70
0
  0
VERTEX
  8
20
 10
83.3864
 20
227.3464
 30
0.0000
  0
VERTEX
  8
20
 10
71.5936
 20
215.5536
 30
0.0000
  0
SEQEND
  8
0
  0
POLYLINE
  8
20
 66
1
 10
0.0000
 20
0.0000
 30
0.0000
 40
0.0050
 41
0.0050
 70
0
  0
VERTEX
  8
20
 10
71.5918
 20
215.5553
 30
0.0000
 42
1.0000
  0
VERTEX
  8
20
 10
71.5953
 20
215.5518
 30
0.0000
  0
SEQEND
  8
0
  0
POLYLINE
  8
20
 66
1
 10
0.0000
 20
0.0000
 30
0.0000
 40
0.0050
 41
0.0050
 70
0
  0
VERTEX
  8
20
 10
83.3882
 20
227.3447
 30
0.0000
 42
1.0000
  0
VERTEX
  8
20
 10
83.3847
 20
227.3482
 30
0.0000
  0
SEQEND
  8
0
  0
POLYLINE
  8
20
 66
1
 10
0.0000
 20
0.0000
 30
0.0000
 40
0.0100
 41
0.0100
 70
0
  0
VERTEX
  8
20
 10
70.8864
 20
215.5536
 30
0.0000
 42
0.4142
  0
VERTEX
  8
20
 10
71.5936
 20
215.5536
 30
0.0000
  0
SEQEND
  8
0
  0
POLYLINE
  8
20
 66
1
 10
0.0000
 20
0.0000
 30
0.0000
 40
0.0050
 41
0.0050
 70
0
  0
VERTEX
  8
20
 10
70.8882
 20
215.5553
 30
0.0000
 42
1.0000
  0
VERTEX
  8
20
 10
70.8847
 20
215.5518
 30
0.0000
  0
SEQEND
  8
0
  0
POLYLINE
  8
20
 66
1
 10
0.0000
 20
0.0000
 30
0.0000
 40
0.0050
 41
0.0050
 70
0
  0
VERTEX
  8
20
 10
71.5953
 20
215.5518
 30
0.0000
 42
1.0000
  0
VERTEX
  8
20
 10
71.5918
 20
215.5553
 30
0.0000
  0
SEQEND
  8
0
  0
POLYLINE
  8
20
 66
1
 10
0.0000
 20
0.0000
 30
0.0000
 40
0.0100
 41
0.0100
 70
0
  0
VERTEX
  8
20
 10
80.2400
 20
209.2000
 30
0.0000
  0
VERTEX
  8
20
 10
80.2400
 20
213.2000
 30
0.0000
  0
SEQEND
  8
0
  0
POLYLINE
  8
20
 66
1
 10
0.0000
 20
0.0000
 30
0.0000
 40
0.0050
 41
0.0050
 70
0
  0
VERTEX
  8
20
 10
80.2425
 20
213.2000
 30
0.0000
 42
1.0000
  0
VERTEX
  8
20
 10
80.2375
 20
213.2000
 30
0.0000
  0
SEQEND
  8
0
  0
POLYLINE
  8
20
 66
1
 10
0.0000
 20
0.0000
 30
0.0000
 40
0.0050
 41
0.0050
 70
0
  0
VERTEX
  8
20
 10
80.2375
 20
209.2000
 30
0.0000
 42
1.0000
  0
VERTEX
  8
20
 10
80.2425
 20
209.2000
 30
0.0000
  0
SEQEND
  8
0
  0
POLYLINE
  8
20
 66
1
 10
0.0000
 20
0.0000
 30
0.0000
 40
0.0100
 41
0.0100
 70
0
  0
VERTEX
  8
20
 10
80.2400
 20
213.2000
 30
0.0000
 42
0.4142
  0
VERTEX
  8
20
 10
79.7400
 20
213.7000
 30
0.0000
  0
SEQEND
  8
0
  0
POLYLINE
  8
20
 66
1
 10
0.0000
 20
0.0000
 30
0.0000
 40
0.0050
 41
0.0050
 70
0
  0
VERTEX
  8
20
 10
80.2375
 20
213.2000
 30
0.0000
 42
1.0000
  0
VERTEX
  8
20
 10
80.2425
 20
213.2000
 30
0.0000
  0
SEQEND
  8
0
  0
POLYLINE
  8
20
 66
1
 10
0.0000
 20
0.0000
 30
0.0000
 40
0.0050
 41
0.0050
 70
0
  0
VERTEX
  8
20
 10
79.7400
 20
213.7025
 30
0.0000
 42
1.0000
  0
VERTEX
  8
20
 10
79.7400
 20
213.6975
 30
0.0000
  0
SEQEND
  8
0
  0
POLYLINE
  8
20
 66
1
 10
0.0000
 20
0.0000
 30
0.0000
 40
0.0100
 41
0.0100
 70
0
  0
VERTEX
  8
20
 10
79.7400
 20
208.7000
 30
0.0000
  0
VERTEX
  8
20
 10
62.7400
 20
208.7000
 30
0.0000
  0
SEQEND
  8
0
  0
POLYLINE
  8
20
 66
1
 10
0.0000
 20
0.0000
 30
0.0000
 40
0.0050
 41
0.0050
 70
0
  0
VERTEX
  8
20
 10
62.7400
 20
208.7025
 30
0.0000
 42
1.0000
  0
VERTEX
  8
20
 10
62.7400
 20
208.6975
 30
0.0000
  0
SEQEND
  8
0
  0
POLYLINE
  8
20
 66
1
 10
0.0000
 20
0.0000
 30
0.0000
 40
0.0050
 41
0.0050
 70
0
  0
VERTEX
  8
20
 10
79.7400
 20
208.6975
 30
0.0000
 42
1.0000
  0
VERTEX
  8
20
 10
79.7400
 20
208.7025
 30
0.0000
  0
SEQEND
  8
0
  0
POLYLINE
  8
20
 66
1
 10
0.0000
 20
0.0000
 30
0.0000
 40
0.0100
 41
0.0100
 70
0
  0
VERTEX
  8
20
 10
62.2400
 20
209.2000
 30
0.0000
 42
0.4142
  0
VERTEX
  8
20
 10
62.7400
 20
208.7000
 30
0.0000
  0
SEQEND
  8
0
  0
POLYLINE
  8
20
 66
1
 10
0.0000
 20
0.0000
 30
0.0000
 40
0.0050
 41
0.0050
 70
0
  0
VERTEX
  8
20
 10
62.2425
 20
209.2000
 30
0.0000
 42
1.0000
  0
VERTEX
  8
20
 10
62.2375
 20
209.2000
 30
0.0000
  0
SEQEND
  8
0
  0
POLYLINE
  8
20
 66
1
 10
0.0000
 20
0.0000
 30
0.0000
 40
0.0050
 41
0.0050
 70
0
  0
VERTEX
  8
20
 10
62.7400
 20
208.6975
 30
0.0000
 42
1.0000
  0
VERTEX
  8
20
 10
62.7400
 20
208.7025
 30
0.0000
  0
SEQEND
  8
0
  0
POLYLINE
  8
20
 66
1
 10
0.0000
 20
0.0000
 30
0.0000
 40
0.0100
 41
0.0100
 70
0
  0
VERTEX
  8
20
 10
62.2400
 20
209.2000
 30
0.0000
  0
VERTEX
  8
20
 10
62.2400
 20
213.2000
 30
0.0000
  0
SEQEND
  8
0
  0
POLYLINE
  8
20
 66
1
 10
0.0000
 20
0.0000
 30
0.0000
 40
0.0050
 41
0.0050
 70
0
  0
VERTEX
  8
20
 10
62.2425
 20
213.2000
 30
0.0000
 42
1.0000
  0
VERTEX
  8
20
 10
62.2375
 20
213.2000
 30
0.0000
  0
SEQEND
  8
0
  0
POLYLINE
  8
20
 66
1
 10
0.0000
 20
0.0000
 30
0.0000
 40
0.0050
 41
0.0050
 70
0
  0
VERTEX
  8
20
 10
62.2375
 20
209.2000
 30
0.0000
 42
1.0000
  0
VERTEX
  8
20
 10
62.2425
 20
209.2000
 30
0.0000
  0
SEQEND
  8
0
  0
POLYLINE
  8
20
 66
1
 10
0.0000
 20
0.0000
 30
0.0000
 40
0.0100
 41
0.0100
 70
0
  0
VERTEX
  8
20
 10
62.7400
 20
213.7000
 30
0.0000
 42
0.4142
  0
VERTEX
  8
20
 10
62.2400
 20
213.2000
 30
0.0000
  0
SEQEND
  8
0
  0
POLYLINE
  8
20
 66
1
 10
0.0000
 20
0.0000
 30
0.0000
 40
0.0050
 41
0.0050
 70
0
  0
VERTEX
  8
20
 10
62.7400
 20
213.6975
 30
0.0000
 42
1.0000
  0
VERTEX
  8
20
 10
62.7400
 20
213.7025
 30
0.0000
  0
SEQEND
  8
0
  0
POLYLINE
  8
20
 66
1
 10
0.0000
 20
0.0000
 30
0.0000
 40
0.0050
 41
0.0050
 70
0
  0
VERTEX
  8
20
 10
62.2375
 20
213.2000
 30
0.0000
 42
1.0000
  0
VERTEX
  8
20
 10
62.2425
 20
213.2000
 30
0.0000
  0
SEQEND
  8
0
  0
POLYLINE
  8
20
 66
1
 10
0.0000
 20
0.0000
 30
0.0000
 40
0.0100
 41
0.0100
 70
0
  0
VERTEX
  8
20
 10
62.7400
 20
213.7000
 30
0.0000
  0
VERTEX
  8
20
 10
79.7400
 20
213.7000
 30
0.0000
  0
SEQEND
  8
0
  0
POLYLINE
  8
20
 66
1
 10
0.0000
 20
0.0000
 30
0.0000
 40
0.0050
 41
0.0050
 70
0
  0
VERTEX
  8
20
 10
79.7400
 20
213.6975
 30
0.0000
 42
1.0000
  0
VERTEX
  8
20
 10
79.7400
 20
213.7025
 30
0.0000
  0
SEQEND
  8
0
  0
POLYLINE
  8
20
 66
1
 10
0.0000
 20
0.0000
 30
0.0000
 40
0.0050
 41
0.0050
 70
0
  0
VERTEX
  8
20
 10
62.7400
 20
213.7025
 30
0.0000
 42
1.0000
  0
VERTEX
  8
20
 10
62.7400
 20
213.6975
 30
0.0000
  0
SEQEND
  8
0
  0
POLYLINE
  8
20
 66
1
 10
0.0000
 20
0.0000
 30
0.0000
 40
0.0100
 41
0.0100
 70
0
  0
VERTEX
  8
20
 10
79.7400
 20
208.7000
 30
0.0000
 42
0.4142
  0
VERTEX
  8
20
 10
80.2400
 20
209.2000
 30
0.0000
  0
SEQEND
  8
0
  0
POLYLINE
  8
20
 66
1
 10
0.0000
 20
0.0000
 30
0.0000
 40
0.0050
 41
0.0050
 70
0
  0
VERTEX
  8
20
 10
79.7400
 20
208.7025
 30
0.0000
 42
1.0000
  0
VERTEX
  8
20
 10
79.7400
 20
208.6975
 30
0.0000
  0
SEQEND
  8
0
  0
POLYLINE
  8
20
 66
1
 10
0.0000
 20
0.0000
 30
0.0000
 40
0.0050
 41
0.0050
 70
0
  0
VERTEX
  8
20
 10
80.2425
 20
209.2000
 30
0.0000
 42
1.0000
  0
VERTEX
  8
20
 10
80.2375
 20
209.2000
 30
0.0000
  0
SEQEND
  8
0
  0
POLYLINE
  8
20
 66
1
 10
0.0000
 20
0.0000
 30
0.0000
 40
0.0100
 41
0.0100
 70
0
  0
VERTEX
  8
20
 10
15.2400
 20
206.7000
 30
0.0000
  0
VERTEX
  8
20
 10
86.2400
 20
206.7000
 30
0.0000
  0
SEQEND
  8
0
  0
POLYLINE
  8
20
 66
1
 10
0.0000
 20
0.0000
 30
0.0000
 40
0.0050
 41
0.0050
 70
0
  0
VERTEX
  8
20
 10
86.2400
 20
206.6975
 30
0.0000
 42
1.0000
  0
VERTEX
  8
20
 10
86.2400
 20
206.7025
 30
0.0000
  0
SEQEND
  8
0
  0
POLYLINE
  8
20
 66
1
 10
0.0000
 20
0.0000
 30
0.0000
 40
0.0050
 41
0.0050
 70
0
  0
VERTEX
  8
20
 10
15.2400
 20
206.7025
 30
0.0000
 42
1.0000
  0
VERTEX
  8
20
 10
15.2400
 20
206.6975
 30
0.0000
  0
SEQEND
  8
0
  0
LINE
  8
20
 10
16.2400
 20
244.7000
 30
0.0000
 11
85.2400
 21
244.7000
 31
0.0000
  0
LINE
  8
20
 10
-28.5600
 20
11.7400
 30
0.0000
 11
-28.5600
 21
10.4500
 31
0.0000
  0
LINE
  8
20
 10
-28.4100
 20
10.4500
 30
0.0000
 11
-27.4100
 21
10.4500
 31
0.0000
  0
LINE
  8
20
 10
-27.4100
 20
12.0100
 30
0.0000
 11
-28.2500
 21
11.7400
 31
0.0000
  0
LINE
  8
20
 10
-27.4100
 20
11.0000
 30
0.0000
 11
-27.4100
 21
10.4500
 31
0.0000
  0
LINE
  8
20
 10
-27.4100
 20
10.4500
 30
0.0000
 11
-26.4100
 21
10.4500
 31
0.0000
  0
LINE
  8
20
 10
-26.2600
 20
10.4500
 30
0.0000
 11
-26.2600
 21
13.8100
 31
0.0000
  0
LINE
  8
20
 10
-27.6800
 20
13.8100
 30
0.0000
 11
-27.4100
 21
12.8100
 31
0.0000
  0
LINE
  8
20
 10
-28.5600
 20
10.4500
 30
0.0000
 11
-28.5600
 21
9.1600
 31
0.0000
  0
LINE
  8
20
 10
-28.5600
 20
9.1600
 30
0.0000
 11
-27.4100
 21
9.1600
 31
0.0000
  0
LINE
  8
20
 10
-27.4100
 20
9.4500
 30
0.0000
 11
-28.4100
 21
10.4500
 31
0.0000
  0
LINE
  8
20
 10
-28.4100
 20
10.4500
 30
0.0000
 11
-28.5600
 21
10.4500
 31
0.0000
  0
LINE
  8
20
 10
-27.4100
 20
9.4500
 30
0.0000
 11
-27.4100
 21
9.1600
 31
0.0000
  0
LINE
  8
20
 10
-27.4100
 20
9.1600
 30
0.0000
 11
-26.2600
 21
9.1600
 31
0.0000
  0
LINE
  8
20
 10
-26.2600
 20
9.1600
 30
0.0000
 11
-26.2600
 21
10.4500
 31
0.0000
  0
LINE
  8
20
 10
-26.2600
 20
10.4500
 30
0.0000
 11
-26.4100
 21
10.4500
 31
0.0000
  0
LINE
  8
20
 10
-26.4100
 20
10.4500
 30
0.0000
 11
-27.4100
 21
9.4500
 31
0.0000
  0
LINE
  8
20
 10
-26.2600
 20
13.8100
 30
0.0000
 11
-26.2600
 21
15.1000
 31
0.0000
  0
LINE
  8
20
 10
-27.4100
 20
11.0000
 30
0.0000
 11
-27.4100
 21
12.0100
 31
0.0000
  0
LINE
  8
20
 10
-27.4100
 20
12.0100
 30
0.0000
 11
-27.4100
 21
12.8100
 31
0.0000
  0
LINE
  8
20
 10
-27.6800
 20
13.8100
 30
0.0000
 11
-27.4100
 21
13.8100
 31
0.0000
  0
LINE
  8
20
 10
-27.4100
 20
13.8100
 30
0.0000
 11
-26.2600
 21
13.8100
 31
0.0000
  0
LINE
  8
20
 10
-27.4100
 20
12.8100
 30
0.0000
 11
-27.4100
 21
13.8100
 31
0.0000
  0
LINE
  8
20
 10
-27.4100
 20
13.8100
 30
0.0000
 11
-27.4100
 21
15.1000
 31
0.0000
  0
LINE
  8
20
 10
-28.5600
 20
15.1000
 30
0.0000
 11
-28.5600
 21
11.7400
 31
0.0000
  0
LINE
  8
20
 10
-28.5600
 20
11.7400
 30
0.0000
 11
-28.2500
 21
11.7400
 31
0.0000
  0
LINE
  8
20
 10
-28.2500
 20
11.7400
 30
0.0000
 11
-27.4100
 21
11.0000
 31
0.0000
  0
LINE
  8
20
 10
-27.4100
 20
16.3900
 30
0.0000
 11
-26.2600
 21
16.3900
 31
0.0000
  0
LINE
  8
20
 10
-26.2600
 20
16.3900
 30
0.0000
 11
-26.2600
 21
15.1000
 31
0.0000
  0
LINE
  8
20
 10
-27.4100
 20
15.1000
 30
0.0000
 11
-26.2600
 21
15.1000
 31
0.0000
  0
LINE
  8
20
 10
-27.4100
 20
15.1000
 30
0.0000
 11
-27.4100
 21
16.3900
 31
0.0000
  0
LINE
  8
20
 10
-28.5600
 20
15.1000
 30
0.0000
 11
-28.5600
 21
16.3900
 31
0.0000
  0
LINE
  8
20
 10
-28.5600
 20
16.3900
 30
0.0000
 11
-27.4100
 21
16.3900
 31
0.0000
  0
LINE
  8
20
 10
-28.5600
 20
15.1000
 30
0.0000
 11
-27.4100
 21
15.1000
 31
0.0000
  0
LINE
  8
20
 10
30.6638
 20
28.8569
 30
0.0000
 11
36.1579
 21
17.0749
 31
0.0000
  0
ARC
  8
20
 10
37.0642
 20
17.4975
 30
0.0000
 40
1.0000
 50
205.0001
 51
295.0001
  0
LINE
  8
20
 10
37.4868
 20
16.5912
 30
0.0000
 11
49.2688
 21
22.0852
 31
0.0000
  0
ARC
  8
20
 10
48.8462
 20
22.9916
 30
0.0000
 40
1.0000
 50
294.9999
 51
24.9999
  0
LINE
  8
20
 10
49.7525
 20
23.4142
 30
0.0000
 11
44.2584
 21
35.1962
 31
0.0000
  0
ARC
  8
20
 10
43.3521
 20
34.7736
 30
0.0000
 40
1.0000
 50
24.9999
 51
114.9999
  0
LINE
  8
20
 10
42.9295
 20
35.6799
 30
0.0000
 11
31.1475
 21
30.1858
 31
0.0000
  0
ARC
  8
20
 10
31.5701
 20
29.2795
 30
0.0000
 40
1.0000
 50
115.0001
 51
205.0001
  0
LINE
  8
20
 10
65.5858
 20
16.9975
 30
0.0000
 11
71.0799
 21
28.7795
 31
0.0000
  0
ARC
  8
20
 10
70.1736
 20
29.2021
 30
0.0000
 40
1.0000
 50
335.0001
 51
65.0001
  0
LINE
  8
20
 10
70.5962
 20
30.1084
 30
0.0000
 11
58.8142
 21
35.6025
 31
0.0000
  0
ARC
  8
20
 10
58.3916
 20
34.6962
 30
0.0000
 40
1.0000
 50
65.0001
 51
155.0001
  0
LINE
  8
20
 10
57.4852
 20
35.1188
 30
0.0000
 11
51.9912
 21
23.3368
 31
0.0000
  0
ARC
  8
20
 10
52.8975
 20
22.9142
 30
0.0000
 40
1.0000
 50
154.9999
 51
244.9999
  0
LINE
  8
20
 10
52.4749
 20
22.0079
 30
0.0000
 11
64.2569
 21
16.5138
 31
0.0000
  0
ARC
  8
20
 10
64.6795
 20
17.4201
 30
0.0000
 40
1.0000
 50
244.9999
 51
334.9999
  0
LINE
  8
20
 10
25.2005
 20
72.4145
 30
0.0000
 11
30.6946
 21
60.6325
 31
0.0000
  0
ARC
  8
20
 10
31.6009
 20
61.0551
 30
0.0000
 40
1.0000
 50
205.0001
 51
295.0001
  0
LINE
  8
20
 10
32.0235
 20
60.1488
 30
0.0000
 11
43.8055
 21
65.6429
 31
0.0000
  0
ARC
  8
20
 10
43.3829
 20
66.5492
 30
0.0000
 40
1.0000
 50
295.0000
 51
25.0000
  0
LINE
  8
20
 10
44.2892
 20
66.9718
 30
0.0000
 11
38.7952
 21
78.7538
 31
0.0000
  0
ARC
  8
20
 10
37.8889
 20
78.3312
 30
0.0000
 40
1.0000
 50
24.9999
 51
114.9999
  0
LINE
  8
20
 10
37.4662
 20
79.2375
 30
0.0000
 11
25.6842
 21
73.7435
 31
0.0000
  0
ARC
  8
20
 10
26.1068
 20
72.8371
 30
0.0000
 40
1.0000
 50
115.0001
 51
205.0001
  0
LINE
  8
20
 10
70.8258
 20
60.7450
 30
0.0000
 11
76.3198
 21
72.5270
 31
0.0000
  0
ARC
  8
20
 10
75.4135
 20
72.9496
 30
0.0000
 40
1.0000
 50
335.0000
 51
65.0000
  0
LINE
  8
20
 10
75.8361
 20
73.8559
 30
0.0000
 11
64.0541
 21
79.3500
 31
0.0000
  0
ARC
  8
20
 10
63.6315
 20
78.4437
 30
0.0000
 40
1.0000
 50
65.0000
 51
155.0000
  0
LINE
  8
20
 10
62.7252
 20
78.8663
 30
0.0000
 11
57.2312
 21
67.0843
 31
0.0000
  0
ARC
  8
20
 10
58.1375
 20
66.6617
 30
0.0000
 40
1.0000
 50
155.0000
 51
245.0000
  0
LINE
  8
20
 10
57.7148
 20
65.7553
 30
0.0000
 11
69.4968
 21
60.2613
 31
0.0000
  0
ARC
  8
20
 10
69.9195
 20
61.1676
 30
0.0000
 40
1.0000
 50
245.0000
 51
335.0000
  0
LINE
  8
20
 10
86.2400
 20
199.7000
 30
0.0000
 11
86.2400
 21
107.7000
 31
0.0000
  0
LINE
  8
20
 10
86.2400
 20
105.7000
 30
0.0000
 11
86.2400
 21
13.7000
 31
0.0000
  0
LINE
  8
20
 10
86.2400
 20
243.7000
 30
0.0000
 11
86.2400
 21
206.7000
 31
0.0000
  0
LINE
  8
20
 10
86.2400
 20
206.7000
 30
0.0000
 11
86.2400
 21
201.7000
 31
0.0000
  0
POLYLINE
  8
20
 66
1
 10
0.0000
 20
0.0000
 30
0.0000
 40
0.1524
 41
0.1524
 70
0
  0
VERTEX
  8
20
 10
-24.0823
 20
14.2851
 30
0.0000
  0
VERTEX
  8
20
 10
-23.6308
 20
14.6463
 30
0.0000
  0
SEQEND
  8
0
  0
POLYLINE
  8
20
 66
1
 10
0.0000
 20
0.0000
 30
0.0000
 40
0.0762
 41
0.0762
 70
0
  0
VERTEX
  8
20
 10
-23.6070
 20
14.6165
 30
0.0000
 42
1.0000
  0
VERTEX
  8
20
 10
-23.6546
 20
14.6761
 30
0.0000
  0
SEQEND
  8
0
  0
POLYLINE
  8
20
 66
1
 10
0.0000
 20
0.0000
 30
0.0000
 40
0.0762
 41
0.0762
 70
0
  0
VERTEX
  8
20
 10
-24.1061
 20
14.3148
 30
0.0000
 42
1.0000
  0
VERTEX
  8
20
 10
-24.0585
 20
14.2553
 30
0.0000
  0
SEQEND
  8
0
  0
POLYLINE
  8
20
 66
1
 10
0.0000
 20
0.0000
 30
0.0000
 40
0.1524
 41
0.1524
 70
0
  0
VERTEX
  8
20
 10
-23.6308
 20
14.6463
 30
0.0000
  0
VERTEX
  8
20
 10
-23.6308
 20
13.0207
 30
0.0000
  0
SEQEND
  8
0
  0
POLYLINE
  8
20
 66
1
 10
0.0000
 20
0.0000
 30
0.0000
 40
0.0762
 41
0.0762
 70
0
  0
VERTEX
  8
20
 10
-23.6689
 20
13.0207
 30
0.0000
 42
1.0000
  0
VERTEX
  8
20
 10
-23.5927
 20
13.0207
 30
0.0000
  0
SEQEND
  8
0
  0
POLYLINE
  8
20
 66
1
 10
0.0000
 20
0.0000
 30
0.0000
 40
0.0762
 41
0.0762
 70
0
  0
VERTEX
  8
20
 10
-23.5927
 20
14.6463
 30
0.0000
 42
1.0000
  0
VERTEX
  8
20
 10
-23.6689
 20
14.6463
 30
0.0000
  0
SEQEND
  8
0
  0
POLYLINE
  8
20
 66
1
 10
0.0000
 20
0.0000
 30
0.0000
 40
0.1524
 41
0.1524
 70
0
  0
VERTEX
  8
20
 10
-24.0823
 20
13.0207
 30
0.0000
  0
VERTEX
  8
20
 10
-23.1792
 20
13.0207
 30
0.0000
  0
SEQEND
  8
0
  0
POLYLINE
  8
20
 66
1
 10
0.0000
 20
0.0000
 30
0.0000
 40
0.0762
 41
0.0762
 70
0
  0
VERTEX
  8
20
 10
-23.1792
 20
12.9826
 30
0.0000
 42
1.0000
  0
VERTEX
  8
20
 10
-23.1792
 20
13.0588
 30
0.0000
  0
SEQEND
  8
0
  0
POLYLINE
  8
20
 66
1
 10
0.0000
 20
0.0000
 30
0.0000
 40
0.0762
 41
0.0762
 70
0
  0
VERTEX
  8
20
 10
-24.0823
 20
13.0588
 30
0.0000
 42
1.0000
  0
VERTEX
  8
20
 10
-24.0823
 20
12.9826
 30
0.0000
  0
SEQEND
  8
0
  0
POLYLINE
  8
20
 66
1
 10
0.0000
 20
0.0000
 30
0.0000
 40
0.1524
 41
0.1524
 70
0
  0
VERTEX
  8
20
 10
-22.6061
 20
14.6463
 30
0.0000
  0
VERTEX
  8
20
 10
-22.6061
 20
15.0075
 30
0.0000
  0
SEQEND
  8
0
  0
POLYLINE
  8
20
 66
1
 10
0.0000
 20
0.0000
 30
0.0000
 40
0.0762
 41
0.0762
 70
0
  0
VERTEX
  8
20
 10
-22.5680
 20
15.0075
 30
0.0000
 42
1.0000
  0
VERTEX
  8
20
 10
-22.6442
 20
15.0075
 30
0.0000
  0
SEQEND
  8
0
  0
POLYLINE
  8
20
 66
1
 10
0.0000
 20
0.0000
 30
0.0000
 40
0.0762
 41
0.0762
 70
0
  0
VERTEX
  8
20
 10
-22.6442
 20
14.6463
 30
0.0000
 42
1.0000
  0
VERTEX
  8
20
 10
-22.5680
 20
14.6463
 30
0.0000
  0
SEQEND
  8
0
  0
POLYLINE
  8
20
 66
1
 10
0.0000
 20
0.0000
 30
0.0000
 40
0.1524
 41
0.1524
 70
0
  0
VERTEX
  8
20
 10
-22.1545
 20
14.6463
 30
0.0000
  0
VERTEX
  8
20
 10
-22.1545
 20
15.0075
 30
0.0000
  0
SEQEND
  8
0
  0
POLYLINE
  8
20
 66
1
 10
0.0000
 20
0.0000
 30
0.0000
 40
0.0762
 41
0.0762
 70
0
  0
VERTEX
  8
20
 10
-22.1164
 20
15.0075
 30
0.0000
 42
1.0000
  0
VERTEX
  8
20
 10
-22.1926
 20
15.0075
 30
0.0000
  0
SEQEND
  8
0
  0
POLYLINE
  8
20
 66
1
 10
0.0000
 20
0.0000
 30
0.0000
 40
0.0762
 41
0.0762
 70
0
  0
VERTEX
  8
20
 10
-22.1926
 20
14.6463
 30
0.0000
 42
1.0000
  0
VERTEX
  8
20
 10
-22.1164
 20
14.6463
 30
0.0000
  0
SEQEND
  8
0
  0
POLYLINE
  8
20
 66
1
 10
0.0000
 20
0.0000
 30
0.0000
 40
0.1524
 41
0.1524
 70
0
  0
VERTEX
  8
20
 10
-20.1746
 20
13.4723
 30
0.0000
  0
VERTEX
  8
20
 10
-20.6261
 20
13.6529
 30
0.0000
  0
SEQEND
  8
0
  0
POLYLINE
  8
20
 66
1
 10
0.0000
 20
0.0000
 30
0.0000
 40
0.0762
 41
0.0762
 70
0
  0
VERTEX
  8
20
 10
-20.6120
 20
13.6882
 30
0.0000
 42
1.0000
  0
VERTEX
  8
20
 10
-20.6403
 20
13.6175
 30
0.0000
  0
SEQEND
  8
0
  0
POLYLINE
  8
20
 66
1
 10
0.0000
 20
0.0000
 30
0.0000
 40
0.0762
 41
0.0762
 70
0
  0
VERTEX
  8
20
 10
-20.1887
 20
13.4369
 30
0.0000
 42
1.0000
  0
VERTEX
  8
20
 10
-20.1604
 20
13.5076
 30
0.0000
  0
SEQEND
  8
0
  0
POLYLINE
  8
20
 66
1
 10
0.0000
 20
0.0000
 30
0.0000
 40
0.1524
 41
0.1524
 70
0
  0
VERTEX
  8
20
 10
-20.5358
 20
14.1044
 30
0.0000
 42
0.8318
  0
VERTEX
  8
20
 10
-20.6261
 20
13.6529
 30
0.0000
  0
SEQEND
  8
0
  0
POLYLINE
  8
20
 66
1
 10
0.0000
 20
0.0000
 30
0.0000
 40
0.0762
 41
0.0762
 70
0
  0
VERTEX
  8
20
 10
-20.5363
 20
14.0663
 30
0.0000
 42
1.0000
  0
VERTEX
  8
20
 10
-20.5353
 20
14.1425
 30
0.0000
  0
SEQEND
  8
0
  0
POLYLINE
  8
20
 66
1
 10
0.0000
 20
0.0000
 30
0.0000
 40
0.0762
 41
0.0762
 70
0
  0
VERTEX
  8
20
 10
-20.6403
 20
13.6175
 30
0.0000
 42
1.0000
  0
VERTEX
  8
20
 10
-20.6120
 20
13.6883
 30
0.0000
  0
SEQEND
  8
0
  0
POLYLINE
  8
20
 66
1
 10
0.0000
 20
0.0000
 30
0.0000
 40
0.1524
 41
0.1524
 70
0
  0
VERTEX
  8
20
 10
-20.1294
 20
14.0141
 30
0.0000
 42
0.1025
  0
VERTEX
  8
20
 10
-20.5358
 20
14.1044
 30
0.0000
  0
SEQEND
  8
0
  0
POLYLINE
  8
20
 66
1
 10
0.0000
 20
0.0000
 30
0.0000
 40
0.0762
 41
0.0762
 70
0
  0
VERTEX
  8
20
 10
-20.1450
 20
13.9794
 30
0.0000
 42
1.0000
  0
VERTEX
  8
20
 10
-20.1138
 20
14.0489
 30
0.0000
  0
SEQEND
  8
0
  0
POLYLINE
  8
20
 66
1
 10
0.0000
 20
0.0000
 30
0.0000
 40
0.0762
 41
0.0762
 70
0
  0
VERTEX
  8
20
 10
-20.5353
 20
14.1425
 30
0.0000
 42
1.0000
  0
VERTEX
  8
20
 10
-20.5363
 20
14.0663
 30
0.0000
  0
SEQEND
  8
0
  0
POLYLINE
  8
20
 66
1
 10
0.0000
 20
0.0000
 30
0.0000
 40
0.1524
 41
0.1524
 70
0
  0
VERTEX
  8
20
 10
-20.2649
 20
13.0207
 30
0.0000
 42
0.8318
  0
VERTEX
  8
20
 10
-20.1746
 20
13.4723
 30
0.0000
  0
SEQEND
  8
0
  0
POLYLINE
  8
20
 66
1
 10
0.0000
 20
0.0000
 30
0.0000
 40
0.0762
 41
0.0762
 70
0
  0
VERTEX
  8
20
 10
-20.2643
 20
13.0588
 30
0.0000
 42
1.0000
  0
VERTEX
  8
20
 10
-20.2654
 20
12.9826
 30
0.0000
  0
SEQEND
  8
0
  0
POLYLINE
  8
20
 66
1
 10
0.0000
 20
0.0000
 30
0.0000
 40
0.0762
 41
0.0762
 70
0
  0
VERTEX
  8
20
 10
-20.1604
 20
13.5076
 30
0.0000
 42
1.0000
  0
VERTEX
  8
20
 10
-20.1887
 20
13.4369
 30
0.0000
  0
SEQEND
  8
0
  0
POLYLINE
  8
20
 66
1
 10
0.0000
 20
0.0000
 30
0.0000
 40
0.1524
 41
0.1524
 70
0
  0
VERTEX
  8
20
 10
-20.7616
 20
13.1110
 30
0.0000
 42
0.0830
  0
VERTEX
  8
20
 10
-20.2649
 20
13.0207
 30
0.0000
  0
SEQEND
  8
0
  0
POLYLINE
  8
20
 66
1
 10
0.0000
 20
0.0000
 30
0.0000
 40
0.0762
 41
0.0762
 70
0
  0
VERTEX
  8
20
 10
-20.7487
 20
13.1469
 30
0.0000
 42
1.0000
  0
VERTEX
  8
20
 10
-20.7745
 20
13.0752
 30
0.0000
  0
SEQEND
  8
0
  0
POLYLINE
  8
20
 66
1
 10
0.0000
 20
0.0000
 30
0.0000
 40
0.0762
 41
0.0762
 70
0
  0
VERTEX
  8
20
 10
-20.2654
 20
12.9826
 30
0.0000
 42
1.0000
  0
VERTEX
  8
20
 10
-20.2643
 20
13.0588
 30
0.0000
  0
SEQEND
  8
0
  0
POLYLINE
  8
20
 66
1
 10
0.0000
 20
0.0000
 30
0.0000
 40
0.1524
 41
0.1524
 70
0
  0
VERTEX
  8
20
 10
-18.6917
 20
12.4788
 30
0.0000
  0
VERTEX
  8
20
 10
-18.6917
 20
14.1044
 30
0.0000
  0
SEQEND
  8
0
  0
POLYLINE
  8
20
 66
1
 10
0.0000
 20
0.0000
 30
0.0000
 40
0.0762
 41
0.0762
 70
0
  0
VERTEX
  8
20
 10
-18.6536
 20
14.1044
 30
0.0000
 42
1.0000
  0
VERTEX
  8
20
 10
-18.7298
 20
14.1044
 30
0.0000
  0
SEQEND
  8
0
  0
POLYLINE
  8
20
 66
1
 10
0.0000
 20
0.0000
 30
0.0000
 40
0.0762
 41
0.0762
 70
0
  0
VERTEX
  8
20
 10
-18.7298
 20
12.4788
 30
0.0000
 42
1.0000
  0
VERTEX
  8
20
 10
-18.6536
 20
12.4788
 30
0.0000
  0
SEQEND
  8
0
  0
POLYLINE
  8
20
 66
1
 10
0.0000
 20
0.0000
 30
0.0000
 40
0.1524
 41
0.1524
 70
0
  0
VERTEX
  8
20
 10
-18.6917
 20
14.1044
 30
0.0000
  0
VERTEX
  8
20
 10
-19.1433
 20
14.1044
 30
0.0000
  0
SEQEND
  8
0
  0
POLYLINE
  8
20
 66
1
 10
0.0000
 20
0.0000
 30
0.0000
 40
0.0762
 41
0.0762
 70
0
  0
VERTEX
  8
20
 10
-19.1433
 20
14.1425
 30
0.0000
 42
1.0000
  0
VERTEX
  8
20
 10
-19.1433
 20
14.0663
 30
0.0000
  0
SEQEND
  8
0
  0
POLYLINE
  8
20
 66
1
 10
0.0000
 20
0.0000
 30
0.0000
 40
0.0762
 41
0.0762
 70
0
  0
VERTEX
  8
20
 10
-18.6917
 20
14.0663
 30
0.0000
 42
1.0000
  0
VERTEX
  8
20
 10
-18.6917
 20
14.1425
 30
0.0000
  0
SEQEND
  8
0
  0
POLYLINE
  8
20
 66
1
 10
0.0000
 20
0.0000
 30
0.0000
 40
0.1524
 41
0.1524
 70
0
  0
VERTEX
  8
20
 10
-19.1433
 20
14.1044
 30
0.0000
 42
0.4142
  0
VERTEX
  8
20
 10
-19.4142
 20
13.8335
 30
0.0000
  0
SEQEND
  8
0
  0
POLYLINE
  8
20
 66
1
 10
0.0000
 20
0.0000
 30
0.0000
 40
0.0762
 41
0.0762
 70
0
  0
VERTEX
  8
20
 10
-19.1433
 20
14.0663
 30
0.0000
 42
1.0000
  0
VERTEX
  8
20
 10
-19.1433
 20
14.1425
 30
0.0000
  0
SEQEND
  8
0
  0
POLYLINE
  8
20
 66
1
 10
0.0000
 20
0.0000
 30
0.0000
 40
0.0762
 41
0.0762
 70
0
  0
VERTEX
  8
20
 10
-19.4523
 20
13.8335
 30
0.0000
 42
1.0000
  0
VERTEX
  8
20
 10
-19.3761
 20
13.8335
 30
0.0000
  0
SEQEND
  8
0
  0
POLYLINE
  8
20
 66
1
 10
0.0000
 20
0.0000
 30
0.0000
 40
0.1524
 41
0.1524
 70
0
  0
VERTEX
  8
20
 10
-19.4142
 20
13.8335
 30
0.0000
  0
VERTEX
  8
20
 10
-19.4142
 20
13.2916
 30
0.0000
  0
SEQEND
  8
0
  0
POLYLINE
  8
20
 66
1
 10
0.0000
 20
0.0000
 30
0.0000
 40
0.0762
 41
0.0762
 70
0
  0
VERTEX
  8
20
 10
-19.4523
 20
13.2916
 30
0.0000
 42
1.0000
  0
VERTEX
  8
20
 10
-19.3761
 20
13.2916
 30
0.0000
  0
SEQEND
  8
0
  0
POLYLINE
  8
20
 66
1
 10
0.0000
 20
0.0000
 30
0.0000
 40
0.0762
 41
0.0762
 70
0
  0
VERTEX
  8
20
 10
-19.3761
 20
13.8335
 30
0.0000
 42
1.0000
  0
VERTEX
  8
20
 10
-19.4523
 20
13.8335
 30
0.0000
  0
SEQEND
  8
0
  0
POLYLINE
  8
20
 66
1
 10
0.0000
 20
0.0000
 30
0.0000
 40
0.1524
 41
0.1524
 70
0
  0
VERTEX
  8
20
 10
-19.4142
 20
13.2916
 30
0.0000
 42
0.4142
  0
VERTEX
  8
20
 10
-19.1433
 20
13.0207
 30
0.0000
  0
SEQEND
  8
0
  0
POLYLINE
  8
20
 66
1
 10
0.0000
 20
0.0000
 30
0.0000
 40
0.0762
 41
0.0762
 70
0
  0
VERTEX
  8
20
 10
-19.3761
 20
13.2916
 30
0.0000
 42
1.0000
  0
VERTEX
  8
20
 10
-19.4523
 20
13.2916
 30
0.0000
  0
SEQEND
  8
0
  0
POLYLINE
  8
20
 66
1
 10
0.0000
 20
0.0000
 30
0.0000
 40
0.0762
 41
0.0762
 70
0
  0
VERTEX
  8
20
 10
-19.1433
 20
12.9826
 30
0.0000
 42
1.0000
  0
VERTEX
  8
20
 10
-19.1433
 20
13.0588
 30
0.0000
  0
SEQEND
  8
0
  0
POLYLINE
  8
20
 66
1
 10
0.0000
 20
0.0000
 30
0.0000
 40
0.1524
 41
0.1524
 70
0
  0
VERTEX
  8
20
 10
-19.1433
 20
13.0207
 30
0.0000
  0
VERTEX
  8
20
 10
-18.6917
 20
13.0207
 30
0.0000
  0
SEQEND
  8
0
  0
POLYLINE
  8
20
 66
1
 10
0.0000
 20
0.0000
 30
0.0000
 40
0.0762
 41
0.0762
 70
0
  0
VERTEX
  8
20
 10
-18.6917
 20
12.9826
 30
0.0000
 42
1.0000
  0
VERTEX
  8
20
 10
-18.6917
 20
13.0588
 30
0.0000
  0
SEQEND
  8
0
  0
POLYLINE
  8
20
 66
1
 10
0.0000
 20
0.0000
 30
0.0000
 40
0.0762
 41
0.0762
 70
0
  0
VERTEX
  8
20
 10
-19.1433
 20
13.0588
 30
0.0000
 42
1.0000
  0
VERTEX
  8
20
 10
-19.1433
 20
12.9826
 30
0.0000
  0
SEQEND
  8
0
  0
POLYLINE
  8
20
 66
1
 10
0.0000
 20
0.0000
 30
0.0000
 40
0.1524
 41
0.1524
 70
0
  0
VERTEX
  8
20
 10
-17.9480
 20
14.1044
 30
0.0000
  0
VERTEX
  8
20
 10
-17.9480
 20
13.2916
 30
0.0000
  0
SEQEND
  8
0
  0
POLYLINE
  8
20
 66
1
 10
0.0000
 20
0.0000
 30
0.0000
 40
0.0762
 41
0.0762
 70
0
  0
VERTEX
  8
20
 10
-17.9861
 20
13.2916
 30
0.0000
 42
1.0000
  0
VERTEX
  8
20
 10
-17.9099
 20
13.2916
 30
0.0000
  0
SEQEND
  8
0
  0
POLYLINE
  8
20
 66
1
 10
0.0000
 20
0.0000
 30
0.0000
 40
0.0762
 41
0.0762
 70
0
  0
VERTEX
  8
20
 10
-17.9099
 20
14.1044
 30
0.0000
 42
1.0000
  0
VERTEX
  8
20
 10
-17.9861
 20
14.1044
 30
0.0000
  0
SEQEND
  8
0
  0
POLYLINE
  8
20
 66
1
 10
0.0000
 20
0.0000
 30
0.0000
 40
0.1524
 41
0.1524
 70
0
  0
VERTEX
  8
20
 10
-17.9480
 20
13.2916
 30
0.0000
 42
0.4142
  0
VERTEX
  8
20
 10
-17.6770
 20
13.0207
 30
0.0000
  0
SEQEND
  8
0
  0
POLYLINE
  8
20
 66
1
 10
0.0000
 20
0.0000
 30
0.0000
 40
0.0762
 41
0.0762
 70
0
  0
VERTEX
  8
20
 10
-17.9099
 20
13.2916
 30
0.0000
 42
1.0000
  0
VERTEX
  8
20
 10
-17.9861
 20
13.2916
 30
0.0000
  0
SEQEND
  8
0
  0
POLYLINE
  8
20
 66
1
 10
0.0000
 20
0.0000
 30
0.0000
 40
0.0762
 41
0.0762
 70
0
  0
VERTEX
  8
20
 10
-17.6770
 20
12.9826
 30
0.0000
 42
1.0000
  0
VERTEX
  8
20
 10
-17.6770
 20
13.0588
 30
0.0000
  0
SEQEND
  8
0
  0
POLYLINE
  8
20
 66
1
 10
0.0000
 20
0.0000
 30
0.0000
 40
0.1524
 41
0.1524
 70
0
  0
VERTEX
  8
20
 10
-17.6770
 20
13.0207
 30
0.0000
  0
VERTEX
  8
20
 10
-17.2255
 20
13.0207
 30
0.0000
  0
SEQEND
  8
0
  0
POLYLINE
  8
20
 66
1
 10
0.0000
 20
0.0000
 30
0.0000
 40
0.0762
 41
0.0762
 70
0
  0
VERTEX
  8
20
 10
-17.2255
 20
12.9826
 30
0.0000
 42
1.0000
  0
VERTEX
  8
20
 10
-17.2255
 20
13.0588
 30
0.0000
  0
SEQEND
  8
0
  0
POLYLINE
  8
20
 66
1
 10
0.0000
 20
0.0000
 30
0.0000
 40
0.0762
 41
0.0762
 70
0
  0
VERTEX
  8
20
 10
-17.6770
 20
13.0588
 30
0.0000
 42
1.0000
  0
VERTEX
  8
20
 10
-17.6770
 20
12.9826
 30
0.0000
  0
SEQEND
  8
0
  0
POLYLINE
  8
20
 66
1
 10
0.0000
 20
0.0000
 30
0.0000
 40
0.1524
 41
0.1524
 70
0
  0
VERTEX
  8
20
 10
-17.2255
 20
13.0207
 30
0.0000
  0
VERTEX
  8
20
 10
-17.2255
 20
14.1044
 30
0.0000
  0
SEQEND
  8
0
  0
POLYLINE
  8
20
 66
1
 10
0.0000
 20
0.0000
 30
0.0000
 40
0.0762
 41
0.0762
 70
0
  0
VERTEX
  8
20
 10
-17.1874
 20
14.1044
 30
0.0000
 42
1.0000
  0
VERTEX
  8
20
 10
-17.2636
 20
14.1044
 30
0.0000
  0
SEQEND
  8
0
  0
POLYLINE
  8
20
 66
1
 10
0.0000
 20
0.0000
 30
0.0000
 40
0.0762
 41
0.0762
 70
0
  0
VERTEX
  8
20
 10
-17.2636
 20
13.0207
 30
0.0000
 42
1.0000
  0
VERTEX
  8
20
 10
-17.1874
 20
13.0207
 30
0.0000
  0
SEQEND
  8
0
  0
POLYLINE
  8
20
 66
1
 10
0.0000
 20
0.0000
 30
0.0000
 40
0.1524
 41
0.1524
 70
0
  0
VERTEX
  8
20
 10
-15.8260
 20
13.6529
 30
0.0000
  0
VERTEX
  8
20
 10
-16.2324
 20
13.6529
 30
0.0000
  0
SEQEND
  8
0
  0
POLYLINE
  8
20
 66
1
 10
0.0000
 20
0.0000
 30
0.0000
 40
0.0762
 41
0.0762
 70
0
  0
VERTEX
  8
20
 10
-16.2324
 20
13.6910
 30
0.0000
 42
1.0000
  0
VERTEX
  8
20
 10
-16.2324
 20
13.6148
 30
0.0000
  0
SEQEND
  8
0
  0
POLYLINE
  8
20
 66
1
 10
0.0000
 20
0.0000
 30
0.0000
 40
0.0762
 41
0.0762
 70
0
  0
VERTEX
  8
20
 10
-15.8260
 20
13.6148
 30
0.0000
 42
1.0000
  0
VERTEX
  8
20
 10
-15.8260
 20
13.6910
 30
0.0000
  0
SEQEND
  8
0
  0
POLYLINE
  8
20
 66
1
 10
0.0000
 20
0.0000
 30
0.0000
 40
0.1524
 41
0.1524
 70
0
  0
VERTEX
  8
20
 10
-16.2324
 20
13.6529
 30
0.0000
 42
1.0000
  0
VERTEX
  8
20
 10
-16.2324
 20
13.0207
 30
0.0000
  0
SEQEND
  8
0
  0
POLYLINE
  8
20
 66
1
 10
0.0000
 20
0.0000
 30
0.0000
 40
0.0762
 41
0.0762
 70
0
  0
VERTEX
  8
20
 10
-16.2324
 20
13.6148
 30
0.0000
 42
1.0000
  0
VERTEX
  8
20
 10
-16.2324
 20
13.6910
 30
0.0000
  0
SEQEND
  8
0
  0
POLYLINE
  8
20
 66
1
 10
0.0000
 20
0.0000
 30
0.0000
 40
0.0762
 41
0.0762
 70
0
  0
VERTEX
  8
20
 10
-16.2324
 20
12.9826
 30
0.0000
 42
1.0000
  0
VERTEX
  8
20
 10
-16.2324
 20
13.0588
 30
0.0000
  0
SEQEND
  8
0
  0
POLYLINE
  8
20
 66
1
 10
0.0000
 20
0.0000
 30
0.0000
 40
0.1524
 41
0.1524
 70
0
  0
VERTEX
  8
20
 10
-16.2324
 20
13.0207
 30
0.0000
  0
VERTEX
  8
20
 10
-15.8260
 20
13.0207
 30
0.0000
  0
SEQEND
  8
0
  0
POLYLINE
  8
20
 66
1
 10
0.0000
 20
0.0000
 30
0.0000
 40
0.0762
 41
0.0762
 70
0
  0
VERTEX
  8
20
 10
-15.8260
 20
12.9826
 30
0.0000
 42
1.0000
  0
VERTEX
  8
20
 10
-15.8260
 20
13.0588
 30
0.0000
  0
SEQEND
  8
0
  0
POLYLINE
  8
20
 66
1
 10
0.0000
 20
0.0000
 30
0.0000
 40
0.0762
 41
0.0762
 70
0
  0
VERTEX
  8
20
 10
-16.2324
 20
13.0588
 30
0.0000
 42
1.0000
  0
VERTEX
  8
20
 10
-16.2324
 20
12.9826
 30
0.0000
  0
SEQEND
  8
0
  0
POLYLINE
  8
20
 66
1
 10
0.0000
 20
0.0000
 30
0.0000
 40
0.1524
 41
0.1524
 70
0
  0
VERTEX
  8
20
 10
-15.8260
 20
13.0207
 30
0.0000
  0
VERTEX
  8
20
 10
-15.8260
 20
13.8335
 30
0.0000
  0
SEQEND
  8
0
  0
POLYLINE
  8
20
 66
1
 10
0.0000
 20
0.0000
 30
0.0000
 40
0.0762
 41
0.0762
 70
0
  0
VERTEX
  8
20
 10
-15.7879
 20
13.8335
 30
0.0000
 42
1.0000
  0
VERTEX
  8
20
 10
-15.8641
 20
13.8335
 30
0.0000
  0
SEQEND
  8
0
  0
POLYLINE
  8
20
 66
1
 10
0.0000
 20
0.0000
 30
0.0000
 40
0.0762
 41
0.0762
 70
0
  0
VERTEX
  8
20
 10
-15.8641
 20
13.0207
 30
0.0000
 42
1.0000
  0
VERTEX
  8
20
 10
-15.7879
 20
13.0207
 30
0.0000
  0
SEQEND
  8
0
  0
POLYLINE
  8
20
 66
1
 10
0.0000
 20
0.0000
 30
0.0000
 40
0.1524
 41
0.1524
 70
0
  0
VERTEX
  8
20
 10
-15.8260
 20
13.8335
 30
0.0000
 42
0.4142
  0
VERTEX
  8
20
 10
-16.0969
 20
14.1044
 30
0.0000
  0
SEQEND
  8
0
  0
POLYLINE
  8
20
 66
1
 10
0.0000
 20
0.0000
 30
0.0000
 40
0.0762
 41
0.0762
 70
0
  0
VERTEX
  8
20
 10
-15.8641
 20
13.8335
 30
0.0000
 42
1.0000
  0
VERTEX
  8
20
 10
-15.7879
 20
13.8335
 30
0.0000
  0
SEQEND
  8
0
  0
POLYLINE
  8
20
 66
1
 10
0.0000
 20
0.0000
 30
0.0000
 40
0.0762
 41
0.0762
 70
0
  0
VERTEX
  8
20
 10
-16.0969
 20
14.1425
 30
0.0000
 42
1.0000
  0
VERTEX
  8
20
 10
-16.0969
 20
14.0663
 30
0.0000
  0
SEQEND
  8
0
  0
POLYLINE
  8
20
 66
1
 10
0.0000
 20
0.0000
 30
0.0000
 40
0.1524
 41
0.1524
 70
0
  0
VERTEX
  8
20
 10
-16.0969
 20
14.1044
 30
0.0000
  0
VERTEX
  8
20
 10
-16.4582
 20
14.1044
 30
0.0000
  0
SEQEND
  8
0
  0
POLYLINE
  8
20
 66
1
 10
0.0000
 20
0.0000
 30
0.0000
 40
0.0762
 41
0.0762
 70
0
  0
VERTEX
  8
20
 10
-16.4582
 20
14.1425
 30
0.0000
 42
1.0000
  0
VERTEX
  8
20
 10
-16.4582
 20
14.0663
 30
0.0000
  0
SEQEND
  8
0
  0
POLYLINE
  8
20
 66
1
 10
0.0000
 20
0.0000
 30
0.0000
 40
0.0762
 41
0.0762
 70
0
  0
VERTEX
  8
20
 10
-16.0969
 20
14.0663
 30
0.0000
 42
1.0000
  0
VERTEX
  8
20
 10
-16.0969
 20
14.1425
 30
0.0000
  0
SEQEND
  8
0
  0
POLYLINE
  8
20
 66
1
 10
0.0000
 20
0.0000
 30
0.0000
 40
0.1524
 41
0.1524
 70
0
  0
VERTEX
  8
20
 10
-15.0737
 20
13.0207
 30
0.0000
  0
VERTEX
  8
20
 10
-15.0737
 20
14.1044
 30
0.0000
  0
SEQEND
  8
0
  0
POLYLINE
  8
20
 66
1
 10
0.0000
 20
0.0000
 30
0.0000
 40
0.0762
 41
0.0762
 70
0
  0
VERTEX
  8
20
 10
-15.0356
 20
14.1044
 30
0.0000
 42
1.0000
  0
VERTEX
  8
20
 10
-15.1118
 20
14.1044
 30
0.0000
  0
SEQEND
  8
0
  0
POLYLINE
  8
20
 66
1
 10
0.0000
 20
0.0000
 30
0.0000
 40
0.0762
 41
0.0762
 70
0
  0
VERTEX
  8
20
 10
-15.1118
 20
13.0207
 30
0.0000
 42
1.0000
  0
VERTEX
  8
20
 10
-15.0356
 20
13.0207
 30
0.0000
  0
SEQEND
  8
0
  0
POLYLINE
  8
20
 66
1
 10
0.0000
 20
0.0000
 30
0.0000
 40
0.1524
 41
0.1524
 70
0
  0
VERTEX
  8
20
 10
-15.0737
 20
14.1044
 30
0.0000
  0
VERTEX
  8
20
 10
-14.5319
 20
14.1044
 30
0.0000
  0
SEQEND
  8
0
  0
POLYLINE
  8
20
 66
1
 10
0.0000
 20
0.0000
 30
0.0000
 40
0.0762
 41
0.0762
 70
0
  0
VERTEX
  8
20
 10
-14.5319
 20
14.0663
 30
0.0000
 42
1.0000
  0
VERTEX
  8
20
 10
-14.5319
 20
14.1425
 30
0.0000
  0
SEQEND
  8
0
  0
POLYLINE
  8
20
 66
1
 10
0.0000
 20
0.0000
 30
0.0000
 40
0.0762
 41
0.0762
 70
0
  0
VERTEX
  8
20
 10
-15.0737
 20
14.1425
 30
0.0000
 42
1.0000
  0
VERTEX
  8
20
 10
-15.0737
 20
14.0663
 30
0.0000
  0
SEQEND
  8
0
  0
POLYLINE
  8
20
 66
1
 10
0.0000
 20
0.0000
 30
0.0000
 40
0.1524
 41
0.1524
 70
0
  0
VERTEX
  8
20
 10
-14.5319
 20
14.1044
 30
0.0000
  0
VERTEX
  8
20
 10
-14.5319
 20
13.9238
 30
0.0000
  0
SEQEND
  8
0
  0
POLYLINE
  8
20
 66
1
 10
0.0000
 20
0.0000
 30
0.0000
 40
0.0762
 41
0.0762
 70
0
  0
VERTEX
  8
20
 10
-14.5700
 20
13.9238
 30
0.0000
 42
1.0000
  0
VERTEX
  8
20
 10
-14.4938
 20
13.9238
 30
0.0000
  0
SEQEND
  8
0
  0
POLYLINE
  8
20
 66
1
 10
0.0000
 20
0.0000
 30
0.0000
 40
0.0762
 41
0.0762
 70
0
  0
VERTEX
  8
20
 10
-14.4938
 20
14.1044
 30
0.0000
 42
1.0000
  0
VERTEX
  8
20
 10
-14.5700
 20
14.1044
 30
0.0000
  0
SEQEND
  8
0
  0
POLYLINE
  8
20
 66
1
 10
0.0000
 20
0.0000
 30
0.0000
 40
0.1524
 41
0.1524
 70
0
  0
VERTEX
  8
20
 10
-13.3177
 20
13.0207
 30
0.0000
  0
VERTEX
  8
20
 10
-13.7692
 20
13.0207
 30
0.0000
  0
SEQEND
  8
0
  0
POLYLINE
  8
20
 66
1
 10
0.0000
 20
0.0000
 30
0.0000
 40
0.0762
 41
0.0762
 70
0
  0
VERTEX
  8
20
 10
-13.7692
 20
13.0588
 30
0.0000
 42
1.0000
  0
VERTEX
  8
20
 10
-13.7692
 20
12.9826
 30
0.0000
  0
SEQEND
  8
0
  0
POLYLINE
  8
20
 66
1
 10
0.0000
 20
0.0000
 30
0.0000
 40
0.0762
 41
0.0762
 70
0
  0
VERTEX
  8
20
 10
-13.3177
 20
12.9826
 30
0.0000
 42
1.0000
  0
VERTEX
  8
20
 10
-13.3177
 20
13.0588
 30
0.0000
  0
SEQEND
  8
0
  0
POLYLINE
  8
20
 66
1
 10
0.0000
 20
0.0000
 30
0.0000
 40
0.1524
 41
0.1524
 70
0
  0
VERTEX
  8
20
 10
-14.0402
 20
13.2916
 30
0.0000
 42
0.4142
  0
VERTEX
  8
20
 10
-13.7692
 20
13.0207
 30
0.0000
  0
SEQEND
  8
0
  0
POLYLINE
  8
20
 66
1
 10
0.0000
 20
0.0000
 30
0.0000
 40
0.0762
 41
0.0762
 70
0
  0
VERTEX
  8
20
 10
-14.0021
 20
13.2916
 30
0.0000
 42
1.0000
  0
VERTEX
  8
20
 10
-14.0783
 20
13.2916
 30
0.0000
  0
SEQEND
  8
0
  0
POLYLINE
  8
20
 66
1
 10
0.0000
 20
0.0000
 30
0.0000
 40
0.0762
 41
0.0762
 70
0
  0
VERTEX
  8
20
 10
-13.7692
 20
12.9826
 30
0.0000
 42
1.0000
  0
VERTEX
  8
20
 10
-13.7692
 20
13.0588
 30
0.0000
  0
SEQEND
  8
0
  0
POLYLINE
  8
20
 66
1
 10
0.0000
 20
0.0000
 30
0.0000
 40
0.1524
 41
0.1524
 70
0
  0
VERTEX
  8
20
 10
-14.0402
 20
13.2916
 30
0.0000
  0
VERTEX
  8
20
 10
-14.0402
 20
13.7432
 30
0.0000
  0
SEQEND
  8
0
  0
POLYLINE
  8
20
 66
1
 10
0.0000
 20
0.0000
 30
0.0000
 40
0.0762
 41
0.0762
 70
0
  0
VERTEX
  8
20
 10
-14.0021
 20
13.7432
 30
0.0000
 42
1.0000
  0
VERTEX
  8
20
 10
-14.0783
 20
13.7432
 30
0.0000
  0
SEQEND
  8
0
  0
POLYLINE
  8
20
 66
1
 10
0.0000
 20
0.0000
 30
0.0000
 40
0.0762
 41
0.0762
 70
0
  0
VERTEX
  8
20
 10
-14.0783
 20
13.2916
 30
0.0000
 42
1.0000
  0
VERTEX
  8
20
 10
-14.0021
 20
13.2916
 30
0.0000
  0
SEQEND
  8
0
  0
POLYLINE
  8
20
 66
1
 10
0.0000
 20
0.0000
 30
0.0000
 40
0.1524
 41
0.1524
 70
0
  0
VERTEX
  8
20
 10
-13.3177
 20
13.7432
 30
0.0000
 42
1.0000
  0
VERTEX
  8
20
 10
-14.0402
 20
13.7432
 30
0.0000
  0
SEQEND
  8
0
  0
POLYLINE
  8
20
 66
1
 10
0.0000
 20
0.0000
 30
0.0000
 40
0.0762
 41
0.0762
 70
0
  0
VERTEX
  8
20
 10
-13.3558
 20
13.7432
 30
0.0000
 42
1.0000
  0
VERTEX
  8
20
 10
-13.2796
 20
13.7432
 30
0.0000
  0
SEQEND
  8
0
  0
POLYLINE
  8
20
 66
1
 10
0.0000
 20
0.0000
 30
0.0000
 40
0.0762
 41
0.0762
 70
0
  0
VERTEX
  8
20
 10
-14.0783
 20
13.7432
 30
0.0000
 42
1.0000
  0
VERTEX
  8
20
 10
-14.0021
 20
13.7432
 30
0.0000
  0
SEQEND
  8
0
  0
POLYLINE
  8
20
 66
1
 10
0.0000
 20
0.0000
 30
0.0000
 40
0.1524
 41
0.1524
 70
0
  0
VERTEX
  8
20
 10
-13.3177
 20
13.7432
 30
0.0000
  0
VERTEX
  8
20
 10
-13.3177
 20
13.5626
 30
0.0000
  0
SEQEND
  8
0
  0
POLYLINE
  8
20
 66
1
 10
0.0000
 20
0.0000
 30
0.0000
 40
0.0762
 41
0.0762
 70
0
  0
VERTEX
  8
20
 10
-13.3558
 20
13.5626
 30
0.0000
 42
1.0000
  0
VERTEX
  8
20
 10
-13.2796
 20
13.5626
 30
0.0000
  0
SEQEND
  8
0
  0
POLYLINE
  8
20
 66
1
 10
0.0000
 20
0.0000
 30
0.0000
 40
0.0762
 41
0.0762
 70
0
  0
VERTEX
  8
20
 10
-13.2796
 20
13.7432
 30
0.0000
 42
1.0000
  0
VERTEX
  8
20
 10
-13.3558
 20
13.7432
 30
0.0000
  0
SEQEND
  8
0
  0
POLYLINE
  8
20
 66
1
 10
0.0000
 20
0.0000
 30
0.0000
 40
0.1524
 41
0.1524
 70
0
  0
VERTEX
  8
20
 10
-13.3177
 20
13.5626
 30
0.0000
  0
VERTEX
  8
20
 10
-14.0402
 20
13.5626
 30
0.0000
  0
SEQEND
  8
0
  0
POLYLINE
  8
20
 66
1
 10
0.0000
 20
0.0000
 30
0.0000
 40
0.0762
 41
0.0762
 70
0
  0
VERTEX
  8
20
 10
-14.0402
 20
13.6007
 30
0.0000
 42
1.0000
  0
VERTEX
  8
20
 10
-14.0402
 20
13.5245
 30
0.0000
  0
SEQEND
  8
0
  0
POLYLINE
  8
20
 66
1
 10
0.0000
 20
0.0000
 30
0.0000
 40
0.0762
 41
0.0762
 70
0
  0
VERTEX
  8
20
 10
-13.3177
 20
13.5245
 30
0.0000
 42
1.0000
  0
VERTEX
  8
20
 10
-13.3177
 20
13.6007
 30
0.0000
  0
SEQEND
  8
0
  0
POLYLINE
  8
20
 66
1
 10
0.0000
 20
0.0000
 30
0.0000
 40
0.1524
 41
0.1524
 70
0
  0
VERTEX
  8
20
 10
-23.9287
 20
10.3537
 30
0.0000
  0
VERTEX
  8
20
 10
-23.9287
 20
11.4374
 30
0.0000
  0
SEQEND
  8
0
  0
POLYLINE
  8
20
 66
1
 10
0.0000
 20
0.0000
 30
0.0000
 40
0.0762
 41
0.0762
 70
0
  0
VERTEX
  8
20
 10
-23.8906
 20
11.4374
 30
0.0000
 42
1.0000
  0
VERTEX
  8
20
 10
-23.9668
 20
11.4374
 30
0.0000
  0
SEQEND
  8
0
  0
POLYLINE
  8
20
 66
1
 10
0.0000
 20
0.0000
 30
0.0000
 40
0.0762
 41
0.0762
 70
0
  0
VERTEX
  8
20
 10
-23.9668
 20
10.3537
 30
0.0000
 42
1.0000
  0
VERTEX
  8
20
 10
-23.8906
 20
10.3537
 30
0.0000
  0
SEQEND
  8
0
  0
POLYLINE
  8
20
 66
1
 10
0.0000
 20
0.0000
 30
0.0000
 40
0.1524
 41
0.1524
 70
0
  0
VERTEX
  8
20
 10
-23.9287
 20
11.4374
 30
0.0000
  0
VERTEX
  8
20
 10
-23.3869
 20
11.4374
 30
0.0000
  0
SEQEND
  8
0
  0
POLYLINE
  8
20
 66
1
 10
0.0000
 20
0.0000
 30
0.0000
 40
0.0762
 41
0.0762
 70
0
  0
VERTEX
  8
20
 10
-23.3869
 20
11.3993
 30
0.0000
 42
1.0000
  0
VERTEX
  8
20
 10
-23.3869
 20
11.4755
 30
0.0000
  0
SEQEND
  8
0
  0
POLYLINE
  8
20
 66
1
 10
0.0000
 20
0.0000
 30
0.0000
 40
0.0762
 41
0.0762
 70
0
  0
VERTEX
  8
20
 10
-23.9287
 20
11.4755
 30
0.0000
 42
1.0000
  0
VERTEX
  8
20
 10
-23.9287
 20
11.3993
 30
0.0000
  0
SEQEND
  8
0
  0
POLYLINE
  8
20
 66
1
 10
0.0000
 20
0.0000
 30
0.0000
 40
0.1524
 41
0.1524
 70
0
  0
VERTEX
  8
20
 10
-23.3869
 20
11.4374
 30
0.0000
  0
VERTEX
  8
20
 10
-23.3869
 20
11.2568
 30
0.0000
  0
SEQEND
  8
0
  0
POLYLINE
  8
20
 66
1
 10
0.0000
 20
0.0000
 30
0.0000
 40
0.0762
 41
0.0762
 70
0
  0
VERTEX
  8
20
 10
-23.4250
 20
11.2568
 30
0.0000
 42
1.0000
  0
VERTEX
  8
20
 10
-23.3488
 20
11.2568
 30
0.0000
  0
SEQEND
  8
0
  0
POLYLINE
  8
20
 66
1
 10
0.0000
 20
0.0000
 30
0.0000
 40
0.0762
 41
0.0762
 70
0
  0
VERTEX
  8
20
 10
-23.3488
 20
11.4374
 30
0.0000
 42
1.0000
  0
VERTEX
  8
20
 10
-23.4250
 20
11.4374
 30
0.0000
  0
SEQEND
  8
0
  0
POLYLINE
  8
20
 66
1
 10
0.0000
 20
0.0000
 30
0.0000
 40
0.1524
 41
0.1524
 70
0
  0
VERTEX
  8
20
 10
-22.1727
 20
10.3537
 30
0.0000
  0
VERTEX
  8
20
 10
-22.6242
 20
10.3537
 30
0.0000
  0
SEQEND
  8
0
  0
POLYLINE
  8
20
 66
1
 10
0.0000
 20
0.0000
 30
0.0000
 40
0.0762
 41
0.0762
 70
0
  0
VERTEX
  8
20
 10
-22.6242
 20
10.3918
 30
0.0000
 42
1.0000
  0
VERTEX
  8
20
 10
-22.6242
 20
10.3156
 30
0.0000
  0
SEQEND
  8
0
  0
POLYLINE
  8
20
 66
1
 10
0.0000
 20
0.0000
 30
0.0000
 40
0.0762
 41
0.0762
 70
0
  0
VERTEX
  8
20
 10
-22.1727
 20
10.3156
 30
0.0000
 42
1.0000
  0
VERTEX
  8
20
 10
-22.1727
 20
10.3918
 30
0.0000
  0
SEQEND
  8
0
  0
POLYLINE
  8
20
 66
1
 10
0.0000
 20
0.0000
 30
0.0000
 40
0.1524
 41
0.1524
 70
0
  0
VERTEX
  8
20
 10
-22.8951
 20
10.6246
 30
0.0000
 42
0.4142
  0
VERTEX
  8
20
 10
-22.6242
 20
10.3537
 30
0.0000
  0
SEQEND
  8
0
  0
POLYLINE
  8
20
 66
1
 10
0.0000
 20
0.0000
 30
0.0000
 40
0.0762
 41
0.0762
 70
0
  0
VERTEX
  8
20
 10
-22.8570
 20
10.6246
 30
0.0000
 42
1.0000
  0
VERTEX
  8
20
 10
-22.9332
 20
10.6246
 30
0.0000
  0
SEQEND
  8
0
  0
POLYLINE
  8
20
 66
1
 10
0.0000
 20
0.0000
 30
0.0000
 40
0.0762
 41
0.0762
 70
0
  0
VERTEX
  8
20
 10
-22.6242
 20
10.3156
 30
0.0000
 42
1.0000
  0
VERTEX
  8
20
 10
-22.6242
 20
10.3918
 30
0.0000
  0
SEQEND
  8
0
  0
POLYLINE
  8
20
 66
1
 10
0.0000
 20
0.0000
 30
0.0000
 40
0.1524
 41
0.1524
 70
0
  0
VERTEX
  8
20
 10
-22.8951
 20
10.6246
 30
0.0000
  0
VERTEX
  8
20
 10
-22.8951
 20
11.0762
 30
0.0000
  0
SEQEND
  8
0
  0
POLYLINE
  8
20
 66
1
 10
0.0000
 20
0.0000
 30
0.0000
 40
0.0762
 41
0.0762
 70
0
  0
VERTEX
  8
20
 10
-22.8570
 20
11.0762
 30
0.0000
 42
1.0000
  0
VERTEX
  8
20
 10
-22.9332
 20
11.0762
 30
0.0000
  0
SEQEND
  8
0
  0
POLYLINE
  8
20
 66
1
 10
0.0000
 20
0.0000
 30
0.0000
 40
0.0762
 41
0.0762
 70
0
  0
VERTEX
  8
20
 10
-22.9332
 20
10.6246
 30
0.0000
 42
1.0000
  0
VERTEX
  8
20
 10
-22.8570
 20
10.6246
 30
0.0000
  0
SEQEND
  8
0
  0
POLYLINE
  8
20
 66
1
 10
0.0000
 20
0.0000
 30
0.0000
 40
0.1524
 41
0.1524
 70
0
  0
VERTEX
  8
20
 10
-22.1727
 20
11.0762
 30
0.0000
 42
1.0000
  0
VERTEX
  8
20
 10
-22.8951
 20
11.0762
 30
0.0000
  0
SEQEND
  8
0
  0
POLYLINE
  8
20
 66
1
 10
0.0000
 20
0.0000
 30
0.0000
 40
0.0762
 41
0.0762
 70
0
  0
VERTEX
  8
20
 10
-22.2108
 20
11.0762
 30
0.0000
 42
1.0000
  0
VERTEX
  8
20
 10
-22.1346
 20
11.0762
 30
0.0000
  0
SEQEND
  8
0
  0
POLYLINE
  8
20
 66
1
 10
0.0000
 20
0.0000
 30
0.0000
 40
0.0762
 41
0.0762
 70
0
  0
VERTEX
  8
20
 10
-22.9332
 20
11.0762
 30
0.0000
 42
1.0000
  0
VERTEX
  8
20
 10
-22.8570
 20
11.0762
 30
0.0000
  0
SEQEND
  8
0
  0
POLYLINE
  8
20
 66
1
 10
0.0000
 20
0.0000
 30
0.0000
 40
0.1524
 41
0.1524
 70
0
  0
VERTEX
  8
20
 10
-22.1727
 20
11.0762
 30
0.0000
  0
VERTEX
  8
20
 10
-22.1727
 20
10.8956
 30
0.0000
  0
SEQEND
  8
0
  0
POLYLINE
  8
20
 66
1
 10
0.0000
 20
0.0000
 30
0.0000
 40
0.0762
 41
0.0762
 70
0
  0
VERTEX
  8
20
 10
-22.2108
 20
10.8956
 30
0.0000
 42
1.0000
  0
VERTEX
  8
20
 10
-22.1346
 20
10.8956
 30
0.0000
  0
SEQEND
  8
0
  0
POLYLINE
  8
20
 66
1
 10
0.0000
 20
0.0000
 30
0.0000
 40
0.0762
 41
0.0762
 70
0
  0
VERTEX
  8
20
 10
-22.1346
 20
11.0762
 30
0.0000
 42
1.0000
  0
VERTEX
  8
20
 10
-22.2108
 20
11.0762
 30
0.0000
  0
SEQEND
  8
0
  0
POLYLINE
  8
20
 66
1
 10
0.0000
 20
0.0000
 30
0.0000
 40
0.1524
 41
0.1524
 70
0
  0
VERTEX
  8
20
 10
-22.1727
 20
10.8956
 30
0.0000
  0
VERTEX
  8
20
 10
-22.8951
 20
10.8956
 30
0.0000
  0
SEQEND
  8
0
  0
POLYLINE
  8
20
 66
1
 10
0.0000
 20
0.0000
 30
0.0000
 40
0.0762
 41
0.0762
 70
0
  0
VERTEX
  8
20
 10
-22.8951
 20
10.9337
 30
0.0000
 42
1.0000
  0
VERTEX
  8
20
 10
-22.8951
 20
10.8575
 30
0.0000
  0
SEQEND
  8
0
  0
POLYLINE
  8
20
 66
1
 10
0.0000
 20
0.0000
 30
0.0000
 40
0.0762
 41
0.0762
 70
0
  0
VERTEX
  8
20
 10
-22.1727
 20
10.8575
 30
0.0000
 42
1.0000
  0
VERTEX
  8
20
 10
-22.1727
 20
10.9337
 30
0.0000
  0
SEQEND
  8
0
  0
POLYLINE
  8
20
 66
1
 10
0.0000
 20
0.0000
 30
0.0000
 40
0.1524
 41
0.1524
 70
0
  0
VERTEX
  8
20
 10
-21.4517
 20
10.3537
 30
0.0000
  0
VERTEX
  8
20
 10
-21.4517
 20
11.7084
 30
0.0000
  0
SEQEND
  8
0
  0
POLYLINE
  8
20
 66
1
 10
0.0000
 20
0.0000
 30
0.0000
 40
0.0762
 41
0.0762
 70
0
  0
VERTEX
  8
20
 10
-21.4136
 20
11.7084
 30
0.0000
 42
1.0000
  0
VERTEX
  8
20
 10
-21.4898
 20
11.7084
 30
0.0000
  0
SEQEND
  8
0
  0
POLYLINE
  8
20
 66
1
 10
0.0000
 20
0.0000
 30
0.0000
 40
0.0762
 41
0.0762
 70
0
  0
VERTEX
  8
20
 10
-21.4898
 20
10.3537
 30
0.0000
 42
1.0000
  0
VERTEX
  8
20
 10
-21.4136
 20
10.3537
 30
0.0000
  0
SEQEND
  8
0
  0
POLYLINE
  8
20
 66
1
 10
0.0000
 20
0.0000
 30
0.0000
 40
0.1524
 41
0.1524
 70
0
  0
VERTEX
  8
20
 10
-21.1807
 20
11.9793
 30
0.0000
 42
0.4142
  0
VERTEX
  8
20
 10
-21.4517
 20
11.7084
 30
0.0000
  0
SEQEND
  8
0
  0
POLYLINE
  8
20
 66
1
 10
0.0000
 20
0.0000
 30
0.0000
 40
0.0762
 41
0.0762
 70
0
  0
VERTEX
  8
20
 10
-21.1807
 20
11.9412
 30
0.0000
 42
1.0000
  0
VERTEX
  8
20
 10
-21.1807
 20
12.0174
 30
0.0000
  0
SEQEND
  8
0
  0
POLYLINE
  8
20
 66
1
 10
0.0000
 20
0.0000
 30
0.0000
 40
0.0762
 41
0.0762
 70
0
  0
VERTEX
  8
20
 10
-21.4898
 20
11.7084
 30
0.0000
 42
1.0000
  0
VERTEX
  8
20
 10
-21.4136
 20
11.7084
 30
0.0000
  0
SEQEND
  8
0
  0
POLYLINE
  8
20
 66
1
 10
0.0000
 20
0.0000
 30
0.0000
 40
0.1524
 41
0.1524
 70
0
  0
VERTEX
  8
20
 10
-21.1807
 20
11.9793
 30
0.0000
  0
VERTEX
  8
20
 10
-21.0904
 20
11.9793
 30
0.0000
  0
SEQEND
  8
0
  0
POLYLINE
  8
20
 66
1
 10
0.0000
 20
0.0000
 30
0.0000
 40
0.0762
 41
0.0762
 70
0
  0
VERTEX
  8
20
 10
-21.0904
 20
11.9412
 30
0.0000
 42
1.0000
  0
VERTEX
  8
20
 10
-21.0904
 20
12.0174
 30
0.0000
  0
SEQEND
  8
0
  0
POLYLINE
  8
20
 66
1
 10
0.0000
 20
0.0000
 30
0.0000
 40
0.0762
 41
0.0762
 70
0
  0
VERTEX
  8
20
 10
-21.1807
 20
12.0174
 30
0.0000
 42
1.0000
  0
VERTEX
  8
20
 10
-21.1807
 20
11.9412
 30
0.0000
  0
SEQEND
  8
0
  0
POLYLINE
  8
20
 66
1
 10
0.0000
 20
0.0000
 30
0.0000
 40
0.1524
 41
0.1524
 70
0
  0
VERTEX
  8
20
 10
-21.6323
 20
11.4374
 30
0.0000
  0
VERTEX
  8
20
 10
-21.0904
 20
11.4374
 30
0.0000
  0
SEQEND
  8
0
  0
POLYLINE
  8
20
 66
1
 10
0.0000
 20
0.0000
 30
0.0000
 40
0.0762
 41
0.0762
 70
0
  0
VERTEX
  8
20
 10
-21.0904
 20
11.3993
 30
0.0000
 42
1.0000
  0
VERTEX
  8
20
 10
-21.0904
 20
11.4755
 30
0.0000
  0
SEQEND
  8
0
  0
POLYLINE
  8
20
 66
1
 10
0.0000
 20
0.0000
 30
0.0000
 40
0.0762
 41
0.0762
 70
0
  0
VERTEX
  8
20
 10
-21.6323
 20
11.4755
 30
0.0000
 42
1.0000
  0
VERTEX
  8
20
 10
-21.6323
 20
11.3993
 30
0.0000
  0
SEQEND
  8
0
  0
POLYLINE
  8
20
 66
1
 10
0.0000
 20
0.0000
 30
0.0000
 40
0.1524
 41
0.1524
 70
0
  0
VERTEX
  8
20
 10
-19.9322
 20
10.3537
 30
0.0000
  0
VERTEX
  8
20
 10
-20.3837
 20
10.3537
 30
0.0000
  0
SEQEND
  8
0
  0
POLYLINE
  8
20
 66
1
 10
0.0000
 20
0.0000
 30
0.0000
 40
0.0762
 41
0.0762
 70
0
  0
VERTEX
  8
20
 10
-20.3837
 20
10.3918
 30
0.0000
 42
1.0000
  0
VERTEX
  8
20
 10
-20.3837
 20
10.3156
 30
0.0000
  0
SEQEND
  8
0
  0
POLYLINE
  8
20
 66
1
 10
0.0000
 20
0.0000
 30
0.0000
 40
0.0762
 41
0.0762
 70
0
  0
VERTEX
  8
20
 10
-19.9322
 20
10.3156
 30
0.0000
 42
1.0000
  0
VERTEX
  8
20
 10
-19.9322
 20
10.3918
 30
0.0000
  0
SEQEND
  8
0
  0
POLYLINE
  8
20
 66
1
 10
0.0000
 20
0.0000
 30
0.0000
 40
0.1524
 41
0.1524
 70
0
  0
VERTEX
  8
20
 10
-20.6547
 20
10.6246
 30
0.0000
 42
0.4142
  0
VERTEX
  8
20
 10
-20.3837
 20
10.3537
 30
0.0000
  0
SEQEND
  8
0
  0
POLYLINE
  8
20
 66
1
 10
0.0000
 20
0.0000
 30
0.0000
 40
0.0762
 41
0.0762
 70
0
  0
VERTEX
  8
20
 10
-20.6166
 20
10.6246
 30
0.0000
 42
1.0000
  0
VERTEX
  8
20
 10
-20.6928
 20
10.6246
 30
0.0000
  0
SEQEND
  8
0
  0
POLYLINE
  8
20
 66
1
 10
0.0000
 20
0.0000
 30
0.0000
 40
0.0762
 41
0.0762
 70
0
  0
VERTEX
  8
20
 10
-20.3837
 20
10.3156
 30
0.0000
 42
1.0000
  0
VERTEX
  8
20
 10
-20.3837
 20
10.3918
 30
0.0000
  0
SEQEND
  8
0
  0
POLYLINE
  8
20
 66
1
 10
0.0000
 20
0.0000
 30
0.0000
 40
0.1524
 41
0.1524
 70
0
  0
VERTEX
  8
20
 10
-20.6547
 20
10.6246
 30
0.0000
  0
VERTEX
  8
20
 10
-20.6547
 20
11.0762
 30
0.0000
  0
SEQEND
  8
0
  0
POLYLINE
  8
20
 66
1
 10
0.0000
 20
0.0000
 30
0.0000
 40
0.0762
 41
0.0762
 70
0
  0
VERTEX
  8
20
 10
-20.6166
 20
11.0762
 30
0.0000
 42
1.0000
  0
VERTEX
  8
20
 10
-20.6928
 20
11.0762
 30
0.0000
  0
SEQEND
  8
0
  0
POLYLINE
  8
20
 66
1
 10
0.0000
 20
0.0000
 30
0.0000
 40
0.0762
 41
0.0762
 70
0
  0
VERTEX
  8
20
 10
-20.6928
 20
10.6246
 30
0.0000
 42
1.0000
  0
VERTEX
  8
20
 10
-20.6166
 20
10.6246
 30
0.0000
  0
SEQEND
  8
0
  0
POLYLINE
  8
20
 66
1
 10
0.0000
 20
0.0000
 30
0.0000
 40
0.1524
 41
0.1524
 70
0
  0
VERTEX
  8
20
 10
-19.9322
 20
11.0762
 30
0.0000
 42
1.0000
  0
VERTEX
  8
20
 10
-20.6547
 20
11.0762
 30
0.0000
  0
SEQEND
  8
0
  0
POLYLINE
  8
20
 66
1
 10
0.0000
 20
0.0000
 30
0.0000
 40
0.0762
 41
0.0762
 70
0
  0
VERTEX
  8
20
 10
-19.9703
 20
11.0762
 30
0.0000
 42
1.0000
  0
VERTEX
  8
20
 10
-19.8941
 20
11.0762
 30
0.0000
  0
SEQEND
  8
0
  0
POLYLINE
  8
20
 66
1
 10
0.0000
 20
0.0000
 30
0.0000
 40
0.0762
 41
0.0762
 70
0
  0
VERTEX
  8
20
 10
-20.6928
 20
11.0762
 30
0.0000
 42
1.0000
  0
VERTEX
  8
20
 10
-20.6166
 20
11.0762
 30
0.0000
  0
SEQEND
  8
0
  0
POLYLINE
  8
20
 66
1
 10
0.0000
 20
0.0000
 30
0.0000
 40
0.1524
 41
0.1524
 70
0
  0
VERTEX
  8
20
 10
-19.9322
 20
11.0762
 30
0.0000
  0
VERTEX
  8
20
 10
-19.9322
 20
10.8956
 30
0.0000
  0
SEQEND
  8
0
  0
POLYLINE
  8
20
 66
1
 10
0.0000
 20
0.0000
 30
0.0000
 40
0.0762
 41
0.0762
 70
0
  0
VERTEX
  8
20
 10
-19.9703
 20
10.8956
 30
0.0000
 42
1.0000
  0
VERTEX
  8
20
 10
-19.8941
 20
10.8956
 30
0.0000
  0
SEQEND
  8
0
  0
POLYLINE
  8
20
 66
1
 10
0.0000
 20
0.0000
 30
0.0000
 40
0.0762
 41
0.0762
 70
0
  0
VERTEX
  8
20
 10
-19.8941
 20
11.0762
 30
0.0000
 42
1.0000
  0
VERTEX
  8
20
 10
-19.9703
 20
11.0762
 30
0.0000
  0
SEQEND
  8
0
  0
POLYLINE
  8
20
 66
1
 10
0.0000
 20
0.0000
 30
0.0000
 40
0.1524
 41
0.1524
 70
0
  0
VERTEX
  8
20
 10
-19.9322
 20
10.8956
 30
0.0000
  0
VERTEX
  8
20
 10
-20.6547
 20
10.8956
 30
0.0000
  0
SEQEND
  8
0
  0
POLYLINE
  8
20
 66
1
 10
0.0000
 20
0.0000
 30
0.0000
 40
0.0762
 41
0.0762
 70
0
  0
VERTEX
  8
20
 10
-20.6547
 20
10.9337
 30
0.0000
 42
1.0000
  0
VERTEX
  8
20
 10
-20.6547
 20
10.8575
 30
0.0000
  0
SEQEND
  8
0
  0
POLYLINE
  8
20
 66
1
 10
0.0000
 20
0.0000
 30
0.0000
 40
0.0762
 41
0.0762
 70
0
  0
VERTEX
  8
20
 10
-19.9322
 20
10.8575
 30
0.0000
 42
1.0000
  0
VERTEX
  8
20
 10
-19.9322
 20
10.9337
 30
0.0000
  0
SEQEND
  8
0
  0
POLYLINE
  8
20
 66
1
 10
0.0000
 20
0.0000
 30
0.0000
 40
0.1524
 41
0.1524
 70
0
  0
VERTEX
  8
20
 10
-19.2394
 20
10.3537
 30
0.0000
  0
VERTEX
  8
20
 10
-19.2394
 20
11.4374
 30
0.0000
  0
SEQEND
  8
0
  0
POLYLINE
  8
20
 66
1
 10
0.0000
 20
0.0000
 30
0.0000
 40
0.0762
 41
0.0762
 70
0
  0
VERTEX
  8
20
 10
-19.2013
 20
11.4374
 30
0.0000
 42
1.0000
  0
VERTEX
  8
20
 10
-19.2775
 20
11.4374
 30
0.0000
  0
SEQEND
  8
0
  0
POLYLINE
  8
20
 66
1
 10
0.0000
 20
0.0000
 30
0.0000
 40
0.0762
 41
0.0762
 70
0
  0
VERTEX
  8
20
 10
-19.2775
 20
10.3537
 30
0.0000
 42
1.0000
  0
VERTEX
  8
20
 10
-19.2013
 20
10.3537
 30
0.0000
  0
SEQEND
  8
0
  0
POLYLINE
  8
20
 66
1
 10
0.0000
 20
0.0000
 30
0.0000
 40
0.1524
 41
0.1524
 70
0
  0
VERTEX
  8
20
 10
-19.2394
 20
11.4374
 30
0.0000
  0
VERTEX
  8
20
 10
-18.6975
 20
11.4374
 30
0.0000
  0
SEQEND
  8
0
  0
POLYLINE
  8
20
 66
1
 10
0.0000
 20
0.0000
 30
0.0000
 40
0.0762
 41
0.0762
 70
0
  0
VERTEX
  8
20
 10
-18.6975
 20
11.3993
 30
0.0000
 42
1.0000
  0
VERTEX
  8
20
 10
-18.6975
 20
11.4755
 30
0.0000
  0
SEQEND
  8
0
  0
POLYLINE
  8
20
 66
1
 10
0.0000
 20
0.0000
 30
0.0000
 40
0.0762
 41
0.0762
 70
0
  0
VERTEX
  8
20
 10
-19.2394
 20
11.4755
 30
0.0000
 42
1.0000
  0
VERTEX
  8
20
 10
-19.2394
 20
11.3993
 30
0.0000
  0
SEQEND
  8
0
  0
POLYLINE
  8
20
 66
1
 10
0.0000
 20
0.0000
 30
0.0000
 40
0.1524
 41
0.1524
 70
0
  0
VERTEX
  8
20
 10
-18.6975
 20
11.4374
 30
0.0000
  0
VERTEX
  8
20
 10
-18.6975
 20
11.2568
 30
0.0000
  0
SEQEND
  8
0
  0
POLYLINE
  8
20
 66
1
 10
0.0000
 20
0.0000
 30
0.0000
 40
0.0762
 41
0.0762
 70
0
  0
VERTEX
  8
20
 10
-18.7356
 20
11.2568
 30
0.0000
 42
1.0000
  0
VERTEX
  8
20
 10
-18.6594
 20
11.2568
 30
0.0000
  0
SEQEND
  8
0
  0
POLYLINE
  8
20
 66
1
 10
0.0000
 20
0.0000
 30
0.0000
 40
0.0762
 41
0.0762
 70
0
  0
VERTEX
  8
20
 10
-18.6594
 20
11.4374
 30
0.0000
 42
1.0000
  0
VERTEX
  8
20
 10
-18.7356
 20
11.4374
 30
0.0000
  0
SEQEND
  8
0
  0
POLYLINE
  8
20
 66
1
 10
0.0000
 20
0.0000
 30
0.0000
 40
0.1524
 41
0.1524
 70
0
  0
VERTEX
  8
20
 10
-17.4833
 20
10.3537
 30
0.0000
  0
VERTEX
  8
20
 10
-17.9348
 20
10.3537
 30
0.0000
  0
SEQEND
  8
0
  0
POLYLINE
  8
20
 66
1
 10
0.0000
 20
0.0000
 30
0.0000
 40
0.0762
 41
0.0762
 70
0
  0
VERTEX
  8
20
 10
-17.9348
 20
10.3918
 30
0.0000
 42
1.0000
  0
VERTEX
  8
20
 10
-17.9348
 20
10.3156
 30
0.0000
  0
SEQEND
  8
0
  0
POLYLINE
  8
20
 66
1
 10
0.0000
 20
0.0000
 30
0.0000
 40
0.0762
 41
0.0762
 70
0
  0
VERTEX
  8
20
 10
-17.4833
 20
10.3156
 30
0.0000
 42
1.0000
  0
VERTEX
  8
20
 10
-17.4833
 20
10.3918
 30
0.0000
  0
SEQEND
  8
0
  0
POLYLINE
  8
20
 66
1
 10
0.0000
 20
0.0000
 30
0.0000
 40
0.1524
 41
0.1524
 70
0
  0
VERTEX
  8
20
 10
-18.2058
 20
10.6246
 30
0.0000
 42
0.4142
  0
VERTEX
  8
20
 10
-17.9348
 20
10.3537
 30
0.0000
  0
SEQEND
  8
0
  0
POLYLINE
  8
20
 66
1
 10
0.0000
 20
0.0000
 30
0.0000
 40
0.0762
 41
0.0762
 70
0
  0
VERTEX
  8
20
 10
-18.1677
 20
10.6246
 30
0.0000
 42
1.0000
  0
VERTEX
  8
20
 10
-18.2439
 20
10.6246
 30
0.0000
  0
SEQEND
  8
0
  0
POLYLINE
  8
20
 66
1
 10
0.0000
 20
0.0000
 30
0.0000
 40
0.0762
 41
0.0762
 70
0
  0
VERTEX
  8
20
 10
-17.9348
 20
10.3156
 30
0.0000
 42
1.0000
  0
VERTEX
  8
20
 10
-17.9348
 20
10.3918
 30
0.0000
  0
SEQEND
  8
0
  0
POLYLINE
  8
20
 66
1
 10
0.0000
 20
0.0000
 30
0.0000
 40
0.1524
 41
0.1524
 70
0
  0
VERTEX
  8
20
 10
-18.2058
 20
10.6246
 30
0.0000
  0
VERTEX
  8
20
 10
-18.2058
 20
11.0762
 30
0.0000
  0
SEQEND
  8
0
  0
POLYLINE
  8
20
 66
1
 10
0.0000
 20
0.0000
 30
0.0000
 40
0.0762
 41
0.0762
 70
0
  0
VERTEX
  8
20
 10
-18.1677
 20
11.0762
 30
0.0000
 42
1.0000
  0
VERTEX
  8
20
 10
-18.2439
 20
11.0762
 30
0.0000
  0
SEQEND
  8
0
  0
POLYLINE
  8
20
 66
1
 10
0.0000
 20
0.0000
 30
0.0000
 40
0.0762
 41
0.0762
 70
0
  0
VERTEX
  8
20
 10
-18.2439
 20
10.6246
 30
0.0000
 42
1.0000
  0
VERTEX
  8
20
 10
-18.1677
 20
10.6246
 30
0.0000
  0
SEQEND
  8
0
  0
POLYLINE
  8
20
 66
1
 10
0.0000
 20
0.0000
 30
0.0000
 40
0.1524
 41
0.1524
 70
0
  0
VERTEX
  8
20
 10
-17.4833
 20
11.0762
 30
0.0000
 42
1.0000
  0
VERTEX
  8
20
 10
-18.2058
 20
11.0762
 30
0.0000
  0
SEQEND
  8
0
  0
POLYLINE
  8
20
 66
1
 10
0.0000
 20
0.0000
 30
0.0000
 40
0.0762
 41
0.0762
 70
0
  0
VERTEX
  8
20
 10
-17.5214
 20
11.0762
 30
0.0000
 42
1.0000
  0
VERTEX
  8
20
 10
-17.4452
 20
11.0762
 30
0.0000
  0
SEQEND
  8
0
  0
POLYLINE
  8
20
 66
1
 10
0.0000
 20
0.0000
 30
0.0000
 40
0.0762
 41
0.0762
 70
0
  0
VERTEX
  8
20
 10
-18.2439
 20
11.0762
 30
0.0000
 42
1.0000
  0
VERTEX
  8
20
 10
-18.1677
 20
11.0762
 30
0.0000
  0
SEQEND
  8
0
  0
POLYLINE
  8
20
 66
1
 10
0.0000
 20
0.0000
 30
0.0000
 40
0.1524
 41
0.1524
 70
0
  0
VERTEX
  8
20
 10
-17.4833
 20
11.0762
 30
0.0000
  0
VERTEX
  8
20
 10
-17.4833
 20
10.8956
 30
0.0000
  0
SEQEND
  8
0
  0
POLYLINE
  8
20
 66
1
 10
0.0000
 20
0.0000
 30
0.0000
 40
0.0762
 41
0.0762
 70
0
  0
VERTEX
  8
20
 10
-17.5214
 20
10.8956
 30
0.0000
 42
1.0000
  0
VERTEX
  8
20
 10
-17.4452
 20
10.8956
 30
0.0000
  0
SEQEND
  8
0
  0
POLYLINE
  8
20
 66
1
 10
0.0000
 20
0.0000
 30
0.0000
 40
0.0762
 41
0.0762
 70
0
  0
VERTEX
  8
20
 10
-17.4452
 20
11.0762
 30
0.0000
 42
1.0000
  0
VERTEX
  8
20
 10
-17.5214
 20
11.0762
 30
0.0000
  0
SEQEND
  8
0
  0
POLYLINE
  8
20
 66
1
 10
0.0000
 20
0.0000
 30
0.0000
 40
0.1524
 41
0.1524
 70
0
  0
VERTEX
  8
20
 10
-17.4833
 20
10.8956
 30
0.0000
  0
VERTEX
  8
20
 10
-18.2058
 20
10.8956
 30
0.0000
  0
SEQEND
  8
0
  0
POLYLINE
  8
20
 66
1
 10
0.0000
 20
0.0000
 30
0.0000
 40
0.0762
 41
0.0762
 70
0
  0
VERTEX
  8
20
 10
-18.2058
 20
10.9337
 30
0.0000
 42
1.0000
  0
VERTEX
  8
20
 10
-18.2058
 20
10.8575
 30
0.0000
  0
SEQEND
  8
0
  0
POLYLINE
  8
20
 66
1
 10
0.0000
 20
0.0000
 30
0.0000
 40
0.0762
 41
0.0762
 70
0
  0
VERTEX
  8
20
 10
-17.4833
 20
10.8575
 30
0.0000
 42
1.0000
  0
VERTEX
  8
20
 10
-17.4833
 20
10.9337
 30
0.0000
  0
SEQEND
  8
0
  0
POLYLINE
  8
20
 66
1
 10
0.0000
 20
0.0000
 30
0.0000
 40
0.1524
 41
0.1524
 70
0
  0
VERTEX
  8
20
 10
-16.7990
 20
10.3537
 30
0.0000
  0
VERTEX
  8
20
 10
-16.7990
 20
11.4374
 30
0.0000
  0
SEQEND
  8
0
  0
POLYLINE
  8
20
 66
1
 10
0.0000
 20
0.0000
 30
0.0000
 40
0.0762
 41
0.0762
 70
0
  0
VERTEX
  8
20
 10
-16.7609
 20
11.4374
 30
0.0000
 42
1.0000
  0
VERTEX
  8
20
 10
-16.8371
 20
11.4374
 30
0.0000
  0
SEQEND
  8
0
  0
POLYLINE
  8
20
 66
1
 10
0.0000
 20
0.0000
 30
0.0000
 40
0.0762
 41
0.0762
 70
0
  0
VERTEX
  8
20
 10
-16.8371
 20
10.3537
 30
0.0000
 42
1.0000
  0
VERTEX
  8
20
 10
-16.7609
 20
10.3537
 30
0.0000
  0
SEQEND
  8
0
  0
POLYLINE
  8
20
 66
1
 10
0.0000
 20
0.0000
 30
0.0000
 40
0.1524
 41
0.1524
 70
0
  0
VERTEX
  8
20
 10
-16.7990
 20
11.4374
 30
0.0000
  0
VERTEX
  8
20
 10
-16.3474
 20
11.4374
 30
0.0000
  0
SEQEND
  8
0
  0
POLYLINE
  8
20
 66
1
 10
0.0000
 20
0.0000
 30
0.0000
 40
0.0762
 41
0.0762
 70
0
  0
VERTEX
  8
20
 10
-16.3474
 20
11.3993
 30
0.0000
 42
1.0000
  0
VERTEX
  8
20
 10
-16.3474
 20
11.4755
 30
0.0000
  0
SEQEND
  8
0
  0
POLYLINE
  8
20
 66
1
 10
0.0000
 20
0.0000
 30
0.0000
 40
0.0762
 41
0.0762
 70
0
  0
VERTEX
  8
20
 10
-16.7990
 20
11.4755
 30
0.0000
 42
1.0000
  0
VERTEX
  8
20
 10
-16.7990
 20
11.3993
 30
0.0000
  0
SEQEND
  8
0
  0
POLYLINE
  8
20
 66
1
 10
0.0000
 20
0.0000
 30
0.0000
 40
0.1524
 41
0.1524
 70
0
  0
VERTEX
  8
20
 10
-16.0765
 20
11.1665
 30
0.0000
 42
0.4142
  0
VERTEX
  8
20
 10
-16.3474
 20
11.4374
 30
0.0000
  0
SEQEND
  8
0
  0
POLYLINE
  8
20
 66
1
 10
0.0000
 20
0.0000
 30
0.0000
 40
0.0762
 41
0.0762
 70
0
  0
VERTEX
  8
20
 10
-16.1146
 20
11.1665
 30
0.0000
 42
1.0000
  0
VERTEX
  8
20
 10
-16.0384
 20
11.1665
 30
0.0000
  0
SEQEND
  8
0
  0
POLYLINE
  8
20
 66
1
 10
0.0000
 20
0.0000
 30
0.0000
 40
0.0762
 41
0.0762
 70
0
  0
VERTEX
  8
20
 10
-16.3474
 20
11.4755
 30
0.0000
 42
1.0000
  0
VERTEX
  8
20
 10
-16.3474
 20
11.3993
 30
0.0000
  0
SEQEND
  8
0
  0
POLYLINE
  8
20
 66
1
 10
0.0000
 20
0.0000
 30
0.0000
 40
0.1524
 41
0.1524
 70
0
  0
VERTEX
  8
20
 10
-16.0765
 20
11.1665
 30
0.0000
  0
VERTEX
  8
20
 10
-16.0765
 20
10.3537
 30
0.0000
  0
SEQEND
  8
0
  0
POLYLINE
  8
20
 66
1
 10
0.0000
 20
0.0000
 30
0.0000
 40
0.0762
 41
0.0762
 70
0
  0
VERTEX
  8
20
 10
-16.1146
 20
10.3537
 30
0.0000
 42
1.0000
  0
VERTEX
  8
20
 10
-16.0384
 20
10.3537
 30
0.0000
  0
SEQEND
  8
0
  0
POLYLINE
  8
20
 66
1
 10
0.0000
 20
0.0000
 30
0.0000
 40
0.0762
 41
0.0762
 70
0
  0
VERTEX
  8
20
 10
-16.0384
 20
11.1665
 30
0.0000
 42
1.0000
  0
VERTEX
  8
20
 10
-16.1146
 20
11.1665
 30
0.0000
  0
SEQEND
  8
0
  0
POLYLINE
  8
20
 66
1
 10
0.0000
 20
0.0000
 30
0.0000
 40
0.1524
 41
0.1524
 70
0
  0
VERTEX
  8
20
 10
-14.7582
 20
10.3537
 30
0.0000
  0
VERTEX
  8
20
 10
-15.1195
 20
10.3537
 30
0.0000
  0
SEQEND
  8
0
  0
POLYLINE
  8
20
 66
1
 10
0.0000
 20
0.0000
 30
0.0000
 40
0.0762
 41
0.0762
 70
0
  0
VERTEX
  8
20
 10
-15.1195
 20
10.3918
 30
0.0000
 42
1.0000
  0
VERTEX
  8
20
 10
-15.1195
 20
10.3156
 30
0.0000
  0
SEQEND
  8
0
  0
POLYLINE
  8
20
 66
1
 10
0.0000
 20
0.0000
 30
0.0000
 40
0.0762
 41
0.0762
 70
0
  0
VERTEX
  8
20
 10
-14.7582
 20
10.3156
 30
0.0000
 42
1.0000
  0
VERTEX
  8
20
 10
-14.7582
 20
10.3918
 30
0.0000
  0
SEQEND
  8
0
  0
POLYLINE
  8
20
 66
1
 10
0.0000
 20
0.0000
 30
0.0000
 40
0.1524
 41
0.1524
 70
0
  0
VERTEX
  8
20
 10
-15.3904
 20
10.6246
 30
0.0000
 42
0.4142
  0
VERTEX
  8
20
 10
-15.1195
 20
10.3537
 30
0.0000
  0
SEQEND
  8
0
  0
POLYLINE
  8
20
 66
1
 10
0.0000
 20
0.0000
 30
0.0000
 40
0.0762
 41
0.0762
 70
0
  0
VERTEX
  8
20
 10
-15.3523
 20
10.6246
 30
0.0000
 42
1.0000
  0
VERTEX
  8
20
 10
-15.4285
 20
10.6246
 30
0.0000
  0
SEQEND
  8
0
  0
POLYLINE
  8
20
 66
1
 10
0.0000
 20
0.0000
 30
0.0000
 40
0.0762
 41
0.0762
 70
0
  0
VERTEX
  8
20
 10
-15.1195
 20
10.3156
 30
0.0000
 42
1.0000
  0
VERTEX
  8
20
 10
-15.1195
 20
10.3918
 30
0.0000
  0
SEQEND
  8
0
  0
POLYLINE
  8
20
 66
1
 10
0.0000
 20
0.0000
 30
0.0000
 40
0.1524
 41
0.1524
 70
0
  0
VERTEX
  8
20
 10
-15.3904
 20
10.6246
 30
0.0000
  0
VERTEX
  8
20
 10
-15.3904
 20
11.1665
 30
0.0000
  0
SEQEND
  8
0
  0
POLYLINE
  8
20
 66
1
 10
0.0000
 20
0.0000
 30
0.0000
 40
0.0762
 41
0.0762
 70
0
  0
VERTEX
  8
20
 10
-15.3523
 20
11.1665
 30
0.0000
 42
1.0000
  0
VERTEX
  8
20
 10
-15.4285
 20
11.1665
 30
0.0000
  0
SEQEND
  8
0
  0
POLYLINE
  8
20
 66
1
 10
0.0000
 20
0.0000
 30
0.0000
 40
0.0762
 41
0.0762
 70
0
  0
VERTEX
  8
20
 10
-15.4285
 20
10.6246
 30
0.0000
 42
1.0000
  0
VERTEX
  8
20
 10
-15.3523
 20
10.6246
 30
0.0000
  0
SEQEND
  8
0
  0
POLYLINE
  8
20
 66
1
 10
0.0000
 20
0.0000
 30
0.0000
 40
0.1524
 41
0.1524
 70
0
  0
VERTEX
  8
20
 10
-15.1195
 20
11.4374
 30
0.0000
 42
0.4142
  0
VERTEX
  8
20
 10
-15.3904
 20
11.1665
 30
0.0000
  0
SEQEND
  8
0
  0
POLYLINE
  8
20
 66
1
 10
0.0000
 20
0.0000
 30
0.0000
 40
0.0762
 41
0.0762
 70
0
  0
VERTEX
  8
20
 10
-15.1195
 20
11.3993
 30
0.0000
 42
1.0000
  0
VERTEX
  8
20
 10
-15.1195
 20
11.4755
 30
0.0000
  0
SEQEND
  8
0
  0
POLYLINE
  8
20
 66
1
 10
0.0000
 20
0.0000
 30
0.0000
 40
0.0762
 41
0.0762
 70
0
  0
VERTEX
  8
20
 10
-15.4285
 20
11.1665
 30
0.0000
 42
1.0000
  0
VERTEX
  8
20
 10
-15.3523
 20
11.1665
 30
0.0000
  0
SEQEND
  8
0
  0
POLYLINE
  8
20
 66
1
 10
0.0000
 20
0.0000
 30
0.0000
 40
0.1524
 41
0.1524
 70
0
  0
VERTEX
  8
20
 10
-15.1195
 20
11.4374
 30
0.0000
  0
VERTEX
  8
20
 10
-14.7582
 20
11.4374
 30
0.0000
  0
SEQEND
  8
0
  0
POLYLINE
  8
20
 66
1
 10
0.0000
 20
0.0000
 30
0.0000
 40
0.0762
 41
0.0762
 70
0
  0
VERTEX
  8
20
 10
-14.7582
 20
11.3993
 30
0.0000
 42
1.0000
  0
VERTEX
  8
20
 10
-14.7582
 20
11.4755
 30
0.0000
  0
SEQEND
  8
0
  0
POLYLINE
  8
20
 66
1
 10
0.0000
 20
0.0000
 30
0.0000
 40
0.0762
 41
0.0762
 70
0
  0
VERTEX
  8
20
 10
-15.1195
 20
11.4755
 30
0.0000
 42
1.0000
  0
VERTEX
  8
20
 10
-15.1195
 20
11.3993
 30
0.0000
  0
SEQEND
  8
0
  0
POLYLINE
  8
20
 66
1
 10
0.0000
 20
0.0000
 30
0.0000
 40
0.1524
 41
0.1524
 70
0
  0
VERTEX
  8
20
 10
-13.4713
 20
10.3537
 30
0.0000
  0
VERTEX
  8
20
 10
-13.9228
 20
10.3537
 30
0.0000
  0
SEQEND
  8
0
  0
POLYLINE
  8
20
 66
1
 10
0.0000
 20
0.0000
 30
0.0000
 40
0.0762
 41
0.0762
 70
0
  0
VERTEX
  8
20
 10
-13.9228
 20
10.3918
 30
0.0000
 42
1.0000
  0
VERTEX
  8
20
 10
-13.9228
 20
10.3156
 30
0.0000
  0
SEQEND
  8
0
  0
POLYLINE
  8
20
 66
1
 10
0.0000
 20
0.0000
 30
0.0000
 40
0.0762
 41
0.0762
 70
0
  0
VERTEX
  8
20
 10
-13.4713
 20
10.3156
 30
0.0000
 42
1.0000
  0
VERTEX
  8
20
 10
-13.4713
 20
10.3918
 30
0.0000
  0
SEQEND
  8
0
  0
POLYLINE
  8
20
 66
1
 10
0.0000
 20
0.0000
 30
0.0000
 40
0.1524
 41
0.1524
 70
0
  0
VERTEX
  8
20
 10
-14.1938
 20
10.6246
 30
0.0000
 42
0.4142
  0
VERTEX
  8
20
 10
-13.9228
 20
10.3537
 30
0.0000
  0
SEQEND
  8
0
  0
POLYLINE
  8
20
 66
1
 10
0.0000
 20
0.0000
 30
0.0000
 40
0.0762
 41
0.0762
 70
0
  0
VERTEX
  8
20
 10
-14.1557
 20
10.6246
 30
0.0000
 42
1.0000
  0
VERTEX
  8
20
 10
-14.2319
 20
10.6246
 30
0.0000
  0
SEQEND
  8
0
  0
POLYLINE
  8
20
 66
1
 10
0.0000
 20
0.0000
 30
0.0000
 40
0.0762
 41
0.0762
 70
0
  0
VERTEX
  8
20
 10
-13.9228
 20
10.3156
 30
0.0000
 42
1.0000
  0
VERTEX
  8
20
 10
-13.9228
 20
10.3918
 30
0.0000
  0
SEQEND
  8
0
  0
POLYLINE
  8
20
 66
1
 10
0.0000
 20
0.0000
 30
0.0000
 40
0.1524
 41
0.1524
 70
0
  0
VERTEX
  8
20
 10
-14.1938
 20
10.6246
 30
0.0000
  0
VERTEX
  8
20
 10
-14.1938
 20
11.0762
 30
0.0000
  0
SEQEND
  8
0
  0
POLYLINE
  8
20
 66
1
 10
0.0000
 20
0.0000
 30
0.0000
 40
0.0762
 41
0.0762
 70
0
  0
VERTEX
  8
20
 10
-14.1557
 20
11.0762
 30
0.0000
 42
1.0000
  0
VERTEX
  8
20
 10
-14.2319
 20
11.0762
 30
0.0000
  0
SEQEND
  8
0
  0
POLYLINE
  8
20
 66
1
 10
0.0000
 20
0.0000
 30
0.0000
 40
0.0762
 41
0.0762
 70
0
  0
VERTEX
  8
20
 10
-14.2319
 20
10.6246
 30
0.0000
 42
1.0000
  0
VERTEX
  8
20
 10
-14.1557
 20
10.6246
 30
0.0000
  0
SEQEND
  8
0
  0
POLYLINE
  8
20
 66
1
 10
0.0000
 20
0.0000
 30
0.0000
 40
0.1524
 41
0.1524
 70
0
  0
VERTEX
  8
20
 10
-13.4713
 20
11.0762
 30
0.0000
 42
1.0000
  0
VERTEX
  8
20
 10
-14.1938
 20
11.0762
 30
0.0000
  0
SEQEND
  8
0
  0
POLYLINE
  8
20
 66
1
 10
0.0000
 20
0.0000
 30
0.0000
 40
0.0762
 41
0.0762
 70
0
  0
VERTEX
  8
20
 10
-13.5094
 20
11.0762
 30
0.0000
 42
1.0000
  0
VERTEX
  8
20
 10
-13.4332
 20
11.0762
 30
0.0000
  0
SEQEND
  8
0
  0
POLYLINE
  8
20
 66
1
 10
0.0000
 20
0.0000
 30
0.0000
 40
0.0762
 41
0.0762
 70
0
  0
VERTEX
  8
20
 10
-14.2319
 20
11.0762
 30
0.0000
 42
1.0000
  0
VERTEX
  8
20
 10
-14.1557
 20
11.0762
 30
0.0000
  0
SEQEND
  8
0
  0
POLYLINE
  8
20
 66
1
 10
0.0000
 20
0.0000
 30
0.0000
 40
0.1524
 41
0.1524
 70
0
  0
VERTEX
  8
20
 10
-13.4713
 20
11.0762
 30
0.0000
  0
VERTEX
  8
20
 10
-13.4713
 20
10.8956
 30
0.0000
  0
SEQEND
  8
0
  0
POLYLINE
  8
20
 66
1
 10
0.0000
 20
0.0000
 30
0.0000
 40
0.0762
 41
0.0762
 70
0
  0
VERTEX
  8
20
 10
-13.5094
 20
10.8956
 30
0.0000
 42
1.0000
  0
VERTEX
  8
20
 10
-13.4332
 20
10.8956
 30
0.0000
  0
SEQEND
  8
0
  0
POLYLINE
  8
20
 66
1
 10
0.0000
 20
0.0000
 30
0.0000
 40
0.0762
 41
0.0762
 70
0
  0
VERTEX
  8
20
 10
-13.4332
 20
11.0762
 30
0.0000
 42
1.0000
  0
VERTEX
  8
20
 10
-13.5094
 20
11.0762
 30
0.0000
  0
SEQEND
  8
0
  0
POLYLINE
  8
20
 66
1
 10
0.0000
 20
0.0000
 30
0.0000
 40
0.1524
 41
0.1524
 70
0
  0
VERTEX
  8
20
 10
-13.4713
 20
10.8956
 30
0.0000
  0
VERTEX
  8
20
 10
-14.1938
 20
10.8956
 30
0.0000
  0
SEQEND
  8
0
  0
POLYLINE
  8
20
 66
1
 10
0.0000
 20
0.0000
 30
0.0000
 40
0.0762
 41
0.0762
 70
0
  0
VERTEX
  8
20
 10
-14.1938
 20
10.9337
 30
0.0000
 42
1.0000
  0
VERTEX
  8
20
 10
-14.1938
 20
10.8575
 30
0.0000
  0
SEQEND
  8
0
  0
POLYLINE
  8
20
 66
1
 10
0.0000
 20
0.0000
 30
0.0000
 40
0.0762
 41
0.0762
 70
0
  0
VERTEX
  8
20
 10
-13.4713
 20
10.8575
 30
0.0000
 42
1.0000
  0
VERTEX
  8
20
 10
-13.4713
 20
10.9337
 30
0.0000
  0
SEQEND
  8
0
  0
POLYLINE
  8
1
 66
1
 10
0.0000
 20
0.0000
 30
0.0000
 40
1.4000
 41
1.4000
 70
0
  0
VERTEX
  8
1
 10
19.2400
 20
240.0000
 30
0.0000
 42
1.0000
  0
VERTEX
  8
1
 10
19.2400
 20
241.4000
 30
0.0000
 42
1.0000
  0
VERTEX
  8
1
 10
19.2400
 20
240.0000
 30
0.0000
  0
SEQEND
  8
0
  0
POLYLINE
  8
1
 66
1
 10
0.0000
 20
0.0000
 30
0.0000
 40
1.4000
 41
1.4000
 70
0
  0
VERTEX
  8
1
 10
82.2400
 20
240.0000
 30
0.0000
 42
1.0000
  0
VERTEX
  8
1
 10
82.2400
 20
241.4000
 30
0.0000
 42
1.0000
  0
VERTEX
  8
1
 10
82.2400
 20
240.0000
 30
0.0000
  0
SEQEND
  8
0
  0
POLYLINE
  8
1
 66
1
 10
0.0000
 20
0.0000
 30
0.0000
 40
1.4000
 41
1.4000
 70
0
  0
VERTEX
  8
1
 10
19.2400
 20
210.0000
 30
0.0000
 42
1.0000
  0
VERTEX
  8
1
 10
19.2400
 20
211.4000
 30
0.0000
 42
1.0000
  0
VERTEX
  8
1
 10
19.2400
 20
210.0000
 30
0.0000
  0
SEQEND
  8
0
  0
POLYLINE
  8
1
 66
1
 10
0.0000
 20
0.0000
 30
0.0000
 40
1.4000
 41
1.4000
 70
0
  0
VERTEX
  8
1
 10
82.2400
 20
203.0000
 30
0.0000
 42
1.0000
  0
VERTEX
  8
1
 10
82.2400
 20
204.4000
 30
0.0000
 42
1.0000
  0
VERTEX
  8
1
 10
82.2400
 20
203.0000
 30
0.0000
  0
SEQEND
  8
0
  0
POLYLINE
  8
1
 66
1
 10
0.0000
 20
0.0000
 30
0.0000
 40
1.4000
 41
1.4000
 70
0
  0
VERTEX
  8
1
 10
19.2400
 20
203.0000
 30
0.0000
 42
1.0000
  0
VERTEX
  8
1
 10
19.2400
 20
204.4000
 30
0.0000
 42
1.0000
  0
VERTEX
  8
1
 10
19.2400
 20
203.0000
 30
0.0000
  0
SEQEND
  8
0
  0
POLYLINE
  8
1
 66
1
 10
0.0000
 20
0.0000
 30
0.0000
 40
1.4000
 41
1.4000
 70
0
  0
VERTEX
  8
1
 10
19.2400
 20
197.0000
 30
0.0000
 42
1.0000
  0
VERTEX
  8
1
 10
19.2400
 20
198.4000
 30
0.0000
 42
1.0000
  0
VERTEX
  8
1
 10
19.2400
 20
197.0000
 30
0.0000
  0
SEQEND
  8
0
  0
POLYLINE
  8
1
 66
1
 10
0.0000
 20
0.0000
 30
0.0000
 40
1.4000
 41
1.4000
 70
0
  0
VERTEX
  8
1
 10
82.2400
 20
197.0000
 30
0.0000
 42
1.0000
  0
VERTEX
  8
1
 10
82.2400
 20
198.4000
 30
0.0000
 42
1.0000
  0
VERTEX
  8
1
 10
82.2400
 20
197.0000
 30
0.0000
  0
SEQEND
  8
0
  0
POLYLINE
  8
1
 66
1
 10
0.0000
 20
0.0000
 30
0.0000
 40
1.4000
 41
1.4000
 70
0
  0
VERTEX
  8
1
 10
82.2400
 20
140.0000
 30
0.0000
 42
1.0000
  0
VERTEX
  8
1
 10
82.2400
 20
141.4000
 30
0.0000
 42
1.0000
  0
VERTEX
  8
1
 10
82.2400
 20
140.0000
 30
0.0000
  0
SEQEND
  8
0
  0
POLYLINE
  8
1
 66
1
 10
0.0000
 20
0.0000
 30
0.0000
 40
1.4000
 41
1.4000
 70
0
  0
VERTEX
  8
1
 10
19.2400
 20
110.0000
 30
0.0000
 42
1.0000
  0
VERTEX
  8
1
 10
19.2400
 20
111.4000
 30
0.0000
 42
1.0000
  0
VERTEX
  8
1
 10
19.2400
 20
110.0000
 30
0.0000
  0
SEQEND
  8
0
  0
POLYLINE
  8
1
 66
1
 10
0.0000
 20
0.0000
 30
0.0000
 40
1.4000
 41
1.4000
 70
0
  0
VERTEX
  8
1
 10
82.2400
 20
110.0000
 30
0.0000
 42
1.0000
  0
VERTEX
  8
1
 10
82.2400
 20
111.4000
 30
0.0000
 42
1.0000
  0
VERTEX
  8
1
 10
82.2400
 20
110.0000
 30
0.0000
  0
SEQEND
  8
0
  0
POLYLINE
  8
1
 66
1
 10
0.0000
 20
0.0000
 30
0.0000
 40
1.4000
 41
1.4000
 70
0
  0
VERTEX
  8
1
 10
19.2400
 20
103.0000
 30
0.0000
 42
1.0000
  0
VERTEX
  8
1
 10
19.2400
 20
104.4000
 30
0.0000
 42
1.0000
  0
VERTEX
  8
1
 10
19.2400
 20
103.0000
 30
0.0000
  0
SEQEND
  8
0
  0
POLYLINE
  8
1
 66
1
 10
0.0000
 20
0.0000
 30
0.0000
 40
1.4000
 41
1.4000
 70
0
  0
VERTEX
  8
1
 10
82.2400
 20
103.0000
 30
0.0000
 42
1.0000
  0
VERTEX
  8
1
 10
82.2400
 20
104.4000
 30
0.0000
 42
1.0000
  0
VERTEX
  8
1
 10
82.2400
 20
103.0000
 30
0.0000
  0
SEQEND
  8
0
  0
POLYLINE
  8
1
 66
1
 10
0.0000
 20
0.0000
 30
0.0000
 40
1.4000
 41
1.4000
 70
0
  0
VERTEX
  8
1
 10
82.2400
 20
46.0000
 30
0.0000
 42
1.0000
  0
VERTEX
  8
1
 10
82.2400
 20
47.4000
 30
0.0000
 42
1.0000
  0
VERTEX
  8
1
 10
82.2400
 20
46.0000
 30
0.0000
  0
SEQEND
  8
0
  0
POLYLINE
  8
1
 66
1
 10
0.0000
 20
0.0000
 30
0.0000
 40
1.4000
 41
1.4000
 70
0
  0
VERTEX
  8
1
 10
82.2400
 20
16.0000
 30
0.0000
 42
1.0000
  0
VERTEX
  8
1
 10
82.2400
 20
17.4000
 30
0.0000
 42
1.0000
  0
VERTEX
  8
1
 10
82.2400
 20
16.0000
 30
0.0000
  0
SEQEND
  8
0
  0
POLYLINE
  8
1
 66
1
 10
0.0000
 20
0.0000
 30
0.0000
 40
1.4000
 41
1.4000
 70
0
  0
VERTEX
  8
1
 10
19.2400
 20
16.0000
 30
0.0000
 42
1.0000
  0
VERTEX
  8
1
 10
19.2400
 20
17.4000
 30
0.0000
 42
1.0000
  0
VERTEX
  8
1
 10
19.2400
 20
16.0000
 30
0.0000
  0
SEQEND
  8
0
  0
ENDSEC
  0
EOF
