G75*
%MOIN*%
%OFA0B0*%
%FSLAX25Y25*%
%IPPOS*%
%LPD*%
%AMOC8*
5,1,8,0,0,1.08239X$1,22.5*
%
%ADD10C,0.00000*%
%ADD11R,0.06000X0.06000*%
%ADD12R,0.03200X0.07000*%
%ADD13R,0.10000X0.10000*%
%ADD14R,0.06299X0.06102*%
%ADD15R,0.05512X0.04331*%
%ADD16R,0.04724X0.04724*%
%ADD17R,0.05906X0.02756*%
%ADD18R,0.02362X0.03937*%
%ADD19R,0.03150X0.03937*%
%ADD20R,0.18110X0.03937*%
%ADD21R,0.13386X0.06299*%
D10*
X0003248Y0005437D02*
X0003248Y0367642D01*
X0003250Y0367766D01*
X0003256Y0367889D01*
X0003265Y0368013D01*
X0003279Y0368135D01*
X0003296Y0368258D01*
X0003318Y0368380D01*
X0003343Y0368501D01*
X0003372Y0368621D01*
X0003404Y0368740D01*
X0003441Y0368859D01*
X0003481Y0368976D01*
X0003524Y0369091D01*
X0003572Y0369206D01*
X0003623Y0369318D01*
X0003677Y0369429D01*
X0003735Y0369539D01*
X0003796Y0369646D01*
X0003861Y0369752D01*
X0003929Y0369855D01*
X0004000Y0369956D01*
X0004074Y0370055D01*
X0004151Y0370152D01*
X0004232Y0370246D01*
X0004315Y0370337D01*
X0004401Y0370426D01*
X0004490Y0370512D01*
X0004581Y0370595D01*
X0004675Y0370676D01*
X0004772Y0370753D01*
X0004871Y0370827D01*
X0004972Y0370898D01*
X0005075Y0370966D01*
X0005181Y0371031D01*
X0005288Y0371092D01*
X0005398Y0371150D01*
X0005509Y0371204D01*
X0005621Y0371255D01*
X0005736Y0371303D01*
X0005851Y0371346D01*
X0005968Y0371386D01*
X0006087Y0371423D01*
X0006206Y0371455D01*
X0006326Y0371484D01*
X0006447Y0371509D01*
X0006569Y0371531D01*
X0006692Y0371548D01*
X0006814Y0371562D01*
X0006938Y0371571D01*
X0007061Y0371577D01*
X0007185Y0371579D01*
X0278839Y0371579D01*
X0278963Y0371577D01*
X0279086Y0371571D01*
X0279210Y0371562D01*
X0279332Y0371548D01*
X0279455Y0371531D01*
X0279577Y0371509D01*
X0279698Y0371484D01*
X0279818Y0371455D01*
X0279937Y0371423D01*
X0280056Y0371386D01*
X0280173Y0371346D01*
X0280288Y0371303D01*
X0280403Y0371255D01*
X0280515Y0371204D01*
X0280626Y0371150D01*
X0280736Y0371092D01*
X0280843Y0371031D01*
X0280949Y0370966D01*
X0281052Y0370898D01*
X0281153Y0370827D01*
X0281252Y0370753D01*
X0281349Y0370676D01*
X0281443Y0370595D01*
X0281534Y0370512D01*
X0281623Y0370426D01*
X0281709Y0370337D01*
X0281792Y0370246D01*
X0281873Y0370152D01*
X0281950Y0370055D01*
X0282024Y0369956D01*
X0282095Y0369855D01*
X0282163Y0369752D01*
X0282228Y0369646D01*
X0282289Y0369539D01*
X0282347Y0369429D01*
X0282401Y0369318D01*
X0282452Y0369206D01*
X0282500Y0369091D01*
X0282543Y0368976D01*
X0282583Y0368859D01*
X0282620Y0368740D01*
X0282652Y0368621D01*
X0282681Y0368501D01*
X0282706Y0368380D01*
X0282728Y0368258D01*
X0282745Y0368135D01*
X0282759Y0368013D01*
X0282768Y0367889D01*
X0282774Y0367766D01*
X0282776Y0367642D01*
X0282776Y0005437D01*
X0282774Y0005313D01*
X0282768Y0005190D01*
X0282759Y0005066D01*
X0282745Y0004944D01*
X0282728Y0004821D01*
X0282706Y0004699D01*
X0282681Y0004578D01*
X0282652Y0004458D01*
X0282620Y0004339D01*
X0282583Y0004220D01*
X0282543Y0004103D01*
X0282500Y0003988D01*
X0282452Y0003873D01*
X0282401Y0003761D01*
X0282347Y0003650D01*
X0282289Y0003540D01*
X0282228Y0003433D01*
X0282163Y0003327D01*
X0282095Y0003224D01*
X0282024Y0003123D01*
X0281950Y0003024D01*
X0281873Y0002927D01*
X0281792Y0002833D01*
X0281709Y0002742D01*
X0281623Y0002653D01*
X0281534Y0002567D01*
X0281443Y0002484D01*
X0281349Y0002403D01*
X0281252Y0002326D01*
X0281153Y0002252D01*
X0281052Y0002181D01*
X0280949Y0002113D01*
X0280843Y0002048D01*
X0280736Y0001987D01*
X0280626Y0001929D01*
X0280515Y0001875D01*
X0280403Y0001824D01*
X0280288Y0001776D01*
X0280173Y0001733D01*
X0280056Y0001693D01*
X0279937Y0001656D01*
X0279818Y0001624D01*
X0279698Y0001595D01*
X0279577Y0001570D01*
X0279455Y0001548D01*
X0279332Y0001531D01*
X0279210Y0001517D01*
X0279086Y0001508D01*
X0278963Y0001502D01*
X0278839Y0001500D01*
X0007185Y0001500D01*
X0007061Y0001502D01*
X0006938Y0001508D01*
X0006814Y0001517D01*
X0006692Y0001531D01*
X0006569Y0001548D01*
X0006447Y0001570D01*
X0006326Y0001595D01*
X0006206Y0001624D01*
X0006087Y0001656D01*
X0005968Y0001693D01*
X0005851Y0001733D01*
X0005736Y0001776D01*
X0005621Y0001824D01*
X0005509Y0001875D01*
X0005398Y0001929D01*
X0005288Y0001987D01*
X0005181Y0002048D01*
X0005075Y0002113D01*
X0004972Y0002181D01*
X0004871Y0002252D01*
X0004772Y0002326D01*
X0004675Y0002403D01*
X0004581Y0002484D01*
X0004490Y0002567D01*
X0004401Y0002653D01*
X0004315Y0002742D01*
X0004232Y0002833D01*
X0004151Y0002927D01*
X0004074Y0003024D01*
X0004000Y0003123D01*
X0003929Y0003224D01*
X0003861Y0003327D01*
X0003796Y0003433D01*
X0003735Y0003540D01*
X0003677Y0003650D01*
X0003623Y0003761D01*
X0003572Y0003873D01*
X0003524Y0003988D01*
X0003481Y0004103D01*
X0003441Y0004220D01*
X0003404Y0004339D01*
X0003372Y0004458D01*
X0003343Y0004578D01*
X0003318Y0004699D01*
X0003296Y0004821D01*
X0003279Y0004944D01*
X0003265Y0005066D01*
X0003256Y0005190D01*
X0003250Y0005313D01*
X0003248Y0005437D01*
X0013484Y0017248D02*
X0013486Y0017396D01*
X0013492Y0017544D01*
X0013502Y0017692D01*
X0013516Y0017839D01*
X0013534Y0017986D01*
X0013555Y0018132D01*
X0013581Y0018278D01*
X0013611Y0018423D01*
X0013644Y0018567D01*
X0013682Y0018710D01*
X0013723Y0018852D01*
X0013768Y0018993D01*
X0013816Y0019133D01*
X0013869Y0019272D01*
X0013925Y0019409D01*
X0013985Y0019544D01*
X0014048Y0019678D01*
X0014115Y0019810D01*
X0014186Y0019940D01*
X0014260Y0020068D01*
X0014337Y0020194D01*
X0014418Y0020318D01*
X0014502Y0020440D01*
X0014589Y0020559D01*
X0014680Y0020676D01*
X0014774Y0020791D01*
X0014870Y0020903D01*
X0014970Y0021013D01*
X0015072Y0021119D01*
X0015178Y0021223D01*
X0015286Y0021324D01*
X0015397Y0021422D01*
X0015510Y0021518D01*
X0015626Y0021610D01*
X0015744Y0021699D01*
X0015865Y0021784D01*
X0015988Y0021867D01*
X0016113Y0021946D01*
X0016240Y0022022D01*
X0016369Y0022094D01*
X0016500Y0022163D01*
X0016633Y0022228D01*
X0016768Y0022289D01*
X0016904Y0022347D01*
X0017041Y0022402D01*
X0017180Y0022452D01*
X0017321Y0022499D01*
X0017462Y0022542D01*
X0017605Y0022582D01*
X0017749Y0022617D01*
X0017893Y0022649D01*
X0018039Y0022676D01*
X0018185Y0022700D01*
X0018332Y0022720D01*
X0018479Y0022736D01*
X0018626Y0022748D01*
X0018774Y0022756D01*
X0018922Y0022760D01*
X0019070Y0022760D01*
X0019218Y0022756D01*
X0019366Y0022748D01*
X0019513Y0022736D01*
X0019660Y0022720D01*
X0019807Y0022700D01*
X0019953Y0022676D01*
X0020099Y0022649D01*
X0020243Y0022617D01*
X0020387Y0022582D01*
X0020530Y0022542D01*
X0020671Y0022499D01*
X0020812Y0022452D01*
X0020951Y0022402D01*
X0021088Y0022347D01*
X0021224Y0022289D01*
X0021359Y0022228D01*
X0021492Y0022163D01*
X0021623Y0022094D01*
X0021752Y0022022D01*
X0021879Y0021946D01*
X0022004Y0021867D01*
X0022127Y0021784D01*
X0022248Y0021699D01*
X0022366Y0021610D01*
X0022482Y0021518D01*
X0022595Y0021422D01*
X0022706Y0021324D01*
X0022814Y0021223D01*
X0022920Y0021119D01*
X0023022Y0021013D01*
X0023122Y0020903D01*
X0023218Y0020791D01*
X0023312Y0020676D01*
X0023403Y0020559D01*
X0023490Y0020440D01*
X0023574Y0020318D01*
X0023655Y0020194D01*
X0023732Y0020068D01*
X0023806Y0019940D01*
X0023877Y0019810D01*
X0023944Y0019678D01*
X0024007Y0019544D01*
X0024067Y0019409D01*
X0024123Y0019272D01*
X0024176Y0019133D01*
X0024224Y0018993D01*
X0024269Y0018852D01*
X0024310Y0018710D01*
X0024348Y0018567D01*
X0024381Y0018423D01*
X0024411Y0018278D01*
X0024437Y0018132D01*
X0024458Y0017986D01*
X0024476Y0017839D01*
X0024490Y0017692D01*
X0024500Y0017544D01*
X0024506Y0017396D01*
X0024508Y0017248D01*
X0024506Y0017100D01*
X0024500Y0016952D01*
X0024490Y0016804D01*
X0024476Y0016657D01*
X0024458Y0016510D01*
X0024437Y0016364D01*
X0024411Y0016218D01*
X0024381Y0016073D01*
X0024348Y0015929D01*
X0024310Y0015786D01*
X0024269Y0015644D01*
X0024224Y0015503D01*
X0024176Y0015363D01*
X0024123Y0015224D01*
X0024067Y0015087D01*
X0024007Y0014952D01*
X0023944Y0014818D01*
X0023877Y0014686D01*
X0023806Y0014556D01*
X0023732Y0014428D01*
X0023655Y0014302D01*
X0023574Y0014178D01*
X0023490Y0014056D01*
X0023403Y0013937D01*
X0023312Y0013820D01*
X0023218Y0013705D01*
X0023122Y0013593D01*
X0023022Y0013483D01*
X0022920Y0013377D01*
X0022814Y0013273D01*
X0022706Y0013172D01*
X0022595Y0013074D01*
X0022482Y0012978D01*
X0022366Y0012886D01*
X0022248Y0012797D01*
X0022127Y0012712D01*
X0022004Y0012629D01*
X0021879Y0012550D01*
X0021752Y0012474D01*
X0021623Y0012402D01*
X0021492Y0012333D01*
X0021359Y0012268D01*
X0021224Y0012207D01*
X0021088Y0012149D01*
X0020951Y0012094D01*
X0020812Y0012044D01*
X0020671Y0011997D01*
X0020530Y0011954D01*
X0020387Y0011914D01*
X0020243Y0011879D01*
X0020099Y0011847D01*
X0019953Y0011820D01*
X0019807Y0011796D01*
X0019660Y0011776D01*
X0019513Y0011760D01*
X0019366Y0011748D01*
X0019218Y0011740D01*
X0019070Y0011736D01*
X0018922Y0011736D01*
X0018774Y0011740D01*
X0018626Y0011748D01*
X0018479Y0011760D01*
X0018332Y0011776D01*
X0018185Y0011796D01*
X0018039Y0011820D01*
X0017893Y0011847D01*
X0017749Y0011879D01*
X0017605Y0011914D01*
X0017462Y0011954D01*
X0017321Y0011997D01*
X0017180Y0012044D01*
X0017041Y0012094D01*
X0016904Y0012149D01*
X0016768Y0012207D01*
X0016633Y0012268D01*
X0016500Y0012333D01*
X0016369Y0012402D01*
X0016240Y0012474D01*
X0016113Y0012550D01*
X0015988Y0012629D01*
X0015865Y0012712D01*
X0015744Y0012797D01*
X0015626Y0012886D01*
X0015510Y0012978D01*
X0015397Y0013074D01*
X0015286Y0013172D01*
X0015178Y0013273D01*
X0015072Y0013377D01*
X0014970Y0013483D01*
X0014870Y0013593D01*
X0014774Y0013705D01*
X0014680Y0013820D01*
X0014589Y0013937D01*
X0014502Y0014056D01*
X0014418Y0014178D01*
X0014337Y0014302D01*
X0014260Y0014428D01*
X0014186Y0014556D01*
X0014115Y0014686D01*
X0014048Y0014818D01*
X0013985Y0014952D01*
X0013925Y0015087D01*
X0013869Y0015224D01*
X0013816Y0015363D01*
X0013768Y0015503D01*
X0013723Y0015644D01*
X0013682Y0015786D01*
X0013644Y0015929D01*
X0013611Y0016073D01*
X0013581Y0016218D01*
X0013555Y0016364D01*
X0013534Y0016510D01*
X0013516Y0016657D01*
X0013502Y0016804D01*
X0013492Y0016952D01*
X0013486Y0017100D01*
X0013484Y0017248D01*
X0261516Y0017248D02*
X0261518Y0017396D01*
X0261524Y0017544D01*
X0261534Y0017692D01*
X0261548Y0017839D01*
X0261566Y0017986D01*
X0261587Y0018132D01*
X0261613Y0018278D01*
X0261643Y0018423D01*
X0261676Y0018567D01*
X0261714Y0018710D01*
X0261755Y0018852D01*
X0261800Y0018993D01*
X0261848Y0019133D01*
X0261901Y0019272D01*
X0261957Y0019409D01*
X0262017Y0019544D01*
X0262080Y0019678D01*
X0262147Y0019810D01*
X0262218Y0019940D01*
X0262292Y0020068D01*
X0262369Y0020194D01*
X0262450Y0020318D01*
X0262534Y0020440D01*
X0262621Y0020559D01*
X0262712Y0020676D01*
X0262806Y0020791D01*
X0262902Y0020903D01*
X0263002Y0021013D01*
X0263104Y0021119D01*
X0263210Y0021223D01*
X0263318Y0021324D01*
X0263429Y0021422D01*
X0263542Y0021518D01*
X0263658Y0021610D01*
X0263776Y0021699D01*
X0263897Y0021784D01*
X0264020Y0021867D01*
X0264145Y0021946D01*
X0264272Y0022022D01*
X0264401Y0022094D01*
X0264532Y0022163D01*
X0264665Y0022228D01*
X0264800Y0022289D01*
X0264936Y0022347D01*
X0265073Y0022402D01*
X0265212Y0022452D01*
X0265353Y0022499D01*
X0265494Y0022542D01*
X0265637Y0022582D01*
X0265781Y0022617D01*
X0265925Y0022649D01*
X0266071Y0022676D01*
X0266217Y0022700D01*
X0266364Y0022720D01*
X0266511Y0022736D01*
X0266658Y0022748D01*
X0266806Y0022756D01*
X0266954Y0022760D01*
X0267102Y0022760D01*
X0267250Y0022756D01*
X0267398Y0022748D01*
X0267545Y0022736D01*
X0267692Y0022720D01*
X0267839Y0022700D01*
X0267985Y0022676D01*
X0268131Y0022649D01*
X0268275Y0022617D01*
X0268419Y0022582D01*
X0268562Y0022542D01*
X0268703Y0022499D01*
X0268844Y0022452D01*
X0268983Y0022402D01*
X0269120Y0022347D01*
X0269256Y0022289D01*
X0269391Y0022228D01*
X0269524Y0022163D01*
X0269655Y0022094D01*
X0269784Y0022022D01*
X0269911Y0021946D01*
X0270036Y0021867D01*
X0270159Y0021784D01*
X0270280Y0021699D01*
X0270398Y0021610D01*
X0270514Y0021518D01*
X0270627Y0021422D01*
X0270738Y0021324D01*
X0270846Y0021223D01*
X0270952Y0021119D01*
X0271054Y0021013D01*
X0271154Y0020903D01*
X0271250Y0020791D01*
X0271344Y0020676D01*
X0271435Y0020559D01*
X0271522Y0020440D01*
X0271606Y0020318D01*
X0271687Y0020194D01*
X0271764Y0020068D01*
X0271838Y0019940D01*
X0271909Y0019810D01*
X0271976Y0019678D01*
X0272039Y0019544D01*
X0272099Y0019409D01*
X0272155Y0019272D01*
X0272208Y0019133D01*
X0272256Y0018993D01*
X0272301Y0018852D01*
X0272342Y0018710D01*
X0272380Y0018567D01*
X0272413Y0018423D01*
X0272443Y0018278D01*
X0272469Y0018132D01*
X0272490Y0017986D01*
X0272508Y0017839D01*
X0272522Y0017692D01*
X0272532Y0017544D01*
X0272538Y0017396D01*
X0272540Y0017248D01*
X0272538Y0017100D01*
X0272532Y0016952D01*
X0272522Y0016804D01*
X0272508Y0016657D01*
X0272490Y0016510D01*
X0272469Y0016364D01*
X0272443Y0016218D01*
X0272413Y0016073D01*
X0272380Y0015929D01*
X0272342Y0015786D01*
X0272301Y0015644D01*
X0272256Y0015503D01*
X0272208Y0015363D01*
X0272155Y0015224D01*
X0272099Y0015087D01*
X0272039Y0014952D01*
X0271976Y0014818D01*
X0271909Y0014686D01*
X0271838Y0014556D01*
X0271764Y0014428D01*
X0271687Y0014302D01*
X0271606Y0014178D01*
X0271522Y0014056D01*
X0271435Y0013937D01*
X0271344Y0013820D01*
X0271250Y0013705D01*
X0271154Y0013593D01*
X0271054Y0013483D01*
X0270952Y0013377D01*
X0270846Y0013273D01*
X0270738Y0013172D01*
X0270627Y0013074D01*
X0270514Y0012978D01*
X0270398Y0012886D01*
X0270280Y0012797D01*
X0270159Y0012712D01*
X0270036Y0012629D01*
X0269911Y0012550D01*
X0269784Y0012474D01*
X0269655Y0012402D01*
X0269524Y0012333D01*
X0269391Y0012268D01*
X0269256Y0012207D01*
X0269120Y0012149D01*
X0268983Y0012094D01*
X0268844Y0012044D01*
X0268703Y0011997D01*
X0268562Y0011954D01*
X0268419Y0011914D01*
X0268275Y0011879D01*
X0268131Y0011847D01*
X0267985Y0011820D01*
X0267839Y0011796D01*
X0267692Y0011776D01*
X0267545Y0011760D01*
X0267398Y0011748D01*
X0267250Y0011740D01*
X0267102Y0011736D01*
X0266954Y0011736D01*
X0266806Y0011740D01*
X0266658Y0011748D01*
X0266511Y0011760D01*
X0266364Y0011776D01*
X0266217Y0011796D01*
X0266071Y0011820D01*
X0265925Y0011847D01*
X0265781Y0011879D01*
X0265637Y0011914D01*
X0265494Y0011954D01*
X0265353Y0011997D01*
X0265212Y0012044D01*
X0265073Y0012094D01*
X0264936Y0012149D01*
X0264800Y0012207D01*
X0264665Y0012268D01*
X0264532Y0012333D01*
X0264401Y0012402D01*
X0264272Y0012474D01*
X0264145Y0012550D01*
X0264020Y0012629D01*
X0263897Y0012712D01*
X0263776Y0012797D01*
X0263658Y0012886D01*
X0263542Y0012978D01*
X0263429Y0013074D01*
X0263318Y0013172D01*
X0263210Y0013273D01*
X0263104Y0013377D01*
X0263002Y0013483D01*
X0262902Y0013593D01*
X0262806Y0013705D01*
X0262712Y0013820D01*
X0262621Y0013937D01*
X0262534Y0014056D01*
X0262450Y0014178D01*
X0262369Y0014302D01*
X0262292Y0014428D01*
X0262218Y0014556D01*
X0262147Y0014686D01*
X0262080Y0014818D01*
X0262017Y0014952D01*
X0261957Y0015087D01*
X0261901Y0015224D01*
X0261848Y0015363D01*
X0261800Y0015503D01*
X0261755Y0015644D01*
X0261714Y0015786D01*
X0261676Y0015929D01*
X0261643Y0016073D01*
X0261613Y0016218D01*
X0261587Y0016364D01*
X0261566Y0016510D01*
X0261548Y0016657D01*
X0261534Y0016804D01*
X0261524Y0016952D01*
X0261518Y0017100D01*
X0261516Y0017248D01*
X0261516Y0135358D02*
X0261518Y0135506D01*
X0261524Y0135654D01*
X0261534Y0135802D01*
X0261548Y0135949D01*
X0261566Y0136096D01*
X0261587Y0136242D01*
X0261613Y0136388D01*
X0261643Y0136533D01*
X0261676Y0136677D01*
X0261714Y0136820D01*
X0261755Y0136962D01*
X0261800Y0137103D01*
X0261848Y0137243D01*
X0261901Y0137382D01*
X0261957Y0137519D01*
X0262017Y0137654D01*
X0262080Y0137788D01*
X0262147Y0137920D01*
X0262218Y0138050D01*
X0262292Y0138178D01*
X0262369Y0138304D01*
X0262450Y0138428D01*
X0262534Y0138550D01*
X0262621Y0138669D01*
X0262712Y0138786D01*
X0262806Y0138901D01*
X0262902Y0139013D01*
X0263002Y0139123D01*
X0263104Y0139229D01*
X0263210Y0139333D01*
X0263318Y0139434D01*
X0263429Y0139532D01*
X0263542Y0139628D01*
X0263658Y0139720D01*
X0263776Y0139809D01*
X0263897Y0139894D01*
X0264020Y0139977D01*
X0264145Y0140056D01*
X0264272Y0140132D01*
X0264401Y0140204D01*
X0264532Y0140273D01*
X0264665Y0140338D01*
X0264800Y0140399D01*
X0264936Y0140457D01*
X0265073Y0140512D01*
X0265212Y0140562D01*
X0265353Y0140609D01*
X0265494Y0140652D01*
X0265637Y0140692D01*
X0265781Y0140727D01*
X0265925Y0140759D01*
X0266071Y0140786D01*
X0266217Y0140810D01*
X0266364Y0140830D01*
X0266511Y0140846D01*
X0266658Y0140858D01*
X0266806Y0140866D01*
X0266954Y0140870D01*
X0267102Y0140870D01*
X0267250Y0140866D01*
X0267398Y0140858D01*
X0267545Y0140846D01*
X0267692Y0140830D01*
X0267839Y0140810D01*
X0267985Y0140786D01*
X0268131Y0140759D01*
X0268275Y0140727D01*
X0268419Y0140692D01*
X0268562Y0140652D01*
X0268703Y0140609D01*
X0268844Y0140562D01*
X0268983Y0140512D01*
X0269120Y0140457D01*
X0269256Y0140399D01*
X0269391Y0140338D01*
X0269524Y0140273D01*
X0269655Y0140204D01*
X0269784Y0140132D01*
X0269911Y0140056D01*
X0270036Y0139977D01*
X0270159Y0139894D01*
X0270280Y0139809D01*
X0270398Y0139720D01*
X0270514Y0139628D01*
X0270627Y0139532D01*
X0270738Y0139434D01*
X0270846Y0139333D01*
X0270952Y0139229D01*
X0271054Y0139123D01*
X0271154Y0139013D01*
X0271250Y0138901D01*
X0271344Y0138786D01*
X0271435Y0138669D01*
X0271522Y0138550D01*
X0271606Y0138428D01*
X0271687Y0138304D01*
X0271764Y0138178D01*
X0271838Y0138050D01*
X0271909Y0137920D01*
X0271976Y0137788D01*
X0272039Y0137654D01*
X0272099Y0137519D01*
X0272155Y0137382D01*
X0272208Y0137243D01*
X0272256Y0137103D01*
X0272301Y0136962D01*
X0272342Y0136820D01*
X0272380Y0136677D01*
X0272413Y0136533D01*
X0272443Y0136388D01*
X0272469Y0136242D01*
X0272490Y0136096D01*
X0272508Y0135949D01*
X0272522Y0135802D01*
X0272532Y0135654D01*
X0272538Y0135506D01*
X0272540Y0135358D01*
X0272538Y0135210D01*
X0272532Y0135062D01*
X0272522Y0134914D01*
X0272508Y0134767D01*
X0272490Y0134620D01*
X0272469Y0134474D01*
X0272443Y0134328D01*
X0272413Y0134183D01*
X0272380Y0134039D01*
X0272342Y0133896D01*
X0272301Y0133754D01*
X0272256Y0133613D01*
X0272208Y0133473D01*
X0272155Y0133334D01*
X0272099Y0133197D01*
X0272039Y0133062D01*
X0271976Y0132928D01*
X0271909Y0132796D01*
X0271838Y0132666D01*
X0271764Y0132538D01*
X0271687Y0132412D01*
X0271606Y0132288D01*
X0271522Y0132166D01*
X0271435Y0132047D01*
X0271344Y0131930D01*
X0271250Y0131815D01*
X0271154Y0131703D01*
X0271054Y0131593D01*
X0270952Y0131487D01*
X0270846Y0131383D01*
X0270738Y0131282D01*
X0270627Y0131184D01*
X0270514Y0131088D01*
X0270398Y0130996D01*
X0270280Y0130907D01*
X0270159Y0130822D01*
X0270036Y0130739D01*
X0269911Y0130660D01*
X0269784Y0130584D01*
X0269655Y0130512D01*
X0269524Y0130443D01*
X0269391Y0130378D01*
X0269256Y0130317D01*
X0269120Y0130259D01*
X0268983Y0130204D01*
X0268844Y0130154D01*
X0268703Y0130107D01*
X0268562Y0130064D01*
X0268419Y0130024D01*
X0268275Y0129989D01*
X0268131Y0129957D01*
X0267985Y0129930D01*
X0267839Y0129906D01*
X0267692Y0129886D01*
X0267545Y0129870D01*
X0267398Y0129858D01*
X0267250Y0129850D01*
X0267102Y0129846D01*
X0266954Y0129846D01*
X0266806Y0129850D01*
X0266658Y0129858D01*
X0266511Y0129870D01*
X0266364Y0129886D01*
X0266217Y0129906D01*
X0266071Y0129930D01*
X0265925Y0129957D01*
X0265781Y0129989D01*
X0265637Y0130024D01*
X0265494Y0130064D01*
X0265353Y0130107D01*
X0265212Y0130154D01*
X0265073Y0130204D01*
X0264936Y0130259D01*
X0264800Y0130317D01*
X0264665Y0130378D01*
X0264532Y0130443D01*
X0264401Y0130512D01*
X0264272Y0130584D01*
X0264145Y0130660D01*
X0264020Y0130739D01*
X0263897Y0130822D01*
X0263776Y0130907D01*
X0263658Y0130996D01*
X0263542Y0131088D01*
X0263429Y0131184D01*
X0263318Y0131282D01*
X0263210Y0131383D01*
X0263104Y0131487D01*
X0263002Y0131593D01*
X0262902Y0131703D01*
X0262806Y0131815D01*
X0262712Y0131930D01*
X0262621Y0132047D01*
X0262534Y0132166D01*
X0262450Y0132288D01*
X0262369Y0132412D01*
X0262292Y0132538D01*
X0262218Y0132666D01*
X0262147Y0132796D01*
X0262080Y0132928D01*
X0262017Y0133062D01*
X0261957Y0133197D01*
X0261901Y0133334D01*
X0261848Y0133473D01*
X0261800Y0133613D01*
X0261755Y0133754D01*
X0261714Y0133896D01*
X0261676Y0134039D01*
X0261643Y0134183D01*
X0261613Y0134328D01*
X0261587Y0134474D01*
X0261566Y0134620D01*
X0261548Y0134767D01*
X0261534Y0134914D01*
X0261524Y0135062D01*
X0261518Y0135210D01*
X0261516Y0135358D01*
X0271752Y0314492D02*
X0271754Y0314576D01*
X0271760Y0314659D01*
X0271770Y0314742D01*
X0271784Y0314825D01*
X0271801Y0314907D01*
X0271823Y0314988D01*
X0271848Y0315067D01*
X0271877Y0315146D01*
X0271910Y0315223D01*
X0271946Y0315298D01*
X0271986Y0315372D01*
X0272029Y0315444D01*
X0272076Y0315513D01*
X0272126Y0315580D01*
X0272179Y0315645D01*
X0272235Y0315707D01*
X0272293Y0315767D01*
X0272355Y0315824D01*
X0272419Y0315877D01*
X0272486Y0315928D01*
X0272555Y0315975D01*
X0272626Y0316020D01*
X0272699Y0316060D01*
X0272774Y0316097D01*
X0272851Y0316131D01*
X0272929Y0316161D01*
X0273008Y0316187D01*
X0273089Y0316210D01*
X0273171Y0316228D01*
X0273253Y0316243D01*
X0273336Y0316254D01*
X0273419Y0316261D01*
X0273503Y0316264D01*
X0273587Y0316263D01*
X0273670Y0316258D01*
X0273754Y0316249D01*
X0273836Y0316236D01*
X0273918Y0316220D01*
X0273999Y0316199D01*
X0274080Y0316175D01*
X0274158Y0316147D01*
X0274236Y0316115D01*
X0274312Y0316079D01*
X0274386Y0316040D01*
X0274458Y0315998D01*
X0274528Y0315952D01*
X0274596Y0315903D01*
X0274661Y0315851D01*
X0274724Y0315796D01*
X0274784Y0315738D01*
X0274842Y0315677D01*
X0274896Y0315613D01*
X0274948Y0315547D01*
X0274996Y0315479D01*
X0275041Y0315408D01*
X0275082Y0315335D01*
X0275121Y0315261D01*
X0275155Y0315185D01*
X0275186Y0315107D01*
X0275213Y0315028D01*
X0275237Y0314947D01*
X0275256Y0314866D01*
X0275272Y0314784D01*
X0275284Y0314701D01*
X0275292Y0314617D01*
X0275296Y0314534D01*
X0275296Y0314450D01*
X0275292Y0314367D01*
X0275284Y0314283D01*
X0275272Y0314200D01*
X0275256Y0314118D01*
X0275237Y0314037D01*
X0275213Y0313956D01*
X0275186Y0313877D01*
X0275155Y0313799D01*
X0275121Y0313723D01*
X0275082Y0313649D01*
X0275041Y0313576D01*
X0274996Y0313505D01*
X0274948Y0313437D01*
X0274896Y0313371D01*
X0274842Y0313307D01*
X0274784Y0313246D01*
X0274724Y0313188D01*
X0274661Y0313133D01*
X0274596Y0313081D01*
X0274528Y0313032D01*
X0274458Y0312986D01*
X0274386Y0312944D01*
X0274312Y0312905D01*
X0274236Y0312869D01*
X0274158Y0312837D01*
X0274080Y0312809D01*
X0273999Y0312785D01*
X0273918Y0312764D01*
X0273836Y0312748D01*
X0273754Y0312735D01*
X0273670Y0312726D01*
X0273587Y0312721D01*
X0273503Y0312720D01*
X0273419Y0312723D01*
X0273336Y0312730D01*
X0273253Y0312741D01*
X0273171Y0312756D01*
X0273089Y0312774D01*
X0273008Y0312797D01*
X0272929Y0312823D01*
X0272851Y0312853D01*
X0272774Y0312887D01*
X0272699Y0312924D01*
X0272626Y0312964D01*
X0272555Y0313009D01*
X0272486Y0313056D01*
X0272419Y0313107D01*
X0272355Y0313160D01*
X0272293Y0313217D01*
X0272235Y0313277D01*
X0272179Y0313339D01*
X0272126Y0313404D01*
X0272076Y0313471D01*
X0272029Y0313540D01*
X0271986Y0313612D01*
X0271946Y0313686D01*
X0271910Y0313761D01*
X0271877Y0313838D01*
X0271848Y0313917D01*
X0271823Y0313996D01*
X0271801Y0314077D01*
X0271784Y0314159D01*
X0271770Y0314242D01*
X0271760Y0314325D01*
X0271754Y0314408D01*
X0271752Y0314492D01*
X0271752Y0326303D02*
X0271754Y0326387D01*
X0271760Y0326470D01*
X0271770Y0326553D01*
X0271784Y0326636D01*
X0271801Y0326718D01*
X0271823Y0326799D01*
X0271848Y0326878D01*
X0271877Y0326957D01*
X0271910Y0327034D01*
X0271946Y0327109D01*
X0271986Y0327183D01*
X0272029Y0327255D01*
X0272076Y0327324D01*
X0272126Y0327391D01*
X0272179Y0327456D01*
X0272235Y0327518D01*
X0272293Y0327578D01*
X0272355Y0327635D01*
X0272419Y0327688D01*
X0272486Y0327739D01*
X0272555Y0327786D01*
X0272626Y0327831D01*
X0272699Y0327871D01*
X0272774Y0327908D01*
X0272851Y0327942D01*
X0272929Y0327972D01*
X0273008Y0327998D01*
X0273089Y0328021D01*
X0273171Y0328039D01*
X0273253Y0328054D01*
X0273336Y0328065D01*
X0273419Y0328072D01*
X0273503Y0328075D01*
X0273587Y0328074D01*
X0273670Y0328069D01*
X0273754Y0328060D01*
X0273836Y0328047D01*
X0273918Y0328031D01*
X0273999Y0328010D01*
X0274080Y0327986D01*
X0274158Y0327958D01*
X0274236Y0327926D01*
X0274312Y0327890D01*
X0274386Y0327851D01*
X0274458Y0327809D01*
X0274528Y0327763D01*
X0274596Y0327714D01*
X0274661Y0327662D01*
X0274724Y0327607D01*
X0274784Y0327549D01*
X0274842Y0327488D01*
X0274896Y0327424D01*
X0274948Y0327358D01*
X0274996Y0327290D01*
X0275041Y0327219D01*
X0275082Y0327146D01*
X0275121Y0327072D01*
X0275155Y0326996D01*
X0275186Y0326918D01*
X0275213Y0326839D01*
X0275237Y0326758D01*
X0275256Y0326677D01*
X0275272Y0326595D01*
X0275284Y0326512D01*
X0275292Y0326428D01*
X0275296Y0326345D01*
X0275296Y0326261D01*
X0275292Y0326178D01*
X0275284Y0326094D01*
X0275272Y0326011D01*
X0275256Y0325929D01*
X0275237Y0325848D01*
X0275213Y0325767D01*
X0275186Y0325688D01*
X0275155Y0325610D01*
X0275121Y0325534D01*
X0275082Y0325460D01*
X0275041Y0325387D01*
X0274996Y0325316D01*
X0274948Y0325248D01*
X0274896Y0325182D01*
X0274842Y0325118D01*
X0274784Y0325057D01*
X0274724Y0324999D01*
X0274661Y0324944D01*
X0274596Y0324892D01*
X0274528Y0324843D01*
X0274458Y0324797D01*
X0274386Y0324755D01*
X0274312Y0324716D01*
X0274236Y0324680D01*
X0274158Y0324648D01*
X0274080Y0324620D01*
X0273999Y0324596D01*
X0273918Y0324575D01*
X0273836Y0324559D01*
X0273754Y0324546D01*
X0273670Y0324537D01*
X0273587Y0324532D01*
X0273503Y0324531D01*
X0273419Y0324534D01*
X0273336Y0324541D01*
X0273253Y0324552D01*
X0273171Y0324567D01*
X0273089Y0324585D01*
X0273008Y0324608D01*
X0272929Y0324634D01*
X0272851Y0324664D01*
X0272774Y0324698D01*
X0272699Y0324735D01*
X0272626Y0324775D01*
X0272555Y0324820D01*
X0272486Y0324867D01*
X0272419Y0324918D01*
X0272355Y0324971D01*
X0272293Y0325028D01*
X0272235Y0325088D01*
X0272179Y0325150D01*
X0272126Y0325215D01*
X0272076Y0325282D01*
X0272029Y0325351D01*
X0271986Y0325423D01*
X0271946Y0325497D01*
X0271910Y0325572D01*
X0271877Y0325649D01*
X0271848Y0325728D01*
X0271823Y0325807D01*
X0271801Y0325888D01*
X0271784Y0325970D01*
X0271770Y0326053D01*
X0271760Y0326136D01*
X0271754Y0326219D01*
X0271752Y0326303D01*
X0261516Y0359768D02*
X0261518Y0359916D01*
X0261524Y0360064D01*
X0261534Y0360212D01*
X0261548Y0360359D01*
X0261566Y0360506D01*
X0261587Y0360652D01*
X0261613Y0360798D01*
X0261643Y0360943D01*
X0261676Y0361087D01*
X0261714Y0361230D01*
X0261755Y0361372D01*
X0261800Y0361513D01*
X0261848Y0361653D01*
X0261901Y0361792D01*
X0261957Y0361929D01*
X0262017Y0362064D01*
X0262080Y0362198D01*
X0262147Y0362330D01*
X0262218Y0362460D01*
X0262292Y0362588D01*
X0262369Y0362714D01*
X0262450Y0362838D01*
X0262534Y0362960D01*
X0262621Y0363079D01*
X0262712Y0363196D01*
X0262806Y0363311D01*
X0262902Y0363423D01*
X0263002Y0363533D01*
X0263104Y0363639D01*
X0263210Y0363743D01*
X0263318Y0363844D01*
X0263429Y0363942D01*
X0263542Y0364038D01*
X0263658Y0364130D01*
X0263776Y0364219D01*
X0263897Y0364304D01*
X0264020Y0364387D01*
X0264145Y0364466D01*
X0264272Y0364542D01*
X0264401Y0364614D01*
X0264532Y0364683D01*
X0264665Y0364748D01*
X0264800Y0364809D01*
X0264936Y0364867D01*
X0265073Y0364922D01*
X0265212Y0364972D01*
X0265353Y0365019D01*
X0265494Y0365062D01*
X0265637Y0365102D01*
X0265781Y0365137D01*
X0265925Y0365169D01*
X0266071Y0365196D01*
X0266217Y0365220D01*
X0266364Y0365240D01*
X0266511Y0365256D01*
X0266658Y0365268D01*
X0266806Y0365276D01*
X0266954Y0365280D01*
X0267102Y0365280D01*
X0267250Y0365276D01*
X0267398Y0365268D01*
X0267545Y0365256D01*
X0267692Y0365240D01*
X0267839Y0365220D01*
X0267985Y0365196D01*
X0268131Y0365169D01*
X0268275Y0365137D01*
X0268419Y0365102D01*
X0268562Y0365062D01*
X0268703Y0365019D01*
X0268844Y0364972D01*
X0268983Y0364922D01*
X0269120Y0364867D01*
X0269256Y0364809D01*
X0269391Y0364748D01*
X0269524Y0364683D01*
X0269655Y0364614D01*
X0269784Y0364542D01*
X0269911Y0364466D01*
X0270036Y0364387D01*
X0270159Y0364304D01*
X0270280Y0364219D01*
X0270398Y0364130D01*
X0270514Y0364038D01*
X0270627Y0363942D01*
X0270738Y0363844D01*
X0270846Y0363743D01*
X0270952Y0363639D01*
X0271054Y0363533D01*
X0271154Y0363423D01*
X0271250Y0363311D01*
X0271344Y0363196D01*
X0271435Y0363079D01*
X0271522Y0362960D01*
X0271606Y0362838D01*
X0271687Y0362714D01*
X0271764Y0362588D01*
X0271838Y0362460D01*
X0271909Y0362330D01*
X0271976Y0362198D01*
X0272039Y0362064D01*
X0272099Y0361929D01*
X0272155Y0361792D01*
X0272208Y0361653D01*
X0272256Y0361513D01*
X0272301Y0361372D01*
X0272342Y0361230D01*
X0272380Y0361087D01*
X0272413Y0360943D01*
X0272443Y0360798D01*
X0272469Y0360652D01*
X0272490Y0360506D01*
X0272508Y0360359D01*
X0272522Y0360212D01*
X0272532Y0360064D01*
X0272538Y0359916D01*
X0272540Y0359768D01*
X0272538Y0359620D01*
X0272532Y0359472D01*
X0272522Y0359324D01*
X0272508Y0359177D01*
X0272490Y0359030D01*
X0272469Y0358884D01*
X0272443Y0358738D01*
X0272413Y0358593D01*
X0272380Y0358449D01*
X0272342Y0358306D01*
X0272301Y0358164D01*
X0272256Y0358023D01*
X0272208Y0357883D01*
X0272155Y0357744D01*
X0272099Y0357607D01*
X0272039Y0357472D01*
X0271976Y0357338D01*
X0271909Y0357206D01*
X0271838Y0357076D01*
X0271764Y0356948D01*
X0271687Y0356822D01*
X0271606Y0356698D01*
X0271522Y0356576D01*
X0271435Y0356457D01*
X0271344Y0356340D01*
X0271250Y0356225D01*
X0271154Y0356113D01*
X0271054Y0356003D01*
X0270952Y0355897D01*
X0270846Y0355793D01*
X0270738Y0355692D01*
X0270627Y0355594D01*
X0270514Y0355498D01*
X0270398Y0355406D01*
X0270280Y0355317D01*
X0270159Y0355232D01*
X0270036Y0355149D01*
X0269911Y0355070D01*
X0269784Y0354994D01*
X0269655Y0354922D01*
X0269524Y0354853D01*
X0269391Y0354788D01*
X0269256Y0354727D01*
X0269120Y0354669D01*
X0268983Y0354614D01*
X0268844Y0354564D01*
X0268703Y0354517D01*
X0268562Y0354474D01*
X0268419Y0354434D01*
X0268275Y0354399D01*
X0268131Y0354367D01*
X0267985Y0354340D01*
X0267839Y0354316D01*
X0267692Y0354296D01*
X0267545Y0354280D01*
X0267398Y0354268D01*
X0267250Y0354260D01*
X0267102Y0354256D01*
X0266954Y0354256D01*
X0266806Y0354260D01*
X0266658Y0354268D01*
X0266511Y0354280D01*
X0266364Y0354296D01*
X0266217Y0354316D01*
X0266071Y0354340D01*
X0265925Y0354367D01*
X0265781Y0354399D01*
X0265637Y0354434D01*
X0265494Y0354474D01*
X0265353Y0354517D01*
X0265212Y0354564D01*
X0265073Y0354614D01*
X0264936Y0354669D01*
X0264800Y0354727D01*
X0264665Y0354788D01*
X0264532Y0354853D01*
X0264401Y0354922D01*
X0264272Y0354994D01*
X0264145Y0355070D01*
X0264020Y0355149D01*
X0263897Y0355232D01*
X0263776Y0355317D01*
X0263658Y0355406D01*
X0263542Y0355498D01*
X0263429Y0355594D01*
X0263318Y0355692D01*
X0263210Y0355793D01*
X0263104Y0355897D01*
X0263002Y0356003D01*
X0262902Y0356113D01*
X0262806Y0356225D01*
X0262712Y0356340D01*
X0262621Y0356457D01*
X0262534Y0356576D01*
X0262450Y0356698D01*
X0262369Y0356822D01*
X0262292Y0356948D01*
X0262218Y0357076D01*
X0262147Y0357206D01*
X0262080Y0357338D01*
X0262017Y0357472D01*
X0261957Y0357607D01*
X0261901Y0357744D01*
X0261848Y0357883D01*
X0261800Y0358023D01*
X0261755Y0358164D01*
X0261714Y0358306D01*
X0261676Y0358449D01*
X0261643Y0358593D01*
X0261613Y0358738D01*
X0261587Y0358884D01*
X0261566Y0359030D01*
X0261548Y0359177D01*
X0261534Y0359324D01*
X0261524Y0359472D01*
X0261518Y0359620D01*
X0261516Y0359768D01*
X0013484Y0359768D02*
X0013486Y0359916D01*
X0013492Y0360064D01*
X0013502Y0360212D01*
X0013516Y0360359D01*
X0013534Y0360506D01*
X0013555Y0360652D01*
X0013581Y0360798D01*
X0013611Y0360943D01*
X0013644Y0361087D01*
X0013682Y0361230D01*
X0013723Y0361372D01*
X0013768Y0361513D01*
X0013816Y0361653D01*
X0013869Y0361792D01*
X0013925Y0361929D01*
X0013985Y0362064D01*
X0014048Y0362198D01*
X0014115Y0362330D01*
X0014186Y0362460D01*
X0014260Y0362588D01*
X0014337Y0362714D01*
X0014418Y0362838D01*
X0014502Y0362960D01*
X0014589Y0363079D01*
X0014680Y0363196D01*
X0014774Y0363311D01*
X0014870Y0363423D01*
X0014970Y0363533D01*
X0015072Y0363639D01*
X0015178Y0363743D01*
X0015286Y0363844D01*
X0015397Y0363942D01*
X0015510Y0364038D01*
X0015626Y0364130D01*
X0015744Y0364219D01*
X0015865Y0364304D01*
X0015988Y0364387D01*
X0016113Y0364466D01*
X0016240Y0364542D01*
X0016369Y0364614D01*
X0016500Y0364683D01*
X0016633Y0364748D01*
X0016768Y0364809D01*
X0016904Y0364867D01*
X0017041Y0364922D01*
X0017180Y0364972D01*
X0017321Y0365019D01*
X0017462Y0365062D01*
X0017605Y0365102D01*
X0017749Y0365137D01*
X0017893Y0365169D01*
X0018039Y0365196D01*
X0018185Y0365220D01*
X0018332Y0365240D01*
X0018479Y0365256D01*
X0018626Y0365268D01*
X0018774Y0365276D01*
X0018922Y0365280D01*
X0019070Y0365280D01*
X0019218Y0365276D01*
X0019366Y0365268D01*
X0019513Y0365256D01*
X0019660Y0365240D01*
X0019807Y0365220D01*
X0019953Y0365196D01*
X0020099Y0365169D01*
X0020243Y0365137D01*
X0020387Y0365102D01*
X0020530Y0365062D01*
X0020671Y0365019D01*
X0020812Y0364972D01*
X0020951Y0364922D01*
X0021088Y0364867D01*
X0021224Y0364809D01*
X0021359Y0364748D01*
X0021492Y0364683D01*
X0021623Y0364614D01*
X0021752Y0364542D01*
X0021879Y0364466D01*
X0022004Y0364387D01*
X0022127Y0364304D01*
X0022248Y0364219D01*
X0022366Y0364130D01*
X0022482Y0364038D01*
X0022595Y0363942D01*
X0022706Y0363844D01*
X0022814Y0363743D01*
X0022920Y0363639D01*
X0023022Y0363533D01*
X0023122Y0363423D01*
X0023218Y0363311D01*
X0023312Y0363196D01*
X0023403Y0363079D01*
X0023490Y0362960D01*
X0023574Y0362838D01*
X0023655Y0362714D01*
X0023732Y0362588D01*
X0023806Y0362460D01*
X0023877Y0362330D01*
X0023944Y0362198D01*
X0024007Y0362064D01*
X0024067Y0361929D01*
X0024123Y0361792D01*
X0024176Y0361653D01*
X0024224Y0361513D01*
X0024269Y0361372D01*
X0024310Y0361230D01*
X0024348Y0361087D01*
X0024381Y0360943D01*
X0024411Y0360798D01*
X0024437Y0360652D01*
X0024458Y0360506D01*
X0024476Y0360359D01*
X0024490Y0360212D01*
X0024500Y0360064D01*
X0024506Y0359916D01*
X0024508Y0359768D01*
X0024506Y0359620D01*
X0024500Y0359472D01*
X0024490Y0359324D01*
X0024476Y0359177D01*
X0024458Y0359030D01*
X0024437Y0358884D01*
X0024411Y0358738D01*
X0024381Y0358593D01*
X0024348Y0358449D01*
X0024310Y0358306D01*
X0024269Y0358164D01*
X0024224Y0358023D01*
X0024176Y0357883D01*
X0024123Y0357744D01*
X0024067Y0357607D01*
X0024007Y0357472D01*
X0023944Y0357338D01*
X0023877Y0357206D01*
X0023806Y0357076D01*
X0023732Y0356948D01*
X0023655Y0356822D01*
X0023574Y0356698D01*
X0023490Y0356576D01*
X0023403Y0356457D01*
X0023312Y0356340D01*
X0023218Y0356225D01*
X0023122Y0356113D01*
X0023022Y0356003D01*
X0022920Y0355897D01*
X0022814Y0355793D01*
X0022706Y0355692D01*
X0022595Y0355594D01*
X0022482Y0355498D01*
X0022366Y0355406D01*
X0022248Y0355317D01*
X0022127Y0355232D01*
X0022004Y0355149D01*
X0021879Y0355070D01*
X0021752Y0354994D01*
X0021623Y0354922D01*
X0021492Y0354853D01*
X0021359Y0354788D01*
X0021224Y0354727D01*
X0021088Y0354669D01*
X0020951Y0354614D01*
X0020812Y0354564D01*
X0020671Y0354517D01*
X0020530Y0354474D01*
X0020387Y0354434D01*
X0020243Y0354399D01*
X0020099Y0354367D01*
X0019953Y0354340D01*
X0019807Y0354316D01*
X0019660Y0354296D01*
X0019513Y0354280D01*
X0019366Y0354268D01*
X0019218Y0354260D01*
X0019070Y0354256D01*
X0018922Y0354256D01*
X0018774Y0354260D01*
X0018626Y0354268D01*
X0018479Y0354280D01*
X0018332Y0354296D01*
X0018185Y0354316D01*
X0018039Y0354340D01*
X0017893Y0354367D01*
X0017749Y0354399D01*
X0017605Y0354434D01*
X0017462Y0354474D01*
X0017321Y0354517D01*
X0017180Y0354564D01*
X0017041Y0354614D01*
X0016904Y0354669D01*
X0016768Y0354727D01*
X0016633Y0354788D01*
X0016500Y0354853D01*
X0016369Y0354922D01*
X0016240Y0354994D01*
X0016113Y0355070D01*
X0015988Y0355149D01*
X0015865Y0355232D01*
X0015744Y0355317D01*
X0015626Y0355406D01*
X0015510Y0355498D01*
X0015397Y0355594D01*
X0015286Y0355692D01*
X0015178Y0355793D01*
X0015072Y0355897D01*
X0014970Y0356003D01*
X0014870Y0356113D01*
X0014774Y0356225D01*
X0014680Y0356340D01*
X0014589Y0356457D01*
X0014502Y0356576D01*
X0014418Y0356698D01*
X0014337Y0356822D01*
X0014260Y0356948D01*
X0014186Y0357076D01*
X0014115Y0357206D01*
X0014048Y0357338D01*
X0013985Y0357472D01*
X0013925Y0357607D01*
X0013869Y0357744D01*
X0013816Y0357883D01*
X0013768Y0358023D01*
X0013723Y0358164D01*
X0013682Y0358306D01*
X0013644Y0358449D01*
X0013611Y0358593D01*
X0013581Y0358738D01*
X0013555Y0358884D01*
X0013534Y0359030D01*
X0013516Y0359177D01*
X0013502Y0359324D01*
X0013492Y0359472D01*
X0013486Y0359620D01*
X0013484Y0359768D01*
D11*
X0038000Y0249520D03*
X0048000Y0249520D03*
X0048000Y0239520D03*
X0038000Y0239520D03*
X0058000Y0239520D03*
X0058000Y0249520D03*
X0068000Y0249520D03*
X0068000Y0239520D03*
X0078000Y0239520D03*
X0078000Y0249520D03*
X0088000Y0249520D03*
X0088000Y0239520D03*
X0098000Y0239520D03*
X0098000Y0249520D03*
X0108000Y0249520D03*
X0108000Y0239520D03*
X0118000Y0239520D03*
X0118000Y0249520D03*
X0128000Y0249520D03*
X0128000Y0239520D03*
X0138000Y0239520D03*
X0138000Y0249520D03*
X0148000Y0249520D03*
X0148000Y0239520D03*
X0158000Y0239520D03*
X0158000Y0249520D03*
X0168000Y0249520D03*
X0168000Y0239520D03*
X0178000Y0239520D03*
X0178000Y0249520D03*
X0188000Y0249520D03*
X0188000Y0239520D03*
X0198000Y0239520D03*
X0198000Y0249520D03*
X0208000Y0249520D03*
X0208000Y0239520D03*
X0218000Y0239520D03*
X0218000Y0249520D03*
X0228000Y0249520D03*
X0228000Y0239520D03*
D12*
X0228000Y0233020D03*
X0218000Y0233020D03*
X0208000Y0233020D03*
X0198000Y0233020D03*
X0188000Y0233020D03*
X0178000Y0233020D03*
X0168000Y0233020D03*
X0158000Y0233020D03*
X0148000Y0233020D03*
X0138000Y0233020D03*
X0128000Y0233020D03*
X0118000Y0233020D03*
X0108000Y0233020D03*
X0098000Y0233020D03*
X0088000Y0233020D03*
X0078000Y0233020D03*
X0068000Y0233020D03*
X0058000Y0233020D03*
X0048000Y0233020D03*
X0038000Y0233020D03*
X0038000Y0256020D03*
X0048000Y0256020D03*
X0058000Y0256020D03*
X0068000Y0256020D03*
X0078000Y0256020D03*
X0088000Y0256020D03*
X0098000Y0256020D03*
X0108000Y0256020D03*
X0118000Y0256020D03*
X0128000Y0256020D03*
X0138000Y0256020D03*
X0148000Y0256020D03*
X0158000Y0256020D03*
X0168000Y0256020D03*
X0178000Y0256020D03*
X0188000Y0256020D03*
X0198000Y0256020D03*
X0208000Y0256020D03*
X0218000Y0256020D03*
X0228000Y0256020D03*
D13*
X0104232Y0218626D03*
X0104232Y0204256D03*
X0104232Y0176697D03*
X0104232Y0162327D03*
X0012500Y0162327D03*
X0012500Y0218626D03*
D14*
G36*
X0046829Y0110854D02*
X0052536Y0113515D01*
X0055115Y0107986D01*
X0049408Y0105325D01*
X0046829Y0110854D01*
G37*
G36*
X0055149Y0093013D02*
X0060856Y0095674D01*
X0063435Y0090145D01*
X0057728Y0087484D01*
X0055149Y0093013D01*
G37*
G36*
X0068155Y0056594D02*
X0073862Y0059255D01*
X0076441Y0053726D01*
X0070734Y0051065D01*
X0068155Y0056594D01*
G37*
G36*
X0076474Y0038754D02*
X0082181Y0041415D01*
X0084760Y0035886D01*
X0079053Y0033225D01*
X0076474Y0038754D01*
G37*
G36*
X0117930Y0079805D02*
X0123637Y0082466D01*
X0126216Y0076937D01*
X0120509Y0074276D01*
X0117930Y0079805D01*
G37*
G36*
X0126250Y0061964D02*
X0131957Y0064625D01*
X0134536Y0059096D01*
X0128829Y0056435D01*
X0126250Y0061964D01*
G37*
G36*
X0157195Y0056435D02*
X0151488Y0059096D01*
X0154067Y0064625D01*
X0159774Y0061964D01*
X0157195Y0056435D01*
G37*
G36*
X0165514Y0074276D02*
X0159807Y0076937D01*
X0162386Y0082466D01*
X0168093Y0079805D01*
X0165514Y0074276D01*
G37*
G36*
X0178521Y0110695D02*
X0172814Y0113356D01*
X0175393Y0118885D01*
X0181100Y0116224D01*
X0178521Y0110695D01*
G37*
G36*
X0186840Y0128536D02*
X0181133Y0131197D01*
X0183712Y0136726D01*
X0189419Y0134065D01*
X0186840Y0128536D01*
G37*
G36*
X0228296Y0087484D02*
X0222589Y0090145D01*
X0225168Y0095674D01*
X0230875Y0093013D01*
X0228296Y0087484D01*
G37*
G36*
X0236615Y0105325D02*
X0230908Y0107986D01*
X0233487Y0113515D01*
X0239194Y0110854D01*
X0236615Y0105325D01*
G37*
G36*
X0215290Y0051065D02*
X0209583Y0053726D01*
X0212162Y0059255D01*
X0217869Y0056594D01*
X0215290Y0051065D01*
G37*
G36*
X0206971Y0033225D02*
X0201264Y0035886D01*
X0203843Y0041415D01*
X0209550Y0038754D01*
X0206971Y0033225D01*
G37*
G36*
X0104924Y0116224D02*
X0110631Y0118885D01*
X0113210Y0113356D01*
X0107503Y0110695D01*
X0104924Y0116224D01*
G37*
G36*
X0096605Y0134065D02*
X0102312Y0136726D01*
X0104891Y0131197D01*
X0099184Y0128536D01*
X0096605Y0134065D01*
G37*
D15*
X0274902Y0288902D03*
X0274902Y0296776D03*
D16*
X0274902Y0281224D03*
X0274902Y0272957D03*
D17*
X0266634Y0311539D03*
X0266634Y0317445D03*
X0266634Y0329256D03*
D18*
X0277461Y0334768D03*
X0277461Y0306028D03*
D19*
X0269193Y0306028D03*
X0269193Y0334768D03*
D20*
X0125114Y0194028D03*
X0125114Y0186154D03*
D21*
X0145587Y0176705D03*
X0145587Y0203476D03*
M02*
