%
M48
M72
T01C0.0197
T02C0.0236
T03C0.0354
T04C0.1102
%
T01
X11348Y28260
X12800Y27630
X13800Y27315
X14301Y27945
X14800Y28575
X13317Y28890
X16073Y27709
X15679Y32827
X23947Y26922
X24341Y27709
X24734Y27315
X25128Y26528
X24734Y29678
X26309Y29678
X17254Y21016
X15800Y17867
X18800Y17079
X20797Y18260
X21800Y17079
X22313Y18654
X26703Y17079
X14301Y4481
X6230Y6843
X7018Y20622
X5285Y21016
X3868Y21804
X8800Y20622
T02
X3800Y26528
X11800Y26528
T03
X27352Y31449
X27352Y32630
T04
X1900Y35977
X26703Y35977
X26703Y13536
X26703Y1725
X1900Y1725
M30
