G75*
%MOIN*%
%OFA0B0*%
%FSLAX25Y25*%
%IPPOS*%
%LPD*%
%AMOC8*
5,1,8,0,0,1.08239X$1,22.5*
%
%ADD10C,0.00000*%
%ADD11R,0.06000X0.06000*%
%ADD12R,0.03200X0.07000*%
%ADD13R,0.10000X0.10000*%
%ADD14R,0.06299X0.06102*%
%ADD15R,0.05512X0.04331*%
%ADD16R,0.04724X0.04724*%
%ADD17R,0.05906X0.02756*%
%ADD18R,0.02362X0.03937*%
%ADD19R,0.03150X0.03937*%
%ADD20R,0.18110X0.03937*%
%ADD21R,0.13386X0.06299*%
%ADD22C,0.01000*%
%ADD23C,0.03569*%
%ADD24C,0.03962*%
%ADD25C,0.01600*%
%ADD26C,0.01200*%
%ADD27C,0.02400*%
%ADD28C,0.03200*%
D10*
X0003248Y0005437D02*
X0003248Y0367642D01*
X0003250Y0367766D01*
X0003256Y0367889D01*
X0003265Y0368013D01*
X0003279Y0368135D01*
X0003296Y0368258D01*
X0003318Y0368380D01*
X0003343Y0368501D01*
X0003372Y0368621D01*
X0003404Y0368740D01*
X0003441Y0368859D01*
X0003481Y0368976D01*
X0003524Y0369091D01*
X0003572Y0369206D01*
X0003623Y0369318D01*
X0003677Y0369429D01*
X0003735Y0369539D01*
X0003796Y0369646D01*
X0003861Y0369752D01*
X0003929Y0369855D01*
X0004000Y0369956D01*
X0004074Y0370055D01*
X0004151Y0370152D01*
X0004232Y0370246D01*
X0004315Y0370337D01*
X0004401Y0370426D01*
X0004490Y0370512D01*
X0004581Y0370595D01*
X0004675Y0370676D01*
X0004772Y0370753D01*
X0004871Y0370827D01*
X0004972Y0370898D01*
X0005075Y0370966D01*
X0005181Y0371031D01*
X0005288Y0371092D01*
X0005398Y0371150D01*
X0005509Y0371204D01*
X0005621Y0371255D01*
X0005736Y0371303D01*
X0005851Y0371346D01*
X0005968Y0371386D01*
X0006087Y0371423D01*
X0006206Y0371455D01*
X0006326Y0371484D01*
X0006447Y0371509D01*
X0006569Y0371531D01*
X0006692Y0371548D01*
X0006814Y0371562D01*
X0006938Y0371571D01*
X0007061Y0371577D01*
X0007185Y0371579D01*
X0278839Y0371579D01*
X0278963Y0371577D01*
X0279086Y0371571D01*
X0279210Y0371562D01*
X0279332Y0371548D01*
X0279455Y0371531D01*
X0279577Y0371509D01*
X0279698Y0371484D01*
X0279818Y0371455D01*
X0279937Y0371423D01*
X0280056Y0371386D01*
X0280173Y0371346D01*
X0280288Y0371303D01*
X0280403Y0371255D01*
X0280515Y0371204D01*
X0280626Y0371150D01*
X0280736Y0371092D01*
X0280843Y0371031D01*
X0280949Y0370966D01*
X0281052Y0370898D01*
X0281153Y0370827D01*
X0281252Y0370753D01*
X0281349Y0370676D01*
X0281443Y0370595D01*
X0281534Y0370512D01*
X0281623Y0370426D01*
X0281709Y0370337D01*
X0281792Y0370246D01*
X0281873Y0370152D01*
X0281950Y0370055D01*
X0282024Y0369956D01*
X0282095Y0369855D01*
X0282163Y0369752D01*
X0282228Y0369646D01*
X0282289Y0369539D01*
X0282347Y0369429D01*
X0282401Y0369318D01*
X0282452Y0369206D01*
X0282500Y0369091D01*
X0282543Y0368976D01*
X0282583Y0368859D01*
X0282620Y0368740D01*
X0282652Y0368621D01*
X0282681Y0368501D01*
X0282706Y0368380D01*
X0282728Y0368258D01*
X0282745Y0368135D01*
X0282759Y0368013D01*
X0282768Y0367889D01*
X0282774Y0367766D01*
X0282776Y0367642D01*
X0282776Y0005437D01*
X0282774Y0005313D01*
X0282768Y0005190D01*
X0282759Y0005066D01*
X0282745Y0004944D01*
X0282728Y0004821D01*
X0282706Y0004699D01*
X0282681Y0004578D01*
X0282652Y0004458D01*
X0282620Y0004339D01*
X0282583Y0004220D01*
X0282543Y0004103D01*
X0282500Y0003988D01*
X0282452Y0003873D01*
X0282401Y0003761D01*
X0282347Y0003650D01*
X0282289Y0003540D01*
X0282228Y0003433D01*
X0282163Y0003327D01*
X0282095Y0003224D01*
X0282024Y0003123D01*
X0281950Y0003024D01*
X0281873Y0002927D01*
X0281792Y0002833D01*
X0281709Y0002742D01*
X0281623Y0002653D01*
X0281534Y0002567D01*
X0281443Y0002484D01*
X0281349Y0002403D01*
X0281252Y0002326D01*
X0281153Y0002252D01*
X0281052Y0002181D01*
X0280949Y0002113D01*
X0280843Y0002048D01*
X0280736Y0001987D01*
X0280626Y0001929D01*
X0280515Y0001875D01*
X0280403Y0001824D01*
X0280288Y0001776D01*
X0280173Y0001733D01*
X0280056Y0001693D01*
X0279937Y0001656D01*
X0279818Y0001624D01*
X0279698Y0001595D01*
X0279577Y0001570D01*
X0279455Y0001548D01*
X0279332Y0001531D01*
X0279210Y0001517D01*
X0279086Y0001508D01*
X0278963Y0001502D01*
X0278839Y0001500D01*
X0007185Y0001500D01*
X0007061Y0001502D01*
X0006938Y0001508D01*
X0006814Y0001517D01*
X0006692Y0001531D01*
X0006569Y0001548D01*
X0006447Y0001570D01*
X0006326Y0001595D01*
X0006206Y0001624D01*
X0006087Y0001656D01*
X0005968Y0001693D01*
X0005851Y0001733D01*
X0005736Y0001776D01*
X0005621Y0001824D01*
X0005509Y0001875D01*
X0005398Y0001929D01*
X0005288Y0001987D01*
X0005181Y0002048D01*
X0005075Y0002113D01*
X0004972Y0002181D01*
X0004871Y0002252D01*
X0004772Y0002326D01*
X0004675Y0002403D01*
X0004581Y0002484D01*
X0004490Y0002567D01*
X0004401Y0002653D01*
X0004315Y0002742D01*
X0004232Y0002833D01*
X0004151Y0002927D01*
X0004074Y0003024D01*
X0004000Y0003123D01*
X0003929Y0003224D01*
X0003861Y0003327D01*
X0003796Y0003433D01*
X0003735Y0003540D01*
X0003677Y0003650D01*
X0003623Y0003761D01*
X0003572Y0003873D01*
X0003524Y0003988D01*
X0003481Y0004103D01*
X0003441Y0004220D01*
X0003404Y0004339D01*
X0003372Y0004458D01*
X0003343Y0004578D01*
X0003318Y0004699D01*
X0003296Y0004821D01*
X0003279Y0004944D01*
X0003265Y0005066D01*
X0003256Y0005190D01*
X0003250Y0005313D01*
X0003248Y0005437D01*
X0013484Y0017248D02*
X0013486Y0017396D01*
X0013492Y0017544D01*
X0013502Y0017692D01*
X0013516Y0017839D01*
X0013534Y0017986D01*
X0013555Y0018132D01*
X0013581Y0018278D01*
X0013611Y0018423D01*
X0013644Y0018567D01*
X0013682Y0018710D01*
X0013723Y0018852D01*
X0013768Y0018993D01*
X0013816Y0019133D01*
X0013869Y0019272D01*
X0013925Y0019409D01*
X0013985Y0019544D01*
X0014048Y0019678D01*
X0014115Y0019810D01*
X0014186Y0019940D01*
X0014260Y0020068D01*
X0014337Y0020194D01*
X0014418Y0020318D01*
X0014502Y0020440D01*
X0014589Y0020559D01*
X0014680Y0020676D01*
X0014774Y0020791D01*
X0014870Y0020903D01*
X0014970Y0021013D01*
X0015072Y0021119D01*
X0015178Y0021223D01*
X0015286Y0021324D01*
X0015397Y0021422D01*
X0015510Y0021518D01*
X0015626Y0021610D01*
X0015744Y0021699D01*
X0015865Y0021784D01*
X0015988Y0021867D01*
X0016113Y0021946D01*
X0016240Y0022022D01*
X0016369Y0022094D01*
X0016500Y0022163D01*
X0016633Y0022228D01*
X0016768Y0022289D01*
X0016904Y0022347D01*
X0017041Y0022402D01*
X0017180Y0022452D01*
X0017321Y0022499D01*
X0017462Y0022542D01*
X0017605Y0022582D01*
X0017749Y0022617D01*
X0017893Y0022649D01*
X0018039Y0022676D01*
X0018185Y0022700D01*
X0018332Y0022720D01*
X0018479Y0022736D01*
X0018626Y0022748D01*
X0018774Y0022756D01*
X0018922Y0022760D01*
X0019070Y0022760D01*
X0019218Y0022756D01*
X0019366Y0022748D01*
X0019513Y0022736D01*
X0019660Y0022720D01*
X0019807Y0022700D01*
X0019953Y0022676D01*
X0020099Y0022649D01*
X0020243Y0022617D01*
X0020387Y0022582D01*
X0020530Y0022542D01*
X0020671Y0022499D01*
X0020812Y0022452D01*
X0020951Y0022402D01*
X0021088Y0022347D01*
X0021224Y0022289D01*
X0021359Y0022228D01*
X0021492Y0022163D01*
X0021623Y0022094D01*
X0021752Y0022022D01*
X0021879Y0021946D01*
X0022004Y0021867D01*
X0022127Y0021784D01*
X0022248Y0021699D01*
X0022366Y0021610D01*
X0022482Y0021518D01*
X0022595Y0021422D01*
X0022706Y0021324D01*
X0022814Y0021223D01*
X0022920Y0021119D01*
X0023022Y0021013D01*
X0023122Y0020903D01*
X0023218Y0020791D01*
X0023312Y0020676D01*
X0023403Y0020559D01*
X0023490Y0020440D01*
X0023574Y0020318D01*
X0023655Y0020194D01*
X0023732Y0020068D01*
X0023806Y0019940D01*
X0023877Y0019810D01*
X0023944Y0019678D01*
X0024007Y0019544D01*
X0024067Y0019409D01*
X0024123Y0019272D01*
X0024176Y0019133D01*
X0024224Y0018993D01*
X0024269Y0018852D01*
X0024310Y0018710D01*
X0024348Y0018567D01*
X0024381Y0018423D01*
X0024411Y0018278D01*
X0024437Y0018132D01*
X0024458Y0017986D01*
X0024476Y0017839D01*
X0024490Y0017692D01*
X0024500Y0017544D01*
X0024506Y0017396D01*
X0024508Y0017248D01*
X0024506Y0017100D01*
X0024500Y0016952D01*
X0024490Y0016804D01*
X0024476Y0016657D01*
X0024458Y0016510D01*
X0024437Y0016364D01*
X0024411Y0016218D01*
X0024381Y0016073D01*
X0024348Y0015929D01*
X0024310Y0015786D01*
X0024269Y0015644D01*
X0024224Y0015503D01*
X0024176Y0015363D01*
X0024123Y0015224D01*
X0024067Y0015087D01*
X0024007Y0014952D01*
X0023944Y0014818D01*
X0023877Y0014686D01*
X0023806Y0014556D01*
X0023732Y0014428D01*
X0023655Y0014302D01*
X0023574Y0014178D01*
X0023490Y0014056D01*
X0023403Y0013937D01*
X0023312Y0013820D01*
X0023218Y0013705D01*
X0023122Y0013593D01*
X0023022Y0013483D01*
X0022920Y0013377D01*
X0022814Y0013273D01*
X0022706Y0013172D01*
X0022595Y0013074D01*
X0022482Y0012978D01*
X0022366Y0012886D01*
X0022248Y0012797D01*
X0022127Y0012712D01*
X0022004Y0012629D01*
X0021879Y0012550D01*
X0021752Y0012474D01*
X0021623Y0012402D01*
X0021492Y0012333D01*
X0021359Y0012268D01*
X0021224Y0012207D01*
X0021088Y0012149D01*
X0020951Y0012094D01*
X0020812Y0012044D01*
X0020671Y0011997D01*
X0020530Y0011954D01*
X0020387Y0011914D01*
X0020243Y0011879D01*
X0020099Y0011847D01*
X0019953Y0011820D01*
X0019807Y0011796D01*
X0019660Y0011776D01*
X0019513Y0011760D01*
X0019366Y0011748D01*
X0019218Y0011740D01*
X0019070Y0011736D01*
X0018922Y0011736D01*
X0018774Y0011740D01*
X0018626Y0011748D01*
X0018479Y0011760D01*
X0018332Y0011776D01*
X0018185Y0011796D01*
X0018039Y0011820D01*
X0017893Y0011847D01*
X0017749Y0011879D01*
X0017605Y0011914D01*
X0017462Y0011954D01*
X0017321Y0011997D01*
X0017180Y0012044D01*
X0017041Y0012094D01*
X0016904Y0012149D01*
X0016768Y0012207D01*
X0016633Y0012268D01*
X0016500Y0012333D01*
X0016369Y0012402D01*
X0016240Y0012474D01*
X0016113Y0012550D01*
X0015988Y0012629D01*
X0015865Y0012712D01*
X0015744Y0012797D01*
X0015626Y0012886D01*
X0015510Y0012978D01*
X0015397Y0013074D01*
X0015286Y0013172D01*
X0015178Y0013273D01*
X0015072Y0013377D01*
X0014970Y0013483D01*
X0014870Y0013593D01*
X0014774Y0013705D01*
X0014680Y0013820D01*
X0014589Y0013937D01*
X0014502Y0014056D01*
X0014418Y0014178D01*
X0014337Y0014302D01*
X0014260Y0014428D01*
X0014186Y0014556D01*
X0014115Y0014686D01*
X0014048Y0014818D01*
X0013985Y0014952D01*
X0013925Y0015087D01*
X0013869Y0015224D01*
X0013816Y0015363D01*
X0013768Y0015503D01*
X0013723Y0015644D01*
X0013682Y0015786D01*
X0013644Y0015929D01*
X0013611Y0016073D01*
X0013581Y0016218D01*
X0013555Y0016364D01*
X0013534Y0016510D01*
X0013516Y0016657D01*
X0013502Y0016804D01*
X0013492Y0016952D01*
X0013486Y0017100D01*
X0013484Y0017248D01*
X0261516Y0017248D02*
X0261518Y0017396D01*
X0261524Y0017544D01*
X0261534Y0017692D01*
X0261548Y0017839D01*
X0261566Y0017986D01*
X0261587Y0018132D01*
X0261613Y0018278D01*
X0261643Y0018423D01*
X0261676Y0018567D01*
X0261714Y0018710D01*
X0261755Y0018852D01*
X0261800Y0018993D01*
X0261848Y0019133D01*
X0261901Y0019272D01*
X0261957Y0019409D01*
X0262017Y0019544D01*
X0262080Y0019678D01*
X0262147Y0019810D01*
X0262218Y0019940D01*
X0262292Y0020068D01*
X0262369Y0020194D01*
X0262450Y0020318D01*
X0262534Y0020440D01*
X0262621Y0020559D01*
X0262712Y0020676D01*
X0262806Y0020791D01*
X0262902Y0020903D01*
X0263002Y0021013D01*
X0263104Y0021119D01*
X0263210Y0021223D01*
X0263318Y0021324D01*
X0263429Y0021422D01*
X0263542Y0021518D01*
X0263658Y0021610D01*
X0263776Y0021699D01*
X0263897Y0021784D01*
X0264020Y0021867D01*
X0264145Y0021946D01*
X0264272Y0022022D01*
X0264401Y0022094D01*
X0264532Y0022163D01*
X0264665Y0022228D01*
X0264800Y0022289D01*
X0264936Y0022347D01*
X0265073Y0022402D01*
X0265212Y0022452D01*
X0265353Y0022499D01*
X0265494Y0022542D01*
X0265637Y0022582D01*
X0265781Y0022617D01*
X0265925Y0022649D01*
X0266071Y0022676D01*
X0266217Y0022700D01*
X0266364Y0022720D01*
X0266511Y0022736D01*
X0266658Y0022748D01*
X0266806Y0022756D01*
X0266954Y0022760D01*
X0267102Y0022760D01*
X0267250Y0022756D01*
X0267398Y0022748D01*
X0267545Y0022736D01*
X0267692Y0022720D01*
X0267839Y0022700D01*
X0267985Y0022676D01*
X0268131Y0022649D01*
X0268275Y0022617D01*
X0268419Y0022582D01*
X0268562Y0022542D01*
X0268703Y0022499D01*
X0268844Y0022452D01*
X0268983Y0022402D01*
X0269120Y0022347D01*
X0269256Y0022289D01*
X0269391Y0022228D01*
X0269524Y0022163D01*
X0269655Y0022094D01*
X0269784Y0022022D01*
X0269911Y0021946D01*
X0270036Y0021867D01*
X0270159Y0021784D01*
X0270280Y0021699D01*
X0270398Y0021610D01*
X0270514Y0021518D01*
X0270627Y0021422D01*
X0270738Y0021324D01*
X0270846Y0021223D01*
X0270952Y0021119D01*
X0271054Y0021013D01*
X0271154Y0020903D01*
X0271250Y0020791D01*
X0271344Y0020676D01*
X0271435Y0020559D01*
X0271522Y0020440D01*
X0271606Y0020318D01*
X0271687Y0020194D01*
X0271764Y0020068D01*
X0271838Y0019940D01*
X0271909Y0019810D01*
X0271976Y0019678D01*
X0272039Y0019544D01*
X0272099Y0019409D01*
X0272155Y0019272D01*
X0272208Y0019133D01*
X0272256Y0018993D01*
X0272301Y0018852D01*
X0272342Y0018710D01*
X0272380Y0018567D01*
X0272413Y0018423D01*
X0272443Y0018278D01*
X0272469Y0018132D01*
X0272490Y0017986D01*
X0272508Y0017839D01*
X0272522Y0017692D01*
X0272532Y0017544D01*
X0272538Y0017396D01*
X0272540Y0017248D01*
X0272538Y0017100D01*
X0272532Y0016952D01*
X0272522Y0016804D01*
X0272508Y0016657D01*
X0272490Y0016510D01*
X0272469Y0016364D01*
X0272443Y0016218D01*
X0272413Y0016073D01*
X0272380Y0015929D01*
X0272342Y0015786D01*
X0272301Y0015644D01*
X0272256Y0015503D01*
X0272208Y0015363D01*
X0272155Y0015224D01*
X0272099Y0015087D01*
X0272039Y0014952D01*
X0271976Y0014818D01*
X0271909Y0014686D01*
X0271838Y0014556D01*
X0271764Y0014428D01*
X0271687Y0014302D01*
X0271606Y0014178D01*
X0271522Y0014056D01*
X0271435Y0013937D01*
X0271344Y0013820D01*
X0271250Y0013705D01*
X0271154Y0013593D01*
X0271054Y0013483D01*
X0270952Y0013377D01*
X0270846Y0013273D01*
X0270738Y0013172D01*
X0270627Y0013074D01*
X0270514Y0012978D01*
X0270398Y0012886D01*
X0270280Y0012797D01*
X0270159Y0012712D01*
X0270036Y0012629D01*
X0269911Y0012550D01*
X0269784Y0012474D01*
X0269655Y0012402D01*
X0269524Y0012333D01*
X0269391Y0012268D01*
X0269256Y0012207D01*
X0269120Y0012149D01*
X0268983Y0012094D01*
X0268844Y0012044D01*
X0268703Y0011997D01*
X0268562Y0011954D01*
X0268419Y0011914D01*
X0268275Y0011879D01*
X0268131Y0011847D01*
X0267985Y0011820D01*
X0267839Y0011796D01*
X0267692Y0011776D01*
X0267545Y0011760D01*
X0267398Y0011748D01*
X0267250Y0011740D01*
X0267102Y0011736D01*
X0266954Y0011736D01*
X0266806Y0011740D01*
X0266658Y0011748D01*
X0266511Y0011760D01*
X0266364Y0011776D01*
X0266217Y0011796D01*
X0266071Y0011820D01*
X0265925Y0011847D01*
X0265781Y0011879D01*
X0265637Y0011914D01*
X0265494Y0011954D01*
X0265353Y0011997D01*
X0265212Y0012044D01*
X0265073Y0012094D01*
X0264936Y0012149D01*
X0264800Y0012207D01*
X0264665Y0012268D01*
X0264532Y0012333D01*
X0264401Y0012402D01*
X0264272Y0012474D01*
X0264145Y0012550D01*
X0264020Y0012629D01*
X0263897Y0012712D01*
X0263776Y0012797D01*
X0263658Y0012886D01*
X0263542Y0012978D01*
X0263429Y0013074D01*
X0263318Y0013172D01*
X0263210Y0013273D01*
X0263104Y0013377D01*
X0263002Y0013483D01*
X0262902Y0013593D01*
X0262806Y0013705D01*
X0262712Y0013820D01*
X0262621Y0013937D01*
X0262534Y0014056D01*
X0262450Y0014178D01*
X0262369Y0014302D01*
X0262292Y0014428D01*
X0262218Y0014556D01*
X0262147Y0014686D01*
X0262080Y0014818D01*
X0262017Y0014952D01*
X0261957Y0015087D01*
X0261901Y0015224D01*
X0261848Y0015363D01*
X0261800Y0015503D01*
X0261755Y0015644D01*
X0261714Y0015786D01*
X0261676Y0015929D01*
X0261643Y0016073D01*
X0261613Y0016218D01*
X0261587Y0016364D01*
X0261566Y0016510D01*
X0261548Y0016657D01*
X0261534Y0016804D01*
X0261524Y0016952D01*
X0261518Y0017100D01*
X0261516Y0017248D01*
X0261516Y0135358D02*
X0261518Y0135506D01*
X0261524Y0135654D01*
X0261534Y0135802D01*
X0261548Y0135949D01*
X0261566Y0136096D01*
X0261587Y0136242D01*
X0261613Y0136388D01*
X0261643Y0136533D01*
X0261676Y0136677D01*
X0261714Y0136820D01*
X0261755Y0136962D01*
X0261800Y0137103D01*
X0261848Y0137243D01*
X0261901Y0137382D01*
X0261957Y0137519D01*
X0262017Y0137654D01*
X0262080Y0137788D01*
X0262147Y0137920D01*
X0262218Y0138050D01*
X0262292Y0138178D01*
X0262369Y0138304D01*
X0262450Y0138428D01*
X0262534Y0138550D01*
X0262621Y0138669D01*
X0262712Y0138786D01*
X0262806Y0138901D01*
X0262902Y0139013D01*
X0263002Y0139123D01*
X0263104Y0139229D01*
X0263210Y0139333D01*
X0263318Y0139434D01*
X0263429Y0139532D01*
X0263542Y0139628D01*
X0263658Y0139720D01*
X0263776Y0139809D01*
X0263897Y0139894D01*
X0264020Y0139977D01*
X0264145Y0140056D01*
X0264272Y0140132D01*
X0264401Y0140204D01*
X0264532Y0140273D01*
X0264665Y0140338D01*
X0264800Y0140399D01*
X0264936Y0140457D01*
X0265073Y0140512D01*
X0265212Y0140562D01*
X0265353Y0140609D01*
X0265494Y0140652D01*
X0265637Y0140692D01*
X0265781Y0140727D01*
X0265925Y0140759D01*
X0266071Y0140786D01*
X0266217Y0140810D01*
X0266364Y0140830D01*
X0266511Y0140846D01*
X0266658Y0140858D01*
X0266806Y0140866D01*
X0266954Y0140870D01*
X0267102Y0140870D01*
X0267250Y0140866D01*
X0267398Y0140858D01*
X0267545Y0140846D01*
X0267692Y0140830D01*
X0267839Y0140810D01*
X0267985Y0140786D01*
X0268131Y0140759D01*
X0268275Y0140727D01*
X0268419Y0140692D01*
X0268562Y0140652D01*
X0268703Y0140609D01*
X0268844Y0140562D01*
X0268983Y0140512D01*
X0269120Y0140457D01*
X0269256Y0140399D01*
X0269391Y0140338D01*
X0269524Y0140273D01*
X0269655Y0140204D01*
X0269784Y0140132D01*
X0269911Y0140056D01*
X0270036Y0139977D01*
X0270159Y0139894D01*
X0270280Y0139809D01*
X0270398Y0139720D01*
X0270514Y0139628D01*
X0270627Y0139532D01*
X0270738Y0139434D01*
X0270846Y0139333D01*
X0270952Y0139229D01*
X0271054Y0139123D01*
X0271154Y0139013D01*
X0271250Y0138901D01*
X0271344Y0138786D01*
X0271435Y0138669D01*
X0271522Y0138550D01*
X0271606Y0138428D01*
X0271687Y0138304D01*
X0271764Y0138178D01*
X0271838Y0138050D01*
X0271909Y0137920D01*
X0271976Y0137788D01*
X0272039Y0137654D01*
X0272099Y0137519D01*
X0272155Y0137382D01*
X0272208Y0137243D01*
X0272256Y0137103D01*
X0272301Y0136962D01*
X0272342Y0136820D01*
X0272380Y0136677D01*
X0272413Y0136533D01*
X0272443Y0136388D01*
X0272469Y0136242D01*
X0272490Y0136096D01*
X0272508Y0135949D01*
X0272522Y0135802D01*
X0272532Y0135654D01*
X0272538Y0135506D01*
X0272540Y0135358D01*
X0272538Y0135210D01*
X0272532Y0135062D01*
X0272522Y0134914D01*
X0272508Y0134767D01*
X0272490Y0134620D01*
X0272469Y0134474D01*
X0272443Y0134328D01*
X0272413Y0134183D01*
X0272380Y0134039D01*
X0272342Y0133896D01*
X0272301Y0133754D01*
X0272256Y0133613D01*
X0272208Y0133473D01*
X0272155Y0133334D01*
X0272099Y0133197D01*
X0272039Y0133062D01*
X0271976Y0132928D01*
X0271909Y0132796D01*
X0271838Y0132666D01*
X0271764Y0132538D01*
X0271687Y0132412D01*
X0271606Y0132288D01*
X0271522Y0132166D01*
X0271435Y0132047D01*
X0271344Y0131930D01*
X0271250Y0131815D01*
X0271154Y0131703D01*
X0271054Y0131593D01*
X0270952Y0131487D01*
X0270846Y0131383D01*
X0270738Y0131282D01*
X0270627Y0131184D01*
X0270514Y0131088D01*
X0270398Y0130996D01*
X0270280Y0130907D01*
X0270159Y0130822D01*
X0270036Y0130739D01*
X0269911Y0130660D01*
X0269784Y0130584D01*
X0269655Y0130512D01*
X0269524Y0130443D01*
X0269391Y0130378D01*
X0269256Y0130317D01*
X0269120Y0130259D01*
X0268983Y0130204D01*
X0268844Y0130154D01*
X0268703Y0130107D01*
X0268562Y0130064D01*
X0268419Y0130024D01*
X0268275Y0129989D01*
X0268131Y0129957D01*
X0267985Y0129930D01*
X0267839Y0129906D01*
X0267692Y0129886D01*
X0267545Y0129870D01*
X0267398Y0129858D01*
X0267250Y0129850D01*
X0267102Y0129846D01*
X0266954Y0129846D01*
X0266806Y0129850D01*
X0266658Y0129858D01*
X0266511Y0129870D01*
X0266364Y0129886D01*
X0266217Y0129906D01*
X0266071Y0129930D01*
X0265925Y0129957D01*
X0265781Y0129989D01*
X0265637Y0130024D01*
X0265494Y0130064D01*
X0265353Y0130107D01*
X0265212Y0130154D01*
X0265073Y0130204D01*
X0264936Y0130259D01*
X0264800Y0130317D01*
X0264665Y0130378D01*
X0264532Y0130443D01*
X0264401Y0130512D01*
X0264272Y0130584D01*
X0264145Y0130660D01*
X0264020Y0130739D01*
X0263897Y0130822D01*
X0263776Y0130907D01*
X0263658Y0130996D01*
X0263542Y0131088D01*
X0263429Y0131184D01*
X0263318Y0131282D01*
X0263210Y0131383D01*
X0263104Y0131487D01*
X0263002Y0131593D01*
X0262902Y0131703D01*
X0262806Y0131815D01*
X0262712Y0131930D01*
X0262621Y0132047D01*
X0262534Y0132166D01*
X0262450Y0132288D01*
X0262369Y0132412D01*
X0262292Y0132538D01*
X0262218Y0132666D01*
X0262147Y0132796D01*
X0262080Y0132928D01*
X0262017Y0133062D01*
X0261957Y0133197D01*
X0261901Y0133334D01*
X0261848Y0133473D01*
X0261800Y0133613D01*
X0261755Y0133754D01*
X0261714Y0133896D01*
X0261676Y0134039D01*
X0261643Y0134183D01*
X0261613Y0134328D01*
X0261587Y0134474D01*
X0261566Y0134620D01*
X0261548Y0134767D01*
X0261534Y0134914D01*
X0261524Y0135062D01*
X0261518Y0135210D01*
X0261516Y0135358D01*
X0271752Y0314492D02*
X0271754Y0314576D01*
X0271760Y0314659D01*
X0271770Y0314742D01*
X0271784Y0314825D01*
X0271801Y0314907D01*
X0271823Y0314988D01*
X0271848Y0315067D01*
X0271877Y0315146D01*
X0271910Y0315223D01*
X0271946Y0315298D01*
X0271986Y0315372D01*
X0272029Y0315444D01*
X0272076Y0315513D01*
X0272126Y0315580D01*
X0272179Y0315645D01*
X0272235Y0315707D01*
X0272293Y0315767D01*
X0272355Y0315824D01*
X0272419Y0315877D01*
X0272486Y0315928D01*
X0272555Y0315975D01*
X0272626Y0316020D01*
X0272699Y0316060D01*
X0272774Y0316097D01*
X0272851Y0316131D01*
X0272929Y0316161D01*
X0273008Y0316187D01*
X0273089Y0316210D01*
X0273171Y0316228D01*
X0273253Y0316243D01*
X0273336Y0316254D01*
X0273419Y0316261D01*
X0273503Y0316264D01*
X0273587Y0316263D01*
X0273670Y0316258D01*
X0273754Y0316249D01*
X0273836Y0316236D01*
X0273918Y0316220D01*
X0273999Y0316199D01*
X0274080Y0316175D01*
X0274158Y0316147D01*
X0274236Y0316115D01*
X0274312Y0316079D01*
X0274386Y0316040D01*
X0274458Y0315998D01*
X0274528Y0315952D01*
X0274596Y0315903D01*
X0274661Y0315851D01*
X0274724Y0315796D01*
X0274784Y0315738D01*
X0274842Y0315677D01*
X0274896Y0315613D01*
X0274948Y0315547D01*
X0274996Y0315479D01*
X0275041Y0315408D01*
X0275082Y0315335D01*
X0275121Y0315261D01*
X0275155Y0315185D01*
X0275186Y0315107D01*
X0275213Y0315028D01*
X0275237Y0314947D01*
X0275256Y0314866D01*
X0275272Y0314784D01*
X0275284Y0314701D01*
X0275292Y0314617D01*
X0275296Y0314534D01*
X0275296Y0314450D01*
X0275292Y0314367D01*
X0275284Y0314283D01*
X0275272Y0314200D01*
X0275256Y0314118D01*
X0275237Y0314037D01*
X0275213Y0313956D01*
X0275186Y0313877D01*
X0275155Y0313799D01*
X0275121Y0313723D01*
X0275082Y0313649D01*
X0275041Y0313576D01*
X0274996Y0313505D01*
X0274948Y0313437D01*
X0274896Y0313371D01*
X0274842Y0313307D01*
X0274784Y0313246D01*
X0274724Y0313188D01*
X0274661Y0313133D01*
X0274596Y0313081D01*
X0274528Y0313032D01*
X0274458Y0312986D01*
X0274386Y0312944D01*
X0274312Y0312905D01*
X0274236Y0312869D01*
X0274158Y0312837D01*
X0274080Y0312809D01*
X0273999Y0312785D01*
X0273918Y0312764D01*
X0273836Y0312748D01*
X0273754Y0312735D01*
X0273670Y0312726D01*
X0273587Y0312721D01*
X0273503Y0312720D01*
X0273419Y0312723D01*
X0273336Y0312730D01*
X0273253Y0312741D01*
X0273171Y0312756D01*
X0273089Y0312774D01*
X0273008Y0312797D01*
X0272929Y0312823D01*
X0272851Y0312853D01*
X0272774Y0312887D01*
X0272699Y0312924D01*
X0272626Y0312964D01*
X0272555Y0313009D01*
X0272486Y0313056D01*
X0272419Y0313107D01*
X0272355Y0313160D01*
X0272293Y0313217D01*
X0272235Y0313277D01*
X0272179Y0313339D01*
X0272126Y0313404D01*
X0272076Y0313471D01*
X0272029Y0313540D01*
X0271986Y0313612D01*
X0271946Y0313686D01*
X0271910Y0313761D01*
X0271877Y0313838D01*
X0271848Y0313917D01*
X0271823Y0313996D01*
X0271801Y0314077D01*
X0271784Y0314159D01*
X0271770Y0314242D01*
X0271760Y0314325D01*
X0271754Y0314408D01*
X0271752Y0314492D01*
X0271752Y0326303D02*
X0271754Y0326387D01*
X0271760Y0326470D01*
X0271770Y0326553D01*
X0271784Y0326636D01*
X0271801Y0326718D01*
X0271823Y0326799D01*
X0271848Y0326878D01*
X0271877Y0326957D01*
X0271910Y0327034D01*
X0271946Y0327109D01*
X0271986Y0327183D01*
X0272029Y0327255D01*
X0272076Y0327324D01*
X0272126Y0327391D01*
X0272179Y0327456D01*
X0272235Y0327518D01*
X0272293Y0327578D01*
X0272355Y0327635D01*
X0272419Y0327688D01*
X0272486Y0327739D01*
X0272555Y0327786D01*
X0272626Y0327831D01*
X0272699Y0327871D01*
X0272774Y0327908D01*
X0272851Y0327942D01*
X0272929Y0327972D01*
X0273008Y0327998D01*
X0273089Y0328021D01*
X0273171Y0328039D01*
X0273253Y0328054D01*
X0273336Y0328065D01*
X0273419Y0328072D01*
X0273503Y0328075D01*
X0273587Y0328074D01*
X0273670Y0328069D01*
X0273754Y0328060D01*
X0273836Y0328047D01*
X0273918Y0328031D01*
X0273999Y0328010D01*
X0274080Y0327986D01*
X0274158Y0327958D01*
X0274236Y0327926D01*
X0274312Y0327890D01*
X0274386Y0327851D01*
X0274458Y0327809D01*
X0274528Y0327763D01*
X0274596Y0327714D01*
X0274661Y0327662D01*
X0274724Y0327607D01*
X0274784Y0327549D01*
X0274842Y0327488D01*
X0274896Y0327424D01*
X0274948Y0327358D01*
X0274996Y0327290D01*
X0275041Y0327219D01*
X0275082Y0327146D01*
X0275121Y0327072D01*
X0275155Y0326996D01*
X0275186Y0326918D01*
X0275213Y0326839D01*
X0275237Y0326758D01*
X0275256Y0326677D01*
X0275272Y0326595D01*
X0275284Y0326512D01*
X0275292Y0326428D01*
X0275296Y0326345D01*
X0275296Y0326261D01*
X0275292Y0326178D01*
X0275284Y0326094D01*
X0275272Y0326011D01*
X0275256Y0325929D01*
X0275237Y0325848D01*
X0275213Y0325767D01*
X0275186Y0325688D01*
X0275155Y0325610D01*
X0275121Y0325534D01*
X0275082Y0325460D01*
X0275041Y0325387D01*
X0274996Y0325316D01*
X0274948Y0325248D01*
X0274896Y0325182D01*
X0274842Y0325118D01*
X0274784Y0325057D01*
X0274724Y0324999D01*
X0274661Y0324944D01*
X0274596Y0324892D01*
X0274528Y0324843D01*
X0274458Y0324797D01*
X0274386Y0324755D01*
X0274312Y0324716D01*
X0274236Y0324680D01*
X0274158Y0324648D01*
X0274080Y0324620D01*
X0273999Y0324596D01*
X0273918Y0324575D01*
X0273836Y0324559D01*
X0273754Y0324546D01*
X0273670Y0324537D01*
X0273587Y0324532D01*
X0273503Y0324531D01*
X0273419Y0324534D01*
X0273336Y0324541D01*
X0273253Y0324552D01*
X0273171Y0324567D01*
X0273089Y0324585D01*
X0273008Y0324608D01*
X0272929Y0324634D01*
X0272851Y0324664D01*
X0272774Y0324698D01*
X0272699Y0324735D01*
X0272626Y0324775D01*
X0272555Y0324820D01*
X0272486Y0324867D01*
X0272419Y0324918D01*
X0272355Y0324971D01*
X0272293Y0325028D01*
X0272235Y0325088D01*
X0272179Y0325150D01*
X0272126Y0325215D01*
X0272076Y0325282D01*
X0272029Y0325351D01*
X0271986Y0325423D01*
X0271946Y0325497D01*
X0271910Y0325572D01*
X0271877Y0325649D01*
X0271848Y0325728D01*
X0271823Y0325807D01*
X0271801Y0325888D01*
X0271784Y0325970D01*
X0271770Y0326053D01*
X0271760Y0326136D01*
X0271754Y0326219D01*
X0271752Y0326303D01*
X0261516Y0359768D02*
X0261518Y0359916D01*
X0261524Y0360064D01*
X0261534Y0360212D01*
X0261548Y0360359D01*
X0261566Y0360506D01*
X0261587Y0360652D01*
X0261613Y0360798D01*
X0261643Y0360943D01*
X0261676Y0361087D01*
X0261714Y0361230D01*
X0261755Y0361372D01*
X0261800Y0361513D01*
X0261848Y0361653D01*
X0261901Y0361792D01*
X0261957Y0361929D01*
X0262017Y0362064D01*
X0262080Y0362198D01*
X0262147Y0362330D01*
X0262218Y0362460D01*
X0262292Y0362588D01*
X0262369Y0362714D01*
X0262450Y0362838D01*
X0262534Y0362960D01*
X0262621Y0363079D01*
X0262712Y0363196D01*
X0262806Y0363311D01*
X0262902Y0363423D01*
X0263002Y0363533D01*
X0263104Y0363639D01*
X0263210Y0363743D01*
X0263318Y0363844D01*
X0263429Y0363942D01*
X0263542Y0364038D01*
X0263658Y0364130D01*
X0263776Y0364219D01*
X0263897Y0364304D01*
X0264020Y0364387D01*
X0264145Y0364466D01*
X0264272Y0364542D01*
X0264401Y0364614D01*
X0264532Y0364683D01*
X0264665Y0364748D01*
X0264800Y0364809D01*
X0264936Y0364867D01*
X0265073Y0364922D01*
X0265212Y0364972D01*
X0265353Y0365019D01*
X0265494Y0365062D01*
X0265637Y0365102D01*
X0265781Y0365137D01*
X0265925Y0365169D01*
X0266071Y0365196D01*
X0266217Y0365220D01*
X0266364Y0365240D01*
X0266511Y0365256D01*
X0266658Y0365268D01*
X0266806Y0365276D01*
X0266954Y0365280D01*
X0267102Y0365280D01*
X0267250Y0365276D01*
X0267398Y0365268D01*
X0267545Y0365256D01*
X0267692Y0365240D01*
X0267839Y0365220D01*
X0267985Y0365196D01*
X0268131Y0365169D01*
X0268275Y0365137D01*
X0268419Y0365102D01*
X0268562Y0365062D01*
X0268703Y0365019D01*
X0268844Y0364972D01*
X0268983Y0364922D01*
X0269120Y0364867D01*
X0269256Y0364809D01*
X0269391Y0364748D01*
X0269524Y0364683D01*
X0269655Y0364614D01*
X0269784Y0364542D01*
X0269911Y0364466D01*
X0270036Y0364387D01*
X0270159Y0364304D01*
X0270280Y0364219D01*
X0270398Y0364130D01*
X0270514Y0364038D01*
X0270627Y0363942D01*
X0270738Y0363844D01*
X0270846Y0363743D01*
X0270952Y0363639D01*
X0271054Y0363533D01*
X0271154Y0363423D01*
X0271250Y0363311D01*
X0271344Y0363196D01*
X0271435Y0363079D01*
X0271522Y0362960D01*
X0271606Y0362838D01*
X0271687Y0362714D01*
X0271764Y0362588D01*
X0271838Y0362460D01*
X0271909Y0362330D01*
X0271976Y0362198D01*
X0272039Y0362064D01*
X0272099Y0361929D01*
X0272155Y0361792D01*
X0272208Y0361653D01*
X0272256Y0361513D01*
X0272301Y0361372D01*
X0272342Y0361230D01*
X0272380Y0361087D01*
X0272413Y0360943D01*
X0272443Y0360798D01*
X0272469Y0360652D01*
X0272490Y0360506D01*
X0272508Y0360359D01*
X0272522Y0360212D01*
X0272532Y0360064D01*
X0272538Y0359916D01*
X0272540Y0359768D01*
X0272538Y0359620D01*
X0272532Y0359472D01*
X0272522Y0359324D01*
X0272508Y0359177D01*
X0272490Y0359030D01*
X0272469Y0358884D01*
X0272443Y0358738D01*
X0272413Y0358593D01*
X0272380Y0358449D01*
X0272342Y0358306D01*
X0272301Y0358164D01*
X0272256Y0358023D01*
X0272208Y0357883D01*
X0272155Y0357744D01*
X0272099Y0357607D01*
X0272039Y0357472D01*
X0271976Y0357338D01*
X0271909Y0357206D01*
X0271838Y0357076D01*
X0271764Y0356948D01*
X0271687Y0356822D01*
X0271606Y0356698D01*
X0271522Y0356576D01*
X0271435Y0356457D01*
X0271344Y0356340D01*
X0271250Y0356225D01*
X0271154Y0356113D01*
X0271054Y0356003D01*
X0270952Y0355897D01*
X0270846Y0355793D01*
X0270738Y0355692D01*
X0270627Y0355594D01*
X0270514Y0355498D01*
X0270398Y0355406D01*
X0270280Y0355317D01*
X0270159Y0355232D01*
X0270036Y0355149D01*
X0269911Y0355070D01*
X0269784Y0354994D01*
X0269655Y0354922D01*
X0269524Y0354853D01*
X0269391Y0354788D01*
X0269256Y0354727D01*
X0269120Y0354669D01*
X0268983Y0354614D01*
X0268844Y0354564D01*
X0268703Y0354517D01*
X0268562Y0354474D01*
X0268419Y0354434D01*
X0268275Y0354399D01*
X0268131Y0354367D01*
X0267985Y0354340D01*
X0267839Y0354316D01*
X0267692Y0354296D01*
X0267545Y0354280D01*
X0267398Y0354268D01*
X0267250Y0354260D01*
X0267102Y0354256D01*
X0266954Y0354256D01*
X0266806Y0354260D01*
X0266658Y0354268D01*
X0266511Y0354280D01*
X0266364Y0354296D01*
X0266217Y0354316D01*
X0266071Y0354340D01*
X0265925Y0354367D01*
X0265781Y0354399D01*
X0265637Y0354434D01*
X0265494Y0354474D01*
X0265353Y0354517D01*
X0265212Y0354564D01*
X0265073Y0354614D01*
X0264936Y0354669D01*
X0264800Y0354727D01*
X0264665Y0354788D01*
X0264532Y0354853D01*
X0264401Y0354922D01*
X0264272Y0354994D01*
X0264145Y0355070D01*
X0264020Y0355149D01*
X0263897Y0355232D01*
X0263776Y0355317D01*
X0263658Y0355406D01*
X0263542Y0355498D01*
X0263429Y0355594D01*
X0263318Y0355692D01*
X0263210Y0355793D01*
X0263104Y0355897D01*
X0263002Y0356003D01*
X0262902Y0356113D01*
X0262806Y0356225D01*
X0262712Y0356340D01*
X0262621Y0356457D01*
X0262534Y0356576D01*
X0262450Y0356698D01*
X0262369Y0356822D01*
X0262292Y0356948D01*
X0262218Y0357076D01*
X0262147Y0357206D01*
X0262080Y0357338D01*
X0262017Y0357472D01*
X0261957Y0357607D01*
X0261901Y0357744D01*
X0261848Y0357883D01*
X0261800Y0358023D01*
X0261755Y0358164D01*
X0261714Y0358306D01*
X0261676Y0358449D01*
X0261643Y0358593D01*
X0261613Y0358738D01*
X0261587Y0358884D01*
X0261566Y0359030D01*
X0261548Y0359177D01*
X0261534Y0359324D01*
X0261524Y0359472D01*
X0261518Y0359620D01*
X0261516Y0359768D01*
X0013484Y0359768D02*
X0013486Y0359916D01*
X0013492Y0360064D01*
X0013502Y0360212D01*
X0013516Y0360359D01*
X0013534Y0360506D01*
X0013555Y0360652D01*
X0013581Y0360798D01*
X0013611Y0360943D01*
X0013644Y0361087D01*
X0013682Y0361230D01*
X0013723Y0361372D01*
X0013768Y0361513D01*
X0013816Y0361653D01*
X0013869Y0361792D01*
X0013925Y0361929D01*
X0013985Y0362064D01*
X0014048Y0362198D01*
X0014115Y0362330D01*
X0014186Y0362460D01*
X0014260Y0362588D01*
X0014337Y0362714D01*
X0014418Y0362838D01*
X0014502Y0362960D01*
X0014589Y0363079D01*
X0014680Y0363196D01*
X0014774Y0363311D01*
X0014870Y0363423D01*
X0014970Y0363533D01*
X0015072Y0363639D01*
X0015178Y0363743D01*
X0015286Y0363844D01*
X0015397Y0363942D01*
X0015510Y0364038D01*
X0015626Y0364130D01*
X0015744Y0364219D01*
X0015865Y0364304D01*
X0015988Y0364387D01*
X0016113Y0364466D01*
X0016240Y0364542D01*
X0016369Y0364614D01*
X0016500Y0364683D01*
X0016633Y0364748D01*
X0016768Y0364809D01*
X0016904Y0364867D01*
X0017041Y0364922D01*
X0017180Y0364972D01*
X0017321Y0365019D01*
X0017462Y0365062D01*
X0017605Y0365102D01*
X0017749Y0365137D01*
X0017893Y0365169D01*
X0018039Y0365196D01*
X0018185Y0365220D01*
X0018332Y0365240D01*
X0018479Y0365256D01*
X0018626Y0365268D01*
X0018774Y0365276D01*
X0018922Y0365280D01*
X0019070Y0365280D01*
X0019218Y0365276D01*
X0019366Y0365268D01*
X0019513Y0365256D01*
X0019660Y0365240D01*
X0019807Y0365220D01*
X0019953Y0365196D01*
X0020099Y0365169D01*
X0020243Y0365137D01*
X0020387Y0365102D01*
X0020530Y0365062D01*
X0020671Y0365019D01*
X0020812Y0364972D01*
X0020951Y0364922D01*
X0021088Y0364867D01*
X0021224Y0364809D01*
X0021359Y0364748D01*
X0021492Y0364683D01*
X0021623Y0364614D01*
X0021752Y0364542D01*
X0021879Y0364466D01*
X0022004Y0364387D01*
X0022127Y0364304D01*
X0022248Y0364219D01*
X0022366Y0364130D01*
X0022482Y0364038D01*
X0022595Y0363942D01*
X0022706Y0363844D01*
X0022814Y0363743D01*
X0022920Y0363639D01*
X0023022Y0363533D01*
X0023122Y0363423D01*
X0023218Y0363311D01*
X0023312Y0363196D01*
X0023403Y0363079D01*
X0023490Y0362960D01*
X0023574Y0362838D01*
X0023655Y0362714D01*
X0023732Y0362588D01*
X0023806Y0362460D01*
X0023877Y0362330D01*
X0023944Y0362198D01*
X0024007Y0362064D01*
X0024067Y0361929D01*
X0024123Y0361792D01*
X0024176Y0361653D01*
X0024224Y0361513D01*
X0024269Y0361372D01*
X0024310Y0361230D01*
X0024348Y0361087D01*
X0024381Y0360943D01*
X0024411Y0360798D01*
X0024437Y0360652D01*
X0024458Y0360506D01*
X0024476Y0360359D01*
X0024490Y0360212D01*
X0024500Y0360064D01*
X0024506Y0359916D01*
X0024508Y0359768D01*
X0024506Y0359620D01*
X0024500Y0359472D01*
X0024490Y0359324D01*
X0024476Y0359177D01*
X0024458Y0359030D01*
X0024437Y0358884D01*
X0024411Y0358738D01*
X0024381Y0358593D01*
X0024348Y0358449D01*
X0024310Y0358306D01*
X0024269Y0358164D01*
X0024224Y0358023D01*
X0024176Y0357883D01*
X0024123Y0357744D01*
X0024067Y0357607D01*
X0024007Y0357472D01*
X0023944Y0357338D01*
X0023877Y0357206D01*
X0023806Y0357076D01*
X0023732Y0356948D01*
X0023655Y0356822D01*
X0023574Y0356698D01*
X0023490Y0356576D01*
X0023403Y0356457D01*
X0023312Y0356340D01*
X0023218Y0356225D01*
X0023122Y0356113D01*
X0023022Y0356003D01*
X0022920Y0355897D01*
X0022814Y0355793D01*
X0022706Y0355692D01*
X0022595Y0355594D01*
X0022482Y0355498D01*
X0022366Y0355406D01*
X0022248Y0355317D01*
X0022127Y0355232D01*
X0022004Y0355149D01*
X0021879Y0355070D01*
X0021752Y0354994D01*
X0021623Y0354922D01*
X0021492Y0354853D01*
X0021359Y0354788D01*
X0021224Y0354727D01*
X0021088Y0354669D01*
X0020951Y0354614D01*
X0020812Y0354564D01*
X0020671Y0354517D01*
X0020530Y0354474D01*
X0020387Y0354434D01*
X0020243Y0354399D01*
X0020099Y0354367D01*
X0019953Y0354340D01*
X0019807Y0354316D01*
X0019660Y0354296D01*
X0019513Y0354280D01*
X0019366Y0354268D01*
X0019218Y0354260D01*
X0019070Y0354256D01*
X0018922Y0354256D01*
X0018774Y0354260D01*
X0018626Y0354268D01*
X0018479Y0354280D01*
X0018332Y0354296D01*
X0018185Y0354316D01*
X0018039Y0354340D01*
X0017893Y0354367D01*
X0017749Y0354399D01*
X0017605Y0354434D01*
X0017462Y0354474D01*
X0017321Y0354517D01*
X0017180Y0354564D01*
X0017041Y0354614D01*
X0016904Y0354669D01*
X0016768Y0354727D01*
X0016633Y0354788D01*
X0016500Y0354853D01*
X0016369Y0354922D01*
X0016240Y0354994D01*
X0016113Y0355070D01*
X0015988Y0355149D01*
X0015865Y0355232D01*
X0015744Y0355317D01*
X0015626Y0355406D01*
X0015510Y0355498D01*
X0015397Y0355594D01*
X0015286Y0355692D01*
X0015178Y0355793D01*
X0015072Y0355897D01*
X0014970Y0356003D01*
X0014870Y0356113D01*
X0014774Y0356225D01*
X0014680Y0356340D01*
X0014589Y0356457D01*
X0014502Y0356576D01*
X0014418Y0356698D01*
X0014337Y0356822D01*
X0014260Y0356948D01*
X0014186Y0357076D01*
X0014115Y0357206D01*
X0014048Y0357338D01*
X0013985Y0357472D01*
X0013925Y0357607D01*
X0013869Y0357744D01*
X0013816Y0357883D01*
X0013768Y0358023D01*
X0013723Y0358164D01*
X0013682Y0358306D01*
X0013644Y0358449D01*
X0013611Y0358593D01*
X0013581Y0358738D01*
X0013555Y0358884D01*
X0013534Y0359030D01*
X0013516Y0359177D01*
X0013502Y0359324D01*
X0013492Y0359472D01*
X0013486Y0359620D01*
X0013484Y0359768D01*
D11*
X0038000Y0249520D03*
X0048000Y0249520D03*
X0048000Y0239520D03*
X0038000Y0239520D03*
X0058000Y0239520D03*
X0058000Y0249520D03*
X0068000Y0249520D03*
X0068000Y0239520D03*
X0078000Y0239520D03*
X0078000Y0249520D03*
X0088000Y0249520D03*
X0088000Y0239520D03*
X0098000Y0239520D03*
X0098000Y0249520D03*
X0108000Y0249520D03*
X0108000Y0239520D03*
X0118000Y0239520D03*
X0118000Y0249520D03*
X0128000Y0249520D03*
X0128000Y0239520D03*
X0138000Y0239520D03*
X0138000Y0249520D03*
X0148000Y0249520D03*
X0148000Y0239520D03*
X0158000Y0239520D03*
X0158000Y0249520D03*
X0168000Y0249520D03*
X0168000Y0239520D03*
X0178000Y0239520D03*
X0178000Y0249520D03*
X0188000Y0249520D03*
X0188000Y0239520D03*
X0198000Y0239520D03*
X0198000Y0249520D03*
X0208000Y0249520D03*
X0208000Y0239520D03*
X0218000Y0239520D03*
X0218000Y0249520D03*
X0228000Y0249520D03*
X0228000Y0239520D03*
D12*
X0228000Y0233020D03*
X0218000Y0233020D03*
X0208000Y0233020D03*
X0198000Y0233020D03*
X0188000Y0233020D03*
X0178000Y0233020D03*
X0168000Y0233020D03*
X0158000Y0233020D03*
X0148000Y0233020D03*
X0138000Y0233020D03*
X0128000Y0233020D03*
X0118000Y0233020D03*
X0108000Y0233020D03*
X0098000Y0233020D03*
X0088000Y0233020D03*
X0078000Y0233020D03*
X0068000Y0233020D03*
X0058000Y0233020D03*
X0048000Y0233020D03*
X0038000Y0233020D03*
X0038000Y0256020D03*
X0048000Y0256020D03*
X0058000Y0256020D03*
X0068000Y0256020D03*
X0078000Y0256020D03*
X0088000Y0256020D03*
X0098000Y0256020D03*
X0108000Y0256020D03*
X0118000Y0256020D03*
X0128000Y0256020D03*
X0138000Y0256020D03*
X0148000Y0256020D03*
X0158000Y0256020D03*
X0168000Y0256020D03*
X0178000Y0256020D03*
X0188000Y0256020D03*
X0198000Y0256020D03*
X0208000Y0256020D03*
X0218000Y0256020D03*
X0228000Y0256020D03*
D13*
X0104232Y0218626D03*
X0104232Y0204256D03*
X0104232Y0176697D03*
X0104232Y0162327D03*
X0012500Y0162327D03*
X0012500Y0218626D03*
D14*
G36*
X0046829Y0110854D02*
X0052536Y0113515D01*
X0055115Y0107986D01*
X0049408Y0105325D01*
X0046829Y0110854D01*
G37*
G36*
X0055149Y0093013D02*
X0060856Y0095674D01*
X0063435Y0090145D01*
X0057728Y0087484D01*
X0055149Y0093013D01*
G37*
G36*
X0068155Y0056594D02*
X0073862Y0059255D01*
X0076441Y0053726D01*
X0070734Y0051065D01*
X0068155Y0056594D01*
G37*
G36*
X0076474Y0038754D02*
X0082181Y0041415D01*
X0084760Y0035886D01*
X0079053Y0033225D01*
X0076474Y0038754D01*
G37*
G36*
X0117930Y0079805D02*
X0123637Y0082466D01*
X0126216Y0076937D01*
X0120509Y0074276D01*
X0117930Y0079805D01*
G37*
G36*
X0126250Y0061964D02*
X0131957Y0064625D01*
X0134536Y0059096D01*
X0128829Y0056435D01*
X0126250Y0061964D01*
G37*
G36*
X0157195Y0056435D02*
X0151488Y0059096D01*
X0154067Y0064625D01*
X0159774Y0061964D01*
X0157195Y0056435D01*
G37*
G36*
X0165514Y0074276D02*
X0159807Y0076937D01*
X0162386Y0082466D01*
X0168093Y0079805D01*
X0165514Y0074276D01*
G37*
G36*
X0178521Y0110695D02*
X0172814Y0113356D01*
X0175393Y0118885D01*
X0181100Y0116224D01*
X0178521Y0110695D01*
G37*
G36*
X0186840Y0128536D02*
X0181133Y0131197D01*
X0183712Y0136726D01*
X0189419Y0134065D01*
X0186840Y0128536D01*
G37*
G36*
X0228296Y0087484D02*
X0222589Y0090145D01*
X0225168Y0095674D01*
X0230875Y0093013D01*
X0228296Y0087484D01*
G37*
G36*
X0236615Y0105325D02*
X0230908Y0107986D01*
X0233487Y0113515D01*
X0239194Y0110854D01*
X0236615Y0105325D01*
G37*
G36*
X0215290Y0051065D02*
X0209583Y0053726D01*
X0212162Y0059255D01*
X0217869Y0056594D01*
X0215290Y0051065D01*
G37*
G36*
X0206971Y0033225D02*
X0201264Y0035886D01*
X0203843Y0041415D01*
X0209550Y0038754D01*
X0206971Y0033225D01*
G37*
G36*
X0104924Y0116224D02*
X0110631Y0118885D01*
X0113210Y0113356D01*
X0107503Y0110695D01*
X0104924Y0116224D01*
G37*
G36*
X0096605Y0134065D02*
X0102312Y0136726D01*
X0104891Y0131197D01*
X0099184Y0128536D01*
X0096605Y0134065D01*
G37*
D15*
X0274902Y0288902D03*
X0274902Y0296776D03*
D16*
X0274902Y0281224D03*
X0274902Y0272957D03*
D17*
X0266634Y0311539D03*
X0266634Y0317445D03*
X0266634Y0329256D03*
D18*
X0277461Y0334768D03*
X0277461Y0306028D03*
D19*
X0269193Y0306028D03*
X0269193Y0334768D03*
D20*
X0125114Y0194028D03*
X0125114Y0186154D03*
D21*
X0145587Y0176705D03*
X0145587Y0203476D03*
D22*
X0144403Y0197313D02*
X0143338Y0196872D01*
X0142522Y0196056D01*
X0142080Y0194990D01*
X0142080Y0189054D01*
X0135076Y0189054D01*
X0134708Y0189422D01*
X0115521Y0189422D01*
X0114759Y0188661D01*
X0114759Y0183647D01*
X0115521Y0182885D01*
X0134708Y0182885D01*
X0135076Y0183254D01*
X0145557Y0183254D01*
X0146623Y0183695D01*
X0147439Y0184511D01*
X0147880Y0185577D01*
X0147880Y0191513D01*
X0161305Y0191513D01*
X0162371Y0191955D01*
X0163187Y0192771D01*
X0163628Y0193837D01*
X0163628Y0214675D01*
X0163187Y0215741D01*
X0162371Y0216557D01*
X0161305Y0216998D01*
X0128655Y0216998D01*
X0127590Y0216557D01*
X0126774Y0215741D01*
X0126332Y0214675D01*
X0126332Y0207156D01*
X0110532Y0207156D01*
X0110532Y0209794D01*
X0109771Y0210556D01*
X0098694Y0210556D01*
X0097932Y0209794D01*
X0097932Y0198717D01*
X0098694Y0197956D01*
X0109771Y0197956D01*
X0110532Y0198717D01*
X0110532Y0201356D01*
X0129809Y0201356D01*
X0130875Y0201797D01*
X0131691Y0202613D01*
X0132132Y0203679D01*
X0132132Y0211198D01*
X0157828Y0211198D01*
X0157828Y0197313D01*
X0144403Y0197313D01*
X0144150Y0197208D02*
X0134796Y0197208D01*
X0134708Y0197296D02*
X0135469Y0196535D01*
X0135469Y0191521D01*
X0134708Y0190759D01*
X0115521Y0190759D01*
X0115152Y0191128D01*
X0107132Y0191128D01*
X0107132Y0182997D01*
X0109771Y0182997D01*
X0110532Y0182235D01*
X0110532Y0171158D01*
X0109771Y0170397D01*
X0098694Y0170397D01*
X0097932Y0171158D01*
X0097932Y0182235D01*
X0098694Y0182997D01*
X0101332Y0182997D01*
X0101332Y0194604D01*
X0101774Y0195670D01*
X0102590Y0196486D01*
X0103655Y0196928D01*
X0115152Y0196928D01*
X0115521Y0197296D01*
X0134708Y0197296D01*
X0135469Y0196210D02*
X0142675Y0196210D01*
X0142172Y0195211D02*
X0135469Y0195211D01*
X0135469Y0194213D02*
X0142080Y0194213D01*
X0142080Y0193214D02*
X0135469Y0193214D01*
X0135469Y0192216D02*
X0142080Y0192216D01*
X0142080Y0191217D02*
X0135166Y0191217D01*
X0134910Y0189220D02*
X0142080Y0189220D01*
X0142080Y0190219D02*
X0107132Y0190219D01*
X0107132Y0189220D02*
X0115319Y0189220D01*
X0114759Y0188222D02*
X0107132Y0188222D01*
X0107132Y0187223D02*
X0114759Y0187223D01*
X0114759Y0186225D02*
X0107132Y0186225D01*
X0107132Y0185226D02*
X0114759Y0185226D01*
X0114759Y0184228D02*
X0107132Y0184228D01*
X0107132Y0183229D02*
X0115177Y0183229D01*
X0110532Y0182231D02*
X0166702Y0182231D01*
X0166702Y0183229D02*
X0135052Y0183229D01*
X0137594Y0180393D02*
X0137594Y0173017D01*
X0138355Y0172255D01*
X0152818Y0172255D01*
X0153580Y0173017D01*
X0153580Y0180393D01*
X0152818Y0181154D01*
X0138355Y0181154D01*
X0137594Y0180393D01*
X0137594Y0180234D02*
X0110532Y0180234D01*
X0110532Y0181232D02*
X0156205Y0181232D01*
X0156253Y0181280D02*
X0155385Y0180412D01*
X0154916Y0179279D01*
X0154916Y0178052D01*
X0155385Y0176918D01*
X0156253Y0176051D01*
X0157386Y0175581D01*
X0158613Y0175581D01*
X0159747Y0176051D01*
X0160462Y0176765D01*
X0169389Y0176765D01*
X0170502Y0177878D01*
X0170502Y0222759D01*
X0169389Y0223872D01*
X0159900Y0223872D01*
X0159900Y0228220D01*
X0160138Y0228220D01*
X0160900Y0228981D01*
X0160900Y0235220D01*
X0161538Y0235220D01*
X0162300Y0235981D01*
X0162300Y0243058D01*
X0161538Y0243820D01*
X0154462Y0243820D01*
X0153700Y0243058D01*
X0153700Y0235981D01*
X0154462Y0235220D01*
X0155100Y0235220D01*
X0155100Y0228981D01*
X0155862Y0228220D01*
X0156100Y0228220D01*
X0156100Y0221185D01*
X0157213Y0220072D01*
X0166702Y0220072D01*
X0166702Y0180565D01*
X0160462Y0180565D01*
X0159747Y0181280D01*
X0158613Y0181750D01*
X0157386Y0181750D01*
X0156253Y0181280D01*
X0155311Y0180234D02*
X0153580Y0180234D01*
X0153580Y0179235D02*
X0154916Y0179235D01*
X0154916Y0178237D02*
X0153580Y0178237D01*
X0153580Y0177238D02*
X0155253Y0177238D01*
X0156064Y0176239D02*
X0153580Y0176239D01*
X0153580Y0175241D02*
X0186100Y0175241D01*
X0186100Y0176239D02*
X0159936Y0176239D01*
X0159795Y0181232D02*
X0166702Y0181232D01*
X0166702Y0184228D02*
X0147156Y0184228D01*
X0147735Y0185226D02*
X0166702Y0185226D01*
X0166702Y0186225D02*
X0147880Y0186225D01*
X0147880Y0187223D02*
X0166702Y0187223D01*
X0166702Y0188222D02*
X0147880Y0188222D01*
X0147880Y0189220D02*
X0166702Y0189220D01*
X0166702Y0190219D02*
X0147880Y0190219D01*
X0147880Y0191217D02*
X0166702Y0191217D01*
X0166702Y0192216D02*
X0162632Y0192216D01*
X0163371Y0193214D02*
X0166702Y0193214D01*
X0166702Y0194213D02*
X0163628Y0194213D01*
X0163628Y0195211D02*
X0166702Y0195211D01*
X0166702Y0196210D02*
X0163628Y0196210D01*
X0163628Y0197208D02*
X0166702Y0197208D01*
X0166702Y0198207D02*
X0163628Y0198207D01*
X0163628Y0199205D02*
X0166702Y0199205D01*
X0166702Y0200204D02*
X0163628Y0200204D01*
X0163628Y0201202D02*
X0166702Y0201202D01*
X0166702Y0202201D02*
X0163628Y0202201D01*
X0163628Y0203199D02*
X0166702Y0203199D01*
X0166702Y0204198D02*
X0163628Y0204198D01*
X0163628Y0205196D02*
X0166702Y0205196D01*
X0166702Y0206195D02*
X0163628Y0206195D01*
X0163628Y0207193D02*
X0166702Y0207193D01*
X0166702Y0208192D02*
X0163628Y0208192D01*
X0163628Y0209190D02*
X0166702Y0209190D01*
X0166702Y0210189D02*
X0163628Y0210189D01*
X0163628Y0211187D02*
X0166702Y0211187D01*
X0166702Y0212186D02*
X0163628Y0212186D01*
X0163628Y0213184D02*
X0166702Y0213184D01*
X0166702Y0214183D02*
X0163628Y0214183D01*
X0163419Y0215181D02*
X0166702Y0215181D01*
X0166702Y0216180D02*
X0162748Y0216180D01*
X0157828Y0211187D02*
X0132132Y0211187D01*
X0132132Y0210189D02*
X0157828Y0210189D01*
X0157828Y0209190D02*
X0132132Y0209190D01*
X0132132Y0208192D02*
X0157828Y0208192D01*
X0157828Y0207193D02*
X0153551Y0207193D01*
X0153580Y0207164D02*
X0152818Y0207926D01*
X0138355Y0207926D01*
X0137594Y0207164D01*
X0137594Y0199788D01*
X0138355Y0199027D01*
X0152818Y0199027D01*
X0153580Y0199788D01*
X0153580Y0207164D01*
X0153580Y0206195D02*
X0157828Y0206195D01*
X0157828Y0205196D02*
X0153580Y0205196D01*
X0153580Y0204198D02*
X0157828Y0204198D01*
X0157828Y0203199D02*
X0153580Y0203199D01*
X0153580Y0202201D02*
X0157828Y0202201D01*
X0157828Y0201202D02*
X0153580Y0201202D01*
X0153580Y0200204D02*
X0157828Y0200204D01*
X0157828Y0199205D02*
X0152996Y0199205D01*
X0157828Y0198207D02*
X0110022Y0198207D01*
X0110532Y0199205D02*
X0138177Y0199205D01*
X0137594Y0200204D02*
X0110532Y0200204D01*
X0110532Y0201202D02*
X0137594Y0201202D01*
X0137594Y0202201D02*
X0131278Y0202201D01*
X0131934Y0203199D02*
X0137594Y0203199D01*
X0137594Y0204198D02*
X0132132Y0204198D01*
X0132132Y0205196D02*
X0137594Y0205196D01*
X0137594Y0206195D02*
X0132132Y0206195D01*
X0132132Y0207193D02*
X0137623Y0207193D01*
X0126332Y0207193D02*
X0110532Y0207193D01*
X0110532Y0208192D02*
X0126332Y0208192D01*
X0126332Y0209190D02*
X0110532Y0209190D01*
X0110138Y0210189D02*
X0126332Y0210189D01*
X0126332Y0211187D02*
X0094715Y0211187D01*
X0094715Y0210189D02*
X0098327Y0210189D01*
X0097932Y0209190D02*
X0094715Y0209190D01*
X0094715Y0208192D02*
X0097932Y0208192D01*
X0097932Y0207193D02*
X0094715Y0207193D01*
X0094715Y0206195D02*
X0097932Y0206195D01*
X0097932Y0205196D02*
X0094715Y0205196D01*
X0094715Y0204198D02*
X0097932Y0204198D01*
X0097932Y0203199D02*
X0094715Y0203199D01*
X0094715Y0202201D02*
X0097932Y0202201D01*
X0097932Y0201202D02*
X0094417Y0201202D01*
X0094715Y0201500D02*
X0094715Y0235043D01*
X0094803Y0235020D01*
X0094900Y0235020D01*
X0094900Y0233320D01*
X0097700Y0233320D01*
X0097700Y0238020D01*
X0097500Y0238020D01*
X0097500Y0239020D01*
X0098500Y0239020D01*
X0098500Y0240020D01*
X0097500Y0240020D01*
X0097500Y0244020D01*
X0094803Y0244020D01*
X0094715Y0243996D01*
X0094715Y0245220D01*
X0101538Y0245220D01*
X0102300Y0245981D01*
X0102300Y0253058D01*
X0101538Y0253820D01*
X0100900Y0253820D01*
X0100900Y0260058D01*
X0100138Y0260820D01*
X0095862Y0260820D01*
X0095100Y0260058D01*
X0095100Y0253820D01*
X0094462Y0253820D01*
X0093700Y0253058D01*
X0093700Y0251420D01*
X0092300Y0251420D01*
X0092300Y0253058D01*
X0091538Y0253820D01*
X0090900Y0253820D01*
X0090900Y0260058D01*
X0090138Y0260820D01*
X0085862Y0260820D01*
X0085100Y0260058D01*
X0085100Y0253820D01*
X0084462Y0253820D01*
X0083700Y0253058D01*
X0083700Y0251420D01*
X0082500Y0251420D01*
X0082500Y0252717D01*
X0082398Y0253099D01*
X0082200Y0253441D01*
X0081921Y0253720D01*
X0081579Y0253917D01*
X0081197Y0254020D01*
X0081100Y0254020D01*
X0081100Y0255720D01*
X0078300Y0255720D01*
X0078300Y0256320D01*
X0077700Y0256320D01*
X0077700Y0261020D01*
X0076203Y0261020D01*
X0075821Y0260917D01*
X0075479Y0260720D01*
X0075200Y0260441D01*
X0075002Y0260099D01*
X0074900Y0259717D01*
X0074900Y0256320D01*
X0077700Y0256320D01*
X0077700Y0255720D01*
X0074900Y0255720D01*
X0074900Y0254020D01*
X0074803Y0254020D01*
X0074421Y0253917D01*
X0074079Y0253720D01*
X0073800Y0253441D01*
X0073602Y0253099D01*
X0073500Y0252717D01*
X0073500Y0250020D01*
X0077500Y0250020D01*
X0077500Y0251020D01*
X0077700Y0251020D01*
X0077700Y0255720D01*
X0078300Y0255720D01*
X0078300Y0251020D01*
X0078500Y0251020D01*
X0078500Y0250020D01*
X0077500Y0250020D01*
X0077500Y0249020D01*
X0073500Y0249020D01*
X0073500Y0246322D01*
X0073602Y0245941D01*
X0073800Y0245599D01*
X0074079Y0245319D01*
X0074421Y0245122D01*
X0074803Y0245020D01*
X0077500Y0245020D01*
X0077500Y0249020D01*
X0078500Y0249020D01*
X0078500Y0245020D01*
X0081072Y0245020D01*
X0081072Y0243820D01*
X0074462Y0243820D01*
X0073700Y0243058D01*
X0073700Y0241420D01*
X0073327Y0241420D01*
X0072300Y0240392D01*
X0072300Y0243058D01*
X0071538Y0243820D01*
X0064462Y0243820D01*
X0063700Y0243058D01*
X0063700Y0235981D01*
X0064462Y0235220D01*
X0065100Y0235220D01*
X0065100Y0228981D01*
X0065862Y0228220D01*
X0070138Y0228220D01*
X0070900Y0228981D01*
X0070900Y0235220D01*
X0071538Y0235220D01*
X0072214Y0235895D01*
X0072214Y0208549D01*
X0071924Y0208839D01*
X0070791Y0209309D01*
X0069564Y0209309D01*
X0068430Y0208839D01*
X0067562Y0207971D01*
X0067093Y0206838D01*
X0067093Y0205611D01*
X0067562Y0204477D01*
X0068277Y0203763D01*
X0068277Y0111320D01*
X0054996Y0111320D01*
X0053488Y0114554D01*
X0052476Y0114922D01*
X0045791Y0111805D01*
X0045423Y0110793D01*
X0048457Y0104286D01*
X0049469Y0103918D01*
X0056154Y0107035D01*
X0056330Y0107520D01*
X0070964Y0107520D01*
X0072077Y0108633D01*
X0072077Y0203763D01*
X0072214Y0203900D01*
X0072214Y0059922D01*
X0067116Y0057545D01*
X0066748Y0056533D01*
X0069782Y0050026D01*
X0070794Y0049658D01*
X0077479Y0052775D01*
X0077847Y0053787D01*
X0076014Y0057719D01*
X0076014Y0228220D01*
X0080138Y0228220D01*
X0080900Y0228981D01*
X0080900Y0235220D01*
X0081072Y0235220D01*
X0081072Y0223872D01*
X0077264Y0223872D01*
X0076151Y0222759D01*
X0076151Y0118823D01*
X0077264Y0117710D01*
X0091899Y0117710D01*
X0091899Y0095201D01*
X0093012Y0094088D01*
X0203507Y0094088D01*
X0203507Y0042677D01*
X0202891Y0042453D01*
X0199857Y0035947D01*
X0200225Y0034935D01*
X0206910Y0031817D01*
X0207922Y0032186D01*
X0210956Y0038692D01*
X0210588Y0039704D01*
X0207307Y0041235D01*
X0207307Y0096775D01*
X0206194Y0097888D01*
X0095699Y0097888D01*
X0095699Y0120397D01*
X0094586Y0121510D01*
X0079951Y0121510D01*
X0079951Y0220072D01*
X0083759Y0220072D01*
X0084872Y0221185D01*
X0084872Y0235220D01*
X0085100Y0235220D01*
X0085100Y0228981D01*
X0085862Y0228220D01*
X0086100Y0228220D01*
X0086100Y0208686D01*
X0085385Y0207971D01*
X0084916Y0206838D01*
X0084916Y0205611D01*
X0085385Y0204477D01*
X0085675Y0204187D01*
X0081201Y0204187D01*
X0080088Y0203074D01*
X0080088Y0122760D01*
X0081201Y0121647D01*
X0095836Y0121647D01*
X0095836Y0099138D01*
X0096949Y0098025D01*
X0225066Y0098025D01*
X0225029Y0097009D01*
X0224216Y0096713D01*
X0221182Y0090207D01*
X0221551Y0089195D01*
X0228236Y0086077D01*
X0229248Y0086446D01*
X0232282Y0092952D01*
X0231914Y0093964D01*
X0228774Y0095428D01*
X0228908Y0099110D01*
X0228937Y0099138D01*
X0228937Y0099890D01*
X0228964Y0100642D01*
X0228937Y0100672D01*
X0228937Y0100712D01*
X0228405Y0101244D01*
X0227893Y0101795D01*
X0227852Y0101797D01*
X0227824Y0101825D01*
X0227072Y0101825D01*
X0226320Y0101853D01*
X0226290Y0101825D01*
X0099636Y0101825D01*
X0099636Y0124334D01*
X0098523Y0125447D01*
X0083888Y0125447D01*
X0083888Y0200387D01*
X0093602Y0200387D01*
X0094715Y0201500D01*
X0097932Y0200204D02*
X0083888Y0200204D01*
X0083888Y0199205D02*
X0097932Y0199205D01*
X0098443Y0198207D02*
X0083888Y0198207D01*
X0083888Y0197208D02*
X0115433Y0197208D01*
X0109811Y0212228D02*
X0110153Y0212426D01*
X0110433Y0212705D01*
X0110630Y0213047D01*
X0110732Y0213428D01*
X0110732Y0218126D01*
X0104732Y0218126D01*
X0104732Y0212126D01*
X0109430Y0212126D01*
X0109811Y0212228D01*
X0109653Y0212186D02*
X0126332Y0212186D01*
X0126332Y0213184D02*
X0110667Y0213184D01*
X0110732Y0214183D02*
X0126332Y0214183D01*
X0126542Y0215181D02*
X0110732Y0215181D01*
X0110732Y0216180D02*
X0127213Y0216180D01*
X0127700Y0228020D02*
X0127700Y0232720D01*
X0124900Y0232720D01*
X0124900Y0229322D01*
X0125002Y0228941D01*
X0125200Y0228599D01*
X0125479Y0228319D01*
X0125821Y0228122D01*
X0126203Y0228020D01*
X0127700Y0228020D01*
X0127700Y0228162D02*
X0128300Y0228162D01*
X0128300Y0228020D02*
X0129797Y0228020D01*
X0130179Y0228122D01*
X0130521Y0228319D01*
X0130800Y0228599D01*
X0130998Y0228941D01*
X0131100Y0229322D01*
X0131100Y0232720D01*
X0128300Y0232720D01*
X0128300Y0233320D01*
X0127700Y0233320D01*
X0127700Y0238020D01*
X0127500Y0238020D01*
X0127500Y0239020D01*
X0123500Y0239020D01*
X0123500Y0236322D01*
X0123602Y0235941D01*
X0123800Y0235599D01*
X0124079Y0235319D01*
X0124421Y0235122D01*
X0124803Y0235020D01*
X0124900Y0235020D01*
X0124900Y0233320D01*
X0127700Y0233320D01*
X0127700Y0232720D01*
X0128300Y0232720D01*
X0128300Y0228020D01*
X0128300Y0229161D02*
X0127700Y0229161D01*
X0127700Y0230159D02*
X0128300Y0230159D01*
X0128300Y0231158D02*
X0127700Y0231158D01*
X0127700Y0232156D02*
X0128300Y0232156D01*
X0128300Y0233155D02*
X0135100Y0233155D01*
X0135100Y0234153D02*
X0131100Y0234153D01*
X0131100Y0233320D02*
X0131100Y0235020D01*
X0131197Y0235020D01*
X0131579Y0235122D01*
X0131921Y0235319D01*
X0132200Y0235599D01*
X0132398Y0235941D01*
X0132500Y0236322D01*
X0132500Y0237720D01*
X0133700Y0237720D01*
X0133700Y0235981D01*
X0134462Y0235220D01*
X0135100Y0235220D01*
X0135100Y0228981D01*
X0135862Y0228220D01*
X0140138Y0228220D01*
X0140900Y0228981D01*
X0140900Y0235220D01*
X0141538Y0235220D01*
X0142300Y0235981D01*
X0142300Y0237720D01*
X0143700Y0237720D01*
X0143700Y0235981D01*
X0144462Y0235220D01*
X0145100Y0235220D01*
X0145100Y0228981D01*
X0145862Y0228220D01*
X0150138Y0228220D01*
X0150900Y0228981D01*
X0150900Y0235220D01*
X0151538Y0235220D01*
X0152300Y0235981D01*
X0152300Y0243058D01*
X0151538Y0243820D01*
X0144812Y0243820D01*
X0144812Y0245220D01*
X0151538Y0245220D01*
X0152300Y0245981D01*
X0152300Y0253058D01*
X0151538Y0253820D01*
X0150900Y0253820D01*
X0150900Y0260058D01*
X0150138Y0260820D01*
X0149800Y0260820D01*
X0149800Y0283190D01*
X0150615Y0284005D01*
X0151084Y0285138D01*
X0151084Y0286365D01*
X0150615Y0287499D01*
X0149747Y0288367D01*
X0148613Y0288836D01*
X0147386Y0288836D01*
X0146253Y0288367D01*
X0145385Y0287499D01*
X0144916Y0286365D01*
X0144916Y0285138D01*
X0145385Y0284005D01*
X0146200Y0283190D01*
X0146200Y0260820D01*
X0145862Y0260820D01*
X0145100Y0260058D01*
X0145100Y0253820D01*
X0144812Y0253820D01*
X0144812Y0276891D01*
X0145627Y0277706D01*
X0146096Y0278839D01*
X0146096Y0280066D01*
X0145627Y0281200D01*
X0144759Y0282067D01*
X0143625Y0282537D01*
X0142398Y0282537D01*
X0141265Y0282067D01*
X0140397Y0281200D01*
X0139928Y0280066D01*
X0139928Y0278839D01*
X0140397Y0277706D01*
X0141212Y0276891D01*
X0141212Y0253820D01*
X0140900Y0253820D01*
X0140900Y0260058D01*
X0140138Y0260820D01*
X0139800Y0260820D01*
X0139800Y0270592D01*
X0140615Y0271406D01*
X0141084Y0272540D01*
X0141084Y0273767D01*
X0140615Y0274901D01*
X0139747Y0275768D01*
X0138613Y0276238D01*
X0137386Y0276238D01*
X0136253Y0275768D01*
X0135385Y0274901D01*
X0134969Y0273896D01*
X0134969Y0286340D01*
X0135784Y0287154D01*
X0136254Y0288288D01*
X0136254Y0289515D01*
X0135784Y0290649D01*
X0134916Y0291516D01*
X0133783Y0291986D01*
X0132556Y0291986D01*
X0131422Y0291516D01*
X0130555Y0290649D01*
X0130085Y0289515D01*
X0130085Y0288288D01*
X0130555Y0287154D01*
X0131369Y0286340D01*
X0131369Y0253820D01*
X0130900Y0253820D01*
X0130900Y0260058D01*
X0130138Y0260820D01*
X0129800Y0260820D01*
X0129800Y0273741D01*
X0130615Y0274556D01*
X0131084Y0275690D01*
X0131084Y0276917D01*
X0130615Y0278050D01*
X0129747Y0278918D01*
X0128613Y0279387D01*
X0127386Y0279387D01*
X0126253Y0278918D01*
X0125385Y0278050D01*
X0124916Y0276917D01*
X0124916Y0275690D01*
X0125385Y0274556D01*
X0126200Y0273741D01*
X0126200Y0260820D01*
X0125862Y0260820D01*
X0125100Y0260058D01*
X0125100Y0253820D01*
X0124462Y0253820D01*
X0123700Y0253058D01*
X0123700Y0245981D01*
X0124462Y0245220D01*
X0131369Y0245220D01*
X0131369Y0243974D01*
X0131197Y0244020D01*
X0128500Y0244020D01*
X0128500Y0240020D01*
X0127500Y0240020D01*
X0127500Y0244020D01*
X0124803Y0244020D01*
X0124421Y0243917D01*
X0124079Y0243720D01*
X0123800Y0243441D01*
X0123602Y0243099D01*
X0123500Y0242717D01*
X0123500Y0240020D01*
X0127500Y0240020D01*
X0127500Y0239020D01*
X0128500Y0239020D01*
X0128500Y0238020D01*
X0128300Y0238020D01*
X0128300Y0233320D01*
X0131100Y0233320D01*
X0131100Y0232156D02*
X0135100Y0232156D01*
X0135100Y0231158D02*
X0131100Y0231158D01*
X0131100Y0230159D02*
X0135100Y0230159D01*
X0135100Y0229161D02*
X0131057Y0229161D01*
X0130249Y0228162D02*
X0156100Y0228162D01*
X0156100Y0227164D02*
X0094715Y0227164D01*
X0094715Y0228162D02*
X0095751Y0228162D01*
X0095821Y0228122D02*
X0096203Y0228020D01*
X0097700Y0228020D01*
X0097700Y0232720D01*
X0094900Y0232720D01*
X0094900Y0229322D01*
X0095002Y0228941D01*
X0095200Y0228599D01*
X0095479Y0228319D01*
X0095821Y0228122D01*
X0094943Y0229161D02*
X0094715Y0229161D01*
X0094715Y0230159D02*
X0094900Y0230159D01*
X0094900Y0231158D02*
X0094715Y0231158D01*
X0094715Y0232156D02*
X0094900Y0232156D01*
X0094715Y0233155D02*
X0097700Y0233155D01*
X0097700Y0233320D02*
X0097700Y0232720D01*
X0098300Y0232720D01*
X0098300Y0233320D01*
X0097700Y0233320D01*
X0098300Y0233320D02*
X0098300Y0238020D01*
X0098500Y0238020D01*
X0098500Y0239020D01*
X0102500Y0239020D01*
X0102500Y0236322D01*
X0102398Y0235941D01*
X0102200Y0235599D01*
X0101921Y0235319D01*
X0101579Y0235122D01*
X0101197Y0235020D01*
X0101100Y0235020D01*
X0101100Y0233320D01*
X0098300Y0233320D01*
X0098300Y0233155D02*
X0105100Y0233155D01*
X0105100Y0234153D02*
X0101100Y0234153D01*
X0101630Y0235152D02*
X0105100Y0235152D01*
X0105100Y0235220D02*
X0105100Y0228981D01*
X0105862Y0228220D01*
X0110138Y0228220D01*
X0110900Y0228981D01*
X0110900Y0235220D01*
X0111538Y0235220D01*
X0112300Y0235981D01*
X0112300Y0238158D01*
X0112739Y0237720D01*
X0113700Y0237720D01*
X0113700Y0235981D01*
X0114462Y0235220D01*
X0115100Y0235220D01*
X0115100Y0228981D01*
X0115862Y0228220D01*
X0120138Y0228220D01*
X0120900Y0228981D01*
X0120900Y0235220D01*
X0121538Y0235220D01*
X0122300Y0235981D01*
X0122300Y0243058D01*
X0121538Y0243820D01*
X0115284Y0243820D01*
X0115284Y0245220D01*
X0121538Y0245220D01*
X0122300Y0245981D01*
X0122300Y0253058D01*
X0121538Y0253820D01*
X0120900Y0253820D01*
X0120900Y0260058D01*
X0120138Y0260820D01*
X0120100Y0260820D01*
X0120100Y0262739D01*
X0120782Y0263421D01*
X0121281Y0264627D01*
X0121281Y0265932D01*
X0120782Y0267138D01*
X0119859Y0268061D01*
X0118653Y0268561D01*
X0117347Y0268561D01*
X0116141Y0268061D01*
X0115284Y0267204D01*
X0115284Y0280041D01*
X0116099Y0280855D01*
X0116568Y0281989D01*
X0116568Y0283216D01*
X0116099Y0284349D01*
X0115231Y0285217D01*
X0114098Y0285687D01*
X0112871Y0285687D01*
X0111737Y0285217D01*
X0110870Y0284349D01*
X0110400Y0283216D01*
X0110400Y0281989D01*
X0110870Y0280855D01*
X0111684Y0280041D01*
X0111684Y0253674D01*
X0111538Y0253820D01*
X0110900Y0253820D01*
X0110900Y0260058D01*
X0110138Y0260820D01*
X0105862Y0260820D01*
X0105100Y0260058D01*
X0105100Y0253820D01*
X0104462Y0253820D01*
X0103700Y0253058D01*
X0103700Y0245981D01*
X0104462Y0245220D01*
X0111538Y0245220D01*
X0111684Y0245365D01*
X0111684Y0243674D01*
X0111538Y0243820D01*
X0104462Y0243820D01*
X0103700Y0243058D01*
X0103700Y0235981D01*
X0104462Y0235220D01*
X0105100Y0235220D01*
X0103700Y0236150D02*
X0102454Y0236150D01*
X0102500Y0237149D02*
X0103700Y0237149D01*
X0103700Y0238147D02*
X0102500Y0238147D01*
X0103700Y0239146D02*
X0098500Y0239146D01*
X0098500Y0240020D02*
X0102500Y0240020D01*
X0102500Y0242717D01*
X0102398Y0243099D01*
X0102200Y0243441D01*
X0101921Y0243720D01*
X0101579Y0243917D01*
X0101197Y0244020D01*
X0098500Y0244020D01*
X0098500Y0240020D01*
X0098500Y0240144D02*
X0097500Y0240144D01*
X0097500Y0241143D02*
X0098500Y0241143D01*
X0098500Y0242141D02*
X0097500Y0242141D01*
X0097500Y0243140D02*
X0098500Y0243140D01*
X0102374Y0243140D02*
X0103782Y0243140D01*
X0103700Y0242141D02*
X0102500Y0242141D01*
X0102500Y0241143D02*
X0103700Y0241143D01*
X0103700Y0240144D02*
X0102500Y0240144D01*
X0098500Y0238147D02*
X0097500Y0238147D01*
X0097700Y0237149D02*
X0098300Y0237149D01*
X0098300Y0236150D02*
X0097700Y0236150D01*
X0097700Y0235152D02*
X0098300Y0235152D01*
X0098300Y0234153D02*
X0097700Y0234153D01*
X0098300Y0232720D02*
X0101100Y0232720D01*
X0101100Y0229322D01*
X0100998Y0228941D01*
X0100800Y0228599D01*
X0100521Y0228319D01*
X0100179Y0228122D01*
X0099797Y0228020D01*
X0098300Y0228020D01*
X0098300Y0232720D01*
X0098300Y0232156D02*
X0097700Y0232156D01*
X0097700Y0231158D02*
X0098300Y0231158D01*
X0098300Y0230159D02*
X0097700Y0230159D01*
X0097700Y0229161D02*
X0098300Y0229161D01*
X0098300Y0228162D02*
X0097700Y0228162D01*
X0100249Y0228162D02*
X0125751Y0228162D01*
X0124943Y0229161D02*
X0120900Y0229161D01*
X0120900Y0230159D02*
X0124900Y0230159D01*
X0124900Y0231158D02*
X0120900Y0231158D01*
X0120900Y0232156D02*
X0124900Y0232156D01*
X0124900Y0234153D02*
X0120900Y0234153D01*
X0120900Y0233155D02*
X0127700Y0233155D01*
X0127700Y0234153D02*
X0128300Y0234153D01*
X0128300Y0235152D02*
X0127700Y0235152D01*
X0127700Y0236150D02*
X0128300Y0236150D01*
X0128300Y0237149D02*
X0127700Y0237149D01*
X0127500Y0238147D02*
X0128500Y0238147D01*
X0127500Y0239146D02*
X0122300Y0239146D01*
X0122300Y0240144D02*
X0123500Y0240144D01*
X0123500Y0241143D02*
X0122300Y0241143D01*
X0122300Y0242141D02*
X0123500Y0242141D01*
X0123626Y0243140D02*
X0122218Y0243140D01*
X0122300Y0246135D02*
X0123700Y0246135D01*
X0123700Y0247134D02*
X0122300Y0247134D01*
X0122300Y0248132D02*
X0123700Y0248132D01*
X0123700Y0249131D02*
X0122300Y0249131D01*
X0122300Y0250129D02*
X0123700Y0250129D01*
X0123700Y0251128D02*
X0122300Y0251128D01*
X0122300Y0252126D02*
X0123700Y0252126D01*
X0123767Y0253125D02*
X0122233Y0253125D01*
X0120900Y0254123D02*
X0125100Y0254123D01*
X0125100Y0255122D02*
X0120900Y0255122D01*
X0120900Y0256120D02*
X0125100Y0256120D01*
X0125100Y0257119D02*
X0120900Y0257119D01*
X0120900Y0258117D02*
X0125100Y0258117D01*
X0125100Y0259116D02*
X0120900Y0259116D01*
X0120844Y0260114D02*
X0125156Y0260114D01*
X0126200Y0261113D02*
X0120100Y0261113D01*
X0120100Y0262111D02*
X0126200Y0262111D01*
X0126200Y0263110D02*
X0120471Y0263110D01*
X0121066Y0264108D02*
X0126200Y0264108D01*
X0126200Y0265107D02*
X0121281Y0265107D01*
X0121209Y0266105D02*
X0126200Y0266105D01*
X0126200Y0267104D02*
X0120796Y0267104D01*
X0119759Y0268103D02*
X0126200Y0268103D01*
X0126200Y0269101D02*
X0115284Y0269101D01*
X0115284Y0268103D02*
X0116241Y0268103D01*
X0115284Y0270100D02*
X0126200Y0270100D01*
X0126200Y0271098D02*
X0115284Y0271098D01*
X0115284Y0272097D02*
X0126200Y0272097D01*
X0126200Y0273095D02*
X0115284Y0273095D01*
X0115284Y0274094D02*
X0125848Y0274094D01*
X0125163Y0275092D02*
X0115284Y0275092D01*
X0115284Y0276091D02*
X0124916Y0276091D01*
X0124987Y0277089D02*
X0115284Y0277089D01*
X0115284Y0278088D02*
X0125423Y0278088D01*
X0126659Y0279086D02*
X0115284Y0279086D01*
X0115328Y0280085D02*
X0131369Y0280085D01*
X0131369Y0281083D02*
X0116193Y0281083D01*
X0116568Y0282082D02*
X0131369Y0282082D01*
X0131369Y0283080D02*
X0116568Y0283080D01*
X0116211Y0284079D02*
X0131369Y0284079D01*
X0131369Y0285077D02*
X0115371Y0285077D01*
X0113484Y0282602D02*
X0113484Y0239520D01*
X0118000Y0239520D01*
X0118000Y0233020D01*
X0115100Y0233155D02*
X0110900Y0233155D01*
X0110900Y0234153D02*
X0115100Y0234153D01*
X0115100Y0235152D02*
X0110900Y0235152D01*
X0112300Y0236150D02*
X0113700Y0236150D01*
X0113700Y0237149D02*
X0112300Y0237149D01*
X0112300Y0238147D02*
X0112311Y0238147D01*
X0111684Y0244138D02*
X0094715Y0244138D01*
X0094715Y0245137D02*
X0111684Y0245137D01*
X0115284Y0245137D02*
X0131369Y0245137D01*
X0131369Y0244138D02*
X0115284Y0244138D01*
X0122300Y0238147D02*
X0123500Y0238147D01*
X0123500Y0237149D02*
X0122300Y0237149D01*
X0122300Y0236150D02*
X0123546Y0236150D01*
X0124370Y0235152D02*
X0120900Y0235152D01*
X0115100Y0232156D02*
X0110900Y0232156D01*
X0110900Y0231158D02*
X0115100Y0231158D01*
X0115100Y0230159D02*
X0110900Y0230159D01*
X0110900Y0229161D02*
X0115100Y0229161D01*
X0110433Y0224547D02*
X0110153Y0224826D01*
X0109811Y0225024D01*
X0109430Y0225126D01*
X0104732Y0225126D01*
X0104732Y0219126D01*
X0103732Y0219126D01*
X0103732Y0218126D01*
X0097732Y0218126D01*
X0097732Y0213428D01*
X0097835Y0213047D01*
X0098032Y0212705D01*
X0098311Y0212426D01*
X0098653Y0212228D01*
X0099035Y0212126D01*
X0103732Y0212126D01*
X0103732Y0218126D01*
X0104732Y0218126D01*
X0104732Y0219126D01*
X0110732Y0219126D01*
X0110732Y0223823D01*
X0110630Y0224205D01*
X0110433Y0224547D01*
X0110640Y0224168D02*
X0156100Y0224168D01*
X0156100Y0223170D02*
X0110732Y0223170D01*
X0110732Y0222171D02*
X0156100Y0222171D01*
X0156113Y0221172D02*
X0110732Y0221172D01*
X0110732Y0220174D02*
X0157111Y0220174D01*
X0159900Y0224168D02*
X0186100Y0224168D01*
X0186100Y0223170D02*
X0170092Y0223170D01*
X0170502Y0222171D02*
X0186100Y0222171D01*
X0186100Y0221172D02*
X0170502Y0221172D01*
X0170502Y0220174D02*
X0186100Y0220174D01*
X0186100Y0219175D02*
X0170502Y0219175D01*
X0170502Y0218177D02*
X0186100Y0218177D01*
X0186100Y0217178D02*
X0170502Y0217178D01*
X0170502Y0216180D02*
X0186100Y0216180D01*
X0186100Y0215181D02*
X0170502Y0215181D01*
X0170502Y0214183D02*
X0186100Y0214183D01*
X0186100Y0213184D02*
X0170502Y0213184D01*
X0170502Y0212186D02*
X0186100Y0212186D01*
X0186100Y0211187D02*
X0170502Y0211187D01*
X0170502Y0210189D02*
X0186100Y0210189D01*
X0186100Y0209190D02*
X0170502Y0209190D01*
X0170502Y0208192D02*
X0186100Y0208192D01*
X0186100Y0207193D02*
X0170502Y0207193D01*
X0170502Y0206195D02*
X0186100Y0206195D01*
X0186100Y0205196D02*
X0170502Y0205196D01*
X0170502Y0204198D02*
X0186100Y0204198D01*
X0186100Y0203199D02*
X0170502Y0203199D01*
X0170502Y0202201D02*
X0186100Y0202201D01*
X0186100Y0201202D02*
X0170502Y0201202D01*
X0170502Y0200204D02*
X0186100Y0200204D01*
X0186100Y0199205D02*
X0170502Y0199205D01*
X0170502Y0198207D02*
X0186100Y0198207D01*
X0186100Y0197208D02*
X0170502Y0197208D01*
X0170502Y0196210D02*
X0186100Y0196210D01*
X0186100Y0195211D02*
X0170502Y0195211D01*
X0170502Y0194213D02*
X0186100Y0194213D01*
X0186100Y0193214D02*
X0170502Y0193214D01*
X0170502Y0192216D02*
X0186100Y0192216D01*
X0186100Y0191217D02*
X0170502Y0191217D01*
X0170502Y0190219D02*
X0186100Y0190219D01*
X0186100Y0189220D02*
X0170502Y0189220D01*
X0170502Y0188222D02*
X0186100Y0188222D01*
X0186100Y0187223D02*
X0170502Y0187223D01*
X0170502Y0186225D02*
X0186100Y0186225D01*
X0186100Y0185226D02*
X0170502Y0185226D01*
X0170502Y0184228D02*
X0186100Y0184228D01*
X0186100Y0183229D02*
X0170502Y0183229D01*
X0170502Y0182231D02*
X0186100Y0182231D01*
X0186100Y0181232D02*
X0170502Y0181232D01*
X0170502Y0180234D02*
X0186100Y0180234D01*
X0186100Y0179235D02*
X0170502Y0179235D01*
X0170502Y0178237D02*
X0186100Y0178237D01*
X0186100Y0177238D02*
X0169862Y0177238D01*
X0184916Y0171405D02*
X0184916Y0170178D01*
X0185385Y0169044D01*
X0186253Y0168177D01*
X0187386Y0167707D01*
X0188613Y0167707D01*
X0189747Y0168177D01*
X0190615Y0169044D01*
X0191084Y0170178D01*
X0191084Y0171405D01*
X0190615Y0172538D01*
X0189900Y0173253D01*
X0189900Y0228220D01*
X0190138Y0228220D01*
X0190900Y0228981D01*
X0190900Y0235220D01*
X0191538Y0235220D01*
X0192300Y0235981D01*
X0192300Y0243058D01*
X0191538Y0243820D01*
X0184462Y0243820D01*
X0183700Y0243058D01*
X0183700Y0235981D01*
X0184462Y0235220D01*
X0185100Y0235220D01*
X0185100Y0228981D01*
X0185862Y0228220D01*
X0186100Y0228220D01*
X0186100Y0173253D01*
X0185385Y0172538D01*
X0184916Y0171405D01*
X0184916Y0171247D02*
X0110532Y0171247D01*
X0110532Y0172245D02*
X0185264Y0172245D01*
X0186091Y0173244D02*
X0153580Y0173244D01*
X0153580Y0174242D02*
X0186100Y0174242D01*
X0189900Y0174242D02*
X0216100Y0174242D01*
X0216100Y0173253D02*
X0215385Y0172538D01*
X0214916Y0171405D01*
X0214916Y0170178D01*
X0215385Y0169044D01*
X0216253Y0168177D01*
X0217386Y0167707D01*
X0218613Y0167707D01*
X0219747Y0168177D01*
X0220615Y0169044D01*
X0221084Y0170178D01*
X0221084Y0171405D01*
X0220615Y0172538D01*
X0219900Y0173253D01*
X0219900Y0228220D01*
X0220138Y0228220D01*
X0220900Y0228981D01*
X0220900Y0235220D01*
X0221230Y0235220D01*
X0221230Y0189001D01*
X0220515Y0188286D01*
X0220046Y0187153D01*
X0220046Y0185926D01*
X0220515Y0184792D01*
X0221383Y0183925D01*
X0222516Y0183455D01*
X0223743Y0183455D01*
X0224877Y0183925D01*
X0225745Y0184792D01*
X0226100Y0185650D01*
X0226100Y0177190D01*
X0225385Y0176475D01*
X0224916Y0175342D01*
X0224916Y0174115D01*
X0225385Y0172981D01*
X0226253Y0172114D01*
X0227386Y0171644D01*
X0228613Y0171644D01*
X0229747Y0172114D01*
X0230615Y0172981D01*
X0231084Y0174115D01*
X0231084Y0175342D01*
X0230615Y0176475D01*
X0229900Y0177190D01*
X0229900Y0228220D01*
X0230138Y0228220D01*
X0230900Y0228981D01*
X0230900Y0235220D01*
X0231538Y0235220D01*
X0232300Y0235981D01*
X0232300Y0243058D01*
X0231538Y0243820D01*
X0225030Y0243820D01*
X0225030Y0245020D01*
X0227500Y0245020D01*
X0227500Y0249020D01*
X0228500Y0249020D01*
X0228500Y0250020D01*
X0227500Y0250020D01*
X0227500Y0251020D01*
X0227700Y0251020D01*
X0227700Y0255720D01*
X0224900Y0255720D01*
X0224900Y0254020D01*
X0224803Y0254020D01*
X0224421Y0253917D01*
X0224079Y0253720D01*
X0223800Y0253441D01*
X0223602Y0253099D01*
X0223500Y0252717D01*
X0223500Y0251420D01*
X0222300Y0251420D01*
X0222300Y0253058D01*
X0221538Y0253820D01*
X0220900Y0253820D01*
X0220900Y0260058D01*
X0220138Y0260820D01*
X0215862Y0260820D01*
X0215100Y0260058D01*
X0215100Y0253820D01*
X0214462Y0253820D01*
X0213700Y0253058D01*
X0213700Y0245981D01*
X0214462Y0245220D01*
X0221230Y0245220D01*
X0221230Y0243820D01*
X0214462Y0243820D01*
X0213700Y0243058D01*
X0213700Y0235981D01*
X0214462Y0235220D01*
X0215100Y0235220D01*
X0215100Y0228981D01*
X0215862Y0228220D01*
X0216100Y0228220D01*
X0216100Y0173253D01*
X0216091Y0173244D02*
X0189909Y0173244D01*
X0190736Y0172245D02*
X0215264Y0172245D01*
X0214916Y0171247D02*
X0191084Y0171247D01*
X0191084Y0170248D02*
X0214916Y0170248D01*
X0215300Y0169250D02*
X0190700Y0169250D01*
X0189822Y0168251D02*
X0216178Y0168251D01*
X0219822Y0168251D02*
X0254685Y0168251D01*
X0254685Y0167253D02*
X0110532Y0167253D01*
X0110532Y0167865D02*
X0109771Y0168627D01*
X0098694Y0168627D01*
X0097932Y0167865D01*
X0097932Y0156788D01*
X0098694Y0156027D01*
X0109771Y0156027D01*
X0110532Y0156788D01*
X0110532Y0159827D01*
X0257682Y0159827D01*
X0258601Y0160207D01*
X0259304Y0160911D01*
X0259685Y0161829D01*
X0259685Y0314945D01*
X0262965Y0314945D01*
X0263143Y0314767D01*
X0267252Y0314767D01*
X0267252Y0314217D01*
X0263143Y0314217D01*
X0262965Y0314039D01*
X0262593Y0314039D01*
X0261674Y0313659D01*
X0260971Y0312955D01*
X0260591Y0312037D01*
X0259685Y0312037D01*
X0260591Y0312037D02*
X0260591Y0298637D01*
X0260476Y0298523D01*
X0260006Y0297389D01*
X0260006Y0296162D01*
X0260476Y0295028D01*
X0261343Y0294161D01*
X0262477Y0293691D01*
X0263704Y0293691D01*
X0264838Y0294161D01*
X0264952Y0294276D01*
X0270846Y0294276D01*
X0270846Y0294072D01*
X0271607Y0293310D01*
X0278196Y0293310D01*
X0278276Y0293390D01*
X0278276Y0292287D01*
X0278196Y0292367D01*
X0271607Y0292367D01*
X0270846Y0291605D01*
X0270846Y0286198D01*
X0271607Y0285436D01*
X0272402Y0285436D01*
X0272402Y0284887D01*
X0272001Y0284887D01*
X0271239Y0284125D01*
X0271239Y0278324D01*
X0272001Y0277562D01*
X0277802Y0277562D01*
X0278276Y0278036D01*
X0278276Y0276428D01*
X0278185Y0276519D01*
X0277843Y0276717D01*
X0277461Y0276819D01*
X0275402Y0276819D01*
X0275402Y0273457D01*
X0274402Y0273457D01*
X0274402Y0276819D01*
X0272342Y0276819D01*
X0271960Y0276717D01*
X0271618Y0276519D01*
X0271339Y0276240D01*
X0271142Y0275898D01*
X0271039Y0275516D01*
X0271039Y0273457D01*
X0274402Y0273457D01*
X0274402Y0272457D01*
X0275402Y0272457D01*
X0275402Y0269094D01*
X0277461Y0269094D01*
X0277843Y0269197D01*
X0278185Y0269394D01*
X0278276Y0269485D01*
X0278276Y0144364D01*
X0275550Y0147089D01*
X0271508Y0149149D01*
X0267028Y0149858D01*
X0262547Y0149149D01*
X0258505Y0147089D01*
X0255297Y0143881D01*
X0255297Y0143881D01*
X0253237Y0139839D01*
X0252528Y0135358D01*
X0253237Y0130878D01*
X0253237Y0130878D01*
X0255297Y0126835D01*
X0258505Y0123628D01*
X0262547Y0121568D01*
X0267028Y0120858D01*
X0271508Y0121568D01*
X0271508Y0121568D01*
X0275550Y0123628D01*
X0275550Y0123628D01*
X0278276Y0126353D01*
X0278276Y0026254D01*
X0275550Y0028979D01*
X0271508Y0031038D01*
X0267028Y0031748D01*
X0267028Y0031748D01*
X0262547Y0031038D01*
X0262547Y0031038D01*
X0258505Y0028979D01*
X0258505Y0028979D01*
X0255297Y0025771D01*
X0255297Y0025771D01*
X0253237Y0021729D01*
X0253237Y0021729D01*
X0252528Y0017248D01*
X0253237Y0012767D01*
X0255297Y0008725D01*
X0258022Y0006000D01*
X0028002Y0006000D01*
X0030727Y0008725D01*
X0032786Y0012767D01*
X0033496Y0017248D01*
X0032786Y0021729D01*
X0030727Y0025771D01*
X0027519Y0028979D01*
X0023477Y0031038D01*
X0018996Y0031748D01*
X0014515Y0031038D01*
X0010473Y0028979D01*
X0007748Y0026254D01*
X0007748Y0156027D01*
X0018038Y0156027D01*
X0018800Y0156788D01*
X0018800Y0167865D01*
X0018038Y0168627D01*
X0007748Y0168627D01*
X0007748Y0212326D01*
X0018038Y0212326D01*
X0018800Y0213087D01*
X0018800Y0224164D01*
X0018038Y0224926D01*
X0007748Y0224926D01*
X0007748Y0350762D01*
X0010473Y0348037D01*
X0010473Y0348037D01*
X0014515Y0345977D01*
X0014515Y0345977D01*
X0018996Y0345268D01*
X0023477Y0345977D01*
X0027519Y0348037D01*
X0030727Y0351245D01*
X0032786Y0355287D01*
X0033496Y0359768D01*
X0032786Y0364248D01*
X0032786Y0364248D01*
X0031344Y0367079D01*
X0254679Y0367079D01*
X0253237Y0364248D01*
X0252528Y0359768D01*
X0252528Y0359768D01*
X0253237Y0355287D01*
X0255297Y0351245D01*
X0258505Y0348037D01*
X0262547Y0345977D01*
X0267028Y0345268D01*
X0271508Y0345977D01*
X0275550Y0348037D01*
X0275550Y0348037D01*
X0278276Y0350762D01*
X0278276Y0338036D01*
X0275741Y0338036D01*
X0274980Y0337275D01*
X0274980Y0332488D01*
X0274771Y0332575D01*
X0272276Y0332575D01*
X0272068Y0332488D01*
X0272068Y0337275D01*
X0271306Y0338036D01*
X0267080Y0338036D01*
X0266318Y0337275D01*
X0266318Y0332261D01*
X0266645Y0331934D01*
X0263143Y0331934D01*
X0262381Y0331172D01*
X0262381Y0327339D01*
X0263143Y0326578D01*
X0267252Y0326578D01*
X0267252Y0325056D01*
X0268207Y0322751D01*
X0269971Y0320986D01*
X0271392Y0320398D01*
X0270302Y0319946D01*
X0270125Y0320123D01*
X0263143Y0320123D01*
X0262965Y0319945D01*
X0256688Y0319945D01*
X0255769Y0319564D01*
X0255066Y0318861D01*
X0254685Y0317942D01*
X0254685Y0164827D01*
X0110532Y0164827D01*
X0110532Y0167865D01*
X0110146Y0168251D02*
X0186178Y0168251D01*
X0185300Y0169250D02*
X0083888Y0169250D01*
X0083888Y0170248D02*
X0184916Y0170248D01*
X0189900Y0175241D02*
X0216100Y0175241D01*
X0216100Y0176239D02*
X0189900Y0176239D01*
X0189900Y0177238D02*
X0216100Y0177238D01*
X0216100Y0178237D02*
X0189900Y0178237D01*
X0189900Y0179235D02*
X0216100Y0179235D01*
X0216100Y0180234D02*
X0209965Y0180234D01*
X0209720Y0179988D02*
X0210587Y0180855D01*
X0211057Y0181989D01*
X0211057Y0183216D01*
X0210587Y0184349D01*
X0209900Y0185037D01*
X0209900Y0228220D01*
X0210138Y0228220D01*
X0210900Y0228981D01*
X0210900Y0235220D01*
X0211538Y0235220D01*
X0212300Y0235981D01*
X0212300Y0243058D01*
X0211538Y0243820D01*
X0204462Y0243820D01*
X0203700Y0243058D01*
X0203700Y0235981D01*
X0204462Y0235220D01*
X0205100Y0235220D01*
X0205100Y0228981D01*
X0205862Y0228220D01*
X0206100Y0228220D01*
X0206100Y0185092D01*
X0205358Y0184349D01*
X0204888Y0183216D01*
X0204888Y0181989D01*
X0205358Y0180855D01*
X0206225Y0179988D01*
X0207359Y0179518D01*
X0208586Y0179518D01*
X0209720Y0179988D01*
X0210743Y0181232D02*
X0216100Y0181232D01*
X0216100Y0182231D02*
X0211057Y0182231D01*
X0211051Y0183229D02*
X0216100Y0183229D01*
X0216100Y0184228D02*
X0210638Y0184228D01*
X0209900Y0185226D02*
X0216100Y0185226D01*
X0216100Y0186225D02*
X0209900Y0186225D01*
X0209900Y0187223D02*
X0216100Y0187223D01*
X0216100Y0188222D02*
X0209900Y0188222D01*
X0209900Y0189220D02*
X0216100Y0189220D01*
X0216100Y0190219D02*
X0209900Y0190219D01*
X0209900Y0191217D02*
X0216100Y0191217D01*
X0216100Y0192216D02*
X0209900Y0192216D01*
X0209900Y0193214D02*
X0216100Y0193214D01*
X0216100Y0194213D02*
X0209900Y0194213D01*
X0209900Y0195211D02*
X0216100Y0195211D01*
X0216100Y0196210D02*
X0209900Y0196210D01*
X0209900Y0197208D02*
X0216100Y0197208D01*
X0216100Y0198207D02*
X0209900Y0198207D01*
X0209900Y0199205D02*
X0216100Y0199205D01*
X0216100Y0200204D02*
X0209900Y0200204D01*
X0209900Y0201202D02*
X0216100Y0201202D01*
X0216100Y0202201D02*
X0209900Y0202201D01*
X0209900Y0203199D02*
X0216100Y0203199D01*
X0216100Y0204198D02*
X0209900Y0204198D01*
X0209900Y0205196D02*
X0216100Y0205196D01*
X0216100Y0206195D02*
X0209900Y0206195D01*
X0209900Y0207193D02*
X0216100Y0207193D01*
X0216100Y0208192D02*
X0209900Y0208192D01*
X0209900Y0209190D02*
X0216100Y0209190D01*
X0216100Y0210189D02*
X0209900Y0210189D01*
X0209900Y0211187D02*
X0216100Y0211187D01*
X0216100Y0212186D02*
X0209900Y0212186D01*
X0209900Y0213184D02*
X0216100Y0213184D01*
X0216100Y0214183D02*
X0209900Y0214183D01*
X0209900Y0215181D02*
X0216100Y0215181D01*
X0216100Y0216180D02*
X0209900Y0216180D01*
X0209900Y0217178D02*
X0216100Y0217178D01*
X0216100Y0218177D02*
X0209900Y0218177D01*
X0209900Y0219175D02*
X0216100Y0219175D01*
X0216100Y0220174D02*
X0209900Y0220174D01*
X0209900Y0221172D02*
X0216100Y0221172D01*
X0216100Y0222171D02*
X0209900Y0222171D01*
X0209900Y0223170D02*
X0216100Y0223170D01*
X0216100Y0224168D02*
X0209900Y0224168D01*
X0209900Y0225167D02*
X0216100Y0225167D01*
X0216100Y0226165D02*
X0209900Y0226165D01*
X0209900Y0227164D02*
X0216100Y0227164D01*
X0216100Y0228162D02*
X0209900Y0228162D01*
X0210900Y0229161D02*
X0215100Y0229161D01*
X0215100Y0230159D02*
X0210900Y0230159D01*
X0210900Y0231158D02*
X0215100Y0231158D01*
X0215100Y0232156D02*
X0210900Y0232156D01*
X0210900Y0233155D02*
X0215100Y0233155D01*
X0215100Y0234153D02*
X0210900Y0234153D01*
X0210900Y0235152D02*
X0215100Y0235152D01*
X0213700Y0236150D02*
X0212300Y0236150D01*
X0212300Y0237149D02*
X0213700Y0237149D01*
X0213700Y0238147D02*
X0212300Y0238147D01*
X0212300Y0239146D02*
X0213700Y0239146D01*
X0213700Y0240144D02*
X0212300Y0240144D01*
X0212300Y0241143D02*
X0213700Y0241143D01*
X0213700Y0242141D02*
X0212300Y0242141D01*
X0212218Y0243140D02*
X0213782Y0243140D01*
X0213700Y0246135D02*
X0212300Y0246135D01*
X0212300Y0245981D02*
X0212300Y0253058D01*
X0211538Y0253820D01*
X0210900Y0253820D01*
X0210900Y0260058D01*
X0210138Y0260820D01*
X0209900Y0260820D01*
X0209900Y0263380D01*
X0248818Y0263380D01*
X0249532Y0262665D01*
X0250666Y0262195D01*
X0251893Y0262195D01*
X0253027Y0262665D01*
X0253894Y0263532D01*
X0254364Y0264666D01*
X0254364Y0265893D01*
X0253894Y0267027D01*
X0253027Y0267894D01*
X0251893Y0268364D01*
X0250666Y0268364D01*
X0249532Y0267894D01*
X0248818Y0267180D01*
X0241793Y0267180D01*
X0242083Y0267469D01*
X0242553Y0268603D01*
X0242553Y0269830D01*
X0242083Y0270964D01*
X0241793Y0271254D01*
X0244881Y0271254D01*
X0245595Y0270539D01*
X0246729Y0270069D01*
X0247956Y0270069D01*
X0249090Y0270539D01*
X0249957Y0271406D01*
X0250427Y0272540D01*
X0250427Y0273767D01*
X0249957Y0274901D01*
X0249090Y0275768D01*
X0247956Y0276238D01*
X0246729Y0276238D01*
X0246321Y0276069D01*
X0246490Y0276477D01*
X0246490Y0277704D01*
X0246020Y0278838D01*
X0245153Y0279705D01*
X0244019Y0280175D01*
X0242792Y0280175D01*
X0241658Y0279705D01*
X0240944Y0278991D01*
X0177213Y0278991D01*
X0176100Y0277878D01*
X0176100Y0260820D01*
X0175862Y0260820D01*
X0175100Y0260058D01*
X0175100Y0253820D01*
X0174462Y0253820D01*
X0173700Y0253058D01*
X0173700Y0245981D01*
X0174462Y0245220D01*
X0181538Y0245220D01*
X0182300Y0245981D01*
X0182300Y0253058D01*
X0181538Y0253820D01*
X0180900Y0253820D01*
X0180900Y0260058D01*
X0180138Y0260820D01*
X0179900Y0260820D01*
X0179900Y0275191D01*
X0240944Y0275191D01*
X0241081Y0275054D01*
X0187213Y0275054D01*
X0186100Y0273941D01*
X0186100Y0260820D01*
X0185862Y0260820D01*
X0185100Y0260058D01*
X0185100Y0253820D01*
X0184462Y0253820D01*
X0183700Y0253058D01*
X0183700Y0245981D01*
X0184462Y0245220D01*
X0191538Y0245220D01*
X0192300Y0245981D01*
X0192300Y0253058D01*
X0191538Y0253820D01*
X0190900Y0253820D01*
X0190900Y0260058D01*
X0190138Y0260820D01*
X0189900Y0260820D01*
X0189900Y0271254D01*
X0237144Y0271254D01*
X0237007Y0271117D01*
X0197213Y0271117D01*
X0196100Y0270004D01*
X0196100Y0260820D01*
X0195862Y0260820D01*
X0195100Y0260058D01*
X0195100Y0253820D01*
X0194462Y0253820D01*
X0193700Y0253058D01*
X0193700Y0245981D01*
X0194462Y0245220D01*
X0201538Y0245220D01*
X0202300Y0245981D01*
X0202300Y0253058D01*
X0201538Y0253820D01*
X0200900Y0253820D01*
X0200900Y0260058D01*
X0200138Y0260820D01*
X0199900Y0260820D01*
X0199900Y0267317D01*
X0237007Y0267317D01*
X0237144Y0267180D01*
X0207213Y0267180D01*
X0206100Y0266067D01*
X0206100Y0260820D01*
X0205862Y0260820D01*
X0205100Y0260058D01*
X0205100Y0253820D01*
X0204462Y0253820D01*
X0203700Y0253058D01*
X0203700Y0245981D01*
X0204462Y0245220D01*
X0211538Y0245220D01*
X0212300Y0245981D01*
X0212300Y0247134D02*
X0213700Y0247134D01*
X0213700Y0248132D02*
X0212300Y0248132D01*
X0212300Y0249131D02*
X0213700Y0249131D01*
X0213700Y0250129D02*
X0212300Y0250129D01*
X0212300Y0251128D02*
X0213700Y0251128D01*
X0213700Y0252126D02*
X0212300Y0252126D01*
X0212233Y0253125D02*
X0213767Y0253125D01*
X0215100Y0254123D02*
X0210900Y0254123D01*
X0210900Y0255122D02*
X0215100Y0255122D01*
X0215100Y0256120D02*
X0210900Y0256120D01*
X0210900Y0257119D02*
X0215100Y0257119D01*
X0215100Y0258117D02*
X0210900Y0258117D01*
X0210900Y0259116D02*
X0215100Y0259116D01*
X0215156Y0260114D02*
X0210844Y0260114D01*
X0209900Y0261113D02*
X0254685Y0261113D01*
X0254685Y0262111D02*
X0209900Y0262111D01*
X0209900Y0263110D02*
X0249087Y0263110D01*
X0253472Y0263110D02*
X0254685Y0263110D01*
X0254685Y0264108D02*
X0254133Y0264108D01*
X0254364Y0265107D02*
X0254685Y0265107D01*
X0254685Y0266105D02*
X0254276Y0266105D01*
X0254685Y0267104D02*
X0253817Y0267104D01*
X0254685Y0268103D02*
X0252524Y0268103D01*
X0254685Y0269101D02*
X0242553Y0269101D01*
X0242441Y0270100D02*
X0246656Y0270100D01*
X0248029Y0270100D02*
X0254685Y0270100D01*
X0254685Y0271098D02*
X0249649Y0271098D01*
X0250243Y0272097D02*
X0254685Y0272097D01*
X0254685Y0273095D02*
X0250427Y0273095D01*
X0250291Y0274094D02*
X0254685Y0274094D01*
X0254685Y0275092D02*
X0249766Y0275092D01*
X0248311Y0276091D02*
X0254685Y0276091D01*
X0254685Y0277089D02*
X0246490Y0277089D01*
X0246374Y0276091D02*
X0246330Y0276091D01*
X0246331Y0278088D02*
X0254685Y0278088D01*
X0254685Y0279086D02*
X0245772Y0279086D01*
X0244237Y0280085D02*
X0254685Y0280085D01*
X0254685Y0281083D02*
X0149800Y0281083D01*
X0149800Y0280085D02*
X0242574Y0280085D01*
X0241039Y0279086D02*
X0149800Y0279086D01*
X0149800Y0278088D02*
X0176310Y0278088D01*
X0176100Y0277089D02*
X0149800Y0277089D01*
X0149800Y0276091D02*
X0176100Y0276091D01*
X0176100Y0275092D02*
X0149800Y0275092D01*
X0149800Y0274094D02*
X0176100Y0274094D01*
X0176100Y0273095D02*
X0149800Y0273095D01*
X0149800Y0272097D02*
X0176100Y0272097D01*
X0176100Y0271098D02*
X0149800Y0271098D01*
X0149800Y0270100D02*
X0176100Y0270100D01*
X0176100Y0269101D02*
X0149800Y0269101D01*
X0149800Y0268103D02*
X0176100Y0268103D01*
X0176100Y0267104D02*
X0149800Y0267104D01*
X0149800Y0266105D02*
X0176100Y0266105D01*
X0176100Y0265107D02*
X0149800Y0265107D01*
X0149800Y0264108D02*
X0176100Y0264108D01*
X0176100Y0263110D02*
X0149800Y0263110D01*
X0149800Y0262111D02*
X0176100Y0262111D01*
X0176100Y0261113D02*
X0149800Y0261113D01*
X0150844Y0260114D02*
X0155011Y0260114D01*
X0155002Y0260099D02*
X0154900Y0259717D01*
X0154900Y0256320D01*
X0157700Y0256320D01*
X0157700Y0261020D01*
X0156203Y0261020D01*
X0155821Y0260917D01*
X0155479Y0260720D01*
X0155200Y0260441D01*
X0155002Y0260099D01*
X0154900Y0259116D02*
X0150900Y0259116D01*
X0150900Y0258117D02*
X0154900Y0258117D01*
X0154900Y0257119D02*
X0150900Y0257119D01*
X0150900Y0256120D02*
X0157700Y0256120D01*
X0157700Y0256320D02*
X0157700Y0255720D01*
X0154900Y0255720D01*
X0154900Y0254020D01*
X0154803Y0254020D01*
X0154421Y0253917D01*
X0154079Y0253720D01*
X0153800Y0253441D01*
X0153602Y0253099D01*
X0153500Y0252717D01*
X0153500Y0250020D01*
X0157500Y0250020D01*
X0157500Y0251020D01*
X0157700Y0251020D01*
X0157700Y0255720D01*
X0158300Y0255720D01*
X0158300Y0256320D01*
X0157700Y0256320D01*
X0158300Y0256320D02*
X0158300Y0261020D01*
X0159797Y0261020D01*
X0160179Y0260917D01*
X0160521Y0260720D01*
X0160800Y0260441D01*
X0160998Y0260099D01*
X0161100Y0259717D01*
X0161100Y0256320D01*
X0158300Y0256320D01*
X0158300Y0256120D02*
X0165100Y0256120D01*
X0165100Y0255122D02*
X0161100Y0255122D01*
X0161100Y0255720D02*
X0158300Y0255720D01*
X0158300Y0251020D01*
X0158500Y0251020D01*
X0158500Y0250020D01*
X0157500Y0250020D01*
X0157500Y0249020D01*
X0153500Y0249020D01*
X0153500Y0246322D01*
X0153602Y0245941D01*
X0153800Y0245599D01*
X0154079Y0245319D01*
X0154421Y0245122D01*
X0154803Y0245020D01*
X0157500Y0245020D01*
X0157500Y0249020D01*
X0158500Y0249020D01*
X0158500Y0250020D01*
X0162500Y0250020D01*
X0162500Y0252717D01*
X0162398Y0253099D01*
X0162200Y0253441D01*
X0161921Y0253720D01*
X0161579Y0253917D01*
X0161197Y0254020D01*
X0161100Y0254020D01*
X0161100Y0255720D01*
X0161100Y0257119D02*
X0165100Y0257119D01*
X0165100Y0258117D02*
X0161100Y0258117D01*
X0161100Y0259116D02*
X0165100Y0259116D01*
X0165100Y0260058D02*
X0165100Y0253820D01*
X0164462Y0253820D01*
X0163700Y0253058D01*
X0163700Y0245981D01*
X0164462Y0245220D01*
X0171538Y0245220D01*
X0172300Y0245981D01*
X0172300Y0253058D01*
X0171538Y0253820D01*
X0170900Y0253820D01*
X0170900Y0260058D01*
X0170138Y0260820D01*
X0165862Y0260820D01*
X0165100Y0260058D01*
X0165156Y0260114D02*
X0160989Y0260114D01*
X0158300Y0260114D02*
X0157700Y0260114D01*
X0157700Y0259116D02*
X0158300Y0259116D01*
X0158300Y0258117D02*
X0157700Y0258117D01*
X0157700Y0257119D02*
X0158300Y0257119D01*
X0158300Y0255122D02*
X0157700Y0255122D01*
X0157700Y0254123D02*
X0158300Y0254123D01*
X0158300Y0253125D02*
X0157700Y0253125D01*
X0157700Y0252126D02*
X0158300Y0252126D01*
X0158300Y0251128D02*
X0157700Y0251128D01*
X0157500Y0250129D02*
X0158500Y0250129D01*
X0158500Y0249131D02*
X0163700Y0249131D01*
X0163700Y0250129D02*
X0162500Y0250129D01*
X0162500Y0251128D02*
X0163700Y0251128D01*
X0163700Y0252126D02*
X0162500Y0252126D01*
X0162383Y0253125D02*
X0163767Y0253125D01*
X0165100Y0254123D02*
X0161100Y0254123D01*
X0162500Y0249020D02*
X0158500Y0249020D01*
X0158500Y0245020D01*
X0161197Y0245020D01*
X0161579Y0245122D01*
X0161921Y0245319D01*
X0162200Y0245599D01*
X0162398Y0245941D01*
X0162500Y0246322D01*
X0162500Y0249020D01*
X0162500Y0248132D02*
X0163700Y0248132D01*
X0163700Y0247134D02*
X0162500Y0247134D01*
X0162450Y0246135D02*
X0163700Y0246135D01*
X0161605Y0245137D02*
X0221230Y0245137D01*
X0221230Y0244138D02*
X0144812Y0244138D01*
X0144812Y0245137D02*
X0154395Y0245137D01*
X0153550Y0246135D02*
X0152300Y0246135D01*
X0152300Y0247134D02*
X0153500Y0247134D01*
X0153500Y0248132D02*
X0152300Y0248132D01*
X0152300Y0249131D02*
X0157500Y0249131D01*
X0157500Y0248132D02*
X0158500Y0248132D01*
X0158500Y0247134D02*
X0157500Y0247134D01*
X0157500Y0246135D02*
X0158500Y0246135D01*
X0158500Y0245137D02*
X0157500Y0245137D01*
X0162218Y0243140D02*
X0163782Y0243140D01*
X0163700Y0243058D02*
X0163700Y0235981D01*
X0164462Y0235220D01*
X0165100Y0235220D01*
X0165100Y0228981D01*
X0165862Y0228220D01*
X0170138Y0228220D01*
X0170900Y0228981D01*
X0170900Y0235220D01*
X0171538Y0235220D01*
X0172300Y0235981D01*
X0172300Y0243058D01*
X0171538Y0243820D01*
X0164462Y0243820D01*
X0163700Y0243058D01*
X0163700Y0242141D02*
X0162300Y0242141D01*
X0162300Y0241143D02*
X0163700Y0241143D01*
X0163700Y0240144D02*
X0162300Y0240144D01*
X0162300Y0239146D02*
X0163700Y0239146D01*
X0163700Y0238147D02*
X0162300Y0238147D01*
X0162300Y0237149D02*
X0163700Y0237149D01*
X0163700Y0236150D02*
X0162300Y0236150D01*
X0160900Y0235152D02*
X0165100Y0235152D01*
X0165100Y0234153D02*
X0160900Y0234153D01*
X0160900Y0233155D02*
X0165100Y0233155D01*
X0165100Y0232156D02*
X0160900Y0232156D01*
X0160900Y0231158D02*
X0165100Y0231158D01*
X0165100Y0230159D02*
X0160900Y0230159D01*
X0160900Y0229161D02*
X0165100Y0229161D01*
X0159900Y0228162D02*
X0175751Y0228162D01*
X0175821Y0228122D02*
X0176203Y0228020D01*
X0177700Y0228020D01*
X0177700Y0232720D01*
X0174900Y0232720D01*
X0174900Y0229322D01*
X0175002Y0228941D01*
X0175200Y0228599D01*
X0175479Y0228319D01*
X0175821Y0228122D01*
X0174943Y0229161D02*
X0170900Y0229161D01*
X0170900Y0230159D02*
X0174900Y0230159D01*
X0174900Y0231158D02*
X0170900Y0231158D01*
X0170900Y0232156D02*
X0174900Y0232156D01*
X0174900Y0233320D02*
X0177700Y0233320D01*
X0177700Y0238020D01*
X0177500Y0238020D01*
X0177500Y0239020D01*
X0173500Y0239020D01*
X0173500Y0236322D01*
X0173602Y0235941D01*
X0173800Y0235599D01*
X0174079Y0235319D01*
X0174421Y0235122D01*
X0174803Y0235020D01*
X0174900Y0235020D01*
X0174900Y0233320D01*
X0174900Y0234153D02*
X0170900Y0234153D01*
X0170900Y0233155D02*
X0177700Y0233155D01*
X0177700Y0233320D02*
X0177700Y0232720D01*
X0178300Y0232720D01*
X0178300Y0233320D01*
X0177700Y0233320D01*
X0178300Y0233320D02*
X0178300Y0238020D01*
X0178500Y0238020D01*
X0178500Y0239020D01*
X0178500Y0240020D01*
X0177500Y0240020D01*
X0177500Y0244020D01*
X0174803Y0244020D01*
X0174421Y0243917D01*
X0174079Y0243720D01*
X0173800Y0243441D01*
X0173602Y0243099D01*
X0173500Y0242717D01*
X0173500Y0240020D01*
X0177500Y0240020D01*
X0177500Y0239020D01*
X0178500Y0239020D01*
X0182500Y0239020D01*
X0182500Y0236322D01*
X0182398Y0235941D01*
X0182200Y0235599D01*
X0181921Y0235319D01*
X0181579Y0235122D01*
X0181197Y0235020D01*
X0181100Y0235020D01*
X0181100Y0233320D01*
X0178300Y0233320D01*
X0178300Y0233155D02*
X0185100Y0233155D01*
X0185100Y0234153D02*
X0181100Y0234153D01*
X0181630Y0235152D02*
X0185100Y0235152D01*
X0183700Y0236150D02*
X0182454Y0236150D01*
X0182500Y0237149D02*
X0183700Y0237149D01*
X0183700Y0238147D02*
X0182500Y0238147D01*
X0183700Y0239146D02*
X0178500Y0239146D01*
X0178500Y0240020D02*
X0182500Y0240020D01*
X0182500Y0242717D01*
X0182398Y0243099D01*
X0182200Y0243441D01*
X0181921Y0243720D01*
X0181579Y0243917D01*
X0181197Y0244020D01*
X0178500Y0244020D01*
X0178500Y0240020D01*
X0178500Y0240144D02*
X0177500Y0240144D01*
X0177500Y0239146D02*
X0172300Y0239146D01*
X0172300Y0240144D02*
X0173500Y0240144D01*
X0173500Y0241143D02*
X0172300Y0241143D01*
X0172300Y0242141D02*
X0173500Y0242141D01*
X0173626Y0243140D02*
X0172218Y0243140D01*
X0172300Y0246135D02*
X0173700Y0246135D01*
X0173700Y0247134D02*
X0172300Y0247134D01*
X0172300Y0248132D02*
X0173700Y0248132D01*
X0173700Y0249131D02*
X0172300Y0249131D01*
X0172300Y0250129D02*
X0173700Y0250129D01*
X0173700Y0251128D02*
X0172300Y0251128D01*
X0172300Y0252126D02*
X0173700Y0252126D01*
X0173767Y0253125D02*
X0172233Y0253125D01*
X0170900Y0254123D02*
X0175100Y0254123D01*
X0175100Y0255122D02*
X0170900Y0255122D01*
X0170900Y0256120D02*
X0175100Y0256120D01*
X0175100Y0257119D02*
X0170900Y0257119D01*
X0170900Y0258117D02*
X0175100Y0258117D01*
X0175100Y0259116D02*
X0170900Y0259116D01*
X0170844Y0260114D02*
X0175156Y0260114D01*
X0179900Y0261113D02*
X0186100Y0261113D01*
X0186100Y0262111D02*
X0179900Y0262111D01*
X0179900Y0263110D02*
X0186100Y0263110D01*
X0186100Y0264108D02*
X0179900Y0264108D01*
X0179900Y0265107D02*
X0186100Y0265107D01*
X0186100Y0266105D02*
X0179900Y0266105D01*
X0179900Y0267104D02*
X0186100Y0267104D01*
X0186100Y0268103D02*
X0179900Y0268103D01*
X0179900Y0269101D02*
X0186100Y0269101D01*
X0186100Y0270100D02*
X0179900Y0270100D01*
X0179900Y0271098D02*
X0186100Y0271098D01*
X0186100Y0272097D02*
X0179900Y0272097D01*
X0179900Y0273095D02*
X0186100Y0273095D01*
X0186253Y0274094D02*
X0179900Y0274094D01*
X0179900Y0275092D02*
X0241042Y0275092D01*
X0241949Y0271098D02*
X0245036Y0271098D01*
X0242345Y0268103D02*
X0250035Y0268103D01*
X0254685Y0260114D02*
X0230989Y0260114D01*
X0230998Y0260099D02*
X0230800Y0260441D01*
X0230521Y0260720D01*
X0230179Y0260917D01*
X0229797Y0261020D01*
X0228300Y0261020D01*
X0228300Y0256320D01*
X0227700Y0256320D01*
X0227700Y0261020D01*
X0226203Y0261020D01*
X0225821Y0260917D01*
X0225479Y0260720D01*
X0225200Y0260441D01*
X0225002Y0260099D01*
X0224900Y0259717D01*
X0224900Y0256320D01*
X0227700Y0256320D01*
X0227700Y0255720D01*
X0228300Y0255720D01*
X0228300Y0256320D01*
X0231100Y0256320D01*
X0231100Y0259717D01*
X0230998Y0260099D01*
X0231100Y0259116D02*
X0254685Y0259116D01*
X0254685Y0258117D02*
X0231100Y0258117D01*
X0231100Y0257119D02*
X0254685Y0257119D01*
X0254685Y0256120D02*
X0228300Y0256120D01*
X0228300Y0255720D02*
X0231100Y0255720D01*
X0231100Y0254020D01*
X0231197Y0254020D01*
X0231579Y0253917D01*
X0231921Y0253720D01*
X0232200Y0253441D01*
X0232398Y0253099D01*
X0232500Y0252717D01*
X0232500Y0250020D01*
X0228500Y0250020D01*
X0228500Y0251020D01*
X0228300Y0251020D01*
X0228300Y0255720D01*
X0228300Y0255122D02*
X0227700Y0255122D01*
X0227700Y0256120D02*
X0220900Y0256120D01*
X0220900Y0255122D02*
X0224900Y0255122D01*
X0224900Y0254123D02*
X0220900Y0254123D01*
X0222233Y0253125D02*
X0223617Y0253125D01*
X0223500Y0252126D02*
X0222300Y0252126D01*
X0218000Y0249520D02*
X0218000Y0256020D01*
X0220900Y0257119D02*
X0224900Y0257119D01*
X0224900Y0258117D02*
X0220900Y0258117D01*
X0220900Y0259116D02*
X0224900Y0259116D01*
X0225011Y0260114D02*
X0220844Y0260114D01*
X0227700Y0260114D02*
X0228300Y0260114D01*
X0228300Y0259116D02*
X0227700Y0259116D01*
X0227700Y0258117D02*
X0228300Y0258117D01*
X0228300Y0257119D02*
X0227700Y0257119D01*
X0227700Y0254123D02*
X0228300Y0254123D01*
X0228300Y0253125D02*
X0227700Y0253125D01*
X0227700Y0252126D02*
X0228300Y0252126D01*
X0228300Y0251128D02*
X0227700Y0251128D01*
X0227500Y0250129D02*
X0228500Y0250129D01*
X0228500Y0249131D02*
X0254685Y0249131D01*
X0254685Y0250129D02*
X0232500Y0250129D01*
X0232500Y0251128D02*
X0254685Y0251128D01*
X0254685Y0252126D02*
X0232500Y0252126D01*
X0232383Y0253125D02*
X0254685Y0253125D01*
X0254685Y0254123D02*
X0231100Y0254123D01*
X0231100Y0255122D02*
X0254685Y0255122D01*
X0259685Y0255122D02*
X0278276Y0255122D01*
X0278276Y0256120D02*
X0259685Y0256120D01*
X0259685Y0257119D02*
X0278276Y0257119D01*
X0278276Y0258117D02*
X0259685Y0258117D01*
X0259685Y0259116D02*
X0278276Y0259116D01*
X0278276Y0260114D02*
X0259685Y0260114D01*
X0259685Y0261113D02*
X0278276Y0261113D01*
X0278276Y0262111D02*
X0259685Y0262111D01*
X0259685Y0263110D02*
X0278276Y0263110D01*
X0278276Y0264108D02*
X0259685Y0264108D01*
X0259685Y0265107D02*
X0278276Y0265107D01*
X0278276Y0266105D02*
X0259685Y0266105D01*
X0259685Y0267104D02*
X0278276Y0267104D01*
X0278276Y0268103D02*
X0259685Y0268103D01*
X0259685Y0269101D02*
X0272317Y0269101D01*
X0272342Y0269094D02*
X0274402Y0269094D01*
X0274402Y0272457D01*
X0271039Y0272457D01*
X0271039Y0270397D01*
X0271142Y0270016D01*
X0271339Y0269673D01*
X0271618Y0269394D01*
X0271960Y0269197D01*
X0272342Y0269094D01*
X0271119Y0270100D02*
X0259685Y0270100D01*
X0259685Y0271098D02*
X0271039Y0271098D01*
X0271039Y0272097D02*
X0259685Y0272097D01*
X0259685Y0273095D02*
X0274402Y0273095D01*
X0274402Y0272097D02*
X0275402Y0272097D01*
X0275402Y0271098D02*
X0274402Y0271098D01*
X0274402Y0270100D02*
X0275402Y0270100D01*
X0275402Y0269101D02*
X0274402Y0269101D01*
X0277486Y0269101D02*
X0278276Y0269101D01*
X0275402Y0274094D02*
X0274402Y0274094D01*
X0274402Y0275092D02*
X0275402Y0275092D01*
X0275402Y0276091D02*
X0274402Y0276091D01*
X0278276Y0277089D02*
X0259685Y0277089D01*
X0259685Y0276091D02*
X0271253Y0276091D01*
X0271039Y0275092D02*
X0259685Y0275092D01*
X0259685Y0274094D02*
X0271039Y0274094D01*
X0271475Y0278088D02*
X0259685Y0278088D01*
X0259685Y0279086D02*
X0271239Y0279086D01*
X0271239Y0280085D02*
X0259685Y0280085D01*
X0259685Y0281083D02*
X0271239Y0281083D01*
X0271239Y0282082D02*
X0259685Y0282082D01*
X0259685Y0283080D02*
X0271239Y0283080D01*
X0271239Y0284079D02*
X0259685Y0284079D01*
X0259685Y0285077D02*
X0272402Y0285077D01*
X0270968Y0286076D02*
X0259685Y0286076D01*
X0259685Y0287074D02*
X0270846Y0287074D01*
X0270846Y0288073D02*
X0259685Y0288073D01*
X0259685Y0289071D02*
X0270846Y0289071D01*
X0270846Y0290070D02*
X0259685Y0290070D01*
X0259685Y0291068D02*
X0270846Y0291068D01*
X0271307Y0292067D02*
X0259685Y0292067D01*
X0259685Y0293065D02*
X0278276Y0293065D01*
X0270854Y0294064D02*
X0264603Y0294064D01*
X0261578Y0294064D02*
X0259685Y0294064D01*
X0259685Y0295062D02*
X0260462Y0295062D01*
X0260048Y0296061D02*
X0259685Y0296061D01*
X0259685Y0297059D02*
X0260006Y0297059D01*
X0260283Y0298058D02*
X0259685Y0298058D01*
X0259685Y0299056D02*
X0260591Y0299056D01*
X0260591Y0300055D02*
X0259685Y0300055D01*
X0259685Y0301053D02*
X0260591Y0301053D01*
X0260591Y0302052D02*
X0259685Y0302052D01*
X0259685Y0303050D02*
X0260591Y0303050D01*
X0260591Y0304049D02*
X0259685Y0304049D01*
X0259685Y0305047D02*
X0260591Y0305047D01*
X0260591Y0306046D02*
X0259685Y0306046D01*
X0259685Y0307044D02*
X0260591Y0307044D01*
X0260591Y0308043D02*
X0259685Y0308043D01*
X0259685Y0309041D02*
X0260591Y0309041D01*
X0260591Y0310040D02*
X0259685Y0310040D01*
X0259685Y0311039D02*
X0260591Y0311039D01*
X0261051Y0313036D02*
X0259685Y0313036D01*
X0259685Y0314034D02*
X0262580Y0314034D01*
X0263045Y0320025D02*
X0007748Y0320025D01*
X0007748Y0319027D02*
X0255231Y0319027D01*
X0254721Y0318028D02*
X0007748Y0318028D01*
X0007748Y0317030D02*
X0254685Y0317030D01*
X0254685Y0316031D02*
X0007748Y0316031D01*
X0007748Y0315033D02*
X0254685Y0315033D01*
X0254685Y0314034D02*
X0007748Y0314034D01*
X0007748Y0313036D02*
X0254685Y0313036D01*
X0254685Y0312037D02*
X0007748Y0312037D01*
X0007748Y0311039D02*
X0254685Y0311039D01*
X0254685Y0310040D02*
X0007748Y0310040D01*
X0007748Y0309041D02*
X0254685Y0309041D01*
X0254685Y0308043D02*
X0007748Y0308043D01*
X0007748Y0307044D02*
X0254685Y0307044D01*
X0254685Y0306046D02*
X0007748Y0306046D01*
X0007748Y0305047D02*
X0254685Y0305047D01*
X0254685Y0304049D02*
X0007748Y0304049D01*
X0007748Y0303050D02*
X0254685Y0303050D01*
X0254685Y0302052D02*
X0007748Y0302052D01*
X0007748Y0301053D02*
X0254685Y0301053D01*
X0254685Y0300055D02*
X0007748Y0300055D01*
X0007748Y0299056D02*
X0025844Y0299056D01*
X0025454Y0298895D02*
X0026373Y0299276D01*
X0245481Y0299276D01*
X0245595Y0299390D01*
X0246729Y0299860D01*
X0247956Y0299860D01*
X0249090Y0299390D01*
X0249957Y0298523D01*
X0250427Y0297389D01*
X0250427Y0296162D01*
X0249957Y0295028D01*
X0249090Y0294161D01*
X0247956Y0293691D01*
X0246729Y0293691D01*
X0245595Y0294161D01*
X0245481Y0294276D01*
X0029370Y0294276D01*
X0029370Y0242020D01*
X0033700Y0242020D01*
X0033700Y0243058D01*
X0034462Y0243820D01*
X0041538Y0243820D01*
X0042300Y0243058D01*
X0042300Y0242020D01*
X0043700Y0242020D01*
X0043700Y0243058D01*
X0044462Y0243820D01*
X0051538Y0243820D01*
X0052300Y0243058D01*
X0052300Y0235981D01*
X0051538Y0235220D01*
X0050900Y0235220D01*
X0050900Y0228981D01*
X0050138Y0228220D01*
X0045862Y0228220D01*
X0045100Y0228981D01*
X0045100Y0235220D01*
X0044462Y0235220D01*
X0043700Y0235981D01*
X0043700Y0237020D01*
X0042300Y0237020D01*
X0042300Y0235981D01*
X0041538Y0235220D01*
X0040900Y0235220D01*
X0040900Y0228981D01*
X0040138Y0228220D01*
X0035862Y0228220D01*
X0035100Y0228981D01*
X0035100Y0235220D01*
X0034462Y0235220D01*
X0033700Y0235981D01*
X0033700Y0237020D01*
X0026373Y0237020D01*
X0025454Y0237400D01*
X0024751Y0238104D01*
X0024370Y0239022D01*
X0024370Y0297273D01*
X0024751Y0298192D01*
X0025454Y0298895D01*
X0024695Y0298058D02*
X0007748Y0298058D01*
X0007748Y0297059D02*
X0024370Y0297059D01*
X0024370Y0296061D02*
X0007748Y0296061D01*
X0007748Y0295062D02*
X0024370Y0295062D01*
X0024370Y0294064D02*
X0007748Y0294064D01*
X0007748Y0293065D02*
X0024370Y0293065D01*
X0024370Y0292067D02*
X0007748Y0292067D01*
X0007748Y0291068D02*
X0024370Y0291068D01*
X0024370Y0290070D02*
X0007748Y0290070D01*
X0007748Y0289071D02*
X0024370Y0289071D01*
X0024370Y0288073D02*
X0007748Y0288073D01*
X0007748Y0287074D02*
X0024370Y0287074D01*
X0024370Y0286076D02*
X0007748Y0286076D01*
X0007748Y0285077D02*
X0024370Y0285077D01*
X0024370Y0284079D02*
X0007748Y0284079D01*
X0007748Y0283080D02*
X0024370Y0283080D01*
X0024370Y0282082D02*
X0007748Y0282082D01*
X0007748Y0281083D02*
X0024370Y0281083D01*
X0024370Y0280085D02*
X0007748Y0280085D01*
X0007748Y0279086D02*
X0024370Y0279086D01*
X0024370Y0278088D02*
X0007748Y0278088D01*
X0007748Y0277089D02*
X0024370Y0277089D01*
X0024370Y0276091D02*
X0007748Y0276091D01*
X0007748Y0275092D02*
X0024370Y0275092D01*
X0024370Y0274094D02*
X0007748Y0274094D01*
X0007748Y0273095D02*
X0024370Y0273095D01*
X0024370Y0272097D02*
X0007748Y0272097D01*
X0007748Y0271098D02*
X0024370Y0271098D01*
X0024370Y0270100D02*
X0007748Y0270100D01*
X0007748Y0269101D02*
X0024370Y0269101D01*
X0024370Y0268103D02*
X0007748Y0268103D01*
X0007748Y0267104D02*
X0024370Y0267104D01*
X0024370Y0266105D02*
X0007748Y0266105D01*
X0007748Y0265107D02*
X0024370Y0265107D01*
X0024370Y0264108D02*
X0007748Y0264108D01*
X0007748Y0263110D02*
X0024370Y0263110D01*
X0024370Y0262111D02*
X0007748Y0262111D01*
X0007748Y0261113D02*
X0024370Y0261113D01*
X0024370Y0260114D02*
X0007748Y0260114D01*
X0007748Y0259116D02*
X0024370Y0259116D01*
X0024370Y0258117D02*
X0007748Y0258117D01*
X0007748Y0257119D02*
X0024370Y0257119D01*
X0024370Y0256120D02*
X0007748Y0256120D01*
X0007748Y0255122D02*
X0024370Y0255122D01*
X0024370Y0254123D02*
X0007748Y0254123D01*
X0007748Y0253125D02*
X0024370Y0253125D01*
X0024370Y0252126D02*
X0007748Y0252126D01*
X0007748Y0251128D02*
X0024370Y0251128D01*
X0024370Y0250129D02*
X0007748Y0250129D01*
X0007748Y0249131D02*
X0024370Y0249131D01*
X0024370Y0248132D02*
X0007748Y0248132D01*
X0007748Y0247134D02*
X0024370Y0247134D01*
X0024370Y0246135D02*
X0007748Y0246135D01*
X0007748Y0245137D02*
X0024370Y0245137D01*
X0024370Y0244138D02*
X0007748Y0244138D01*
X0007748Y0243140D02*
X0024370Y0243140D01*
X0024370Y0242141D02*
X0007748Y0242141D01*
X0007748Y0241143D02*
X0024370Y0241143D01*
X0024370Y0240144D02*
X0007748Y0240144D01*
X0007748Y0239146D02*
X0024370Y0239146D01*
X0024733Y0238147D02*
X0007748Y0238147D01*
X0007748Y0237149D02*
X0026061Y0237149D01*
X0029370Y0242141D02*
X0033700Y0242141D01*
X0033782Y0243140D02*
X0029370Y0243140D01*
X0029370Y0244138D02*
X0081072Y0244138D01*
X0078500Y0245137D02*
X0077500Y0245137D01*
X0077500Y0246135D02*
X0078500Y0246135D01*
X0078500Y0247134D02*
X0077500Y0247134D01*
X0077500Y0248132D02*
X0078500Y0248132D01*
X0077500Y0249131D02*
X0072300Y0249131D01*
X0072300Y0250129D02*
X0073500Y0250129D01*
X0073500Y0251128D02*
X0072300Y0251128D01*
X0072300Y0252126D02*
X0073500Y0252126D01*
X0073617Y0253125D02*
X0072233Y0253125D01*
X0072300Y0253058D02*
X0071538Y0253820D01*
X0070900Y0253820D01*
X0070900Y0260058D01*
X0070138Y0260820D01*
X0065862Y0260820D01*
X0065100Y0260058D01*
X0065100Y0253820D01*
X0064462Y0253820D01*
X0063700Y0253058D01*
X0063700Y0245981D01*
X0064462Y0245220D01*
X0071538Y0245220D01*
X0072300Y0245981D01*
X0072300Y0253058D01*
X0070900Y0254123D02*
X0074900Y0254123D01*
X0074900Y0255122D02*
X0070900Y0255122D01*
X0070900Y0256120D02*
X0077700Y0256120D01*
X0078300Y0256120D02*
X0085100Y0256120D01*
X0085100Y0255122D02*
X0081100Y0255122D01*
X0081100Y0254123D02*
X0085100Y0254123D01*
X0083767Y0253125D02*
X0082383Y0253125D01*
X0082500Y0252126D02*
X0083700Y0252126D01*
X0081100Y0256320D02*
X0081100Y0259717D01*
X0080998Y0260099D01*
X0080800Y0260441D01*
X0080521Y0260720D01*
X0080179Y0260917D01*
X0079797Y0261020D01*
X0078300Y0261020D01*
X0078300Y0256320D01*
X0081100Y0256320D01*
X0081100Y0257119D02*
X0085100Y0257119D01*
X0085100Y0258117D02*
X0081100Y0258117D01*
X0081100Y0259116D02*
X0085100Y0259116D01*
X0085156Y0260114D02*
X0080989Y0260114D01*
X0078300Y0260114D02*
X0077700Y0260114D01*
X0077700Y0259116D02*
X0078300Y0259116D01*
X0078300Y0258117D02*
X0077700Y0258117D01*
X0077700Y0257119D02*
X0078300Y0257119D01*
X0078300Y0255122D02*
X0077700Y0255122D01*
X0077700Y0254123D02*
X0078300Y0254123D01*
X0078300Y0253125D02*
X0077700Y0253125D01*
X0077700Y0252126D02*
X0078300Y0252126D01*
X0078300Y0251128D02*
X0077700Y0251128D01*
X0077500Y0250129D02*
X0078500Y0250129D01*
X0074395Y0245137D02*
X0029370Y0245137D01*
X0029370Y0246135D02*
X0033700Y0246135D01*
X0033700Y0245981D02*
X0034462Y0245220D01*
X0041538Y0245220D01*
X0042300Y0245981D01*
X0042300Y0253058D01*
X0041538Y0253820D01*
X0040900Y0253820D01*
X0040900Y0260058D01*
X0040138Y0260820D01*
X0040100Y0260820D01*
X0040100Y0262739D01*
X0040782Y0263421D01*
X0041281Y0264627D01*
X0041281Y0265932D01*
X0040782Y0267138D01*
X0039859Y0268061D01*
X0038653Y0268561D01*
X0037347Y0268561D01*
X0036141Y0268061D01*
X0035218Y0267138D01*
X0034719Y0265932D01*
X0034719Y0264627D01*
X0035218Y0263421D01*
X0035900Y0262739D01*
X0035900Y0260820D01*
X0035862Y0260820D01*
X0035100Y0260058D01*
X0035100Y0253820D01*
X0034462Y0253820D01*
X0033700Y0253058D01*
X0033700Y0245981D01*
X0033700Y0247134D02*
X0029370Y0247134D01*
X0029370Y0248132D02*
X0033700Y0248132D01*
X0033700Y0249131D02*
X0029370Y0249131D01*
X0029370Y0250129D02*
X0033700Y0250129D01*
X0033700Y0251128D02*
X0029370Y0251128D01*
X0029370Y0252126D02*
X0033700Y0252126D01*
X0033767Y0253125D02*
X0029370Y0253125D01*
X0029370Y0254123D02*
X0035100Y0254123D01*
X0035100Y0255122D02*
X0029370Y0255122D01*
X0029370Y0256120D02*
X0035100Y0256120D01*
X0035100Y0257119D02*
X0029370Y0257119D01*
X0029370Y0258117D02*
X0035100Y0258117D01*
X0035100Y0259116D02*
X0029370Y0259116D01*
X0029370Y0260114D02*
X0035156Y0260114D01*
X0035900Y0261113D02*
X0029370Y0261113D01*
X0029370Y0262111D02*
X0035900Y0262111D01*
X0035529Y0263110D02*
X0029370Y0263110D01*
X0029370Y0264108D02*
X0034934Y0264108D01*
X0034719Y0265107D02*
X0029370Y0265107D01*
X0029370Y0266105D02*
X0034791Y0266105D01*
X0035204Y0267104D02*
X0029370Y0267104D01*
X0029370Y0268103D02*
X0036241Y0268103D01*
X0039759Y0268103D02*
X0111684Y0268103D01*
X0111684Y0269101D02*
X0029370Y0269101D01*
X0029370Y0270100D02*
X0111684Y0270100D01*
X0111684Y0271098D02*
X0029370Y0271098D01*
X0029370Y0272097D02*
X0111684Y0272097D01*
X0111684Y0273095D02*
X0029370Y0273095D01*
X0029370Y0274094D02*
X0111684Y0274094D01*
X0111684Y0275092D02*
X0029370Y0275092D01*
X0029370Y0276091D02*
X0111684Y0276091D01*
X0111684Y0277089D02*
X0029370Y0277089D01*
X0029370Y0278088D02*
X0111684Y0278088D01*
X0111684Y0279086D02*
X0029370Y0279086D01*
X0029370Y0280085D02*
X0111640Y0280085D01*
X0110775Y0281083D02*
X0029370Y0281083D01*
X0029370Y0282082D02*
X0110400Y0282082D01*
X0110400Y0283080D02*
X0029370Y0283080D01*
X0029370Y0284079D02*
X0110757Y0284079D01*
X0111597Y0285077D02*
X0029370Y0285077D01*
X0029370Y0286076D02*
X0131369Y0286076D01*
X0130635Y0287074D02*
X0029370Y0287074D01*
X0029370Y0288073D02*
X0130174Y0288073D01*
X0130085Y0289071D02*
X0029370Y0289071D01*
X0029370Y0290070D02*
X0130315Y0290070D01*
X0130974Y0291068D02*
X0029370Y0291068D01*
X0029370Y0292067D02*
X0254685Y0292067D01*
X0254685Y0293065D02*
X0029370Y0293065D01*
X0029370Y0294064D02*
X0245830Y0294064D01*
X0248855Y0294064D02*
X0254685Y0294064D01*
X0254685Y0295062D02*
X0249971Y0295062D01*
X0250385Y0296061D02*
X0254685Y0296061D01*
X0254685Y0297059D02*
X0250427Y0297059D01*
X0250150Y0298058D02*
X0254685Y0298058D01*
X0254685Y0299056D02*
X0249424Y0299056D01*
X0254685Y0291068D02*
X0135364Y0291068D01*
X0136024Y0290070D02*
X0254685Y0290070D01*
X0254685Y0289071D02*
X0136254Y0289071D01*
X0136164Y0288073D02*
X0145959Y0288073D01*
X0145209Y0287074D02*
X0135704Y0287074D01*
X0134969Y0286076D02*
X0144916Y0286076D01*
X0144941Y0285077D02*
X0134969Y0285077D01*
X0134969Y0284079D02*
X0145355Y0284079D01*
X0146200Y0283080D02*
X0134969Y0283080D01*
X0134969Y0282082D02*
X0141299Y0282082D01*
X0140349Y0281083D02*
X0134969Y0281083D01*
X0134969Y0280085D02*
X0139935Y0280085D01*
X0139928Y0279086D02*
X0134969Y0279086D01*
X0134969Y0278088D02*
X0140239Y0278088D01*
X0141014Y0277089D02*
X0134969Y0277089D01*
X0134969Y0276091D02*
X0137031Y0276091D01*
X0135577Y0275092D02*
X0134969Y0275092D01*
X0134969Y0274094D02*
X0135051Y0274094D01*
X0138000Y0273154D02*
X0138000Y0256020D01*
X0138000Y0249520D01*
X0140900Y0254123D02*
X0141212Y0254123D01*
X0141212Y0255122D02*
X0140900Y0255122D01*
X0140900Y0256120D02*
X0141212Y0256120D01*
X0141212Y0257119D02*
X0140900Y0257119D01*
X0140900Y0258117D02*
X0141212Y0258117D01*
X0141212Y0259116D02*
X0140900Y0259116D01*
X0140844Y0260114D02*
X0141212Y0260114D01*
X0141212Y0261113D02*
X0139800Y0261113D01*
X0139800Y0262111D02*
X0141212Y0262111D01*
X0141212Y0263110D02*
X0139800Y0263110D01*
X0139800Y0264108D02*
X0141212Y0264108D01*
X0141212Y0265107D02*
X0139800Y0265107D01*
X0139800Y0266105D02*
X0141212Y0266105D01*
X0141212Y0267104D02*
X0139800Y0267104D01*
X0139800Y0268103D02*
X0141212Y0268103D01*
X0141212Y0269101D02*
X0139800Y0269101D01*
X0139800Y0270100D02*
X0141212Y0270100D01*
X0141212Y0271098D02*
X0140306Y0271098D01*
X0140901Y0272097D02*
X0141212Y0272097D01*
X0141212Y0273095D02*
X0141084Y0273095D01*
X0141212Y0274094D02*
X0140949Y0274094D01*
X0141212Y0275092D02*
X0140423Y0275092D01*
X0141212Y0276091D02*
X0138969Y0276091D01*
X0143012Y0279453D02*
X0143012Y0239520D01*
X0148000Y0239520D01*
X0148000Y0233020D01*
X0150900Y0233155D02*
X0155100Y0233155D01*
X0155100Y0234153D02*
X0150900Y0234153D01*
X0150900Y0235152D02*
X0155100Y0235152D01*
X0153700Y0236150D02*
X0152300Y0236150D01*
X0152300Y0237149D02*
X0153700Y0237149D01*
X0153700Y0238147D02*
X0152300Y0238147D01*
X0152300Y0239146D02*
X0153700Y0239146D01*
X0153700Y0240144D02*
X0152300Y0240144D01*
X0152300Y0241143D02*
X0153700Y0241143D01*
X0153700Y0242141D02*
X0152300Y0242141D01*
X0152218Y0243140D02*
X0153782Y0243140D01*
X0158000Y0239520D02*
X0158000Y0233783D01*
X0155100Y0232156D02*
X0150900Y0232156D01*
X0150900Y0231158D02*
X0155100Y0231158D01*
X0155100Y0230159D02*
X0150900Y0230159D01*
X0150900Y0229161D02*
X0155100Y0229161D01*
X0156100Y0226165D02*
X0094715Y0226165D01*
X0094715Y0225167D02*
X0156100Y0225167D01*
X0159900Y0225167D02*
X0186100Y0225167D01*
X0186100Y0226165D02*
X0159900Y0226165D01*
X0159900Y0227164D02*
X0186100Y0227164D01*
X0186100Y0228162D02*
X0180249Y0228162D01*
X0180179Y0228122D02*
X0180521Y0228319D01*
X0180800Y0228599D01*
X0180998Y0228941D01*
X0181100Y0229322D01*
X0181100Y0232720D01*
X0178300Y0232720D01*
X0178300Y0228020D01*
X0179797Y0228020D01*
X0180179Y0228122D01*
X0181057Y0229161D02*
X0185100Y0229161D01*
X0185100Y0230159D02*
X0181100Y0230159D01*
X0181100Y0231158D02*
X0185100Y0231158D01*
X0185100Y0232156D02*
X0181100Y0232156D01*
X0178300Y0232156D02*
X0177700Y0232156D01*
X0177700Y0231158D02*
X0178300Y0231158D01*
X0178300Y0230159D02*
X0177700Y0230159D01*
X0177700Y0229161D02*
X0178300Y0229161D01*
X0178300Y0228162D02*
X0177700Y0228162D01*
X0177700Y0234153D02*
X0178300Y0234153D01*
X0178300Y0235152D02*
X0177700Y0235152D01*
X0177700Y0236150D02*
X0178300Y0236150D01*
X0178300Y0237149D02*
X0177700Y0237149D01*
X0177500Y0238147D02*
X0178500Y0238147D01*
X0178500Y0241143D02*
X0177500Y0241143D01*
X0177500Y0242141D02*
X0178500Y0242141D01*
X0178500Y0243140D02*
X0177500Y0243140D01*
X0182374Y0243140D02*
X0183782Y0243140D01*
X0183700Y0242141D02*
X0182500Y0242141D01*
X0182500Y0241143D02*
X0183700Y0241143D01*
X0183700Y0240144D02*
X0182500Y0240144D01*
X0182300Y0246135D02*
X0183700Y0246135D01*
X0183700Y0247134D02*
X0182300Y0247134D01*
X0182300Y0248132D02*
X0183700Y0248132D01*
X0183700Y0249131D02*
X0182300Y0249131D01*
X0182300Y0250129D02*
X0183700Y0250129D01*
X0183700Y0251128D02*
X0182300Y0251128D01*
X0182300Y0252126D02*
X0183700Y0252126D01*
X0183767Y0253125D02*
X0182233Y0253125D01*
X0180900Y0254123D02*
X0185100Y0254123D01*
X0185100Y0255122D02*
X0180900Y0255122D01*
X0180900Y0256120D02*
X0185100Y0256120D01*
X0185100Y0257119D02*
X0180900Y0257119D01*
X0180900Y0258117D02*
X0185100Y0258117D01*
X0185100Y0259116D02*
X0180900Y0259116D01*
X0180844Y0260114D02*
X0185156Y0260114D01*
X0188000Y0256020D02*
X0188000Y0249520D01*
X0190900Y0254123D02*
X0195100Y0254123D01*
X0195100Y0255122D02*
X0190900Y0255122D01*
X0190900Y0256120D02*
X0195100Y0256120D01*
X0195100Y0257119D02*
X0190900Y0257119D01*
X0190900Y0258117D02*
X0195100Y0258117D01*
X0195100Y0259116D02*
X0190900Y0259116D01*
X0190844Y0260114D02*
X0195156Y0260114D01*
X0196100Y0261113D02*
X0189900Y0261113D01*
X0189900Y0262111D02*
X0196100Y0262111D01*
X0196100Y0263110D02*
X0189900Y0263110D01*
X0189900Y0264108D02*
X0196100Y0264108D01*
X0196100Y0265107D02*
X0189900Y0265107D01*
X0189900Y0266105D02*
X0196100Y0266105D01*
X0196100Y0267104D02*
X0189900Y0267104D01*
X0189900Y0268103D02*
X0196100Y0268103D01*
X0196100Y0269101D02*
X0189900Y0269101D01*
X0189900Y0270100D02*
X0196196Y0270100D01*
X0197195Y0271098D02*
X0189900Y0271098D01*
X0199900Y0267104D02*
X0207137Y0267104D01*
X0206139Y0266105D02*
X0199900Y0266105D01*
X0199900Y0265107D02*
X0206100Y0265107D01*
X0206100Y0264108D02*
X0199900Y0264108D01*
X0199900Y0263110D02*
X0206100Y0263110D01*
X0206100Y0262111D02*
X0199900Y0262111D01*
X0199900Y0261113D02*
X0206100Y0261113D01*
X0205156Y0260114D02*
X0200844Y0260114D01*
X0200900Y0259116D02*
X0205100Y0259116D01*
X0205100Y0258117D02*
X0200900Y0258117D01*
X0200900Y0257119D02*
X0205100Y0257119D01*
X0205100Y0256120D02*
X0200900Y0256120D01*
X0200900Y0255122D02*
X0205100Y0255122D01*
X0205100Y0254123D02*
X0200900Y0254123D01*
X0202233Y0253125D02*
X0203767Y0253125D01*
X0203700Y0252126D02*
X0202300Y0252126D01*
X0202300Y0251128D02*
X0203700Y0251128D01*
X0203700Y0250129D02*
X0202300Y0250129D01*
X0202300Y0249131D02*
X0203700Y0249131D01*
X0203700Y0248132D02*
X0202300Y0248132D01*
X0202300Y0247134D02*
X0203700Y0247134D01*
X0203700Y0246135D02*
X0202300Y0246135D01*
X0201579Y0243917D02*
X0201197Y0244020D01*
X0198500Y0244020D01*
X0198500Y0240020D01*
X0197500Y0240020D01*
X0197500Y0244020D01*
X0194803Y0244020D01*
X0194421Y0243917D01*
X0194079Y0243720D01*
X0193800Y0243441D01*
X0193602Y0243099D01*
X0193500Y0242717D01*
X0193500Y0240020D01*
X0197500Y0240020D01*
X0197500Y0239020D01*
X0193500Y0239020D01*
X0193500Y0236322D01*
X0193602Y0235941D01*
X0193800Y0235599D01*
X0194079Y0235319D01*
X0194421Y0235122D01*
X0194803Y0235020D01*
X0194900Y0235020D01*
X0194900Y0233320D01*
X0197700Y0233320D01*
X0197700Y0238020D01*
X0197500Y0238020D01*
X0197500Y0239020D01*
X0198500Y0239020D01*
X0198500Y0240020D01*
X0202500Y0240020D01*
X0202500Y0242717D01*
X0202398Y0243099D01*
X0202200Y0243441D01*
X0201921Y0243720D01*
X0201579Y0243917D01*
X0202374Y0243140D02*
X0203782Y0243140D01*
X0203700Y0242141D02*
X0202500Y0242141D01*
X0202500Y0241143D02*
X0203700Y0241143D01*
X0203700Y0240144D02*
X0202500Y0240144D01*
X0202500Y0239020D02*
X0198500Y0239020D01*
X0198500Y0238020D01*
X0198300Y0238020D01*
X0198300Y0233320D01*
X0197700Y0233320D01*
X0197700Y0232720D01*
X0194900Y0232720D01*
X0194900Y0229322D01*
X0195002Y0228941D01*
X0195200Y0228599D01*
X0195479Y0228319D01*
X0195821Y0228122D01*
X0196203Y0228020D01*
X0197700Y0228020D01*
X0197700Y0232720D01*
X0198300Y0232720D01*
X0198300Y0233320D01*
X0201100Y0233320D01*
X0201100Y0235020D01*
X0201197Y0235020D01*
X0201579Y0235122D01*
X0201921Y0235319D01*
X0202200Y0235599D01*
X0202398Y0235941D01*
X0202500Y0236322D01*
X0202500Y0239020D01*
X0202500Y0238147D02*
X0203700Y0238147D01*
X0203700Y0237149D02*
X0202500Y0237149D01*
X0202454Y0236150D02*
X0203700Y0236150D01*
X0205100Y0235152D02*
X0201630Y0235152D01*
X0201100Y0234153D02*
X0205100Y0234153D01*
X0205100Y0233155D02*
X0198300Y0233155D01*
X0198300Y0232720D02*
X0201100Y0232720D01*
X0201100Y0229322D01*
X0200998Y0228941D01*
X0200800Y0228599D01*
X0200521Y0228319D01*
X0200179Y0228122D01*
X0199797Y0228020D01*
X0198300Y0228020D01*
X0198300Y0232720D01*
X0198300Y0232156D02*
X0197700Y0232156D01*
X0197700Y0231158D02*
X0198300Y0231158D01*
X0198300Y0230159D02*
X0197700Y0230159D01*
X0197700Y0229161D02*
X0198300Y0229161D01*
X0198300Y0228162D02*
X0197700Y0228162D01*
X0195751Y0228162D02*
X0189900Y0228162D01*
X0189900Y0227164D02*
X0206100Y0227164D01*
X0206100Y0228162D02*
X0200249Y0228162D01*
X0201057Y0229161D02*
X0205100Y0229161D01*
X0205100Y0230159D02*
X0201100Y0230159D01*
X0201100Y0231158D02*
X0205100Y0231158D01*
X0205100Y0232156D02*
X0201100Y0232156D01*
X0198300Y0234153D02*
X0197700Y0234153D01*
X0197700Y0233155D02*
X0190900Y0233155D01*
X0190900Y0234153D02*
X0194900Y0234153D01*
X0194370Y0235152D02*
X0190900Y0235152D01*
X0192300Y0236150D02*
X0193546Y0236150D01*
X0193500Y0237149D02*
X0192300Y0237149D01*
X0192300Y0238147D02*
X0193500Y0238147D01*
X0192300Y0239146D02*
X0197500Y0239146D01*
X0197500Y0240144D02*
X0198500Y0240144D01*
X0198500Y0239146D02*
X0203700Y0239146D01*
X0208000Y0239520D02*
X0208000Y0233783D01*
X0206100Y0226165D02*
X0189900Y0226165D01*
X0189900Y0225167D02*
X0206100Y0225167D01*
X0206100Y0224168D02*
X0189900Y0224168D01*
X0189900Y0223170D02*
X0206100Y0223170D01*
X0206100Y0222171D02*
X0189900Y0222171D01*
X0189900Y0221172D02*
X0206100Y0221172D01*
X0206100Y0220174D02*
X0189900Y0220174D01*
X0189900Y0219175D02*
X0206100Y0219175D01*
X0206100Y0218177D02*
X0189900Y0218177D01*
X0189900Y0217178D02*
X0206100Y0217178D01*
X0206100Y0216180D02*
X0189900Y0216180D01*
X0189900Y0215181D02*
X0206100Y0215181D01*
X0206100Y0214183D02*
X0189900Y0214183D01*
X0189900Y0213184D02*
X0206100Y0213184D01*
X0206100Y0212186D02*
X0189900Y0212186D01*
X0189900Y0211187D02*
X0206100Y0211187D01*
X0206100Y0210189D02*
X0189900Y0210189D01*
X0189900Y0209190D02*
X0206100Y0209190D01*
X0206100Y0208192D02*
X0189900Y0208192D01*
X0189900Y0207193D02*
X0206100Y0207193D01*
X0206100Y0206195D02*
X0189900Y0206195D01*
X0189900Y0205196D02*
X0206100Y0205196D01*
X0206100Y0204198D02*
X0189900Y0204198D01*
X0189900Y0203199D02*
X0206100Y0203199D01*
X0206100Y0202201D02*
X0189900Y0202201D01*
X0189900Y0201202D02*
X0206100Y0201202D01*
X0206100Y0200204D02*
X0189900Y0200204D01*
X0189900Y0199205D02*
X0206100Y0199205D01*
X0206100Y0198207D02*
X0189900Y0198207D01*
X0189900Y0197208D02*
X0206100Y0197208D01*
X0206100Y0196210D02*
X0189900Y0196210D01*
X0189900Y0195211D02*
X0206100Y0195211D01*
X0206100Y0194213D02*
X0189900Y0194213D01*
X0189900Y0193214D02*
X0206100Y0193214D01*
X0206100Y0192216D02*
X0189900Y0192216D01*
X0189900Y0191217D02*
X0206100Y0191217D01*
X0206100Y0190219D02*
X0189900Y0190219D01*
X0189900Y0189220D02*
X0206100Y0189220D01*
X0206100Y0188222D02*
X0189900Y0188222D01*
X0189900Y0187223D02*
X0206100Y0187223D01*
X0206100Y0186225D02*
X0189900Y0186225D01*
X0189900Y0185226D02*
X0206100Y0185226D01*
X0205307Y0184228D02*
X0189900Y0184228D01*
X0189900Y0183229D02*
X0204894Y0183229D01*
X0204888Y0182231D02*
X0189900Y0182231D01*
X0189900Y0181232D02*
X0205202Y0181232D01*
X0205979Y0180234D02*
X0189900Y0180234D01*
X0166702Y0217178D02*
X0110732Y0217178D01*
X0110732Y0219175D02*
X0166702Y0219175D01*
X0166702Y0218177D02*
X0104732Y0218177D01*
X0104732Y0219175D02*
X0103732Y0219175D01*
X0103732Y0219126D02*
X0103732Y0225126D01*
X0099035Y0225126D01*
X0098653Y0225024D01*
X0098311Y0224826D01*
X0098032Y0224547D01*
X0097835Y0224205D01*
X0097732Y0223823D01*
X0097732Y0219126D01*
X0103732Y0219126D01*
X0103732Y0218177D02*
X0094715Y0218177D01*
X0094715Y0219175D02*
X0097732Y0219175D01*
X0097732Y0220174D02*
X0094715Y0220174D01*
X0094715Y0221172D02*
X0097732Y0221172D01*
X0097732Y0222171D02*
X0094715Y0222171D01*
X0094715Y0223170D02*
X0097732Y0223170D01*
X0097825Y0224168D02*
X0094715Y0224168D01*
X0094715Y0217178D02*
X0097732Y0217178D01*
X0097732Y0216180D02*
X0094715Y0216180D01*
X0094715Y0215181D02*
X0097732Y0215181D01*
X0097732Y0214183D02*
X0094715Y0214183D01*
X0094715Y0213184D02*
X0097798Y0213184D01*
X0098811Y0212186D02*
X0094715Y0212186D01*
X0086100Y0212186D02*
X0079951Y0212186D01*
X0079951Y0213184D02*
X0086100Y0213184D01*
X0086100Y0214183D02*
X0079951Y0214183D01*
X0079951Y0215181D02*
X0086100Y0215181D01*
X0086100Y0216180D02*
X0079951Y0216180D01*
X0079951Y0217178D02*
X0086100Y0217178D01*
X0086100Y0218177D02*
X0079951Y0218177D01*
X0079951Y0219175D02*
X0086100Y0219175D01*
X0086100Y0220174D02*
X0083861Y0220174D01*
X0084859Y0221172D02*
X0086100Y0221172D01*
X0086100Y0222171D02*
X0084872Y0222171D01*
X0084872Y0223170D02*
X0086100Y0223170D01*
X0086100Y0224168D02*
X0084872Y0224168D01*
X0084872Y0225167D02*
X0086100Y0225167D01*
X0086100Y0226165D02*
X0084872Y0226165D01*
X0084872Y0227164D02*
X0086100Y0227164D01*
X0086100Y0228162D02*
X0084872Y0228162D01*
X0084872Y0229161D02*
X0085100Y0229161D01*
X0085100Y0230159D02*
X0084872Y0230159D01*
X0084872Y0231158D02*
X0085100Y0231158D01*
X0085100Y0232156D02*
X0084872Y0232156D01*
X0084872Y0233155D02*
X0085100Y0233155D01*
X0085100Y0234153D02*
X0084872Y0234153D01*
X0084872Y0235152D02*
X0085100Y0235152D01*
X0088000Y0233783D02*
X0088000Y0239520D01*
X0081072Y0235152D02*
X0080900Y0235152D01*
X0080900Y0234153D02*
X0081072Y0234153D01*
X0081072Y0233155D02*
X0080900Y0233155D01*
X0080900Y0232156D02*
X0081072Y0232156D01*
X0081072Y0231158D02*
X0080900Y0231158D01*
X0080900Y0230159D02*
X0081072Y0230159D01*
X0081072Y0229161D02*
X0080900Y0229161D01*
X0081072Y0228162D02*
X0076014Y0228162D01*
X0076014Y0227164D02*
X0081072Y0227164D01*
X0081072Y0226165D02*
X0076014Y0226165D01*
X0076014Y0225167D02*
X0081072Y0225167D01*
X0081072Y0224168D02*
X0076014Y0224168D01*
X0076014Y0223170D02*
X0076561Y0223170D01*
X0076151Y0222171D02*
X0076014Y0222171D01*
X0076014Y0221172D02*
X0076151Y0221172D01*
X0076151Y0220174D02*
X0076014Y0220174D01*
X0076014Y0219175D02*
X0076151Y0219175D01*
X0076151Y0218177D02*
X0076014Y0218177D01*
X0076014Y0217178D02*
X0076151Y0217178D01*
X0076151Y0216180D02*
X0076014Y0216180D01*
X0076014Y0215181D02*
X0076151Y0215181D01*
X0076151Y0214183D02*
X0076014Y0214183D01*
X0076014Y0213184D02*
X0076151Y0213184D01*
X0076151Y0212186D02*
X0076014Y0212186D01*
X0076014Y0211187D02*
X0076151Y0211187D01*
X0076151Y0210189D02*
X0076014Y0210189D01*
X0076014Y0209190D02*
X0076151Y0209190D01*
X0076151Y0208192D02*
X0076014Y0208192D01*
X0076014Y0207193D02*
X0076151Y0207193D01*
X0076151Y0206195D02*
X0076014Y0206195D01*
X0076014Y0205196D02*
X0076151Y0205196D01*
X0076151Y0204198D02*
X0076014Y0204198D01*
X0076014Y0203199D02*
X0076151Y0203199D01*
X0076151Y0202201D02*
X0076014Y0202201D01*
X0076014Y0201202D02*
X0076151Y0201202D01*
X0076151Y0200204D02*
X0076014Y0200204D01*
X0076014Y0199205D02*
X0076151Y0199205D01*
X0076151Y0198207D02*
X0076014Y0198207D01*
X0076014Y0197208D02*
X0076151Y0197208D01*
X0076151Y0196210D02*
X0076014Y0196210D01*
X0076014Y0195211D02*
X0076151Y0195211D01*
X0076151Y0194213D02*
X0076014Y0194213D01*
X0076014Y0193214D02*
X0076151Y0193214D01*
X0076151Y0192216D02*
X0076014Y0192216D01*
X0076014Y0191217D02*
X0076151Y0191217D01*
X0076151Y0190219D02*
X0076014Y0190219D01*
X0076014Y0189220D02*
X0076151Y0189220D01*
X0076151Y0188222D02*
X0076014Y0188222D01*
X0076014Y0187223D02*
X0076151Y0187223D01*
X0076151Y0186225D02*
X0076014Y0186225D01*
X0076014Y0185226D02*
X0076151Y0185226D01*
X0076151Y0184228D02*
X0076014Y0184228D01*
X0076014Y0183229D02*
X0076151Y0183229D01*
X0076151Y0182231D02*
X0076014Y0182231D01*
X0076014Y0181232D02*
X0076151Y0181232D01*
X0076151Y0180234D02*
X0076014Y0180234D01*
X0076014Y0179235D02*
X0076151Y0179235D01*
X0076151Y0178237D02*
X0076014Y0178237D01*
X0076014Y0177238D02*
X0076151Y0177238D01*
X0076151Y0176239D02*
X0076014Y0176239D01*
X0076014Y0175241D02*
X0076151Y0175241D01*
X0076151Y0174242D02*
X0076014Y0174242D01*
X0076014Y0173244D02*
X0076151Y0173244D01*
X0076151Y0172245D02*
X0076014Y0172245D01*
X0076014Y0171247D02*
X0076151Y0171247D01*
X0076151Y0170248D02*
X0076014Y0170248D01*
X0076014Y0169250D02*
X0076151Y0169250D01*
X0076151Y0168251D02*
X0076014Y0168251D01*
X0076014Y0167253D02*
X0076151Y0167253D01*
X0076151Y0166254D02*
X0076014Y0166254D01*
X0076014Y0165256D02*
X0076151Y0165256D01*
X0076151Y0164257D02*
X0076014Y0164257D01*
X0076014Y0163259D02*
X0076151Y0163259D01*
X0076151Y0162260D02*
X0076014Y0162260D01*
X0076014Y0161262D02*
X0076151Y0161262D01*
X0076151Y0160263D02*
X0076014Y0160263D01*
X0076014Y0159265D02*
X0076151Y0159265D01*
X0076151Y0158266D02*
X0076014Y0158266D01*
X0076014Y0157268D02*
X0076151Y0157268D01*
X0076151Y0156269D02*
X0076014Y0156269D01*
X0076014Y0155271D02*
X0076151Y0155271D01*
X0076151Y0154272D02*
X0076014Y0154272D01*
X0076014Y0153274D02*
X0076151Y0153274D01*
X0076151Y0152275D02*
X0076014Y0152275D01*
X0076014Y0151277D02*
X0076151Y0151277D01*
X0076151Y0150278D02*
X0076014Y0150278D01*
X0076014Y0149280D02*
X0076151Y0149280D01*
X0076151Y0148281D02*
X0076014Y0148281D01*
X0076014Y0147283D02*
X0076151Y0147283D01*
X0076151Y0146284D02*
X0076014Y0146284D01*
X0076014Y0145286D02*
X0076151Y0145286D01*
X0076151Y0144287D02*
X0076014Y0144287D01*
X0076014Y0143289D02*
X0076151Y0143289D01*
X0076151Y0142290D02*
X0076014Y0142290D01*
X0076014Y0141292D02*
X0076151Y0141292D01*
X0076151Y0140293D02*
X0076014Y0140293D01*
X0076014Y0139295D02*
X0076151Y0139295D01*
X0076151Y0138296D02*
X0076014Y0138296D01*
X0076014Y0137298D02*
X0076151Y0137298D01*
X0076151Y0136299D02*
X0076014Y0136299D01*
X0076014Y0135301D02*
X0076151Y0135301D01*
X0076151Y0134302D02*
X0076014Y0134302D01*
X0076014Y0133303D02*
X0076151Y0133303D01*
X0076151Y0132305D02*
X0076014Y0132305D01*
X0076014Y0131306D02*
X0076151Y0131306D01*
X0076151Y0130308D02*
X0076014Y0130308D01*
X0076014Y0129309D02*
X0076151Y0129309D01*
X0076151Y0128311D02*
X0076014Y0128311D01*
X0076014Y0127312D02*
X0076151Y0127312D01*
X0076151Y0126314D02*
X0076014Y0126314D01*
X0076014Y0125315D02*
X0076151Y0125315D01*
X0076151Y0124317D02*
X0076014Y0124317D01*
X0076014Y0123318D02*
X0076151Y0123318D01*
X0076151Y0122320D02*
X0076014Y0122320D01*
X0076014Y0121321D02*
X0076151Y0121321D01*
X0076151Y0120323D02*
X0076014Y0120323D01*
X0076014Y0119324D02*
X0076151Y0119324D01*
X0076014Y0118326D02*
X0076649Y0118326D01*
X0076014Y0117327D02*
X0091899Y0117327D01*
X0091899Y0116329D02*
X0076014Y0116329D01*
X0076014Y0115330D02*
X0091899Y0115330D01*
X0091899Y0114332D02*
X0076014Y0114332D01*
X0076014Y0113333D02*
X0091899Y0113333D01*
X0091899Y0112335D02*
X0076014Y0112335D01*
X0076014Y0111336D02*
X0091899Y0111336D01*
X0091899Y0110338D02*
X0076014Y0110338D01*
X0076014Y0109339D02*
X0091899Y0109339D01*
X0091899Y0108341D02*
X0076014Y0108341D01*
X0076014Y0107342D02*
X0091899Y0107342D01*
X0091899Y0106344D02*
X0076014Y0106344D01*
X0076014Y0105345D02*
X0091899Y0105345D01*
X0091899Y0104347D02*
X0076014Y0104347D01*
X0076014Y0103348D02*
X0091899Y0103348D01*
X0091899Y0102350D02*
X0076014Y0102350D01*
X0076014Y0101351D02*
X0091899Y0101351D01*
X0091899Y0100353D02*
X0076014Y0100353D01*
X0076014Y0099354D02*
X0091899Y0099354D01*
X0091899Y0098356D02*
X0076014Y0098356D01*
X0076014Y0097357D02*
X0091899Y0097357D01*
X0091899Y0096359D02*
X0076014Y0096359D01*
X0076014Y0095360D02*
X0091899Y0095360D01*
X0092739Y0094362D02*
X0076014Y0094362D01*
X0076014Y0093363D02*
X0203507Y0093363D01*
X0203507Y0092365D02*
X0076014Y0092365D01*
X0076014Y0091366D02*
X0203507Y0091366D01*
X0203507Y0090368D02*
X0076014Y0090368D01*
X0076014Y0089369D02*
X0203507Y0089369D01*
X0203507Y0088370D02*
X0076014Y0088370D01*
X0076014Y0087372D02*
X0203507Y0087372D01*
X0203507Y0086373D02*
X0076014Y0086373D01*
X0076014Y0085375D02*
X0203507Y0085375D01*
X0203507Y0084376D02*
X0076014Y0084376D01*
X0076014Y0083378D02*
X0122515Y0083378D01*
X0123577Y0083873D02*
X0116892Y0080756D01*
X0116523Y0079744D01*
X0119558Y0073237D01*
X0120570Y0072869D01*
X0127255Y0075986D01*
X0127623Y0076998D01*
X0124589Y0083505D01*
X0123577Y0083873D01*
X0124648Y0083378D02*
X0161376Y0083378D01*
X0161435Y0083505D02*
X0158401Y0076998D01*
X0158769Y0075986D01*
X0165454Y0072869D01*
X0166466Y0073237D01*
X0169500Y0079744D01*
X0169132Y0080756D01*
X0162447Y0083873D01*
X0161435Y0083505D01*
X0160910Y0082379D02*
X0125114Y0082379D01*
X0125579Y0081381D02*
X0160444Y0081381D01*
X0159979Y0080382D02*
X0126045Y0080382D01*
X0126511Y0079384D02*
X0159513Y0079384D01*
X0159048Y0078385D02*
X0126976Y0078385D01*
X0127442Y0077387D02*
X0158582Y0077387D01*
X0158623Y0076388D02*
X0127401Y0076388D01*
X0125976Y0075390D02*
X0160048Y0075390D01*
X0162189Y0074391D02*
X0123835Y0074391D01*
X0121693Y0073393D02*
X0164330Y0073393D01*
X0166539Y0073393D02*
X0203507Y0073393D01*
X0203507Y0074391D02*
X0167004Y0074391D01*
X0167470Y0075390D02*
X0203507Y0075390D01*
X0203507Y0076388D02*
X0167935Y0076388D01*
X0168401Y0077387D02*
X0203507Y0077387D01*
X0203507Y0078385D02*
X0168867Y0078385D01*
X0169332Y0079384D02*
X0203507Y0079384D01*
X0203507Y0080382D02*
X0169268Y0080382D01*
X0167791Y0081381D02*
X0203507Y0081381D01*
X0203507Y0082379D02*
X0165650Y0082379D01*
X0163509Y0083378D02*
X0203507Y0083378D01*
X0207307Y0083378D02*
X0278276Y0083378D01*
X0278276Y0084376D02*
X0207307Y0084376D01*
X0207307Y0085375D02*
X0278276Y0085375D01*
X0278276Y0086373D02*
X0229050Y0086373D01*
X0229680Y0087372D02*
X0278276Y0087372D01*
X0278276Y0088370D02*
X0230145Y0088370D01*
X0230611Y0089369D02*
X0278276Y0089369D01*
X0278276Y0090368D02*
X0231077Y0090368D01*
X0231542Y0091366D02*
X0278276Y0091366D01*
X0278276Y0092365D02*
X0232008Y0092365D01*
X0232132Y0093363D02*
X0278276Y0093363D01*
X0278276Y0094362D02*
X0231061Y0094362D01*
X0228920Y0095360D02*
X0278276Y0095360D01*
X0278276Y0096359D02*
X0228808Y0096359D01*
X0228844Y0097357D02*
X0278276Y0097357D01*
X0278276Y0098356D02*
X0228881Y0098356D01*
X0228937Y0099354D02*
X0278276Y0099354D01*
X0278276Y0100353D02*
X0228954Y0100353D01*
X0228305Y0101351D02*
X0278276Y0101351D01*
X0278276Y0102350D02*
X0099636Y0102350D01*
X0099636Y0103348D02*
X0278276Y0103348D01*
X0278276Y0104347D02*
X0237755Y0104347D01*
X0237638Y0104208D02*
X0237892Y0104511D01*
X0239054Y0107002D01*
X0235293Y0108756D01*
X0235716Y0109662D01*
X0239477Y0107908D01*
X0240638Y0110399D01*
X0240707Y0110788D01*
X0240672Y0111182D01*
X0240537Y0111553D01*
X0240311Y0111876D01*
X0240008Y0112130D01*
X0237428Y0113334D01*
X0235716Y0109662D01*
X0234810Y0110085D01*
X0236522Y0113756D01*
X0233941Y0114959D01*
X0233552Y0115028D01*
X0233159Y0114994D01*
X0232788Y0114858D01*
X0232464Y0114632D01*
X0232210Y0114329D01*
X0231049Y0111838D01*
X0234809Y0110084D01*
X0234387Y0109178D01*
X0235293Y0108756D01*
X0233581Y0105084D01*
X0236161Y0103881D01*
X0236550Y0103812D01*
X0236944Y0103847D01*
X0237315Y0103982D01*
X0237638Y0104208D01*
X0238281Y0105345D02*
X0278276Y0105345D01*
X0278276Y0106344D02*
X0238747Y0106344D01*
X0238324Y0107342D02*
X0278276Y0107342D01*
X0278276Y0108341D02*
X0239678Y0108341D01*
X0240144Y0109339D02*
X0278276Y0109339D01*
X0278276Y0110338D02*
X0240610Y0110338D01*
X0240616Y0111336D02*
X0278276Y0111336D01*
X0278276Y0112335D02*
X0239570Y0112335D01*
X0237428Y0113333D02*
X0278276Y0113333D01*
X0278276Y0114332D02*
X0235287Y0114332D01*
X0236324Y0113333D02*
X0237428Y0113333D01*
X0236962Y0112335D02*
X0235859Y0112335D01*
X0235393Y0111336D02*
X0236497Y0111336D01*
X0236031Y0110338D02*
X0234928Y0110338D01*
X0234266Y0110338D02*
X0231900Y0110338D01*
X0232125Y0111336D02*
X0180256Y0111336D01*
X0179790Y0110338D02*
X0230349Y0110338D01*
X0230626Y0110932D02*
X0229464Y0108441D01*
X0229396Y0108052D01*
X0229430Y0107658D01*
X0229565Y0107287D01*
X0229792Y0106964D01*
X0230094Y0106710D01*
X0232675Y0105507D01*
X0234387Y0109178D01*
X0230626Y0110932D01*
X0231280Y0112335D02*
X0180721Y0112335D01*
X0181187Y0113333D02*
X0231746Y0113333D01*
X0232212Y0114332D02*
X0181652Y0114332D01*
X0182118Y0115330D02*
X0278276Y0115330D01*
X0278276Y0116329D02*
X0182446Y0116329D01*
X0182506Y0116163D02*
X0182138Y0117175D01*
X0175453Y0120292D01*
X0174441Y0119924D01*
X0171407Y0113417D01*
X0171775Y0112405D01*
X0178460Y0109288D01*
X0179472Y0109656D01*
X0182506Y0116163D01*
X0181811Y0117327D02*
X0278276Y0117327D01*
X0278276Y0118326D02*
X0179670Y0118326D01*
X0177529Y0119324D02*
X0278276Y0119324D01*
X0278276Y0120323D02*
X0099636Y0120323D01*
X0099636Y0121321D02*
X0264104Y0121321D01*
X0262547Y0121568D02*
X0262547Y0121568D01*
X0261071Y0122320D02*
X0099636Y0122320D01*
X0099636Y0123318D02*
X0259111Y0123318D01*
X0258505Y0123628D02*
X0258505Y0123628D01*
X0257815Y0124317D02*
X0099636Y0124317D01*
X0098655Y0125315D02*
X0256817Y0125315D01*
X0255818Y0126314D02*
X0083888Y0126314D01*
X0083888Y0127312D02*
X0098739Y0127312D01*
X0099244Y0127129D02*
X0105929Y0130246D01*
X0106298Y0131258D01*
X0103263Y0137765D01*
X0102251Y0138133D01*
X0095566Y0135016D01*
X0095198Y0134004D01*
X0098232Y0127497D01*
X0099244Y0127129D01*
X0099638Y0127312D02*
X0186385Y0127312D01*
X0186779Y0127129D02*
X0187791Y0127497D01*
X0190826Y0134004D01*
X0190457Y0135016D01*
X0183772Y0138133D01*
X0182760Y0137765D01*
X0179726Y0131258D01*
X0180094Y0130246D01*
X0186779Y0127129D01*
X0187284Y0127312D02*
X0255054Y0127312D01*
X0255297Y0126835D02*
X0255297Y0126835D01*
X0254545Y0128311D02*
X0188171Y0128311D01*
X0188637Y0129309D02*
X0254036Y0129309D01*
X0253527Y0130308D02*
X0189102Y0130308D01*
X0189568Y0131306D02*
X0253169Y0131306D01*
X0253011Y0132305D02*
X0190033Y0132305D01*
X0190499Y0133303D02*
X0252853Y0133303D01*
X0252695Y0134302D02*
X0190717Y0134302D01*
X0189846Y0135301D02*
X0252537Y0135301D01*
X0252528Y0135358D02*
X0252528Y0135358D01*
X0252677Y0136299D02*
X0187705Y0136299D01*
X0185564Y0137298D02*
X0252835Y0137298D01*
X0252993Y0138296D02*
X0083888Y0138296D01*
X0083888Y0137298D02*
X0100460Y0137298D01*
X0098319Y0136299D02*
X0083888Y0136299D01*
X0083888Y0135301D02*
X0096177Y0135301D01*
X0095307Y0134302D02*
X0083888Y0134302D01*
X0083888Y0133303D02*
X0095525Y0133303D01*
X0095990Y0132305D02*
X0083888Y0132305D01*
X0083888Y0131306D02*
X0096456Y0131306D01*
X0096921Y0130308D02*
X0083888Y0130308D01*
X0083888Y0129309D02*
X0097387Y0129309D01*
X0097853Y0128311D02*
X0083888Y0128311D01*
X0080088Y0128311D02*
X0079951Y0128311D01*
X0079951Y0129309D02*
X0080088Y0129309D01*
X0080088Y0130308D02*
X0079951Y0130308D01*
X0079951Y0131306D02*
X0080088Y0131306D01*
X0080088Y0132305D02*
X0079951Y0132305D01*
X0079951Y0133303D02*
X0080088Y0133303D01*
X0080088Y0134302D02*
X0079951Y0134302D01*
X0079951Y0135301D02*
X0080088Y0135301D01*
X0080088Y0136299D02*
X0079951Y0136299D01*
X0079951Y0137298D02*
X0080088Y0137298D01*
X0080088Y0138296D02*
X0079951Y0138296D01*
X0079951Y0139295D02*
X0080088Y0139295D01*
X0080088Y0140293D02*
X0079951Y0140293D01*
X0079951Y0141292D02*
X0080088Y0141292D01*
X0080088Y0142290D02*
X0079951Y0142290D01*
X0079951Y0143289D02*
X0080088Y0143289D01*
X0080088Y0144287D02*
X0079951Y0144287D01*
X0079951Y0145286D02*
X0080088Y0145286D01*
X0080088Y0146284D02*
X0079951Y0146284D01*
X0079951Y0147283D02*
X0080088Y0147283D01*
X0080088Y0148281D02*
X0079951Y0148281D01*
X0079951Y0149280D02*
X0080088Y0149280D01*
X0080088Y0150278D02*
X0079951Y0150278D01*
X0079951Y0151277D02*
X0080088Y0151277D01*
X0080088Y0152275D02*
X0079951Y0152275D01*
X0079951Y0153274D02*
X0080088Y0153274D01*
X0080088Y0154272D02*
X0079951Y0154272D01*
X0079951Y0155271D02*
X0080088Y0155271D01*
X0080088Y0156269D02*
X0079951Y0156269D01*
X0079951Y0157268D02*
X0080088Y0157268D01*
X0080088Y0158266D02*
X0079951Y0158266D01*
X0079951Y0159265D02*
X0080088Y0159265D01*
X0080088Y0160263D02*
X0079951Y0160263D01*
X0079951Y0161262D02*
X0080088Y0161262D01*
X0080088Y0162260D02*
X0079951Y0162260D01*
X0079951Y0163259D02*
X0080088Y0163259D01*
X0080088Y0164257D02*
X0079951Y0164257D01*
X0079951Y0165256D02*
X0080088Y0165256D01*
X0080088Y0166254D02*
X0079951Y0166254D01*
X0079951Y0167253D02*
X0080088Y0167253D01*
X0080088Y0168251D02*
X0079951Y0168251D01*
X0079951Y0169250D02*
X0080088Y0169250D01*
X0080088Y0170248D02*
X0079951Y0170248D01*
X0079951Y0171247D02*
X0080088Y0171247D01*
X0080088Y0172245D02*
X0079951Y0172245D01*
X0079951Y0173244D02*
X0080088Y0173244D01*
X0080088Y0174242D02*
X0079951Y0174242D01*
X0079951Y0175241D02*
X0080088Y0175241D01*
X0080088Y0176239D02*
X0079951Y0176239D01*
X0079951Y0177238D02*
X0080088Y0177238D01*
X0080088Y0178237D02*
X0079951Y0178237D01*
X0079951Y0179235D02*
X0080088Y0179235D01*
X0080088Y0180234D02*
X0079951Y0180234D01*
X0079951Y0181232D02*
X0080088Y0181232D01*
X0080088Y0182231D02*
X0079951Y0182231D01*
X0079951Y0183229D02*
X0080088Y0183229D01*
X0080088Y0184228D02*
X0079951Y0184228D01*
X0079951Y0185226D02*
X0080088Y0185226D01*
X0080088Y0186225D02*
X0079951Y0186225D01*
X0079951Y0187223D02*
X0080088Y0187223D01*
X0080088Y0188222D02*
X0079951Y0188222D01*
X0079951Y0189220D02*
X0080088Y0189220D01*
X0080088Y0190219D02*
X0079951Y0190219D01*
X0079951Y0191217D02*
X0080088Y0191217D01*
X0080088Y0192216D02*
X0079951Y0192216D01*
X0079951Y0193214D02*
X0080088Y0193214D01*
X0080088Y0194213D02*
X0079951Y0194213D01*
X0079951Y0195211D02*
X0080088Y0195211D01*
X0080088Y0196210D02*
X0079951Y0196210D01*
X0079951Y0197208D02*
X0080088Y0197208D01*
X0080088Y0198207D02*
X0079951Y0198207D01*
X0079951Y0199205D02*
X0080088Y0199205D01*
X0080088Y0200204D02*
X0079951Y0200204D01*
X0079951Y0201202D02*
X0080088Y0201202D01*
X0080088Y0202201D02*
X0079951Y0202201D01*
X0079951Y0203199D02*
X0080213Y0203199D01*
X0079951Y0204198D02*
X0085665Y0204198D01*
X0085087Y0205196D02*
X0079951Y0205196D01*
X0079951Y0206195D02*
X0084916Y0206195D01*
X0085063Y0207193D02*
X0079951Y0207193D01*
X0079951Y0208192D02*
X0085606Y0208192D01*
X0086100Y0209190D02*
X0079951Y0209190D01*
X0079951Y0210189D02*
X0086100Y0210189D01*
X0086100Y0211187D02*
X0079951Y0211187D01*
X0072214Y0211187D02*
X0007748Y0211187D01*
X0007748Y0210189D02*
X0072214Y0210189D01*
X0072214Y0209190D02*
X0071076Y0209190D01*
X0069278Y0209190D02*
X0007748Y0209190D01*
X0007748Y0208192D02*
X0067783Y0208192D01*
X0067240Y0207193D02*
X0007748Y0207193D01*
X0007748Y0206195D02*
X0067093Y0206195D01*
X0067265Y0205196D02*
X0007748Y0205196D01*
X0007748Y0204198D02*
X0067842Y0204198D01*
X0068277Y0203199D02*
X0007748Y0203199D01*
X0007748Y0202201D02*
X0068277Y0202201D01*
X0068277Y0201202D02*
X0007748Y0201202D01*
X0007748Y0200204D02*
X0068277Y0200204D01*
X0068277Y0199205D02*
X0007748Y0199205D01*
X0007748Y0198207D02*
X0068277Y0198207D01*
X0068277Y0197208D02*
X0007748Y0197208D01*
X0007748Y0196210D02*
X0068277Y0196210D01*
X0068277Y0195211D02*
X0007748Y0195211D01*
X0007748Y0194213D02*
X0068277Y0194213D01*
X0068277Y0193214D02*
X0007748Y0193214D01*
X0007748Y0192216D02*
X0068277Y0192216D01*
X0068277Y0191217D02*
X0007748Y0191217D01*
X0007748Y0190219D02*
X0068277Y0190219D01*
X0068277Y0189220D02*
X0007748Y0189220D01*
X0007748Y0188222D02*
X0068277Y0188222D01*
X0068277Y0187223D02*
X0007748Y0187223D01*
X0007748Y0186225D02*
X0068277Y0186225D01*
X0068277Y0185226D02*
X0007748Y0185226D01*
X0007748Y0184228D02*
X0068277Y0184228D01*
X0068277Y0183229D02*
X0007748Y0183229D01*
X0007748Y0182231D02*
X0068277Y0182231D01*
X0068277Y0181232D02*
X0007748Y0181232D01*
X0007748Y0180234D02*
X0068277Y0180234D01*
X0068277Y0179235D02*
X0007748Y0179235D01*
X0007748Y0178237D02*
X0068277Y0178237D01*
X0068277Y0177238D02*
X0007748Y0177238D01*
X0007748Y0176239D02*
X0068277Y0176239D01*
X0068277Y0175241D02*
X0007748Y0175241D01*
X0007748Y0174242D02*
X0068277Y0174242D01*
X0068277Y0173244D02*
X0007748Y0173244D01*
X0007748Y0172245D02*
X0068277Y0172245D01*
X0068277Y0171247D02*
X0007748Y0171247D01*
X0007748Y0170248D02*
X0068277Y0170248D01*
X0068277Y0169250D02*
X0007748Y0169250D01*
X0018414Y0168251D02*
X0068277Y0168251D01*
X0068277Y0167253D02*
X0018800Y0167253D01*
X0018800Y0166254D02*
X0068277Y0166254D01*
X0068277Y0165256D02*
X0018800Y0165256D01*
X0018800Y0164257D02*
X0068277Y0164257D01*
X0068277Y0163259D02*
X0018800Y0163259D01*
X0018800Y0162260D02*
X0068277Y0162260D01*
X0068277Y0161262D02*
X0018800Y0161262D01*
X0018800Y0160263D02*
X0068277Y0160263D01*
X0068277Y0159265D02*
X0018800Y0159265D01*
X0018800Y0158266D02*
X0068277Y0158266D01*
X0068277Y0157268D02*
X0018800Y0157268D01*
X0018281Y0156269D02*
X0068277Y0156269D01*
X0068277Y0155271D02*
X0007748Y0155271D01*
X0007748Y0154272D02*
X0068277Y0154272D01*
X0068277Y0153274D02*
X0007748Y0153274D01*
X0007748Y0152275D02*
X0068277Y0152275D01*
X0068277Y0151277D02*
X0007748Y0151277D01*
X0007748Y0150278D02*
X0068277Y0150278D01*
X0068277Y0149280D02*
X0007748Y0149280D01*
X0007748Y0148281D02*
X0068277Y0148281D01*
X0068277Y0147283D02*
X0007748Y0147283D01*
X0007748Y0146284D02*
X0068277Y0146284D01*
X0068277Y0145286D02*
X0007748Y0145286D01*
X0007748Y0144287D02*
X0068277Y0144287D01*
X0068277Y0143289D02*
X0007748Y0143289D01*
X0007748Y0142290D02*
X0068277Y0142290D01*
X0068277Y0141292D02*
X0007748Y0141292D01*
X0007748Y0140293D02*
X0068277Y0140293D01*
X0068277Y0139295D02*
X0007748Y0139295D01*
X0007748Y0138296D02*
X0068277Y0138296D01*
X0068277Y0137298D02*
X0007748Y0137298D01*
X0007748Y0136299D02*
X0068277Y0136299D01*
X0068277Y0135301D02*
X0007748Y0135301D01*
X0007748Y0134302D02*
X0068277Y0134302D01*
X0068277Y0133303D02*
X0007748Y0133303D01*
X0007748Y0132305D02*
X0068277Y0132305D01*
X0068277Y0131306D02*
X0007748Y0131306D01*
X0007748Y0130308D02*
X0068277Y0130308D01*
X0068277Y0129309D02*
X0007748Y0129309D01*
X0007748Y0128311D02*
X0068277Y0128311D01*
X0068277Y0127312D02*
X0007748Y0127312D01*
X0007748Y0126314D02*
X0068277Y0126314D01*
X0068277Y0125315D02*
X0007748Y0125315D01*
X0007748Y0124317D02*
X0068277Y0124317D01*
X0068277Y0123318D02*
X0007748Y0123318D01*
X0007748Y0122320D02*
X0068277Y0122320D01*
X0068277Y0121321D02*
X0007748Y0121321D01*
X0007748Y0120323D02*
X0068277Y0120323D01*
X0068277Y0119324D02*
X0007748Y0119324D01*
X0007748Y0118326D02*
X0068277Y0118326D01*
X0068277Y0117327D02*
X0007748Y0117327D01*
X0007748Y0116329D02*
X0068277Y0116329D01*
X0068277Y0115330D02*
X0007748Y0115330D01*
X0007748Y0114332D02*
X0051210Y0114332D01*
X0049068Y0113333D02*
X0007748Y0113333D01*
X0007748Y0112335D02*
X0046927Y0112335D01*
X0045620Y0111336D02*
X0007748Y0111336D01*
X0007748Y0110338D02*
X0045635Y0110338D01*
X0046100Y0109339D02*
X0007748Y0109339D01*
X0007748Y0108341D02*
X0046566Y0108341D01*
X0047032Y0107342D02*
X0007748Y0107342D01*
X0007748Y0106344D02*
X0047497Y0106344D01*
X0047963Y0105345D02*
X0007748Y0105345D01*
X0007748Y0104347D02*
X0048428Y0104347D01*
X0050388Y0104347D02*
X0072214Y0104347D01*
X0072214Y0105345D02*
X0052529Y0105345D01*
X0054671Y0106344D02*
X0072214Y0106344D01*
X0072214Y0107342D02*
X0056265Y0107342D01*
X0054988Y0111336D02*
X0068277Y0111336D01*
X0068277Y0112335D02*
X0054523Y0112335D01*
X0054057Y0113333D02*
X0068277Y0113333D01*
X0068277Y0114332D02*
X0053591Y0114332D01*
X0060402Y0097119D02*
X0057821Y0095915D01*
X0059533Y0092244D01*
X0058627Y0091821D01*
X0059050Y0090915D01*
X0059956Y0091337D01*
X0061668Y0087666D01*
X0064248Y0088869D01*
X0064551Y0089123D01*
X0064778Y0089447D01*
X0064913Y0089818D01*
X0064947Y0090211D01*
X0064878Y0090600D01*
X0063717Y0093091D01*
X0059956Y0091338D01*
X0059533Y0092244D01*
X0063294Y0093997D01*
X0062133Y0096489D01*
X0061879Y0096791D01*
X0061555Y0097018D01*
X0061184Y0097153D01*
X0060791Y0097187D01*
X0060402Y0097119D01*
X0058772Y0096359D02*
X0007748Y0096359D01*
X0007748Y0097357D02*
X0072214Y0097357D01*
X0072214Y0096359D02*
X0062193Y0096359D01*
X0062659Y0095360D02*
X0072214Y0095360D01*
X0072214Y0094362D02*
X0063124Y0094362D01*
X0061934Y0093363D02*
X0072214Y0093363D01*
X0072214Y0092365D02*
X0064056Y0092365D01*
X0064521Y0091366D02*
X0072214Y0091366D01*
X0072214Y0090368D02*
X0064919Y0090368D01*
X0064723Y0089369D02*
X0072214Y0089369D01*
X0072214Y0088370D02*
X0063179Y0088370D01*
X0061339Y0088370D02*
X0060236Y0088370D01*
X0060702Y0087372D02*
X0072214Y0087372D01*
X0072214Y0086373D02*
X0058896Y0086373D01*
X0058181Y0086040D02*
X0060762Y0087243D01*
X0059050Y0090915D01*
X0055289Y0089161D01*
X0056451Y0086670D01*
X0056704Y0086368D01*
X0057028Y0086141D01*
X0057399Y0086006D01*
X0057793Y0085971D01*
X0058181Y0086040D01*
X0056699Y0086373D02*
X0007748Y0086373D01*
X0007748Y0085375D02*
X0072214Y0085375D01*
X0072214Y0084376D02*
X0007748Y0084376D01*
X0007748Y0083378D02*
X0072214Y0083378D01*
X0072214Y0082379D02*
X0007748Y0082379D01*
X0007748Y0081381D02*
X0072214Y0081381D01*
X0072214Y0080382D02*
X0007748Y0080382D01*
X0007748Y0079384D02*
X0072214Y0079384D01*
X0072214Y0078385D02*
X0007748Y0078385D01*
X0007748Y0077387D02*
X0072214Y0077387D01*
X0072214Y0076388D02*
X0007748Y0076388D01*
X0007748Y0075390D02*
X0072214Y0075390D01*
X0072214Y0074391D02*
X0007748Y0074391D01*
X0007748Y0073393D02*
X0072214Y0073393D01*
X0072214Y0072394D02*
X0007748Y0072394D01*
X0007748Y0071396D02*
X0072214Y0071396D01*
X0072214Y0070397D02*
X0007748Y0070397D01*
X0007748Y0069399D02*
X0072214Y0069399D01*
X0072214Y0068400D02*
X0007748Y0068400D01*
X0007748Y0067402D02*
X0072214Y0067402D01*
X0072214Y0066403D02*
X0007748Y0066403D01*
X0007748Y0065405D02*
X0072214Y0065405D01*
X0072214Y0064406D02*
X0007748Y0064406D01*
X0007748Y0063408D02*
X0072214Y0063408D01*
X0072214Y0062409D02*
X0007748Y0062409D01*
X0007748Y0061411D02*
X0072214Y0061411D01*
X0072214Y0060412D02*
X0007748Y0060412D01*
X0007748Y0059414D02*
X0071123Y0059414D01*
X0068982Y0058415D02*
X0007748Y0058415D01*
X0007748Y0057417D02*
X0067070Y0057417D01*
X0066802Y0056418D02*
X0007748Y0056418D01*
X0007748Y0055420D02*
X0067267Y0055420D01*
X0067733Y0054421D02*
X0007748Y0054421D01*
X0007748Y0053423D02*
X0068198Y0053423D01*
X0068664Y0052424D02*
X0007748Y0052424D01*
X0007748Y0051426D02*
X0069130Y0051426D01*
X0069595Y0050427D02*
X0007748Y0050427D01*
X0007748Y0049429D02*
X0203507Y0049429D01*
X0203507Y0050427D02*
X0072443Y0050427D01*
X0074584Y0051426D02*
X0203507Y0051426D01*
X0203507Y0052424D02*
X0076726Y0052424D01*
X0077715Y0053423D02*
X0203507Y0053423D01*
X0203507Y0054421D02*
X0077552Y0054421D01*
X0077086Y0055420D02*
X0127866Y0055420D01*
X0127877Y0055396D02*
X0128889Y0055028D01*
X0135574Y0058145D01*
X0135942Y0059157D01*
X0132908Y0065664D01*
X0131896Y0066032D01*
X0125211Y0062915D01*
X0124843Y0061903D01*
X0127877Y0055396D01*
X0127400Y0056418D02*
X0076621Y0056418D01*
X0076155Y0057417D02*
X0126935Y0057417D01*
X0126469Y0058415D02*
X0076014Y0058415D01*
X0076014Y0059414D02*
X0126004Y0059414D01*
X0125538Y0060412D02*
X0076014Y0060412D01*
X0076014Y0061411D02*
X0125072Y0061411D01*
X0125027Y0062409D02*
X0076014Y0062409D01*
X0076014Y0063408D02*
X0126268Y0063408D01*
X0128409Y0064406D02*
X0076014Y0064406D01*
X0076014Y0065405D02*
X0130550Y0065405D01*
X0133029Y0065405D02*
X0152995Y0065405D01*
X0153115Y0065664D02*
X0150081Y0059157D01*
X0150450Y0058145D01*
X0157135Y0055028D01*
X0158147Y0055396D01*
X0161181Y0061903D01*
X0160813Y0062915D01*
X0154127Y0066032D01*
X0153115Y0065664D01*
X0152529Y0064406D02*
X0133495Y0064406D01*
X0133960Y0063408D02*
X0152063Y0063408D01*
X0151598Y0062409D02*
X0134426Y0062409D01*
X0134892Y0061411D02*
X0151132Y0061411D01*
X0150666Y0060412D02*
X0135357Y0060412D01*
X0135823Y0059414D02*
X0150201Y0059414D01*
X0150351Y0058415D02*
X0135672Y0058415D01*
X0134011Y0057417D02*
X0152012Y0057417D01*
X0154154Y0056418D02*
X0131870Y0056418D01*
X0129728Y0055420D02*
X0156295Y0055420D01*
X0158158Y0055420D02*
X0203507Y0055420D01*
X0203507Y0056418D02*
X0158623Y0056418D01*
X0159089Y0057417D02*
X0203507Y0057417D01*
X0203507Y0058415D02*
X0159554Y0058415D01*
X0160020Y0059414D02*
X0203507Y0059414D01*
X0203507Y0060412D02*
X0160486Y0060412D01*
X0160951Y0061411D02*
X0203507Y0061411D01*
X0203507Y0062409D02*
X0160997Y0062409D01*
X0159756Y0063408D02*
X0203507Y0063408D01*
X0203507Y0064406D02*
X0157615Y0064406D01*
X0155473Y0065405D02*
X0203507Y0065405D01*
X0203507Y0066403D02*
X0076014Y0066403D01*
X0076014Y0067402D02*
X0203507Y0067402D01*
X0203507Y0068400D02*
X0076014Y0068400D01*
X0076014Y0069399D02*
X0203507Y0069399D01*
X0203507Y0070397D02*
X0076014Y0070397D01*
X0076014Y0071396D02*
X0203507Y0071396D01*
X0203507Y0072394D02*
X0076014Y0072394D01*
X0076014Y0073393D02*
X0119485Y0073393D01*
X0119019Y0074391D02*
X0076014Y0074391D01*
X0076014Y0075390D02*
X0118554Y0075390D01*
X0118088Y0076388D02*
X0076014Y0076388D01*
X0076014Y0077387D02*
X0117623Y0077387D01*
X0117157Y0078385D02*
X0076014Y0078385D01*
X0076014Y0079384D02*
X0116691Y0079384D01*
X0116756Y0080382D02*
X0076014Y0080382D01*
X0076014Y0081381D02*
X0118232Y0081381D01*
X0120374Y0082379D02*
X0076014Y0082379D01*
X0072214Y0098356D02*
X0007748Y0098356D01*
X0007748Y0099354D02*
X0072214Y0099354D01*
X0072214Y0100353D02*
X0007748Y0100353D01*
X0007748Y0101351D02*
X0072214Y0101351D01*
X0072214Y0102350D02*
X0007748Y0102350D01*
X0007748Y0103348D02*
X0072214Y0103348D01*
X0072214Y0108341D02*
X0071785Y0108341D01*
X0072077Y0109339D02*
X0072214Y0109339D01*
X0072214Y0110338D02*
X0072077Y0110338D01*
X0072077Y0111336D02*
X0072214Y0111336D01*
X0072214Y0112335D02*
X0072077Y0112335D01*
X0072077Y0113333D02*
X0072214Y0113333D01*
X0072214Y0114332D02*
X0072077Y0114332D01*
X0072077Y0115330D02*
X0072214Y0115330D01*
X0072214Y0116329D02*
X0072077Y0116329D01*
X0072077Y0117327D02*
X0072214Y0117327D01*
X0072214Y0118326D02*
X0072077Y0118326D01*
X0072077Y0119324D02*
X0072214Y0119324D01*
X0072214Y0120323D02*
X0072077Y0120323D01*
X0072077Y0121321D02*
X0072214Y0121321D01*
X0072214Y0122320D02*
X0072077Y0122320D01*
X0072077Y0123318D02*
X0072214Y0123318D01*
X0072214Y0124317D02*
X0072077Y0124317D01*
X0072077Y0125315D02*
X0072214Y0125315D01*
X0072214Y0126314D02*
X0072077Y0126314D01*
X0072077Y0127312D02*
X0072214Y0127312D01*
X0072214Y0128311D02*
X0072077Y0128311D01*
X0072077Y0129309D02*
X0072214Y0129309D01*
X0072214Y0130308D02*
X0072077Y0130308D01*
X0072077Y0131306D02*
X0072214Y0131306D01*
X0072214Y0132305D02*
X0072077Y0132305D01*
X0072077Y0133303D02*
X0072214Y0133303D01*
X0072214Y0134302D02*
X0072077Y0134302D01*
X0072077Y0135301D02*
X0072214Y0135301D01*
X0072214Y0136299D02*
X0072077Y0136299D01*
X0072077Y0137298D02*
X0072214Y0137298D01*
X0072214Y0138296D02*
X0072077Y0138296D01*
X0072077Y0139295D02*
X0072214Y0139295D01*
X0072214Y0140293D02*
X0072077Y0140293D01*
X0072077Y0141292D02*
X0072214Y0141292D01*
X0072214Y0142290D02*
X0072077Y0142290D01*
X0072077Y0143289D02*
X0072214Y0143289D01*
X0072214Y0144287D02*
X0072077Y0144287D01*
X0072077Y0145286D02*
X0072214Y0145286D01*
X0072214Y0146284D02*
X0072077Y0146284D01*
X0072077Y0147283D02*
X0072214Y0147283D01*
X0072214Y0148281D02*
X0072077Y0148281D01*
X0072077Y0149280D02*
X0072214Y0149280D01*
X0072214Y0150278D02*
X0072077Y0150278D01*
X0072077Y0151277D02*
X0072214Y0151277D01*
X0072214Y0152275D02*
X0072077Y0152275D01*
X0072077Y0153274D02*
X0072214Y0153274D01*
X0072214Y0154272D02*
X0072077Y0154272D01*
X0072077Y0155271D02*
X0072214Y0155271D01*
X0072214Y0156269D02*
X0072077Y0156269D01*
X0072077Y0157268D02*
X0072214Y0157268D01*
X0072214Y0158266D02*
X0072077Y0158266D01*
X0072077Y0159265D02*
X0072214Y0159265D01*
X0072214Y0160263D02*
X0072077Y0160263D01*
X0072077Y0161262D02*
X0072214Y0161262D01*
X0072214Y0162260D02*
X0072077Y0162260D01*
X0072077Y0163259D02*
X0072214Y0163259D01*
X0072214Y0164257D02*
X0072077Y0164257D01*
X0072077Y0165256D02*
X0072214Y0165256D01*
X0072214Y0166254D02*
X0072077Y0166254D01*
X0072077Y0167253D02*
X0072214Y0167253D01*
X0072214Y0168251D02*
X0072077Y0168251D01*
X0072077Y0169250D02*
X0072214Y0169250D01*
X0072214Y0170248D02*
X0072077Y0170248D01*
X0072077Y0171247D02*
X0072214Y0171247D01*
X0072214Y0172245D02*
X0072077Y0172245D01*
X0072077Y0173244D02*
X0072214Y0173244D01*
X0072214Y0174242D02*
X0072077Y0174242D01*
X0072077Y0175241D02*
X0072214Y0175241D01*
X0072214Y0176239D02*
X0072077Y0176239D01*
X0072077Y0177238D02*
X0072214Y0177238D01*
X0072214Y0178237D02*
X0072077Y0178237D01*
X0072077Y0179235D02*
X0072214Y0179235D01*
X0072214Y0180234D02*
X0072077Y0180234D01*
X0072077Y0181232D02*
X0072214Y0181232D01*
X0072214Y0182231D02*
X0072077Y0182231D01*
X0072077Y0183229D02*
X0072214Y0183229D01*
X0072214Y0184228D02*
X0072077Y0184228D01*
X0072077Y0185226D02*
X0072214Y0185226D01*
X0072214Y0186225D02*
X0072077Y0186225D01*
X0072077Y0187223D02*
X0072214Y0187223D01*
X0072214Y0188222D02*
X0072077Y0188222D01*
X0072077Y0189220D02*
X0072214Y0189220D01*
X0072214Y0190219D02*
X0072077Y0190219D01*
X0072077Y0191217D02*
X0072214Y0191217D01*
X0072214Y0192216D02*
X0072077Y0192216D01*
X0072077Y0193214D02*
X0072214Y0193214D01*
X0072214Y0194213D02*
X0072077Y0194213D01*
X0072077Y0195211D02*
X0072214Y0195211D01*
X0072214Y0196210D02*
X0072077Y0196210D01*
X0072077Y0197208D02*
X0072214Y0197208D01*
X0072214Y0198207D02*
X0072077Y0198207D01*
X0072077Y0199205D02*
X0072214Y0199205D01*
X0072214Y0200204D02*
X0072077Y0200204D01*
X0072077Y0201202D02*
X0072214Y0201202D01*
X0072214Y0202201D02*
X0072077Y0202201D01*
X0072077Y0203199D02*
X0072214Y0203199D01*
X0072214Y0212186D02*
X0007748Y0212186D01*
X0018800Y0213184D02*
X0072214Y0213184D01*
X0072214Y0214183D02*
X0018800Y0214183D01*
X0018800Y0215181D02*
X0072214Y0215181D01*
X0072214Y0216180D02*
X0018800Y0216180D01*
X0018800Y0217178D02*
X0072214Y0217178D01*
X0072214Y0218177D02*
X0018800Y0218177D01*
X0018800Y0219175D02*
X0072214Y0219175D01*
X0072214Y0220174D02*
X0018800Y0220174D01*
X0018800Y0221172D02*
X0072214Y0221172D01*
X0072214Y0222171D02*
X0018800Y0222171D01*
X0018800Y0223170D02*
X0072214Y0223170D01*
X0072214Y0224168D02*
X0018796Y0224168D01*
X0007748Y0225167D02*
X0072214Y0225167D01*
X0072214Y0226165D02*
X0007748Y0226165D01*
X0007748Y0227164D02*
X0072214Y0227164D01*
X0072214Y0228162D02*
X0060249Y0228162D01*
X0060179Y0228122D02*
X0060521Y0228319D01*
X0060800Y0228599D01*
X0060998Y0228941D01*
X0061100Y0229322D01*
X0061100Y0232720D01*
X0058300Y0232720D01*
X0058300Y0233320D01*
X0057700Y0233320D01*
X0057700Y0238020D01*
X0057500Y0238020D01*
X0057500Y0239020D01*
X0053500Y0239020D01*
X0053500Y0236322D01*
X0053602Y0235941D01*
X0053800Y0235599D01*
X0054079Y0235319D01*
X0054421Y0235122D01*
X0054803Y0235020D01*
X0054900Y0235020D01*
X0054900Y0233320D01*
X0057700Y0233320D01*
X0057700Y0232720D01*
X0054900Y0232720D01*
X0054900Y0229322D01*
X0055002Y0228941D01*
X0055200Y0228599D01*
X0055479Y0228319D01*
X0055821Y0228122D01*
X0056203Y0228020D01*
X0057700Y0228020D01*
X0057700Y0232720D01*
X0058300Y0232720D01*
X0058300Y0228020D01*
X0059797Y0228020D01*
X0060179Y0228122D01*
X0061057Y0229161D02*
X0065100Y0229161D01*
X0065100Y0230159D02*
X0061100Y0230159D01*
X0061100Y0231158D02*
X0065100Y0231158D01*
X0065100Y0232156D02*
X0061100Y0232156D01*
X0061100Y0233320D02*
X0058300Y0233320D01*
X0058300Y0238020D01*
X0058500Y0238020D01*
X0058500Y0239020D01*
X0058500Y0240020D01*
X0057500Y0240020D01*
X0057500Y0244020D01*
X0054803Y0244020D01*
X0054421Y0243917D01*
X0054079Y0243720D01*
X0053800Y0243441D01*
X0053602Y0243099D01*
X0053500Y0242717D01*
X0053500Y0240020D01*
X0057500Y0240020D01*
X0057500Y0239020D01*
X0058500Y0239020D01*
X0062500Y0239020D01*
X0062500Y0236322D01*
X0062398Y0235941D01*
X0062200Y0235599D01*
X0061921Y0235319D01*
X0061579Y0235122D01*
X0061197Y0235020D01*
X0061100Y0235020D01*
X0061100Y0233320D01*
X0061100Y0234153D02*
X0065100Y0234153D01*
X0065100Y0233155D02*
X0058300Y0233155D01*
X0057700Y0233155D02*
X0050900Y0233155D01*
X0050900Y0234153D02*
X0054900Y0234153D01*
X0054370Y0235152D02*
X0050900Y0235152D01*
X0052300Y0236150D02*
X0053546Y0236150D01*
X0053500Y0237149D02*
X0052300Y0237149D01*
X0052300Y0238147D02*
X0053500Y0238147D01*
X0052300Y0239146D02*
X0057500Y0239146D01*
X0057500Y0240144D02*
X0058500Y0240144D01*
X0058500Y0240020D02*
X0058500Y0244020D01*
X0061197Y0244020D01*
X0061579Y0243917D01*
X0061921Y0243720D01*
X0062200Y0243441D01*
X0062398Y0243099D01*
X0062500Y0242717D01*
X0062500Y0240020D01*
X0058500Y0240020D01*
X0058500Y0239146D02*
X0063700Y0239146D01*
X0063700Y0240144D02*
X0062500Y0240144D01*
X0062500Y0241143D02*
X0063700Y0241143D01*
X0063700Y0242141D02*
X0062500Y0242141D01*
X0062374Y0243140D02*
X0063782Y0243140D01*
X0063700Y0246135D02*
X0062300Y0246135D01*
X0062300Y0245981D02*
X0061538Y0245220D01*
X0054462Y0245220D01*
X0053700Y0245981D01*
X0053700Y0253058D01*
X0054462Y0253820D01*
X0055100Y0253820D01*
X0055100Y0260058D01*
X0055862Y0260820D01*
X0060138Y0260820D01*
X0060900Y0260058D01*
X0060900Y0253820D01*
X0061538Y0253820D01*
X0062300Y0253058D01*
X0062300Y0245981D01*
X0062300Y0247134D02*
X0063700Y0247134D01*
X0063700Y0248132D02*
X0062300Y0248132D01*
X0062300Y0249131D02*
X0063700Y0249131D01*
X0063700Y0250129D02*
X0062300Y0250129D01*
X0062300Y0251128D02*
X0063700Y0251128D01*
X0063700Y0252126D02*
X0062300Y0252126D01*
X0062233Y0253125D02*
X0063767Y0253125D01*
X0065100Y0254123D02*
X0060900Y0254123D01*
X0060900Y0255122D02*
X0065100Y0255122D01*
X0065100Y0256120D02*
X0060900Y0256120D01*
X0060900Y0257119D02*
X0065100Y0257119D01*
X0065100Y0258117D02*
X0060900Y0258117D01*
X0060900Y0259116D02*
X0065100Y0259116D01*
X0065156Y0260114D02*
X0060844Y0260114D01*
X0055156Y0260114D02*
X0050844Y0260114D01*
X0050900Y0260058D02*
X0050138Y0260820D01*
X0045862Y0260820D01*
X0045100Y0260058D01*
X0045100Y0253820D01*
X0044462Y0253820D01*
X0043700Y0253058D01*
X0043700Y0245981D01*
X0044462Y0245220D01*
X0051538Y0245220D01*
X0052300Y0245981D01*
X0052300Y0253058D01*
X0051538Y0253820D01*
X0050900Y0253820D01*
X0050900Y0260058D01*
X0050900Y0259116D02*
X0055100Y0259116D01*
X0055100Y0258117D02*
X0050900Y0258117D01*
X0050900Y0257119D02*
X0055100Y0257119D01*
X0055100Y0256120D02*
X0050900Y0256120D01*
X0050900Y0255122D02*
X0055100Y0255122D01*
X0055100Y0254123D02*
X0050900Y0254123D01*
X0052233Y0253125D02*
X0053767Y0253125D01*
X0053700Y0252126D02*
X0052300Y0252126D01*
X0052300Y0251128D02*
X0053700Y0251128D01*
X0053700Y0250129D02*
X0052300Y0250129D01*
X0052300Y0249131D02*
X0053700Y0249131D01*
X0053700Y0248132D02*
X0052300Y0248132D01*
X0052300Y0247134D02*
X0053700Y0247134D01*
X0053700Y0246135D02*
X0052300Y0246135D01*
X0052218Y0243140D02*
X0053626Y0243140D01*
X0053500Y0242141D02*
X0052300Y0242141D01*
X0052300Y0241143D02*
X0053500Y0241143D01*
X0053500Y0240144D02*
X0052300Y0240144D01*
X0048000Y0239520D02*
X0048000Y0233020D01*
X0045100Y0233155D02*
X0040900Y0233155D01*
X0040900Y0234153D02*
X0045100Y0234153D01*
X0045100Y0235152D02*
X0040900Y0235152D01*
X0042300Y0236150D02*
X0043700Y0236150D01*
X0043700Y0242141D02*
X0042300Y0242141D01*
X0042218Y0243140D02*
X0043782Y0243140D01*
X0043700Y0246135D02*
X0042300Y0246135D01*
X0042300Y0247134D02*
X0043700Y0247134D01*
X0043700Y0248132D02*
X0042300Y0248132D01*
X0042300Y0249131D02*
X0043700Y0249131D01*
X0043700Y0250129D02*
X0042300Y0250129D01*
X0042300Y0251128D02*
X0043700Y0251128D01*
X0043700Y0252126D02*
X0042300Y0252126D01*
X0042233Y0253125D02*
X0043767Y0253125D01*
X0045100Y0254123D02*
X0040900Y0254123D01*
X0040900Y0255122D02*
X0045100Y0255122D01*
X0045100Y0256120D02*
X0040900Y0256120D01*
X0040900Y0257119D02*
X0045100Y0257119D01*
X0045100Y0258117D02*
X0040900Y0258117D01*
X0040900Y0259116D02*
X0045100Y0259116D01*
X0045156Y0260114D02*
X0040844Y0260114D01*
X0040100Y0261113D02*
X0111684Y0261113D01*
X0111684Y0262111D02*
X0040100Y0262111D01*
X0040471Y0263110D02*
X0111684Y0263110D01*
X0111684Y0264108D02*
X0041066Y0264108D01*
X0041281Y0265107D02*
X0111684Y0265107D01*
X0111684Y0266105D02*
X0041209Y0266105D01*
X0040796Y0267104D02*
X0111684Y0267104D01*
X0111684Y0260114D02*
X0110844Y0260114D01*
X0110900Y0259116D02*
X0111684Y0259116D01*
X0111684Y0258117D02*
X0110900Y0258117D01*
X0110900Y0257119D02*
X0111684Y0257119D01*
X0111684Y0256120D02*
X0110900Y0256120D01*
X0110900Y0255122D02*
X0111684Y0255122D01*
X0111684Y0254123D02*
X0110900Y0254123D01*
X0105100Y0254123D02*
X0100900Y0254123D01*
X0100900Y0255122D02*
X0105100Y0255122D01*
X0105100Y0256120D02*
X0100900Y0256120D01*
X0100900Y0257119D02*
X0105100Y0257119D01*
X0105100Y0258117D02*
X0100900Y0258117D01*
X0100900Y0259116D02*
X0105100Y0259116D01*
X0105156Y0260114D02*
X0100844Y0260114D01*
X0098000Y0256020D02*
X0098000Y0249520D01*
X0102300Y0249131D02*
X0103700Y0249131D01*
X0103700Y0250129D02*
X0102300Y0250129D01*
X0102300Y0251128D02*
X0103700Y0251128D01*
X0103700Y0252126D02*
X0102300Y0252126D01*
X0102233Y0253125D02*
X0103767Y0253125D01*
X0103700Y0248132D02*
X0102300Y0248132D01*
X0102300Y0247134D02*
X0103700Y0247134D01*
X0103700Y0246135D02*
X0102300Y0246135D01*
X0095100Y0254123D02*
X0090900Y0254123D01*
X0090900Y0255122D02*
X0095100Y0255122D01*
X0095100Y0256120D02*
X0090900Y0256120D01*
X0090900Y0257119D02*
X0095100Y0257119D01*
X0095100Y0258117D02*
X0090900Y0258117D01*
X0090900Y0259116D02*
X0095100Y0259116D01*
X0095156Y0260114D02*
X0090844Y0260114D01*
X0088000Y0256020D02*
X0088000Y0249520D01*
X0092300Y0252126D02*
X0093700Y0252126D01*
X0093767Y0253125D02*
X0092233Y0253125D01*
X0094715Y0234153D02*
X0094900Y0234153D01*
X0101100Y0232156D02*
X0105100Y0232156D01*
X0105100Y0231158D02*
X0101100Y0231158D01*
X0101100Y0230159D02*
X0105100Y0230159D01*
X0105100Y0229161D02*
X0101057Y0229161D01*
X0103732Y0224168D02*
X0104732Y0224168D01*
X0104732Y0223170D02*
X0103732Y0223170D01*
X0103732Y0222171D02*
X0104732Y0222171D01*
X0104732Y0221172D02*
X0103732Y0221172D01*
X0103732Y0220174D02*
X0104732Y0220174D01*
X0104732Y0217178D02*
X0103732Y0217178D01*
X0103732Y0216180D02*
X0104732Y0216180D01*
X0104732Y0215181D02*
X0103732Y0215181D01*
X0103732Y0214183D02*
X0104732Y0214183D01*
X0104732Y0213184D02*
X0103732Y0213184D01*
X0103732Y0212186D02*
X0104732Y0212186D01*
X0102313Y0196210D02*
X0083888Y0196210D01*
X0083888Y0195211D02*
X0101584Y0195211D01*
X0101332Y0194213D02*
X0083888Y0194213D01*
X0083888Y0193214D02*
X0101332Y0193214D01*
X0101332Y0192216D02*
X0083888Y0192216D01*
X0083888Y0191217D02*
X0101332Y0191217D01*
X0101332Y0190219D02*
X0083888Y0190219D01*
X0083888Y0189220D02*
X0101332Y0189220D01*
X0101332Y0188222D02*
X0083888Y0188222D01*
X0083888Y0187223D02*
X0101332Y0187223D01*
X0101332Y0186225D02*
X0083888Y0186225D01*
X0083888Y0185226D02*
X0101332Y0185226D01*
X0101332Y0184228D02*
X0083888Y0184228D01*
X0083888Y0183229D02*
X0101332Y0183229D01*
X0097932Y0182231D02*
X0083888Y0182231D01*
X0083888Y0181232D02*
X0097932Y0181232D01*
X0097932Y0180234D02*
X0083888Y0180234D01*
X0083888Y0179235D02*
X0097932Y0179235D01*
X0097932Y0178237D02*
X0083888Y0178237D01*
X0083888Y0177238D02*
X0097932Y0177238D01*
X0097932Y0176239D02*
X0083888Y0176239D01*
X0083888Y0175241D02*
X0097932Y0175241D01*
X0097932Y0174242D02*
X0083888Y0174242D01*
X0083888Y0173244D02*
X0097932Y0173244D01*
X0097932Y0172245D02*
X0083888Y0172245D01*
X0083888Y0171247D02*
X0097932Y0171247D01*
X0098318Y0168251D02*
X0083888Y0168251D01*
X0083888Y0167253D02*
X0097932Y0167253D01*
X0097932Y0166254D02*
X0083888Y0166254D01*
X0083888Y0165256D02*
X0097932Y0165256D01*
X0097932Y0164257D02*
X0083888Y0164257D01*
X0083888Y0163259D02*
X0097932Y0163259D01*
X0097932Y0162260D02*
X0083888Y0162260D01*
X0083888Y0161262D02*
X0097932Y0161262D01*
X0097932Y0160263D02*
X0083888Y0160263D01*
X0083888Y0159265D02*
X0097932Y0159265D01*
X0097932Y0158266D02*
X0083888Y0158266D01*
X0083888Y0157268D02*
X0097932Y0157268D01*
X0098451Y0156269D02*
X0083888Y0156269D01*
X0083888Y0155271D02*
X0278276Y0155271D01*
X0278276Y0156269D02*
X0110013Y0156269D01*
X0110532Y0157268D02*
X0278276Y0157268D01*
X0278276Y0158266D02*
X0110532Y0158266D01*
X0110532Y0159265D02*
X0278276Y0159265D01*
X0278276Y0160263D02*
X0258657Y0160263D01*
X0259450Y0161262D02*
X0278276Y0161262D01*
X0278276Y0162260D02*
X0259685Y0162260D01*
X0259685Y0163259D02*
X0278276Y0163259D01*
X0278276Y0164257D02*
X0259685Y0164257D01*
X0259685Y0165256D02*
X0278276Y0165256D01*
X0278276Y0166254D02*
X0259685Y0166254D01*
X0259685Y0167253D02*
X0278276Y0167253D01*
X0278276Y0168251D02*
X0259685Y0168251D01*
X0259685Y0169250D02*
X0278276Y0169250D01*
X0278276Y0170248D02*
X0259685Y0170248D01*
X0259685Y0171247D02*
X0278276Y0171247D01*
X0278276Y0172245D02*
X0259685Y0172245D01*
X0259685Y0173244D02*
X0278276Y0173244D01*
X0278276Y0174242D02*
X0259685Y0174242D01*
X0259685Y0175241D02*
X0278276Y0175241D01*
X0278276Y0176239D02*
X0259685Y0176239D01*
X0259685Y0177238D02*
X0278276Y0177238D01*
X0278276Y0178237D02*
X0259685Y0178237D01*
X0259685Y0179235D02*
X0278276Y0179235D01*
X0278276Y0180234D02*
X0259685Y0180234D01*
X0259685Y0181232D02*
X0278276Y0181232D01*
X0278276Y0182231D02*
X0259685Y0182231D01*
X0259685Y0183229D02*
X0278276Y0183229D01*
X0278276Y0184228D02*
X0259685Y0184228D01*
X0259685Y0185226D02*
X0278276Y0185226D01*
X0278276Y0186225D02*
X0259685Y0186225D01*
X0259685Y0187223D02*
X0278276Y0187223D01*
X0278276Y0188222D02*
X0259685Y0188222D01*
X0259685Y0189220D02*
X0278276Y0189220D01*
X0278276Y0190219D02*
X0259685Y0190219D01*
X0259685Y0191217D02*
X0278276Y0191217D01*
X0278276Y0192216D02*
X0259685Y0192216D01*
X0259685Y0193214D02*
X0278276Y0193214D01*
X0278276Y0194213D02*
X0259685Y0194213D01*
X0259685Y0195211D02*
X0278276Y0195211D01*
X0278276Y0196210D02*
X0259685Y0196210D01*
X0259685Y0197208D02*
X0278276Y0197208D01*
X0278276Y0198207D02*
X0259685Y0198207D01*
X0259685Y0199205D02*
X0278276Y0199205D01*
X0278276Y0200204D02*
X0259685Y0200204D01*
X0259685Y0201202D02*
X0278276Y0201202D01*
X0278276Y0202201D02*
X0259685Y0202201D01*
X0259685Y0203199D02*
X0278276Y0203199D01*
X0278276Y0204198D02*
X0259685Y0204198D01*
X0259685Y0205196D02*
X0278276Y0205196D01*
X0278276Y0206195D02*
X0259685Y0206195D01*
X0259685Y0207193D02*
X0278276Y0207193D01*
X0278276Y0208192D02*
X0259685Y0208192D01*
X0259685Y0209190D02*
X0278276Y0209190D01*
X0278276Y0210189D02*
X0259685Y0210189D01*
X0259685Y0211187D02*
X0278276Y0211187D01*
X0278276Y0212186D02*
X0259685Y0212186D01*
X0259685Y0213184D02*
X0278276Y0213184D01*
X0278276Y0214183D02*
X0259685Y0214183D01*
X0259685Y0215181D02*
X0278276Y0215181D01*
X0278276Y0216180D02*
X0259685Y0216180D01*
X0259685Y0217178D02*
X0278276Y0217178D01*
X0278276Y0218177D02*
X0259685Y0218177D01*
X0259685Y0219175D02*
X0278276Y0219175D01*
X0278276Y0220174D02*
X0259685Y0220174D01*
X0259685Y0221172D02*
X0278276Y0221172D01*
X0278276Y0222171D02*
X0259685Y0222171D01*
X0259685Y0223170D02*
X0278276Y0223170D01*
X0278276Y0224168D02*
X0259685Y0224168D01*
X0259685Y0225167D02*
X0278276Y0225167D01*
X0278276Y0226165D02*
X0259685Y0226165D01*
X0259685Y0227164D02*
X0278276Y0227164D01*
X0278276Y0228162D02*
X0259685Y0228162D01*
X0259685Y0229161D02*
X0278276Y0229161D01*
X0278276Y0230159D02*
X0259685Y0230159D01*
X0259685Y0231158D02*
X0278276Y0231158D01*
X0278276Y0232156D02*
X0259685Y0232156D01*
X0259685Y0233155D02*
X0278276Y0233155D01*
X0278276Y0234153D02*
X0259685Y0234153D01*
X0259685Y0235152D02*
X0278276Y0235152D01*
X0278276Y0236150D02*
X0259685Y0236150D01*
X0259685Y0237149D02*
X0278276Y0237149D01*
X0278276Y0238147D02*
X0259685Y0238147D01*
X0259685Y0239146D02*
X0278276Y0239146D01*
X0278276Y0240144D02*
X0259685Y0240144D01*
X0259685Y0241143D02*
X0278276Y0241143D01*
X0278276Y0242141D02*
X0259685Y0242141D01*
X0259685Y0243140D02*
X0278276Y0243140D01*
X0278276Y0244138D02*
X0259685Y0244138D01*
X0259685Y0245137D02*
X0278276Y0245137D01*
X0278276Y0246135D02*
X0259685Y0246135D01*
X0259685Y0247134D02*
X0278276Y0247134D01*
X0278276Y0248132D02*
X0259685Y0248132D01*
X0259685Y0249131D02*
X0278276Y0249131D01*
X0278276Y0250129D02*
X0259685Y0250129D01*
X0259685Y0251128D02*
X0278276Y0251128D01*
X0278276Y0252126D02*
X0259685Y0252126D01*
X0259685Y0253125D02*
X0278276Y0253125D01*
X0278276Y0254123D02*
X0259685Y0254123D01*
X0254685Y0248132D02*
X0232500Y0248132D01*
X0232500Y0249020D02*
X0228500Y0249020D01*
X0228500Y0245020D01*
X0231197Y0245020D01*
X0231579Y0245122D01*
X0231921Y0245319D01*
X0232200Y0245599D01*
X0232398Y0245941D01*
X0232500Y0246322D01*
X0232500Y0249020D01*
X0232500Y0247134D02*
X0254685Y0247134D01*
X0254685Y0246135D02*
X0232450Y0246135D01*
X0231605Y0245137D02*
X0254685Y0245137D01*
X0254685Y0244138D02*
X0225030Y0244138D01*
X0227500Y0245137D02*
X0228500Y0245137D01*
X0228500Y0246135D02*
X0227500Y0246135D01*
X0227500Y0247134D02*
X0228500Y0247134D01*
X0228500Y0248132D02*
X0227500Y0248132D01*
X0232218Y0243140D02*
X0254685Y0243140D01*
X0254685Y0242141D02*
X0232300Y0242141D01*
X0232300Y0241143D02*
X0254685Y0241143D01*
X0254685Y0240144D02*
X0232300Y0240144D01*
X0232300Y0239146D02*
X0254685Y0239146D01*
X0254685Y0238147D02*
X0232300Y0238147D01*
X0232300Y0237149D02*
X0254685Y0237149D01*
X0254685Y0236150D02*
X0232300Y0236150D01*
X0230900Y0235152D02*
X0254685Y0235152D01*
X0254685Y0234153D02*
X0230900Y0234153D01*
X0230900Y0233155D02*
X0254685Y0233155D01*
X0254685Y0232156D02*
X0230900Y0232156D01*
X0230900Y0231158D02*
X0254685Y0231158D01*
X0254685Y0230159D02*
X0230900Y0230159D01*
X0230900Y0229161D02*
X0254685Y0229161D01*
X0254685Y0228162D02*
X0229900Y0228162D01*
X0229900Y0227164D02*
X0254685Y0227164D01*
X0254685Y0226165D02*
X0229900Y0226165D01*
X0229900Y0225167D02*
X0254685Y0225167D01*
X0254685Y0224168D02*
X0229900Y0224168D01*
X0229900Y0223170D02*
X0254685Y0223170D01*
X0254685Y0222171D02*
X0229900Y0222171D01*
X0229900Y0221172D02*
X0254685Y0221172D01*
X0254685Y0220174D02*
X0229900Y0220174D01*
X0229900Y0219175D02*
X0254685Y0219175D01*
X0254685Y0218177D02*
X0229900Y0218177D01*
X0229900Y0217178D02*
X0254685Y0217178D01*
X0254685Y0216180D02*
X0229900Y0216180D01*
X0229900Y0215181D02*
X0254685Y0215181D01*
X0254685Y0214183D02*
X0229900Y0214183D01*
X0229900Y0213184D02*
X0254685Y0213184D01*
X0254685Y0212186D02*
X0229900Y0212186D01*
X0229900Y0211187D02*
X0254685Y0211187D01*
X0254685Y0210189D02*
X0229900Y0210189D01*
X0229900Y0209190D02*
X0254685Y0209190D01*
X0254685Y0208192D02*
X0229900Y0208192D01*
X0229900Y0207193D02*
X0254685Y0207193D01*
X0254685Y0206195D02*
X0229900Y0206195D01*
X0229900Y0205196D02*
X0254685Y0205196D01*
X0254685Y0204198D02*
X0229900Y0204198D01*
X0229900Y0203199D02*
X0254685Y0203199D01*
X0254685Y0202201D02*
X0229900Y0202201D01*
X0229900Y0201202D02*
X0254685Y0201202D01*
X0254685Y0200204D02*
X0229900Y0200204D01*
X0229900Y0199205D02*
X0254685Y0199205D01*
X0254685Y0198207D02*
X0229900Y0198207D01*
X0229900Y0197208D02*
X0254685Y0197208D01*
X0254685Y0196210D02*
X0229900Y0196210D01*
X0229900Y0195211D02*
X0254685Y0195211D01*
X0254685Y0194213D02*
X0229900Y0194213D01*
X0229900Y0193214D02*
X0254685Y0193214D01*
X0254685Y0192216D02*
X0229900Y0192216D01*
X0229900Y0191217D02*
X0254685Y0191217D01*
X0254685Y0190219D02*
X0229900Y0190219D01*
X0229900Y0189220D02*
X0254685Y0189220D01*
X0254685Y0188222D02*
X0229900Y0188222D01*
X0229900Y0187223D02*
X0254685Y0187223D01*
X0254685Y0186225D02*
X0229900Y0186225D01*
X0229900Y0185226D02*
X0254685Y0185226D01*
X0254685Y0184228D02*
X0229900Y0184228D01*
X0229900Y0183229D02*
X0254685Y0183229D01*
X0254685Y0182231D02*
X0229900Y0182231D01*
X0229900Y0181232D02*
X0254685Y0181232D01*
X0254685Y0180234D02*
X0229900Y0180234D01*
X0229900Y0179235D02*
X0254685Y0179235D01*
X0254685Y0178237D02*
X0229900Y0178237D01*
X0229900Y0177238D02*
X0254685Y0177238D01*
X0254685Y0176239D02*
X0230712Y0176239D01*
X0231084Y0175241D02*
X0254685Y0175241D01*
X0254685Y0174242D02*
X0231084Y0174242D01*
X0230723Y0173244D02*
X0254685Y0173244D01*
X0254685Y0172245D02*
X0229879Y0172245D01*
X0226121Y0172245D02*
X0220736Y0172245D01*
X0221084Y0171247D02*
X0254685Y0171247D01*
X0254685Y0170248D02*
X0221084Y0170248D01*
X0220700Y0169250D02*
X0254685Y0169250D01*
X0254685Y0166254D02*
X0110532Y0166254D01*
X0110532Y0165256D02*
X0254685Y0165256D01*
X0260844Y0148281D02*
X0083888Y0148281D01*
X0083888Y0147283D02*
X0258885Y0147283D01*
X0258505Y0147089D02*
X0258505Y0147089D01*
X0257700Y0146284D02*
X0083888Y0146284D01*
X0083888Y0145286D02*
X0256701Y0145286D01*
X0255703Y0144287D02*
X0083888Y0144287D01*
X0083888Y0143289D02*
X0254995Y0143289D01*
X0254486Y0142290D02*
X0083888Y0142290D01*
X0083888Y0141292D02*
X0253977Y0141292D01*
X0253469Y0140293D02*
X0083888Y0140293D01*
X0083888Y0139295D02*
X0253151Y0139295D01*
X0253237Y0139839D02*
X0253237Y0139839D01*
X0263375Y0149280D02*
X0083888Y0149280D01*
X0083888Y0150278D02*
X0278276Y0150278D01*
X0278276Y0149280D02*
X0270681Y0149280D01*
X0271508Y0149149D02*
X0271508Y0149149D01*
X0273211Y0148281D02*
X0278276Y0148281D01*
X0278276Y0147283D02*
X0275170Y0147283D01*
X0275550Y0147089D02*
X0275550Y0147089D01*
X0276355Y0146284D02*
X0278276Y0146284D01*
X0278276Y0145286D02*
X0277354Y0145286D01*
X0278276Y0151277D02*
X0083888Y0151277D01*
X0083888Y0152275D02*
X0278276Y0152275D01*
X0278276Y0153274D02*
X0083888Y0153274D01*
X0083888Y0154272D02*
X0278276Y0154272D01*
X0278237Y0126314D02*
X0278276Y0126314D01*
X0278276Y0125315D02*
X0277238Y0125315D01*
X0276240Y0124317D02*
X0278276Y0124317D01*
X0278276Y0123318D02*
X0274944Y0123318D01*
X0272984Y0122320D02*
X0278276Y0122320D01*
X0278276Y0121321D02*
X0269951Y0121321D01*
X0267028Y0120858D02*
X0267028Y0120858D01*
X0238549Y0108341D02*
X0236183Y0108341D01*
X0236408Y0109339D02*
X0235565Y0109339D01*
X0235100Y0108341D02*
X0233996Y0108341D01*
X0234042Y0109339D02*
X0234462Y0109339D01*
X0234634Y0107342D02*
X0233531Y0107342D01*
X0233065Y0106344D02*
X0234168Y0106344D01*
X0233703Y0105345D02*
X0099636Y0105345D01*
X0099636Y0104347D02*
X0235162Y0104347D01*
X0230880Y0106344D02*
X0099636Y0106344D01*
X0099636Y0107342D02*
X0229545Y0107342D01*
X0229447Y0108341D02*
X0099636Y0108341D01*
X0099636Y0109339D02*
X0107423Y0109339D01*
X0107563Y0109288D02*
X0114249Y0112405D01*
X0114617Y0113417D01*
X0111583Y0119924D01*
X0110571Y0120292D01*
X0103886Y0117175D01*
X0103517Y0116163D01*
X0106551Y0109656D01*
X0107563Y0109288D01*
X0107673Y0109339D02*
X0178350Y0109339D01*
X0178601Y0109339D02*
X0229883Y0109339D01*
X0225042Y0097357D02*
X0206725Y0097357D01*
X0207307Y0096359D02*
X0224051Y0096359D01*
X0223585Y0095360D02*
X0207307Y0095360D01*
X0207307Y0094362D02*
X0223120Y0094362D01*
X0222654Y0093363D02*
X0207307Y0093363D01*
X0207307Y0092365D02*
X0222189Y0092365D01*
X0221723Y0091366D02*
X0207307Y0091366D01*
X0207307Y0090368D02*
X0221257Y0090368D01*
X0221487Y0089369D02*
X0207307Y0089369D01*
X0207307Y0088370D02*
X0223318Y0088370D01*
X0225459Y0087372D02*
X0207307Y0087372D01*
X0207307Y0086373D02*
X0227600Y0086373D01*
X0207307Y0082379D02*
X0278276Y0082379D01*
X0278276Y0081381D02*
X0207307Y0081381D01*
X0207307Y0080382D02*
X0278276Y0080382D01*
X0278276Y0079384D02*
X0207307Y0079384D01*
X0207307Y0078385D02*
X0278276Y0078385D01*
X0278276Y0077387D02*
X0207307Y0077387D01*
X0207307Y0076388D02*
X0278276Y0076388D01*
X0278276Y0075390D02*
X0207307Y0075390D01*
X0207307Y0074391D02*
X0278276Y0074391D01*
X0278276Y0073393D02*
X0207307Y0073393D01*
X0207307Y0072394D02*
X0278276Y0072394D01*
X0278276Y0071396D02*
X0207307Y0071396D01*
X0207307Y0070397D02*
X0278276Y0070397D01*
X0278276Y0069399D02*
X0207307Y0069399D01*
X0207307Y0068400D02*
X0278276Y0068400D01*
X0278276Y0067402D02*
X0207307Y0067402D01*
X0207307Y0066403D02*
X0278276Y0066403D01*
X0278276Y0065405D02*
X0207307Y0065405D01*
X0207307Y0064406D02*
X0278276Y0064406D01*
X0278276Y0063408D02*
X0207307Y0063408D01*
X0207307Y0062409D02*
X0278276Y0062409D01*
X0278276Y0061411D02*
X0207307Y0061411D01*
X0207307Y0060412D02*
X0211196Y0060412D01*
X0211139Y0060372D02*
X0210885Y0060070D01*
X0209723Y0057578D01*
X0213484Y0055825D01*
X0215196Y0059496D01*
X0212616Y0060700D01*
X0212227Y0060768D01*
X0211833Y0060734D01*
X0211462Y0060599D01*
X0211139Y0060372D01*
X0210579Y0059414D02*
X0207307Y0059414D01*
X0207307Y0058415D02*
X0210113Y0058415D01*
X0210070Y0057417D02*
X0207307Y0057417D01*
X0207307Y0056418D02*
X0209182Y0056418D01*
X0209301Y0056672D02*
X0208139Y0054181D01*
X0208070Y0053792D01*
X0208105Y0053399D01*
X0208240Y0053027D01*
X0208466Y0052704D01*
X0208769Y0052450D01*
X0211349Y0051247D01*
X0213061Y0054918D01*
X0213968Y0054496D01*
X0214390Y0055402D01*
X0213484Y0055825D01*
X0213061Y0054918D01*
X0209301Y0056672D01*
X0209845Y0056418D02*
X0212211Y0056418D01*
X0211987Y0055420D02*
X0213295Y0055420D01*
X0214353Y0055420D02*
X0214399Y0055420D01*
X0214390Y0055402D02*
X0216102Y0059074D01*
X0218683Y0057870D01*
X0218985Y0057617D01*
X0219212Y0057293D01*
X0219347Y0056922D01*
X0219381Y0056528D01*
X0219313Y0056139D01*
X0218151Y0053648D01*
X0214390Y0055402D01*
X0213968Y0054496D02*
X0217729Y0052742D01*
X0216567Y0050251D01*
X0216313Y0049948D01*
X0215990Y0049722D01*
X0215618Y0049587D01*
X0215225Y0049552D01*
X0214836Y0049621D01*
X0212256Y0050824D01*
X0213968Y0054496D01*
X0213933Y0054421D02*
X0212830Y0054421D01*
X0212364Y0053423D02*
X0213467Y0053423D01*
X0213002Y0052424D02*
X0211898Y0052424D01*
X0211433Y0051426D02*
X0212536Y0051426D01*
X0213107Y0050427D02*
X0207307Y0050427D01*
X0207307Y0049429D02*
X0278276Y0049429D01*
X0278276Y0050427D02*
X0216649Y0050427D01*
X0217115Y0051426D02*
X0278276Y0051426D01*
X0278276Y0052424D02*
X0217580Y0052424D01*
X0216269Y0053423D02*
X0278276Y0053423D01*
X0278276Y0054421D02*
X0218512Y0054421D01*
X0218977Y0055420D02*
X0278276Y0055420D01*
X0278276Y0056418D02*
X0219362Y0056418D01*
X0219125Y0057417D02*
X0278276Y0057417D01*
X0278276Y0058415D02*
X0217515Y0058415D01*
X0215795Y0058415D02*
X0214692Y0058415D01*
X0214226Y0057417D02*
X0215330Y0057417D01*
X0214864Y0056418D02*
X0213761Y0056418D01*
X0214128Y0054421D02*
X0216494Y0054421D01*
X0215158Y0059414D02*
X0278276Y0059414D01*
X0278276Y0060412D02*
X0213232Y0060412D01*
X0208717Y0055420D02*
X0207307Y0055420D01*
X0207307Y0054421D02*
X0208251Y0054421D01*
X0208103Y0053423D02*
X0207307Y0053423D01*
X0207307Y0052424D02*
X0208825Y0052424D01*
X0207307Y0051426D02*
X0210966Y0051426D01*
X0207307Y0048430D02*
X0278276Y0048430D01*
X0278276Y0047432D02*
X0207307Y0047432D01*
X0207307Y0046433D02*
X0278276Y0046433D01*
X0278276Y0045434D02*
X0207307Y0045434D01*
X0207307Y0044436D02*
X0278276Y0044436D01*
X0278276Y0043437D02*
X0207307Y0043437D01*
X0207307Y0042439D02*
X0278276Y0042439D01*
X0278276Y0041440D02*
X0207307Y0041440D01*
X0209006Y0040442D02*
X0278276Y0040442D01*
X0278276Y0039443D02*
X0210683Y0039443D01*
X0210841Y0038445D02*
X0278276Y0038445D01*
X0278276Y0037446D02*
X0210375Y0037446D01*
X0209910Y0036448D02*
X0278276Y0036448D01*
X0278276Y0035449D02*
X0209444Y0035449D01*
X0208979Y0034451D02*
X0278276Y0034451D01*
X0278276Y0033452D02*
X0208513Y0033452D01*
X0208047Y0032454D02*
X0278276Y0032454D01*
X0278276Y0031455D02*
X0268875Y0031455D01*
X0271508Y0031038D02*
X0271508Y0031038D01*
X0272650Y0030457D02*
X0278276Y0030457D01*
X0278276Y0029458D02*
X0274609Y0029458D01*
X0275550Y0028979D02*
X0275550Y0028979D01*
X0276069Y0028460D02*
X0278276Y0028460D01*
X0278276Y0027461D02*
X0277068Y0027461D01*
X0278066Y0026463D02*
X0278276Y0026463D01*
X0265180Y0031455D02*
X0020844Y0031455D01*
X0018996Y0031748D02*
X0018996Y0031748D01*
X0017148Y0031455D02*
X0007748Y0031455D01*
X0007748Y0030457D02*
X0013374Y0030457D01*
X0014515Y0031038D02*
X0014515Y0031038D01*
X0011414Y0029458D02*
X0007748Y0029458D01*
X0007748Y0028460D02*
X0009954Y0028460D01*
X0010473Y0028979D02*
X0010473Y0028979D01*
X0008956Y0027461D02*
X0007748Y0027461D01*
X0007748Y0026463D02*
X0007957Y0026463D01*
X0007748Y0032454D02*
X0077756Y0032454D01*
X0077776Y0032410D02*
X0078030Y0032108D01*
X0078353Y0031881D01*
X0078724Y0031746D01*
X0079118Y0031712D01*
X0079507Y0031780D01*
X0082087Y0032983D01*
X0080375Y0036655D01*
X0076614Y0034901D01*
X0077776Y0032410D01*
X0077290Y0033452D02*
X0007748Y0033452D01*
X0007748Y0034451D02*
X0076824Y0034451D01*
X0077789Y0035449D02*
X0007748Y0035449D01*
X0007748Y0036448D02*
X0075893Y0036448D01*
X0076192Y0035808D02*
X0079952Y0037561D01*
X0080375Y0036655D01*
X0081281Y0037078D01*
X0080859Y0037984D01*
X0084620Y0039738D01*
X0083458Y0042229D01*
X0083204Y0042531D01*
X0082881Y0042758D01*
X0082509Y0042893D01*
X0082116Y0042927D01*
X0081727Y0042859D01*
X0079147Y0041656D01*
X0080859Y0037984D01*
X0079952Y0037561D01*
X0078240Y0041233D01*
X0075660Y0040030D01*
X0075357Y0039776D01*
X0075131Y0039452D01*
X0074996Y0039081D01*
X0074961Y0038688D01*
X0075030Y0038299D01*
X0076192Y0035808D01*
X0077565Y0036448D02*
X0079931Y0036448D01*
X0080472Y0036448D02*
X0081575Y0036448D01*
X0081281Y0037078D02*
X0082993Y0033406D01*
X0085574Y0034609D01*
X0085876Y0034863D01*
X0086103Y0035187D01*
X0086238Y0035558D01*
X0086272Y0035951D01*
X0086204Y0036340D01*
X0085042Y0038831D01*
X0081281Y0037078D01*
X0081109Y0037446D02*
X0082072Y0037446D01*
X0081847Y0038445D02*
X0084213Y0038445D01*
X0085222Y0038445D02*
X0201022Y0038445D01*
X0201487Y0039443D02*
X0083989Y0039443D01*
X0084291Y0040442D02*
X0201953Y0040442D01*
X0202419Y0041440D02*
X0083826Y0041440D01*
X0083282Y0042439D02*
X0202884Y0042439D01*
X0203507Y0043437D02*
X0007748Y0043437D01*
X0007748Y0042439D02*
X0080827Y0042439D01*
X0079247Y0041440D02*
X0007748Y0041440D01*
X0007748Y0040442D02*
X0076544Y0040442D01*
X0075128Y0039443D02*
X0007748Y0039443D01*
X0007748Y0038445D02*
X0075004Y0038445D01*
X0075427Y0037446D02*
X0007748Y0037446D01*
X0007748Y0044436D02*
X0203507Y0044436D01*
X0203507Y0045434D02*
X0007748Y0045434D01*
X0007748Y0046433D02*
X0203507Y0046433D01*
X0203507Y0047432D02*
X0007748Y0047432D01*
X0007748Y0048430D02*
X0203507Y0048430D01*
X0200556Y0037446D02*
X0085688Y0037446D01*
X0086154Y0036448D02*
X0200091Y0036448D01*
X0200038Y0035449D02*
X0086199Y0035449D01*
X0085234Y0034451D02*
X0201263Y0034451D01*
X0203404Y0033452D02*
X0083093Y0033452D01*
X0082972Y0033452D02*
X0081869Y0033452D01*
X0081403Y0034451D02*
X0082506Y0034451D01*
X0082041Y0035449D02*
X0080937Y0035449D01*
X0080006Y0037446D02*
X0079706Y0037446D01*
X0079540Y0038445D02*
X0080644Y0038445D01*
X0080178Y0039443D02*
X0079075Y0039443D01*
X0078609Y0040442D02*
X0079713Y0040442D01*
X0080951Y0032454D02*
X0205545Y0032454D01*
X0253196Y0021470D02*
X0032827Y0021470D01*
X0032985Y0020472D02*
X0253038Y0020472D01*
X0252880Y0019473D02*
X0033144Y0019473D01*
X0033302Y0018475D02*
X0252722Y0018475D01*
X0252564Y0017476D02*
X0033460Y0017476D01*
X0033496Y0017248D02*
X0033496Y0017248D01*
X0033374Y0016478D02*
X0252650Y0016478D01*
X0252528Y0017248D02*
X0252528Y0017248D01*
X0252808Y0015479D02*
X0033216Y0015479D01*
X0033058Y0014481D02*
X0252966Y0014481D01*
X0253124Y0013482D02*
X0032900Y0013482D01*
X0032786Y0012767D02*
X0032786Y0012767D01*
X0032642Y0012484D02*
X0253382Y0012484D01*
X0253237Y0012767D02*
X0253237Y0012767D01*
X0253891Y0011485D02*
X0032133Y0011485D01*
X0031624Y0010487D02*
X0254399Y0010487D01*
X0254908Y0009488D02*
X0031116Y0009488D01*
X0030727Y0008725D02*
X0030727Y0008725D01*
X0030491Y0008490D02*
X0255532Y0008490D01*
X0255297Y0008725D02*
X0255297Y0008725D01*
X0256531Y0007491D02*
X0029493Y0007491D01*
X0028494Y0006493D02*
X0257529Y0006493D01*
X0253614Y0022469D02*
X0032409Y0022469D01*
X0031901Y0023467D02*
X0254123Y0023467D01*
X0254632Y0024466D02*
X0031392Y0024466D01*
X0030883Y0025464D02*
X0255141Y0025464D01*
X0255989Y0026463D02*
X0030035Y0026463D01*
X0029036Y0027461D02*
X0256987Y0027461D01*
X0257986Y0028460D02*
X0028038Y0028460D01*
X0027519Y0028979D02*
X0027519Y0028979D01*
X0026578Y0029458D02*
X0259446Y0029458D01*
X0261406Y0030457D02*
X0024618Y0030457D01*
X0023477Y0031038D02*
X0023477Y0031038D01*
X0007748Y0087372D02*
X0056123Y0087372D01*
X0055658Y0088370D02*
X0007748Y0088370D01*
X0007748Y0089369D02*
X0055734Y0089369D01*
X0055510Y0090368D02*
X0057876Y0090368D01*
X0057651Y0091366D02*
X0058839Y0091366D01*
X0058627Y0091821D02*
X0054866Y0090067D01*
X0053705Y0092559D01*
X0053636Y0092948D01*
X0053670Y0093341D01*
X0053806Y0093712D01*
X0054032Y0094036D01*
X0054335Y0094290D01*
X0056915Y0095493D01*
X0058627Y0091821D01*
X0058374Y0092365D02*
X0059477Y0092365D01*
X0059792Y0092365D02*
X0062158Y0092365D01*
X0060017Y0091366D02*
X0059943Y0091366D01*
X0060408Y0090368D02*
X0059305Y0090368D01*
X0059771Y0089369D02*
X0060874Y0089369D01*
X0059011Y0093363D02*
X0057908Y0093363D01*
X0057443Y0094362D02*
X0058546Y0094362D01*
X0058080Y0095360D02*
X0056977Y0095360D01*
X0056630Y0095360D02*
X0007748Y0095360D01*
X0007748Y0094362D02*
X0054489Y0094362D01*
X0053678Y0093363D02*
X0007748Y0093363D01*
X0007748Y0092365D02*
X0053795Y0092365D01*
X0054261Y0091366D02*
X0007748Y0091366D01*
X0007748Y0090368D02*
X0054726Y0090368D01*
X0079951Y0122320D02*
X0080529Y0122320D01*
X0080088Y0123318D02*
X0079951Y0123318D01*
X0079951Y0124317D02*
X0080088Y0124317D01*
X0080088Y0125315D02*
X0079951Y0125315D01*
X0079951Y0126314D02*
X0080088Y0126314D01*
X0080088Y0127312D02*
X0079951Y0127312D01*
X0094775Y0121321D02*
X0095836Y0121321D01*
X0095836Y0120323D02*
X0095699Y0120323D01*
X0095699Y0119324D02*
X0095836Y0119324D01*
X0095836Y0118326D02*
X0095699Y0118326D01*
X0095699Y0117327D02*
X0095836Y0117327D01*
X0095836Y0116329D02*
X0095699Y0116329D01*
X0095699Y0115330D02*
X0095836Y0115330D01*
X0095836Y0114332D02*
X0095699Y0114332D01*
X0095699Y0113333D02*
X0095836Y0113333D01*
X0095836Y0112335D02*
X0095699Y0112335D01*
X0095699Y0111336D02*
X0095836Y0111336D01*
X0095836Y0110338D02*
X0095699Y0110338D01*
X0095699Y0109339D02*
X0095836Y0109339D01*
X0095836Y0108341D02*
X0095699Y0108341D01*
X0095699Y0107342D02*
X0095836Y0107342D01*
X0095836Y0106344D02*
X0095699Y0106344D01*
X0095699Y0105345D02*
X0095836Y0105345D01*
X0095836Y0104347D02*
X0095699Y0104347D01*
X0095699Y0103348D02*
X0095836Y0103348D01*
X0095836Y0102350D02*
X0095699Y0102350D01*
X0095699Y0101351D02*
X0095836Y0101351D01*
X0095836Y0100353D02*
X0095699Y0100353D01*
X0095699Y0099354D02*
X0095836Y0099354D01*
X0095699Y0098356D02*
X0096619Y0098356D01*
X0099636Y0110338D02*
X0106234Y0110338D01*
X0105768Y0111336D02*
X0099636Y0111336D01*
X0099636Y0112335D02*
X0105302Y0112335D01*
X0104837Y0113333D02*
X0099636Y0113333D01*
X0099636Y0114332D02*
X0104371Y0114332D01*
X0103906Y0115330D02*
X0099636Y0115330D01*
X0099636Y0116329D02*
X0103578Y0116329D01*
X0104212Y0117327D02*
X0099636Y0117327D01*
X0099636Y0118326D02*
X0106354Y0118326D01*
X0108495Y0119324D02*
X0099636Y0119324D01*
X0101780Y0128311D02*
X0184244Y0128311D01*
X0182103Y0129309D02*
X0103921Y0129309D01*
X0105952Y0130308D02*
X0180072Y0130308D01*
X0179749Y0131306D02*
X0106275Y0131306D01*
X0105809Y0132305D02*
X0180214Y0132305D01*
X0180680Y0133303D02*
X0105344Y0133303D01*
X0104878Y0134302D02*
X0181145Y0134302D01*
X0181611Y0135301D02*
X0104413Y0135301D01*
X0103947Y0136299D02*
X0182077Y0136299D01*
X0182542Y0137298D02*
X0103481Y0137298D01*
X0111862Y0119324D02*
X0174161Y0119324D01*
X0173696Y0118326D02*
X0112328Y0118326D01*
X0112794Y0117327D02*
X0173230Y0117327D01*
X0172764Y0116329D02*
X0113259Y0116329D01*
X0113725Y0115330D02*
X0172299Y0115330D01*
X0171833Y0114332D02*
X0114190Y0114332D01*
X0114586Y0113333D02*
X0171437Y0113333D01*
X0171926Y0112335D02*
X0114097Y0112335D01*
X0111956Y0111336D02*
X0174068Y0111336D01*
X0176209Y0110338D02*
X0109815Y0110338D01*
X0110532Y0173244D02*
X0137594Y0173244D01*
X0137594Y0174242D02*
X0110532Y0174242D01*
X0110532Y0175241D02*
X0137594Y0175241D01*
X0137594Y0176239D02*
X0110532Y0176239D01*
X0110532Y0177238D02*
X0137594Y0177238D01*
X0137594Y0178237D02*
X0110532Y0178237D01*
X0110532Y0179235D02*
X0137594Y0179235D01*
X0140900Y0229161D02*
X0145100Y0229161D01*
X0145100Y0230159D02*
X0140900Y0230159D01*
X0140900Y0231158D02*
X0145100Y0231158D01*
X0145100Y0232156D02*
X0140900Y0232156D01*
X0140900Y0233155D02*
X0145100Y0233155D01*
X0145100Y0234153D02*
X0140900Y0234153D01*
X0140900Y0235152D02*
X0145100Y0235152D01*
X0143700Y0236150D02*
X0142300Y0236150D01*
X0142300Y0237149D02*
X0143700Y0237149D01*
X0138000Y0239520D02*
X0138000Y0233020D01*
X0135100Y0235152D02*
X0131630Y0235152D01*
X0132454Y0236150D02*
X0133700Y0236150D01*
X0133700Y0237149D02*
X0132500Y0237149D01*
X0133169Y0239520D02*
X0138000Y0239520D01*
X0133169Y0239520D02*
X0133169Y0288902D01*
X0131369Y0279086D02*
X0129341Y0279086D01*
X0130577Y0278088D02*
X0131369Y0278088D01*
X0131369Y0277089D02*
X0131013Y0277089D01*
X0131084Y0276091D02*
X0131369Y0276091D01*
X0131369Y0275092D02*
X0130837Y0275092D01*
X0131369Y0274094D02*
X0130152Y0274094D01*
X0129800Y0273095D02*
X0131369Y0273095D01*
X0131369Y0272097D02*
X0129800Y0272097D01*
X0129800Y0271098D02*
X0131369Y0271098D01*
X0131369Y0270100D02*
X0129800Y0270100D01*
X0129800Y0269101D02*
X0131369Y0269101D01*
X0131369Y0268103D02*
X0129800Y0268103D01*
X0129800Y0267104D02*
X0131369Y0267104D01*
X0131369Y0266105D02*
X0129800Y0266105D01*
X0129800Y0265107D02*
X0131369Y0265107D01*
X0131369Y0264108D02*
X0129800Y0264108D01*
X0129800Y0263110D02*
X0131369Y0263110D01*
X0131369Y0262111D02*
X0129800Y0262111D01*
X0129800Y0261113D02*
X0131369Y0261113D01*
X0131369Y0260114D02*
X0130844Y0260114D01*
X0130900Y0259116D02*
X0131369Y0259116D01*
X0131369Y0258117D02*
X0130900Y0258117D01*
X0130900Y0257119D02*
X0131369Y0257119D01*
X0131369Y0256120D02*
X0130900Y0256120D01*
X0130900Y0255122D02*
X0131369Y0255122D01*
X0131369Y0254123D02*
X0130900Y0254123D01*
X0128000Y0256020D02*
X0128000Y0249520D01*
X0127500Y0243140D02*
X0128500Y0243140D01*
X0128500Y0242141D02*
X0127500Y0242141D01*
X0127500Y0241143D02*
X0128500Y0241143D01*
X0128500Y0240144D02*
X0127500Y0240144D01*
X0128000Y0256020D02*
X0128000Y0276303D01*
X0144812Y0276091D02*
X0146200Y0276091D01*
X0146200Y0277089D02*
X0145010Y0277089D01*
X0145785Y0278088D02*
X0146200Y0278088D01*
X0146200Y0279086D02*
X0146096Y0279086D01*
X0146088Y0280085D02*
X0146200Y0280085D01*
X0146200Y0281083D02*
X0145675Y0281083D01*
X0146200Y0282082D02*
X0144725Y0282082D01*
X0148000Y0285752D02*
X0148000Y0249531D01*
X0148000Y0256020D01*
X0145100Y0256120D02*
X0144812Y0256120D01*
X0144812Y0255122D02*
X0145100Y0255122D01*
X0145100Y0254123D02*
X0144812Y0254123D01*
X0144812Y0257119D02*
X0145100Y0257119D01*
X0145100Y0258117D02*
X0144812Y0258117D01*
X0144812Y0259116D02*
X0145100Y0259116D01*
X0145156Y0260114D02*
X0144812Y0260114D01*
X0144812Y0261113D02*
X0146200Y0261113D01*
X0146200Y0262111D02*
X0144812Y0262111D01*
X0144812Y0263110D02*
X0146200Y0263110D01*
X0146200Y0264108D02*
X0144812Y0264108D01*
X0144812Y0265107D02*
X0146200Y0265107D01*
X0146200Y0266105D02*
X0144812Y0266105D01*
X0144812Y0267104D02*
X0146200Y0267104D01*
X0146200Y0268103D02*
X0144812Y0268103D01*
X0144812Y0269101D02*
X0146200Y0269101D01*
X0146200Y0270100D02*
X0144812Y0270100D01*
X0144812Y0271098D02*
X0146200Y0271098D01*
X0146200Y0272097D02*
X0144812Y0272097D01*
X0144812Y0273095D02*
X0146200Y0273095D01*
X0146200Y0274094D02*
X0144812Y0274094D01*
X0144812Y0275092D02*
X0146200Y0275092D01*
X0149800Y0282082D02*
X0254685Y0282082D01*
X0254685Y0283080D02*
X0149800Y0283080D01*
X0150645Y0284079D02*
X0254685Y0284079D01*
X0254685Y0285077D02*
X0151059Y0285077D01*
X0151084Y0286076D02*
X0254685Y0286076D01*
X0254685Y0287074D02*
X0150791Y0287074D01*
X0150041Y0288073D02*
X0254685Y0288073D01*
X0270223Y0320025D02*
X0270493Y0320025D01*
X0269934Y0321024D02*
X0007748Y0321024D01*
X0007748Y0322022D02*
X0268935Y0322022D01*
X0268095Y0323021D02*
X0007748Y0323021D01*
X0007748Y0324019D02*
X0267681Y0324019D01*
X0267268Y0325018D02*
X0007748Y0325018D01*
X0007748Y0326016D02*
X0267252Y0326016D01*
X0262706Y0327015D02*
X0007748Y0327015D01*
X0007748Y0328013D02*
X0262381Y0328013D01*
X0262381Y0329012D02*
X0007748Y0329012D01*
X0007748Y0330010D02*
X0262381Y0330010D01*
X0262381Y0331009D02*
X0007748Y0331009D01*
X0007748Y0332007D02*
X0266572Y0332007D01*
X0266318Y0333006D02*
X0007748Y0333006D01*
X0007748Y0334004D02*
X0266318Y0334004D01*
X0266318Y0335003D02*
X0007748Y0335003D01*
X0007748Y0336001D02*
X0266318Y0336001D01*
X0266318Y0337000D02*
X0007748Y0337000D01*
X0007748Y0337998D02*
X0267042Y0337998D01*
X0271344Y0337998D02*
X0275703Y0337998D01*
X0274980Y0337000D02*
X0272068Y0337000D01*
X0272068Y0336001D02*
X0274980Y0336001D01*
X0274980Y0335003D02*
X0272068Y0335003D01*
X0272068Y0334004D02*
X0274980Y0334004D01*
X0274980Y0333006D02*
X0272068Y0333006D01*
X0278276Y0338997D02*
X0007748Y0338997D01*
X0007748Y0339995D02*
X0278276Y0339995D01*
X0278276Y0340994D02*
X0007748Y0340994D01*
X0007748Y0341992D02*
X0278276Y0341992D01*
X0278276Y0342991D02*
X0007748Y0342991D01*
X0007748Y0343989D02*
X0278276Y0343989D01*
X0278276Y0344988D02*
X0007748Y0344988D01*
X0007748Y0345986D02*
X0014498Y0345986D01*
X0012538Y0346985D02*
X0007748Y0346985D01*
X0007748Y0347983D02*
X0010578Y0347983D01*
X0009528Y0348982D02*
X0007748Y0348982D01*
X0007748Y0349980D02*
X0008530Y0349980D01*
X0018996Y0345268D02*
X0018996Y0345268D01*
X0023477Y0345977D02*
X0023477Y0345977D01*
X0023494Y0345986D02*
X0262529Y0345986D01*
X0262547Y0345977D02*
X0262547Y0345977D01*
X0260569Y0346985D02*
X0025454Y0346985D01*
X0027414Y0347983D02*
X0258610Y0347983D01*
X0257560Y0348982D02*
X0028464Y0348982D01*
X0027519Y0348037D02*
X0027519Y0348037D01*
X0029462Y0349980D02*
X0256561Y0349980D01*
X0255563Y0350979D02*
X0030461Y0350979D01*
X0030727Y0351245D02*
X0030727Y0351245D01*
X0031100Y0351977D02*
X0254923Y0351977D01*
X0255297Y0351245D02*
X0255297Y0351245D01*
X0254415Y0352976D02*
X0031609Y0352976D01*
X0032118Y0353974D02*
X0253906Y0353974D01*
X0253397Y0354973D02*
X0032626Y0354973D01*
X0032786Y0355287D02*
X0032786Y0355287D01*
X0032895Y0355972D02*
X0253129Y0355972D01*
X0252971Y0356970D02*
X0033053Y0356970D01*
X0033211Y0357969D02*
X0252813Y0357969D01*
X0252654Y0358967D02*
X0033369Y0358967D01*
X0033465Y0359966D02*
X0252559Y0359966D01*
X0252717Y0360964D02*
X0033307Y0360964D01*
X0033148Y0361963D02*
X0252875Y0361963D01*
X0253033Y0362961D02*
X0032990Y0362961D01*
X0032832Y0363960D02*
X0253191Y0363960D01*
X0253237Y0364248D02*
X0253237Y0364248D01*
X0253599Y0364958D02*
X0032425Y0364958D01*
X0031916Y0365957D02*
X0254108Y0365957D01*
X0254616Y0366955D02*
X0031407Y0366955D01*
X0070844Y0260114D02*
X0075011Y0260114D01*
X0074900Y0259116D02*
X0070900Y0259116D01*
X0070900Y0258117D02*
X0074900Y0258117D01*
X0074900Y0257119D02*
X0070900Y0257119D01*
X0072300Y0248132D02*
X0073500Y0248132D01*
X0073500Y0247134D02*
X0072300Y0247134D01*
X0072300Y0246135D02*
X0073550Y0246135D01*
X0073782Y0243140D02*
X0072218Y0243140D01*
X0072300Y0242141D02*
X0073700Y0242141D01*
X0073050Y0241143D02*
X0072300Y0241143D01*
X0072214Y0235152D02*
X0070900Y0235152D01*
X0070900Y0234153D02*
X0072214Y0234153D01*
X0072214Y0233155D02*
X0070900Y0233155D01*
X0070900Y0232156D02*
X0072214Y0232156D01*
X0072214Y0231158D02*
X0070900Y0231158D01*
X0070900Y0230159D02*
X0072214Y0230159D01*
X0072214Y0229161D02*
X0070900Y0229161D01*
X0065100Y0235152D02*
X0061630Y0235152D01*
X0062454Y0236150D02*
X0063700Y0236150D01*
X0063700Y0237149D02*
X0062500Y0237149D01*
X0062500Y0238147D02*
X0063700Y0238147D01*
X0058500Y0238147D02*
X0057500Y0238147D01*
X0057700Y0237149D02*
X0058300Y0237149D01*
X0058300Y0236150D02*
X0057700Y0236150D01*
X0057700Y0235152D02*
X0058300Y0235152D01*
X0058300Y0234153D02*
X0057700Y0234153D01*
X0057700Y0232156D02*
X0058300Y0232156D01*
X0058300Y0231158D02*
X0057700Y0231158D01*
X0057700Y0230159D02*
X0058300Y0230159D01*
X0058300Y0229161D02*
X0057700Y0229161D01*
X0057700Y0228162D02*
X0058300Y0228162D01*
X0055751Y0228162D02*
X0007748Y0228162D01*
X0007748Y0229161D02*
X0035100Y0229161D01*
X0035100Y0230159D02*
X0007748Y0230159D01*
X0007748Y0231158D02*
X0035100Y0231158D01*
X0035100Y0232156D02*
X0007748Y0232156D01*
X0007748Y0233155D02*
X0035100Y0233155D01*
X0035100Y0234153D02*
X0007748Y0234153D01*
X0007748Y0235152D02*
X0035100Y0235152D01*
X0033700Y0236150D02*
X0007748Y0236150D01*
X0038000Y0233020D02*
X0038000Y0239520D01*
X0040900Y0232156D02*
X0045100Y0232156D01*
X0045100Y0231158D02*
X0040900Y0231158D01*
X0040900Y0230159D02*
X0045100Y0230159D01*
X0045100Y0229161D02*
X0040900Y0229161D01*
X0050900Y0229161D02*
X0054943Y0229161D01*
X0054900Y0230159D02*
X0050900Y0230159D01*
X0050900Y0231158D02*
X0054900Y0231158D01*
X0054900Y0232156D02*
X0050900Y0232156D01*
X0057500Y0241143D02*
X0058500Y0241143D01*
X0058500Y0242141D02*
X0057500Y0242141D01*
X0057500Y0243140D02*
X0058500Y0243140D01*
X0148000Y0249531D02*
X0148000Y0249520D01*
X0150900Y0254123D02*
X0154900Y0254123D01*
X0154900Y0255122D02*
X0150900Y0255122D01*
X0152233Y0253125D02*
X0153617Y0253125D01*
X0153500Y0252126D02*
X0152300Y0252126D01*
X0152300Y0251128D02*
X0153500Y0251128D01*
X0153500Y0250129D02*
X0152300Y0250129D01*
X0170900Y0235152D02*
X0174370Y0235152D01*
X0173546Y0236150D02*
X0172300Y0236150D01*
X0172300Y0237149D02*
X0173500Y0237149D01*
X0173500Y0238147D02*
X0172300Y0238147D01*
X0178000Y0249531D02*
X0178000Y0256020D01*
X0192233Y0253125D02*
X0193767Y0253125D01*
X0193700Y0252126D02*
X0192300Y0252126D01*
X0192300Y0251128D02*
X0193700Y0251128D01*
X0193700Y0250129D02*
X0192300Y0250129D01*
X0192300Y0249131D02*
X0193700Y0249131D01*
X0193700Y0248132D02*
X0192300Y0248132D01*
X0192300Y0247134D02*
X0193700Y0247134D01*
X0193700Y0246135D02*
X0192300Y0246135D01*
X0192218Y0243140D02*
X0193626Y0243140D01*
X0193500Y0242141D02*
X0192300Y0242141D01*
X0192300Y0241143D02*
X0193500Y0241143D01*
X0193500Y0240144D02*
X0192300Y0240144D01*
X0188000Y0239520D02*
X0188000Y0233783D01*
X0190900Y0232156D02*
X0194900Y0232156D01*
X0194900Y0231158D02*
X0190900Y0231158D01*
X0190900Y0230159D02*
X0194900Y0230159D01*
X0194943Y0229161D02*
X0190900Y0229161D01*
X0197700Y0235152D02*
X0198300Y0235152D01*
X0198300Y0236150D02*
X0197700Y0236150D01*
X0197700Y0237149D02*
X0198300Y0237149D01*
X0198500Y0238147D02*
X0197500Y0238147D01*
X0197500Y0241143D02*
X0198500Y0241143D01*
X0198500Y0242141D02*
X0197500Y0242141D01*
X0197500Y0243140D02*
X0198500Y0243140D01*
X0198000Y0249531D02*
X0198000Y0256020D01*
X0208000Y0256020D02*
X0208000Y0249520D01*
X0218000Y0239520D02*
X0218000Y0233783D01*
X0220900Y0234153D02*
X0221230Y0234153D01*
X0221230Y0233155D02*
X0220900Y0233155D01*
X0220900Y0232156D02*
X0221230Y0232156D01*
X0221230Y0231158D02*
X0220900Y0231158D01*
X0220900Y0230159D02*
X0221230Y0230159D01*
X0221230Y0229161D02*
X0220900Y0229161D01*
X0221230Y0228162D02*
X0219900Y0228162D01*
X0219900Y0227164D02*
X0221230Y0227164D01*
X0221230Y0226165D02*
X0219900Y0226165D01*
X0219900Y0225167D02*
X0221230Y0225167D01*
X0221230Y0224168D02*
X0219900Y0224168D01*
X0219900Y0223170D02*
X0221230Y0223170D01*
X0221230Y0222171D02*
X0219900Y0222171D01*
X0219900Y0221172D02*
X0221230Y0221172D01*
X0221230Y0220174D02*
X0219900Y0220174D01*
X0219900Y0219175D02*
X0221230Y0219175D01*
X0221230Y0218177D02*
X0219900Y0218177D01*
X0219900Y0217178D02*
X0221230Y0217178D01*
X0221230Y0216180D02*
X0219900Y0216180D01*
X0219900Y0215181D02*
X0221230Y0215181D01*
X0221230Y0214183D02*
X0219900Y0214183D01*
X0219900Y0213184D02*
X0221230Y0213184D01*
X0221230Y0212186D02*
X0219900Y0212186D01*
X0219900Y0211187D02*
X0221230Y0211187D01*
X0221230Y0210189D02*
X0219900Y0210189D01*
X0219900Y0209190D02*
X0221230Y0209190D01*
X0221230Y0208192D02*
X0219900Y0208192D01*
X0219900Y0207193D02*
X0221230Y0207193D01*
X0221230Y0206195D02*
X0219900Y0206195D01*
X0219900Y0205196D02*
X0221230Y0205196D01*
X0221230Y0204198D02*
X0219900Y0204198D01*
X0219900Y0203199D02*
X0221230Y0203199D01*
X0221230Y0202201D02*
X0219900Y0202201D01*
X0219900Y0201202D02*
X0221230Y0201202D01*
X0221230Y0200204D02*
X0219900Y0200204D01*
X0219900Y0199205D02*
X0221230Y0199205D01*
X0221230Y0198207D02*
X0219900Y0198207D01*
X0219900Y0197208D02*
X0221230Y0197208D01*
X0221230Y0196210D02*
X0219900Y0196210D01*
X0219900Y0195211D02*
X0221230Y0195211D01*
X0221230Y0194213D02*
X0219900Y0194213D01*
X0219900Y0193214D02*
X0221230Y0193214D01*
X0221230Y0192216D02*
X0219900Y0192216D01*
X0219900Y0191217D02*
X0221230Y0191217D01*
X0221230Y0190219D02*
X0219900Y0190219D01*
X0219900Y0189220D02*
X0221230Y0189220D01*
X0220488Y0188222D02*
X0219900Y0188222D01*
X0219900Y0187223D02*
X0220075Y0187223D01*
X0220046Y0186225D02*
X0219900Y0186225D01*
X0219900Y0185226D02*
X0220336Y0185226D01*
X0219900Y0184228D02*
X0221080Y0184228D01*
X0219900Y0183229D02*
X0226100Y0183229D01*
X0226100Y0182231D02*
X0219900Y0182231D01*
X0219900Y0181232D02*
X0226100Y0181232D01*
X0226100Y0180234D02*
X0219900Y0180234D01*
X0219900Y0179235D02*
X0226100Y0179235D01*
X0226100Y0178237D02*
X0219900Y0178237D01*
X0219900Y0177238D02*
X0226100Y0177238D01*
X0225288Y0176239D02*
X0219900Y0176239D01*
X0219900Y0175241D02*
X0224916Y0175241D01*
X0224916Y0174242D02*
X0219900Y0174242D01*
X0219909Y0173244D02*
X0225276Y0173244D01*
X0225180Y0184228D02*
X0226100Y0184228D01*
X0226100Y0185226D02*
X0225924Y0185226D01*
X0228000Y0233783D02*
X0228000Y0239520D01*
X0221230Y0235152D02*
X0220900Y0235152D01*
X0267028Y0345268D02*
X0267028Y0345268D01*
X0271508Y0345977D02*
X0271508Y0345977D01*
X0271526Y0345986D02*
X0278276Y0345986D01*
X0278276Y0346985D02*
X0273486Y0346985D01*
X0275445Y0347983D02*
X0278276Y0347983D01*
X0278276Y0348982D02*
X0276495Y0348982D01*
X0277494Y0349980D02*
X0278276Y0349980D01*
D23*
X0263091Y0296776D03*
X0247343Y0296776D03*
X0243406Y0277091D03*
X0247343Y0273154D03*
X0251280Y0265280D03*
X0239469Y0269217D03*
X0223130Y0186539D03*
X0228000Y0174728D03*
X0218000Y0170791D03*
X0207972Y0182602D03*
X0188000Y0170791D03*
X0158000Y0178665D03*
X0172539Y0210161D03*
X0138000Y0273154D03*
X0143012Y0279453D03*
X0148000Y0285752D03*
X0133169Y0288902D03*
X0128000Y0276303D03*
X0113484Y0282602D03*
X0156791Y0328272D03*
X0160728Y0277091D03*
X0088000Y0206224D03*
X0070177Y0206224D03*
X0050492Y0218035D03*
X0062303Y0068429D03*
X0143012Y0044807D03*
X0267028Y0170791D03*
D24*
X0118000Y0265280D03*
X0038000Y0265280D03*
D25*
X0038000Y0256020D01*
X0038000Y0249520D01*
X0078000Y0239520D02*
X0078000Y0233020D01*
X0088000Y0233020D02*
X0088000Y0233783D01*
X0118000Y0249520D02*
X0118000Y0256020D01*
X0118000Y0265280D01*
X0158000Y0233783D02*
X0158000Y0233020D01*
X0188000Y0233020D02*
X0188000Y0233783D01*
X0208000Y0233783D02*
X0208000Y0233020D01*
X0218000Y0233020D02*
X0218000Y0233783D01*
X0228000Y0233783D02*
X0228000Y0233020D01*
D26*
X0228000Y0233783D02*
X0228000Y0174728D01*
X0218000Y0170791D02*
X0218000Y0233783D01*
X0208000Y0233783D02*
X0208000Y0182602D01*
X0207972Y0182602D01*
X0223130Y0186539D02*
X0223130Y0249520D01*
X0218000Y0249520D01*
X0208000Y0249520D02*
X0208000Y0265280D01*
X0251280Y0265280D01*
X0247343Y0273154D02*
X0188000Y0273154D01*
X0188000Y0249520D01*
X0178000Y0249531D02*
X0178000Y0277091D01*
X0243406Y0277091D01*
X0239469Y0269217D02*
X0198000Y0269217D01*
X0198000Y0249531D01*
X0198000Y0249520D01*
X0188000Y0233783D02*
X0188000Y0170791D01*
X0168602Y0178665D02*
X0158000Y0178665D01*
X0168602Y0178665D02*
X0168602Y0221972D01*
X0158000Y0221972D01*
X0158000Y0233020D01*
X0178000Y0249520D02*
X0178000Y0249531D01*
X0098000Y0249520D02*
X0092815Y0249520D01*
X0092815Y0202287D01*
X0081988Y0202287D01*
X0081988Y0123547D01*
X0097736Y0123547D01*
X0097736Y0099925D01*
X0227037Y0099925D01*
X0226732Y0091579D01*
X0205407Y0095988D02*
X0093799Y0095988D01*
X0093799Y0119610D01*
X0078051Y0119610D01*
X0078051Y0221972D01*
X0082972Y0221972D01*
X0082972Y0249520D01*
X0088000Y0249520D01*
X0078000Y0239520D02*
X0074114Y0239520D01*
X0074114Y0055160D01*
X0072298Y0055160D01*
X0070177Y0109420D02*
X0050972Y0109420D01*
X0070177Y0109420D02*
X0070177Y0115673D01*
X0070177Y0206224D01*
X0088000Y0206224D02*
X0088000Y0233783D01*
X0070177Y0115673D02*
X0070177Y0114790D01*
X0205407Y0095988D02*
X0205407Y0037320D01*
D27*
X0257185Y0162327D02*
X0104232Y0162327D01*
X0048000Y0239520D02*
X0038000Y0239520D01*
X0026870Y0239520D01*
X0026870Y0296776D01*
X0247343Y0296776D01*
X0257185Y0317445D02*
X0257185Y0162327D01*
X0274902Y0281224D02*
X0274902Y0288902D01*
X0274902Y0296776D02*
X0263091Y0296776D01*
X0263091Y0311539D01*
X0266634Y0311539D01*
X0266634Y0317445D02*
X0257185Y0317445D01*
D28*
X0160728Y0214098D02*
X0160728Y0194413D01*
X0144980Y0194413D01*
X0144980Y0186154D01*
X0125114Y0186154D01*
X0125114Y0194028D02*
X0104232Y0194028D01*
X0104232Y0176697D01*
X0104232Y0204256D02*
X0129232Y0204256D01*
X0129232Y0214098D01*
X0160728Y0214098D01*
M02*
