G75*
%MOIN*%
%OFA0B0*%
%FSLAX25Y25*%
%IPPOS*%
%LPD*%
%AMOC8*
5,1,8,0,0,1.08239X$1,22.5*
%
%ADD10R,0.00339X0.00339*%
%ADD11R,0.01354X0.00339*%
%ADD12R,0.01016X0.00339*%
%ADD13R,0.02031X0.00339*%
%ADD14R,0.03047X0.00339*%
%ADD15R,0.03724X0.00339*%
%ADD16R,0.05079X0.00339*%
%ADD17R,0.05756X0.00339*%
%ADD18R,0.04740X0.00339*%
%ADD19R,0.01693X0.00339*%
%ADD20R,0.00677X0.00339*%
%ADD21R,0.03386X0.00339*%
%ADD22R,0.04402X0.00339*%
%ADD23R,0.02709X0.00339*%
%ADD24R,0.05417X0.00339*%
%ADD25R,0.02370X0.00339*%
%ADD26R,0.04063X0.00339*%
%ADD27R,0.06094X0.00339*%
%ADD28R,0.06772X0.00339*%
%ADD29C,0.00000*%
%ADD30R,0.10496X0.00339*%
%ADD31R,0.22685X0.00339*%
%ADD32R,0.32504X0.00339*%
%ADD33R,0.06433X0.00339*%
%ADD34R,0.07787X0.00339*%
%ADD35R,0.09142X0.00339*%
%ADD36R,0.09480X0.00339*%
%ADD37R,0.09819X0.00339*%
%ADD38R,0.07110X0.00339*%
%ADD39R,0.08126X0.00339*%
%ADD40R,0.07449X0.00339*%
%ADD41R,0.11850X0.00339*%
%ADD42R,0.22346X0.00339*%
%ADD43R,0.11173X0.00339*%
%ADD44R,0.00339X0.04063*%
%ADD45R,0.00339X0.00677*%
%ADD46R,0.00339X0.03047*%
%ADD47R,0.00339X0.02709*%
%ADD48R,0.00339X0.02031*%
%ADD49R,0.00339X0.01354*%
%ADD50R,0.00339X0.01693*%
%ADD51R,0.00339X0.02370*%
%ADD52R,0.00339X0.01016*%
%ADD53C,0.00800*%
%ADD54C,0.02756*%
%ADD55R,0.02559X0.05512*%
%ADD56R,0.00787X0.00787*%
D10*
X0047209Y0086008D03*
X0068201Y0047071D03*
X0069217Y0040976D03*
X0068201Y0031496D03*
X0209728Y0036236D03*
X0210406Y0038268D03*
X0210744Y0040299D03*
X0213453Y0040299D03*
X0214130Y0038606D03*
X0216161Y0038945D03*
X0213114Y0048087D03*
X0229705Y0091764D03*
X0234783Y0094134D03*
X0237492Y0092780D03*
X0236138Y0091087D03*
X0234445Y0101921D03*
X0186980Y0303591D03*
X0186980Y0307315D03*
X0189350Y0307315D03*
X0199846Y0307315D03*
X0198917Y0325417D03*
X0198917Y0325756D03*
X0198917Y0326094D03*
X0198917Y0326433D03*
X0198917Y0326772D03*
X0198917Y0327110D03*
X0198917Y0327449D03*
X0198917Y0327787D03*
X0198917Y0328126D03*
X0198917Y0328465D03*
X0198917Y0328803D03*
X0198917Y0329142D03*
X0198917Y0329480D03*
X0198917Y0329819D03*
X0198917Y0330157D03*
X0198917Y0330496D03*
X0198917Y0330835D03*
X0198917Y0331173D03*
X0198917Y0331512D03*
X0198917Y0331850D03*
X0198917Y0332189D03*
X0198917Y0332528D03*
X0198917Y0332866D03*
X0198917Y0333205D03*
X0198917Y0333543D03*
X0198917Y0333882D03*
X0198917Y0334220D03*
X0198917Y0334559D03*
X0198917Y0334898D03*
X0198917Y0335236D03*
X0198917Y0335575D03*
X0198917Y0335913D03*
X0198917Y0336252D03*
X0198917Y0336591D03*
X0198917Y0336929D03*
X0198917Y0337268D03*
X0198917Y0337606D03*
X0198917Y0337945D03*
X0198917Y0338283D03*
X0198917Y0338622D03*
X0198917Y0338961D03*
X0198917Y0339299D03*
X0198917Y0339638D03*
X0198917Y0339976D03*
X0198917Y0340315D03*
X0198917Y0340654D03*
X0198917Y0340992D03*
X0198917Y0341331D03*
X0198917Y0341669D03*
X0198917Y0342008D03*
X0198917Y0342346D03*
X0198917Y0342685D03*
X0198917Y0343024D03*
X0198917Y0343362D03*
X0198917Y0343701D03*
X0198917Y0344039D03*
X0190791Y0329142D03*
X0189098Y0328126D03*
X0188760Y0327449D03*
X0189437Y0327449D03*
X0189098Y0326772D03*
X0189776Y0326772D03*
X0190453Y0326433D03*
X0191130Y0326433D03*
X0190791Y0325756D03*
X0190791Y0327110D03*
X0188083Y0327787D03*
X0187406Y0326772D03*
X0187744Y0326094D03*
X0139327Y0338961D03*
X0101067Y0337268D03*
X0099713Y0339976D03*
D11*
X0100220Y0340315D03*
X0108685Y0337606D03*
X0102591Y0328803D03*
X0102591Y0328465D03*
X0102591Y0328126D03*
X0102591Y0327787D03*
X0102591Y0327449D03*
X0102591Y0327110D03*
X0102591Y0326772D03*
X0102591Y0326433D03*
X0102591Y0326094D03*
X0102591Y0325756D03*
X0102591Y0325417D03*
X0096157Y0326094D03*
X0096157Y0326433D03*
X0096157Y0326772D03*
X0096157Y0327110D03*
X0096157Y0327449D03*
X0096157Y0327787D03*
X0096157Y0328126D03*
X0096157Y0328465D03*
X0096157Y0328803D03*
X0091756Y0328465D03*
X0091756Y0328126D03*
X0091756Y0327787D03*
X0091756Y0327449D03*
X0091756Y0327110D03*
X0091756Y0326772D03*
X0091756Y0326433D03*
X0091756Y0326094D03*
X0088709Y0326094D03*
X0088709Y0326433D03*
X0088709Y0326772D03*
X0088709Y0327110D03*
X0088709Y0327449D03*
X0088709Y0327787D03*
X0088709Y0328126D03*
X0088709Y0328465D03*
X0088709Y0328803D03*
X0085323Y0329142D03*
X0085323Y0326772D03*
X0085323Y0326433D03*
X0085323Y0326094D03*
X0085323Y0325756D03*
X0085323Y0325417D03*
X0082276Y0325417D03*
X0082276Y0325756D03*
X0082276Y0327787D03*
X0082276Y0328126D03*
X0082276Y0328465D03*
X0082276Y0328803D03*
X0082276Y0329142D03*
X0114441Y0326433D03*
X0123244Y0327787D03*
X0123244Y0328803D03*
X0133063Y0328126D03*
X0133063Y0327787D03*
X0133063Y0327449D03*
X0133063Y0327110D03*
X0133063Y0326772D03*
X0133402Y0326433D03*
X0136110Y0326433D03*
X0136110Y0326094D03*
X0136110Y0326772D03*
X0136110Y0327110D03*
X0136110Y0327449D03*
X0136110Y0327787D03*
X0136110Y0328126D03*
X0136110Y0328465D03*
X0136110Y0328803D03*
X0148638Y0328803D03*
X0148638Y0328465D03*
X0148638Y0328126D03*
X0148638Y0327787D03*
X0148638Y0326772D03*
X0148638Y0326433D03*
X0148638Y0326094D03*
X0152024Y0326094D03*
X0152024Y0325756D03*
X0152024Y0325417D03*
X0152024Y0326433D03*
X0152024Y0326772D03*
X0152024Y0327787D03*
X0152024Y0328126D03*
X0152024Y0328465D03*
X0152024Y0328803D03*
X0152024Y0329142D03*
X0155071Y0329142D03*
X0155071Y0328803D03*
X0155071Y0328465D03*
X0155071Y0328126D03*
X0155071Y0327787D03*
X0155071Y0326772D03*
X0155071Y0326433D03*
X0155071Y0326094D03*
X0155071Y0325756D03*
X0155071Y0325417D03*
X0158795Y0326433D03*
X0170984Y0326433D03*
X0170984Y0326094D03*
X0170984Y0325756D03*
X0170984Y0325417D03*
X0170984Y0327110D03*
X0170984Y0327449D03*
X0170984Y0327787D03*
X0170984Y0328126D03*
X0171661Y0328465D03*
X0171661Y0328803D03*
X0173354Y0328803D03*
X0173354Y0328465D03*
X0174031Y0328126D03*
X0174031Y0327787D03*
X0174031Y0327449D03*
X0174031Y0327110D03*
X0174031Y0326433D03*
X0174031Y0326094D03*
X0174031Y0325756D03*
X0174031Y0325417D03*
X0177417Y0325417D03*
X0177417Y0325756D03*
X0177417Y0326094D03*
X0177417Y0326433D03*
X0177417Y0326772D03*
X0177417Y0327787D03*
X0177417Y0328126D03*
X0177417Y0328465D03*
X0177417Y0328803D03*
X0177417Y0329142D03*
X0180465Y0329142D03*
X0180465Y0328803D03*
X0180465Y0328465D03*
X0180465Y0328126D03*
X0180465Y0327787D03*
X0180465Y0326772D03*
X0180465Y0326433D03*
X0180465Y0326094D03*
X0180465Y0325756D03*
X0180465Y0325417D03*
X0190622Y0330835D03*
X0191976Y0331512D03*
X0191976Y0332866D03*
X0189945Y0332528D03*
X0189945Y0334220D03*
X0196378Y0331850D03*
X0234614Y0101583D03*
X0233260Y0098535D03*
X0232921Y0097858D03*
X0232583Y0097181D03*
X0234614Y0094472D03*
X0237661Y0094134D03*
X0236307Y0090748D03*
X0235969Y0090071D03*
X0234614Y0087024D03*
X0234276Y0086346D03*
X0231228Y0091764D03*
X0239354Y0097858D03*
X0213283Y0047748D03*
X0211929Y0044701D03*
X0211591Y0044024D03*
X0211252Y0043346D03*
X0213283Y0040638D03*
X0214638Y0038268D03*
X0216331Y0040299D03*
X0218024Y0044024D03*
X0214299Y0035559D03*
X0213283Y0033189D03*
X0212945Y0032512D03*
X0207866Y0035898D03*
X0208543Y0037591D03*
X0208882Y0038268D03*
X0069724Y0043008D03*
X0069724Y0043346D03*
X0069386Y0044024D03*
X0069047Y0044701D03*
X0068709Y0045378D03*
X0069386Y0041654D03*
X0064984Y0039283D03*
X0065661Y0037591D03*
X0066000Y0036913D03*
X0066339Y0036236D03*
X0067354Y0033866D03*
X0068370Y0031835D03*
X0063291Y0042669D03*
X0062953Y0043346D03*
X0062614Y0044024D03*
X0047378Y0086346D03*
X0046362Y0088378D03*
X0045346Y0090748D03*
X0045008Y0091425D03*
X0044669Y0092102D03*
X0042976Y0095827D03*
X0042638Y0096504D03*
X0041622Y0098535D03*
X0047378Y0100228D03*
D12*
X0047547Y0097858D03*
X0047547Y0097520D03*
X0043146Y0095488D03*
X0043146Y0095150D03*
X0043484Y0094811D03*
X0043484Y0094472D03*
X0042807Y0096165D03*
X0041453Y0098874D03*
X0041453Y0099213D03*
X0041114Y0099551D03*
X0044839Y0091764D03*
X0045177Y0091087D03*
X0045516Y0090409D03*
X0045516Y0090071D03*
X0045854Y0089732D03*
X0045854Y0089394D03*
X0046193Y0089055D03*
X0046193Y0088717D03*
X0066846Y0047409D03*
X0068539Y0045717D03*
X0068878Y0045039D03*
X0069217Y0044362D03*
X0069555Y0043685D03*
X0069217Y0041992D03*
X0069555Y0041315D03*
X0065831Y0037252D03*
X0066169Y0036575D03*
X0066508Y0035898D03*
X0066508Y0035559D03*
X0066846Y0035220D03*
X0066846Y0034882D03*
X0067185Y0034543D03*
X0067185Y0034205D03*
X0063461Y0042331D03*
X0063122Y0043008D03*
X0062783Y0043685D03*
X0062445Y0044362D03*
X0062445Y0044701D03*
X0062106Y0045039D03*
X0208035Y0036575D03*
X0208035Y0036236D03*
X0208374Y0036913D03*
X0208374Y0037252D03*
X0208713Y0037929D03*
X0210744Y0039961D03*
X0211421Y0043685D03*
X0211760Y0044362D03*
X0212098Y0045039D03*
X0212098Y0045378D03*
X0212437Y0045717D03*
X0215823Y0043685D03*
X0215823Y0043346D03*
X0216161Y0044024D03*
X0216500Y0039961D03*
X0216161Y0039622D03*
X0216161Y0039283D03*
X0214130Y0035220D03*
X0214130Y0034882D03*
X0213791Y0034543D03*
X0213791Y0034205D03*
X0213453Y0033866D03*
X0213453Y0033528D03*
X0213114Y0032850D03*
X0212776Y0032173D03*
X0212776Y0031835D03*
X0209051Y0033528D03*
X0234106Y0085669D03*
X0234106Y0086008D03*
X0234445Y0086685D03*
X0234783Y0087362D03*
X0235799Y0089732D03*
X0236138Y0090409D03*
X0237492Y0093118D03*
X0237492Y0093457D03*
X0237831Y0093795D03*
X0237154Y0097181D03*
X0237154Y0097520D03*
X0237492Y0097858D03*
X0233768Y0099551D03*
X0233429Y0099213D03*
X0233429Y0098874D03*
X0233091Y0098197D03*
X0232752Y0097520D03*
X0188421Y0325417D03*
X0188760Y0330496D03*
X0188760Y0332189D03*
X0192484Y0328465D03*
X0194516Y0328465D03*
X0196547Y0330157D03*
X0196547Y0330496D03*
X0196547Y0332189D03*
X0196547Y0332528D03*
X0180295Y0329480D03*
X0177248Y0329480D03*
X0167768Y0329480D03*
X0167768Y0329142D03*
X0167768Y0326772D03*
X0167768Y0326433D03*
X0167768Y0326094D03*
X0167768Y0325756D03*
X0167768Y0325417D03*
X0164720Y0325417D03*
X0164720Y0325756D03*
X0164720Y0327787D03*
X0164720Y0328126D03*
X0164720Y0328465D03*
X0164720Y0328803D03*
X0164720Y0329142D03*
X0164720Y0329480D03*
X0161335Y0328803D03*
X0161335Y0328465D03*
X0161335Y0328126D03*
X0161335Y0327787D03*
X0161335Y0327449D03*
X0161335Y0327110D03*
X0161335Y0326772D03*
X0161335Y0326433D03*
X0161335Y0326094D03*
X0158965Y0326094D03*
X0158287Y0326772D03*
X0158287Y0327110D03*
X0158287Y0327449D03*
X0158287Y0327787D03*
X0158287Y0328126D03*
X0158965Y0328465D03*
X0158965Y0328803D03*
X0160319Y0333205D03*
X0160319Y0333543D03*
X0160319Y0333882D03*
X0160319Y0334220D03*
X0160319Y0334559D03*
X0160319Y0334898D03*
X0160319Y0335236D03*
X0160319Y0335575D03*
X0160319Y0335913D03*
X0160319Y0336252D03*
X0160319Y0336591D03*
X0160319Y0336929D03*
X0160319Y0337268D03*
X0160319Y0337606D03*
X0160319Y0337945D03*
X0160319Y0338283D03*
X0160319Y0338622D03*
X0160319Y0338961D03*
X0160319Y0339299D03*
X0160319Y0339638D03*
X0160319Y0339976D03*
X0160319Y0340315D03*
X0160319Y0340654D03*
X0160319Y0340992D03*
X0160319Y0341331D03*
X0160996Y0343024D03*
X0162689Y0333205D03*
X0154902Y0329480D03*
X0151854Y0329480D03*
X0142374Y0329480D03*
X0142374Y0329142D03*
X0142374Y0328803D03*
X0142374Y0328465D03*
X0142374Y0328126D03*
X0142374Y0327787D03*
X0142374Y0327449D03*
X0142374Y0327110D03*
X0142374Y0326772D03*
X0142374Y0326433D03*
X0142374Y0326094D03*
X0139327Y0334898D03*
X0139327Y0335236D03*
X0139327Y0335575D03*
X0139327Y0335913D03*
X0139327Y0336252D03*
X0139327Y0336591D03*
X0139327Y0336929D03*
X0139327Y0339299D03*
X0139327Y0339638D03*
X0139327Y0339976D03*
X0139327Y0340315D03*
X0139327Y0340654D03*
X0139327Y0340992D03*
X0139327Y0341331D03*
X0131878Y0340654D03*
X0133571Y0328803D03*
X0133571Y0328465D03*
X0133571Y0326094D03*
X0123413Y0326094D03*
X0123413Y0326433D03*
X0123413Y0326772D03*
X0123413Y0328126D03*
X0123413Y0328465D03*
X0116980Y0328465D03*
X0116980Y0328803D03*
X0116980Y0328126D03*
X0116980Y0327787D03*
X0116980Y0327449D03*
X0116980Y0327110D03*
X0116980Y0326772D03*
X0116980Y0326433D03*
X0116980Y0326094D03*
X0114610Y0326094D03*
X0113933Y0326772D03*
X0113933Y0327110D03*
X0113933Y0327449D03*
X0113933Y0327787D03*
X0113933Y0328126D03*
X0114610Y0328465D03*
X0114610Y0328803D03*
X0108854Y0328803D03*
X0108854Y0328465D03*
X0108854Y0328126D03*
X0108854Y0327787D03*
X0108854Y0327449D03*
X0108854Y0327110D03*
X0108854Y0326772D03*
X0108854Y0326433D03*
X0108854Y0326094D03*
X0100390Y0336252D03*
X0091587Y0328803D03*
X0085492Y0334220D03*
D13*
X0087693Y0338622D03*
X0087693Y0338961D03*
X0087693Y0339299D03*
X0084984Y0328465D03*
X0082614Y0326433D03*
X0082614Y0326094D03*
X0115457Y0339976D03*
X0189945Y0333882D03*
X0189945Y0333543D03*
X0189945Y0333205D03*
X0189945Y0332866D03*
X0191976Y0332528D03*
X0191976Y0332189D03*
X0191976Y0331850D03*
X0190622Y0330157D03*
X0237323Y0096843D03*
X0237661Y0094811D03*
X0234276Y0094811D03*
X0215992Y0043008D03*
X0216331Y0040976D03*
X0212945Y0040976D03*
X0209898Y0039283D03*
X0209559Y0038606D03*
X0069386Y0042669D03*
X0065661Y0043685D03*
X0066000Y0045378D03*
X0064984Y0040299D03*
X0065323Y0039622D03*
X0068709Y0032173D03*
X0047717Y0086685D03*
X0042976Y0096843D03*
D14*
X0047886Y0087024D03*
X0065154Y0040976D03*
X0068878Y0032512D03*
X0214130Y0047071D03*
X0234106Y0088378D03*
X0230720Y0090748D03*
X0235461Y0100906D03*
X0160319Y0325417D03*
X0160319Y0325756D03*
X0160319Y0329142D03*
X0135264Y0329142D03*
X0135264Y0325417D03*
X0115965Y0325417D03*
X0115965Y0325756D03*
X0115965Y0329142D03*
X0111902Y0338622D03*
X0111563Y0338961D03*
X0111224Y0339299D03*
X0110886Y0339638D03*
X0110547Y0339976D03*
X0105130Y0339976D03*
X0105130Y0339638D03*
X0105130Y0339299D03*
X0105130Y0336252D03*
X0101067Y0334220D03*
X0100728Y0340654D03*
X0096665Y0340654D03*
X0096665Y0340992D03*
X0093280Y0336929D03*
X0092941Y0336591D03*
X0092264Y0338961D03*
X0091587Y0340654D03*
X0087185Y0340315D03*
X0083122Y0340654D03*
X0085154Y0334559D03*
X0090232Y0329142D03*
X0090232Y0325756D03*
X0090232Y0325417D03*
X0196547Y0331173D03*
X0196547Y0331512D03*
D15*
X0147453Y0327449D03*
X0135602Y0338961D03*
X0122059Y0327449D03*
X0114610Y0340315D03*
X0108854Y0329480D03*
X0108854Y0329142D03*
X0108854Y0325756D03*
X0108854Y0325417D03*
X0102421Y0329142D03*
X0092264Y0335913D03*
X0091925Y0335575D03*
X0087185Y0340654D03*
X0085154Y0342685D03*
X0048224Y0087362D03*
X0064815Y0041992D03*
X0069217Y0032850D03*
D16*
X0069555Y0033189D03*
X0048563Y0087701D03*
X0043823Y0097858D03*
X0045516Y0098535D03*
X0128154Y0333205D03*
X0128154Y0333543D03*
X0135602Y0333543D03*
X0135602Y0333205D03*
X0135602Y0342346D03*
X0135602Y0342685D03*
X0135602Y0343024D03*
X0174201Y0343024D03*
X0174201Y0342685D03*
X0233429Y0089055D03*
D17*
X0235461Y0095827D03*
X0235461Y0096165D03*
X0236138Y0099890D03*
X0214807Y0046055D03*
X0214130Y0042331D03*
X0214130Y0041992D03*
X0069894Y0033528D03*
X0048902Y0088039D03*
X0085154Y0335236D03*
X0085154Y0342008D03*
X0094972Y0337606D03*
X0094972Y0337268D03*
X0126799Y0336929D03*
X0126799Y0336591D03*
X0175217Y0338961D03*
X0175217Y0339299D03*
X0175217Y0339638D03*
D18*
X0174031Y0342346D03*
X0135433Y0333882D03*
X0127984Y0333882D03*
X0084984Y0334898D03*
X0084984Y0342346D03*
X0046024Y0098874D03*
X0050764Y0088717D03*
X0050087Y0088378D03*
X0071756Y0034205D03*
X0071079Y0033866D03*
X0213283Y0036913D03*
X0216669Y0045378D03*
X0215992Y0045717D03*
X0214638Y0046394D03*
X0231906Y0089732D03*
X0231228Y0090071D03*
X0235969Y0100228D03*
X0237323Y0099551D03*
X0238000Y0099213D03*
D19*
X0232752Y0096843D03*
X0234783Y0087701D03*
X0211421Y0043008D03*
X0208035Y0035559D03*
X0208713Y0033866D03*
X0072941Y0035559D03*
X0069217Y0042331D03*
X0066508Y0047071D03*
X0051949Y0090071D03*
X0165059Y0326094D03*
X0165059Y0326433D03*
X0167429Y0328465D03*
X0167429Y0328803D03*
X0172508Y0329142D03*
X0172508Y0329480D03*
X0180634Y0334220D03*
X0180634Y0334559D03*
X0180634Y0334898D03*
X0180634Y0335236D03*
X0180634Y0335575D03*
X0180634Y0335913D03*
X0180634Y0336252D03*
X0180634Y0336591D03*
X0180634Y0336929D03*
X0180634Y0337268D03*
X0180634Y0337606D03*
X0180634Y0337945D03*
X0180634Y0338283D03*
X0180634Y0338622D03*
X0180634Y0338961D03*
X0180634Y0339299D03*
X0180634Y0339638D03*
X0180634Y0339976D03*
X0180634Y0340315D03*
X0180634Y0340654D03*
X0180634Y0340992D03*
X0180634Y0341331D03*
X0180634Y0341669D03*
X0180634Y0342008D03*
X0189098Y0341669D03*
X0189098Y0341331D03*
X0189098Y0340992D03*
X0189098Y0340654D03*
X0189098Y0340315D03*
X0189098Y0339976D03*
X0189098Y0339638D03*
X0189098Y0339299D03*
X0189098Y0338961D03*
X0189098Y0338622D03*
X0189098Y0338283D03*
X0189098Y0337945D03*
X0189098Y0337606D03*
X0189098Y0337268D03*
X0189098Y0336929D03*
X0189098Y0336591D03*
X0188760Y0331850D03*
X0188760Y0331512D03*
X0188760Y0331173D03*
X0188760Y0330835D03*
X0190791Y0330496D03*
X0190791Y0329819D03*
X0190791Y0329480D03*
X0197224Y0336591D03*
X0197224Y0336929D03*
X0197224Y0337268D03*
X0197224Y0337606D03*
X0197224Y0337945D03*
X0197224Y0338283D03*
X0197224Y0338622D03*
X0197224Y0338961D03*
X0197224Y0339299D03*
X0197224Y0339638D03*
X0197224Y0339976D03*
X0197224Y0340315D03*
X0197224Y0340654D03*
X0197224Y0340992D03*
X0197224Y0341331D03*
X0197224Y0341669D03*
X0149823Y0341669D03*
X0149823Y0342008D03*
X0149823Y0342346D03*
X0149823Y0342685D03*
X0149823Y0343024D03*
X0149823Y0338622D03*
X0149823Y0338283D03*
X0149823Y0337945D03*
X0149823Y0337606D03*
X0149823Y0337268D03*
X0149823Y0334559D03*
X0149823Y0334220D03*
X0149823Y0333882D03*
X0149823Y0333543D03*
X0149823Y0333205D03*
X0142374Y0333205D03*
X0142374Y0333543D03*
X0142374Y0333882D03*
X0142374Y0334220D03*
X0142374Y0334559D03*
X0142374Y0334898D03*
X0142374Y0335236D03*
X0142374Y0335575D03*
X0142374Y0335913D03*
X0142374Y0336252D03*
X0142374Y0336591D03*
X0142374Y0336929D03*
X0142374Y0337268D03*
X0142374Y0337606D03*
X0142374Y0337945D03*
X0142374Y0338283D03*
X0142374Y0338622D03*
X0142374Y0338961D03*
X0142374Y0339299D03*
X0142374Y0339638D03*
X0142374Y0339976D03*
X0142374Y0340315D03*
X0142374Y0340654D03*
X0142374Y0340992D03*
X0142374Y0341331D03*
X0142374Y0341669D03*
X0142374Y0342008D03*
X0142374Y0342346D03*
X0142374Y0342685D03*
X0142374Y0343024D03*
X0121382Y0343024D03*
X0121382Y0342685D03*
X0121382Y0342346D03*
X0121382Y0342008D03*
X0121382Y0341669D03*
X0121382Y0341331D03*
X0121382Y0340992D03*
X0121382Y0340654D03*
X0121382Y0340315D03*
X0121382Y0339976D03*
X0121382Y0339638D03*
X0121382Y0339299D03*
X0121382Y0338961D03*
X0121382Y0338622D03*
X0121382Y0338283D03*
X0121382Y0337945D03*
X0121382Y0337606D03*
X0121382Y0337268D03*
X0121382Y0336929D03*
X0121382Y0336591D03*
X0121382Y0336252D03*
X0121382Y0335913D03*
X0121382Y0335575D03*
X0121382Y0335236D03*
X0121382Y0334898D03*
X0121382Y0334559D03*
X0121382Y0334220D03*
X0092264Y0334559D03*
X0085154Y0328803D03*
X0085492Y0343024D03*
D20*
X0092433Y0334220D03*
X0085323Y0329480D03*
X0082276Y0329480D03*
X0124260Y0334898D03*
X0124260Y0335236D03*
X0124260Y0335575D03*
X0124260Y0335913D03*
X0124260Y0336252D03*
X0124260Y0338961D03*
X0124260Y0339299D03*
X0124260Y0339638D03*
X0124260Y0339976D03*
X0124260Y0340315D03*
X0124260Y0340654D03*
X0124260Y0340992D03*
X0124260Y0341331D03*
X0124260Y0341669D03*
X0124260Y0342008D03*
X0124260Y0342346D03*
X0124260Y0342685D03*
X0124260Y0343024D03*
X0131709Y0341331D03*
X0131709Y0340992D03*
X0131709Y0340315D03*
X0131709Y0339976D03*
X0131709Y0339638D03*
X0131709Y0339299D03*
X0131709Y0338961D03*
X0131709Y0338622D03*
X0131709Y0338283D03*
X0131709Y0337945D03*
X0131709Y0337606D03*
X0131709Y0337268D03*
X0131709Y0336929D03*
X0131709Y0336591D03*
X0131709Y0336252D03*
X0131709Y0335913D03*
X0131709Y0335575D03*
X0131709Y0335236D03*
X0131709Y0334898D03*
X0161165Y0342346D03*
X0161165Y0342685D03*
X0162858Y0341331D03*
X0162858Y0340992D03*
X0162858Y0340654D03*
X0162858Y0340315D03*
X0162858Y0339976D03*
X0162858Y0339638D03*
X0162858Y0339299D03*
X0162858Y0338961D03*
X0162858Y0338622D03*
X0162858Y0338283D03*
X0162858Y0337945D03*
X0162858Y0337606D03*
X0162858Y0337268D03*
X0162858Y0336929D03*
X0162858Y0336591D03*
X0162858Y0336252D03*
X0162858Y0335913D03*
X0162858Y0335575D03*
X0162858Y0335236D03*
X0162858Y0334898D03*
X0162858Y0334559D03*
X0162858Y0334220D03*
X0162858Y0333882D03*
X0162858Y0333543D03*
X0170307Y0333543D03*
X0170307Y0333205D03*
X0170307Y0333882D03*
X0170307Y0334220D03*
X0170307Y0334559D03*
X0170307Y0334898D03*
X0170307Y0335236D03*
X0170307Y0335575D03*
X0170307Y0335913D03*
X0170307Y0336252D03*
X0170307Y0336591D03*
X0170307Y0336929D03*
X0170307Y0338961D03*
X0170307Y0339299D03*
X0170307Y0339638D03*
X0170307Y0339976D03*
X0170307Y0340315D03*
X0170307Y0340654D03*
X0170307Y0340992D03*
X0170307Y0341331D03*
X0177756Y0341331D03*
X0177756Y0340992D03*
X0177756Y0340654D03*
X0177756Y0340315D03*
X0177756Y0339976D03*
X0177756Y0336929D03*
X0177756Y0336591D03*
X0177756Y0336252D03*
X0177756Y0335913D03*
X0177756Y0335575D03*
X0177756Y0335236D03*
X0177756Y0334898D03*
X0187236Y0334898D03*
X0187236Y0335236D03*
X0187236Y0335575D03*
X0187236Y0335913D03*
X0187236Y0336252D03*
X0187236Y0336591D03*
X0187236Y0336929D03*
X0187236Y0337268D03*
X0187236Y0337606D03*
X0187236Y0337945D03*
X0187236Y0338283D03*
X0187236Y0338622D03*
X0187236Y0338961D03*
X0187236Y0339299D03*
X0187236Y0339638D03*
X0187236Y0339976D03*
X0187236Y0340315D03*
X0187236Y0340654D03*
X0187236Y0340992D03*
X0187236Y0341331D03*
X0187236Y0341669D03*
X0187236Y0342008D03*
X0187236Y0342346D03*
X0187236Y0342685D03*
X0187236Y0343024D03*
X0187236Y0343362D03*
X0187236Y0343701D03*
X0187236Y0344039D03*
X0187236Y0334559D03*
X0187236Y0334220D03*
X0187236Y0333882D03*
X0187236Y0333543D03*
X0187236Y0333205D03*
X0187236Y0332866D03*
X0187236Y0332528D03*
X0187236Y0332189D03*
X0187236Y0331850D03*
X0187236Y0331512D03*
X0187236Y0331173D03*
X0187236Y0330835D03*
X0187236Y0330496D03*
X0187236Y0330157D03*
X0187236Y0329819D03*
X0187236Y0329480D03*
X0187236Y0329142D03*
X0187236Y0328803D03*
X0187236Y0328465D03*
X0187236Y0328126D03*
X0187236Y0327787D03*
X0187236Y0327449D03*
X0187236Y0327110D03*
X0187575Y0326433D03*
X0187913Y0325756D03*
X0192992Y0328126D03*
X0195024Y0328126D03*
X0196378Y0329819D03*
X0047717Y0100567D03*
X0041283Y0099890D03*
X0044669Y0092441D03*
X0052457Y0090409D03*
X0062276Y0045378D03*
X0064646Y0038945D03*
X0065661Y0037929D03*
X0073449Y0035898D03*
X0210575Y0033866D03*
X0211591Y0037591D03*
X0214299Y0043008D03*
X0218362Y0043685D03*
X0231228Y0092102D03*
X0235630Y0096843D03*
X0239693Y0097520D03*
D21*
X0238677Y0098197D03*
X0238677Y0098535D03*
X0236646Y0096504D03*
X0233937Y0095488D03*
X0233937Y0095150D03*
X0217346Y0044701D03*
X0217346Y0044362D03*
X0215315Y0042669D03*
X0212606Y0041654D03*
X0212606Y0041315D03*
X0214299Y0037929D03*
X0214299Y0037591D03*
X0210913Y0035559D03*
X0209220Y0034205D03*
X0072433Y0034882D03*
X0064984Y0041315D03*
X0064984Y0041654D03*
X0067354Y0046055D03*
X0067016Y0046394D03*
X0067016Y0046732D03*
X0051441Y0089394D03*
X0046701Y0099551D03*
X0043315Y0097181D03*
X0096157Y0325417D03*
X0096157Y0325756D03*
X0096157Y0329142D03*
X0096157Y0329480D03*
X0102591Y0329480D03*
X0105299Y0336591D03*
X0105299Y0336929D03*
X0105299Y0337268D03*
X0104961Y0340315D03*
X0104961Y0340654D03*
X0109701Y0336929D03*
X0110378Y0340315D03*
X0122228Y0327110D03*
X0127984Y0334220D03*
X0127984Y0334559D03*
X0127984Y0334898D03*
X0127984Y0335236D03*
X0127984Y0335575D03*
X0127984Y0335913D03*
X0127984Y0336252D03*
X0127984Y0338283D03*
X0127984Y0338622D03*
X0127984Y0338961D03*
X0127984Y0339299D03*
X0127984Y0339638D03*
X0127984Y0339976D03*
X0127984Y0340315D03*
X0127984Y0340654D03*
X0127984Y0340992D03*
X0127984Y0341331D03*
X0127984Y0341669D03*
X0127984Y0342008D03*
X0135433Y0342008D03*
X0135433Y0341669D03*
X0135433Y0341331D03*
X0135433Y0340992D03*
X0135433Y0340654D03*
X0135433Y0340315D03*
X0135433Y0339976D03*
X0135433Y0339638D03*
X0135433Y0339299D03*
X0135433Y0337945D03*
X0135433Y0337606D03*
X0135433Y0337268D03*
X0135433Y0336929D03*
X0135433Y0336591D03*
X0135433Y0336252D03*
X0135433Y0335913D03*
X0135433Y0335575D03*
X0135433Y0335236D03*
X0135433Y0334898D03*
X0135433Y0334559D03*
X0135433Y0334220D03*
X0135094Y0325756D03*
X0147622Y0327110D03*
X0156425Y0333205D03*
X0156425Y0333543D03*
X0156425Y0333882D03*
X0156425Y0334220D03*
X0156425Y0334559D03*
X0156425Y0334898D03*
X0156425Y0335236D03*
X0156425Y0335575D03*
X0156425Y0335913D03*
X0156425Y0336252D03*
X0156425Y0336591D03*
X0156425Y0336929D03*
X0156425Y0337268D03*
X0156425Y0337606D03*
X0156425Y0337945D03*
X0156425Y0338283D03*
X0156425Y0338622D03*
X0156425Y0338961D03*
X0156425Y0339299D03*
X0156425Y0339638D03*
X0156425Y0339976D03*
X0156425Y0340315D03*
X0156425Y0340654D03*
X0156425Y0340992D03*
X0156425Y0341331D03*
X0156425Y0341669D03*
X0156425Y0342008D03*
X0166583Y0342008D03*
X0166583Y0341669D03*
X0166583Y0341331D03*
X0166583Y0340992D03*
X0166583Y0340654D03*
X0166583Y0340315D03*
X0166583Y0339976D03*
X0166583Y0339638D03*
X0166583Y0339299D03*
X0166583Y0338961D03*
X0166583Y0338622D03*
X0166583Y0338283D03*
X0166583Y0337945D03*
X0166583Y0337606D03*
X0166583Y0337268D03*
X0166583Y0336929D03*
X0166583Y0336591D03*
X0166583Y0336252D03*
X0166583Y0335913D03*
X0166583Y0335575D03*
X0166583Y0335236D03*
X0166583Y0334898D03*
X0166583Y0334559D03*
X0166583Y0334220D03*
X0166583Y0333882D03*
X0166583Y0333543D03*
X0166583Y0333205D03*
X0174031Y0333205D03*
X0174031Y0333543D03*
X0174031Y0333882D03*
X0174031Y0334220D03*
X0174031Y0334559D03*
X0174031Y0334898D03*
X0174031Y0335236D03*
X0174031Y0335575D03*
X0174031Y0335913D03*
X0174031Y0336252D03*
X0174031Y0336591D03*
X0174031Y0336929D03*
X0174031Y0337268D03*
X0174031Y0337606D03*
X0174031Y0337945D03*
X0174031Y0338283D03*
X0174031Y0338622D03*
X0174031Y0339976D03*
X0174031Y0340315D03*
X0174031Y0340654D03*
X0174031Y0340992D03*
X0174031Y0341331D03*
X0174031Y0341669D03*
X0174031Y0342008D03*
X0092433Y0336252D03*
X0091756Y0335236D03*
D22*
X0094634Y0342685D03*
X0083799Y0327449D03*
X0083799Y0327110D03*
X0110209Y0336591D03*
X0127476Y0337268D03*
X0128492Y0342685D03*
X0128492Y0343024D03*
X0135941Y0338622D03*
X0135941Y0338283D03*
X0147114Y0329142D03*
X0147114Y0325417D03*
X0153547Y0327110D03*
X0153547Y0327449D03*
X0156933Y0342685D03*
X0156933Y0343024D03*
X0172508Y0326772D03*
X0178941Y0327110D03*
X0178941Y0327449D03*
X0238508Y0098874D03*
X0217177Y0045039D03*
X0213453Y0037252D03*
X0213114Y0036575D03*
X0213114Y0036236D03*
X0210067Y0034882D03*
X0210067Y0034543D03*
X0072264Y0034543D03*
X0051272Y0089055D03*
X0046531Y0099213D03*
D23*
X0047039Y0099890D03*
X0051780Y0089732D03*
X0064984Y0040638D03*
X0072772Y0035220D03*
X0237661Y0095488D03*
X0084646Y0327787D03*
X0090063Y0329480D03*
X0087354Y0336591D03*
X0087354Y0339976D03*
X0082614Y0339976D03*
X0082614Y0338622D03*
X0082953Y0337606D03*
X0083291Y0336591D03*
X0091756Y0339299D03*
X0091756Y0339638D03*
X0091756Y0339976D03*
X0091756Y0340315D03*
X0096496Y0340315D03*
X0096496Y0339976D03*
X0096496Y0339638D03*
X0096496Y0339299D03*
X0096496Y0338961D03*
X0101913Y0339299D03*
X0104622Y0343024D03*
X0112409Y0338283D03*
X0112748Y0337945D03*
X0113087Y0337606D03*
X0113425Y0337268D03*
X0113764Y0336929D03*
X0114102Y0336591D03*
X0116134Y0329480D03*
X0135094Y0329480D03*
X0160488Y0329480D03*
X0196378Y0330835D03*
D24*
X0103268Y0342685D03*
X0209898Y0035220D03*
X0212268Y0035898D03*
D25*
X0209728Y0038945D03*
X0210067Y0039622D03*
X0211760Y0042669D03*
X0213791Y0047409D03*
X0216500Y0041654D03*
X0216500Y0041315D03*
X0216161Y0040638D03*
X0234445Y0088039D03*
X0230382Y0091087D03*
X0230382Y0091425D03*
X0233091Y0096504D03*
X0235122Y0101244D03*
X0237831Y0095150D03*
X0237492Y0094472D03*
X0066508Y0045717D03*
X0066169Y0045039D03*
X0066169Y0044701D03*
X0065831Y0044362D03*
X0065492Y0044024D03*
X0065831Y0043346D03*
X0065831Y0043008D03*
X0066169Y0042669D03*
X0066169Y0042331D03*
X0065154Y0039961D03*
X0082783Y0326772D03*
X0084815Y0328126D03*
X0091925Y0334898D03*
X0096327Y0334898D03*
X0096327Y0335236D03*
X0096327Y0335575D03*
X0096327Y0335913D03*
X0096327Y0336252D03*
X0096327Y0336591D03*
X0096327Y0336929D03*
X0096327Y0334559D03*
X0093957Y0343024D03*
X0087524Y0339638D03*
X0087524Y0338283D03*
X0087524Y0337945D03*
X0087524Y0337606D03*
X0087524Y0337268D03*
X0087524Y0336929D03*
X0083122Y0336929D03*
X0083122Y0337268D03*
X0082783Y0337945D03*
X0082783Y0338283D03*
X0082445Y0338961D03*
X0082445Y0339299D03*
X0082445Y0339638D03*
X0082783Y0340315D03*
X0109193Y0337268D03*
X0114610Y0334220D03*
X0121720Y0333882D03*
X0121720Y0333543D03*
X0121720Y0333205D03*
X0165398Y0326772D03*
X0167091Y0327787D03*
X0167091Y0328126D03*
X0180295Y0333205D03*
X0180295Y0333543D03*
X0180295Y0333882D03*
X0180295Y0342346D03*
X0180295Y0342685D03*
X0180295Y0343024D03*
D26*
X0166921Y0343024D03*
X0166921Y0342685D03*
X0166921Y0342346D03*
X0156764Y0342346D03*
X0151008Y0341331D03*
X0151008Y0340992D03*
X0151008Y0340654D03*
X0151008Y0340315D03*
X0151008Y0339976D03*
X0151008Y0339638D03*
X0151008Y0339299D03*
X0151008Y0338961D03*
X0151008Y0336929D03*
X0151008Y0336591D03*
X0151008Y0336252D03*
X0151008Y0335913D03*
X0151008Y0335575D03*
X0151008Y0335236D03*
X0151008Y0334898D03*
X0147283Y0329480D03*
X0147283Y0325756D03*
X0140850Y0325756D03*
X0140850Y0325417D03*
X0127646Y0337606D03*
X0127646Y0337945D03*
X0128323Y0342346D03*
X0121890Y0329480D03*
X0121890Y0329142D03*
X0121890Y0325756D03*
X0121890Y0325417D03*
X0092094Y0340992D03*
X0166244Y0327449D03*
X0166244Y0327110D03*
X0235630Y0100567D03*
X0230890Y0090409D03*
X0233937Y0088717D03*
X0214299Y0046732D03*
X0043654Y0097520D03*
D27*
X0085323Y0335575D03*
X0085323Y0341669D03*
X0103945Y0337945D03*
X0112071Y0343024D03*
X0233260Y0089394D03*
D28*
X0102929Y0334559D03*
X0102929Y0334898D03*
X0103268Y0335575D03*
X0103268Y0335913D03*
X0094803Y0342008D03*
X0085323Y0341331D03*
X0085323Y0336252D03*
X0044669Y0098197D03*
D29*
X0005437Y0002252D02*
X0277091Y0002252D01*
X0277215Y0002254D01*
X0277338Y0002260D01*
X0277462Y0002269D01*
X0277584Y0002283D01*
X0277707Y0002300D01*
X0277829Y0002322D01*
X0277950Y0002347D01*
X0278070Y0002376D01*
X0278189Y0002408D01*
X0278308Y0002445D01*
X0278425Y0002485D01*
X0278540Y0002528D01*
X0278655Y0002576D01*
X0278767Y0002627D01*
X0278878Y0002681D01*
X0278988Y0002739D01*
X0279095Y0002800D01*
X0279201Y0002865D01*
X0279304Y0002933D01*
X0279405Y0003004D01*
X0279504Y0003078D01*
X0279601Y0003155D01*
X0279695Y0003236D01*
X0279786Y0003319D01*
X0279875Y0003405D01*
X0279961Y0003494D01*
X0280044Y0003585D01*
X0280125Y0003679D01*
X0280202Y0003776D01*
X0280276Y0003875D01*
X0280347Y0003976D01*
X0280415Y0004079D01*
X0280480Y0004185D01*
X0280541Y0004292D01*
X0280599Y0004402D01*
X0280653Y0004513D01*
X0280704Y0004625D01*
X0280752Y0004740D01*
X0280795Y0004855D01*
X0280835Y0004972D01*
X0280872Y0005091D01*
X0280904Y0005210D01*
X0280933Y0005330D01*
X0280958Y0005451D01*
X0280980Y0005573D01*
X0280997Y0005696D01*
X0281011Y0005818D01*
X0281020Y0005942D01*
X0281026Y0006065D01*
X0281028Y0006189D01*
X0281028Y0368394D01*
X0281026Y0368518D01*
X0281020Y0368641D01*
X0281011Y0368765D01*
X0280997Y0368887D01*
X0280980Y0369010D01*
X0280958Y0369132D01*
X0280933Y0369253D01*
X0280904Y0369373D01*
X0280872Y0369492D01*
X0280835Y0369611D01*
X0280795Y0369728D01*
X0280752Y0369843D01*
X0280704Y0369958D01*
X0280653Y0370070D01*
X0280599Y0370181D01*
X0280541Y0370291D01*
X0280480Y0370398D01*
X0280415Y0370504D01*
X0280347Y0370607D01*
X0280276Y0370708D01*
X0280202Y0370807D01*
X0280125Y0370904D01*
X0280044Y0370998D01*
X0279961Y0371089D01*
X0279875Y0371178D01*
X0279786Y0371264D01*
X0279695Y0371347D01*
X0279601Y0371428D01*
X0279504Y0371505D01*
X0279405Y0371579D01*
X0279304Y0371650D01*
X0279201Y0371718D01*
X0279095Y0371783D01*
X0278988Y0371844D01*
X0278878Y0371902D01*
X0278767Y0371956D01*
X0278655Y0372007D01*
X0278540Y0372055D01*
X0278425Y0372098D01*
X0278308Y0372138D01*
X0278189Y0372175D01*
X0278070Y0372207D01*
X0277950Y0372236D01*
X0277829Y0372261D01*
X0277707Y0372283D01*
X0277584Y0372300D01*
X0277462Y0372314D01*
X0277338Y0372323D01*
X0277215Y0372329D01*
X0277091Y0372331D01*
X0005437Y0372331D01*
X0005313Y0372329D01*
X0005190Y0372323D01*
X0005066Y0372314D01*
X0004944Y0372300D01*
X0004821Y0372283D01*
X0004699Y0372261D01*
X0004578Y0372236D01*
X0004458Y0372207D01*
X0004339Y0372175D01*
X0004220Y0372138D01*
X0004103Y0372098D01*
X0003988Y0372055D01*
X0003873Y0372007D01*
X0003761Y0371956D01*
X0003650Y0371902D01*
X0003540Y0371844D01*
X0003433Y0371783D01*
X0003327Y0371718D01*
X0003224Y0371650D01*
X0003123Y0371579D01*
X0003024Y0371505D01*
X0002927Y0371428D01*
X0002833Y0371347D01*
X0002742Y0371264D01*
X0002653Y0371178D01*
X0002567Y0371089D01*
X0002484Y0370998D01*
X0002403Y0370904D01*
X0002326Y0370807D01*
X0002252Y0370708D01*
X0002181Y0370607D01*
X0002113Y0370504D01*
X0002048Y0370398D01*
X0001987Y0370291D01*
X0001929Y0370181D01*
X0001875Y0370070D01*
X0001824Y0369958D01*
X0001776Y0369843D01*
X0001733Y0369728D01*
X0001693Y0369611D01*
X0001656Y0369492D01*
X0001624Y0369373D01*
X0001595Y0369253D01*
X0001570Y0369132D01*
X0001548Y0369010D01*
X0001531Y0368887D01*
X0001517Y0368765D01*
X0001508Y0368641D01*
X0001502Y0368518D01*
X0001500Y0368394D01*
X0001500Y0006189D01*
X0001502Y0006065D01*
X0001508Y0005942D01*
X0001517Y0005818D01*
X0001531Y0005696D01*
X0001548Y0005573D01*
X0001570Y0005451D01*
X0001595Y0005330D01*
X0001624Y0005210D01*
X0001656Y0005091D01*
X0001693Y0004972D01*
X0001733Y0004855D01*
X0001776Y0004740D01*
X0001824Y0004625D01*
X0001875Y0004513D01*
X0001929Y0004402D01*
X0001987Y0004292D01*
X0002048Y0004185D01*
X0002113Y0004079D01*
X0002181Y0003976D01*
X0002252Y0003875D01*
X0002326Y0003776D01*
X0002403Y0003679D01*
X0002484Y0003585D01*
X0002567Y0003494D01*
X0002653Y0003405D01*
X0002742Y0003319D01*
X0002833Y0003236D01*
X0002927Y0003155D01*
X0003024Y0003078D01*
X0003123Y0003004D01*
X0003224Y0002933D01*
X0003327Y0002865D01*
X0003433Y0002800D01*
X0003540Y0002739D01*
X0003650Y0002681D01*
X0003761Y0002627D01*
X0003873Y0002576D01*
X0003988Y0002528D01*
X0004103Y0002485D01*
X0004220Y0002445D01*
X0004339Y0002408D01*
X0004458Y0002376D01*
X0004578Y0002347D01*
X0004699Y0002322D01*
X0004821Y0002300D01*
X0004944Y0002283D01*
X0005066Y0002269D01*
X0005190Y0002260D01*
X0005313Y0002254D01*
X0005437Y0002252D01*
X0011342Y0018000D02*
X0011344Y0018153D01*
X0011350Y0018307D01*
X0011360Y0018460D01*
X0011374Y0018612D01*
X0011392Y0018765D01*
X0011414Y0018916D01*
X0011439Y0019067D01*
X0011469Y0019218D01*
X0011503Y0019368D01*
X0011540Y0019516D01*
X0011581Y0019664D01*
X0011626Y0019810D01*
X0011675Y0019956D01*
X0011728Y0020100D01*
X0011784Y0020242D01*
X0011844Y0020383D01*
X0011908Y0020523D01*
X0011975Y0020661D01*
X0012046Y0020797D01*
X0012121Y0020931D01*
X0012198Y0021063D01*
X0012280Y0021193D01*
X0012364Y0021321D01*
X0012452Y0021447D01*
X0012543Y0021570D01*
X0012637Y0021691D01*
X0012735Y0021809D01*
X0012835Y0021925D01*
X0012939Y0022038D01*
X0013045Y0022149D01*
X0013154Y0022257D01*
X0013266Y0022362D01*
X0013380Y0022463D01*
X0013498Y0022562D01*
X0013617Y0022658D01*
X0013739Y0022751D01*
X0013864Y0022840D01*
X0013991Y0022927D01*
X0014120Y0023009D01*
X0014251Y0023089D01*
X0014384Y0023165D01*
X0014519Y0023238D01*
X0014656Y0023307D01*
X0014795Y0023372D01*
X0014935Y0023434D01*
X0015077Y0023492D01*
X0015220Y0023547D01*
X0015365Y0023598D01*
X0015511Y0023645D01*
X0015658Y0023688D01*
X0015806Y0023727D01*
X0015955Y0023763D01*
X0016105Y0023794D01*
X0016256Y0023822D01*
X0016407Y0023846D01*
X0016560Y0023866D01*
X0016712Y0023882D01*
X0016865Y0023894D01*
X0017018Y0023902D01*
X0017171Y0023906D01*
X0017325Y0023906D01*
X0017478Y0023902D01*
X0017631Y0023894D01*
X0017784Y0023882D01*
X0017936Y0023866D01*
X0018089Y0023846D01*
X0018240Y0023822D01*
X0018391Y0023794D01*
X0018541Y0023763D01*
X0018690Y0023727D01*
X0018838Y0023688D01*
X0018985Y0023645D01*
X0019131Y0023598D01*
X0019276Y0023547D01*
X0019419Y0023492D01*
X0019561Y0023434D01*
X0019701Y0023372D01*
X0019840Y0023307D01*
X0019977Y0023238D01*
X0020112Y0023165D01*
X0020245Y0023089D01*
X0020376Y0023009D01*
X0020505Y0022927D01*
X0020632Y0022840D01*
X0020757Y0022751D01*
X0020879Y0022658D01*
X0020998Y0022562D01*
X0021116Y0022463D01*
X0021230Y0022362D01*
X0021342Y0022257D01*
X0021451Y0022149D01*
X0021557Y0022038D01*
X0021661Y0021925D01*
X0021761Y0021809D01*
X0021859Y0021691D01*
X0021953Y0021570D01*
X0022044Y0021447D01*
X0022132Y0021321D01*
X0022216Y0021193D01*
X0022298Y0021063D01*
X0022375Y0020931D01*
X0022450Y0020797D01*
X0022521Y0020661D01*
X0022588Y0020523D01*
X0022652Y0020383D01*
X0022712Y0020242D01*
X0022768Y0020100D01*
X0022821Y0019956D01*
X0022870Y0019810D01*
X0022915Y0019664D01*
X0022956Y0019516D01*
X0022993Y0019368D01*
X0023027Y0019218D01*
X0023057Y0019067D01*
X0023082Y0018916D01*
X0023104Y0018765D01*
X0023122Y0018612D01*
X0023136Y0018460D01*
X0023146Y0018307D01*
X0023152Y0018153D01*
X0023154Y0018000D01*
X0023152Y0017847D01*
X0023146Y0017693D01*
X0023136Y0017540D01*
X0023122Y0017388D01*
X0023104Y0017235D01*
X0023082Y0017084D01*
X0023057Y0016933D01*
X0023027Y0016782D01*
X0022993Y0016632D01*
X0022956Y0016484D01*
X0022915Y0016336D01*
X0022870Y0016190D01*
X0022821Y0016044D01*
X0022768Y0015900D01*
X0022712Y0015758D01*
X0022652Y0015617D01*
X0022588Y0015477D01*
X0022521Y0015339D01*
X0022450Y0015203D01*
X0022375Y0015069D01*
X0022298Y0014937D01*
X0022216Y0014807D01*
X0022132Y0014679D01*
X0022044Y0014553D01*
X0021953Y0014430D01*
X0021859Y0014309D01*
X0021761Y0014191D01*
X0021661Y0014075D01*
X0021557Y0013962D01*
X0021451Y0013851D01*
X0021342Y0013743D01*
X0021230Y0013638D01*
X0021116Y0013537D01*
X0020998Y0013438D01*
X0020879Y0013342D01*
X0020757Y0013249D01*
X0020632Y0013160D01*
X0020505Y0013073D01*
X0020376Y0012991D01*
X0020245Y0012911D01*
X0020112Y0012835D01*
X0019977Y0012762D01*
X0019840Y0012693D01*
X0019701Y0012628D01*
X0019561Y0012566D01*
X0019419Y0012508D01*
X0019276Y0012453D01*
X0019131Y0012402D01*
X0018985Y0012355D01*
X0018838Y0012312D01*
X0018690Y0012273D01*
X0018541Y0012237D01*
X0018391Y0012206D01*
X0018240Y0012178D01*
X0018089Y0012154D01*
X0017936Y0012134D01*
X0017784Y0012118D01*
X0017631Y0012106D01*
X0017478Y0012098D01*
X0017325Y0012094D01*
X0017171Y0012094D01*
X0017018Y0012098D01*
X0016865Y0012106D01*
X0016712Y0012118D01*
X0016560Y0012134D01*
X0016407Y0012154D01*
X0016256Y0012178D01*
X0016105Y0012206D01*
X0015955Y0012237D01*
X0015806Y0012273D01*
X0015658Y0012312D01*
X0015511Y0012355D01*
X0015365Y0012402D01*
X0015220Y0012453D01*
X0015077Y0012508D01*
X0014935Y0012566D01*
X0014795Y0012628D01*
X0014656Y0012693D01*
X0014519Y0012762D01*
X0014384Y0012835D01*
X0014251Y0012911D01*
X0014120Y0012991D01*
X0013991Y0013073D01*
X0013864Y0013160D01*
X0013739Y0013249D01*
X0013617Y0013342D01*
X0013498Y0013438D01*
X0013380Y0013537D01*
X0013266Y0013638D01*
X0013154Y0013743D01*
X0013045Y0013851D01*
X0012939Y0013962D01*
X0012835Y0014075D01*
X0012735Y0014191D01*
X0012637Y0014309D01*
X0012543Y0014430D01*
X0012452Y0014553D01*
X0012364Y0014679D01*
X0012280Y0014807D01*
X0012198Y0014937D01*
X0012121Y0015069D01*
X0012046Y0015203D01*
X0011975Y0015339D01*
X0011908Y0015477D01*
X0011844Y0015617D01*
X0011784Y0015758D01*
X0011728Y0015900D01*
X0011675Y0016044D01*
X0011626Y0016190D01*
X0011581Y0016336D01*
X0011540Y0016484D01*
X0011503Y0016632D01*
X0011469Y0016782D01*
X0011439Y0016933D01*
X0011414Y0017084D01*
X0011392Y0017235D01*
X0011374Y0017388D01*
X0011360Y0017540D01*
X0011350Y0017693D01*
X0011344Y0017847D01*
X0011342Y0018000D01*
X0259374Y0018000D02*
X0259376Y0018153D01*
X0259382Y0018307D01*
X0259392Y0018460D01*
X0259406Y0018612D01*
X0259424Y0018765D01*
X0259446Y0018916D01*
X0259471Y0019067D01*
X0259501Y0019218D01*
X0259535Y0019368D01*
X0259572Y0019516D01*
X0259613Y0019664D01*
X0259658Y0019810D01*
X0259707Y0019956D01*
X0259760Y0020100D01*
X0259816Y0020242D01*
X0259876Y0020383D01*
X0259940Y0020523D01*
X0260007Y0020661D01*
X0260078Y0020797D01*
X0260153Y0020931D01*
X0260230Y0021063D01*
X0260312Y0021193D01*
X0260396Y0021321D01*
X0260484Y0021447D01*
X0260575Y0021570D01*
X0260669Y0021691D01*
X0260767Y0021809D01*
X0260867Y0021925D01*
X0260971Y0022038D01*
X0261077Y0022149D01*
X0261186Y0022257D01*
X0261298Y0022362D01*
X0261412Y0022463D01*
X0261530Y0022562D01*
X0261649Y0022658D01*
X0261771Y0022751D01*
X0261896Y0022840D01*
X0262023Y0022927D01*
X0262152Y0023009D01*
X0262283Y0023089D01*
X0262416Y0023165D01*
X0262551Y0023238D01*
X0262688Y0023307D01*
X0262827Y0023372D01*
X0262967Y0023434D01*
X0263109Y0023492D01*
X0263252Y0023547D01*
X0263397Y0023598D01*
X0263543Y0023645D01*
X0263690Y0023688D01*
X0263838Y0023727D01*
X0263987Y0023763D01*
X0264137Y0023794D01*
X0264288Y0023822D01*
X0264439Y0023846D01*
X0264592Y0023866D01*
X0264744Y0023882D01*
X0264897Y0023894D01*
X0265050Y0023902D01*
X0265203Y0023906D01*
X0265357Y0023906D01*
X0265510Y0023902D01*
X0265663Y0023894D01*
X0265816Y0023882D01*
X0265968Y0023866D01*
X0266121Y0023846D01*
X0266272Y0023822D01*
X0266423Y0023794D01*
X0266573Y0023763D01*
X0266722Y0023727D01*
X0266870Y0023688D01*
X0267017Y0023645D01*
X0267163Y0023598D01*
X0267308Y0023547D01*
X0267451Y0023492D01*
X0267593Y0023434D01*
X0267733Y0023372D01*
X0267872Y0023307D01*
X0268009Y0023238D01*
X0268144Y0023165D01*
X0268277Y0023089D01*
X0268408Y0023009D01*
X0268537Y0022927D01*
X0268664Y0022840D01*
X0268789Y0022751D01*
X0268911Y0022658D01*
X0269030Y0022562D01*
X0269148Y0022463D01*
X0269262Y0022362D01*
X0269374Y0022257D01*
X0269483Y0022149D01*
X0269589Y0022038D01*
X0269693Y0021925D01*
X0269793Y0021809D01*
X0269891Y0021691D01*
X0269985Y0021570D01*
X0270076Y0021447D01*
X0270164Y0021321D01*
X0270248Y0021193D01*
X0270330Y0021063D01*
X0270407Y0020931D01*
X0270482Y0020797D01*
X0270553Y0020661D01*
X0270620Y0020523D01*
X0270684Y0020383D01*
X0270744Y0020242D01*
X0270800Y0020100D01*
X0270853Y0019956D01*
X0270902Y0019810D01*
X0270947Y0019664D01*
X0270988Y0019516D01*
X0271025Y0019368D01*
X0271059Y0019218D01*
X0271089Y0019067D01*
X0271114Y0018916D01*
X0271136Y0018765D01*
X0271154Y0018612D01*
X0271168Y0018460D01*
X0271178Y0018307D01*
X0271184Y0018153D01*
X0271186Y0018000D01*
X0271184Y0017847D01*
X0271178Y0017693D01*
X0271168Y0017540D01*
X0271154Y0017388D01*
X0271136Y0017235D01*
X0271114Y0017084D01*
X0271089Y0016933D01*
X0271059Y0016782D01*
X0271025Y0016632D01*
X0270988Y0016484D01*
X0270947Y0016336D01*
X0270902Y0016190D01*
X0270853Y0016044D01*
X0270800Y0015900D01*
X0270744Y0015758D01*
X0270684Y0015617D01*
X0270620Y0015477D01*
X0270553Y0015339D01*
X0270482Y0015203D01*
X0270407Y0015069D01*
X0270330Y0014937D01*
X0270248Y0014807D01*
X0270164Y0014679D01*
X0270076Y0014553D01*
X0269985Y0014430D01*
X0269891Y0014309D01*
X0269793Y0014191D01*
X0269693Y0014075D01*
X0269589Y0013962D01*
X0269483Y0013851D01*
X0269374Y0013743D01*
X0269262Y0013638D01*
X0269148Y0013537D01*
X0269030Y0013438D01*
X0268911Y0013342D01*
X0268789Y0013249D01*
X0268664Y0013160D01*
X0268537Y0013073D01*
X0268408Y0012991D01*
X0268277Y0012911D01*
X0268144Y0012835D01*
X0268009Y0012762D01*
X0267872Y0012693D01*
X0267733Y0012628D01*
X0267593Y0012566D01*
X0267451Y0012508D01*
X0267308Y0012453D01*
X0267163Y0012402D01*
X0267017Y0012355D01*
X0266870Y0012312D01*
X0266722Y0012273D01*
X0266573Y0012237D01*
X0266423Y0012206D01*
X0266272Y0012178D01*
X0266121Y0012154D01*
X0265968Y0012134D01*
X0265816Y0012118D01*
X0265663Y0012106D01*
X0265510Y0012098D01*
X0265357Y0012094D01*
X0265203Y0012094D01*
X0265050Y0012098D01*
X0264897Y0012106D01*
X0264744Y0012118D01*
X0264592Y0012134D01*
X0264439Y0012154D01*
X0264288Y0012178D01*
X0264137Y0012206D01*
X0263987Y0012237D01*
X0263838Y0012273D01*
X0263690Y0012312D01*
X0263543Y0012355D01*
X0263397Y0012402D01*
X0263252Y0012453D01*
X0263109Y0012508D01*
X0262967Y0012566D01*
X0262827Y0012628D01*
X0262688Y0012693D01*
X0262551Y0012762D01*
X0262416Y0012835D01*
X0262283Y0012911D01*
X0262152Y0012991D01*
X0262023Y0013073D01*
X0261896Y0013160D01*
X0261771Y0013249D01*
X0261649Y0013342D01*
X0261530Y0013438D01*
X0261412Y0013537D01*
X0261298Y0013638D01*
X0261186Y0013743D01*
X0261077Y0013851D01*
X0260971Y0013962D01*
X0260867Y0014075D01*
X0260767Y0014191D01*
X0260669Y0014309D01*
X0260575Y0014430D01*
X0260484Y0014553D01*
X0260396Y0014679D01*
X0260312Y0014807D01*
X0260230Y0014937D01*
X0260153Y0015069D01*
X0260078Y0015203D01*
X0260007Y0015339D01*
X0259940Y0015477D01*
X0259876Y0015617D01*
X0259816Y0015758D01*
X0259760Y0015900D01*
X0259707Y0016044D01*
X0259658Y0016190D01*
X0259613Y0016336D01*
X0259572Y0016484D01*
X0259535Y0016632D01*
X0259501Y0016782D01*
X0259471Y0016933D01*
X0259446Y0017084D01*
X0259424Y0017235D01*
X0259406Y0017388D01*
X0259392Y0017540D01*
X0259382Y0017693D01*
X0259376Y0017847D01*
X0259374Y0018000D01*
X0259374Y0136110D02*
X0259376Y0136263D01*
X0259382Y0136417D01*
X0259392Y0136570D01*
X0259406Y0136722D01*
X0259424Y0136875D01*
X0259446Y0137026D01*
X0259471Y0137177D01*
X0259501Y0137328D01*
X0259535Y0137478D01*
X0259572Y0137626D01*
X0259613Y0137774D01*
X0259658Y0137920D01*
X0259707Y0138066D01*
X0259760Y0138210D01*
X0259816Y0138352D01*
X0259876Y0138493D01*
X0259940Y0138633D01*
X0260007Y0138771D01*
X0260078Y0138907D01*
X0260153Y0139041D01*
X0260230Y0139173D01*
X0260312Y0139303D01*
X0260396Y0139431D01*
X0260484Y0139557D01*
X0260575Y0139680D01*
X0260669Y0139801D01*
X0260767Y0139919D01*
X0260867Y0140035D01*
X0260971Y0140148D01*
X0261077Y0140259D01*
X0261186Y0140367D01*
X0261298Y0140472D01*
X0261412Y0140573D01*
X0261530Y0140672D01*
X0261649Y0140768D01*
X0261771Y0140861D01*
X0261896Y0140950D01*
X0262023Y0141037D01*
X0262152Y0141119D01*
X0262283Y0141199D01*
X0262416Y0141275D01*
X0262551Y0141348D01*
X0262688Y0141417D01*
X0262827Y0141482D01*
X0262967Y0141544D01*
X0263109Y0141602D01*
X0263252Y0141657D01*
X0263397Y0141708D01*
X0263543Y0141755D01*
X0263690Y0141798D01*
X0263838Y0141837D01*
X0263987Y0141873D01*
X0264137Y0141904D01*
X0264288Y0141932D01*
X0264439Y0141956D01*
X0264592Y0141976D01*
X0264744Y0141992D01*
X0264897Y0142004D01*
X0265050Y0142012D01*
X0265203Y0142016D01*
X0265357Y0142016D01*
X0265510Y0142012D01*
X0265663Y0142004D01*
X0265816Y0141992D01*
X0265968Y0141976D01*
X0266121Y0141956D01*
X0266272Y0141932D01*
X0266423Y0141904D01*
X0266573Y0141873D01*
X0266722Y0141837D01*
X0266870Y0141798D01*
X0267017Y0141755D01*
X0267163Y0141708D01*
X0267308Y0141657D01*
X0267451Y0141602D01*
X0267593Y0141544D01*
X0267733Y0141482D01*
X0267872Y0141417D01*
X0268009Y0141348D01*
X0268144Y0141275D01*
X0268277Y0141199D01*
X0268408Y0141119D01*
X0268537Y0141037D01*
X0268664Y0140950D01*
X0268789Y0140861D01*
X0268911Y0140768D01*
X0269030Y0140672D01*
X0269148Y0140573D01*
X0269262Y0140472D01*
X0269374Y0140367D01*
X0269483Y0140259D01*
X0269589Y0140148D01*
X0269693Y0140035D01*
X0269793Y0139919D01*
X0269891Y0139801D01*
X0269985Y0139680D01*
X0270076Y0139557D01*
X0270164Y0139431D01*
X0270248Y0139303D01*
X0270330Y0139173D01*
X0270407Y0139041D01*
X0270482Y0138907D01*
X0270553Y0138771D01*
X0270620Y0138633D01*
X0270684Y0138493D01*
X0270744Y0138352D01*
X0270800Y0138210D01*
X0270853Y0138066D01*
X0270902Y0137920D01*
X0270947Y0137774D01*
X0270988Y0137626D01*
X0271025Y0137478D01*
X0271059Y0137328D01*
X0271089Y0137177D01*
X0271114Y0137026D01*
X0271136Y0136875D01*
X0271154Y0136722D01*
X0271168Y0136570D01*
X0271178Y0136417D01*
X0271184Y0136263D01*
X0271186Y0136110D01*
X0271184Y0135957D01*
X0271178Y0135803D01*
X0271168Y0135650D01*
X0271154Y0135498D01*
X0271136Y0135345D01*
X0271114Y0135194D01*
X0271089Y0135043D01*
X0271059Y0134892D01*
X0271025Y0134742D01*
X0270988Y0134594D01*
X0270947Y0134446D01*
X0270902Y0134300D01*
X0270853Y0134154D01*
X0270800Y0134010D01*
X0270744Y0133868D01*
X0270684Y0133727D01*
X0270620Y0133587D01*
X0270553Y0133449D01*
X0270482Y0133313D01*
X0270407Y0133179D01*
X0270330Y0133047D01*
X0270248Y0132917D01*
X0270164Y0132789D01*
X0270076Y0132663D01*
X0269985Y0132540D01*
X0269891Y0132419D01*
X0269793Y0132301D01*
X0269693Y0132185D01*
X0269589Y0132072D01*
X0269483Y0131961D01*
X0269374Y0131853D01*
X0269262Y0131748D01*
X0269148Y0131647D01*
X0269030Y0131548D01*
X0268911Y0131452D01*
X0268789Y0131359D01*
X0268664Y0131270D01*
X0268537Y0131183D01*
X0268408Y0131101D01*
X0268277Y0131021D01*
X0268144Y0130945D01*
X0268009Y0130872D01*
X0267872Y0130803D01*
X0267733Y0130738D01*
X0267593Y0130676D01*
X0267451Y0130618D01*
X0267308Y0130563D01*
X0267163Y0130512D01*
X0267017Y0130465D01*
X0266870Y0130422D01*
X0266722Y0130383D01*
X0266573Y0130347D01*
X0266423Y0130316D01*
X0266272Y0130288D01*
X0266121Y0130264D01*
X0265968Y0130244D01*
X0265816Y0130228D01*
X0265663Y0130216D01*
X0265510Y0130208D01*
X0265357Y0130204D01*
X0265203Y0130204D01*
X0265050Y0130208D01*
X0264897Y0130216D01*
X0264744Y0130228D01*
X0264592Y0130244D01*
X0264439Y0130264D01*
X0264288Y0130288D01*
X0264137Y0130316D01*
X0263987Y0130347D01*
X0263838Y0130383D01*
X0263690Y0130422D01*
X0263543Y0130465D01*
X0263397Y0130512D01*
X0263252Y0130563D01*
X0263109Y0130618D01*
X0262967Y0130676D01*
X0262827Y0130738D01*
X0262688Y0130803D01*
X0262551Y0130872D01*
X0262416Y0130945D01*
X0262283Y0131021D01*
X0262152Y0131101D01*
X0262023Y0131183D01*
X0261896Y0131270D01*
X0261771Y0131359D01*
X0261649Y0131452D01*
X0261530Y0131548D01*
X0261412Y0131647D01*
X0261298Y0131748D01*
X0261186Y0131853D01*
X0261077Y0131961D01*
X0260971Y0132072D01*
X0260867Y0132185D01*
X0260767Y0132301D01*
X0260669Y0132419D01*
X0260575Y0132540D01*
X0260484Y0132663D01*
X0260396Y0132789D01*
X0260312Y0132917D01*
X0260230Y0133047D01*
X0260153Y0133179D01*
X0260078Y0133313D01*
X0260007Y0133449D01*
X0259940Y0133587D01*
X0259876Y0133727D01*
X0259816Y0133868D01*
X0259760Y0134010D01*
X0259707Y0134154D01*
X0259658Y0134300D01*
X0259613Y0134446D01*
X0259572Y0134594D01*
X0259535Y0134742D01*
X0259501Y0134892D01*
X0259471Y0135043D01*
X0259446Y0135194D01*
X0259424Y0135345D01*
X0259406Y0135498D01*
X0259392Y0135650D01*
X0259382Y0135803D01*
X0259376Y0135957D01*
X0259374Y0136110D01*
X0259374Y0360520D02*
X0259376Y0360673D01*
X0259382Y0360827D01*
X0259392Y0360980D01*
X0259406Y0361132D01*
X0259424Y0361285D01*
X0259446Y0361436D01*
X0259471Y0361587D01*
X0259501Y0361738D01*
X0259535Y0361888D01*
X0259572Y0362036D01*
X0259613Y0362184D01*
X0259658Y0362330D01*
X0259707Y0362476D01*
X0259760Y0362620D01*
X0259816Y0362762D01*
X0259876Y0362903D01*
X0259940Y0363043D01*
X0260007Y0363181D01*
X0260078Y0363317D01*
X0260153Y0363451D01*
X0260230Y0363583D01*
X0260312Y0363713D01*
X0260396Y0363841D01*
X0260484Y0363967D01*
X0260575Y0364090D01*
X0260669Y0364211D01*
X0260767Y0364329D01*
X0260867Y0364445D01*
X0260971Y0364558D01*
X0261077Y0364669D01*
X0261186Y0364777D01*
X0261298Y0364882D01*
X0261412Y0364983D01*
X0261530Y0365082D01*
X0261649Y0365178D01*
X0261771Y0365271D01*
X0261896Y0365360D01*
X0262023Y0365447D01*
X0262152Y0365529D01*
X0262283Y0365609D01*
X0262416Y0365685D01*
X0262551Y0365758D01*
X0262688Y0365827D01*
X0262827Y0365892D01*
X0262967Y0365954D01*
X0263109Y0366012D01*
X0263252Y0366067D01*
X0263397Y0366118D01*
X0263543Y0366165D01*
X0263690Y0366208D01*
X0263838Y0366247D01*
X0263987Y0366283D01*
X0264137Y0366314D01*
X0264288Y0366342D01*
X0264439Y0366366D01*
X0264592Y0366386D01*
X0264744Y0366402D01*
X0264897Y0366414D01*
X0265050Y0366422D01*
X0265203Y0366426D01*
X0265357Y0366426D01*
X0265510Y0366422D01*
X0265663Y0366414D01*
X0265816Y0366402D01*
X0265968Y0366386D01*
X0266121Y0366366D01*
X0266272Y0366342D01*
X0266423Y0366314D01*
X0266573Y0366283D01*
X0266722Y0366247D01*
X0266870Y0366208D01*
X0267017Y0366165D01*
X0267163Y0366118D01*
X0267308Y0366067D01*
X0267451Y0366012D01*
X0267593Y0365954D01*
X0267733Y0365892D01*
X0267872Y0365827D01*
X0268009Y0365758D01*
X0268144Y0365685D01*
X0268277Y0365609D01*
X0268408Y0365529D01*
X0268537Y0365447D01*
X0268664Y0365360D01*
X0268789Y0365271D01*
X0268911Y0365178D01*
X0269030Y0365082D01*
X0269148Y0364983D01*
X0269262Y0364882D01*
X0269374Y0364777D01*
X0269483Y0364669D01*
X0269589Y0364558D01*
X0269693Y0364445D01*
X0269793Y0364329D01*
X0269891Y0364211D01*
X0269985Y0364090D01*
X0270076Y0363967D01*
X0270164Y0363841D01*
X0270248Y0363713D01*
X0270330Y0363583D01*
X0270407Y0363451D01*
X0270482Y0363317D01*
X0270553Y0363181D01*
X0270620Y0363043D01*
X0270684Y0362903D01*
X0270744Y0362762D01*
X0270800Y0362620D01*
X0270853Y0362476D01*
X0270902Y0362330D01*
X0270947Y0362184D01*
X0270988Y0362036D01*
X0271025Y0361888D01*
X0271059Y0361738D01*
X0271089Y0361587D01*
X0271114Y0361436D01*
X0271136Y0361285D01*
X0271154Y0361132D01*
X0271168Y0360980D01*
X0271178Y0360827D01*
X0271184Y0360673D01*
X0271186Y0360520D01*
X0271184Y0360367D01*
X0271178Y0360213D01*
X0271168Y0360060D01*
X0271154Y0359908D01*
X0271136Y0359755D01*
X0271114Y0359604D01*
X0271089Y0359453D01*
X0271059Y0359302D01*
X0271025Y0359152D01*
X0270988Y0359004D01*
X0270947Y0358856D01*
X0270902Y0358710D01*
X0270853Y0358564D01*
X0270800Y0358420D01*
X0270744Y0358278D01*
X0270684Y0358137D01*
X0270620Y0357997D01*
X0270553Y0357859D01*
X0270482Y0357723D01*
X0270407Y0357589D01*
X0270330Y0357457D01*
X0270248Y0357327D01*
X0270164Y0357199D01*
X0270076Y0357073D01*
X0269985Y0356950D01*
X0269891Y0356829D01*
X0269793Y0356711D01*
X0269693Y0356595D01*
X0269589Y0356482D01*
X0269483Y0356371D01*
X0269374Y0356263D01*
X0269262Y0356158D01*
X0269148Y0356057D01*
X0269030Y0355958D01*
X0268911Y0355862D01*
X0268789Y0355769D01*
X0268664Y0355680D01*
X0268537Y0355593D01*
X0268408Y0355511D01*
X0268277Y0355431D01*
X0268144Y0355355D01*
X0268009Y0355282D01*
X0267872Y0355213D01*
X0267733Y0355148D01*
X0267593Y0355086D01*
X0267451Y0355028D01*
X0267308Y0354973D01*
X0267163Y0354922D01*
X0267017Y0354875D01*
X0266870Y0354832D01*
X0266722Y0354793D01*
X0266573Y0354757D01*
X0266423Y0354726D01*
X0266272Y0354698D01*
X0266121Y0354674D01*
X0265968Y0354654D01*
X0265816Y0354638D01*
X0265663Y0354626D01*
X0265510Y0354618D01*
X0265357Y0354614D01*
X0265203Y0354614D01*
X0265050Y0354618D01*
X0264897Y0354626D01*
X0264744Y0354638D01*
X0264592Y0354654D01*
X0264439Y0354674D01*
X0264288Y0354698D01*
X0264137Y0354726D01*
X0263987Y0354757D01*
X0263838Y0354793D01*
X0263690Y0354832D01*
X0263543Y0354875D01*
X0263397Y0354922D01*
X0263252Y0354973D01*
X0263109Y0355028D01*
X0262967Y0355086D01*
X0262827Y0355148D01*
X0262688Y0355213D01*
X0262551Y0355282D01*
X0262416Y0355355D01*
X0262283Y0355431D01*
X0262152Y0355511D01*
X0262023Y0355593D01*
X0261896Y0355680D01*
X0261771Y0355769D01*
X0261649Y0355862D01*
X0261530Y0355958D01*
X0261412Y0356057D01*
X0261298Y0356158D01*
X0261186Y0356263D01*
X0261077Y0356371D01*
X0260971Y0356482D01*
X0260867Y0356595D01*
X0260767Y0356711D01*
X0260669Y0356829D01*
X0260575Y0356950D01*
X0260484Y0357073D01*
X0260396Y0357199D01*
X0260312Y0357327D01*
X0260230Y0357457D01*
X0260153Y0357589D01*
X0260078Y0357723D01*
X0260007Y0357859D01*
X0259940Y0357997D01*
X0259876Y0358137D01*
X0259816Y0358278D01*
X0259760Y0358420D01*
X0259707Y0358564D01*
X0259658Y0358710D01*
X0259613Y0358856D01*
X0259572Y0359004D01*
X0259535Y0359152D01*
X0259501Y0359302D01*
X0259471Y0359453D01*
X0259446Y0359604D01*
X0259424Y0359755D01*
X0259406Y0359908D01*
X0259392Y0360060D01*
X0259382Y0360213D01*
X0259376Y0360367D01*
X0259374Y0360520D01*
X0011342Y0360520D02*
X0011344Y0360673D01*
X0011350Y0360827D01*
X0011360Y0360980D01*
X0011374Y0361132D01*
X0011392Y0361285D01*
X0011414Y0361436D01*
X0011439Y0361587D01*
X0011469Y0361738D01*
X0011503Y0361888D01*
X0011540Y0362036D01*
X0011581Y0362184D01*
X0011626Y0362330D01*
X0011675Y0362476D01*
X0011728Y0362620D01*
X0011784Y0362762D01*
X0011844Y0362903D01*
X0011908Y0363043D01*
X0011975Y0363181D01*
X0012046Y0363317D01*
X0012121Y0363451D01*
X0012198Y0363583D01*
X0012280Y0363713D01*
X0012364Y0363841D01*
X0012452Y0363967D01*
X0012543Y0364090D01*
X0012637Y0364211D01*
X0012735Y0364329D01*
X0012835Y0364445D01*
X0012939Y0364558D01*
X0013045Y0364669D01*
X0013154Y0364777D01*
X0013266Y0364882D01*
X0013380Y0364983D01*
X0013498Y0365082D01*
X0013617Y0365178D01*
X0013739Y0365271D01*
X0013864Y0365360D01*
X0013991Y0365447D01*
X0014120Y0365529D01*
X0014251Y0365609D01*
X0014384Y0365685D01*
X0014519Y0365758D01*
X0014656Y0365827D01*
X0014795Y0365892D01*
X0014935Y0365954D01*
X0015077Y0366012D01*
X0015220Y0366067D01*
X0015365Y0366118D01*
X0015511Y0366165D01*
X0015658Y0366208D01*
X0015806Y0366247D01*
X0015955Y0366283D01*
X0016105Y0366314D01*
X0016256Y0366342D01*
X0016407Y0366366D01*
X0016560Y0366386D01*
X0016712Y0366402D01*
X0016865Y0366414D01*
X0017018Y0366422D01*
X0017171Y0366426D01*
X0017325Y0366426D01*
X0017478Y0366422D01*
X0017631Y0366414D01*
X0017784Y0366402D01*
X0017936Y0366386D01*
X0018089Y0366366D01*
X0018240Y0366342D01*
X0018391Y0366314D01*
X0018541Y0366283D01*
X0018690Y0366247D01*
X0018838Y0366208D01*
X0018985Y0366165D01*
X0019131Y0366118D01*
X0019276Y0366067D01*
X0019419Y0366012D01*
X0019561Y0365954D01*
X0019701Y0365892D01*
X0019840Y0365827D01*
X0019977Y0365758D01*
X0020112Y0365685D01*
X0020245Y0365609D01*
X0020376Y0365529D01*
X0020505Y0365447D01*
X0020632Y0365360D01*
X0020757Y0365271D01*
X0020879Y0365178D01*
X0020998Y0365082D01*
X0021116Y0364983D01*
X0021230Y0364882D01*
X0021342Y0364777D01*
X0021451Y0364669D01*
X0021557Y0364558D01*
X0021661Y0364445D01*
X0021761Y0364329D01*
X0021859Y0364211D01*
X0021953Y0364090D01*
X0022044Y0363967D01*
X0022132Y0363841D01*
X0022216Y0363713D01*
X0022298Y0363583D01*
X0022375Y0363451D01*
X0022450Y0363317D01*
X0022521Y0363181D01*
X0022588Y0363043D01*
X0022652Y0362903D01*
X0022712Y0362762D01*
X0022768Y0362620D01*
X0022821Y0362476D01*
X0022870Y0362330D01*
X0022915Y0362184D01*
X0022956Y0362036D01*
X0022993Y0361888D01*
X0023027Y0361738D01*
X0023057Y0361587D01*
X0023082Y0361436D01*
X0023104Y0361285D01*
X0023122Y0361132D01*
X0023136Y0360980D01*
X0023146Y0360827D01*
X0023152Y0360673D01*
X0023154Y0360520D01*
X0023152Y0360367D01*
X0023146Y0360213D01*
X0023136Y0360060D01*
X0023122Y0359908D01*
X0023104Y0359755D01*
X0023082Y0359604D01*
X0023057Y0359453D01*
X0023027Y0359302D01*
X0022993Y0359152D01*
X0022956Y0359004D01*
X0022915Y0358856D01*
X0022870Y0358710D01*
X0022821Y0358564D01*
X0022768Y0358420D01*
X0022712Y0358278D01*
X0022652Y0358137D01*
X0022588Y0357997D01*
X0022521Y0357859D01*
X0022450Y0357723D01*
X0022375Y0357589D01*
X0022298Y0357457D01*
X0022216Y0357327D01*
X0022132Y0357199D01*
X0022044Y0357073D01*
X0021953Y0356950D01*
X0021859Y0356829D01*
X0021761Y0356711D01*
X0021661Y0356595D01*
X0021557Y0356482D01*
X0021451Y0356371D01*
X0021342Y0356263D01*
X0021230Y0356158D01*
X0021116Y0356057D01*
X0020998Y0355958D01*
X0020879Y0355862D01*
X0020757Y0355769D01*
X0020632Y0355680D01*
X0020505Y0355593D01*
X0020376Y0355511D01*
X0020245Y0355431D01*
X0020112Y0355355D01*
X0019977Y0355282D01*
X0019840Y0355213D01*
X0019701Y0355148D01*
X0019561Y0355086D01*
X0019419Y0355028D01*
X0019276Y0354973D01*
X0019131Y0354922D01*
X0018985Y0354875D01*
X0018838Y0354832D01*
X0018690Y0354793D01*
X0018541Y0354757D01*
X0018391Y0354726D01*
X0018240Y0354698D01*
X0018089Y0354674D01*
X0017936Y0354654D01*
X0017784Y0354638D01*
X0017631Y0354626D01*
X0017478Y0354618D01*
X0017325Y0354614D01*
X0017171Y0354614D01*
X0017018Y0354618D01*
X0016865Y0354626D01*
X0016712Y0354638D01*
X0016560Y0354654D01*
X0016407Y0354674D01*
X0016256Y0354698D01*
X0016105Y0354726D01*
X0015955Y0354757D01*
X0015806Y0354793D01*
X0015658Y0354832D01*
X0015511Y0354875D01*
X0015365Y0354922D01*
X0015220Y0354973D01*
X0015077Y0355028D01*
X0014935Y0355086D01*
X0014795Y0355148D01*
X0014656Y0355213D01*
X0014519Y0355282D01*
X0014384Y0355355D01*
X0014251Y0355431D01*
X0014120Y0355511D01*
X0013991Y0355593D01*
X0013864Y0355680D01*
X0013739Y0355769D01*
X0013617Y0355862D01*
X0013498Y0355958D01*
X0013380Y0356057D01*
X0013266Y0356158D01*
X0013154Y0356263D01*
X0013045Y0356371D01*
X0012939Y0356482D01*
X0012835Y0356595D01*
X0012735Y0356711D01*
X0012637Y0356829D01*
X0012543Y0356950D01*
X0012452Y0357073D01*
X0012364Y0357199D01*
X0012280Y0357327D01*
X0012198Y0357457D01*
X0012121Y0357589D01*
X0012046Y0357723D01*
X0011975Y0357859D01*
X0011908Y0357997D01*
X0011844Y0358137D01*
X0011784Y0358278D01*
X0011728Y0358420D01*
X0011675Y0358564D01*
X0011626Y0358710D01*
X0011581Y0358856D01*
X0011540Y0359004D01*
X0011503Y0359152D01*
X0011469Y0359302D01*
X0011439Y0359453D01*
X0011414Y0359604D01*
X0011392Y0359755D01*
X0011374Y0359908D01*
X0011360Y0360060D01*
X0011350Y0360213D01*
X0011344Y0360367D01*
X0011342Y0360520D01*
D30*
X0193839Y0325079D03*
D31*
X0131878Y0331512D03*
X0131878Y0331850D03*
X0131878Y0332189D03*
X0131878Y0332528D03*
X0131878Y0332866D03*
X0131878Y0343362D03*
X0131878Y0343701D03*
X0131878Y0344039D03*
X0131878Y0344378D03*
D32*
X0165228Y0344378D03*
X0165228Y0344717D03*
X0165228Y0344039D03*
X0165228Y0343701D03*
X0165228Y0343362D03*
X0165228Y0332866D03*
X0165228Y0332528D03*
X0165228Y0332189D03*
X0165228Y0331850D03*
X0165228Y0331512D03*
D33*
X0112579Y0334559D03*
X0104114Y0337606D03*
X0103776Y0338283D03*
X0103776Y0338622D03*
X0103776Y0338961D03*
X0103098Y0335236D03*
X0094634Y0337945D03*
X0094972Y0342346D03*
X0085492Y0335913D03*
D34*
X0094295Y0341331D03*
X0112579Y0341331D03*
X0112579Y0341669D03*
X0112579Y0342008D03*
X0112579Y0342346D03*
X0111902Y0336252D03*
X0111902Y0335913D03*
X0111902Y0335575D03*
X0111902Y0335236D03*
X0111902Y0334898D03*
D35*
X0193500Y0335575D03*
D36*
X0193331Y0335913D03*
D37*
X0193161Y0336252D03*
X0193161Y0342008D03*
X0193161Y0342346D03*
X0193161Y0342685D03*
D38*
X0102760Y0341331D03*
X0102760Y0340992D03*
X0102421Y0342346D03*
X0094295Y0338622D03*
X0094295Y0338283D03*
X0085492Y0340992D03*
D39*
X0112409Y0340992D03*
X0112409Y0340654D03*
D40*
X0112748Y0342685D03*
X0102591Y0342008D03*
X0102591Y0341669D03*
X0094465Y0341669D03*
D41*
X0193161Y0344378D03*
D42*
X0131709Y0344717D03*
D43*
X0193161Y0344717D03*
D44*
X0193075Y0305453D03*
X0192736Y0305453D03*
X0192398Y0305453D03*
X0191043Y0305453D03*
X0190705Y0305453D03*
X0190366Y0305453D03*
X0190028Y0305453D03*
X0185965Y0305453D03*
X0185626Y0305453D03*
X0185287Y0305453D03*
X0184949Y0305453D03*
X0195106Y0305453D03*
X0195445Y0305453D03*
X0195783Y0305453D03*
X0196122Y0305453D03*
X0197815Y0305453D03*
X0198154Y0305453D03*
X0200185Y0305453D03*
X0200524Y0305453D03*
X0205264Y0305453D03*
X0205602Y0305453D03*
X0205941Y0305453D03*
X0206280Y0305453D03*
D45*
X0204925Y0304776D03*
X0204587Y0304776D03*
X0204248Y0304776D03*
X0203909Y0304776D03*
X0203571Y0304776D03*
X0203571Y0307146D03*
X0203909Y0307146D03*
X0204248Y0307146D03*
X0204587Y0307146D03*
X0204925Y0307146D03*
X0199508Y0307146D03*
X0199169Y0307146D03*
X0198831Y0307146D03*
X0198492Y0307146D03*
X0198492Y0303760D03*
X0198831Y0303760D03*
X0199169Y0303760D03*
X0199508Y0303760D03*
X0199846Y0303760D03*
X0192059Y0307146D03*
X0189689Y0307146D03*
X0189012Y0307146D03*
X0188673Y0307146D03*
X0188335Y0307146D03*
X0187996Y0307146D03*
X0187657Y0307146D03*
X0187319Y0307146D03*
X0187657Y0305453D03*
X0187996Y0305453D03*
X0188335Y0305453D03*
X0188673Y0305453D03*
X0189012Y0305453D03*
X0189350Y0305453D03*
X0189689Y0305453D03*
X0189689Y0303760D03*
X0189350Y0303760D03*
X0189012Y0303760D03*
X0188673Y0303760D03*
X0188335Y0303760D03*
X0187996Y0303760D03*
X0187657Y0303760D03*
X0187319Y0303760D03*
X0184610Y0304776D03*
X0184272Y0304776D03*
X0182240Y0303760D03*
X0183256Y0307146D03*
X0183594Y0307146D03*
X0183933Y0307146D03*
X0184272Y0307146D03*
X0184610Y0307146D03*
D46*
X0197476Y0305622D03*
X0200862Y0305622D03*
X0203232Y0305961D03*
D47*
X0202894Y0306130D03*
X0201201Y0305453D03*
X0197138Y0305453D03*
D48*
X0194091Y0305453D03*
X0202555Y0306130D03*
X0182240Y0306130D03*
D49*
X0182917Y0304098D03*
X0202217Y0306130D03*
D50*
X0194768Y0304945D03*
X0194429Y0304945D03*
X0193752Y0304945D03*
X0193413Y0304945D03*
D51*
X0192059Y0305283D03*
X0183594Y0304606D03*
X0183256Y0304606D03*
X0182917Y0306299D03*
X0182579Y0306299D03*
D52*
X0183933Y0304606D03*
X0182579Y0303929D03*
D53*
X0196398Y0138648D02*
X0191166Y0136744D01*
X0189502Y0133176D01*
X0196398Y0138648D02*
X0232080Y0122010D01*
X0233984Y0116778D01*
X0232320Y0113209D01*
X0227329Y0102505D02*
X0224001Y0095369D01*
X0219009Y0084664D02*
X0217345Y0081096D01*
X0212114Y0079192D01*
X0176432Y0095830D01*
X0174528Y0101062D01*
X0176192Y0104631D01*
X0181183Y0115335D02*
X0184511Y0122471D01*
X0190476Y0108920D02*
X0190480Y0109258D01*
X0190493Y0109596D01*
X0190513Y0109934D01*
X0190542Y0110271D01*
X0190580Y0110607D01*
X0190625Y0110942D01*
X0190679Y0111276D01*
X0190741Y0111608D01*
X0190811Y0111939D01*
X0190889Y0112268D01*
X0190975Y0112595D01*
X0191069Y0112920D01*
X0191172Y0113243D01*
X0191282Y0113562D01*
X0191399Y0113879D01*
X0191525Y0114193D01*
X0191658Y0114504D01*
X0191799Y0114812D01*
X0191947Y0115116D01*
X0192103Y0115416D01*
X0192266Y0115712D01*
X0192436Y0116004D01*
X0192614Y0116292D01*
X0192798Y0116576D01*
X0192990Y0116855D01*
X0193188Y0117129D01*
X0193393Y0117398D01*
X0193604Y0117662D01*
X0193822Y0117921D01*
X0194046Y0118174D01*
X0194276Y0118422D01*
X0194512Y0118664D01*
X0194754Y0118900D01*
X0195002Y0119130D01*
X0195255Y0119354D01*
X0195514Y0119572D01*
X0195778Y0119783D01*
X0196047Y0119988D01*
X0196321Y0120186D01*
X0196600Y0120378D01*
X0196884Y0120562D01*
X0197172Y0120740D01*
X0197464Y0120910D01*
X0197760Y0121073D01*
X0198060Y0121229D01*
X0198364Y0121377D01*
X0198672Y0121518D01*
X0198983Y0121651D01*
X0199297Y0121777D01*
X0199614Y0121894D01*
X0199933Y0122004D01*
X0200256Y0122107D01*
X0200581Y0122201D01*
X0200908Y0122287D01*
X0201237Y0122365D01*
X0201568Y0122435D01*
X0201900Y0122497D01*
X0202234Y0122551D01*
X0202569Y0122596D01*
X0202905Y0122634D01*
X0203242Y0122663D01*
X0203580Y0122683D01*
X0203918Y0122696D01*
X0204256Y0122700D01*
X0204594Y0122696D01*
X0204932Y0122683D01*
X0205270Y0122663D01*
X0205607Y0122634D01*
X0205943Y0122596D01*
X0206278Y0122551D01*
X0206612Y0122497D01*
X0206944Y0122435D01*
X0207275Y0122365D01*
X0207604Y0122287D01*
X0207931Y0122201D01*
X0208256Y0122107D01*
X0208579Y0122004D01*
X0208898Y0121894D01*
X0209215Y0121777D01*
X0209529Y0121651D01*
X0209840Y0121518D01*
X0210148Y0121377D01*
X0210452Y0121229D01*
X0210752Y0121073D01*
X0211048Y0120910D01*
X0211340Y0120740D01*
X0211628Y0120562D01*
X0211912Y0120378D01*
X0212191Y0120186D01*
X0212465Y0119988D01*
X0212734Y0119783D01*
X0212998Y0119572D01*
X0213257Y0119354D01*
X0213510Y0119130D01*
X0213758Y0118900D01*
X0214000Y0118664D01*
X0214236Y0118422D01*
X0214466Y0118174D01*
X0214690Y0117921D01*
X0214908Y0117662D01*
X0215119Y0117398D01*
X0215324Y0117129D01*
X0215522Y0116855D01*
X0215714Y0116576D01*
X0215898Y0116292D01*
X0216076Y0116004D01*
X0216246Y0115712D01*
X0216409Y0115416D01*
X0216565Y0115116D01*
X0216713Y0114812D01*
X0216854Y0114504D01*
X0216987Y0114193D01*
X0217113Y0113879D01*
X0217230Y0113562D01*
X0217340Y0113243D01*
X0217443Y0112920D01*
X0217537Y0112595D01*
X0217623Y0112268D01*
X0217701Y0111939D01*
X0217771Y0111608D01*
X0217833Y0111276D01*
X0217887Y0110942D01*
X0217932Y0110607D01*
X0217970Y0110271D01*
X0217999Y0109934D01*
X0218019Y0109596D01*
X0218032Y0109258D01*
X0218036Y0108920D01*
X0218032Y0108582D01*
X0218019Y0108244D01*
X0217999Y0107906D01*
X0217970Y0107569D01*
X0217932Y0107233D01*
X0217887Y0106898D01*
X0217833Y0106564D01*
X0217771Y0106232D01*
X0217701Y0105901D01*
X0217623Y0105572D01*
X0217537Y0105245D01*
X0217443Y0104920D01*
X0217340Y0104597D01*
X0217230Y0104278D01*
X0217113Y0103961D01*
X0216987Y0103647D01*
X0216854Y0103336D01*
X0216713Y0103028D01*
X0216565Y0102724D01*
X0216409Y0102424D01*
X0216246Y0102128D01*
X0216076Y0101836D01*
X0215898Y0101548D01*
X0215714Y0101264D01*
X0215522Y0100985D01*
X0215324Y0100711D01*
X0215119Y0100442D01*
X0214908Y0100178D01*
X0214690Y0099919D01*
X0214466Y0099666D01*
X0214236Y0099418D01*
X0214000Y0099176D01*
X0213758Y0098940D01*
X0213510Y0098710D01*
X0213257Y0098486D01*
X0212998Y0098268D01*
X0212734Y0098057D01*
X0212465Y0097852D01*
X0212191Y0097654D01*
X0211912Y0097462D01*
X0211628Y0097278D01*
X0211340Y0097100D01*
X0211048Y0096930D01*
X0210752Y0096767D01*
X0210452Y0096611D01*
X0210148Y0096463D01*
X0209840Y0096322D01*
X0209529Y0096189D01*
X0209215Y0096063D01*
X0208898Y0095946D01*
X0208579Y0095836D01*
X0208256Y0095733D01*
X0207931Y0095639D01*
X0207604Y0095553D01*
X0207275Y0095475D01*
X0206944Y0095405D01*
X0206612Y0095343D01*
X0206278Y0095289D01*
X0205943Y0095244D01*
X0205607Y0095206D01*
X0205270Y0095177D01*
X0204932Y0095157D01*
X0204594Y0095144D01*
X0204256Y0095140D01*
X0203918Y0095144D01*
X0203580Y0095157D01*
X0203242Y0095177D01*
X0202905Y0095206D01*
X0202569Y0095244D01*
X0202234Y0095289D01*
X0201900Y0095343D01*
X0201568Y0095405D01*
X0201237Y0095475D01*
X0200908Y0095553D01*
X0200581Y0095639D01*
X0200256Y0095733D01*
X0199933Y0095836D01*
X0199614Y0095946D01*
X0199297Y0096063D01*
X0198983Y0096189D01*
X0198672Y0096322D01*
X0198364Y0096463D01*
X0198060Y0096611D01*
X0197760Y0096767D01*
X0197464Y0096930D01*
X0197172Y0097100D01*
X0196884Y0097278D01*
X0196600Y0097462D01*
X0196321Y0097654D01*
X0196047Y0097852D01*
X0195778Y0098057D01*
X0195514Y0098268D01*
X0195255Y0098486D01*
X0195002Y0098710D01*
X0194754Y0098940D01*
X0194512Y0099176D01*
X0194276Y0099418D01*
X0194046Y0099666D01*
X0193822Y0099919D01*
X0193604Y0100178D01*
X0193393Y0100442D01*
X0193188Y0100711D01*
X0192990Y0100985D01*
X0192798Y0101264D01*
X0192614Y0101548D01*
X0192436Y0101836D01*
X0192266Y0102128D01*
X0192103Y0102424D01*
X0191947Y0102724D01*
X0191799Y0103028D01*
X0191658Y0103336D01*
X0191525Y0103647D01*
X0191399Y0103961D01*
X0191282Y0104278D01*
X0191172Y0104597D01*
X0191069Y0104920D01*
X0190975Y0105245D01*
X0190889Y0105572D01*
X0190811Y0105901D01*
X0190741Y0106232D01*
X0190679Y0106564D01*
X0190625Y0106898D01*
X0190580Y0107233D01*
X0190542Y0107569D01*
X0190513Y0107906D01*
X0190493Y0108244D01*
X0190480Y0108582D01*
X0190476Y0108920D01*
X0175073Y0084388D02*
X0169841Y0082484D01*
X0168177Y0078916D01*
X0175073Y0084388D02*
X0210754Y0067750D01*
X0212659Y0062518D01*
X0210995Y0058950D01*
X0206003Y0048245D02*
X0202675Y0041109D01*
X0197684Y0030405D02*
X0196020Y0026836D01*
X0190788Y0024932D01*
X0155107Y0041571D01*
X0153202Y0046803D01*
X0154866Y0050371D01*
X0159858Y0061075D02*
X0163185Y0068211D01*
X0169150Y0054660D02*
X0169154Y0054998D01*
X0169167Y0055336D01*
X0169187Y0055674D01*
X0169216Y0056011D01*
X0169254Y0056347D01*
X0169299Y0056682D01*
X0169353Y0057016D01*
X0169415Y0057348D01*
X0169485Y0057679D01*
X0169563Y0058008D01*
X0169649Y0058335D01*
X0169743Y0058660D01*
X0169846Y0058983D01*
X0169956Y0059302D01*
X0170073Y0059619D01*
X0170199Y0059933D01*
X0170332Y0060244D01*
X0170473Y0060552D01*
X0170621Y0060856D01*
X0170777Y0061156D01*
X0170940Y0061452D01*
X0171110Y0061744D01*
X0171288Y0062032D01*
X0171472Y0062316D01*
X0171664Y0062595D01*
X0171862Y0062869D01*
X0172067Y0063138D01*
X0172278Y0063402D01*
X0172496Y0063661D01*
X0172720Y0063914D01*
X0172950Y0064162D01*
X0173186Y0064404D01*
X0173428Y0064640D01*
X0173676Y0064870D01*
X0173929Y0065094D01*
X0174188Y0065312D01*
X0174452Y0065523D01*
X0174721Y0065728D01*
X0174995Y0065926D01*
X0175274Y0066118D01*
X0175558Y0066302D01*
X0175846Y0066480D01*
X0176138Y0066650D01*
X0176434Y0066813D01*
X0176734Y0066969D01*
X0177038Y0067117D01*
X0177346Y0067258D01*
X0177657Y0067391D01*
X0177971Y0067517D01*
X0178288Y0067634D01*
X0178607Y0067744D01*
X0178930Y0067847D01*
X0179255Y0067941D01*
X0179582Y0068027D01*
X0179911Y0068105D01*
X0180242Y0068175D01*
X0180574Y0068237D01*
X0180908Y0068291D01*
X0181243Y0068336D01*
X0181579Y0068374D01*
X0181916Y0068403D01*
X0182254Y0068423D01*
X0182592Y0068436D01*
X0182930Y0068440D01*
X0183268Y0068436D01*
X0183606Y0068423D01*
X0183944Y0068403D01*
X0184281Y0068374D01*
X0184617Y0068336D01*
X0184952Y0068291D01*
X0185286Y0068237D01*
X0185618Y0068175D01*
X0185949Y0068105D01*
X0186278Y0068027D01*
X0186605Y0067941D01*
X0186930Y0067847D01*
X0187253Y0067744D01*
X0187572Y0067634D01*
X0187889Y0067517D01*
X0188203Y0067391D01*
X0188514Y0067258D01*
X0188822Y0067117D01*
X0189126Y0066969D01*
X0189426Y0066813D01*
X0189722Y0066650D01*
X0190014Y0066480D01*
X0190302Y0066302D01*
X0190586Y0066118D01*
X0190865Y0065926D01*
X0191139Y0065728D01*
X0191408Y0065523D01*
X0191672Y0065312D01*
X0191931Y0065094D01*
X0192184Y0064870D01*
X0192432Y0064640D01*
X0192674Y0064404D01*
X0192910Y0064162D01*
X0193140Y0063914D01*
X0193364Y0063661D01*
X0193582Y0063402D01*
X0193793Y0063138D01*
X0193998Y0062869D01*
X0194196Y0062595D01*
X0194388Y0062316D01*
X0194572Y0062032D01*
X0194750Y0061744D01*
X0194920Y0061452D01*
X0195083Y0061156D01*
X0195239Y0060856D01*
X0195387Y0060552D01*
X0195528Y0060244D01*
X0195661Y0059933D01*
X0195787Y0059619D01*
X0195904Y0059302D01*
X0196014Y0058983D01*
X0196117Y0058660D01*
X0196211Y0058335D01*
X0196297Y0058008D01*
X0196375Y0057679D01*
X0196445Y0057348D01*
X0196507Y0057016D01*
X0196561Y0056682D01*
X0196606Y0056347D01*
X0196644Y0056011D01*
X0196673Y0055674D01*
X0196693Y0055336D01*
X0196706Y0054998D01*
X0196710Y0054660D01*
X0196706Y0054322D01*
X0196693Y0053984D01*
X0196673Y0053646D01*
X0196644Y0053309D01*
X0196606Y0052973D01*
X0196561Y0052638D01*
X0196507Y0052304D01*
X0196445Y0051972D01*
X0196375Y0051641D01*
X0196297Y0051312D01*
X0196211Y0050985D01*
X0196117Y0050660D01*
X0196014Y0050337D01*
X0195904Y0050018D01*
X0195787Y0049701D01*
X0195661Y0049387D01*
X0195528Y0049076D01*
X0195387Y0048768D01*
X0195239Y0048464D01*
X0195083Y0048164D01*
X0194920Y0047868D01*
X0194750Y0047576D01*
X0194572Y0047288D01*
X0194388Y0047004D01*
X0194196Y0046725D01*
X0193998Y0046451D01*
X0193793Y0046182D01*
X0193582Y0045918D01*
X0193364Y0045659D01*
X0193140Y0045406D01*
X0192910Y0045158D01*
X0192674Y0044916D01*
X0192432Y0044680D01*
X0192184Y0044450D01*
X0191931Y0044226D01*
X0191672Y0044008D01*
X0191408Y0043797D01*
X0191139Y0043592D01*
X0190865Y0043394D01*
X0190586Y0043202D01*
X0190302Y0043018D01*
X0190014Y0042840D01*
X0189722Y0042670D01*
X0189426Y0042507D01*
X0189126Y0042351D01*
X0188822Y0042203D01*
X0188514Y0042062D01*
X0188203Y0041929D01*
X0187889Y0041803D01*
X0187572Y0041686D01*
X0187253Y0041576D01*
X0186930Y0041473D01*
X0186605Y0041379D01*
X0186278Y0041293D01*
X0185949Y0041215D01*
X0185618Y0041145D01*
X0185286Y0041083D01*
X0184952Y0041029D01*
X0184617Y0040984D01*
X0184281Y0040946D01*
X0183944Y0040917D01*
X0183606Y0040897D01*
X0183268Y0040884D01*
X0182930Y0040880D01*
X0182592Y0040884D01*
X0182254Y0040897D01*
X0181916Y0040917D01*
X0181579Y0040946D01*
X0181243Y0040984D01*
X0180908Y0041029D01*
X0180574Y0041083D01*
X0180242Y0041145D01*
X0179911Y0041215D01*
X0179582Y0041293D01*
X0179255Y0041379D01*
X0178930Y0041473D01*
X0178607Y0041576D01*
X0178288Y0041686D01*
X0177971Y0041803D01*
X0177657Y0041929D01*
X0177346Y0042062D01*
X0177038Y0042203D01*
X0176734Y0042351D01*
X0176434Y0042507D01*
X0176138Y0042670D01*
X0175846Y0042840D01*
X0175558Y0043018D01*
X0175274Y0043202D01*
X0174995Y0043394D01*
X0174721Y0043592D01*
X0174452Y0043797D01*
X0174188Y0044008D01*
X0173929Y0044226D01*
X0173676Y0044450D01*
X0173428Y0044680D01*
X0173186Y0044916D01*
X0172950Y0045158D01*
X0172720Y0045406D01*
X0172496Y0045659D01*
X0172278Y0045918D01*
X0172067Y0046182D01*
X0171862Y0046451D01*
X0171664Y0046725D01*
X0171472Y0047004D01*
X0171288Y0047288D01*
X0171110Y0047576D01*
X0170940Y0047868D01*
X0170777Y0048164D01*
X0170621Y0048464D01*
X0170473Y0048768D01*
X0170332Y0049076D01*
X0170199Y0049387D01*
X0170073Y0049701D01*
X0169956Y0050018D01*
X0169846Y0050337D01*
X0169743Y0050660D01*
X0169649Y0050985D01*
X0169563Y0051312D01*
X0169485Y0051641D01*
X0169415Y0051972D01*
X0169353Y0052304D01*
X0169299Y0052638D01*
X0169254Y0052973D01*
X0169216Y0053309D01*
X0169187Y0053646D01*
X0169167Y0053984D01*
X0169154Y0054322D01*
X0169150Y0054660D01*
X0129325Y0046803D02*
X0127421Y0041571D01*
X0091739Y0024932D01*
X0086507Y0026836D01*
X0084844Y0030405D01*
X0079852Y0041109D02*
X0076524Y0048245D01*
X0071533Y0058950D02*
X0069869Y0062518D01*
X0071773Y0067750D01*
X0107455Y0084388D01*
X0112687Y0082484D01*
X0114351Y0078916D01*
X0119342Y0068211D02*
X0122670Y0061075D01*
X0127661Y0050371D02*
X0129325Y0046803D01*
X0085817Y0054660D02*
X0085821Y0054998D01*
X0085834Y0055336D01*
X0085854Y0055674D01*
X0085883Y0056011D01*
X0085921Y0056347D01*
X0085966Y0056682D01*
X0086020Y0057016D01*
X0086082Y0057348D01*
X0086152Y0057679D01*
X0086230Y0058008D01*
X0086316Y0058335D01*
X0086410Y0058660D01*
X0086513Y0058983D01*
X0086623Y0059302D01*
X0086740Y0059619D01*
X0086866Y0059933D01*
X0086999Y0060244D01*
X0087140Y0060552D01*
X0087288Y0060856D01*
X0087444Y0061156D01*
X0087607Y0061452D01*
X0087777Y0061744D01*
X0087955Y0062032D01*
X0088139Y0062316D01*
X0088331Y0062595D01*
X0088529Y0062869D01*
X0088734Y0063138D01*
X0088945Y0063402D01*
X0089163Y0063661D01*
X0089387Y0063914D01*
X0089617Y0064162D01*
X0089853Y0064404D01*
X0090095Y0064640D01*
X0090343Y0064870D01*
X0090596Y0065094D01*
X0090855Y0065312D01*
X0091119Y0065523D01*
X0091388Y0065728D01*
X0091662Y0065926D01*
X0091941Y0066118D01*
X0092225Y0066302D01*
X0092513Y0066480D01*
X0092805Y0066650D01*
X0093101Y0066813D01*
X0093401Y0066969D01*
X0093705Y0067117D01*
X0094013Y0067258D01*
X0094324Y0067391D01*
X0094638Y0067517D01*
X0094955Y0067634D01*
X0095274Y0067744D01*
X0095597Y0067847D01*
X0095922Y0067941D01*
X0096249Y0068027D01*
X0096578Y0068105D01*
X0096909Y0068175D01*
X0097241Y0068237D01*
X0097575Y0068291D01*
X0097910Y0068336D01*
X0098246Y0068374D01*
X0098583Y0068403D01*
X0098921Y0068423D01*
X0099259Y0068436D01*
X0099597Y0068440D01*
X0099935Y0068436D01*
X0100273Y0068423D01*
X0100611Y0068403D01*
X0100948Y0068374D01*
X0101284Y0068336D01*
X0101619Y0068291D01*
X0101953Y0068237D01*
X0102285Y0068175D01*
X0102616Y0068105D01*
X0102945Y0068027D01*
X0103272Y0067941D01*
X0103597Y0067847D01*
X0103920Y0067744D01*
X0104239Y0067634D01*
X0104556Y0067517D01*
X0104870Y0067391D01*
X0105181Y0067258D01*
X0105489Y0067117D01*
X0105793Y0066969D01*
X0106093Y0066813D01*
X0106389Y0066650D01*
X0106681Y0066480D01*
X0106969Y0066302D01*
X0107253Y0066118D01*
X0107532Y0065926D01*
X0107806Y0065728D01*
X0108075Y0065523D01*
X0108339Y0065312D01*
X0108598Y0065094D01*
X0108851Y0064870D01*
X0109099Y0064640D01*
X0109341Y0064404D01*
X0109577Y0064162D01*
X0109807Y0063914D01*
X0110031Y0063661D01*
X0110249Y0063402D01*
X0110460Y0063138D01*
X0110665Y0062869D01*
X0110863Y0062595D01*
X0111055Y0062316D01*
X0111239Y0062032D01*
X0111417Y0061744D01*
X0111587Y0061452D01*
X0111750Y0061156D01*
X0111906Y0060856D01*
X0112054Y0060552D01*
X0112195Y0060244D01*
X0112328Y0059933D01*
X0112454Y0059619D01*
X0112571Y0059302D01*
X0112681Y0058983D01*
X0112784Y0058660D01*
X0112878Y0058335D01*
X0112964Y0058008D01*
X0113042Y0057679D01*
X0113112Y0057348D01*
X0113174Y0057016D01*
X0113228Y0056682D01*
X0113273Y0056347D01*
X0113311Y0056011D01*
X0113340Y0055674D01*
X0113360Y0055336D01*
X0113373Y0054998D01*
X0113377Y0054660D01*
X0113373Y0054322D01*
X0113360Y0053984D01*
X0113340Y0053646D01*
X0113311Y0053309D01*
X0113273Y0052973D01*
X0113228Y0052638D01*
X0113174Y0052304D01*
X0113112Y0051972D01*
X0113042Y0051641D01*
X0112964Y0051312D01*
X0112878Y0050985D01*
X0112784Y0050660D01*
X0112681Y0050337D01*
X0112571Y0050018D01*
X0112454Y0049701D01*
X0112328Y0049387D01*
X0112195Y0049076D01*
X0112054Y0048768D01*
X0111906Y0048464D01*
X0111750Y0048164D01*
X0111587Y0047868D01*
X0111417Y0047576D01*
X0111239Y0047288D01*
X0111055Y0047004D01*
X0110863Y0046725D01*
X0110665Y0046451D01*
X0110460Y0046182D01*
X0110249Y0045918D01*
X0110031Y0045659D01*
X0109807Y0045406D01*
X0109577Y0045158D01*
X0109341Y0044916D01*
X0109099Y0044680D01*
X0108851Y0044450D01*
X0108598Y0044226D01*
X0108339Y0044008D01*
X0108075Y0043797D01*
X0107806Y0043592D01*
X0107532Y0043394D01*
X0107253Y0043202D01*
X0106969Y0043018D01*
X0106681Y0042840D01*
X0106389Y0042670D01*
X0106093Y0042507D01*
X0105793Y0042351D01*
X0105489Y0042203D01*
X0105181Y0042062D01*
X0104870Y0041929D01*
X0104556Y0041803D01*
X0104239Y0041686D01*
X0103920Y0041576D01*
X0103597Y0041473D01*
X0103272Y0041379D01*
X0102945Y0041293D01*
X0102616Y0041215D01*
X0102285Y0041145D01*
X0101953Y0041083D01*
X0101619Y0041029D01*
X0101284Y0040984D01*
X0100948Y0040946D01*
X0100611Y0040917D01*
X0100273Y0040897D01*
X0099935Y0040884D01*
X0099597Y0040880D01*
X0099259Y0040884D01*
X0098921Y0040897D01*
X0098583Y0040917D01*
X0098246Y0040946D01*
X0097910Y0040984D01*
X0097575Y0041029D01*
X0097241Y0041083D01*
X0096909Y0041145D01*
X0096578Y0041215D01*
X0096249Y0041293D01*
X0095922Y0041379D01*
X0095597Y0041473D01*
X0095274Y0041576D01*
X0094955Y0041686D01*
X0094638Y0041803D01*
X0094324Y0041929D01*
X0094013Y0042062D01*
X0093705Y0042203D01*
X0093401Y0042351D01*
X0093101Y0042507D01*
X0092805Y0042670D01*
X0092513Y0042840D01*
X0092225Y0043018D01*
X0091941Y0043202D01*
X0091662Y0043394D01*
X0091388Y0043592D01*
X0091119Y0043797D01*
X0090855Y0044008D01*
X0090596Y0044226D01*
X0090343Y0044450D01*
X0090095Y0044680D01*
X0089853Y0044916D01*
X0089617Y0045158D01*
X0089387Y0045406D01*
X0089163Y0045659D01*
X0088945Y0045918D01*
X0088734Y0046182D01*
X0088529Y0046451D01*
X0088331Y0046725D01*
X0088139Y0047004D01*
X0087955Y0047288D01*
X0087777Y0047576D01*
X0087607Y0047868D01*
X0087444Y0048164D01*
X0087288Y0048464D01*
X0087140Y0048768D01*
X0086999Y0049076D01*
X0086866Y0049387D01*
X0086740Y0049701D01*
X0086623Y0050018D01*
X0086513Y0050337D01*
X0086410Y0050660D01*
X0086316Y0050985D01*
X0086230Y0051312D01*
X0086152Y0051641D01*
X0086082Y0051972D01*
X0086020Y0052304D01*
X0085966Y0052638D01*
X0085921Y0052973D01*
X0085883Y0053309D01*
X0085854Y0053646D01*
X0085834Y0053984D01*
X0085821Y0054322D01*
X0085817Y0054660D01*
X0070414Y0079192D02*
X0065182Y0081096D01*
X0063518Y0084664D01*
X0070414Y0079192D02*
X0106095Y0095830D01*
X0108000Y0101062D01*
X0106336Y0104631D01*
X0101344Y0115335D02*
X0098017Y0122471D01*
X0093025Y0133176D02*
X0091361Y0136744D01*
X0086129Y0138648D01*
X0050448Y0122010D01*
X0048544Y0116778D01*
X0050207Y0113209D01*
X0055199Y0102505D02*
X0058527Y0095369D01*
X0064492Y0108920D02*
X0064496Y0109258D01*
X0064509Y0109596D01*
X0064529Y0109934D01*
X0064558Y0110271D01*
X0064596Y0110607D01*
X0064641Y0110942D01*
X0064695Y0111276D01*
X0064757Y0111608D01*
X0064827Y0111939D01*
X0064905Y0112268D01*
X0064991Y0112595D01*
X0065085Y0112920D01*
X0065188Y0113243D01*
X0065298Y0113562D01*
X0065415Y0113879D01*
X0065541Y0114193D01*
X0065674Y0114504D01*
X0065815Y0114812D01*
X0065963Y0115116D01*
X0066119Y0115416D01*
X0066282Y0115712D01*
X0066452Y0116004D01*
X0066630Y0116292D01*
X0066814Y0116576D01*
X0067006Y0116855D01*
X0067204Y0117129D01*
X0067409Y0117398D01*
X0067620Y0117662D01*
X0067838Y0117921D01*
X0068062Y0118174D01*
X0068292Y0118422D01*
X0068528Y0118664D01*
X0068770Y0118900D01*
X0069018Y0119130D01*
X0069271Y0119354D01*
X0069530Y0119572D01*
X0069794Y0119783D01*
X0070063Y0119988D01*
X0070337Y0120186D01*
X0070616Y0120378D01*
X0070900Y0120562D01*
X0071188Y0120740D01*
X0071480Y0120910D01*
X0071776Y0121073D01*
X0072076Y0121229D01*
X0072380Y0121377D01*
X0072688Y0121518D01*
X0072999Y0121651D01*
X0073313Y0121777D01*
X0073630Y0121894D01*
X0073949Y0122004D01*
X0074272Y0122107D01*
X0074597Y0122201D01*
X0074924Y0122287D01*
X0075253Y0122365D01*
X0075584Y0122435D01*
X0075916Y0122497D01*
X0076250Y0122551D01*
X0076585Y0122596D01*
X0076921Y0122634D01*
X0077258Y0122663D01*
X0077596Y0122683D01*
X0077934Y0122696D01*
X0078272Y0122700D01*
X0078610Y0122696D01*
X0078948Y0122683D01*
X0079286Y0122663D01*
X0079623Y0122634D01*
X0079959Y0122596D01*
X0080294Y0122551D01*
X0080628Y0122497D01*
X0080960Y0122435D01*
X0081291Y0122365D01*
X0081620Y0122287D01*
X0081947Y0122201D01*
X0082272Y0122107D01*
X0082595Y0122004D01*
X0082914Y0121894D01*
X0083231Y0121777D01*
X0083545Y0121651D01*
X0083856Y0121518D01*
X0084164Y0121377D01*
X0084468Y0121229D01*
X0084768Y0121073D01*
X0085064Y0120910D01*
X0085356Y0120740D01*
X0085644Y0120562D01*
X0085928Y0120378D01*
X0086207Y0120186D01*
X0086481Y0119988D01*
X0086750Y0119783D01*
X0087014Y0119572D01*
X0087273Y0119354D01*
X0087526Y0119130D01*
X0087774Y0118900D01*
X0088016Y0118664D01*
X0088252Y0118422D01*
X0088482Y0118174D01*
X0088706Y0117921D01*
X0088924Y0117662D01*
X0089135Y0117398D01*
X0089340Y0117129D01*
X0089538Y0116855D01*
X0089730Y0116576D01*
X0089914Y0116292D01*
X0090092Y0116004D01*
X0090262Y0115712D01*
X0090425Y0115416D01*
X0090581Y0115116D01*
X0090729Y0114812D01*
X0090870Y0114504D01*
X0091003Y0114193D01*
X0091129Y0113879D01*
X0091246Y0113562D01*
X0091356Y0113243D01*
X0091459Y0112920D01*
X0091553Y0112595D01*
X0091639Y0112268D01*
X0091717Y0111939D01*
X0091787Y0111608D01*
X0091849Y0111276D01*
X0091903Y0110942D01*
X0091948Y0110607D01*
X0091986Y0110271D01*
X0092015Y0109934D01*
X0092035Y0109596D01*
X0092048Y0109258D01*
X0092052Y0108920D01*
X0092048Y0108582D01*
X0092035Y0108244D01*
X0092015Y0107906D01*
X0091986Y0107569D01*
X0091948Y0107233D01*
X0091903Y0106898D01*
X0091849Y0106564D01*
X0091787Y0106232D01*
X0091717Y0105901D01*
X0091639Y0105572D01*
X0091553Y0105245D01*
X0091459Y0104920D01*
X0091356Y0104597D01*
X0091246Y0104278D01*
X0091129Y0103961D01*
X0091003Y0103647D01*
X0090870Y0103336D01*
X0090729Y0103028D01*
X0090581Y0102724D01*
X0090425Y0102424D01*
X0090262Y0102128D01*
X0090092Y0101836D01*
X0089914Y0101548D01*
X0089730Y0101264D01*
X0089538Y0100985D01*
X0089340Y0100711D01*
X0089135Y0100442D01*
X0088924Y0100178D01*
X0088706Y0099919D01*
X0088482Y0099666D01*
X0088252Y0099418D01*
X0088016Y0099176D01*
X0087774Y0098940D01*
X0087526Y0098710D01*
X0087273Y0098486D01*
X0087014Y0098268D01*
X0086750Y0098057D01*
X0086481Y0097852D01*
X0086207Y0097654D01*
X0085928Y0097462D01*
X0085644Y0097278D01*
X0085356Y0097100D01*
X0085064Y0096930D01*
X0084768Y0096767D01*
X0084468Y0096611D01*
X0084164Y0096463D01*
X0083856Y0096322D01*
X0083545Y0096189D01*
X0083231Y0096063D01*
X0082914Y0095946D01*
X0082595Y0095836D01*
X0082272Y0095733D01*
X0081947Y0095639D01*
X0081620Y0095553D01*
X0081291Y0095475D01*
X0080960Y0095405D01*
X0080628Y0095343D01*
X0080294Y0095289D01*
X0079959Y0095244D01*
X0079623Y0095206D01*
X0079286Y0095177D01*
X0078948Y0095157D01*
X0078610Y0095144D01*
X0078272Y0095140D01*
X0077934Y0095144D01*
X0077596Y0095157D01*
X0077258Y0095177D01*
X0076921Y0095206D01*
X0076585Y0095244D01*
X0076250Y0095289D01*
X0075916Y0095343D01*
X0075584Y0095405D01*
X0075253Y0095475D01*
X0074924Y0095553D01*
X0074597Y0095639D01*
X0074272Y0095733D01*
X0073949Y0095836D01*
X0073630Y0095946D01*
X0073313Y0096063D01*
X0072999Y0096189D01*
X0072688Y0096322D01*
X0072380Y0096463D01*
X0072076Y0096611D01*
X0071776Y0096767D01*
X0071480Y0096930D01*
X0071188Y0097100D01*
X0070900Y0097278D01*
X0070616Y0097462D01*
X0070337Y0097654D01*
X0070063Y0097852D01*
X0069794Y0098057D01*
X0069530Y0098268D01*
X0069271Y0098486D01*
X0069018Y0098710D01*
X0068770Y0098940D01*
X0068528Y0099176D01*
X0068292Y0099418D01*
X0068062Y0099666D01*
X0067838Y0099919D01*
X0067620Y0100178D01*
X0067409Y0100442D01*
X0067204Y0100711D01*
X0067006Y0100985D01*
X0066814Y0101264D01*
X0066630Y0101548D01*
X0066452Y0101836D01*
X0066282Y0102128D01*
X0066119Y0102424D01*
X0065963Y0102724D01*
X0065815Y0103028D01*
X0065674Y0103336D01*
X0065541Y0103647D01*
X0065415Y0103961D01*
X0065298Y0104278D01*
X0065188Y0104597D01*
X0065085Y0104920D01*
X0064991Y0105245D01*
X0064905Y0105572D01*
X0064827Y0105901D01*
X0064757Y0106232D01*
X0064695Y0106564D01*
X0064641Y0106898D01*
X0064596Y0107233D01*
X0064558Y0107569D01*
X0064529Y0107906D01*
X0064509Y0108244D01*
X0064496Y0108582D01*
X0064492Y0108920D01*
D54*
X0053547Y0117489D02*
X0053549Y0117558D01*
X0053555Y0117626D01*
X0053565Y0117694D01*
X0053579Y0117761D01*
X0053597Y0117828D01*
X0053618Y0117893D01*
X0053644Y0117957D01*
X0053673Y0118019D01*
X0053705Y0118079D01*
X0053741Y0118138D01*
X0053781Y0118194D01*
X0053823Y0118248D01*
X0053869Y0118299D01*
X0053918Y0118348D01*
X0053969Y0118394D01*
X0054023Y0118436D01*
X0054079Y0118476D01*
X0054137Y0118512D01*
X0054198Y0118544D01*
X0054260Y0118573D01*
X0054324Y0118599D01*
X0054389Y0118620D01*
X0054456Y0118638D01*
X0054523Y0118652D01*
X0054591Y0118662D01*
X0054659Y0118668D01*
X0054728Y0118670D01*
X0054797Y0118668D01*
X0054865Y0118662D01*
X0054933Y0118652D01*
X0055000Y0118638D01*
X0055067Y0118620D01*
X0055132Y0118599D01*
X0055196Y0118573D01*
X0055258Y0118544D01*
X0055318Y0118512D01*
X0055377Y0118476D01*
X0055433Y0118436D01*
X0055487Y0118394D01*
X0055538Y0118348D01*
X0055587Y0118299D01*
X0055633Y0118248D01*
X0055675Y0118194D01*
X0055715Y0118138D01*
X0055751Y0118079D01*
X0055783Y0118019D01*
X0055812Y0117957D01*
X0055838Y0117893D01*
X0055859Y0117828D01*
X0055877Y0117761D01*
X0055891Y0117694D01*
X0055901Y0117626D01*
X0055907Y0117558D01*
X0055909Y0117489D01*
X0055907Y0117420D01*
X0055901Y0117352D01*
X0055891Y0117284D01*
X0055877Y0117217D01*
X0055859Y0117150D01*
X0055838Y0117085D01*
X0055812Y0117021D01*
X0055783Y0116959D01*
X0055751Y0116898D01*
X0055715Y0116840D01*
X0055675Y0116784D01*
X0055633Y0116730D01*
X0055587Y0116679D01*
X0055538Y0116630D01*
X0055487Y0116584D01*
X0055433Y0116542D01*
X0055377Y0116502D01*
X0055319Y0116466D01*
X0055258Y0116434D01*
X0055196Y0116405D01*
X0055132Y0116379D01*
X0055067Y0116358D01*
X0055000Y0116340D01*
X0054933Y0116326D01*
X0054865Y0116316D01*
X0054797Y0116310D01*
X0054728Y0116308D01*
X0054659Y0116310D01*
X0054591Y0116316D01*
X0054523Y0116326D01*
X0054456Y0116340D01*
X0054389Y0116358D01*
X0054324Y0116379D01*
X0054260Y0116405D01*
X0054198Y0116434D01*
X0054137Y0116466D01*
X0054079Y0116502D01*
X0054023Y0116542D01*
X0053969Y0116584D01*
X0053918Y0116630D01*
X0053869Y0116679D01*
X0053823Y0116730D01*
X0053781Y0116784D01*
X0053741Y0116840D01*
X0053705Y0116898D01*
X0053673Y0116959D01*
X0053644Y0117021D01*
X0053618Y0117085D01*
X0053597Y0117150D01*
X0053579Y0117217D01*
X0053565Y0117284D01*
X0053555Y0117352D01*
X0053549Y0117420D01*
X0053547Y0117489D01*
X0068521Y0085376D02*
X0068523Y0085445D01*
X0068529Y0085513D01*
X0068539Y0085581D01*
X0068553Y0085648D01*
X0068571Y0085715D01*
X0068592Y0085780D01*
X0068618Y0085844D01*
X0068647Y0085906D01*
X0068679Y0085966D01*
X0068715Y0086025D01*
X0068755Y0086081D01*
X0068797Y0086135D01*
X0068843Y0086186D01*
X0068892Y0086235D01*
X0068943Y0086281D01*
X0068997Y0086323D01*
X0069053Y0086363D01*
X0069111Y0086399D01*
X0069172Y0086431D01*
X0069234Y0086460D01*
X0069298Y0086486D01*
X0069363Y0086507D01*
X0069430Y0086525D01*
X0069497Y0086539D01*
X0069565Y0086549D01*
X0069633Y0086555D01*
X0069702Y0086557D01*
X0069771Y0086555D01*
X0069839Y0086549D01*
X0069907Y0086539D01*
X0069974Y0086525D01*
X0070041Y0086507D01*
X0070106Y0086486D01*
X0070170Y0086460D01*
X0070232Y0086431D01*
X0070292Y0086399D01*
X0070351Y0086363D01*
X0070407Y0086323D01*
X0070461Y0086281D01*
X0070512Y0086235D01*
X0070561Y0086186D01*
X0070607Y0086135D01*
X0070649Y0086081D01*
X0070689Y0086025D01*
X0070725Y0085966D01*
X0070757Y0085906D01*
X0070786Y0085844D01*
X0070812Y0085780D01*
X0070833Y0085715D01*
X0070851Y0085648D01*
X0070865Y0085581D01*
X0070875Y0085513D01*
X0070881Y0085445D01*
X0070883Y0085376D01*
X0070881Y0085307D01*
X0070875Y0085239D01*
X0070865Y0085171D01*
X0070851Y0085104D01*
X0070833Y0085037D01*
X0070812Y0084972D01*
X0070786Y0084908D01*
X0070757Y0084846D01*
X0070725Y0084785D01*
X0070689Y0084727D01*
X0070649Y0084671D01*
X0070607Y0084617D01*
X0070561Y0084566D01*
X0070512Y0084517D01*
X0070461Y0084471D01*
X0070407Y0084429D01*
X0070351Y0084389D01*
X0070293Y0084353D01*
X0070232Y0084321D01*
X0070170Y0084292D01*
X0070106Y0084266D01*
X0070041Y0084245D01*
X0069974Y0084227D01*
X0069907Y0084213D01*
X0069839Y0084203D01*
X0069771Y0084197D01*
X0069702Y0084195D01*
X0069633Y0084197D01*
X0069565Y0084203D01*
X0069497Y0084213D01*
X0069430Y0084227D01*
X0069363Y0084245D01*
X0069298Y0084266D01*
X0069234Y0084292D01*
X0069172Y0084321D01*
X0069111Y0084353D01*
X0069053Y0084389D01*
X0068997Y0084429D01*
X0068943Y0084471D01*
X0068892Y0084517D01*
X0068843Y0084566D01*
X0068797Y0084617D01*
X0068755Y0084671D01*
X0068715Y0084727D01*
X0068679Y0084785D01*
X0068647Y0084846D01*
X0068618Y0084908D01*
X0068592Y0084972D01*
X0068571Y0085037D01*
X0068553Y0085104D01*
X0068539Y0085171D01*
X0068529Y0085239D01*
X0068523Y0085307D01*
X0068521Y0085376D01*
X0074872Y0063229D02*
X0074874Y0063298D01*
X0074880Y0063366D01*
X0074890Y0063434D01*
X0074904Y0063501D01*
X0074922Y0063568D01*
X0074943Y0063633D01*
X0074969Y0063697D01*
X0074998Y0063759D01*
X0075030Y0063819D01*
X0075066Y0063878D01*
X0075106Y0063934D01*
X0075148Y0063988D01*
X0075194Y0064039D01*
X0075243Y0064088D01*
X0075294Y0064134D01*
X0075348Y0064176D01*
X0075404Y0064216D01*
X0075462Y0064252D01*
X0075523Y0064284D01*
X0075585Y0064313D01*
X0075649Y0064339D01*
X0075714Y0064360D01*
X0075781Y0064378D01*
X0075848Y0064392D01*
X0075916Y0064402D01*
X0075984Y0064408D01*
X0076053Y0064410D01*
X0076122Y0064408D01*
X0076190Y0064402D01*
X0076258Y0064392D01*
X0076325Y0064378D01*
X0076392Y0064360D01*
X0076457Y0064339D01*
X0076521Y0064313D01*
X0076583Y0064284D01*
X0076643Y0064252D01*
X0076702Y0064216D01*
X0076758Y0064176D01*
X0076812Y0064134D01*
X0076863Y0064088D01*
X0076912Y0064039D01*
X0076958Y0063988D01*
X0077000Y0063934D01*
X0077040Y0063878D01*
X0077076Y0063819D01*
X0077108Y0063759D01*
X0077137Y0063697D01*
X0077163Y0063633D01*
X0077184Y0063568D01*
X0077202Y0063501D01*
X0077216Y0063434D01*
X0077226Y0063366D01*
X0077232Y0063298D01*
X0077234Y0063229D01*
X0077232Y0063160D01*
X0077226Y0063092D01*
X0077216Y0063024D01*
X0077202Y0062957D01*
X0077184Y0062890D01*
X0077163Y0062825D01*
X0077137Y0062761D01*
X0077108Y0062699D01*
X0077076Y0062638D01*
X0077040Y0062580D01*
X0077000Y0062524D01*
X0076958Y0062470D01*
X0076912Y0062419D01*
X0076863Y0062370D01*
X0076812Y0062324D01*
X0076758Y0062282D01*
X0076702Y0062242D01*
X0076644Y0062206D01*
X0076583Y0062174D01*
X0076521Y0062145D01*
X0076457Y0062119D01*
X0076392Y0062098D01*
X0076325Y0062080D01*
X0076258Y0062066D01*
X0076190Y0062056D01*
X0076122Y0062050D01*
X0076053Y0062048D01*
X0075984Y0062050D01*
X0075916Y0062056D01*
X0075848Y0062066D01*
X0075781Y0062080D01*
X0075714Y0062098D01*
X0075649Y0062119D01*
X0075585Y0062145D01*
X0075523Y0062174D01*
X0075462Y0062206D01*
X0075404Y0062242D01*
X0075348Y0062282D01*
X0075294Y0062324D01*
X0075243Y0062370D01*
X0075194Y0062419D01*
X0075148Y0062470D01*
X0075106Y0062524D01*
X0075066Y0062580D01*
X0075030Y0062638D01*
X0074998Y0062699D01*
X0074969Y0062761D01*
X0074943Y0062825D01*
X0074922Y0062890D01*
X0074904Y0062957D01*
X0074890Y0063024D01*
X0074880Y0063092D01*
X0074874Y0063160D01*
X0074872Y0063229D01*
X0089847Y0031116D02*
X0089849Y0031185D01*
X0089855Y0031253D01*
X0089865Y0031321D01*
X0089879Y0031388D01*
X0089897Y0031455D01*
X0089918Y0031520D01*
X0089944Y0031584D01*
X0089973Y0031646D01*
X0090005Y0031706D01*
X0090041Y0031765D01*
X0090081Y0031821D01*
X0090123Y0031875D01*
X0090169Y0031926D01*
X0090218Y0031975D01*
X0090269Y0032021D01*
X0090323Y0032063D01*
X0090379Y0032103D01*
X0090437Y0032139D01*
X0090498Y0032171D01*
X0090560Y0032200D01*
X0090624Y0032226D01*
X0090689Y0032247D01*
X0090756Y0032265D01*
X0090823Y0032279D01*
X0090891Y0032289D01*
X0090959Y0032295D01*
X0091028Y0032297D01*
X0091097Y0032295D01*
X0091165Y0032289D01*
X0091233Y0032279D01*
X0091300Y0032265D01*
X0091367Y0032247D01*
X0091432Y0032226D01*
X0091496Y0032200D01*
X0091558Y0032171D01*
X0091618Y0032139D01*
X0091677Y0032103D01*
X0091733Y0032063D01*
X0091787Y0032021D01*
X0091838Y0031975D01*
X0091887Y0031926D01*
X0091933Y0031875D01*
X0091975Y0031821D01*
X0092015Y0031765D01*
X0092051Y0031706D01*
X0092083Y0031646D01*
X0092112Y0031584D01*
X0092138Y0031520D01*
X0092159Y0031455D01*
X0092177Y0031388D01*
X0092191Y0031321D01*
X0092201Y0031253D01*
X0092207Y0031185D01*
X0092209Y0031116D01*
X0092207Y0031047D01*
X0092201Y0030979D01*
X0092191Y0030911D01*
X0092177Y0030844D01*
X0092159Y0030777D01*
X0092138Y0030712D01*
X0092112Y0030648D01*
X0092083Y0030586D01*
X0092051Y0030525D01*
X0092015Y0030467D01*
X0091975Y0030411D01*
X0091933Y0030357D01*
X0091887Y0030306D01*
X0091838Y0030257D01*
X0091787Y0030211D01*
X0091733Y0030169D01*
X0091677Y0030129D01*
X0091619Y0030093D01*
X0091558Y0030061D01*
X0091496Y0030032D01*
X0091432Y0030006D01*
X0091367Y0029985D01*
X0091300Y0029967D01*
X0091233Y0029953D01*
X0091165Y0029943D01*
X0091097Y0029937D01*
X0091028Y0029935D01*
X0090959Y0029937D01*
X0090891Y0029943D01*
X0090823Y0029953D01*
X0090756Y0029967D01*
X0090689Y0029985D01*
X0090624Y0030006D01*
X0090560Y0030032D01*
X0090498Y0030061D01*
X0090437Y0030093D01*
X0090379Y0030129D01*
X0090323Y0030169D01*
X0090269Y0030211D01*
X0090218Y0030257D01*
X0090169Y0030306D01*
X0090123Y0030357D01*
X0090081Y0030411D01*
X0090041Y0030467D01*
X0090005Y0030525D01*
X0089973Y0030586D01*
X0089944Y0030648D01*
X0089918Y0030712D01*
X0089897Y0030777D01*
X0089879Y0030844D01*
X0089865Y0030911D01*
X0089855Y0030979D01*
X0089849Y0031047D01*
X0089847Y0031116D01*
X0121960Y0046091D02*
X0121962Y0046160D01*
X0121968Y0046228D01*
X0121978Y0046296D01*
X0121992Y0046363D01*
X0122010Y0046430D01*
X0122031Y0046495D01*
X0122057Y0046559D01*
X0122086Y0046621D01*
X0122118Y0046681D01*
X0122154Y0046740D01*
X0122194Y0046796D01*
X0122236Y0046850D01*
X0122282Y0046901D01*
X0122331Y0046950D01*
X0122382Y0046996D01*
X0122436Y0047038D01*
X0122492Y0047078D01*
X0122550Y0047114D01*
X0122611Y0047146D01*
X0122673Y0047175D01*
X0122737Y0047201D01*
X0122802Y0047222D01*
X0122869Y0047240D01*
X0122936Y0047254D01*
X0123004Y0047264D01*
X0123072Y0047270D01*
X0123141Y0047272D01*
X0123210Y0047270D01*
X0123278Y0047264D01*
X0123346Y0047254D01*
X0123413Y0047240D01*
X0123480Y0047222D01*
X0123545Y0047201D01*
X0123609Y0047175D01*
X0123671Y0047146D01*
X0123731Y0047114D01*
X0123790Y0047078D01*
X0123846Y0047038D01*
X0123900Y0046996D01*
X0123951Y0046950D01*
X0124000Y0046901D01*
X0124046Y0046850D01*
X0124088Y0046796D01*
X0124128Y0046740D01*
X0124164Y0046681D01*
X0124196Y0046621D01*
X0124225Y0046559D01*
X0124251Y0046495D01*
X0124272Y0046430D01*
X0124290Y0046363D01*
X0124304Y0046296D01*
X0124314Y0046228D01*
X0124320Y0046160D01*
X0124322Y0046091D01*
X0124320Y0046022D01*
X0124314Y0045954D01*
X0124304Y0045886D01*
X0124290Y0045819D01*
X0124272Y0045752D01*
X0124251Y0045687D01*
X0124225Y0045623D01*
X0124196Y0045561D01*
X0124164Y0045500D01*
X0124128Y0045442D01*
X0124088Y0045386D01*
X0124046Y0045332D01*
X0124000Y0045281D01*
X0123951Y0045232D01*
X0123900Y0045186D01*
X0123846Y0045144D01*
X0123790Y0045104D01*
X0123732Y0045068D01*
X0123671Y0045036D01*
X0123609Y0045007D01*
X0123545Y0044981D01*
X0123480Y0044960D01*
X0123413Y0044942D01*
X0123346Y0044928D01*
X0123278Y0044918D01*
X0123210Y0044912D01*
X0123141Y0044910D01*
X0123072Y0044912D01*
X0123004Y0044918D01*
X0122936Y0044928D01*
X0122869Y0044942D01*
X0122802Y0044960D01*
X0122737Y0044981D01*
X0122673Y0045007D01*
X0122611Y0045036D01*
X0122550Y0045068D01*
X0122492Y0045104D01*
X0122436Y0045144D01*
X0122382Y0045186D01*
X0122331Y0045232D01*
X0122282Y0045281D01*
X0122236Y0045332D01*
X0122194Y0045386D01*
X0122154Y0045442D01*
X0122118Y0045500D01*
X0122086Y0045561D01*
X0122057Y0045623D01*
X0122031Y0045687D01*
X0122010Y0045752D01*
X0121992Y0045819D01*
X0121978Y0045886D01*
X0121968Y0045954D01*
X0121962Y0046022D01*
X0121960Y0046091D01*
X0106985Y0078204D02*
X0106987Y0078273D01*
X0106993Y0078341D01*
X0107003Y0078409D01*
X0107017Y0078476D01*
X0107035Y0078543D01*
X0107056Y0078608D01*
X0107082Y0078672D01*
X0107111Y0078734D01*
X0107143Y0078794D01*
X0107179Y0078853D01*
X0107219Y0078909D01*
X0107261Y0078963D01*
X0107307Y0079014D01*
X0107356Y0079063D01*
X0107407Y0079109D01*
X0107461Y0079151D01*
X0107517Y0079191D01*
X0107575Y0079227D01*
X0107636Y0079259D01*
X0107698Y0079288D01*
X0107762Y0079314D01*
X0107827Y0079335D01*
X0107894Y0079353D01*
X0107961Y0079367D01*
X0108029Y0079377D01*
X0108097Y0079383D01*
X0108166Y0079385D01*
X0108235Y0079383D01*
X0108303Y0079377D01*
X0108371Y0079367D01*
X0108438Y0079353D01*
X0108505Y0079335D01*
X0108570Y0079314D01*
X0108634Y0079288D01*
X0108696Y0079259D01*
X0108756Y0079227D01*
X0108815Y0079191D01*
X0108871Y0079151D01*
X0108925Y0079109D01*
X0108976Y0079063D01*
X0109025Y0079014D01*
X0109071Y0078963D01*
X0109113Y0078909D01*
X0109153Y0078853D01*
X0109189Y0078794D01*
X0109221Y0078734D01*
X0109250Y0078672D01*
X0109276Y0078608D01*
X0109297Y0078543D01*
X0109315Y0078476D01*
X0109329Y0078409D01*
X0109339Y0078341D01*
X0109345Y0078273D01*
X0109347Y0078204D01*
X0109345Y0078135D01*
X0109339Y0078067D01*
X0109329Y0077999D01*
X0109315Y0077932D01*
X0109297Y0077865D01*
X0109276Y0077800D01*
X0109250Y0077736D01*
X0109221Y0077674D01*
X0109189Y0077613D01*
X0109153Y0077555D01*
X0109113Y0077499D01*
X0109071Y0077445D01*
X0109025Y0077394D01*
X0108976Y0077345D01*
X0108925Y0077299D01*
X0108871Y0077257D01*
X0108815Y0077217D01*
X0108757Y0077181D01*
X0108696Y0077149D01*
X0108634Y0077120D01*
X0108570Y0077094D01*
X0108505Y0077073D01*
X0108438Y0077055D01*
X0108371Y0077041D01*
X0108303Y0077031D01*
X0108235Y0077025D01*
X0108166Y0077023D01*
X0108097Y0077025D01*
X0108029Y0077031D01*
X0107961Y0077041D01*
X0107894Y0077055D01*
X0107827Y0077073D01*
X0107762Y0077094D01*
X0107698Y0077120D01*
X0107636Y0077149D01*
X0107575Y0077181D01*
X0107517Y0077217D01*
X0107461Y0077257D01*
X0107407Y0077299D01*
X0107356Y0077345D01*
X0107307Y0077394D01*
X0107261Y0077445D01*
X0107219Y0077499D01*
X0107179Y0077555D01*
X0107143Y0077613D01*
X0107111Y0077674D01*
X0107082Y0077736D01*
X0107056Y0077800D01*
X0107035Y0077865D01*
X0107017Y0077932D01*
X0107003Y0077999D01*
X0106993Y0078067D01*
X0106987Y0078135D01*
X0106985Y0078204D01*
X0100635Y0100351D02*
X0100637Y0100420D01*
X0100643Y0100488D01*
X0100653Y0100556D01*
X0100667Y0100623D01*
X0100685Y0100690D01*
X0100706Y0100755D01*
X0100732Y0100819D01*
X0100761Y0100881D01*
X0100793Y0100941D01*
X0100829Y0101000D01*
X0100869Y0101056D01*
X0100911Y0101110D01*
X0100957Y0101161D01*
X0101006Y0101210D01*
X0101057Y0101256D01*
X0101111Y0101298D01*
X0101167Y0101338D01*
X0101225Y0101374D01*
X0101286Y0101406D01*
X0101348Y0101435D01*
X0101412Y0101461D01*
X0101477Y0101482D01*
X0101544Y0101500D01*
X0101611Y0101514D01*
X0101679Y0101524D01*
X0101747Y0101530D01*
X0101816Y0101532D01*
X0101885Y0101530D01*
X0101953Y0101524D01*
X0102021Y0101514D01*
X0102088Y0101500D01*
X0102155Y0101482D01*
X0102220Y0101461D01*
X0102284Y0101435D01*
X0102346Y0101406D01*
X0102406Y0101374D01*
X0102465Y0101338D01*
X0102521Y0101298D01*
X0102575Y0101256D01*
X0102626Y0101210D01*
X0102675Y0101161D01*
X0102721Y0101110D01*
X0102763Y0101056D01*
X0102803Y0101000D01*
X0102839Y0100941D01*
X0102871Y0100881D01*
X0102900Y0100819D01*
X0102926Y0100755D01*
X0102947Y0100690D01*
X0102965Y0100623D01*
X0102979Y0100556D01*
X0102989Y0100488D01*
X0102995Y0100420D01*
X0102997Y0100351D01*
X0102995Y0100282D01*
X0102989Y0100214D01*
X0102979Y0100146D01*
X0102965Y0100079D01*
X0102947Y0100012D01*
X0102926Y0099947D01*
X0102900Y0099883D01*
X0102871Y0099821D01*
X0102839Y0099760D01*
X0102803Y0099702D01*
X0102763Y0099646D01*
X0102721Y0099592D01*
X0102675Y0099541D01*
X0102626Y0099492D01*
X0102575Y0099446D01*
X0102521Y0099404D01*
X0102465Y0099364D01*
X0102407Y0099328D01*
X0102346Y0099296D01*
X0102284Y0099267D01*
X0102220Y0099241D01*
X0102155Y0099220D01*
X0102088Y0099202D01*
X0102021Y0099188D01*
X0101953Y0099178D01*
X0101885Y0099172D01*
X0101816Y0099170D01*
X0101747Y0099172D01*
X0101679Y0099178D01*
X0101611Y0099188D01*
X0101544Y0099202D01*
X0101477Y0099220D01*
X0101412Y0099241D01*
X0101348Y0099267D01*
X0101286Y0099296D01*
X0101225Y0099328D01*
X0101167Y0099364D01*
X0101111Y0099404D01*
X0101057Y0099446D01*
X0101006Y0099492D01*
X0100957Y0099541D01*
X0100911Y0099592D01*
X0100869Y0099646D01*
X0100829Y0099702D01*
X0100793Y0099760D01*
X0100761Y0099821D01*
X0100732Y0099883D01*
X0100706Y0099947D01*
X0100685Y0100012D01*
X0100667Y0100079D01*
X0100653Y0100146D01*
X0100643Y0100214D01*
X0100637Y0100282D01*
X0100635Y0100351D01*
X0085660Y0132464D02*
X0085662Y0132533D01*
X0085668Y0132601D01*
X0085678Y0132669D01*
X0085692Y0132736D01*
X0085710Y0132803D01*
X0085731Y0132868D01*
X0085757Y0132932D01*
X0085786Y0132994D01*
X0085818Y0133054D01*
X0085854Y0133113D01*
X0085894Y0133169D01*
X0085936Y0133223D01*
X0085982Y0133274D01*
X0086031Y0133323D01*
X0086082Y0133369D01*
X0086136Y0133411D01*
X0086192Y0133451D01*
X0086250Y0133487D01*
X0086311Y0133519D01*
X0086373Y0133548D01*
X0086437Y0133574D01*
X0086502Y0133595D01*
X0086569Y0133613D01*
X0086636Y0133627D01*
X0086704Y0133637D01*
X0086772Y0133643D01*
X0086841Y0133645D01*
X0086910Y0133643D01*
X0086978Y0133637D01*
X0087046Y0133627D01*
X0087113Y0133613D01*
X0087180Y0133595D01*
X0087245Y0133574D01*
X0087309Y0133548D01*
X0087371Y0133519D01*
X0087431Y0133487D01*
X0087490Y0133451D01*
X0087546Y0133411D01*
X0087600Y0133369D01*
X0087651Y0133323D01*
X0087700Y0133274D01*
X0087746Y0133223D01*
X0087788Y0133169D01*
X0087828Y0133113D01*
X0087864Y0133054D01*
X0087896Y0132994D01*
X0087925Y0132932D01*
X0087951Y0132868D01*
X0087972Y0132803D01*
X0087990Y0132736D01*
X0088004Y0132669D01*
X0088014Y0132601D01*
X0088020Y0132533D01*
X0088022Y0132464D01*
X0088020Y0132395D01*
X0088014Y0132327D01*
X0088004Y0132259D01*
X0087990Y0132192D01*
X0087972Y0132125D01*
X0087951Y0132060D01*
X0087925Y0131996D01*
X0087896Y0131934D01*
X0087864Y0131873D01*
X0087828Y0131815D01*
X0087788Y0131759D01*
X0087746Y0131705D01*
X0087700Y0131654D01*
X0087651Y0131605D01*
X0087600Y0131559D01*
X0087546Y0131517D01*
X0087490Y0131477D01*
X0087432Y0131441D01*
X0087371Y0131409D01*
X0087309Y0131380D01*
X0087245Y0131354D01*
X0087180Y0131333D01*
X0087113Y0131315D01*
X0087046Y0131301D01*
X0086978Y0131291D01*
X0086910Y0131285D01*
X0086841Y0131283D01*
X0086772Y0131285D01*
X0086704Y0131291D01*
X0086636Y0131301D01*
X0086569Y0131315D01*
X0086502Y0131333D01*
X0086437Y0131354D01*
X0086373Y0131380D01*
X0086311Y0131409D01*
X0086250Y0131441D01*
X0086192Y0131477D01*
X0086136Y0131517D01*
X0086082Y0131559D01*
X0086031Y0131605D01*
X0085982Y0131654D01*
X0085936Y0131705D01*
X0085894Y0131759D01*
X0085854Y0131815D01*
X0085818Y0131873D01*
X0085786Y0131934D01*
X0085757Y0131996D01*
X0085731Y0132060D01*
X0085710Y0132125D01*
X0085692Y0132192D01*
X0085678Y0132259D01*
X0085668Y0132327D01*
X0085662Y0132395D01*
X0085660Y0132464D01*
X0158206Y0046091D02*
X0158208Y0046160D01*
X0158214Y0046228D01*
X0158224Y0046296D01*
X0158238Y0046363D01*
X0158256Y0046430D01*
X0158277Y0046495D01*
X0158303Y0046559D01*
X0158332Y0046621D01*
X0158364Y0046681D01*
X0158400Y0046740D01*
X0158440Y0046796D01*
X0158482Y0046850D01*
X0158528Y0046901D01*
X0158577Y0046950D01*
X0158628Y0046996D01*
X0158682Y0047038D01*
X0158738Y0047078D01*
X0158796Y0047114D01*
X0158857Y0047146D01*
X0158919Y0047175D01*
X0158983Y0047201D01*
X0159048Y0047222D01*
X0159115Y0047240D01*
X0159182Y0047254D01*
X0159250Y0047264D01*
X0159318Y0047270D01*
X0159387Y0047272D01*
X0159456Y0047270D01*
X0159524Y0047264D01*
X0159592Y0047254D01*
X0159659Y0047240D01*
X0159726Y0047222D01*
X0159791Y0047201D01*
X0159855Y0047175D01*
X0159917Y0047146D01*
X0159977Y0047114D01*
X0160036Y0047078D01*
X0160092Y0047038D01*
X0160146Y0046996D01*
X0160197Y0046950D01*
X0160246Y0046901D01*
X0160292Y0046850D01*
X0160334Y0046796D01*
X0160374Y0046740D01*
X0160410Y0046681D01*
X0160442Y0046621D01*
X0160471Y0046559D01*
X0160497Y0046495D01*
X0160518Y0046430D01*
X0160536Y0046363D01*
X0160550Y0046296D01*
X0160560Y0046228D01*
X0160566Y0046160D01*
X0160568Y0046091D01*
X0160566Y0046022D01*
X0160560Y0045954D01*
X0160550Y0045886D01*
X0160536Y0045819D01*
X0160518Y0045752D01*
X0160497Y0045687D01*
X0160471Y0045623D01*
X0160442Y0045561D01*
X0160410Y0045500D01*
X0160374Y0045442D01*
X0160334Y0045386D01*
X0160292Y0045332D01*
X0160246Y0045281D01*
X0160197Y0045232D01*
X0160146Y0045186D01*
X0160092Y0045144D01*
X0160036Y0045104D01*
X0159978Y0045068D01*
X0159917Y0045036D01*
X0159855Y0045007D01*
X0159791Y0044981D01*
X0159726Y0044960D01*
X0159659Y0044942D01*
X0159592Y0044928D01*
X0159524Y0044918D01*
X0159456Y0044912D01*
X0159387Y0044910D01*
X0159318Y0044912D01*
X0159250Y0044918D01*
X0159182Y0044928D01*
X0159115Y0044942D01*
X0159048Y0044960D01*
X0158983Y0044981D01*
X0158919Y0045007D01*
X0158857Y0045036D01*
X0158796Y0045068D01*
X0158738Y0045104D01*
X0158682Y0045144D01*
X0158628Y0045186D01*
X0158577Y0045232D01*
X0158528Y0045281D01*
X0158482Y0045332D01*
X0158440Y0045386D01*
X0158400Y0045442D01*
X0158364Y0045500D01*
X0158332Y0045561D01*
X0158303Y0045623D01*
X0158277Y0045687D01*
X0158256Y0045752D01*
X0158238Y0045819D01*
X0158224Y0045886D01*
X0158214Y0045954D01*
X0158208Y0046022D01*
X0158206Y0046091D01*
X0173180Y0078204D02*
X0173182Y0078273D01*
X0173188Y0078341D01*
X0173198Y0078409D01*
X0173212Y0078476D01*
X0173230Y0078543D01*
X0173251Y0078608D01*
X0173277Y0078672D01*
X0173306Y0078734D01*
X0173338Y0078794D01*
X0173374Y0078853D01*
X0173414Y0078909D01*
X0173456Y0078963D01*
X0173502Y0079014D01*
X0173551Y0079063D01*
X0173602Y0079109D01*
X0173656Y0079151D01*
X0173712Y0079191D01*
X0173770Y0079227D01*
X0173831Y0079259D01*
X0173893Y0079288D01*
X0173957Y0079314D01*
X0174022Y0079335D01*
X0174089Y0079353D01*
X0174156Y0079367D01*
X0174224Y0079377D01*
X0174292Y0079383D01*
X0174361Y0079385D01*
X0174430Y0079383D01*
X0174498Y0079377D01*
X0174566Y0079367D01*
X0174633Y0079353D01*
X0174700Y0079335D01*
X0174765Y0079314D01*
X0174829Y0079288D01*
X0174891Y0079259D01*
X0174951Y0079227D01*
X0175010Y0079191D01*
X0175066Y0079151D01*
X0175120Y0079109D01*
X0175171Y0079063D01*
X0175220Y0079014D01*
X0175266Y0078963D01*
X0175308Y0078909D01*
X0175348Y0078853D01*
X0175384Y0078794D01*
X0175416Y0078734D01*
X0175445Y0078672D01*
X0175471Y0078608D01*
X0175492Y0078543D01*
X0175510Y0078476D01*
X0175524Y0078409D01*
X0175534Y0078341D01*
X0175540Y0078273D01*
X0175542Y0078204D01*
X0175540Y0078135D01*
X0175534Y0078067D01*
X0175524Y0077999D01*
X0175510Y0077932D01*
X0175492Y0077865D01*
X0175471Y0077800D01*
X0175445Y0077736D01*
X0175416Y0077674D01*
X0175384Y0077613D01*
X0175348Y0077555D01*
X0175308Y0077499D01*
X0175266Y0077445D01*
X0175220Y0077394D01*
X0175171Y0077345D01*
X0175120Y0077299D01*
X0175066Y0077257D01*
X0175010Y0077217D01*
X0174952Y0077181D01*
X0174891Y0077149D01*
X0174829Y0077120D01*
X0174765Y0077094D01*
X0174700Y0077073D01*
X0174633Y0077055D01*
X0174566Y0077041D01*
X0174498Y0077031D01*
X0174430Y0077025D01*
X0174361Y0077023D01*
X0174292Y0077025D01*
X0174224Y0077031D01*
X0174156Y0077041D01*
X0174089Y0077055D01*
X0174022Y0077073D01*
X0173957Y0077094D01*
X0173893Y0077120D01*
X0173831Y0077149D01*
X0173770Y0077181D01*
X0173712Y0077217D01*
X0173656Y0077257D01*
X0173602Y0077299D01*
X0173551Y0077345D01*
X0173502Y0077394D01*
X0173456Y0077445D01*
X0173414Y0077499D01*
X0173374Y0077555D01*
X0173338Y0077613D01*
X0173306Y0077674D01*
X0173277Y0077736D01*
X0173251Y0077800D01*
X0173230Y0077865D01*
X0173212Y0077932D01*
X0173198Y0077999D01*
X0173188Y0078067D01*
X0173182Y0078135D01*
X0173180Y0078204D01*
X0179531Y0100351D02*
X0179533Y0100420D01*
X0179539Y0100488D01*
X0179549Y0100556D01*
X0179563Y0100623D01*
X0179581Y0100690D01*
X0179602Y0100755D01*
X0179628Y0100819D01*
X0179657Y0100881D01*
X0179689Y0100941D01*
X0179725Y0101000D01*
X0179765Y0101056D01*
X0179807Y0101110D01*
X0179853Y0101161D01*
X0179902Y0101210D01*
X0179953Y0101256D01*
X0180007Y0101298D01*
X0180063Y0101338D01*
X0180121Y0101374D01*
X0180182Y0101406D01*
X0180244Y0101435D01*
X0180308Y0101461D01*
X0180373Y0101482D01*
X0180440Y0101500D01*
X0180507Y0101514D01*
X0180575Y0101524D01*
X0180643Y0101530D01*
X0180712Y0101532D01*
X0180781Y0101530D01*
X0180849Y0101524D01*
X0180917Y0101514D01*
X0180984Y0101500D01*
X0181051Y0101482D01*
X0181116Y0101461D01*
X0181180Y0101435D01*
X0181242Y0101406D01*
X0181302Y0101374D01*
X0181361Y0101338D01*
X0181417Y0101298D01*
X0181471Y0101256D01*
X0181522Y0101210D01*
X0181571Y0101161D01*
X0181617Y0101110D01*
X0181659Y0101056D01*
X0181699Y0101000D01*
X0181735Y0100941D01*
X0181767Y0100881D01*
X0181796Y0100819D01*
X0181822Y0100755D01*
X0181843Y0100690D01*
X0181861Y0100623D01*
X0181875Y0100556D01*
X0181885Y0100488D01*
X0181891Y0100420D01*
X0181893Y0100351D01*
X0181891Y0100282D01*
X0181885Y0100214D01*
X0181875Y0100146D01*
X0181861Y0100079D01*
X0181843Y0100012D01*
X0181822Y0099947D01*
X0181796Y0099883D01*
X0181767Y0099821D01*
X0181735Y0099760D01*
X0181699Y0099702D01*
X0181659Y0099646D01*
X0181617Y0099592D01*
X0181571Y0099541D01*
X0181522Y0099492D01*
X0181471Y0099446D01*
X0181417Y0099404D01*
X0181361Y0099364D01*
X0181303Y0099328D01*
X0181242Y0099296D01*
X0181180Y0099267D01*
X0181116Y0099241D01*
X0181051Y0099220D01*
X0180984Y0099202D01*
X0180917Y0099188D01*
X0180849Y0099178D01*
X0180781Y0099172D01*
X0180712Y0099170D01*
X0180643Y0099172D01*
X0180575Y0099178D01*
X0180507Y0099188D01*
X0180440Y0099202D01*
X0180373Y0099220D01*
X0180308Y0099241D01*
X0180244Y0099267D01*
X0180182Y0099296D01*
X0180121Y0099328D01*
X0180063Y0099364D01*
X0180007Y0099404D01*
X0179953Y0099446D01*
X0179902Y0099492D01*
X0179853Y0099541D01*
X0179807Y0099592D01*
X0179765Y0099646D01*
X0179725Y0099702D01*
X0179689Y0099760D01*
X0179657Y0099821D01*
X0179628Y0099883D01*
X0179602Y0099947D01*
X0179581Y0100012D01*
X0179563Y0100079D01*
X0179549Y0100146D01*
X0179539Y0100214D01*
X0179533Y0100282D01*
X0179531Y0100351D01*
X0194506Y0132464D02*
X0194508Y0132533D01*
X0194514Y0132601D01*
X0194524Y0132669D01*
X0194538Y0132736D01*
X0194556Y0132803D01*
X0194577Y0132868D01*
X0194603Y0132932D01*
X0194632Y0132994D01*
X0194664Y0133054D01*
X0194700Y0133113D01*
X0194740Y0133169D01*
X0194782Y0133223D01*
X0194828Y0133274D01*
X0194877Y0133323D01*
X0194928Y0133369D01*
X0194982Y0133411D01*
X0195038Y0133451D01*
X0195096Y0133487D01*
X0195157Y0133519D01*
X0195219Y0133548D01*
X0195283Y0133574D01*
X0195348Y0133595D01*
X0195415Y0133613D01*
X0195482Y0133627D01*
X0195550Y0133637D01*
X0195618Y0133643D01*
X0195687Y0133645D01*
X0195756Y0133643D01*
X0195824Y0133637D01*
X0195892Y0133627D01*
X0195959Y0133613D01*
X0196026Y0133595D01*
X0196091Y0133574D01*
X0196155Y0133548D01*
X0196217Y0133519D01*
X0196277Y0133487D01*
X0196336Y0133451D01*
X0196392Y0133411D01*
X0196446Y0133369D01*
X0196497Y0133323D01*
X0196546Y0133274D01*
X0196592Y0133223D01*
X0196634Y0133169D01*
X0196674Y0133113D01*
X0196710Y0133054D01*
X0196742Y0132994D01*
X0196771Y0132932D01*
X0196797Y0132868D01*
X0196818Y0132803D01*
X0196836Y0132736D01*
X0196850Y0132669D01*
X0196860Y0132601D01*
X0196866Y0132533D01*
X0196868Y0132464D01*
X0196866Y0132395D01*
X0196860Y0132327D01*
X0196850Y0132259D01*
X0196836Y0132192D01*
X0196818Y0132125D01*
X0196797Y0132060D01*
X0196771Y0131996D01*
X0196742Y0131934D01*
X0196710Y0131873D01*
X0196674Y0131815D01*
X0196634Y0131759D01*
X0196592Y0131705D01*
X0196546Y0131654D01*
X0196497Y0131605D01*
X0196446Y0131559D01*
X0196392Y0131517D01*
X0196336Y0131477D01*
X0196278Y0131441D01*
X0196217Y0131409D01*
X0196155Y0131380D01*
X0196091Y0131354D01*
X0196026Y0131333D01*
X0195959Y0131315D01*
X0195892Y0131301D01*
X0195824Y0131291D01*
X0195756Y0131285D01*
X0195687Y0131283D01*
X0195618Y0131285D01*
X0195550Y0131291D01*
X0195482Y0131301D01*
X0195415Y0131315D01*
X0195348Y0131333D01*
X0195283Y0131354D01*
X0195219Y0131380D01*
X0195157Y0131409D01*
X0195096Y0131441D01*
X0195038Y0131477D01*
X0194982Y0131517D01*
X0194928Y0131559D01*
X0194877Y0131605D01*
X0194828Y0131654D01*
X0194782Y0131705D01*
X0194740Y0131759D01*
X0194700Y0131815D01*
X0194664Y0131873D01*
X0194632Y0131934D01*
X0194603Y0131996D01*
X0194577Y0132060D01*
X0194556Y0132125D01*
X0194538Y0132192D01*
X0194524Y0132259D01*
X0194514Y0132327D01*
X0194508Y0132395D01*
X0194506Y0132464D01*
X0226619Y0117489D02*
X0226621Y0117558D01*
X0226627Y0117626D01*
X0226637Y0117694D01*
X0226651Y0117761D01*
X0226669Y0117828D01*
X0226690Y0117893D01*
X0226716Y0117957D01*
X0226745Y0118019D01*
X0226777Y0118079D01*
X0226813Y0118138D01*
X0226853Y0118194D01*
X0226895Y0118248D01*
X0226941Y0118299D01*
X0226990Y0118348D01*
X0227041Y0118394D01*
X0227095Y0118436D01*
X0227151Y0118476D01*
X0227209Y0118512D01*
X0227270Y0118544D01*
X0227332Y0118573D01*
X0227396Y0118599D01*
X0227461Y0118620D01*
X0227528Y0118638D01*
X0227595Y0118652D01*
X0227663Y0118662D01*
X0227731Y0118668D01*
X0227800Y0118670D01*
X0227869Y0118668D01*
X0227937Y0118662D01*
X0228005Y0118652D01*
X0228072Y0118638D01*
X0228139Y0118620D01*
X0228204Y0118599D01*
X0228268Y0118573D01*
X0228330Y0118544D01*
X0228390Y0118512D01*
X0228449Y0118476D01*
X0228505Y0118436D01*
X0228559Y0118394D01*
X0228610Y0118348D01*
X0228659Y0118299D01*
X0228705Y0118248D01*
X0228747Y0118194D01*
X0228787Y0118138D01*
X0228823Y0118079D01*
X0228855Y0118019D01*
X0228884Y0117957D01*
X0228910Y0117893D01*
X0228931Y0117828D01*
X0228949Y0117761D01*
X0228963Y0117694D01*
X0228973Y0117626D01*
X0228979Y0117558D01*
X0228981Y0117489D01*
X0228979Y0117420D01*
X0228973Y0117352D01*
X0228963Y0117284D01*
X0228949Y0117217D01*
X0228931Y0117150D01*
X0228910Y0117085D01*
X0228884Y0117021D01*
X0228855Y0116959D01*
X0228823Y0116898D01*
X0228787Y0116840D01*
X0228747Y0116784D01*
X0228705Y0116730D01*
X0228659Y0116679D01*
X0228610Y0116630D01*
X0228559Y0116584D01*
X0228505Y0116542D01*
X0228449Y0116502D01*
X0228391Y0116466D01*
X0228330Y0116434D01*
X0228268Y0116405D01*
X0228204Y0116379D01*
X0228139Y0116358D01*
X0228072Y0116340D01*
X0228005Y0116326D01*
X0227937Y0116316D01*
X0227869Y0116310D01*
X0227800Y0116308D01*
X0227731Y0116310D01*
X0227663Y0116316D01*
X0227595Y0116326D01*
X0227528Y0116340D01*
X0227461Y0116358D01*
X0227396Y0116379D01*
X0227332Y0116405D01*
X0227270Y0116434D01*
X0227209Y0116466D01*
X0227151Y0116502D01*
X0227095Y0116542D01*
X0227041Y0116584D01*
X0226990Y0116630D01*
X0226941Y0116679D01*
X0226895Y0116730D01*
X0226853Y0116784D01*
X0226813Y0116840D01*
X0226777Y0116898D01*
X0226745Y0116959D01*
X0226716Y0117021D01*
X0226690Y0117085D01*
X0226669Y0117150D01*
X0226651Y0117217D01*
X0226637Y0117284D01*
X0226627Y0117352D01*
X0226621Y0117420D01*
X0226619Y0117489D01*
X0211644Y0085376D02*
X0211646Y0085445D01*
X0211652Y0085513D01*
X0211662Y0085581D01*
X0211676Y0085648D01*
X0211694Y0085715D01*
X0211715Y0085780D01*
X0211741Y0085844D01*
X0211770Y0085906D01*
X0211802Y0085966D01*
X0211838Y0086025D01*
X0211878Y0086081D01*
X0211920Y0086135D01*
X0211966Y0086186D01*
X0212015Y0086235D01*
X0212066Y0086281D01*
X0212120Y0086323D01*
X0212176Y0086363D01*
X0212234Y0086399D01*
X0212295Y0086431D01*
X0212357Y0086460D01*
X0212421Y0086486D01*
X0212486Y0086507D01*
X0212553Y0086525D01*
X0212620Y0086539D01*
X0212688Y0086549D01*
X0212756Y0086555D01*
X0212825Y0086557D01*
X0212894Y0086555D01*
X0212962Y0086549D01*
X0213030Y0086539D01*
X0213097Y0086525D01*
X0213164Y0086507D01*
X0213229Y0086486D01*
X0213293Y0086460D01*
X0213355Y0086431D01*
X0213415Y0086399D01*
X0213474Y0086363D01*
X0213530Y0086323D01*
X0213584Y0086281D01*
X0213635Y0086235D01*
X0213684Y0086186D01*
X0213730Y0086135D01*
X0213772Y0086081D01*
X0213812Y0086025D01*
X0213848Y0085966D01*
X0213880Y0085906D01*
X0213909Y0085844D01*
X0213935Y0085780D01*
X0213956Y0085715D01*
X0213974Y0085648D01*
X0213988Y0085581D01*
X0213998Y0085513D01*
X0214004Y0085445D01*
X0214006Y0085376D01*
X0214004Y0085307D01*
X0213998Y0085239D01*
X0213988Y0085171D01*
X0213974Y0085104D01*
X0213956Y0085037D01*
X0213935Y0084972D01*
X0213909Y0084908D01*
X0213880Y0084846D01*
X0213848Y0084785D01*
X0213812Y0084727D01*
X0213772Y0084671D01*
X0213730Y0084617D01*
X0213684Y0084566D01*
X0213635Y0084517D01*
X0213584Y0084471D01*
X0213530Y0084429D01*
X0213474Y0084389D01*
X0213416Y0084353D01*
X0213355Y0084321D01*
X0213293Y0084292D01*
X0213229Y0084266D01*
X0213164Y0084245D01*
X0213097Y0084227D01*
X0213030Y0084213D01*
X0212962Y0084203D01*
X0212894Y0084197D01*
X0212825Y0084195D01*
X0212756Y0084197D01*
X0212688Y0084203D01*
X0212620Y0084213D01*
X0212553Y0084227D01*
X0212486Y0084245D01*
X0212421Y0084266D01*
X0212357Y0084292D01*
X0212295Y0084321D01*
X0212234Y0084353D01*
X0212176Y0084389D01*
X0212120Y0084429D01*
X0212066Y0084471D01*
X0212015Y0084517D01*
X0211966Y0084566D01*
X0211920Y0084617D01*
X0211878Y0084671D01*
X0211838Y0084727D01*
X0211802Y0084785D01*
X0211770Y0084846D01*
X0211741Y0084908D01*
X0211715Y0084972D01*
X0211694Y0085037D01*
X0211676Y0085104D01*
X0211662Y0085171D01*
X0211652Y0085239D01*
X0211646Y0085307D01*
X0211644Y0085376D01*
X0205293Y0063229D02*
X0205295Y0063298D01*
X0205301Y0063366D01*
X0205311Y0063434D01*
X0205325Y0063501D01*
X0205343Y0063568D01*
X0205364Y0063633D01*
X0205390Y0063697D01*
X0205419Y0063759D01*
X0205451Y0063819D01*
X0205487Y0063878D01*
X0205527Y0063934D01*
X0205569Y0063988D01*
X0205615Y0064039D01*
X0205664Y0064088D01*
X0205715Y0064134D01*
X0205769Y0064176D01*
X0205825Y0064216D01*
X0205883Y0064252D01*
X0205944Y0064284D01*
X0206006Y0064313D01*
X0206070Y0064339D01*
X0206135Y0064360D01*
X0206202Y0064378D01*
X0206269Y0064392D01*
X0206337Y0064402D01*
X0206405Y0064408D01*
X0206474Y0064410D01*
X0206543Y0064408D01*
X0206611Y0064402D01*
X0206679Y0064392D01*
X0206746Y0064378D01*
X0206813Y0064360D01*
X0206878Y0064339D01*
X0206942Y0064313D01*
X0207004Y0064284D01*
X0207064Y0064252D01*
X0207123Y0064216D01*
X0207179Y0064176D01*
X0207233Y0064134D01*
X0207284Y0064088D01*
X0207333Y0064039D01*
X0207379Y0063988D01*
X0207421Y0063934D01*
X0207461Y0063878D01*
X0207497Y0063819D01*
X0207529Y0063759D01*
X0207558Y0063697D01*
X0207584Y0063633D01*
X0207605Y0063568D01*
X0207623Y0063501D01*
X0207637Y0063434D01*
X0207647Y0063366D01*
X0207653Y0063298D01*
X0207655Y0063229D01*
X0207653Y0063160D01*
X0207647Y0063092D01*
X0207637Y0063024D01*
X0207623Y0062957D01*
X0207605Y0062890D01*
X0207584Y0062825D01*
X0207558Y0062761D01*
X0207529Y0062699D01*
X0207497Y0062638D01*
X0207461Y0062580D01*
X0207421Y0062524D01*
X0207379Y0062470D01*
X0207333Y0062419D01*
X0207284Y0062370D01*
X0207233Y0062324D01*
X0207179Y0062282D01*
X0207123Y0062242D01*
X0207065Y0062206D01*
X0207004Y0062174D01*
X0206942Y0062145D01*
X0206878Y0062119D01*
X0206813Y0062098D01*
X0206746Y0062080D01*
X0206679Y0062066D01*
X0206611Y0062056D01*
X0206543Y0062050D01*
X0206474Y0062048D01*
X0206405Y0062050D01*
X0206337Y0062056D01*
X0206269Y0062066D01*
X0206202Y0062080D01*
X0206135Y0062098D01*
X0206070Y0062119D01*
X0206006Y0062145D01*
X0205944Y0062174D01*
X0205883Y0062206D01*
X0205825Y0062242D01*
X0205769Y0062282D01*
X0205715Y0062324D01*
X0205664Y0062370D01*
X0205615Y0062419D01*
X0205569Y0062470D01*
X0205527Y0062524D01*
X0205487Y0062580D01*
X0205451Y0062638D01*
X0205419Y0062699D01*
X0205390Y0062761D01*
X0205364Y0062825D01*
X0205343Y0062890D01*
X0205325Y0062957D01*
X0205311Y0063024D01*
X0205301Y0063092D01*
X0205295Y0063160D01*
X0205293Y0063229D01*
X0190319Y0031116D02*
X0190321Y0031185D01*
X0190327Y0031253D01*
X0190337Y0031321D01*
X0190351Y0031388D01*
X0190369Y0031455D01*
X0190390Y0031520D01*
X0190416Y0031584D01*
X0190445Y0031646D01*
X0190477Y0031706D01*
X0190513Y0031765D01*
X0190553Y0031821D01*
X0190595Y0031875D01*
X0190641Y0031926D01*
X0190690Y0031975D01*
X0190741Y0032021D01*
X0190795Y0032063D01*
X0190851Y0032103D01*
X0190909Y0032139D01*
X0190970Y0032171D01*
X0191032Y0032200D01*
X0191096Y0032226D01*
X0191161Y0032247D01*
X0191228Y0032265D01*
X0191295Y0032279D01*
X0191363Y0032289D01*
X0191431Y0032295D01*
X0191500Y0032297D01*
X0191569Y0032295D01*
X0191637Y0032289D01*
X0191705Y0032279D01*
X0191772Y0032265D01*
X0191839Y0032247D01*
X0191904Y0032226D01*
X0191968Y0032200D01*
X0192030Y0032171D01*
X0192090Y0032139D01*
X0192149Y0032103D01*
X0192205Y0032063D01*
X0192259Y0032021D01*
X0192310Y0031975D01*
X0192359Y0031926D01*
X0192405Y0031875D01*
X0192447Y0031821D01*
X0192487Y0031765D01*
X0192523Y0031706D01*
X0192555Y0031646D01*
X0192584Y0031584D01*
X0192610Y0031520D01*
X0192631Y0031455D01*
X0192649Y0031388D01*
X0192663Y0031321D01*
X0192673Y0031253D01*
X0192679Y0031185D01*
X0192681Y0031116D01*
X0192679Y0031047D01*
X0192673Y0030979D01*
X0192663Y0030911D01*
X0192649Y0030844D01*
X0192631Y0030777D01*
X0192610Y0030712D01*
X0192584Y0030648D01*
X0192555Y0030586D01*
X0192523Y0030525D01*
X0192487Y0030467D01*
X0192447Y0030411D01*
X0192405Y0030357D01*
X0192359Y0030306D01*
X0192310Y0030257D01*
X0192259Y0030211D01*
X0192205Y0030169D01*
X0192149Y0030129D01*
X0192091Y0030093D01*
X0192030Y0030061D01*
X0191968Y0030032D01*
X0191904Y0030006D01*
X0191839Y0029985D01*
X0191772Y0029967D01*
X0191705Y0029953D01*
X0191637Y0029943D01*
X0191569Y0029937D01*
X0191500Y0029935D01*
X0191431Y0029937D01*
X0191363Y0029943D01*
X0191295Y0029953D01*
X0191228Y0029967D01*
X0191161Y0029985D01*
X0191096Y0030006D01*
X0191032Y0030032D01*
X0190970Y0030061D01*
X0190909Y0030093D01*
X0190851Y0030129D01*
X0190795Y0030169D01*
X0190741Y0030211D01*
X0190690Y0030257D01*
X0190641Y0030306D01*
X0190595Y0030357D01*
X0190553Y0030411D01*
X0190513Y0030467D01*
X0190477Y0030525D01*
X0190445Y0030586D01*
X0190416Y0030648D01*
X0190390Y0030712D01*
X0190369Y0030777D01*
X0190351Y0030844D01*
X0190337Y0030911D01*
X0190327Y0030979D01*
X0190321Y0031047D01*
X0190319Y0031116D01*
D55*
X0089066Y0313281D03*
X0083266Y0313281D03*
D56*
X0193823Y0313276D03*
M02*
