%
M48
M72
T01C0.01969
T02C0.02362
T03C0.03543
T04C0.04000
T05C0.11811
%
T01
X113484Y283354
X128000Y277055
X133169Y289654
X143012Y280205
X148000Y286504
X138000Y273906
X160728Y277843
X156791Y329024
X235531Y269969
X239469Y277843
X243406Y273906
X247343Y266031
X247343Y297528
X263091Y297528
X172539Y210913
X158000Y179417
X188000Y171543
X207972Y183354
X218000Y171543
X223130Y187291
X267028Y171543
X270965Y108551
X135138Y41622
X117421Y100677
X125295Y124299
X89862Y151858
X85925Y124299
X81988Y120362
X66240Y120362
X58366Y124299
X62303Y151858
X52854Y210913
X38681Y218787
X52461Y10126
T02
X38000Y266031
X118000Y266031
T03
X273524Y315244
X273524Y327055
T04
X122539Y140047
X132539Y140047
X142539Y140047
X152539Y140047
X162539Y140047
X172539Y140047
T05
X18996Y18000
X267028Y18000
X267028Y136110
X267028Y360520
X18996Y360520
M30
