G75*
%MOIN*%
%OFA0B0*%
%FSLAX25Y25*%
%IPPOS*%
%LPD*%
%AMOC8*
5,1,8,0,0,1.08239X$1,22.5*
%
%ADD10C,0.00000*%
%ADD11R,0.06000X0.13000*%
%ADD12R,0.10000X0.10000*%
%ADD13R,0.05512X0.04331*%
%ADD14R,0.04724X0.04724*%
%ADD15R,0.05906X0.02756*%
%ADD16R,0.02362X0.03937*%
%ADD17R,0.03150X0.03937*%
%ADD18R,0.18110X0.03937*%
%ADD19R,0.13386X0.06299*%
%ADD20C,0.07400*%
%ADD21C,0.01000*%
%ADD22C,0.03569*%
%ADD23C,0.03962*%
%ADD24C,0.01600*%
%ADD25C,0.01200*%
%ADD26C,0.02400*%
%ADD27C,0.03200*%
D10*
X0003248Y0006189D02*
X0003248Y0368394D01*
X0003250Y0368518D01*
X0003256Y0368641D01*
X0003265Y0368765D01*
X0003279Y0368887D01*
X0003296Y0369010D01*
X0003318Y0369132D01*
X0003343Y0369253D01*
X0003372Y0369373D01*
X0003404Y0369492D01*
X0003441Y0369611D01*
X0003481Y0369728D01*
X0003524Y0369843D01*
X0003572Y0369958D01*
X0003623Y0370070D01*
X0003677Y0370181D01*
X0003735Y0370291D01*
X0003796Y0370398D01*
X0003861Y0370504D01*
X0003929Y0370607D01*
X0004000Y0370708D01*
X0004074Y0370807D01*
X0004151Y0370904D01*
X0004232Y0370998D01*
X0004315Y0371089D01*
X0004401Y0371178D01*
X0004490Y0371264D01*
X0004581Y0371347D01*
X0004675Y0371428D01*
X0004772Y0371505D01*
X0004871Y0371579D01*
X0004972Y0371650D01*
X0005075Y0371718D01*
X0005181Y0371783D01*
X0005288Y0371844D01*
X0005398Y0371902D01*
X0005509Y0371956D01*
X0005621Y0372007D01*
X0005736Y0372055D01*
X0005851Y0372098D01*
X0005968Y0372138D01*
X0006087Y0372175D01*
X0006206Y0372207D01*
X0006326Y0372236D01*
X0006447Y0372261D01*
X0006569Y0372283D01*
X0006692Y0372300D01*
X0006814Y0372314D01*
X0006938Y0372323D01*
X0007061Y0372329D01*
X0007185Y0372331D01*
X0278839Y0372331D01*
X0278963Y0372329D01*
X0279086Y0372323D01*
X0279210Y0372314D01*
X0279332Y0372300D01*
X0279455Y0372283D01*
X0279577Y0372261D01*
X0279698Y0372236D01*
X0279818Y0372207D01*
X0279937Y0372175D01*
X0280056Y0372138D01*
X0280173Y0372098D01*
X0280288Y0372055D01*
X0280403Y0372007D01*
X0280515Y0371956D01*
X0280626Y0371902D01*
X0280736Y0371844D01*
X0280843Y0371783D01*
X0280949Y0371718D01*
X0281052Y0371650D01*
X0281153Y0371579D01*
X0281252Y0371505D01*
X0281349Y0371428D01*
X0281443Y0371347D01*
X0281534Y0371264D01*
X0281623Y0371178D01*
X0281709Y0371089D01*
X0281792Y0370998D01*
X0281873Y0370904D01*
X0281950Y0370807D01*
X0282024Y0370708D01*
X0282095Y0370607D01*
X0282163Y0370504D01*
X0282228Y0370398D01*
X0282289Y0370291D01*
X0282347Y0370181D01*
X0282401Y0370070D01*
X0282452Y0369958D01*
X0282500Y0369843D01*
X0282543Y0369728D01*
X0282583Y0369611D01*
X0282620Y0369492D01*
X0282652Y0369373D01*
X0282681Y0369253D01*
X0282706Y0369132D01*
X0282728Y0369010D01*
X0282745Y0368887D01*
X0282759Y0368765D01*
X0282768Y0368641D01*
X0282774Y0368518D01*
X0282776Y0368394D01*
X0282776Y0006189D01*
X0282774Y0006065D01*
X0282768Y0005942D01*
X0282759Y0005818D01*
X0282745Y0005696D01*
X0282728Y0005573D01*
X0282706Y0005451D01*
X0282681Y0005330D01*
X0282652Y0005210D01*
X0282620Y0005091D01*
X0282583Y0004972D01*
X0282543Y0004855D01*
X0282500Y0004740D01*
X0282452Y0004625D01*
X0282401Y0004513D01*
X0282347Y0004402D01*
X0282289Y0004292D01*
X0282228Y0004185D01*
X0282163Y0004079D01*
X0282095Y0003976D01*
X0282024Y0003875D01*
X0281950Y0003776D01*
X0281873Y0003679D01*
X0281792Y0003585D01*
X0281709Y0003494D01*
X0281623Y0003405D01*
X0281534Y0003319D01*
X0281443Y0003236D01*
X0281349Y0003155D01*
X0281252Y0003078D01*
X0281153Y0003004D01*
X0281052Y0002933D01*
X0280949Y0002865D01*
X0280843Y0002800D01*
X0280736Y0002739D01*
X0280626Y0002681D01*
X0280515Y0002627D01*
X0280403Y0002576D01*
X0280288Y0002528D01*
X0280173Y0002485D01*
X0280056Y0002445D01*
X0279937Y0002408D01*
X0279818Y0002376D01*
X0279698Y0002347D01*
X0279577Y0002322D01*
X0279455Y0002300D01*
X0279332Y0002283D01*
X0279210Y0002269D01*
X0279086Y0002260D01*
X0278963Y0002254D01*
X0278839Y0002252D01*
X0007185Y0002252D01*
X0007061Y0002254D01*
X0006938Y0002260D01*
X0006814Y0002269D01*
X0006692Y0002283D01*
X0006569Y0002300D01*
X0006447Y0002322D01*
X0006326Y0002347D01*
X0006206Y0002376D01*
X0006087Y0002408D01*
X0005968Y0002445D01*
X0005851Y0002485D01*
X0005736Y0002528D01*
X0005621Y0002576D01*
X0005509Y0002627D01*
X0005398Y0002681D01*
X0005288Y0002739D01*
X0005181Y0002800D01*
X0005075Y0002865D01*
X0004972Y0002933D01*
X0004871Y0003004D01*
X0004772Y0003078D01*
X0004675Y0003155D01*
X0004581Y0003236D01*
X0004490Y0003319D01*
X0004401Y0003405D01*
X0004315Y0003494D01*
X0004232Y0003585D01*
X0004151Y0003679D01*
X0004074Y0003776D01*
X0004000Y0003875D01*
X0003929Y0003976D01*
X0003861Y0004079D01*
X0003796Y0004185D01*
X0003735Y0004292D01*
X0003677Y0004402D01*
X0003623Y0004513D01*
X0003572Y0004625D01*
X0003524Y0004740D01*
X0003481Y0004855D01*
X0003441Y0004972D01*
X0003404Y0005091D01*
X0003372Y0005210D01*
X0003343Y0005330D01*
X0003318Y0005451D01*
X0003296Y0005573D01*
X0003279Y0005696D01*
X0003265Y0005818D01*
X0003256Y0005942D01*
X0003250Y0006065D01*
X0003248Y0006189D01*
X0013090Y0018000D02*
X0013092Y0018153D01*
X0013098Y0018307D01*
X0013108Y0018460D01*
X0013122Y0018612D01*
X0013140Y0018765D01*
X0013162Y0018916D01*
X0013187Y0019067D01*
X0013217Y0019218D01*
X0013251Y0019368D01*
X0013288Y0019516D01*
X0013329Y0019664D01*
X0013374Y0019810D01*
X0013423Y0019956D01*
X0013476Y0020100D01*
X0013532Y0020242D01*
X0013592Y0020383D01*
X0013656Y0020523D01*
X0013723Y0020661D01*
X0013794Y0020797D01*
X0013869Y0020931D01*
X0013946Y0021063D01*
X0014028Y0021193D01*
X0014112Y0021321D01*
X0014200Y0021447D01*
X0014291Y0021570D01*
X0014385Y0021691D01*
X0014483Y0021809D01*
X0014583Y0021925D01*
X0014687Y0022038D01*
X0014793Y0022149D01*
X0014902Y0022257D01*
X0015014Y0022362D01*
X0015128Y0022463D01*
X0015246Y0022562D01*
X0015365Y0022658D01*
X0015487Y0022751D01*
X0015612Y0022840D01*
X0015739Y0022927D01*
X0015868Y0023009D01*
X0015999Y0023089D01*
X0016132Y0023165D01*
X0016267Y0023238D01*
X0016404Y0023307D01*
X0016543Y0023372D01*
X0016683Y0023434D01*
X0016825Y0023492D01*
X0016968Y0023547D01*
X0017113Y0023598D01*
X0017259Y0023645D01*
X0017406Y0023688D01*
X0017554Y0023727D01*
X0017703Y0023763D01*
X0017853Y0023794D01*
X0018004Y0023822D01*
X0018155Y0023846D01*
X0018308Y0023866D01*
X0018460Y0023882D01*
X0018613Y0023894D01*
X0018766Y0023902D01*
X0018919Y0023906D01*
X0019073Y0023906D01*
X0019226Y0023902D01*
X0019379Y0023894D01*
X0019532Y0023882D01*
X0019684Y0023866D01*
X0019837Y0023846D01*
X0019988Y0023822D01*
X0020139Y0023794D01*
X0020289Y0023763D01*
X0020438Y0023727D01*
X0020586Y0023688D01*
X0020733Y0023645D01*
X0020879Y0023598D01*
X0021024Y0023547D01*
X0021167Y0023492D01*
X0021309Y0023434D01*
X0021449Y0023372D01*
X0021588Y0023307D01*
X0021725Y0023238D01*
X0021860Y0023165D01*
X0021993Y0023089D01*
X0022124Y0023009D01*
X0022253Y0022927D01*
X0022380Y0022840D01*
X0022505Y0022751D01*
X0022627Y0022658D01*
X0022746Y0022562D01*
X0022864Y0022463D01*
X0022978Y0022362D01*
X0023090Y0022257D01*
X0023199Y0022149D01*
X0023305Y0022038D01*
X0023409Y0021925D01*
X0023509Y0021809D01*
X0023607Y0021691D01*
X0023701Y0021570D01*
X0023792Y0021447D01*
X0023880Y0021321D01*
X0023964Y0021193D01*
X0024046Y0021063D01*
X0024123Y0020931D01*
X0024198Y0020797D01*
X0024269Y0020661D01*
X0024336Y0020523D01*
X0024400Y0020383D01*
X0024460Y0020242D01*
X0024516Y0020100D01*
X0024569Y0019956D01*
X0024618Y0019810D01*
X0024663Y0019664D01*
X0024704Y0019516D01*
X0024741Y0019368D01*
X0024775Y0019218D01*
X0024805Y0019067D01*
X0024830Y0018916D01*
X0024852Y0018765D01*
X0024870Y0018612D01*
X0024884Y0018460D01*
X0024894Y0018307D01*
X0024900Y0018153D01*
X0024902Y0018000D01*
X0024900Y0017847D01*
X0024894Y0017693D01*
X0024884Y0017540D01*
X0024870Y0017388D01*
X0024852Y0017235D01*
X0024830Y0017084D01*
X0024805Y0016933D01*
X0024775Y0016782D01*
X0024741Y0016632D01*
X0024704Y0016484D01*
X0024663Y0016336D01*
X0024618Y0016190D01*
X0024569Y0016044D01*
X0024516Y0015900D01*
X0024460Y0015758D01*
X0024400Y0015617D01*
X0024336Y0015477D01*
X0024269Y0015339D01*
X0024198Y0015203D01*
X0024123Y0015069D01*
X0024046Y0014937D01*
X0023964Y0014807D01*
X0023880Y0014679D01*
X0023792Y0014553D01*
X0023701Y0014430D01*
X0023607Y0014309D01*
X0023509Y0014191D01*
X0023409Y0014075D01*
X0023305Y0013962D01*
X0023199Y0013851D01*
X0023090Y0013743D01*
X0022978Y0013638D01*
X0022864Y0013537D01*
X0022746Y0013438D01*
X0022627Y0013342D01*
X0022505Y0013249D01*
X0022380Y0013160D01*
X0022253Y0013073D01*
X0022124Y0012991D01*
X0021993Y0012911D01*
X0021860Y0012835D01*
X0021725Y0012762D01*
X0021588Y0012693D01*
X0021449Y0012628D01*
X0021309Y0012566D01*
X0021167Y0012508D01*
X0021024Y0012453D01*
X0020879Y0012402D01*
X0020733Y0012355D01*
X0020586Y0012312D01*
X0020438Y0012273D01*
X0020289Y0012237D01*
X0020139Y0012206D01*
X0019988Y0012178D01*
X0019837Y0012154D01*
X0019684Y0012134D01*
X0019532Y0012118D01*
X0019379Y0012106D01*
X0019226Y0012098D01*
X0019073Y0012094D01*
X0018919Y0012094D01*
X0018766Y0012098D01*
X0018613Y0012106D01*
X0018460Y0012118D01*
X0018308Y0012134D01*
X0018155Y0012154D01*
X0018004Y0012178D01*
X0017853Y0012206D01*
X0017703Y0012237D01*
X0017554Y0012273D01*
X0017406Y0012312D01*
X0017259Y0012355D01*
X0017113Y0012402D01*
X0016968Y0012453D01*
X0016825Y0012508D01*
X0016683Y0012566D01*
X0016543Y0012628D01*
X0016404Y0012693D01*
X0016267Y0012762D01*
X0016132Y0012835D01*
X0015999Y0012911D01*
X0015868Y0012991D01*
X0015739Y0013073D01*
X0015612Y0013160D01*
X0015487Y0013249D01*
X0015365Y0013342D01*
X0015246Y0013438D01*
X0015128Y0013537D01*
X0015014Y0013638D01*
X0014902Y0013743D01*
X0014793Y0013851D01*
X0014687Y0013962D01*
X0014583Y0014075D01*
X0014483Y0014191D01*
X0014385Y0014309D01*
X0014291Y0014430D01*
X0014200Y0014553D01*
X0014112Y0014679D01*
X0014028Y0014807D01*
X0013946Y0014937D01*
X0013869Y0015069D01*
X0013794Y0015203D01*
X0013723Y0015339D01*
X0013656Y0015477D01*
X0013592Y0015617D01*
X0013532Y0015758D01*
X0013476Y0015900D01*
X0013423Y0016044D01*
X0013374Y0016190D01*
X0013329Y0016336D01*
X0013288Y0016484D01*
X0013251Y0016632D01*
X0013217Y0016782D01*
X0013187Y0016933D01*
X0013162Y0017084D01*
X0013140Y0017235D01*
X0013122Y0017388D01*
X0013108Y0017540D01*
X0013098Y0017693D01*
X0013092Y0017847D01*
X0013090Y0018000D01*
X0261122Y0018000D02*
X0261124Y0018153D01*
X0261130Y0018307D01*
X0261140Y0018460D01*
X0261154Y0018612D01*
X0261172Y0018765D01*
X0261194Y0018916D01*
X0261219Y0019067D01*
X0261249Y0019218D01*
X0261283Y0019368D01*
X0261320Y0019516D01*
X0261361Y0019664D01*
X0261406Y0019810D01*
X0261455Y0019956D01*
X0261508Y0020100D01*
X0261564Y0020242D01*
X0261624Y0020383D01*
X0261688Y0020523D01*
X0261755Y0020661D01*
X0261826Y0020797D01*
X0261901Y0020931D01*
X0261978Y0021063D01*
X0262060Y0021193D01*
X0262144Y0021321D01*
X0262232Y0021447D01*
X0262323Y0021570D01*
X0262417Y0021691D01*
X0262515Y0021809D01*
X0262615Y0021925D01*
X0262719Y0022038D01*
X0262825Y0022149D01*
X0262934Y0022257D01*
X0263046Y0022362D01*
X0263160Y0022463D01*
X0263278Y0022562D01*
X0263397Y0022658D01*
X0263519Y0022751D01*
X0263644Y0022840D01*
X0263771Y0022927D01*
X0263900Y0023009D01*
X0264031Y0023089D01*
X0264164Y0023165D01*
X0264299Y0023238D01*
X0264436Y0023307D01*
X0264575Y0023372D01*
X0264715Y0023434D01*
X0264857Y0023492D01*
X0265000Y0023547D01*
X0265145Y0023598D01*
X0265291Y0023645D01*
X0265438Y0023688D01*
X0265586Y0023727D01*
X0265735Y0023763D01*
X0265885Y0023794D01*
X0266036Y0023822D01*
X0266187Y0023846D01*
X0266340Y0023866D01*
X0266492Y0023882D01*
X0266645Y0023894D01*
X0266798Y0023902D01*
X0266951Y0023906D01*
X0267105Y0023906D01*
X0267258Y0023902D01*
X0267411Y0023894D01*
X0267564Y0023882D01*
X0267716Y0023866D01*
X0267869Y0023846D01*
X0268020Y0023822D01*
X0268171Y0023794D01*
X0268321Y0023763D01*
X0268470Y0023727D01*
X0268618Y0023688D01*
X0268765Y0023645D01*
X0268911Y0023598D01*
X0269056Y0023547D01*
X0269199Y0023492D01*
X0269341Y0023434D01*
X0269481Y0023372D01*
X0269620Y0023307D01*
X0269757Y0023238D01*
X0269892Y0023165D01*
X0270025Y0023089D01*
X0270156Y0023009D01*
X0270285Y0022927D01*
X0270412Y0022840D01*
X0270537Y0022751D01*
X0270659Y0022658D01*
X0270778Y0022562D01*
X0270896Y0022463D01*
X0271010Y0022362D01*
X0271122Y0022257D01*
X0271231Y0022149D01*
X0271337Y0022038D01*
X0271441Y0021925D01*
X0271541Y0021809D01*
X0271639Y0021691D01*
X0271733Y0021570D01*
X0271824Y0021447D01*
X0271912Y0021321D01*
X0271996Y0021193D01*
X0272078Y0021063D01*
X0272155Y0020931D01*
X0272230Y0020797D01*
X0272301Y0020661D01*
X0272368Y0020523D01*
X0272432Y0020383D01*
X0272492Y0020242D01*
X0272548Y0020100D01*
X0272601Y0019956D01*
X0272650Y0019810D01*
X0272695Y0019664D01*
X0272736Y0019516D01*
X0272773Y0019368D01*
X0272807Y0019218D01*
X0272837Y0019067D01*
X0272862Y0018916D01*
X0272884Y0018765D01*
X0272902Y0018612D01*
X0272916Y0018460D01*
X0272926Y0018307D01*
X0272932Y0018153D01*
X0272934Y0018000D01*
X0272932Y0017847D01*
X0272926Y0017693D01*
X0272916Y0017540D01*
X0272902Y0017388D01*
X0272884Y0017235D01*
X0272862Y0017084D01*
X0272837Y0016933D01*
X0272807Y0016782D01*
X0272773Y0016632D01*
X0272736Y0016484D01*
X0272695Y0016336D01*
X0272650Y0016190D01*
X0272601Y0016044D01*
X0272548Y0015900D01*
X0272492Y0015758D01*
X0272432Y0015617D01*
X0272368Y0015477D01*
X0272301Y0015339D01*
X0272230Y0015203D01*
X0272155Y0015069D01*
X0272078Y0014937D01*
X0271996Y0014807D01*
X0271912Y0014679D01*
X0271824Y0014553D01*
X0271733Y0014430D01*
X0271639Y0014309D01*
X0271541Y0014191D01*
X0271441Y0014075D01*
X0271337Y0013962D01*
X0271231Y0013851D01*
X0271122Y0013743D01*
X0271010Y0013638D01*
X0270896Y0013537D01*
X0270778Y0013438D01*
X0270659Y0013342D01*
X0270537Y0013249D01*
X0270412Y0013160D01*
X0270285Y0013073D01*
X0270156Y0012991D01*
X0270025Y0012911D01*
X0269892Y0012835D01*
X0269757Y0012762D01*
X0269620Y0012693D01*
X0269481Y0012628D01*
X0269341Y0012566D01*
X0269199Y0012508D01*
X0269056Y0012453D01*
X0268911Y0012402D01*
X0268765Y0012355D01*
X0268618Y0012312D01*
X0268470Y0012273D01*
X0268321Y0012237D01*
X0268171Y0012206D01*
X0268020Y0012178D01*
X0267869Y0012154D01*
X0267716Y0012134D01*
X0267564Y0012118D01*
X0267411Y0012106D01*
X0267258Y0012098D01*
X0267105Y0012094D01*
X0266951Y0012094D01*
X0266798Y0012098D01*
X0266645Y0012106D01*
X0266492Y0012118D01*
X0266340Y0012134D01*
X0266187Y0012154D01*
X0266036Y0012178D01*
X0265885Y0012206D01*
X0265735Y0012237D01*
X0265586Y0012273D01*
X0265438Y0012312D01*
X0265291Y0012355D01*
X0265145Y0012402D01*
X0265000Y0012453D01*
X0264857Y0012508D01*
X0264715Y0012566D01*
X0264575Y0012628D01*
X0264436Y0012693D01*
X0264299Y0012762D01*
X0264164Y0012835D01*
X0264031Y0012911D01*
X0263900Y0012991D01*
X0263771Y0013073D01*
X0263644Y0013160D01*
X0263519Y0013249D01*
X0263397Y0013342D01*
X0263278Y0013438D01*
X0263160Y0013537D01*
X0263046Y0013638D01*
X0262934Y0013743D01*
X0262825Y0013851D01*
X0262719Y0013962D01*
X0262615Y0014075D01*
X0262515Y0014191D01*
X0262417Y0014309D01*
X0262323Y0014430D01*
X0262232Y0014553D01*
X0262144Y0014679D01*
X0262060Y0014807D01*
X0261978Y0014937D01*
X0261901Y0015069D01*
X0261826Y0015203D01*
X0261755Y0015339D01*
X0261688Y0015477D01*
X0261624Y0015617D01*
X0261564Y0015758D01*
X0261508Y0015900D01*
X0261455Y0016044D01*
X0261406Y0016190D01*
X0261361Y0016336D01*
X0261320Y0016484D01*
X0261283Y0016632D01*
X0261249Y0016782D01*
X0261219Y0016933D01*
X0261194Y0017084D01*
X0261172Y0017235D01*
X0261154Y0017388D01*
X0261140Y0017540D01*
X0261130Y0017693D01*
X0261124Y0017847D01*
X0261122Y0018000D01*
X0261122Y0136110D02*
X0261124Y0136263D01*
X0261130Y0136417D01*
X0261140Y0136570D01*
X0261154Y0136722D01*
X0261172Y0136875D01*
X0261194Y0137026D01*
X0261219Y0137177D01*
X0261249Y0137328D01*
X0261283Y0137478D01*
X0261320Y0137626D01*
X0261361Y0137774D01*
X0261406Y0137920D01*
X0261455Y0138066D01*
X0261508Y0138210D01*
X0261564Y0138352D01*
X0261624Y0138493D01*
X0261688Y0138633D01*
X0261755Y0138771D01*
X0261826Y0138907D01*
X0261901Y0139041D01*
X0261978Y0139173D01*
X0262060Y0139303D01*
X0262144Y0139431D01*
X0262232Y0139557D01*
X0262323Y0139680D01*
X0262417Y0139801D01*
X0262515Y0139919D01*
X0262615Y0140035D01*
X0262719Y0140148D01*
X0262825Y0140259D01*
X0262934Y0140367D01*
X0263046Y0140472D01*
X0263160Y0140573D01*
X0263278Y0140672D01*
X0263397Y0140768D01*
X0263519Y0140861D01*
X0263644Y0140950D01*
X0263771Y0141037D01*
X0263900Y0141119D01*
X0264031Y0141199D01*
X0264164Y0141275D01*
X0264299Y0141348D01*
X0264436Y0141417D01*
X0264575Y0141482D01*
X0264715Y0141544D01*
X0264857Y0141602D01*
X0265000Y0141657D01*
X0265145Y0141708D01*
X0265291Y0141755D01*
X0265438Y0141798D01*
X0265586Y0141837D01*
X0265735Y0141873D01*
X0265885Y0141904D01*
X0266036Y0141932D01*
X0266187Y0141956D01*
X0266340Y0141976D01*
X0266492Y0141992D01*
X0266645Y0142004D01*
X0266798Y0142012D01*
X0266951Y0142016D01*
X0267105Y0142016D01*
X0267258Y0142012D01*
X0267411Y0142004D01*
X0267564Y0141992D01*
X0267716Y0141976D01*
X0267869Y0141956D01*
X0268020Y0141932D01*
X0268171Y0141904D01*
X0268321Y0141873D01*
X0268470Y0141837D01*
X0268618Y0141798D01*
X0268765Y0141755D01*
X0268911Y0141708D01*
X0269056Y0141657D01*
X0269199Y0141602D01*
X0269341Y0141544D01*
X0269481Y0141482D01*
X0269620Y0141417D01*
X0269757Y0141348D01*
X0269892Y0141275D01*
X0270025Y0141199D01*
X0270156Y0141119D01*
X0270285Y0141037D01*
X0270412Y0140950D01*
X0270537Y0140861D01*
X0270659Y0140768D01*
X0270778Y0140672D01*
X0270896Y0140573D01*
X0271010Y0140472D01*
X0271122Y0140367D01*
X0271231Y0140259D01*
X0271337Y0140148D01*
X0271441Y0140035D01*
X0271541Y0139919D01*
X0271639Y0139801D01*
X0271733Y0139680D01*
X0271824Y0139557D01*
X0271912Y0139431D01*
X0271996Y0139303D01*
X0272078Y0139173D01*
X0272155Y0139041D01*
X0272230Y0138907D01*
X0272301Y0138771D01*
X0272368Y0138633D01*
X0272432Y0138493D01*
X0272492Y0138352D01*
X0272548Y0138210D01*
X0272601Y0138066D01*
X0272650Y0137920D01*
X0272695Y0137774D01*
X0272736Y0137626D01*
X0272773Y0137478D01*
X0272807Y0137328D01*
X0272837Y0137177D01*
X0272862Y0137026D01*
X0272884Y0136875D01*
X0272902Y0136722D01*
X0272916Y0136570D01*
X0272926Y0136417D01*
X0272932Y0136263D01*
X0272934Y0136110D01*
X0272932Y0135957D01*
X0272926Y0135803D01*
X0272916Y0135650D01*
X0272902Y0135498D01*
X0272884Y0135345D01*
X0272862Y0135194D01*
X0272837Y0135043D01*
X0272807Y0134892D01*
X0272773Y0134742D01*
X0272736Y0134594D01*
X0272695Y0134446D01*
X0272650Y0134300D01*
X0272601Y0134154D01*
X0272548Y0134010D01*
X0272492Y0133868D01*
X0272432Y0133727D01*
X0272368Y0133587D01*
X0272301Y0133449D01*
X0272230Y0133313D01*
X0272155Y0133179D01*
X0272078Y0133047D01*
X0271996Y0132917D01*
X0271912Y0132789D01*
X0271824Y0132663D01*
X0271733Y0132540D01*
X0271639Y0132419D01*
X0271541Y0132301D01*
X0271441Y0132185D01*
X0271337Y0132072D01*
X0271231Y0131961D01*
X0271122Y0131853D01*
X0271010Y0131748D01*
X0270896Y0131647D01*
X0270778Y0131548D01*
X0270659Y0131452D01*
X0270537Y0131359D01*
X0270412Y0131270D01*
X0270285Y0131183D01*
X0270156Y0131101D01*
X0270025Y0131021D01*
X0269892Y0130945D01*
X0269757Y0130872D01*
X0269620Y0130803D01*
X0269481Y0130738D01*
X0269341Y0130676D01*
X0269199Y0130618D01*
X0269056Y0130563D01*
X0268911Y0130512D01*
X0268765Y0130465D01*
X0268618Y0130422D01*
X0268470Y0130383D01*
X0268321Y0130347D01*
X0268171Y0130316D01*
X0268020Y0130288D01*
X0267869Y0130264D01*
X0267716Y0130244D01*
X0267564Y0130228D01*
X0267411Y0130216D01*
X0267258Y0130208D01*
X0267105Y0130204D01*
X0266951Y0130204D01*
X0266798Y0130208D01*
X0266645Y0130216D01*
X0266492Y0130228D01*
X0266340Y0130244D01*
X0266187Y0130264D01*
X0266036Y0130288D01*
X0265885Y0130316D01*
X0265735Y0130347D01*
X0265586Y0130383D01*
X0265438Y0130422D01*
X0265291Y0130465D01*
X0265145Y0130512D01*
X0265000Y0130563D01*
X0264857Y0130618D01*
X0264715Y0130676D01*
X0264575Y0130738D01*
X0264436Y0130803D01*
X0264299Y0130872D01*
X0264164Y0130945D01*
X0264031Y0131021D01*
X0263900Y0131101D01*
X0263771Y0131183D01*
X0263644Y0131270D01*
X0263519Y0131359D01*
X0263397Y0131452D01*
X0263278Y0131548D01*
X0263160Y0131647D01*
X0263046Y0131748D01*
X0262934Y0131853D01*
X0262825Y0131961D01*
X0262719Y0132072D01*
X0262615Y0132185D01*
X0262515Y0132301D01*
X0262417Y0132419D01*
X0262323Y0132540D01*
X0262232Y0132663D01*
X0262144Y0132789D01*
X0262060Y0132917D01*
X0261978Y0133047D01*
X0261901Y0133179D01*
X0261826Y0133313D01*
X0261755Y0133449D01*
X0261688Y0133587D01*
X0261624Y0133727D01*
X0261564Y0133868D01*
X0261508Y0134010D01*
X0261455Y0134154D01*
X0261406Y0134300D01*
X0261361Y0134446D01*
X0261320Y0134594D01*
X0261283Y0134742D01*
X0261249Y0134892D01*
X0261219Y0135043D01*
X0261194Y0135194D01*
X0261172Y0135345D01*
X0261154Y0135498D01*
X0261140Y0135650D01*
X0261130Y0135803D01*
X0261124Y0135957D01*
X0261122Y0136110D01*
X0271752Y0315244D02*
X0271754Y0315328D01*
X0271760Y0315411D01*
X0271770Y0315494D01*
X0271784Y0315577D01*
X0271801Y0315659D01*
X0271823Y0315740D01*
X0271848Y0315819D01*
X0271877Y0315898D01*
X0271910Y0315975D01*
X0271946Y0316050D01*
X0271986Y0316124D01*
X0272029Y0316196D01*
X0272076Y0316265D01*
X0272126Y0316332D01*
X0272179Y0316397D01*
X0272235Y0316459D01*
X0272293Y0316519D01*
X0272355Y0316576D01*
X0272419Y0316629D01*
X0272486Y0316680D01*
X0272555Y0316727D01*
X0272626Y0316772D01*
X0272699Y0316812D01*
X0272774Y0316849D01*
X0272851Y0316883D01*
X0272929Y0316913D01*
X0273008Y0316939D01*
X0273089Y0316962D01*
X0273171Y0316980D01*
X0273253Y0316995D01*
X0273336Y0317006D01*
X0273419Y0317013D01*
X0273503Y0317016D01*
X0273587Y0317015D01*
X0273670Y0317010D01*
X0273754Y0317001D01*
X0273836Y0316988D01*
X0273918Y0316972D01*
X0273999Y0316951D01*
X0274080Y0316927D01*
X0274158Y0316899D01*
X0274236Y0316867D01*
X0274312Y0316831D01*
X0274386Y0316792D01*
X0274458Y0316750D01*
X0274528Y0316704D01*
X0274596Y0316655D01*
X0274661Y0316603D01*
X0274724Y0316548D01*
X0274784Y0316490D01*
X0274842Y0316429D01*
X0274896Y0316365D01*
X0274948Y0316299D01*
X0274996Y0316231D01*
X0275041Y0316160D01*
X0275082Y0316087D01*
X0275121Y0316013D01*
X0275155Y0315937D01*
X0275186Y0315859D01*
X0275213Y0315780D01*
X0275237Y0315699D01*
X0275256Y0315618D01*
X0275272Y0315536D01*
X0275284Y0315453D01*
X0275292Y0315369D01*
X0275296Y0315286D01*
X0275296Y0315202D01*
X0275292Y0315119D01*
X0275284Y0315035D01*
X0275272Y0314952D01*
X0275256Y0314870D01*
X0275237Y0314789D01*
X0275213Y0314708D01*
X0275186Y0314629D01*
X0275155Y0314551D01*
X0275121Y0314475D01*
X0275082Y0314401D01*
X0275041Y0314328D01*
X0274996Y0314257D01*
X0274948Y0314189D01*
X0274896Y0314123D01*
X0274842Y0314059D01*
X0274784Y0313998D01*
X0274724Y0313940D01*
X0274661Y0313885D01*
X0274596Y0313833D01*
X0274528Y0313784D01*
X0274458Y0313738D01*
X0274386Y0313696D01*
X0274312Y0313657D01*
X0274236Y0313621D01*
X0274158Y0313589D01*
X0274080Y0313561D01*
X0273999Y0313537D01*
X0273918Y0313516D01*
X0273836Y0313500D01*
X0273754Y0313487D01*
X0273670Y0313478D01*
X0273587Y0313473D01*
X0273503Y0313472D01*
X0273419Y0313475D01*
X0273336Y0313482D01*
X0273253Y0313493D01*
X0273171Y0313508D01*
X0273089Y0313526D01*
X0273008Y0313549D01*
X0272929Y0313575D01*
X0272851Y0313605D01*
X0272774Y0313639D01*
X0272699Y0313676D01*
X0272626Y0313716D01*
X0272555Y0313761D01*
X0272486Y0313808D01*
X0272419Y0313859D01*
X0272355Y0313912D01*
X0272293Y0313969D01*
X0272235Y0314029D01*
X0272179Y0314091D01*
X0272126Y0314156D01*
X0272076Y0314223D01*
X0272029Y0314292D01*
X0271986Y0314364D01*
X0271946Y0314438D01*
X0271910Y0314513D01*
X0271877Y0314590D01*
X0271848Y0314669D01*
X0271823Y0314748D01*
X0271801Y0314829D01*
X0271784Y0314911D01*
X0271770Y0314994D01*
X0271760Y0315077D01*
X0271754Y0315160D01*
X0271752Y0315244D01*
X0271752Y0327055D02*
X0271754Y0327139D01*
X0271760Y0327222D01*
X0271770Y0327305D01*
X0271784Y0327388D01*
X0271801Y0327470D01*
X0271823Y0327551D01*
X0271848Y0327630D01*
X0271877Y0327709D01*
X0271910Y0327786D01*
X0271946Y0327861D01*
X0271986Y0327935D01*
X0272029Y0328007D01*
X0272076Y0328076D01*
X0272126Y0328143D01*
X0272179Y0328208D01*
X0272235Y0328270D01*
X0272293Y0328330D01*
X0272355Y0328387D01*
X0272419Y0328440D01*
X0272486Y0328491D01*
X0272555Y0328538D01*
X0272626Y0328583D01*
X0272699Y0328623D01*
X0272774Y0328660D01*
X0272851Y0328694D01*
X0272929Y0328724D01*
X0273008Y0328750D01*
X0273089Y0328773D01*
X0273171Y0328791D01*
X0273253Y0328806D01*
X0273336Y0328817D01*
X0273419Y0328824D01*
X0273503Y0328827D01*
X0273587Y0328826D01*
X0273670Y0328821D01*
X0273754Y0328812D01*
X0273836Y0328799D01*
X0273918Y0328783D01*
X0273999Y0328762D01*
X0274080Y0328738D01*
X0274158Y0328710D01*
X0274236Y0328678D01*
X0274312Y0328642D01*
X0274386Y0328603D01*
X0274458Y0328561D01*
X0274528Y0328515D01*
X0274596Y0328466D01*
X0274661Y0328414D01*
X0274724Y0328359D01*
X0274784Y0328301D01*
X0274842Y0328240D01*
X0274896Y0328176D01*
X0274948Y0328110D01*
X0274996Y0328042D01*
X0275041Y0327971D01*
X0275082Y0327898D01*
X0275121Y0327824D01*
X0275155Y0327748D01*
X0275186Y0327670D01*
X0275213Y0327591D01*
X0275237Y0327510D01*
X0275256Y0327429D01*
X0275272Y0327347D01*
X0275284Y0327264D01*
X0275292Y0327180D01*
X0275296Y0327097D01*
X0275296Y0327013D01*
X0275292Y0326930D01*
X0275284Y0326846D01*
X0275272Y0326763D01*
X0275256Y0326681D01*
X0275237Y0326600D01*
X0275213Y0326519D01*
X0275186Y0326440D01*
X0275155Y0326362D01*
X0275121Y0326286D01*
X0275082Y0326212D01*
X0275041Y0326139D01*
X0274996Y0326068D01*
X0274948Y0326000D01*
X0274896Y0325934D01*
X0274842Y0325870D01*
X0274784Y0325809D01*
X0274724Y0325751D01*
X0274661Y0325696D01*
X0274596Y0325644D01*
X0274528Y0325595D01*
X0274458Y0325549D01*
X0274386Y0325507D01*
X0274312Y0325468D01*
X0274236Y0325432D01*
X0274158Y0325400D01*
X0274080Y0325372D01*
X0273999Y0325348D01*
X0273918Y0325327D01*
X0273836Y0325311D01*
X0273754Y0325298D01*
X0273670Y0325289D01*
X0273587Y0325284D01*
X0273503Y0325283D01*
X0273419Y0325286D01*
X0273336Y0325293D01*
X0273253Y0325304D01*
X0273171Y0325319D01*
X0273089Y0325337D01*
X0273008Y0325360D01*
X0272929Y0325386D01*
X0272851Y0325416D01*
X0272774Y0325450D01*
X0272699Y0325487D01*
X0272626Y0325527D01*
X0272555Y0325572D01*
X0272486Y0325619D01*
X0272419Y0325670D01*
X0272355Y0325723D01*
X0272293Y0325780D01*
X0272235Y0325840D01*
X0272179Y0325902D01*
X0272126Y0325967D01*
X0272076Y0326034D01*
X0272029Y0326103D01*
X0271986Y0326175D01*
X0271946Y0326249D01*
X0271910Y0326324D01*
X0271877Y0326401D01*
X0271848Y0326480D01*
X0271823Y0326559D01*
X0271801Y0326640D01*
X0271784Y0326722D01*
X0271770Y0326805D01*
X0271760Y0326888D01*
X0271754Y0326971D01*
X0271752Y0327055D01*
X0261122Y0360520D02*
X0261124Y0360673D01*
X0261130Y0360827D01*
X0261140Y0360980D01*
X0261154Y0361132D01*
X0261172Y0361285D01*
X0261194Y0361436D01*
X0261219Y0361587D01*
X0261249Y0361738D01*
X0261283Y0361888D01*
X0261320Y0362036D01*
X0261361Y0362184D01*
X0261406Y0362330D01*
X0261455Y0362476D01*
X0261508Y0362620D01*
X0261564Y0362762D01*
X0261624Y0362903D01*
X0261688Y0363043D01*
X0261755Y0363181D01*
X0261826Y0363317D01*
X0261901Y0363451D01*
X0261978Y0363583D01*
X0262060Y0363713D01*
X0262144Y0363841D01*
X0262232Y0363967D01*
X0262323Y0364090D01*
X0262417Y0364211D01*
X0262515Y0364329D01*
X0262615Y0364445D01*
X0262719Y0364558D01*
X0262825Y0364669D01*
X0262934Y0364777D01*
X0263046Y0364882D01*
X0263160Y0364983D01*
X0263278Y0365082D01*
X0263397Y0365178D01*
X0263519Y0365271D01*
X0263644Y0365360D01*
X0263771Y0365447D01*
X0263900Y0365529D01*
X0264031Y0365609D01*
X0264164Y0365685D01*
X0264299Y0365758D01*
X0264436Y0365827D01*
X0264575Y0365892D01*
X0264715Y0365954D01*
X0264857Y0366012D01*
X0265000Y0366067D01*
X0265145Y0366118D01*
X0265291Y0366165D01*
X0265438Y0366208D01*
X0265586Y0366247D01*
X0265735Y0366283D01*
X0265885Y0366314D01*
X0266036Y0366342D01*
X0266187Y0366366D01*
X0266340Y0366386D01*
X0266492Y0366402D01*
X0266645Y0366414D01*
X0266798Y0366422D01*
X0266951Y0366426D01*
X0267105Y0366426D01*
X0267258Y0366422D01*
X0267411Y0366414D01*
X0267564Y0366402D01*
X0267716Y0366386D01*
X0267869Y0366366D01*
X0268020Y0366342D01*
X0268171Y0366314D01*
X0268321Y0366283D01*
X0268470Y0366247D01*
X0268618Y0366208D01*
X0268765Y0366165D01*
X0268911Y0366118D01*
X0269056Y0366067D01*
X0269199Y0366012D01*
X0269341Y0365954D01*
X0269481Y0365892D01*
X0269620Y0365827D01*
X0269757Y0365758D01*
X0269892Y0365685D01*
X0270025Y0365609D01*
X0270156Y0365529D01*
X0270285Y0365447D01*
X0270412Y0365360D01*
X0270537Y0365271D01*
X0270659Y0365178D01*
X0270778Y0365082D01*
X0270896Y0364983D01*
X0271010Y0364882D01*
X0271122Y0364777D01*
X0271231Y0364669D01*
X0271337Y0364558D01*
X0271441Y0364445D01*
X0271541Y0364329D01*
X0271639Y0364211D01*
X0271733Y0364090D01*
X0271824Y0363967D01*
X0271912Y0363841D01*
X0271996Y0363713D01*
X0272078Y0363583D01*
X0272155Y0363451D01*
X0272230Y0363317D01*
X0272301Y0363181D01*
X0272368Y0363043D01*
X0272432Y0362903D01*
X0272492Y0362762D01*
X0272548Y0362620D01*
X0272601Y0362476D01*
X0272650Y0362330D01*
X0272695Y0362184D01*
X0272736Y0362036D01*
X0272773Y0361888D01*
X0272807Y0361738D01*
X0272837Y0361587D01*
X0272862Y0361436D01*
X0272884Y0361285D01*
X0272902Y0361132D01*
X0272916Y0360980D01*
X0272926Y0360827D01*
X0272932Y0360673D01*
X0272934Y0360520D01*
X0272932Y0360367D01*
X0272926Y0360213D01*
X0272916Y0360060D01*
X0272902Y0359908D01*
X0272884Y0359755D01*
X0272862Y0359604D01*
X0272837Y0359453D01*
X0272807Y0359302D01*
X0272773Y0359152D01*
X0272736Y0359004D01*
X0272695Y0358856D01*
X0272650Y0358710D01*
X0272601Y0358564D01*
X0272548Y0358420D01*
X0272492Y0358278D01*
X0272432Y0358137D01*
X0272368Y0357997D01*
X0272301Y0357859D01*
X0272230Y0357723D01*
X0272155Y0357589D01*
X0272078Y0357457D01*
X0271996Y0357327D01*
X0271912Y0357199D01*
X0271824Y0357073D01*
X0271733Y0356950D01*
X0271639Y0356829D01*
X0271541Y0356711D01*
X0271441Y0356595D01*
X0271337Y0356482D01*
X0271231Y0356371D01*
X0271122Y0356263D01*
X0271010Y0356158D01*
X0270896Y0356057D01*
X0270778Y0355958D01*
X0270659Y0355862D01*
X0270537Y0355769D01*
X0270412Y0355680D01*
X0270285Y0355593D01*
X0270156Y0355511D01*
X0270025Y0355431D01*
X0269892Y0355355D01*
X0269757Y0355282D01*
X0269620Y0355213D01*
X0269481Y0355148D01*
X0269341Y0355086D01*
X0269199Y0355028D01*
X0269056Y0354973D01*
X0268911Y0354922D01*
X0268765Y0354875D01*
X0268618Y0354832D01*
X0268470Y0354793D01*
X0268321Y0354757D01*
X0268171Y0354726D01*
X0268020Y0354698D01*
X0267869Y0354674D01*
X0267716Y0354654D01*
X0267564Y0354638D01*
X0267411Y0354626D01*
X0267258Y0354618D01*
X0267105Y0354614D01*
X0266951Y0354614D01*
X0266798Y0354618D01*
X0266645Y0354626D01*
X0266492Y0354638D01*
X0266340Y0354654D01*
X0266187Y0354674D01*
X0266036Y0354698D01*
X0265885Y0354726D01*
X0265735Y0354757D01*
X0265586Y0354793D01*
X0265438Y0354832D01*
X0265291Y0354875D01*
X0265145Y0354922D01*
X0265000Y0354973D01*
X0264857Y0355028D01*
X0264715Y0355086D01*
X0264575Y0355148D01*
X0264436Y0355213D01*
X0264299Y0355282D01*
X0264164Y0355355D01*
X0264031Y0355431D01*
X0263900Y0355511D01*
X0263771Y0355593D01*
X0263644Y0355680D01*
X0263519Y0355769D01*
X0263397Y0355862D01*
X0263278Y0355958D01*
X0263160Y0356057D01*
X0263046Y0356158D01*
X0262934Y0356263D01*
X0262825Y0356371D01*
X0262719Y0356482D01*
X0262615Y0356595D01*
X0262515Y0356711D01*
X0262417Y0356829D01*
X0262323Y0356950D01*
X0262232Y0357073D01*
X0262144Y0357199D01*
X0262060Y0357327D01*
X0261978Y0357457D01*
X0261901Y0357589D01*
X0261826Y0357723D01*
X0261755Y0357859D01*
X0261688Y0357997D01*
X0261624Y0358137D01*
X0261564Y0358278D01*
X0261508Y0358420D01*
X0261455Y0358564D01*
X0261406Y0358710D01*
X0261361Y0358856D01*
X0261320Y0359004D01*
X0261283Y0359152D01*
X0261249Y0359302D01*
X0261219Y0359453D01*
X0261194Y0359604D01*
X0261172Y0359755D01*
X0261154Y0359908D01*
X0261140Y0360060D01*
X0261130Y0360213D01*
X0261124Y0360367D01*
X0261122Y0360520D01*
X0013090Y0360520D02*
X0013092Y0360673D01*
X0013098Y0360827D01*
X0013108Y0360980D01*
X0013122Y0361132D01*
X0013140Y0361285D01*
X0013162Y0361436D01*
X0013187Y0361587D01*
X0013217Y0361738D01*
X0013251Y0361888D01*
X0013288Y0362036D01*
X0013329Y0362184D01*
X0013374Y0362330D01*
X0013423Y0362476D01*
X0013476Y0362620D01*
X0013532Y0362762D01*
X0013592Y0362903D01*
X0013656Y0363043D01*
X0013723Y0363181D01*
X0013794Y0363317D01*
X0013869Y0363451D01*
X0013946Y0363583D01*
X0014028Y0363713D01*
X0014112Y0363841D01*
X0014200Y0363967D01*
X0014291Y0364090D01*
X0014385Y0364211D01*
X0014483Y0364329D01*
X0014583Y0364445D01*
X0014687Y0364558D01*
X0014793Y0364669D01*
X0014902Y0364777D01*
X0015014Y0364882D01*
X0015128Y0364983D01*
X0015246Y0365082D01*
X0015365Y0365178D01*
X0015487Y0365271D01*
X0015612Y0365360D01*
X0015739Y0365447D01*
X0015868Y0365529D01*
X0015999Y0365609D01*
X0016132Y0365685D01*
X0016267Y0365758D01*
X0016404Y0365827D01*
X0016543Y0365892D01*
X0016683Y0365954D01*
X0016825Y0366012D01*
X0016968Y0366067D01*
X0017113Y0366118D01*
X0017259Y0366165D01*
X0017406Y0366208D01*
X0017554Y0366247D01*
X0017703Y0366283D01*
X0017853Y0366314D01*
X0018004Y0366342D01*
X0018155Y0366366D01*
X0018308Y0366386D01*
X0018460Y0366402D01*
X0018613Y0366414D01*
X0018766Y0366422D01*
X0018919Y0366426D01*
X0019073Y0366426D01*
X0019226Y0366422D01*
X0019379Y0366414D01*
X0019532Y0366402D01*
X0019684Y0366386D01*
X0019837Y0366366D01*
X0019988Y0366342D01*
X0020139Y0366314D01*
X0020289Y0366283D01*
X0020438Y0366247D01*
X0020586Y0366208D01*
X0020733Y0366165D01*
X0020879Y0366118D01*
X0021024Y0366067D01*
X0021167Y0366012D01*
X0021309Y0365954D01*
X0021449Y0365892D01*
X0021588Y0365827D01*
X0021725Y0365758D01*
X0021860Y0365685D01*
X0021993Y0365609D01*
X0022124Y0365529D01*
X0022253Y0365447D01*
X0022380Y0365360D01*
X0022505Y0365271D01*
X0022627Y0365178D01*
X0022746Y0365082D01*
X0022864Y0364983D01*
X0022978Y0364882D01*
X0023090Y0364777D01*
X0023199Y0364669D01*
X0023305Y0364558D01*
X0023409Y0364445D01*
X0023509Y0364329D01*
X0023607Y0364211D01*
X0023701Y0364090D01*
X0023792Y0363967D01*
X0023880Y0363841D01*
X0023964Y0363713D01*
X0024046Y0363583D01*
X0024123Y0363451D01*
X0024198Y0363317D01*
X0024269Y0363181D01*
X0024336Y0363043D01*
X0024400Y0362903D01*
X0024460Y0362762D01*
X0024516Y0362620D01*
X0024569Y0362476D01*
X0024618Y0362330D01*
X0024663Y0362184D01*
X0024704Y0362036D01*
X0024741Y0361888D01*
X0024775Y0361738D01*
X0024805Y0361587D01*
X0024830Y0361436D01*
X0024852Y0361285D01*
X0024870Y0361132D01*
X0024884Y0360980D01*
X0024894Y0360827D01*
X0024900Y0360673D01*
X0024902Y0360520D01*
X0024900Y0360367D01*
X0024894Y0360213D01*
X0024884Y0360060D01*
X0024870Y0359908D01*
X0024852Y0359755D01*
X0024830Y0359604D01*
X0024805Y0359453D01*
X0024775Y0359302D01*
X0024741Y0359152D01*
X0024704Y0359004D01*
X0024663Y0358856D01*
X0024618Y0358710D01*
X0024569Y0358564D01*
X0024516Y0358420D01*
X0024460Y0358278D01*
X0024400Y0358137D01*
X0024336Y0357997D01*
X0024269Y0357859D01*
X0024198Y0357723D01*
X0024123Y0357589D01*
X0024046Y0357457D01*
X0023964Y0357327D01*
X0023880Y0357199D01*
X0023792Y0357073D01*
X0023701Y0356950D01*
X0023607Y0356829D01*
X0023509Y0356711D01*
X0023409Y0356595D01*
X0023305Y0356482D01*
X0023199Y0356371D01*
X0023090Y0356263D01*
X0022978Y0356158D01*
X0022864Y0356057D01*
X0022746Y0355958D01*
X0022627Y0355862D01*
X0022505Y0355769D01*
X0022380Y0355680D01*
X0022253Y0355593D01*
X0022124Y0355511D01*
X0021993Y0355431D01*
X0021860Y0355355D01*
X0021725Y0355282D01*
X0021588Y0355213D01*
X0021449Y0355148D01*
X0021309Y0355086D01*
X0021167Y0355028D01*
X0021024Y0354973D01*
X0020879Y0354922D01*
X0020733Y0354875D01*
X0020586Y0354832D01*
X0020438Y0354793D01*
X0020289Y0354757D01*
X0020139Y0354726D01*
X0019988Y0354698D01*
X0019837Y0354674D01*
X0019684Y0354654D01*
X0019532Y0354638D01*
X0019379Y0354626D01*
X0019226Y0354618D01*
X0019073Y0354614D01*
X0018919Y0354614D01*
X0018766Y0354618D01*
X0018613Y0354626D01*
X0018460Y0354638D01*
X0018308Y0354654D01*
X0018155Y0354674D01*
X0018004Y0354698D01*
X0017853Y0354726D01*
X0017703Y0354757D01*
X0017554Y0354793D01*
X0017406Y0354832D01*
X0017259Y0354875D01*
X0017113Y0354922D01*
X0016968Y0354973D01*
X0016825Y0355028D01*
X0016683Y0355086D01*
X0016543Y0355148D01*
X0016404Y0355213D01*
X0016267Y0355282D01*
X0016132Y0355355D01*
X0015999Y0355431D01*
X0015868Y0355511D01*
X0015739Y0355593D01*
X0015612Y0355680D01*
X0015487Y0355769D01*
X0015365Y0355862D01*
X0015246Y0355958D01*
X0015128Y0356057D01*
X0015014Y0356158D01*
X0014902Y0356263D01*
X0014793Y0356371D01*
X0014687Y0356482D01*
X0014583Y0356595D01*
X0014483Y0356711D01*
X0014385Y0356829D01*
X0014291Y0356950D01*
X0014200Y0357073D01*
X0014112Y0357199D01*
X0014028Y0357327D01*
X0013946Y0357457D01*
X0013869Y0357589D01*
X0013794Y0357723D01*
X0013723Y0357859D01*
X0013656Y0357997D01*
X0013592Y0358137D01*
X0013532Y0358278D01*
X0013476Y0358420D01*
X0013423Y0358564D01*
X0013374Y0358710D01*
X0013329Y0358856D01*
X0013288Y0359004D01*
X0013251Y0359152D01*
X0013217Y0359302D01*
X0013187Y0359453D01*
X0013162Y0359604D01*
X0013140Y0359755D01*
X0013122Y0359908D01*
X0013108Y0360060D01*
X0013098Y0360213D01*
X0013092Y0360367D01*
X0013090Y0360520D01*
D11*
X0038000Y0253772D03*
X0048000Y0253772D03*
X0058000Y0253772D03*
X0068000Y0253772D03*
X0078000Y0253772D03*
X0088000Y0253772D03*
X0098000Y0253772D03*
X0108000Y0253772D03*
X0118000Y0253772D03*
X0128000Y0253772D03*
X0138000Y0253772D03*
X0148000Y0253772D03*
X0158000Y0253772D03*
X0168000Y0253772D03*
X0178000Y0253772D03*
X0188000Y0253772D03*
X0198000Y0253772D03*
X0208000Y0253772D03*
X0218000Y0253772D03*
X0228000Y0253772D03*
X0228000Y0236772D03*
X0218000Y0236772D03*
X0208000Y0236772D03*
X0198000Y0236772D03*
X0188000Y0236772D03*
X0178000Y0236772D03*
X0168000Y0236772D03*
X0158000Y0236772D03*
X0148000Y0236772D03*
X0138000Y0236772D03*
X0128000Y0236772D03*
X0118000Y0236772D03*
X0108000Y0236772D03*
X0098000Y0236772D03*
X0088000Y0236772D03*
X0078000Y0236772D03*
X0068000Y0236772D03*
X0058000Y0236772D03*
X0048000Y0236772D03*
X0038000Y0236772D03*
D12*
X0012500Y0219378D03*
X0012500Y0163079D03*
X0104232Y0163079D03*
X0104232Y0177449D03*
X0104232Y0205008D03*
X0104232Y0219378D03*
D13*
X0274902Y0289654D03*
X0274902Y0297528D03*
D14*
X0274902Y0281976D03*
X0274902Y0273709D03*
D15*
X0266634Y0312291D03*
X0266634Y0318197D03*
X0266634Y0330008D03*
D16*
X0277461Y0335520D03*
X0277461Y0306780D03*
D17*
X0269193Y0306780D03*
X0269193Y0335520D03*
D18*
X0125114Y0194780D03*
X0125114Y0186906D03*
D19*
X0145587Y0177457D03*
X0145587Y0204228D03*
D20*
X0148917Y0014063D03*
X0138917Y0014063D03*
X0128917Y0014063D03*
X0118917Y0014063D03*
X0108917Y0014063D03*
X0098917Y0014063D03*
D21*
X0094403Y0016231D02*
X0035229Y0016231D01*
X0035079Y0015233D02*
X0093990Y0015233D01*
X0093917Y0015058D02*
X0093917Y0013068D01*
X0094679Y0011231D01*
X0096085Y0009824D01*
X0097923Y0009063D01*
X0099912Y0009063D01*
X0101750Y0009824D01*
X0103156Y0011231D01*
X0103917Y0013068D01*
X0104679Y0011231D01*
X0106085Y0009824D01*
X0107923Y0009063D01*
X0109912Y0009063D01*
X0111750Y0009824D01*
X0113156Y0011231D01*
X0113917Y0013068D01*
X0113917Y0015058D01*
X0113156Y0016895D01*
X0111750Y0018302D01*
X0109912Y0019063D01*
X0107923Y0019063D01*
X0106085Y0018302D01*
X0104679Y0016895D01*
X0103917Y0015058D01*
X0103156Y0016895D01*
X0101750Y0018302D01*
X0101417Y0018439D01*
X0101417Y0034245D01*
X0101037Y0035164D01*
X0100416Y0035785D01*
X0117017Y0035785D01*
X0117017Y0018688D01*
X0116085Y0018302D01*
X0114679Y0016895D01*
X0113917Y0015058D01*
X0113917Y0013068D01*
X0114679Y0011231D01*
X0116085Y0009824D01*
X0117923Y0009063D01*
X0119912Y0009063D01*
X0121750Y0009824D01*
X0123156Y0011231D01*
X0123917Y0013068D01*
X0124679Y0011231D01*
X0126085Y0009824D01*
X0127923Y0009063D01*
X0129912Y0009063D01*
X0131750Y0009824D01*
X0133156Y0011231D01*
X0133917Y0013068D01*
X0134679Y0011231D01*
X0136085Y0009824D01*
X0137923Y0009063D01*
X0139912Y0009063D01*
X0141750Y0009824D01*
X0143156Y0011231D01*
X0143840Y0012881D01*
X0143845Y0012845D01*
X0144098Y0012067D01*
X0144470Y0011338D01*
X0144951Y0010675D01*
X0145530Y0010097D01*
X0146192Y0009616D01*
X0146921Y0009244D01*
X0147700Y0008991D01*
X0148417Y0008877D01*
X0148417Y0013563D01*
X0149417Y0013563D01*
X0149417Y0008877D01*
X0150135Y0008991D01*
X0150913Y0009244D01*
X0151643Y0009616D01*
X0152305Y0010097D01*
X0152884Y0010675D01*
X0153365Y0011338D01*
X0153736Y0012067D01*
X0153989Y0012845D01*
X0154103Y0013563D01*
X0149417Y0013563D01*
X0149417Y0014563D01*
X0148417Y0014563D01*
X0148417Y0019249D01*
X0147700Y0019135D01*
X0146921Y0018882D01*
X0146192Y0018510D01*
X0145530Y0018029D01*
X0144951Y0017451D01*
X0144470Y0016788D01*
X0144098Y0016059D01*
X0143845Y0015281D01*
X0143840Y0015245D01*
X0143156Y0016895D01*
X0141750Y0018302D01*
X0140817Y0018688D01*
X0140817Y0062094D01*
X0139704Y0063207D01*
X0076014Y0063207D01*
X0076014Y0193265D01*
X0093602Y0193265D01*
X0094715Y0194378D01*
X0094715Y0228795D01*
X0094803Y0228772D01*
X0097500Y0228772D01*
X0097500Y0236272D01*
X0098500Y0236272D01*
X0098500Y0237272D01*
X0097500Y0237272D01*
X0097500Y0244772D01*
X0094803Y0244772D01*
X0094715Y0244748D01*
X0094715Y0245972D01*
X0101538Y0245972D01*
X0102300Y0246733D01*
X0102300Y0260810D01*
X0101538Y0261572D01*
X0094462Y0261572D01*
X0093700Y0260810D01*
X0093700Y0255672D01*
X0092300Y0255672D01*
X0092300Y0260810D01*
X0091538Y0261572D01*
X0084462Y0261572D01*
X0083700Y0260810D01*
X0083700Y0255672D01*
X0082579Y0255672D01*
X0082500Y0255592D01*
X0082500Y0260469D01*
X0082398Y0260851D01*
X0082200Y0261193D01*
X0081921Y0261472D01*
X0081579Y0261669D01*
X0081197Y0261772D01*
X0078500Y0261772D01*
X0078500Y0254272D01*
X0077500Y0254272D01*
X0077500Y0261772D01*
X0074803Y0261772D01*
X0074421Y0261669D01*
X0074079Y0261472D01*
X0073800Y0261193D01*
X0073602Y0260851D01*
X0073500Y0260469D01*
X0073500Y0254272D01*
X0077500Y0254272D01*
X0077500Y0253272D01*
X0073500Y0253272D01*
X0073500Y0247074D01*
X0073602Y0246693D01*
X0073800Y0246351D01*
X0074079Y0246071D01*
X0074421Y0245874D01*
X0074803Y0245772D01*
X0077500Y0245772D01*
X0077500Y0253272D01*
X0078500Y0253272D01*
X0078500Y0245772D01*
X0081197Y0245772D01*
X0081466Y0245844D01*
X0081466Y0244572D01*
X0074462Y0244572D01*
X0073700Y0243810D01*
X0073700Y0229733D01*
X0074462Y0228972D01*
X0076100Y0228972D01*
X0076100Y0208876D01*
X0057579Y0208876D01*
X0056466Y0207763D01*
X0056466Y0102176D01*
X0055845Y0102797D01*
X0054926Y0103177D01*
X0029370Y0103177D01*
X0029370Y0234272D01*
X0033700Y0234272D01*
X0033700Y0229733D01*
X0034462Y0228972D01*
X0041538Y0228972D01*
X0042300Y0229733D01*
X0042300Y0234272D01*
X0043700Y0234272D01*
X0043700Y0229733D01*
X0044462Y0228972D01*
X0050954Y0228972D01*
X0050954Y0213375D01*
X0050240Y0212660D01*
X0049770Y0211527D01*
X0049770Y0210300D01*
X0050240Y0209166D01*
X0051107Y0208299D01*
X0052241Y0207829D01*
X0053468Y0207829D01*
X0054601Y0208299D01*
X0055469Y0209166D01*
X0055939Y0210300D01*
X0055939Y0211527D01*
X0055469Y0212660D01*
X0054754Y0213375D01*
X0054754Y0228785D01*
X0054803Y0228772D01*
X0057500Y0228772D01*
X0057500Y0236272D01*
X0058500Y0236272D01*
X0058500Y0237272D01*
X0057500Y0237272D01*
X0057500Y0244772D01*
X0054803Y0244772D01*
X0054754Y0244759D01*
X0054754Y0245972D01*
X0061538Y0245972D01*
X0062300Y0246733D01*
X0062300Y0260810D01*
X0061538Y0261572D01*
X0054754Y0261572D01*
X0054754Y0264131D01*
X0106100Y0264131D01*
X0106100Y0261572D01*
X0104462Y0261572D01*
X0103700Y0260810D01*
X0103700Y0246733D01*
X0104462Y0245972D01*
X0111538Y0245972D01*
X0111684Y0246117D01*
X0111684Y0244426D01*
X0111538Y0244572D01*
X0104462Y0244572D01*
X0103700Y0243810D01*
X0103700Y0229733D01*
X0104462Y0228972D01*
X0111538Y0228972D01*
X0112300Y0229733D01*
X0112300Y0235410D01*
X0112739Y0234972D01*
X0113700Y0234972D01*
X0113700Y0229733D01*
X0114462Y0228972D01*
X0121538Y0228972D01*
X0122300Y0229733D01*
X0122300Y0243810D01*
X0121538Y0244572D01*
X0115284Y0244572D01*
X0115284Y0245972D01*
X0121538Y0245972D01*
X0122300Y0246733D01*
X0122300Y0260810D01*
X0121538Y0261572D01*
X0120100Y0261572D01*
X0120100Y0263491D01*
X0120782Y0264173D01*
X0121281Y0265379D01*
X0121281Y0266684D01*
X0120782Y0267890D01*
X0119859Y0268813D01*
X0118653Y0269313D01*
X0117347Y0269313D01*
X0116141Y0268813D01*
X0115284Y0267956D01*
X0115284Y0280793D01*
X0116099Y0281607D01*
X0116568Y0282741D01*
X0116568Y0283968D01*
X0116099Y0285101D01*
X0115231Y0285969D01*
X0114098Y0286439D01*
X0112871Y0286439D01*
X0111737Y0285969D01*
X0110870Y0285101D01*
X0110400Y0283968D01*
X0110400Y0282741D01*
X0110870Y0281607D01*
X0111684Y0280793D01*
X0111684Y0261426D01*
X0111538Y0261572D01*
X0109900Y0261572D01*
X0109900Y0266818D01*
X0108787Y0267931D01*
X0052067Y0267931D01*
X0050954Y0266818D01*
X0050954Y0261572D01*
X0044462Y0261572D01*
X0043700Y0260810D01*
X0043700Y0246733D01*
X0044462Y0245972D01*
X0050954Y0245972D01*
X0050954Y0244572D01*
X0044462Y0244572D01*
X0043700Y0243810D01*
X0043700Y0239272D01*
X0042300Y0239272D01*
X0042300Y0243810D01*
X0041538Y0244572D01*
X0034462Y0244572D01*
X0033700Y0243810D01*
X0033700Y0239272D01*
X0029370Y0239272D01*
X0029370Y0295028D01*
X0245481Y0295028D01*
X0245595Y0294913D01*
X0246729Y0294443D01*
X0247956Y0294443D01*
X0249090Y0294913D01*
X0249957Y0295780D01*
X0250427Y0296914D01*
X0250427Y0298141D01*
X0249957Y0299275D01*
X0249090Y0300142D01*
X0247956Y0300612D01*
X0246729Y0300612D01*
X0245595Y0300142D01*
X0245481Y0300028D01*
X0026373Y0300028D01*
X0025454Y0299647D01*
X0024751Y0298944D01*
X0024370Y0298025D01*
X0024370Y0100180D01*
X0024751Y0099261D01*
X0025454Y0098558D01*
X0026373Y0098177D01*
X0051929Y0098177D01*
X0051929Y0033251D01*
X0052310Y0032332D01*
X0053013Y0031629D01*
X0053932Y0031248D01*
X0096417Y0031248D01*
X0096417Y0018439D01*
X0096085Y0018302D01*
X0094679Y0016895D01*
X0093917Y0015058D01*
X0093917Y0014234D02*
X0034928Y0014234D01*
X0034778Y0013236D02*
X0093917Y0013236D01*
X0094262Y0012237D02*
X0034330Y0012237D01*
X0034763Y0013137D02*
X0034763Y0013137D01*
X0035496Y0018000D01*
X0034763Y0022863D01*
X0034763Y0022863D01*
X0032629Y0027295D01*
X0029284Y0030900D01*
X0029284Y0030900D01*
X0025024Y0033359D01*
X0020229Y0034454D01*
X0015324Y0034086D01*
X0010746Y0032289D01*
X0007748Y0029899D01*
X0007748Y0156779D01*
X0018038Y0156779D01*
X0018800Y0157540D01*
X0018800Y0168617D01*
X0018038Y0169379D01*
X0007748Y0169379D01*
X0007748Y0213078D01*
X0018038Y0213078D01*
X0018800Y0213839D01*
X0018800Y0224916D01*
X0018038Y0225678D01*
X0007748Y0225678D01*
X0007748Y0348621D01*
X0010746Y0346230D01*
X0015324Y0344433D01*
X0015324Y0344433D01*
X0020229Y0344066D01*
X0025024Y0345160D01*
X0029284Y0347619D01*
X0032629Y0351225D01*
X0034763Y0355656D01*
X0034763Y0355656D01*
X0035496Y0360520D01*
X0034763Y0365383D01*
X0033584Y0367831D01*
X0252265Y0367831D01*
X0252162Y0367679D01*
X0252162Y0367679D01*
X0250712Y0362979D01*
X0250712Y0358060D01*
X0252162Y0353361D01*
X0252162Y0353361D01*
X0254932Y0349297D01*
X0254932Y0349297D01*
X0254932Y0349297D01*
X0258778Y0346230D01*
X0263356Y0344433D01*
X0268261Y0344066D01*
X0273056Y0345160D01*
X0277315Y0347619D01*
X0277315Y0347619D01*
X0277315Y0347619D01*
X0278276Y0348655D01*
X0278276Y0338788D01*
X0275741Y0338788D01*
X0274980Y0338027D01*
X0274980Y0333240D01*
X0274771Y0333327D01*
X0272276Y0333327D01*
X0272068Y0333240D01*
X0272068Y0338027D01*
X0271306Y0338788D01*
X0267080Y0338788D01*
X0266318Y0338027D01*
X0266318Y0333013D01*
X0266645Y0332686D01*
X0263143Y0332686D01*
X0262381Y0331924D01*
X0262381Y0328091D01*
X0263143Y0327330D01*
X0267252Y0327330D01*
X0267252Y0325808D01*
X0268207Y0323503D01*
X0269971Y0321738D01*
X0271392Y0321150D01*
X0270302Y0320698D01*
X0270125Y0320875D01*
X0263143Y0320875D01*
X0262965Y0320697D01*
X0256688Y0320697D01*
X0255769Y0320316D01*
X0255066Y0319613D01*
X0254685Y0318694D01*
X0254685Y0165579D01*
X0110532Y0165579D01*
X0110532Y0168617D01*
X0109771Y0169379D01*
X0098694Y0169379D01*
X0097932Y0168617D01*
X0097932Y0157540D01*
X0098694Y0156779D01*
X0109771Y0156779D01*
X0110532Y0157540D01*
X0110532Y0160579D01*
X0257682Y0160579D01*
X0258601Y0160959D01*
X0259304Y0161663D01*
X0259685Y0162581D01*
X0259685Y0315697D01*
X0262965Y0315697D01*
X0263143Y0315519D01*
X0267252Y0315519D01*
X0267252Y0314969D01*
X0263143Y0314969D01*
X0262965Y0314791D01*
X0262593Y0314791D01*
X0261674Y0314411D01*
X0260971Y0313707D01*
X0260591Y0312789D01*
X0259685Y0312789D01*
X0260591Y0312789D02*
X0260591Y0299389D01*
X0260476Y0299275D01*
X0260006Y0298141D01*
X0260006Y0296914D01*
X0260476Y0295780D01*
X0261343Y0294913D01*
X0262477Y0294443D01*
X0263704Y0294443D01*
X0264838Y0294913D01*
X0264952Y0295028D01*
X0270846Y0295028D01*
X0270846Y0294824D01*
X0271607Y0294062D01*
X0278196Y0294062D01*
X0278276Y0294142D01*
X0278276Y0293039D01*
X0278196Y0293119D01*
X0271607Y0293119D01*
X0270846Y0292357D01*
X0270846Y0286950D01*
X0271607Y0286188D01*
X0272402Y0286188D01*
X0272402Y0285639D01*
X0272001Y0285639D01*
X0271239Y0284877D01*
X0271239Y0279076D01*
X0272001Y0278314D01*
X0277802Y0278314D01*
X0278276Y0278788D01*
X0278276Y0277180D01*
X0278185Y0277271D01*
X0277843Y0277469D01*
X0277461Y0277571D01*
X0275402Y0277571D01*
X0275402Y0274209D01*
X0274402Y0274209D01*
X0274402Y0277571D01*
X0272342Y0277571D01*
X0271960Y0277469D01*
X0271618Y0277271D01*
X0271339Y0276992D01*
X0271142Y0276650D01*
X0271039Y0276268D01*
X0271039Y0274209D01*
X0274402Y0274209D01*
X0274402Y0273209D01*
X0275402Y0273209D01*
X0275402Y0269846D01*
X0277461Y0269846D01*
X0277843Y0269949D01*
X0278185Y0270146D01*
X0278276Y0270237D01*
X0278276Y0147975D01*
X0277315Y0149010D01*
X0273056Y0151470D01*
X0273056Y0151470D01*
X0268261Y0152564D01*
X0268261Y0152564D01*
X0263356Y0152197D01*
X0258778Y0150400D01*
X0258778Y0150400D01*
X0254932Y0147333D01*
X0252162Y0143269D01*
X0250712Y0138569D01*
X0250712Y0133651D01*
X0252162Y0128951D01*
X0254932Y0124887D01*
X0254932Y0124887D01*
X0258778Y0121821D01*
X0263356Y0120024D01*
X0263356Y0120024D01*
X0268261Y0119656D01*
X0273056Y0120751D01*
X0277315Y0123210D01*
X0277315Y0123210D01*
X0278276Y0124245D01*
X0278276Y0029865D01*
X0277315Y0030900D01*
X0273056Y0033359D01*
X0268261Y0034454D01*
X0268261Y0034454D01*
X0263356Y0034086D01*
X0258778Y0032289D01*
X0258778Y0032289D01*
X0254932Y0029223D01*
X0252162Y0025159D01*
X0250712Y0020459D01*
X0250712Y0015541D01*
X0252162Y0010841D01*
X0254932Y0006777D01*
X0254932Y0006777D01*
X0254932Y0006777D01*
X0254964Y0006752D01*
X0030817Y0006752D01*
X0032629Y0008705D01*
X0032629Y0008705D01*
X0034763Y0013137D01*
X0033849Y0011239D02*
X0094675Y0011239D01*
X0095669Y0010240D02*
X0033368Y0010240D01*
X0032887Y0009242D02*
X0097492Y0009242D01*
X0100343Y0009242D02*
X0107492Y0009242D01*
X0105669Y0010240D02*
X0102165Y0010240D01*
X0103159Y0011239D02*
X0104675Y0011239D01*
X0104262Y0012237D02*
X0103573Y0012237D01*
X0103917Y0013068D02*
X0103917Y0015058D01*
X0103917Y0013068D01*
X0103917Y0013236D02*
X0103917Y0013236D01*
X0103917Y0014234D02*
X0103917Y0014234D01*
X0103845Y0015233D02*
X0103990Y0015233D01*
X0104403Y0016231D02*
X0103431Y0016231D01*
X0102822Y0017230D02*
X0105013Y0017230D01*
X0106011Y0018228D02*
X0101823Y0018228D01*
X0101417Y0019227D02*
X0117017Y0019227D01*
X0117017Y0020225D02*
X0101417Y0020225D01*
X0101417Y0021224D02*
X0117017Y0021224D01*
X0117017Y0022222D02*
X0101417Y0022222D01*
X0101417Y0023221D02*
X0117017Y0023221D01*
X0117017Y0024219D02*
X0101417Y0024219D01*
X0101417Y0025218D02*
X0117017Y0025218D01*
X0117017Y0026216D02*
X0101417Y0026216D01*
X0101417Y0027215D02*
X0117017Y0027215D01*
X0117017Y0028213D02*
X0101417Y0028213D01*
X0101417Y0029212D02*
X0117017Y0029212D01*
X0117017Y0030210D02*
X0101417Y0030210D01*
X0101417Y0031209D02*
X0117017Y0031209D01*
X0117017Y0032207D02*
X0101417Y0032207D01*
X0101417Y0033206D02*
X0117017Y0033206D01*
X0117017Y0034204D02*
X0101417Y0034204D01*
X0100998Y0035203D02*
X0117017Y0035203D01*
X0120817Y0038472D02*
X0119704Y0039585D01*
X0060266Y0039585D01*
X0060266Y0205076D01*
X0078787Y0205076D01*
X0079900Y0206189D01*
X0079900Y0228972D01*
X0081466Y0228972D01*
X0081466Y0204939D01*
X0061516Y0204939D01*
X0060403Y0203826D01*
X0060403Y0040835D01*
X0061516Y0039722D01*
X0127017Y0039722D01*
X0127017Y0018688D01*
X0126085Y0018302D01*
X0124679Y0016895D01*
X0123917Y0015058D01*
X0123156Y0016895D01*
X0121750Y0018302D01*
X0120817Y0018688D01*
X0120817Y0038472D01*
X0120817Y0038198D02*
X0127017Y0038198D01*
X0127017Y0037200D02*
X0120817Y0037200D01*
X0120817Y0036201D02*
X0127017Y0036201D01*
X0127017Y0035203D02*
X0120817Y0035203D01*
X0120817Y0034204D02*
X0127017Y0034204D01*
X0127017Y0033206D02*
X0120817Y0033206D01*
X0120817Y0032207D02*
X0127017Y0032207D01*
X0127017Y0031209D02*
X0120817Y0031209D01*
X0120817Y0030210D02*
X0127017Y0030210D01*
X0127017Y0029212D02*
X0120817Y0029212D01*
X0120817Y0028213D02*
X0127017Y0028213D01*
X0127017Y0027215D02*
X0120817Y0027215D01*
X0120817Y0026216D02*
X0127017Y0026216D01*
X0127017Y0025218D02*
X0120817Y0025218D01*
X0120817Y0024219D02*
X0127017Y0024219D01*
X0127017Y0023221D02*
X0120817Y0023221D01*
X0120817Y0022222D02*
X0127017Y0022222D01*
X0127017Y0021224D02*
X0120817Y0021224D01*
X0120817Y0020225D02*
X0127017Y0020225D01*
X0127017Y0019227D02*
X0120817Y0019227D01*
X0121823Y0018228D02*
X0126011Y0018228D01*
X0125013Y0017230D02*
X0122822Y0017230D01*
X0123431Y0016231D02*
X0124403Y0016231D01*
X0123990Y0015233D02*
X0123845Y0015233D01*
X0123917Y0015058D02*
X0123917Y0013068D01*
X0123917Y0015058D01*
X0123917Y0014234D02*
X0123917Y0014234D01*
X0123917Y0013236D02*
X0123917Y0013236D01*
X0123573Y0012237D02*
X0124262Y0012237D01*
X0124675Y0011239D02*
X0123159Y0011239D01*
X0122165Y0010240D02*
X0125669Y0010240D01*
X0127492Y0009242D02*
X0120343Y0009242D01*
X0117492Y0009242D02*
X0110343Y0009242D01*
X0112165Y0010240D02*
X0115669Y0010240D01*
X0114675Y0011239D02*
X0113159Y0011239D01*
X0113573Y0012237D02*
X0114262Y0012237D01*
X0113917Y0013236D02*
X0113917Y0013236D01*
X0113917Y0014234D02*
X0113917Y0014234D01*
X0113845Y0015233D02*
X0113990Y0015233D01*
X0114403Y0016231D02*
X0113431Y0016231D01*
X0112822Y0017230D02*
X0115013Y0017230D01*
X0116011Y0018228D02*
X0111823Y0018228D01*
X0096417Y0019227D02*
X0035311Y0019227D01*
X0035161Y0020225D02*
X0096417Y0020225D01*
X0096417Y0021224D02*
X0035010Y0021224D01*
X0034860Y0022222D02*
X0096417Y0022222D01*
X0096417Y0023221D02*
X0034591Y0023221D01*
X0034110Y0024219D02*
X0096417Y0024219D01*
X0096417Y0025218D02*
X0033629Y0025218D01*
X0033148Y0026216D02*
X0096417Y0026216D01*
X0096417Y0027215D02*
X0032668Y0027215D01*
X0032629Y0027295D02*
X0032629Y0027295D01*
X0031777Y0028213D02*
X0096417Y0028213D01*
X0096417Y0029212D02*
X0030850Y0029212D01*
X0029924Y0030210D02*
X0096417Y0030210D01*
X0096417Y0031209D02*
X0028749Y0031209D01*
X0027020Y0032207D02*
X0052434Y0032207D01*
X0051948Y0033206D02*
X0025290Y0033206D01*
X0021322Y0034204D02*
X0051929Y0034204D01*
X0051929Y0035203D02*
X0007748Y0035203D01*
X0007748Y0036201D02*
X0051929Y0036201D01*
X0051929Y0037200D02*
X0007748Y0037200D01*
X0007748Y0038198D02*
X0051929Y0038198D01*
X0051929Y0039197D02*
X0007748Y0039197D01*
X0007748Y0040195D02*
X0051929Y0040195D01*
X0051929Y0041194D02*
X0007748Y0041194D01*
X0007748Y0042192D02*
X0051929Y0042192D01*
X0051929Y0043191D02*
X0007748Y0043191D01*
X0007748Y0044189D02*
X0051929Y0044189D01*
X0051929Y0045188D02*
X0007748Y0045188D01*
X0007748Y0046186D02*
X0051929Y0046186D01*
X0051929Y0047185D02*
X0007748Y0047185D01*
X0007748Y0048183D02*
X0051929Y0048183D01*
X0051929Y0049182D02*
X0007748Y0049182D01*
X0007748Y0050181D02*
X0051929Y0050181D01*
X0051929Y0051179D02*
X0007748Y0051179D01*
X0007748Y0052178D02*
X0051929Y0052178D01*
X0051929Y0053176D02*
X0007748Y0053176D01*
X0007748Y0054175D02*
X0051929Y0054175D01*
X0051929Y0055173D02*
X0007748Y0055173D01*
X0007748Y0056172D02*
X0051929Y0056172D01*
X0051929Y0057170D02*
X0007748Y0057170D01*
X0007748Y0058169D02*
X0051929Y0058169D01*
X0051929Y0059167D02*
X0007748Y0059167D01*
X0007748Y0060166D02*
X0051929Y0060166D01*
X0051929Y0061164D02*
X0007748Y0061164D01*
X0007748Y0062163D02*
X0051929Y0062163D01*
X0051929Y0063161D02*
X0007748Y0063161D01*
X0007748Y0064160D02*
X0051929Y0064160D01*
X0051929Y0065158D02*
X0007748Y0065158D01*
X0007748Y0066157D02*
X0051929Y0066157D01*
X0051929Y0067155D02*
X0007748Y0067155D01*
X0007748Y0068154D02*
X0051929Y0068154D01*
X0051929Y0069152D02*
X0007748Y0069152D01*
X0007748Y0070151D02*
X0051929Y0070151D01*
X0051929Y0071149D02*
X0007748Y0071149D01*
X0007748Y0072148D02*
X0051929Y0072148D01*
X0051929Y0073146D02*
X0007748Y0073146D01*
X0007748Y0074145D02*
X0051929Y0074145D01*
X0051929Y0075143D02*
X0007748Y0075143D01*
X0007748Y0076142D02*
X0051929Y0076142D01*
X0051929Y0077140D02*
X0007748Y0077140D01*
X0007748Y0078139D02*
X0051929Y0078139D01*
X0051929Y0079137D02*
X0007748Y0079137D01*
X0007748Y0080136D02*
X0051929Y0080136D01*
X0051929Y0081134D02*
X0007748Y0081134D01*
X0007748Y0082133D02*
X0051929Y0082133D01*
X0051929Y0083131D02*
X0007748Y0083131D01*
X0007748Y0084130D02*
X0051929Y0084130D01*
X0051929Y0085128D02*
X0007748Y0085128D01*
X0007748Y0086127D02*
X0051929Y0086127D01*
X0051929Y0087125D02*
X0007748Y0087125D01*
X0007748Y0088124D02*
X0051929Y0088124D01*
X0051929Y0089122D02*
X0007748Y0089122D01*
X0007748Y0090121D02*
X0051929Y0090121D01*
X0051929Y0091119D02*
X0007748Y0091119D01*
X0007748Y0092118D02*
X0051929Y0092118D01*
X0051929Y0093116D02*
X0007748Y0093116D01*
X0007748Y0094115D02*
X0051929Y0094115D01*
X0051929Y0095114D02*
X0007748Y0095114D01*
X0007748Y0096112D02*
X0051929Y0096112D01*
X0051929Y0097111D02*
X0007748Y0097111D01*
X0007748Y0098109D02*
X0051929Y0098109D01*
X0055109Y0103102D02*
X0056466Y0103102D01*
X0056466Y0104100D02*
X0029370Y0104100D01*
X0029370Y0105099D02*
X0056466Y0105099D01*
X0056466Y0106097D02*
X0029370Y0106097D01*
X0029370Y0107096D02*
X0056466Y0107096D01*
X0056466Y0108094D02*
X0029370Y0108094D01*
X0029370Y0109093D02*
X0056466Y0109093D01*
X0056466Y0110091D02*
X0029370Y0110091D01*
X0029370Y0111090D02*
X0056466Y0111090D01*
X0056466Y0112088D02*
X0029370Y0112088D01*
X0029370Y0113087D02*
X0056466Y0113087D01*
X0056466Y0114085D02*
X0029370Y0114085D01*
X0029370Y0115084D02*
X0056466Y0115084D01*
X0056466Y0116082D02*
X0029370Y0116082D01*
X0029370Y0117081D02*
X0056466Y0117081D01*
X0056466Y0118079D02*
X0029370Y0118079D01*
X0029370Y0119078D02*
X0056466Y0119078D01*
X0056466Y0120076D02*
X0029370Y0120076D01*
X0029370Y0121075D02*
X0056466Y0121075D01*
X0056466Y0122073D02*
X0029370Y0122073D01*
X0029370Y0123072D02*
X0056466Y0123072D01*
X0056466Y0124070D02*
X0029370Y0124070D01*
X0029370Y0125069D02*
X0056466Y0125069D01*
X0056466Y0126067D02*
X0029370Y0126067D01*
X0029370Y0127066D02*
X0056466Y0127066D01*
X0056466Y0128064D02*
X0029370Y0128064D01*
X0029370Y0129063D02*
X0056466Y0129063D01*
X0056466Y0130061D02*
X0029370Y0130061D01*
X0029370Y0131060D02*
X0056466Y0131060D01*
X0056466Y0132058D02*
X0029370Y0132058D01*
X0029370Y0133057D02*
X0056466Y0133057D01*
X0056466Y0134055D02*
X0029370Y0134055D01*
X0029370Y0135054D02*
X0056466Y0135054D01*
X0056466Y0136052D02*
X0029370Y0136052D01*
X0029370Y0137051D02*
X0056466Y0137051D01*
X0056466Y0138050D02*
X0029370Y0138050D01*
X0029370Y0139048D02*
X0056466Y0139048D01*
X0056466Y0140047D02*
X0029370Y0140047D01*
X0029370Y0141045D02*
X0056466Y0141045D01*
X0056466Y0142044D02*
X0029370Y0142044D01*
X0029370Y0143042D02*
X0056466Y0143042D01*
X0056466Y0144041D02*
X0029370Y0144041D01*
X0029370Y0145039D02*
X0056466Y0145039D01*
X0056466Y0146038D02*
X0029370Y0146038D01*
X0029370Y0147036D02*
X0056466Y0147036D01*
X0056466Y0148035D02*
X0029370Y0148035D01*
X0029370Y0149033D02*
X0056466Y0149033D01*
X0056466Y0150032D02*
X0029370Y0150032D01*
X0029370Y0151030D02*
X0056466Y0151030D01*
X0056466Y0152029D02*
X0029370Y0152029D01*
X0029370Y0153027D02*
X0056466Y0153027D01*
X0056466Y0154026D02*
X0029370Y0154026D01*
X0029370Y0155024D02*
X0056466Y0155024D01*
X0056466Y0156023D02*
X0029370Y0156023D01*
X0029370Y0157021D02*
X0056466Y0157021D01*
X0056466Y0158020D02*
X0029370Y0158020D01*
X0029370Y0159018D02*
X0056466Y0159018D01*
X0056466Y0160017D02*
X0029370Y0160017D01*
X0029370Y0161015D02*
X0056466Y0161015D01*
X0056466Y0162014D02*
X0029370Y0162014D01*
X0029370Y0163012D02*
X0056466Y0163012D01*
X0056466Y0164011D02*
X0029370Y0164011D01*
X0029370Y0165009D02*
X0056466Y0165009D01*
X0056466Y0166008D02*
X0029370Y0166008D01*
X0029370Y0167006D02*
X0056466Y0167006D01*
X0056466Y0168005D02*
X0029370Y0168005D01*
X0029370Y0169003D02*
X0056466Y0169003D01*
X0056466Y0170002D02*
X0029370Y0170002D01*
X0029370Y0171000D02*
X0056466Y0171000D01*
X0056466Y0171999D02*
X0029370Y0171999D01*
X0029370Y0172997D02*
X0056466Y0172997D01*
X0056466Y0173996D02*
X0029370Y0173996D01*
X0029370Y0174994D02*
X0056466Y0174994D01*
X0056466Y0175993D02*
X0029370Y0175993D01*
X0029370Y0176991D02*
X0056466Y0176991D01*
X0056466Y0177990D02*
X0029370Y0177990D01*
X0029370Y0178988D02*
X0056466Y0178988D01*
X0056466Y0179987D02*
X0029370Y0179987D01*
X0029370Y0180985D02*
X0056466Y0180985D01*
X0056466Y0181984D02*
X0029370Y0181984D01*
X0029370Y0182983D02*
X0056466Y0182983D01*
X0056466Y0183981D02*
X0029370Y0183981D01*
X0029370Y0184980D02*
X0056466Y0184980D01*
X0056466Y0185978D02*
X0029370Y0185978D01*
X0029370Y0186977D02*
X0056466Y0186977D01*
X0056466Y0187975D02*
X0029370Y0187975D01*
X0029370Y0188974D02*
X0056466Y0188974D01*
X0056466Y0189972D02*
X0029370Y0189972D01*
X0029370Y0190971D02*
X0056466Y0190971D01*
X0056466Y0191969D02*
X0029370Y0191969D01*
X0029370Y0192968D02*
X0056466Y0192968D01*
X0056466Y0193966D02*
X0029370Y0193966D01*
X0029370Y0194965D02*
X0056466Y0194965D01*
X0056466Y0195963D02*
X0029370Y0195963D01*
X0029370Y0196962D02*
X0056466Y0196962D01*
X0056466Y0197960D02*
X0029370Y0197960D01*
X0029370Y0198959D02*
X0056466Y0198959D01*
X0056466Y0199957D02*
X0029370Y0199957D01*
X0029370Y0200956D02*
X0056466Y0200956D01*
X0056466Y0201954D02*
X0029370Y0201954D01*
X0029370Y0202953D02*
X0056466Y0202953D01*
X0056466Y0203951D02*
X0029370Y0203951D01*
X0029370Y0204950D02*
X0056466Y0204950D01*
X0056466Y0205948D02*
X0029370Y0205948D01*
X0029370Y0206947D02*
X0056466Y0206947D01*
X0056648Y0207945D02*
X0053748Y0207945D01*
X0051960Y0207945D02*
X0029370Y0207945D01*
X0029370Y0208944D02*
X0050462Y0208944D01*
X0049918Y0209942D02*
X0029370Y0209942D01*
X0029370Y0210941D02*
X0049770Y0210941D01*
X0049941Y0211939D02*
X0029370Y0211939D01*
X0029370Y0212938D02*
X0050517Y0212938D01*
X0050954Y0213936D02*
X0029370Y0213936D01*
X0029370Y0214935D02*
X0050954Y0214935D01*
X0050954Y0215933D02*
X0029370Y0215933D01*
X0029370Y0216932D02*
X0050954Y0216932D01*
X0050954Y0217930D02*
X0029370Y0217930D01*
X0029370Y0218929D02*
X0050954Y0218929D01*
X0050954Y0219927D02*
X0029370Y0219927D01*
X0029370Y0220926D02*
X0050954Y0220926D01*
X0050954Y0221924D02*
X0029370Y0221924D01*
X0029370Y0222923D02*
X0050954Y0222923D01*
X0050954Y0223921D02*
X0029370Y0223921D01*
X0029370Y0224920D02*
X0050954Y0224920D01*
X0050954Y0225919D02*
X0029370Y0225919D01*
X0029370Y0226917D02*
X0050954Y0226917D01*
X0050954Y0227916D02*
X0029370Y0227916D01*
X0029370Y0228914D02*
X0050954Y0228914D01*
X0048000Y0233772D02*
X0048000Y0236772D01*
X0043700Y0233907D02*
X0042300Y0233907D01*
X0042300Y0232908D02*
X0043700Y0232908D01*
X0043700Y0231910D02*
X0042300Y0231910D01*
X0042300Y0230911D02*
X0043700Y0230911D01*
X0043700Y0229913D02*
X0042300Y0229913D01*
X0038000Y0233772D02*
X0038000Y0236772D01*
X0042300Y0239898D02*
X0043700Y0239898D01*
X0043700Y0240896D02*
X0042300Y0240896D01*
X0042300Y0241895D02*
X0043700Y0241895D01*
X0043700Y0242893D02*
X0042300Y0242893D01*
X0042218Y0243892D02*
X0043782Y0243892D01*
X0043700Y0246887D02*
X0042300Y0246887D01*
X0042300Y0246733D02*
X0042300Y0260810D01*
X0041538Y0261572D01*
X0040100Y0261572D01*
X0040100Y0263491D01*
X0040782Y0264173D01*
X0041281Y0265379D01*
X0041281Y0266684D01*
X0040782Y0267890D01*
X0039859Y0268813D01*
X0038653Y0269313D01*
X0037347Y0269313D01*
X0036141Y0268813D01*
X0035218Y0267890D01*
X0034719Y0266684D01*
X0034719Y0265379D01*
X0035218Y0264173D01*
X0035900Y0263491D01*
X0035900Y0261572D01*
X0034462Y0261572D01*
X0033700Y0260810D01*
X0033700Y0246733D01*
X0034462Y0245972D01*
X0041538Y0245972D01*
X0042300Y0246733D01*
X0042300Y0247886D02*
X0043700Y0247886D01*
X0043700Y0248884D02*
X0042300Y0248884D01*
X0042300Y0249883D02*
X0043700Y0249883D01*
X0043700Y0250881D02*
X0042300Y0250881D01*
X0042300Y0251880D02*
X0043700Y0251880D01*
X0043700Y0252878D02*
X0042300Y0252878D01*
X0042300Y0253877D02*
X0043700Y0253877D01*
X0043700Y0254875D02*
X0042300Y0254875D01*
X0042300Y0255874D02*
X0043700Y0255874D01*
X0043700Y0256872D02*
X0042300Y0256872D01*
X0042300Y0257871D02*
X0043700Y0257871D01*
X0043700Y0258869D02*
X0042300Y0258869D01*
X0042300Y0259868D02*
X0043700Y0259868D01*
X0043756Y0260866D02*
X0042244Y0260866D01*
X0040100Y0261865D02*
X0050954Y0261865D01*
X0050954Y0262863D02*
X0040100Y0262863D01*
X0040471Y0263862D02*
X0050954Y0263862D01*
X0050954Y0264860D02*
X0041066Y0264860D01*
X0041281Y0265859D02*
X0050954Y0265859D01*
X0050993Y0266857D02*
X0041209Y0266857D01*
X0040796Y0267856D02*
X0051992Y0267856D01*
X0054754Y0263862D02*
X0106100Y0263862D01*
X0106100Y0262863D02*
X0054754Y0262863D01*
X0054754Y0261865D02*
X0106100Y0261865D01*
X0103756Y0260866D02*
X0102244Y0260866D01*
X0102300Y0259868D02*
X0103700Y0259868D01*
X0103700Y0258869D02*
X0102300Y0258869D01*
X0102300Y0257871D02*
X0103700Y0257871D01*
X0103700Y0256872D02*
X0102300Y0256872D01*
X0102300Y0255874D02*
X0103700Y0255874D01*
X0103700Y0254875D02*
X0102300Y0254875D01*
X0102300Y0253877D02*
X0103700Y0253877D01*
X0103700Y0252878D02*
X0102300Y0252878D01*
X0102300Y0251880D02*
X0103700Y0251880D01*
X0103700Y0250881D02*
X0102300Y0250881D01*
X0102300Y0249883D02*
X0103700Y0249883D01*
X0103700Y0248884D02*
X0102300Y0248884D01*
X0102300Y0247886D02*
X0103700Y0247886D01*
X0103700Y0246887D02*
X0102300Y0246887D01*
X0101579Y0244669D02*
X0101197Y0244772D01*
X0098500Y0244772D01*
X0098500Y0237272D01*
X0102500Y0237272D01*
X0102500Y0243469D01*
X0102398Y0243851D01*
X0102200Y0244193D01*
X0101921Y0244472D01*
X0101579Y0244669D01*
X0102374Y0243892D02*
X0103782Y0243892D01*
X0103700Y0242893D02*
X0102500Y0242893D01*
X0102500Y0241895D02*
X0103700Y0241895D01*
X0103700Y0240896D02*
X0102500Y0240896D01*
X0102500Y0239898D02*
X0103700Y0239898D01*
X0103700Y0238899D02*
X0102500Y0238899D01*
X0102500Y0237901D02*
X0103700Y0237901D01*
X0103700Y0236902D02*
X0098500Y0236902D01*
X0098500Y0236272D02*
X0102500Y0236272D01*
X0102500Y0230074D01*
X0102398Y0229693D01*
X0102200Y0229351D01*
X0101921Y0229071D01*
X0101579Y0228874D01*
X0101197Y0228772D01*
X0098500Y0228772D01*
X0098500Y0236272D01*
X0098500Y0235904D02*
X0097500Y0235904D01*
X0097500Y0234905D02*
X0098500Y0234905D01*
X0098500Y0233907D02*
X0097500Y0233907D01*
X0097500Y0232908D02*
X0098500Y0232908D01*
X0098500Y0231910D02*
X0097500Y0231910D01*
X0097500Y0230911D02*
X0098500Y0230911D01*
X0098500Y0229913D02*
X0097500Y0229913D01*
X0097500Y0228914D02*
X0098500Y0228914D01*
X0099035Y0225878D02*
X0098653Y0225776D01*
X0098311Y0225578D01*
X0098032Y0225299D01*
X0097835Y0224957D01*
X0097732Y0224575D01*
X0097732Y0219878D01*
X0103732Y0219878D01*
X0103732Y0218878D01*
X0097732Y0218878D01*
X0097732Y0214180D01*
X0097835Y0213799D01*
X0098032Y0213457D01*
X0098311Y0213178D01*
X0098653Y0212980D01*
X0099035Y0212878D01*
X0103732Y0212878D01*
X0103732Y0218878D01*
X0104732Y0218878D01*
X0104732Y0212878D01*
X0109430Y0212878D01*
X0109811Y0212980D01*
X0110153Y0213178D01*
X0110433Y0213457D01*
X0110630Y0213799D01*
X0110732Y0214180D01*
X0110732Y0218878D01*
X0104732Y0218878D01*
X0104732Y0219878D01*
X0103732Y0219878D01*
X0103732Y0225878D01*
X0099035Y0225878D01*
X0097825Y0224920D02*
X0094715Y0224920D01*
X0094715Y0225919D02*
X0156100Y0225919D01*
X0156100Y0226917D02*
X0094715Y0226917D01*
X0094715Y0227916D02*
X0156100Y0227916D01*
X0156100Y0228914D02*
X0131649Y0228914D01*
X0131579Y0228874D02*
X0131921Y0229071D01*
X0132200Y0229351D01*
X0132398Y0229693D01*
X0132500Y0230074D01*
X0132500Y0234972D01*
X0133700Y0234972D01*
X0133700Y0229733D01*
X0134462Y0228972D01*
X0141538Y0228972D01*
X0142300Y0229733D01*
X0142300Y0234972D01*
X0143700Y0234972D01*
X0143700Y0229733D01*
X0144462Y0228972D01*
X0151538Y0228972D01*
X0152300Y0229733D01*
X0152300Y0243810D01*
X0151538Y0244572D01*
X0144812Y0244572D01*
X0144812Y0245972D01*
X0151538Y0245972D01*
X0152300Y0246733D01*
X0152300Y0260810D01*
X0151538Y0261572D01*
X0149800Y0261572D01*
X0149800Y0283942D01*
X0150615Y0284757D01*
X0151084Y0285890D01*
X0151084Y0287117D01*
X0150615Y0288251D01*
X0149747Y0289119D01*
X0148613Y0289588D01*
X0147386Y0289588D01*
X0146253Y0289119D01*
X0145385Y0288251D01*
X0144916Y0287117D01*
X0144916Y0285890D01*
X0145385Y0284757D01*
X0146200Y0283942D01*
X0146200Y0261572D01*
X0144812Y0261572D01*
X0144812Y0277643D01*
X0145627Y0278458D01*
X0146096Y0279591D01*
X0146096Y0280818D01*
X0145627Y0281952D01*
X0144759Y0282819D01*
X0143625Y0283289D01*
X0142398Y0283289D01*
X0141265Y0282819D01*
X0140397Y0281952D01*
X0139928Y0280818D01*
X0139928Y0279591D01*
X0140397Y0278458D01*
X0141212Y0277643D01*
X0141212Y0261572D01*
X0139800Y0261572D01*
X0139800Y0271344D01*
X0140615Y0272158D01*
X0141084Y0273292D01*
X0141084Y0274519D01*
X0140615Y0275653D01*
X0139747Y0276520D01*
X0138613Y0276990D01*
X0137386Y0276990D01*
X0136253Y0276520D01*
X0135385Y0275653D01*
X0134969Y0274648D01*
X0134969Y0287092D01*
X0135784Y0287906D01*
X0136254Y0289040D01*
X0136254Y0290267D01*
X0135784Y0291401D01*
X0134916Y0292268D01*
X0133783Y0292738D01*
X0132556Y0292738D01*
X0131422Y0292268D01*
X0130555Y0291401D01*
X0130085Y0290267D01*
X0130085Y0289040D01*
X0130555Y0287906D01*
X0131369Y0287092D01*
X0131369Y0261572D01*
X0129800Y0261572D01*
X0129800Y0274493D01*
X0130615Y0275308D01*
X0131084Y0276442D01*
X0131084Y0277669D01*
X0130615Y0278802D01*
X0129747Y0279670D01*
X0128613Y0280139D01*
X0127386Y0280139D01*
X0126253Y0279670D01*
X0125385Y0278802D01*
X0124916Y0277669D01*
X0124916Y0276442D01*
X0125385Y0275308D01*
X0126200Y0274493D01*
X0126200Y0261572D01*
X0124462Y0261572D01*
X0123700Y0260810D01*
X0123700Y0246733D01*
X0124462Y0245972D01*
X0131369Y0245972D01*
X0131369Y0244726D01*
X0131197Y0244772D01*
X0128500Y0244772D01*
X0128500Y0237272D01*
X0127500Y0237272D01*
X0127500Y0244772D01*
X0124803Y0244772D01*
X0124421Y0244669D01*
X0124079Y0244472D01*
X0123800Y0244193D01*
X0123602Y0243851D01*
X0123500Y0243469D01*
X0123500Y0237272D01*
X0127500Y0237272D01*
X0127500Y0236272D01*
X0123500Y0236272D01*
X0123500Y0230074D01*
X0123602Y0229693D01*
X0123800Y0229351D01*
X0124079Y0229071D01*
X0124421Y0228874D01*
X0124803Y0228772D01*
X0127500Y0228772D01*
X0127500Y0236272D01*
X0128500Y0236272D01*
X0128500Y0228772D01*
X0131197Y0228772D01*
X0131579Y0228874D01*
X0132457Y0229913D02*
X0133700Y0229913D01*
X0133700Y0230911D02*
X0132500Y0230911D01*
X0132500Y0231910D02*
X0133700Y0231910D01*
X0133700Y0232908D02*
X0132500Y0232908D01*
X0132500Y0233907D02*
X0133700Y0233907D01*
X0133700Y0234905D02*
X0132500Y0234905D01*
X0133169Y0236772D02*
X0138000Y0236772D01*
X0138000Y0233772D01*
X0142300Y0233907D02*
X0143700Y0233907D01*
X0143700Y0234905D02*
X0142300Y0234905D01*
X0142300Y0232908D02*
X0143700Y0232908D01*
X0143700Y0231910D02*
X0142300Y0231910D01*
X0142300Y0230911D02*
X0143700Y0230911D01*
X0143700Y0229913D02*
X0142300Y0229913D01*
X0148000Y0233772D02*
X0148000Y0236772D01*
X0143012Y0236772D01*
X0143012Y0280205D01*
X0145785Y0278840D02*
X0146200Y0278840D01*
X0146200Y0279838D02*
X0146096Y0279838D01*
X0146088Y0280837D02*
X0146200Y0280837D01*
X0146200Y0281835D02*
X0145675Y0281835D01*
X0146200Y0282834D02*
X0144725Y0282834D01*
X0146200Y0283832D02*
X0134969Y0283832D01*
X0134969Y0282834D02*
X0141299Y0282834D01*
X0140349Y0281835D02*
X0134969Y0281835D01*
X0134969Y0280837D02*
X0139935Y0280837D01*
X0139928Y0279838D02*
X0134969Y0279838D01*
X0134969Y0278840D02*
X0140239Y0278840D01*
X0141014Y0277841D02*
X0134969Y0277841D01*
X0134969Y0276843D02*
X0137031Y0276843D01*
X0135577Y0275844D02*
X0134969Y0275844D01*
X0134969Y0274846D02*
X0135051Y0274846D01*
X0138000Y0273906D02*
X0138000Y0256772D01*
X0138000Y0253772D01*
X0139800Y0261865D02*
X0141212Y0261865D01*
X0141212Y0262863D02*
X0139800Y0262863D01*
X0139800Y0263862D02*
X0141212Y0263862D01*
X0141212Y0264860D02*
X0139800Y0264860D01*
X0139800Y0265859D02*
X0141212Y0265859D01*
X0141212Y0266857D02*
X0139800Y0266857D01*
X0139800Y0267856D02*
X0141212Y0267856D01*
X0141212Y0268854D02*
X0139800Y0268854D01*
X0139800Y0269853D02*
X0141212Y0269853D01*
X0141212Y0270852D02*
X0139800Y0270852D01*
X0140306Y0271850D02*
X0141212Y0271850D01*
X0141212Y0272849D02*
X0140901Y0272849D01*
X0141084Y0273847D02*
X0141212Y0273847D01*
X0141212Y0274846D02*
X0140949Y0274846D01*
X0141212Y0275844D02*
X0140423Y0275844D01*
X0141212Y0276843D02*
X0138969Y0276843D01*
X0144812Y0276843D02*
X0146200Y0276843D01*
X0146200Y0277841D02*
X0145010Y0277841D01*
X0144812Y0275844D02*
X0146200Y0275844D01*
X0146200Y0274846D02*
X0144812Y0274846D01*
X0144812Y0273847D02*
X0146200Y0273847D01*
X0146200Y0272849D02*
X0144812Y0272849D01*
X0144812Y0271850D02*
X0146200Y0271850D01*
X0146200Y0270852D02*
X0144812Y0270852D01*
X0144812Y0269853D02*
X0146200Y0269853D01*
X0146200Y0268854D02*
X0144812Y0268854D01*
X0144812Y0267856D02*
X0146200Y0267856D01*
X0146200Y0266857D02*
X0144812Y0266857D01*
X0144812Y0265859D02*
X0146200Y0265859D01*
X0146200Y0264860D02*
X0144812Y0264860D01*
X0144812Y0263862D02*
X0146200Y0263862D01*
X0146200Y0262863D02*
X0144812Y0262863D01*
X0144812Y0261865D02*
X0146200Y0261865D01*
X0149800Y0261865D02*
X0176100Y0261865D01*
X0176100Y0261572D02*
X0174462Y0261572D01*
X0173700Y0260810D01*
X0173700Y0246733D01*
X0174462Y0245972D01*
X0181538Y0245972D01*
X0182300Y0246733D01*
X0182300Y0260810D01*
X0181538Y0261572D01*
X0179900Y0261572D01*
X0179900Y0275943D01*
X0237007Y0275943D01*
X0237144Y0275805D01*
X0187213Y0275805D01*
X0186100Y0274693D01*
X0186100Y0261572D01*
X0184462Y0261572D01*
X0183700Y0260810D01*
X0183700Y0246733D01*
X0184462Y0245972D01*
X0191538Y0245972D01*
X0192300Y0246733D01*
X0192300Y0260810D01*
X0191538Y0261572D01*
X0189900Y0261572D01*
X0189900Y0272006D01*
X0233207Y0272006D01*
X0233070Y0271868D01*
X0197213Y0271868D01*
X0196100Y0270755D01*
X0196100Y0261572D01*
X0194462Y0261572D01*
X0193700Y0260810D01*
X0193700Y0246733D01*
X0194462Y0245972D01*
X0201538Y0245972D01*
X0202300Y0246733D01*
X0202300Y0260810D01*
X0201538Y0261572D01*
X0199900Y0261572D01*
X0199900Y0268069D01*
X0233070Y0268069D01*
X0233207Y0267931D01*
X0207213Y0267931D01*
X0206100Y0266818D01*
X0206100Y0261572D01*
X0204462Y0261572D01*
X0203700Y0260810D01*
X0203700Y0246733D01*
X0204462Y0245972D01*
X0211538Y0245972D01*
X0212300Y0246733D01*
X0212300Y0260810D01*
X0211538Y0261572D01*
X0209900Y0261572D01*
X0209900Y0264131D01*
X0244881Y0264131D01*
X0245595Y0263417D01*
X0246729Y0262947D01*
X0247956Y0262947D01*
X0249090Y0263417D01*
X0249957Y0264284D01*
X0250427Y0265418D01*
X0250427Y0266645D01*
X0249957Y0267779D01*
X0249090Y0268646D01*
X0247956Y0269116D01*
X0246729Y0269116D01*
X0245595Y0268646D01*
X0244881Y0267931D01*
X0237856Y0267931D01*
X0238146Y0268221D01*
X0238616Y0269355D01*
X0238616Y0270582D01*
X0238146Y0271716D01*
X0237856Y0272006D01*
X0240944Y0272006D01*
X0241658Y0271291D01*
X0242792Y0270821D01*
X0244019Y0270821D01*
X0245153Y0271291D01*
X0246020Y0272158D01*
X0246490Y0273292D01*
X0246490Y0274519D01*
X0246020Y0275653D01*
X0245153Y0276520D01*
X0244019Y0276990D01*
X0242792Y0276990D01*
X0242384Y0276821D01*
X0242553Y0277229D01*
X0242553Y0278456D01*
X0242083Y0279590D01*
X0241216Y0280457D01*
X0240082Y0280927D01*
X0238855Y0280927D01*
X0237721Y0280457D01*
X0237007Y0279743D01*
X0177213Y0279743D01*
X0176100Y0278630D01*
X0176100Y0261572D01*
X0176100Y0262863D02*
X0149800Y0262863D01*
X0149800Y0263862D02*
X0176100Y0263862D01*
X0176100Y0264860D02*
X0149800Y0264860D01*
X0149800Y0265859D02*
X0176100Y0265859D01*
X0176100Y0266857D02*
X0149800Y0266857D01*
X0149800Y0267856D02*
X0176100Y0267856D01*
X0176100Y0268854D02*
X0149800Y0268854D01*
X0149800Y0269853D02*
X0176100Y0269853D01*
X0176100Y0270852D02*
X0149800Y0270852D01*
X0149800Y0271850D02*
X0176100Y0271850D01*
X0176100Y0272849D02*
X0149800Y0272849D01*
X0149800Y0273847D02*
X0176100Y0273847D01*
X0176100Y0274846D02*
X0149800Y0274846D01*
X0149800Y0275844D02*
X0176100Y0275844D01*
X0176100Y0276843D02*
X0149800Y0276843D01*
X0149800Y0277841D02*
X0176100Y0277841D01*
X0176310Y0278840D02*
X0149800Y0278840D01*
X0149800Y0279838D02*
X0237102Y0279838D01*
X0238637Y0280837D02*
X0149800Y0280837D01*
X0149800Y0281835D02*
X0254685Y0281835D01*
X0254685Y0280837D02*
X0240300Y0280837D01*
X0241835Y0279838D02*
X0254685Y0279838D01*
X0254685Y0278840D02*
X0242394Y0278840D01*
X0242553Y0277841D02*
X0254685Y0277841D01*
X0254685Y0276843D02*
X0244374Y0276843D01*
X0245829Y0275844D02*
X0254685Y0275844D01*
X0254685Y0274846D02*
X0246354Y0274846D01*
X0246490Y0273847D02*
X0254685Y0273847D01*
X0254685Y0272849D02*
X0246306Y0272849D01*
X0245712Y0271850D02*
X0254685Y0271850D01*
X0254685Y0270852D02*
X0244092Y0270852D01*
X0242719Y0270852D02*
X0238504Y0270852D01*
X0238616Y0269853D02*
X0254685Y0269853D01*
X0254685Y0268854D02*
X0248587Y0268854D01*
X0249880Y0267856D02*
X0254685Y0267856D01*
X0254685Y0266857D02*
X0250339Y0266857D01*
X0250427Y0265859D02*
X0254685Y0265859D01*
X0254685Y0264860D02*
X0250196Y0264860D01*
X0249535Y0263862D02*
X0254685Y0263862D01*
X0254685Y0262863D02*
X0209900Y0262863D01*
X0209900Y0261865D02*
X0254685Y0261865D01*
X0254685Y0260866D02*
X0232389Y0260866D01*
X0232398Y0260851D02*
X0232200Y0261193D01*
X0231921Y0261472D01*
X0231579Y0261669D01*
X0231197Y0261772D01*
X0228500Y0261772D01*
X0228500Y0254272D01*
X0227500Y0254272D01*
X0227500Y0261772D01*
X0224803Y0261772D01*
X0224421Y0261669D01*
X0224079Y0261472D01*
X0223800Y0261193D01*
X0223602Y0260851D01*
X0223500Y0260469D01*
X0223500Y0255672D01*
X0222300Y0255672D01*
X0222300Y0260810D01*
X0221538Y0261572D01*
X0214462Y0261572D01*
X0213700Y0260810D01*
X0213700Y0246733D01*
X0214462Y0245972D01*
X0221230Y0245972D01*
X0221230Y0244572D01*
X0214462Y0244572D01*
X0213700Y0243810D01*
X0213700Y0229733D01*
X0214462Y0228972D01*
X0216100Y0228972D01*
X0216100Y0174005D01*
X0215385Y0173290D01*
X0214916Y0172157D01*
X0214916Y0170930D01*
X0215385Y0169796D01*
X0216253Y0168929D01*
X0217386Y0168459D01*
X0218613Y0168459D01*
X0219747Y0168929D01*
X0220615Y0169796D01*
X0221084Y0170930D01*
X0221084Y0172157D01*
X0220615Y0173290D01*
X0219900Y0174005D01*
X0219900Y0228972D01*
X0221230Y0228972D01*
X0221230Y0189753D01*
X0220515Y0189038D01*
X0220046Y0187905D01*
X0220046Y0186678D01*
X0220515Y0185544D01*
X0221383Y0184677D01*
X0222516Y0184207D01*
X0223743Y0184207D01*
X0224877Y0184677D01*
X0225745Y0185544D01*
X0226214Y0186678D01*
X0226214Y0187905D01*
X0225745Y0189038D01*
X0225030Y0189753D01*
X0225030Y0228972D01*
X0231538Y0228972D01*
X0232300Y0229733D01*
X0232300Y0243810D01*
X0231538Y0244572D01*
X0225030Y0244572D01*
X0225030Y0245772D01*
X0227500Y0245772D01*
X0227500Y0253272D01*
X0228500Y0253272D01*
X0228500Y0254272D01*
X0232500Y0254272D01*
X0232500Y0260469D01*
X0232398Y0260851D01*
X0232500Y0259868D02*
X0254685Y0259868D01*
X0254685Y0258869D02*
X0232500Y0258869D01*
X0232500Y0257871D02*
X0254685Y0257871D01*
X0254685Y0256872D02*
X0232500Y0256872D01*
X0232500Y0255874D02*
X0254685Y0255874D01*
X0254685Y0254875D02*
X0232500Y0254875D01*
X0232500Y0253272D02*
X0228500Y0253272D01*
X0228500Y0245772D01*
X0231197Y0245772D01*
X0231579Y0245874D01*
X0231921Y0246071D01*
X0232200Y0246351D01*
X0232398Y0246693D01*
X0232500Y0247074D01*
X0232500Y0253272D01*
X0232500Y0252878D02*
X0254685Y0252878D01*
X0254685Y0251880D02*
X0232500Y0251880D01*
X0232500Y0250881D02*
X0254685Y0250881D01*
X0254685Y0249883D02*
X0232500Y0249883D01*
X0232500Y0248884D02*
X0254685Y0248884D01*
X0254685Y0247886D02*
X0232500Y0247886D01*
X0232450Y0246887D02*
X0254685Y0246887D01*
X0254685Y0245889D02*
X0231605Y0245889D01*
X0232218Y0243892D02*
X0254685Y0243892D01*
X0254685Y0244890D02*
X0225030Y0244890D01*
X0227500Y0245889D02*
X0228500Y0245889D01*
X0228500Y0246887D02*
X0227500Y0246887D01*
X0227500Y0247886D02*
X0228500Y0247886D01*
X0228500Y0248884D02*
X0227500Y0248884D01*
X0227500Y0249883D02*
X0228500Y0249883D01*
X0228500Y0250881D02*
X0227500Y0250881D01*
X0227500Y0251880D02*
X0228500Y0251880D01*
X0228500Y0252878D02*
X0227500Y0252878D01*
X0228500Y0253877D02*
X0254685Y0253877D01*
X0259685Y0253877D02*
X0278276Y0253877D01*
X0278276Y0254875D02*
X0259685Y0254875D01*
X0259685Y0255874D02*
X0278276Y0255874D01*
X0278276Y0256872D02*
X0259685Y0256872D01*
X0259685Y0257871D02*
X0278276Y0257871D01*
X0278276Y0258869D02*
X0259685Y0258869D01*
X0259685Y0259868D02*
X0278276Y0259868D01*
X0278276Y0260866D02*
X0259685Y0260866D01*
X0259685Y0261865D02*
X0278276Y0261865D01*
X0278276Y0262863D02*
X0259685Y0262863D01*
X0259685Y0263862D02*
X0278276Y0263862D01*
X0278276Y0264860D02*
X0259685Y0264860D01*
X0259685Y0265859D02*
X0278276Y0265859D01*
X0278276Y0266857D02*
X0259685Y0266857D01*
X0259685Y0267856D02*
X0278276Y0267856D01*
X0278276Y0268854D02*
X0259685Y0268854D01*
X0259685Y0269853D02*
X0272317Y0269853D01*
X0272342Y0269846D02*
X0274402Y0269846D01*
X0274402Y0273209D01*
X0271039Y0273209D01*
X0271039Y0271149D01*
X0271142Y0270767D01*
X0271339Y0270425D01*
X0271618Y0270146D01*
X0271960Y0269949D01*
X0272342Y0269846D01*
X0271119Y0270852D02*
X0259685Y0270852D01*
X0259685Y0271850D02*
X0271039Y0271850D01*
X0271039Y0272849D02*
X0259685Y0272849D01*
X0259685Y0273847D02*
X0274402Y0273847D01*
X0274402Y0272849D02*
X0275402Y0272849D01*
X0275402Y0271850D02*
X0274402Y0271850D01*
X0274402Y0270852D02*
X0275402Y0270852D01*
X0275402Y0269853D02*
X0274402Y0269853D01*
X0277486Y0269853D02*
X0278276Y0269853D01*
X0275402Y0274846D02*
X0274402Y0274846D01*
X0274402Y0275844D02*
X0275402Y0275844D01*
X0275402Y0276843D02*
X0274402Y0276843D01*
X0278276Y0277841D02*
X0259685Y0277841D01*
X0259685Y0276843D02*
X0271253Y0276843D01*
X0271039Y0275844D02*
X0259685Y0275844D01*
X0259685Y0274846D02*
X0271039Y0274846D01*
X0271475Y0278840D02*
X0259685Y0278840D01*
X0259685Y0279838D02*
X0271239Y0279838D01*
X0271239Y0280837D02*
X0259685Y0280837D01*
X0259685Y0281835D02*
X0271239Y0281835D01*
X0271239Y0282834D02*
X0259685Y0282834D01*
X0259685Y0283832D02*
X0271239Y0283832D01*
X0271239Y0284831D02*
X0259685Y0284831D01*
X0259685Y0285829D02*
X0272402Y0285829D01*
X0270968Y0286828D02*
X0259685Y0286828D01*
X0259685Y0287826D02*
X0270846Y0287826D01*
X0270846Y0288825D02*
X0259685Y0288825D01*
X0259685Y0289823D02*
X0270846Y0289823D01*
X0270846Y0290822D02*
X0259685Y0290822D01*
X0259685Y0291820D02*
X0270846Y0291820D01*
X0271307Y0292819D02*
X0259685Y0292819D01*
X0259685Y0293817D02*
X0278276Y0293817D01*
X0270854Y0294816D02*
X0264603Y0294816D01*
X0261578Y0294816D02*
X0259685Y0294816D01*
X0259685Y0295814D02*
X0260462Y0295814D01*
X0260048Y0296813D02*
X0259685Y0296813D01*
X0259685Y0297811D02*
X0260006Y0297811D01*
X0260283Y0298810D02*
X0259685Y0298810D01*
X0259685Y0299808D02*
X0260591Y0299808D01*
X0260591Y0300807D02*
X0259685Y0300807D01*
X0259685Y0301805D02*
X0260591Y0301805D01*
X0260591Y0302804D02*
X0259685Y0302804D01*
X0259685Y0303802D02*
X0260591Y0303802D01*
X0260591Y0304801D02*
X0259685Y0304801D01*
X0259685Y0305799D02*
X0260591Y0305799D01*
X0260591Y0306798D02*
X0259685Y0306798D01*
X0259685Y0307796D02*
X0260591Y0307796D01*
X0260591Y0308795D02*
X0259685Y0308795D01*
X0259685Y0309793D02*
X0260591Y0309793D01*
X0260591Y0310792D02*
X0259685Y0310792D01*
X0259685Y0311790D02*
X0260591Y0311790D01*
X0261051Y0313788D02*
X0259685Y0313788D01*
X0259685Y0314786D02*
X0262580Y0314786D01*
X0263045Y0320777D02*
X0007748Y0320777D01*
X0007748Y0319779D02*
X0255231Y0319779D01*
X0254721Y0318780D02*
X0007748Y0318780D01*
X0007748Y0317782D02*
X0254685Y0317782D01*
X0254685Y0316783D02*
X0007748Y0316783D01*
X0007748Y0315785D02*
X0254685Y0315785D01*
X0254685Y0314786D02*
X0007748Y0314786D01*
X0007748Y0313788D02*
X0254685Y0313788D01*
X0254685Y0312789D02*
X0007748Y0312789D01*
X0007748Y0311790D02*
X0254685Y0311790D01*
X0254685Y0310792D02*
X0007748Y0310792D01*
X0007748Y0309793D02*
X0254685Y0309793D01*
X0254685Y0308795D02*
X0007748Y0308795D01*
X0007748Y0307796D02*
X0254685Y0307796D01*
X0254685Y0306798D02*
X0007748Y0306798D01*
X0007748Y0305799D02*
X0254685Y0305799D01*
X0254685Y0304801D02*
X0007748Y0304801D01*
X0007748Y0303802D02*
X0254685Y0303802D01*
X0254685Y0302804D02*
X0007748Y0302804D01*
X0007748Y0301805D02*
X0254685Y0301805D01*
X0254685Y0300807D02*
X0007748Y0300807D01*
X0007748Y0299808D02*
X0025844Y0299808D01*
X0024695Y0298810D02*
X0007748Y0298810D01*
X0007748Y0297811D02*
X0024370Y0297811D01*
X0024370Y0296813D02*
X0007748Y0296813D01*
X0007748Y0295814D02*
X0024370Y0295814D01*
X0024370Y0294816D02*
X0007748Y0294816D01*
X0007748Y0293817D02*
X0024370Y0293817D01*
X0024370Y0292819D02*
X0007748Y0292819D01*
X0007748Y0291820D02*
X0024370Y0291820D01*
X0024370Y0290822D02*
X0007748Y0290822D01*
X0007748Y0289823D02*
X0024370Y0289823D01*
X0024370Y0288825D02*
X0007748Y0288825D01*
X0007748Y0287826D02*
X0024370Y0287826D01*
X0024370Y0286828D02*
X0007748Y0286828D01*
X0007748Y0285829D02*
X0024370Y0285829D01*
X0024370Y0284831D02*
X0007748Y0284831D01*
X0007748Y0283832D02*
X0024370Y0283832D01*
X0024370Y0282834D02*
X0007748Y0282834D01*
X0007748Y0281835D02*
X0024370Y0281835D01*
X0024370Y0280837D02*
X0007748Y0280837D01*
X0007748Y0279838D02*
X0024370Y0279838D01*
X0024370Y0278840D02*
X0007748Y0278840D01*
X0007748Y0277841D02*
X0024370Y0277841D01*
X0024370Y0276843D02*
X0007748Y0276843D01*
X0007748Y0275844D02*
X0024370Y0275844D01*
X0024370Y0274846D02*
X0007748Y0274846D01*
X0007748Y0273847D02*
X0024370Y0273847D01*
X0024370Y0272849D02*
X0007748Y0272849D01*
X0007748Y0271850D02*
X0024370Y0271850D01*
X0024370Y0270852D02*
X0007748Y0270852D01*
X0007748Y0269853D02*
X0024370Y0269853D01*
X0024370Y0268854D02*
X0007748Y0268854D01*
X0007748Y0267856D02*
X0024370Y0267856D01*
X0024370Y0266857D02*
X0007748Y0266857D01*
X0007748Y0265859D02*
X0024370Y0265859D01*
X0024370Y0264860D02*
X0007748Y0264860D01*
X0007748Y0263862D02*
X0024370Y0263862D01*
X0024370Y0262863D02*
X0007748Y0262863D01*
X0007748Y0261865D02*
X0024370Y0261865D01*
X0024370Y0260866D02*
X0007748Y0260866D01*
X0007748Y0259868D02*
X0024370Y0259868D01*
X0024370Y0258869D02*
X0007748Y0258869D01*
X0007748Y0257871D02*
X0024370Y0257871D01*
X0024370Y0256872D02*
X0007748Y0256872D01*
X0007748Y0255874D02*
X0024370Y0255874D01*
X0024370Y0254875D02*
X0007748Y0254875D01*
X0007748Y0253877D02*
X0024370Y0253877D01*
X0024370Y0252878D02*
X0007748Y0252878D01*
X0007748Y0251880D02*
X0024370Y0251880D01*
X0024370Y0250881D02*
X0007748Y0250881D01*
X0007748Y0249883D02*
X0024370Y0249883D01*
X0024370Y0248884D02*
X0007748Y0248884D01*
X0007748Y0247886D02*
X0024370Y0247886D01*
X0024370Y0246887D02*
X0007748Y0246887D01*
X0007748Y0245889D02*
X0024370Y0245889D01*
X0024370Y0244890D02*
X0007748Y0244890D01*
X0007748Y0243892D02*
X0024370Y0243892D01*
X0024370Y0242893D02*
X0007748Y0242893D01*
X0007748Y0241895D02*
X0024370Y0241895D01*
X0024370Y0240896D02*
X0007748Y0240896D01*
X0007748Y0239898D02*
X0024370Y0239898D01*
X0024370Y0238899D02*
X0007748Y0238899D01*
X0007748Y0237901D02*
X0024370Y0237901D01*
X0024370Y0236902D02*
X0007748Y0236902D01*
X0007748Y0235904D02*
X0024370Y0235904D01*
X0024370Y0234905D02*
X0007748Y0234905D01*
X0007748Y0233907D02*
X0024370Y0233907D01*
X0024370Y0232908D02*
X0007748Y0232908D01*
X0007748Y0231910D02*
X0024370Y0231910D01*
X0024370Y0230911D02*
X0007748Y0230911D01*
X0007748Y0229913D02*
X0024370Y0229913D01*
X0024370Y0228914D02*
X0007748Y0228914D01*
X0007748Y0227916D02*
X0024370Y0227916D01*
X0024370Y0226917D02*
X0007748Y0226917D01*
X0007748Y0225919D02*
X0024370Y0225919D01*
X0024370Y0224920D02*
X0018796Y0224920D01*
X0018800Y0223921D02*
X0024370Y0223921D01*
X0024370Y0222923D02*
X0018800Y0222923D01*
X0018800Y0221924D02*
X0024370Y0221924D01*
X0024370Y0220926D02*
X0018800Y0220926D01*
X0018800Y0219927D02*
X0024370Y0219927D01*
X0024370Y0218929D02*
X0018800Y0218929D01*
X0018800Y0217930D02*
X0024370Y0217930D01*
X0024370Y0216932D02*
X0018800Y0216932D01*
X0018800Y0215933D02*
X0024370Y0215933D01*
X0024370Y0214935D02*
X0018800Y0214935D01*
X0018800Y0213936D02*
X0024370Y0213936D01*
X0024370Y0212938D02*
X0007748Y0212938D01*
X0007748Y0211939D02*
X0024370Y0211939D01*
X0024370Y0210941D02*
X0007748Y0210941D01*
X0007748Y0209942D02*
X0024370Y0209942D01*
X0024370Y0208944D02*
X0007748Y0208944D01*
X0007748Y0207945D02*
X0024370Y0207945D01*
X0024370Y0206947D02*
X0007748Y0206947D01*
X0007748Y0205948D02*
X0024370Y0205948D01*
X0024370Y0204950D02*
X0007748Y0204950D01*
X0007748Y0203951D02*
X0024370Y0203951D01*
X0024370Y0202953D02*
X0007748Y0202953D01*
X0007748Y0201954D02*
X0024370Y0201954D01*
X0024370Y0200956D02*
X0007748Y0200956D01*
X0007748Y0199957D02*
X0024370Y0199957D01*
X0024370Y0198959D02*
X0007748Y0198959D01*
X0007748Y0197960D02*
X0024370Y0197960D01*
X0024370Y0196962D02*
X0007748Y0196962D01*
X0007748Y0195963D02*
X0024370Y0195963D01*
X0024370Y0194965D02*
X0007748Y0194965D01*
X0007748Y0193966D02*
X0024370Y0193966D01*
X0024370Y0192968D02*
X0007748Y0192968D01*
X0007748Y0191969D02*
X0024370Y0191969D01*
X0024370Y0190971D02*
X0007748Y0190971D01*
X0007748Y0189972D02*
X0024370Y0189972D01*
X0024370Y0188974D02*
X0007748Y0188974D01*
X0007748Y0187975D02*
X0024370Y0187975D01*
X0024370Y0186977D02*
X0007748Y0186977D01*
X0007748Y0185978D02*
X0024370Y0185978D01*
X0024370Y0184980D02*
X0007748Y0184980D01*
X0007748Y0183981D02*
X0024370Y0183981D01*
X0024370Y0182983D02*
X0007748Y0182983D01*
X0007748Y0181984D02*
X0024370Y0181984D01*
X0024370Y0180985D02*
X0007748Y0180985D01*
X0007748Y0179987D02*
X0024370Y0179987D01*
X0024370Y0178988D02*
X0007748Y0178988D01*
X0007748Y0177990D02*
X0024370Y0177990D01*
X0024370Y0176991D02*
X0007748Y0176991D01*
X0007748Y0175993D02*
X0024370Y0175993D01*
X0024370Y0174994D02*
X0007748Y0174994D01*
X0007748Y0173996D02*
X0024370Y0173996D01*
X0024370Y0172997D02*
X0007748Y0172997D01*
X0007748Y0171999D02*
X0024370Y0171999D01*
X0024370Y0171000D02*
X0007748Y0171000D01*
X0007748Y0170002D02*
X0024370Y0170002D01*
X0024370Y0169003D02*
X0018414Y0169003D01*
X0018800Y0168005D02*
X0024370Y0168005D01*
X0024370Y0167006D02*
X0018800Y0167006D01*
X0018800Y0166008D02*
X0024370Y0166008D01*
X0024370Y0165009D02*
X0018800Y0165009D01*
X0018800Y0164011D02*
X0024370Y0164011D01*
X0024370Y0163012D02*
X0018800Y0163012D01*
X0018800Y0162014D02*
X0024370Y0162014D01*
X0024370Y0161015D02*
X0018800Y0161015D01*
X0018800Y0160017D02*
X0024370Y0160017D01*
X0024370Y0159018D02*
X0018800Y0159018D01*
X0018800Y0158020D02*
X0024370Y0158020D01*
X0024370Y0157021D02*
X0018281Y0157021D01*
X0024370Y0156023D02*
X0007748Y0156023D01*
X0007748Y0155024D02*
X0024370Y0155024D01*
X0024370Y0154026D02*
X0007748Y0154026D01*
X0007748Y0153027D02*
X0024370Y0153027D01*
X0024370Y0152029D02*
X0007748Y0152029D01*
X0007748Y0151030D02*
X0024370Y0151030D01*
X0024370Y0150032D02*
X0007748Y0150032D01*
X0007748Y0149033D02*
X0024370Y0149033D01*
X0024370Y0148035D02*
X0007748Y0148035D01*
X0007748Y0147036D02*
X0024370Y0147036D01*
X0024370Y0146038D02*
X0007748Y0146038D01*
X0007748Y0145039D02*
X0024370Y0145039D01*
X0024370Y0144041D02*
X0007748Y0144041D01*
X0007748Y0143042D02*
X0024370Y0143042D01*
X0024370Y0142044D02*
X0007748Y0142044D01*
X0007748Y0141045D02*
X0024370Y0141045D01*
X0024370Y0140047D02*
X0007748Y0140047D01*
X0007748Y0139048D02*
X0024370Y0139048D01*
X0024370Y0138050D02*
X0007748Y0138050D01*
X0007748Y0137051D02*
X0024370Y0137051D01*
X0024370Y0136052D02*
X0007748Y0136052D01*
X0007748Y0135054D02*
X0024370Y0135054D01*
X0024370Y0134055D02*
X0007748Y0134055D01*
X0007748Y0133057D02*
X0024370Y0133057D01*
X0024370Y0132058D02*
X0007748Y0132058D01*
X0007748Y0131060D02*
X0024370Y0131060D01*
X0024370Y0130061D02*
X0007748Y0130061D01*
X0007748Y0129063D02*
X0024370Y0129063D01*
X0024370Y0128064D02*
X0007748Y0128064D01*
X0007748Y0127066D02*
X0024370Y0127066D01*
X0024370Y0126067D02*
X0007748Y0126067D01*
X0007748Y0125069D02*
X0024370Y0125069D01*
X0024370Y0124070D02*
X0007748Y0124070D01*
X0007748Y0123072D02*
X0024370Y0123072D01*
X0024370Y0122073D02*
X0007748Y0122073D01*
X0007748Y0121075D02*
X0024370Y0121075D01*
X0024370Y0120076D02*
X0007748Y0120076D01*
X0007748Y0119078D02*
X0024370Y0119078D01*
X0024370Y0118079D02*
X0007748Y0118079D01*
X0007748Y0117081D02*
X0024370Y0117081D01*
X0024370Y0116082D02*
X0007748Y0116082D01*
X0007748Y0115084D02*
X0024370Y0115084D01*
X0024370Y0114085D02*
X0007748Y0114085D01*
X0007748Y0113087D02*
X0024370Y0113087D01*
X0024370Y0112088D02*
X0007748Y0112088D01*
X0007748Y0111090D02*
X0024370Y0111090D01*
X0024370Y0110091D02*
X0007748Y0110091D01*
X0007748Y0109093D02*
X0024370Y0109093D01*
X0024370Y0108094D02*
X0007748Y0108094D01*
X0007748Y0107096D02*
X0024370Y0107096D01*
X0024370Y0106097D02*
X0007748Y0106097D01*
X0007748Y0105099D02*
X0024370Y0105099D01*
X0024370Y0104100D02*
X0007748Y0104100D01*
X0007748Y0103102D02*
X0024370Y0103102D01*
X0024370Y0102103D02*
X0007748Y0102103D01*
X0007748Y0101105D02*
X0024370Y0101105D01*
X0024401Y0100106D02*
X0007748Y0100106D01*
X0007748Y0099108D02*
X0024904Y0099108D01*
X0060266Y0099108D02*
X0060403Y0099108D01*
X0060403Y0100106D02*
X0060266Y0100106D01*
X0060266Y0101105D02*
X0060403Y0101105D01*
X0060403Y0102103D02*
X0060266Y0102103D01*
X0060266Y0103102D02*
X0060403Y0103102D01*
X0060403Y0104100D02*
X0060266Y0104100D01*
X0060266Y0105099D02*
X0060403Y0105099D01*
X0060403Y0106097D02*
X0060266Y0106097D01*
X0060266Y0107096D02*
X0060403Y0107096D01*
X0060403Y0108094D02*
X0060266Y0108094D01*
X0060266Y0109093D02*
X0060403Y0109093D01*
X0060403Y0110091D02*
X0060266Y0110091D01*
X0060266Y0111090D02*
X0060403Y0111090D01*
X0060403Y0112088D02*
X0060266Y0112088D01*
X0060266Y0113087D02*
X0060403Y0113087D01*
X0060403Y0114085D02*
X0060266Y0114085D01*
X0060266Y0115084D02*
X0060403Y0115084D01*
X0060403Y0116082D02*
X0060266Y0116082D01*
X0060266Y0117081D02*
X0060403Y0117081D01*
X0060403Y0118079D02*
X0060266Y0118079D01*
X0060266Y0119078D02*
X0060403Y0119078D01*
X0060403Y0120076D02*
X0060266Y0120076D01*
X0060266Y0121075D02*
X0060403Y0121075D01*
X0060403Y0122073D02*
X0060266Y0122073D01*
X0060266Y0123072D02*
X0060403Y0123072D01*
X0060403Y0124070D02*
X0060266Y0124070D01*
X0060266Y0125069D02*
X0060403Y0125069D01*
X0060403Y0126067D02*
X0060266Y0126067D01*
X0060266Y0127066D02*
X0060403Y0127066D01*
X0060403Y0128064D02*
X0060266Y0128064D01*
X0060266Y0129063D02*
X0060403Y0129063D01*
X0060403Y0130061D02*
X0060266Y0130061D01*
X0060266Y0131060D02*
X0060403Y0131060D01*
X0060403Y0132058D02*
X0060266Y0132058D01*
X0060266Y0133057D02*
X0060403Y0133057D01*
X0060403Y0134055D02*
X0060266Y0134055D01*
X0060266Y0135054D02*
X0060403Y0135054D01*
X0060403Y0136052D02*
X0060266Y0136052D01*
X0060266Y0137051D02*
X0060403Y0137051D01*
X0060403Y0138050D02*
X0060266Y0138050D01*
X0060266Y0139048D02*
X0060403Y0139048D01*
X0060403Y0140047D02*
X0060266Y0140047D01*
X0060266Y0141045D02*
X0060403Y0141045D01*
X0060403Y0142044D02*
X0060266Y0142044D01*
X0060266Y0143042D02*
X0060403Y0143042D01*
X0060403Y0144041D02*
X0060266Y0144041D01*
X0060266Y0145039D02*
X0060403Y0145039D01*
X0060403Y0146038D02*
X0060266Y0146038D01*
X0060266Y0147036D02*
X0060403Y0147036D01*
X0060403Y0148035D02*
X0060266Y0148035D01*
X0060266Y0149033D02*
X0060403Y0149033D01*
X0060403Y0150032D02*
X0060266Y0150032D01*
X0060266Y0151030D02*
X0060403Y0151030D01*
X0060403Y0152029D02*
X0060266Y0152029D01*
X0060266Y0153027D02*
X0060403Y0153027D01*
X0060403Y0154026D02*
X0060266Y0154026D01*
X0060266Y0155024D02*
X0060403Y0155024D01*
X0060403Y0156023D02*
X0060266Y0156023D01*
X0060266Y0157021D02*
X0060403Y0157021D01*
X0060403Y0158020D02*
X0060266Y0158020D01*
X0060266Y0159018D02*
X0060403Y0159018D01*
X0060403Y0160017D02*
X0060266Y0160017D01*
X0060266Y0161015D02*
X0060403Y0161015D01*
X0060403Y0162014D02*
X0060266Y0162014D01*
X0060266Y0163012D02*
X0060403Y0163012D01*
X0060403Y0164011D02*
X0060266Y0164011D01*
X0060266Y0165009D02*
X0060403Y0165009D01*
X0060403Y0166008D02*
X0060266Y0166008D01*
X0060266Y0167006D02*
X0060403Y0167006D01*
X0060403Y0168005D02*
X0060266Y0168005D01*
X0060266Y0169003D02*
X0060403Y0169003D01*
X0060403Y0170002D02*
X0060266Y0170002D01*
X0060266Y0171000D02*
X0060403Y0171000D01*
X0060403Y0171999D02*
X0060266Y0171999D01*
X0060266Y0172997D02*
X0060403Y0172997D01*
X0060403Y0173996D02*
X0060266Y0173996D01*
X0060266Y0174994D02*
X0060403Y0174994D01*
X0060403Y0175993D02*
X0060266Y0175993D01*
X0060266Y0176991D02*
X0060403Y0176991D01*
X0060403Y0177990D02*
X0060266Y0177990D01*
X0060266Y0178988D02*
X0060403Y0178988D01*
X0060403Y0179987D02*
X0060266Y0179987D01*
X0060266Y0180985D02*
X0060403Y0180985D01*
X0060403Y0181984D02*
X0060266Y0181984D01*
X0060266Y0182983D02*
X0060403Y0182983D01*
X0060403Y0183981D02*
X0060266Y0183981D01*
X0060266Y0184980D02*
X0060403Y0184980D01*
X0060403Y0185978D02*
X0060266Y0185978D01*
X0060266Y0186977D02*
X0060403Y0186977D01*
X0060403Y0187975D02*
X0060266Y0187975D01*
X0060266Y0188974D02*
X0060403Y0188974D01*
X0060403Y0189972D02*
X0060266Y0189972D01*
X0060266Y0190971D02*
X0060403Y0190971D01*
X0060403Y0191969D02*
X0060266Y0191969D01*
X0060266Y0192968D02*
X0060403Y0192968D01*
X0060403Y0193966D02*
X0060266Y0193966D01*
X0060266Y0194965D02*
X0060403Y0194965D01*
X0060403Y0195963D02*
X0060266Y0195963D01*
X0060266Y0196962D02*
X0060403Y0196962D01*
X0060403Y0197960D02*
X0060266Y0197960D01*
X0060266Y0198959D02*
X0060403Y0198959D01*
X0060403Y0199957D02*
X0060266Y0199957D01*
X0060266Y0200956D02*
X0060403Y0200956D01*
X0060403Y0201954D02*
X0060266Y0201954D01*
X0060266Y0202953D02*
X0060403Y0202953D01*
X0060528Y0203951D02*
X0060266Y0203951D01*
X0060266Y0204950D02*
X0081466Y0204950D01*
X0081466Y0205948D02*
X0079659Y0205948D01*
X0079900Y0206947D02*
X0081466Y0206947D01*
X0081466Y0207945D02*
X0079900Y0207945D01*
X0079900Y0208944D02*
X0081466Y0208944D01*
X0081466Y0209942D02*
X0079900Y0209942D01*
X0079900Y0210941D02*
X0081466Y0210941D01*
X0081466Y0211939D02*
X0079900Y0211939D01*
X0079900Y0212938D02*
X0081466Y0212938D01*
X0081466Y0213936D02*
X0079900Y0213936D01*
X0079900Y0214935D02*
X0081466Y0214935D01*
X0081466Y0215933D02*
X0079900Y0215933D01*
X0079900Y0216932D02*
X0081466Y0216932D01*
X0081466Y0217930D02*
X0079900Y0217930D01*
X0079900Y0218929D02*
X0081466Y0218929D01*
X0081466Y0219927D02*
X0079900Y0219927D01*
X0079900Y0220926D02*
X0081466Y0220926D01*
X0081466Y0221924D02*
X0079900Y0221924D01*
X0079900Y0222923D02*
X0081466Y0222923D01*
X0081466Y0223921D02*
X0079900Y0223921D01*
X0079900Y0224920D02*
X0081466Y0224920D01*
X0081466Y0225919D02*
X0079900Y0225919D01*
X0079900Y0226917D02*
X0081466Y0226917D01*
X0081466Y0227916D02*
X0079900Y0227916D01*
X0079900Y0228914D02*
X0081466Y0228914D01*
X0076100Y0228914D02*
X0061649Y0228914D01*
X0061579Y0228874D02*
X0061921Y0229071D01*
X0062200Y0229351D01*
X0062398Y0229693D01*
X0062500Y0230074D01*
X0062500Y0236272D01*
X0058500Y0236272D01*
X0058500Y0228772D01*
X0061197Y0228772D01*
X0061579Y0228874D01*
X0062457Y0229913D02*
X0063700Y0229913D01*
X0063700Y0229733D02*
X0064462Y0228972D01*
X0071538Y0228972D01*
X0072300Y0229733D01*
X0072300Y0243810D01*
X0071538Y0244572D01*
X0064462Y0244572D01*
X0063700Y0243810D01*
X0063700Y0229733D01*
X0063700Y0230911D02*
X0062500Y0230911D01*
X0062500Y0231910D02*
X0063700Y0231910D01*
X0063700Y0232908D02*
X0062500Y0232908D01*
X0062500Y0233907D02*
X0063700Y0233907D01*
X0063700Y0234905D02*
X0062500Y0234905D01*
X0062500Y0235904D02*
X0063700Y0235904D01*
X0063700Y0236902D02*
X0058500Y0236902D01*
X0058500Y0237272D02*
X0062500Y0237272D01*
X0062500Y0243469D01*
X0062398Y0243851D01*
X0062200Y0244193D01*
X0061921Y0244472D01*
X0061579Y0244669D01*
X0061197Y0244772D01*
X0058500Y0244772D01*
X0058500Y0237272D01*
X0058500Y0237901D02*
X0057500Y0237901D01*
X0057500Y0238899D02*
X0058500Y0238899D01*
X0058500Y0239898D02*
X0057500Y0239898D01*
X0057500Y0240896D02*
X0058500Y0240896D01*
X0058500Y0241895D02*
X0057500Y0241895D01*
X0057500Y0242893D02*
X0058500Y0242893D01*
X0058500Y0243892D02*
X0057500Y0243892D01*
X0054754Y0244890D02*
X0081466Y0244890D01*
X0078500Y0245889D02*
X0077500Y0245889D01*
X0077500Y0246887D02*
X0078500Y0246887D01*
X0078500Y0247886D02*
X0077500Y0247886D01*
X0077500Y0248884D02*
X0078500Y0248884D01*
X0078500Y0249883D02*
X0077500Y0249883D01*
X0077500Y0250881D02*
X0078500Y0250881D01*
X0078500Y0251880D02*
X0077500Y0251880D01*
X0077500Y0252878D02*
X0078500Y0252878D01*
X0077500Y0253877D02*
X0072300Y0253877D01*
X0072300Y0254875D02*
X0073500Y0254875D01*
X0073500Y0255874D02*
X0072300Y0255874D01*
X0072300Y0256872D02*
X0073500Y0256872D01*
X0073500Y0257871D02*
X0072300Y0257871D01*
X0072300Y0258869D02*
X0073500Y0258869D01*
X0073500Y0259868D02*
X0072300Y0259868D01*
X0072300Y0260810D02*
X0071538Y0261572D01*
X0064462Y0261572D01*
X0063700Y0260810D01*
X0063700Y0246733D01*
X0064462Y0245972D01*
X0071538Y0245972D01*
X0072300Y0246733D01*
X0072300Y0260810D01*
X0072244Y0260866D02*
X0073611Y0260866D01*
X0077500Y0260866D02*
X0078500Y0260866D01*
X0078500Y0259868D02*
X0077500Y0259868D01*
X0077500Y0258869D02*
X0078500Y0258869D01*
X0078500Y0257871D02*
X0077500Y0257871D01*
X0077500Y0256872D02*
X0078500Y0256872D01*
X0078500Y0255874D02*
X0077500Y0255874D01*
X0077500Y0254875D02*
X0078500Y0254875D01*
X0082500Y0255874D02*
X0083700Y0255874D01*
X0083700Y0256872D02*
X0082500Y0256872D01*
X0082500Y0257871D02*
X0083700Y0257871D01*
X0083700Y0258869D02*
X0082500Y0258869D01*
X0082500Y0259868D02*
X0083700Y0259868D01*
X0083756Y0260866D02*
X0082389Y0260866D01*
X0088000Y0256772D02*
X0088000Y0253772D01*
X0092300Y0255874D02*
X0093700Y0255874D01*
X0093700Y0256872D02*
X0092300Y0256872D01*
X0092300Y0257871D02*
X0093700Y0257871D01*
X0093700Y0258869D02*
X0092300Y0258869D01*
X0092300Y0259868D02*
X0093700Y0259868D01*
X0093756Y0260866D02*
X0092244Y0260866D01*
X0098000Y0256772D02*
X0098000Y0253772D01*
X0094715Y0245889D02*
X0111684Y0245889D01*
X0111684Y0244890D02*
X0094715Y0244890D01*
X0097500Y0243892D02*
X0098500Y0243892D01*
X0098500Y0242893D02*
X0097500Y0242893D01*
X0097500Y0241895D02*
X0098500Y0241895D01*
X0098500Y0240896D02*
X0097500Y0240896D01*
X0097500Y0239898D02*
X0098500Y0239898D01*
X0098500Y0238899D02*
X0097500Y0238899D01*
X0097500Y0237901D02*
X0098500Y0237901D01*
X0102500Y0235904D02*
X0103700Y0235904D01*
X0103700Y0234905D02*
X0102500Y0234905D01*
X0102500Y0233907D02*
X0103700Y0233907D01*
X0103700Y0232908D02*
X0102500Y0232908D01*
X0102500Y0231910D02*
X0103700Y0231910D01*
X0103700Y0230911D02*
X0102500Y0230911D01*
X0102457Y0229913D02*
X0103700Y0229913D01*
X0101649Y0228914D02*
X0124351Y0228914D01*
X0123543Y0229913D02*
X0122300Y0229913D01*
X0122300Y0230911D02*
X0123500Y0230911D01*
X0123500Y0231910D02*
X0122300Y0231910D01*
X0122300Y0232908D02*
X0123500Y0232908D01*
X0123500Y0233907D02*
X0122300Y0233907D01*
X0122300Y0234905D02*
X0123500Y0234905D01*
X0123500Y0235904D02*
X0122300Y0235904D01*
X0122300Y0236902D02*
X0127500Y0236902D01*
X0127500Y0235904D02*
X0128500Y0235904D01*
X0128500Y0234905D02*
X0127500Y0234905D01*
X0127500Y0233907D02*
X0128500Y0233907D01*
X0128500Y0232908D02*
X0127500Y0232908D01*
X0127500Y0231910D02*
X0128500Y0231910D01*
X0128500Y0230911D02*
X0127500Y0230911D01*
X0127500Y0229913D02*
X0128500Y0229913D01*
X0128500Y0228914D02*
X0127500Y0228914D01*
X0133169Y0236772D02*
X0133169Y0289654D01*
X0130974Y0291820D02*
X0029370Y0291820D01*
X0029370Y0290822D02*
X0130315Y0290822D01*
X0130085Y0289823D02*
X0029370Y0289823D01*
X0029370Y0288825D02*
X0130174Y0288825D01*
X0130635Y0287826D02*
X0029370Y0287826D01*
X0029370Y0286828D02*
X0131369Y0286828D01*
X0131369Y0285829D02*
X0115371Y0285829D01*
X0116211Y0284831D02*
X0131369Y0284831D01*
X0131369Y0283832D02*
X0116568Y0283832D01*
X0116568Y0282834D02*
X0131369Y0282834D01*
X0131369Y0281835D02*
X0116193Y0281835D01*
X0115328Y0280837D02*
X0131369Y0280837D01*
X0131369Y0279838D02*
X0129341Y0279838D01*
X0130577Y0278840D02*
X0131369Y0278840D01*
X0131369Y0277841D02*
X0131013Y0277841D01*
X0131084Y0276843D02*
X0131369Y0276843D01*
X0131369Y0275844D02*
X0130837Y0275844D01*
X0131369Y0274846D02*
X0130152Y0274846D01*
X0129800Y0273847D02*
X0131369Y0273847D01*
X0131369Y0272849D02*
X0129800Y0272849D01*
X0129800Y0271850D02*
X0131369Y0271850D01*
X0131369Y0270852D02*
X0129800Y0270852D01*
X0129800Y0269853D02*
X0131369Y0269853D01*
X0131369Y0268854D02*
X0129800Y0268854D01*
X0129800Y0267856D02*
X0131369Y0267856D01*
X0131369Y0266857D02*
X0129800Y0266857D01*
X0129800Y0265859D02*
X0131369Y0265859D01*
X0131369Y0264860D02*
X0129800Y0264860D01*
X0129800Y0263862D02*
X0131369Y0263862D01*
X0131369Y0262863D02*
X0129800Y0262863D01*
X0129800Y0261865D02*
X0131369Y0261865D01*
X0126200Y0261865D02*
X0120100Y0261865D01*
X0120100Y0262863D02*
X0126200Y0262863D01*
X0126200Y0263862D02*
X0120471Y0263862D01*
X0121066Y0264860D02*
X0126200Y0264860D01*
X0126200Y0265859D02*
X0121281Y0265859D01*
X0121209Y0266857D02*
X0126200Y0266857D01*
X0126200Y0267856D02*
X0120796Y0267856D01*
X0119759Y0268854D02*
X0126200Y0268854D01*
X0126200Y0269853D02*
X0115284Y0269853D01*
X0115284Y0270852D02*
X0126200Y0270852D01*
X0126200Y0271850D02*
X0115284Y0271850D01*
X0115284Y0272849D02*
X0126200Y0272849D01*
X0126200Y0273847D02*
X0115284Y0273847D01*
X0115284Y0274846D02*
X0125848Y0274846D01*
X0125163Y0275844D02*
X0115284Y0275844D01*
X0115284Y0276843D02*
X0124916Y0276843D01*
X0124987Y0277841D02*
X0115284Y0277841D01*
X0115284Y0278840D02*
X0125423Y0278840D01*
X0126659Y0279838D02*
X0115284Y0279838D01*
X0111684Y0279838D02*
X0029370Y0279838D01*
X0029370Y0278840D02*
X0111684Y0278840D01*
X0111684Y0277841D02*
X0029370Y0277841D01*
X0029370Y0276843D02*
X0111684Y0276843D01*
X0111684Y0275844D02*
X0029370Y0275844D01*
X0029370Y0274846D02*
X0111684Y0274846D01*
X0111684Y0273847D02*
X0029370Y0273847D01*
X0029370Y0272849D02*
X0111684Y0272849D01*
X0111684Y0271850D02*
X0029370Y0271850D01*
X0029370Y0270852D02*
X0111684Y0270852D01*
X0111684Y0269853D02*
X0029370Y0269853D01*
X0029370Y0268854D02*
X0036241Y0268854D01*
X0035204Y0267856D02*
X0029370Y0267856D01*
X0029370Y0266857D02*
X0034791Y0266857D01*
X0034719Y0265859D02*
X0029370Y0265859D01*
X0029370Y0264860D02*
X0034934Y0264860D01*
X0035529Y0263862D02*
X0029370Y0263862D01*
X0029370Y0262863D02*
X0035900Y0262863D01*
X0035900Y0261865D02*
X0029370Y0261865D01*
X0029370Y0260866D02*
X0033756Y0260866D01*
X0033700Y0259868D02*
X0029370Y0259868D01*
X0029370Y0258869D02*
X0033700Y0258869D01*
X0033700Y0257871D02*
X0029370Y0257871D01*
X0029370Y0256872D02*
X0033700Y0256872D01*
X0033700Y0255874D02*
X0029370Y0255874D01*
X0029370Y0254875D02*
X0033700Y0254875D01*
X0033700Y0253877D02*
X0029370Y0253877D01*
X0029370Y0252878D02*
X0033700Y0252878D01*
X0033700Y0251880D02*
X0029370Y0251880D01*
X0029370Y0250881D02*
X0033700Y0250881D01*
X0033700Y0249883D02*
X0029370Y0249883D01*
X0029370Y0248884D02*
X0033700Y0248884D01*
X0033700Y0247886D02*
X0029370Y0247886D01*
X0029370Y0246887D02*
X0033700Y0246887D01*
X0033782Y0243892D02*
X0029370Y0243892D01*
X0029370Y0244890D02*
X0050954Y0244890D01*
X0050954Y0245889D02*
X0029370Y0245889D01*
X0029370Y0242893D02*
X0033700Y0242893D01*
X0033700Y0241895D02*
X0029370Y0241895D01*
X0029370Y0240896D02*
X0033700Y0240896D01*
X0033700Y0239898D02*
X0029370Y0239898D01*
X0029370Y0233907D02*
X0033700Y0233907D01*
X0033700Y0232908D02*
X0029370Y0232908D01*
X0029370Y0231910D02*
X0033700Y0231910D01*
X0033700Y0230911D02*
X0029370Y0230911D01*
X0029370Y0229913D02*
X0033700Y0229913D01*
X0054754Y0227916D02*
X0076100Y0227916D01*
X0076100Y0226917D02*
X0054754Y0226917D01*
X0054754Y0225919D02*
X0076100Y0225919D01*
X0076100Y0224920D02*
X0054754Y0224920D01*
X0054754Y0223921D02*
X0076100Y0223921D01*
X0076100Y0222923D02*
X0054754Y0222923D01*
X0054754Y0221924D02*
X0076100Y0221924D01*
X0076100Y0220926D02*
X0054754Y0220926D01*
X0054754Y0219927D02*
X0076100Y0219927D01*
X0076100Y0218929D02*
X0054754Y0218929D01*
X0054754Y0217930D02*
X0076100Y0217930D01*
X0076100Y0216932D02*
X0054754Y0216932D01*
X0054754Y0215933D02*
X0076100Y0215933D01*
X0076100Y0214935D02*
X0054754Y0214935D01*
X0054754Y0213936D02*
X0076100Y0213936D01*
X0076100Y0212938D02*
X0055192Y0212938D01*
X0055768Y0211939D02*
X0076100Y0211939D01*
X0076100Y0210941D02*
X0055939Y0210941D01*
X0055790Y0209942D02*
X0076100Y0209942D01*
X0076100Y0208944D02*
X0055247Y0208944D01*
X0068140Y0197202D02*
X0088787Y0197202D01*
X0089900Y0198315D01*
X0089900Y0228972D01*
X0090915Y0228972D01*
X0090915Y0197065D01*
X0073327Y0197065D01*
X0072214Y0195952D01*
X0072214Y0060520D01*
X0073327Y0059407D01*
X0137017Y0059407D01*
X0137017Y0018688D01*
X0136085Y0018302D01*
X0134679Y0016895D01*
X0133917Y0015058D01*
X0133156Y0016895D01*
X0131750Y0018302D01*
X0130817Y0018688D01*
X0130817Y0042409D01*
X0129704Y0043522D01*
X0111242Y0043522D01*
X0111532Y0043812D01*
X0112002Y0044946D01*
X0112002Y0046173D01*
X0111532Y0047306D01*
X0110664Y0048174D01*
X0109531Y0048643D01*
X0108304Y0048643D01*
X0107170Y0048174D01*
X0106456Y0047459D01*
X0068140Y0047459D01*
X0068140Y0197202D01*
X0068140Y0196962D02*
X0073223Y0196962D01*
X0072225Y0195963D02*
X0068140Y0195963D01*
X0068140Y0194965D02*
X0072214Y0194965D01*
X0072214Y0193966D02*
X0068140Y0193966D01*
X0068140Y0192968D02*
X0072214Y0192968D01*
X0072214Y0191969D02*
X0068140Y0191969D01*
X0068140Y0190971D02*
X0072214Y0190971D01*
X0072214Y0189972D02*
X0068140Y0189972D01*
X0068140Y0188974D02*
X0072214Y0188974D01*
X0072214Y0187975D02*
X0068140Y0187975D01*
X0068140Y0186977D02*
X0072214Y0186977D01*
X0072214Y0185978D02*
X0068140Y0185978D01*
X0068140Y0184980D02*
X0072214Y0184980D01*
X0072214Y0183981D02*
X0068140Y0183981D01*
X0068140Y0182983D02*
X0072214Y0182983D01*
X0072214Y0181984D02*
X0068140Y0181984D01*
X0068140Y0180985D02*
X0072214Y0180985D01*
X0072214Y0179987D02*
X0068140Y0179987D01*
X0068140Y0178988D02*
X0072214Y0178988D01*
X0072214Y0177990D02*
X0068140Y0177990D01*
X0068140Y0176991D02*
X0072214Y0176991D01*
X0072214Y0175993D02*
X0068140Y0175993D01*
X0068140Y0174994D02*
X0072214Y0174994D01*
X0072214Y0173996D02*
X0068140Y0173996D01*
X0068140Y0172997D02*
X0072214Y0172997D01*
X0072214Y0171999D02*
X0068140Y0171999D01*
X0068140Y0171000D02*
X0072214Y0171000D01*
X0072214Y0170002D02*
X0068140Y0170002D01*
X0068140Y0169003D02*
X0072214Y0169003D01*
X0072214Y0168005D02*
X0068140Y0168005D01*
X0068140Y0167006D02*
X0072214Y0167006D01*
X0072214Y0166008D02*
X0068140Y0166008D01*
X0068140Y0165009D02*
X0072214Y0165009D01*
X0072214Y0164011D02*
X0068140Y0164011D01*
X0068140Y0163012D02*
X0072214Y0163012D01*
X0072214Y0162014D02*
X0068140Y0162014D01*
X0068140Y0161015D02*
X0072214Y0161015D01*
X0072214Y0160017D02*
X0068140Y0160017D01*
X0068140Y0159018D02*
X0072214Y0159018D01*
X0072214Y0158020D02*
X0068140Y0158020D01*
X0068140Y0157021D02*
X0072214Y0157021D01*
X0072214Y0156023D02*
X0068140Y0156023D01*
X0068140Y0155024D02*
X0072214Y0155024D01*
X0072214Y0154026D02*
X0068140Y0154026D01*
X0068140Y0153027D02*
X0072214Y0153027D01*
X0072214Y0152029D02*
X0068140Y0152029D01*
X0068140Y0151030D02*
X0072214Y0151030D01*
X0072214Y0150032D02*
X0068140Y0150032D01*
X0068140Y0149033D02*
X0072214Y0149033D01*
X0072214Y0148035D02*
X0068140Y0148035D01*
X0068140Y0147036D02*
X0072214Y0147036D01*
X0072214Y0146038D02*
X0068140Y0146038D01*
X0068140Y0145039D02*
X0072214Y0145039D01*
X0072214Y0144041D02*
X0068140Y0144041D01*
X0068140Y0143042D02*
X0072214Y0143042D01*
X0072214Y0142044D02*
X0068140Y0142044D01*
X0068140Y0141045D02*
X0072214Y0141045D01*
X0072214Y0140047D02*
X0068140Y0140047D01*
X0068140Y0139048D02*
X0072214Y0139048D01*
X0072214Y0138050D02*
X0068140Y0138050D01*
X0068140Y0137051D02*
X0072214Y0137051D01*
X0072214Y0136052D02*
X0068140Y0136052D01*
X0068140Y0135054D02*
X0072214Y0135054D01*
X0072214Y0134055D02*
X0068140Y0134055D01*
X0068140Y0133057D02*
X0072214Y0133057D01*
X0072214Y0132058D02*
X0068140Y0132058D01*
X0068140Y0131060D02*
X0072214Y0131060D01*
X0072214Y0130061D02*
X0068140Y0130061D01*
X0068140Y0129063D02*
X0072214Y0129063D01*
X0072214Y0128064D02*
X0068140Y0128064D01*
X0068140Y0127066D02*
X0072214Y0127066D01*
X0072214Y0126067D02*
X0068140Y0126067D01*
X0068140Y0125069D02*
X0072214Y0125069D01*
X0072214Y0124070D02*
X0068140Y0124070D01*
X0068140Y0123072D02*
X0072214Y0123072D01*
X0072214Y0122073D02*
X0068140Y0122073D01*
X0068140Y0121075D02*
X0072214Y0121075D01*
X0072214Y0120076D02*
X0068140Y0120076D01*
X0068140Y0119078D02*
X0072214Y0119078D01*
X0072214Y0118079D02*
X0068140Y0118079D01*
X0068140Y0117081D02*
X0072214Y0117081D01*
X0072214Y0116082D02*
X0068140Y0116082D01*
X0068140Y0115084D02*
X0072214Y0115084D01*
X0072214Y0114085D02*
X0068140Y0114085D01*
X0068140Y0113087D02*
X0072214Y0113087D01*
X0072214Y0112088D02*
X0068140Y0112088D01*
X0068140Y0111090D02*
X0072214Y0111090D01*
X0072214Y0110091D02*
X0068140Y0110091D01*
X0068140Y0109093D02*
X0072214Y0109093D01*
X0072214Y0108094D02*
X0068140Y0108094D01*
X0068140Y0107096D02*
X0072214Y0107096D01*
X0072214Y0106097D02*
X0068140Y0106097D01*
X0068140Y0105099D02*
X0072214Y0105099D01*
X0072214Y0104100D02*
X0068140Y0104100D01*
X0068140Y0103102D02*
X0072214Y0103102D01*
X0072214Y0102103D02*
X0068140Y0102103D01*
X0068140Y0101105D02*
X0072214Y0101105D01*
X0072214Y0100106D02*
X0068140Y0100106D01*
X0068140Y0099108D02*
X0072214Y0099108D01*
X0072214Y0098109D02*
X0068140Y0098109D01*
X0068140Y0097111D02*
X0072214Y0097111D01*
X0072214Y0096112D02*
X0068140Y0096112D01*
X0068140Y0095114D02*
X0072214Y0095114D01*
X0072214Y0094115D02*
X0068140Y0094115D01*
X0068140Y0093116D02*
X0072214Y0093116D01*
X0072214Y0092118D02*
X0068140Y0092118D01*
X0068140Y0091119D02*
X0072214Y0091119D01*
X0072214Y0090121D02*
X0068140Y0090121D01*
X0068140Y0089122D02*
X0072214Y0089122D01*
X0072214Y0088124D02*
X0068140Y0088124D01*
X0068140Y0087125D02*
X0072214Y0087125D01*
X0072214Y0086127D02*
X0068140Y0086127D01*
X0068140Y0085128D02*
X0072214Y0085128D01*
X0072214Y0084130D02*
X0068140Y0084130D01*
X0068140Y0083131D02*
X0072214Y0083131D01*
X0072214Y0082133D02*
X0068140Y0082133D01*
X0068140Y0081134D02*
X0072214Y0081134D01*
X0072214Y0080136D02*
X0068140Y0080136D01*
X0068140Y0079137D02*
X0072214Y0079137D01*
X0072214Y0078139D02*
X0068140Y0078139D01*
X0068140Y0077140D02*
X0072214Y0077140D01*
X0072214Y0076142D02*
X0068140Y0076142D01*
X0068140Y0075143D02*
X0072214Y0075143D01*
X0072214Y0074145D02*
X0068140Y0074145D01*
X0068140Y0073146D02*
X0072214Y0073146D01*
X0072214Y0072148D02*
X0068140Y0072148D01*
X0068140Y0071149D02*
X0072214Y0071149D01*
X0072214Y0070151D02*
X0068140Y0070151D01*
X0068140Y0069152D02*
X0072214Y0069152D01*
X0072214Y0068154D02*
X0068140Y0068154D01*
X0068140Y0067155D02*
X0072214Y0067155D01*
X0072214Y0066157D02*
X0068140Y0066157D01*
X0068140Y0065158D02*
X0072214Y0065158D01*
X0072214Y0064160D02*
X0068140Y0064160D01*
X0068140Y0063161D02*
X0072214Y0063161D01*
X0072214Y0062163D02*
X0068140Y0062163D01*
X0068140Y0061164D02*
X0072214Y0061164D01*
X0072569Y0060166D02*
X0068140Y0060166D01*
X0068140Y0059167D02*
X0137017Y0059167D01*
X0137017Y0058169D02*
X0068140Y0058169D01*
X0068140Y0057170D02*
X0137017Y0057170D01*
X0137017Y0056172D02*
X0068140Y0056172D01*
X0068140Y0055173D02*
X0137017Y0055173D01*
X0137017Y0054175D02*
X0068140Y0054175D01*
X0068140Y0053176D02*
X0137017Y0053176D01*
X0137017Y0052178D02*
X0068140Y0052178D01*
X0068140Y0051179D02*
X0137017Y0051179D01*
X0137017Y0050181D02*
X0068140Y0050181D01*
X0068140Y0049182D02*
X0137017Y0049182D01*
X0137017Y0048183D02*
X0110641Y0048183D01*
X0111582Y0047185D02*
X0137017Y0047185D01*
X0137017Y0046186D02*
X0111996Y0046186D01*
X0112002Y0045188D02*
X0137017Y0045188D01*
X0137017Y0044189D02*
X0111688Y0044189D01*
X0107194Y0048183D02*
X0068140Y0048183D01*
X0060403Y0048183D02*
X0060266Y0048183D01*
X0060266Y0047185D02*
X0060403Y0047185D01*
X0060403Y0046186D02*
X0060266Y0046186D01*
X0060266Y0045188D02*
X0060403Y0045188D01*
X0060403Y0044189D02*
X0060266Y0044189D01*
X0060266Y0043191D02*
X0060403Y0043191D01*
X0060403Y0042192D02*
X0060266Y0042192D01*
X0060266Y0041194D02*
X0060403Y0041194D01*
X0060266Y0040195D02*
X0061043Y0040195D01*
X0060403Y0049182D02*
X0060266Y0049182D01*
X0060266Y0050181D02*
X0060403Y0050181D01*
X0060403Y0051179D02*
X0060266Y0051179D01*
X0060266Y0052178D02*
X0060403Y0052178D01*
X0060403Y0053176D02*
X0060266Y0053176D01*
X0060266Y0054175D02*
X0060403Y0054175D01*
X0060403Y0055173D02*
X0060266Y0055173D01*
X0060266Y0056172D02*
X0060403Y0056172D01*
X0060403Y0057170D02*
X0060266Y0057170D01*
X0060266Y0058169D02*
X0060403Y0058169D01*
X0060403Y0059167D02*
X0060266Y0059167D01*
X0060266Y0060166D02*
X0060403Y0060166D01*
X0060403Y0061164D02*
X0060266Y0061164D01*
X0060266Y0062163D02*
X0060403Y0062163D01*
X0060403Y0063161D02*
X0060266Y0063161D01*
X0060266Y0064160D02*
X0060403Y0064160D01*
X0060403Y0065158D02*
X0060266Y0065158D01*
X0060266Y0066157D02*
X0060403Y0066157D01*
X0060403Y0067155D02*
X0060266Y0067155D01*
X0060266Y0068154D02*
X0060403Y0068154D01*
X0060403Y0069152D02*
X0060266Y0069152D01*
X0060266Y0070151D02*
X0060403Y0070151D01*
X0060403Y0071149D02*
X0060266Y0071149D01*
X0060266Y0072148D02*
X0060403Y0072148D01*
X0060403Y0073146D02*
X0060266Y0073146D01*
X0060266Y0074145D02*
X0060403Y0074145D01*
X0060403Y0075143D02*
X0060266Y0075143D01*
X0060266Y0076142D02*
X0060403Y0076142D01*
X0060403Y0077140D02*
X0060266Y0077140D01*
X0060266Y0078139D02*
X0060403Y0078139D01*
X0060403Y0079137D02*
X0060266Y0079137D01*
X0060266Y0080136D02*
X0060403Y0080136D01*
X0060403Y0081134D02*
X0060266Y0081134D01*
X0060266Y0082133D02*
X0060403Y0082133D01*
X0060403Y0083131D02*
X0060266Y0083131D01*
X0060266Y0084130D02*
X0060403Y0084130D01*
X0060403Y0085128D02*
X0060266Y0085128D01*
X0060266Y0086127D02*
X0060403Y0086127D01*
X0060403Y0087125D02*
X0060266Y0087125D01*
X0060266Y0088124D02*
X0060403Y0088124D01*
X0060403Y0089122D02*
X0060266Y0089122D01*
X0060266Y0090121D02*
X0060403Y0090121D01*
X0060403Y0091119D02*
X0060266Y0091119D01*
X0060266Y0092118D02*
X0060403Y0092118D01*
X0060403Y0093116D02*
X0060266Y0093116D01*
X0060266Y0094115D02*
X0060403Y0094115D01*
X0060403Y0095114D02*
X0060266Y0095114D01*
X0060266Y0096112D02*
X0060403Y0096112D01*
X0060403Y0097111D02*
X0060266Y0097111D01*
X0060266Y0098109D02*
X0060403Y0098109D01*
X0076014Y0098109D02*
X0278276Y0098109D01*
X0278276Y0097111D02*
X0076014Y0097111D01*
X0076014Y0096112D02*
X0278276Y0096112D01*
X0278276Y0095114D02*
X0076014Y0095114D01*
X0076014Y0094115D02*
X0278276Y0094115D01*
X0278276Y0093116D02*
X0076014Y0093116D01*
X0076014Y0092118D02*
X0278276Y0092118D01*
X0278276Y0091119D02*
X0076014Y0091119D01*
X0076014Y0090121D02*
X0278276Y0090121D01*
X0278276Y0089122D02*
X0076014Y0089122D01*
X0076014Y0088124D02*
X0278276Y0088124D01*
X0278276Y0087125D02*
X0076014Y0087125D01*
X0076014Y0086127D02*
X0278276Y0086127D01*
X0278276Y0085128D02*
X0076014Y0085128D01*
X0076014Y0084130D02*
X0278276Y0084130D01*
X0278276Y0083131D02*
X0076014Y0083131D01*
X0076014Y0082133D02*
X0278276Y0082133D01*
X0278276Y0081134D02*
X0076014Y0081134D01*
X0076014Y0080136D02*
X0278276Y0080136D01*
X0278276Y0079137D02*
X0076014Y0079137D01*
X0076014Y0078139D02*
X0278276Y0078139D01*
X0278276Y0077140D02*
X0076014Y0077140D01*
X0076014Y0076142D02*
X0278276Y0076142D01*
X0278276Y0075143D02*
X0076014Y0075143D01*
X0076014Y0074145D02*
X0278276Y0074145D01*
X0278276Y0073146D02*
X0076014Y0073146D01*
X0076014Y0072148D02*
X0278276Y0072148D01*
X0278276Y0071149D02*
X0076014Y0071149D01*
X0076014Y0070151D02*
X0278276Y0070151D01*
X0278276Y0069152D02*
X0076014Y0069152D01*
X0076014Y0068154D02*
X0278276Y0068154D01*
X0278276Y0067155D02*
X0076014Y0067155D01*
X0076014Y0066157D02*
X0278276Y0066157D01*
X0278276Y0065158D02*
X0076014Y0065158D01*
X0076014Y0064160D02*
X0278276Y0064160D01*
X0278276Y0063161D02*
X0139750Y0063161D01*
X0140749Y0062163D02*
X0278276Y0062163D01*
X0278276Y0061164D02*
X0140817Y0061164D01*
X0140817Y0060166D02*
X0278276Y0060166D01*
X0278276Y0059167D02*
X0140817Y0059167D01*
X0140817Y0058169D02*
X0278276Y0058169D01*
X0278276Y0057170D02*
X0140817Y0057170D01*
X0140817Y0056172D02*
X0278276Y0056172D01*
X0278276Y0055173D02*
X0140817Y0055173D01*
X0140817Y0054175D02*
X0278276Y0054175D01*
X0278276Y0053176D02*
X0140817Y0053176D01*
X0140817Y0052178D02*
X0278276Y0052178D01*
X0278276Y0051179D02*
X0140817Y0051179D01*
X0140817Y0050181D02*
X0278276Y0050181D01*
X0278276Y0049182D02*
X0140817Y0049182D01*
X0140817Y0048183D02*
X0278276Y0048183D01*
X0278276Y0047185D02*
X0140817Y0047185D01*
X0140817Y0046186D02*
X0278276Y0046186D01*
X0278276Y0045188D02*
X0140817Y0045188D01*
X0140817Y0044189D02*
X0278276Y0044189D01*
X0278276Y0043191D02*
X0140817Y0043191D01*
X0140817Y0042192D02*
X0278276Y0042192D01*
X0278276Y0041194D02*
X0140817Y0041194D01*
X0140817Y0040195D02*
X0278276Y0040195D01*
X0278276Y0039197D02*
X0140817Y0039197D01*
X0140817Y0038198D02*
X0278276Y0038198D01*
X0278276Y0037200D02*
X0140817Y0037200D01*
X0140817Y0036201D02*
X0278276Y0036201D01*
X0278276Y0035203D02*
X0140817Y0035203D01*
X0140817Y0034204D02*
X0264931Y0034204D01*
X0263356Y0034086D02*
X0263356Y0034086D01*
X0261113Y0033206D02*
X0140817Y0033206D01*
X0140817Y0032207D02*
X0258675Y0032207D01*
X0257423Y0031209D02*
X0140817Y0031209D01*
X0140817Y0030210D02*
X0256170Y0030210D01*
X0254932Y0029223D02*
X0254932Y0029223D01*
X0254932Y0029223D01*
X0254925Y0029212D02*
X0140817Y0029212D01*
X0140817Y0028213D02*
X0254244Y0028213D01*
X0253563Y0027215D02*
X0140817Y0027215D01*
X0140817Y0026216D02*
X0252882Y0026216D01*
X0252202Y0025218D02*
X0140817Y0025218D01*
X0140817Y0024219D02*
X0251872Y0024219D01*
X0252162Y0025159D02*
X0252162Y0025159D01*
X0251564Y0023221D02*
X0140817Y0023221D01*
X0140817Y0022222D02*
X0251256Y0022222D01*
X0250948Y0021224D02*
X0140817Y0021224D01*
X0140817Y0020225D02*
X0250712Y0020225D01*
X0250712Y0019227D02*
X0149556Y0019227D01*
X0149417Y0019227D02*
X0148417Y0019227D01*
X0148279Y0019227D02*
X0140817Y0019227D01*
X0141823Y0018228D02*
X0145803Y0018228D01*
X0144790Y0017230D02*
X0142822Y0017230D01*
X0143431Y0016231D02*
X0144186Y0016231D01*
X0144043Y0012237D02*
X0143573Y0012237D01*
X0143159Y0011239D02*
X0144542Y0011239D01*
X0145386Y0010240D02*
X0142165Y0010240D01*
X0140343Y0009242D02*
X0146929Y0009242D01*
X0148417Y0009242D02*
X0149417Y0009242D01*
X0149417Y0010240D02*
X0148417Y0010240D01*
X0148417Y0011239D02*
X0149417Y0011239D01*
X0149417Y0012237D02*
X0148417Y0012237D01*
X0148417Y0013236D02*
X0149417Y0013236D01*
X0149417Y0014234D02*
X0251115Y0014234D01*
X0251423Y0013236D02*
X0154051Y0013236D01*
X0153792Y0012237D02*
X0251731Y0012237D01*
X0252039Y0011239D02*
X0153293Y0011239D01*
X0152448Y0010240D02*
X0252571Y0010240D01*
X0252162Y0010841D02*
X0252162Y0010841D01*
X0253252Y0009242D02*
X0150906Y0009242D01*
X0149417Y0014563D02*
X0154103Y0014563D01*
X0153989Y0015281D01*
X0153736Y0016059D01*
X0153365Y0016788D01*
X0152884Y0017451D01*
X0152305Y0018029D01*
X0151643Y0018510D01*
X0150913Y0018882D01*
X0150135Y0019135D01*
X0149417Y0019249D01*
X0149417Y0014563D01*
X0149417Y0015233D02*
X0148417Y0015233D01*
X0148417Y0016231D02*
X0149417Y0016231D01*
X0149417Y0017230D02*
X0148417Y0017230D01*
X0148417Y0018228D02*
X0149417Y0018228D01*
X0152031Y0018228D02*
X0250712Y0018228D01*
X0250712Y0017230D02*
X0153044Y0017230D01*
X0153649Y0016231D02*
X0250712Y0016231D01*
X0250807Y0015233D02*
X0153997Y0015233D01*
X0137492Y0009242D02*
X0130343Y0009242D01*
X0132165Y0010240D02*
X0135669Y0010240D01*
X0134675Y0011239D02*
X0133159Y0011239D01*
X0133573Y0012237D02*
X0134262Y0012237D01*
X0133917Y0013068D02*
X0133917Y0015058D01*
X0133917Y0013068D01*
X0133917Y0013236D02*
X0133917Y0013236D01*
X0133917Y0014234D02*
X0133917Y0014234D01*
X0133845Y0015233D02*
X0133990Y0015233D01*
X0134403Y0016231D02*
X0133431Y0016231D01*
X0132822Y0017230D02*
X0135013Y0017230D01*
X0136011Y0018228D02*
X0131823Y0018228D01*
X0130817Y0019227D02*
X0137017Y0019227D01*
X0137017Y0020225D02*
X0130817Y0020225D01*
X0130817Y0021224D02*
X0137017Y0021224D01*
X0137017Y0022222D02*
X0130817Y0022222D01*
X0130817Y0023221D02*
X0137017Y0023221D01*
X0137017Y0024219D02*
X0130817Y0024219D01*
X0130817Y0025218D02*
X0137017Y0025218D01*
X0137017Y0026216D02*
X0130817Y0026216D01*
X0130817Y0027215D02*
X0137017Y0027215D01*
X0137017Y0028213D02*
X0130817Y0028213D01*
X0130817Y0029212D02*
X0137017Y0029212D01*
X0137017Y0030210D02*
X0130817Y0030210D01*
X0130817Y0031209D02*
X0137017Y0031209D01*
X0137017Y0032207D02*
X0130817Y0032207D01*
X0130817Y0033206D02*
X0137017Y0033206D01*
X0137017Y0034204D02*
X0130817Y0034204D01*
X0130817Y0035203D02*
X0137017Y0035203D01*
X0137017Y0036201D02*
X0130817Y0036201D01*
X0130817Y0037200D02*
X0137017Y0037200D01*
X0137017Y0038198D02*
X0130817Y0038198D01*
X0130817Y0039197D02*
X0137017Y0039197D01*
X0137017Y0040195D02*
X0130817Y0040195D01*
X0130817Y0041194D02*
X0137017Y0041194D01*
X0137017Y0042192D02*
X0130817Y0042192D01*
X0130035Y0043191D02*
X0137017Y0043191D01*
X0127017Y0039197D02*
X0120092Y0039197D01*
X0096011Y0018228D02*
X0035462Y0018228D01*
X0035380Y0017230D02*
X0095013Y0017230D01*
X0032200Y0008243D02*
X0253933Y0008243D01*
X0254614Y0007245D02*
X0031274Y0007245D01*
X0013081Y0033206D02*
X0007748Y0033206D01*
X0007748Y0034204D02*
X0016900Y0034204D01*
X0010643Y0032207D02*
X0007748Y0032207D01*
X0007748Y0031209D02*
X0009391Y0031209D01*
X0008139Y0030210D02*
X0007748Y0030210D01*
X0076014Y0099108D02*
X0278276Y0099108D01*
X0278276Y0100106D02*
X0076014Y0100106D01*
X0076014Y0101105D02*
X0278276Y0101105D01*
X0278276Y0102103D02*
X0076014Y0102103D01*
X0076014Y0103102D02*
X0278276Y0103102D01*
X0278276Y0104100D02*
X0076014Y0104100D01*
X0076014Y0105099D02*
X0278276Y0105099D01*
X0278276Y0106097D02*
X0076014Y0106097D01*
X0076014Y0107096D02*
X0278276Y0107096D01*
X0278276Y0108094D02*
X0076014Y0108094D01*
X0076014Y0109093D02*
X0278276Y0109093D01*
X0278276Y0110091D02*
X0076014Y0110091D01*
X0076014Y0111090D02*
X0278276Y0111090D01*
X0278276Y0112088D02*
X0076014Y0112088D01*
X0076014Y0113087D02*
X0278276Y0113087D01*
X0278276Y0114085D02*
X0076014Y0114085D01*
X0076014Y0115084D02*
X0278276Y0115084D01*
X0278276Y0116082D02*
X0076014Y0116082D01*
X0076014Y0117081D02*
X0278276Y0117081D01*
X0278276Y0118079D02*
X0076014Y0118079D01*
X0076014Y0119078D02*
X0278276Y0119078D01*
X0278276Y0120076D02*
X0270100Y0120076D01*
X0268261Y0119656D02*
X0268261Y0119656D01*
X0263223Y0120076D02*
X0076014Y0120076D01*
X0076014Y0121075D02*
X0260678Y0121075D01*
X0258461Y0122073D02*
X0076014Y0122073D01*
X0076014Y0123072D02*
X0257209Y0123072D01*
X0255957Y0124070D02*
X0076014Y0124070D01*
X0076014Y0125069D02*
X0254808Y0125069D01*
X0254128Y0126067D02*
X0076014Y0126067D01*
X0076014Y0127066D02*
X0253447Y0127066D01*
X0252766Y0128064D02*
X0076014Y0128064D01*
X0076014Y0129063D02*
X0252127Y0129063D01*
X0251819Y0130061D02*
X0076014Y0130061D01*
X0076014Y0131060D02*
X0251511Y0131060D01*
X0251203Y0132058D02*
X0076014Y0132058D01*
X0076014Y0133057D02*
X0250895Y0133057D01*
X0250712Y0134055D02*
X0076014Y0134055D01*
X0076014Y0135054D02*
X0250712Y0135054D01*
X0250712Y0136052D02*
X0076014Y0136052D01*
X0076014Y0137051D02*
X0250712Y0137051D01*
X0250712Y0138050D02*
X0076014Y0138050D01*
X0076014Y0139048D02*
X0250859Y0139048D01*
X0251167Y0140047D02*
X0076014Y0140047D01*
X0076014Y0141045D02*
X0251475Y0141045D01*
X0251783Y0142044D02*
X0076014Y0142044D01*
X0076014Y0143042D02*
X0252091Y0143042D01*
X0252162Y0143269D02*
X0252162Y0143269D01*
X0252687Y0144041D02*
X0076014Y0144041D01*
X0076014Y0145039D02*
X0253368Y0145039D01*
X0254049Y0146038D02*
X0076014Y0146038D01*
X0076014Y0147036D02*
X0254730Y0147036D01*
X0254932Y0147333D02*
X0254932Y0147333D01*
X0255812Y0148035D02*
X0076014Y0148035D01*
X0076014Y0149033D02*
X0257064Y0149033D01*
X0258316Y0150032D02*
X0076014Y0150032D01*
X0076014Y0151030D02*
X0260384Y0151030D01*
X0262928Y0152029D02*
X0076014Y0152029D01*
X0076014Y0153027D02*
X0278276Y0153027D01*
X0278276Y0152029D02*
X0270606Y0152029D01*
X0273817Y0151030D02*
X0278276Y0151030D01*
X0278276Y0150032D02*
X0275546Y0150032D01*
X0277276Y0149033D02*
X0278276Y0149033D01*
X0277315Y0149010D02*
X0277315Y0149010D01*
X0278221Y0148035D02*
X0278276Y0148035D01*
X0278276Y0154026D02*
X0076014Y0154026D01*
X0076014Y0155024D02*
X0278276Y0155024D01*
X0278276Y0156023D02*
X0076014Y0156023D01*
X0076014Y0157021D02*
X0098451Y0157021D01*
X0097932Y0158020D02*
X0076014Y0158020D01*
X0076014Y0159018D02*
X0097932Y0159018D01*
X0097932Y0160017D02*
X0076014Y0160017D01*
X0076014Y0161015D02*
X0097932Y0161015D01*
X0097932Y0162014D02*
X0076014Y0162014D01*
X0076014Y0163012D02*
X0097932Y0163012D01*
X0097932Y0164011D02*
X0076014Y0164011D01*
X0076014Y0165009D02*
X0097932Y0165009D01*
X0097932Y0166008D02*
X0076014Y0166008D01*
X0076014Y0167006D02*
X0097932Y0167006D01*
X0097932Y0168005D02*
X0076014Y0168005D01*
X0076014Y0169003D02*
X0098318Y0169003D01*
X0098694Y0171149D02*
X0109771Y0171149D01*
X0110532Y0171910D01*
X0110532Y0182987D01*
X0109771Y0183749D01*
X0107132Y0183749D01*
X0107132Y0191880D01*
X0115152Y0191880D01*
X0115521Y0191511D01*
X0134708Y0191511D01*
X0135469Y0192273D01*
X0135469Y0197287D01*
X0134708Y0198048D01*
X0115521Y0198048D01*
X0115152Y0197680D01*
X0103655Y0197680D01*
X0102590Y0197238D01*
X0101774Y0196422D01*
X0101332Y0195356D01*
X0101332Y0183749D01*
X0098694Y0183749D01*
X0097932Y0182987D01*
X0097932Y0171910D01*
X0098694Y0171149D01*
X0097932Y0171999D02*
X0076014Y0171999D01*
X0076014Y0172997D02*
X0097932Y0172997D01*
X0097932Y0173996D02*
X0076014Y0173996D01*
X0076014Y0174994D02*
X0097932Y0174994D01*
X0097932Y0175993D02*
X0076014Y0175993D01*
X0076014Y0176991D02*
X0097932Y0176991D01*
X0097932Y0177990D02*
X0076014Y0177990D01*
X0076014Y0178988D02*
X0097932Y0178988D01*
X0097932Y0179987D02*
X0076014Y0179987D01*
X0076014Y0180985D02*
X0097932Y0180985D01*
X0097932Y0181984D02*
X0076014Y0181984D01*
X0076014Y0182983D02*
X0097932Y0182983D01*
X0101332Y0183981D02*
X0076014Y0183981D01*
X0076014Y0184980D02*
X0101332Y0184980D01*
X0101332Y0185978D02*
X0076014Y0185978D01*
X0076014Y0186977D02*
X0101332Y0186977D01*
X0101332Y0187975D02*
X0076014Y0187975D01*
X0076014Y0188974D02*
X0101332Y0188974D01*
X0101332Y0189972D02*
X0076014Y0189972D01*
X0076014Y0190971D02*
X0101332Y0190971D01*
X0101332Y0191969D02*
X0076014Y0191969D01*
X0076014Y0192968D02*
X0101332Y0192968D01*
X0101332Y0193966D02*
X0094303Y0193966D01*
X0094715Y0194965D02*
X0101332Y0194965D01*
X0101584Y0195963D02*
X0094715Y0195963D01*
X0094715Y0196962D02*
X0102313Y0196962D01*
X0098694Y0198708D02*
X0097932Y0199469D01*
X0097932Y0210546D01*
X0098694Y0211308D01*
X0109771Y0211308D01*
X0110532Y0210546D01*
X0110532Y0207908D01*
X0126332Y0207908D01*
X0126332Y0215427D01*
X0126774Y0216493D01*
X0127590Y0217309D01*
X0128655Y0217750D01*
X0161305Y0217750D01*
X0162371Y0217309D01*
X0163187Y0216493D01*
X0163628Y0215427D01*
X0163628Y0194588D01*
X0163187Y0193523D01*
X0162371Y0192707D01*
X0161305Y0192265D01*
X0147880Y0192265D01*
X0147880Y0186329D01*
X0147439Y0185263D01*
X0146623Y0184447D01*
X0145557Y0184006D01*
X0135076Y0184006D01*
X0134708Y0183637D01*
X0115521Y0183637D01*
X0114759Y0184399D01*
X0114759Y0189412D01*
X0115521Y0190174D01*
X0134708Y0190174D01*
X0135076Y0189805D01*
X0142080Y0189805D01*
X0142080Y0195742D01*
X0142522Y0196808D01*
X0143338Y0197624D01*
X0144403Y0198065D01*
X0157828Y0198065D01*
X0157828Y0211950D01*
X0132132Y0211950D01*
X0132132Y0204431D01*
X0131691Y0203365D01*
X0130875Y0202549D01*
X0129809Y0202108D01*
X0110532Y0202108D01*
X0110532Y0199469D01*
X0109771Y0198708D01*
X0098694Y0198708D01*
X0098443Y0198959D02*
X0094715Y0198959D01*
X0094715Y0199957D02*
X0097932Y0199957D01*
X0097932Y0200956D02*
X0094715Y0200956D01*
X0094715Y0201954D02*
X0097932Y0201954D01*
X0097932Y0202953D02*
X0094715Y0202953D01*
X0094715Y0203951D02*
X0097932Y0203951D01*
X0097932Y0204950D02*
X0094715Y0204950D01*
X0094715Y0205948D02*
X0097932Y0205948D01*
X0097932Y0206947D02*
X0094715Y0206947D01*
X0094715Y0207945D02*
X0097932Y0207945D01*
X0097932Y0208944D02*
X0094715Y0208944D01*
X0094715Y0209942D02*
X0097932Y0209942D01*
X0098327Y0210941D02*
X0094715Y0210941D01*
X0094715Y0211939D02*
X0126332Y0211939D01*
X0126332Y0210941D02*
X0110138Y0210941D01*
X0110532Y0209942D02*
X0126332Y0209942D01*
X0126332Y0208944D02*
X0110532Y0208944D01*
X0110532Y0207945D02*
X0126332Y0207945D01*
X0126332Y0212938D02*
X0109653Y0212938D01*
X0110667Y0213936D02*
X0126332Y0213936D01*
X0126332Y0214935D02*
X0110732Y0214935D01*
X0110732Y0215933D02*
X0126542Y0215933D01*
X0127213Y0216932D02*
X0110732Y0216932D01*
X0110732Y0217930D02*
X0166702Y0217930D01*
X0166702Y0216932D02*
X0162748Y0216932D01*
X0163419Y0215933D02*
X0166702Y0215933D01*
X0166702Y0214935D02*
X0163628Y0214935D01*
X0163628Y0213936D02*
X0166702Y0213936D01*
X0166702Y0212938D02*
X0163628Y0212938D01*
X0163628Y0211939D02*
X0166702Y0211939D01*
X0166702Y0210941D02*
X0163628Y0210941D01*
X0163628Y0209942D02*
X0166702Y0209942D01*
X0166702Y0208944D02*
X0163628Y0208944D01*
X0163628Y0207945D02*
X0166702Y0207945D01*
X0166702Y0206947D02*
X0163628Y0206947D01*
X0163628Y0205948D02*
X0166702Y0205948D01*
X0166702Y0204950D02*
X0163628Y0204950D01*
X0163628Y0203951D02*
X0166702Y0203951D01*
X0166702Y0202953D02*
X0163628Y0202953D01*
X0163628Y0201954D02*
X0166702Y0201954D01*
X0166702Y0200956D02*
X0163628Y0200956D01*
X0163628Y0199957D02*
X0166702Y0199957D01*
X0166702Y0198959D02*
X0163628Y0198959D01*
X0163628Y0197960D02*
X0166702Y0197960D01*
X0166702Y0196962D02*
X0163628Y0196962D01*
X0163628Y0195963D02*
X0166702Y0195963D01*
X0166702Y0194965D02*
X0163628Y0194965D01*
X0163371Y0193966D02*
X0166702Y0193966D01*
X0166702Y0192968D02*
X0162632Y0192968D01*
X0157828Y0198959D02*
X0110022Y0198959D01*
X0110532Y0199957D02*
X0138177Y0199957D01*
X0138355Y0199779D02*
X0152818Y0199779D01*
X0153580Y0200540D01*
X0153580Y0207916D01*
X0152818Y0208678D01*
X0138355Y0208678D01*
X0137594Y0207916D01*
X0137594Y0200540D01*
X0138355Y0199779D01*
X0137594Y0200956D02*
X0110532Y0200956D01*
X0110532Y0201954D02*
X0137594Y0201954D01*
X0137594Y0202953D02*
X0131278Y0202953D01*
X0131934Y0203951D02*
X0137594Y0203951D01*
X0137594Y0204950D02*
X0132132Y0204950D01*
X0132132Y0205948D02*
X0137594Y0205948D01*
X0137594Y0206947D02*
X0132132Y0206947D01*
X0132132Y0207945D02*
X0137623Y0207945D01*
X0132132Y0208944D02*
X0157828Y0208944D01*
X0157828Y0209942D02*
X0132132Y0209942D01*
X0132132Y0210941D02*
X0157828Y0210941D01*
X0157828Y0211939D02*
X0132132Y0211939D01*
X0134796Y0197960D02*
X0144150Y0197960D01*
X0142675Y0196962D02*
X0135469Y0196962D01*
X0135469Y0195963D02*
X0142172Y0195963D01*
X0142080Y0194965D02*
X0135469Y0194965D01*
X0135469Y0193966D02*
X0142080Y0193966D01*
X0142080Y0192968D02*
X0135469Y0192968D01*
X0135166Y0191969D02*
X0142080Y0191969D01*
X0142080Y0190971D02*
X0107132Y0190971D01*
X0107132Y0189972D02*
X0115319Y0189972D01*
X0114759Y0188974D02*
X0107132Y0188974D01*
X0107132Y0187975D02*
X0114759Y0187975D01*
X0114759Y0186977D02*
X0107132Y0186977D01*
X0107132Y0185978D02*
X0114759Y0185978D01*
X0114759Y0184980D02*
X0107132Y0184980D01*
X0107132Y0183981D02*
X0115177Y0183981D01*
X0110532Y0182983D02*
X0166702Y0182983D01*
X0166702Y0183981D02*
X0135052Y0183981D01*
X0137594Y0181145D02*
X0137594Y0173769D01*
X0138355Y0173007D01*
X0152818Y0173007D01*
X0153580Y0173769D01*
X0153580Y0181145D01*
X0152818Y0181906D01*
X0138355Y0181906D01*
X0137594Y0181145D01*
X0137594Y0180985D02*
X0110532Y0180985D01*
X0110532Y0179987D02*
X0137594Y0179987D01*
X0137594Y0178988D02*
X0110532Y0178988D01*
X0110532Y0177990D02*
X0137594Y0177990D01*
X0137594Y0176991D02*
X0110532Y0176991D01*
X0110532Y0175993D02*
X0137594Y0175993D01*
X0137594Y0174994D02*
X0110532Y0174994D01*
X0110532Y0173996D02*
X0137594Y0173996D01*
X0147156Y0184980D02*
X0166702Y0184980D01*
X0166702Y0185978D02*
X0147735Y0185978D01*
X0147880Y0186977D02*
X0166702Y0186977D01*
X0166702Y0187975D02*
X0147880Y0187975D01*
X0147880Y0188974D02*
X0166702Y0188974D01*
X0166702Y0189972D02*
X0147880Y0189972D01*
X0147880Y0190971D02*
X0166702Y0190971D01*
X0166702Y0191969D02*
X0147880Y0191969D01*
X0142080Y0189972D02*
X0134910Y0189972D01*
X0152996Y0199957D02*
X0157828Y0199957D01*
X0157828Y0200956D02*
X0153580Y0200956D01*
X0153580Y0201954D02*
X0157828Y0201954D01*
X0157828Y0202953D02*
X0153580Y0202953D01*
X0153580Y0203951D02*
X0157828Y0203951D01*
X0157828Y0204950D02*
X0153580Y0204950D01*
X0153580Y0205948D02*
X0157828Y0205948D01*
X0157828Y0206947D02*
X0153580Y0206947D01*
X0153551Y0207945D02*
X0157828Y0207945D01*
X0157213Y0220824D02*
X0156100Y0221937D01*
X0156100Y0228972D01*
X0154462Y0228972D01*
X0153700Y0229733D01*
X0153700Y0243810D01*
X0154462Y0244572D01*
X0161538Y0244572D01*
X0162300Y0243810D01*
X0162300Y0229733D01*
X0161538Y0228972D01*
X0159900Y0228972D01*
X0159900Y0224624D01*
X0169389Y0224624D01*
X0170502Y0223511D01*
X0170502Y0178630D01*
X0169389Y0177517D01*
X0160462Y0177517D01*
X0159747Y0176803D01*
X0158613Y0176333D01*
X0157386Y0176333D01*
X0156253Y0176803D01*
X0155385Y0177670D01*
X0154916Y0178804D01*
X0154916Y0180031D01*
X0155385Y0181164D01*
X0156253Y0182032D01*
X0157386Y0182502D01*
X0158613Y0182502D01*
X0159747Y0182032D01*
X0160462Y0181317D01*
X0166702Y0181317D01*
X0166702Y0220824D01*
X0157213Y0220824D01*
X0157111Y0220926D02*
X0110732Y0220926D01*
X0110732Y0221924D02*
X0156113Y0221924D01*
X0156100Y0222923D02*
X0110732Y0222923D01*
X0110732Y0223921D02*
X0156100Y0223921D01*
X0156100Y0224920D02*
X0110640Y0224920D01*
X0110630Y0224957D02*
X0110433Y0225299D01*
X0110153Y0225578D01*
X0109811Y0225776D01*
X0109430Y0225878D01*
X0104732Y0225878D01*
X0104732Y0219878D01*
X0110732Y0219878D01*
X0110732Y0224575D01*
X0110630Y0224957D01*
X0110732Y0219927D02*
X0166702Y0219927D01*
X0166702Y0218929D02*
X0104732Y0218929D01*
X0104732Y0219927D02*
X0103732Y0219927D01*
X0103732Y0218929D02*
X0094715Y0218929D01*
X0094715Y0219927D02*
X0097732Y0219927D01*
X0097732Y0220926D02*
X0094715Y0220926D01*
X0094715Y0221924D02*
X0097732Y0221924D01*
X0097732Y0222923D02*
X0094715Y0222923D01*
X0094715Y0223921D02*
X0097732Y0223921D01*
X0097732Y0217930D02*
X0094715Y0217930D01*
X0094715Y0216932D02*
X0097732Y0216932D01*
X0097732Y0215933D02*
X0094715Y0215933D01*
X0094715Y0214935D02*
X0097732Y0214935D01*
X0097798Y0213936D02*
X0094715Y0213936D01*
X0094715Y0212938D02*
X0098811Y0212938D01*
X0103732Y0212938D02*
X0104732Y0212938D01*
X0104732Y0213936D02*
X0103732Y0213936D01*
X0103732Y0214935D02*
X0104732Y0214935D01*
X0104732Y0215933D02*
X0103732Y0215933D01*
X0103732Y0216932D02*
X0104732Y0216932D01*
X0104732Y0217930D02*
X0103732Y0217930D01*
X0103732Y0220926D02*
X0104732Y0220926D01*
X0104732Y0221924D02*
X0103732Y0221924D01*
X0103732Y0222923D02*
X0104732Y0222923D01*
X0104732Y0223921D02*
X0103732Y0223921D01*
X0103732Y0224920D02*
X0104732Y0224920D01*
X0112300Y0229913D02*
X0113700Y0229913D01*
X0113700Y0230911D02*
X0112300Y0230911D01*
X0112300Y0231910D02*
X0113700Y0231910D01*
X0113700Y0232908D02*
X0112300Y0232908D01*
X0112300Y0233907D02*
X0113700Y0233907D01*
X0113700Y0234905D02*
X0112300Y0234905D01*
X0113484Y0236772D02*
X0113484Y0283354D01*
X0110757Y0284831D02*
X0029370Y0284831D01*
X0029370Y0285829D02*
X0111597Y0285829D01*
X0110400Y0283832D02*
X0029370Y0283832D01*
X0029370Y0282834D02*
X0110400Y0282834D01*
X0110775Y0281835D02*
X0029370Y0281835D01*
X0029370Y0280837D02*
X0111640Y0280837D01*
X0111684Y0268854D02*
X0039759Y0268854D01*
X0029370Y0292819D02*
X0254685Y0292819D01*
X0254685Y0293817D02*
X0029370Y0293817D01*
X0029370Y0294816D02*
X0245830Y0294816D01*
X0248855Y0294816D02*
X0254685Y0294816D01*
X0254685Y0295814D02*
X0249971Y0295814D01*
X0250385Y0296813D02*
X0254685Y0296813D01*
X0254685Y0297811D02*
X0250427Y0297811D01*
X0250150Y0298810D02*
X0254685Y0298810D01*
X0254685Y0299808D02*
X0249424Y0299808D01*
X0254685Y0291820D02*
X0135364Y0291820D01*
X0136024Y0290822D02*
X0254685Y0290822D01*
X0254685Y0289823D02*
X0136254Y0289823D01*
X0136164Y0288825D02*
X0145959Y0288825D01*
X0145209Y0287826D02*
X0135704Y0287826D01*
X0134969Y0286828D02*
X0144916Y0286828D01*
X0144941Y0285829D02*
X0134969Y0285829D01*
X0134969Y0284831D02*
X0145355Y0284831D01*
X0148000Y0286504D02*
X0148000Y0250283D01*
X0148000Y0256772D01*
X0148000Y0253772D02*
X0148000Y0250283D01*
X0144812Y0245889D02*
X0154395Y0245889D01*
X0154421Y0245874D02*
X0154803Y0245772D01*
X0157500Y0245772D01*
X0157500Y0253272D01*
X0153500Y0253272D01*
X0153500Y0247074D01*
X0153602Y0246693D01*
X0153800Y0246351D01*
X0154079Y0246071D01*
X0154421Y0245874D01*
X0153550Y0246887D02*
X0152300Y0246887D01*
X0152300Y0247886D02*
X0153500Y0247886D01*
X0153500Y0248884D02*
X0152300Y0248884D01*
X0152300Y0249883D02*
X0153500Y0249883D01*
X0153500Y0250881D02*
X0152300Y0250881D01*
X0152300Y0251880D02*
X0153500Y0251880D01*
X0153500Y0252878D02*
X0152300Y0252878D01*
X0152300Y0253877D02*
X0157500Y0253877D01*
X0157500Y0254272D02*
X0157500Y0253272D01*
X0158500Y0253272D01*
X0158500Y0254272D01*
X0157500Y0254272D01*
X0157500Y0261772D01*
X0154803Y0261772D01*
X0154421Y0261669D01*
X0154079Y0261472D01*
X0153800Y0261193D01*
X0153602Y0260851D01*
X0153500Y0260469D01*
X0153500Y0254272D01*
X0157500Y0254272D01*
X0157500Y0254875D02*
X0158500Y0254875D01*
X0158500Y0254272D02*
X0158500Y0261772D01*
X0161197Y0261772D01*
X0161579Y0261669D01*
X0161921Y0261472D01*
X0162200Y0261193D01*
X0162398Y0260851D01*
X0162500Y0260469D01*
X0162500Y0254272D01*
X0158500Y0254272D01*
X0158500Y0253877D02*
X0163700Y0253877D01*
X0163700Y0254875D02*
X0162500Y0254875D01*
X0162500Y0255874D02*
X0163700Y0255874D01*
X0163700Y0256872D02*
X0162500Y0256872D01*
X0162500Y0257871D02*
X0163700Y0257871D01*
X0163700Y0258869D02*
X0162500Y0258869D01*
X0162500Y0259868D02*
X0163700Y0259868D01*
X0163700Y0260810D02*
X0163700Y0246733D01*
X0164462Y0245972D01*
X0171538Y0245972D01*
X0172300Y0246733D01*
X0172300Y0260810D01*
X0171538Y0261572D01*
X0164462Y0261572D01*
X0163700Y0260810D01*
X0163756Y0260866D02*
X0162389Y0260866D01*
X0158500Y0260866D02*
X0157500Y0260866D01*
X0157500Y0259868D02*
X0158500Y0259868D01*
X0158500Y0258869D02*
X0157500Y0258869D01*
X0157500Y0257871D02*
X0158500Y0257871D01*
X0158500Y0256872D02*
X0157500Y0256872D01*
X0157500Y0255874D02*
X0158500Y0255874D01*
X0158500Y0253272D02*
X0162500Y0253272D01*
X0162500Y0247074D01*
X0162398Y0246693D01*
X0162200Y0246351D01*
X0161921Y0246071D01*
X0161579Y0245874D01*
X0161197Y0245772D01*
X0158500Y0245772D01*
X0158500Y0253272D01*
X0158500Y0252878D02*
X0157500Y0252878D01*
X0157500Y0251880D02*
X0158500Y0251880D01*
X0158500Y0250881D02*
X0157500Y0250881D01*
X0157500Y0249883D02*
X0158500Y0249883D01*
X0158500Y0248884D02*
X0157500Y0248884D01*
X0157500Y0247886D02*
X0158500Y0247886D01*
X0158500Y0246887D02*
X0157500Y0246887D01*
X0157500Y0245889D02*
X0158500Y0245889D01*
X0161605Y0245889D02*
X0221230Y0245889D01*
X0221230Y0244890D02*
X0144812Y0244890D01*
X0152218Y0243892D02*
X0153782Y0243892D01*
X0153700Y0242893D02*
X0152300Y0242893D01*
X0152300Y0241895D02*
X0153700Y0241895D01*
X0153700Y0240896D02*
X0152300Y0240896D01*
X0152300Y0239898D02*
X0153700Y0239898D01*
X0153700Y0238899D02*
X0152300Y0238899D01*
X0152300Y0237901D02*
X0153700Y0237901D01*
X0153700Y0236902D02*
X0152300Y0236902D01*
X0152300Y0235904D02*
X0153700Y0235904D01*
X0153700Y0234905D02*
X0152300Y0234905D01*
X0152300Y0233907D02*
X0153700Y0233907D01*
X0153700Y0232908D02*
X0152300Y0232908D01*
X0152300Y0231910D02*
X0153700Y0231910D01*
X0153700Y0230911D02*
X0152300Y0230911D01*
X0152300Y0229913D02*
X0153700Y0229913D01*
X0159900Y0228914D02*
X0174351Y0228914D01*
X0174421Y0228874D02*
X0174803Y0228772D01*
X0177500Y0228772D01*
X0177500Y0236272D01*
X0173500Y0236272D01*
X0173500Y0230074D01*
X0173602Y0229693D01*
X0173800Y0229351D01*
X0174079Y0229071D01*
X0174421Y0228874D01*
X0173543Y0229913D02*
X0172300Y0229913D01*
X0172300Y0229733D02*
X0171538Y0228972D01*
X0164462Y0228972D01*
X0163700Y0229733D01*
X0163700Y0243810D01*
X0164462Y0244572D01*
X0171538Y0244572D01*
X0172300Y0243810D01*
X0172300Y0229733D01*
X0172300Y0230911D02*
X0173500Y0230911D01*
X0173500Y0231910D02*
X0172300Y0231910D01*
X0172300Y0232908D02*
X0173500Y0232908D01*
X0173500Y0233907D02*
X0172300Y0233907D01*
X0172300Y0234905D02*
X0173500Y0234905D01*
X0173500Y0235904D02*
X0172300Y0235904D01*
X0172300Y0236902D02*
X0177500Y0236902D01*
X0177500Y0237272D02*
X0177500Y0236272D01*
X0178500Y0236272D01*
X0178500Y0237272D01*
X0177500Y0237272D01*
X0177500Y0244772D01*
X0174803Y0244772D01*
X0174421Y0244669D01*
X0174079Y0244472D01*
X0173800Y0244193D01*
X0173602Y0243851D01*
X0173500Y0243469D01*
X0173500Y0237272D01*
X0177500Y0237272D01*
X0177500Y0237901D02*
X0178500Y0237901D01*
X0178500Y0237272D02*
X0178500Y0244772D01*
X0181197Y0244772D01*
X0181579Y0244669D01*
X0181921Y0244472D01*
X0182200Y0244193D01*
X0182398Y0243851D01*
X0182500Y0243469D01*
X0182500Y0237272D01*
X0178500Y0237272D01*
X0178500Y0236902D02*
X0183700Y0236902D01*
X0183700Y0235904D02*
X0182500Y0235904D01*
X0182500Y0236272D02*
X0178500Y0236272D01*
X0178500Y0228772D01*
X0181197Y0228772D01*
X0181579Y0228874D01*
X0181921Y0229071D01*
X0182200Y0229351D01*
X0182398Y0229693D01*
X0182500Y0230074D01*
X0182500Y0236272D01*
X0182500Y0234905D02*
X0183700Y0234905D01*
X0183700Y0233907D02*
X0182500Y0233907D01*
X0182500Y0232908D02*
X0183700Y0232908D01*
X0183700Y0231910D02*
X0182500Y0231910D01*
X0182500Y0230911D02*
X0183700Y0230911D01*
X0183700Y0229913D02*
X0182457Y0229913D01*
X0183700Y0229733D02*
X0184462Y0228972D01*
X0186100Y0228972D01*
X0186100Y0174005D01*
X0185385Y0173290D01*
X0184916Y0172157D01*
X0184916Y0170930D01*
X0185385Y0169796D01*
X0186253Y0168929D01*
X0187386Y0168459D01*
X0188613Y0168459D01*
X0189747Y0168929D01*
X0190615Y0169796D01*
X0191084Y0170930D01*
X0191084Y0172157D01*
X0190615Y0173290D01*
X0189900Y0174005D01*
X0189900Y0228972D01*
X0191538Y0228972D01*
X0192300Y0229733D01*
X0192300Y0243810D01*
X0191538Y0244572D01*
X0184462Y0244572D01*
X0183700Y0243810D01*
X0183700Y0229733D01*
X0181649Y0228914D02*
X0186100Y0228914D01*
X0186100Y0227916D02*
X0159900Y0227916D01*
X0159900Y0226917D02*
X0186100Y0226917D01*
X0186100Y0225919D02*
X0159900Y0225919D01*
X0159900Y0224920D02*
X0186100Y0224920D01*
X0186100Y0223921D02*
X0170092Y0223921D01*
X0170502Y0222923D02*
X0186100Y0222923D01*
X0186100Y0221924D02*
X0170502Y0221924D01*
X0170502Y0220926D02*
X0186100Y0220926D01*
X0186100Y0219927D02*
X0170502Y0219927D01*
X0170502Y0218929D02*
X0186100Y0218929D01*
X0186100Y0217930D02*
X0170502Y0217930D01*
X0170502Y0216932D02*
X0186100Y0216932D01*
X0186100Y0215933D02*
X0170502Y0215933D01*
X0170502Y0214935D02*
X0186100Y0214935D01*
X0186100Y0213936D02*
X0170502Y0213936D01*
X0170502Y0212938D02*
X0186100Y0212938D01*
X0186100Y0211939D02*
X0170502Y0211939D01*
X0170502Y0210941D02*
X0186100Y0210941D01*
X0186100Y0209942D02*
X0170502Y0209942D01*
X0170502Y0208944D02*
X0186100Y0208944D01*
X0186100Y0207945D02*
X0170502Y0207945D01*
X0170502Y0206947D02*
X0186100Y0206947D01*
X0186100Y0205948D02*
X0170502Y0205948D01*
X0170502Y0204950D02*
X0186100Y0204950D01*
X0186100Y0203951D02*
X0170502Y0203951D01*
X0170502Y0202953D02*
X0186100Y0202953D01*
X0186100Y0201954D02*
X0170502Y0201954D01*
X0170502Y0200956D02*
X0186100Y0200956D01*
X0186100Y0199957D02*
X0170502Y0199957D01*
X0170502Y0198959D02*
X0186100Y0198959D01*
X0186100Y0197960D02*
X0170502Y0197960D01*
X0170502Y0196962D02*
X0186100Y0196962D01*
X0186100Y0195963D02*
X0170502Y0195963D01*
X0170502Y0194965D02*
X0186100Y0194965D01*
X0186100Y0193966D02*
X0170502Y0193966D01*
X0170502Y0192968D02*
X0186100Y0192968D01*
X0186100Y0191969D02*
X0170502Y0191969D01*
X0170502Y0190971D02*
X0186100Y0190971D01*
X0186100Y0189972D02*
X0170502Y0189972D01*
X0170502Y0188974D02*
X0186100Y0188974D01*
X0186100Y0187975D02*
X0170502Y0187975D01*
X0170502Y0186977D02*
X0186100Y0186977D01*
X0186100Y0185978D02*
X0170502Y0185978D01*
X0170502Y0184980D02*
X0186100Y0184980D01*
X0186100Y0183981D02*
X0170502Y0183981D01*
X0170502Y0182983D02*
X0186100Y0182983D01*
X0186100Y0181984D02*
X0170502Y0181984D01*
X0170502Y0180985D02*
X0186100Y0180985D01*
X0186100Y0179987D02*
X0170502Y0179987D01*
X0170502Y0178988D02*
X0186100Y0178988D01*
X0186100Y0177990D02*
X0169862Y0177990D01*
X0166702Y0181984D02*
X0159795Y0181984D01*
X0156205Y0181984D02*
X0110532Y0181984D01*
X0110532Y0172997D02*
X0185264Y0172997D01*
X0184916Y0171999D02*
X0110532Y0171999D01*
X0110146Y0169003D02*
X0186178Y0169003D01*
X0185300Y0170002D02*
X0076014Y0170002D01*
X0076014Y0171000D02*
X0184916Y0171000D01*
X0186091Y0173996D02*
X0153580Y0173996D01*
X0153580Y0174994D02*
X0186100Y0174994D01*
X0186100Y0175993D02*
X0153580Y0175993D01*
X0153580Y0176991D02*
X0156064Y0176991D01*
X0155253Y0177990D02*
X0153580Y0177990D01*
X0153580Y0178988D02*
X0154916Y0178988D01*
X0154916Y0179987D02*
X0153580Y0179987D01*
X0153580Y0180985D02*
X0155311Y0180985D01*
X0159936Y0176991D02*
X0186100Y0176991D01*
X0189900Y0176991D02*
X0216100Y0176991D01*
X0216100Y0175993D02*
X0189900Y0175993D01*
X0189900Y0174994D02*
X0216100Y0174994D01*
X0216091Y0173996D02*
X0189909Y0173996D01*
X0190736Y0172997D02*
X0215264Y0172997D01*
X0214916Y0171999D02*
X0191084Y0171999D01*
X0191084Y0171000D02*
X0214916Y0171000D01*
X0215300Y0170002D02*
X0190700Y0170002D01*
X0189822Y0169003D02*
X0216178Y0169003D01*
X0219822Y0169003D02*
X0254685Y0169003D01*
X0254685Y0168005D02*
X0110532Y0168005D01*
X0110532Y0167006D02*
X0254685Y0167006D01*
X0254685Y0166008D02*
X0110532Y0166008D01*
X0110532Y0160017D02*
X0278276Y0160017D01*
X0278276Y0161015D02*
X0258657Y0161015D01*
X0259450Y0162014D02*
X0278276Y0162014D01*
X0278276Y0163012D02*
X0259685Y0163012D01*
X0259685Y0164011D02*
X0278276Y0164011D01*
X0278276Y0165009D02*
X0259685Y0165009D01*
X0259685Y0166008D02*
X0278276Y0166008D01*
X0278276Y0167006D02*
X0259685Y0167006D01*
X0259685Y0168005D02*
X0278276Y0168005D01*
X0278276Y0169003D02*
X0259685Y0169003D01*
X0259685Y0170002D02*
X0278276Y0170002D01*
X0278276Y0171000D02*
X0259685Y0171000D01*
X0259685Y0171999D02*
X0278276Y0171999D01*
X0278276Y0172997D02*
X0259685Y0172997D01*
X0259685Y0173996D02*
X0278276Y0173996D01*
X0278276Y0174994D02*
X0259685Y0174994D01*
X0259685Y0175993D02*
X0278276Y0175993D01*
X0278276Y0176991D02*
X0259685Y0176991D01*
X0259685Y0177990D02*
X0278276Y0177990D01*
X0278276Y0178988D02*
X0259685Y0178988D01*
X0259685Y0179987D02*
X0278276Y0179987D01*
X0278276Y0180985D02*
X0259685Y0180985D01*
X0259685Y0181984D02*
X0278276Y0181984D01*
X0278276Y0182983D02*
X0259685Y0182983D01*
X0259685Y0183981D02*
X0278276Y0183981D01*
X0278276Y0184980D02*
X0259685Y0184980D01*
X0259685Y0185978D02*
X0278276Y0185978D01*
X0278276Y0186977D02*
X0259685Y0186977D01*
X0259685Y0187975D02*
X0278276Y0187975D01*
X0278276Y0188974D02*
X0259685Y0188974D01*
X0259685Y0189972D02*
X0278276Y0189972D01*
X0278276Y0190971D02*
X0259685Y0190971D01*
X0259685Y0191969D02*
X0278276Y0191969D01*
X0278276Y0192968D02*
X0259685Y0192968D01*
X0259685Y0193966D02*
X0278276Y0193966D01*
X0278276Y0194965D02*
X0259685Y0194965D01*
X0259685Y0195963D02*
X0278276Y0195963D01*
X0278276Y0196962D02*
X0259685Y0196962D01*
X0259685Y0197960D02*
X0278276Y0197960D01*
X0278276Y0198959D02*
X0259685Y0198959D01*
X0259685Y0199957D02*
X0278276Y0199957D01*
X0278276Y0200956D02*
X0259685Y0200956D01*
X0259685Y0201954D02*
X0278276Y0201954D01*
X0278276Y0202953D02*
X0259685Y0202953D01*
X0259685Y0203951D02*
X0278276Y0203951D01*
X0278276Y0204950D02*
X0259685Y0204950D01*
X0259685Y0205948D02*
X0278276Y0205948D01*
X0278276Y0206947D02*
X0259685Y0206947D01*
X0259685Y0207945D02*
X0278276Y0207945D01*
X0278276Y0208944D02*
X0259685Y0208944D01*
X0259685Y0209942D02*
X0278276Y0209942D01*
X0278276Y0210941D02*
X0259685Y0210941D01*
X0259685Y0211939D02*
X0278276Y0211939D01*
X0278276Y0212938D02*
X0259685Y0212938D01*
X0259685Y0213936D02*
X0278276Y0213936D01*
X0278276Y0214935D02*
X0259685Y0214935D01*
X0259685Y0215933D02*
X0278276Y0215933D01*
X0278276Y0216932D02*
X0259685Y0216932D01*
X0259685Y0217930D02*
X0278276Y0217930D01*
X0278276Y0218929D02*
X0259685Y0218929D01*
X0259685Y0219927D02*
X0278276Y0219927D01*
X0278276Y0220926D02*
X0259685Y0220926D01*
X0259685Y0221924D02*
X0278276Y0221924D01*
X0278276Y0222923D02*
X0259685Y0222923D01*
X0259685Y0223921D02*
X0278276Y0223921D01*
X0278276Y0224920D02*
X0259685Y0224920D01*
X0259685Y0225919D02*
X0278276Y0225919D01*
X0278276Y0226917D02*
X0259685Y0226917D01*
X0259685Y0227916D02*
X0278276Y0227916D01*
X0278276Y0228914D02*
X0259685Y0228914D01*
X0259685Y0229913D02*
X0278276Y0229913D01*
X0278276Y0230911D02*
X0259685Y0230911D01*
X0259685Y0231910D02*
X0278276Y0231910D01*
X0278276Y0232908D02*
X0259685Y0232908D01*
X0259685Y0233907D02*
X0278276Y0233907D01*
X0278276Y0234905D02*
X0259685Y0234905D01*
X0259685Y0235904D02*
X0278276Y0235904D01*
X0278276Y0236902D02*
X0259685Y0236902D01*
X0259685Y0237901D02*
X0278276Y0237901D01*
X0278276Y0238899D02*
X0259685Y0238899D01*
X0259685Y0239898D02*
X0278276Y0239898D01*
X0278276Y0240896D02*
X0259685Y0240896D01*
X0259685Y0241895D02*
X0278276Y0241895D01*
X0278276Y0242893D02*
X0259685Y0242893D01*
X0259685Y0243892D02*
X0278276Y0243892D01*
X0278276Y0244890D02*
X0259685Y0244890D01*
X0259685Y0245889D02*
X0278276Y0245889D01*
X0278276Y0246887D02*
X0259685Y0246887D01*
X0259685Y0247886D02*
X0278276Y0247886D01*
X0278276Y0248884D02*
X0259685Y0248884D01*
X0259685Y0249883D02*
X0278276Y0249883D01*
X0278276Y0250881D02*
X0259685Y0250881D01*
X0259685Y0251880D02*
X0278276Y0251880D01*
X0278276Y0252878D02*
X0259685Y0252878D01*
X0254685Y0242893D02*
X0232300Y0242893D01*
X0232300Y0241895D02*
X0254685Y0241895D01*
X0254685Y0240896D02*
X0232300Y0240896D01*
X0232300Y0239898D02*
X0254685Y0239898D01*
X0254685Y0238899D02*
X0232300Y0238899D01*
X0232300Y0237901D02*
X0254685Y0237901D01*
X0254685Y0236902D02*
X0232300Y0236902D01*
X0232300Y0235904D02*
X0254685Y0235904D01*
X0254685Y0234905D02*
X0232300Y0234905D01*
X0232300Y0233907D02*
X0254685Y0233907D01*
X0254685Y0232908D02*
X0232300Y0232908D01*
X0232300Y0231910D02*
X0254685Y0231910D01*
X0254685Y0230911D02*
X0232300Y0230911D01*
X0232300Y0229913D02*
X0254685Y0229913D01*
X0254685Y0228914D02*
X0225030Y0228914D01*
X0225030Y0227916D02*
X0254685Y0227916D01*
X0254685Y0226917D02*
X0225030Y0226917D01*
X0225030Y0225919D02*
X0254685Y0225919D01*
X0254685Y0224920D02*
X0225030Y0224920D01*
X0225030Y0223921D02*
X0254685Y0223921D01*
X0254685Y0222923D02*
X0225030Y0222923D01*
X0225030Y0221924D02*
X0254685Y0221924D01*
X0254685Y0220926D02*
X0225030Y0220926D01*
X0225030Y0219927D02*
X0254685Y0219927D01*
X0254685Y0218929D02*
X0225030Y0218929D01*
X0225030Y0217930D02*
X0254685Y0217930D01*
X0254685Y0216932D02*
X0225030Y0216932D01*
X0225030Y0215933D02*
X0254685Y0215933D01*
X0254685Y0214935D02*
X0225030Y0214935D01*
X0225030Y0213936D02*
X0254685Y0213936D01*
X0254685Y0212938D02*
X0225030Y0212938D01*
X0225030Y0211939D02*
X0254685Y0211939D01*
X0254685Y0210941D02*
X0225030Y0210941D01*
X0225030Y0209942D02*
X0254685Y0209942D01*
X0254685Y0208944D02*
X0225030Y0208944D01*
X0225030Y0207945D02*
X0254685Y0207945D01*
X0254685Y0206947D02*
X0225030Y0206947D01*
X0225030Y0205948D02*
X0254685Y0205948D01*
X0254685Y0204950D02*
X0225030Y0204950D01*
X0225030Y0203951D02*
X0254685Y0203951D01*
X0254685Y0202953D02*
X0225030Y0202953D01*
X0225030Y0201954D02*
X0254685Y0201954D01*
X0254685Y0200956D02*
X0225030Y0200956D01*
X0225030Y0199957D02*
X0254685Y0199957D01*
X0254685Y0198959D02*
X0225030Y0198959D01*
X0225030Y0197960D02*
X0254685Y0197960D01*
X0254685Y0196962D02*
X0225030Y0196962D01*
X0225030Y0195963D02*
X0254685Y0195963D01*
X0254685Y0194965D02*
X0225030Y0194965D01*
X0225030Y0193966D02*
X0254685Y0193966D01*
X0254685Y0192968D02*
X0225030Y0192968D01*
X0225030Y0191969D02*
X0254685Y0191969D01*
X0254685Y0190971D02*
X0225030Y0190971D01*
X0225030Y0189972D02*
X0254685Y0189972D01*
X0254685Y0188974D02*
X0225771Y0188974D01*
X0226185Y0187975D02*
X0254685Y0187975D01*
X0254685Y0186977D02*
X0226214Y0186977D01*
X0225924Y0185978D02*
X0254685Y0185978D01*
X0254685Y0184980D02*
X0225180Y0184980D01*
X0221080Y0184980D02*
X0219900Y0184980D01*
X0219900Y0185978D02*
X0220336Y0185978D01*
X0220046Y0186977D02*
X0219900Y0186977D01*
X0219900Y0187975D02*
X0220075Y0187975D01*
X0219900Y0188974D02*
X0220488Y0188974D01*
X0219900Y0189972D02*
X0221230Y0189972D01*
X0221230Y0190971D02*
X0219900Y0190971D01*
X0219900Y0191969D02*
X0221230Y0191969D01*
X0221230Y0192968D02*
X0219900Y0192968D01*
X0219900Y0193966D02*
X0221230Y0193966D01*
X0221230Y0194965D02*
X0219900Y0194965D01*
X0219900Y0195963D02*
X0221230Y0195963D01*
X0221230Y0196962D02*
X0219900Y0196962D01*
X0219900Y0197960D02*
X0221230Y0197960D01*
X0221230Y0198959D02*
X0219900Y0198959D01*
X0219900Y0199957D02*
X0221230Y0199957D01*
X0221230Y0200956D02*
X0219900Y0200956D01*
X0219900Y0201954D02*
X0221230Y0201954D01*
X0221230Y0202953D02*
X0219900Y0202953D01*
X0219900Y0203951D02*
X0221230Y0203951D01*
X0221230Y0204950D02*
X0219900Y0204950D01*
X0219900Y0205948D02*
X0221230Y0205948D01*
X0221230Y0206947D02*
X0219900Y0206947D01*
X0219900Y0207945D02*
X0221230Y0207945D01*
X0221230Y0208944D02*
X0219900Y0208944D01*
X0219900Y0209942D02*
X0221230Y0209942D01*
X0221230Y0210941D02*
X0219900Y0210941D01*
X0219900Y0211939D02*
X0221230Y0211939D01*
X0221230Y0212938D02*
X0219900Y0212938D01*
X0219900Y0213936D02*
X0221230Y0213936D01*
X0221230Y0214935D02*
X0219900Y0214935D01*
X0219900Y0215933D02*
X0221230Y0215933D01*
X0221230Y0216932D02*
X0219900Y0216932D01*
X0219900Y0217930D02*
X0221230Y0217930D01*
X0221230Y0218929D02*
X0219900Y0218929D01*
X0219900Y0219927D02*
X0221230Y0219927D01*
X0221230Y0220926D02*
X0219900Y0220926D01*
X0219900Y0221924D02*
X0221230Y0221924D01*
X0221230Y0222923D02*
X0219900Y0222923D01*
X0219900Y0223921D02*
X0221230Y0223921D01*
X0221230Y0224920D02*
X0219900Y0224920D01*
X0219900Y0225919D02*
X0221230Y0225919D01*
X0221230Y0226917D02*
X0219900Y0226917D01*
X0219900Y0227916D02*
X0221230Y0227916D01*
X0221230Y0228914D02*
X0219900Y0228914D01*
X0216100Y0228914D02*
X0209900Y0228914D01*
X0209900Y0228972D02*
X0211538Y0228972D01*
X0212300Y0229733D01*
X0212300Y0243810D01*
X0211538Y0244572D01*
X0204462Y0244572D01*
X0203700Y0243810D01*
X0203700Y0229733D01*
X0204462Y0228972D01*
X0206100Y0228972D01*
X0206100Y0185844D01*
X0205358Y0185101D01*
X0204888Y0183968D01*
X0204888Y0182741D01*
X0205358Y0181607D01*
X0206225Y0180740D01*
X0207359Y0180270D01*
X0208586Y0180270D01*
X0209720Y0180740D01*
X0210587Y0181607D01*
X0211057Y0182741D01*
X0211057Y0183968D01*
X0210587Y0185101D01*
X0209900Y0185789D01*
X0209900Y0228972D01*
X0209900Y0227916D02*
X0216100Y0227916D01*
X0216100Y0226917D02*
X0209900Y0226917D01*
X0209900Y0225919D02*
X0216100Y0225919D01*
X0216100Y0224920D02*
X0209900Y0224920D01*
X0209900Y0223921D02*
X0216100Y0223921D01*
X0216100Y0222923D02*
X0209900Y0222923D01*
X0209900Y0221924D02*
X0216100Y0221924D01*
X0216100Y0220926D02*
X0209900Y0220926D01*
X0209900Y0219927D02*
X0216100Y0219927D01*
X0216100Y0218929D02*
X0209900Y0218929D01*
X0209900Y0217930D02*
X0216100Y0217930D01*
X0216100Y0216932D02*
X0209900Y0216932D01*
X0209900Y0215933D02*
X0216100Y0215933D01*
X0216100Y0214935D02*
X0209900Y0214935D01*
X0209900Y0213936D02*
X0216100Y0213936D01*
X0216100Y0212938D02*
X0209900Y0212938D01*
X0209900Y0211939D02*
X0216100Y0211939D01*
X0216100Y0210941D02*
X0209900Y0210941D01*
X0209900Y0209942D02*
X0216100Y0209942D01*
X0216100Y0208944D02*
X0209900Y0208944D01*
X0209900Y0207945D02*
X0216100Y0207945D01*
X0216100Y0206947D02*
X0209900Y0206947D01*
X0209900Y0205948D02*
X0216100Y0205948D01*
X0216100Y0204950D02*
X0209900Y0204950D01*
X0209900Y0203951D02*
X0216100Y0203951D01*
X0216100Y0202953D02*
X0209900Y0202953D01*
X0209900Y0201954D02*
X0216100Y0201954D01*
X0216100Y0200956D02*
X0209900Y0200956D01*
X0209900Y0199957D02*
X0216100Y0199957D01*
X0216100Y0198959D02*
X0209900Y0198959D01*
X0209900Y0197960D02*
X0216100Y0197960D01*
X0216100Y0196962D02*
X0209900Y0196962D01*
X0209900Y0195963D02*
X0216100Y0195963D01*
X0216100Y0194965D02*
X0209900Y0194965D01*
X0209900Y0193966D02*
X0216100Y0193966D01*
X0216100Y0192968D02*
X0209900Y0192968D01*
X0209900Y0191969D02*
X0216100Y0191969D01*
X0216100Y0190971D02*
X0209900Y0190971D01*
X0209900Y0189972D02*
X0216100Y0189972D01*
X0216100Y0188974D02*
X0209900Y0188974D01*
X0209900Y0187975D02*
X0216100Y0187975D01*
X0216100Y0186977D02*
X0209900Y0186977D01*
X0209900Y0185978D02*
X0216100Y0185978D01*
X0216100Y0184980D02*
X0210638Y0184980D01*
X0211051Y0183981D02*
X0216100Y0183981D01*
X0216100Y0182983D02*
X0211057Y0182983D01*
X0210743Y0181984D02*
X0216100Y0181984D01*
X0216100Y0180985D02*
X0209965Y0180985D01*
X0205979Y0180985D02*
X0189900Y0180985D01*
X0189900Y0179987D02*
X0216100Y0179987D01*
X0216100Y0178988D02*
X0189900Y0178988D01*
X0189900Y0177990D02*
X0216100Y0177990D01*
X0219900Y0177990D02*
X0254685Y0177990D01*
X0254685Y0178988D02*
X0219900Y0178988D01*
X0219900Y0179987D02*
X0254685Y0179987D01*
X0254685Y0180985D02*
X0219900Y0180985D01*
X0219900Y0181984D02*
X0254685Y0181984D01*
X0254685Y0182983D02*
X0219900Y0182983D01*
X0219900Y0183981D02*
X0254685Y0183981D01*
X0254685Y0176991D02*
X0219900Y0176991D01*
X0219900Y0175993D02*
X0254685Y0175993D01*
X0254685Y0174994D02*
X0219900Y0174994D01*
X0219909Y0173996D02*
X0254685Y0173996D01*
X0254685Y0172997D02*
X0220736Y0172997D01*
X0221084Y0171999D02*
X0254685Y0171999D01*
X0254685Y0171000D02*
X0221084Y0171000D01*
X0220700Y0170002D02*
X0254685Y0170002D01*
X0263356Y0152197D02*
X0263356Y0152197D01*
X0278276Y0157021D02*
X0110013Y0157021D01*
X0110532Y0158020D02*
X0278276Y0158020D01*
X0278276Y0159018D02*
X0110532Y0159018D01*
X0115433Y0197960D02*
X0094715Y0197960D01*
X0090915Y0197960D02*
X0089545Y0197960D01*
X0089900Y0198959D02*
X0090915Y0198959D01*
X0090915Y0199957D02*
X0089900Y0199957D01*
X0089900Y0200956D02*
X0090915Y0200956D01*
X0090915Y0201954D02*
X0089900Y0201954D01*
X0089900Y0202953D02*
X0090915Y0202953D01*
X0090915Y0203951D02*
X0089900Y0203951D01*
X0089900Y0204950D02*
X0090915Y0204950D01*
X0090915Y0205948D02*
X0089900Y0205948D01*
X0089900Y0206947D02*
X0090915Y0206947D01*
X0090915Y0207945D02*
X0089900Y0207945D01*
X0089900Y0208944D02*
X0090915Y0208944D01*
X0090915Y0209942D02*
X0089900Y0209942D01*
X0089900Y0210941D02*
X0090915Y0210941D01*
X0090915Y0211939D02*
X0089900Y0211939D01*
X0089900Y0212938D02*
X0090915Y0212938D01*
X0090915Y0213936D02*
X0089900Y0213936D01*
X0089900Y0214935D02*
X0090915Y0214935D01*
X0090915Y0215933D02*
X0089900Y0215933D01*
X0089900Y0216932D02*
X0090915Y0216932D01*
X0090915Y0217930D02*
X0089900Y0217930D01*
X0089900Y0218929D02*
X0090915Y0218929D01*
X0090915Y0219927D02*
X0089900Y0219927D01*
X0089900Y0220926D02*
X0090915Y0220926D01*
X0090915Y0221924D02*
X0089900Y0221924D01*
X0089900Y0222923D02*
X0090915Y0222923D01*
X0090915Y0223921D02*
X0089900Y0223921D01*
X0089900Y0224920D02*
X0090915Y0224920D01*
X0090915Y0225919D02*
X0089900Y0225919D01*
X0089900Y0226917D02*
X0090915Y0226917D01*
X0090915Y0227916D02*
X0089900Y0227916D01*
X0089900Y0228914D02*
X0090915Y0228914D01*
X0074395Y0245889D02*
X0054754Y0245889D01*
X0062300Y0246887D02*
X0063700Y0246887D01*
X0063700Y0247886D02*
X0062300Y0247886D01*
X0062300Y0248884D02*
X0063700Y0248884D01*
X0063700Y0249883D02*
X0062300Y0249883D01*
X0062300Y0250881D02*
X0063700Y0250881D01*
X0063700Y0251880D02*
X0062300Y0251880D01*
X0062300Y0252878D02*
X0063700Y0252878D01*
X0063700Y0253877D02*
X0062300Y0253877D01*
X0062300Y0254875D02*
X0063700Y0254875D01*
X0063700Y0255874D02*
X0062300Y0255874D01*
X0062300Y0256872D02*
X0063700Y0256872D01*
X0063700Y0257871D02*
X0062300Y0257871D01*
X0062300Y0258869D02*
X0063700Y0258869D01*
X0063700Y0259868D02*
X0062300Y0259868D01*
X0062244Y0260866D02*
X0063756Y0260866D01*
X0072300Y0252878D02*
X0073500Y0252878D01*
X0073500Y0251880D02*
X0072300Y0251880D01*
X0072300Y0250881D02*
X0073500Y0250881D01*
X0073500Y0249883D02*
X0072300Y0249883D01*
X0072300Y0248884D02*
X0073500Y0248884D01*
X0073500Y0247886D02*
X0072300Y0247886D01*
X0072300Y0246887D02*
X0073550Y0246887D01*
X0073782Y0243892D02*
X0072218Y0243892D01*
X0072300Y0242893D02*
X0073700Y0242893D01*
X0073700Y0241895D02*
X0072300Y0241895D01*
X0072300Y0240896D02*
X0073700Y0240896D01*
X0073700Y0239898D02*
X0072300Y0239898D01*
X0072300Y0238899D02*
X0073700Y0238899D01*
X0073700Y0237901D02*
X0072300Y0237901D01*
X0072300Y0236902D02*
X0073700Y0236902D01*
X0073700Y0235904D02*
X0072300Y0235904D01*
X0072300Y0234905D02*
X0073700Y0234905D01*
X0073700Y0233907D02*
X0072300Y0233907D01*
X0072300Y0232908D02*
X0073700Y0232908D01*
X0073700Y0231910D02*
X0072300Y0231910D01*
X0072300Y0230911D02*
X0073700Y0230911D01*
X0073700Y0229913D02*
X0072300Y0229913D01*
X0063700Y0237901D02*
X0062500Y0237901D01*
X0062500Y0238899D02*
X0063700Y0238899D01*
X0063700Y0239898D02*
X0062500Y0239898D01*
X0062500Y0240896D02*
X0063700Y0240896D01*
X0063700Y0241895D02*
X0062500Y0241895D01*
X0062500Y0242893D02*
X0063700Y0242893D01*
X0063782Y0243892D02*
X0062374Y0243892D01*
X0058500Y0235904D02*
X0057500Y0235904D01*
X0057500Y0234905D02*
X0058500Y0234905D01*
X0058500Y0233907D02*
X0057500Y0233907D01*
X0057500Y0232908D02*
X0058500Y0232908D01*
X0058500Y0231910D02*
X0057500Y0231910D01*
X0057500Y0230911D02*
X0058500Y0230911D01*
X0058500Y0229913D02*
X0057500Y0229913D01*
X0057500Y0228914D02*
X0058500Y0228914D01*
X0109900Y0261865D02*
X0111684Y0261865D01*
X0111684Y0262863D02*
X0109900Y0262863D01*
X0109900Y0263862D02*
X0111684Y0263862D01*
X0111684Y0264860D02*
X0109900Y0264860D01*
X0109900Y0265859D02*
X0111684Y0265859D01*
X0111684Y0266857D02*
X0109861Y0266857D01*
X0108862Y0267856D02*
X0111684Y0267856D01*
X0115284Y0268854D02*
X0116241Y0268854D01*
X0122244Y0260866D02*
X0123756Y0260866D01*
X0123700Y0259868D02*
X0122300Y0259868D01*
X0122300Y0258869D02*
X0123700Y0258869D01*
X0123700Y0257871D02*
X0122300Y0257871D01*
X0122300Y0256872D02*
X0123700Y0256872D01*
X0123700Y0255874D02*
X0122300Y0255874D01*
X0122300Y0254875D02*
X0123700Y0254875D01*
X0123700Y0253877D02*
X0122300Y0253877D01*
X0122300Y0252878D02*
X0123700Y0252878D01*
X0123700Y0251880D02*
X0122300Y0251880D01*
X0122300Y0250881D02*
X0123700Y0250881D01*
X0123700Y0249883D02*
X0122300Y0249883D01*
X0122300Y0248884D02*
X0123700Y0248884D01*
X0123700Y0247886D02*
X0122300Y0247886D01*
X0122300Y0246887D02*
X0123700Y0246887D01*
X0123626Y0243892D02*
X0122218Y0243892D01*
X0122300Y0242893D02*
X0123500Y0242893D01*
X0123500Y0241895D02*
X0122300Y0241895D01*
X0122300Y0240896D02*
X0123500Y0240896D01*
X0123500Y0239898D02*
X0122300Y0239898D01*
X0122300Y0238899D02*
X0123500Y0238899D01*
X0123500Y0237901D02*
X0122300Y0237901D01*
X0118000Y0236772D02*
X0118000Y0233772D01*
X0118000Y0236772D02*
X0113484Y0236772D01*
X0115284Y0244890D02*
X0131369Y0244890D01*
X0131369Y0245889D02*
X0115284Y0245889D01*
X0127500Y0243892D02*
X0128500Y0243892D01*
X0128500Y0242893D02*
X0127500Y0242893D01*
X0127500Y0241895D02*
X0128500Y0241895D01*
X0128500Y0240896D02*
X0127500Y0240896D01*
X0127500Y0239898D02*
X0128500Y0239898D01*
X0128500Y0238899D02*
X0127500Y0238899D01*
X0127500Y0237901D02*
X0128500Y0237901D01*
X0128000Y0253772D02*
X0128000Y0256772D01*
X0128000Y0277055D01*
X0149800Y0282834D02*
X0254685Y0282834D01*
X0254685Y0283832D02*
X0149800Y0283832D01*
X0150645Y0284831D02*
X0254685Y0284831D01*
X0254685Y0285829D02*
X0151059Y0285829D01*
X0151084Y0286828D02*
X0254685Y0286828D01*
X0254685Y0287826D02*
X0150791Y0287826D01*
X0150041Y0288825D02*
X0254685Y0288825D01*
X0242437Y0276843D02*
X0242393Y0276843D01*
X0241099Y0271850D02*
X0238012Y0271850D01*
X0238408Y0268854D02*
X0246098Y0268854D01*
X0245150Y0263862D02*
X0209900Y0263862D01*
X0206100Y0263862D02*
X0199900Y0263862D01*
X0199900Y0264860D02*
X0206100Y0264860D01*
X0206100Y0265859D02*
X0199900Y0265859D01*
X0199900Y0266857D02*
X0206139Y0266857D01*
X0207137Y0267856D02*
X0199900Y0267856D01*
X0196100Y0267856D02*
X0189900Y0267856D01*
X0189900Y0268854D02*
X0196100Y0268854D01*
X0196100Y0269853D02*
X0189900Y0269853D01*
X0189900Y0270852D02*
X0196196Y0270852D01*
X0197195Y0271850D02*
X0189900Y0271850D01*
X0186100Y0271850D02*
X0179900Y0271850D01*
X0179900Y0270852D02*
X0186100Y0270852D01*
X0186100Y0269853D02*
X0179900Y0269853D01*
X0179900Y0268854D02*
X0186100Y0268854D01*
X0186100Y0267856D02*
X0179900Y0267856D01*
X0179900Y0266857D02*
X0186100Y0266857D01*
X0186100Y0265859D02*
X0179900Y0265859D01*
X0179900Y0264860D02*
X0186100Y0264860D01*
X0186100Y0263862D02*
X0179900Y0263862D01*
X0179900Y0262863D02*
X0186100Y0262863D01*
X0186100Y0261865D02*
X0179900Y0261865D01*
X0182244Y0260866D02*
X0183756Y0260866D01*
X0183700Y0259868D02*
X0182300Y0259868D01*
X0182300Y0258869D02*
X0183700Y0258869D01*
X0183700Y0257871D02*
X0182300Y0257871D01*
X0182300Y0256872D02*
X0183700Y0256872D01*
X0183700Y0255874D02*
X0182300Y0255874D01*
X0182300Y0254875D02*
X0183700Y0254875D01*
X0183700Y0253877D02*
X0182300Y0253877D01*
X0182300Y0252878D02*
X0183700Y0252878D01*
X0183700Y0251880D02*
X0182300Y0251880D01*
X0182300Y0250881D02*
X0183700Y0250881D01*
X0183700Y0249883D02*
X0182300Y0249883D01*
X0182300Y0248884D02*
X0183700Y0248884D01*
X0183700Y0247886D02*
X0182300Y0247886D01*
X0182300Y0246887D02*
X0183700Y0246887D01*
X0183782Y0243892D02*
X0182374Y0243892D01*
X0182500Y0242893D02*
X0183700Y0242893D01*
X0183700Y0241895D02*
X0182500Y0241895D01*
X0182500Y0240896D02*
X0183700Y0240896D01*
X0183700Y0239898D02*
X0182500Y0239898D01*
X0182500Y0238899D02*
X0183700Y0238899D01*
X0183700Y0237901D02*
X0182500Y0237901D01*
X0178500Y0238899D02*
X0177500Y0238899D01*
X0177500Y0239898D02*
X0178500Y0239898D01*
X0178500Y0240896D02*
X0177500Y0240896D01*
X0177500Y0241895D02*
X0178500Y0241895D01*
X0178500Y0242893D02*
X0177500Y0242893D01*
X0177500Y0243892D02*
X0178500Y0243892D01*
X0173626Y0243892D02*
X0172218Y0243892D01*
X0172300Y0242893D02*
X0173500Y0242893D01*
X0173500Y0241895D02*
X0172300Y0241895D01*
X0172300Y0240896D02*
X0173500Y0240896D01*
X0173500Y0239898D02*
X0172300Y0239898D01*
X0172300Y0238899D02*
X0173500Y0238899D01*
X0173500Y0237901D02*
X0172300Y0237901D01*
X0177500Y0235904D02*
X0178500Y0235904D01*
X0178500Y0234905D02*
X0177500Y0234905D01*
X0177500Y0233907D02*
X0178500Y0233907D01*
X0178500Y0232908D02*
X0177500Y0232908D01*
X0177500Y0231910D02*
X0178500Y0231910D01*
X0178500Y0230911D02*
X0177500Y0230911D01*
X0177500Y0229913D02*
X0178500Y0229913D01*
X0178500Y0228914D02*
X0177500Y0228914D01*
X0188000Y0234535D02*
X0188000Y0236772D01*
X0192300Y0236902D02*
X0197500Y0236902D01*
X0197500Y0237272D02*
X0197500Y0236272D01*
X0193500Y0236272D01*
X0193500Y0230074D01*
X0193602Y0229693D01*
X0193800Y0229351D01*
X0194079Y0229071D01*
X0194421Y0228874D01*
X0194803Y0228772D01*
X0197500Y0228772D01*
X0197500Y0236272D01*
X0198500Y0236272D01*
X0198500Y0237272D01*
X0197500Y0237272D01*
X0197500Y0244772D01*
X0194803Y0244772D01*
X0194421Y0244669D01*
X0194079Y0244472D01*
X0193800Y0244193D01*
X0193602Y0243851D01*
X0193500Y0243469D01*
X0193500Y0237272D01*
X0197500Y0237272D01*
X0197500Y0237901D02*
X0198500Y0237901D01*
X0198500Y0237272D02*
X0198500Y0244772D01*
X0201197Y0244772D01*
X0201579Y0244669D01*
X0201921Y0244472D01*
X0202200Y0244193D01*
X0202398Y0243851D01*
X0202500Y0243469D01*
X0202500Y0237272D01*
X0198500Y0237272D01*
X0198500Y0236902D02*
X0203700Y0236902D01*
X0203700Y0235904D02*
X0202500Y0235904D01*
X0202500Y0236272D02*
X0198500Y0236272D01*
X0198500Y0228772D01*
X0201197Y0228772D01*
X0201579Y0228874D01*
X0201921Y0229071D01*
X0202200Y0229351D01*
X0202398Y0229693D01*
X0202500Y0230074D01*
X0202500Y0236272D01*
X0202500Y0234905D02*
X0203700Y0234905D01*
X0203700Y0233907D02*
X0202500Y0233907D01*
X0202500Y0232908D02*
X0203700Y0232908D01*
X0203700Y0231910D02*
X0202500Y0231910D01*
X0202500Y0230911D02*
X0203700Y0230911D01*
X0203700Y0229913D02*
X0202457Y0229913D01*
X0201649Y0228914D02*
X0206100Y0228914D01*
X0206100Y0227916D02*
X0189900Y0227916D01*
X0189900Y0228914D02*
X0194351Y0228914D01*
X0193543Y0229913D02*
X0192300Y0229913D01*
X0192300Y0230911D02*
X0193500Y0230911D01*
X0193500Y0231910D02*
X0192300Y0231910D01*
X0192300Y0232908D02*
X0193500Y0232908D01*
X0193500Y0233907D02*
X0192300Y0233907D01*
X0192300Y0234905D02*
X0193500Y0234905D01*
X0193500Y0235904D02*
X0192300Y0235904D01*
X0192300Y0237901D02*
X0193500Y0237901D01*
X0193500Y0238899D02*
X0192300Y0238899D01*
X0192300Y0239898D02*
X0193500Y0239898D01*
X0193500Y0240896D02*
X0192300Y0240896D01*
X0192300Y0241895D02*
X0193500Y0241895D01*
X0193500Y0242893D02*
X0192300Y0242893D01*
X0192218Y0243892D02*
X0193626Y0243892D01*
X0193700Y0246887D02*
X0192300Y0246887D01*
X0192300Y0247886D02*
X0193700Y0247886D01*
X0193700Y0248884D02*
X0192300Y0248884D01*
X0192300Y0249883D02*
X0193700Y0249883D01*
X0193700Y0250881D02*
X0192300Y0250881D01*
X0192300Y0251880D02*
X0193700Y0251880D01*
X0193700Y0252878D02*
X0192300Y0252878D01*
X0192300Y0253877D02*
X0193700Y0253877D01*
X0193700Y0254875D02*
X0192300Y0254875D01*
X0192300Y0255874D02*
X0193700Y0255874D01*
X0193700Y0256872D02*
X0192300Y0256872D01*
X0192300Y0257871D02*
X0193700Y0257871D01*
X0193700Y0258869D02*
X0192300Y0258869D01*
X0192300Y0259868D02*
X0193700Y0259868D01*
X0193756Y0260866D02*
X0192244Y0260866D01*
X0189900Y0261865D02*
X0196100Y0261865D01*
X0196100Y0262863D02*
X0189900Y0262863D01*
X0189900Y0263862D02*
X0196100Y0263862D01*
X0196100Y0264860D02*
X0189900Y0264860D01*
X0189900Y0265859D02*
X0196100Y0265859D01*
X0196100Y0266857D02*
X0189900Y0266857D01*
X0186100Y0272849D02*
X0179900Y0272849D01*
X0179900Y0273847D02*
X0186100Y0273847D01*
X0186253Y0274846D02*
X0179900Y0274846D01*
X0179900Y0275844D02*
X0237105Y0275844D01*
X0228500Y0260866D02*
X0227500Y0260866D01*
X0227500Y0259868D02*
X0228500Y0259868D01*
X0228500Y0258869D02*
X0227500Y0258869D01*
X0227500Y0257871D02*
X0228500Y0257871D01*
X0228500Y0256872D02*
X0227500Y0256872D01*
X0227500Y0255874D02*
X0228500Y0255874D01*
X0228500Y0254875D02*
X0227500Y0254875D01*
X0223500Y0255874D02*
X0222300Y0255874D01*
X0222300Y0256872D02*
X0223500Y0256872D01*
X0223500Y0257871D02*
X0222300Y0257871D01*
X0222300Y0258869D02*
X0223500Y0258869D01*
X0223500Y0259868D02*
X0222300Y0259868D01*
X0222244Y0260866D02*
X0223611Y0260866D01*
X0218000Y0256772D02*
X0218000Y0253772D01*
X0213700Y0253877D02*
X0212300Y0253877D01*
X0212300Y0254875D02*
X0213700Y0254875D01*
X0213700Y0255874D02*
X0212300Y0255874D01*
X0212300Y0256872D02*
X0213700Y0256872D01*
X0213700Y0257871D02*
X0212300Y0257871D01*
X0212300Y0258869D02*
X0213700Y0258869D01*
X0213700Y0259868D02*
X0212300Y0259868D01*
X0212244Y0260866D02*
X0213756Y0260866D01*
X0208000Y0256772D02*
X0208000Y0253772D01*
X0203700Y0253877D02*
X0202300Y0253877D01*
X0202300Y0254875D02*
X0203700Y0254875D01*
X0203700Y0255874D02*
X0202300Y0255874D01*
X0202300Y0256872D02*
X0203700Y0256872D01*
X0203700Y0257871D02*
X0202300Y0257871D01*
X0202300Y0258869D02*
X0203700Y0258869D01*
X0203700Y0259868D02*
X0202300Y0259868D01*
X0202244Y0260866D02*
X0203756Y0260866D01*
X0206100Y0261865D02*
X0199900Y0261865D01*
X0199900Y0262863D02*
X0206100Y0262863D01*
X0198000Y0256772D02*
X0198000Y0250283D01*
X0202300Y0249883D02*
X0203700Y0249883D01*
X0203700Y0250881D02*
X0202300Y0250881D01*
X0202300Y0251880D02*
X0203700Y0251880D01*
X0203700Y0252878D02*
X0202300Y0252878D01*
X0202300Y0248884D02*
X0203700Y0248884D01*
X0203700Y0247886D02*
X0202300Y0247886D01*
X0202300Y0246887D02*
X0203700Y0246887D01*
X0203782Y0243892D02*
X0202374Y0243892D01*
X0202500Y0242893D02*
X0203700Y0242893D01*
X0203700Y0241895D02*
X0202500Y0241895D01*
X0202500Y0240896D02*
X0203700Y0240896D01*
X0203700Y0239898D02*
X0202500Y0239898D01*
X0202500Y0238899D02*
X0203700Y0238899D01*
X0203700Y0237901D02*
X0202500Y0237901D01*
X0198500Y0238899D02*
X0197500Y0238899D01*
X0197500Y0239898D02*
X0198500Y0239898D01*
X0198500Y0240896D02*
X0197500Y0240896D01*
X0197500Y0241895D02*
X0198500Y0241895D01*
X0198500Y0242893D02*
X0197500Y0242893D01*
X0197500Y0243892D02*
X0198500Y0243892D01*
X0198500Y0235904D02*
X0197500Y0235904D01*
X0197500Y0234905D02*
X0198500Y0234905D01*
X0198500Y0233907D02*
X0197500Y0233907D01*
X0197500Y0232908D02*
X0198500Y0232908D01*
X0198500Y0231910D02*
X0197500Y0231910D01*
X0197500Y0230911D02*
X0198500Y0230911D01*
X0198500Y0229913D02*
X0197500Y0229913D01*
X0197500Y0228914D02*
X0198500Y0228914D01*
X0206100Y0226917D02*
X0189900Y0226917D01*
X0189900Y0225919D02*
X0206100Y0225919D01*
X0206100Y0224920D02*
X0189900Y0224920D01*
X0189900Y0223921D02*
X0206100Y0223921D01*
X0206100Y0222923D02*
X0189900Y0222923D01*
X0189900Y0221924D02*
X0206100Y0221924D01*
X0206100Y0220926D02*
X0189900Y0220926D01*
X0189900Y0219927D02*
X0206100Y0219927D01*
X0206100Y0218929D02*
X0189900Y0218929D01*
X0189900Y0217930D02*
X0206100Y0217930D01*
X0206100Y0216932D02*
X0189900Y0216932D01*
X0189900Y0215933D02*
X0206100Y0215933D01*
X0206100Y0214935D02*
X0189900Y0214935D01*
X0189900Y0213936D02*
X0206100Y0213936D01*
X0206100Y0212938D02*
X0189900Y0212938D01*
X0189900Y0211939D02*
X0206100Y0211939D01*
X0206100Y0210941D02*
X0189900Y0210941D01*
X0189900Y0209942D02*
X0206100Y0209942D01*
X0206100Y0208944D02*
X0189900Y0208944D01*
X0189900Y0207945D02*
X0206100Y0207945D01*
X0206100Y0206947D02*
X0189900Y0206947D01*
X0189900Y0205948D02*
X0206100Y0205948D01*
X0206100Y0204950D02*
X0189900Y0204950D01*
X0189900Y0203951D02*
X0206100Y0203951D01*
X0206100Y0202953D02*
X0189900Y0202953D01*
X0189900Y0201954D02*
X0206100Y0201954D01*
X0206100Y0200956D02*
X0189900Y0200956D01*
X0189900Y0199957D02*
X0206100Y0199957D01*
X0206100Y0198959D02*
X0189900Y0198959D01*
X0189900Y0197960D02*
X0206100Y0197960D01*
X0206100Y0196962D02*
X0189900Y0196962D01*
X0189900Y0195963D02*
X0206100Y0195963D01*
X0206100Y0194965D02*
X0189900Y0194965D01*
X0189900Y0193966D02*
X0206100Y0193966D01*
X0206100Y0192968D02*
X0189900Y0192968D01*
X0189900Y0191969D02*
X0206100Y0191969D01*
X0206100Y0190971D02*
X0189900Y0190971D01*
X0189900Y0189972D02*
X0206100Y0189972D01*
X0206100Y0188974D02*
X0189900Y0188974D01*
X0189900Y0187975D02*
X0206100Y0187975D01*
X0206100Y0186977D02*
X0189900Y0186977D01*
X0189900Y0185978D02*
X0206100Y0185978D01*
X0205307Y0184980D02*
X0189900Y0184980D01*
X0189900Y0183981D02*
X0204894Y0183981D01*
X0204888Y0182983D02*
X0189900Y0182983D01*
X0189900Y0181984D02*
X0205202Y0181984D01*
X0212300Y0229913D02*
X0213700Y0229913D01*
X0213700Y0230911D02*
X0212300Y0230911D01*
X0212300Y0231910D02*
X0213700Y0231910D01*
X0213700Y0232908D02*
X0212300Y0232908D01*
X0212300Y0233907D02*
X0213700Y0233907D01*
X0213700Y0234905D02*
X0212300Y0234905D01*
X0212300Y0235904D02*
X0213700Y0235904D01*
X0213700Y0236902D02*
X0212300Y0236902D01*
X0212300Y0237901D02*
X0213700Y0237901D01*
X0213700Y0238899D02*
X0212300Y0238899D01*
X0212300Y0239898D02*
X0213700Y0239898D01*
X0213700Y0240896D02*
X0212300Y0240896D01*
X0212300Y0241895D02*
X0213700Y0241895D01*
X0213700Y0242893D02*
X0212300Y0242893D01*
X0212218Y0243892D02*
X0213782Y0243892D01*
X0213700Y0246887D02*
X0212300Y0246887D01*
X0212300Y0247886D02*
X0213700Y0247886D01*
X0213700Y0248884D02*
X0212300Y0248884D01*
X0212300Y0249883D02*
X0213700Y0249883D01*
X0213700Y0250881D02*
X0212300Y0250881D01*
X0212300Y0251880D02*
X0213700Y0251880D01*
X0213700Y0252878D02*
X0212300Y0252878D01*
X0208000Y0236772D02*
X0208000Y0234535D01*
X0218000Y0234535D02*
X0218000Y0236772D01*
X0188000Y0253772D02*
X0188000Y0256772D01*
X0178000Y0256772D02*
X0178000Y0250283D01*
X0173700Y0249883D02*
X0172300Y0249883D01*
X0172300Y0250881D02*
X0173700Y0250881D01*
X0173700Y0251880D02*
X0172300Y0251880D01*
X0172300Y0252878D02*
X0173700Y0252878D01*
X0173700Y0253877D02*
X0172300Y0253877D01*
X0172300Y0254875D02*
X0173700Y0254875D01*
X0173700Y0255874D02*
X0172300Y0255874D01*
X0172300Y0256872D02*
X0173700Y0256872D01*
X0173700Y0257871D02*
X0172300Y0257871D01*
X0172300Y0258869D02*
X0173700Y0258869D01*
X0173700Y0259868D02*
X0172300Y0259868D01*
X0172244Y0260866D02*
X0173756Y0260866D01*
X0163700Y0252878D02*
X0162500Y0252878D01*
X0162500Y0251880D02*
X0163700Y0251880D01*
X0163700Y0250881D02*
X0162500Y0250881D01*
X0162500Y0249883D02*
X0163700Y0249883D01*
X0163700Y0248884D02*
X0162500Y0248884D01*
X0162500Y0247886D02*
X0163700Y0247886D01*
X0163700Y0246887D02*
X0162450Y0246887D01*
X0162218Y0243892D02*
X0163782Y0243892D01*
X0163700Y0242893D02*
X0162300Y0242893D01*
X0162300Y0241895D02*
X0163700Y0241895D01*
X0163700Y0240896D02*
X0162300Y0240896D01*
X0162300Y0239898D02*
X0163700Y0239898D01*
X0163700Y0238899D02*
X0162300Y0238899D01*
X0162300Y0237901D02*
X0163700Y0237901D01*
X0163700Y0236902D02*
X0162300Y0236902D01*
X0162300Y0235904D02*
X0163700Y0235904D01*
X0163700Y0234905D02*
X0162300Y0234905D01*
X0162300Y0233907D02*
X0163700Y0233907D01*
X0163700Y0232908D02*
X0162300Y0232908D01*
X0162300Y0231910D02*
X0163700Y0231910D01*
X0163700Y0230911D02*
X0162300Y0230911D01*
X0162300Y0229913D02*
X0163700Y0229913D01*
X0158000Y0234535D02*
X0158000Y0236772D01*
X0172300Y0246887D02*
X0173700Y0246887D01*
X0173700Y0247886D02*
X0172300Y0247886D01*
X0172300Y0248884D02*
X0173700Y0248884D01*
X0153500Y0254875D02*
X0152300Y0254875D01*
X0152300Y0255874D02*
X0153500Y0255874D01*
X0153500Y0256872D02*
X0152300Y0256872D01*
X0152300Y0257871D02*
X0153500Y0257871D01*
X0153500Y0258869D02*
X0152300Y0258869D01*
X0152300Y0259868D02*
X0153500Y0259868D01*
X0153611Y0260866D02*
X0152244Y0260866D01*
X0251432Y0355725D02*
X0034773Y0355725D01*
X0034924Y0356723D02*
X0251124Y0356723D01*
X0250816Y0357722D02*
X0035074Y0357722D01*
X0035225Y0358721D02*
X0250712Y0358721D01*
X0250712Y0359719D02*
X0035375Y0359719D01*
X0035496Y0360520D02*
X0035496Y0360520D01*
X0035466Y0360718D02*
X0250712Y0360718D01*
X0250712Y0361716D02*
X0035316Y0361716D01*
X0035165Y0362715D02*
X0250712Y0362715D01*
X0250938Y0363713D02*
X0035015Y0363713D01*
X0034864Y0364712D02*
X0251246Y0364712D01*
X0251554Y0365710D02*
X0034606Y0365710D01*
X0034125Y0366709D02*
X0251862Y0366709D01*
X0252181Y0367707D02*
X0033644Y0367707D01*
X0034315Y0354726D02*
X0251740Y0354726D01*
X0252048Y0353728D02*
X0033834Y0353728D01*
X0033354Y0352729D02*
X0252592Y0352729D01*
X0253273Y0351731D02*
X0032873Y0351731D01*
X0032629Y0351225D02*
X0032629Y0351225D01*
X0032172Y0350732D02*
X0253953Y0350732D01*
X0254634Y0349734D02*
X0031246Y0349734D01*
X0030319Y0348735D02*
X0255636Y0348735D01*
X0256888Y0347737D02*
X0029393Y0347737D01*
X0029284Y0347619D02*
X0029284Y0347619D01*
X0027758Y0346738D02*
X0258140Y0346738D01*
X0258778Y0346230D02*
X0258778Y0346230D01*
X0260027Y0345740D02*
X0026028Y0345740D01*
X0025024Y0345160D02*
X0025024Y0345160D01*
X0023189Y0344741D02*
X0262571Y0344741D01*
X0263356Y0344433D02*
X0263356Y0344433D01*
X0268261Y0344066D02*
X0268261Y0344066D01*
X0271220Y0344741D02*
X0278276Y0344741D01*
X0278276Y0343743D02*
X0007748Y0343743D01*
X0007748Y0344741D02*
X0014540Y0344741D01*
X0011996Y0345740D02*
X0007748Y0345740D01*
X0007748Y0346738D02*
X0010109Y0346738D01*
X0010746Y0346230D02*
X0010746Y0346230D01*
X0008857Y0347737D02*
X0007748Y0347737D01*
X0007748Y0342744D02*
X0278276Y0342744D01*
X0278276Y0341746D02*
X0007748Y0341746D01*
X0007748Y0340747D02*
X0278276Y0340747D01*
X0278276Y0339749D02*
X0007748Y0339749D01*
X0007748Y0338750D02*
X0267042Y0338750D01*
X0266318Y0337752D02*
X0007748Y0337752D01*
X0007748Y0336753D02*
X0266318Y0336753D01*
X0266318Y0335755D02*
X0007748Y0335755D01*
X0007748Y0334756D02*
X0266318Y0334756D01*
X0266318Y0333758D02*
X0007748Y0333758D01*
X0007748Y0332759D02*
X0266572Y0332759D01*
X0271344Y0338750D02*
X0275703Y0338750D01*
X0274980Y0337752D02*
X0272068Y0337752D01*
X0272068Y0336753D02*
X0274980Y0336753D01*
X0274980Y0335755D02*
X0272068Y0335755D01*
X0272068Y0334756D02*
X0274980Y0334756D01*
X0274980Y0333758D02*
X0272068Y0333758D01*
X0267252Y0326768D02*
X0007748Y0326768D01*
X0007748Y0325770D02*
X0267268Y0325770D01*
X0267681Y0324771D02*
X0007748Y0324771D01*
X0007748Y0323773D02*
X0268095Y0323773D01*
X0268935Y0322774D02*
X0007748Y0322774D01*
X0007748Y0321776D02*
X0269934Y0321776D01*
X0270223Y0320777D02*
X0270493Y0320777D01*
X0262706Y0327767D02*
X0007748Y0327767D01*
X0007748Y0328765D02*
X0262381Y0328765D01*
X0262381Y0329764D02*
X0007748Y0329764D01*
X0007748Y0330762D02*
X0262381Y0330762D01*
X0262381Y0331761D02*
X0007748Y0331761D01*
X0020229Y0344066D02*
X0020229Y0344066D01*
X0269354Y0034204D02*
X0278276Y0034204D01*
X0278276Y0033206D02*
X0273322Y0033206D01*
X0273056Y0033359D02*
X0273056Y0033359D01*
X0275051Y0032207D02*
X0278276Y0032207D01*
X0278276Y0031209D02*
X0276781Y0031209D01*
X0277315Y0030900D02*
X0277315Y0030900D01*
X0277955Y0030210D02*
X0278276Y0030210D01*
X0273056Y0120751D02*
X0273056Y0120751D01*
X0273617Y0121075D02*
X0278276Y0121075D01*
X0278276Y0122073D02*
X0275346Y0122073D01*
X0277076Y0123072D02*
X0278276Y0123072D01*
X0278276Y0124070D02*
X0278113Y0124070D01*
X0273056Y0345160D02*
X0273056Y0345160D01*
X0274060Y0345740D02*
X0278276Y0345740D01*
X0278276Y0346738D02*
X0275789Y0346738D01*
X0277424Y0347737D02*
X0278276Y0347737D01*
D22*
X0263091Y0297528D03*
X0247343Y0297528D03*
X0239469Y0277843D03*
X0243406Y0273906D03*
X0247343Y0266031D03*
X0235531Y0269969D03*
X0223130Y0187291D03*
X0218000Y0171543D03*
X0207972Y0183354D03*
X0188000Y0171543D03*
X0162697Y0143984D03*
X0158000Y0179417D03*
X0172539Y0210913D03*
X0138000Y0273906D03*
X0143012Y0280205D03*
X0148000Y0286504D03*
X0133169Y0289654D03*
X0128000Y0277055D03*
X0113484Y0283354D03*
X0156791Y0329024D03*
X0160728Y0277843D03*
X0267028Y0171543D03*
X0270965Y0108551D03*
X0108917Y0045559D03*
X0052461Y0010126D03*
X0052854Y0210913D03*
X0038681Y0218787D03*
D23*
X0038000Y0266031D03*
X0118000Y0266031D03*
D24*
X0118000Y0256772D01*
X0118000Y0253772D01*
X0078000Y0236772D02*
X0078000Y0233772D01*
X0038000Y0253772D02*
X0038000Y0256772D01*
X0038000Y0266031D01*
X0158000Y0234535D02*
X0158000Y0233772D01*
X0188000Y0233772D02*
X0188000Y0234535D01*
X0208000Y0234535D02*
X0208000Y0233772D01*
X0218000Y0233772D02*
X0218000Y0234535D01*
D25*
X0218000Y0171543D01*
X0208000Y0183354D02*
X0207972Y0183354D01*
X0208000Y0183354D02*
X0208000Y0234535D01*
X0198000Y0250283D02*
X0198000Y0253772D01*
X0198000Y0269969D01*
X0235531Y0269969D01*
X0239469Y0277843D02*
X0178000Y0277843D01*
X0178000Y0253772D01*
X0178000Y0250283D01*
X0188000Y0253772D02*
X0188000Y0273906D01*
X0243406Y0273906D01*
X0247343Y0266031D02*
X0208000Y0266031D01*
X0208000Y0253772D01*
X0218000Y0253772D02*
X0223130Y0253772D01*
X0223130Y0187291D01*
X0188000Y0171543D02*
X0188000Y0234535D01*
X0168602Y0222724D02*
X0168602Y0179417D01*
X0158000Y0179417D01*
X0158000Y0222724D02*
X0168602Y0222724D01*
X0158000Y0222724D02*
X0158000Y0233772D01*
X0108000Y0253772D02*
X0108000Y0256772D01*
X0108000Y0266031D01*
X0052854Y0266031D01*
X0052854Y0210913D01*
X0058366Y0206976D02*
X0058366Y0037685D01*
X0118917Y0037685D01*
X0118917Y0014063D01*
X0128917Y0014063D02*
X0128917Y0041622D01*
X0062303Y0041622D01*
X0062303Y0203039D01*
X0083366Y0203039D01*
X0083366Y0253772D01*
X0088000Y0253772D01*
X0092815Y0253772D02*
X0092815Y0195165D01*
X0074114Y0195165D01*
X0074114Y0061307D01*
X0138917Y0061307D01*
X0138917Y0014063D01*
X0108917Y0045559D02*
X0066240Y0045559D01*
X0066240Y0199102D01*
X0088000Y0199102D01*
X0088000Y0236772D01*
X0078000Y0233772D02*
X0078000Y0206976D01*
X0058366Y0206976D01*
X0092815Y0253772D02*
X0098000Y0253772D01*
D26*
X0048000Y0236772D02*
X0038000Y0236772D01*
X0026870Y0236772D01*
X0026870Y0100677D01*
X0054429Y0100677D01*
X0054429Y0033748D01*
X0098917Y0033748D01*
X0098917Y0014063D01*
X0104232Y0163079D02*
X0257185Y0163079D01*
X0257185Y0318197D01*
X0266634Y0318197D01*
X0266634Y0312291D02*
X0263091Y0312291D01*
X0263091Y0297528D01*
X0274902Y0297528D01*
X0274902Y0289654D02*
X0274902Y0281976D01*
X0247343Y0297528D02*
X0026870Y0297528D01*
X0026870Y0236772D01*
D27*
X0104232Y0205008D02*
X0129232Y0205008D01*
X0129232Y0214850D01*
X0160728Y0214850D01*
X0160728Y0195165D01*
X0144980Y0195165D01*
X0144980Y0186906D01*
X0125114Y0186906D01*
X0125114Y0194780D02*
X0104232Y0194780D01*
X0104232Y0177449D01*
M02*
