G75*
%MOIN*%
%OFA0B0*%
%FSLAX25Y25*%
%IPPOS*%
%LPD*%
%AMOC8*
5,1,8,0,0,1.08239X$1,22.5*
%
%ADD10C,0.00000*%
%ADD11R,0.05131X0.06312*%
%ADD12R,0.16548X0.02375*%
%ADD13R,0.07099X0.06902*%
%ADD14R,0.09855X0.07099*%
%ADD15C,0.04343*%
%ADD16R,0.05918X0.06902*%
%ADD17C,0.12611*%
%ADD18C,0.08200*%
%ADD19C,0.04369*%
%ADD20C,0.04762*%
D10*
X0003248Y0006189D02*
X0003248Y0368394D01*
X0003250Y0368518D01*
X0003256Y0368641D01*
X0003265Y0368765D01*
X0003279Y0368887D01*
X0003296Y0369010D01*
X0003318Y0369132D01*
X0003343Y0369253D01*
X0003372Y0369373D01*
X0003404Y0369492D01*
X0003441Y0369611D01*
X0003481Y0369728D01*
X0003524Y0369843D01*
X0003572Y0369958D01*
X0003623Y0370070D01*
X0003677Y0370181D01*
X0003735Y0370291D01*
X0003796Y0370398D01*
X0003861Y0370504D01*
X0003929Y0370607D01*
X0004000Y0370708D01*
X0004074Y0370807D01*
X0004151Y0370904D01*
X0004232Y0370998D01*
X0004315Y0371089D01*
X0004401Y0371178D01*
X0004490Y0371264D01*
X0004581Y0371347D01*
X0004675Y0371428D01*
X0004772Y0371505D01*
X0004871Y0371579D01*
X0004972Y0371650D01*
X0005075Y0371718D01*
X0005181Y0371783D01*
X0005288Y0371844D01*
X0005398Y0371902D01*
X0005509Y0371956D01*
X0005621Y0372007D01*
X0005736Y0372055D01*
X0005851Y0372098D01*
X0005968Y0372138D01*
X0006087Y0372175D01*
X0006206Y0372207D01*
X0006326Y0372236D01*
X0006447Y0372261D01*
X0006569Y0372283D01*
X0006692Y0372300D01*
X0006814Y0372314D01*
X0006938Y0372323D01*
X0007061Y0372329D01*
X0007185Y0372331D01*
X0278839Y0372331D01*
X0278963Y0372329D01*
X0279086Y0372323D01*
X0279210Y0372314D01*
X0279332Y0372300D01*
X0279455Y0372283D01*
X0279577Y0372261D01*
X0279698Y0372236D01*
X0279818Y0372207D01*
X0279937Y0372175D01*
X0280056Y0372138D01*
X0280173Y0372098D01*
X0280288Y0372055D01*
X0280403Y0372007D01*
X0280515Y0371956D01*
X0280626Y0371902D01*
X0280736Y0371844D01*
X0280843Y0371783D01*
X0280949Y0371718D01*
X0281052Y0371650D01*
X0281153Y0371579D01*
X0281252Y0371505D01*
X0281349Y0371428D01*
X0281443Y0371347D01*
X0281534Y0371264D01*
X0281623Y0371178D01*
X0281709Y0371089D01*
X0281792Y0370998D01*
X0281873Y0370904D01*
X0281950Y0370807D01*
X0282024Y0370708D01*
X0282095Y0370607D01*
X0282163Y0370504D01*
X0282228Y0370398D01*
X0282289Y0370291D01*
X0282347Y0370181D01*
X0282401Y0370070D01*
X0282452Y0369958D01*
X0282500Y0369843D01*
X0282543Y0369728D01*
X0282583Y0369611D01*
X0282620Y0369492D01*
X0282652Y0369373D01*
X0282681Y0369253D01*
X0282706Y0369132D01*
X0282728Y0369010D01*
X0282745Y0368887D01*
X0282759Y0368765D01*
X0282768Y0368641D01*
X0282774Y0368518D01*
X0282776Y0368394D01*
X0282776Y0006189D01*
X0282774Y0006065D01*
X0282768Y0005942D01*
X0282759Y0005818D01*
X0282745Y0005696D01*
X0282728Y0005573D01*
X0282706Y0005451D01*
X0282681Y0005330D01*
X0282652Y0005210D01*
X0282620Y0005091D01*
X0282583Y0004972D01*
X0282543Y0004855D01*
X0282500Y0004740D01*
X0282452Y0004625D01*
X0282401Y0004513D01*
X0282347Y0004402D01*
X0282289Y0004292D01*
X0282228Y0004185D01*
X0282163Y0004079D01*
X0282095Y0003976D01*
X0282024Y0003875D01*
X0281950Y0003776D01*
X0281873Y0003679D01*
X0281792Y0003585D01*
X0281709Y0003494D01*
X0281623Y0003405D01*
X0281534Y0003319D01*
X0281443Y0003236D01*
X0281349Y0003155D01*
X0281252Y0003078D01*
X0281153Y0003004D01*
X0281052Y0002933D01*
X0280949Y0002865D01*
X0280843Y0002800D01*
X0280736Y0002739D01*
X0280626Y0002681D01*
X0280515Y0002627D01*
X0280403Y0002576D01*
X0280288Y0002528D01*
X0280173Y0002485D01*
X0280056Y0002445D01*
X0279937Y0002408D01*
X0279818Y0002376D01*
X0279698Y0002347D01*
X0279577Y0002322D01*
X0279455Y0002300D01*
X0279332Y0002283D01*
X0279210Y0002269D01*
X0279086Y0002260D01*
X0278963Y0002254D01*
X0278839Y0002252D01*
X0007185Y0002252D01*
X0007061Y0002254D01*
X0006938Y0002260D01*
X0006814Y0002269D01*
X0006692Y0002283D01*
X0006569Y0002300D01*
X0006447Y0002322D01*
X0006326Y0002347D01*
X0006206Y0002376D01*
X0006087Y0002408D01*
X0005968Y0002445D01*
X0005851Y0002485D01*
X0005736Y0002528D01*
X0005621Y0002576D01*
X0005509Y0002627D01*
X0005398Y0002681D01*
X0005288Y0002739D01*
X0005181Y0002800D01*
X0005075Y0002865D01*
X0004972Y0002933D01*
X0004871Y0003004D01*
X0004772Y0003078D01*
X0004675Y0003155D01*
X0004581Y0003236D01*
X0004490Y0003319D01*
X0004401Y0003405D01*
X0004315Y0003494D01*
X0004232Y0003585D01*
X0004151Y0003679D01*
X0004074Y0003776D01*
X0004000Y0003875D01*
X0003929Y0003976D01*
X0003861Y0004079D01*
X0003796Y0004185D01*
X0003735Y0004292D01*
X0003677Y0004402D01*
X0003623Y0004513D01*
X0003572Y0004625D01*
X0003524Y0004740D01*
X0003481Y0004855D01*
X0003441Y0004972D01*
X0003404Y0005091D01*
X0003372Y0005210D01*
X0003343Y0005330D01*
X0003318Y0005451D01*
X0003296Y0005573D01*
X0003279Y0005696D01*
X0003265Y0005818D01*
X0003256Y0005942D01*
X0003250Y0006065D01*
X0003248Y0006189D01*
X0013090Y0018000D02*
X0013092Y0018153D01*
X0013098Y0018307D01*
X0013108Y0018460D01*
X0013122Y0018612D01*
X0013140Y0018765D01*
X0013162Y0018916D01*
X0013187Y0019067D01*
X0013217Y0019218D01*
X0013251Y0019368D01*
X0013288Y0019516D01*
X0013329Y0019664D01*
X0013374Y0019810D01*
X0013423Y0019956D01*
X0013476Y0020100D01*
X0013532Y0020242D01*
X0013592Y0020383D01*
X0013656Y0020523D01*
X0013723Y0020661D01*
X0013794Y0020797D01*
X0013869Y0020931D01*
X0013946Y0021063D01*
X0014028Y0021193D01*
X0014112Y0021321D01*
X0014200Y0021447D01*
X0014291Y0021570D01*
X0014385Y0021691D01*
X0014483Y0021809D01*
X0014583Y0021925D01*
X0014687Y0022038D01*
X0014793Y0022149D01*
X0014902Y0022257D01*
X0015014Y0022362D01*
X0015128Y0022463D01*
X0015246Y0022562D01*
X0015365Y0022658D01*
X0015487Y0022751D01*
X0015612Y0022840D01*
X0015739Y0022927D01*
X0015868Y0023009D01*
X0015999Y0023089D01*
X0016132Y0023165D01*
X0016267Y0023238D01*
X0016404Y0023307D01*
X0016543Y0023372D01*
X0016683Y0023434D01*
X0016825Y0023492D01*
X0016968Y0023547D01*
X0017113Y0023598D01*
X0017259Y0023645D01*
X0017406Y0023688D01*
X0017554Y0023727D01*
X0017703Y0023763D01*
X0017853Y0023794D01*
X0018004Y0023822D01*
X0018155Y0023846D01*
X0018308Y0023866D01*
X0018460Y0023882D01*
X0018613Y0023894D01*
X0018766Y0023902D01*
X0018919Y0023906D01*
X0019073Y0023906D01*
X0019226Y0023902D01*
X0019379Y0023894D01*
X0019532Y0023882D01*
X0019684Y0023866D01*
X0019837Y0023846D01*
X0019988Y0023822D01*
X0020139Y0023794D01*
X0020289Y0023763D01*
X0020438Y0023727D01*
X0020586Y0023688D01*
X0020733Y0023645D01*
X0020879Y0023598D01*
X0021024Y0023547D01*
X0021167Y0023492D01*
X0021309Y0023434D01*
X0021449Y0023372D01*
X0021588Y0023307D01*
X0021725Y0023238D01*
X0021860Y0023165D01*
X0021993Y0023089D01*
X0022124Y0023009D01*
X0022253Y0022927D01*
X0022380Y0022840D01*
X0022505Y0022751D01*
X0022627Y0022658D01*
X0022746Y0022562D01*
X0022864Y0022463D01*
X0022978Y0022362D01*
X0023090Y0022257D01*
X0023199Y0022149D01*
X0023305Y0022038D01*
X0023409Y0021925D01*
X0023509Y0021809D01*
X0023607Y0021691D01*
X0023701Y0021570D01*
X0023792Y0021447D01*
X0023880Y0021321D01*
X0023964Y0021193D01*
X0024046Y0021063D01*
X0024123Y0020931D01*
X0024198Y0020797D01*
X0024269Y0020661D01*
X0024336Y0020523D01*
X0024400Y0020383D01*
X0024460Y0020242D01*
X0024516Y0020100D01*
X0024569Y0019956D01*
X0024618Y0019810D01*
X0024663Y0019664D01*
X0024704Y0019516D01*
X0024741Y0019368D01*
X0024775Y0019218D01*
X0024805Y0019067D01*
X0024830Y0018916D01*
X0024852Y0018765D01*
X0024870Y0018612D01*
X0024884Y0018460D01*
X0024894Y0018307D01*
X0024900Y0018153D01*
X0024902Y0018000D01*
X0024900Y0017847D01*
X0024894Y0017693D01*
X0024884Y0017540D01*
X0024870Y0017388D01*
X0024852Y0017235D01*
X0024830Y0017084D01*
X0024805Y0016933D01*
X0024775Y0016782D01*
X0024741Y0016632D01*
X0024704Y0016484D01*
X0024663Y0016336D01*
X0024618Y0016190D01*
X0024569Y0016044D01*
X0024516Y0015900D01*
X0024460Y0015758D01*
X0024400Y0015617D01*
X0024336Y0015477D01*
X0024269Y0015339D01*
X0024198Y0015203D01*
X0024123Y0015069D01*
X0024046Y0014937D01*
X0023964Y0014807D01*
X0023880Y0014679D01*
X0023792Y0014553D01*
X0023701Y0014430D01*
X0023607Y0014309D01*
X0023509Y0014191D01*
X0023409Y0014075D01*
X0023305Y0013962D01*
X0023199Y0013851D01*
X0023090Y0013743D01*
X0022978Y0013638D01*
X0022864Y0013537D01*
X0022746Y0013438D01*
X0022627Y0013342D01*
X0022505Y0013249D01*
X0022380Y0013160D01*
X0022253Y0013073D01*
X0022124Y0012991D01*
X0021993Y0012911D01*
X0021860Y0012835D01*
X0021725Y0012762D01*
X0021588Y0012693D01*
X0021449Y0012628D01*
X0021309Y0012566D01*
X0021167Y0012508D01*
X0021024Y0012453D01*
X0020879Y0012402D01*
X0020733Y0012355D01*
X0020586Y0012312D01*
X0020438Y0012273D01*
X0020289Y0012237D01*
X0020139Y0012206D01*
X0019988Y0012178D01*
X0019837Y0012154D01*
X0019684Y0012134D01*
X0019532Y0012118D01*
X0019379Y0012106D01*
X0019226Y0012098D01*
X0019073Y0012094D01*
X0018919Y0012094D01*
X0018766Y0012098D01*
X0018613Y0012106D01*
X0018460Y0012118D01*
X0018308Y0012134D01*
X0018155Y0012154D01*
X0018004Y0012178D01*
X0017853Y0012206D01*
X0017703Y0012237D01*
X0017554Y0012273D01*
X0017406Y0012312D01*
X0017259Y0012355D01*
X0017113Y0012402D01*
X0016968Y0012453D01*
X0016825Y0012508D01*
X0016683Y0012566D01*
X0016543Y0012628D01*
X0016404Y0012693D01*
X0016267Y0012762D01*
X0016132Y0012835D01*
X0015999Y0012911D01*
X0015868Y0012991D01*
X0015739Y0013073D01*
X0015612Y0013160D01*
X0015487Y0013249D01*
X0015365Y0013342D01*
X0015246Y0013438D01*
X0015128Y0013537D01*
X0015014Y0013638D01*
X0014902Y0013743D01*
X0014793Y0013851D01*
X0014687Y0013962D01*
X0014583Y0014075D01*
X0014483Y0014191D01*
X0014385Y0014309D01*
X0014291Y0014430D01*
X0014200Y0014553D01*
X0014112Y0014679D01*
X0014028Y0014807D01*
X0013946Y0014937D01*
X0013869Y0015069D01*
X0013794Y0015203D01*
X0013723Y0015339D01*
X0013656Y0015477D01*
X0013592Y0015617D01*
X0013532Y0015758D01*
X0013476Y0015900D01*
X0013423Y0016044D01*
X0013374Y0016190D01*
X0013329Y0016336D01*
X0013288Y0016484D01*
X0013251Y0016632D01*
X0013217Y0016782D01*
X0013187Y0016933D01*
X0013162Y0017084D01*
X0013140Y0017235D01*
X0013122Y0017388D01*
X0013108Y0017540D01*
X0013098Y0017693D01*
X0013092Y0017847D01*
X0013090Y0018000D01*
X0261122Y0018000D02*
X0261124Y0018153D01*
X0261130Y0018307D01*
X0261140Y0018460D01*
X0261154Y0018612D01*
X0261172Y0018765D01*
X0261194Y0018916D01*
X0261219Y0019067D01*
X0261249Y0019218D01*
X0261283Y0019368D01*
X0261320Y0019516D01*
X0261361Y0019664D01*
X0261406Y0019810D01*
X0261455Y0019956D01*
X0261508Y0020100D01*
X0261564Y0020242D01*
X0261624Y0020383D01*
X0261688Y0020523D01*
X0261755Y0020661D01*
X0261826Y0020797D01*
X0261901Y0020931D01*
X0261978Y0021063D01*
X0262060Y0021193D01*
X0262144Y0021321D01*
X0262232Y0021447D01*
X0262323Y0021570D01*
X0262417Y0021691D01*
X0262515Y0021809D01*
X0262615Y0021925D01*
X0262719Y0022038D01*
X0262825Y0022149D01*
X0262934Y0022257D01*
X0263046Y0022362D01*
X0263160Y0022463D01*
X0263278Y0022562D01*
X0263397Y0022658D01*
X0263519Y0022751D01*
X0263644Y0022840D01*
X0263771Y0022927D01*
X0263900Y0023009D01*
X0264031Y0023089D01*
X0264164Y0023165D01*
X0264299Y0023238D01*
X0264436Y0023307D01*
X0264575Y0023372D01*
X0264715Y0023434D01*
X0264857Y0023492D01*
X0265000Y0023547D01*
X0265145Y0023598D01*
X0265291Y0023645D01*
X0265438Y0023688D01*
X0265586Y0023727D01*
X0265735Y0023763D01*
X0265885Y0023794D01*
X0266036Y0023822D01*
X0266187Y0023846D01*
X0266340Y0023866D01*
X0266492Y0023882D01*
X0266645Y0023894D01*
X0266798Y0023902D01*
X0266951Y0023906D01*
X0267105Y0023906D01*
X0267258Y0023902D01*
X0267411Y0023894D01*
X0267564Y0023882D01*
X0267716Y0023866D01*
X0267869Y0023846D01*
X0268020Y0023822D01*
X0268171Y0023794D01*
X0268321Y0023763D01*
X0268470Y0023727D01*
X0268618Y0023688D01*
X0268765Y0023645D01*
X0268911Y0023598D01*
X0269056Y0023547D01*
X0269199Y0023492D01*
X0269341Y0023434D01*
X0269481Y0023372D01*
X0269620Y0023307D01*
X0269757Y0023238D01*
X0269892Y0023165D01*
X0270025Y0023089D01*
X0270156Y0023009D01*
X0270285Y0022927D01*
X0270412Y0022840D01*
X0270537Y0022751D01*
X0270659Y0022658D01*
X0270778Y0022562D01*
X0270896Y0022463D01*
X0271010Y0022362D01*
X0271122Y0022257D01*
X0271231Y0022149D01*
X0271337Y0022038D01*
X0271441Y0021925D01*
X0271541Y0021809D01*
X0271639Y0021691D01*
X0271733Y0021570D01*
X0271824Y0021447D01*
X0271912Y0021321D01*
X0271996Y0021193D01*
X0272078Y0021063D01*
X0272155Y0020931D01*
X0272230Y0020797D01*
X0272301Y0020661D01*
X0272368Y0020523D01*
X0272432Y0020383D01*
X0272492Y0020242D01*
X0272548Y0020100D01*
X0272601Y0019956D01*
X0272650Y0019810D01*
X0272695Y0019664D01*
X0272736Y0019516D01*
X0272773Y0019368D01*
X0272807Y0019218D01*
X0272837Y0019067D01*
X0272862Y0018916D01*
X0272884Y0018765D01*
X0272902Y0018612D01*
X0272916Y0018460D01*
X0272926Y0018307D01*
X0272932Y0018153D01*
X0272934Y0018000D01*
X0272932Y0017847D01*
X0272926Y0017693D01*
X0272916Y0017540D01*
X0272902Y0017388D01*
X0272884Y0017235D01*
X0272862Y0017084D01*
X0272837Y0016933D01*
X0272807Y0016782D01*
X0272773Y0016632D01*
X0272736Y0016484D01*
X0272695Y0016336D01*
X0272650Y0016190D01*
X0272601Y0016044D01*
X0272548Y0015900D01*
X0272492Y0015758D01*
X0272432Y0015617D01*
X0272368Y0015477D01*
X0272301Y0015339D01*
X0272230Y0015203D01*
X0272155Y0015069D01*
X0272078Y0014937D01*
X0271996Y0014807D01*
X0271912Y0014679D01*
X0271824Y0014553D01*
X0271733Y0014430D01*
X0271639Y0014309D01*
X0271541Y0014191D01*
X0271441Y0014075D01*
X0271337Y0013962D01*
X0271231Y0013851D01*
X0271122Y0013743D01*
X0271010Y0013638D01*
X0270896Y0013537D01*
X0270778Y0013438D01*
X0270659Y0013342D01*
X0270537Y0013249D01*
X0270412Y0013160D01*
X0270285Y0013073D01*
X0270156Y0012991D01*
X0270025Y0012911D01*
X0269892Y0012835D01*
X0269757Y0012762D01*
X0269620Y0012693D01*
X0269481Y0012628D01*
X0269341Y0012566D01*
X0269199Y0012508D01*
X0269056Y0012453D01*
X0268911Y0012402D01*
X0268765Y0012355D01*
X0268618Y0012312D01*
X0268470Y0012273D01*
X0268321Y0012237D01*
X0268171Y0012206D01*
X0268020Y0012178D01*
X0267869Y0012154D01*
X0267716Y0012134D01*
X0267564Y0012118D01*
X0267411Y0012106D01*
X0267258Y0012098D01*
X0267105Y0012094D01*
X0266951Y0012094D01*
X0266798Y0012098D01*
X0266645Y0012106D01*
X0266492Y0012118D01*
X0266340Y0012134D01*
X0266187Y0012154D01*
X0266036Y0012178D01*
X0265885Y0012206D01*
X0265735Y0012237D01*
X0265586Y0012273D01*
X0265438Y0012312D01*
X0265291Y0012355D01*
X0265145Y0012402D01*
X0265000Y0012453D01*
X0264857Y0012508D01*
X0264715Y0012566D01*
X0264575Y0012628D01*
X0264436Y0012693D01*
X0264299Y0012762D01*
X0264164Y0012835D01*
X0264031Y0012911D01*
X0263900Y0012991D01*
X0263771Y0013073D01*
X0263644Y0013160D01*
X0263519Y0013249D01*
X0263397Y0013342D01*
X0263278Y0013438D01*
X0263160Y0013537D01*
X0263046Y0013638D01*
X0262934Y0013743D01*
X0262825Y0013851D01*
X0262719Y0013962D01*
X0262615Y0014075D01*
X0262515Y0014191D01*
X0262417Y0014309D01*
X0262323Y0014430D01*
X0262232Y0014553D01*
X0262144Y0014679D01*
X0262060Y0014807D01*
X0261978Y0014937D01*
X0261901Y0015069D01*
X0261826Y0015203D01*
X0261755Y0015339D01*
X0261688Y0015477D01*
X0261624Y0015617D01*
X0261564Y0015758D01*
X0261508Y0015900D01*
X0261455Y0016044D01*
X0261406Y0016190D01*
X0261361Y0016336D01*
X0261320Y0016484D01*
X0261283Y0016632D01*
X0261249Y0016782D01*
X0261219Y0016933D01*
X0261194Y0017084D01*
X0261172Y0017235D01*
X0261154Y0017388D01*
X0261140Y0017540D01*
X0261130Y0017693D01*
X0261124Y0017847D01*
X0261122Y0018000D01*
X0261122Y0136110D02*
X0261124Y0136263D01*
X0261130Y0136417D01*
X0261140Y0136570D01*
X0261154Y0136722D01*
X0261172Y0136875D01*
X0261194Y0137026D01*
X0261219Y0137177D01*
X0261249Y0137328D01*
X0261283Y0137478D01*
X0261320Y0137626D01*
X0261361Y0137774D01*
X0261406Y0137920D01*
X0261455Y0138066D01*
X0261508Y0138210D01*
X0261564Y0138352D01*
X0261624Y0138493D01*
X0261688Y0138633D01*
X0261755Y0138771D01*
X0261826Y0138907D01*
X0261901Y0139041D01*
X0261978Y0139173D01*
X0262060Y0139303D01*
X0262144Y0139431D01*
X0262232Y0139557D01*
X0262323Y0139680D01*
X0262417Y0139801D01*
X0262515Y0139919D01*
X0262615Y0140035D01*
X0262719Y0140148D01*
X0262825Y0140259D01*
X0262934Y0140367D01*
X0263046Y0140472D01*
X0263160Y0140573D01*
X0263278Y0140672D01*
X0263397Y0140768D01*
X0263519Y0140861D01*
X0263644Y0140950D01*
X0263771Y0141037D01*
X0263900Y0141119D01*
X0264031Y0141199D01*
X0264164Y0141275D01*
X0264299Y0141348D01*
X0264436Y0141417D01*
X0264575Y0141482D01*
X0264715Y0141544D01*
X0264857Y0141602D01*
X0265000Y0141657D01*
X0265145Y0141708D01*
X0265291Y0141755D01*
X0265438Y0141798D01*
X0265586Y0141837D01*
X0265735Y0141873D01*
X0265885Y0141904D01*
X0266036Y0141932D01*
X0266187Y0141956D01*
X0266340Y0141976D01*
X0266492Y0141992D01*
X0266645Y0142004D01*
X0266798Y0142012D01*
X0266951Y0142016D01*
X0267105Y0142016D01*
X0267258Y0142012D01*
X0267411Y0142004D01*
X0267564Y0141992D01*
X0267716Y0141976D01*
X0267869Y0141956D01*
X0268020Y0141932D01*
X0268171Y0141904D01*
X0268321Y0141873D01*
X0268470Y0141837D01*
X0268618Y0141798D01*
X0268765Y0141755D01*
X0268911Y0141708D01*
X0269056Y0141657D01*
X0269199Y0141602D01*
X0269341Y0141544D01*
X0269481Y0141482D01*
X0269620Y0141417D01*
X0269757Y0141348D01*
X0269892Y0141275D01*
X0270025Y0141199D01*
X0270156Y0141119D01*
X0270285Y0141037D01*
X0270412Y0140950D01*
X0270537Y0140861D01*
X0270659Y0140768D01*
X0270778Y0140672D01*
X0270896Y0140573D01*
X0271010Y0140472D01*
X0271122Y0140367D01*
X0271231Y0140259D01*
X0271337Y0140148D01*
X0271441Y0140035D01*
X0271541Y0139919D01*
X0271639Y0139801D01*
X0271733Y0139680D01*
X0271824Y0139557D01*
X0271912Y0139431D01*
X0271996Y0139303D01*
X0272078Y0139173D01*
X0272155Y0139041D01*
X0272230Y0138907D01*
X0272301Y0138771D01*
X0272368Y0138633D01*
X0272432Y0138493D01*
X0272492Y0138352D01*
X0272548Y0138210D01*
X0272601Y0138066D01*
X0272650Y0137920D01*
X0272695Y0137774D01*
X0272736Y0137626D01*
X0272773Y0137478D01*
X0272807Y0137328D01*
X0272837Y0137177D01*
X0272862Y0137026D01*
X0272884Y0136875D01*
X0272902Y0136722D01*
X0272916Y0136570D01*
X0272926Y0136417D01*
X0272932Y0136263D01*
X0272934Y0136110D01*
X0272932Y0135957D01*
X0272926Y0135803D01*
X0272916Y0135650D01*
X0272902Y0135498D01*
X0272884Y0135345D01*
X0272862Y0135194D01*
X0272837Y0135043D01*
X0272807Y0134892D01*
X0272773Y0134742D01*
X0272736Y0134594D01*
X0272695Y0134446D01*
X0272650Y0134300D01*
X0272601Y0134154D01*
X0272548Y0134010D01*
X0272492Y0133868D01*
X0272432Y0133727D01*
X0272368Y0133587D01*
X0272301Y0133449D01*
X0272230Y0133313D01*
X0272155Y0133179D01*
X0272078Y0133047D01*
X0271996Y0132917D01*
X0271912Y0132789D01*
X0271824Y0132663D01*
X0271733Y0132540D01*
X0271639Y0132419D01*
X0271541Y0132301D01*
X0271441Y0132185D01*
X0271337Y0132072D01*
X0271231Y0131961D01*
X0271122Y0131853D01*
X0271010Y0131748D01*
X0270896Y0131647D01*
X0270778Y0131548D01*
X0270659Y0131452D01*
X0270537Y0131359D01*
X0270412Y0131270D01*
X0270285Y0131183D01*
X0270156Y0131101D01*
X0270025Y0131021D01*
X0269892Y0130945D01*
X0269757Y0130872D01*
X0269620Y0130803D01*
X0269481Y0130738D01*
X0269341Y0130676D01*
X0269199Y0130618D01*
X0269056Y0130563D01*
X0268911Y0130512D01*
X0268765Y0130465D01*
X0268618Y0130422D01*
X0268470Y0130383D01*
X0268321Y0130347D01*
X0268171Y0130316D01*
X0268020Y0130288D01*
X0267869Y0130264D01*
X0267716Y0130244D01*
X0267564Y0130228D01*
X0267411Y0130216D01*
X0267258Y0130208D01*
X0267105Y0130204D01*
X0266951Y0130204D01*
X0266798Y0130208D01*
X0266645Y0130216D01*
X0266492Y0130228D01*
X0266340Y0130244D01*
X0266187Y0130264D01*
X0266036Y0130288D01*
X0265885Y0130316D01*
X0265735Y0130347D01*
X0265586Y0130383D01*
X0265438Y0130422D01*
X0265291Y0130465D01*
X0265145Y0130512D01*
X0265000Y0130563D01*
X0264857Y0130618D01*
X0264715Y0130676D01*
X0264575Y0130738D01*
X0264436Y0130803D01*
X0264299Y0130872D01*
X0264164Y0130945D01*
X0264031Y0131021D01*
X0263900Y0131101D01*
X0263771Y0131183D01*
X0263644Y0131270D01*
X0263519Y0131359D01*
X0263397Y0131452D01*
X0263278Y0131548D01*
X0263160Y0131647D01*
X0263046Y0131748D01*
X0262934Y0131853D01*
X0262825Y0131961D01*
X0262719Y0132072D01*
X0262615Y0132185D01*
X0262515Y0132301D01*
X0262417Y0132419D01*
X0262323Y0132540D01*
X0262232Y0132663D01*
X0262144Y0132789D01*
X0262060Y0132917D01*
X0261978Y0133047D01*
X0261901Y0133179D01*
X0261826Y0133313D01*
X0261755Y0133449D01*
X0261688Y0133587D01*
X0261624Y0133727D01*
X0261564Y0133868D01*
X0261508Y0134010D01*
X0261455Y0134154D01*
X0261406Y0134300D01*
X0261361Y0134446D01*
X0261320Y0134594D01*
X0261283Y0134742D01*
X0261249Y0134892D01*
X0261219Y0135043D01*
X0261194Y0135194D01*
X0261172Y0135345D01*
X0261154Y0135498D01*
X0261140Y0135650D01*
X0261130Y0135803D01*
X0261124Y0135957D01*
X0261122Y0136110D01*
X0271752Y0315244D02*
X0271754Y0315328D01*
X0271760Y0315411D01*
X0271770Y0315494D01*
X0271784Y0315577D01*
X0271801Y0315659D01*
X0271823Y0315740D01*
X0271848Y0315819D01*
X0271877Y0315898D01*
X0271910Y0315975D01*
X0271946Y0316050D01*
X0271986Y0316124D01*
X0272029Y0316196D01*
X0272076Y0316265D01*
X0272126Y0316332D01*
X0272179Y0316397D01*
X0272235Y0316459D01*
X0272293Y0316519D01*
X0272355Y0316576D01*
X0272419Y0316629D01*
X0272486Y0316680D01*
X0272555Y0316727D01*
X0272626Y0316772D01*
X0272699Y0316812D01*
X0272774Y0316849D01*
X0272851Y0316883D01*
X0272929Y0316913D01*
X0273008Y0316939D01*
X0273089Y0316962D01*
X0273171Y0316980D01*
X0273253Y0316995D01*
X0273336Y0317006D01*
X0273419Y0317013D01*
X0273503Y0317016D01*
X0273587Y0317015D01*
X0273670Y0317010D01*
X0273754Y0317001D01*
X0273836Y0316988D01*
X0273918Y0316972D01*
X0273999Y0316951D01*
X0274080Y0316927D01*
X0274158Y0316899D01*
X0274236Y0316867D01*
X0274312Y0316831D01*
X0274386Y0316792D01*
X0274458Y0316750D01*
X0274528Y0316704D01*
X0274596Y0316655D01*
X0274661Y0316603D01*
X0274724Y0316548D01*
X0274784Y0316490D01*
X0274842Y0316429D01*
X0274896Y0316365D01*
X0274948Y0316299D01*
X0274996Y0316231D01*
X0275041Y0316160D01*
X0275082Y0316087D01*
X0275121Y0316013D01*
X0275155Y0315937D01*
X0275186Y0315859D01*
X0275213Y0315780D01*
X0275237Y0315699D01*
X0275256Y0315618D01*
X0275272Y0315536D01*
X0275284Y0315453D01*
X0275292Y0315369D01*
X0275296Y0315286D01*
X0275296Y0315202D01*
X0275292Y0315119D01*
X0275284Y0315035D01*
X0275272Y0314952D01*
X0275256Y0314870D01*
X0275237Y0314789D01*
X0275213Y0314708D01*
X0275186Y0314629D01*
X0275155Y0314551D01*
X0275121Y0314475D01*
X0275082Y0314401D01*
X0275041Y0314328D01*
X0274996Y0314257D01*
X0274948Y0314189D01*
X0274896Y0314123D01*
X0274842Y0314059D01*
X0274784Y0313998D01*
X0274724Y0313940D01*
X0274661Y0313885D01*
X0274596Y0313833D01*
X0274528Y0313784D01*
X0274458Y0313738D01*
X0274386Y0313696D01*
X0274312Y0313657D01*
X0274236Y0313621D01*
X0274158Y0313589D01*
X0274080Y0313561D01*
X0273999Y0313537D01*
X0273918Y0313516D01*
X0273836Y0313500D01*
X0273754Y0313487D01*
X0273670Y0313478D01*
X0273587Y0313473D01*
X0273503Y0313472D01*
X0273419Y0313475D01*
X0273336Y0313482D01*
X0273253Y0313493D01*
X0273171Y0313508D01*
X0273089Y0313526D01*
X0273008Y0313549D01*
X0272929Y0313575D01*
X0272851Y0313605D01*
X0272774Y0313639D01*
X0272699Y0313676D01*
X0272626Y0313716D01*
X0272555Y0313761D01*
X0272486Y0313808D01*
X0272419Y0313859D01*
X0272355Y0313912D01*
X0272293Y0313969D01*
X0272235Y0314029D01*
X0272179Y0314091D01*
X0272126Y0314156D01*
X0272076Y0314223D01*
X0272029Y0314292D01*
X0271986Y0314364D01*
X0271946Y0314438D01*
X0271910Y0314513D01*
X0271877Y0314590D01*
X0271848Y0314669D01*
X0271823Y0314748D01*
X0271801Y0314829D01*
X0271784Y0314911D01*
X0271770Y0314994D01*
X0271760Y0315077D01*
X0271754Y0315160D01*
X0271752Y0315244D01*
X0271752Y0327055D02*
X0271754Y0327139D01*
X0271760Y0327222D01*
X0271770Y0327305D01*
X0271784Y0327388D01*
X0271801Y0327470D01*
X0271823Y0327551D01*
X0271848Y0327630D01*
X0271877Y0327709D01*
X0271910Y0327786D01*
X0271946Y0327861D01*
X0271986Y0327935D01*
X0272029Y0328007D01*
X0272076Y0328076D01*
X0272126Y0328143D01*
X0272179Y0328208D01*
X0272235Y0328270D01*
X0272293Y0328330D01*
X0272355Y0328387D01*
X0272419Y0328440D01*
X0272486Y0328491D01*
X0272555Y0328538D01*
X0272626Y0328583D01*
X0272699Y0328623D01*
X0272774Y0328660D01*
X0272851Y0328694D01*
X0272929Y0328724D01*
X0273008Y0328750D01*
X0273089Y0328773D01*
X0273171Y0328791D01*
X0273253Y0328806D01*
X0273336Y0328817D01*
X0273419Y0328824D01*
X0273503Y0328827D01*
X0273587Y0328826D01*
X0273670Y0328821D01*
X0273754Y0328812D01*
X0273836Y0328799D01*
X0273918Y0328783D01*
X0273999Y0328762D01*
X0274080Y0328738D01*
X0274158Y0328710D01*
X0274236Y0328678D01*
X0274312Y0328642D01*
X0274386Y0328603D01*
X0274458Y0328561D01*
X0274528Y0328515D01*
X0274596Y0328466D01*
X0274661Y0328414D01*
X0274724Y0328359D01*
X0274784Y0328301D01*
X0274842Y0328240D01*
X0274896Y0328176D01*
X0274948Y0328110D01*
X0274996Y0328042D01*
X0275041Y0327971D01*
X0275082Y0327898D01*
X0275121Y0327824D01*
X0275155Y0327748D01*
X0275186Y0327670D01*
X0275213Y0327591D01*
X0275237Y0327510D01*
X0275256Y0327429D01*
X0275272Y0327347D01*
X0275284Y0327264D01*
X0275292Y0327180D01*
X0275296Y0327097D01*
X0275296Y0327013D01*
X0275292Y0326930D01*
X0275284Y0326846D01*
X0275272Y0326763D01*
X0275256Y0326681D01*
X0275237Y0326600D01*
X0275213Y0326519D01*
X0275186Y0326440D01*
X0275155Y0326362D01*
X0275121Y0326286D01*
X0275082Y0326212D01*
X0275041Y0326139D01*
X0274996Y0326068D01*
X0274948Y0326000D01*
X0274896Y0325934D01*
X0274842Y0325870D01*
X0274784Y0325809D01*
X0274724Y0325751D01*
X0274661Y0325696D01*
X0274596Y0325644D01*
X0274528Y0325595D01*
X0274458Y0325549D01*
X0274386Y0325507D01*
X0274312Y0325468D01*
X0274236Y0325432D01*
X0274158Y0325400D01*
X0274080Y0325372D01*
X0273999Y0325348D01*
X0273918Y0325327D01*
X0273836Y0325311D01*
X0273754Y0325298D01*
X0273670Y0325289D01*
X0273587Y0325284D01*
X0273503Y0325283D01*
X0273419Y0325286D01*
X0273336Y0325293D01*
X0273253Y0325304D01*
X0273171Y0325319D01*
X0273089Y0325337D01*
X0273008Y0325360D01*
X0272929Y0325386D01*
X0272851Y0325416D01*
X0272774Y0325450D01*
X0272699Y0325487D01*
X0272626Y0325527D01*
X0272555Y0325572D01*
X0272486Y0325619D01*
X0272419Y0325670D01*
X0272355Y0325723D01*
X0272293Y0325780D01*
X0272235Y0325840D01*
X0272179Y0325902D01*
X0272126Y0325967D01*
X0272076Y0326034D01*
X0272029Y0326103D01*
X0271986Y0326175D01*
X0271946Y0326249D01*
X0271910Y0326324D01*
X0271877Y0326401D01*
X0271848Y0326480D01*
X0271823Y0326559D01*
X0271801Y0326640D01*
X0271784Y0326722D01*
X0271770Y0326805D01*
X0271760Y0326888D01*
X0271754Y0326971D01*
X0271752Y0327055D01*
X0261122Y0360520D02*
X0261124Y0360673D01*
X0261130Y0360827D01*
X0261140Y0360980D01*
X0261154Y0361132D01*
X0261172Y0361285D01*
X0261194Y0361436D01*
X0261219Y0361587D01*
X0261249Y0361738D01*
X0261283Y0361888D01*
X0261320Y0362036D01*
X0261361Y0362184D01*
X0261406Y0362330D01*
X0261455Y0362476D01*
X0261508Y0362620D01*
X0261564Y0362762D01*
X0261624Y0362903D01*
X0261688Y0363043D01*
X0261755Y0363181D01*
X0261826Y0363317D01*
X0261901Y0363451D01*
X0261978Y0363583D01*
X0262060Y0363713D01*
X0262144Y0363841D01*
X0262232Y0363967D01*
X0262323Y0364090D01*
X0262417Y0364211D01*
X0262515Y0364329D01*
X0262615Y0364445D01*
X0262719Y0364558D01*
X0262825Y0364669D01*
X0262934Y0364777D01*
X0263046Y0364882D01*
X0263160Y0364983D01*
X0263278Y0365082D01*
X0263397Y0365178D01*
X0263519Y0365271D01*
X0263644Y0365360D01*
X0263771Y0365447D01*
X0263900Y0365529D01*
X0264031Y0365609D01*
X0264164Y0365685D01*
X0264299Y0365758D01*
X0264436Y0365827D01*
X0264575Y0365892D01*
X0264715Y0365954D01*
X0264857Y0366012D01*
X0265000Y0366067D01*
X0265145Y0366118D01*
X0265291Y0366165D01*
X0265438Y0366208D01*
X0265586Y0366247D01*
X0265735Y0366283D01*
X0265885Y0366314D01*
X0266036Y0366342D01*
X0266187Y0366366D01*
X0266340Y0366386D01*
X0266492Y0366402D01*
X0266645Y0366414D01*
X0266798Y0366422D01*
X0266951Y0366426D01*
X0267105Y0366426D01*
X0267258Y0366422D01*
X0267411Y0366414D01*
X0267564Y0366402D01*
X0267716Y0366386D01*
X0267869Y0366366D01*
X0268020Y0366342D01*
X0268171Y0366314D01*
X0268321Y0366283D01*
X0268470Y0366247D01*
X0268618Y0366208D01*
X0268765Y0366165D01*
X0268911Y0366118D01*
X0269056Y0366067D01*
X0269199Y0366012D01*
X0269341Y0365954D01*
X0269481Y0365892D01*
X0269620Y0365827D01*
X0269757Y0365758D01*
X0269892Y0365685D01*
X0270025Y0365609D01*
X0270156Y0365529D01*
X0270285Y0365447D01*
X0270412Y0365360D01*
X0270537Y0365271D01*
X0270659Y0365178D01*
X0270778Y0365082D01*
X0270896Y0364983D01*
X0271010Y0364882D01*
X0271122Y0364777D01*
X0271231Y0364669D01*
X0271337Y0364558D01*
X0271441Y0364445D01*
X0271541Y0364329D01*
X0271639Y0364211D01*
X0271733Y0364090D01*
X0271824Y0363967D01*
X0271912Y0363841D01*
X0271996Y0363713D01*
X0272078Y0363583D01*
X0272155Y0363451D01*
X0272230Y0363317D01*
X0272301Y0363181D01*
X0272368Y0363043D01*
X0272432Y0362903D01*
X0272492Y0362762D01*
X0272548Y0362620D01*
X0272601Y0362476D01*
X0272650Y0362330D01*
X0272695Y0362184D01*
X0272736Y0362036D01*
X0272773Y0361888D01*
X0272807Y0361738D01*
X0272837Y0361587D01*
X0272862Y0361436D01*
X0272884Y0361285D01*
X0272902Y0361132D01*
X0272916Y0360980D01*
X0272926Y0360827D01*
X0272932Y0360673D01*
X0272934Y0360520D01*
X0272932Y0360367D01*
X0272926Y0360213D01*
X0272916Y0360060D01*
X0272902Y0359908D01*
X0272884Y0359755D01*
X0272862Y0359604D01*
X0272837Y0359453D01*
X0272807Y0359302D01*
X0272773Y0359152D01*
X0272736Y0359004D01*
X0272695Y0358856D01*
X0272650Y0358710D01*
X0272601Y0358564D01*
X0272548Y0358420D01*
X0272492Y0358278D01*
X0272432Y0358137D01*
X0272368Y0357997D01*
X0272301Y0357859D01*
X0272230Y0357723D01*
X0272155Y0357589D01*
X0272078Y0357457D01*
X0271996Y0357327D01*
X0271912Y0357199D01*
X0271824Y0357073D01*
X0271733Y0356950D01*
X0271639Y0356829D01*
X0271541Y0356711D01*
X0271441Y0356595D01*
X0271337Y0356482D01*
X0271231Y0356371D01*
X0271122Y0356263D01*
X0271010Y0356158D01*
X0270896Y0356057D01*
X0270778Y0355958D01*
X0270659Y0355862D01*
X0270537Y0355769D01*
X0270412Y0355680D01*
X0270285Y0355593D01*
X0270156Y0355511D01*
X0270025Y0355431D01*
X0269892Y0355355D01*
X0269757Y0355282D01*
X0269620Y0355213D01*
X0269481Y0355148D01*
X0269341Y0355086D01*
X0269199Y0355028D01*
X0269056Y0354973D01*
X0268911Y0354922D01*
X0268765Y0354875D01*
X0268618Y0354832D01*
X0268470Y0354793D01*
X0268321Y0354757D01*
X0268171Y0354726D01*
X0268020Y0354698D01*
X0267869Y0354674D01*
X0267716Y0354654D01*
X0267564Y0354638D01*
X0267411Y0354626D01*
X0267258Y0354618D01*
X0267105Y0354614D01*
X0266951Y0354614D01*
X0266798Y0354618D01*
X0266645Y0354626D01*
X0266492Y0354638D01*
X0266340Y0354654D01*
X0266187Y0354674D01*
X0266036Y0354698D01*
X0265885Y0354726D01*
X0265735Y0354757D01*
X0265586Y0354793D01*
X0265438Y0354832D01*
X0265291Y0354875D01*
X0265145Y0354922D01*
X0265000Y0354973D01*
X0264857Y0355028D01*
X0264715Y0355086D01*
X0264575Y0355148D01*
X0264436Y0355213D01*
X0264299Y0355282D01*
X0264164Y0355355D01*
X0264031Y0355431D01*
X0263900Y0355511D01*
X0263771Y0355593D01*
X0263644Y0355680D01*
X0263519Y0355769D01*
X0263397Y0355862D01*
X0263278Y0355958D01*
X0263160Y0356057D01*
X0263046Y0356158D01*
X0262934Y0356263D01*
X0262825Y0356371D01*
X0262719Y0356482D01*
X0262615Y0356595D01*
X0262515Y0356711D01*
X0262417Y0356829D01*
X0262323Y0356950D01*
X0262232Y0357073D01*
X0262144Y0357199D01*
X0262060Y0357327D01*
X0261978Y0357457D01*
X0261901Y0357589D01*
X0261826Y0357723D01*
X0261755Y0357859D01*
X0261688Y0357997D01*
X0261624Y0358137D01*
X0261564Y0358278D01*
X0261508Y0358420D01*
X0261455Y0358564D01*
X0261406Y0358710D01*
X0261361Y0358856D01*
X0261320Y0359004D01*
X0261283Y0359152D01*
X0261249Y0359302D01*
X0261219Y0359453D01*
X0261194Y0359604D01*
X0261172Y0359755D01*
X0261154Y0359908D01*
X0261140Y0360060D01*
X0261130Y0360213D01*
X0261124Y0360367D01*
X0261122Y0360520D01*
X0013090Y0360520D02*
X0013092Y0360673D01*
X0013098Y0360827D01*
X0013108Y0360980D01*
X0013122Y0361132D01*
X0013140Y0361285D01*
X0013162Y0361436D01*
X0013187Y0361587D01*
X0013217Y0361738D01*
X0013251Y0361888D01*
X0013288Y0362036D01*
X0013329Y0362184D01*
X0013374Y0362330D01*
X0013423Y0362476D01*
X0013476Y0362620D01*
X0013532Y0362762D01*
X0013592Y0362903D01*
X0013656Y0363043D01*
X0013723Y0363181D01*
X0013794Y0363317D01*
X0013869Y0363451D01*
X0013946Y0363583D01*
X0014028Y0363713D01*
X0014112Y0363841D01*
X0014200Y0363967D01*
X0014291Y0364090D01*
X0014385Y0364211D01*
X0014483Y0364329D01*
X0014583Y0364445D01*
X0014687Y0364558D01*
X0014793Y0364669D01*
X0014902Y0364777D01*
X0015014Y0364882D01*
X0015128Y0364983D01*
X0015246Y0365082D01*
X0015365Y0365178D01*
X0015487Y0365271D01*
X0015612Y0365360D01*
X0015739Y0365447D01*
X0015868Y0365529D01*
X0015999Y0365609D01*
X0016132Y0365685D01*
X0016267Y0365758D01*
X0016404Y0365827D01*
X0016543Y0365892D01*
X0016683Y0365954D01*
X0016825Y0366012D01*
X0016968Y0366067D01*
X0017113Y0366118D01*
X0017259Y0366165D01*
X0017406Y0366208D01*
X0017554Y0366247D01*
X0017703Y0366283D01*
X0017853Y0366314D01*
X0018004Y0366342D01*
X0018155Y0366366D01*
X0018308Y0366386D01*
X0018460Y0366402D01*
X0018613Y0366414D01*
X0018766Y0366422D01*
X0018919Y0366426D01*
X0019073Y0366426D01*
X0019226Y0366422D01*
X0019379Y0366414D01*
X0019532Y0366402D01*
X0019684Y0366386D01*
X0019837Y0366366D01*
X0019988Y0366342D01*
X0020139Y0366314D01*
X0020289Y0366283D01*
X0020438Y0366247D01*
X0020586Y0366208D01*
X0020733Y0366165D01*
X0020879Y0366118D01*
X0021024Y0366067D01*
X0021167Y0366012D01*
X0021309Y0365954D01*
X0021449Y0365892D01*
X0021588Y0365827D01*
X0021725Y0365758D01*
X0021860Y0365685D01*
X0021993Y0365609D01*
X0022124Y0365529D01*
X0022253Y0365447D01*
X0022380Y0365360D01*
X0022505Y0365271D01*
X0022627Y0365178D01*
X0022746Y0365082D01*
X0022864Y0364983D01*
X0022978Y0364882D01*
X0023090Y0364777D01*
X0023199Y0364669D01*
X0023305Y0364558D01*
X0023409Y0364445D01*
X0023509Y0364329D01*
X0023607Y0364211D01*
X0023701Y0364090D01*
X0023792Y0363967D01*
X0023880Y0363841D01*
X0023964Y0363713D01*
X0024046Y0363583D01*
X0024123Y0363451D01*
X0024198Y0363317D01*
X0024269Y0363181D01*
X0024336Y0363043D01*
X0024400Y0362903D01*
X0024460Y0362762D01*
X0024516Y0362620D01*
X0024569Y0362476D01*
X0024618Y0362330D01*
X0024663Y0362184D01*
X0024704Y0362036D01*
X0024741Y0361888D01*
X0024775Y0361738D01*
X0024805Y0361587D01*
X0024830Y0361436D01*
X0024852Y0361285D01*
X0024870Y0361132D01*
X0024884Y0360980D01*
X0024894Y0360827D01*
X0024900Y0360673D01*
X0024902Y0360520D01*
X0024900Y0360367D01*
X0024894Y0360213D01*
X0024884Y0360060D01*
X0024870Y0359908D01*
X0024852Y0359755D01*
X0024830Y0359604D01*
X0024805Y0359453D01*
X0024775Y0359302D01*
X0024741Y0359152D01*
X0024704Y0359004D01*
X0024663Y0358856D01*
X0024618Y0358710D01*
X0024569Y0358564D01*
X0024516Y0358420D01*
X0024460Y0358278D01*
X0024400Y0358137D01*
X0024336Y0357997D01*
X0024269Y0357859D01*
X0024198Y0357723D01*
X0024123Y0357589D01*
X0024046Y0357457D01*
X0023964Y0357327D01*
X0023880Y0357199D01*
X0023792Y0357073D01*
X0023701Y0356950D01*
X0023607Y0356829D01*
X0023509Y0356711D01*
X0023409Y0356595D01*
X0023305Y0356482D01*
X0023199Y0356371D01*
X0023090Y0356263D01*
X0022978Y0356158D01*
X0022864Y0356057D01*
X0022746Y0355958D01*
X0022627Y0355862D01*
X0022505Y0355769D01*
X0022380Y0355680D01*
X0022253Y0355593D01*
X0022124Y0355511D01*
X0021993Y0355431D01*
X0021860Y0355355D01*
X0021725Y0355282D01*
X0021588Y0355213D01*
X0021449Y0355148D01*
X0021309Y0355086D01*
X0021167Y0355028D01*
X0021024Y0354973D01*
X0020879Y0354922D01*
X0020733Y0354875D01*
X0020586Y0354832D01*
X0020438Y0354793D01*
X0020289Y0354757D01*
X0020139Y0354726D01*
X0019988Y0354698D01*
X0019837Y0354674D01*
X0019684Y0354654D01*
X0019532Y0354638D01*
X0019379Y0354626D01*
X0019226Y0354618D01*
X0019073Y0354614D01*
X0018919Y0354614D01*
X0018766Y0354618D01*
X0018613Y0354626D01*
X0018460Y0354638D01*
X0018308Y0354654D01*
X0018155Y0354674D01*
X0018004Y0354698D01*
X0017853Y0354726D01*
X0017703Y0354757D01*
X0017554Y0354793D01*
X0017406Y0354832D01*
X0017259Y0354875D01*
X0017113Y0354922D01*
X0016968Y0354973D01*
X0016825Y0355028D01*
X0016683Y0355086D01*
X0016543Y0355148D01*
X0016404Y0355213D01*
X0016267Y0355282D01*
X0016132Y0355355D01*
X0015999Y0355431D01*
X0015868Y0355511D01*
X0015739Y0355593D01*
X0015612Y0355680D01*
X0015487Y0355769D01*
X0015365Y0355862D01*
X0015246Y0355958D01*
X0015128Y0356057D01*
X0015014Y0356158D01*
X0014902Y0356263D01*
X0014793Y0356371D01*
X0014687Y0356482D01*
X0014583Y0356595D01*
X0014483Y0356711D01*
X0014385Y0356829D01*
X0014291Y0356950D01*
X0014200Y0357073D01*
X0014112Y0357199D01*
X0014028Y0357327D01*
X0013946Y0357457D01*
X0013869Y0357589D01*
X0013794Y0357723D01*
X0013723Y0357859D01*
X0013656Y0357997D01*
X0013592Y0358137D01*
X0013532Y0358278D01*
X0013476Y0358420D01*
X0013423Y0358564D01*
X0013374Y0358710D01*
X0013329Y0358856D01*
X0013288Y0359004D01*
X0013251Y0359152D01*
X0013217Y0359302D01*
X0013187Y0359453D01*
X0013162Y0359604D01*
X0013140Y0359755D01*
X0013122Y0359908D01*
X0013108Y0360060D01*
X0013098Y0360213D01*
X0013092Y0360367D01*
X0013090Y0360520D01*
D11*
X0009547Y0145953D03*
X0017421Y0145953D03*
D12*
X0072146Y0223512D03*
X0072146Y0226661D03*
X0072146Y0229811D03*
X0072146Y0232961D03*
X0072146Y0236110D03*
X0072146Y0239260D03*
X0072146Y0242409D03*
X0072146Y0245559D03*
X0072146Y0248709D03*
X0072146Y0251858D03*
X0072146Y0255008D03*
X0072146Y0258157D03*
X0072146Y0261307D03*
X0072146Y0264457D03*
X0072146Y0267606D03*
X0072146Y0270756D03*
X0072146Y0273906D03*
X0072146Y0277055D03*
D13*
G36*
X0162685Y0130098D02*
X0160258Y0123429D01*
X0153773Y0125790D01*
X0156200Y0132459D01*
X0162685Y0130098D01*
G37*
G36*
X0181183Y0123365D02*
X0178756Y0116696D01*
X0172271Y0119057D01*
X0174698Y0125726D01*
X0181183Y0123365D01*
G37*
G36*
X0200992Y0093299D02*
X0198565Y0086630D01*
X0192080Y0088991D01*
X0194507Y0095660D01*
X0200992Y0093299D01*
G37*
G36*
X0219489Y0086567D02*
X0217062Y0079898D01*
X0210577Y0082259D01*
X0213004Y0088928D01*
X0219489Y0086567D01*
G37*
G36*
X0207805Y0066275D02*
X0205378Y0059606D01*
X0198893Y0061967D01*
X0201320Y0068636D01*
X0207805Y0066275D01*
G37*
G36*
X0189307Y0073008D02*
X0186880Y0066339D01*
X0180395Y0068700D01*
X0182822Y0075369D01*
X0189307Y0073008D01*
G37*
G36*
X0162399Y0071756D02*
X0159972Y0065087D01*
X0153487Y0067448D01*
X0155914Y0074117D01*
X0162399Y0071756D01*
G37*
G36*
X0143901Y0078489D02*
X0141474Y0071820D01*
X0134989Y0074181D01*
X0137416Y0080850D01*
X0143901Y0078489D01*
G37*
G36*
X0170523Y0021398D02*
X0168096Y0014729D01*
X0161611Y0017090D01*
X0164038Y0023759D01*
X0170523Y0021398D01*
G37*
G36*
X0189021Y0014666D02*
X0186594Y0007997D01*
X0180109Y0010358D01*
X0182536Y0017027D01*
X0189021Y0014666D01*
G37*
G36*
X0227613Y0036209D02*
X0225186Y0029540D01*
X0218701Y0031901D01*
X0221128Y0038570D01*
X0227613Y0036209D01*
G37*
G36*
X0246111Y0029476D02*
X0243684Y0022807D01*
X0237199Y0025168D01*
X0239626Y0031837D01*
X0246111Y0029476D01*
G37*
G36*
X0264895Y0081085D02*
X0262468Y0074416D01*
X0255983Y0076777D01*
X0258410Y0083446D01*
X0264895Y0081085D01*
G37*
G36*
X0246397Y0087818D02*
X0243970Y0081149D01*
X0237485Y0083510D01*
X0239912Y0090179D01*
X0246397Y0087818D01*
G37*
G36*
X0238274Y0138176D02*
X0235847Y0131507D01*
X0229362Y0133868D01*
X0231789Y0140537D01*
X0238274Y0138176D01*
G37*
G36*
X0219776Y0144908D02*
X0217349Y0138239D01*
X0210864Y0140600D01*
X0213291Y0147269D01*
X0219776Y0144908D01*
G37*
D14*
X0094390Y0134142D03*
X0069587Y0134142D03*
X0055020Y0134142D03*
X0030217Y0134142D03*
D15*
X0273524Y0315244D03*
X0273524Y0327055D03*
D16*
G36*
X0089592Y0086164D02*
X0085407Y0081979D01*
X0080528Y0086858D01*
X0084713Y0091043D01*
X0089592Y0086164D01*
G37*
G36*
X0079980Y0104106D02*
X0084165Y0099921D01*
X0079286Y0095042D01*
X0075101Y0099227D01*
X0079980Y0104106D01*
G37*
G36*
X0067452Y0116633D02*
X0071637Y0112448D01*
X0066758Y0107569D01*
X0062573Y0111754D01*
X0067452Y0116633D01*
G37*
G36*
X0045320Y0094501D02*
X0049505Y0090316D01*
X0044626Y0085437D01*
X0040441Y0089622D01*
X0045320Y0094501D01*
G37*
G36*
X0025410Y0086858D02*
X0029595Y0091043D01*
X0034474Y0086164D01*
X0030289Y0081979D01*
X0025410Y0086858D01*
G37*
G36*
X0012882Y0074330D02*
X0017067Y0078515D01*
X0021946Y0073636D01*
X0017761Y0069451D01*
X0012882Y0074330D01*
G37*
G36*
X0035014Y0052198D02*
X0039199Y0056383D01*
X0044078Y0051504D01*
X0039893Y0047319D01*
X0035014Y0052198D01*
G37*
G36*
X0044626Y0034256D02*
X0040441Y0038441D01*
X0045320Y0043320D01*
X0049505Y0039135D01*
X0044626Y0034256D01*
G37*
G36*
X0057154Y0021729D02*
X0052969Y0025914D01*
X0057848Y0030793D01*
X0062033Y0026608D01*
X0057154Y0021729D01*
G37*
G36*
X0079286Y0043861D02*
X0075101Y0048046D01*
X0079980Y0052925D01*
X0084165Y0048740D01*
X0079286Y0043861D01*
G37*
G36*
X0066758Y0056388D02*
X0062573Y0060573D01*
X0067452Y0065452D01*
X0071637Y0061267D01*
X0066758Y0056388D01*
G37*
G36*
X0047542Y0064726D02*
X0051727Y0068911D01*
X0056606Y0064032D01*
X0052421Y0059847D01*
X0047542Y0064726D01*
G37*
G36*
X0057848Y0081974D02*
X0062033Y0077789D01*
X0057154Y0072910D01*
X0052969Y0077095D01*
X0057848Y0081974D01*
G37*
G36*
X0077065Y0073636D02*
X0072880Y0069451D01*
X0068001Y0074330D01*
X0072186Y0078515D01*
X0077065Y0073636D01*
G37*
G36*
X0099196Y0051504D02*
X0095011Y0047319D01*
X0090132Y0052198D01*
X0094317Y0056383D01*
X0099196Y0051504D01*
G37*
G36*
X0111724Y0064032D02*
X0107539Y0059847D01*
X0102660Y0064726D01*
X0106845Y0068911D01*
X0111724Y0064032D01*
G37*
D17*
X0018996Y0018000D03*
X0267028Y0018000D03*
X0267028Y0136110D03*
X0267028Y0360520D03*
X0018996Y0360520D03*
D18*
X0098917Y0014063D03*
X0108917Y0014063D03*
X0118917Y0014063D03*
X0128917Y0014063D03*
X0138917Y0014063D03*
X0148917Y0014063D03*
D19*
X0108917Y0045559D03*
X0052461Y0010126D03*
X0162697Y0143984D03*
X0158000Y0179417D03*
X0172539Y0210913D03*
X0188000Y0171543D03*
X0207972Y0183354D03*
X0218000Y0171543D03*
X0223130Y0187291D03*
X0267028Y0171543D03*
X0270965Y0108551D03*
X0247343Y0266031D03*
X0243406Y0273906D03*
X0239469Y0277843D03*
X0235531Y0269969D03*
X0247343Y0297528D03*
X0263091Y0297528D03*
X0160728Y0277843D03*
X0148000Y0286504D03*
X0143012Y0280205D03*
X0138000Y0273906D03*
X0128000Y0277055D03*
X0133169Y0289654D03*
X0113484Y0283354D03*
X0156791Y0329024D03*
X0052854Y0210913D03*
X0038681Y0218787D03*
D20*
X0038000Y0266031D03*
X0118000Y0266031D03*
M02*
