%
M48
M72
T01C0.01969
T02C0.02362
T03C0.03543
%
T01
X50492Y218035
X70177Y206224
X88000Y206224
X138000Y273154
X143012Y279453
X148000Y285752
X133169Y288902
X128000Y276303
X113484Y282602
X156791Y328272
X160728Y277091
X172539Y210161
X158000Y178665
X188000Y170791
X207972Y182602
X218000Y170791
X228000Y174728
X223130Y186539
X267028Y170791
X251280Y265280
X247343Y273154
X243406Y277091
X239469Y269217
X247343Y296776
X263091Y296776
X62303Y68429
X143012Y44807
T02
X38000Y265280
X118000Y265280
T03
X273524Y326303
X273524Y314492
M30
