G75*
%MOIN*%
%OFA0B0*%
%FSLAX25Y25*%
%IPPOS*%
%LPD*%
%AMOC8*
5,1,8,0,0,1.08239X$1,22.5*
%
%ADD10C,0.00000*%
%ADD11C,0.00039*%
%ADD12R,0.04331X0.05512*%
%ADD13R,0.15748X0.01575*%
%ADD14R,0.06299X0.06102*%
%ADD15R,0.09055X0.06299*%
%ADD16R,0.05118X0.06102*%
%ADD17C,0.01000*%
%ADD18C,0.03569*%
%ADD19C,0.01600*%
%ADD20C,0.03962*%
%ADD21C,0.01200*%
%ADD22C,0.02400*%
D10*
X0003248Y0011343D02*
X0003248Y0342051D01*
X0003251Y0342289D01*
X0003259Y0342527D01*
X0003274Y0342764D01*
X0003294Y0343001D01*
X0003320Y0343237D01*
X0003351Y0343473D01*
X0003388Y0343708D01*
X0003431Y0343942D01*
X0003480Y0344175D01*
X0003534Y0344407D01*
X0003594Y0344637D01*
X0003659Y0344866D01*
X0003730Y0345093D01*
X0003806Y0345318D01*
X0003888Y0345541D01*
X0003975Y0345763D01*
X0004067Y0345982D01*
X0004165Y0346199D01*
X0004267Y0346413D01*
X0004375Y0346625D01*
X0004489Y0346835D01*
X0004607Y0347041D01*
X0004730Y0347245D01*
X0004858Y0347445D01*
X0004990Y0347642D01*
X0005128Y0347837D01*
X0005270Y0348027D01*
X0005417Y0348215D01*
X0005568Y0348398D01*
X0005723Y0348578D01*
X0005883Y0348754D01*
X0006047Y0348926D01*
X0006216Y0349095D01*
X0006388Y0349259D01*
X0006564Y0349419D01*
X0006744Y0349574D01*
X0006927Y0349725D01*
X0007115Y0349872D01*
X0007305Y0350014D01*
X0007500Y0350152D01*
X0007697Y0350284D01*
X0007897Y0350412D01*
X0008101Y0350535D01*
X0008307Y0350653D01*
X0008517Y0350767D01*
X0008729Y0350875D01*
X0008943Y0350977D01*
X0009160Y0351075D01*
X0009379Y0351167D01*
X0009601Y0351254D01*
X0009824Y0351336D01*
X0010049Y0351412D01*
X0010276Y0351483D01*
X0010505Y0351548D01*
X0010735Y0351608D01*
X0010967Y0351662D01*
X0011200Y0351711D01*
X0011434Y0351754D01*
X0011669Y0351791D01*
X0011905Y0351822D01*
X0012141Y0351848D01*
X0012378Y0351868D01*
X0012615Y0351883D01*
X0012853Y0351891D01*
X0013091Y0351894D01*
X0272933Y0351894D01*
X0273171Y0351891D01*
X0273409Y0351883D01*
X0273646Y0351868D01*
X0273883Y0351848D01*
X0274119Y0351822D01*
X0274355Y0351791D01*
X0274590Y0351754D01*
X0274824Y0351711D01*
X0275057Y0351662D01*
X0275289Y0351608D01*
X0275519Y0351548D01*
X0275748Y0351483D01*
X0275975Y0351412D01*
X0276200Y0351336D01*
X0276423Y0351254D01*
X0276645Y0351167D01*
X0276864Y0351075D01*
X0277081Y0350977D01*
X0277295Y0350875D01*
X0277507Y0350767D01*
X0277717Y0350653D01*
X0277923Y0350535D01*
X0278127Y0350412D01*
X0278327Y0350284D01*
X0278524Y0350152D01*
X0278719Y0350014D01*
X0278909Y0349872D01*
X0279097Y0349725D01*
X0279280Y0349574D01*
X0279460Y0349419D01*
X0279636Y0349259D01*
X0279808Y0349095D01*
X0279977Y0348926D01*
X0280141Y0348754D01*
X0280301Y0348578D01*
X0280456Y0348398D01*
X0280607Y0348215D01*
X0280754Y0348027D01*
X0280896Y0347837D01*
X0281034Y0347642D01*
X0281166Y0347445D01*
X0281294Y0347245D01*
X0281417Y0347041D01*
X0281535Y0346835D01*
X0281649Y0346625D01*
X0281757Y0346413D01*
X0281859Y0346199D01*
X0281957Y0345982D01*
X0282049Y0345763D01*
X0282136Y0345541D01*
X0282218Y0345318D01*
X0282294Y0345093D01*
X0282365Y0344866D01*
X0282430Y0344637D01*
X0282490Y0344407D01*
X0282544Y0344175D01*
X0282593Y0343942D01*
X0282636Y0343708D01*
X0282673Y0343473D01*
X0282704Y0343237D01*
X0282730Y0343001D01*
X0282750Y0342764D01*
X0282765Y0342527D01*
X0282773Y0342289D01*
X0282776Y0342051D01*
X0282776Y0011343D01*
X0282773Y0011105D01*
X0282765Y0010867D01*
X0282750Y0010630D01*
X0282730Y0010393D01*
X0282704Y0010157D01*
X0282673Y0009921D01*
X0282636Y0009686D01*
X0282593Y0009452D01*
X0282544Y0009219D01*
X0282490Y0008987D01*
X0282430Y0008757D01*
X0282365Y0008528D01*
X0282294Y0008301D01*
X0282218Y0008076D01*
X0282136Y0007853D01*
X0282049Y0007631D01*
X0281957Y0007412D01*
X0281859Y0007195D01*
X0281757Y0006981D01*
X0281649Y0006769D01*
X0281535Y0006559D01*
X0281417Y0006353D01*
X0281294Y0006149D01*
X0281166Y0005949D01*
X0281034Y0005752D01*
X0280896Y0005557D01*
X0280754Y0005367D01*
X0280607Y0005179D01*
X0280456Y0004996D01*
X0280301Y0004816D01*
X0280141Y0004640D01*
X0279977Y0004468D01*
X0279808Y0004299D01*
X0279636Y0004135D01*
X0279460Y0003975D01*
X0279280Y0003820D01*
X0279097Y0003669D01*
X0278909Y0003522D01*
X0278719Y0003380D01*
X0278524Y0003242D01*
X0278327Y0003110D01*
X0278127Y0002982D01*
X0277923Y0002859D01*
X0277717Y0002741D01*
X0277507Y0002627D01*
X0277295Y0002519D01*
X0277081Y0002417D01*
X0276864Y0002319D01*
X0276645Y0002227D01*
X0276423Y0002140D01*
X0276200Y0002058D01*
X0275975Y0001982D01*
X0275748Y0001911D01*
X0275519Y0001846D01*
X0275289Y0001786D01*
X0275057Y0001732D01*
X0274824Y0001683D01*
X0274590Y0001640D01*
X0274355Y0001603D01*
X0274119Y0001572D01*
X0273883Y0001546D01*
X0273646Y0001526D01*
X0273409Y0001511D01*
X0273171Y0001503D01*
X0272933Y0001500D01*
X0013091Y0001500D01*
X0012853Y0001503D01*
X0012615Y0001511D01*
X0012378Y0001526D01*
X0012141Y0001546D01*
X0011905Y0001572D01*
X0011669Y0001603D01*
X0011434Y0001640D01*
X0011200Y0001683D01*
X0010967Y0001732D01*
X0010735Y0001786D01*
X0010505Y0001846D01*
X0010276Y0001911D01*
X0010049Y0001982D01*
X0009824Y0002058D01*
X0009601Y0002140D01*
X0009379Y0002227D01*
X0009160Y0002319D01*
X0008943Y0002417D01*
X0008729Y0002519D01*
X0008517Y0002627D01*
X0008307Y0002741D01*
X0008101Y0002859D01*
X0007897Y0002982D01*
X0007697Y0003110D01*
X0007500Y0003242D01*
X0007305Y0003380D01*
X0007115Y0003522D01*
X0006927Y0003669D01*
X0006744Y0003820D01*
X0006564Y0003975D01*
X0006388Y0004135D01*
X0006216Y0004299D01*
X0006047Y0004468D01*
X0005883Y0004640D01*
X0005723Y0004816D01*
X0005568Y0004996D01*
X0005417Y0005179D01*
X0005270Y0005367D01*
X0005128Y0005557D01*
X0004990Y0005752D01*
X0004858Y0005949D01*
X0004730Y0006149D01*
X0004607Y0006353D01*
X0004489Y0006559D01*
X0004375Y0006769D01*
X0004267Y0006981D01*
X0004165Y0007195D01*
X0004067Y0007412D01*
X0003975Y0007631D01*
X0003888Y0007853D01*
X0003806Y0008076D01*
X0003730Y0008301D01*
X0003659Y0008528D01*
X0003594Y0008757D01*
X0003534Y0008987D01*
X0003480Y0009219D01*
X0003431Y0009452D01*
X0003388Y0009686D01*
X0003351Y0009921D01*
X0003320Y0010157D01*
X0003294Y0010393D01*
X0003274Y0010630D01*
X0003259Y0010867D01*
X0003251Y0011105D01*
X0003248Y0011343D01*
X0271752Y0314492D02*
X0271754Y0314576D01*
X0271760Y0314659D01*
X0271770Y0314742D01*
X0271784Y0314825D01*
X0271801Y0314907D01*
X0271823Y0314988D01*
X0271848Y0315067D01*
X0271877Y0315146D01*
X0271910Y0315223D01*
X0271946Y0315298D01*
X0271986Y0315372D01*
X0272029Y0315444D01*
X0272076Y0315513D01*
X0272126Y0315580D01*
X0272179Y0315645D01*
X0272235Y0315707D01*
X0272293Y0315767D01*
X0272355Y0315824D01*
X0272419Y0315877D01*
X0272486Y0315928D01*
X0272555Y0315975D01*
X0272626Y0316020D01*
X0272699Y0316060D01*
X0272774Y0316097D01*
X0272851Y0316131D01*
X0272929Y0316161D01*
X0273008Y0316187D01*
X0273089Y0316210D01*
X0273171Y0316228D01*
X0273253Y0316243D01*
X0273336Y0316254D01*
X0273419Y0316261D01*
X0273503Y0316264D01*
X0273587Y0316263D01*
X0273670Y0316258D01*
X0273754Y0316249D01*
X0273836Y0316236D01*
X0273918Y0316220D01*
X0273999Y0316199D01*
X0274080Y0316175D01*
X0274158Y0316147D01*
X0274236Y0316115D01*
X0274312Y0316079D01*
X0274386Y0316040D01*
X0274458Y0315998D01*
X0274528Y0315952D01*
X0274596Y0315903D01*
X0274661Y0315851D01*
X0274724Y0315796D01*
X0274784Y0315738D01*
X0274842Y0315677D01*
X0274896Y0315613D01*
X0274948Y0315547D01*
X0274996Y0315479D01*
X0275041Y0315408D01*
X0275082Y0315335D01*
X0275121Y0315261D01*
X0275155Y0315185D01*
X0275186Y0315107D01*
X0275213Y0315028D01*
X0275237Y0314947D01*
X0275256Y0314866D01*
X0275272Y0314784D01*
X0275284Y0314701D01*
X0275292Y0314617D01*
X0275296Y0314534D01*
X0275296Y0314450D01*
X0275292Y0314367D01*
X0275284Y0314283D01*
X0275272Y0314200D01*
X0275256Y0314118D01*
X0275237Y0314037D01*
X0275213Y0313956D01*
X0275186Y0313877D01*
X0275155Y0313799D01*
X0275121Y0313723D01*
X0275082Y0313649D01*
X0275041Y0313576D01*
X0274996Y0313505D01*
X0274948Y0313437D01*
X0274896Y0313371D01*
X0274842Y0313307D01*
X0274784Y0313246D01*
X0274724Y0313188D01*
X0274661Y0313133D01*
X0274596Y0313081D01*
X0274528Y0313032D01*
X0274458Y0312986D01*
X0274386Y0312944D01*
X0274312Y0312905D01*
X0274236Y0312869D01*
X0274158Y0312837D01*
X0274080Y0312809D01*
X0273999Y0312785D01*
X0273918Y0312764D01*
X0273836Y0312748D01*
X0273754Y0312735D01*
X0273670Y0312726D01*
X0273587Y0312721D01*
X0273503Y0312720D01*
X0273419Y0312723D01*
X0273336Y0312730D01*
X0273253Y0312741D01*
X0273171Y0312756D01*
X0273089Y0312774D01*
X0273008Y0312797D01*
X0272929Y0312823D01*
X0272851Y0312853D01*
X0272774Y0312887D01*
X0272699Y0312924D01*
X0272626Y0312964D01*
X0272555Y0313009D01*
X0272486Y0313056D01*
X0272419Y0313107D01*
X0272355Y0313160D01*
X0272293Y0313217D01*
X0272235Y0313277D01*
X0272179Y0313339D01*
X0272126Y0313404D01*
X0272076Y0313471D01*
X0272029Y0313540D01*
X0271986Y0313612D01*
X0271946Y0313686D01*
X0271910Y0313761D01*
X0271877Y0313838D01*
X0271848Y0313917D01*
X0271823Y0313996D01*
X0271801Y0314077D01*
X0271784Y0314159D01*
X0271770Y0314242D01*
X0271760Y0314325D01*
X0271754Y0314408D01*
X0271752Y0314492D01*
X0271752Y0326303D02*
X0271754Y0326387D01*
X0271760Y0326470D01*
X0271770Y0326553D01*
X0271784Y0326636D01*
X0271801Y0326718D01*
X0271823Y0326799D01*
X0271848Y0326878D01*
X0271877Y0326957D01*
X0271910Y0327034D01*
X0271946Y0327109D01*
X0271986Y0327183D01*
X0272029Y0327255D01*
X0272076Y0327324D01*
X0272126Y0327391D01*
X0272179Y0327456D01*
X0272235Y0327518D01*
X0272293Y0327578D01*
X0272355Y0327635D01*
X0272419Y0327688D01*
X0272486Y0327739D01*
X0272555Y0327786D01*
X0272626Y0327831D01*
X0272699Y0327871D01*
X0272774Y0327908D01*
X0272851Y0327942D01*
X0272929Y0327972D01*
X0273008Y0327998D01*
X0273089Y0328021D01*
X0273171Y0328039D01*
X0273253Y0328054D01*
X0273336Y0328065D01*
X0273419Y0328072D01*
X0273503Y0328075D01*
X0273587Y0328074D01*
X0273670Y0328069D01*
X0273754Y0328060D01*
X0273836Y0328047D01*
X0273918Y0328031D01*
X0273999Y0328010D01*
X0274080Y0327986D01*
X0274158Y0327958D01*
X0274236Y0327926D01*
X0274312Y0327890D01*
X0274386Y0327851D01*
X0274458Y0327809D01*
X0274528Y0327763D01*
X0274596Y0327714D01*
X0274661Y0327662D01*
X0274724Y0327607D01*
X0274784Y0327549D01*
X0274842Y0327488D01*
X0274896Y0327424D01*
X0274948Y0327358D01*
X0274996Y0327290D01*
X0275041Y0327219D01*
X0275082Y0327146D01*
X0275121Y0327072D01*
X0275155Y0326996D01*
X0275186Y0326918D01*
X0275213Y0326839D01*
X0275237Y0326758D01*
X0275256Y0326677D01*
X0275272Y0326595D01*
X0275284Y0326512D01*
X0275292Y0326428D01*
X0275296Y0326345D01*
X0275296Y0326261D01*
X0275292Y0326178D01*
X0275284Y0326094D01*
X0275272Y0326011D01*
X0275256Y0325929D01*
X0275237Y0325848D01*
X0275213Y0325767D01*
X0275186Y0325688D01*
X0275155Y0325610D01*
X0275121Y0325534D01*
X0275082Y0325460D01*
X0275041Y0325387D01*
X0274996Y0325316D01*
X0274948Y0325248D01*
X0274896Y0325182D01*
X0274842Y0325118D01*
X0274784Y0325057D01*
X0274724Y0324999D01*
X0274661Y0324944D01*
X0274596Y0324892D01*
X0274528Y0324843D01*
X0274458Y0324797D01*
X0274386Y0324755D01*
X0274312Y0324716D01*
X0274236Y0324680D01*
X0274158Y0324648D01*
X0274080Y0324620D01*
X0273999Y0324596D01*
X0273918Y0324575D01*
X0273836Y0324559D01*
X0273754Y0324546D01*
X0273670Y0324537D01*
X0273587Y0324532D01*
X0273503Y0324531D01*
X0273419Y0324534D01*
X0273336Y0324541D01*
X0273253Y0324552D01*
X0273171Y0324567D01*
X0273089Y0324585D01*
X0273008Y0324608D01*
X0272929Y0324634D01*
X0272851Y0324664D01*
X0272774Y0324698D01*
X0272699Y0324735D01*
X0272626Y0324775D01*
X0272555Y0324820D01*
X0272486Y0324867D01*
X0272419Y0324918D01*
X0272355Y0324971D01*
X0272293Y0325028D01*
X0272235Y0325088D01*
X0272179Y0325150D01*
X0272126Y0325215D01*
X0272076Y0325282D01*
X0272029Y0325351D01*
X0271986Y0325423D01*
X0271946Y0325497D01*
X0271910Y0325572D01*
X0271877Y0325649D01*
X0271848Y0325728D01*
X0271823Y0325807D01*
X0271801Y0325888D01*
X0271784Y0325970D01*
X0271770Y0326053D01*
X0271760Y0326136D01*
X0271754Y0326219D01*
X0271752Y0326303D01*
D11*
X0262107Y0135358D02*
X0262109Y0135498D01*
X0262115Y0135638D01*
X0262125Y0135777D01*
X0262139Y0135916D01*
X0262157Y0136055D01*
X0262178Y0136193D01*
X0262204Y0136331D01*
X0262234Y0136468D01*
X0262267Y0136603D01*
X0262305Y0136738D01*
X0262346Y0136872D01*
X0262391Y0137005D01*
X0262439Y0137136D01*
X0262492Y0137265D01*
X0262548Y0137394D01*
X0262607Y0137520D01*
X0262671Y0137645D01*
X0262737Y0137768D01*
X0262808Y0137889D01*
X0262881Y0138008D01*
X0262958Y0138125D01*
X0263039Y0138239D01*
X0263122Y0138351D01*
X0263209Y0138461D01*
X0263299Y0138569D01*
X0263391Y0138673D01*
X0263487Y0138775D01*
X0263586Y0138875D01*
X0263687Y0138971D01*
X0263791Y0139065D01*
X0263898Y0139155D01*
X0264007Y0139242D01*
X0264119Y0139327D01*
X0264233Y0139408D01*
X0264349Y0139486D01*
X0264467Y0139560D01*
X0264588Y0139631D01*
X0264710Y0139699D01*
X0264835Y0139763D01*
X0264961Y0139824D01*
X0265088Y0139881D01*
X0265218Y0139934D01*
X0265349Y0139984D01*
X0265481Y0140029D01*
X0265614Y0140072D01*
X0265749Y0140110D01*
X0265884Y0140144D01*
X0266021Y0140175D01*
X0266158Y0140202D01*
X0266296Y0140224D01*
X0266435Y0140243D01*
X0266574Y0140258D01*
X0266713Y0140269D01*
X0266853Y0140276D01*
X0266993Y0140279D01*
X0267133Y0140278D01*
X0267273Y0140273D01*
X0267412Y0140264D01*
X0267552Y0140251D01*
X0267691Y0140234D01*
X0267829Y0140213D01*
X0267967Y0140189D01*
X0268104Y0140160D01*
X0268240Y0140128D01*
X0268375Y0140091D01*
X0268509Y0140051D01*
X0268642Y0140007D01*
X0268773Y0139959D01*
X0268903Y0139908D01*
X0269032Y0139853D01*
X0269159Y0139794D01*
X0269284Y0139731D01*
X0269407Y0139666D01*
X0269529Y0139596D01*
X0269648Y0139523D01*
X0269766Y0139447D01*
X0269881Y0139368D01*
X0269994Y0139285D01*
X0270104Y0139199D01*
X0270212Y0139110D01*
X0270317Y0139018D01*
X0270420Y0138923D01*
X0270520Y0138825D01*
X0270617Y0138725D01*
X0270711Y0138621D01*
X0270803Y0138515D01*
X0270891Y0138407D01*
X0270976Y0138296D01*
X0271058Y0138182D01*
X0271137Y0138066D01*
X0271212Y0137949D01*
X0271284Y0137829D01*
X0271352Y0137707D01*
X0271417Y0137583D01*
X0271479Y0137457D01*
X0271537Y0137330D01*
X0271591Y0137201D01*
X0271642Y0137070D01*
X0271688Y0136938D01*
X0271731Y0136805D01*
X0271771Y0136671D01*
X0271806Y0136536D01*
X0271838Y0136399D01*
X0271865Y0136262D01*
X0271889Y0136124D01*
X0271909Y0135986D01*
X0271925Y0135847D01*
X0271937Y0135707D01*
X0271945Y0135568D01*
X0271949Y0135428D01*
X0271949Y0135288D01*
X0271945Y0135148D01*
X0271937Y0135009D01*
X0271925Y0134869D01*
X0271909Y0134730D01*
X0271889Y0134592D01*
X0271865Y0134454D01*
X0271838Y0134317D01*
X0271806Y0134180D01*
X0271771Y0134045D01*
X0271731Y0133911D01*
X0271688Y0133778D01*
X0271642Y0133646D01*
X0271591Y0133515D01*
X0271537Y0133386D01*
X0271479Y0133259D01*
X0271417Y0133133D01*
X0271352Y0133009D01*
X0271284Y0132887D01*
X0271212Y0132767D01*
X0271137Y0132650D01*
X0271058Y0132534D01*
X0270976Y0132420D01*
X0270891Y0132309D01*
X0270803Y0132201D01*
X0270711Y0132095D01*
X0270617Y0131991D01*
X0270520Y0131891D01*
X0270420Y0131793D01*
X0270317Y0131698D01*
X0270212Y0131606D01*
X0270104Y0131517D01*
X0269994Y0131431D01*
X0269881Y0131348D01*
X0269766Y0131269D01*
X0269648Y0131193D01*
X0269529Y0131120D01*
X0269407Y0131050D01*
X0269284Y0130985D01*
X0269159Y0130922D01*
X0269032Y0130863D01*
X0268903Y0130808D01*
X0268773Y0130757D01*
X0268642Y0130709D01*
X0268509Y0130665D01*
X0268375Y0130625D01*
X0268240Y0130588D01*
X0268104Y0130556D01*
X0267967Y0130527D01*
X0267829Y0130503D01*
X0267691Y0130482D01*
X0267552Y0130465D01*
X0267412Y0130452D01*
X0267273Y0130443D01*
X0267133Y0130438D01*
X0266993Y0130437D01*
X0266853Y0130440D01*
X0266713Y0130447D01*
X0266574Y0130458D01*
X0266435Y0130473D01*
X0266296Y0130492D01*
X0266158Y0130514D01*
X0266021Y0130541D01*
X0265884Y0130572D01*
X0265749Y0130606D01*
X0265614Y0130644D01*
X0265481Y0130687D01*
X0265349Y0130732D01*
X0265218Y0130782D01*
X0265088Y0130835D01*
X0264961Y0130892D01*
X0264835Y0130953D01*
X0264710Y0131017D01*
X0264588Y0131085D01*
X0264467Y0131156D01*
X0264349Y0131230D01*
X0264233Y0131308D01*
X0264119Y0131389D01*
X0264007Y0131474D01*
X0263898Y0131561D01*
X0263791Y0131651D01*
X0263687Y0131745D01*
X0263586Y0131841D01*
X0263487Y0131941D01*
X0263391Y0132043D01*
X0263299Y0132147D01*
X0263209Y0132255D01*
X0263122Y0132365D01*
X0263039Y0132477D01*
X0262958Y0132591D01*
X0262881Y0132708D01*
X0262808Y0132827D01*
X0262737Y0132948D01*
X0262671Y0133071D01*
X0262607Y0133196D01*
X0262548Y0133322D01*
X0262492Y0133451D01*
X0262439Y0133580D01*
X0262391Y0133711D01*
X0262346Y0133844D01*
X0262305Y0133978D01*
X0262267Y0134113D01*
X0262234Y0134248D01*
X0262204Y0134385D01*
X0262178Y0134523D01*
X0262157Y0134661D01*
X0262139Y0134800D01*
X0262125Y0134939D01*
X0262115Y0135078D01*
X0262109Y0135218D01*
X0262107Y0135358D01*
X0262107Y0017248D02*
X0262109Y0017388D01*
X0262115Y0017528D01*
X0262125Y0017667D01*
X0262139Y0017806D01*
X0262157Y0017945D01*
X0262178Y0018083D01*
X0262204Y0018221D01*
X0262234Y0018358D01*
X0262267Y0018493D01*
X0262305Y0018628D01*
X0262346Y0018762D01*
X0262391Y0018895D01*
X0262439Y0019026D01*
X0262492Y0019155D01*
X0262548Y0019284D01*
X0262607Y0019410D01*
X0262671Y0019535D01*
X0262737Y0019658D01*
X0262808Y0019779D01*
X0262881Y0019898D01*
X0262958Y0020015D01*
X0263039Y0020129D01*
X0263122Y0020241D01*
X0263209Y0020351D01*
X0263299Y0020459D01*
X0263391Y0020563D01*
X0263487Y0020665D01*
X0263586Y0020765D01*
X0263687Y0020861D01*
X0263791Y0020955D01*
X0263898Y0021045D01*
X0264007Y0021132D01*
X0264119Y0021217D01*
X0264233Y0021298D01*
X0264349Y0021376D01*
X0264467Y0021450D01*
X0264588Y0021521D01*
X0264710Y0021589D01*
X0264835Y0021653D01*
X0264961Y0021714D01*
X0265088Y0021771D01*
X0265218Y0021824D01*
X0265349Y0021874D01*
X0265481Y0021919D01*
X0265614Y0021962D01*
X0265749Y0022000D01*
X0265884Y0022034D01*
X0266021Y0022065D01*
X0266158Y0022092D01*
X0266296Y0022114D01*
X0266435Y0022133D01*
X0266574Y0022148D01*
X0266713Y0022159D01*
X0266853Y0022166D01*
X0266993Y0022169D01*
X0267133Y0022168D01*
X0267273Y0022163D01*
X0267412Y0022154D01*
X0267552Y0022141D01*
X0267691Y0022124D01*
X0267829Y0022103D01*
X0267967Y0022079D01*
X0268104Y0022050D01*
X0268240Y0022018D01*
X0268375Y0021981D01*
X0268509Y0021941D01*
X0268642Y0021897D01*
X0268773Y0021849D01*
X0268903Y0021798D01*
X0269032Y0021743D01*
X0269159Y0021684D01*
X0269284Y0021621D01*
X0269407Y0021556D01*
X0269529Y0021486D01*
X0269648Y0021413D01*
X0269766Y0021337D01*
X0269881Y0021258D01*
X0269994Y0021175D01*
X0270104Y0021089D01*
X0270212Y0021000D01*
X0270317Y0020908D01*
X0270420Y0020813D01*
X0270520Y0020715D01*
X0270617Y0020615D01*
X0270711Y0020511D01*
X0270803Y0020405D01*
X0270891Y0020297D01*
X0270976Y0020186D01*
X0271058Y0020072D01*
X0271137Y0019956D01*
X0271212Y0019839D01*
X0271284Y0019719D01*
X0271352Y0019597D01*
X0271417Y0019473D01*
X0271479Y0019347D01*
X0271537Y0019220D01*
X0271591Y0019091D01*
X0271642Y0018960D01*
X0271688Y0018828D01*
X0271731Y0018695D01*
X0271771Y0018561D01*
X0271806Y0018426D01*
X0271838Y0018289D01*
X0271865Y0018152D01*
X0271889Y0018014D01*
X0271909Y0017876D01*
X0271925Y0017737D01*
X0271937Y0017597D01*
X0271945Y0017458D01*
X0271949Y0017318D01*
X0271949Y0017178D01*
X0271945Y0017038D01*
X0271937Y0016899D01*
X0271925Y0016759D01*
X0271909Y0016620D01*
X0271889Y0016482D01*
X0271865Y0016344D01*
X0271838Y0016207D01*
X0271806Y0016070D01*
X0271771Y0015935D01*
X0271731Y0015801D01*
X0271688Y0015668D01*
X0271642Y0015536D01*
X0271591Y0015405D01*
X0271537Y0015276D01*
X0271479Y0015149D01*
X0271417Y0015023D01*
X0271352Y0014899D01*
X0271284Y0014777D01*
X0271212Y0014657D01*
X0271137Y0014540D01*
X0271058Y0014424D01*
X0270976Y0014310D01*
X0270891Y0014199D01*
X0270803Y0014091D01*
X0270711Y0013985D01*
X0270617Y0013881D01*
X0270520Y0013781D01*
X0270420Y0013683D01*
X0270317Y0013588D01*
X0270212Y0013496D01*
X0270104Y0013407D01*
X0269994Y0013321D01*
X0269881Y0013238D01*
X0269766Y0013159D01*
X0269648Y0013083D01*
X0269529Y0013010D01*
X0269407Y0012940D01*
X0269284Y0012875D01*
X0269159Y0012812D01*
X0269032Y0012753D01*
X0268903Y0012698D01*
X0268773Y0012647D01*
X0268642Y0012599D01*
X0268509Y0012555D01*
X0268375Y0012515D01*
X0268240Y0012478D01*
X0268104Y0012446D01*
X0267967Y0012417D01*
X0267829Y0012393D01*
X0267691Y0012372D01*
X0267552Y0012355D01*
X0267412Y0012342D01*
X0267273Y0012333D01*
X0267133Y0012328D01*
X0266993Y0012327D01*
X0266853Y0012330D01*
X0266713Y0012337D01*
X0266574Y0012348D01*
X0266435Y0012363D01*
X0266296Y0012382D01*
X0266158Y0012404D01*
X0266021Y0012431D01*
X0265884Y0012462D01*
X0265749Y0012496D01*
X0265614Y0012534D01*
X0265481Y0012577D01*
X0265349Y0012622D01*
X0265218Y0012672D01*
X0265088Y0012725D01*
X0264961Y0012782D01*
X0264835Y0012843D01*
X0264710Y0012907D01*
X0264588Y0012975D01*
X0264467Y0013046D01*
X0264349Y0013120D01*
X0264233Y0013198D01*
X0264119Y0013279D01*
X0264007Y0013364D01*
X0263898Y0013451D01*
X0263791Y0013541D01*
X0263687Y0013635D01*
X0263586Y0013731D01*
X0263487Y0013831D01*
X0263391Y0013933D01*
X0263299Y0014037D01*
X0263209Y0014145D01*
X0263122Y0014255D01*
X0263039Y0014367D01*
X0262958Y0014481D01*
X0262881Y0014598D01*
X0262808Y0014717D01*
X0262737Y0014838D01*
X0262671Y0014961D01*
X0262607Y0015086D01*
X0262548Y0015212D01*
X0262492Y0015341D01*
X0262439Y0015470D01*
X0262391Y0015601D01*
X0262346Y0015734D01*
X0262305Y0015868D01*
X0262267Y0016003D01*
X0262234Y0016138D01*
X0262204Y0016275D01*
X0262178Y0016413D01*
X0262157Y0016551D01*
X0262139Y0016690D01*
X0262125Y0016829D01*
X0262115Y0016968D01*
X0262109Y0017108D01*
X0262107Y0017248D01*
X0021949Y0115673D02*
X0021951Y0115813D01*
X0021957Y0115953D01*
X0021967Y0116092D01*
X0021981Y0116231D01*
X0021999Y0116370D01*
X0022020Y0116508D01*
X0022046Y0116646D01*
X0022076Y0116783D01*
X0022109Y0116918D01*
X0022147Y0117053D01*
X0022188Y0117187D01*
X0022233Y0117320D01*
X0022281Y0117451D01*
X0022334Y0117580D01*
X0022390Y0117709D01*
X0022449Y0117835D01*
X0022513Y0117960D01*
X0022579Y0118083D01*
X0022650Y0118204D01*
X0022723Y0118323D01*
X0022800Y0118440D01*
X0022881Y0118554D01*
X0022964Y0118666D01*
X0023051Y0118776D01*
X0023141Y0118884D01*
X0023233Y0118988D01*
X0023329Y0119090D01*
X0023428Y0119190D01*
X0023529Y0119286D01*
X0023633Y0119380D01*
X0023740Y0119470D01*
X0023849Y0119557D01*
X0023961Y0119642D01*
X0024075Y0119723D01*
X0024191Y0119801D01*
X0024309Y0119875D01*
X0024430Y0119946D01*
X0024552Y0120014D01*
X0024677Y0120078D01*
X0024803Y0120139D01*
X0024930Y0120196D01*
X0025060Y0120249D01*
X0025191Y0120299D01*
X0025323Y0120344D01*
X0025456Y0120387D01*
X0025591Y0120425D01*
X0025726Y0120459D01*
X0025863Y0120490D01*
X0026000Y0120517D01*
X0026138Y0120539D01*
X0026277Y0120558D01*
X0026416Y0120573D01*
X0026555Y0120584D01*
X0026695Y0120591D01*
X0026835Y0120594D01*
X0026975Y0120593D01*
X0027115Y0120588D01*
X0027254Y0120579D01*
X0027394Y0120566D01*
X0027533Y0120549D01*
X0027671Y0120528D01*
X0027809Y0120504D01*
X0027946Y0120475D01*
X0028082Y0120443D01*
X0028217Y0120406D01*
X0028351Y0120366D01*
X0028484Y0120322D01*
X0028615Y0120274D01*
X0028745Y0120223D01*
X0028874Y0120168D01*
X0029001Y0120109D01*
X0029126Y0120046D01*
X0029249Y0119981D01*
X0029371Y0119911D01*
X0029490Y0119838D01*
X0029608Y0119762D01*
X0029723Y0119683D01*
X0029836Y0119600D01*
X0029946Y0119514D01*
X0030054Y0119425D01*
X0030159Y0119333D01*
X0030262Y0119238D01*
X0030362Y0119140D01*
X0030459Y0119040D01*
X0030553Y0118936D01*
X0030645Y0118830D01*
X0030733Y0118722D01*
X0030818Y0118611D01*
X0030900Y0118497D01*
X0030979Y0118381D01*
X0031054Y0118264D01*
X0031126Y0118144D01*
X0031194Y0118022D01*
X0031259Y0117898D01*
X0031321Y0117772D01*
X0031379Y0117645D01*
X0031433Y0117516D01*
X0031484Y0117385D01*
X0031530Y0117253D01*
X0031573Y0117120D01*
X0031613Y0116986D01*
X0031648Y0116851D01*
X0031680Y0116714D01*
X0031707Y0116577D01*
X0031731Y0116439D01*
X0031751Y0116301D01*
X0031767Y0116162D01*
X0031779Y0116022D01*
X0031787Y0115883D01*
X0031791Y0115743D01*
X0031791Y0115603D01*
X0031787Y0115463D01*
X0031779Y0115324D01*
X0031767Y0115184D01*
X0031751Y0115045D01*
X0031731Y0114907D01*
X0031707Y0114769D01*
X0031680Y0114632D01*
X0031648Y0114495D01*
X0031613Y0114360D01*
X0031573Y0114226D01*
X0031530Y0114093D01*
X0031484Y0113961D01*
X0031433Y0113830D01*
X0031379Y0113701D01*
X0031321Y0113574D01*
X0031259Y0113448D01*
X0031194Y0113324D01*
X0031126Y0113202D01*
X0031054Y0113082D01*
X0030979Y0112965D01*
X0030900Y0112849D01*
X0030818Y0112735D01*
X0030733Y0112624D01*
X0030645Y0112516D01*
X0030553Y0112410D01*
X0030459Y0112306D01*
X0030362Y0112206D01*
X0030262Y0112108D01*
X0030159Y0112013D01*
X0030054Y0111921D01*
X0029946Y0111832D01*
X0029836Y0111746D01*
X0029723Y0111663D01*
X0029608Y0111584D01*
X0029490Y0111508D01*
X0029371Y0111435D01*
X0029249Y0111365D01*
X0029126Y0111300D01*
X0029001Y0111237D01*
X0028874Y0111178D01*
X0028745Y0111123D01*
X0028615Y0111072D01*
X0028484Y0111024D01*
X0028351Y0110980D01*
X0028217Y0110940D01*
X0028082Y0110903D01*
X0027946Y0110871D01*
X0027809Y0110842D01*
X0027671Y0110818D01*
X0027533Y0110797D01*
X0027394Y0110780D01*
X0027254Y0110767D01*
X0027115Y0110758D01*
X0026975Y0110753D01*
X0026835Y0110752D01*
X0026695Y0110755D01*
X0026555Y0110762D01*
X0026416Y0110773D01*
X0026277Y0110788D01*
X0026138Y0110807D01*
X0026000Y0110829D01*
X0025863Y0110856D01*
X0025726Y0110887D01*
X0025591Y0110921D01*
X0025456Y0110959D01*
X0025323Y0111002D01*
X0025191Y0111047D01*
X0025060Y0111097D01*
X0024930Y0111150D01*
X0024803Y0111207D01*
X0024677Y0111268D01*
X0024552Y0111332D01*
X0024430Y0111400D01*
X0024309Y0111471D01*
X0024191Y0111545D01*
X0024075Y0111623D01*
X0023961Y0111704D01*
X0023849Y0111789D01*
X0023740Y0111876D01*
X0023633Y0111966D01*
X0023529Y0112060D01*
X0023428Y0112156D01*
X0023329Y0112256D01*
X0023233Y0112358D01*
X0023141Y0112462D01*
X0023051Y0112570D01*
X0022964Y0112680D01*
X0022881Y0112792D01*
X0022800Y0112906D01*
X0022723Y0113023D01*
X0022650Y0113142D01*
X0022579Y0113263D01*
X0022513Y0113386D01*
X0022449Y0113511D01*
X0022390Y0113637D01*
X0022334Y0113766D01*
X0022281Y0113895D01*
X0022233Y0114026D01*
X0022188Y0114159D01*
X0022147Y0114293D01*
X0022109Y0114428D01*
X0022076Y0114563D01*
X0022046Y0114700D01*
X0022020Y0114838D01*
X0021999Y0114976D01*
X0021981Y0115115D01*
X0021967Y0115254D01*
X0021957Y0115393D01*
X0021951Y0115533D01*
X0021949Y0115673D01*
X0014075Y0017248D02*
X0014077Y0017388D01*
X0014083Y0017528D01*
X0014093Y0017667D01*
X0014107Y0017806D01*
X0014125Y0017945D01*
X0014146Y0018083D01*
X0014172Y0018221D01*
X0014202Y0018358D01*
X0014235Y0018493D01*
X0014273Y0018628D01*
X0014314Y0018762D01*
X0014359Y0018895D01*
X0014407Y0019026D01*
X0014460Y0019155D01*
X0014516Y0019284D01*
X0014575Y0019410D01*
X0014639Y0019535D01*
X0014705Y0019658D01*
X0014776Y0019779D01*
X0014849Y0019898D01*
X0014926Y0020015D01*
X0015007Y0020129D01*
X0015090Y0020241D01*
X0015177Y0020351D01*
X0015267Y0020459D01*
X0015359Y0020563D01*
X0015455Y0020665D01*
X0015554Y0020765D01*
X0015655Y0020861D01*
X0015759Y0020955D01*
X0015866Y0021045D01*
X0015975Y0021132D01*
X0016087Y0021217D01*
X0016201Y0021298D01*
X0016317Y0021376D01*
X0016435Y0021450D01*
X0016556Y0021521D01*
X0016678Y0021589D01*
X0016803Y0021653D01*
X0016929Y0021714D01*
X0017056Y0021771D01*
X0017186Y0021824D01*
X0017317Y0021874D01*
X0017449Y0021919D01*
X0017582Y0021962D01*
X0017717Y0022000D01*
X0017852Y0022034D01*
X0017989Y0022065D01*
X0018126Y0022092D01*
X0018264Y0022114D01*
X0018403Y0022133D01*
X0018542Y0022148D01*
X0018681Y0022159D01*
X0018821Y0022166D01*
X0018961Y0022169D01*
X0019101Y0022168D01*
X0019241Y0022163D01*
X0019380Y0022154D01*
X0019520Y0022141D01*
X0019659Y0022124D01*
X0019797Y0022103D01*
X0019935Y0022079D01*
X0020072Y0022050D01*
X0020208Y0022018D01*
X0020343Y0021981D01*
X0020477Y0021941D01*
X0020610Y0021897D01*
X0020741Y0021849D01*
X0020871Y0021798D01*
X0021000Y0021743D01*
X0021127Y0021684D01*
X0021252Y0021621D01*
X0021375Y0021556D01*
X0021497Y0021486D01*
X0021616Y0021413D01*
X0021734Y0021337D01*
X0021849Y0021258D01*
X0021962Y0021175D01*
X0022072Y0021089D01*
X0022180Y0021000D01*
X0022285Y0020908D01*
X0022388Y0020813D01*
X0022488Y0020715D01*
X0022585Y0020615D01*
X0022679Y0020511D01*
X0022771Y0020405D01*
X0022859Y0020297D01*
X0022944Y0020186D01*
X0023026Y0020072D01*
X0023105Y0019956D01*
X0023180Y0019839D01*
X0023252Y0019719D01*
X0023320Y0019597D01*
X0023385Y0019473D01*
X0023447Y0019347D01*
X0023505Y0019220D01*
X0023559Y0019091D01*
X0023610Y0018960D01*
X0023656Y0018828D01*
X0023699Y0018695D01*
X0023739Y0018561D01*
X0023774Y0018426D01*
X0023806Y0018289D01*
X0023833Y0018152D01*
X0023857Y0018014D01*
X0023877Y0017876D01*
X0023893Y0017737D01*
X0023905Y0017597D01*
X0023913Y0017458D01*
X0023917Y0017318D01*
X0023917Y0017178D01*
X0023913Y0017038D01*
X0023905Y0016899D01*
X0023893Y0016759D01*
X0023877Y0016620D01*
X0023857Y0016482D01*
X0023833Y0016344D01*
X0023806Y0016207D01*
X0023774Y0016070D01*
X0023739Y0015935D01*
X0023699Y0015801D01*
X0023656Y0015668D01*
X0023610Y0015536D01*
X0023559Y0015405D01*
X0023505Y0015276D01*
X0023447Y0015149D01*
X0023385Y0015023D01*
X0023320Y0014899D01*
X0023252Y0014777D01*
X0023180Y0014657D01*
X0023105Y0014540D01*
X0023026Y0014424D01*
X0022944Y0014310D01*
X0022859Y0014199D01*
X0022771Y0014091D01*
X0022679Y0013985D01*
X0022585Y0013881D01*
X0022488Y0013781D01*
X0022388Y0013683D01*
X0022285Y0013588D01*
X0022180Y0013496D01*
X0022072Y0013407D01*
X0021962Y0013321D01*
X0021849Y0013238D01*
X0021734Y0013159D01*
X0021616Y0013083D01*
X0021497Y0013010D01*
X0021375Y0012940D01*
X0021252Y0012875D01*
X0021127Y0012812D01*
X0021000Y0012753D01*
X0020871Y0012698D01*
X0020741Y0012647D01*
X0020610Y0012599D01*
X0020477Y0012555D01*
X0020343Y0012515D01*
X0020208Y0012478D01*
X0020072Y0012446D01*
X0019935Y0012417D01*
X0019797Y0012393D01*
X0019659Y0012372D01*
X0019520Y0012355D01*
X0019380Y0012342D01*
X0019241Y0012333D01*
X0019101Y0012328D01*
X0018961Y0012327D01*
X0018821Y0012330D01*
X0018681Y0012337D01*
X0018542Y0012348D01*
X0018403Y0012363D01*
X0018264Y0012382D01*
X0018126Y0012404D01*
X0017989Y0012431D01*
X0017852Y0012462D01*
X0017717Y0012496D01*
X0017582Y0012534D01*
X0017449Y0012577D01*
X0017317Y0012622D01*
X0017186Y0012672D01*
X0017056Y0012725D01*
X0016929Y0012782D01*
X0016803Y0012843D01*
X0016678Y0012907D01*
X0016556Y0012975D01*
X0016435Y0013046D01*
X0016317Y0013120D01*
X0016201Y0013198D01*
X0016087Y0013279D01*
X0015975Y0013364D01*
X0015866Y0013451D01*
X0015759Y0013541D01*
X0015655Y0013635D01*
X0015554Y0013731D01*
X0015455Y0013831D01*
X0015359Y0013933D01*
X0015267Y0014037D01*
X0015177Y0014145D01*
X0015090Y0014255D01*
X0015007Y0014367D01*
X0014926Y0014481D01*
X0014849Y0014598D01*
X0014776Y0014717D01*
X0014705Y0014838D01*
X0014639Y0014961D01*
X0014575Y0015086D01*
X0014516Y0015212D01*
X0014460Y0015341D01*
X0014407Y0015470D01*
X0014359Y0015601D01*
X0014314Y0015734D01*
X0014273Y0015868D01*
X0014235Y0016003D01*
X0014202Y0016138D01*
X0014172Y0016275D01*
X0014146Y0016413D01*
X0014125Y0016551D01*
X0014107Y0016690D01*
X0014093Y0016829D01*
X0014083Y0016968D01*
X0014077Y0017108D01*
X0014075Y0017248D01*
D12*
X0017421Y0145201D03*
X0009547Y0145201D03*
D13*
X0072146Y0222760D03*
X0072146Y0225909D03*
X0072146Y0229059D03*
X0072146Y0232209D03*
X0072146Y0235358D03*
X0072146Y0238508D03*
X0072146Y0241657D03*
X0072146Y0244807D03*
X0072146Y0247957D03*
X0072146Y0251106D03*
X0072146Y0254256D03*
X0072146Y0257406D03*
X0072146Y0260555D03*
X0072146Y0263705D03*
X0072146Y0266854D03*
X0072146Y0270004D03*
X0072146Y0273154D03*
X0072146Y0276303D03*
D14*
G36*
X0162173Y0129107D02*
X0160018Y0123190D01*
X0154285Y0125277D01*
X0156440Y0131194D01*
X0162173Y0129107D01*
G37*
G36*
X0180671Y0122374D02*
X0178516Y0116457D01*
X0172783Y0118544D01*
X0174938Y0124461D01*
X0180671Y0122374D01*
G37*
G36*
X0200480Y0092308D02*
X0198325Y0086391D01*
X0192592Y0088478D01*
X0194747Y0094395D01*
X0200480Y0092308D01*
G37*
G36*
X0218977Y0085576D02*
X0216822Y0079659D01*
X0211089Y0081746D01*
X0213244Y0087663D01*
X0218977Y0085576D01*
G37*
G36*
X0207293Y0065284D02*
X0205138Y0059367D01*
X0199405Y0061454D01*
X0201560Y0067371D01*
X0207293Y0065284D01*
G37*
G36*
X0188795Y0072017D02*
X0186640Y0066100D01*
X0180907Y0068187D01*
X0183062Y0074104D01*
X0188795Y0072017D01*
G37*
G36*
X0161887Y0070765D02*
X0159732Y0064848D01*
X0153999Y0066935D01*
X0156154Y0072852D01*
X0161887Y0070765D01*
G37*
G36*
X0143389Y0077498D02*
X0141234Y0071581D01*
X0135501Y0073668D01*
X0137656Y0079585D01*
X0143389Y0077498D01*
G37*
G36*
X0170011Y0020407D02*
X0167856Y0014490D01*
X0162123Y0016577D01*
X0164278Y0022494D01*
X0170011Y0020407D01*
G37*
G36*
X0188509Y0013675D02*
X0186354Y0007758D01*
X0180621Y0009845D01*
X0182776Y0015762D01*
X0188509Y0013675D01*
G37*
G36*
X0227101Y0035218D02*
X0224946Y0029301D01*
X0219213Y0031388D01*
X0221368Y0037305D01*
X0227101Y0035218D01*
G37*
G36*
X0245599Y0028485D02*
X0243444Y0022568D01*
X0237711Y0024655D01*
X0239866Y0030572D01*
X0245599Y0028485D01*
G37*
G36*
X0264383Y0080094D02*
X0262228Y0074177D01*
X0256495Y0076264D01*
X0258650Y0082181D01*
X0264383Y0080094D01*
G37*
G36*
X0245885Y0086827D02*
X0243730Y0080910D01*
X0237997Y0082997D01*
X0240152Y0088914D01*
X0245885Y0086827D01*
G37*
G36*
X0237762Y0137185D02*
X0235607Y0131268D01*
X0229874Y0133355D01*
X0232029Y0139272D01*
X0237762Y0137185D01*
G37*
G36*
X0219264Y0143917D02*
X0217109Y0138000D01*
X0211376Y0140087D01*
X0213531Y0146004D01*
X0219264Y0143917D01*
G37*
D15*
X0094390Y0133390D03*
X0069587Y0133390D03*
X0055020Y0133390D03*
X0030217Y0133390D03*
D16*
G36*
X0045320Y0093183D02*
X0048939Y0089564D01*
X0044626Y0085251D01*
X0041007Y0088870D01*
X0045320Y0093183D01*
G37*
G36*
X0025976Y0086106D02*
X0029595Y0089725D01*
X0033908Y0085412D01*
X0030289Y0081793D01*
X0025976Y0086106D01*
G37*
G36*
X0013448Y0073578D02*
X0017067Y0077197D01*
X0021380Y0072884D01*
X0017761Y0069265D01*
X0013448Y0073578D01*
G37*
G36*
X0035580Y0051446D02*
X0039199Y0055065D01*
X0043512Y0050752D01*
X0039893Y0047133D01*
X0035580Y0051446D01*
G37*
G36*
X0044626Y0034070D02*
X0041007Y0037689D01*
X0045320Y0042002D01*
X0048939Y0038383D01*
X0044626Y0034070D01*
G37*
G36*
X0057154Y0021543D02*
X0053535Y0025162D01*
X0057848Y0029475D01*
X0061467Y0025856D01*
X0057154Y0021543D01*
G37*
G36*
X0079286Y0043675D02*
X0075667Y0047294D01*
X0079980Y0051607D01*
X0083599Y0047988D01*
X0079286Y0043675D01*
G37*
G36*
X0066758Y0056202D02*
X0063139Y0059821D01*
X0067452Y0064134D01*
X0071071Y0060515D01*
X0066758Y0056202D01*
G37*
G36*
X0048108Y0063974D02*
X0051727Y0067593D01*
X0056040Y0063280D01*
X0052421Y0059661D01*
X0048108Y0063974D01*
G37*
G36*
X0057848Y0080656D02*
X0061467Y0077037D01*
X0057154Y0072724D01*
X0053535Y0076343D01*
X0057848Y0080656D01*
G37*
G36*
X0076499Y0072884D02*
X0072880Y0069265D01*
X0068567Y0073578D01*
X0072186Y0077197D01*
X0076499Y0072884D01*
G37*
G36*
X0089026Y0085412D02*
X0085407Y0081793D01*
X0081094Y0086106D01*
X0084713Y0089725D01*
X0089026Y0085412D01*
G37*
G36*
X0079980Y0102788D02*
X0083599Y0099169D01*
X0079286Y0094856D01*
X0075667Y0098475D01*
X0079980Y0102788D01*
G37*
G36*
X0067452Y0115315D02*
X0071071Y0111696D01*
X0066758Y0107383D01*
X0063139Y0111002D01*
X0067452Y0115315D01*
G37*
G36*
X0111158Y0063280D02*
X0107539Y0059661D01*
X0103226Y0063974D01*
X0106845Y0067593D01*
X0111158Y0063280D01*
G37*
G36*
X0098630Y0050752D02*
X0095011Y0047133D01*
X0090698Y0051446D01*
X0094317Y0055065D01*
X0098630Y0050752D01*
G37*
D17*
X0008852Y0008090D02*
X0008155Y0009298D01*
X0007794Y0010645D01*
X0007748Y0011343D01*
X0007748Y0141145D01*
X0012251Y0141145D01*
X0013013Y0141906D01*
X0013013Y0148495D01*
X0012251Y0149257D01*
X0011647Y0149257D01*
X0011647Y0249006D01*
X0015501Y0249006D01*
X0015321Y0248827D01*
X0015321Y0149257D01*
X0014717Y0149257D01*
X0013956Y0148495D01*
X0013956Y0141906D01*
X0014717Y0141145D01*
X0020125Y0141145D01*
X0020887Y0141906D01*
X0020887Y0148495D01*
X0020125Y0149257D01*
X0019521Y0149257D01*
X0019521Y0245857D01*
X0062789Y0245857D01*
X0062772Y0245792D01*
X0062772Y0244807D01*
X0062772Y0243822D01*
X0062874Y0243441D01*
X0062994Y0243232D01*
X0062874Y0243024D01*
X0062772Y0242642D01*
X0062772Y0241658D01*
X0072146Y0241658D01*
X0072146Y0241658D01*
X0072146Y0244807D01*
X0072146Y0244807D01*
X0081520Y0244807D01*
X0081520Y0243822D01*
X0081417Y0243441D01*
X0081297Y0243232D01*
X0081417Y0243024D01*
X0081520Y0242642D01*
X0081520Y0241658D01*
X0072146Y0241658D01*
X0072146Y0241657D01*
X0072146Y0238508D01*
X0081520Y0238508D01*
X0081520Y0239493D01*
X0081417Y0239874D01*
X0081297Y0240083D01*
X0081417Y0240291D01*
X0081520Y0240673D01*
X0081520Y0241657D01*
X0072146Y0241657D01*
X0072146Y0241657D01*
X0072146Y0240795D01*
X0072146Y0238508D01*
X0072146Y0238508D01*
X0081520Y0238508D01*
X0081520Y0237523D01*
X0081417Y0237141D01*
X0081297Y0236933D01*
X0081417Y0236725D01*
X0081520Y0236343D01*
X0081520Y0235358D01*
X0072146Y0235358D01*
X0072146Y0235358D01*
X0081520Y0235358D01*
X0081520Y0234373D01*
X0081417Y0233992D01*
X0081220Y0233650D01*
X0081212Y0233642D01*
X0081320Y0233535D01*
X0081320Y0230883D01*
X0081071Y0230634D01*
X0081320Y0230385D01*
X0081320Y0227733D01*
X0081071Y0227484D01*
X0081320Y0227235D01*
X0081320Y0224584D01*
X0081071Y0224335D01*
X0081320Y0224086D01*
X0081320Y0221434D01*
X0080558Y0220672D01*
X0063733Y0220672D01*
X0062972Y0221434D01*
X0062972Y0224086D01*
X0063221Y0224335D01*
X0062972Y0224584D01*
X0062972Y0227235D01*
X0063221Y0227484D01*
X0062972Y0227733D01*
X0062972Y0230385D01*
X0063221Y0230634D01*
X0062972Y0230883D01*
X0062972Y0233535D01*
X0063079Y0233642D01*
X0063071Y0233650D01*
X0062874Y0233992D01*
X0062772Y0234373D01*
X0062772Y0235358D01*
X0072146Y0235358D01*
X0072146Y0235358D01*
X0072146Y0238508D01*
X0072146Y0238508D01*
X0072146Y0238508D01*
X0072146Y0238508D01*
X0062772Y0238508D01*
X0062772Y0239493D01*
X0062874Y0239874D01*
X0062994Y0240083D01*
X0062874Y0240291D01*
X0062772Y0240673D01*
X0062772Y0241657D01*
X0072146Y0241657D01*
X0072146Y0241658D01*
X0072146Y0243945D01*
X0072146Y0244807D01*
X0081520Y0244807D01*
X0081520Y0245792D01*
X0081417Y0246173D01*
X0081220Y0246516D01*
X0081212Y0246523D01*
X0081320Y0246631D01*
X0081320Y0249006D01*
X0118870Y0249006D01*
X0120100Y0250236D01*
X0120100Y0262739D01*
X0120782Y0263421D01*
X0121281Y0264627D01*
X0121281Y0265932D01*
X0120782Y0267138D01*
X0119859Y0268061D01*
X0118653Y0268561D01*
X0117347Y0268561D01*
X0116141Y0268061D01*
X0115218Y0267138D01*
X0114719Y0265932D01*
X0114719Y0264627D01*
X0115218Y0263421D01*
X0115900Y0262739D01*
X0115900Y0253206D01*
X0081502Y0253206D01*
X0081520Y0253271D01*
X0081520Y0254256D01*
X0081520Y0255241D01*
X0081422Y0255606D01*
X0106356Y0255606D01*
X0107410Y0256660D01*
X0107410Y0271354D01*
X0135438Y0271354D01*
X0136253Y0270539D01*
X0137386Y0270069D01*
X0138613Y0270069D01*
X0139747Y0270539D01*
X0140615Y0271406D01*
X0141084Y0272540D01*
X0141084Y0273767D01*
X0140615Y0274901D01*
X0139747Y0275768D01*
X0138613Y0276238D01*
X0137386Y0276238D01*
X0136253Y0275768D01*
X0135438Y0274954D01*
X0130779Y0274954D01*
X0131084Y0275690D01*
X0131084Y0276917D01*
X0130779Y0277653D01*
X0140450Y0277653D01*
X0141265Y0276838D01*
X0142398Y0276369D01*
X0143625Y0276369D01*
X0144759Y0276838D01*
X0145627Y0277706D01*
X0146096Y0278839D01*
X0146096Y0280066D01*
X0145627Y0281200D01*
X0144759Y0282067D01*
X0143625Y0282537D01*
X0142398Y0282537D01*
X0141265Y0282067D01*
X0140450Y0281253D01*
X0116264Y0281253D01*
X0116568Y0281989D01*
X0116568Y0283216D01*
X0116264Y0283952D01*
X0145438Y0283952D01*
X0146253Y0283137D01*
X0147386Y0282668D01*
X0148613Y0282668D01*
X0149747Y0283137D01*
X0150615Y0284005D01*
X0151084Y0285138D01*
X0151084Y0286365D01*
X0150615Y0287499D01*
X0149747Y0288367D01*
X0148613Y0288836D01*
X0147386Y0288836D01*
X0146253Y0288367D01*
X0145438Y0287552D01*
X0135949Y0287552D01*
X0136254Y0288288D01*
X0136254Y0289515D01*
X0135784Y0290649D01*
X0134916Y0291516D01*
X0133783Y0291986D01*
X0132556Y0291986D01*
X0131422Y0291516D01*
X0130607Y0290702D01*
X0085180Y0290702D01*
X0084125Y0289647D01*
X0084125Y0274954D01*
X0081422Y0274954D01*
X0081520Y0275318D01*
X0081520Y0276303D01*
X0072146Y0276303D01*
X0072146Y0276303D01*
X0081520Y0276303D01*
X0081520Y0277288D01*
X0081417Y0277670D01*
X0081220Y0278012D01*
X0080941Y0278291D01*
X0080599Y0278488D01*
X0080217Y0278591D01*
X0072146Y0278591D01*
X0072146Y0276303D01*
X0072146Y0276303D01*
X0062772Y0276303D01*
X0062772Y0275318D01*
X0062874Y0274937D01*
X0063071Y0274595D01*
X0063079Y0274587D01*
X0062972Y0274479D01*
X0062972Y0271828D01*
X0063221Y0271579D01*
X0062972Y0271330D01*
X0062972Y0268678D01*
X0063221Y0268429D01*
X0062972Y0268180D01*
X0062972Y0265528D01*
X0063221Y0265280D01*
X0062972Y0265031D01*
X0062972Y0262379D01*
X0063221Y0262130D01*
X0062972Y0261881D01*
X0062972Y0259229D01*
X0063221Y0258980D01*
X0062972Y0258731D01*
X0062972Y0256080D01*
X0063079Y0255972D01*
X0063071Y0255964D01*
X0062874Y0255622D01*
X0062772Y0255241D01*
X0062772Y0254256D01*
X0072146Y0254256D01*
X0081520Y0254256D01*
X0072146Y0254256D01*
X0072146Y0254256D01*
X0072146Y0254256D01*
X0062772Y0254256D01*
X0062772Y0253271D01*
X0062789Y0253206D01*
X0040100Y0253206D01*
X0040100Y0262739D01*
X0040782Y0263421D01*
X0041281Y0264627D01*
X0041281Y0265932D01*
X0040782Y0267138D01*
X0039859Y0268061D01*
X0038653Y0268561D01*
X0037347Y0268561D01*
X0036141Y0268061D01*
X0035218Y0267138D01*
X0034719Y0265932D01*
X0034719Y0264627D01*
X0035218Y0263421D01*
X0035900Y0262739D01*
X0035900Y0253206D01*
X0008677Y0253206D01*
X0007748Y0252277D01*
X0007748Y0342051D01*
X0007794Y0342749D01*
X0008155Y0344096D01*
X0008852Y0345303D01*
X0009838Y0346290D01*
X0011046Y0346987D01*
X0012393Y0347348D01*
X0013091Y0347394D01*
X0272933Y0347394D01*
X0273630Y0347348D01*
X0274978Y0346987D01*
X0276185Y0346290D01*
X0277172Y0345303D01*
X0277869Y0344096D01*
X0278230Y0342749D01*
X0278276Y0342051D01*
X0278276Y0330421D01*
X0277076Y0331620D01*
X0274771Y0332575D01*
X0272276Y0332575D01*
X0269971Y0331620D01*
X0268207Y0329856D01*
X0267252Y0327551D01*
X0267252Y0325056D01*
X0268207Y0322751D01*
X0269971Y0320986D01*
X0271392Y0320398D01*
X0269971Y0319809D01*
X0268207Y0318045D01*
X0267252Y0315740D01*
X0267252Y0313245D01*
X0268207Y0310940D01*
X0269971Y0309175D01*
X0272276Y0308220D01*
X0274771Y0308220D01*
X0277076Y0309175D01*
X0278276Y0310375D01*
X0278276Y0011343D01*
X0278230Y0010645D01*
X0277869Y0009298D01*
X0277869Y0009298D01*
X0277172Y0008090D01*
X0276185Y0007104D01*
X0274978Y0006407D01*
X0273630Y0006046D01*
X0272933Y0006000D01*
X0013091Y0006000D01*
X0012393Y0006046D01*
X0011046Y0006407D01*
X0009838Y0007104D01*
X0008852Y0008090D01*
X0008621Y0008490D02*
X0015565Y0008490D01*
X0015383Y0008526D02*
X0018996Y0007807D01*
X0022609Y0008526D01*
X0025672Y0010572D01*
X0025672Y0010572D01*
X0025672Y0010572D01*
X0027718Y0013635D01*
X0027718Y0013635D01*
X0028437Y0017248D01*
X0027718Y0020861D01*
X0025672Y0023924D01*
X0025672Y0023924D01*
X0025672Y0023924D01*
X0022609Y0025970D01*
X0018996Y0026689D01*
X0015383Y0025970D01*
X0012320Y0023924D01*
X0010274Y0020861D01*
X0010274Y0020861D01*
X0009555Y0017248D01*
X0010274Y0013635D01*
X0012320Y0010572D01*
X0012320Y0010572D01*
X0012320Y0010572D01*
X0015383Y0008526D01*
X0015383Y0008526D01*
X0013943Y0009488D02*
X0008104Y0009488D01*
X0007836Y0010487D02*
X0012449Y0010487D01*
X0011710Y0011485D02*
X0007748Y0011485D01*
X0007748Y0012484D02*
X0011043Y0012484D01*
X0010376Y0013482D02*
X0007748Y0013482D01*
X0007748Y0014481D02*
X0010106Y0014481D01*
X0010274Y0013635D02*
X0010274Y0013635D01*
X0009907Y0015479D02*
X0007748Y0015479D01*
X0007748Y0016478D02*
X0009708Y0016478D01*
X0009555Y0017248D02*
X0009555Y0017248D01*
X0009601Y0017476D02*
X0007748Y0017476D01*
X0007748Y0018475D02*
X0009799Y0018475D01*
X0009998Y0019473D02*
X0007748Y0019473D01*
X0007748Y0020472D02*
X0010196Y0020472D01*
X0010681Y0021470D02*
X0007748Y0021470D01*
X0007748Y0022469D02*
X0011348Y0022469D01*
X0012015Y0023467D02*
X0007748Y0023467D01*
X0007748Y0024466D02*
X0013131Y0024466D01*
X0012320Y0023924D02*
X0012320Y0023924D01*
X0012320Y0023924D01*
X0014626Y0025464D02*
X0007748Y0025464D01*
X0007748Y0026463D02*
X0017859Y0026463D01*
X0018996Y0026689D02*
X0018996Y0026689D01*
X0020133Y0026463D02*
X0052997Y0026463D01*
X0052234Y0025699D02*
X0052234Y0024622D01*
X0056614Y0020242D01*
X0057691Y0020242D01*
X0061090Y0023641D01*
X0101682Y0024003D01*
X0102460Y0024003D01*
X0102467Y0024010D01*
X0102477Y0024010D01*
X0103023Y0024566D01*
X0103573Y0025116D01*
X0103573Y0025125D01*
X0103580Y0025133D01*
X0103573Y0025911D01*
X0103573Y0061788D01*
X0107001Y0058360D01*
X0108078Y0058360D01*
X0112459Y0062740D01*
X0112459Y0063817D01*
X0109092Y0067184D01*
X0109092Y0094088D01*
X0118208Y0094088D01*
X0119321Y0095201D01*
X0119321Y0164954D01*
X0218787Y0164954D01*
X0219900Y0166067D01*
X0219900Y0168330D01*
X0220615Y0169044D01*
X0221084Y0170178D01*
X0221084Y0171405D01*
X0220615Y0172538D01*
X0220325Y0172828D01*
X0225538Y0172828D01*
X0226253Y0172114D01*
X0227386Y0171644D01*
X0228613Y0171644D01*
X0229747Y0172114D01*
X0230615Y0172981D01*
X0231084Y0174115D01*
X0231084Y0175342D01*
X0230615Y0176475D01*
X0229747Y0177343D01*
X0228613Y0177813D01*
X0227386Y0177813D01*
X0226253Y0177343D01*
X0225538Y0176628D01*
X0160325Y0176628D01*
X0160615Y0176918D01*
X0161084Y0178052D01*
X0161084Y0179279D01*
X0160615Y0180412D01*
X0160325Y0180702D01*
X0205511Y0180702D01*
X0206225Y0179988D01*
X0207359Y0179518D01*
X0208586Y0179518D01*
X0209720Y0179988D01*
X0210587Y0180855D01*
X0211057Y0181989D01*
X0211057Y0183216D01*
X0210587Y0184349D01*
X0210297Y0184639D01*
X0220668Y0184639D01*
X0221383Y0183925D01*
X0222516Y0183455D01*
X0223743Y0183455D01*
X0224877Y0183925D01*
X0225745Y0184792D01*
X0226214Y0185926D01*
X0226214Y0187153D01*
X0225745Y0188286D01*
X0224877Y0189154D01*
X0223743Y0189624D01*
X0222516Y0189624D01*
X0221383Y0189154D01*
X0220668Y0188439D01*
X0054233Y0188439D01*
X0053120Y0187326D01*
X0053120Y0137839D01*
X0049954Y0137839D01*
X0049192Y0137078D01*
X0049192Y0129702D01*
X0049954Y0128940D01*
X0060086Y0128940D01*
X0060847Y0129702D01*
X0060847Y0137078D01*
X0060086Y0137839D01*
X0056920Y0137839D01*
X0056920Y0184639D01*
X0205648Y0184639D01*
X0205511Y0184502D01*
X0093603Y0184502D01*
X0092490Y0183389D01*
X0092490Y0137839D01*
X0089324Y0137839D01*
X0088562Y0137078D01*
X0088562Y0129702D01*
X0089324Y0128940D01*
X0099456Y0128940D01*
X0100217Y0129702D01*
X0100217Y0137078D01*
X0099456Y0137839D01*
X0096290Y0137839D01*
X0096290Y0180702D01*
X0155675Y0180702D01*
X0155538Y0180565D01*
X0104823Y0180565D01*
X0103710Y0179452D01*
X0103710Y0113249D01*
X0071359Y0113249D01*
X0067992Y0116616D01*
X0066915Y0116616D01*
X0061838Y0111540D01*
X0061838Y0110463D01*
X0066219Y0106082D01*
X0067296Y0106082D01*
X0070663Y0109449D01*
X0106397Y0109449D01*
X0107510Y0110562D01*
X0107510Y0176765D01*
X0155538Y0176765D01*
X0155675Y0176628D01*
X0108760Y0176628D01*
X0107647Y0175515D01*
X0107647Y0107731D01*
X0071359Y0107731D01*
X0070246Y0106618D01*
X0070246Y0098282D01*
X0017519Y0098282D01*
X0016734Y0098285D01*
X0016731Y0098282D01*
X0016726Y0098282D01*
X0016174Y0097730D01*
X0015616Y0097177D01*
X0015616Y0097172D01*
X0015613Y0097169D01*
X0015613Y0096388D01*
X0015533Y0077503D01*
X0012147Y0074118D01*
X0012147Y0073041D01*
X0017224Y0067964D01*
X0018301Y0067964D01*
X0022681Y0072345D01*
X0022681Y0073422D01*
X0019329Y0076774D01*
X0019405Y0094482D01*
X0044780Y0094482D01*
X0039706Y0089408D01*
X0039706Y0088331D01*
X0044087Y0083950D01*
X0045164Y0083950D01*
X0050240Y0089027D01*
X0050240Y0090104D01*
X0045863Y0094482D01*
X0072933Y0094482D01*
X0074046Y0095595D01*
X0074046Y0103931D01*
X0079001Y0103931D01*
X0077116Y0102046D01*
X0079633Y0099529D01*
X0082497Y0102394D01*
X0080960Y0103931D01*
X0108760Y0103931D01*
X0110334Y0103931D01*
X0111447Y0105044D01*
X0111447Y0172828D01*
X0185675Y0172828D01*
X0185538Y0172691D01*
X0112697Y0172691D01*
X0111584Y0171578D01*
X0111584Y0101825D01*
X0100886Y0101825D01*
X0099773Y0100712D01*
X0099773Y0051731D01*
X0097888Y0053616D01*
X0095372Y0051099D01*
X0095371Y0051099D02*
X0098236Y0048235D01*
X0099773Y0049772D01*
X0099773Y0027786D01*
X0061717Y0027447D01*
X0058387Y0030776D01*
X0057310Y0030776D01*
X0052234Y0025699D01*
X0052234Y0025464D02*
X0023366Y0025464D01*
X0022609Y0025970D02*
X0022609Y0025970D01*
X0024861Y0024466D02*
X0052391Y0024466D01*
X0053389Y0023467D02*
X0025977Y0023467D01*
X0026644Y0022469D02*
X0054388Y0022469D01*
X0055386Y0021470D02*
X0027311Y0021470D01*
X0027718Y0020861D02*
X0027718Y0020861D01*
X0027796Y0020472D02*
X0056385Y0020472D01*
X0057921Y0020472D02*
X0162157Y0020472D01*
X0162520Y0021470D02*
X0058920Y0021470D01*
X0059918Y0022469D02*
X0162884Y0022469D01*
X0163240Y0023446D02*
X0160717Y0016515D01*
X0161172Y0015539D01*
X0167918Y0013083D01*
X0168894Y0013539D01*
X0171417Y0020470D01*
X0170962Y0021446D01*
X0164216Y0023901D01*
X0163240Y0023446D01*
X0163285Y0023467D02*
X0060917Y0023467D01*
X0061702Y0027461D02*
X0063373Y0027461D01*
X0060704Y0028460D02*
X0099773Y0028460D01*
X0099773Y0029458D02*
X0059705Y0029458D01*
X0058706Y0030457D02*
X0099773Y0030457D01*
X0099773Y0031455D02*
X0007748Y0031455D01*
X0007748Y0030457D02*
X0056991Y0030457D01*
X0055993Y0029458D02*
X0007748Y0029458D01*
X0007748Y0028460D02*
X0054994Y0028460D01*
X0053996Y0027461D02*
X0007748Y0027461D01*
X0007748Y0032454D02*
X0099773Y0032454D01*
X0099773Y0033452D02*
X0046130Y0033452D01*
X0045546Y0032869D02*
X0047490Y0034813D01*
X0044973Y0037329D01*
X0042109Y0034465D01*
X0043704Y0032869D01*
X0044046Y0032672D01*
X0044428Y0032569D01*
X0044823Y0032569D01*
X0045204Y0032672D01*
X0045546Y0032869D01*
X0047128Y0034451D02*
X0099773Y0034451D01*
X0099773Y0035449D02*
X0046853Y0035449D01*
X0047269Y0036448D02*
X0045855Y0036448D01*
X0046270Y0037446D02*
X0045091Y0037446D01*
X0044973Y0037329D02*
X0045681Y0038036D01*
X0048197Y0035520D01*
X0050141Y0037463D01*
X0050338Y0037805D01*
X0050440Y0038187D01*
X0050440Y0038582D01*
X0050338Y0038963D01*
X0050141Y0039305D01*
X0048545Y0040901D01*
X0045681Y0038036D01*
X0044973Y0038743D01*
X0044266Y0038036D01*
X0044973Y0037329D01*
X0044856Y0037446D02*
X0043676Y0037446D01*
X0044266Y0038036D02*
X0041402Y0035172D01*
X0039806Y0036767D01*
X0039609Y0037109D01*
X0039506Y0037491D01*
X0039506Y0037886D01*
X0039609Y0038267D01*
X0039806Y0038609D01*
X0041750Y0040553D01*
X0044266Y0038036D01*
X0043858Y0038445D02*
X0044675Y0038445D01*
X0044973Y0038743D02*
X0042457Y0041260D01*
X0044400Y0043204D01*
X0044742Y0043401D01*
X0045124Y0043503D01*
X0045519Y0043503D01*
X0045900Y0043401D01*
X0046242Y0043204D01*
X0047838Y0041608D01*
X0044973Y0038743D01*
X0045272Y0038445D02*
X0046089Y0038445D01*
X0045673Y0039443D02*
X0047088Y0039443D01*
X0046672Y0040442D02*
X0048086Y0040442D01*
X0049004Y0040442D02*
X0099773Y0040442D01*
X0099773Y0041440D02*
X0047670Y0041440D01*
X0047007Y0042439D02*
X0078681Y0042439D01*
X0078746Y0042374D02*
X0079823Y0042374D01*
X0084900Y0047450D01*
X0084900Y0048527D01*
X0080519Y0052908D01*
X0079442Y0052908D01*
X0074366Y0047831D01*
X0074366Y0046754D01*
X0078746Y0042374D01*
X0079889Y0042439D02*
X0099773Y0042439D01*
X0099773Y0043437D02*
X0080887Y0043437D01*
X0081886Y0044436D02*
X0099773Y0044436D01*
X0099773Y0045434D02*
X0082884Y0045434D01*
X0083883Y0046433D02*
X0093590Y0046433D01*
X0094091Y0045932D02*
X0092148Y0047876D01*
X0094664Y0050392D01*
X0093957Y0051099D01*
X0091441Y0048583D01*
X0089497Y0050526D01*
X0089300Y0050868D01*
X0089197Y0051250D01*
X0089197Y0051645D01*
X0089300Y0052026D01*
X0089497Y0052368D01*
X0091093Y0053964D01*
X0093957Y0051099D01*
X0094664Y0051807D01*
X0091800Y0054671D01*
X0093395Y0056267D01*
X0093737Y0056464D01*
X0094119Y0056566D01*
X0094514Y0056566D01*
X0094895Y0056464D01*
X0095237Y0056267D01*
X0097181Y0054323D01*
X0094664Y0051807D01*
X0095372Y0051099D01*
X0095371Y0051099D02*
X0094664Y0050392D01*
X0097529Y0047528D01*
X0095933Y0045932D01*
X0095591Y0045735D01*
X0095210Y0045632D01*
X0094815Y0045632D01*
X0094433Y0045735D01*
X0094091Y0045932D01*
X0092592Y0047432D02*
X0084881Y0047432D01*
X0084900Y0048430D02*
X0092702Y0048430D01*
X0092286Y0049429D02*
X0093701Y0049429D01*
X0093285Y0050427D02*
X0094630Y0050427D01*
X0094699Y0050427D02*
X0096044Y0050427D01*
X0095698Y0051426D02*
X0095045Y0051426D01*
X0094283Y0051426D02*
X0093631Y0051426D01*
X0094047Y0052424D02*
X0092633Y0052424D01*
X0093048Y0053423D02*
X0091634Y0053423D01*
X0092050Y0054421D02*
X0041682Y0054421D01*
X0040684Y0055420D02*
X0065700Y0055420D01*
X0066219Y0054901D02*
X0061838Y0059282D01*
X0061838Y0060359D01*
X0066915Y0065435D01*
X0067992Y0065435D01*
X0072372Y0061055D01*
X0072372Y0059978D01*
X0067296Y0054901D01*
X0066219Y0054901D01*
X0067814Y0055420D02*
X0092548Y0055420D01*
X0093658Y0056418D02*
X0068813Y0056418D01*
X0069811Y0057417D02*
X0099773Y0057417D01*
X0099773Y0058415D02*
X0070810Y0058415D01*
X0071808Y0059414D02*
X0099773Y0059414D01*
X0099773Y0060412D02*
X0072372Y0060412D01*
X0072016Y0061411D02*
X0099773Y0061411D01*
X0099773Y0062409D02*
X0071018Y0062409D01*
X0070019Y0063408D02*
X0099773Y0063408D01*
X0099773Y0064406D02*
X0069021Y0064406D01*
X0068022Y0065405D02*
X0099773Y0065405D01*
X0099773Y0066403D02*
X0054755Y0066403D01*
X0055753Y0065405D02*
X0066884Y0065405D01*
X0065886Y0064406D02*
X0056752Y0064406D01*
X0057341Y0063817D02*
X0052264Y0068894D01*
X0051187Y0068894D01*
X0046807Y0064513D01*
X0046807Y0063436D01*
X0051883Y0058360D01*
X0052960Y0058360D01*
X0057341Y0062740D01*
X0057341Y0063817D01*
X0057341Y0063408D02*
X0064887Y0063408D01*
X0063889Y0062409D02*
X0057010Y0062409D01*
X0056011Y0061411D02*
X0062890Y0061411D01*
X0061892Y0060412D02*
X0055012Y0060412D01*
X0054014Y0059414D02*
X0061838Y0059414D01*
X0062705Y0058415D02*
X0053015Y0058415D01*
X0051828Y0058415D02*
X0007748Y0058415D01*
X0007748Y0057417D02*
X0063703Y0057417D01*
X0064702Y0056418D02*
X0007748Y0056418D01*
X0007748Y0055420D02*
X0037713Y0055420D01*
X0038660Y0056366D02*
X0034279Y0051986D01*
X0034279Y0050909D01*
X0039356Y0045832D01*
X0040433Y0045832D01*
X0044813Y0050213D01*
X0044813Y0051290D01*
X0039737Y0056366D01*
X0038660Y0056366D01*
X0036714Y0054421D02*
X0007748Y0054421D01*
X0007748Y0053423D02*
X0035716Y0053423D01*
X0034717Y0052424D02*
X0007748Y0052424D01*
X0007748Y0051426D02*
X0034279Y0051426D01*
X0034761Y0050427D02*
X0007748Y0050427D01*
X0007748Y0049429D02*
X0035760Y0049429D01*
X0036758Y0048430D02*
X0007748Y0048430D01*
X0007748Y0047432D02*
X0037757Y0047432D01*
X0038755Y0046433D02*
X0007748Y0046433D01*
X0007748Y0045434D02*
X0075686Y0045434D01*
X0076684Y0044436D02*
X0007748Y0044436D01*
X0007748Y0043437D02*
X0044878Y0043437D01*
X0045765Y0043437D02*
X0077683Y0043437D01*
X0074687Y0046433D02*
X0041033Y0046433D01*
X0042032Y0047432D02*
X0074366Y0047432D01*
X0074965Y0048430D02*
X0043030Y0048430D01*
X0044029Y0049429D02*
X0075963Y0049429D01*
X0076962Y0050427D02*
X0044813Y0050427D01*
X0044678Y0051426D02*
X0077960Y0051426D01*
X0078959Y0052424D02*
X0043679Y0052424D01*
X0042681Y0053423D02*
X0090551Y0053423D01*
X0089553Y0052424D02*
X0081003Y0052424D01*
X0082002Y0051426D02*
X0089197Y0051426D01*
X0089596Y0050427D02*
X0083000Y0050427D01*
X0083999Y0049429D02*
X0090595Y0049429D01*
X0095628Y0049429D02*
X0097042Y0049429D01*
X0096627Y0048430D02*
X0098041Y0048430D01*
X0098431Y0048430D02*
X0099773Y0048430D01*
X0099773Y0047432D02*
X0097433Y0047432D01*
X0096434Y0046433D02*
X0099773Y0046433D01*
X0099773Y0049429D02*
X0099430Y0049429D01*
X0099773Y0052424D02*
X0099080Y0052424D01*
X0099773Y0053423D02*
X0098082Y0053423D01*
X0097695Y0053423D02*
X0096280Y0053423D01*
X0096696Y0052424D02*
X0095282Y0052424D01*
X0097083Y0054421D02*
X0099773Y0054421D01*
X0099773Y0055420D02*
X0096085Y0055420D01*
X0094975Y0056418D02*
X0099773Y0056418D01*
X0103573Y0056418D02*
X0278276Y0056418D01*
X0278276Y0055420D02*
X0103573Y0055420D01*
X0103573Y0054421D02*
X0278276Y0054421D01*
X0278276Y0053423D02*
X0103573Y0053423D01*
X0103573Y0052424D02*
X0278276Y0052424D01*
X0278276Y0051426D02*
X0103573Y0051426D01*
X0103573Y0050427D02*
X0278276Y0050427D01*
X0278276Y0049429D02*
X0103573Y0049429D01*
X0103573Y0048430D02*
X0278276Y0048430D01*
X0278276Y0047432D02*
X0103573Y0047432D01*
X0103573Y0046433D02*
X0278276Y0046433D01*
X0278276Y0045434D02*
X0103573Y0045434D01*
X0103573Y0044436D02*
X0278276Y0044436D01*
X0278276Y0043437D02*
X0103573Y0043437D01*
X0103573Y0042439D02*
X0278276Y0042439D01*
X0278276Y0041440D02*
X0103573Y0041440D01*
X0103573Y0040442D02*
X0278276Y0040442D01*
X0278276Y0039443D02*
X0103573Y0039443D01*
X0103573Y0038445D02*
X0220733Y0038445D01*
X0220330Y0038257D02*
X0217807Y0031326D01*
X0218262Y0030349D01*
X0225008Y0027894D01*
X0225985Y0028349D01*
X0228507Y0035280D01*
X0228052Y0036257D01*
X0221306Y0038712D01*
X0220330Y0038257D01*
X0220035Y0037446D02*
X0103573Y0037446D01*
X0103573Y0036448D02*
X0219671Y0036448D01*
X0219308Y0035449D02*
X0103573Y0035449D01*
X0103573Y0034451D02*
X0218945Y0034451D01*
X0218581Y0033452D02*
X0103573Y0033452D01*
X0103573Y0032454D02*
X0218218Y0032454D01*
X0217854Y0031455D02*
X0103573Y0031455D01*
X0103573Y0030457D02*
X0218212Y0030457D01*
X0220711Y0029458D02*
X0103573Y0029458D01*
X0103573Y0028460D02*
X0223454Y0028460D01*
X0226025Y0028460D02*
X0237712Y0028460D01*
X0238076Y0029458D02*
X0226388Y0029458D01*
X0226752Y0030457D02*
X0238439Y0030457D01*
X0238803Y0031455D02*
X0227115Y0031455D01*
X0227478Y0032454D02*
X0278276Y0032454D01*
X0278276Y0033452D02*
X0227842Y0033452D01*
X0228205Y0034451D02*
X0278276Y0034451D01*
X0278276Y0035449D02*
X0228429Y0035449D01*
X0227526Y0036448D02*
X0278276Y0036448D01*
X0278276Y0037446D02*
X0224783Y0037446D01*
X0222040Y0038445D02*
X0278276Y0038445D01*
X0278276Y0031455D02*
X0241243Y0031455D01*
X0239804Y0031979D02*
X0238828Y0031524D01*
X0236305Y0024593D01*
X0236760Y0023617D01*
X0243506Y0021161D01*
X0244482Y0021616D01*
X0247005Y0028548D01*
X0246550Y0029524D01*
X0239804Y0031979D01*
X0243987Y0030457D02*
X0278276Y0030457D01*
X0278276Y0029458D02*
X0246581Y0029458D01*
X0246973Y0028460D02*
X0278276Y0028460D01*
X0278276Y0027461D02*
X0246610Y0027461D01*
X0246246Y0026463D02*
X0265890Y0026463D01*
X0267028Y0026689D02*
X0263415Y0025970D01*
X0263415Y0025970D01*
X0260352Y0023924D01*
X0260352Y0023924D01*
X0260352Y0023924D01*
X0258305Y0020861D01*
X0258305Y0020861D01*
X0257587Y0017248D01*
X0258305Y0013635D01*
X0260352Y0010572D01*
X0263415Y0008526D01*
X0267028Y0007807D01*
X0270640Y0008526D01*
X0273703Y0010572D01*
X0275750Y0013635D01*
X0276468Y0017248D01*
X0275750Y0020861D01*
X0273703Y0023924D01*
X0270640Y0025970D01*
X0267028Y0026689D01*
X0267028Y0026689D01*
X0268165Y0026463D02*
X0278276Y0026463D01*
X0278276Y0025464D02*
X0271398Y0025464D01*
X0270640Y0025970D02*
X0270640Y0025970D01*
X0272892Y0024466D02*
X0278276Y0024466D01*
X0278276Y0023467D02*
X0274008Y0023467D01*
X0273703Y0023924D02*
X0273703Y0023924D01*
X0273703Y0023924D01*
X0274676Y0022469D02*
X0278276Y0022469D01*
X0278276Y0021470D02*
X0275343Y0021470D01*
X0275750Y0020861D02*
X0275750Y0020861D01*
X0275827Y0020472D02*
X0278276Y0020472D01*
X0278276Y0019473D02*
X0276026Y0019473D01*
X0276224Y0018475D02*
X0278276Y0018475D01*
X0278276Y0017476D02*
X0276423Y0017476D01*
X0276315Y0016478D02*
X0278276Y0016478D01*
X0278276Y0015479D02*
X0276117Y0015479D01*
X0275918Y0014481D02*
X0278276Y0014481D01*
X0278276Y0013482D02*
X0275648Y0013482D01*
X0275750Y0013635D02*
X0275750Y0013635D01*
X0274980Y0012484D02*
X0278276Y0012484D01*
X0278276Y0011485D02*
X0274313Y0011485D01*
X0273703Y0010572D02*
X0273703Y0010572D01*
X0273575Y0010487D02*
X0278187Y0010487D01*
X0277920Y0009488D02*
X0272081Y0009488D01*
X0270459Y0008490D02*
X0277402Y0008490D01*
X0276572Y0007491D02*
X0187642Y0007491D01*
X0187392Y0006806D02*
X0189915Y0013737D01*
X0189460Y0014713D01*
X0182713Y0017169D01*
X0181737Y0016714D01*
X0179215Y0009782D01*
X0179670Y0008806D01*
X0186416Y0006351D01*
X0187392Y0006806D01*
X0186720Y0006493D02*
X0275126Y0006493D01*
X0267028Y0007807D02*
X0267028Y0007807D01*
X0263596Y0008490D02*
X0188005Y0008490D01*
X0188368Y0009488D02*
X0261974Y0009488D01*
X0263415Y0008526D02*
X0263415Y0008526D01*
X0260480Y0010487D02*
X0188732Y0010487D01*
X0189095Y0011485D02*
X0259742Y0011485D01*
X0260352Y0010572D02*
X0260352Y0010572D01*
X0259075Y0012484D02*
X0189459Y0012484D01*
X0189822Y0013482D02*
X0258407Y0013482D01*
X0258305Y0013635D02*
X0258305Y0013635D01*
X0258137Y0014481D02*
X0189568Y0014481D01*
X0187356Y0015479D02*
X0257938Y0015479D01*
X0257740Y0016478D02*
X0184612Y0016478D01*
X0181652Y0016478D02*
X0169964Y0016478D01*
X0170327Y0017476D02*
X0257632Y0017476D01*
X0257587Y0017248D02*
X0257587Y0017248D01*
X0257831Y0018475D02*
X0170691Y0018475D01*
X0171054Y0019473D02*
X0258029Y0019473D01*
X0258228Y0020472D02*
X0171416Y0020472D01*
X0170895Y0021470D02*
X0242658Y0021470D01*
X0244169Y0021470D02*
X0258712Y0021470D01*
X0259380Y0022469D02*
X0244793Y0022469D01*
X0245156Y0023467D02*
X0260047Y0023467D01*
X0261163Y0024466D02*
X0245519Y0024466D01*
X0245883Y0025464D02*
X0262657Y0025464D01*
X0239914Y0022469D02*
X0168152Y0022469D01*
X0165408Y0023467D02*
X0237171Y0023467D01*
X0236364Y0024466D02*
X0102925Y0024466D01*
X0103577Y0025464D02*
X0236622Y0025464D01*
X0236985Y0026463D02*
X0103573Y0026463D01*
X0103573Y0027461D02*
X0237349Y0027461D01*
X0206254Y0058343D02*
X0206481Y0058667D01*
X0207455Y0061342D01*
X0203648Y0062728D01*
X0203990Y0063668D01*
X0203050Y0064010D01*
X0204469Y0067909D01*
X0201886Y0068849D01*
X0201493Y0068884D01*
X0201104Y0068815D01*
X0200746Y0068648D01*
X0200444Y0068394D01*
X0200217Y0068071D01*
X0199243Y0065395D01*
X0203050Y0064010D01*
X0202708Y0063070D01*
X0198901Y0064456D01*
X0197927Y0061780D01*
X0197893Y0061387D01*
X0197962Y0060998D01*
X0198129Y0060640D01*
X0198382Y0060337D01*
X0198706Y0060111D01*
X0201289Y0059171D01*
X0202708Y0063070D01*
X0203648Y0062728D01*
X0202229Y0058829D01*
X0204811Y0057889D01*
X0205205Y0057854D01*
X0205594Y0057923D01*
X0205952Y0058090D01*
X0206254Y0058343D01*
X0206305Y0058415D02*
X0278276Y0058415D01*
X0278276Y0057417D02*
X0103573Y0057417D01*
X0103573Y0058415D02*
X0106946Y0058415D01*
X0108134Y0058415D02*
X0203365Y0058415D01*
X0202441Y0059414D02*
X0201377Y0059414D01*
X0200621Y0059414D02*
X0109132Y0059414D01*
X0110131Y0060412D02*
X0198320Y0060412D01*
X0197895Y0061411D02*
X0111129Y0061411D01*
X0112128Y0062409D02*
X0198156Y0062409D01*
X0198520Y0063408D02*
X0112459Y0063408D01*
X0111870Y0064406D02*
X0157143Y0064406D01*
X0159794Y0063441D02*
X0160771Y0063896D01*
X0163293Y0070827D01*
X0162838Y0071804D01*
X0156092Y0074259D01*
X0155116Y0073804D01*
X0152593Y0066873D01*
X0153048Y0065896D01*
X0159794Y0063441D01*
X0160956Y0064406D02*
X0198883Y0064406D01*
X0199037Y0064406D02*
X0201961Y0064406D01*
X0201780Y0063408D02*
X0202831Y0063408D01*
X0203194Y0064406D02*
X0204259Y0064406D01*
X0203990Y0063668D02*
X0205409Y0067567D01*
X0207992Y0066627D01*
X0208315Y0066400D01*
X0208569Y0066098D01*
X0208736Y0065740D01*
X0208805Y0065351D01*
X0208770Y0064957D01*
X0207797Y0062282D01*
X0203990Y0063668D01*
X0203895Y0063408D02*
X0204704Y0063408D01*
X0204524Y0062409D02*
X0207447Y0062409D01*
X0207843Y0062409D02*
X0278276Y0062409D01*
X0278276Y0061411D02*
X0207267Y0061411D01*
X0207116Y0060412D02*
X0278276Y0060412D01*
X0278276Y0059414D02*
X0206753Y0059414D01*
X0203168Y0061411D02*
X0202104Y0061411D01*
X0202468Y0062409D02*
X0203532Y0062409D01*
X0202805Y0060412D02*
X0201741Y0060412D01*
X0203558Y0065405D02*
X0204622Y0065405D01*
X0204985Y0066403D02*
X0203921Y0066403D01*
X0204285Y0067402D02*
X0205349Y0067402D01*
X0205863Y0067402D02*
X0278276Y0067402D01*
X0278276Y0068400D02*
X0203120Y0068400D01*
X0200451Y0068400D02*
X0188862Y0068400D01*
X0188499Y0067402D02*
X0199974Y0067402D01*
X0199610Y0066403D02*
X0188135Y0066403D01*
X0187772Y0065405D02*
X0199247Y0065405D01*
X0208311Y0066403D02*
X0278276Y0066403D01*
X0278276Y0065405D02*
X0208795Y0065405D01*
X0208570Y0064406D02*
X0278276Y0064406D01*
X0278276Y0063408D02*
X0208206Y0063408D01*
X0213774Y0079384D02*
X0186751Y0079384D01*
X0186751Y0080382D02*
X0211030Y0080382D01*
X0210138Y0080707D02*
X0216885Y0078252D01*
X0217861Y0078707D01*
X0220384Y0085638D01*
X0219928Y0086614D01*
X0213182Y0089070D01*
X0212206Y0088614D01*
X0209683Y0081683D01*
X0210138Y0080707D01*
X0209824Y0081381D02*
X0186751Y0081381D01*
X0186751Y0082379D02*
X0209937Y0082379D01*
X0210300Y0083378D02*
X0186751Y0083378D01*
X0186751Y0084376D02*
X0210664Y0084376D01*
X0211027Y0085375D02*
X0199225Y0085375D01*
X0199363Y0085439D02*
X0201886Y0092371D01*
X0201431Y0093347D01*
X0194684Y0095802D01*
X0193708Y0095347D01*
X0191185Y0088416D01*
X0191641Y0087440D01*
X0198387Y0084984D01*
X0199363Y0085439D01*
X0199703Y0086373D02*
X0211390Y0086373D01*
X0211754Y0087372D02*
X0200066Y0087372D01*
X0200430Y0088370D02*
X0212117Y0088370D01*
X0215103Y0088370D02*
X0238570Y0088370D01*
X0238206Y0087372D02*
X0217846Y0087372D01*
X0220041Y0086373D02*
X0237843Y0086373D01*
X0237479Y0085375D02*
X0220288Y0085375D01*
X0219924Y0084376D02*
X0237116Y0084376D01*
X0236753Y0083378D02*
X0219561Y0083378D01*
X0219198Y0082379D02*
X0236850Y0082379D01*
X0237046Y0081959D02*
X0243793Y0079503D01*
X0244769Y0079958D01*
X0245880Y0083012D01*
X0252067Y0083012D01*
X0253180Y0084125D01*
X0253180Y0262818D01*
X0253894Y0263532D01*
X0254364Y0264666D01*
X0254364Y0265893D01*
X0253894Y0267027D01*
X0253027Y0267894D01*
X0251893Y0268364D01*
X0250666Y0268364D01*
X0249532Y0267894D01*
X0249243Y0267604D01*
X0249243Y0270692D01*
X0249957Y0271406D01*
X0250427Y0272540D01*
X0250427Y0273767D01*
X0249957Y0274901D01*
X0249090Y0275768D01*
X0247956Y0276238D01*
X0246729Y0276238D01*
X0246321Y0276069D01*
X0246490Y0276477D01*
X0246490Y0277704D01*
X0246020Y0278838D01*
X0245153Y0279705D01*
X0244019Y0280175D01*
X0242792Y0280175D01*
X0241658Y0279705D01*
X0240791Y0278838D01*
X0240321Y0277704D01*
X0240321Y0276477D01*
X0240791Y0275343D01*
X0241506Y0274629D01*
X0241506Y0271541D01*
X0241216Y0271831D01*
X0240082Y0272301D01*
X0238855Y0272301D01*
X0237721Y0271831D01*
X0236854Y0270964D01*
X0236384Y0269830D01*
X0236384Y0268603D01*
X0236854Y0267469D01*
X0237569Y0266755D01*
X0237569Y0156943D01*
X0157442Y0156943D01*
X0156329Y0155830D01*
X0156329Y0132578D01*
X0155402Y0132146D01*
X0152879Y0125214D01*
X0153334Y0124238D01*
X0160081Y0121783D01*
X0161057Y0122238D01*
X0163580Y0129169D01*
X0163124Y0130145D01*
X0160129Y0131235D01*
X0160129Y0153143D01*
X0240255Y0153143D01*
X0241368Y0154256D01*
X0241368Y0266755D01*
X0241506Y0266892D01*
X0241506Y0153006D01*
X0184064Y0153006D01*
X0182951Y0151893D01*
X0182951Y0075488D01*
X0182024Y0075055D01*
X0179501Y0068124D01*
X0179956Y0067148D01*
X0186702Y0064693D01*
X0187678Y0065148D01*
X0190201Y0072079D01*
X0189746Y0073055D01*
X0186751Y0074145D01*
X0186751Y0149206D01*
X0244193Y0149206D01*
X0245305Y0150319D01*
X0245305Y0270829D01*
X0245443Y0270692D01*
X0245443Y0143902D01*
X0220642Y0143902D01*
X0220670Y0143980D01*
X0220215Y0144956D01*
X0213468Y0147411D01*
X0212492Y0146956D01*
X0209970Y0140025D01*
X0210425Y0139049D01*
X0217171Y0136593D01*
X0218147Y0137049D01*
X0219259Y0140102D01*
X0230777Y0140102D01*
X0230686Y0139972D01*
X0229712Y0137296D01*
X0233519Y0135911D01*
X0234938Y0139810D01*
X0234134Y0140102D01*
X0248130Y0140102D01*
X0249243Y0141215D01*
X0249243Y0262955D01*
X0249380Y0262818D01*
X0249380Y0086812D01*
X0247263Y0086812D01*
X0247291Y0086890D01*
X0246836Y0087866D01*
X0240090Y0090321D01*
X0239114Y0089866D01*
X0236591Y0082935D01*
X0237046Y0081959D01*
X0238634Y0081381D02*
X0218834Y0081381D01*
X0218471Y0080382D02*
X0241377Y0080382D01*
X0244923Y0080382D02*
X0256398Y0080382D01*
X0256334Y0080206D02*
X0257307Y0082881D01*
X0257534Y0083205D01*
X0257836Y0083459D01*
X0258194Y0083626D01*
X0258583Y0083694D01*
X0258977Y0083660D01*
X0261560Y0082720D01*
X0260140Y0078820D01*
X0259798Y0077881D01*
X0255992Y0079266D01*
X0255018Y0076591D01*
X0254983Y0076197D01*
X0255052Y0075808D01*
X0255219Y0075450D01*
X0255473Y0075148D01*
X0255796Y0074921D01*
X0258379Y0073981D01*
X0259798Y0077881D01*
X0260738Y0077539D01*
X0261080Y0078478D01*
X0264887Y0077093D01*
X0265861Y0079768D01*
X0265895Y0080162D01*
X0265827Y0080550D01*
X0265660Y0080908D01*
X0265406Y0081211D01*
X0265082Y0081438D01*
X0262499Y0082378D01*
X0261080Y0078478D01*
X0260140Y0078820D01*
X0256334Y0080206D01*
X0256761Y0081381D02*
X0245286Y0081381D01*
X0245650Y0082379D02*
X0257125Y0082379D01*
X0257740Y0083378D02*
X0252432Y0083378D01*
X0253180Y0084376D02*
X0278276Y0084376D01*
X0278276Y0083378D02*
X0259751Y0083378D01*
X0261436Y0082379D02*
X0278276Y0082379D01*
X0278276Y0081381D02*
X0265163Y0081381D01*
X0265856Y0080382D02*
X0278276Y0080382D01*
X0278276Y0079384D02*
X0265721Y0079384D01*
X0265357Y0078385D02*
X0278276Y0078385D01*
X0278276Y0077387D02*
X0264994Y0077387D01*
X0264079Y0077387D02*
X0261155Y0077387D01*
X0260738Y0077539D02*
X0264545Y0076153D01*
X0263571Y0073478D01*
X0263345Y0073154D01*
X0263042Y0072900D01*
X0262684Y0072733D01*
X0262295Y0072665D01*
X0261902Y0072699D01*
X0259319Y0073639D01*
X0260738Y0077539D01*
X0260683Y0077387D02*
X0259619Y0077387D01*
X0259982Y0078385D02*
X0258412Y0078385D01*
X0258592Y0079384D02*
X0218107Y0079384D01*
X0217172Y0078385D02*
X0255671Y0078385D01*
X0255307Y0077387D02*
X0186751Y0077387D01*
X0186751Y0078385D02*
X0216517Y0078385D01*
X0200793Y0089369D02*
X0238933Y0089369D01*
X0242706Y0089369D02*
X0249380Y0089369D01*
X0249380Y0090368D02*
X0201157Y0090368D01*
X0201520Y0091366D02*
X0249380Y0091366D01*
X0249380Y0092365D02*
X0201883Y0092365D01*
X0201386Y0093363D02*
X0249380Y0093363D01*
X0249380Y0094362D02*
X0198643Y0094362D01*
X0195899Y0095360D02*
X0249380Y0095360D01*
X0249380Y0096359D02*
X0186751Y0096359D01*
X0186751Y0097357D02*
X0249380Y0097357D01*
X0249380Y0098356D02*
X0186751Y0098356D01*
X0186751Y0099354D02*
X0249380Y0099354D01*
X0249380Y0100353D02*
X0186751Y0100353D01*
X0186751Y0101351D02*
X0249380Y0101351D01*
X0249380Y0102350D02*
X0186751Y0102350D01*
X0186751Y0103348D02*
X0249380Y0103348D01*
X0249380Y0104347D02*
X0186751Y0104347D01*
X0186751Y0105345D02*
X0249380Y0105345D01*
X0249380Y0106344D02*
X0186751Y0106344D01*
X0186751Y0107342D02*
X0249380Y0107342D01*
X0249380Y0108341D02*
X0186751Y0108341D01*
X0186751Y0109339D02*
X0249380Y0109339D01*
X0249380Y0110338D02*
X0186751Y0110338D01*
X0186751Y0111336D02*
X0249380Y0111336D01*
X0249380Y0112335D02*
X0186751Y0112335D01*
X0186751Y0113333D02*
X0249380Y0113333D01*
X0249380Y0114332D02*
X0186751Y0114332D01*
X0186751Y0115330D02*
X0249380Y0115330D01*
X0249380Y0116329D02*
X0186751Y0116329D01*
X0186751Y0117327D02*
X0249380Y0117327D01*
X0249380Y0118326D02*
X0186751Y0118326D01*
X0186751Y0119324D02*
X0249380Y0119324D01*
X0249380Y0120323D02*
X0186751Y0120323D01*
X0186751Y0121321D02*
X0249380Y0121321D01*
X0249380Y0122320D02*
X0186751Y0122320D01*
X0186751Y0123318D02*
X0249380Y0123318D01*
X0249380Y0124317D02*
X0186751Y0124317D01*
X0186751Y0125315D02*
X0249380Y0125315D01*
X0249380Y0126314D02*
X0186751Y0126314D01*
X0186751Y0127312D02*
X0249380Y0127312D01*
X0249380Y0128311D02*
X0186751Y0128311D01*
X0186751Y0129309D02*
X0249380Y0129309D01*
X0249380Y0130308D02*
X0236768Y0130308D01*
X0236723Y0130244D02*
X0236950Y0130568D01*
X0237923Y0133243D01*
X0234116Y0134629D01*
X0232697Y0130729D01*
X0235280Y0129789D01*
X0235674Y0129755D01*
X0236062Y0129824D01*
X0236420Y0129990D01*
X0236723Y0130244D01*
X0237218Y0131306D02*
X0249380Y0131306D01*
X0249380Y0132305D02*
X0237582Y0132305D01*
X0237758Y0133303D02*
X0249380Y0133303D01*
X0249380Y0134302D02*
X0238309Y0134302D01*
X0238265Y0134183D02*
X0239239Y0136858D01*
X0239273Y0137252D01*
X0239205Y0137641D01*
X0239038Y0137999D01*
X0238784Y0138301D01*
X0238461Y0138528D01*
X0235878Y0139468D01*
X0234458Y0135569D01*
X0233519Y0135911D01*
X0233177Y0134971D01*
X0234116Y0134629D01*
X0234458Y0135568D01*
X0238265Y0134183D01*
X0237938Y0134302D02*
X0235014Y0134302D01*
X0235195Y0135301D02*
X0234361Y0135301D01*
X0234724Y0136299D02*
X0233660Y0136299D01*
X0233297Y0135301D02*
X0232271Y0135301D01*
X0233177Y0134971D02*
X0229370Y0136356D01*
X0228396Y0133681D01*
X0228362Y0133288D01*
X0228430Y0132899D01*
X0228597Y0132541D01*
X0228851Y0132238D01*
X0229175Y0132012D01*
X0231758Y0131071D01*
X0233177Y0134971D01*
X0232933Y0134302D02*
X0233997Y0134302D01*
X0233634Y0133303D02*
X0232570Y0133303D01*
X0232206Y0132305D02*
X0233271Y0132305D01*
X0232907Y0131306D02*
X0231843Y0131306D01*
X0231112Y0131306D02*
X0186751Y0131306D01*
X0186751Y0130308D02*
X0233855Y0130308D01*
X0228795Y0132305D02*
X0186751Y0132305D01*
X0186751Y0133303D02*
X0228363Y0133303D01*
X0228622Y0134302D02*
X0186751Y0134302D01*
X0186751Y0135301D02*
X0228986Y0135301D01*
X0229349Y0136299D02*
X0186751Y0136299D01*
X0186751Y0137298D02*
X0215236Y0137298D01*
X0212493Y0138296D02*
X0186751Y0138296D01*
X0186751Y0139295D02*
X0210310Y0139295D01*
X0210067Y0140293D02*
X0186751Y0140293D01*
X0186751Y0141292D02*
X0210431Y0141292D01*
X0210794Y0142290D02*
X0186751Y0142290D01*
X0186751Y0143289D02*
X0211157Y0143289D01*
X0211521Y0144287D02*
X0186751Y0144287D01*
X0186751Y0145286D02*
X0211884Y0145286D01*
X0212248Y0146284D02*
X0186751Y0146284D01*
X0186751Y0147283D02*
X0213192Y0147283D01*
X0213822Y0147283D02*
X0245443Y0147283D01*
X0245443Y0148281D02*
X0186751Y0148281D01*
X0182951Y0148281D02*
X0160129Y0148281D01*
X0160129Y0147283D02*
X0182951Y0147283D01*
X0182951Y0146284D02*
X0160129Y0146284D01*
X0160129Y0145286D02*
X0182951Y0145286D01*
X0182951Y0144287D02*
X0160129Y0144287D01*
X0160129Y0143289D02*
X0182951Y0143289D01*
X0182951Y0142290D02*
X0160129Y0142290D01*
X0160129Y0141292D02*
X0182951Y0141292D01*
X0182951Y0140293D02*
X0160129Y0140293D01*
X0160129Y0139295D02*
X0182951Y0139295D01*
X0182951Y0138296D02*
X0160129Y0138296D01*
X0160129Y0137298D02*
X0182951Y0137298D01*
X0182951Y0136299D02*
X0160129Y0136299D01*
X0160129Y0135301D02*
X0182951Y0135301D01*
X0182951Y0134302D02*
X0160129Y0134302D01*
X0160129Y0133303D02*
X0182951Y0133303D01*
X0182951Y0132305D02*
X0160129Y0132305D01*
X0160129Y0131306D02*
X0182951Y0131306D01*
X0182951Y0130308D02*
X0162678Y0130308D01*
X0163514Y0129309D02*
X0182951Y0129309D01*
X0182951Y0128311D02*
X0163267Y0128311D01*
X0162904Y0127312D02*
X0182951Y0127312D01*
X0182951Y0126314D02*
X0162540Y0126314D01*
X0162177Y0125315D02*
X0173704Y0125315D01*
X0173595Y0125161D02*
X0172622Y0122485D01*
X0176428Y0121100D01*
X0176086Y0120160D01*
X0176087Y0120160D02*
X0177026Y0119818D01*
X0175607Y0115919D01*
X0178190Y0114979D01*
X0178583Y0114944D01*
X0178972Y0115013D01*
X0179330Y0115180D01*
X0179633Y0115434D01*
X0179859Y0115757D01*
X0180833Y0118433D01*
X0177026Y0119818D01*
X0177368Y0120758D01*
X0176429Y0121100D01*
X0177848Y0124999D01*
X0175265Y0125939D01*
X0174871Y0125974D01*
X0174482Y0125905D01*
X0174125Y0125738D01*
X0173822Y0125484D01*
X0173595Y0125161D01*
X0173288Y0124317D02*
X0161813Y0124317D01*
X0161450Y0123318D02*
X0172925Y0123318D01*
X0173077Y0122320D02*
X0161087Y0122320D01*
X0158605Y0122320D02*
X0119321Y0122320D01*
X0119321Y0123318D02*
X0155862Y0123318D01*
X0153298Y0124317D02*
X0119321Y0124317D01*
X0119321Y0125315D02*
X0152916Y0125315D01*
X0153280Y0126314D02*
X0119321Y0126314D01*
X0119321Y0127312D02*
X0153643Y0127312D01*
X0154006Y0128311D02*
X0119321Y0128311D01*
X0119321Y0129309D02*
X0154370Y0129309D01*
X0154733Y0130308D02*
X0119321Y0130308D01*
X0119321Y0131306D02*
X0155097Y0131306D01*
X0155744Y0132305D02*
X0119321Y0132305D01*
X0119321Y0133303D02*
X0156329Y0133303D01*
X0156329Y0134302D02*
X0119321Y0134302D01*
X0119321Y0135301D02*
X0156329Y0135301D01*
X0156329Y0136299D02*
X0119321Y0136299D01*
X0119321Y0137298D02*
X0156329Y0137298D01*
X0156329Y0138296D02*
X0119321Y0138296D01*
X0119321Y0139295D02*
X0156329Y0139295D01*
X0156329Y0140293D02*
X0119321Y0140293D01*
X0119321Y0141292D02*
X0156329Y0141292D01*
X0156329Y0142290D02*
X0119321Y0142290D01*
X0119321Y0143289D02*
X0156329Y0143289D01*
X0156329Y0144287D02*
X0119321Y0144287D01*
X0119321Y0145286D02*
X0156329Y0145286D01*
X0156329Y0146284D02*
X0119321Y0146284D01*
X0119321Y0147283D02*
X0156329Y0147283D01*
X0156329Y0148281D02*
X0119321Y0148281D01*
X0119321Y0149280D02*
X0156329Y0149280D01*
X0156329Y0150278D02*
X0119321Y0150278D01*
X0119321Y0151277D02*
X0156329Y0151277D01*
X0156329Y0152275D02*
X0119321Y0152275D01*
X0119321Y0153274D02*
X0156329Y0153274D01*
X0156329Y0154272D02*
X0119321Y0154272D01*
X0119321Y0155271D02*
X0156329Y0155271D01*
X0156768Y0156269D02*
X0119321Y0156269D01*
X0119321Y0157268D02*
X0237569Y0157268D01*
X0237569Y0158266D02*
X0119321Y0158266D01*
X0119321Y0159265D02*
X0237569Y0159265D01*
X0237569Y0160263D02*
X0119321Y0160263D01*
X0119321Y0161262D02*
X0237569Y0161262D01*
X0237569Y0162260D02*
X0119321Y0162260D01*
X0119321Y0163259D02*
X0237569Y0163259D01*
X0237569Y0164257D02*
X0119321Y0164257D01*
X0111584Y0164257D02*
X0111447Y0164257D01*
X0111447Y0163259D02*
X0111584Y0163259D01*
X0111584Y0162260D02*
X0111447Y0162260D01*
X0111447Y0161262D02*
X0111584Y0161262D01*
X0111584Y0160263D02*
X0111447Y0160263D01*
X0111447Y0159265D02*
X0111584Y0159265D01*
X0111584Y0158266D02*
X0111447Y0158266D01*
X0111447Y0157268D02*
X0111584Y0157268D01*
X0111584Y0156269D02*
X0111447Y0156269D01*
X0111447Y0155271D02*
X0111584Y0155271D01*
X0111584Y0154272D02*
X0111447Y0154272D01*
X0111447Y0153274D02*
X0111584Y0153274D01*
X0111584Y0152275D02*
X0111447Y0152275D01*
X0111447Y0151277D02*
X0111584Y0151277D01*
X0111584Y0150278D02*
X0111447Y0150278D01*
X0111447Y0149280D02*
X0111584Y0149280D01*
X0111584Y0148281D02*
X0111447Y0148281D01*
X0111447Y0147283D02*
X0111584Y0147283D01*
X0111584Y0146284D02*
X0111447Y0146284D01*
X0111447Y0145286D02*
X0111584Y0145286D01*
X0111584Y0144287D02*
X0111447Y0144287D01*
X0111447Y0143289D02*
X0111584Y0143289D01*
X0111584Y0142290D02*
X0111447Y0142290D01*
X0111447Y0141292D02*
X0111584Y0141292D01*
X0111584Y0140293D02*
X0111447Y0140293D01*
X0111447Y0139295D02*
X0111584Y0139295D01*
X0111584Y0138296D02*
X0111447Y0138296D01*
X0111447Y0137298D02*
X0111584Y0137298D01*
X0111584Y0136299D02*
X0111447Y0136299D01*
X0111447Y0135301D02*
X0111584Y0135301D01*
X0111584Y0134302D02*
X0111447Y0134302D01*
X0111447Y0133303D02*
X0111584Y0133303D01*
X0111584Y0132305D02*
X0111447Y0132305D01*
X0111447Y0131306D02*
X0111584Y0131306D01*
X0111584Y0130308D02*
X0111447Y0130308D01*
X0111447Y0129309D02*
X0111584Y0129309D01*
X0111584Y0128311D02*
X0111447Y0128311D01*
X0111447Y0127312D02*
X0111584Y0127312D01*
X0111584Y0126314D02*
X0111447Y0126314D01*
X0111447Y0125315D02*
X0111584Y0125315D01*
X0111584Y0124317D02*
X0111447Y0124317D01*
X0111447Y0123318D02*
X0111584Y0123318D01*
X0111584Y0122320D02*
X0111447Y0122320D01*
X0111447Y0121321D02*
X0111584Y0121321D01*
X0111584Y0120323D02*
X0111447Y0120323D01*
X0111447Y0119324D02*
X0111584Y0119324D01*
X0111584Y0118326D02*
X0111447Y0118326D01*
X0111447Y0117327D02*
X0111584Y0117327D01*
X0111584Y0116329D02*
X0111447Y0116329D01*
X0111447Y0115330D02*
X0111584Y0115330D01*
X0111584Y0114332D02*
X0111447Y0114332D01*
X0111447Y0113333D02*
X0111584Y0113333D01*
X0111584Y0112335D02*
X0111447Y0112335D01*
X0111447Y0111336D02*
X0111584Y0111336D01*
X0111584Y0110338D02*
X0111447Y0110338D01*
X0111447Y0109339D02*
X0111584Y0109339D01*
X0111584Y0108341D02*
X0111447Y0108341D01*
X0111447Y0107342D02*
X0111584Y0107342D01*
X0111584Y0106344D02*
X0111447Y0106344D01*
X0111447Y0105345D02*
X0111584Y0105345D01*
X0111584Y0104347D02*
X0110750Y0104347D01*
X0111584Y0103348D02*
X0081543Y0103348D01*
X0082454Y0102350D02*
X0111584Y0102350D01*
X0107647Y0108341D02*
X0069554Y0108341D01*
X0070553Y0109339D02*
X0107647Y0109339D01*
X0107647Y0110338D02*
X0107286Y0110338D01*
X0107510Y0111336D02*
X0107647Y0111336D01*
X0107647Y0112335D02*
X0107510Y0112335D01*
X0107510Y0113333D02*
X0107647Y0113333D01*
X0107647Y0114332D02*
X0107510Y0114332D01*
X0107510Y0115330D02*
X0107647Y0115330D01*
X0107647Y0116329D02*
X0107510Y0116329D01*
X0107510Y0117327D02*
X0107647Y0117327D01*
X0107647Y0118326D02*
X0107510Y0118326D01*
X0107510Y0119324D02*
X0107647Y0119324D01*
X0107647Y0120323D02*
X0107510Y0120323D01*
X0107510Y0121321D02*
X0107647Y0121321D01*
X0107647Y0122320D02*
X0107510Y0122320D01*
X0107510Y0123318D02*
X0107647Y0123318D01*
X0107647Y0124317D02*
X0107510Y0124317D01*
X0107510Y0125315D02*
X0107647Y0125315D01*
X0107647Y0126314D02*
X0107510Y0126314D01*
X0107510Y0127312D02*
X0107647Y0127312D01*
X0107647Y0128311D02*
X0107510Y0128311D01*
X0107510Y0129309D02*
X0107647Y0129309D01*
X0107647Y0130308D02*
X0107510Y0130308D01*
X0107510Y0131306D02*
X0107647Y0131306D01*
X0107647Y0132305D02*
X0107510Y0132305D01*
X0107510Y0133303D02*
X0107647Y0133303D01*
X0107647Y0134302D02*
X0107510Y0134302D01*
X0107510Y0135301D02*
X0107647Y0135301D01*
X0107647Y0136299D02*
X0107510Y0136299D01*
X0107510Y0137298D02*
X0107647Y0137298D01*
X0107647Y0138296D02*
X0107510Y0138296D01*
X0107510Y0139295D02*
X0107647Y0139295D01*
X0107647Y0140293D02*
X0107510Y0140293D01*
X0107510Y0141292D02*
X0107647Y0141292D01*
X0107647Y0142290D02*
X0107510Y0142290D01*
X0107510Y0143289D02*
X0107647Y0143289D01*
X0107647Y0144287D02*
X0107510Y0144287D01*
X0107510Y0145286D02*
X0107647Y0145286D01*
X0107647Y0146284D02*
X0107510Y0146284D01*
X0107510Y0147283D02*
X0107647Y0147283D01*
X0107647Y0148281D02*
X0107510Y0148281D01*
X0107510Y0149280D02*
X0107647Y0149280D01*
X0107647Y0150278D02*
X0107510Y0150278D01*
X0107510Y0151277D02*
X0107647Y0151277D01*
X0107647Y0152275D02*
X0107510Y0152275D01*
X0107510Y0153274D02*
X0107647Y0153274D01*
X0107647Y0154272D02*
X0107510Y0154272D01*
X0107510Y0155271D02*
X0107647Y0155271D01*
X0107647Y0156269D02*
X0107510Y0156269D01*
X0107510Y0157268D02*
X0107647Y0157268D01*
X0107647Y0158266D02*
X0107510Y0158266D01*
X0107510Y0159265D02*
X0107647Y0159265D01*
X0107647Y0160263D02*
X0107510Y0160263D01*
X0107510Y0161262D02*
X0107647Y0161262D01*
X0107647Y0162260D02*
X0107510Y0162260D01*
X0107510Y0163259D02*
X0107647Y0163259D01*
X0107647Y0164257D02*
X0107510Y0164257D01*
X0107510Y0165256D02*
X0107647Y0165256D01*
X0107647Y0166254D02*
X0107510Y0166254D01*
X0107510Y0167253D02*
X0107647Y0167253D01*
X0107647Y0168251D02*
X0107510Y0168251D01*
X0107510Y0169250D02*
X0107647Y0169250D01*
X0107647Y0170248D02*
X0107510Y0170248D01*
X0107510Y0171247D02*
X0107647Y0171247D01*
X0107647Y0172245D02*
X0107510Y0172245D01*
X0107510Y0173244D02*
X0107647Y0173244D01*
X0107647Y0174242D02*
X0107510Y0174242D01*
X0107510Y0175241D02*
X0107647Y0175241D01*
X0107510Y0176239D02*
X0108371Y0176239D01*
X0103710Y0176239D02*
X0096290Y0176239D01*
X0096290Y0175241D02*
X0103710Y0175241D01*
X0103710Y0174242D02*
X0096290Y0174242D01*
X0096290Y0173244D02*
X0103710Y0173244D01*
X0103710Y0172245D02*
X0096290Y0172245D01*
X0096290Y0171247D02*
X0103710Y0171247D01*
X0103710Y0170248D02*
X0096290Y0170248D01*
X0096290Y0169250D02*
X0103710Y0169250D01*
X0103710Y0168251D02*
X0096290Y0168251D01*
X0096290Y0167253D02*
X0103710Y0167253D01*
X0103710Y0166254D02*
X0096290Y0166254D01*
X0096290Y0165256D02*
X0103710Y0165256D01*
X0103710Y0164257D02*
X0096290Y0164257D01*
X0096290Y0163259D02*
X0103710Y0163259D01*
X0103710Y0162260D02*
X0096290Y0162260D01*
X0096290Y0161262D02*
X0103710Y0161262D01*
X0103710Y0160263D02*
X0096290Y0160263D01*
X0096290Y0159265D02*
X0103710Y0159265D01*
X0103710Y0158266D02*
X0096290Y0158266D01*
X0096290Y0157268D02*
X0103710Y0157268D01*
X0103710Y0156269D02*
X0096290Y0156269D01*
X0096290Y0155271D02*
X0103710Y0155271D01*
X0103710Y0154272D02*
X0096290Y0154272D01*
X0096290Y0153274D02*
X0103710Y0153274D01*
X0103710Y0152275D02*
X0096290Y0152275D01*
X0096290Y0151277D02*
X0103710Y0151277D01*
X0103710Y0150278D02*
X0096290Y0150278D01*
X0096290Y0149280D02*
X0103710Y0149280D01*
X0103710Y0148281D02*
X0096290Y0148281D01*
X0096290Y0147283D02*
X0103710Y0147283D01*
X0103710Y0146284D02*
X0096290Y0146284D01*
X0096290Y0145286D02*
X0103710Y0145286D01*
X0103710Y0144287D02*
X0096290Y0144287D01*
X0096290Y0143289D02*
X0103710Y0143289D01*
X0103710Y0142290D02*
X0096290Y0142290D01*
X0096290Y0141292D02*
X0103710Y0141292D01*
X0103710Y0140293D02*
X0096290Y0140293D01*
X0096290Y0139295D02*
X0103710Y0139295D01*
X0103710Y0138296D02*
X0096290Y0138296D01*
X0092490Y0138296D02*
X0056920Y0138296D01*
X0056920Y0139295D02*
X0092490Y0139295D01*
X0092490Y0140293D02*
X0056920Y0140293D01*
X0056920Y0141292D02*
X0092490Y0141292D01*
X0092490Y0142290D02*
X0056920Y0142290D01*
X0056920Y0143289D02*
X0092490Y0143289D01*
X0092490Y0144287D02*
X0056920Y0144287D01*
X0056920Y0145286D02*
X0092490Y0145286D01*
X0092490Y0146284D02*
X0056920Y0146284D01*
X0056920Y0147283D02*
X0092490Y0147283D01*
X0092490Y0148281D02*
X0056920Y0148281D01*
X0056920Y0149280D02*
X0092490Y0149280D01*
X0092490Y0150278D02*
X0056920Y0150278D01*
X0056920Y0151277D02*
X0092490Y0151277D01*
X0092490Y0152275D02*
X0056920Y0152275D01*
X0056920Y0153274D02*
X0092490Y0153274D01*
X0092490Y0154272D02*
X0056920Y0154272D01*
X0056920Y0155271D02*
X0092490Y0155271D01*
X0092490Y0156269D02*
X0056920Y0156269D01*
X0056920Y0157268D02*
X0092490Y0157268D01*
X0092490Y0158266D02*
X0056920Y0158266D01*
X0056920Y0159265D02*
X0092490Y0159265D01*
X0092490Y0160263D02*
X0056920Y0160263D01*
X0056920Y0161262D02*
X0092490Y0161262D01*
X0092490Y0162260D02*
X0056920Y0162260D01*
X0056920Y0163259D02*
X0092490Y0163259D01*
X0092490Y0164257D02*
X0056920Y0164257D01*
X0056920Y0165256D02*
X0092490Y0165256D01*
X0092490Y0166254D02*
X0056920Y0166254D01*
X0056920Y0167253D02*
X0092490Y0167253D01*
X0092490Y0168251D02*
X0056920Y0168251D01*
X0056920Y0169250D02*
X0092490Y0169250D01*
X0092490Y0170248D02*
X0056920Y0170248D01*
X0056920Y0171247D02*
X0092490Y0171247D01*
X0092490Y0172245D02*
X0056920Y0172245D01*
X0056920Y0173244D02*
X0092490Y0173244D01*
X0092490Y0174242D02*
X0056920Y0174242D01*
X0056920Y0175241D02*
X0092490Y0175241D01*
X0092490Y0176239D02*
X0056920Y0176239D01*
X0056920Y0177238D02*
X0092490Y0177238D01*
X0092490Y0178237D02*
X0056920Y0178237D01*
X0056920Y0179235D02*
X0092490Y0179235D01*
X0092490Y0180234D02*
X0056920Y0180234D01*
X0056920Y0181232D02*
X0092490Y0181232D01*
X0092490Y0182231D02*
X0056920Y0182231D01*
X0056920Y0183229D02*
X0092490Y0183229D01*
X0093328Y0184228D02*
X0056920Y0184228D01*
X0053120Y0184228D02*
X0019521Y0184228D01*
X0019521Y0185226D02*
X0053120Y0185226D01*
X0053120Y0186225D02*
X0019521Y0186225D01*
X0019521Y0187223D02*
X0053120Y0187223D01*
X0054015Y0188222D02*
X0019521Y0188222D01*
X0019521Y0189220D02*
X0221542Y0189220D01*
X0224718Y0189220D02*
X0237569Y0189220D01*
X0237569Y0188222D02*
X0225771Y0188222D01*
X0226185Y0187223D02*
X0237569Y0187223D01*
X0237569Y0186225D02*
X0226214Y0186225D01*
X0225924Y0185226D02*
X0237569Y0185226D01*
X0237569Y0184228D02*
X0225180Y0184228D01*
X0221080Y0184228D02*
X0210638Y0184228D01*
X0211051Y0183229D02*
X0237569Y0183229D01*
X0237569Y0182231D02*
X0211057Y0182231D01*
X0210743Y0181232D02*
X0237569Y0181232D01*
X0237569Y0180234D02*
X0209965Y0180234D01*
X0205979Y0180234D02*
X0160689Y0180234D01*
X0161084Y0179235D02*
X0237569Y0179235D01*
X0237569Y0178237D02*
X0161084Y0178237D01*
X0160747Y0177238D02*
X0226148Y0177238D01*
X0229852Y0177238D02*
X0237569Y0177238D01*
X0237569Y0176239D02*
X0230712Y0176239D01*
X0231084Y0175241D02*
X0237569Y0175241D01*
X0237569Y0174242D02*
X0231084Y0174242D01*
X0230723Y0173244D02*
X0237569Y0173244D01*
X0237569Y0172245D02*
X0229879Y0172245D01*
X0226121Y0172245D02*
X0220736Y0172245D01*
X0221084Y0171247D02*
X0237569Y0171247D01*
X0237569Y0170248D02*
X0221084Y0170248D01*
X0220700Y0169250D02*
X0237569Y0169250D01*
X0237569Y0168251D02*
X0219900Y0168251D01*
X0219900Y0167253D02*
X0237569Y0167253D01*
X0237569Y0166254D02*
X0219900Y0166254D01*
X0219089Y0165256D02*
X0237569Y0165256D01*
X0241368Y0165256D02*
X0241506Y0165256D01*
X0241506Y0166254D02*
X0241368Y0166254D01*
X0241368Y0167253D02*
X0241506Y0167253D01*
X0241506Y0168251D02*
X0241368Y0168251D01*
X0241368Y0169250D02*
X0241506Y0169250D01*
X0241506Y0170248D02*
X0241368Y0170248D01*
X0241368Y0171247D02*
X0241506Y0171247D01*
X0241506Y0172245D02*
X0241368Y0172245D01*
X0241368Y0173244D02*
X0241506Y0173244D01*
X0241506Y0174242D02*
X0241368Y0174242D01*
X0241368Y0175241D02*
X0241506Y0175241D01*
X0241506Y0176239D02*
X0241368Y0176239D01*
X0241368Y0177238D02*
X0241506Y0177238D01*
X0241506Y0178237D02*
X0241368Y0178237D01*
X0241368Y0179235D02*
X0241506Y0179235D01*
X0241506Y0180234D02*
X0241368Y0180234D01*
X0241368Y0181232D02*
X0241506Y0181232D01*
X0241506Y0182231D02*
X0241368Y0182231D01*
X0241368Y0183229D02*
X0241506Y0183229D01*
X0241506Y0184228D02*
X0241368Y0184228D01*
X0241368Y0185226D02*
X0241506Y0185226D01*
X0241506Y0186225D02*
X0241368Y0186225D01*
X0241368Y0187223D02*
X0241506Y0187223D01*
X0241506Y0188222D02*
X0241368Y0188222D01*
X0241368Y0189220D02*
X0241506Y0189220D01*
X0241506Y0190219D02*
X0241368Y0190219D01*
X0241368Y0191217D02*
X0241506Y0191217D01*
X0241506Y0192216D02*
X0241368Y0192216D01*
X0241368Y0193214D02*
X0241506Y0193214D01*
X0241506Y0194213D02*
X0241368Y0194213D01*
X0241368Y0195211D02*
X0241506Y0195211D01*
X0241506Y0196210D02*
X0241368Y0196210D01*
X0241368Y0197208D02*
X0241506Y0197208D01*
X0241506Y0198207D02*
X0241368Y0198207D01*
X0241368Y0199205D02*
X0241506Y0199205D01*
X0241506Y0200204D02*
X0241368Y0200204D01*
X0241368Y0201202D02*
X0241506Y0201202D01*
X0241506Y0202201D02*
X0241368Y0202201D01*
X0241368Y0203199D02*
X0241506Y0203199D01*
X0241506Y0204198D02*
X0241368Y0204198D01*
X0241368Y0205196D02*
X0241506Y0205196D01*
X0241506Y0206195D02*
X0241368Y0206195D01*
X0241368Y0207193D02*
X0241506Y0207193D01*
X0241506Y0208192D02*
X0241368Y0208192D01*
X0241368Y0209190D02*
X0241506Y0209190D01*
X0241506Y0210189D02*
X0241368Y0210189D01*
X0241368Y0211187D02*
X0241506Y0211187D01*
X0241506Y0212186D02*
X0241368Y0212186D01*
X0241368Y0213184D02*
X0241506Y0213184D01*
X0241506Y0214183D02*
X0241368Y0214183D01*
X0241368Y0215181D02*
X0241506Y0215181D01*
X0241506Y0216180D02*
X0241368Y0216180D01*
X0241368Y0217178D02*
X0241506Y0217178D01*
X0241506Y0218177D02*
X0241368Y0218177D01*
X0241368Y0219175D02*
X0241506Y0219175D01*
X0241506Y0220174D02*
X0241368Y0220174D01*
X0241368Y0221172D02*
X0241506Y0221172D01*
X0241506Y0222171D02*
X0241368Y0222171D01*
X0241368Y0223170D02*
X0241506Y0223170D01*
X0241506Y0224168D02*
X0241368Y0224168D01*
X0241368Y0225167D02*
X0241506Y0225167D01*
X0241506Y0226165D02*
X0241368Y0226165D01*
X0241368Y0227164D02*
X0241506Y0227164D01*
X0241506Y0228162D02*
X0241368Y0228162D01*
X0241368Y0229161D02*
X0241506Y0229161D01*
X0241506Y0230159D02*
X0241368Y0230159D01*
X0241368Y0231158D02*
X0241506Y0231158D01*
X0241506Y0232156D02*
X0241368Y0232156D01*
X0241368Y0233155D02*
X0241506Y0233155D01*
X0241506Y0234153D02*
X0241368Y0234153D01*
X0241368Y0235152D02*
X0241506Y0235152D01*
X0241506Y0236150D02*
X0241368Y0236150D01*
X0241368Y0237149D02*
X0241506Y0237149D01*
X0241506Y0238147D02*
X0241368Y0238147D01*
X0241368Y0239146D02*
X0241506Y0239146D01*
X0241506Y0240144D02*
X0241368Y0240144D01*
X0241368Y0241143D02*
X0241506Y0241143D01*
X0241506Y0242141D02*
X0241368Y0242141D01*
X0241368Y0243140D02*
X0241506Y0243140D01*
X0241506Y0244138D02*
X0241368Y0244138D01*
X0241368Y0245137D02*
X0241506Y0245137D01*
X0241506Y0246135D02*
X0241368Y0246135D01*
X0241368Y0247134D02*
X0241506Y0247134D01*
X0241506Y0248132D02*
X0241368Y0248132D01*
X0241368Y0249131D02*
X0241506Y0249131D01*
X0241506Y0250129D02*
X0241368Y0250129D01*
X0241368Y0251128D02*
X0241506Y0251128D01*
X0241506Y0252126D02*
X0241368Y0252126D01*
X0241368Y0253125D02*
X0241506Y0253125D01*
X0241506Y0254123D02*
X0241368Y0254123D01*
X0241368Y0255122D02*
X0241506Y0255122D01*
X0241506Y0256120D02*
X0241368Y0256120D01*
X0241368Y0257119D02*
X0241506Y0257119D01*
X0241506Y0258117D02*
X0241368Y0258117D01*
X0241368Y0259116D02*
X0241506Y0259116D01*
X0241506Y0260114D02*
X0241368Y0260114D01*
X0241368Y0261113D02*
X0241506Y0261113D01*
X0241506Y0262111D02*
X0241368Y0262111D01*
X0241368Y0263110D02*
X0241506Y0263110D01*
X0241506Y0264108D02*
X0241368Y0264108D01*
X0241368Y0265107D02*
X0241506Y0265107D01*
X0241506Y0266105D02*
X0241368Y0266105D01*
X0237569Y0266105D02*
X0121209Y0266105D01*
X0121281Y0265107D02*
X0237569Y0265107D01*
X0237569Y0264108D02*
X0121066Y0264108D01*
X0120471Y0263110D02*
X0237569Y0263110D01*
X0237569Y0262111D02*
X0120100Y0262111D01*
X0120100Y0261113D02*
X0237569Y0261113D01*
X0237569Y0260114D02*
X0120100Y0260114D01*
X0120100Y0259116D02*
X0237569Y0259116D01*
X0237569Y0258117D02*
X0120100Y0258117D01*
X0120100Y0257119D02*
X0237569Y0257119D01*
X0237569Y0256120D02*
X0120100Y0256120D01*
X0120100Y0255122D02*
X0237569Y0255122D01*
X0237569Y0254123D02*
X0120100Y0254123D01*
X0120100Y0253125D02*
X0237569Y0253125D01*
X0237569Y0252126D02*
X0120100Y0252126D01*
X0120100Y0251128D02*
X0237569Y0251128D01*
X0237569Y0250129D02*
X0119993Y0250129D01*
X0118994Y0249131D02*
X0237569Y0249131D01*
X0237569Y0248132D02*
X0081320Y0248132D01*
X0081320Y0247134D02*
X0237569Y0247134D01*
X0237569Y0246135D02*
X0081428Y0246135D01*
X0081520Y0245137D02*
X0237569Y0245137D01*
X0237569Y0244138D02*
X0081520Y0244138D01*
X0081351Y0243140D02*
X0237569Y0243140D01*
X0237569Y0242141D02*
X0081520Y0242141D01*
X0081520Y0241143D02*
X0237569Y0241143D01*
X0237569Y0240144D02*
X0081333Y0240144D01*
X0081520Y0239146D02*
X0237569Y0239146D01*
X0237569Y0238147D02*
X0081520Y0238147D01*
X0081419Y0237149D02*
X0237569Y0237149D01*
X0237569Y0236150D02*
X0081520Y0236150D01*
X0081520Y0235152D02*
X0237569Y0235152D01*
X0237569Y0234153D02*
X0081461Y0234153D01*
X0081320Y0233155D02*
X0237569Y0233155D01*
X0237569Y0232156D02*
X0081320Y0232156D01*
X0081320Y0231158D02*
X0237569Y0231158D01*
X0237569Y0230159D02*
X0081320Y0230159D01*
X0081320Y0229161D02*
X0237569Y0229161D01*
X0237569Y0228162D02*
X0081320Y0228162D01*
X0081320Y0227164D02*
X0237569Y0227164D01*
X0237569Y0226165D02*
X0081320Y0226165D01*
X0081320Y0225167D02*
X0237569Y0225167D01*
X0237569Y0224168D02*
X0081237Y0224168D01*
X0081320Y0223170D02*
X0237569Y0223170D01*
X0237569Y0222171D02*
X0081320Y0222171D01*
X0081058Y0221172D02*
X0237569Y0221172D01*
X0237569Y0220174D02*
X0019521Y0220174D01*
X0019521Y0221172D02*
X0063233Y0221172D01*
X0062972Y0222171D02*
X0019521Y0222171D01*
X0019521Y0223170D02*
X0062972Y0223170D01*
X0063054Y0224168D02*
X0019521Y0224168D01*
X0019521Y0225167D02*
X0062972Y0225167D01*
X0062972Y0226165D02*
X0019521Y0226165D01*
X0019521Y0227164D02*
X0062972Y0227164D01*
X0062972Y0228162D02*
X0019521Y0228162D01*
X0019521Y0229161D02*
X0062972Y0229161D01*
X0062972Y0230159D02*
X0019521Y0230159D01*
X0019521Y0231158D02*
X0062972Y0231158D01*
X0062972Y0232156D02*
X0019521Y0232156D01*
X0019521Y0233155D02*
X0062972Y0233155D01*
X0062831Y0234153D02*
X0019521Y0234153D01*
X0019521Y0235152D02*
X0062772Y0235152D01*
X0062772Y0235358D02*
X0072146Y0235358D01*
X0072146Y0235358D01*
X0072146Y0237646D01*
X0072146Y0238508D01*
X0062772Y0238508D01*
X0062772Y0237523D01*
X0062874Y0237141D01*
X0062994Y0236933D01*
X0062874Y0236725D01*
X0062772Y0236343D01*
X0062772Y0235358D01*
X0062772Y0236150D02*
X0019521Y0236150D01*
X0019521Y0237149D02*
X0062872Y0237149D01*
X0062772Y0238147D02*
X0019521Y0238147D01*
X0019521Y0239146D02*
X0062772Y0239146D01*
X0062959Y0240144D02*
X0019521Y0240144D01*
X0019521Y0241143D02*
X0062772Y0241143D01*
X0062772Y0242141D02*
X0019521Y0242141D01*
X0019521Y0243140D02*
X0062941Y0243140D01*
X0062772Y0244138D02*
X0019521Y0244138D01*
X0019521Y0245137D02*
X0062772Y0245137D01*
X0062772Y0244807D02*
X0072146Y0244807D01*
X0072146Y0244807D01*
X0062772Y0244807D01*
X0062772Y0254123D02*
X0040100Y0254123D01*
X0040100Y0255122D02*
X0062772Y0255122D01*
X0062972Y0256120D02*
X0040100Y0256120D01*
X0040100Y0257119D02*
X0062972Y0257119D01*
X0062972Y0258117D02*
X0040100Y0258117D01*
X0040100Y0259116D02*
X0063085Y0259116D01*
X0062972Y0260114D02*
X0040100Y0260114D01*
X0040100Y0261113D02*
X0062972Y0261113D01*
X0063202Y0262111D02*
X0040100Y0262111D01*
X0040471Y0263110D02*
X0062972Y0263110D01*
X0062972Y0264108D02*
X0041066Y0264108D01*
X0041281Y0265107D02*
X0063048Y0265107D01*
X0062972Y0266105D02*
X0041209Y0266105D01*
X0040796Y0267104D02*
X0062972Y0267104D01*
X0062972Y0268103D02*
X0039759Y0268103D01*
X0036241Y0268103D02*
X0007748Y0268103D01*
X0007748Y0269101D02*
X0062972Y0269101D01*
X0062972Y0270100D02*
X0007748Y0270100D01*
X0007748Y0271098D02*
X0062972Y0271098D01*
X0062972Y0272097D02*
X0007748Y0272097D01*
X0007748Y0273095D02*
X0062972Y0273095D01*
X0062972Y0274094D02*
X0007748Y0274094D01*
X0007748Y0275092D02*
X0062832Y0275092D01*
X0062772Y0276091D02*
X0007748Y0276091D01*
X0007748Y0277089D02*
X0062772Y0277089D01*
X0062772Y0277288D02*
X0062772Y0276303D01*
X0072146Y0276303D01*
X0072146Y0276303D01*
X0072146Y0278591D01*
X0064074Y0278591D01*
X0063693Y0278488D01*
X0063351Y0278291D01*
X0063071Y0278012D01*
X0062874Y0277670D01*
X0062772Y0277288D01*
X0063147Y0278088D02*
X0007748Y0278088D01*
X0007748Y0279086D02*
X0084125Y0279086D01*
X0084125Y0278088D02*
X0081144Y0278088D01*
X0081520Y0277089D02*
X0084125Y0277089D01*
X0084125Y0276091D02*
X0081520Y0276091D01*
X0081459Y0275092D02*
X0084125Y0275092D01*
X0085925Y0273154D02*
X0072146Y0273154D01*
X0072146Y0270004D02*
X0089862Y0270004D01*
X0089862Y0285752D01*
X0148000Y0285752D01*
X0150791Y0287074D02*
X0278276Y0287074D01*
X0278276Y0286076D02*
X0151084Y0286076D01*
X0151059Y0285077D02*
X0278276Y0285077D01*
X0278276Y0284079D02*
X0150645Y0284079D01*
X0149609Y0283080D02*
X0278276Y0283080D01*
X0278276Y0282082D02*
X0144725Y0282082D01*
X0145675Y0281083D02*
X0278276Y0281083D01*
X0278276Y0280085D02*
X0244237Y0280085D01*
X0242574Y0280085D02*
X0146088Y0280085D01*
X0146096Y0279086D02*
X0241039Y0279086D01*
X0240480Y0278088D02*
X0145785Y0278088D01*
X0145010Y0277089D02*
X0240321Y0277089D01*
X0240481Y0276091D02*
X0138969Y0276091D01*
X0140423Y0275092D02*
X0241042Y0275092D01*
X0241506Y0274094D02*
X0140949Y0274094D01*
X0141084Y0273095D02*
X0241506Y0273095D01*
X0241506Y0272097D02*
X0240575Y0272097D01*
X0238362Y0272097D02*
X0140901Y0272097D01*
X0140306Y0271098D02*
X0236988Y0271098D01*
X0236496Y0270100D02*
X0138687Y0270100D01*
X0137313Y0270100D02*
X0107410Y0270100D01*
X0107410Y0271098D02*
X0135694Y0271098D01*
X0138000Y0273154D02*
X0105610Y0273154D01*
X0105610Y0257406D01*
X0072146Y0257406D01*
X0072146Y0260555D02*
X0101673Y0260555D01*
X0101673Y0276303D01*
X0128000Y0276303D01*
X0130837Y0275092D02*
X0135577Y0275092D01*
X0137031Y0276091D02*
X0131084Y0276091D01*
X0131013Y0277089D02*
X0141014Y0277089D01*
X0143012Y0279453D02*
X0097736Y0279453D01*
X0097736Y0263705D01*
X0072146Y0263705D01*
X0072146Y0266854D02*
X0093799Y0266854D01*
X0093799Y0282602D01*
X0113484Y0282602D01*
X0116568Y0283080D02*
X0146391Y0283080D01*
X0145959Y0288073D02*
X0136164Y0288073D01*
X0136254Y0289071D02*
X0278276Y0289071D01*
X0278276Y0288073D02*
X0150041Y0288073D01*
X0141299Y0282082D02*
X0116568Y0282082D01*
X0107410Y0269101D02*
X0236384Y0269101D01*
X0236592Y0268103D02*
X0119759Y0268103D01*
X0120796Y0267104D02*
X0237219Y0267104D01*
X0245305Y0267104D02*
X0245443Y0267104D01*
X0245443Y0266105D02*
X0245305Y0266105D01*
X0245305Y0265107D02*
X0245443Y0265107D01*
X0245443Y0264108D02*
X0245305Y0264108D01*
X0245305Y0263110D02*
X0245443Y0263110D01*
X0245443Y0262111D02*
X0245305Y0262111D01*
X0245305Y0261113D02*
X0245443Y0261113D01*
X0245443Y0260114D02*
X0245305Y0260114D01*
X0245305Y0259116D02*
X0245443Y0259116D01*
X0245443Y0258117D02*
X0245305Y0258117D01*
X0245305Y0257119D02*
X0245443Y0257119D01*
X0245443Y0256120D02*
X0245305Y0256120D01*
X0245305Y0255122D02*
X0245443Y0255122D01*
X0245443Y0254123D02*
X0245305Y0254123D01*
X0245305Y0253125D02*
X0245443Y0253125D01*
X0245443Y0252126D02*
X0245305Y0252126D01*
X0245305Y0251128D02*
X0245443Y0251128D01*
X0245443Y0250129D02*
X0245305Y0250129D01*
X0245305Y0249131D02*
X0245443Y0249131D01*
X0245443Y0248132D02*
X0245305Y0248132D01*
X0245305Y0247134D02*
X0245443Y0247134D01*
X0245443Y0246135D02*
X0245305Y0246135D01*
X0245305Y0245137D02*
X0245443Y0245137D01*
X0245443Y0244138D02*
X0245305Y0244138D01*
X0245305Y0243140D02*
X0245443Y0243140D01*
X0245443Y0242141D02*
X0245305Y0242141D01*
X0245305Y0241143D02*
X0245443Y0241143D01*
X0245443Y0240144D02*
X0245305Y0240144D01*
X0245305Y0239146D02*
X0245443Y0239146D01*
X0245443Y0238147D02*
X0245305Y0238147D01*
X0245305Y0237149D02*
X0245443Y0237149D01*
X0245443Y0236150D02*
X0245305Y0236150D01*
X0245305Y0235152D02*
X0245443Y0235152D01*
X0245443Y0234153D02*
X0245305Y0234153D01*
X0245305Y0233155D02*
X0245443Y0233155D01*
X0245443Y0232156D02*
X0245305Y0232156D01*
X0245305Y0231158D02*
X0245443Y0231158D01*
X0245443Y0230159D02*
X0245305Y0230159D01*
X0245305Y0229161D02*
X0245443Y0229161D01*
X0245443Y0228162D02*
X0245305Y0228162D01*
X0245305Y0227164D02*
X0245443Y0227164D01*
X0245443Y0226165D02*
X0245305Y0226165D01*
X0245305Y0225167D02*
X0245443Y0225167D01*
X0245443Y0224168D02*
X0245305Y0224168D01*
X0245305Y0223170D02*
X0245443Y0223170D01*
X0245443Y0222171D02*
X0245305Y0222171D01*
X0245305Y0221172D02*
X0245443Y0221172D01*
X0245443Y0220174D02*
X0245305Y0220174D01*
X0245305Y0219175D02*
X0245443Y0219175D01*
X0245443Y0218177D02*
X0245305Y0218177D01*
X0245305Y0217178D02*
X0245443Y0217178D01*
X0245443Y0216180D02*
X0245305Y0216180D01*
X0245305Y0215181D02*
X0245443Y0215181D01*
X0245443Y0214183D02*
X0245305Y0214183D01*
X0245305Y0213184D02*
X0245443Y0213184D01*
X0245443Y0212186D02*
X0245305Y0212186D01*
X0245305Y0211187D02*
X0245443Y0211187D01*
X0245443Y0210189D02*
X0245305Y0210189D01*
X0245305Y0209190D02*
X0245443Y0209190D01*
X0245443Y0208192D02*
X0245305Y0208192D01*
X0245305Y0207193D02*
X0245443Y0207193D01*
X0245443Y0206195D02*
X0245305Y0206195D01*
X0245305Y0205196D02*
X0245443Y0205196D01*
X0245443Y0204198D02*
X0245305Y0204198D01*
X0245305Y0203199D02*
X0245443Y0203199D01*
X0245443Y0202201D02*
X0245305Y0202201D01*
X0245305Y0201202D02*
X0245443Y0201202D01*
X0245443Y0200204D02*
X0245305Y0200204D01*
X0245305Y0199205D02*
X0245443Y0199205D01*
X0245443Y0198207D02*
X0245305Y0198207D01*
X0245305Y0197208D02*
X0245443Y0197208D01*
X0245443Y0196210D02*
X0245305Y0196210D01*
X0245305Y0195211D02*
X0245443Y0195211D01*
X0245443Y0194213D02*
X0245305Y0194213D01*
X0245305Y0193214D02*
X0245443Y0193214D01*
X0245443Y0192216D02*
X0245305Y0192216D01*
X0245305Y0191217D02*
X0245443Y0191217D01*
X0245443Y0190219D02*
X0245305Y0190219D01*
X0245305Y0189220D02*
X0245443Y0189220D01*
X0245443Y0188222D02*
X0245305Y0188222D01*
X0245305Y0187223D02*
X0245443Y0187223D01*
X0245443Y0186225D02*
X0245305Y0186225D01*
X0245305Y0185226D02*
X0245443Y0185226D01*
X0245443Y0184228D02*
X0245305Y0184228D01*
X0245305Y0183229D02*
X0245443Y0183229D01*
X0245443Y0182231D02*
X0245305Y0182231D01*
X0245305Y0181232D02*
X0245443Y0181232D01*
X0245443Y0180234D02*
X0245305Y0180234D01*
X0245305Y0179235D02*
X0245443Y0179235D01*
X0245443Y0178237D02*
X0245305Y0178237D01*
X0245305Y0177238D02*
X0245443Y0177238D01*
X0245443Y0176239D02*
X0245305Y0176239D01*
X0245305Y0175241D02*
X0245443Y0175241D01*
X0245443Y0174242D02*
X0245305Y0174242D01*
X0245305Y0173244D02*
X0245443Y0173244D01*
X0245443Y0172245D02*
X0245305Y0172245D01*
X0245305Y0171247D02*
X0245443Y0171247D01*
X0245443Y0170248D02*
X0245305Y0170248D01*
X0245305Y0169250D02*
X0245443Y0169250D01*
X0245443Y0168251D02*
X0245305Y0168251D01*
X0245305Y0167253D02*
X0245443Y0167253D01*
X0245443Y0166254D02*
X0245305Y0166254D01*
X0245305Y0165256D02*
X0245443Y0165256D01*
X0245443Y0164257D02*
X0245305Y0164257D01*
X0245305Y0163259D02*
X0245443Y0163259D01*
X0245443Y0162260D02*
X0245305Y0162260D01*
X0245305Y0161262D02*
X0245443Y0161262D01*
X0245443Y0160263D02*
X0245305Y0160263D01*
X0245305Y0159265D02*
X0245443Y0159265D01*
X0245443Y0158266D02*
X0245305Y0158266D01*
X0245305Y0157268D02*
X0245443Y0157268D01*
X0245443Y0156269D02*
X0245305Y0156269D01*
X0245305Y0155271D02*
X0245443Y0155271D01*
X0245443Y0154272D02*
X0245305Y0154272D01*
X0245305Y0153274D02*
X0245443Y0153274D01*
X0245443Y0152275D02*
X0245305Y0152275D01*
X0245305Y0151277D02*
X0245443Y0151277D01*
X0245443Y0150278D02*
X0245264Y0150278D01*
X0245443Y0149280D02*
X0244266Y0149280D01*
X0245443Y0146284D02*
X0216565Y0146284D01*
X0219309Y0145286D02*
X0245443Y0145286D01*
X0245443Y0144287D02*
X0220527Y0144287D01*
X0218965Y0139295D02*
X0230439Y0139295D01*
X0230076Y0138296D02*
X0218601Y0138296D01*
X0218238Y0137298D02*
X0229712Y0137298D01*
X0229528Y0136299D02*
X0232451Y0136299D01*
X0234024Y0137298D02*
X0235088Y0137298D01*
X0235451Y0138296D02*
X0234387Y0138296D01*
X0234750Y0139295D02*
X0235815Y0139295D01*
X0236354Y0139295D02*
X0249380Y0139295D01*
X0249380Y0140293D02*
X0248320Y0140293D01*
X0249243Y0141292D02*
X0249380Y0141292D01*
X0249380Y0142290D02*
X0249243Y0142290D01*
X0249243Y0143289D02*
X0249380Y0143289D01*
X0249380Y0144287D02*
X0249243Y0144287D01*
X0249243Y0145286D02*
X0249380Y0145286D01*
X0249380Y0146284D02*
X0249243Y0146284D01*
X0249243Y0147283D02*
X0249380Y0147283D01*
X0249380Y0148281D02*
X0249243Y0148281D01*
X0249243Y0149280D02*
X0249380Y0149280D01*
X0249380Y0150278D02*
X0249243Y0150278D01*
X0249243Y0151277D02*
X0249380Y0151277D01*
X0249380Y0152275D02*
X0249243Y0152275D01*
X0249243Y0153274D02*
X0249380Y0153274D01*
X0249380Y0154272D02*
X0249243Y0154272D01*
X0249243Y0155271D02*
X0249380Y0155271D01*
X0249380Y0156269D02*
X0249243Y0156269D01*
X0249243Y0157268D02*
X0249380Y0157268D01*
X0249380Y0158266D02*
X0249243Y0158266D01*
X0249243Y0159265D02*
X0249380Y0159265D01*
X0249380Y0160263D02*
X0249243Y0160263D01*
X0249243Y0161262D02*
X0249380Y0161262D01*
X0249380Y0162260D02*
X0249243Y0162260D01*
X0249243Y0163259D02*
X0249380Y0163259D01*
X0249380Y0164257D02*
X0249243Y0164257D01*
X0249243Y0165256D02*
X0249380Y0165256D01*
X0249380Y0166254D02*
X0249243Y0166254D01*
X0249243Y0167253D02*
X0249380Y0167253D01*
X0249380Y0168251D02*
X0249243Y0168251D01*
X0249243Y0169250D02*
X0249380Y0169250D01*
X0249380Y0170248D02*
X0249243Y0170248D01*
X0249243Y0171247D02*
X0249380Y0171247D01*
X0249380Y0172245D02*
X0249243Y0172245D01*
X0249243Y0173244D02*
X0249380Y0173244D01*
X0249380Y0174242D02*
X0249243Y0174242D01*
X0249243Y0175241D02*
X0249380Y0175241D01*
X0249380Y0176239D02*
X0249243Y0176239D01*
X0249243Y0177238D02*
X0249380Y0177238D01*
X0249380Y0178237D02*
X0249243Y0178237D01*
X0249243Y0179235D02*
X0249380Y0179235D01*
X0249380Y0180234D02*
X0249243Y0180234D01*
X0249243Y0181232D02*
X0249380Y0181232D01*
X0249380Y0182231D02*
X0249243Y0182231D01*
X0249243Y0183229D02*
X0249380Y0183229D01*
X0249380Y0184228D02*
X0249243Y0184228D01*
X0249243Y0185226D02*
X0249380Y0185226D01*
X0249380Y0186225D02*
X0249243Y0186225D01*
X0249243Y0187223D02*
X0249380Y0187223D01*
X0249380Y0188222D02*
X0249243Y0188222D01*
X0249243Y0189220D02*
X0249380Y0189220D01*
X0249380Y0190219D02*
X0249243Y0190219D01*
X0249243Y0191217D02*
X0249380Y0191217D01*
X0249380Y0192216D02*
X0249243Y0192216D01*
X0249243Y0193214D02*
X0249380Y0193214D01*
X0249380Y0194213D02*
X0249243Y0194213D01*
X0249243Y0195211D02*
X0249380Y0195211D01*
X0249380Y0196210D02*
X0249243Y0196210D01*
X0249243Y0197208D02*
X0249380Y0197208D01*
X0249380Y0198207D02*
X0249243Y0198207D01*
X0249243Y0199205D02*
X0249380Y0199205D01*
X0249380Y0200204D02*
X0249243Y0200204D01*
X0249243Y0201202D02*
X0249380Y0201202D01*
X0249380Y0202201D02*
X0249243Y0202201D01*
X0249243Y0203199D02*
X0249380Y0203199D01*
X0249380Y0204198D02*
X0249243Y0204198D01*
X0249243Y0205196D02*
X0249380Y0205196D01*
X0249380Y0206195D02*
X0249243Y0206195D01*
X0249243Y0207193D02*
X0249380Y0207193D01*
X0249380Y0208192D02*
X0249243Y0208192D01*
X0249243Y0209190D02*
X0249380Y0209190D01*
X0249380Y0210189D02*
X0249243Y0210189D01*
X0249243Y0211187D02*
X0249380Y0211187D01*
X0249380Y0212186D02*
X0249243Y0212186D01*
X0249243Y0213184D02*
X0249380Y0213184D01*
X0249380Y0214183D02*
X0249243Y0214183D01*
X0249243Y0215181D02*
X0249380Y0215181D01*
X0249380Y0216180D02*
X0249243Y0216180D01*
X0249243Y0217178D02*
X0249380Y0217178D01*
X0249380Y0218177D02*
X0249243Y0218177D01*
X0249243Y0219175D02*
X0249380Y0219175D01*
X0249380Y0220174D02*
X0249243Y0220174D01*
X0249243Y0221172D02*
X0249380Y0221172D01*
X0249380Y0222171D02*
X0249243Y0222171D01*
X0249243Y0223170D02*
X0249380Y0223170D01*
X0249380Y0224168D02*
X0249243Y0224168D01*
X0249243Y0225167D02*
X0249380Y0225167D01*
X0249380Y0226165D02*
X0249243Y0226165D01*
X0249243Y0227164D02*
X0249380Y0227164D01*
X0249380Y0228162D02*
X0249243Y0228162D01*
X0249243Y0229161D02*
X0249380Y0229161D01*
X0249380Y0230159D02*
X0249243Y0230159D01*
X0249243Y0231158D02*
X0249380Y0231158D01*
X0249380Y0232156D02*
X0249243Y0232156D01*
X0249243Y0233155D02*
X0249380Y0233155D01*
X0249380Y0234153D02*
X0249243Y0234153D01*
X0249243Y0235152D02*
X0249380Y0235152D01*
X0249380Y0236150D02*
X0249243Y0236150D01*
X0249243Y0237149D02*
X0249380Y0237149D01*
X0249380Y0238147D02*
X0249243Y0238147D01*
X0249243Y0239146D02*
X0249380Y0239146D01*
X0249380Y0240144D02*
X0249243Y0240144D01*
X0249243Y0241143D02*
X0249380Y0241143D01*
X0249380Y0242141D02*
X0249243Y0242141D01*
X0249243Y0243140D02*
X0249380Y0243140D01*
X0249380Y0244138D02*
X0249243Y0244138D01*
X0249243Y0245137D02*
X0249380Y0245137D01*
X0249380Y0246135D02*
X0249243Y0246135D01*
X0249243Y0247134D02*
X0249380Y0247134D01*
X0249380Y0248132D02*
X0249243Y0248132D01*
X0249243Y0249131D02*
X0249380Y0249131D01*
X0249380Y0250129D02*
X0249243Y0250129D01*
X0249243Y0251128D02*
X0249380Y0251128D01*
X0249380Y0252126D02*
X0249243Y0252126D01*
X0249243Y0253125D02*
X0249380Y0253125D01*
X0249380Y0254123D02*
X0249243Y0254123D01*
X0249243Y0255122D02*
X0249380Y0255122D01*
X0249380Y0256120D02*
X0249243Y0256120D01*
X0249243Y0257119D02*
X0249380Y0257119D01*
X0249380Y0258117D02*
X0249243Y0258117D01*
X0249243Y0259116D02*
X0249380Y0259116D01*
X0249380Y0260114D02*
X0249243Y0260114D01*
X0249243Y0261113D02*
X0249380Y0261113D01*
X0249380Y0262111D02*
X0249243Y0262111D01*
X0253180Y0262111D02*
X0278276Y0262111D01*
X0278276Y0261113D02*
X0253180Y0261113D01*
X0253180Y0260114D02*
X0278276Y0260114D01*
X0278276Y0259116D02*
X0253180Y0259116D01*
X0253180Y0258117D02*
X0278276Y0258117D01*
X0278276Y0257119D02*
X0253180Y0257119D01*
X0253180Y0256120D02*
X0278276Y0256120D01*
X0278276Y0255122D02*
X0253180Y0255122D01*
X0253180Y0254123D02*
X0278276Y0254123D01*
X0278276Y0253125D02*
X0253180Y0253125D01*
X0253180Y0252126D02*
X0278276Y0252126D01*
X0278276Y0251128D02*
X0253180Y0251128D01*
X0253180Y0250129D02*
X0278276Y0250129D01*
X0278276Y0249131D02*
X0253180Y0249131D01*
X0253180Y0248132D02*
X0278276Y0248132D01*
X0278276Y0247134D02*
X0253180Y0247134D01*
X0253180Y0246135D02*
X0278276Y0246135D01*
X0278276Y0245137D02*
X0253180Y0245137D01*
X0253180Y0244138D02*
X0278276Y0244138D01*
X0278276Y0243140D02*
X0253180Y0243140D01*
X0253180Y0242141D02*
X0278276Y0242141D01*
X0278276Y0241143D02*
X0253180Y0241143D01*
X0253180Y0240144D02*
X0278276Y0240144D01*
X0278276Y0239146D02*
X0253180Y0239146D01*
X0253180Y0238147D02*
X0278276Y0238147D01*
X0278276Y0237149D02*
X0253180Y0237149D01*
X0253180Y0236150D02*
X0278276Y0236150D01*
X0278276Y0235152D02*
X0253180Y0235152D01*
X0253180Y0234153D02*
X0278276Y0234153D01*
X0278276Y0233155D02*
X0253180Y0233155D01*
X0253180Y0232156D02*
X0278276Y0232156D01*
X0278276Y0231158D02*
X0253180Y0231158D01*
X0253180Y0230159D02*
X0278276Y0230159D01*
X0278276Y0229161D02*
X0253180Y0229161D01*
X0253180Y0228162D02*
X0278276Y0228162D01*
X0278276Y0227164D02*
X0253180Y0227164D01*
X0253180Y0226165D02*
X0278276Y0226165D01*
X0278276Y0225167D02*
X0253180Y0225167D01*
X0253180Y0224168D02*
X0278276Y0224168D01*
X0278276Y0223170D02*
X0253180Y0223170D01*
X0253180Y0222171D02*
X0278276Y0222171D01*
X0278276Y0221172D02*
X0253180Y0221172D01*
X0253180Y0220174D02*
X0278276Y0220174D01*
X0278276Y0219175D02*
X0253180Y0219175D01*
X0253180Y0218177D02*
X0278276Y0218177D01*
X0278276Y0217178D02*
X0253180Y0217178D01*
X0253180Y0216180D02*
X0278276Y0216180D01*
X0278276Y0215181D02*
X0253180Y0215181D01*
X0253180Y0214183D02*
X0278276Y0214183D01*
X0278276Y0213184D02*
X0253180Y0213184D01*
X0253180Y0212186D02*
X0278276Y0212186D01*
X0278276Y0211187D02*
X0253180Y0211187D01*
X0253180Y0210189D02*
X0278276Y0210189D01*
X0278276Y0209190D02*
X0253180Y0209190D01*
X0253180Y0208192D02*
X0278276Y0208192D01*
X0278276Y0207193D02*
X0253180Y0207193D01*
X0253180Y0206195D02*
X0278276Y0206195D01*
X0278276Y0205196D02*
X0253180Y0205196D01*
X0253180Y0204198D02*
X0278276Y0204198D01*
X0278276Y0203199D02*
X0253180Y0203199D01*
X0253180Y0202201D02*
X0278276Y0202201D01*
X0278276Y0201202D02*
X0253180Y0201202D01*
X0253180Y0200204D02*
X0278276Y0200204D01*
X0278276Y0199205D02*
X0253180Y0199205D01*
X0253180Y0198207D02*
X0278276Y0198207D01*
X0278276Y0197208D02*
X0253180Y0197208D01*
X0253180Y0196210D02*
X0278276Y0196210D01*
X0278276Y0195211D02*
X0253180Y0195211D01*
X0253180Y0194213D02*
X0278276Y0194213D01*
X0278276Y0193214D02*
X0253180Y0193214D01*
X0253180Y0192216D02*
X0278276Y0192216D01*
X0278276Y0191217D02*
X0253180Y0191217D01*
X0253180Y0190219D02*
X0278276Y0190219D01*
X0278276Y0189220D02*
X0253180Y0189220D01*
X0253180Y0188222D02*
X0278276Y0188222D01*
X0278276Y0187223D02*
X0253180Y0187223D01*
X0253180Y0186225D02*
X0278276Y0186225D01*
X0278276Y0185226D02*
X0253180Y0185226D01*
X0253180Y0184228D02*
X0278276Y0184228D01*
X0278276Y0183229D02*
X0253180Y0183229D01*
X0253180Y0182231D02*
X0278276Y0182231D01*
X0278276Y0181232D02*
X0253180Y0181232D01*
X0253180Y0180234D02*
X0278276Y0180234D01*
X0278276Y0179235D02*
X0253180Y0179235D01*
X0253180Y0178237D02*
X0278276Y0178237D01*
X0278276Y0177238D02*
X0253180Y0177238D01*
X0253180Y0176239D02*
X0278276Y0176239D01*
X0278276Y0175241D02*
X0253180Y0175241D01*
X0253180Y0174242D02*
X0278276Y0174242D01*
X0278276Y0173244D02*
X0253180Y0173244D01*
X0253180Y0172245D02*
X0278276Y0172245D01*
X0278276Y0171247D02*
X0253180Y0171247D01*
X0253180Y0170248D02*
X0278276Y0170248D01*
X0278276Y0169250D02*
X0253180Y0169250D01*
X0253180Y0168251D02*
X0278276Y0168251D01*
X0278276Y0167253D02*
X0253180Y0167253D01*
X0253180Y0166254D02*
X0278276Y0166254D01*
X0278276Y0165256D02*
X0253180Y0165256D01*
X0253180Y0164257D02*
X0278276Y0164257D01*
X0278276Y0163259D02*
X0253180Y0163259D01*
X0253180Y0162260D02*
X0278276Y0162260D01*
X0278276Y0161262D02*
X0253180Y0161262D01*
X0253180Y0160263D02*
X0278276Y0160263D01*
X0278276Y0159265D02*
X0253180Y0159265D01*
X0253180Y0158266D02*
X0278276Y0158266D01*
X0278276Y0157268D02*
X0253180Y0157268D01*
X0253180Y0156269D02*
X0278276Y0156269D01*
X0278276Y0155271D02*
X0253180Y0155271D01*
X0253180Y0154272D02*
X0278276Y0154272D01*
X0278276Y0153274D02*
X0253180Y0153274D01*
X0253180Y0152275D02*
X0278276Y0152275D01*
X0278276Y0151277D02*
X0253180Y0151277D01*
X0253180Y0150278D02*
X0278276Y0150278D01*
X0278276Y0149280D02*
X0253180Y0149280D01*
X0253180Y0148281D02*
X0278276Y0148281D01*
X0278276Y0147283D02*
X0253180Y0147283D01*
X0253180Y0146284D02*
X0278276Y0146284D01*
X0278276Y0145286D02*
X0253180Y0145286D01*
X0253180Y0144287D02*
X0264453Y0144287D01*
X0263415Y0144081D02*
X0263415Y0144081D01*
X0267028Y0144799D01*
X0267028Y0144799D01*
X0270640Y0144081D01*
X0270640Y0144081D01*
X0273703Y0142034D01*
X0273703Y0142034D01*
X0273703Y0142034D01*
X0275750Y0138971D01*
X0275750Y0138971D01*
X0276468Y0135358D01*
X0275750Y0131745D01*
X0273703Y0128683D01*
X0273703Y0128683D01*
X0273703Y0128683D01*
X0270640Y0126636D01*
X0270640Y0126636D01*
X0267028Y0125917D01*
X0267028Y0125917D01*
X0263415Y0126636D01*
X0263415Y0126636D01*
X0260352Y0128683D01*
X0260352Y0128683D01*
X0258305Y0131745D01*
X0258305Y0131745D01*
X0257587Y0135358D01*
X0257587Y0135358D01*
X0258305Y0138971D01*
X0258305Y0138971D01*
X0260352Y0142034D01*
X0260352Y0142034D01*
X0263415Y0144081D01*
X0262229Y0143289D02*
X0253180Y0143289D01*
X0253180Y0142290D02*
X0260735Y0142290D01*
X0260352Y0142034D02*
X0260352Y0142034D01*
X0259856Y0141292D02*
X0253180Y0141292D01*
X0253180Y0140293D02*
X0259189Y0140293D01*
X0258521Y0139295D02*
X0253180Y0139295D01*
X0253180Y0138296D02*
X0258171Y0138296D01*
X0257972Y0137298D02*
X0253180Y0137298D01*
X0253180Y0136299D02*
X0257774Y0136299D01*
X0257598Y0135301D02*
X0253180Y0135301D01*
X0253180Y0134302D02*
X0257797Y0134302D01*
X0257995Y0133303D02*
X0253180Y0133303D01*
X0253180Y0132305D02*
X0258194Y0132305D01*
X0258599Y0131306D02*
X0253180Y0131306D01*
X0253180Y0130308D02*
X0259266Y0130308D01*
X0259933Y0129309D02*
X0253180Y0129309D01*
X0253180Y0128311D02*
X0260908Y0128311D01*
X0260352Y0128683D02*
X0260352Y0128683D01*
X0262402Y0127312D02*
X0253180Y0127312D01*
X0253180Y0126314D02*
X0265034Y0126314D01*
X0269021Y0126314D02*
X0278276Y0126314D01*
X0278276Y0127312D02*
X0271653Y0127312D01*
X0273147Y0128311D02*
X0278276Y0128311D01*
X0278276Y0129309D02*
X0274122Y0129309D01*
X0274789Y0130308D02*
X0278276Y0130308D01*
X0278276Y0131306D02*
X0275457Y0131306D01*
X0275750Y0131745D02*
X0275750Y0131745D01*
X0275861Y0132305D02*
X0278276Y0132305D01*
X0278276Y0133303D02*
X0276060Y0133303D01*
X0276258Y0134302D02*
X0278276Y0134302D01*
X0278276Y0135301D02*
X0276457Y0135301D01*
X0276281Y0136299D02*
X0278276Y0136299D01*
X0278276Y0137298D02*
X0276083Y0137298D01*
X0275884Y0138296D02*
X0278276Y0138296D01*
X0278276Y0139295D02*
X0275534Y0139295D01*
X0274867Y0140293D02*
X0278276Y0140293D01*
X0278276Y0141292D02*
X0274199Y0141292D01*
X0273320Y0142290D02*
X0278276Y0142290D01*
X0278276Y0143289D02*
X0271826Y0143289D01*
X0269602Y0144287D02*
X0278276Y0144287D01*
X0278276Y0125315D02*
X0253180Y0125315D01*
X0253180Y0124317D02*
X0278276Y0124317D01*
X0278276Y0123318D02*
X0253180Y0123318D01*
X0253180Y0122320D02*
X0278276Y0122320D01*
X0278276Y0121321D02*
X0253180Y0121321D01*
X0253180Y0120323D02*
X0278276Y0120323D01*
X0278276Y0119324D02*
X0253180Y0119324D01*
X0253180Y0118326D02*
X0278276Y0118326D01*
X0278276Y0117327D02*
X0253180Y0117327D01*
X0253180Y0116329D02*
X0278276Y0116329D01*
X0278276Y0115330D02*
X0253180Y0115330D01*
X0253180Y0114332D02*
X0278276Y0114332D01*
X0278276Y0113333D02*
X0253180Y0113333D01*
X0253180Y0112335D02*
X0278276Y0112335D01*
X0278276Y0111336D02*
X0253180Y0111336D01*
X0253180Y0110338D02*
X0278276Y0110338D01*
X0278276Y0109339D02*
X0253180Y0109339D01*
X0253180Y0108341D02*
X0278276Y0108341D01*
X0278276Y0107342D02*
X0253180Y0107342D01*
X0253180Y0106344D02*
X0278276Y0106344D01*
X0278276Y0105345D02*
X0253180Y0105345D01*
X0253180Y0104347D02*
X0278276Y0104347D01*
X0278276Y0103348D02*
X0253180Y0103348D01*
X0253180Y0102350D02*
X0278276Y0102350D01*
X0278276Y0101351D02*
X0253180Y0101351D01*
X0253180Y0100353D02*
X0278276Y0100353D01*
X0278276Y0099354D02*
X0253180Y0099354D01*
X0253180Y0098356D02*
X0278276Y0098356D01*
X0278276Y0097357D02*
X0253180Y0097357D01*
X0253180Y0096359D02*
X0278276Y0096359D01*
X0278276Y0095360D02*
X0253180Y0095360D01*
X0253180Y0094362D02*
X0278276Y0094362D01*
X0278276Y0093363D02*
X0253180Y0093363D01*
X0253180Y0092365D02*
X0278276Y0092365D01*
X0278276Y0091366D02*
X0253180Y0091366D01*
X0253180Y0090368D02*
X0278276Y0090368D01*
X0278276Y0089369D02*
X0253180Y0089369D01*
X0253180Y0088370D02*
X0278276Y0088370D01*
X0278276Y0087372D02*
X0253180Y0087372D01*
X0253180Y0086373D02*
X0278276Y0086373D01*
X0278276Y0085375D02*
X0253180Y0085375D01*
X0249380Y0087372D02*
X0247067Y0087372D01*
X0245449Y0088370D02*
X0249380Y0088370D01*
X0255000Y0076388D02*
X0186751Y0076388D01*
X0186751Y0075390D02*
X0255270Y0075390D01*
X0257252Y0074391D02*
X0186751Y0074391D01*
X0188818Y0073393D02*
X0259996Y0073393D01*
X0259593Y0074391D02*
X0258528Y0074391D01*
X0258892Y0075390D02*
X0259956Y0075390D01*
X0260319Y0076388D02*
X0259255Y0076388D01*
X0261046Y0078385D02*
X0261335Y0078385D01*
X0261410Y0079384D02*
X0260346Y0079384D01*
X0260709Y0080382D02*
X0261773Y0080382D01*
X0262137Y0081381D02*
X0261072Y0081381D01*
X0263898Y0076388D02*
X0278276Y0076388D01*
X0278276Y0075390D02*
X0264267Y0075390D01*
X0263904Y0074391D02*
X0278276Y0074391D01*
X0278276Y0073393D02*
X0263512Y0073393D01*
X0278276Y0072394D02*
X0190054Y0072394D01*
X0189953Y0071396D02*
X0278276Y0071396D01*
X0278276Y0070397D02*
X0189589Y0070397D01*
X0189226Y0069399D02*
X0278276Y0069399D01*
X0249380Y0135301D02*
X0238672Y0135301D01*
X0239035Y0136299D02*
X0249380Y0136299D01*
X0249380Y0137298D02*
X0239265Y0137298D01*
X0238788Y0138296D02*
X0249380Y0138296D01*
X0241506Y0153274D02*
X0240386Y0153274D01*
X0241368Y0154272D02*
X0241506Y0154272D01*
X0241506Y0155271D02*
X0241368Y0155271D01*
X0241368Y0156269D02*
X0241506Y0156269D01*
X0241506Y0157268D02*
X0241368Y0157268D01*
X0241368Y0158266D02*
X0241506Y0158266D01*
X0241506Y0159265D02*
X0241368Y0159265D01*
X0241368Y0160263D02*
X0241506Y0160263D01*
X0241506Y0161262D02*
X0241368Y0161262D01*
X0241368Y0162260D02*
X0241506Y0162260D01*
X0241506Y0163259D02*
X0241368Y0163259D01*
X0241368Y0164257D02*
X0241506Y0164257D01*
X0237569Y0190219D02*
X0019521Y0190219D01*
X0019521Y0191217D02*
X0237569Y0191217D01*
X0237569Y0192216D02*
X0019521Y0192216D01*
X0019521Y0193214D02*
X0237569Y0193214D01*
X0237569Y0194213D02*
X0019521Y0194213D01*
X0019521Y0195211D02*
X0237569Y0195211D01*
X0237569Y0196210D02*
X0019521Y0196210D01*
X0019521Y0197208D02*
X0237569Y0197208D01*
X0237569Y0198207D02*
X0019521Y0198207D01*
X0019521Y0199205D02*
X0237569Y0199205D01*
X0237569Y0200204D02*
X0019521Y0200204D01*
X0019521Y0201202D02*
X0237569Y0201202D01*
X0237569Y0202201D02*
X0019521Y0202201D01*
X0019521Y0203199D02*
X0069421Y0203199D01*
X0069564Y0203140D02*
X0070791Y0203140D01*
X0071924Y0203610D01*
X0072639Y0204324D01*
X0085538Y0204324D01*
X0086253Y0203610D01*
X0087386Y0203140D01*
X0088613Y0203140D01*
X0089747Y0203610D01*
X0090615Y0204477D01*
X0091084Y0205611D01*
X0091084Y0206838D01*
X0090615Y0207971D01*
X0089747Y0208839D01*
X0088613Y0209309D01*
X0087386Y0209309D01*
X0086253Y0208839D01*
X0085538Y0208124D01*
X0072639Y0208124D01*
X0071924Y0208839D01*
X0070791Y0209309D01*
X0069564Y0209309D01*
X0068430Y0208839D01*
X0067562Y0207971D01*
X0067093Y0206838D01*
X0067093Y0205611D01*
X0067562Y0204477D01*
X0068430Y0203610D01*
X0069564Y0203140D01*
X0070933Y0203199D02*
X0087244Y0203199D01*
X0088756Y0203199D02*
X0237569Y0203199D01*
X0237569Y0204198D02*
X0090335Y0204198D01*
X0090912Y0205196D02*
X0237569Y0205196D01*
X0237569Y0206195D02*
X0091084Y0206195D01*
X0090937Y0207193D02*
X0237569Y0207193D01*
X0237569Y0208192D02*
X0090394Y0208192D01*
X0088899Y0209190D02*
X0237569Y0209190D01*
X0237569Y0210189D02*
X0019521Y0210189D01*
X0019521Y0211187D02*
X0237569Y0211187D01*
X0237569Y0212186D02*
X0019521Y0212186D01*
X0019521Y0213184D02*
X0237569Y0213184D01*
X0237569Y0214183D02*
X0019521Y0214183D01*
X0019521Y0215181D02*
X0237569Y0215181D01*
X0237569Y0216180D02*
X0019521Y0216180D01*
X0019521Y0217178D02*
X0237569Y0217178D01*
X0237569Y0218177D02*
X0019521Y0218177D01*
X0019521Y0219175D02*
X0237569Y0219175D01*
X0253472Y0263110D02*
X0278276Y0263110D01*
X0278276Y0264108D02*
X0254133Y0264108D01*
X0254364Y0265107D02*
X0278276Y0265107D01*
X0278276Y0266105D02*
X0254276Y0266105D01*
X0253817Y0267104D02*
X0278276Y0267104D01*
X0278276Y0268103D02*
X0252524Y0268103D01*
X0250035Y0268103D02*
X0249243Y0268103D01*
X0249243Y0269101D02*
X0278276Y0269101D01*
X0278276Y0270100D02*
X0249243Y0270100D01*
X0249649Y0271098D02*
X0278276Y0271098D01*
X0278276Y0272097D02*
X0250243Y0272097D01*
X0250427Y0273095D02*
X0278276Y0273095D01*
X0278276Y0274094D02*
X0250291Y0274094D01*
X0249766Y0275092D02*
X0278276Y0275092D01*
X0278276Y0276091D02*
X0248311Y0276091D01*
X0246374Y0276091D02*
X0246330Y0276091D01*
X0246490Y0277089D02*
X0278276Y0277089D01*
X0278276Y0278088D02*
X0246331Y0278088D01*
X0245772Y0279086D02*
X0278276Y0279086D01*
X0278276Y0290070D02*
X0136024Y0290070D01*
X0135364Y0291068D02*
X0278276Y0291068D01*
X0278276Y0292067D02*
X0007748Y0292067D01*
X0007748Y0293065D02*
X0278276Y0293065D01*
X0278276Y0294064D02*
X0264603Y0294064D01*
X0264838Y0294161D02*
X0265705Y0295028D01*
X0266175Y0296162D01*
X0266175Y0297389D01*
X0265705Y0298523D01*
X0264838Y0299390D01*
X0263704Y0299860D01*
X0262477Y0299860D01*
X0261343Y0299390D01*
X0261229Y0299276D01*
X0249204Y0299276D01*
X0249090Y0299390D01*
X0247956Y0299860D01*
X0246729Y0299860D01*
X0245595Y0299390D01*
X0244728Y0298523D01*
X0244258Y0297389D01*
X0244258Y0296162D01*
X0244728Y0295028D01*
X0245595Y0294161D01*
X0246729Y0293691D01*
X0247956Y0293691D01*
X0249090Y0294161D01*
X0249204Y0294276D01*
X0261229Y0294276D01*
X0261343Y0294161D01*
X0262477Y0293691D01*
X0263704Y0293691D01*
X0264838Y0294161D01*
X0265719Y0295062D02*
X0278276Y0295062D01*
X0278276Y0296061D02*
X0266133Y0296061D01*
X0266175Y0297059D02*
X0278276Y0297059D01*
X0278276Y0298058D02*
X0265898Y0298058D01*
X0265172Y0299056D02*
X0278276Y0299056D01*
X0278276Y0300055D02*
X0007748Y0300055D01*
X0007748Y0301053D02*
X0278276Y0301053D01*
X0278276Y0302052D02*
X0007748Y0302052D01*
X0007748Y0303050D02*
X0278276Y0303050D01*
X0278276Y0304049D02*
X0007748Y0304049D01*
X0007748Y0305047D02*
X0278276Y0305047D01*
X0278276Y0306046D02*
X0007748Y0306046D01*
X0007748Y0307044D02*
X0278276Y0307044D01*
X0278276Y0308043D02*
X0007748Y0308043D01*
X0007748Y0309041D02*
X0270294Y0309041D01*
X0269106Y0310040D02*
X0007748Y0310040D01*
X0007748Y0311039D02*
X0268166Y0311039D01*
X0267752Y0312037D02*
X0007748Y0312037D01*
X0007748Y0313036D02*
X0267339Y0313036D01*
X0267252Y0314034D02*
X0007748Y0314034D01*
X0007748Y0315033D02*
X0267252Y0315033D01*
X0267373Y0316031D02*
X0007748Y0316031D01*
X0007748Y0317030D02*
X0267786Y0317030D01*
X0268200Y0318028D02*
X0007748Y0318028D01*
X0007748Y0319027D02*
X0269189Y0319027D01*
X0270493Y0320025D02*
X0007748Y0320025D01*
X0007748Y0321024D02*
X0269934Y0321024D01*
X0268935Y0322022D02*
X0007748Y0322022D01*
X0007748Y0323021D02*
X0268095Y0323021D01*
X0267681Y0324019D02*
X0007748Y0324019D01*
X0007748Y0325018D02*
X0267268Y0325018D01*
X0267252Y0326016D02*
X0007748Y0326016D01*
X0007748Y0327015D02*
X0267252Y0327015D01*
X0267444Y0328013D02*
X0007748Y0328013D01*
X0007748Y0329012D02*
X0267857Y0329012D01*
X0268361Y0330010D02*
X0007748Y0330010D01*
X0007748Y0331009D02*
X0269360Y0331009D01*
X0270906Y0332007D02*
X0007748Y0332007D01*
X0007748Y0333006D02*
X0278276Y0333006D01*
X0278276Y0334004D02*
X0007748Y0334004D01*
X0007748Y0335003D02*
X0278276Y0335003D01*
X0278276Y0336001D02*
X0007748Y0336001D01*
X0007748Y0337000D02*
X0278276Y0337000D01*
X0278276Y0337998D02*
X0007748Y0337998D01*
X0007748Y0338997D02*
X0278276Y0338997D01*
X0278276Y0339995D02*
X0007748Y0339995D01*
X0007748Y0340994D02*
X0278276Y0340994D01*
X0278276Y0341992D02*
X0007748Y0341992D01*
X0007859Y0342991D02*
X0278165Y0342991D01*
X0277897Y0343989D02*
X0008126Y0343989D01*
X0008670Y0344988D02*
X0277354Y0344988D01*
X0276489Y0345986D02*
X0009535Y0345986D01*
X0011042Y0346985D02*
X0274981Y0346985D01*
X0276141Y0332007D02*
X0278276Y0332007D01*
X0278276Y0331009D02*
X0277687Y0331009D01*
X0277941Y0310040D02*
X0278276Y0310040D01*
X0278276Y0309041D02*
X0276753Y0309041D01*
X0261578Y0294064D02*
X0248855Y0294064D01*
X0245830Y0294064D02*
X0007748Y0294064D01*
X0007748Y0295062D02*
X0244714Y0295062D01*
X0244300Y0296061D02*
X0007748Y0296061D01*
X0007748Y0297059D02*
X0244258Y0297059D01*
X0244535Y0298058D02*
X0007748Y0298058D01*
X0007748Y0299056D02*
X0245262Y0299056D01*
X0245305Y0270100D02*
X0245443Y0270100D01*
X0245443Y0269101D02*
X0245305Y0269101D01*
X0245305Y0268103D02*
X0245443Y0268103D01*
X0183333Y0152275D02*
X0160129Y0152275D01*
X0160129Y0151277D02*
X0182951Y0151277D01*
X0182951Y0150278D02*
X0160129Y0150278D01*
X0160129Y0149280D02*
X0182951Y0149280D01*
X0182951Y0125315D02*
X0176979Y0125315D01*
X0177599Y0124317D02*
X0178664Y0124317D01*
X0178787Y0124657D02*
X0177368Y0120758D01*
X0181175Y0119372D01*
X0182149Y0122048D01*
X0182183Y0122441D01*
X0182115Y0122830D01*
X0181948Y0123188D01*
X0181694Y0123491D01*
X0181370Y0123717D01*
X0178787Y0124657D01*
X0179723Y0124317D02*
X0182951Y0124317D01*
X0182951Y0123318D02*
X0181838Y0123318D01*
X0182173Y0122320D02*
X0182951Y0122320D01*
X0182951Y0121321D02*
X0181884Y0121321D01*
X0181521Y0120323D02*
X0182951Y0120323D01*
X0182951Y0119324D02*
X0178383Y0119324D01*
X0178563Y0120323D02*
X0177210Y0120323D01*
X0177573Y0121321D02*
X0176509Y0121321D01*
X0175820Y0121321D02*
X0172896Y0121321D01*
X0172280Y0121546D02*
X0171306Y0118870D01*
X0171271Y0118477D01*
X0171340Y0118088D01*
X0171507Y0117730D01*
X0171761Y0117428D01*
X0172084Y0117201D01*
X0174667Y0116261D01*
X0176087Y0120160D01*
X0176086Y0120160D02*
X0172280Y0121546D01*
X0172198Y0121321D02*
X0119321Y0121321D01*
X0119321Y0120323D02*
X0171835Y0120323D01*
X0171471Y0119324D02*
X0119321Y0119324D01*
X0119321Y0118326D02*
X0171298Y0118326D01*
X0171904Y0117327D02*
X0119321Y0117327D01*
X0119321Y0116329D02*
X0174481Y0116329D01*
X0174692Y0116329D02*
X0175756Y0116329D01*
X0176120Y0117327D02*
X0175055Y0117327D01*
X0175419Y0118326D02*
X0176483Y0118326D01*
X0176846Y0119324D02*
X0175782Y0119324D01*
X0175640Y0120323D02*
X0176146Y0120323D01*
X0176873Y0122320D02*
X0177937Y0122320D01*
X0178300Y0123318D02*
X0177236Y0123318D01*
X0180794Y0118326D02*
X0182951Y0118326D01*
X0182951Y0117327D02*
X0180431Y0117327D01*
X0180067Y0116329D02*
X0182951Y0116329D01*
X0182951Y0115330D02*
X0179509Y0115330D01*
X0177224Y0115330D02*
X0119321Y0115330D01*
X0119321Y0114332D02*
X0182951Y0114332D01*
X0182951Y0113333D02*
X0119321Y0113333D01*
X0119321Y0112335D02*
X0182951Y0112335D01*
X0182951Y0111336D02*
X0119321Y0111336D01*
X0119321Y0110338D02*
X0182951Y0110338D01*
X0182951Y0109339D02*
X0119321Y0109339D01*
X0119321Y0108341D02*
X0182951Y0108341D01*
X0182951Y0107342D02*
X0119321Y0107342D01*
X0119321Y0106344D02*
X0182951Y0106344D01*
X0182951Y0105345D02*
X0119321Y0105345D01*
X0119321Y0104347D02*
X0182951Y0104347D01*
X0182951Y0103348D02*
X0119321Y0103348D01*
X0119321Y0102350D02*
X0182951Y0102350D01*
X0182951Y0101351D02*
X0119321Y0101351D01*
X0119321Y0100353D02*
X0182951Y0100353D01*
X0182951Y0099354D02*
X0119321Y0099354D01*
X0119321Y0098356D02*
X0182951Y0098356D01*
X0182951Y0097357D02*
X0119321Y0097357D01*
X0119321Y0096359D02*
X0182951Y0096359D01*
X0182951Y0095360D02*
X0119321Y0095360D01*
X0118482Y0094362D02*
X0182951Y0094362D01*
X0182951Y0093363D02*
X0109092Y0093363D01*
X0109092Y0092365D02*
X0182951Y0092365D01*
X0182951Y0091366D02*
X0109092Y0091366D01*
X0109092Y0090368D02*
X0182951Y0090368D01*
X0182951Y0089369D02*
X0109092Y0089369D01*
X0109092Y0088370D02*
X0182951Y0088370D01*
X0182951Y0087372D02*
X0109092Y0087372D01*
X0109092Y0086373D02*
X0182951Y0086373D01*
X0182951Y0085375D02*
X0109092Y0085375D01*
X0109092Y0084376D02*
X0182951Y0084376D01*
X0182951Y0083378D02*
X0109092Y0083378D01*
X0109092Y0082379D02*
X0182951Y0082379D01*
X0182951Y0081381D02*
X0109092Y0081381D01*
X0109092Y0080382D02*
X0136562Y0080382D01*
X0136618Y0080537D02*
X0134095Y0073605D01*
X0134550Y0072629D01*
X0141297Y0070174D01*
X0142273Y0070629D01*
X0144795Y0077560D01*
X0144340Y0078536D01*
X0137594Y0080992D01*
X0136618Y0080537D01*
X0136198Y0079384D02*
X0109092Y0079384D01*
X0109092Y0078385D02*
X0135835Y0078385D01*
X0135472Y0077387D02*
X0109092Y0077387D01*
X0109092Y0076388D02*
X0135108Y0076388D01*
X0134745Y0075390D02*
X0109092Y0075390D01*
X0109092Y0074391D02*
X0134381Y0074391D01*
X0134194Y0073393D02*
X0109092Y0073393D01*
X0109092Y0072394D02*
X0135196Y0072394D01*
X0137939Y0071396D02*
X0109092Y0071396D01*
X0109092Y0070397D02*
X0140682Y0070397D01*
X0141776Y0070397D02*
X0153876Y0070397D01*
X0153513Y0069399D02*
X0109092Y0069399D01*
X0109092Y0068400D02*
X0153149Y0068400D01*
X0152786Y0067402D02*
X0109092Y0067402D01*
X0109873Y0066403D02*
X0152812Y0066403D01*
X0154399Y0065405D02*
X0110872Y0065405D01*
X0104949Y0060412D02*
X0103573Y0060412D01*
X0103573Y0059414D02*
X0105948Y0059414D01*
X0103951Y0061411D02*
X0103573Y0061411D01*
X0099773Y0067402D02*
X0053756Y0067402D01*
X0052758Y0068400D02*
X0071906Y0068400D01*
X0072342Y0067964D02*
X0073419Y0067964D01*
X0077800Y0072345D01*
X0077800Y0073422D01*
X0072723Y0078498D01*
X0071646Y0078498D01*
X0067265Y0074118D01*
X0067265Y0073041D01*
X0072342Y0067964D01*
X0073855Y0068400D02*
X0099773Y0068400D01*
X0099773Y0069399D02*
X0074853Y0069399D01*
X0075852Y0070397D02*
X0099773Y0070397D01*
X0099773Y0071396D02*
X0076850Y0071396D01*
X0077800Y0072394D02*
X0099773Y0072394D01*
X0099773Y0073393D02*
X0077800Y0073393D01*
X0076830Y0074391D02*
X0099773Y0074391D01*
X0099773Y0075390D02*
X0075832Y0075390D01*
X0074833Y0076388D02*
X0099773Y0076388D01*
X0099773Y0077387D02*
X0073834Y0077387D01*
X0072836Y0078385D02*
X0099773Y0078385D01*
X0099773Y0079384D02*
X0060961Y0079384D01*
X0061959Y0078385D02*
X0071533Y0078385D01*
X0070535Y0077387D02*
X0062768Y0077387D01*
X0062768Y0077576D02*
X0058387Y0081957D01*
X0057310Y0081957D01*
X0052234Y0076880D01*
X0052234Y0075804D01*
X0056614Y0071423D01*
X0057691Y0071423D01*
X0062768Y0076499D01*
X0062768Y0077576D01*
X0062657Y0076388D02*
X0069536Y0076388D01*
X0068538Y0075390D02*
X0061658Y0075390D01*
X0060660Y0074391D02*
X0067539Y0074391D01*
X0067265Y0073393D02*
X0059661Y0073393D01*
X0058663Y0072394D02*
X0067912Y0072394D01*
X0068911Y0071396D02*
X0021732Y0071396D01*
X0022681Y0072394D02*
X0055643Y0072394D01*
X0054645Y0073393D02*
X0022681Y0073393D01*
X0021712Y0074391D02*
X0053646Y0074391D01*
X0052648Y0075390D02*
X0020713Y0075390D01*
X0019715Y0076388D02*
X0052234Y0076388D01*
X0052740Y0077387D02*
X0019332Y0077387D01*
X0019336Y0078385D02*
X0053739Y0078385D01*
X0054737Y0079384D02*
X0019341Y0079384D01*
X0019345Y0080382D02*
X0029754Y0080382D01*
X0029711Y0080394D02*
X0030092Y0080292D01*
X0030487Y0080292D01*
X0030869Y0080394D01*
X0031211Y0080591D01*
X0032806Y0082187D01*
X0029942Y0085052D01*
X0030649Y0085759D01*
X0029942Y0086466D01*
X0032459Y0088983D01*
X0030515Y0090926D01*
X0030173Y0091124D01*
X0029791Y0091226D01*
X0029396Y0091226D01*
X0029015Y0091124D01*
X0028673Y0090926D01*
X0027077Y0089330D01*
X0029942Y0086466D01*
X0029235Y0085759D01*
X0026370Y0088623D01*
X0024775Y0087028D01*
X0024577Y0086686D01*
X0024475Y0086304D01*
X0024475Y0085909D01*
X0024577Y0085528D01*
X0024775Y0085186D01*
X0026718Y0083242D01*
X0029235Y0085759D01*
X0029942Y0085052D01*
X0027425Y0082535D01*
X0029369Y0080591D01*
X0029711Y0080394D01*
X0030826Y0080382D02*
X0055736Y0080382D01*
X0056734Y0081381D02*
X0032000Y0081381D01*
X0032614Y0082379D02*
X0082982Y0082379D01*
X0083980Y0081381D02*
X0058964Y0081381D01*
X0059962Y0080382D02*
X0099773Y0080382D01*
X0099773Y0081381D02*
X0086836Y0081381D01*
X0085946Y0080492D02*
X0090327Y0084872D01*
X0090327Y0085949D01*
X0085250Y0091026D01*
X0084174Y0091026D01*
X0079793Y0086645D01*
X0079793Y0085568D01*
X0084870Y0080492D01*
X0085946Y0080492D01*
X0087834Y0082379D02*
X0099773Y0082379D01*
X0099773Y0083378D02*
X0088833Y0083378D01*
X0089831Y0084376D02*
X0099773Y0084376D01*
X0099773Y0085375D02*
X0090327Y0085375D01*
X0089903Y0086373D02*
X0099773Y0086373D01*
X0099773Y0087372D02*
X0088904Y0087372D01*
X0087906Y0088370D02*
X0099773Y0088370D01*
X0099773Y0089369D02*
X0086907Y0089369D01*
X0085909Y0090368D02*
X0099773Y0090368D01*
X0099773Y0091366D02*
X0048978Y0091366D01*
X0047980Y0092365D02*
X0099773Y0092365D01*
X0099773Y0093363D02*
X0079513Y0093363D01*
X0079482Y0093355D02*
X0079864Y0093457D01*
X0080206Y0093655D01*
X0082149Y0095598D01*
X0079633Y0098115D01*
X0080340Y0098822D01*
X0079633Y0099529D01*
X0078926Y0098822D01*
X0076409Y0101338D01*
X0074466Y0099395D01*
X0074268Y0099053D01*
X0074166Y0098671D01*
X0074166Y0098276D01*
X0074268Y0097895D01*
X0074466Y0097553D01*
X0076061Y0095957D01*
X0078926Y0098822D01*
X0079633Y0098115D01*
X0076768Y0095250D01*
X0078364Y0093655D01*
X0078706Y0093457D01*
X0079087Y0093355D01*
X0079482Y0093355D01*
X0079057Y0093363D02*
X0046981Y0093363D01*
X0045983Y0094362D02*
X0077657Y0094362D01*
X0076878Y0095360D02*
X0073811Y0095360D01*
X0074046Y0096359D02*
X0075660Y0096359D01*
X0076462Y0096359D02*
X0077877Y0096359D01*
X0077461Y0097357D02*
X0078875Y0097357D01*
X0078459Y0098356D02*
X0079392Y0098356D01*
X0079874Y0098356D02*
X0080806Y0098356D01*
X0080340Y0098822D02*
X0082857Y0096305D01*
X0084800Y0098249D01*
X0084998Y0098591D01*
X0085100Y0098972D01*
X0085100Y0099367D01*
X0084998Y0099749D01*
X0084800Y0100091D01*
X0083205Y0101686D01*
X0080340Y0098822D01*
X0079808Y0099354D02*
X0080872Y0099354D01*
X0080456Y0100353D02*
X0081871Y0100353D01*
X0081455Y0101351D02*
X0082869Y0101351D01*
X0083540Y0101351D02*
X0100412Y0101351D01*
X0099773Y0100353D02*
X0084538Y0100353D01*
X0085100Y0099354D02*
X0099773Y0099354D01*
X0099773Y0098356D02*
X0084862Y0098356D01*
X0083908Y0097357D02*
X0099773Y0097357D01*
X0099773Y0096359D02*
X0082910Y0096359D01*
X0082803Y0096359D02*
X0081389Y0096359D01*
X0081805Y0097357D02*
X0080391Y0097357D01*
X0079458Y0099354D02*
X0078393Y0099354D01*
X0078809Y0100353D02*
X0077395Y0100353D01*
X0077811Y0101351D02*
X0074046Y0101351D01*
X0074046Y0100353D02*
X0075423Y0100353D01*
X0074442Y0099354D02*
X0074046Y0099354D01*
X0074046Y0098356D02*
X0074166Y0098356D01*
X0074046Y0097357D02*
X0074661Y0097357D01*
X0074046Y0102350D02*
X0077420Y0102350D01*
X0078419Y0103348D02*
X0074046Y0103348D01*
X0070246Y0103348D02*
X0007748Y0103348D01*
X0007748Y0102350D02*
X0070246Y0102350D01*
X0070246Y0101351D02*
X0007748Y0101351D01*
X0007748Y0100353D02*
X0070246Y0100353D01*
X0070246Y0099354D02*
X0007748Y0099354D01*
X0007748Y0098356D02*
X0070246Y0098356D01*
X0070246Y0104347D02*
X0007748Y0104347D01*
X0007748Y0105345D02*
X0070246Y0105345D01*
X0070246Y0106344D02*
X0067557Y0106344D01*
X0068556Y0107342D02*
X0070970Y0107342D01*
X0065958Y0106344D02*
X0027430Y0106344D01*
X0026870Y0106232D02*
X0030483Y0106951D01*
X0033546Y0108997D01*
X0033546Y0108997D01*
X0035592Y0112060D01*
X0035592Y0112060D01*
X0036311Y0115673D01*
X0035592Y0119286D01*
X0033546Y0122349D01*
X0033546Y0122349D01*
X0033546Y0122349D01*
X0030483Y0124396D01*
X0026870Y0125114D01*
X0023257Y0124396D01*
X0020194Y0122349D01*
X0018148Y0119286D01*
X0017429Y0115673D01*
X0018148Y0112060D01*
X0020194Y0108997D01*
X0023257Y0106951D01*
X0023257Y0106951D01*
X0026870Y0106232D01*
X0026870Y0106232D01*
X0026310Y0106344D02*
X0007748Y0106344D01*
X0007748Y0107342D02*
X0022672Y0107342D01*
X0021177Y0108341D02*
X0007748Y0108341D01*
X0007748Y0109339D02*
X0019966Y0109339D01*
X0020194Y0108997D02*
X0020194Y0108997D01*
X0020194Y0108997D01*
X0019299Y0110338D02*
X0007748Y0110338D01*
X0007748Y0111336D02*
X0018632Y0111336D01*
X0018148Y0112060D02*
X0018148Y0112060D01*
X0018093Y0112335D02*
X0007748Y0112335D01*
X0007748Y0113333D02*
X0017895Y0113333D01*
X0017696Y0114332D02*
X0007748Y0114332D01*
X0007748Y0115330D02*
X0017497Y0115330D01*
X0017429Y0115673D02*
X0017429Y0115673D01*
X0017560Y0116329D02*
X0007748Y0116329D01*
X0007748Y0117327D02*
X0017758Y0117327D01*
X0017957Y0118326D02*
X0007748Y0118326D01*
X0007748Y0119324D02*
X0018173Y0119324D01*
X0018148Y0119286D02*
X0018148Y0119286D01*
X0018841Y0120323D02*
X0007748Y0120323D01*
X0007748Y0121321D02*
X0019508Y0121321D01*
X0020175Y0122320D02*
X0007748Y0122320D01*
X0007748Y0123318D02*
X0021645Y0123318D01*
X0020194Y0122349D02*
X0020194Y0122349D01*
X0020194Y0122349D01*
X0023140Y0124317D02*
X0007748Y0124317D01*
X0007748Y0125315D02*
X0103710Y0125315D01*
X0103710Y0124317D02*
X0030601Y0124317D01*
X0030483Y0124396D02*
X0030483Y0124396D01*
X0032095Y0123318D02*
X0103710Y0123318D01*
X0103710Y0122320D02*
X0033565Y0122320D01*
X0034232Y0121321D02*
X0103710Y0121321D01*
X0103710Y0120323D02*
X0034900Y0120323D01*
X0035567Y0119324D02*
X0103710Y0119324D01*
X0103710Y0118326D02*
X0035783Y0118326D01*
X0035592Y0119286D02*
X0035592Y0119286D01*
X0035982Y0117327D02*
X0103710Y0117327D01*
X0103710Y0116329D02*
X0068279Y0116329D01*
X0069278Y0115330D02*
X0103710Y0115330D01*
X0103710Y0114332D02*
X0070276Y0114332D01*
X0071275Y0113333D02*
X0103710Y0113333D01*
X0103710Y0126314D02*
X0007748Y0126314D01*
X0007748Y0127312D02*
X0103710Y0127312D01*
X0103710Y0128311D02*
X0007748Y0128311D01*
X0007748Y0129309D02*
X0024498Y0129309D01*
X0024489Y0129319D02*
X0024768Y0129040D01*
X0025110Y0128842D01*
X0025491Y0128740D01*
X0029717Y0128740D01*
X0029717Y0132890D01*
X0030716Y0132890D01*
X0030716Y0128740D01*
X0034942Y0128740D01*
X0035323Y0128842D01*
X0035665Y0129040D01*
X0035944Y0129319D01*
X0036142Y0129661D01*
X0036244Y0130043D01*
X0036244Y0132890D01*
X0030717Y0132890D01*
X0030717Y0133890D01*
X0036244Y0133890D01*
X0036244Y0136737D01*
X0036142Y0137118D01*
X0035944Y0137460D01*
X0035665Y0137740D01*
X0035323Y0137937D01*
X0034942Y0138039D01*
X0030716Y0138039D01*
X0030716Y0133890D01*
X0029717Y0133890D01*
X0029717Y0138039D01*
X0025491Y0138039D01*
X0025110Y0137937D01*
X0024768Y0137740D01*
X0024489Y0137460D01*
X0024291Y0137118D01*
X0024189Y0136737D01*
X0024189Y0133890D01*
X0029716Y0133890D01*
X0029716Y0132890D01*
X0024189Y0132890D01*
X0024189Y0130043D01*
X0024291Y0129661D01*
X0024489Y0129319D01*
X0024189Y0130308D02*
X0007748Y0130308D01*
X0007748Y0131306D02*
X0024189Y0131306D01*
X0024189Y0132305D02*
X0007748Y0132305D01*
X0007748Y0133303D02*
X0029716Y0133303D01*
X0029717Y0132305D02*
X0030716Y0132305D01*
X0030717Y0133303D02*
X0049192Y0133303D01*
X0049192Y0132305D02*
X0036244Y0132305D01*
X0036244Y0131306D02*
X0049192Y0131306D01*
X0049192Y0130308D02*
X0036244Y0130308D01*
X0035935Y0129309D02*
X0049584Y0129309D01*
X0049192Y0134302D02*
X0036244Y0134302D01*
X0036244Y0135301D02*
X0049192Y0135301D01*
X0049192Y0136299D02*
X0036244Y0136299D01*
X0036038Y0137298D02*
X0049412Y0137298D01*
X0053120Y0138296D02*
X0007748Y0138296D01*
X0007748Y0137298D02*
X0024395Y0137298D01*
X0024189Y0136299D02*
X0007748Y0136299D01*
X0007748Y0135301D02*
X0024189Y0135301D01*
X0024189Y0134302D02*
X0007748Y0134302D01*
X0007748Y0139295D02*
X0053120Y0139295D01*
X0053120Y0140293D02*
X0007748Y0140293D01*
X0012398Y0141292D02*
X0014571Y0141292D01*
X0013956Y0142290D02*
X0013013Y0142290D01*
X0013013Y0143289D02*
X0013956Y0143289D01*
X0013956Y0144287D02*
X0013013Y0144287D01*
X0013013Y0145286D02*
X0013956Y0145286D01*
X0013956Y0146284D02*
X0013013Y0146284D01*
X0013013Y0147283D02*
X0013956Y0147283D01*
X0013956Y0148281D02*
X0013013Y0148281D01*
X0011647Y0149280D02*
X0015321Y0149280D01*
X0015321Y0150278D02*
X0011647Y0150278D01*
X0011647Y0151277D02*
X0015321Y0151277D01*
X0015321Y0152275D02*
X0011647Y0152275D01*
X0011647Y0153274D02*
X0015321Y0153274D01*
X0015321Y0154272D02*
X0011647Y0154272D01*
X0011647Y0155271D02*
X0015321Y0155271D01*
X0015321Y0156269D02*
X0011647Y0156269D01*
X0011647Y0157268D02*
X0015321Y0157268D01*
X0015321Y0158266D02*
X0011647Y0158266D01*
X0011647Y0159265D02*
X0015321Y0159265D01*
X0015321Y0160263D02*
X0011647Y0160263D01*
X0011647Y0161262D02*
X0015321Y0161262D01*
X0015321Y0162260D02*
X0011647Y0162260D01*
X0011647Y0163259D02*
X0015321Y0163259D01*
X0015321Y0164257D02*
X0011647Y0164257D01*
X0011647Y0165256D02*
X0015321Y0165256D01*
X0015321Y0166254D02*
X0011647Y0166254D01*
X0011647Y0167253D02*
X0015321Y0167253D01*
X0015321Y0168251D02*
X0011647Y0168251D01*
X0011647Y0169250D02*
X0015321Y0169250D01*
X0015321Y0170248D02*
X0011647Y0170248D01*
X0011647Y0171247D02*
X0015321Y0171247D01*
X0015321Y0172245D02*
X0011647Y0172245D01*
X0011647Y0173244D02*
X0015321Y0173244D01*
X0015321Y0174242D02*
X0011647Y0174242D01*
X0011647Y0175241D02*
X0015321Y0175241D01*
X0015321Y0176239D02*
X0011647Y0176239D01*
X0011647Y0177238D02*
X0015321Y0177238D01*
X0015321Y0178237D02*
X0011647Y0178237D01*
X0011647Y0179235D02*
X0015321Y0179235D01*
X0015321Y0180234D02*
X0011647Y0180234D01*
X0011647Y0181232D02*
X0015321Y0181232D01*
X0015321Y0182231D02*
X0011647Y0182231D01*
X0011647Y0183229D02*
X0015321Y0183229D01*
X0015321Y0184228D02*
X0011647Y0184228D01*
X0011647Y0185226D02*
X0015321Y0185226D01*
X0015321Y0186225D02*
X0011647Y0186225D01*
X0011647Y0187223D02*
X0015321Y0187223D01*
X0015321Y0188222D02*
X0011647Y0188222D01*
X0011647Y0189220D02*
X0015321Y0189220D01*
X0015321Y0190219D02*
X0011647Y0190219D01*
X0011647Y0191217D02*
X0015321Y0191217D01*
X0015321Y0192216D02*
X0011647Y0192216D01*
X0011647Y0193214D02*
X0015321Y0193214D01*
X0015321Y0194213D02*
X0011647Y0194213D01*
X0011647Y0195211D02*
X0015321Y0195211D01*
X0015321Y0196210D02*
X0011647Y0196210D01*
X0011647Y0197208D02*
X0015321Y0197208D01*
X0015321Y0198207D02*
X0011647Y0198207D01*
X0011647Y0199205D02*
X0015321Y0199205D01*
X0015321Y0200204D02*
X0011647Y0200204D01*
X0011647Y0201202D02*
X0015321Y0201202D01*
X0015321Y0202201D02*
X0011647Y0202201D01*
X0011647Y0203199D02*
X0015321Y0203199D01*
X0015321Y0204198D02*
X0011647Y0204198D01*
X0011647Y0205196D02*
X0015321Y0205196D01*
X0015321Y0206195D02*
X0011647Y0206195D01*
X0011647Y0207193D02*
X0015321Y0207193D01*
X0015321Y0208192D02*
X0011647Y0208192D01*
X0011647Y0209190D02*
X0015321Y0209190D01*
X0015321Y0210189D02*
X0011647Y0210189D01*
X0011647Y0211187D02*
X0015321Y0211187D01*
X0015321Y0212186D02*
X0011647Y0212186D01*
X0011647Y0213184D02*
X0015321Y0213184D01*
X0015321Y0214183D02*
X0011647Y0214183D01*
X0011647Y0215181D02*
X0015321Y0215181D01*
X0015321Y0216180D02*
X0011647Y0216180D01*
X0011647Y0217178D02*
X0015321Y0217178D01*
X0015321Y0218177D02*
X0011647Y0218177D01*
X0011647Y0219175D02*
X0015321Y0219175D01*
X0015321Y0220174D02*
X0011647Y0220174D01*
X0011647Y0221172D02*
X0015321Y0221172D01*
X0015321Y0222171D02*
X0011647Y0222171D01*
X0011647Y0223170D02*
X0015321Y0223170D01*
X0015321Y0224168D02*
X0011647Y0224168D01*
X0011647Y0225167D02*
X0015321Y0225167D01*
X0015321Y0226165D02*
X0011647Y0226165D01*
X0011647Y0227164D02*
X0015321Y0227164D01*
X0015321Y0228162D02*
X0011647Y0228162D01*
X0011647Y0229161D02*
X0015321Y0229161D01*
X0015321Y0230159D02*
X0011647Y0230159D01*
X0011647Y0231158D02*
X0015321Y0231158D01*
X0015321Y0232156D02*
X0011647Y0232156D01*
X0011647Y0233155D02*
X0015321Y0233155D01*
X0015321Y0234153D02*
X0011647Y0234153D01*
X0011647Y0235152D02*
X0015321Y0235152D01*
X0015321Y0236150D02*
X0011647Y0236150D01*
X0011647Y0237149D02*
X0015321Y0237149D01*
X0015321Y0238147D02*
X0011647Y0238147D01*
X0011647Y0239146D02*
X0015321Y0239146D01*
X0015321Y0240144D02*
X0011647Y0240144D01*
X0011647Y0241143D02*
X0015321Y0241143D01*
X0015321Y0242141D02*
X0011647Y0242141D01*
X0011647Y0243140D02*
X0015321Y0243140D01*
X0015321Y0244138D02*
X0011647Y0244138D01*
X0011647Y0245137D02*
X0015321Y0245137D01*
X0015321Y0246135D02*
X0011647Y0246135D01*
X0011647Y0247134D02*
X0015321Y0247134D01*
X0015321Y0248132D02*
X0011647Y0248132D01*
X0008596Y0253125D02*
X0007748Y0253125D01*
X0007748Y0254123D02*
X0035900Y0254123D01*
X0035900Y0255122D02*
X0007748Y0255122D01*
X0007748Y0256120D02*
X0035900Y0256120D01*
X0035900Y0257119D02*
X0007748Y0257119D01*
X0007748Y0258117D02*
X0035900Y0258117D01*
X0035900Y0259116D02*
X0007748Y0259116D01*
X0007748Y0260114D02*
X0035900Y0260114D01*
X0035900Y0261113D02*
X0007748Y0261113D01*
X0007748Y0262111D02*
X0035900Y0262111D01*
X0035529Y0263110D02*
X0007748Y0263110D01*
X0007748Y0264108D02*
X0034934Y0264108D01*
X0034719Y0265107D02*
X0007748Y0265107D01*
X0007748Y0266105D02*
X0034791Y0266105D01*
X0035204Y0267104D02*
X0007748Y0267104D01*
X0007748Y0280085D02*
X0084125Y0280085D01*
X0084125Y0281083D02*
X0007748Y0281083D01*
X0007748Y0282082D02*
X0084125Y0282082D01*
X0084125Y0283080D02*
X0007748Y0283080D01*
X0007748Y0284079D02*
X0084125Y0284079D01*
X0084125Y0285077D02*
X0007748Y0285077D01*
X0007748Y0286076D02*
X0084125Y0286076D01*
X0084125Y0287074D02*
X0007748Y0287074D01*
X0007748Y0288073D02*
X0084125Y0288073D01*
X0084125Y0289071D02*
X0007748Y0289071D01*
X0007748Y0290070D02*
X0084548Y0290070D01*
X0085925Y0288902D02*
X0133169Y0288902D01*
X0130974Y0291068D02*
X0007748Y0291068D01*
X0072146Y0278088D02*
X0072146Y0278088D01*
X0072146Y0277089D02*
X0072146Y0277089D01*
X0085925Y0273154D02*
X0085925Y0288902D01*
X0107410Y0268103D02*
X0116241Y0268103D01*
X0115204Y0267104D02*
X0107410Y0267104D01*
X0107410Y0266105D02*
X0114791Y0266105D01*
X0114719Y0265107D02*
X0107410Y0265107D01*
X0107410Y0264108D02*
X0114934Y0264108D01*
X0115529Y0263110D02*
X0107410Y0263110D01*
X0107410Y0262111D02*
X0115900Y0262111D01*
X0115900Y0261113D02*
X0107410Y0261113D01*
X0107410Y0260114D02*
X0115900Y0260114D01*
X0115900Y0259116D02*
X0107410Y0259116D01*
X0107410Y0258117D02*
X0115900Y0258117D01*
X0115900Y0257119D02*
X0107410Y0257119D01*
X0106871Y0256120D02*
X0115900Y0256120D01*
X0115900Y0255122D02*
X0081520Y0255122D01*
X0081520Y0254123D02*
X0115900Y0254123D01*
X0087101Y0209190D02*
X0071076Y0209190D01*
X0069278Y0209190D02*
X0019521Y0209190D01*
X0019521Y0208192D02*
X0067783Y0208192D01*
X0067240Y0207193D02*
X0019521Y0207193D01*
X0019521Y0206195D02*
X0067093Y0206195D01*
X0067265Y0205196D02*
X0019521Y0205196D01*
X0019521Y0204198D02*
X0067842Y0204198D01*
X0072512Y0204198D02*
X0085665Y0204198D01*
X0085606Y0208192D02*
X0072572Y0208192D01*
X0053120Y0183229D02*
X0019521Y0183229D01*
X0019521Y0182231D02*
X0053120Y0182231D01*
X0053120Y0181232D02*
X0019521Y0181232D01*
X0019521Y0180234D02*
X0053120Y0180234D01*
X0053120Y0179235D02*
X0019521Y0179235D01*
X0019521Y0178237D02*
X0053120Y0178237D01*
X0053120Y0177238D02*
X0019521Y0177238D01*
X0019521Y0176239D02*
X0053120Y0176239D01*
X0053120Y0175241D02*
X0019521Y0175241D01*
X0019521Y0174242D02*
X0053120Y0174242D01*
X0053120Y0173244D02*
X0019521Y0173244D01*
X0019521Y0172245D02*
X0053120Y0172245D01*
X0053120Y0171247D02*
X0019521Y0171247D01*
X0019521Y0170248D02*
X0053120Y0170248D01*
X0053120Y0169250D02*
X0019521Y0169250D01*
X0019521Y0168251D02*
X0053120Y0168251D01*
X0053120Y0167253D02*
X0019521Y0167253D01*
X0019521Y0166254D02*
X0053120Y0166254D01*
X0053120Y0165256D02*
X0019521Y0165256D01*
X0019521Y0164257D02*
X0053120Y0164257D01*
X0053120Y0163259D02*
X0019521Y0163259D01*
X0019521Y0162260D02*
X0053120Y0162260D01*
X0053120Y0161262D02*
X0019521Y0161262D01*
X0019521Y0160263D02*
X0053120Y0160263D01*
X0053120Y0159265D02*
X0019521Y0159265D01*
X0019521Y0158266D02*
X0053120Y0158266D01*
X0053120Y0157268D02*
X0019521Y0157268D01*
X0019521Y0156269D02*
X0053120Y0156269D01*
X0053120Y0155271D02*
X0019521Y0155271D01*
X0019521Y0154272D02*
X0053120Y0154272D01*
X0053120Y0153274D02*
X0019521Y0153274D01*
X0019521Y0152275D02*
X0053120Y0152275D01*
X0053120Y0151277D02*
X0019521Y0151277D01*
X0019521Y0150278D02*
X0053120Y0150278D01*
X0053120Y0149280D02*
X0019521Y0149280D01*
X0020887Y0148281D02*
X0053120Y0148281D01*
X0053120Y0147283D02*
X0020887Y0147283D01*
X0020887Y0146284D02*
X0053120Y0146284D01*
X0053120Y0145286D02*
X0020887Y0145286D01*
X0020887Y0144287D02*
X0053120Y0144287D01*
X0053120Y0143289D02*
X0020887Y0143289D01*
X0020887Y0142290D02*
X0053120Y0142290D01*
X0053120Y0141292D02*
X0020272Y0141292D01*
X0029717Y0137298D02*
X0030716Y0137298D01*
X0030716Y0136299D02*
X0029717Y0136299D01*
X0029717Y0135301D02*
X0030716Y0135301D01*
X0030716Y0134302D02*
X0029717Y0134302D01*
X0029717Y0131306D02*
X0030716Y0131306D01*
X0030716Y0130308D02*
X0029717Y0130308D01*
X0029717Y0129309D02*
X0030716Y0129309D01*
X0026870Y0125114D02*
X0026870Y0125114D01*
X0023257Y0124396D02*
X0023257Y0124396D01*
X0036181Y0116329D02*
X0066627Y0116329D01*
X0065629Y0115330D02*
X0036243Y0115330D01*
X0036044Y0114332D02*
X0064630Y0114332D01*
X0063632Y0113333D02*
X0035846Y0113333D01*
X0035647Y0112335D02*
X0062633Y0112335D01*
X0061838Y0111336D02*
X0035109Y0111336D01*
X0034441Y0110338D02*
X0061963Y0110338D01*
X0062962Y0109339D02*
X0033774Y0109339D01*
X0032563Y0108341D02*
X0063960Y0108341D01*
X0064959Y0107342D02*
X0031069Y0107342D01*
X0030483Y0106951D02*
X0030483Y0106951D01*
X0019404Y0094362D02*
X0044660Y0094362D01*
X0043662Y0093363D02*
X0019400Y0093363D01*
X0019396Y0092365D02*
X0042663Y0092365D01*
X0041664Y0091366D02*
X0019392Y0091366D01*
X0019387Y0090368D02*
X0028114Y0090368D01*
X0027116Y0089369D02*
X0019383Y0089369D01*
X0019379Y0088370D02*
X0026117Y0088370D01*
X0026623Y0088370D02*
X0028037Y0088370D01*
X0027622Y0087372D02*
X0029036Y0087372D01*
X0028620Y0086373D02*
X0029849Y0086373D01*
X0030034Y0086373D02*
X0031264Y0086373D01*
X0030649Y0085759D02*
X0033166Y0088275D01*
X0035109Y0086332D01*
X0035307Y0085990D01*
X0035409Y0085608D01*
X0035409Y0085213D01*
X0035307Y0084832D01*
X0035109Y0084490D01*
X0033514Y0082894D01*
X0030649Y0085759D01*
X0030265Y0085375D02*
X0031033Y0085375D01*
X0030617Y0084376D02*
X0032031Y0084376D01*
X0031616Y0083378D02*
X0033030Y0083378D01*
X0033997Y0083378D02*
X0081983Y0083378D01*
X0080985Y0084376D02*
X0045590Y0084376D01*
X0046588Y0085375D02*
X0079986Y0085375D01*
X0079793Y0086373D02*
X0047587Y0086373D01*
X0048585Y0087372D02*
X0080520Y0087372D01*
X0081518Y0088370D02*
X0049584Y0088370D01*
X0050240Y0089369D02*
X0082517Y0089369D01*
X0083515Y0090368D02*
X0049977Y0090368D01*
X0043661Y0084376D02*
X0034996Y0084376D01*
X0035409Y0085375D02*
X0042663Y0085375D01*
X0041664Y0086373D02*
X0035068Y0086373D01*
X0034069Y0087372D02*
X0040665Y0087372D01*
X0039706Y0088370D02*
X0031846Y0088370D01*
X0032072Y0089369D02*
X0039706Y0089369D01*
X0040666Y0090368D02*
X0031074Y0090368D01*
X0030848Y0087372D02*
X0032262Y0087372D01*
X0029619Y0085375D02*
X0028851Y0085375D01*
X0029267Y0084376D02*
X0027852Y0084376D01*
X0028268Y0083378D02*
X0026854Y0083378D01*
X0026582Y0083378D02*
X0019358Y0083378D01*
X0019362Y0084376D02*
X0025584Y0084376D01*
X0024665Y0085375D02*
X0019366Y0085375D01*
X0019370Y0086373D02*
X0024493Y0086373D01*
X0025119Y0087372D02*
X0019375Y0087372D01*
X0015575Y0087372D02*
X0007748Y0087372D01*
X0007748Y0088370D02*
X0015579Y0088370D01*
X0015583Y0089369D02*
X0007748Y0089369D01*
X0007748Y0090368D02*
X0015587Y0090368D01*
X0015591Y0091366D02*
X0007748Y0091366D01*
X0007748Y0092365D02*
X0015596Y0092365D01*
X0015600Y0093363D02*
X0007748Y0093363D01*
X0007748Y0094362D02*
X0015604Y0094362D01*
X0015608Y0095360D02*
X0007748Y0095360D01*
X0007748Y0096359D02*
X0015613Y0096359D01*
X0015798Y0097357D02*
X0007748Y0097357D01*
X0007748Y0086373D02*
X0015570Y0086373D01*
X0015566Y0085375D02*
X0007748Y0085375D01*
X0007748Y0084376D02*
X0015562Y0084376D01*
X0015558Y0083378D02*
X0007748Y0083378D01*
X0007748Y0082379D02*
X0015553Y0082379D01*
X0015549Y0081381D02*
X0007748Y0081381D01*
X0007748Y0080382D02*
X0015545Y0080382D01*
X0015541Y0079384D02*
X0007748Y0079384D01*
X0007748Y0078385D02*
X0015536Y0078385D01*
X0015416Y0077387D02*
X0007748Y0077387D01*
X0007748Y0076388D02*
X0014418Y0076388D01*
X0013419Y0075390D02*
X0007748Y0075390D01*
X0007748Y0074391D02*
X0012421Y0074391D01*
X0012147Y0073393D02*
X0007748Y0073393D01*
X0007748Y0072394D02*
X0012794Y0072394D01*
X0013792Y0071396D02*
X0007748Y0071396D01*
X0007748Y0070397D02*
X0014791Y0070397D01*
X0015789Y0069399D02*
X0007748Y0069399D01*
X0007748Y0068400D02*
X0016788Y0068400D01*
X0018737Y0068400D02*
X0050694Y0068400D01*
X0049695Y0067402D02*
X0007748Y0067402D01*
X0007748Y0066403D02*
X0048697Y0066403D01*
X0047698Y0065405D02*
X0007748Y0065405D01*
X0007748Y0064406D02*
X0046807Y0064406D01*
X0046835Y0063408D02*
X0007748Y0063408D01*
X0007748Y0062409D02*
X0047834Y0062409D01*
X0048832Y0061411D02*
X0007748Y0061411D01*
X0007748Y0060412D02*
X0049831Y0060412D01*
X0050830Y0059414D02*
X0007748Y0059414D01*
X0019735Y0069399D02*
X0070908Y0069399D01*
X0069909Y0070397D02*
X0020734Y0070397D01*
X0019349Y0081381D02*
X0028579Y0081381D01*
X0027581Y0082379D02*
X0019353Y0082379D01*
X0007748Y0042439D02*
X0043636Y0042439D01*
X0042637Y0041440D02*
X0007748Y0041440D01*
X0007748Y0040442D02*
X0041639Y0040442D01*
X0041861Y0040442D02*
X0043275Y0040442D01*
X0042859Y0039443D02*
X0044273Y0039443D01*
X0044092Y0036448D02*
X0042678Y0036448D01*
X0043094Y0035449D02*
X0041679Y0035449D01*
X0041124Y0035449D02*
X0007748Y0035449D01*
X0007748Y0034451D02*
X0042123Y0034451D01*
X0043121Y0033452D02*
X0007748Y0033452D01*
X0007748Y0036448D02*
X0040126Y0036448D01*
X0039518Y0037446D02*
X0007748Y0037446D01*
X0007748Y0038445D02*
X0039711Y0038445D01*
X0040640Y0039443D02*
X0007748Y0039443D01*
X0015383Y0025970D02*
X0015383Y0025970D01*
X0027994Y0019473D02*
X0161793Y0019473D01*
X0161430Y0018475D02*
X0028193Y0018475D01*
X0028392Y0017476D02*
X0161067Y0017476D01*
X0160734Y0016478D02*
X0028284Y0016478D01*
X0028085Y0015479D02*
X0161336Y0015479D01*
X0164079Y0014481D02*
X0027887Y0014481D01*
X0027616Y0013482D02*
X0166823Y0013482D01*
X0168773Y0013482D02*
X0180561Y0013482D01*
X0180198Y0012484D02*
X0026949Y0012484D01*
X0026282Y0011485D02*
X0179834Y0011485D01*
X0179471Y0010487D02*
X0025544Y0010487D01*
X0024049Y0009488D02*
X0179352Y0009488D01*
X0180540Y0008490D02*
X0022427Y0008490D01*
X0022609Y0008526D02*
X0022609Y0008526D01*
X0018996Y0007807D02*
X0018996Y0007807D01*
X0010897Y0006493D02*
X0186026Y0006493D01*
X0183283Y0007491D02*
X0009451Y0007491D01*
X0049125Y0036448D02*
X0099773Y0036448D01*
X0099773Y0037446D02*
X0050124Y0037446D01*
X0050440Y0038445D02*
X0099773Y0038445D01*
X0099773Y0039443D02*
X0050003Y0039443D01*
X0080913Y0094362D02*
X0099773Y0094362D01*
X0099773Y0095360D02*
X0081911Y0095360D01*
X0074312Y0128740D02*
X0070087Y0128740D01*
X0070087Y0132890D01*
X0070087Y0133890D01*
X0075614Y0133890D01*
X0075614Y0136737D01*
X0075512Y0137118D01*
X0075314Y0137460D01*
X0075035Y0137740D01*
X0074693Y0137937D01*
X0074312Y0138039D01*
X0070087Y0138039D01*
X0070087Y0133890D01*
X0069087Y0133890D01*
X0069087Y0138039D01*
X0064862Y0138039D01*
X0064480Y0137937D01*
X0064138Y0137740D01*
X0063859Y0137460D01*
X0063661Y0137118D01*
X0063559Y0136737D01*
X0063559Y0133890D01*
X0069087Y0133890D01*
X0069087Y0132890D01*
X0070087Y0132890D01*
X0075614Y0132890D01*
X0075614Y0130043D01*
X0075512Y0129661D01*
X0075314Y0129319D01*
X0075035Y0129040D01*
X0074693Y0128842D01*
X0074312Y0128740D01*
X0075305Y0129309D02*
X0088954Y0129309D01*
X0088562Y0130308D02*
X0075614Y0130308D01*
X0075614Y0131306D02*
X0088562Y0131306D01*
X0088562Y0132305D02*
X0075614Y0132305D01*
X0075614Y0134302D02*
X0088562Y0134302D01*
X0088562Y0133303D02*
X0070087Y0133303D01*
X0070087Y0132305D02*
X0069087Y0132305D01*
X0069087Y0132890D02*
X0069087Y0128740D01*
X0064862Y0128740D01*
X0064480Y0128842D01*
X0064138Y0129040D01*
X0063859Y0129319D01*
X0063661Y0129661D01*
X0063559Y0130043D01*
X0063559Y0132890D01*
X0069087Y0132890D01*
X0069087Y0133303D02*
X0060847Y0133303D01*
X0060847Y0132305D02*
X0063559Y0132305D01*
X0063559Y0131306D02*
X0060847Y0131306D01*
X0060847Y0130308D02*
X0063559Y0130308D01*
X0063868Y0129309D02*
X0060455Y0129309D01*
X0060847Y0134302D02*
X0063559Y0134302D01*
X0063559Y0135301D02*
X0060847Y0135301D01*
X0060847Y0136299D02*
X0063559Y0136299D01*
X0063765Y0137298D02*
X0060628Y0137298D01*
X0069087Y0137298D02*
X0070087Y0137298D01*
X0070087Y0136299D02*
X0069087Y0136299D01*
X0069087Y0135301D02*
X0070087Y0135301D01*
X0070087Y0134302D02*
X0069087Y0134302D01*
X0069087Y0131306D02*
X0070087Y0131306D01*
X0070087Y0130308D02*
X0069087Y0130308D01*
X0069087Y0129309D02*
X0070087Y0129309D01*
X0075614Y0135301D02*
X0088562Y0135301D01*
X0088562Y0136299D02*
X0075614Y0136299D01*
X0075408Y0137298D02*
X0088782Y0137298D01*
X0099998Y0137298D02*
X0103710Y0137298D01*
X0103710Y0136299D02*
X0100217Y0136299D01*
X0100217Y0135301D02*
X0103710Y0135301D01*
X0103710Y0134302D02*
X0100217Y0134302D01*
X0100217Y0133303D02*
X0103710Y0133303D01*
X0103710Y0132305D02*
X0100217Y0132305D01*
X0100217Y0131306D02*
X0103710Y0131306D01*
X0103710Y0130308D02*
X0100217Y0130308D01*
X0099825Y0129309D02*
X0103710Y0129309D01*
X0111447Y0165256D02*
X0111584Y0165256D01*
X0111584Y0166254D02*
X0111447Y0166254D01*
X0111447Y0167253D02*
X0111584Y0167253D01*
X0111584Y0168251D02*
X0111447Y0168251D01*
X0111447Y0169250D02*
X0111584Y0169250D01*
X0111584Y0170248D02*
X0111447Y0170248D01*
X0111447Y0171247D02*
X0111584Y0171247D01*
X0111447Y0172245D02*
X0112251Y0172245D01*
X0103710Y0177238D02*
X0096290Y0177238D01*
X0096290Y0178237D02*
X0103710Y0178237D01*
X0103710Y0179235D02*
X0096290Y0179235D01*
X0096290Y0180234D02*
X0104491Y0180234D01*
X0072146Y0236150D02*
X0072146Y0236150D01*
X0072146Y0237149D02*
X0072146Y0237149D01*
X0072146Y0238147D02*
X0072146Y0238147D01*
X0072146Y0239146D02*
X0072146Y0239146D01*
X0072146Y0240144D02*
X0072146Y0240144D01*
X0072146Y0241143D02*
X0072146Y0241143D01*
X0072146Y0242141D02*
X0072146Y0242141D01*
X0072146Y0243140D02*
X0072146Y0243140D01*
X0072146Y0244138D02*
X0072146Y0244138D01*
X0072146Y0244807D02*
X0072146Y0244807D01*
X0186751Y0095360D02*
X0193736Y0095360D01*
X0193349Y0094362D02*
X0186751Y0094362D01*
X0186751Y0093363D02*
X0192986Y0093363D01*
X0192623Y0092365D02*
X0186751Y0092365D01*
X0186751Y0091366D02*
X0192259Y0091366D01*
X0191896Y0090368D02*
X0186751Y0090368D01*
X0186751Y0089369D02*
X0191532Y0089369D01*
X0191206Y0088370D02*
X0186751Y0088370D01*
X0186751Y0087372D02*
X0191827Y0087372D01*
X0194570Y0086373D02*
X0186751Y0086373D01*
X0186751Y0085375D02*
X0197314Y0085375D01*
X0182951Y0080382D02*
X0139268Y0080382D01*
X0142011Y0079384D02*
X0182951Y0079384D01*
X0182951Y0078385D02*
X0144411Y0078385D01*
X0144732Y0077387D02*
X0182951Y0077387D01*
X0182951Y0076388D02*
X0144369Y0076388D01*
X0144005Y0075390D02*
X0182741Y0075390D01*
X0181782Y0074391D02*
X0143642Y0074391D01*
X0143279Y0073393D02*
X0154966Y0073393D01*
X0154603Y0072394D02*
X0142915Y0072394D01*
X0142552Y0071396D02*
X0154239Y0071396D01*
X0158472Y0073393D02*
X0181419Y0073393D01*
X0181055Y0072394D02*
X0161215Y0072394D01*
X0163028Y0071396D02*
X0180692Y0071396D01*
X0180328Y0070397D02*
X0163137Y0070397D01*
X0162773Y0069399D02*
X0179965Y0069399D01*
X0179601Y0068400D02*
X0162410Y0068400D01*
X0162046Y0067402D02*
X0179838Y0067402D01*
X0182002Y0066403D02*
X0161683Y0066403D01*
X0161320Y0065405D02*
X0184746Y0065405D01*
X0181288Y0015479D02*
X0169601Y0015479D01*
X0169237Y0014481D02*
X0180925Y0014481D01*
D18*
X0143012Y0044807D03*
X0062303Y0068429D03*
X0158000Y0178665D03*
X0172539Y0210161D03*
X0188000Y0170791D03*
X0207972Y0182602D03*
X0218000Y0170791D03*
X0228000Y0174728D03*
X0223130Y0186539D03*
X0267028Y0170791D03*
X0251280Y0265280D03*
X0247343Y0273154D03*
X0243406Y0277091D03*
X0239469Y0269217D03*
X0247343Y0296776D03*
X0263091Y0296776D03*
X0160728Y0277091D03*
X0148000Y0285752D03*
X0143012Y0279453D03*
X0138000Y0273154D03*
X0128000Y0276303D03*
X0133169Y0288902D03*
X0113484Y0282602D03*
X0156791Y0328272D03*
X0088000Y0206224D03*
X0070177Y0206224D03*
X0050492Y0218035D03*
D19*
X0038000Y0251106D02*
X0072146Y0251106D01*
X0118000Y0251106D01*
X0118000Y0265280D01*
X0072146Y0247957D02*
X0017421Y0247957D01*
X0017421Y0145201D01*
X0009547Y0145201D02*
X0009547Y0251106D01*
X0038000Y0251106D01*
X0038000Y0265280D01*
D20*
X0038000Y0265280D03*
X0118000Y0265280D03*
D21*
X0088000Y0206224D02*
X0070177Y0206224D01*
X0055020Y0186539D02*
X0223130Y0186539D01*
X0228000Y0174728D02*
X0109547Y0174728D01*
X0109547Y0105831D01*
X0072146Y0105831D01*
X0072146Y0096382D01*
X0017513Y0096382D01*
X0017414Y0073231D01*
X0057501Y0025509D02*
X0101673Y0025903D01*
X0101673Y0099925D01*
X0113484Y0099925D01*
X0113484Y0170791D01*
X0188000Y0170791D01*
X0184851Y0151106D02*
X0243406Y0151106D01*
X0243406Y0277091D01*
X0247343Y0273154D02*
X0247343Y0142002D01*
X0215320Y0142002D01*
X0218000Y0166854D02*
X0218000Y0170791D01*
X0218000Y0166854D02*
X0117421Y0166854D01*
X0117421Y0095988D01*
X0107192Y0095988D01*
X0107192Y0063627D01*
X0105610Y0111349D02*
X0067105Y0111349D01*
X0055020Y0133390D02*
X0055020Y0186539D01*
X0094390Y0182602D02*
X0207972Y0182602D01*
X0184851Y0151106D02*
X0184851Y0070102D01*
X0158229Y0127192D02*
X0158229Y0155043D01*
X0239469Y0155043D01*
X0239469Y0269217D01*
X0251280Y0265280D02*
X0251280Y0084912D01*
X0241941Y0084912D01*
X0158000Y0178665D02*
X0105610Y0178665D01*
X0105610Y0111349D01*
X0094390Y0133390D02*
X0094390Y0182602D01*
D22*
X0247343Y0296776D02*
X0263091Y0296776D01*
M02*
