G75*
%MOIN*%
%OFA0B0*%
%FSLAX25Y25*%
%IPPOS*%
%LPD*%
%AMOC8*
5,1,8,0,0,1.08239X$1,22.5*
%
%ADD10C,0.00000*%
%ADD11R,0.03662X0.00333*%
%ADD12R,0.03661X0.00333*%
%ADD13R,0.05659X0.00333*%
%ADD14R,0.05659X0.00333*%
%ADD15R,0.06990X0.00333*%
%ADD16R,0.06991X0.00333*%
%ADD17R,0.07989X0.00333*%
%ADD18R,0.09320X0.00333*%
%ADD19R,0.10319X0.00333*%
%ADD20R,0.11318X0.00333*%
%ADD21R,0.11650X0.00333*%
%ADD22R,0.12317X0.00333*%
%ADD23R,0.12316X0.00333*%
%ADD24R,0.13315X0.00333*%
%ADD25R,0.13981X0.00333*%
%ADD26R,0.14313X0.00333*%
%ADD27R,0.14980X0.00333*%
%ADD28R,0.14979X0.00333*%
%ADD29R,0.16311X0.00333*%
%ADD30R,0.15978X0.00333*%
%ADD31R,0.16976X0.00333*%
%ADD32R,0.16644X0.00333*%
%ADD33R,0.17642X0.00333*%
%ADD34R,0.17975X0.00333*%
%ADD35R,0.18641X0.00333*%
%ADD36R,0.19307X0.00333*%
%ADD37R,0.19640X0.00333*%
%ADD38R,0.20305X0.00333*%
%ADD39R,0.20306X0.00333*%
%ADD40R,0.21304X0.00333*%
%ADD41R,0.22303X0.00333*%
%ADD42R,0.21970X0.00333*%
%ADD43R,0.22969X0.00333*%
%ADD44R,0.23967X0.00333*%
%ADD45R,0.24633X0.00333*%
%ADD46R,0.24965X0.00333*%
%ADD47R,0.25631X0.00333*%
%ADD48R,0.25631X0.00333*%
%ADD49R,0.26297X0.00333*%
%ADD50R,0.26297X0.00333*%
%ADD51R,0.27628X0.00333*%
%ADD52R,0.27296X0.00333*%
%ADD53R,0.28294X0.00333*%
%ADD54R,0.27961X0.00333*%
%ADD55R,0.29293X0.00333*%
%ADD56R,0.28960X0.00333*%
%ADD57R,0.29959X0.00333*%
%ADD58R,0.30624X0.00333*%
%ADD59R,0.30957X0.00333*%
%ADD60R,0.31623X0.00333*%
%ADD61R,0.31623X0.00333*%
%ADD62R,0.32289X0.00333*%
%ADD63R,0.32622X0.00333*%
%ADD64R,0.33620X0.00333*%
%ADD65R,0.33287X0.00333*%
%ADD66R,0.34286X0.00333*%
%ADD67R,0.35285X0.00333*%
%ADD68R,0.34952X0.00333*%
%ADD69R,0.35950X0.00333*%
%ADD70R,0.36283X0.00333*%
%ADD71R,0.36949X0.00333*%
%ADD72R,0.36949X0.00333*%
%ADD73R,0.37615X0.00333*%
%ADD74R,0.37948X0.00333*%
%ADD75R,0.38613X0.00333*%
%ADD76R,0.39612X0.00333*%
%ADD77R,0.39279X0.00333*%
%ADD78R,0.40611X0.00333*%
%ADD79R,0.40278X0.00333*%
%ADD80R,0.41276X0.00333*%
%ADD81R,0.41942X0.00333*%
%ADD82R,0.42275X0.00333*%
%ADD83R,0.42941X0.00333*%
%ADD84R,0.42941X0.00333*%
%ADD85R,0.43606X0.00333*%
%ADD86R,0.43939X0.00333*%
%ADD87R,0.44605X0.00333*%
%ADD88R,0.38281X0.00333*%
%ADD89R,0.05326X0.00333*%
%ADD90R,0.45604X0.00333*%
%ADD91R,0.38946X0.00333*%
%ADD92R,0.05659X0.00333*%
%ADD93R,0.05659X0.00333*%
%ADD94R,0.40611X0.00333*%
%ADD95R,0.39612X0.00333*%
%ADD96R,0.40943X0.00333*%
%ADD97R,0.41609X0.00333*%
%ADD98R,0.38280X0.00333*%
%ADD99R,0.03329X0.00333*%
%ADD100R,0.00666X0.00333*%
%ADD101R,0.01997X0.00333*%
%ADD102R,0.05326X0.00333*%
%ADD103R,0.40278X0.00333*%
%ADD104R,0.38613X0.00333*%
%ADD105R,0.02330X0.00333*%
%ADD106R,0.05659X0.00333*%
%ADD107R,0.00998X0.00333*%
%ADD108R,0.40278X0.00333*%
%ADD109R,0.01331X0.00333*%
%ADD110R,0.01664X0.00333*%
%ADD111R,0.00999X0.00333*%
%ADD112R,0.02330X0.00333*%
%ADD113R,0.00333X0.00333*%
%ADD114R,0.03994X0.00333*%
%ADD115R,0.42608X0.00333*%
%ADD116R,0.05326X0.00333*%
%ADD117R,0.04993X0.00333*%
%ADD118R,0.43607X0.00333*%
%ADD119R,0.02330X0.00333*%
%ADD120R,0.05992X0.00333*%
%ADD121R,0.51928X0.00333*%
%ADD122R,0.45271X0.00333*%
%ADD123R,0.52927X0.00333*%
%ADD124R,0.46269X0.00333*%
%ADD125R,0.53593X0.00333*%
%ADD126R,0.47268X0.00333*%
%ADD127R,0.54591X0.00333*%
%ADD128R,0.47934X0.00333*%
%ADD129R,0.06325X0.00333*%
%ADD130R,0.55257X0.00333*%
%ADD131R,0.48932X0.00333*%
%ADD132R,0.07323X0.00333*%
%ADD133R,0.05992X0.00333*%
%ADD134R,0.56589X0.00333*%
%ADD135R,0.49598X0.00333*%
%ADD136R,0.04993X0.00333*%
%ADD137R,0.63912X0.00333*%
%ADD138R,0.50597X0.00333*%
%ADD139R,0.04660X0.00333*%
%ADD140R,0.64910X0.00333*%
%ADD141R,0.51263X0.00333*%
%ADD142R,0.04328X0.00333*%
%ADD143R,0.59584X0.00333*%
%ADD144R,0.56921X0.00333*%
%ADD145R,0.59917X0.00333*%
%ADD146R,0.60583X0.00333*%
%ADD147R,0.56256X0.00333*%
%ADD148R,0.00998X0.00333*%
%ADD149R,0.60583X0.00333*%
%ADD150R,0.56589X0.00333*%
%ADD151R,0.02330X0.00333*%
%ADD152R,0.57920X0.00333*%
%ADD153R,0.57254X0.00333*%
%ADD154R,0.06324X0.00333*%
%ADD155R,0.57587X0.00333*%
%ADD156R,0.57587X0.00333*%
%ADD157R,0.06657X0.00333*%
%ADD158R,0.58253X0.00333*%
%ADD159R,0.00333X0.00333*%
%ADD160R,0.58253X0.00333*%
%ADD161R,0.07656X0.00333*%
%ADD162R,0.00999X0.00333*%
%ADD163R,0.57920X0.00333*%
%ADD164R,0.03329X0.00333*%
%ADD165R,0.01664X0.00333*%
%ADD166R,0.05659X0.00333*%
%ADD167R,0.58586X0.00333*%
%ADD168R,0.02996X0.00333*%
%ADD169R,0.58919X0.00333*%
%ADD170R,0.59252X0.00333*%
%ADD171R,0.01665X0.00333*%
%ADD172R,0.00999X0.00333*%
%ADD173R,0.59585X0.00333*%
%ADD174R,0.59252X0.00333*%
%ADD175R,0.07656X0.00333*%
%ADD176R,0.59585X0.00333*%
%ADD177R,0.08322X0.00333*%
%ADD178R,0.09320X0.00333*%
%ADD179R,0.09986X0.00333*%
%ADD180R,0.09653X0.00333*%
%ADD181R,0.10985X0.00333*%
%ADD182R,0.11983X0.00333*%
%ADD183R,0.60250X0.00333*%
%ADD184R,0.60250X0.00333*%
%ADD185R,0.12982X0.00333*%
%ADD186R,0.11318X0.00333*%
%ADD187R,0.61249X0.00333*%
%ADD188R,0.73232X0.00333*%
%ADD189R,0.73232X0.00333*%
%ADD190R,0.73565X0.00333*%
%ADD191R,0.73565X0.00333*%
%ADD192R,0.73565X0.00333*%
%ADD193R,0.73232X0.00333*%
%ADD194R,0.73565X0.00333*%
%ADD195R,0.73565X0.00333*%
%ADD196R,0.72900X0.00333*%
%ADD197R,0.72899X0.00333*%
%ADD198R,0.72900X0.00333*%
%ADD199R,0.72899X0.00333*%
%ADD200R,0.72567X0.00333*%
%ADD201R,0.72234X0.00333*%
%ADD202R,0.71901X0.00333*%
%ADD203R,0.71568X0.00333*%
%ADD204R,0.71568X0.00333*%
%ADD205R,0.71235X0.00333*%
%ADD206R,0.70902X0.00333*%
%ADD207R,0.70902X0.00333*%
%ADD208R,0.70902X0.00333*%
%ADD209R,0.70902X0.00333*%
%ADD210R,0.70237X0.00333*%
%ADD211R,0.70236X0.00333*%
%ADD212R,0.69904X0.00333*%
%ADD213R,0.69571X0.00333*%
%ADD214R,0.69238X0.00333*%
%ADD215R,0.68905X0.00333*%
%ADD216R,0.68239X0.00333*%
%ADD217R,0.68572X0.00333*%
%ADD218R,0.67906X0.00333*%
%ADD219R,0.67574X0.00333*%
%ADD220R,0.67241X0.00333*%
%ADD221R,0.66575X0.00333*%
%ADD222R,0.66242X0.00333*%
%ADD223R,0.65576X0.00333*%
%ADD224R,0.65576X0.00333*%
%ADD225R,0.64911X0.00333*%
%ADD226R,0.64578X0.00333*%
%ADD227R,0.62913X0.00333*%
%ADD228R,0.63246X0.00333*%
%ADD229R,0.61915X0.00333*%
%ADD230R,0.62247X0.00333*%
%ADD231R,0.61249X0.00333*%
%ADD232R,0.58919X0.00333*%
%ADD233R,0.56922X0.00333*%
%ADD234R,0.55923X0.00333*%
%ADD235R,0.56256X0.00333*%
%ADD236R,0.54924X0.00333*%
%ADD237R,0.54259X0.00333*%
%ADD238R,0.54258X0.00333*%
%ADD239R,0.53260X0.00333*%
%ADD240R,0.52594X0.00333*%
%ADD241R,0.51595X0.00333*%
%ADD242R,0.50930X0.00333*%
%ADD243R,0.49931X0.00333*%
%ADD244R,0.50264X0.00333*%
%ADD245R,0.48933X0.00333*%
%ADD246R,0.48267X0.00333*%
%ADD247R,0.48267X0.00333*%
%ADD248R,0.47601X0.00333*%
%ADD249R,0.46602X0.00333*%
%ADD250R,0.44605X0.00333*%
%ADD251R,0.44938X0.00333*%
%ADD252R,0.43939X0.00333*%
%ADD253R,0.37615X0.00333*%
%ADD254R,0.37948X0.00333*%
%ADD255R,0.10319X0.00333*%
%ADD256R,0.35285X0.00333*%
%ADD257R,0.34619X0.00333*%
%ADD258R,0.13315X0.00333*%
%ADD259R,0.32622X0.00333*%
%ADD260R,0.14313X0.00333*%
%ADD261R,0.31623X0.00333*%
%ADD262R,0.31956X0.00333*%
%ADD263R,0.16311X0.00333*%
%ADD264R,0.16644X0.00333*%
%ADD265R,0.16977X0.00333*%
%ADD266R,0.29293X0.00333*%
%ADD267R,0.28960X0.00333*%
%ADD268R,0.17643X0.00333*%
%ADD269R,0.28294X0.00333*%
%ADD270R,0.19640X0.00333*%
%ADD271R,0.19307X0.00333*%
%ADD272R,0.26630X0.00333*%
%ADD273R,0.25631X0.00333*%
%ADD274R,0.25298X0.00333*%
%ADD275R,0.22302X0.00333*%
%ADD276R,0.22969X0.00333*%
%ADD277R,0.22968X0.00333*%
%ADD278R,0.20638X0.00333*%
%ADD279R,0.26297X0.00333*%
%ADD280R,0.19640X0.00333*%
%ADD281R,0.19307X0.00333*%
%ADD282R,0.27296X0.00333*%
%ADD283R,0.27629X0.00333*%
%ADD284R,0.16976X0.00333*%
%ADD285R,0.15312X0.00333*%
%ADD286R,0.32289X0.00333*%
%ADD287R,0.33620X0.00333*%
%ADD288R,0.34286X0.00333*%
%ADD289R,0.10652X0.00333*%
%ADD290R,0.08322X0.00333*%
%ADD291R,0.38613X0.00333*%
%ADD292R,0.39279X0.00333*%
%ADD293R,0.43607X0.00333*%
%ADD294R,0.45604X0.00333*%
%ADD295R,0.42941X0.00333*%
%ADD296R,0.40944X0.00333*%
%ADD297R,0.02663X0.00333*%
%ADD298R,0.04993X0.00333*%
%ADD299R,0.04327X0.00333*%
%ADD300R,0.52927X0.00333*%
%ADD301R,0.10985X0.00333*%
%ADD302R,0.53593X0.00333*%
%ADD303R,0.49265X0.00333*%
%ADD304R,0.05992X0.00333*%
%ADD305R,0.56589X0.00333*%
%ADD306R,0.57254X0.00333*%
%ADD307R,0.65576X0.00333*%
%ADD308R,0.61582X0.00333*%
%ADD309R,0.62580X0.00333*%
%ADD310R,0.63579X0.00333*%
%ADD311R,0.01331X0.00333*%
%ADD312R,0.59585X0.00333*%
%ADD313R,0.58586X0.00333*%
%ADD314R,0.12649X0.00333*%
%ADD315R,0.73565X0.00333*%
%ADD316R,0.72233X0.00333*%
%ADD317R,0.70902X0.00333*%
%ADD318R,0.68905X0.00333*%
%ADD319R,0.68572X0.00333*%
%ADD320R,0.68239X0.00333*%
%ADD321R,0.65576X0.00333*%
%ADD322R,0.62913X0.00333*%
%ADD323R,0.61915X0.00333*%
%ADD324R,0.56922X0.00333*%
%ADD325R,0.50597X0.00333*%
%ADD326R,0.50264X0.00333*%
%ADD327R,0.47601X0.00333*%
%ADD328R,0.44938X0.00333*%
%ADD329R,0.42275X0.00333*%
%ADD330R,0.37615X0.00333*%
%ADD331R,0.31623X0.00333*%
%ADD332R,0.30957X0.00333*%
%ADD333R,0.25631X0.00333*%
%ADD334R,0.25631X0.00333*%
%ADD335R,0.24633X0.00333*%
%ADD336R,0.19639X0.00333*%
%ADD337R,0.14314X0.00333*%
%ADD338R,0.11651X0.00333*%
%ADD339R,0.09654X0.00333*%
%ADD340R,1.08517X0.00333*%
%ADD341R,0.00333X0.00333*%
%ADD342R,0.01331X0.00333*%
%ADD343R,0.00666X0.00333*%
%ADD344R,0.00333X0.00333*%
%ADD345R,0.02996X0.00333*%
%ADD346R,0.00333X0.00333*%
%ADD347R,0.00666X0.00333*%
%ADD348R,0.02663X0.00333*%
%ADD349R,0.00998X0.00333*%
%ADD350R,0.01665X0.00333*%
%ADD351R,0.00333X0.00333*%
%ADD352R,1.13177X0.00333*%
%ADD353R,0.64578X0.00333*%
%ADD354R,0.42608X0.00333*%
%ADD355R,1.12511X0.00333*%
%ADD356R,1.11846X0.00333*%
%ADD357R,1.11180X0.00333*%
%ADD358R,1.10514X0.00333*%
%ADD359R,1.09183X0.00333*%
%ADD360R,0.02996X0.00333*%
%ADD361R,0.04660X0.00333*%
%ADD362R,0.02996X0.00333*%
%ADD363R,0.22302X0.00333*%
%ADD364R,0.31956X0.00333*%
%ADD365R,0.01997X0.00333*%
%ADD366R,0.07656X0.00333*%
%ADD367R,0.08987X0.00333*%
%ADD368R,0.06657X0.00333*%
%ADD369R,0.07323X0.00333*%
%ADD370R,0.07656X0.00333*%
%ADD371R,0.01664X0.00333*%
%ADD372R,0.03329X0.00333*%
%ADD373R,0.01665X0.00333*%
%ADD374R,0.09653X0.00333*%
%ADD375R,0.03661X0.00333*%
%ADD376R,0.03661X0.00333*%
%ADD377R,0.02663X0.00333*%
%ADD378R,0.02330X0.00333*%
%ADD379R,0.08322X0.00333*%
%ADD380R,0.01997X0.00333*%
%ADD381R,0.04327X0.00333*%
%ADD382R,0.02330X0.00333*%
%ADD383R,0.04993X0.00333*%
%ADD384R,0.03994X0.00333*%
%ADD385R,0.04993X0.00333*%
%ADD386R,0.04327X0.00333*%
%ADD387R,0.04328X0.00333*%
%ADD388R,0.04660X0.00333*%
%ADD389R,0.02996X0.00333*%
%ADD390R,0.06325X0.00333*%
%ADD391R,0.04328X0.00333*%
%ADD392R,0.03994X0.00333*%
%ADD393R,0.06324X0.00333*%
%ADD394R,0.06990X0.00333*%
%ADD395R,0.06324X0.00333*%
%ADD396R,0.07323X0.00333*%
%ADD397R,0.03662X0.00333*%
%ADD398R,0.06325X0.00333*%
%ADD399R,0.06657X0.00333*%
%ADD400R,0.02996X0.00333*%
%ADD401R,0.07989X0.00333*%
%ADD402R,0.07656X0.00333*%
%ADD403R,0.09320X0.00333*%
%ADD404R,0.08655X0.00333*%
%ADD405R,0.03662X0.00333*%
%ADD406C,0.00039*%
%ADD407C,0.00500*%
%ADD408C,0.00400*%
%ADD409C,0.00700*%
%ADD410C,0.00394*%
%ADD411C,0.00800*%
%ADD412C,0.02756*%
%ADD413R,0.05512X0.02559*%
%ADD414R,0.00787X0.00787*%
D10*
X0003248Y0011343D02*
X0003248Y0342051D01*
X0003251Y0342289D01*
X0003259Y0342527D01*
X0003274Y0342764D01*
X0003294Y0343001D01*
X0003320Y0343237D01*
X0003351Y0343473D01*
X0003388Y0343708D01*
X0003431Y0343942D01*
X0003480Y0344175D01*
X0003534Y0344407D01*
X0003594Y0344637D01*
X0003659Y0344866D01*
X0003730Y0345093D01*
X0003806Y0345318D01*
X0003888Y0345541D01*
X0003975Y0345763D01*
X0004067Y0345982D01*
X0004165Y0346199D01*
X0004267Y0346413D01*
X0004375Y0346625D01*
X0004489Y0346835D01*
X0004607Y0347041D01*
X0004730Y0347245D01*
X0004858Y0347445D01*
X0004990Y0347642D01*
X0005128Y0347837D01*
X0005270Y0348027D01*
X0005417Y0348215D01*
X0005568Y0348398D01*
X0005723Y0348578D01*
X0005883Y0348754D01*
X0006047Y0348926D01*
X0006216Y0349095D01*
X0006388Y0349259D01*
X0006564Y0349419D01*
X0006744Y0349574D01*
X0006927Y0349725D01*
X0007115Y0349872D01*
X0007305Y0350014D01*
X0007500Y0350152D01*
X0007697Y0350284D01*
X0007897Y0350412D01*
X0008101Y0350535D01*
X0008307Y0350653D01*
X0008517Y0350767D01*
X0008729Y0350875D01*
X0008943Y0350977D01*
X0009160Y0351075D01*
X0009379Y0351167D01*
X0009601Y0351254D01*
X0009824Y0351336D01*
X0010049Y0351412D01*
X0010276Y0351483D01*
X0010505Y0351548D01*
X0010735Y0351608D01*
X0010967Y0351662D01*
X0011200Y0351711D01*
X0011434Y0351754D01*
X0011669Y0351791D01*
X0011905Y0351822D01*
X0012141Y0351848D01*
X0012378Y0351868D01*
X0012615Y0351883D01*
X0012853Y0351891D01*
X0013091Y0351894D01*
X0272933Y0351894D01*
X0273171Y0351891D01*
X0273409Y0351883D01*
X0273646Y0351868D01*
X0273883Y0351848D01*
X0274119Y0351822D01*
X0274355Y0351791D01*
X0274590Y0351754D01*
X0274824Y0351711D01*
X0275057Y0351662D01*
X0275289Y0351608D01*
X0275519Y0351548D01*
X0275748Y0351483D01*
X0275975Y0351412D01*
X0276200Y0351336D01*
X0276423Y0351254D01*
X0276645Y0351167D01*
X0276864Y0351075D01*
X0277081Y0350977D01*
X0277295Y0350875D01*
X0277507Y0350767D01*
X0277717Y0350653D01*
X0277923Y0350535D01*
X0278127Y0350412D01*
X0278327Y0350284D01*
X0278524Y0350152D01*
X0278719Y0350014D01*
X0278909Y0349872D01*
X0279097Y0349725D01*
X0279280Y0349574D01*
X0279460Y0349419D01*
X0279636Y0349259D01*
X0279808Y0349095D01*
X0279977Y0348926D01*
X0280141Y0348754D01*
X0280301Y0348578D01*
X0280456Y0348398D01*
X0280607Y0348215D01*
X0280754Y0348027D01*
X0280896Y0347837D01*
X0281034Y0347642D01*
X0281166Y0347445D01*
X0281294Y0347245D01*
X0281417Y0347041D01*
X0281535Y0346835D01*
X0281649Y0346625D01*
X0281757Y0346413D01*
X0281859Y0346199D01*
X0281957Y0345982D01*
X0282049Y0345763D01*
X0282136Y0345541D01*
X0282218Y0345318D01*
X0282294Y0345093D01*
X0282365Y0344866D01*
X0282430Y0344637D01*
X0282490Y0344407D01*
X0282544Y0344175D01*
X0282593Y0343942D01*
X0282636Y0343708D01*
X0282673Y0343473D01*
X0282704Y0343237D01*
X0282730Y0343001D01*
X0282750Y0342764D01*
X0282765Y0342527D01*
X0282773Y0342289D01*
X0282776Y0342051D01*
X0282776Y0011343D01*
X0282773Y0011105D01*
X0282765Y0010867D01*
X0282750Y0010630D01*
X0282730Y0010393D01*
X0282704Y0010157D01*
X0282673Y0009921D01*
X0282636Y0009686D01*
X0282593Y0009452D01*
X0282544Y0009219D01*
X0282490Y0008987D01*
X0282430Y0008757D01*
X0282365Y0008528D01*
X0282294Y0008301D01*
X0282218Y0008076D01*
X0282136Y0007853D01*
X0282049Y0007631D01*
X0281957Y0007412D01*
X0281859Y0007195D01*
X0281757Y0006981D01*
X0281649Y0006769D01*
X0281535Y0006559D01*
X0281417Y0006353D01*
X0281294Y0006149D01*
X0281166Y0005949D01*
X0281034Y0005752D01*
X0280896Y0005557D01*
X0280754Y0005367D01*
X0280607Y0005179D01*
X0280456Y0004996D01*
X0280301Y0004816D01*
X0280141Y0004640D01*
X0279977Y0004468D01*
X0279808Y0004299D01*
X0279636Y0004135D01*
X0279460Y0003975D01*
X0279280Y0003820D01*
X0279097Y0003669D01*
X0278909Y0003522D01*
X0278719Y0003380D01*
X0278524Y0003242D01*
X0278327Y0003110D01*
X0278127Y0002982D01*
X0277923Y0002859D01*
X0277717Y0002741D01*
X0277507Y0002627D01*
X0277295Y0002519D01*
X0277081Y0002417D01*
X0276864Y0002319D01*
X0276645Y0002227D01*
X0276423Y0002140D01*
X0276200Y0002058D01*
X0275975Y0001982D01*
X0275748Y0001911D01*
X0275519Y0001846D01*
X0275289Y0001786D01*
X0275057Y0001732D01*
X0274824Y0001683D01*
X0274590Y0001640D01*
X0274355Y0001603D01*
X0274119Y0001572D01*
X0273883Y0001546D01*
X0273646Y0001526D01*
X0273409Y0001511D01*
X0273171Y0001503D01*
X0272933Y0001500D01*
X0013091Y0001500D01*
X0012853Y0001503D01*
X0012615Y0001511D01*
X0012378Y0001526D01*
X0012141Y0001546D01*
X0011905Y0001572D01*
X0011669Y0001603D01*
X0011434Y0001640D01*
X0011200Y0001683D01*
X0010967Y0001732D01*
X0010735Y0001786D01*
X0010505Y0001846D01*
X0010276Y0001911D01*
X0010049Y0001982D01*
X0009824Y0002058D01*
X0009601Y0002140D01*
X0009379Y0002227D01*
X0009160Y0002319D01*
X0008943Y0002417D01*
X0008729Y0002519D01*
X0008517Y0002627D01*
X0008307Y0002741D01*
X0008101Y0002859D01*
X0007897Y0002982D01*
X0007697Y0003110D01*
X0007500Y0003242D01*
X0007305Y0003380D01*
X0007115Y0003522D01*
X0006927Y0003669D01*
X0006744Y0003820D01*
X0006564Y0003975D01*
X0006388Y0004135D01*
X0006216Y0004299D01*
X0006047Y0004468D01*
X0005883Y0004640D01*
X0005723Y0004816D01*
X0005568Y0004996D01*
X0005417Y0005179D01*
X0005270Y0005367D01*
X0005128Y0005557D01*
X0004990Y0005752D01*
X0004858Y0005949D01*
X0004730Y0006149D01*
X0004607Y0006353D01*
X0004489Y0006559D01*
X0004375Y0006769D01*
X0004267Y0006981D01*
X0004165Y0007195D01*
X0004067Y0007412D01*
X0003975Y0007631D01*
X0003888Y0007853D01*
X0003806Y0008076D01*
X0003730Y0008301D01*
X0003659Y0008528D01*
X0003594Y0008757D01*
X0003534Y0008987D01*
X0003480Y0009219D01*
X0003431Y0009452D01*
X0003388Y0009686D01*
X0003351Y0009921D01*
X0003320Y0010157D01*
X0003294Y0010393D01*
X0003274Y0010630D01*
X0003259Y0010867D01*
X0003251Y0011105D01*
X0003248Y0011343D01*
X0271752Y0314492D02*
X0271754Y0314576D01*
X0271760Y0314659D01*
X0271770Y0314742D01*
X0271784Y0314825D01*
X0271801Y0314907D01*
X0271823Y0314988D01*
X0271848Y0315067D01*
X0271877Y0315146D01*
X0271910Y0315223D01*
X0271946Y0315298D01*
X0271986Y0315372D01*
X0272029Y0315444D01*
X0272076Y0315513D01*
X0272126Y0315580D01*
X0272179Y0315645D01*
X0272235Y0315707D01*
X0272293Y0315767D01*
X0272355Y0315824D01*
X0272419Y0315877D01*
X0272486Y0315928D01*
X0272555Y0315975D01*
X0272626Y0316020D01*
X0272699Y0316060D01*
X0272774Y0316097D01*
X0272851Y0316131D01*
X0272929Y0316161D01*
X0273008Y0316187D01*
X0273089Y0316210D01*
X0273171Y0316228D01*
X0273253Y0316243D01*
X0273336Y0316254D01*
X0273419Y0316261D01*
X0273503Y0316264D01*
X0273587Y0316263D01*
X0273670Y0316258D01*
X0273754Y0316249D01*
X0273836Y0316236D01*
X0273918Y0316220D01*
X0273999Y0316199D01*
X0274080Y0316175D01*
X0274158Y0316147D01*
X0274236Y0316115D01*
X0274312Y0316079D01*
X0274386Y0316040D01*
X0274458Y0315998D01*
X0274528Y0315952D01*
X0274596Y0315903D01*
X0274661Y0315851D01*
X0274724Y0315796D01*
X0274784Y0315738D01*
X0274842Y0315677D01*
X0274896Y0315613D01*
X0274948Y0315547D01*
X0274996Y0315479D01*
X0275041Y0315408D01*
X0275082Y0315335D01*
X0275121Y0315261D01*
X0275155Y0315185D01*
X0275186Y0315107D01*
X0275213Y0315028D01*
X0275237Y0314947D01*
X0275256Y0314866D01*
X0275272Y0314784D01*
X0275284Y0314701D01*
X0275292Y0314617D01*
X0275296Y0314534D01*
X0275296Y0314450D01*
X0275292Y0314367D01*
X0275284Y0314283D01*
X0275272Y0314200D01*
X0275256Y0314118D01*
X0275237Y0314037D01*
X0275213Y0313956D01*
X0275186Y0313877D01*
X0275155Y0313799D01*
X0275121Y0313723D01*
X0275082Y0313649D01*
X0275041Y0313576D01*
X0274996Y0313505D01*
X0274948Y0313437D01*
X0274896Y0313371D01*
X0274842Y0313307D01*
X0274784Y0313246D01*
X0274724Y0313188D01*
X0274661Y0313133D01*
X0274596Y0313081D01*
X0274528Y0313032D01*
X0274458Y0312986D01*
X0274386Y0312944D01*
X0274312Y0312905D01*
X0274236Y0312869D01*
X0274158Y0312837D01*
X0274080Y0312809D01*
X0273999Y0312785D01*
X0273918Y0312764D01*
X0273836Y0312748D01*
X0273754Y0312735D01*
X0273670Y0312726D01*
X0273587Y0312721D01*
X0273503Y0312720D01*
X0273419Y0312723D01*
X0273336Y0312730D01*
X0273253Y0312741D01*
X0273171Y0312756D01*
X0273089Y0312774D01*
X0273008Y0312797D01*
X0272929Y0312823D01*
X0272851Y0312853D01*
X0272774Y0312887D01*
X0272699Y0312924D01*
X0272626Y0312964D01*
X0272555Y0313009D01*
X0272486Y0313056D01*
X0272419Y0313107D01*
X0272355Y0313160D01*
X0272293Y0313217D01*
X0272235Y0313277D01*
X0272179Y0313339D01*
X0272126Y0313404D01*
X0272076Y0313471D01*
X0272029Y0313540D01*
X0271986Y0313612D01*
X0271946Y0313686D01*
X0271910Y0313761D01*
X0271877Y0313838D01*
X0271848Y0313917D01*
X0271823Y0313996D01*
X0271801Y0314077D01*
X0271784Y0314159D01*
X0271770Y0314242D01*
X0271760Y0314325D01*
X0271754Y0314408D01*
X0271752Y0314492D01*
X0271752Y0326303D02*
X0271754Y0326387D01*
X0271760Y0326470D01*
X0271770Y0326553D01*
X0271784Y0326636D01*
X0271801Y0326718D01*
X0271823Y0326799D01*
X0271848Y0326878D01*
X0271877Y0326957D01*
X0271910Y0327034D01*
X0271946Y0327109D01*
X0271986Y0327183D01*
X0272029Y0327255D01*
X0272076Y0327324D01*
X0272126Y0327391D01*
X0272179Y0327456D01*
X0272235Y0327518D01*
X0272293Y0327578D01*
X0272355Y0327635D01*
X0272419Y0327688D01*
X0272486Y0327739D01*
X0272555Y0327786D01*
X0272626Y0327831D01*
X0272699Y0327871D01*
X0272774Y0327908D01*
X0272851Y0327942D01*
X0272929Y0327972D01*
X0273008Y0327998D01*
X0273089Y0328021D01*
X0273171Y0328039D01*
X0273253Y0328054D01*
X0273336Y0328065D01*
X0273419Y0328072D01*
X0273503Y0328075D01*
X0273587Y0328074D01*
X0273670Y0328069D01*
X0273754Y0328060D01*
X0273836Y0328047D01*
X0273918Y0328031D01*
X0273999Y0328010D01*
X0274080Y0327986D01*
X0274158Y0327958D01*
X0274236Y0327926D01*
X0274312Y0327890D01*
X0274386Y0327851D01*
X0274458Y0327809D01*
X0274528Y0327763D01*
X0274596Y0327714D01*
X0274661Y0327662D01*
X0274724Y0327607D01*
X0274784Y0327549D01*
X0274842Y0327488D01*
X0274896Y0327424D01*
X0274948Y0327358D01*
X0274996Y0327290D01*
X0275041Y0327219D01*
X0275082Y0327146D01*
X0275121Y0327072D01*
X0275155Y0326996D01*
X0275186Y0326918D01*
X0275213Y0326839D01*
X0275237Y0326758D01*
X0275256Y0326677D01*
X0275272Y0326595D01*
X0275284Y0326512D01*
X0275292Y0326428D01*
X0275296Y0326345D01*
X0275296Y0326261D01*
X0275292Y0326178D01*
X0275284Y0326094D01*
X0275272Y0326011D01*
X0275256Y0325929D01*
X0275237Y0325848D01*
X0275213Y0325767D01*
X0275186Y0325688D01*
X0275155Y0325610D01*
X0275121Y0325534D01*
X0275082Y0325460D01*
X0275041Y0325387D01*
X0274996Y0325316D01*
X0274948Y0325248D01*
X0274896Y0325182D01*
X0274842Y0325118D01*
X0274784Y0325057D01*
X0274724Y0324999D01*
X0274661Y0324944D01*
X0274596Y0324892D01*
X0274528Y0324843D01*
X0274458Y0324797D01*
X0274386Y0324755D01*
X0274312Y0324716D01*
X0274236Y0324680D01*
X0274158Y0324648D01*
X0274080Y0324620D01*
X0273999Y0324596D01*
X0273918Y0324575D01*
X0273836Y0324559D01*
X0273754Y0324546D01*
X0273670Y0324537D01*
X0273587Y0324532D01*
X0273503Y0324531D01*
X0273419Y0324534D01*
X0273336Y0324541D01*
X0273253Y0324552D01*
X0273171Y0324567D01*
X0273089Y0324585D01*
X0273008Y0324608D01*
X0272929Y0324634D01*
X0272851Y0324664D01*
X0272774Y0324698D01*
X0272699Y0324735D01*
X0272626Y0324775D01*
X0272555Y0324820D01*
X0272486Y0324867D01*
X0272419Y0324918D01*
X0272355Y0324971D01*
X0272293Y0325028D01*
X0272235Y0325088D01*
X0272179Y0325150D01*
X0272126Y0325215D01*
X0272076Y0325282D01*
X0272029Y0325351D01*
X0271986Y0325423D01*
X0271946Y0325497D01*
X0271910Y0325572D01*
X0271877Y0325649D01*
X0271848Y0325728D01*
X0271823Y0325807D01*
X0271801Y0325888D01*
X0271784Y0325970D01*
X0271770Y0326053D01*
X0271760Y0326136D01*
X0271754Y0326219D01*
X0271752Y0326303D01*
D11*
X0193319Y0217202D03*
X0200642Y0204553D03*
X0213957Y0215871D03*
X0181336Y0206218D03*
X0171349Y0212875D03*
X0032874Y0211211D03*
X0075771Y0020141D03*
D12*
X0054800Y0074399D03*
X0169685Y0169601D03*
X0169685Y0169934D03*
X0174345Y0169934D03*
X0174345Y0169601D03*
X0174345Y0172597D03*
X0179006Y0177590D03*
X0179006Y0180586D03*
X0183666Y0180586D03*
X0183666Y0177590D03*
X0192986Y0177590D03*
X0192986Y0177923D03*
X0197646Y0163610D03*
X0197646Y0163277D03*
X0197646Y0162944D03*
X0211627Y0170600D03*
X0211627Y0170933D03*
X0220948Y0169601D03*
X0220948Y0172597D03*
X0225608Y0204553D03*
X0187660Y0202889D03*
X0187660Y0202556D03*
X0187660Y0206218D03*
X0187660Y0206550D03*
X0171017Y0212542D03*
X0171017Y0217868D03*
X0166356Y0217535D03*
X0164359Y0219533D03*
X0169685Y0179255D03*
X0179006Y0164608D03*
X0179006Y0161612D03*
X0230558Y0075051D03*
X0209254Y0021125D03*
D13*
X0175634Y0087700D03*
X0075771Y0020474D03*
X0063122Y0044108D03*
X0079476Y0287439D03*
X0098783Y0287439D03*
X0098783Y0286773D03*
X0099449Y0290102D03*
X0172015Y0288105D03*
D14*
X0147715Y0286107D03*
X0147715Y0291433D03*
X0099781Y0292099D03*
X0164359Y0218867D03*
X0242541Y0097020D03*
X0219906Y0040432D03*
X0209254Y0021458D03*
X0109392Y0086716D03*
D15*
X0088421Y0140641D03*
X0164692Y0217868D03*
X0173347Y0215538D03*
X0173347Y0215205D03*
X0181336Y0219200D03*
X0243540Y0100682D03*
X0222236Y0046757D03*
X0075771Y0020807D03*
D16*
X0054800Y0075065D03*
X0109392Y0086383D03*
X0175967Y0087367D03*
X0197270Y0141293D03*
X0230558Y0075717D03*
X0209254Y0021791D03*
X0181669Y0217868D03*
X0181669Y0218201D03*
D17*
X0191156Y0217868D03*
X0191156Y0217535D03*
X0088254Y0140308D03*
X0109225Y0086050D03*
X0054967Y0075398D03*
X0075938Y0021140D03*
X0209087Y0022124D03*
X0230391Y0076049D03*
D18*
X0209087Y0022457D03*
X0076271Y0021472D03*
D19*
X0076437Y0021805D03*
X0062456Y0050765D03*
X0176299Y0086368D03*
X0197603Y0140294D03*
X0230225Y0076715D03*
X0208921Y0022790D03*
X0271212Y0202223D03*
D20*
X0197770Y0139961D03*
X0239046Y0096022D03*
X0176466Y0086036D03*
X0076604Y0022138D03*
X0055632Y0076397D03*
D21*
X0042817Y0103692D03*
X0108726Y0085051D03*
X0208588Y0023122D03*
X0229892Y0077048D03*
D22*
X0197936Y0139628D03*
X0176632Y0085703D03*
X0087422Y0138977D03*
X0076770Y0022471D03*
D23*
X0055799Y0076730D03*
X0108393Y0084718D03*
X0208255Y0023455D03*
X0229559Y0077381D03*
D24*
X0208089Y0023788D03*
X0076937Y0022804D03*
X0055965Y0077062D03*
D25*
X0056298Y0077395D03*
X0077269Y0023137D03*
D26*
X0108060Y0084053D03*
X0177298Y0085037D03*
X0198602Y0138963D03*
X0207922Y0024121D03*
D27*
X0086756Y0137978D03*
X0077436Y0023470D03*
D28*
X0056465Y0077728D03*
X0107727Y0083720D03*
X0207590Y0024454D03*
X0228894Y0078380D03*
D29*
X0086423Y0137645D03*
X0077769Y0023803D03*
D30*
X0177797Y0084371D03*
X0199101Y0138297D03*
X0228727Y0078712D03*
X0207423Y0024787D03*
D31*
X0078102Y0024135D03*
D32*
X0207090Y0025120D03*
D33*
X0178297Y0083705D03*
X0199601Y0137631D03*
X0078434Y0024468D03*
D34*
X0106895Y0082721D03*
X0085924Y0136980D03*
X0206757Y0025453D03*
X0228061Y0079378D03*
D35*
X0227728Y0079711D03*
X0206424Y0025785D03*
X0178463Y0083373D03*
X0199767Y0137298D03*
X0106562Y0082388D03*
X0085591Y0136647D03*
X0057630Y0079060D03*
X0078601Y0024801D03*
D36*
X0078934Y0025134D03*
D37*
X0206258Y0026118D03*
D38*
X0085092Y0135981D03*
X0079100Y0025467D03*
D39*
X0058129Y0079725D03*
X0106063Y0081723D03*
X0205925Y0026451D03*
X0227229Y0080377D03*
D40*
X0227063Y0080710D03*
X0205759Y0026784D03*
X0179462Y0082374D03*
X0200766Y0136300D03*
X0105896Y0081390D03*
X0079600Y0025800D03*
X0058628Y0080058D03*
X0084926Y0135648D03*
D41*
X0084426Y0135315D03*
X0079766Y0026133D03*
X0179628Y0082041D03*
X0200932Y0135967D03*
D42*
X0226730Y0081043D03*
X0205426Y0027117D03*
X0210129Y0221530D03*
D43*
X0205259Y0027450D03*
X0080099Y0026466D03*
D44*
X0080265Y0026798D03*
X0059294Y0081057D03*
X0104898Y0080391D03*
X0083927Y0134650D03*
X0180128Y0081375D03*
X0204760Y0027783D03*
X0226064Y0081708D03*
X0201431Y0135301D03*
D45*
X0180460Y0081043D03*
X0104565Y0080058D03*
X0080598Y0027131D03*
X0059627Y0081390D03*
X0083594Y0134317D03*
D46*
X0204594Y0028116D03*
X0225898Y0082041D03*
D47*
X0080765Y0027464D03*
D48*
X0204261Y0028448D03*
D49*
X0083095Y0133651D03*
X0081097Y0027797D03*
D50*
X0104066Y0079393D03*
X0203928Y0028781D03*
X0225232Y0082707D03*
D51*
X0081430Y0028130D03*
D52*
X0103899Y0079060D03*
X0082928Y0133318D03*
X0181459Y0080044D03*
X0203762Y0029114D03*
X0202763Y0133970D03*
D53*
X0202929Y0133637D03*
X0181625Y0079711D03*
X0081763Y0028463D03*
X0082429Y0132985D03*
D54*
X0203429Y0029447D03*
X0224733Y0083373D03*
D55*
X0081930Y0028796D03*
D56*
X0203262Y0029780D03*
D57*
X0202763Y0030113D03*
X0182125Y0079045D03*
X0224067Y0084038D03*
X0203429Y0132971D03*
X0102901Y0078061D03*
X0082262Y0029129D03*
X0061292Y0083387D03*
X0081930Y0132320D03*
D58*
X0061624Y0083720D03*
X0082595Y0029461D03*
X0182457Y0078712D03*
X0203761Y0132638D03*
D59*
X0223900Y0084371D03*
X0202596Y0030446D03*
X0102734Y0077728D03*
D60*
X0082762Y0029794D03*
D61*
X0202264Y0030779D03*
D62*
X0083095Y0030127D03*
D63*
X0081264Y0131321D03*
X0202097Y0031111D03*
X0223401Y0085037D03*
X0204427Y0131972D03*
D64*
X0204594Y0131639D03*
X0183290Y0077714D03*
X0083428Y0030460D03*
D65*
X0101902Y0076730D03*
X0080931Y0130988D03*
X0201764Y0031444D03*
X0223068Y0085370D03*
D66*
X0222902Y0085703D03*
X0183623Y0077381D03*
X0201598Y0031777D03*
X0204927Y0131307D03*
X0083760Y0030793D03*
D67*
X0083927Y0031126D03*
D68*
X0201265Y0032110D03*
D69*
X0184122Y0076715D03*
X0205426Y0130641D03*
X0100904Y0075731D03*
X0063289Y0085717D03*
X0079932Y0129989D03*
X0084260Y0031459D03*
D70*
X0200932Y0032443D03*
X0222236Y0086368D03*
D71*
X0205592Y0130308D03*
X0184288Y0076382D03*
X0084426Y0031792D03*
X0079766Y0129657D03*
D72*
X0063455Y0086050D03*
X0100737Y0075398D03*
X0200599Y0032776D03*
X0221903Y0086701D03*
D73*
X0084759Y0032124D03*
D74*
X0200433Y0033109D03*
D75*
X0200100Y0033442D03*
X0185120Y0075717D03*
X0221404Y0087367D03*
X0206424Y0129642D03*
X0100238Y0074732D03*
X0084926Y0032457D03*
X0079267Y0128991D03*
D76*
X0085425Y0032790D03*
X0185287Y0075384D03*
X0189947Y0038435D03*
X0206591Y0129309D03*
D77*
X0199767Y0033774D03*
X0099905Y0074399D03*
X0078934Y0128658D03*
D78*
X0085591Y0033123D03*
D79*
X0073108Y0091376D03*
X0199601Y0034107D03*
D80*
X0199101Y0034440D03*
X0188449Y0039433D03*
X0185786Y0074718D03*
X0220405Y0088366D03*
X0207090Y0128644D03*
X0099239Y0073734D03*
X0085924Y0033456D03*
X0064953Y0087714D03*
X0078268Y0127992D03*
D81*
X0075938Y0093040D03*
X0065286Y0088047D03*
X0096909Y0038782D03*
X0086257Y0033789D03*
X0188116Y0039766D03*
X0186119Y0074385D03*
X0207423Y0128311D03*
D82*
X0220239Y0088699D03*
X0198935Y0034773D03*
X0099073Y0073401D03*
D83*
X0086423Y0034122D03*
X0077769Y0127326D03*
X0186286Y0074052D03*
X0212250Y0092693D03*
X0213581Y0092027D03*
X0214247Y0091695D03*
X0207590Y0127978D03*
D84*
X0209254Y0094025D03*
X0209920Y0093692D03*
X0210585Y0093359D03*
X0211251Y0093026D03*
X0219906Y0089032D03*
X0187950Y0040099D03*
X0198602Y0035106D03*
X0098740Y0073068D03*
X0065452Y0088380D03*
X0254901Y0191238D03*
D85*
X0097408Y0039448D03*
X0086756Y0034455D03*
D86*
X0198435Y0035439D03*
D87*
X0187451Y0040765D03*
X0208755Y0094690D03*
X0097908Y0039781D03*
X0086923Y0034787D03*
X0065952Y0089046D03*
X0076936Y0094039D03*
X0077269Y0126661D03*
D88*
X0194940Y0035772D03*
X0216244Y0089697D03*
D89*
X0239046Y0089697D03*
X0239379Y0090363D03*
X0239712Y0091029D03*
X0240378Y0092693D03*
X0240711Y0093359D03*
X0241043Y0094025D03*
X0241376Y0094690D03*
X0242708Y0097686D03*
X0243041Y0098352D03*
X0243374Y0099018D03*
X0245038Y0102679D03*
X0223734Y0048754D03*
X0221737Y0044426D03*
X0221404Y0043761D03*
X0220405Y0041431D03*
X0220072Y0040765D03*
X0219739Y0040099D03*
X0219407Y0039433D03*
X0219074Y0038767D03*
X0218408Y0037103D03*
X0218075Y0036437D03*
X0217742Y0035772D03*
X0230767Y0185912D03*
X0230767Y0190240D03*
X0240421Y0187909D03*
X0240421Y0187577D03*
X0182168Y0219533D03*
X0045979Y0090045D03*
X0045646Y0090710D03*
X0044981Y0092042D03*
X0044648Y0093040D03*
X0044315Y0093706D03*
X0043982Y0094372D03*
X0043649Y0095038D03*
X0043316Y0095703D03*
X0042318Y0098033D03*
X0041985Y0098699D03*
X0041652Y0099365D03*
X0041319Y0100031D03*
X0040986Y0100696D03*
X0040653Y0101362D03*
X0040320Y0102028D03*
X0039987Y0103027D03*
X0061291Y0047769D03*
X0061624Y0047104D03*
X0062290Y0045772D03*
X0062623Y0045107D03*
X0062956Y0044441D03*
X0063289Y0043775D03*
X0063622Y0042776D03*
X0064287Y0041445D03*
X0064620Y0040779D03*
X0064953Y0040113D03*
X0065619Y0038782D03*
X0065952Y0037783D03*
X0066617Y0036452D03*
X0066950Y0035786D03*
D90*
X0087422Y0035120D03*
X0098074Y0072069D03*
X0187284Y0073054D03*
X0208588Y0126979D03*
D91*
X0215911Y0090030D03*
X0194607Y0036105D03*
D92*
X0217909Y0036105D03*
X0218574Y0037436D03*
X0218574Y0037769D03*
X0219240Y0039100D03*
X0220572Y0041763D03*
X0221237Y0043095D03*
X0221237Y0043428D03*
X0221903Y0044759D03*
X0223235Y0047755D03*
X0230558Y0075384D03*
X0239213Y0090030D03*
X0239878Y0091362D03*
X0239878Y0091695D03*
X0240544Y0093026D03*
X0241210Y0094357D03*
X0242541Y0097353D03*
X0243207Y0098685D03*
X0244539Y0101348D03*
X0244539Y0101681D03*
X0164359Y0212209D03*
X0252904Y0215871D03*
X0252904Y0216204D03*
X0252904Y0216537D03*
X0066118Y0037450D03*
X0066784Y0036119D03*
X0065452Y0039115D03*
X0064787Y0040446D03*
X0063455Y0043109D03*
X0063455Y0043442D03*
X0062789Y0044774D03*
X0062124Y0046105D03*
X0061458Y0047437D03*
X0054800Y0074732D03*
X0046146Y0089712D03*
X0045480Y0091043D03*
X0044814Y0092375D03*
X0044814Y0092707D03*
X0044148Y0094039D03*
X0043483Y0095370D03*
X0042151Y0098366D03*
X0041485Y0099698D03*
X0040154Y0102361D03*
X0040154Y0102694D03*
D93*
X0040487Y0101695D03*
X0041153Y0100364D03*
X0041818Y0099032D03*
X0043816Y0094705D03*
X0044481Y0093373D03*
X0045147Y0091709D03*
X0045813Y0090377D03*
X0061125Y0048435D03*
X0061125Y0048102D03*
X0061791Y0046771D03*
X0062456Y0045439D03*
X0064454Y0041112D03*
X0065119Y0039781D03*
X0065785Y0038449D03*
X0065785Y0038116D03*
X0066451Y0036785D03*
X0067117Y0035453D03*
X0088421Y0140974D03*
X0174012Y0214206D03*
X0174012Y0214539D03*
X0205303Y0213874D03*
X0205303Y0213541D03*
X0196938Y0141626D03*
X0239545Y0090696D03*
X0240211Y0092027D03*
X0240877Y0093692D03*
X0242208Y0096688D03*
X0242874Y0098019D03*
X0243540Y0099351D03*
X0244871Y0102346D03*
X0223568Y0048421D03*
X0223568Y0048088D03*
X0222236Y0045425D03*
X0221570Y0044093D03*
X0220239Y0041098D03*
X0219573Y0039766D03*
X0218907Y0038435D03*
X0218242Y0036770D03*
D94*
X0188782Y0039100D03*
X0099572Y0074067D03*
X0075272Y0092375D03*
X0074606Y0092042D03*
X0073941Y0091709D03*
X0072276Y0091043D03*
X0071610Y0090710D03*
X0070945Y0090377D03*
X0070279Y0090045D03*
X0069613Y0089712D03*
X0064620Y0087382D03*
X0078601Y0128325D03*
X0096243Y0038116D03*
X0095577Y0037783D03*
X0094912Y0037450D03*
X0093247Y0036785D03*
X0092582Y0036452D03*
X0091916Y0036119D03*
X0091250Y0035786D03*
X0090584Y0035453D03*
D95*
X0064454Y0087049D03*
X0194275Y0036437D03*
X0215579Y0090363D03*
D96*
X0215246Y0090696D03*
X0193942Y0036770D03*
X0096743Y0038449D03*
D97*
X0193609Y0037103D03*
X0214913Y0091029D03*
D98*
X0190613Y0037769D03*
X0191279Y0037436D03*
D99*
X0213082Y0037436D03*
X0212749Y0041763D03*
X0214081Y0042096D03*
X0214081Y0042429D03*
X0215412Y0047089D03*
X0215745Y0047755D03*
X0215745Y0048088D03*
X0235718Y0094690D03*
X0236716Y0101015D03*
X0236716Y0101348D03*
X0237049Y0101681D03*
X0197480Y0163943D03*
X0206801Y0171266D03*
X0220781Y0172930D03*
X0225774Y0172597D03*
X0225774Y0170933D03*
X0235428Y0186245D03*
X0235428Y0186578D03*
X0235428Y0188242D03*
X0235428Y0188575D03*
X0235428Y0189574D03*
X0235428Y0189907D03*
X0225774Y0204220D03*
X0234429Y0210212D03*
X0234429Y0210545D03*
X0234429Y0210878D03*
X0234429Y0211211D03*
X0234429Y0211543D03*
X0234429Y0211876D03*
X0234429Y0212209D03*
X0234429Y0212542D03*
X0234429Y0212875D03*
X0234429Y0213208D03*
X0234429Y0213541D03*
X0234429Y0213874D03*
X0234429Y0214206D03*
X0234429Y0214539D03*
X0234429Y0214872D03*
X0234429Y0215205D03*
X0234429Y0215538D03*
X0234429Y0215871D03*
X0234429Y0216204D03*
X0234429Y0216537D03*
X0234429Y0216869D03*
X0234429Y0217202D03*
X0234429Y0217535D03*
X0234429Y0217868D03*
X0234429Y0218201D03*
X0234429Y0218534D03*
X0244415Y0218534D03*
X0244415Y0218201D03*
X0244415Y0217868D03*
X0244415Y0217535D03*
X0244415Y0217202D03*
X0244415Y0216869D03*
X0244415Y0216537D03*
X0244415Y0216204D03*
X0244415Y0215871D03*
X0244415Y0215538D03*
X0244415Y0215205D03*
X0244415Y0214872D03*
X0244415Y0214539D03*
X0244415Y0214206D03*
X0244415Y0213874D03*
X0244415Y0213541D03*
X0244415Y0213208D03*
X0244415Y0212875D03*
X0244415Y0212542D03*
X0244415Y0212209D03*
X0244415Y0211876D03*
X0244415Y0211543D03*
X0244415Y0211211D03*
X0244415Y0210878D03*
X0244415Y0210545D03*
X0244415Y0210212D03*
X0251738Y0210212D03*
X0251738Y0210545D03*
X0251738Y0210878D03*
X0251738Y0211211D03*
X0251738Y0211543D03*
X0251738Y0211876D03*
X0251738Y0212209D03*
X0251738Y0212542D03*
X0251738Y0212875D03*
X0251738Y0213208D03*
X0251738Y0213541D03*
X0251738Y0213874D03*
X0251738Y0214206D03*
X0251738Y0214539D03*
X0251738Y0214872D03*
X0251738Y0215205D03*
X0251738Y0215538D03*
X0251738Y0216869D03*
X0251738Y0217202D03*
X0251738Y0217535D03*
X0251738Y0217868D03*
X0251738Y0218201D03*
X0251738Y0218534D03*
X0251406Y0189907D03*
X0251406Y0189574D03*
X0251406Y0187244D03*
X0251406Y0186911D03*
X0274707Y0187577D03*
X0274707Y0187909D03*
X0274707Y0188242D03*
X0274707Y0188575D03*
X0274707Y0188908D03*
X0274707Y0189241D03*
X0213458Y0202889D03*
X0213791Y0211211D03*
X0213791Y0211543D03*
X0213791Y0211876D03*
X0213791Y0212209D03*
X0213791Y0212542D03*
X0213791Y0212875D03*
X0213791Y0213208D03*
X0213791Y0213541D03*
X0213791Y0213874D03*
X0213791Y0214206D03*
X0213791Y0214539D03*
X0213791Y0214872D03*
X0213791Y0216204D03*
X0213791Y0216537D03*
X0213791Y0216869D03*
X0213791Y0217202D03*
X0213791Y0217535D03*
X0213791Y0217868D03*
X0213791Y0218201D03*
X0213791Y0218534D03*
X0206468Y0218534D03*
X0206468Y0218201D03*
X0206468Y0217868D03*
X0206468Y0217535D03*
X0206468Y0217202D03*
X0206468Y0216869D03*
X0206468Y0216537D03*
X0206468Y0216204D03*
X0206468Y0215871D03*
X0206468Y0215538D03*
X0206468Y0215205D03*
X0206468Y0213208D03*
X0206468Y0212875D03*
X0206468Y0212542D03*
X0206468Y0212209D03*
X0206468Y0211876D03*
X0206468Y0211543D03*
X0206468Y0211211D03*
X0200809Y0204220D03*
X0189158Y0217202D03*
X0188492Y0213874D03*
X0184165Y0213874D03*
X0184165Y0214206D03*
X0184165Y0213541D03*
X0183832Y0217202D03*
X0183832Y0217535D03*
X0181502Y0206550D03*
X0175177Y0206550D03*
X0175177Y0206218D03*
X0175177Y0202889D03*
X0175177Y0202556D03*
X0170850Y0212209D03*
X0171516Y0213208D03*
X0183499Y0180919D03*
X0188492Y0172597D03*
X0188492Y0170933D03*
X0174179Y0172930D03*
X0169851Y0164608D03*
X0069656Y0209213D03*
X0069656Y0209546D03*
X0051348Y0210212D03*
X0051348Y0210545D03*
X0036702Y0208215D03*
X0033040Y0208215D03*
X0033040Y0208548D03*
X0045314Y0103027D03*
X0049974Y0093040D03*
X0070945Y0038782D03*
D100*
X0070279Y0037783D03*
X0069613Y0050765D03*
X0049308Y0092042D03*
X0048642Y0101362D03*
X0044648Y0102028D03*
X0039032Y0210878D03*
X0059670Y0210545D03*
X0066994Y0210878D03*
X0071986Y0210212D03*
X0076647Y0210545D03*
X0077645Y0211543D03*
X0067992Y0295095D03*
X0057340Y0295095D03*
X0161530Y0206550D03*
X0164525Y0206550D03*
X0171516Y0211211D03*
X0170850Y0180919D03*
X0168187Y0180919D03*
X0170850Y0172597D03*
X0170850Y0163943D03*
X0170850Y0163277D03*
X0173180Y0162944D03*
X0174179Y0162944D03*
X0175510Y0163943D03*
X0175510Y0161612D03*
X0178839Y0162944D03*
X0180171Y0163943D03*
X0184831Y0163943D03*
X0189491Y0164275D03*
X0189491Y0163610D03*
X0194151Y0163610D03*
X0198812Y0164941D03*
X0198812Y0171266D03*
X0208132Y0172930D03*
X0212792Y0171266D03*
X0212792Y0170267D03*
X0212792Y0169601D03*
X0217453Y0171266D03*
X0231433Y0170267D03*
X0231433Y0172930D03*
X0235428Y0170933D03*
X0257397Y0186245D03*
X0257397Y0186578D03*
X0257397Y0190240D03*
X0257397Y0190572D03*
X0262723Y0189907D03*
X0262723Y0189574D03*
X0262723Y0189241D03*
X0262723Y0188908D03*
X0262723Y0188575D03*
X0262723Y0188242D03*
X0262723Y0186578D03*
X0262723Y0186245D03*
X0266052Y0186911D03*
X0266052Y0187244D03*
X0268049Y0187244D03*
X0268049Y0186911D03*
X0268049Y0189574D03*
X0268049Y0189907D03*
X0265386Y0202889D03*
X0265053Y0203555D03*
X0264721Y0204220D03*
X0264721Y0204553D03*
X0264721Y0204886D03*
X0264721Y0205219D03*
X0264721Y0205552D03*
X0264721Y0205885D03*
X0264721Y0206218D03*
X0264721Y0206550D03*
X0264721Y0206883D03*
X0264721Y0207216D03*
X0264721Y0207549D03*
X0264721Y0207882D03*
X0264721Y0208881D03*
X0264721Y0209213D03*
X0264721Y0209546D03*
X0264721Y0210212D03*
X0264721Y0210545D03*
X0264721Y0210878D03*
X0264721Y0211211D03*
X0264721Y0211543D03*
X0264721Y0211876D03*
X0264721Y0212209D03*
X0264721Y0212542D03*
X0264721Y0212875D03*
X0264721Y0213208D03*
X0264721Y0213541D03*
X0264721Y0213874D03*
X0264721Y0214206D03*
X0264721Y0214539D03*
X0264721Y0214872D03*
X0264721Y0215205D03*
X0264721Y0215538D03*
X0264721Y0215871D03*
X0264721Y0216204D03*
X0264721Y0216537D03*
X0264721Y0216869D03*
X0264721Y0217202D03*
X0264721Y0217535D03*
X0264721Y0217868D03*
X0264721Y0218201D03*
X0264721Y0218534D03*
X0264721Y0219200D03*
X0264721Y0219533D03*
X0264721Y0219865D03*
X0264721Y0220198D03*
X0264721Y0220531D03*
X0264721Y0220864D03*
X0255400Y0218201D03*
X0255400Y0217868D03*
X0255400Y0217535D03*
X0255400Y0216869D03*
X0255400Y0213874D03*
X0255400Y0213541D03*
X0255400Y0213208D03*
X0255400Y0212875D03*
X0255400Y0212542D03*
X0255400Y0212209D03*
X0255400Y0211876D03*
X0248077Y0211876D03*
X0248077Y0211543D03*
X0248077Y0211211D03*
X0248077Y0210878D03*
X0248077Y0210545D03*
X0248077Y0210212D03*
X0248077Y0212209D03*
X0248077Y0212542D03*
X0248077Y0212875D03*
X0248077Y0213208D03*
X0248077Y0213541D03*
X0248077Y0213874D03*
X0248077Y0215871D03*
X0248077Y0216204D03*
X0248077Y0216537D03*
X0248077Y0216869D03*
X0248077Y0217202D03*
X0248077Y0217535D03*
X0248077Y0217868D03*
X0248077Y0218201D03*
X0240754Y0218201D03*
X0240754Y0217868D03*
X0240754Y0217535D03*
X0240754Y0217202D03*
X0240754Y0216869D03*
X0240754Y0216537D03*
X0240754Y0216204D03*
X0240754Y0215871D03*
X0240754Y0215538D03*
X0240754Y0215205D03*
X0240754Y0214872D03*
X0240754Y0214539D03*
X0240754Y0214206D03*
X0240754Y0213874D03*
X0240754Y0213541D03*
X0240754Y0213208D03*
X0240754Y0212875D03*
X0240754Y0212542D03*
X0240754Y0212209D03*
X0240754Y0211876D03*
X0240754Y0211543D03*
X0240754Y0211211D03*
X0240754Y0210878D03*
X0240754Y0210545D03*
X0239089Y0219200D03*
X0239089Y0219533D03*
X0210129Y0218201D03*
X0210129Y0217868D03*
X0210129Y0217535D03*
X0210129Y0217202D03*
X0210129Y0216869D03*
X0210129Y0216537D03*
X0210129Y0216204D03*
X0210129Y0215871D03*
X0210129Y0215538D03*
X0210129Y0215205D03*
X0210129Y0214872D03*
X0210129Y0214539D03*
X0210129Y0214206D03*
X0210129Y0213874D03*
X0210129Y0213541D03*
X0210129Y0213208D03*
X0210129Y0212875D03*
X0210129Y0212542D03*
X0210129Y0212209D03*
X0210129Y0211876D03*
X0202806Y0211876D03*
X0202806Y0212209D03*
X0202806Y0212542D03*
X0202806Y0212875D03*
X0202806Y0213208D03*
X0202806Y0215871D03*
X0202806Y0216204D03*
X0202806Y0216537D03*
X0202806Y0216869D03*
X0202806Y0217202D03*
X0202806Y0217535D03*
X0202806Y0217868D03*
X0202806Y0218201D03*
X0202806Y0218534D03*
X0202806Y0219200D03*
X0202806Y0219533D03*
X0202806Y0219865D03*
X0184831Y0179920D03*
X0180171Y0179920D03*
X0178839Y0178922D03*
X0177840Y0172930D03*
X0180171Y0172930D03*
X0165191Y0156286D03*
X0164525Y0156619D03*
X0164193Y0156952D03*
X0232056Y0095689D03*
X0236383Y0100349D03*
X0236383Y0103345D03*
X0240045Y0101681D03*
X0215079Y0049419D03*
X0215079Y0046424D03*
X0218741Y0047755D03*
X0214081Y0041431D03*
X0211751Y0042096D03*
X0211751Y0037769D03*
X0274374Y0156286D03*
X0275040Y0156619D03*
X0275373Y0156952D03*
X0272377Y0205219D03*
X0270379Y0205219D03*
X0269381Y0208215D03*
X0273708Y0206883D03*
X0199477Y0295095D03*
D101*
X0194151Y0216869D03*
X0166856Y0216204D03*
X0166856Y0215871D03*
X0166856Y0215538D03*
X0164193Y0205552D03*
X0161862Y0203555D03*
X0161862Y0203222D03*
X0175177Y0170933D03*
X0179172Y0170933D03*
X0183832Y0164941D03*
X0183832Y0164608D03*
X0192820Y0171266D03*
X0197480Y0172930D03*
X0193153Y0178589D03*
X0193153Y0178922D03*
X0192820Y0179255D03*
X0206135Y0170933D03*
X0206135Y0170600D03*
X0207799Y0171599D03*
X0216121Y0172930D03*
X0229103Y0186578D03*
X0229103Y0186911D03*
X0229103Y0187577D03*
X0229103Y0187909D03*
X0231766Y0186245D03*
X0232432Y0189907D03*
X0238756Y0187244D03*
X0238756Y0186911D03*
X0242085Y0186911D03*
X0242085Y0187244D03*
X0242085Y0188908D03*
X0242085Y0189241D03*
X0242085Y0189574D03*
X0242085Y0189907D03*
X0254734Y0189241D03*
X0254734Y0188908D03*
X0254734Y0188575D03*
X0254734Y0188242D03*
X0254734Y0187909D03*
X0254734Y0187577D03*
X0263389Y0187577D03*
X0263389Y0187909D03*
X0265386Y0188908D03*
X0265386Y0189241D03*
X0265386Y0189574D03*
X0265386Y0189907D03*
X0268049Y0207216D03*
X0269381Y0208881D03*
X0269381Y0209213D03*
X0269381Y0209546D03*
X0267384Y0210212D03*
X0267384Y0210545D03*
X0267384Y0210878D03*
X0235095Y0172930D03*
X0235095Y0172597D03*
X0237715Y0098019D03*
X0216411Y0044093D03*
X0212083Y0041431D03*
X0211751Y0040765D03*
X0213748Y0037769D03*
X0069946Y0046771D03*
X0069946Y0047104D03*
X0069613Y0047769D03*
X0069613Y0045772D03*
X0069613Y0045439D03*
X0065952Y0048435D03*
X0065995Y0208548D03*
X0069323Y0210878D03*
X0062000Y0211543D03*
X0058339Y0211211D03*
X0052014Y0209546D03*
X0037368Y0208548D03*
D102*
X0079310Y0287106D03*
X0085967Y0290435D03*
X0098949Y0287772D03*
X0230767Y0190905D03*
X0066285Y0037118D03*
X0061957Y0046438D03*
X0045313Y0091376D03*
D103*
X0094080Y0037118D03*
D104*
X0190114Y0038102D03*
D105*
X0213914Y0038102D03*
X0197646Y0285774D03*
X0262224Y0285109D03*
X0133735Y0286440D03*
X0133735Y0289103D03*
X0094456Y0289769D03*
X0087132Y0288437D03*
X0087132Y0287772D03*
X0077146Y0289103D03*
D106*
X0098783Y0287106D03*
X0099449Y0291100D03*
X0172015Y0288437D03*
X0172015Y0287772D03*
X0244871Y0102014D03*
X0240211Y0092360D03*
X0220905Y0042762D03*
X0218907Y0038102D03*
D107*
X0214580Y0038435D03*
X0216577Y0045425D03*
X0236550Y0093692D03*
X0237881Y0099018D03*
X0237881Y0099351D03*
X0198978Y0161612D03*
X0198978Y0161945D03*
X0198978Y0162611D03*
X0198978Y0164608D03*
X0196315Y0164608D03*
X0196315Y0162611D03*
X0196315Y0161945D03*
X0196315Y0161612D03*
X0194318Y0162611D03*
X0194318Y0162944D03*
X0194318Y0163277D03*
X0194318Y0164275D03*
X0191655Y0164275D03*
X0191655Y0163943D03*
X0191655Y0163610D03*
X0191655Y0163277D03*
X0191655Y0162944D03*
X0191655Y0162611D03*
X0189657Y0162611D03*
X0189657Y0162944D03*
X0189657Y0163277D03*
X0189657Y0163943D03*
X0186994Y0163943D03*
X0186994Y0164275D03*
X0186994Y0163610D03*
X0186994Y0163277D03*
X0186994Y0162944D03*
X0186994Y0162611D03*
X0184997Y0163610D03*
X0184997Y0164275D03*
X0183000Y0164275D03*
X0182334Y0162611D03*
X0180337Y0162611D03*
X0180337Y0163610D03*
X0180337Y0164275D03*
X0180337Y0169601D03*
X0177674Y0169601D03*
X0175677Y0170267D03*
X0175677Y0170600D03*
X0175677Y0172264D03*
X0177674Y0172597D03*
X0180337Y0172597D03*
X0184331Y0172930D03*
X0186994Y0172264D03*
X0186994Y0171599D03*
X0186994Y0171266D03*
X0189657Y0171266D03*
X0189657Y0170267D03*
X0189657Y0169934D03*
X0189657Y0169601D03*
X0191655Y0171599D03*
X0191655Y0172264D03*
X0191655Y0172597D03*
X0191655Y0172930D03*
X0193652Y0172930D03*
X0193652Y0172597D03*
X0193652Y0172264D03*
X0193652Y0171599D03*
X0196315Y0171599D03*
X0196315Y0172264D03*
X0198978Y0170267D03*
X0198978Y0169934D03*
X0198978Y0169601D03*
X0200975Y0170267D03*
X0200975Y0170600D03*
X0202972Y0170267D03*
X0203638Y0171266D03*
X0203638Y0171599D03*
X0202972Y0172264D03*
X0205635Y0172264D03*
X0205635Y0172597D03*
X0205635Y0172930D03*
X0205635Y0171599D03*
X0205635Y0169601D03*
X0208298Y0169601D03*
X0208298Y0169934D03*
X0208298Y0170267D03*
X0208298Y0170600D03*
X0210296Y0170267D03*
X0210296Y0169934D03*
X0210296Y0169601D03*
X0210296Y0171266D03*
X0210296Y0171599D03*
X0210961Y0172264D03*
X0212293Y0172264D03*
X0212959Y0171599D03*
X0212959Y0169934D03*
X0214956Y0171599D03*
X0214956Y0172264D03*
X0217619Y0170267D03*
X0217619Y0169934D03*
X0217619Y0169601D03*
X0222279Y0170267D03*
X0222279Y0170600D03*
X0222279Y0171599D03*
X0222279Y0172264D03*
X0224276Y0172264D03*
X0224276Y0171599D03*
X0224276Y0171266D03*
X0226939Y0171266D03*
X0226939Y0170267D03*
X0226939Y0169934D03*
X0226939Y0169601D03*
X0228937Y0170267D03*
X0228937Y0170600D03*
X0228937Y0170933D03*
X0228937Y0171266D03*
X0228937Y0171599D03*
X0228937Y0172264D03*
X0228937Y0172597D03*
X0228937Y0172930D03*
X0231600Y0172597D03*
X0231600Y0172264D03*
X0231600Y0171599D03*
X0231600Y0171266D03*
X0231600Y0170933D03*
X0231600Y0170600D03*
X0233597Y0170600D03*
X0233597Y0170267D03*
X0234263Y0172264D03*
X0236260Y0172264D03*
X0236260Y0171599D03*
X0236260Y0170267D03*
X0232931Y0188575D03*
X0236926Y0203222D03*
X0236260Y0203887D03*
X0236260Y0204220D03*
X0236260Y0204553D03*
X0236260Y0204886D03*
X0236260Y0205219D03*
X0236926Y0205552D03*
X0236926Y0205885D03*
X0232931Y0206550D03*
X0238257Y0210212D03*
X0238257Y0210545D03*
X0238257Y0210878D03*
X0238257Y0211211D03*
X0238257Y0211543D03*
X0238257Y0211876D03*
X0238257Y0212209D03*
X0238257Y0212542D03*
X0238257Y0212875D03*
X0238257Y0213208D03*
X0238257Y0213541D03*
X0238257Y0213874D03*
X0238257Y0214206D03*
X0238257Y0214539D03*
X0238257Y0214872D03*
X0238257Y0215205D03*
X0238257Y0215538D03*
X0238257Y0215871D03*
X0238257Y0216204D03*
X0238257Y0216537D03*
X0238257Y0216869D03*
X0238257Y0217202D03*
X0238257Y0217535D03*
X0238257Y0217868D03*
X0238257Y0218201D03*
X0238923Y0219865D03*
X0245580Y0206550D03*
X0245580Y0206218D03*
X0245580Y0203887D03*
X0245580Y0203555D03*
X0245580Y0203222D03*
X0245580Y0202889D03*
X0245580Y0202556D03*
X0254901Y0206550D03*
X0255567Y0217202D03*
X0266219Y0209213D03*
X0266219Y0207549D03*
X0217619Y0211876D03*
X0217619Y0212209D03*
X0217619Y0212542D03*
X0217619Y0212875D03*
X0217619Y0213208D03*
X0217619Y0213541D03*
X0217619Y0213874D03*
X0217619Y0216204D03*
X0217619Y0216537D03*
X0217619Y0216869D03*
X0217619Y0217202D03*
X0217619Y0217535D03*
X0217619Y0217868D03*
X0217619Y0218201D03*
X0195649Y0205885D03*
X0195649Y0205552D03*
X0195649Y0205219D03*
X0195649Y0204886D03*
X0195649Y0204553D03*
X0195649Y0204220D03*
X0195649Y0203887D03*
X0195649Y0203555D03*
X0195649Y0203222D03*
X0187660Y0203222D03*
X0187660Y0203555D03*
X0187660Y0203887D03*
X0187660Y0204220D03*
X0187660Y0204553D03*
X0187660Y0204886D03*
X0187660Y0205219D03*
X0187660Y0205552D03*
X0187660Y0205885D03*
X0173014Y0180919D03*
X0171017Y0180586D03*
X0171017Y0180253D03*
X0171017Y0179920D03*
X0171017Y0179588D03*
X0171017Y0178589D03*
X0171017Y0178256D03*
X0171017Y0177923D03*
X0171017Y0177590D03*
X0168354Y0177590D03*
X0168354Y0177923D03*
X0168354Y0178256D03*
X0168354Y0178589D03*
X0168354Y0179588D03*
X0168354Y0179920D03*
X0168354Y0180253D03*
X0168354Y0180586D03*
X0171017Y0172264D03*
X0171017Y0171599D03*
X0171017Y0171266D03*
X0171017Y0170933D03*
X0171017Y0170600D03*
X0171017Y0170267D03*
X0173014Y0164275D03*
X0173014Y0163943D03*
X0173014Y0163610D03*
X0173014Y0163277D03*
X0171017Y0161945D03*
X0171017Y0161612D03*
X0168354Y0163610D03*
X0168354Y0163943D03*
X0168354Y0164275D03*
X0175677Y0164275D03*
X0175677Y0163277D03*
X0175677Y0161945D03*
X0180337Y0178256D03*
X0180337Y0178589D03*
X0180337Y0179588D03*
X0180337Y0180253D03*
X0184997Y0180253D03*
X0184997Y0179588D03*
X0184997Y0178589D03*
X0184997Y0178256D03*
X0191655Y0179920D03*
X0191655Y0180253D03*
X0196315Y0178589D03*
X0196315Y0178256D03*
X0196981Y0180253D03*
X0198978Y0178256D03*
X0075815Y0211543D03*
X0074483Y0210878D03*
X0074483Y0210545D03*
X0074483Y0210212D03*
X0074483Y0208881D03*
X0074483Y0208548D03*
X0074483Y0208215D03*
X0071820Y0210878D03*
X0070489Y0210212D03*
X0067160Y0210212D03*
X0067160Y0210545D03*
X0067160Y0209546D03*
X0067160Y0209213D03*
X0065163Y0210878D03*
X0061168Y0209546D03*
X0061168Y0208881D03*
X0059837Y0208881D03*
X0059837Y0209546D03*
X0059837Y0210212D03*
X0052513Y0211211D03*
X0052513Y0209213D03*
X0052513Y0208881D03*
X0052513Y0208548D03*
X0052513Y0208215D03*
X0046522Y0208881D03*
X0046522Y0209213D03*
X0046522Y0209546D03*
X0046522Y0210212D03*
X0046522Y0210545D03*
X0046522Y0210878D03*
X0045190Y0210878D03*
X0045190Y0210545D03*
X0045190Y0210212D03*
X0045190Y0209546D03*
X0045190Y0209213D03*
X0045190Y0208881D03*
X0043193Y0208881D03*
X0043193Y0210878D03*
X0039198Y0211211D03*
X0039198Y0210545D03*
X0039198Y0209546D03*
X0039198Y0208881D03*
X0037867Y0208881D03*
X0037867Y0209546D03*
X0037867Y0210545D03*
X0037867Y0210878D03*
X0037867Y0211211D03*
X0062500Y0295095D03*
X0069447Y0049101D03*
X0066118Y0047104D03*
X0066118Y0046771D03*
D108*
X0185620Y0075051D03*
X0189614Y0038767D03*
X0220905Y0088033D03*
X0206924Y0128976D03*
D109*
X0193819Y0161945D03*
X0192154Y0161945D03*
X0194151Y0163943D03*
X0197147Y0170267D03*
X0198811Y0171599D03*
X0198811Y0172264D03*
X0201142Y0171266D03*
X0201142Y0170933D03*
X0203472Y0170933D03*
X0203472Y0170600D03*
X0205802Y0169934D03*
X0208132Y0170933D03*
X0208132Y0172597D03*
X0215788Y0170267D03*
X0217452Y0171599D03*
X0217452Y0172264D03*
X0222113Y0170933D03*
X0226773Y0171599D03*
X0226773Y0172264D03*
X0229436Y0169934D03*
X0231100Y0169934D03*
X0234096Y0170933D03*
X0229436Y0186245D03*
X0228770Y0188575D03*
X0228770Y0188908D03*
X0228770Y0189241D03*
X0230435Y0189241D03*
X0230435Y0188908D03*
X0230435Y0188575D03*
X0239089Y0189574D03*
X0239089Y0189907D03*
X0241087Y0190240D03*
X0241087Y0190572D03*
X0246413Y0190572D03*
X0246413Y0190240D03*
X0255067Y0189907D03*
X0255067Y0189574D03*
X0255067Y0187244D03*
X0255067Y0186911D03*
X0257730Y0188242D03*
X0257730Y0188575D03*
X0263056Y0187244D03*
X0263056Y0186911D03*
X0265719Y0186578D03*
X0265719Y0186245D03*
X0265719Y0188242D03*
X0265719Y0188575D03*
X0263056Y0190240D03*
X0263056Y0190572D03*
X0268382Y0190572D03*
X0268382Y0190240D03*
X0270380Y0189907D03*
X0270380Y0189574D03*
X0270380Y0187244D03*
X0270380Y0186911D03*
X0268382Y0186578D03*
X0268382Y0186245D03*
X0258063Y0202556D03*
X0258063Y0202889D03*
X0258063Y0203222D03*
X0258063Y0203555D03*
X0258063Y0203887D03*
X0258063Y0204886D03*
X0258063Y0205219D03*
X0258063Y0205552D03*
X0258063Y0205885D03*
X0258063Y0206218D03*
X0255067Y0206218D03*
X0255067Y0205885D03*
X0255067Y0205552D03*
X0255067Y0205219D03*
X0255067Y0204886D03*
X0255067Y0203887D03*
X0255067Y0203555D03*
X0255067Y0203222D03*
X0255067Y0202889D03*
X0255067Y0202556D03*
X0251739Y0202556D03*
X0251739Y0202889D03*
X0251739Y0203222D03*
X0251739Y0203555D03*
X0251739Y0204220D03*
X0251739Y0204553D03*
X0251739Y0204886D03*
X0251739Y0205219D03*
X0251073Y0205552D03*
X0251073Y0205885D03*
X0249408Y0205885D03*
X0249408Y0205552D03*
X0248743Y0205219D03*
X0248743Y0204886D03*
X0248743Y0204553D03*
X0248743Y0204220D03*
X0248743Y0203555D03*
X0248743Y0203222D03*
X0248743Y0202889D03*
X0248743Y0202556D03*
X0236759Y0203555D03*
X0233098Y0203555D03*
X0233098Y0203887D03*
X0233098Y0203222D03*
X0233098Y0202889D03*
X0233098Y0202556D03*
X0233098Y0204886D03*
X0233098Y0205219D03*
X0233098Y0205552D03*
X0233098Y0205885D03*
X0233098Y0206218D03*
X0230102Y0206218D03*
X0230102Y0205885D03*
X0230102Y0205552D03*
X0230102Y0205219D03*
X0230102Y0204886D03*
X0230102Y0203887D03*
X0230102Y0203555D03*
X0230102Y0203222D03*
X0230102Y0202889D03*
X0230102Y0202556D03*
X0226773Y0203222D03*
X0226773Y0203555D03*
X0226773Y0203887D03*
X0226773Y0204886D03*
X0226773Y0205219D03*
X0226773Y0205552D03*
X0226773Y0205885D03*
X0214457Y0205885D03*
X0214457Y0205552D03*
X0214457Y0205219D03*
X0214457Y0204886D03*
X0214457Y0204553D03*
X0214457Y0204220D03*
X0214457Y0203887D03*
X0214457Y0203555D03*
X0214457Y0203222D03*
X0211794Y0203555D03*
X0211461Y0203887D03*
X0211461Y0204220D03*
X0211461Y0204553D03*
X0211461Y0204886D03*
X0211461Y0205219D03*
X0201807Y0204886D03*
X0201807Y0205885D03*
X0193153Y0203555D03*
X0187494Y0214539D03*
X0181502Y0205885D03*
X0181502Y0205552D03*
X0181502Y0205219D03*
X0181502Y0204886D03*
X0181502Y0204553D03*
X0181502Y0204220D03*
X0181502Y0203887D03*
X0181502Y0203555D03*
X0181502Y0203222D03*
X0181502Y0202889D03*
X0181502Y0202556D03*
X0175178Y0203222D03*
X0175178Y0203555D03*
X0175178Y0203887D03*
X0175178Y0204220D03*
X0175178Y0204553D03*
X0175178Y0204886D03*
X0175178Y0205219D03*
X0175178Y0205552D03*
X0175178Y0205885D03*
X0170850Y0205552D03*
X0170850Y0205219D03*
X0170850Y0204886D03*
X0170850Y0204553D03*
X0170850Y0204220D03*
X0170850Y0203887D03*
X0170850Y0203555D03*
X0170850Y0203222D03*
X0167854Y0203222D03*
X0167854Y0203555D03*
X0167854Y0203887D03*
X0167854Y0204220D03*
X0167854Y0204553D03*
X0167854Y0204886D03*
X0167854Y0205219D03*
X0167854Y0205552D03*
X0167854Y0205885D03*
X0164526Y0206218D03*
X0164526Y0203887D03*
X0164526Y0203555D03*
X0164526Y0203222D03*
X0164526Y0202889D03*
X0164526Y0202556D03*
X0161530Y0202556D03*
X0161530Y0202889D03*
X0161530Y0204886D03*
X0161530Y0205219D03*
X0161530Y0205552D03*
X0161530Y0205885D03*
X0161530Y0206218D03*
X0179172Y0217202D03*
X0174844Y0180919D03*
X0170850Y0178922D03*
X0168520Y0178922D03*
X0175510Y0171599D03*
X0177841Y0169934D03*
X0180170Y0169934D03*
X0180170Y0162944D03*
X0182501Y0162944D03*
X0175510Y0162944D03*
X0175510Y0163610D03*
X0170850Y0163610D03*
X0170850Y0164275D03*
X0180170Y0178922D03*
X0184831Y0178922D03*
X0189491Y0172264D03*
X0189491Y0171599D03*
X0192820Y0170933D03*
X0196481Y0178922D03*
X0194151Y0180253D03*
X0237715Y0098685D03*
X0216411Y0044759D03*
X0214746Y0038767D03*
X0268049Y0207882D03*
X0269381Y0208548D03*
X0267383Y0209546D03*
X0267383Y0211211D03*
X0273708Y0208881D03*
X0076647Y0208215D03*
X0074317Y0209546D03*
X0065995Y0208215D03*
X0065995Y0211211D03*
X0052347Y0210878D03*
X0065952Y0047437D03*
D110*
X0065785Y0048102D03*
X0069780Y0048102D03*
X0070445Y0038116D03*
X0168686Y0161612D03*
X0168686Y0161945D03*
X0168686Y0163277D03*
X0178007Y0170267D03*
X0180004Y0170267D03*
X0180004Y0172264D03*
X0178007Y0172264D03*
X0182667Y0172930D03*
X0182667Y0177923D03*
X0184664Y0177923D03*
X0191988Y0179588D03*
X0193985Y0178256D03*
X0197314Y0179255D03*
X0196648Y0171266D03*
X0196648Y0169934D03*
X0196648Y0169601D03*
X0196648Y0164275D03*
X0198645Y0164275D03*
X0205968Y0170267D03*
X0207966Y0172264D03*
X0215289Y0171266D03*
X0215289Y0169934D03*
X0215289Y0169601D03*
X0219949Y0169934D03*
X0221946Y0169934D03*
X0232598Y0188908D03*
X0232598Y0189241D03*
X0232598Y0189574D03*
X0245247Y0205552D03*
X0245247Y0205885D03*
X0227938Y0210212D03*
X0227938Y0210545D03*
X0227938Y0210878D03*
X0227938Y0211211D03*
X0227938Y0211543D03*
X0227938Y0214206D03*
X0227938Y0214539D03*
X0227938Y0214872D03*
X0227938Y0215205D03*
X0227938Y0215538D03*
X0227938Y0218534D03*
X0227938Y0219200D03*
X0227938Y0219533D03*
X0227938Y0219865D03*
X0220615Y0219865D03*
X0220615Y0219533D03*
X0220615Y0219200D03*
X0220615Y0218534D03*
X0220615Y0218201D03*
X0220615Y0217868D03*
X0220615Y0217535D03*
X0220615Y0217202D03*
X0220615Y0216869D03*
X0220615Y0216537D03*
X0220615Y0216204D03*
X0220615Y0215871D03*
X0220615Y0215538D03*
X0220615Y0215205D03*
X0220615Y0214872D03*
X0220615Y0214539D03*
X0220615Y0214206D03*
X0220615Y0213874D03*
X0220615Y0213541D03*
X0220615Y0213208D03*
X0220615Y0212875D03*
X0220615Y0212542D03*
X0220615Y0212209D03*
X0220615Y0211876D03*
X0220615Y0211543D03*
X0220615Y0211211D03*
X0220615Y0210878D03*
X0220615Y0210545D03*
X0220615Y0210212D03*
X0199977Y0211211D03*
X0199977Y0211543D03*
X0199977Y0211876D03*
X0199977Y0212209D03*
X0199977Y0212542D03*
X0199977Y0212875D03*
X0199977Y0213208D03*
X0199977Y0213541D03*
X0199977Y0213874D03*
X0199977Y0214206D03*
X0199977Y0214539D03*
X0199977Y0214872D03*
X0199977Y0215205D03*
X0199977Y0215538D03*
X0199977Y0215871D03*
X0199977Y0216204D03*
X0199977Y0216537D03*
X0199977Y0216869D03*
X0199977Y0217202D03*
X0199977Y0217535D03*
X0199977Y0217868D03*
X0199977Y0218201D03*
X0199977Y0218534D03*
X0199977Y0219200D03*
X0199977Y0219533D03*
X0199977Y0219865D03*
X0171349Y0211543D03*
X0164692Y0219865D03*
X0236217Y0100682D03*
X0240211Y0101348D03*
X0236217Y0094025D03*
X0214913Y0046757D03*
X0266551Y0213541D03*
X0266551Y0213874D03*
X0266551Y0214206D03*
X0266551Y0214539D03*
X0266551Y0214872D03*
X0266551Y0215205D03*
X0266551Y0215538D03*
X0266551Y0215871D03*
X0266551Y0216204D03*
X0266551Y0216537D03*
X0266551Y0216869D03*
X0266551Y0217202D03*
X0266551Y0217535D03*
X0266551Y0217868D03*
X0266551Y0218201D03*
X0266551Y0218534D03*
X0274540Y0218534D03*
X0274540Y0218201D03*
X0274540Y0217868D03*
X0274540Y0217535D03*
X0274540Y0217202D03*
X0274540Y0216869D03*
X0274540Y0216537D03*
X0274540Y0216204D03*
X0274540Y0215871D03*
X0274540Y0215538D03*
X0274540Y0215205D03*
X0274540Y0214872D03*
X0274540Y0214539D03*
X0274540Y0214206D03*
X0274540Y0213874D03*
X0274540Y0213541D03*
X0058172Y0211543D03*
X0047520Y0211543D03*
D111*
X0048852Y0210545D03*
X0048852Y0210212D03*
X0048852Y0209546D03*
X0048852Y0209213D03*
X0050183Y0209213D03*
X0050183Y0209546D03*
X0050183Y0208548D03*
X0050183Y0208215D03*
X0050183Y0211211D03*
X0044192Y0211543D03*
X0042860Y0210545D03*
X0042860Y0210212D03*
X0042860Y0209546D03*
X0042860Y0209213D03*
X0041529Y0209213D03*
X0041529Y0208881D03*
X0041529Y0209546D03*
X0041529Y0210212D03*
X0041529Y0210545D03*
X0041529Y0210878D03*
X0041529Y0211211D03*
X0035537Y0208548D03*
X0034205Y0208881D03*
X0034205Y0209213D03*
X0034205Y0209546D03*
X0034205Y0210212D03*
X0034205Y0210545D03*
X0034205Y0210878D03*
X0057506Y0209546D03*
X0057506Y0209213D03*
X0057506Y0208881D03*
X0059504Y0210878D03*
X0063498Y0210878D03*
X0064830Y0210545D03*
X0064830Y0210212D03*
X0064830Y0209546D03*
X0064830Y0209213D03*
X0063498Y0208881D03*
X0066827Y0208881D03*
X0068824Y0208881D03*
X0068824Y0208548D03*
X0068824Y0208215D03*
X0068824Y0210212D03*
X0068824Y0210545D03*
X0070156Y0210545D03*
X0072153Y0210545D03*
X0076813Y0210878D03*
X0076813Y0210212D03*
X0076813Y0209546D03*
X0076813Y0209213D03*
X0076813Y0208881D03*
X0076813Y0208548D03*
X0066161Y0211543D03*
X0164692Y0211211D03*
X0170684Y0205885D03*
X0179338Y0213208D03*
X0192653Y0205219D03*
X0192653Y0204886D03*
X0192653Y0204553D03*
X0192653Y0204220D03*
X0192653Y0203887D03*
X0193319Y0203222D03*
X0193319Y0205552D03*
X0193319Y0205885D03*
X0201974Y0205552D03*
X0201974Y0205219D03*
X0201974Y0203887D03*
X0201974Y0203555D03*
X0201974Y0203222D03*
X0211960Y0203222D03*
X0211960Y0205552D03*
X0211960Y0205885D03*
X0220615Y0205885D03*
X0220615Y0206218D03*
X0220615Y0206550D03*
X0220615Y0205552D03*
X0220615Y0205219D03*
X0220615Y0204886D03*
X0220615Y0204553D03*
X0220615Y0204220D03*
X0220615Y0203887D03*
X0220615Y0203555D03*
X0220615Y0203222D03*
X0229935Y0206550D03*
X0239256Y0205885D03*
X0239256Y0205552D03*
X0239256Y0205219D03*
X0239256Y0204886D03*
X0239256Y0204553D03*
X0239256Y0204220D03*
X0239256Y0203887D03*
X0239256Y0203555D03*
X0239256Y0203222D03*
X0242584Y0202889D03*
X0242584Y0202556D03*
X0242584Y0204886D03*
X0242584Y0205219D03*
X0242584Y0205552D03*
X0242584Y0205885D03*
X0242584Y0206218D03*
X0242584Y0206550D03*
X0240587Y0210212D03*
X0257897Y0206550D03*
X0265886Y0202556D03*
X0269880Y0205552D03*
X0271877Y0205552D03*
X0273875Y0207216D03*
X0273875Y0207549D03*
X0273875Y0209213D03*
X0273875Y0209546D03*
X0228604Y0188242D03*
X0211294Y0172930D03*
X0197314Y0179588D03*
X0197314Y0179920D03*
X0192653Y0170600D03*
X0192653Y0170267D03*
X0192653Y0169934D03*
X0192653Y0169601D03*
X0187993Y0177590D03*
X0187993Y0177923D03*
X0187993Y0178256D03*
X0187993Y0178589D03*
X0187993Y0178922D03*
X0187993Y0179255D03*
X0187993Y0179588D03*
X0187993Y0179920D03*
X0187993Y0180253D03*
X0183333Y0172264D03*
X0183333Y0171599D03*
X0183333Y0171266D03*
X0183333Y0170933D03*
X0183333Y0170600D03*
X0183333Y0170267D03*
X0174012Y0177590D03*
X0174012Y0177923D03*
X0174012Y0178256D03*
X0174012Y0178589D03*
X0174012Y0178922D03*
X0174012Y0179255D03*
X0174012Y0179588D03*
X0174012Y0179920D03*
X0174012Y0180253D03*
X0237548Y0098352D03*
X0216244Y0044426D03*
X0214913Y0039433D03*
X0214913Y0039100D03*
X0212250Y0040099D03*
X0210918Y0040099D03*
X0210918Y0039766D03*
X0069780Y0046105D03*
X0069780Y0048435D03*
X0065785Y0047769D03*
X0066451Y0046105D03*
D112*
X0070778Y0038449D03*
X0179006Y0170600D03*
X0179006Y0171599D03*
X0183666Y0163277D03*
X0183666Y0161612D03*
X0188326Y0161612D03*
X0188326Y0164608D03*
X0188326Y0164941D03*
X0192986Y0164941D03*
X0192986Y0164608D03*
X0192986Y0161612D03*
X0201641Y0172930D03*
X0197646Y0177590D03*
X0192986Y0180919D03*
X0200309Y0210212D03*
X0200309Y0210545D03*
X0200309Y0210878D03*
X0173014Y0219865D03*
X0171017Y0211876D03*
X0162362Y0213874D03*
X0162362Y0214206D03*
X0161696Y0215871D03*
X0161696Y0216204D03*
X0161696Y0216537D03*
X0225608Y0172930D03*
X0230268Y0169601D03*
X0234928Y0169601D03*
X0234928Y0171266D03*
X0244915Y0204886D03*
X0244915Y0205219D03*
X0213914Y0044093D03*
X0211917Y0041098D03*
X0060502Y0209213D03*
X0044524Y0208215D03*
X0044524Y0211211D03*
X0038533Y0210212D03*
X0038533Y0209213D03*
X0032541Y0211543D03*
D113*
X0064830Y0208881D03*
X0069490Y0211543D03*
X0163360Y0183582D03*
X0163360Y0183249D03*
X0163360Y0182916D03*
X0163360Y0182583D03*
X0163360Y0182251D03*
X0163360Y0181918D03*
X0163360Y0181585D03*
X0163360Y0180919D03*
X0163360Y0180586D03*
X0163360Y0180253D03*
X0163360Y0179920D03*
X0163360Y0179588D03*
X0163360Y0179255D03*
X0163360Y0178922D03*
X0163360Y0178589D03*
X0163360Y0178256D03*
X0163360Y0177923D03*
X0163360Y0177590D03*
X0163360Y0177257D03*
X0163360Y0176925D03*
X0163360Y0176592D03*
X0163360Y0176259D03*
X0163360Y0175926D03*
X0163360Y0175593D03*
X0163360Y0175260D03*
X0163360Y0174927D03*
X0163360Y0174594D03*
X0163360Y0174262D03*
X0163360Y0173929D03*
X0163360Y0173596D03*
X0163360Y0173263D03*
X0163360Y0172930D03*
X0163360Y0172597D03*
X0163360Y0172264D03*
X0163360Y0171599D03*
X0163360Y0171266D03*
X0163360Y0170933D03*
X0163360Y0170600D03*
X0163360Y0170267D03*
X0163360Y0169934D03*
X0163360Y0169601D03*
X0163360Y0169269D03*
X0163360Y0168936D03*
X0163360Y0168603D03*
X0163360Y0168270D03*
X0163360Y0167937D03*
X0163360Y0167604D03*
X0163360Y0167271D03*
X0163360Y0166938D03*
X0163360Y0166606D03*
X0163360Y0166273D03*
X0163360Y0165940D03*
X0163360Y0165607D03*
X0163360Y0165274D03*
X0163360Y0164941D03*
X0163360Y0164608D03*
X0163360Y0164275D03*
X0163360Y0163943D03*
X0163360Y0163610D03*
X0163360Y0163277D03*
X0163360Y0162944D03*
X0163360Y0162611D03*
X0163360Y0161945D03*
X0163360Y0161612D03*
X0163360Y0161280D03*
X0163360Y0160947D03*
X0163360Y0160614D03*
X0163360Y0160281D03*
X0163360Y0159948D03*
X0163360Y0159615D03*
X0163360Y0159282D03*
X0163360Y0158949D03*
X0163360Y0158617D03*
X0163360Y0158284D03*
X0164026Y0157285D03*
X0170684Y0172930D03*
X0177341Y0177923D03*
X0178007Y0178922D03*
X0177341Y0180919D03*
X0182667Y0178922D03*
X0183333Y0178922D03*
X0182667Y0163943D03*
X0178007Y0162944D03*
X0177341Y0161945D03*
X0177341Y0164941D03*
X0195982Y0164941D03*
X0196648Y0164941D03*
X0219949Y0170933D03*
X0220615Y0170933D03*
X0233264Y0186245D03*
X0233264Y0190572D03*
X0265220Y0203222D03*
X0266551Y0203887D03*
X0267217Y0203887D03*
X0267883Y0203555D03*
X0268549Y0203555D03*
X0266551Y0205219D03*
X0275872Y0157951D03*
X0275872Y0157618D03*
X0210918Y0039433D03*
X0069780Y0049434D03*
X0180004Y0214206D03*
X0178673Y0216869D03*
D114*
X0200476Y0206550D03*
X0200476Y0206218D03*
X0200476Y0202889D03*
X0200476Y0202556D03*
X0206135Y0214539D03*
X0206135Y0214872D03*
X0206800Y0219200D03*
X0219117Y0202889D03*
X0219117Y0202556D03*
X0225441Y0202889D03*
X0225441Y0206550D03*
X0229103Y0211876D03*
X0229103Y0212209D03*
X0229103Y0212542D03*
X0229103Y0212875D03*
X0229103Y0213208D03*
X0229103Y0213541D03*
X0229103Y0213874D03*
X0229103Y0215871D03*
X0229103Y0216204D03*
X0229103Y0216537D03*
X0229103Y0216869D03*
X0229103Y0217202D03*
X0229103Y0217535D03*
X0229103Y0217868D03*
X0229103Y0218201D03*
X0234762Y0219200D03*
X0244748Y0219200D03*
X0244748Y0219533D03*
X0244748Y0219865D03*
X0244082Y0204553D03*
X0244082Y0204220D03*
X0246413Y0189907D03*
X0246413Y0189574D03*
X0246413Y0189241D03*
X0246413Y0188908D03*
X0246413Y0188575D03*
X0246413Y0188242D03*
X0246413Y0187909D03*
X0246413Y0187577D03*
X0246413Y0187244D03*
X0246413Y0186911D03*
X0235761Y0190240D03*
X0235761Y0190572D03*
X0230767Y0190572D03*
X0259062Y0189907D03*
X0259062Y0189574D03*
X0259062Y0189241D03*
X0259062Y0188908D03*
X0259062Y0187909D03*
X0259062Y0187577D03*
X0259062Y0187244D03*
X0259062Y0186911D03*
X0269714Y0187577D03*
X0269714Y0187909D03*
X0269714Y0188242D03*
X0269714Y0188575D03*
X0269714Y0188908D03*
X0269714Y0189241D03*
X0274374Y0189574D03*
X0274374Y0189907D03*
X0274374Y0187244D03*
X0274374Y0186911D03*
X0197104Y0141958D03*
X0175800Y0088033D03*
X0109225Y0087049D03*
X0071278Y0039115D03*
X0050307Y0093373D03*
X0045646Y0103359D03*
X0088254Y0141307D03*
D115*
X0076271Y0093373D03*
X0097242Y0039115D03*
X0214746Y0091362D03*
X0255067Y0185579D03*
X0255067Y0185912D03*
D116*
X0222070Y0045092D03*
X0065286Y0039448D03*
X0060959Y0048768D03*
X0085967Y0290102D03*
X0079643Y0290768D03*
D117*
X0135732Y0291433D03*
X0160365Y0291433D03*
X0160365Y0288105D03*
X0071444Y0039448D03*
D118*
X0187617Y0040432D03*
D119*
X0211584Y0040432D03*
X0065785Y0048768D03*
X0086799Y0286773D03*
X0090128Y0290102D03*
X0081473Y0289436D03*
X0081473Y0288770D03*
X0077479Y0288105D03*
X0140725Y0287439D03*
X0172015Y0291433D03*
X0176675Y0286773D03*
X0177341Y0287439D03*
D120*
X0190823Y0219865D03*
X0182834Y0214872D03*
X0164525Y0212542D03*
X0164525Y0218534D03*
X0236759Y0189241D03*
X0236759Y0188908D03*
X0245038Y0103012D03*
X0223734Y0049087D03*
X0071944Y0039781D03*
X0060958Y0049101D03*
X0050972Y0094039D03*
X0039988Y0103359D03*
D121*
X0073941Y0094372D03*
X0095910Y0069739D03*
X0094912Y0040113D03*
X0074939Y0123998D03*
D122*
X0187118Y0041098D03*
X0208422Y0095023D03*
D123*
X0095078Y0040446D03*
D124*
X0186619Y0041431D03*
X0207922Y0095356D03*
D125*
X0185287Y0043761D03*
X0095411Y0040779D03*
X0095411Y0069073D03*
D126*
X0187784Y0072388D03*
X0207756Y0095689D03*
X0209088Y0126313D03*
X0186452Y0041763D03*
D127*
X0185120Y0044093D03*
X0095578Y0041112D03*
X0074606Y0095370D03*
D128*
X0186119Y0042096D03*
D129*
X0220239Y0042096D03*
X0191322Y0211543D03*
X0182001Y0212209D03*
X0182667Y0215205D03*
X0182667Y0215538D03*
X0182667Y0215871D03*
X0174012Y0219200D03*
X0164692Y0212875D03*
D130*
X0073941Y0122666D03*
X0074939Y0095703D03*
X0094912Y0068408D03*
X0095910Y0041445D03*
D131*
X0096743Y0070738D03*
X0185953Y0042429D03*
D132*
X0220072Y0042429D03*
X0181502Y0218534D03*
X0173513Y0218534D03*
X0191488Y0219533D03*
D133*
X0099282Y0290435D03*
X0079643Y0290435D03*
X0064287Y0041778D03*
D134*
X0096243Y0041778D03*
D135*
X0185620Y0042762D03*
D136*
X0215246Y0042762D03*
X0160365Y0287772D03*
X0160365Y0291100D03*
X0135732Y0291100D03*
X0092458Y0287106D03*
D137*
X0070945Y0119337D03*
X0072276Y0096369D03*
X0091916Y0065079D03*
X0093247Y0042111D03*
X0193109Y0066063D03*
X0214413Y0119989D03*
D138*
X0185454Y0043095D03*
X0096243Y0070072D03*
D139*
X0164193Y0211876D03*
X0164193Y0219200D03*
X0206468Y0210878D03*
X0213791Y0210878D03*
X0251738Y0219200D03*
X0274041Y0190572D03*
X0274041Y0190240D03*
X0274041Y0186578D03*
X0274041Y0186245D03*
X0215412Y0043761D03*
X0215079Y0043095D03*
D140*
X0195649Y0191238D03*
X0093414Y0042443D03*
X0070778Y0119005D03*
D141*
X0185121Y0043428D03*
D142*
X0215246Y0043428D03*
X0231600Y0204220D03*
X0231600Y0204553D03*
X0234928Y0219533D03*
X0234928Y0219865D03*
X0250241Y0203887D03*
X0214290Y0215205D03*
X0214290Y0215538D03*
X0206967Y0219533D03*
X0206967Y0219865D03*
X0188992Y0213541D03*
X0173680Y0219533D03*
X0163028Y0204553D03*
X0163028Y0204220D03*
D143*
X0080099Y0103359D03*
X0080099Y0103027D03*
X0080099Y0102361D03*
X0093414Y0066743D03*
X0098074Y0043442D03*
X0097408Y0043109D03*
X0096743Y0042776D03*
D144*
X0073441Y0122000D03*
X0183956Y0046424D03*
X0185287Y0044759D03*
X0185953Y0044426D03*
X0210585Y0096688D03*
X0207257Y0098352D03*
X0206591Y0098685D03*
X0205259Y0100349D03*
D145*
X0205759Y0104677D03*
X0205759Y0105009D03*
X0205759Y0105342D03*
X0184455Y0051417D03*
X0184455Y0051084D03*
X0184455Y0050751D03*
X0100904Y0049767D03*
X0100904Y0049434D03*
X0100570Y0050100D03*
X0100570Y0050433D03*
X0098241Y0043775D03*
X0079932Y0103692D03*
X0079932Y0104025D03*
D146*
X0098240Y0044108D03*
D147*
X0184621Y0045092D03*
D148*
X0216577Y0045092D03*
X0196315Y0162278D03*
X0191655Y0162278D03*
X0189657Y0162278D03*
X0186994Y0162278D03*
X0184997Y0162278D03*
X0182334Y0162278D03*
X0180337Y0162278D03*
X0171017Y0162278D03*
X0260893Y0284110D03*
X0079809Y0286107D03*
X0066494Y0292765D03*
X0062500Y0288105D03*
X0060502Y0285442D03*
X0061168Y0284110D03*
X0058505Y0283444D03*
X0064497Y0282113D03*
X0058505Y0291433D03*
D149*
X0098573Y0044441D03*
D150*
X0184455Y0045425D03*
X0205759Y0099351D03*
D151*
X0236882Y0102679D03*
X0215579Y0048754D03*
X0229269Y0187244D03*
X0229269Y0189574D03*
X0229269Y0189907D03*
X0243250Y0203887D03*
X0257897Y0210212D03*
X0257897Y0210545D03*
X0257897Y0210878D03*
X0257897Y0219200D03*
X0257897Y0219533D03*
X0257897Y0219865D03*
X0193319Y0211211D03*
X0187993Y0214206D03*
X0175344Y0213874D03*
X0175344Y0213541D03*
X0175344Y0213208D03*
X0175344Y0212875D03*
X0175344Y0212542D03*
X0175344Y0212209D03*
X0175344Y0211876D03*
X0175344Y0211543D03*
X0166689Y0213874D03*
X0166689Y0214206D03*
X0166689Y0214539D03*
X0166689Y0214872D03*
X0166689Y0215205D03*
X0166689Y0216537D03*
X0162029Y0217202D03*
X0162029Y0215205D03*
X0162029Y0214872D03*
X0164026Y0205219D03*
X0162029Y0203887D03*
X0049518Y0208881D03*
X0045147Y0102694D03*
X0049807Y0092707D03*
X0065785Y0049101D03*
X0069780Y0047437D03*
X0069780Y0045107D03*
X0069780Y0044774D03*
D152*
X0093913Y0067409D03*
X0100903Y0045439D03*
X0100238Y0044774D03*
X0072942Y0121667D03*
X0183789Y0047755D03*
X0191112Y0068393D03*
X0209753Y0097353D03*
X0205093Y0101348D03*
X0205093Y0101681D03*
X0212416Y0122319D03*
D153*
X0205093Y0101015D03*
X0205093Y0100682D03*
X0205759Y0099683D03*
X0207756Y0098019D03*
X0183789Y0047089D03*
X0183789Y0046757D03*
X0184455Y0045758D03*
D154*
X0221903Y0045758D03*
X0241210Y0095023D03*
X0243207Y0099683D03*
X0183000Y0214539D03*
X0173680Y0214872D03*
X0075149Y0211211D03*
D155*
X0100737Y0045107D03*
D156*
X0184288Y0046091D03*
X0205592Y0100016D03*
D157*
X0243374Y0100016D03*
X0243374Y0100349D03*
X0244705Y0103345D03*
X0223401Y0049419D03*
X0222070Y0046424D03*
X0222070Y0046091D03*
X0181835Y0211543D03*
X0181835Y0211876D03*
X0182168Y0212542D03*
X0182168Y0212875D03*
X0164526Y0213208D03*
X0164526Y0218201D03*
D158*
X0101403Y0047104D03*
X0101403Y0046771D03*
X0100737Y0045772D03*
D159*
X0163693Y0157618D03*
X0163693Y0157951D03*
X0168354Y0162944D03*
X0184331Y0162944D03*
X0197646Y0162611D03*
X0198978Y0172930D03*
X0217619Y0172930D03*
X0228271Y0186245D03*
X0228271Y0190572D03*
X0217619Y0215871D03*
X0264887Y0203887D03*
X0265553Y0204886D03*
X0266219Y0204553D03*
X0266884Y0204553D03*
X0268216Y0204220D03*
X0268216Y0202889D03*
X0268216Y0206218D03*
X0276205Y0206218D03*
X0276205Y0206550D03*
X0276205Y0206883D03*
X0276205Y0207216D03*
X0276205Y0207549D03*
X0276205Y0207882D03*
X0276205Y0208215D03*
X0276205Y0208548D03*
X0276205Y0208881D03*
X0276205Y0209213D03*
X0276205Y0209546D03*
X0276205Y0210212D03*
X0276205Y0210545D03*
X0276205Y0210878D03*
X0276205Y0211211D03*
X0276205Y0211543D03*
X0276205Y0211876D03*
X0276205Y0212209D03*
X0276205Y0212542D03*
X0276205Y0212875D03*
X0276205Y0213208D03*
X0276205Y0213541D03*
X0276205Y0213874D03*
X0276205Y0214206D03*
X0276205Y0214539D03*
X0276205Y0214872D03*
X0276205Y0215205D03*
X0276205Y0215538D03*
X0276205Y0215871D03*
X0276205Y0216204D03*
X0276205Y0216537D03*
X0276205Y0216869D03*
X0276205Y0217202D03*
X0276205Y0217535D03*
X0276205Y0217868D03*
X0276205Y0218201D03*
X0276205Y0218534D03*
X0276205Y0219200D03*
X0276205Y0219533D03*
X0276205Y0219865D03*
X0276205Y0220198D03*
X0276205Y0220531D03*
X0276205Y0220864D03*
X0276205Y0205885D03*
X0276205Y0205552D03*
X0276205Y0205219D03*
X0276205Y0204886D03*
X0276205Y0204553D03*
X0276205Y0204220D03*
X0276205Y0203887D03*
X0276205Y0203555D03*
X0276205Y0203222D03*
X0276205Y0202889D03*
X0276205Y0202556D03*
X0276205Y0183582D03*
X0276205Y0183249D03*
X0276205Y0182916D03*
X0276205Y0182583D03*
X0276205Y0182251D03*
X0276205Y0181918D03*
X0276205Y0181585D03*
X0276205Y0180919D03*
X0276205Y0180586D03*
X0276205Y0180253D03*
X0276205Y0179920D03*
X0276205Y0179588D03*
X0276205Y0179255D03*
X0276205Y0178922D03*
X0276205Y0178589D03*
X0276205Y0178256D03*
X0276205Y0177923D03*
X0276205Y0177590D03*
X0276205Y0177257D03*
X0276205Y0176925D03*
X0276205Y0176592D03*
X0276205Y0176259D03*
X0276205Y0175926D03*
X0276205Y0175593D03*
X0276205Y0175260D03*
X0276205Y0174927D03*
X0276205Y0174594D03*
X0276205Y0174262D03*
X0276205Y0173929D03*
X0276205Y0173596D03*
X0276205Y0173263D03*
X0276205Y0172930D03*
X0276205Y0172597D03*
X0276205Y0172264D03*
X0276205Y0171599D03*
X0276205Y0171266D03*
X0276205Y0170933D03*
X0276205Y0170600D03*
X0276205Y0170267D03*
X0276205Y0169934D03*
X0276205Y0169601D03*
X0276205Y0169269D03*
X0276205Y0168936D03*
X0276205Y0168603D03*
X0276205Y0168270D03*
X0276205Y0167937D03*
X0276205Y0167604D03*
X0276205Y0167271D03*
X0276205Y0166938D03*
X0276205Y0166606D03*
X0276205Y0166273D03*
X0276205Y0165940D03*
X0276205Y0165607D03*
X0276205Y0165274D03*
X0276205Y0164941D03*
X0276205Y0164608D03*
X0276205Y0164275D03*
X0276205Y0163943D03*
X0276205Y0163610D03*
X0276205Y0163277D03*
X0276205Y0162944D03*
X0276205Y0162611D03*
X0276205Y0161945D03*
X0276205Y0161612D03*
X0276205Y0161280D03*
X0276205Y0160947D03*
X0276205Y0160614D03*
X0276205Y0160281D03*
X0276205Y0159948D03*
X0276205Y0159615D03*
X0276205Y0159282D03*
X0276205Y0158949D03*
X0276205Y0158617D03*
X0276205Y0158284D03*
X0275539Y0157285D03*
X0237881Y0100682D03*
X0216577Y0046757D03*
X0051182Y0209213D03*
X0190323Y0295095D03*
X0262890Y0276121D03*
D160*
X0101070Y0046105D03*
D161*
X0221903Y0047089D03*
X0243207Y0101015D03*
X0244539Y0103678D03*
D162*
X0212626Y0171931D03*
X0203305Y0171931D03*
X0183333Y0171931D03*
X0090794Y0287772D03*
X0064830Y0285109D03*
X0064164Y0281780D03*
X0057506Y0285774D03*
X0058838Y0291766D03*
X0064830Y0209879D03*
X0068824Y0209879D03*
X0070821Y0209879D03*
X0076813Y0209879D03*
X0042860Y0209879D03*
X0041529Y0209879D03*
X0134068Y0291766D03*
X0140059Y0291766D03*
X0069780Y0046438D03*
X0066451Y0046438D03*
D163*
X0101236Y0046438D03*
X0183789Y0047422D03*
D164*
X0215412Y0047422D03*
X0237049Y0102014D03*
X0161197Y0288437D03*
X0160864Y0291766D03*
X0166523Y0291100D03*
X0146550Y0291766D03*
X0128908Y0289103D03*
X0079310Y0286440D03*
X0079310Y0291766D03*
X0065662Y0286440D03*
X0064996Y0283111D03*
X0059670Y0286440D03*
X0062666Y0293763D03*
D165*
X0067493Y0296094D03*
X0061501Y0283777D03*
X0101446Y0289769D03*
X0110766Y0289769D03*
X0110766Y0290435D03*
X0110766Y0289103D03*
X0110766Y0288437D03*
X0110766Y0287772D03*
X0110766Y0287106D03*
X0127410Y0289769D03*
X0127410Y0290435D03*
X0127410Y0291100D03*
X0130739Y0291100D03*
X0130739Y0290435D03*
X0130739Y0289769D03*
X0133402Y0289769D03*
X0133402Y0290435D03*
X0137396Y0290435D03*
X0137396Y0289769D03*
X0137396Y0289103D03*
X0137396Y0287106D03*
X0137396Y0286440D03*
X0139394Y0289769D03*
X0139394Y0290435D03*
X0137396Y0291766D03*
X0162029Y0290435D03*
X0162029Y0289769D03*
X0162029Y0289103D03*
X0162029Y0287106D03*
X0162029Y0286440D03*
X0164026Y0287106D03*
X0164026Y0287772D03*
X0164026Y0288437D03*
X0164692Y0290435D03*
X0168021Y0290435D03*
X0168021Y0289769D03*
X0170018Y0289769D03*
X0170018Y0289103D03*
X0170684Y0290435D03*
X0173347Y0290435D03*
X0174012Y0289769D03*
X0174012Y0289103D03*
X0174012Y0287106D03*
X0174012Y0286440D03*
X0176010Y0289769D03*
X0176010Y0290435D03*
X0170018Y0287106D03*
X0170018Y0286440D03*
X0168021Y0287106D03*
X0193985Y0286440D03*
X0261891Y0285774D03*
X0261891Y0306080D03*
X0218907Y0047422D03*
D166*
X0223235Y0047422D03*
X0040820Y0101029D03*
X0147715Y0286440D03*
X0147715Y0291100D03*
X0099781Y0291766D03*
X0092458Y0291100D03*
D167*
X0212749Y0121986D03*
X0205093Y0102346D03*
X0191445Y0068060D03*
X0183789Y0048421D03*
X0183789Y0048088D03*
X0101236Y0047769D03*
X0101236Y0047437D03*
D168*
X0183666Y0161945D03*
X0188326Y0161945D03*
X0197646Y0177923D03*
X0213624Y0202556D03*
X0213624Y0206218D03*
X0190323Y0215871D03*
X0189657Y0216537D03*
X0179671Y0217535D03*
X0175677Y0217535D03*
X0175677Y0217868D03*
X0172348Y0213874D03*
X0166356Y0217202D03*
X0162362Y0217535D03*
X0164359Y0211543D03*
X0234928Y0169934D03*
X0238257Y0202556D03*
X0238257Y0202889D03*
X0238257Y0206218D03*
X0237215Y0102346D03*
X0215911Y0048421D03*
X0062500Y0210212D03*
X0062500Y0210545D03*
X0062500Y0211211D03*
D169*
X0072776Y0121335D03*
X0183956Y0049087D03*
X0183956Y0048754D03*
X0205259Y0102679D03*
X0205259Y0103012D03*
D170*
X0205426Y0103345D03*
X0205426Y0103678D03*
X0209420Y0097686D03*
X0184122Y0049419D03*
X0101236Y0048435D03*
X0101236Y0048102D03*
X0080265Y0102694D03*
D171*
X0049474Y0092375D03*
X0044814Y0102361D03*
X0072486Y0209546D03*
X0073152Y0211543D03*
X0069157Y0211211D03*
X0164359Y0205885D03*
X0179006Y0171266D03*
X0211627Y0172597D03*
X0242917Y0203222D03*
X0242917Y0203555D03*
X0250241Y0206218D03*
X0250241Y0206550D03*
X0258230Y0211211D03*
X0258230Y0211543D03*
X0258230Y0211876D03*
X0258230Y0212209D03*
X0258230Y0212542D03*
X0258230Y0212875D03*
X0258230Y0213208D03*
X0258230Y0213541D03*
X0258230Y0213874D03*
X0258230Y0214206D03*
X0258230Y0214539D03*
X0258230Y0214872D03*
X0258230Y0215205D03*
X0258230Y0215538D03*
X0258230Y0215871D03*
X0258230Y0216204D03*
X0258230Y0216537D03*
X0258230Y0216869D03*
X0258230Y0217202D03*
X0258230Y0217535D03*
X0258230Y0217868D03*
X0258230Y0218201D03*
X0258230Y0218534D03*
X0266219Y0208881D03*
X0266219Y0207882D03*
X0268216Y0207549D03*
X0268216Y0206883D03*
X0268216Y0206550D03*
X0236550Y0103012D03*
X0215246Y0049087D03*
D172*
X0069780Y0048768D03*
X0060835Y0282113D03*
X0064164Y0284110D03*
X0064830Y0285442D03*
X0064164Y0286773D03*
X0066827Y0283444D03*
X0058838Y0287439D03*
X0056841Y0287439D03*
X0059504Y0290102D03*
X0058838Y0292765D03*
X0084136Y0292099D03*
X0193985Y0286773D03*
D173*
X0101070Y0048768D03*
D174*
X0184122Y0049752D03*
D175*
X0223235Y0049752D03*
X0194983Y0289436D03*
X0194983Y0294096D03*
D176*
X0212916Y0121653D03*
X0205592Y0104344D03*
X0205592Y0104011D03*
X0191612Y0067728D03*
X0184288Y0050418D03*
X0184288Y0050085D03*
X0101070Y0049101D03*
X0079766Y0101362D03*
X0079766Y0101695D03*
X0079766Y0102028D03*
X0072443Y0121002D03*
D177*
X0222902Y0050085D03*
X0244206Y0104011D03*
D178*
X0244039Y0104344D03*
X0230391Y0076382D03*
X0222735Y0050418D03*
X0176133Y0086701D03*
X0197437Y0140627D03*
X0270712Y0212875D03*
X0062623Y0049434D03*
X0055300Y0075731D03*
D179*
X0062290Y0050433D03*
X0062623Y0049767D03*
X0222403Y0050751D03*
X0243706Y0104677D03*
D180*
X0270546Y0213208D03*
X0270546Y0219200D03*
X0270546Y0219533D03*
X0109059Y0085717D03*
X0062456Y0050100D03*
D181*
X0222236Y0051084D03*
X0238880Y0095356D03*
X0243540Y0105009D03*
X0270546Y0221530D03*
D182*
X0243041Y0105342D03*
X0221737Y0051417D03*
D183*
X0100404Y0050765D03*
X0093081Y0066410D03*
D184*
X0072110Y0120669D03*
X0184621Y0051750D03*
X0191944Y0067395D03*
X0205925Y0105675D03*
X0213248Y0121320D03*
D185*
X0242874Y0105675D03*
X0221570Y0051750D03*
D186*
X0062623Y0051098D03*
D187*
X0099905Y0051098D03*
X0213415Y0120987D03*
D188*
X0215079Y0111334D03*
X0191445Y0052082D03*
D189*
X0191778Y0053081D03*
X0192111Y0053747D03*
X0192777Y0055078D03*
X0193109Y0055744D03*
X0193775Y0057408D03*
X0193775Y0057741D03*
X0194108Y0058074D03*
X0194108Y0058407D03*
X0212749Y0106008D03*
X0213082Y0107007D03*
X0213415Y0107672D03*
X0213748Y0108338D03*
X0214081Y0109004D03*
X0214413Y0109670D03*
X0215079Y0111667D03*
X0215412Y0112000D03*
X0215412Y0112333D03*
X0092581Y0053761D03*
X0092249Y0054427D03*
X0091916Y0055093D03*
X0091583Y0055758D03*
X0091250Y0056424D03*
X0091250Y0056757D03*
X0091250Y0057090D03*
X0090917Y0057756D03*
X0093580Y0051431D03*
X0072942Y0104691D03*
X0072942Y0105024D03*
X0072609Y0105690D03*
X0071611Y0108020D03*
X0071278Y0108685D03*
X0070945Y0109351D03*
X0070612Y0110017D03*
X0070279Y0110683D03*
X0070279Y0111016D03*
X0070279Y0111348D03*
X0069946Y0112014D03*
D190*
X0071111Y0109018D03*
X0071777Y0107687D03*
X0071777Y0107354D03*
X0072443Y0106355D03*
X0072443Y0106022D03*
X0091749Y0055426D03*
X0092415Y0054094D03*
X0093081Y0052763D03*
X0093081Y0052430D03*
X0191612Y0052415D03*
X0191612Y0052748D03*
X0192277Y0054080D03*
X0192943Y0055411D03*
X0193609Y0056743D03*
X0212916Y0106674D03*
X0213581Y0108005D03*
X0214247Y0109337D03*
X0214913Y0110668D03*
X0214913Y0111001D03*
D191*
X0214580Y0110335D03*
X0214580Y0110003D03*
X0213914Y0108671D03*
X0213248Y0107340D03*
X0193276Y0056410D03*
X0193276Y0056077D03*
X0192610Y0054745D03*
X0191944Y0053414D03*
X0093414Y0052097D03*
X0093414Y0051764D03*
X0092748Y0053095D03*
X0092082Y0054760D03*
X0072110Y0106688D03*
X0072110Y0107021D03*
X0071444Y0108353D03*
X0070778Y0109684D03*
D192*
X0072776Y0105357D03*
X0092748Y0053428D03*
D193*
X0192444Y0054413D03*
D194*
X0091417Y0056091D03*
D195*
X0070445Y0110350D03*
X0193609Y0057076D03*
D196*
X0194275Y0058740D03*
X0215579Y0112666D03*
X0215579Y0112998D03*
X0091084Y0057423D03*
X0073108Y0104358D03*
X0069780Y0112347D03*
X0069780Y0112680D03*
D197*
X0090751Y0058089D03*
D198*
X0194275Y0059073D03*
D199*
X0090751Y0058421D03*
X0070113Y0111681D03*
D200*
X0069613Y0113013D03*
X0090584Y0058754D03*
X0194441Y0059406D03*
X0194441Y0059739D03*
X0215745Y0113331D03*
X0215745Y0113664D03*
D201*
X0215911Y0113997D03*
X0215911Y0114330D03*
X0194607Y0060404D03*
X0194607Y0060071D03*
X0090751Y0059087D03*
D202*
X0090584Y0059420D03*
X0090584Y0059753D03*
X0069613Y0113679D03*
X0069613Y0114011D03*
D203*
X0069447Y0114344D03*
X0194607Y0061403D03*
X0194607Y0061070D03*
X0194607Y0060737D03*
X0215911Y0114663D03*
X0215911Y0114996D03*
X0215911Y0115329D03*
D204*
X0090418Y0060086D03*
D205*
X0090584Y0060419D03*
X0069613Y0114677D03*
D206*
X0090418Y0060752D03*
D207*
X0194607Y0061736D03*
D208*
X0090418Y0061084D03*
D209*
X0069447Y0115343D03*
X0194607Y0062069D03*
X0215911Y0115661D03*
D210*
X0090418Y0061417D03*
D211*
X0069447Y0115676D03*
X0194607Y0062734D03*
X0194607Y0062402D03*
X0215911Y0116327D03*
X0215911Y0116660D03*
D212*
X0090584Y0062083D03*
X0090584Y0061750D03*
X0069613Y0116009D03*
X0069613Y0116342D03*
D213*
X0194607Y0063067D03*
X0215911Y0116993D03*
D214*
X0215745Y0117326D03*
X0194441Y0063400D03*
X0090584Y0062416D03*
X0069613Y0116674D03*
D215*
X0090751Y0062749D03*
X0194607Y0063733D03*
X0215911Y0117659D03*
D216*
X0090751Y0063082D03*
D217*
X0194441Y0064066D03*
D218*
X0090917Y0063415D03*
X0069946Y0117673D03*
D219*
X0194275Y0064399D03*
X0215579Y0118324D03*
D220*
X0215412Y0118657D03*
X0194108Y0064732D03*
X0090917Y0063747D03*
X0073275Y0097701D03*
X0069946Y0118006D03*
D221*
X0070279Y0118339D03*
X0072942Y0097368D03*
X0091250Y0064080D03*
D222*
X0193942Y0065065D03*
X0215246Y0118990D03*
D223*
X0091417Y0064413D03*
D224*
X0193609Y0065397D03*
D225*
X0091749Y0064746D03*
X0072443Y0096702D03*
D226*
X0193442Y0065730D03*
X0214746Y0119656D03*
X0195483Y0185579D03*
X0195483Y0185912D03*
X0195483Y0186245D03*
X0195483Y0186578D03*
X0195483Y0186911D03*
X0195483Y0187244D03*
X0195483Y0187577D03*
X0195483Y0187909D03*
X0195483Y0188242D03*
X0195483Y0188575D03*
X0195483Y0188908D03*
X0195483Y0189241D03*
X0195483Y0189574D03*
X0195483Y0189907D03*
X0195483Y0190240D03*
X0195483Y0190572D03*
D227*
X0092415Y0065412D03*
X0077103Y0099365D03*
D228*
X0077602Y0100364D03*
X0192777Y0066396D03*
X0214081Y0120322D03*
D229*
X0092582Y0065745D03*
D230*
X0076770Y0098699D03*
X0078102Y0100696D03*
X0192610Y0066729D03*
X0213914Y0096355D03*
X0213914Y0120655D03*
D231*
X0192111Y0067062D03*
X0092915Y0066078D03*
X0076604Y0098033D03*
X0071943Y0120336D03*
D232*
X0093747Y0067076D03*
D233*
X0094412Y0067742D03*
X0190946Y0068726D03*
D234*
X0094579Y0068075D03*
X0073608Y0122333D03*
D235*
X0190613Y0069059D03*
X0205925Y0099018D03*
X0211917Y0122985D03*
D236*
X0211584Y0123317D03*
X0190280Y0069392D03*
D237*
X0095078Y0068741D03*
D238*
X0074107Y0122999D03*
X0189947Y0069725D03*
X0211251Y0123650D03*
D239*
X0211085Y0123983D03*
X0189781Y0070058D03*
D240*
X0189448Y0070391D03*
X0210752Y0124316D03*
X0095577Y0069406D03*
X0074606Y0123665D03*
D241*
X0189281Y0070723D03*
X0210585Y0124649D03*
D242*
X0210253Y0124982D03*
X0188949Y0071056D03*
D243*
X0096576Y0070405D03*
X0075605Y0124663D03*
D244*
X0188616Y0071389D03*
D245*
X0188283Y0071722D03*
X0209587Y0125648D03*
X0075771Y0124996D03*
D246*
X0097075Y0071071D03*
D247*
X0076104Y0125329D03*
X0187950Y0072055D03*
X0209254Y0125981D03*
D248*
X0097408Y0071404D03*
D249*
X0097575Y0071736D03*
X0076604Y0125995D03*
X0187451Y0072721D03*
X0208755Y0126646D03*
D250*
X0098240Y0072402D03*
D251*
X0186951Y0073386D03*
D252*
X0186785Y0073719D03*
X0219739Y0089364D03*
X0208089Y0127645D03*
X0098573Y0072735D03*
X0077602Y0126994D03*
D253*
X0063788Y0086383D03*
X0100404Y0075065D03*
D254*
X0184788Y0076049D03*
X0221737Y0087034D03*
X0206092Y0129975D03*
D255*
X0055466Y0076064D03*
D256*
X0062956Y0085384D03*
X0080265Y0130322D03*
X0101236Y0076064D03*
X0183789Y0077048D03*
X0222403Y0086036D03*
X0205093Y0130974D03*
D257*
X0101569Y0076397D03*
X0080598Y0130655D03*
D258*
X0087256Y0138644D03*
X0108227Y0084386D03*
X0176799Y0085370D03*
X0198103Y0139295D03*
X0229393Y0077714D03*
D259*
X0183123Y0078047D03*
X0102235Y0077062D03*
D260*
X0229226Y0078047D03*
D261*
X0223568Y0084704D03*
X0102401Y0077395D03*
X0061791Y0084053D03*
D262*
X0182791Y0078380D03*
X0204094Y0132305D03*
X0243084Y0208548D03*
X0243084Y0208881D03*
X0243084Y0209213D03*
X0243084Y0209546D03*
X0243084Y0220198D03*
X0243084Y0220531D03*
X0243084Y0220864D03*
X0243084Y0221197D03*
X0243084Y0221530D03*
D263*
X0107394Y0083387D03*
X0056798Y0078061D03*
D264*
X0228394Y0079045D03*
D265*
X0107062Y0083054D03*
X0057131Y0078394D03*
D266*
X0060959Y0083054D03*
X0082263Y0132652D03*
X0103233Y0078394D03*
D267*
X0181958Y0079378D03*
X0224566Y0083705D03*
X0203262Y0133304D03*
D268*
X0057463Y0078727D03*
D269*
X0060792Y0082721D03*
X0103400Y0078727D03*
D270*
X0227562Y0080044D03*
D271*
X0200100Y0136965D03*
X0057963Y0079393D03*
D272*
X0181126Y0080377D03*
X0202430Y0134302D03*
D273*
X0225565Y0082374D03*
X0104399Y0079725D03*
X0059794Y0081723D03*
D274*
X0180793Y0080710D03*
D275*
X0105397Y0081057D03*
X0058795Y0080391D03*
X0210296Y0208548D03*
X0210296Y0208881D03*
X0210296Y0209213D03*
X0210296Y0209546D03*
X0210296Y0220198D03*
X0210296Y0220531D03*
X0210296Y0220864D03*
X0210296Y0221197D03*
D276*
X0201265Y0135634D03*
X0179961Y0081708D03*
X0226563Y0081375D03*
X0084093Y0134982D03*
D277*
X0105064Y0080724D03*
X0059128Y0080724D03*
D278*
X0179129Y0082707D03*
X0200433Y0136632D03*
D279*
X0060126Y0082056D03*
D280*
X0106396Y0082056D03*
D281*
X0178796Y0083040D03*
D282*
X0225066Y0083040D03*
D283*
X0060459Y0082388D03*
D284*
X0086091Y0137313D03*
X0177964Y0084038D03*
X0199268Y0137964D03*
D285*
X0198768Y0138630D03*
X0177464Y0084704D03*
D286*
X0062124Y0084386D03*
D287*
X0062456Y0084718D03*
D288*
X0062789Y0085051D03*
D289*
X0087921Y0139643D03*
X0108893Y0085384D03*
D290*
X0175967Y0087034D03*
X0197270Y0140960D03*
D291*
X0063954Y0086716D03*
D292*
X0221071Y0087700D03*
D293*
X0208921Y0094357D03*
X0076437Y0093706D03*
X0065785Y0088713D03*
D294*
X0066451Y0089379D03*
X0077103Y0126328D03*
D295*
X0212916Y0092360D03*
D296*
X0075771Y0092707D03*
D297*
X0163860Y0204886D03*
X0169186Y0206550D03*
X0166523Y0213541D03*
X0166523Y0216869D03*
X0170850Y0216869D03*
X0170850Y0216537D03*
X0170850Y0216204D03*
X0170850Y0217202D03*
X0175510Y0217202D03*
X0175510Y0216869D03*
X0175510Y0216537D03*
X0175510Y0216204D03*
X0175510Y0215871D03*
X0180836Y0216204D03*
X0183499Y0219865D03*
X0191156Y0215205D03*
X0191488Y0214872D03*
X0191821Y0214539D03*
X0192154Y0214206D03*
X0192487Y0213874D03*
X0192820Y0213541D03*
X0194817Y0206550D03*
X0213458Y0206550D03*
X0232099Y0187577D03*
X0232099Y0187244D03*
X0232099Y0186578D03*
X0235095Y0186911D03*
X0235095Y0187244D03*
X0235095Y0187577D03*
X0235095Y0187909D03*
X0241752Y0188242D03*
X0241752Y0188575D03*
X0241752Y0186578D03*
X0241752Y0186245D03*
X0245747Y0186245D03*
X0245747Y0186578D03*
X0251073Y0187577D03*
X0251073Y0187909D03*
X0251073Y0188242D03*
X0251073Y0188575D03*
X0251073Y0188908D03*
X0251073Y0189241D03*
X0252404Y0190240D03*
X0252404Y0190572D03*
X0252404Y0186578D03*
X0252404Y0186245D03*
X0238424Y0206550D03*
X0265719Y0208215D03*
X0265719Y0208548D03*
X0273708Y0207882D03*
X0261059Y0276121D03*
X0261392Y0333043D03*
X0161863Y0216869D03*
X0161863Y0215538D03*
X0162195Y0214539D03*
X0162528Y0213541D03*
X0179172Y0180919D03*
X0179172Y0179255D03*
X0179172Y0177923D03*
X0174512Y0171266D03*
X0174512Y0164941D03*
X0179172Y0164941D03*
X0179172Y0163277D03*
X0179172Y0161945D03*
X0170184Y0162611D03*
X0170184Y0162944D03*
X0169852Y0164941D03*
X0188493Y0172930D03*
X0192820Y0180586D03*
X0197813Y0172597D03*
X0198146Y0170933D03*
X0198146Y0170600D03*
X0201807Y0169934D03*
X0201807Y0169601D03*
X0201807Y0172597D03*
X0216454Y0172597D03*
X0216787Y0170933D03*
X0216787Y0170600D03*
X0236050Y0094357D03*
X0062333Y0208215D03*
X0062333Y0208548D03*
X0058672Y0208548D03*
X0058672Y0208215D03*
X0049684Y0210878D03*
X0047687Y0211211D03*
X0047687Y0208548D03*
X0047687Y0208215D03*
X0044358Y0208548D03*
X0040363Y0208548D03*
X0040363Y0208215D03*
D298*
X0050473Y0093706D03*
X0206634Y0210212D03*
X0206634Y0210545D03*
X0213957Y0210545D03*
X0213957Y0210212D03*
X0213957Y0219200D03*
X0213957Y0219533D03*
X0213957Y0219865D03*
X0251905Y0219865D03*
X0251905Y0219533D03*
D299*
X0256565Y0204553D03*
X0256565Y0204220D03*
X0225275Y0202556D03*
X0225275Y0206218D03*
X0205968Y0214206D03*
X0235551Y0095023D03*
D300*
X0074107Y0094705D03*
D301*
X0239213Y0095689D03*
D302*
X0074440Y0095038D03*
X0074440Y0123332D03*
D303*
X0208089Y0096022D03*
D304*
X0099282Y0290768D03*
X0099615Y0291433D03*
X0043316Y0096036D03*
D305*
X0075272Y0096036D03*
D306*
X0210086Y0097020D03*
D307*
X0072776Y0097035D03*
D308*
X0076770Y0098366D03*
D309*
X0076937Y0099032D03*
D310*
X0077103Y0099698D03*
X0077103Y0100031D03*
D311*
X0048309Y0101029D03*
X0062666Y0281114D03*
X0064996Y0282446D03*
X0060336Y0282446D03*
X0060336Y0285774D03*
X0059004Y0287106D03*
X0062666Y0287772D03*
X0062666Y0289769D03*
X0064663Y0291100D03*
X0066661Y0287106D03*
X0063998Y0296094D03*
X0065662Y0296759D03*
X0061335Y0296094D03*
X0059670Y0296759D03*
X0127244Y0291766D03*
X0130572Y0291766D03*
X0135565Y0291766D03*
X0143554Y0291766D03*
X0191821Y0291766D03*
X0191821Y0291100D03*
X0191821Y0290435D03*
X0191821Y0289769D03*
X0191821Y0292432D03*
X0191821Y0293098D03*
X0191821Y0293763D03*
X0198146Y0293763D03*
X0198146Y0293098D03*
X0198146Y0292432D03*
X0198146Y0291766D03*
X0198146Y0291100D03*
X0198146Y0290435D03*
X0198146Y0289769D03*
X0197480Y0285109D03*
X0194151Y0285774D03*
X0191488Y0285774D03*
X0191488Y0285109D03*
X0260726Y0284443D03*
X0261392Y0277120D03*
X0261392Y0306745D03*
X0269381Y0209879D03*
X0210462Y0171931D03*
D312*
X0079766Y0101029D03*
D313*
X0205093Y0102014D03*
D314*
X0042983Y0104025D03*
D315*
X0212916Y0106341D03*
D316*
X0069780Y0113346D03*
D317*
X0069447Y0115010D03*
X0215911Y0115994D03*
D318*
X0069780Y0117007D03*
D319*
X0215745Y0117992D03*
D320*
X0069780Y0117340D03*
D321*
X0070445Y0118672D03*
X0214913Y0119323D03*
D322*
X0071444Y0119670D03*
D323*
X0071610Y0120003D03*
D324*
X0212250Y0122652D03*
D325*
X0075272Y0124331D03*
D326*
X0209920Y0125315D03*
D327*
X0076437Y0125662D03*
D328*
X0208255Y0127312D03*
D329*
X0078102Y0127659D03*
D330*
X0079433Y0129324D03*
D331*
X0081430Y0131654D03*
D332*
X0081763Y0131987D03*
D333*
X0201931Y0134635D03*
D334*
X0083428Y0133984D03*
D335*
X0201764Y0134968D03*
D336*
X0085425Y0136314D03*
D337*
X0087089Y0138311D03*
D338*
X0087755Y0139310D03*
X0270546Y0221197D03*
D339*
X0088088Y0139976D03*
D340*
X0219782Y0155954D03*
D341*
X0163360Y0162278D03*
X0163360Y0181252D03*
X0190656Y0281447D03*
X0193985Y0285442D03*
X0199311Y0292765D03*
X0163360Y0286773D03*
X0259894Y0283444D03*
X0259894Y0280116D03*
X0262557Y0275122D03*
X0260560Y0336371D03*
X0060835Y0291433D03*
D342*
X0065995Y0290102D03*
X0067659Y0286107D03*
X0057673Y0286107D03*
X0087299Y0286107D03*
X0090960Y0287439D03*
X0092292Y0292099D03*
X0100614Y0286107D03*
X0191488Y0286107D03*
X0191488Y0285442D03*
X0192487Y0286773D03*
X0192487Y0287439D03*
X0191821Y0290102D03*
X0191821Y0290768D03*
X0191821Y0291433D03*
X0191821Y0292099D03*
X0191821Y0292765D03*
X0191821Y0293431D03*
X0198146Y0293431D03*
X0198146Y0292765D03*
X0198146Y0292099D03*
X0198146Y0291433D03*
X0198146Y0290768D03*
X0198146Y0290102D03*
X0193153Y0284110D03*
X0261059Y0283444D03*
X0169186Y0162278D03*
D343*
X0175510Y0162278D03*
X0194151Y0162278D03*
X0198812Y0162278D03*
X0202806Y0218867D03*
X0199477Y0281447D03*
X0199477Y0282113D03*
X0199477Y0282779D03*
X0199477Y0283444D03*
X0199477Y0284110D03*
X0199477Y0284776D03*
X0199477Y0285442D03*
X0199477Y0286107D03*
X0199477Y0286773D03*
X0199477Y0287439D03*
X0199477Y0288105D03*
X0199477Y0288770D03*
X0199477Y0289436D03*
X0199477Y0290102D03*
X0199477Y0290768D03*
X0199477Y0291433D03*
X0199477Y0292099D03*
X0199477Y0293431D03*
X0199477Y0294096D03*
X0199477Y0294762D03*
X0197480Y0286107D03*
X0197480Y0284776D03*
X0195816Y0283444D03*
X0260060Y0282113D03*
X0260060Y0281447D03*
X0260060Y0280781D03*
X0261392Y0280781D03*
X0261392Y0281447D03*
X0263056Y0281447D03*
X0263056Y0280781D03*
X0263056Y0280116D03*
X0263056Y0282113D03*
X0263056Y0284776D03*
X0260060Y0285442D03*
X0260060Y0273791D03*
X0260060Y0273125D03*
X0261059Y0269796D03*
X0261059Y0269131D03*
X0263056Y0269131D03*
X0263056Y0269796D03*
X0263056Y0273125D03*
X0263056Y0273791D03*
X0263056Y0302418D03*
X0263056Y0303084D03*
X0260060Y0303084D03*
X0260060Y0302418D03*
X0260060Y0334374D03*
X0260060Y0335040D03*
X0261392Y0337703D03*
X0261392Y0338369D03*
X0261392Y0339034D03*
X0263056Y0339034D03*
X0263056Y0338369D03*
X0263056Y0337703D03*
X0263056Y0339700D03*
X0263056Y0341697D03*
X0263056Y0342363D03*
X0263056Y0343029D03*
X0261392Y0342363D03*
X0261392Y0341697D03*
X0263056Y0335040D03*
X0263056Y0334374D03*
X0264721Y0218867D03*
X0096619Y0288770D03*
X0068658Y0287439D03*
X0068325Y0286773D03*
X0067659Y0285442D03*
X0067659Y0284776D03*
X0067326Y0284110D03*
X0064663Y0284776D03*
X0066660Y0287439D03*
X0066660Y0288105D03*
X0066660Y0288770D03*
X0067326Y0290102D03*
X0067326Y0290768D03*
X0066994Y0291433D03*
X0067326Y0293431D03*
X0067659Y0294096D03*
X0067992Y0294762D03*
X0067992Y0295761D03*
X0065329Y0294762D03*
X0064331Y0294096D03*
X0062666Y0294096D03*
X0062666Y0294762D03*
X0063332Y0295761D03*
X0062000Y0295761D03*
X0061002Y0294096D03*
X0060003Y0294762D03*
X0058006Y0293431D03*
X0057673Y0294096D03*
X0057340Y0294762D03*
X0057340Y0295761D03*
X0058006Y0290768D03*
X0058006Y0290102D03*
X0058671Y0288770D03*
X0058671Y0288105D03*
X0057007Y0288105D03*
X0057007Y0288770D03*
X0057007Y0286773D03*
X0057673Y0285442D03*
X0057673Y0284776D03*
X0058006Y0284110D03*
X0060669Y0284776D03*
X0062666Y0288770D03*
X0062666Y0289436D03*
X0064663Y0291433D03*
X0068325Y0288770D03*
D344*
X0068491Y0288105D03*
X0083804Y0289436D03*
X0101779Y0289436D03*
X0151044Y0286773D03*
X0190323Y0286773D03*
X0190323Y0286107D03*
X0190323Y0285442D03*
X0190323Y0284776D03*
X0190323Y0284110D03*
X0190323Y0283444D03*
X0190323Y0282779D03*
X0190323Y0282113D03*
X0190323Y0287439D03*
X0190323Y0288105D03*
X0190323Y0288770D03*
X0190323Y0289436D03*
X0190323Y0290102D03*
X0190323Y0290768D03*
X0190323Y0291433D03*
X0190323Y0292099D03*
X0190323Y0292765D03*
X0190323Y0293431D03*
X0190323Y0294096D03*
X0190323Y0294762D03*
X0261558Y0280116D03*
X0262224Y0278784D03*
X0262890Y0283444D03*
X0262890Y0284110D03*
X0262224Y0336371D03*
X0261558Y0343029D03*
X0276205Y0218867D03*
X0276205Y0181252D03*
X0276205Y0162278D03*
D345*
X0273875Y0208215D03*
X0273875Y0208548D03*
X0231932Y0188242D03*
X0231932Y0187909D03*
X0231932Y0186911D03*
X0225941Y0170600D03*
X0221281Y0171266D03*
X0197314Y0180586D03*
X0197314Y0180919D03*
X0188659Y0170600D03*
X0183333Y0169934D03*
X0183333Y0169601D03*
X0183333Y0172597D03*
X0183999Y0179255D03*
X0187993Y0180586D03*
X0187993Y0180919D03*
X0174012Y0180586D03*
X0174678Y0164608D03*
X0174678Y0162611D03*
X0169352Y0202556D03*
X0169352Y0202889D03*
X0169352Y0206218D03*
X0172015Y0213541D03*
X0171349Y0215871D03*
X0170684Y0217535D03*
X0180004Y0211211D03*
X0183999Y0213208D03*
X0183999Y0216204D03*
X0183999Y0216537D03*
X0183999Y0216869D03*
X0189325Y0216869D03*
X0189990Y0216204D03*
X0190656Y0215538D03*
X0194651Y0206218D03*
X0194651Y0202889D03*
X0194651Y0202556D03*
X0073484Y0209213D03*
D346*
X0067493Y0284443D03*
X0062167Y0295428D03*
X0097451Y0292432D03*
X0141391Y0291766D03*
X0152043Y0291766D03*
X0199311Y0293098D03*
X0199311Y0287106D03*
X0199311Y0283111D03*
X0199311Y0281780D03*
X0259894Y0281780D03*
X0259894Y0281114D03*
X0259894Y0285774D03*
X0259894Y0272792D03*
X0261891Y0271461D03*
X0259894Y0302751D03*
X0259894Y0334041D03*
X0233930Y0171931D03*
X0163360Y0171931D03*
D347*
X0170850Y0171931D03*
X0175510Y0171931D03*
X0189491Y0171931D03*
X0198812Y0171931D03*
X0217453Y0171931D03*
X0222113Y0171931D03*
X0226773Y0171931D03*
X0231433Y0171931D03*
X0236094Y0171931D03*
X0264721Y0209879D03*
X0260060Y0268798D03*
X0261059Y0269464D03*
X0261059Y0270129D03*
X0263056Y0270129D03*
X0263056Y0269464D03*
X0263056Y0272792D03*
X0263056Y0273458D03*
X0260060Y0273458D03*
X0260060Y0280448D03*
X0261392Y0280448D03*
X0261392Y0281114D03*
X0263056Y0281114D03*
X0263056Y0280448D03*
X0263056Y0281780D03*
X0263056Y0283777D03*
X0263056Y0284443D03*
X0261059Y0283777D03*
X0260060Y0302085D03*
X0260060Y0303417D03*
X0262058Y0302085D03*
X0263056Y0302085D03*
X0263056Y0302751D03*
X0263056Y0303417D03*
X0263056Y0334041D03*
X0263056Y0334707D03*
X0263056Y0337370D03*
X0263056Y0338036D03*
X0263056Y0339367D03*
X0261392Y0338701D03*
X0261392Y0338036D03*
X0261392Y0337370D03*
X0260060Y0337370D03*
X0260060Y0334707D03*
X0261392Y0341364D03*
X0261392Y0342030D03*
X0261392Y0342696D03*
X0263056Y0342696D03*
X0263056Y0343362D03*
X0263056Y0342030D03*
X0263056Y0341364D03*
X0199477Y0295428D03*
X0199477Y0294429D03*
X0199477Y0293763D03*
X0199477Y0292432D03*
X0199477Y0291766D03*
X0199477Y0291100D03*
X0199477Y0290435D03*
X0199477Y0289769D03*
X0199477Y0289103D03*
X0199477Y0288437D03*
X0199477Y0287772D03*
X0199477Y0286440D03*
X0199477Y0285774D03*
X0199477Y0285109D03*
X0199477Y0284443D03*
X0199477Y0283777D03*
X0199477Y0282446D03*
X0199477Y0281114D03*
X0197480Y0284443D03*
X0197480Y0286440D03*
X0194817Y0283111D03*
X0192487Y0286440D03*
X0190490Y0281780D03*
X0191155Y0281114D03*
X0167521Y0291766D03*
X0142223Y0291766D03*
X0083970Y0289769D03*
X0068658Y0287772D03*
X0068325Y0286440D03*
X0067659Y0285109D03*
X0066994Y0283777D03*
X0066660Y0287772D03*
X0066660Y0288437D03*
X0066660Y0289103D03*
X0067992Y0289103D03*
X0067326Y0290435D03*
X0066660Y0291766D03*
X0066994Y0293098D03*
X0067326Y0293763D03*
X0067659Y0294429D03*
X0067992Y0295428D03*
X0064663Y0294429D03*
X0062666Y0294429D03*
X0061002Y0291766D03*
X0060669Y0291100D03*
X0058339Y0291100D03*
X0058006Y0290435D03*
X0058671Y0289103D03*
X0058671Y0288437D03*
X0058671Y0287772D03*
X0057007Y0288437D03*
X0056674Y0287772D03*
X0057007Y0287106D03*
X0057340Y0289103D03*
X0057673Y0285109D03*
X0058339Y0283777D03*
X0060669Y0285109D03*
X0061002Y0284443D03*
X0062666Y0288437D03*
X0062666Y0289103D03*
X0064331Y0291766D03*
X0058339Y0293098D03*
X0058006Y0293763D03*
X0057673Y0294429D03*
X0057340Y0295428D03*
X0071986Y0209879D03*
D348*
X0062666Y0287106D03*
X0062666Y0293098D03*
X0077645Y0289769D03*
X0084303Y0291100D03*
X0086966Y0289103D03*
X0090294Y0290435D03*
X0094289Y0290435D03*
X0094622Y0288437D03*
X0098949Y0289103D03*
X0099615Y0288437D03*
X0116592Y0291766D03*
X0134567Y0287106D03*
X0139893Y0286440D03*
X0139893Y0289103D03*
X0176509Y0289103D03*
X0176509Y0286440D03*
X0261392Y0274790D03*
X0262057Y0268798D03*
X0261392Y0301419D03*
X0261392Y0336038D03*
X0178839Y0171931D03*
D349*
X0186994Y0171931D03*
X0191655Y0171931D03*
X0193652Y0171931D03*
X0196315Y0171931D03*
X0205635Y0171931D03*
X0214956Y0171931D03*
X0224276Y0171931D03*
X0228937Y0171931D03*
X0260227Y0285109D03*
X0192986Y0285109D03*
X0192320Y0287772D03*
X0158367Y0291766D03*
X0074483Y0209879D03*
X0067160Y0209879D03*
X0061168Y0209879D03*
X0046522Y0209879D03*
X0045190Y0209879D03*
X0039198Y0209879D03*
X0037867Y0209879D03*
X0061168Y0281780D03*
X0064497Y0284443D03*
X0067826Y0285774D03*
X0057174Y0286440D03*
D350*
X0063831Y0283777D03*
X0065163Y0285774D03*
X0057839Y0296094D03*
X0097119Y0288437D03*
X0115094Y0289103D03*
X0115094Y0289769D03*
X0115094Y0290435D03*
X0119088Y0290435D03*
X0119088Y0289769D03*
X0119088Y0289103D03*
X0119088Y0287106D03*
X0119088Y0286440D03*
X0119088Y0291766D03*
X0129074Y0287772D03*
X0129074Y0287106D03*
X0129074Y0286440D03*
X0143721Y0286440D03*
X0143721Y0287106D03*
X0143721Y0289103D03*
X0143721Y0289769D03*
X0143721Y0290435D03*
X0149713Y0290435D03*
X0149713Y0289769D03*
X0149713Y0288437D03*
X0149713Y0287772D03*
X0149713Y0287106D03*
X0151710Y0287106D03*
X0151710Y0287772D03*
X0151710Y0288437D03*
X0151710Y0289769D03*
X0151710Y0290435D03*
X0155704Y0290435D03*
X0155704Y0289769D03*
X0155704Y0288437D03*
X0155704Y0287772D03*
X0155704Y0287106D03*
X0157702Y0289103D03*
X0157702Y0289769D03*
X0157702Y0290435D03*
X0158367Y0288437D03*
X0179671Y0291766D03*
X0180337Y0290435D03*
X0180337Y0289769D03*
X0180337Y0289103D03*
X0180337Y0287106D03*
X0180337Y0286440D03*
X0192320Y0287106D03*
X0192986Y0284443D03*
X0260893Y0276454D03*
X0207633Y0171931D03*
D351*
X0276205Y0171931D03*
X0276205Y0209879D03*
X0261558Y0281780D03*
X0260893Y0282446D03*
X0260893Y0302085D03*
X0262890Y0338701D03*
X0261558Y0339367D03*
X0260227Y0340033D03*
X0196315Y0283111D03*
X0190323Y0283111D03*
X0190323Y0282446D03*
X0190323Y0283777D03*
X0190323Y0284443D03*
X0190323Y0285109D03*
X0190323Y0285774D03*
X0190323Y0286440D03*
X0190323Y0287106D03*
X0190323Y0287772D03*
X0190323Y0288437D03*
X0190323Y0289103D03*
X0190323Y0289769D03*
X0190323Y0290435D03*
X0190323Y0291100D03*
X0190323Y0291766D03*
X0190323Y0292432D03*
X0190323Y0293098D03*
X0190323Y0293763D03*
X0190323Y0294429D03*
X0190323Y0295428D03*
X0147715Y0288437D03*
X0086467Y0291766D03*
X0068491Y0288437D03*
X0068491Y0287106D03*
X0067160Y0291100D03*
X0063165Y0295428D03*
X0060502Y0294429D03*
X0057839Y0284443D03*
D352*
X0219783Y0191904D03*
X0219783Y0191571D03*
X0219783Y0185246D03*
X0219783Y0184914D03*
X0219783Y0184581D03*
X0219783Y0184248D03*
X0219783Y0183915D03*
D353*
X0195483Y0190905D03*
D354*
X0255067Y0190905D03*
D355*
X0219782Y0192237D03*
X0219782Y0192570D03*
D356*
X0219783Y0192903D03*
D357*
X0219782Y0193235D03*
D358*
X0219783Y0193568D03*
D359*
X0219783Y0193901D03*
D360*
X0098450Y0289769D03*
X0094456Y0287772D03*
X0092458Y0291766D03*
X0033207Y0209879D03*
D361*
X0050682Y0209879D03*
X0110600Y0291766D03*
D362*
X0087465Y0291100D03*
X0060169Y0283111D03*
X0058838Y0209879D03*
X0261225Y0304082D03*
D363*
X0210296Y0209879D03*
D364*
X0243084Y0209879D03*
D365*
X0267384Y0209879D03*
X0165857Y0291766D03*
X0149546Y0291766D03*
X0128908Y0288437D03*
X0083970Y0291766D03*
X0066660Y0289769D03*
X0058671Y0289769D03*
D366*
X0173347Y0218201D03*
X0191322Y0218201D03*
X0191322Y0218534D03*
X0191322Y0219200D03*
X0190656Y0213208D03*
X0190656Y0212875D03*
X0190656Y0212542D03*
X0190656Y0212209D03*
X0190656Y0211876D03*
D367*
X0270879Y0212542D03*
D368*
X0173846Y0218867D03*
D369*
X0181502Y0218867D03*
D370*
X0191322Y0218867D03*
D371*
X0199977Y0218867D03*
X0220615Y0218867D03*
X0227938Y0218867D03*
X0261891Y0271128D03*
X0193985Y0286107D03*
X0176010Y0289436D03*
X0176010Y0290102D03*
X0176010Y0290768D03*
X0174012Y0290102D03*
X0174012Y0289436D03*
X0174012Y0288770D03*
X0174012Y0287439D03*
X0174012Y0286773D03*
X0174012Y0286107D03*
X0170018Y0286107D03*
X0170018Y0286773D03*
X0170018Y0287439D03*
X0170018Y0288770D03*
X0170018Y0289436D03*
X0170018Y0290102D03*
X0170684Y0290768D03*
X0173347Y0290768D03*
X0168021Y0290768D03*
X0168021Y0290102D03*
X0168021Y0289436D03*
X0168021Y0287439D03*
X0164026Y0287439D03*
X0164026Y0288105D03*
X0162029Y0288770D03*
X0162029Y0289436D03*
X0162029Y0290102D03*
X0162029Y0290768D03*
X0164692Y0290768D03*
X0162029Y0287439D03*
X0162029Y0286773D03*
X0162029Y0286107D03*
X0139394Y0289436D03*
X0139394Y0290102D03*
X0139394Y0290768D03*
X0137396Y0290768D03*
X0137396Y0290102D03*
X0137396Y0289436D03*
X0137396Y0288770D03*
X0137396Y0287439D03*
X0137396Y0286773D03*
X0137396Y0286107D03*
X0133402Y0289436D03*
X0133402Y0290102D03*
X0133402Y0290768D03*
X0130739Y0290768D03*
X0130739Y0291433D03*
X0130739Y0290102D03*
X0130739Y0289436D03*
X0127410Y0289436D03*
X0127410Y0290102D03*
X0127410Y0290768D03*
X0127410Y0291433D03*
X0110766Y0290768D03*
X0110766Y0290102D03*
X0110766Y0289436D03*
X0110766Y0288770D03*
X0110766Y0288105D03*
X0110766Y0287439D03*
X0092791Y0286107D03*
X0060169Y0286107D03*
D372*
X0060003Y0286773D03*
X0062666Y0292765D03*
X0086966Y0289436D03*
X0090627Y0290768D03*
X0128908Y0288770D03*
X0146550Y0286773D03*
X0166523Y0291433D03*
X0206468Y0218867D03*
X0213791Y0218867D03*
X0234429Y0218867D03*
X0244415Y0218867D03*
X0251738Y0218867D03*
X0261392Y0274457D03*
X0261392Y0275788D03*
X0261392Y0305747D03*
X0261392Y0307744D03*
X0261392Y0335706D03*
X0261392Y0337037D03*
D373*
X0260893Y0307078D03*
X0261558Y0306413D03*
X0260893Y0277453D03*
X0261558Y0276787D03*
X0258230Y0218867D03*
X0192986Y0284776D03*
X0180337Y0286107D03*
X0180337Y0286773D03*
X0180337Y0287439D03*
X0180337Y0288770D03*
X0180337Y0289436D03*
X0180337Y0290102D03*
X0180337Y0290768D03*
X0157702Y0290768D03*
X0157702Y0290102D03*
X0157702Y0289436D03*
X0157702Y0288770D03*
X0155704Y0288105D03*
X0155704Y0287439D03*
X0155704Y0289436D03*
X0155704Y0290102D03*
X0155704Y0290768D03*
X0151710Y0290768D03*
X0151710Y0290102D03*
X0151710Y0289436D03*
X0151710Y0288105D03*
X0151710Y0287439D03*
X0149713Y0287439D03*
X0149713Y0288105D03*
X0149713Y0289436D03*
X0149713Y0290102D03*
X0149713Y0290768D03*
X0143721Y0290768D03*
X0143721Y0290102D03*
X0143721Y0289436D03*
X0143721Y0288770D03*
X0143721Y0287439D03*
X0143721Y0286773D03*
X0143721Y0286107D03*
X0129074Y0286107D03*
X0129074Y0286773D03*
X0129074Y0287439D03*
X0129074Y0288105D03*
X0119088Y0288770D03*
X0119088Y0289436D03*
X0119088Y0290102D03*
X0119088Y0290768D03*
X0119088Y0287439D03*
X0119088Y0286773D03*
X0119088Y0286107D03*
X0115094Y0288770D03*
X0115094Y0289436D03*
X0115094Y0290102D03*
X0115094Y0290768D03*
X0079809Y0292099D03*
X0060502Y0290768D03*
D374*
X0270546Y0218867D03*
D375*
X0261558Y0268132D03*
X0261558Y0272127D03*
X0261558Y0274124D03*
X0261558Y0275455D03*
X0261558Y0277785D03*
X0261558Y0278451D03*
X0261558Y0279117D03*
X0261558Y0279783D03*
X0261558Y0283111D03*
X0261558Y0305414D03*
X0261558Y0307411D03*
X0261558Y0308077D03*
X0261558Y0333375D03*
X0261558Y0335373D03*
X0261558Y0336704D03*
X0261558Y0340699D03*
D376*
X0261558Y0341031D03*
X0261558Y0340366D03*
X0261558Y0333708D03*
X0261558Y0305081D03*
X0261558Y0303750D03*
X0261558Y0301752D03*
X0261558Y0282779D03*
X0261558Y0279450D03*
X0261558Y0278118D03*
X0261558Y0272459D03*
X0261558Y0268465D03*
X0093790Y0289436D03*
X0065828Y0296426D03*
D377*
X0062666Y0293431D03*
X0062666Y0281447D03*
X0077313Y0288770D03*
X0081307Y0288105D03*
X0084303Y0290768D03*
X0083970Y0291433D03*
X0087299Y0291433D03*
X0087299Y0290768D03*
X0086966Y0287439D03*
X0094289Y0290102D03*
X0094622Y0288105D03*
X0098617Y0289436D03*
X0099282Y0288770D03*
X0134567Y0287439D03*
X0139893Y0288770D03*
X0140226Y0286773D03*
X0139893Y0286107D03*
X0176509Y0286107D03*
X0176509Y0288770D03*
X0261392Y0304415D03*
X0261392Y0271794D03*
X0262057Y0270462D03*
D378*
X0261891Y0270795D03*
X0177341Y0287106D03*
X0177341Y0291766D03*
X0172015Y0291766D03*
X0172015Y0291100D03*
X0140725Y0287106D03*
X0090128Y0289769D03*
X0086799Y0287106D03*
X0086799Y0286440D03*
X0081473Y0288437D03*
X0081473Y0289103D03*
X0081473Y0289769D03*
X0077479Y0288437D03*
D379*
X0195316Y0280781D03*
D380*
X0149546Y0286773D03*
X0090295Y0289436D03*
X0066994Y0289436D03*
X0064663Y0290768D03*
X0062666Y0290102D03*
X0062666Y0287439D03*
X0065329Y0286107D03*
X0066328Y0286773D03*
X0065329Y0282779D03*
X0060003Y0282779D03*
X0058339Y0289436D03*
X0260726Y0284776D03*
X0262058Y0285442D03*
D381*
X0166023Y0286107D03*
X0166023Y0286773D03*
X0166023Y0288770D03*
X0079476Y0291433D03*
X0062832Y0283444D03*
D382*
X0077146Y0289436D03*
X0087132Y0288770D03*
X0087132Y0288105D03*
X0133735Y0288770D03*
X0133735Y0286107D03*
X0197646Y0285442D03*
D383*
X0178673Y0291433D03*
X0154040Y0291433D03*
X0154040Y0288770D03*
X0154040Y0286773D03*
X0154040Y0286107D03*
X0148048Y0288770D03*
X0142056Y0291433D03*
X0117424Y0291433D03*
X0117424Y0288105D03*
X0110766Y0286107D03*
X0110766Y0291433D03*
X0098783Y0288105D03*
D384*
X0099282Y0286440D03*
X0091959Y0286440D03*
X0136231Y0287772D03*
X0154539Y0291766D03*
D385*
X0154040Y0291100D03*
X0154040Y0289103D03*
X0154040Y0286440D03*
X0148048Y0289103D03*
X0142056Y0291100D03*
X0117424Y0291100D03*
X0117424Y0288437D03*
X0117424Y0287772D03*
X0110766Y0286440D03*
X0110766Y0291100D03*
X0079476Y0291100D03*
X0178673Y0291100D03*
D386*
X0166023Y0289103D03*
X0166023Y0286440D03*
X0136065Y0288437D03*
D387*
X0142389Y0288105D03*
X0110433Y0286773D03*
X0092458Y0291433D03*
X0079143Y0286773D03*
X0179006Y0288105D03*
D388*
X0092292Y0286773D03*
D389*
X0094123Y0287439D03*
X0094123Y0290768D03*
X0060169Y0292099D03*
X0134068Y0286773D03*
D390*
X0079476Y0287772D03*
D391*
X0142389Y0287772D03*
X0142389Y0288437D03*
X0179006Y0288437D03*
X0179006Y0287772D03*
D392*
X0136231Y0288105D03*
D393*
X0092458Y0288770D03*
D394*
X0195316Y0288770D03*
D395*
X0092458Y0289103D03*
D396*
X0195150Y0289103D03*
D397*
X0086799Y0289769D03*
D398*
X0079476Y0290102D03*
D399*
X0062666Y0290435D03*
D400*
X0065163Y0292099D03*
D401*
X0062666Y0292432D03*
D402*
X0194983Y0294429D03*
D403*
X0194817Y0295761D03*
D404*
X0194817Y0296094D03*
D405*
X0059504Y0296426D03*
D406*
X0021949Y0115673D02*
X0021951Y0115813D01*
X0021957Y0115953D01*
X0021967Y0116092D01*
X0021981Y0116231D01*
X0021999Y0116370D01*
X0022020Y0116508D01*
X0022046Y0116646D01*
X0022076Y0116783D01*
X0022109Y0116918D01*
X0022147Y0117053D01*
X0022188Y0117187D01*
X0022233Y0117320D01*
X0022281Y0117451D01*
X0022334Y0117580D01*
X0022390Y0117709D01*
X0022449Y0117835D01*
X0022513Y0117960D01*
X0022579Y0118083D01*
X0022650Y0118204D01*
X0022723Y0118323D01*
X0022800Y0118440D01*
X0022881Y0118554D01*
X0022964Y0118666D01*
X0023051Y0118776D01*
X0023141Y0118884D01*
X0023233Y0118988D01*
X0023329Y0119090D01*
X0023428Y0119190D01*
X0023529Y0119286D01*
X0023633Y0119380D01*
X0023740Y0119470D01*
X0023849Y0119557D01*
X0023961Y0119642D01*
X0024075Y0119723D01*
X0024191Y0119801D01*
X0024309Y0119875D01*
X0024430Y0119946D01*
X0024552Y0120014D01*
X0024677Y0120078D01*
X0024803Y0120139D01*
X0024930Y0120196D01*
X0025060Y0120249D01*
X0025191Y0120299D01*
X0025323Y0120344D01*
X0025456Y0120387D01*
X0025591Y0120425D01*
X0025726Y0120459D01*
X0025863Y0120490D01*
X0026000Y0120517D01*
X0026138Y0120539D01*
X0026277Y0120558D01*
X0026416Y0120573D01*
X0026555Y0120584D01*
X0026695Y0120591D01*
X0026835Y0120594D01*
X0026975Y0120593D01*
X0027115Y0120588D01*
X0027254Y0120579D01*
X0027394Y0120566D01*
X0027533Y0120549D01*
X0027671Y0120528D01*
X0027809Y0120504D01*
X0027946Y0120475D01*
X0028082Y0120443D01*
X0028217Y0120406D01*
X0028351Y0120366D01*
X0028484Y0120322D01*
X0028615Y0120274D01*
X0028745Y0120223D01*
X0028874Y0120168D01*
X0029001Y0120109D01*
X0029126Y0120046D01*
X0029249Y0119981D01*
X0029371Y0119911D01*
X0029490Y0119838D01*
X0029608Y0119762D01*
X0029723Y0119683D01*
X0029836Y0119600D01*
X0029946Y0119514D01*
X0030054Y0119425D01*
X0030159Y0119333D01*
X0030262Y0119238D01*
X0030362Y0119140D01*
X0030459Y0119040D01*
X0030553Y0118936D01*
X0030645Y0118830D01*
X0030733Y0118722D01*
X0030818Y0118611D01*
X0030900Y0118497D01*
X0030979Y0118381D01*
X0031054Y0118264D01*
X0031126Y0118144D01*
X0031194Y0118022D01*
X0031259Y0117898D01*
X0031321Y0117772D01*
X0031379Y0117645D01*
X0031433Y0117516D01*
X0031484Y0117385D01*
X0031530Y0117253D01*
X0031573Y0117120D01*
X0031613Y0116986D01*
X0031648Y0116851D01*
X0031680Y0116714D01*
X0031707Y0116577D01*
X0031731Y0116439D01*
X0031751Y0116301D01*
X0031767Y0116162D01*
X0031779Y0116022D01*
X0031787Y0115883D01*
X0031791Y0115743D01*
X0031791Y0115603D01*
X0031787Y0115463D01*
X0031779Y0115324D01*
X0031767Y0115184D01*
X0031751Y0115045D01*
X0031731Y0114907D01*
X0031707Y0114769D01*
X0031680Y0114632D01*
X0031648Y0114495D01*
X0031613Y0114360D01*
X0031573Y0114226D01*
X0031530Y0114093D01*
X0031484Y0113961D01*
X0031433Y0113830D01*
X0031379Y0113701D01*
X0031321Y0113574D01*
X0031259Y0113448D01*
X0031194Y0113324D01*
X0031126Y0113202D01*
X0031054Y0113082D01*
X0030979Y0112965D01*
X0030900Y0112849D01*
X0030818Y0112735D01*
X0030733Y0112624D01*
X0030645Y0112516D01*
X0030553Y0112410D01*
X0030459Y0112306D01*
X0030362Y0112206D01*
X0030262Y0112108D01*
X0030159Y0112013D01*
X0030054Y0111921D01*
X0029946Y0111832D01*
X0029836Y0111746D01*
X0029723Y0111663D01*
X0029608Y0111584D01*
X0029490Y0111508D01*
X0029371Y0111435D01*
X0029249Y0111365D01*
X0029126Y0111300D01*
X0029001Y0111237D01*
X0028874Y0111178D01*
X0028745Y0111123D01*
X0028615Y0111072D01*
X0028484Y0111024D01*
X0028351Y0110980D01*
X0028217Y0110940D01*
X0028082Y0110903D01*
X0027946Y0110871D01*
X0027809Y0110842D01*
X0027671Y0110818D01*
X0027533Y0110797D01*
X0027394Y0110780D01*
X0027254Y0110767D01*
X0027115Y0110758D01*
X0026975Y0110753D01*
X0026835Y0110752D01*
X0026695Y0110755D01*
X0026555Y0110762D01*
X0026416Y0110773D01*
X0026277Y0110788D01*
X0026138Y0110807D01*
X0026000Y0110829D01*
X0025863Y0110856D01*
X0025726Y0110887D01*
X0025591Y0110921D01*
X0025456Y0110959D01*
X0025323Y0111002D01*
X0025191Y0111047D01*
X0025060Y0111097D01*
X0024930Y0111150D01*
X0024803Y0111207D01*
X0024677Y0111268D01*
X0024552Y0111332D01*
X0024430Y0111400D01*
X0024309Y0111471D01*
X0024191Y0111545D01*
X0024075Y0111623D01*
X0023961Y0111704D01*
X0023849Y0111789D01*
X0023740Y0111876D01*
X0023633Y0111966D01*
X0023529Y0112060D01*
X0023428Y0112156D01*
X0023329Y0112256D01*
X0023233Y0112358D01*
X0023141Y0112462D01*
X0023051Y0112570D01*
X0022964Y0112680D01*
X0022881Y0112792D01*
X0022800Y0112906D01*
X0022723Y0113023D01*
X0022650Y0113142D01*
X0022579Y0113263D01*
X0022513Y0113386D01*
X0022449Y0113511D01*
X0022390Y0113637D01*
X0022334Y0113766D01*
X0022281Y0113895D01*
X0022233Y0114026D01*
X0022188Y0114159D01*
X0022147Y0114293D01*
X0022109Y0114428D01*
X0022076Y0114563D01*
X0022046Y0114700D01*
X0022020Y0114838D01*
X0021999Y0114976D01*
X0021981Y0115115D01*
X0021967Y0115254D01*
X0021957Y0115393D01*
X0021951Y0115533D01*
X0021949Y0115673D01*
X0014075Y0017248D02*
X0014077Y0017388D01*
X0014083Y0017528D01*
X0014093Y0017667D01*
X0014107Y0017806D01*
X0014125Y0017945D01*
X0014146Y0018083D01*
X0014172Y0018221D01*
X0014202Y0018358D01*
X0014235Y0018493D01*
X0014273Y0018628D01*
X0014314Y0018762D01*
X0014359Y0018895D01*
X0014407Y0019026D01*
X0014460Y0019155D01*
X0014516Y0019284D01*
X0014575Y0019410D01*
X0014639Y0019535D01*
X0014705Y0019658D01*
X0014776Y0019779D01*
X0014849Y0019898D01*
X0014926Y0020015D01*
X0015007Y0020129D01*
X0015090Y0020241D01*
X0015177Y0020351D01*
X0015267Y0020459D01*
X0015359Y0020563D01*
X0015455Y0020665D01*
X0015554Y0020765D01*
X0015655Y0020861D01*
X0015759Y0020955D01*
X0015866Y0021045D01*
X0015975Y0021132D01*
X0016087Y0021217D01*
X0016201Y0021298D01*
X0016317Y0021376D01*
X0016435Y0021450D01*
X0016556Y0021521D01*
X0016678Y0021589D01*
X0016803Y0021653D01*
X0016929Y0021714D01*
X0017056Y0021771D01*
X0017186Y0021824D01*
X0017317Y0021874D01*
X0017449Y0021919D01*
X0017582Y0021962D01*
X0017717Y0022000D01*
X0017852Y0022034D01*
X0017989Y0022065D01*
X0018126Y0022092D01*
X0018264Y0022114D01*
X0018403Y0022133D01*
X0018542Y0022148D01*
X0018681Y0022159D01*
X0018821Y0022166D01*
X0018961Y0022169D01*
X0019101Y0022168D01*
X0019241Y0022163D01*
X0019380Y0022154D01*
X0019520Y0022141D01*
X0019659Y0022124D01*
X0019797Y0022103D01*
X0019935Y0022079D01*
X0020072Y0022050D01*
X0020208Y0022018D01*
X0020343Y0021981D01*
X0020477Y0021941D01*
X0020610Y0021897D01*
X0020741Y0021849D01*
X0020871Y0021798D01*
X0021000Y0021743D01*
X0021127Y0021684D01*
X0021252Y0021621D01*
X0021375Y0021556D01*
X0021497Y0021486D01*
X0021616Y0021413D01*
X0021734Y0021337D01*
X0021849Y0021258D01*
X0021962Y0021175D01*
X0022072Y0021089D01*
X0022180Y0021000D01*
X0022285Y0020908D01*
X0022388Y0020813D01*
X0022488Y0020715D01*
X0022585Y0020615D01*
X0022679Y0020511D01*
X0022771Y0020405D01*
X0022859Y0020297D01*
X0022944Y0020186D01*
X0023026Y0020072D01*
X0023105Y0019956D01*
X0023180Y0019839D01*
X0023252Y0019719D01*
X0023320Y0019597D01*
X0023385Y0019473D01*
X0023447Y0019347D01*
X0023505Y0019220D01*
X0023559Y0019091D01*
X0023610Y0018960D01*
X0023656Y0018828D01*
X0023699Y0018695D01*
X0023739Y0018561D01*
X0023774Y0018426D01*
X0023806Y0018289D01*
X0023833Y0018152D01*
X0023857Y0018014D01*
X0023877Y0017876D01*
X0023893Y0017737D01*
X0023905Y0017597D01*
X0023913Y0017458D01*
X0023917Y0017318D01*
X0023917Y0017178D01*
X0023913Y0017038D01*
X0023905Y0016899D01*
X0023893Y0016759D01*
X0023877Y0016620D01*
X0023857Y0016482D01*
X0023833Y0016344D01*
X0023806Y0016207D01*
X0023774Y0016070D01*
X0023739Y0015935D01*
X0023699Y0015801D01*
X0023656Y0015668D01*
X0023610Y0015536D01*
X0023559Y0015405D01*
X0023505Y0015276D01*
X0023447Y0015149D01*
X0023385Y0015023D01*
X0023320Y0014899D01*
X0023252Y0014777D01*
X0023180Y0014657D01*
X0023105Y0014540D01*
X0023026Y0014424D01*
X0022944Y0014310D01*
X0022859Y0014199D01*
X0022771Y0014091D01*
X0022679Y0013985D01*
X0022585Y0013881D01*
X0022488Y0013781D01*
X0022388Y0013683D01*
X0022285Y0013588D01*
X0022180Y0013496D01*
X0022072Y0013407D01*
X0021962Y0013321D01*
X0021849Y0013238D01*
X0021734Y0013159D01*
X0021616Y0013083D01*
X0021497Y0013010D01*
X0021375Y0012940D01*
X0021252Y0012875D01*
X0021127Y0012812D01*
X0021000Y0012753D01*
X0020871Y0012698D01*
X0020741Y0012647D01*
X0020610Y0012599D01*
X0020477Y0012555D01*
X0020343Y0012515D01*
X0020208Y0012478D01*
X0020072Y0012446D01*
X0019935Y0012417D01*
X0019797Y0012393D01*
X0019659Y0012372D01*
X0019520Y0012355D01*
X0019380Y0012342D01*
X0019241Y0012333D01*
X0019101Y0012328D01*
X0018961Y0012327D01*
X0018821Y0012330D01*
X0018681Y0012337D01*
X0018542Y0012348D01*
X0018403Y0012363D01*
X0018264Y0012382D01*
X0018126Y0012404D01*
X0017989Y0012431D01*
X0017852Y0012462D01*
X0017717Y0012496D01*
X0017582Y0012534D01*
X0017449Y0012577D01*
X0017317Y0012622D01*
X0017186Y0012672D01*
X0017056Y0012725D01*
X0016929Y0012782D01*
X0016803Y0012843D01*
X0016678Y0012907D01*
X0016556Y0012975D01*
X0016435Y0013046D01*
X0016317Y0013120D01*
X0016201Y0013198D01*
X0016087Y0013279D01*
X0015975Y0013364D01*
X0015866Y0013451D01*
X0015759Y0013541D01*
X0015655Y0013635D01*
X0015554Y0013731D01*
X0015455Y0013831D01*
X0015359Y0013933D01*
X0015267Y0014037D01*
X0015177Y0014145D01*
X0015090Y0014255D01*
X0015007Y0014367D01*
X0014926Y0014481D01*
X0014849Y0014598D01*
X0014776Y0014717D01*
X0014705Y0014838D01*
X0014639Y0014961D01*
X0014575Y0015086D01*
X0014516Y0015212D01*
X0014460Y0015341D01*
X0014407Y0015470D01*
X0014359Y0015601D01*
X0014314Y0015734D01*
X0014273Y0015868D01*
X0014235Y0016003D01*
X0014202Y0016138D01*
X0014172Y0016275D01*
X0014146Y0016413D01*
X0014125Y0016551D01*
X0014107Y0016690D01*
X0014093Y0016829D01*
X0014083Y0016968D01*
X0014077Y0017108D01*
X0014075Y0017248D01*
X0262107Y0017248D02*
X0262109Y0017388D01*
X0262115Y0017528D01*
X0262125Y0017667D01*
X0262139Y0017806D01*
X0262157Y0017945D01*
X0262178Y0018083D01*
X0262204Y0018221D01*
X0262234Y0018358D01*
X0262267Y0018493D01*
X0262305Y0018628D01*
X0262346Y0018762D01*
X0262391Y0018895D01*
X0262439Y0019026D01*
X0262492Y0019155D01*
X0262548Y0019284D01*
X0262607Y0019410D01*
X0262671Y0019535D01*
X0262737Y0019658D01*
X0262808Y0019779D01*
X0262881Y0019898D01*
X0262958Y0020015D01*
X0263039Y0020129D01*
X0263122Y0020241D01*
X0263209Y0020351D01*
X0263299Y0020459D01*
X0263391Y0020563D01*
X0263487Y0020665D01*
X0263586Y0020765D01*
X0263687Y0020861D01*
X0263791Y0020955D01*
X0263898Y0021045D01*
X0264007Y0021132D01*
X0264119Y0021217D01*
X0264233Y0021298D01*
X0264349Y0021376D01*
X0264467Y0021450D01*
X0264588Y0021521D01*
X0264710Y0021589D01*
X0264835Y0021653D01*
X0264961Y0021714D01*
X0265088Y0021771D01*
X0265218Y0021824D01*
X0265349Y0021874D01*
X0265481Y0021919D01*
X0265614Y0021962D01*
X0265749Y0022000D01*
X0265884Y0022034D01*
X0266021Y0022065D01*
X0266158Y0022092D01*
X0266296Y0022114D01*
X0266435Y0022133D01*
X0266574Y0022148D01*
X0266713Y0022159D01*
X0266853Y0022166D01*
X0266993Y0022169D01*
X0267133Y0022168D01*
X0267273Y0022163D01*
X0267412Y0022154D01*
X0267552Y0022141D01*
X0267691Y0022124D01*
X0267829Y0022103D01*
X0267967Y0022079D01*
X0268104Y0022050D01*
X0268240Y0022018D01*
X0268375Y0021981D01*
X0268509Y0021941D01*
X0268642Y0021897D01*
X0268773Y0021849D01*
X0268903Y0021798D01*
X0269032Y0021743D01*
X0269159Y0021684D01*
X0269284Y0021621D01*
X0269407Y0021556D01*
X0269529Y0021486D01*
X0269648Y0021413D01*
X0269766Y0021337D01*
X0269881Y0021258D01*
X0269994Y0021175D01*
X0270104Y0021089D01*
X0270212Y0021000D01*
X0270317Y0020908D01*
X0270420Y0020813D01*
X0270520Y0020715D01*
X0270617Y0020615D01*
X0270711Y0020511D01*
X0270803Y0020405D01*
X0270891Y0020297D01*
X0270976Y0020186D01*
X0271058Y0020072D01*
X0271137Y0019956D01*
X0271212Y0019839D01*
X0271284Y0019719D01*
X0271352Y0019597D01*
X0271417Y0019473D01*
X0271479Y0019347D01*
X0271537Y0019220D01*
X0271591Y0019091D01*
X0271642Y0018960D01*
X0271688Y0018828D01*
X0271731Y0018695D01*
X0271771Y0018561D01*
X0271806Y0018426D01*
X0271838Y0018289D01*
X0271865Y0018152D01*
X0271889Y0018014D01*
X0271909Y0017876D01*
X0271925Y0017737D01*
X0271937Y0017597D01*
X0271945Y0017458D01*
X0271949Y0017318D01*
X0271949Y0017178D01*
X0271945Y0017038D01*
X0271937Y0016899D01*
X0271925Y0016759D01*
X0271909Y0016620D01*
X0271889Y0016482D01*
X0271865Y0016344D01*
X0271838Y0016207D01*
X0271806Y0016070D01*
X0271771Y0015935D01*
X0271731Y0015801D01*
X0271688Y0015668D01*
X0271642Y0015536D01*
X0271591Y0015405D01*
X0271537Y0015276D01*
X0271479Y0015149D01*
X0271417Y0015023D01*
X0271352Y0014899D01*
X0271284Y0014777D01*
X0271212Y0014657D01*
X0271137Y0014540D01*
X0271058Y0014424D01*
X0270976Y0014310D01*
X0270891Y0014199D01*
X0270803Y0014091D01*
X0270711Y0013985D01*
X0270617Y0013881D01*
X0270520Y0013781D01*
X0270420Y0013683D01*
X0270317Y0013588D01*
X0270212Y0013496D01*
X0270104Y0013407D01*
X0269994Y0013321D01*
X0269881Y0013238D01*
X0269766Y0013159D01*
X0269648Y0013083D01*
X0269529Y0013010D01*
X0269407Y0012940D01*
X0269284Y0012875D01*
X0269159Y0012812D01*
X0269032Y0012753D01*
X0268903Y0012698D01*
X0268773Y0012647D01*
X0268642Y0012599D01*
X0268509Y0012555D01*
X0268375Y0012515D01*
X0268240Y0012478D01*
X0268104Y0012446D01*
X0267967Y0012417D01*
X0267829Y0012393D01*
X0267691Y0012372D01*
X0267552Y0012355D01*
X0267412Y0012342D01*
X0267273Y0012333D01*
X0267133Y0012328D01*
X0266993Y0012327D01*
X0266853Y0012330D01*
X0266713Y0012337D01*
X0266574Y0012348D01*
X0266435Y0012363D01*
X0266296Y0012382D01*
X0266158Y0012404D01*
X0266021Y0012431D01*
X0265884Y0012462D01*
X0265749Y0012496D01*
X0265614Y0012534D01*
X0265481Y0012577D01*
X0265349Y0012622D01*
X0265218Y0012672D01*
X0265088Y0012725D01*
X0264961Y0012782D01*
X0264835Y0012843D01*
X0264710Y0012907D01*
X0264588Y0012975D01*
X0264467Y0013046D01*
X0264349Y0013120D01*
X0264233Y0013198D01*
X0264119Y0013279D01*
X0264007Y0013364D01*
X0263898Y0013451D01*
X0263791Y0013541D01*
X0263687Y0013635D01*
X0263586Y0013731D01*
X0263487Y0013831D01*
X0263391Y0013933D01*
X0263299Y0014037D01*
X0263209Y0014145D01*
X0263122Y0014255D01*
X0263039Y0014367D01*
X0262958Y0014481D01*
X0262881Y0014598D01*
X0262808Y0014717D01*
X0262737Y0014838D01*
X0262671Y0014961D01*
X0262607Y0015086D01*
X0262548Y0015212D01*
X0262492Y0015341D01*
X0262439Y0015470D01*
X0262391Y0015601D01*
X0262346Y0015734D01*
X0262305Y0015868D01*
X0262267Y0016003D01*
X0262234Y0016138D01*
X0262204Y0016275D01*
X0262178Y0016413D01*
X0262157Y0016551D01*
X0262139Y0016690D01*
X0262125Y0016829D01*
X0262115Y0016968D01*
X0262109Y0017108D01*
X0262107Y0017248D01*
X0262107Y0135358D02*
X0262109Y0135498D01*
X0262115Y0135638D01*
X0262125Y0135777D01*
X0262139Y0135916D01*
X0262157Y0136055D01*
X0262178Y0136193D01*
X0262204Y0136331D01*
X0262234Y0136468D01*
X0262267Y0136603D01*
X0262305Y0136738D01*
X0262346Y0136872D01*
X0262391Y0137005D01*
X0262439Y0137136D01*
X0262492Y0137265D01*
X0262548Y0137394D01*
X0262607Y0137520D01*
X0262671Y0137645D01*
X0262737Y0137768D01*
X0262808Y0137889D01*
X0262881Y0138008D01*
X0262958Y0138125D01*
X0263039Y0138239D01*
X0263122Y0138351D01*
X0263209Y0138461D01*
X0263299Y0138569D01*
X0263391Y0138673D01*
X0263487Y0138775D01*
X0263586Y0138875D01*
X0263687Y0138971D01*
X0263791Y0139065D01*
X0263898Y0139155D01*
X0264007Y0139242D01*
X0264119Y0139327D01*
X0264233Y0139408D01*
X0264349Y0139486D01*
X0264467Y0139560D01*
X0264588Y0139631D01*
X0264710Y0139699D01*
X0264835Y0139763D01*
X0264961Y0139824D01*
X0265088Y0139881D01*
X0265218Y0139934D01*
X0265349Y0139984D01*
X0265481Y0140029D01*
X0265614Y0140072D01*
X0265749Y0140110D01*
X0265884Y0140144D01*
X0266021Y0140175D01*
X0266158Y0140202D01*
X0266296Y0140224D01*
X0266435Y0140243D01*
X0266574Y0140258D01*
X0266713Y0140269D01*
X0266853Y0140276D01*
X0266993Y0140279D01*
X0267133Y0140278D01*
X0267273Y0140273D01*
X0267412Y0140264D01*
X0267552Y0140251D01*
X0267691Y0140234D01*
X0267829Y0140213D01*
X0267967Y0140189D01*
X0268104Y0140160D01*
X0268240Y0140128D01*
X0268375Y0140091D01*
X0268509Y0140051D01*
X0268642Y0140007D01*
X0268773Y0139959D01*
X0268903Y0139908D01*
X0269032Y0139853D01*
X0269159Y0139794D01*
X0269284Y0139731D01*
X0269407Y0139666D01*
X0269529Y0139596D01*
X0269648Y0139523D01*
X0269766Y0139447D01*
X0269881Y0139368D01*
X0269994Y0139285D01*
X0270104Y0139199D01*
X0270212Y0139110D01*
X0270317Y0139018D01*
X0270420Y0138923D01*
X0270520Y0138825D01*
X0270617Y0138725D01*
X0270711Y0138621D01*
X0270803Y0138515D01*
X0270891Y0138407D01*
X0270976Y0138296D01*
X0271058Y0138182D01*
X0271137Y0138066D01*
X0271212Y0137949D01*
X0271284Y0137829D01*
X0271352Y0137707D01*
X0271417Y0137583D01*
X0271479Y0137457D01*
X0271537Y0137330D01*
X0271591Y0137201D01*
X0271642Y0137070D01*
X0271688Y0136938D01*
X0271731Y0136805D01*
X0271771Y0136671D01*
X0271806Y0136536D01*
X0271838Y0136399D01*
X0271865Y0136262D01*
X0271889Y0136124D01*
X0271909Y0135986D01*
X0271925Y0135847D01*
X0271937Y0135707D01*
X0271945Y0135568D01*
X0271949Y0135428D01*
X0271949Y0135288D01*
X0271945Y0135148D01*
X0271937Y0135009D01*
X0271925Y0134869D01*
X0271909Y0134730D01*
X0271889Y0134592D01*
X0271865Y0134454D01*
X0271838Y0134317D01*
X0271806Y0134180D01*
X0271771Y0134045D01*
X0271731Y0133911D01*
X0271688Y0133778D01*
X0271642Y0133646D01*
X0271591Y0133515D01*
X0271537Y0133386D01*
X0271479Y0133259D01*
X0271417Y0133133D01*
X0271352Y0133009D01*
X0271284Y0132887D01*
X0271212Y0132767D01*
X0271137Y0132650D01*
X0271058Y0132534D01*
X0270976Y0132420D01*
X0270891Y0132309D01*
X0270803Y0132201D01*
X0270711Y0132095D01*
X0270617Y0131991D01*
X0270520Y0131891D01*
X0270420Y0131793D01*
X0270317Y0131698D01*
X0270212Y0131606D01*
X0270104Y0131517D01*
X0269994Y0131431D01*
X0269881Y0131348D01*
X0269766Y0131269D01*
X0269648Y0131193D01*
X0269529Y0131120D01*
X0269407Y0131050D01*
X0269284Y0130985D01*
X0269159Y0130922D01*
X0269032Y0130863D01*
X0268903Y0130808D01*
X0268773Y0130757D01*
X0268642Y0130709D01*
X0268509Y0130665D01*
X0268375Y0130625D01*
X0268240Y0130588D01*
X0268104Y0130556D01*
X0267967Y0130527D01*
X0267829Y0130503D01*
X0267691Y0130482D01*
X0267552Y0130465D01*
X0267412Y0130452D01*
X0267273Y0130443D01*
X0267133Y0130438D01*
X0266993Y0130437D01*
X0266853Y0130440D01*
X0266713Y0130447D01*
X0266574Y0130458D01*
X0266435Y0130473D01*
X0266296Y0130492D01*
X0266158Y0130514D01*
X0266021Y0130541D01*
X0265884Y0130572D01*
X0265749Y0130606D01*
X0265614Y0130644D01*
X0265481Y0130687D01*
X0265349Y0130732D01*
X0265218Y0130782D01*
X0265088Y0130835D01*
X0264961Y0130892D01*
X0264835Y0130953D01*
X0264710Y0131017D01*
X0264588Y0131085D01*
X0264467Y0131156D01*
X0264349Y0131230D01*
X0264233Y0131308D01*
X0264119Y0131389D01*
X0264007Y0131474D01*
X0263898Y0131561D01*
X0263791Y0131651D01*
X0263687Y0131745D01*
X0263586Y0131841D01*
X0263487Y0131941D01*
X0263391Y0132043D01*
X0263299Y0132147D01*
X0263209Y0132255D01*
X0263122Y0132365D01*
X0263039Y0132477D01*
X0262958Y0132591D01*
X0262881Y0132708D01*
X0262808Y0132827D01*
X0262737Y0132948D01*
X0262671Y0133071D01*
X0262607Y0133196D01*
X0262548Y0133322D01*
X0262492Y0133451D01*
X0262439Y0133580D01*
X0262391Y0133711D01*
X0262346Y0133844D01*
X0262305Y0133978D01*
X0262267Y0134113D01*
X0262234Y0134248D01*
X0262204Y0134385D01*
X0262178Y0134523D01*
X0262157Y0134661D01*
X0262139Y0134800D01*
X0262125Y0134939D01*
X0262115Y0135078D01*
X0262109Y0135218D01*
X0262107Y0135358D01*
D407*
X0249094Y0230909D02*
X0016811Y0230909D01*
X0016526Y0230912D01*
X0016240Y0230923D01*
X0015955Y0230940D01*
X0015671Y0230964D01*
X0015387Y0230995D01*
X0015104Y0231033D01*
X0014823Y0231078D01*
X0014542Y0231129D01*
X0014262Y0231187D01*
X0013984Y0231252D01*
X0013708Y0231324D01*
X0013434Y0231402D01*
X0013161Y0231487D01*
X0012891Y0231579D01*
X0012623Y0231677D01*
X0012357Y0231781D01*
X0012094Y0231892D01*
X0011834Y0232009D01*
X0011576Y0232132D01*
X0011322Y0232262D01*
X0011071Y0232398D01*
X0010823Y0232539D01*
X0010579Y0232687D01*
X0010338Y0232840D01*
X0010102Y0233000D01*
X0009869Y0233165D01*
X0009640Y0233335D01*
X0009415Y0233511D01*
X0009195Y0233693D01*
X0008979Y0233879D01*
X0008768Y0234071D01*
X0008561Y0234268D01*
X0008359Y0234470D01*
X0008162Y0234677D01*
X0007970Y0234888D01*
X0007784Y0235104D01*
X0007602Y0235324D01*
X0007426Y0235549D01*
X0007256Y0235778D01*
X0007091Y0236011D01*
X0006931Y0236247D01*
X0006778Y0236488D01*
X0006630Y0236732D01*
X0006489Y0236980D01*
X0006353Y0237231D01*
X0006223Y0237485D01*
X0006100Y0237743D01*
X0005983Y0238003D01*
X0005872Y0238266D01*
X0005768Y0238532D01*
X0005670Y0238800D01*
X0005578Y0239070D01*
X0005493Y0239343D01*
X0005415Y0239617D01*
X0005343Y0239893D01*
X0005278Y0240171D01*
X0005220Y0240451D01*
X0005169Y0240732D01*
X0005124Y0241013D01*
X0005086Y0241296D01*
X0005055Y0241580D01*
X0005031Y0241864D01*
X0005014Y0242149D01*
X0005003Y0242435D01*
X0005000Y0242720D01*
X0005000Y0337209D01*
X0005003Y0337494D01*
X0005014Y0337780D01*
X0005031Y0338065D01*
X0005055Y0338349D01*
X0005086Y0338633D01*
X0005124Y0338916D01*
X0005169Y0339197D01*
X0005220Y0339478D01*
X0005278Y0339758D01*
X0005343Y0340036D01*
X0005415Y0340312D01*
X0005493Y0340586D01*
X0005578Y0340859D01*
X0005670Y0341129D01*
X0005768Y0341397D01*
X0005872Y0341663D01*
X0005983Y0341926D01*
X0006100Y0342186D01*
X0006223Y0342444D01*
X0006353Y0342698D01*
X0006489Y0342949D01*
X0006630Y0343197D01*
X0006778Y0343441D01*
X0006931Y0343682D01*
X0007091Y0343918D01*
X0007256Y0344151D01*
X0007426Y0344380D01*
X0007602Y0344605D01*
X0007784Y0344825D01*
X0007970Y0345041D01*
X0008162Y0345252D01*
X0008359Y0345459D01*
X0008561Y0345661D01*
X0008768Y0345858D01*
X0008979Y0346050D01*
X0009195Y0346236D01*
X0009415Y0346418D01*
X0009640Y0346594D01*
X0009869Y0346764D01*
X0010102Y0346929D01*
X0010338Y0347089D01*
X0010579Y0347242D01*
X0010823Y0347390D01*
X0011071Y0347531D01*
X0011322Y0347667D01*
X0011576Y0347797D01*
X0011834Y0347920D01*
X0012094Y0348037D01*
X0012357Y0348148D01*
X0012623Y0348252D01*
X0012891Y0348350D01*
X0013161Y0348442D01*
X0013434Y0348527D01*
X0013708Y0348605D01*
X0013984Y0348677D01*
X0014262Y0348742D01*
X0014542Y0348800D01*
X0014823Y0348851D01*
X0015104Y0348896D01*
X0015387Y0348934D01*
X0015671Y0348965D01*
X0015955Y0348989D01*
X0016240Y0349006D01*
X0016526Y0349017D01*
X0016811Y0349020D01*
X0031969Y0349020D01*
X0030984Y0350988D01*
X0062480Y0350988D01*
X0061496Y0349020D01*
X0153622Y0349020D01*
X0152638Y0350988D01*
X0184134Y0350988D01*
X0183150Y0349020D01*
X0203228Y0349020D01*
X0202244Y0350988D01*
X0233740Y0350988D01*
X0232756Y0349020D01*
X0249094Y0349020D01*
X0249379Y0349017D01*
X0249665Y0349006D01*
X0249950Y0348989D01*
X0250234Y0348965D01*
X0250518Y0348934D01*
X0250801Y0348896D01*
X0251082Y0348851D01*
X0251363Y0348800D01*
X0251643Y0348742D01*
X0251921Y0348677D01*
X0252197Y0348605D01*
X0252471Y0348527D01*
X0252744Y0348442D01*
X0253014Y0348350D01*
X0253282Y0348252D01*
X0253548Y0348148D01*
X0253811Y0348037D01*
X0254071Y0347920D01*
X0254329Y0347797D01*
X0254583Y0347667D01*
X0254834Y0347531D01*
X0255082Y0347390D01*
X0255326Y0347242D01*
X0255567Y0347089D01*
X0255803Y0346929D01*
X0256036Y0346764D01*
X0256265Y0346594D01*
X0256490Y0346418D01*
X0256710Y0346236D01*
X0256926Y0346050D01*
X0257137Y0345858D01*
X0257344Y0345661D01*
X0257546Y0345459D01*
X0257743Y0345252D01*
X0257935Y0345041D01*
X0258121Y0344825D01*
X0258303Y0344605D01*
X0258479Y0344380D01*
X0258649Y0344151D01*
X0258814Y0343918D01*
X0258974Y0343682D01*
X0259127Y0343441D01*
X0259275Y0343197D01*
X0259416Y0342949D01*
X0259552Y0342698D01*
X0259682Y0342444D01*
X0259805Y0342186D01*
X0259922Y0341926D01*
X0260033Y0341663D01*
X0260137Y0341397D01*
X0260235Y0341129D01*
X0260327Y0340859D01*
X0260412Y0340586D01*
X0260490Y0340312D01*
X0260562Y0340036D01*
X0260627Y0339758D01*
X0260685Y0339478D01*
X0260736Y0339197D01*
X0260781Y0338916D01*
X0260819Y0338633D01*
X0260850Y0338349D01*
X0260874Y0338065D01*
X0260891Y0337780D01*
X0260902Y0337494D01*
X0260905Y0337209D01*
X0260906Y0337209D02*
X0260906Y0242720D01*
X0260905Y0242720D02*
X0260902Y0242435D01*
X0260891Y0242149D01*
X0260874Y0241864D01*
X0260850Y0241580D01*
X0260819Y0241296D01*
X0260781Y0241013D01*
X0260736Y0240732D01*
X0260685Y0240451D01*
X0260627Y0240171D01*
X0260562Y0239893D01*
X0260490Y0239617D01*
X0260412Y0239343D01*
X0260327Y0239070D01*
X0260235Y0238800D01*
X0260137Y0238532D01*
X0260033Y0238266D01*
X0259922Y0238003D01*
X0259805Y0237743D01*
X0259682Y0237485D01*
X0259552Y0237231D01*
X0259416Y0236980D01*
X0259275Y0236732D01*
X0259127Y0236488D01*
X0258974Y0236247D01*
X0258814Y0236011D01*
X0258649Y0235778D01*
X0258479Y0235549D01*
X0258303Y0235324D01*
X0258121Y0235104D01*
X0257935Y0234888D01*
X0257743Y0234677D01*
X0257546Y0234470D01*
X0257344Y0234268D01*
X0257137Y0234071D01*
X0256926Y0233879D01*
X0256710Y0233693D01*
X0256490Y0233511D01*
X0256265Y0233335D01*
X0256036Y0233165D01*
X0255803Y0233000D01*
X0255567Y0232840D01*
X0255326Y0232687D01*
X0255082Y0232539D01*
X0254834Y0232398D01*
X0254583Y0232262D01*
X0254329Y0232132D01*
X0254071Y0232009D01*
X0253811Y0231892D01*
X0253548Y0231781D01*
X0253282Y0231677D01*
X0253014Y0231579D01*
X0252744Y0231487D01*
X0252471Y0231402D01*
X0252197Y0231324D01*
X0251921Y0231252D01*
X0251643Y0231187D01*
X0251363Y0231129D01*
X0251082Y0231078D01*
X0250801Y0231033D01*
X0250518Y0230995D01*
X0250234Y0230964D01*
X0249950Y0230940D01*
X0249665Y0230923D01*
X0249379Y0230912D01*
X0249094Y0230909D01*
X0232953Y0234689D02*
X0232953Y0254689D01*
X0042953Y0254689D01*
X0042953Y0244689D01*
X0032953Y0244689D01*
X0032953Y0254689D01*
X0036703Y0254689D01*
X0036703Y0255939D01*
X0039203Y0255939D01*
X0039203Y0254689D01*
X0042953Y0254689D01*
X0039203Y0254689D02*
X0036703Y0254689D01*
X0032953Y0244689D02*
X0032953Y0234689D01*
X0232953Y0234689D01*
X0145453Y0199433D02*
X0145453Y0181717D01*
X0133642Y0174827D02*
X0125768Y0174827D01*
X0125768Y0183685D01*
X0125768Y0197465D02*
X0125768Y0206323D01*
X0133642Y0206323D01*
D408*
X0040186Y0257139D02*
X0037784Y0257139D01*
X0038985Y0257139D02*
X0038985Y0260742D01*
X0040186Y0259541D01*
D409*
X0112778Y0181087D02*
X0116047Y0181087D01*
X0114412Y0179452D02*
X0114412Y0182722D01*
X0114412Y0199866D02*
X0114412Y0203135D01*
D410*
X0109547Y0223941D02*
X0007185Y0223941D01*
X0007185Y0157012D01*
X0109547Y0157012D01*
X0109547Y0223941D01*
D411*
X0087877Y0141833D02*
X0093109Y0139929D01*
X0094773Y0136361D01*
X0087877Y0141833D02*
X0052196Y0125195D01*
X0050292Y0119963D01*
X0051955Y0116395D01*
X0056947Y0105690D02*
X0060275Y0098554D01*
X0065266Y0087849D02*
X0066930Y0084281D01*
X0072162Y0082377D01*
X0107844Y0099015D01*
X0109748Y0104247D01*
X0108084Y0107816D01*
X0103092Y0118520D02*
X0099765Y0125656D01*
X0066240Y0112105D02*
X0066244Y0112443D01*
X0066257Y0112781D01*
X0066277Y0113119D01*
X0066306Y0113456D01*
X0066344Y0113792D01*
X0066389Y0114127D01*
X0066443Y0114461D01*
X0066505Y0114793D01*
X0066575Y0115124D01*
X0066653Y0115453D01*
X0066739Y0115780D01*
X0066833Y0116105D01*
X0066936Y0116428D01*
X0067046Y0116747D01*
X0067163Y0117064D01*
X0067289Y0117378D01*
X0067422Y0117689D01*
X0067563Y0117997D01*
X0067711Y0118301D01*
X0067867Y0118601D01*
X0068030Y0118897D01*
X0068200Y0119189D01*
X0068378Y0119477D01*
X0068562Y0119761D01*
X0068754Y0120040D01*
X0068952Y0120314D01*
X0069157Y0120583D01*
X0069368Y0120847D01*
X0069586Y0121106D01*
X0069810Y0121359D01*
X0070040Y0121607D01*
X0070276Y0121849D01*
X0070518Y0122085D01*
X0070766Y0122315D01*
X0071019Y0122539D01*
X0071278Y0122757D01*
X0071542Y0122968D01*
X0071811Y0123173D01*
X0072085Y0123371D01*
X0072364Y0123563D01*
X0072648Y0123747D01*
X0072936Y0123925D01*
X0073228Y0124095D01*
X0073524Y0124258D01*
X0073824Y0124414D01*
X0074128Y0124562D01*
X0074436Y0124703D01*
X0074747Y0124836D01*
X0075061Y0124962D01*
X0075378Y0125079D01*
X0075697Y0125189D01*
X0076020Y0125292D01*
X0076345Y0125386D01*
X0076672Y0125472D01*
X0077001Y0125550D01*
X0077332Y0125620D01*
X0077664Y0125682D01*
X0077998Y0125736D01*
X0078333Y0125781D01*
X0078669Y0125819D01*
X0079006Y0125848D01*
X0079344Y0125868D01*
X0079682Y0125881D01*
X0080020Y0125885D01*
X0080358Y0125881D01*
X0080696Y0125868D01*
X0081034Y0125848D01*
X0081371Y0125819D01*
X0081707Y0125781D01*
X0082042Y0125736D01*
X0082376Y0125682D01*
X0082708Y0125620D01*
X0083039Y0125550D01*
X0083368Y0125472D01*
X0083695Y0125386D01*
X0084020Y0125292D01*
X0084343Y0125189D01*
X0084662Y0125079D01*
X0084979Y0124962D01*
X0085293Y0124836D01*
X0085604Y0124703D01*
X0085912Y0124562D01*
X0086216Y0124414D01*
X0086516Y0124258D01*
X0086812Y0124095D01*
X0087104Y0123925D01*
X0087392Y0123747D01*
X0087676Y0123563D01*
X0087955Y0123371D01*
X0088229Y0123173D01*
X0088498Y0122968D01*
X0088762Y0122757D01*
X0089021Y0122539D01*
X0089274Y0122315D01*
X0089522Y0122085D01*
X0089764Y0121849D01*
X0090000Y0121607D01*
X0090230Y0121359D01*
X0090454Y0121106D01*
X0090672Y0120847D01*
X0090883Y0120583D01*
X0091088Y0120314D01*
X0091286Y0120040D01*
X0091478Y0119761D01*
X0091662Y0119477D01*
X0091840Y0119189D01*
X0092010Y0118897D01*
X0092173Y0118601D01*
X0092329Y0118301D01*
X0092477Y0117997D01*
X0092618Y0117689D01*
X0092751Y0117378D01*
X0092877Y0117064D01*
X0092994Y0116747D01*
X0093104Y0116428D01*
X0093207Y0116105D01*
X0093301Y0115780D01*
X0093387Y0115453D01*
X0093465Y0115124D01*
X0093535Y0114793D01*
X0093597Y0114461D01*
X0093651Y0114127D01*
X0093696Y0113792D01*
X0093734Y0113456D01*
X0093763Y0113119D01*
X0093783Y0112781D01*
X0093796Y0112443D01*
X0093800Y0112105D01*
X0093796Y0111767D01*
X0093783Y0111429D01*
X0093763Y0111091D01*
X0093734Y0110754D01*
X0093696Y0110418D01*
X0093651Y0110083D01*
X0093597Y0109749D01*
X0093535Y0109417D01*
X0093465Y0109086D01*
X0093387Y0108757D01*
X0093301Y0108430D01*
X0093207Y0108105D01*
X0093104Y0107782D01*
X0092994Y0107463D01*
X0092877Y0107146D01*
X0092751Y0106832D01*
X0092618Y0106521D01*
X0092477Y0106213D01*
X0092329Y0105909D01*
X0092173Y0105609D01*
X0092010Y0105313D01*
X0091840Y0105021D01*
X0091662Y0104733D01*
X0091478Y0104449D01*
X0091286Y0104170D01*
X0091088Y0103896D01*
X0090883Y0103627D01*
X0090672Y0103363D01*
X0090454Y0103104D01*
X0090230Y0102851D01*
X0090000Y0102603D01*
X0089764Y0102361D01*
X0089522Y0102125D01*
X0089274Y0101895D01*
X0089021Y0101671D01*
X0088762Y0101453D01*
X0088498Y0101242D01*
X0088229Y0101037D01*
X0087955Y0100839D01*
X0087676Y0100647D01*
X0087392Y0100463D01*
X0087104Y0100285D01*
X0086812Y0100115D01*
X0086516Y0099952D01*
X0086216Y0099796D01*
X0085912Y0099648D01*
X0085604Y0099507D01*
X0085293Y0099374D01*
X0084979Y0099248D01*
X0084662Y0099131D01*
X0084343Y0099021D01*
X0084020Y0098918D01*
X0083695Y0098824D01*
X0083368Y0098738D01*
X0083039Y0098660D01*
X0082708Y0098590D01*
X0082376Y0098528D01*
X0082042Y0098474D01*
X0081707Y0098429D01*
X0081371Y0098391D01*
X0081034Y0098362D01*
X0080696Y0098342D01*
X0080358Y0098329D01*
X0080020Y0098325D01*
X0079682Y0098329D01*
X0079344Y0098342D01*
X0079006Y0098362D01*
X0078669Y0098391D01*
X0078333Y0098429D01*
X0077998Y0098474D01*
X0077664Y0098528D01*
X0077332Y0098590D01*
X0077001Y0098660D01*
X0076672Y0098738D01*
X0076345Y0098824D01*
X0076020Y0098918D01*
X0075697Y0099021D01*
X0075378Y0099131D01*
X0075061Y0099248D01*
X0074747Y0099374D01*
X0074436Y0099507D01*
X0074128Y0099648D01*
X0073824Y0099796D01*
X0073524Y0099952D01*
X0073228Y0100115D01*
X0072936Y0100285D01*
X0072648Y0100463D01*
X0072364Y0100647D01*
X0072085Y0100839D01*
X0071811Y0101037D01*
X0071542Y0101242D01*
X0071278Y0101453D01*
X0071019Y0101671D01*
X0070766Y0101895D01*
X0070518Y0102125D01*
X0070276Y0102361D01*
X0070040Y0102603D01*
X0069810Y0102851D01*
X0069586Y0103104D01*
X0069368Y0103363D01*
X0069157Y0103627D01*
X0068952Y0103896D01*
X0068754Y0104170D01*
X0068562Y0104449D01*
X0068378Y0104733D01*
X0068200Y0105021D01*
X0068030Y0105313D01*
X0067867Y0105609D01*
X0067711Y0105909D01*
X0067563Y0106213D01*
X0067422Y0106521D01*
X0067289Y0106832D01*
X0067163Y0107146D01*
X0067046Y0107463D01*
X0066936Y0107782D01*
X0066833Y0108105D01*
X0066739Y0108430D01*
X0066653Y0108757D01*
X0066575Y0109086D01*
X0066505Y0109417D01*
X0066443Y0109749D01*
X0066389Y0110083D01*
X0066344Y0110418D01*
X0066306Y0110754D01*
X0066277Y0111091D01*
X0066257Y0111429D01*
X0066244Y0111767D01*
X0066240Y0112105D01*
X0073521Y0070935D02*
X0071617Y0065703D01*
X0073281Y0062135D01*
X0073521Y0070935D02*
X0109203Y0087573D01*
X0114435Y0085669D01*
X0116099Y0082101D01*
X0121090Y0071396D02*
X0124418Y0064260D01*
X0129409Y0053556D02*
X0131073Y0049988D01*
X0129169Y0044756D01*
X0093487Y0028117D01*
X0088256Y0030021D01*
X0086592Y0033590D01*
X0081600Y0044294D02*
X0078272Y0051430D01*
X0087565Y0057845D02*
X0087569Y0058183D01*
X0087582Y0058521D01*
X0087602Y0058859D01*
X0087631Y0059196D01*
X0087669Y0059532D01*
X0087714Y0059867D01*
X0087768Y0060201D01*
X0087830Y0060533D01*
X0087900Y0060864D01*
X0087978Y0061193D01*
X0088064Y0061520D01*
X0088158Y0061845D01*
X0088261Y0062168D01*
X0088371Y0062487D01*
X0088488Y0062804D01*
X0088614Y0063118D01*
X0088747Y0063429D01*
X0088888Y0063737D01*
X0089036Y0064041D01*
X0089192Y0064341D01*
X0089355Y0064637D01*
X0089525Y0064929D01*
X0089703Y0065217D01*
X0089887Y0065501D01*
X0090079Y0065780D01*
X0090277Y0066054D01*
X0090482Y0066323D01*
X0090693Y0066587D01*
X0090911Y0066846D01*
X0091135Y0067099D01*
X0091365Y0067347D01*
X0091601Y0067589D01*
X0091843Y0067825D01*
X0092091Y0068055D01*
X0092344Y0068279D01*
X0092603Y0068497D01*
X0092867Y0068708D01*
X0093136Y0068913D01*
X0093410Y0069111D01*
X0093689Y0069303D01*
X0093973Y0069487D01*
X0094261Y0069665D01*
X0094553Y0069835D01*
X0094849Y0069998D01*
X0095149Y0070154D01*
X0095453Y0070302D01*
X0095761Y0070443D01*
X0096072Y0070576D01*
X0096386Y0070702D01*
X0096703Y0070819D01*
X0097022Y0070929D01*
X0097345Y0071032D01*
X0097670Y0071126D01*
X0097997Y0071212D01*
X0098326Y0071290D01*
X0098657Y0071360D01*
X0098989Y0071422D01*
X0099323Y0071476D01*
X0099658Y0071521D01*
X0099994Y0071559D01*
X0100331Y0071588D01*
X0100669Y0071608D01*
X0101007Y0071621D01*
X0101345Y0071625D01*
X0101683Y0071621D01*
X0102021Y0071608D01*
X0102359Y0071588D01*
X0102696Y0071559D01*
X0103032Y0071521D01*
X0103367Y0071476D01*
X0103701Y0071422D01*
X0104033Y0071360D01*
X0104364Y0071290D01*
X0104693Y0071212D01*
X0105020Y0071126D01*
X0105345Y0071032D01*
X0105668Y0070929D01*
X0105987Y0070819D01*
X0106304Y0070702D01*
X0106618Y0070576D01*
X0106929Y0070443D01*
X0107237Y0070302D01*
X0107541Y0070154D01*
X0107841Y0069998D01*
X0108137Y0069835D01*
X0108429Y0069665D01*
X0108717Y0069487D01*
X0109001Y0069303D01*
X0109280Y0069111D01*
X0109554Y0068913D01*
X0109823Y0068708D01*
X0110087Y0068497D01*
X0110346Y0068279D01*
X0110599Y0068055D01*
X0110847Y0067825D01*
X0111089Y0067589D01*
X0111325Y0067347D01*
X0111555Y0067099D01*
X0111779Y0066846D01*
X0111997Y0066587D01*
X0112208Y0066323D01*
X0112413Y0066054D01*
X0112611Y0065780D01*
X0112803Y0065501D01*
X0112987Y0065217D01*
X0113165Y0064929D01*
X0113335Y0064637D01*
X0113498Y0064341D01*
X0113654Y0064041D01*
X0113802Y0063737D01*
X0113943Y0063429D01*
X0114076Y0063118D01*
X0114202Y0062804D01*
X0114319Y0062487D01*
X0114429Y0062168D01*
X0114532Y0061845D01*
X0114626Y0061520D01*
X0114712Y0061193D01*
X0114790Y0060864D01*
X0114860Y0060533D01*
X0114922Y0060201D01*
X0114976Y0059867D01*
X0115021Y0059532D01*
X0115059Y0059196D01*
X0115088Y0058859D01*
X0115108Y0058521D01*
X0115121Y0058183D01*
X0115125Y0057845D01*
X0115121Y0057507D01*
X0115108Y0057169D01*
X0115088Y0056831D01*
X0115059Y0056494D01*
X0115021Y0056158D01*
X0114976Y0055823D01*
X0114922Y0055489D01*
X0114860Y0055157D01*
X0114790Y0054826D01*
X0114712Y0054497D01*
X0114626Y0054170D01*
X0114532Y0053845D01*
X0114429Y0053522D01*
X0114319Y0053203D01*
X0114202Y0052886D01*
X0114076Y0052572D01*
X0113943Y0052261D01*
X0113802Y0051953D01*
X0113654Y0051649D01*
X0113498Y0051349D01*
X0113335Y0051053D01*
X0113165Y0050761D01*
X0112987Y0050473D01*
X0112803Y0050189D01*
X0112611Y0049910D01*
X0112413Y0049636D01*
X0112208Y0049367D01*
X0111997Y0049103D01*
X0111779Y0048844D01*
X0111555Y0048591D01*
X0111325Y0048343D01*
X0111089Y0048101D01*
X0110847Y0047865D01*
X0110599Y0047635D01*
X0110346Y0047411D01*
X0110087Y0047193D01*
X0109823Y0046982D01*
X0109554Y0046777D01*
X0109280Y0046579D01*
X0109001Y0046387D01*
X0108717Y0046203D01*
X0108429Y0046025D01*
X0108137Y0045855D01*
X0107841Y0045692D01*
X0107541Y0045536D01*
X0107237Y0045388D01*
X0106929Y0045247D01*
X0106618Y0045114D01*
X0106304Y0044988D01*
X0105987Y0044871D01*
X0105668Y0044761D01*
X0105345Y0044658D01*
X0105020Y0044564D01*
X0104693Y0044478D01*
X0104364Y0044400D01*
X0104033Y0044330D01*
X0103701Y0044268D01*
X0103367Y0044214D01*
X0103032Y0044169D01*
X0102696Y0044131D01*
X0102359Y0044102D01*
X0102021Y0044082D01*
X0101683Y0044069D01*
X0101345Y0044065D01*
X0101007Y0044069D01*
X0100669Y0044082D01*
X0100331Y0044102D01*
X0099994Y0044131D01*
X0099658Y0044169D01*
X0099323Y0044214D01*
X0098989Y0044268D01*
X0098657Y0044330D01*
X0098326Y0044400D01*
X0097997Y0044478D01*
X0097670Y0044564D01*
X0097345Y0044658D01*
X0097022Y0044761D01*
X0096703Y0044871D01*
X0096386Y0044988D01*
X0096072Y0045114D01*
X0095761Y0045247D01*
X0095453Y0045388D01*
X0095149Y0045536D01*
X0094849Y0045692D01*
X0094553Y0045855D01*
X0094261Y0046025D01*
X0093973Y0046203D01*
X0093689Y0046387D01*
X0093410Y0046579D01*
X0093136Y0046777D01*
X0092867Y0046982D01*
X0092603Y0047193D01*
X0092344Y0047411D01*
X0092091Y0047635D01*
X0091843Y0047865D01*
X0091601Y0048101D01*
X0091365Y0048343D01*
X0091135Y0048591D01*
X0090911Y0048844D01*
X0090693Y0049103D01*
X0090482Y0049367D01*
X0090277Y0049636D01*
X0090079Y0049910D01*
X0089887Y0050189D01*
X0089703Y0050473D01*
X0089525Y0050761D01*
X0089355Y0051053D01*
X0089192Y0051349D01*
X0089036Y0051649D01*
X0088888Y0051953D01*
X0088747Y0052261D01*
X0088614Y0052572D01*
X0088488Y0052886D01*
X0088371Y0053203D01*
X0088261Y0053522D01*
X0088158Y0053845D01*
X0088064Y0054170D01*
X0087978Y0054497D01*
X0087900Y0054826D01*
X0087830Y0055157D01*
X0087768Y0055489D01*
X0087714Y0055823D01*
X0087669Y0056158D01*
X0087631Y0056494D01*
X0087602Y0056831D01*
X0087582Y0057169D01*
X0087569Y0057507D01*
X0087565Y0057845D01*
X0154950Y0049988D02*
X0156855Y0044756D01*
X0192536Y0028117D01*
X0197768Y0030021D01*
X0199432Y0033590D01*
X0204424Y0044294D02*
X0207751Y0051430D01*
X0212743Y0062135D02*
X0214407Y0065703D01*
X0212502Y0070935D01*
X0176821Y0087573D01*
X0171589Y0085669D01*
X0169925Y0082101D01*
X0164934Y0071396D02*
X0161606Y0064260D01*
X0156614Y0053556D02*
X0154950Y0049988D01*
X0170899Y0057845D02*
X0170903Y0058183D01*
X0170916Y0058521D01*
X0170936Y0058859D01*
X0170965Y0059196D01*
X0171003Y0059532D01*
X0171048Y0059867D01*
X0171102Y0060201D01*
X0171164Y0060533D01*
X0171234Y0060864D01*
X0171312Y0061193D01*
X0171398Y0061520D01*
X0171492Y0061845D01*
X0171595Y0062168D01*
X0171705Y0062487D01*
X0171822Y0062804D01*
X0171948Y0063118D01*
X0172081Y0063429D01*
X0172222Y0063737D01*
X0172370Y0064041D01*
X0172526Y0064341D01*
X0172689Y0064637D01*
X0172859Y0064929D01*
X0173037Y0065217D01*
X0173221Y0065501D01*
X0173413Y0065780D01*
X0173611Y0066054D01*
X0173816Y0066323D01*
X0174027Y0066587D01*
X0174245Y0066846D01*
X0174469Y0067099D01*
X0174699Y0067347D01*
X0174935Y0067589D01*
X0175177Y0067825D01*
X0175425Y0068055D01*
X0175678Y0068279D01*
X0175937Y0068497D01*
X0176201Y0068708D01*
X0176470Y0068913D01*
X0176744Y0069111D01*
X0177023Y0069303D01*
X0177307Y0069487D01*
X0177595Y0069665D01*
X0177887Y0069835D01*
X0178183Y0069998D01*
X0178483Y0070154D01*
X0178787Y0070302D01*
X0179095Y0070443D01*
X0179406Y0070576D01*
X0179720Y0070702D01*
X0180037Y0070819D01*
X0180356Y0070929D01*
X0180679Y0071032D01*
X0181004Y0071126D01*
X0181331Y0071212D01*
X0181660Y0071290D01*
X0181991Y0071360D01*
X0182323Y0071422D01*
X0182657Y0071476D01*
X0182992Y0071521D01*
X0183328Y0071559D01*
X0183665Y0071588D01*
X0184003Y0071608D01*
X0184341Y0071621D01*
X0184679Y0071625D01*
X0185017Y0071621D01*
X0185355Y0071608D01*
X0185693Y0071588D01*
X0186030Y0071559D01*
X0186366Y0071521D01*
X0186701Y0071476D01*
X0187035Y0071422D01*
X0187367Y0071360D01*
X0187698Y0071290D01*
X0188027Y0071212D01*
X0188354Y0071126D01*
X0188679Y0071032D01*
X0189002Y0070929D01*
X0189321Y0070819D01*
X0189638Y0070702D01*
X0189952Y0070576D01*
X0190263Y0070443D01*
X0190571Y0070302D01*
X0190875Y0070154D01*
X0191175Y0069998D01*
X0191471Y0069835D01*
X0191763Y0069665D01*
X0192051Y0069487D01*
X0192335Y0069303D01*
X0192614Y0069111D01*
X0192888Y0068913D01*
X0193157Y0068708D01*
X0193421Y0068497D01*
X0193680Y0068279D01*
X0193933Y0068055D01*
X0194181Y0067825D01*
X0194423Y0067589D01*
X0194659Y0067347D01*
X0194889Y0067099D01*
X0195113Y0066846D01*
X0195331Y0066587D01*
X0195542Y0066323D01*
X0195747Y0066054D01*
X0195945Y0065780D01*
X0196137Y0065501D01*
X0196321Y0065217D01*
X0196499Y0064929D01*
X0196669Y0064637D01*
X0196832Y0064341D01*
X0196988Y0064041D01*
X0197136Y0063737D01*
X0197277Y0063429D01*
X0197410Y0063118D01*
X0197536Y0062804D01*
X0197653Y0062487D01*
X0197763Y0062168D01*
X0197866Y0061845D01*
X0197960Y0061520D01*
X0198046Y0061193D01*
X0198124Y0060864D01*
X0198194Y0060533D01*
X0198256Y0060201D01*
X0198310Y0059867D01*
X0198355Y0059532D01*
X0198393Y0059196D01*
X0198422Y0058859D01*
X0198442Y0058521D01*
X0198455Y0058183D01*
X0198459Y0057845D01*
X0198455Y0057507D01*
X0198442Y0057169D01*
X0198422Y0056831D01*
X0198393Y0056494D01*
X0198355Y0056158D01*
X0198310Y0055823D01*
X0198256Y0055489D01*
X0198194Y0055157D01*
X0198124Y0054826D01*
X0198046Y0054497D01*
X0197960Y0054170D01*
X0197866Y0053845D01*
X0197763Y0053522D01*
X0197653Y0053203D01*
X0197536Y0052886D01*
X0197410Y0052572D01*
X0197277Y0052261D01*
X0197136Y0051953D01*
X0196988Y0051649D01*
X0196832Y0051349D01*
X0196669Y0051053D01*
X0196499Y0050761D01*
X0196321Y0050473D01*
X0196137Y0050189D01*
X0195945Y0049910D01*
X0195747Y0049636D01*
X0195542Y0049367D01*
X0195331Y0049103D01*
X0195113Y0048844D01*
X0194889Y0048591D01*
X0194659Y0048343D01*
X0194423Y0048101D01*
X0194181Y0047865D01*
X0193933Y0047635D01*
X0193680Y0047411D01*
X0193421Y0047193D01*
X0193157Y0046982D01*
X0192888Y0046777D01*
X0192614Y0046579D01*
X0192335Y0046387D01*
X0192051Y0046203D01*
X0191763Y0046025D01*
X0191471Y0045855D01*
X0191175Y0045692D01*
X0190875Y0045536D01*
X0190571Y0045388D01*
X0190263Y0045247D01*
X0189952Y0045114D01*
X0189638Y0044988D01*
X0189321Y0044871D01*
X0189002Y0044761D01*
X0188679Y0044658D01*
X0188354Y0044564D01*
X0188027Y0044478D01*
X0187698Y0044400D01*
X0187367Y0044330D01*
X0187035Y0044268D01*
X0186701Y0044214D01*
X0186366Y0044169D01*
X0186030Y0044131D01*
X0185693Y0044102D01*
X0185355Y0044082D01*
X0185017Y0044069D01*
X0184679Y0044065D01*
X0184341Y0044069D01*
X0184003Y0044082D01*
X0183665Y0044102D01*
X0183328Y0044131D01*
X0182992Y0044169D01*
X0182657Y0044214D01*
X0182323Y0044268D01*
X0181991Y0044330D01*
X0181660Y0044400D01*
X0181331Y0044478D01*
X0181004Y0044564D01*
X0180679Y0044658D01*
X0180356Y0044761D01*
X0180037Y0044871D01*
X0179720Y0044988D01*
X0179406Y0045114D01*
X0179095Y0045247D01*
X0178787Y0045388D01*
X0178483Y0045536D01*
X0178183Y0045692D01*
X0177887Y0045855D01*
X0177595Y0046025D01*
X0177307Y0046203D01*
X0177023Y0046387D01*
X0176744Y0046579D01*
X0176470Y0046777D01*
X0176201Y0046982D01*
X0175937Y0047193D01*
X0175678Y0047411D01*
X0175425Y0047635D01*
X0175177Y0047865D01*
X0174935Y0048101D01*
X0174699Y0048343D01*
X0174469Y0048591D01*
X0174245Y0048844D01*
X0174027Y0049103D01*
X0173816Y0049367D01*
X0173611Y0049636D01*
X0173413Y0049910D01*
X0173221Y0050189D01*
X0173037Y0050473D01*
X0172859Y0050761D01*
X0172689Y0051053D01*
X0172526Y0051349D01*
X0172370Y0051649D01*
X0172222Y0051953D01*
X0172081Y0052261D01*
X0171948Y0052572D01*
X0171822Y0052886D01*
X0171705Y0053203D01*
X0171595Y0053522D01*
X0171492Y0053845D01*
X0171398Y0054170D01*
X0171312Y0054497D01*
X0171234Y0054826D01*
X0171164Y0055157D01*
X0171102Y0055489D01*
X0171048Y0055823D01*
X0171003Y0056158D01*
X0170965Y0056494D01*
X0170936Y0056831D01*
X0170916Y0057169D01*
X0170903Y0057507D01*
X0170899Y0057845D01*
X0178180Y0099015D02*
X0176276Y0104247D01*
X0177940Y0107816D01*
X0178180Y0099015D02*
X0213862Y0082377D01*
X0219094Y0084281D01*
X0220757Y0087849D01*
X0225749Y0098554D02*
X0229077Y0105690D01*
X0234068Y0116395D02*
X0235732Y0119963D01*
X0233828Y0125195D01*
X0198146Y0141833D01*
X0192914Y0139929D01*
X0191251Y0136361D01*
X0186259Y0125656D02*
X0182931Y0118520D01*
X0192224Y0112105D02*
X0192228Y0112443D01*
X0192241Y0112781D01*
X0192261Y0113119D01*
X0192290Y0113456D01*
X0192328Y0113792D01*
X0192373Y0114127D01*
X0192427Y0114461D01*
X0192489Y0114793D01*
X0192559Y0115124D01*
X0192637Y0115453D01*
X0192723Y0115780D01*
X0192817Y0116105D01*
X0192920Y0116428D01*
X0193030Y0116747D01*
X0193147Y0117064D01*
X0193273Y0117378D01*
X0193406Y0117689D01*
X0193547Y0117997D01*
X0193695Y0118301D01*
X0193851Y0118601D01*
X0194014Y0118897D01*
X0194184Y0119189D01*
X0194362Y0119477D01*
X0194546Y0119761D01*
X0194738Y0120040D01*
X0194936Y0120314D01*
X0195141Y0120583D01*
X0195352Y0120847D01*
X0195570Y0121106D01*
X0195794Y0121359D01*
X0196024Y0121607D01*
X0196260Y0121849D01*
X0196502Y0122085D01*
X0196750Y0122315D01*
X0197003Y0122539D01*
X0197262Y0122757D01*
X0197526Y0122968D01*
X0197795Y0123173D01*
X0198069Y0123371D01*
X0198348Y0123563D01*
X0198632Y0123747D01*
X0198920Y0123925D01*
X0199212Y0124095D01*
X0199508Y0124258D01*
X0199808Y0124414D01*
X0200112Y0124562D01*
X0200420Y0124703D01*
X0200731Y0124836D01*
X0201045Y0124962D01*
X0201362Y0125079D01*
X0201681Y0125189D01*
X0202004Y0125292D01*
X0202329Y0125386D01*
X0202656Y0125472D01*
X0202985Y0125550D01*
X0203316Y0125620D01*
X0203648Y0125682D01*
X0203982Y0125736D01*
X0204317Y0125781D01*
X0204653Y0125819D01*
X0204990Y0125848D01*
X0205328Y0125868D01*
X0205666Y0125881D01*
X0206004Y0125885D01*
X0206342Y0125881D01*
X0206680Y0125868D01*
X0207018Y0125848D01*
X0207355Y0125819D01*
X0207691Y0125781D01*
X0208026Y0125736D01*
X0208360Y0125682D01*
X0208692Y0125620D01*
X0209023Y0125550D01*
X0209352Y0125472D01*
X0209679Y0125386D01*
X0210004Y0125292D01*
X0210327Y0125189D01*
X0210646Y0125079D01*
X0210963Y0124962D01*
X0211277Y0124836D01*
X0211588Y0124703D01*
X0211896Y0124562D01*
X0212200Y0124414D01*
X0212500Y0124258D01*
X0212796Y0124095D01*
X0213088Y0123925D01*
X0213376Y0123747D01*
X0213660Y0123563D01*
X0213939Y0123371D01*
X0214213Y0123173D01*
X0214482Y0122968D01*
X0214746Y0122757D01*
X0215005Y0122539D01*
X0215258Y0122315D01*
X0215506Y0122085D01*
X0215748Y0121849D01*
X0215984Y0121607D01*
X0216214Y0121359D01*
X0216438Y0121106D01*
X0216656Y0120847D01*
X0216867Y0120583D01*
X0217072Y0120314D01*
X0217270Y0120040D01*
X0217462Y0119761D01*
X0217646Y0119477D01*
X0217824Y0119189D01*
X0217994Y0118897D01*
X0218157Y0118601D01*
X0218313Y0118301D01*
X0218461Y0117997D01*
X0218602Y0117689D01*
X0218735Y0117378D01*
X0218861Y0117064D01*
X0218978Y0116747D01*
X0219088Y0116428D01*
X0219191Y0116105D01*
X0219285Y0115780D01*
X0219371Y0115453D01*
X0219449Y0115124D01*
X0219519Y0114793D01*
X0219581Y0114461D01*
X0219635Y0114127D01*
X0219680Y0113792D01*
X0219718Y0113456D01*
X0219747Y0113119D01*
X0219767Y0112781D01*
X0219780Y0112443D01*
X0219784Y0112105D01*
X0219780Y0111767D01*
X0219767Y0111429D01*
X0219747Y0111091D01*
X0219718Y0110754D01*
X0219680Y0110418D01*
X0219635Y0110083D01*
X0219581Y0109749D01*
X0219519Y0109417D01*
X0219449Y0109086D01*
X0219371Y0108757D01*
X0219285Y0108430D01*
X0219191Y0108105D01*
X0219088Y0107782D01*
X0218978Y0107463D01*
X0218861Y0107146D01*
X0218735Y0106832D01*
X0218602Y0106521D01*
X0218461Y0106213D01*
X0218313Y0105909D01*
X0218157Y0105609D01*
X0217994Y0105313D01*
X0217824Y0105021D01*
X0217646Y0104733D01*
X0217462Y0104449D01*
X0217270Y0104170D01*
X0217072Y0103896D01*
X0216867Y0103627D01*
X0216656Y0103363D01*
X0216438Y0103104D01*
X0216214Y0102851D01*
X0215984Y0102603D01*
X0215748Y0102361D01*
X0215506Y0102125D01*
X0215258Y0101895D01*
X0215005Y0101671D01*
X0214746Y0101453D01*
X0214482Y0101242D01*
X0214213Y0101037D01*
X0213939Y0100839D01*
X0213660Y0100647D01*
X0213376Y0100463D01*
X0213088Y0100285D01*
X0212796Y0100115D01*
X0212500Y0099952D01*
X0212200Y0099796D01*
X0211896Y0099648D01*
X0211588Y0099507D01*
X0211277Y0099374D01*
X0210963Y0099248D01*
X0210646Y0099131D01*
X0210327Y0099021D01*
X0210004Y0098918D01*
X0209679Y0098824D01*
X0209352Y0098738D01*
X0209023Y0098660D01*
X0208692Y0098590D01*
X0208360Y0098528D01*
X0208026Y0098474D01*
X0207691Y0098429D01*
X0207355Y0098391D01*
X0207018Y0098362D01*
X0206680Y0098342D01*
X0206342Y0098329D01*
X0206004Y0098325D01*
X0205666Y0098329D01*
X0205328Y0098342D01*
X0204990Y0098362D01*
X0204653Y0098391D01*
X0204317Y0098429D01*
X0203982Y0098474D01*
X0203648Y0098528D01*
X0203316Y0098590D01*
X0202985Y0098660D01*
X0202656Y0098738D01*
X0202329Y0098824D01*
X0202004Y0098918D01*
X0201681Y0099021D01*
X0201362Y0099131D01*
X0201045Y0099248D01*
X0200731Y0099374D01*
X0200420Y0099507D01*
X0200112Y0099648D01*
X0199808Y0099796D01*
X0199508Y0099952D01*
X0199212Y0100115D01*
X0198920Y0100285D01*
X0198632Y0100463D01*
X0198348Y0100647D01*
X0198069Y0100839D01*
X0197795Y0101037D01*
X0197526Y0101242D01*
X0197262Y0101453D01*
X0197003Y0101671D01*
X0196750Y0101895D01*
X0196502Y0102125D01*
X0196260Y0102361D01*
X0196024Y0102603D01*
X0195794Y0102851D01*
X0195570Y0103104D01*
X0195352Y0103363D01*
X0195141Y0103627D01*
X0194936Y0103896D01*
X0194738Y0104170D01*
X0194546Y0104449D01*
X0194362Y0104733D01*
X0194184Y0105021D01*
X0194014Y0105313D01*
X0193851Y0105609D01*
X0193695Y0105909D01*
X0193547Y0106213D01*
X0193406Y0106521D01*
X0193273Y0106832D01*
X0193147Y0107146D01*
X0193030Y0107463D01*
X0192920Y0107782D01*
X0192817Y0108105D01*
X0192723Y0108430D01*
X0192637Y0108757D01*
X0192559Y0109086D01*
X0192489Y0109417D01*
X0192427Y0109749D01*
X0192373Y0110083D01*
X0192328Y0110418D01*
X0192290Y0110754D01*
X0192261Y0111091D01*
X0192241Y0111429D01*
X0192228Y0111767D01*
X0192224Y0112105D01*
X0271843Y0306709D02*
X0275205Y0306709D01*
X0279142Y0309768D02*
X0279142Y0331028D01*
X0275205Y0334087D02*
X0271843Y0334087D01*
X0267906Y0326803D02*
X0267906Y0319898D01*
D412*
X0196254Y0135649D02*
X0196256Y0135718D01*
X0196262Y0135786D01*
X0196272Y0135854D01*
X0196286Y0135921D01*
X0196304Y0135988D01*
X0196325Y0136053D01*
X0196351Y0136117D01*
X0196380Y0136179D01*
X0196412Y0136239D01*
X0196448Y0136298D01*
X0196488Y0136354D01*
X0196530Y0136408D01*
X0196576Y0136459D01*
X0196625Y0136508D01*
X0196676Y0136554D01*
X0196730Y0136596D01*
X0196786Y0136636D01*
X0196844Y0136672D01*
X0196905Y0136704D01*
X0196967Y0136733D01*
X0197031Y0136759D01*
X0197096Y0136780D01*
X0197163Y0136798D01*
X0197230Y0136812D01*
X0197298Y0136822D01*
X0197366Y0136828D01*
X0197435Y0136830D01*
X0197504Y0136828D01*
X0197572Y0136822D01*
X0197640Y0136812D01*
X0197707Y0136798D01*
X0197774Y0136780D01*
X0197839Y0136759D01*
X0197903Y0136733D01*
X0197965Y0136704D01*
X0198025Y0136672D01*
X0198084Y0136636D01*
X0198140Y0136596D01*
X0198194Y0136554D01*
X0198245Y0136508D01*
X0198294Y0136459D01*
X0198340Y0136408D01*
X0198382Y0136354D01*
X0198422Y0136298D01*
X0198458Y0136239D01*
X0198490Y0136179D01*
X0198519Y0136117D01*
X0198545Y0136053D01*
X0198566Y0135988D01*
X0198584Y0135921D01*
X0198598Y0135854D01*
X0198608Y0135786D01*
X0198614Y0135718D01*
X0198616Y0135649D01*
X0198614Y0135580D01*
X0198608Y0135512D01*
X0198598Y0135444D01*
X0198584Y0135377D01*
X0198566Y0135310D01*
X0198545Y0135245D01*
X0198519Y0135181D01*
X0198490Y0135119D01*
X0198458Y0135058D01*
X0198422Y0135000D01*
X0198382Y0134944D01*
X0198340Y0134890D01*
X0198294Y0134839D01*
X0198245Y0134790D01*
X0198194Y0134744D01*
X0198140Y0134702D01*
X0198084Y0134662D01*
X0198026Y0134626D01*
X0197965Y0134594D01*
X0197903Y0134565D01*
X0197839Y0134539D01*
X0197774Y0134518D01*
X0197707Y0134500D01*
X0197640Y0134486D01*
X0197572Y0134476D01*
X0197504Y0134470D01*
X0197435Y0134468D01*
X0197366Y0134470D01*
X0197298Y0134476D01*
X0197230Y0134486D01*
X0197163Y0134500D01*
X0197096Y0134518D01*
X0197031Y0134539D01*
X0196967Y0134565D01*
X0196905Y0134594D01*
X0196844Y0134626D01*
X0196786Y0134662D01*
X0196730Y0134702D01*
X0196676Y0134744D01*
X0196625Y0134790D01*
X0196576Y0134839D01*
X0196530Y0134890D01*
X0196488Y0134944D01*
X0196448Y0135000D01*
X0196412Y0135058D01*
X0196380Y0135119D01*
X0196351Y0135181D01*
X0196325Y0135245D01*
X0196304Y0135310D01*
X0196286Y0135377D01*
X0196272Y0135444D01*
X0196262Y0135512D01*
X0196256Y0135580D01*
X0196254Y0135649D01*
X0181279Y0103536D02*
X0181281Y0103605D01*
X0181287Y0103673D01*
X0181297Y0103741D01*
X0181311Y0103808D01*
X0181329Y0103875D01*
X0181350Y0103940D01*
X0181376Y0104004D01*
X0181405Y0104066D01*
X0181437Y0104126D01*
X0181473Y0104185D01*
X0181513Y0104241D01*
X0181555Y0104295D01*
X0181601Y0104346D01*
X0181650Y0104395D01*
X0181701Y0104441D01*
X0181755Y0104483D01*
X0181811Y0104523D01*
X0181869Y0104559D01*
X0181930Y0104591D01*
X0181992Y0104620D01*
X0182056Y0104646D01*
X0182121Y0104667D01*
X0182188Y0104685D01*
X0182255Y0104699D01*
X0182323Y0104709D01*
X0182391Y0104715D01*
X0182460Y0104717D01*
X0182529Y0104715D01*
X0182597Y0104709D01*
X0182665Y0104699D01*
X0182732Y0104685D01*
X0182799Y0104667D01*
X0182864Y0104646D01*
X0182928Y0104620D01*
X0182990Y0104591D01*
X0183050Y0104559D01*
X0183109Y0104523D01*
X0183165Y0104483D01*
X0183219Y0104441D01*
X0183270Y0104395D01*
X0183319Y0104346D01*
X0183365Y0104295D01*
X0183407Y0104241D01*
X0183447Y0104185D01*
X0183483Y0104126D01*
X0183515Y0104066D01*
X0183544Y0104004D01*
X0183570Y0103940D01*
X0183591Y0103875D01*
X0183609Y0103808D01*
X0183623Y0103741D01*
X0183633Y0103673D01*
X0183639Y0103605D01*
X0183641Y0103536D01*
X0183639Y0103467D01*
X0183633Y0103399D01*
X0183623Y0103331D01*
X0183609Y0103264D01*
X0183591Y0103197D01*
X0183570Y0103132D01*
X0183544Y0103068D01*
X0183515Y0103006D01*
X0183483Y0102945D01*
X0183447Y0102887D01*
X0183407Y0102831D01*
X0183365Y0102777D01*
X0183319Y0102726D01*
X0183270Y0102677D01*
X0183219Y0102631D01*
X0183165Y0102589D01*
X0183109Y0102549D01*
X0183051Y0102513D01*
X0182990Y0102481D01*
X0182928Y0102452D01*
X0182864Y0102426D01*
X0182799Y0102405D01*
X0182732Y0102387D01*
X0182665Y0102373D01*
X0182597Y0102363D01*
X0182529Y0102357D01*
X0182460Y0102355D01*
X0182391Y0102357D01*
X0182323Y0102363D01*
X0182255Y0102373D01*
X0182188Y0102387D01*
X0182121Y0102405D01*
X0182056Y0102426D01*
X0181992Y0102452D01*
X0181930Y0102481D01*
X0181869Y0102513D01*
X0181811Y0102549D01*
X0181755Y0102589D01*
X0181701Y0102631D01*
X0181650Y0102677D01*
X0181601Y0102726D01*
X0181555Y0102777D01*
X0181513Y0102831D01*
X0181473Y0102887D01*
X0181437Y0102945D01*
X0181405Y0103006D01*
X0181376Y0103068D01*
X0181350Y0103132D01*
X0181329Y0103197D01*
X0181311Y0103264D01*
X0181297Y0103331D01*
X0181287Y0103399D01*
X0181281Y0103467D01*
X0181279Y0103536D01*
X0174928Y0081389D02*
X0174930Y0081458D01*
X0174936Y0081526D01*
X0174946Y0081594D01*
X0174960Y0081661D01*
X0174978Y0081728D01*
X0174999Y0081793D01*
X0175025Y0081857D01*
X0175054Y0081919D01*
X0175086Y0081979D01*
X0175122Y0082038D01*
X0175162Y0082094D01*
X0175204Y0082148D01*
X0175250Y0082199D01*
X0175299Y0082248D01*
X0175350Y0082294D01*
X0175404Y0082336D01*
X0175460Y0082376D01*
X0175518Y0082412D01*
X0175579Y0082444D01*
X0175641Y0082473D01*
X0175705Y0082499D01*
X0175770Y0082520D01*
X0175837Y0082538D01*
X0175904Y0082552D01*
X0175972Y0082562D01*
X0176040Y0082568D01*
X0176109Y0082570D01*
X0176178Y0082568D01*
X0176246Y0082562D01*
X0176314Y0082552D01*
X0176381Y0082538D01*
X0176448Y0082520D01*
X0176513Y0082499D01*
X0176577Y0082473D01*
X0176639Y0082444D01*
X0176699Y0082412D01*
X0176758Y0082376D01*
X0176814Y0082336D01*
X0176868Y0082294D01*
X0176919Y0082248D01*
X0176968Y0082199D01*
X0177014Y0082148D01*
X0177056Y0082094D01*
X0177096Y0082038D01*
X0177132Y0081979D01*
X0177164Y0081919D01*
X0177193Y0081857D01*
X0177219Y0081793D01*
X0177240Y0081728D01*
X0177258Y0081661D01*
X0177272Y0081594D01*
X0177282Y0081526D01*
X0177288Y0081458D01*
X0177290Y0081389D01*
X0177288Y0081320D01*
X0177282Y0081252D01*
X0177272Y0081184D01*
X0177258Y0081117D01*
X0177240Y0081050D01*
X0177219Y0080985D01*
X0177193Y0080921D01*
X0177164Y0080859D01*
X0177132Y0080798D01*
X0177096Y0080740D01*
X0177056Y0080684D01*
X0177014Y0080630D01*
X0176968Y0080579D01*
X0176919Y0080530D01*
X0176868Y0080484D01*
X0176814Y0080442D01*
X0176758Y0080402D01*
X0176700Y0080366D01*
X0176639Y0080334D01*
X0176577Y0080305D01*
X0176513Y0080279D01*
X0176448Y0080258D01*
X0176381Y0080240D01*
X0176314Y0080226D01*
X0176246Y0080216D01*
X0176178Y0080210D01*
X0176109Y0080208D01*
X0176040Y0080210D01*
X0175972Y0080216D01*
X0175904Y0080226D01*
X0175837Y0080240D01*
X0175770Y0080258D01*
X0175705Y0080279D01*
X0175641Y0080305D01*
X0175579Y0080334D01*
X0175518Y0080366D01*
X0175460Y0080402D01*
X0175404Y0080442D01*
X0175350Y0080484D01*
X0175299Y0080530D01*
X0175250Y0080579D01*
X0175204Y0080630D01*
X0175162Y0080684D01*
X0175122Y0080740D01*
X0175086Y0080798D01*
X0175054Y0080859D01*
X0175025Y0080921D01*
X0174999Y0080985D01*
X0174978Y0081050D01*
X0174960Y0081117D01*
X0174946Y0081184D01*
X0174936Y0081252D01*
X0174930Y0081320D01*
X0174928Y0081389D01*
X0159954Y0049276D02*
X0159956Y0049345D01*
X0159962Y0049413D01*
X0159972Y0049481D01*
X0159986Y0049548D01*
X0160004Y0049615D01*
X0160025Y0049680D01*
X0160051Y0049744D01*
X0160080Y0049806D01*
X0160112Y0049866D01*
X0160148Y0049925D01*
X0160188Y0049981D01*
X0160230Y0050035D01*
X0160276Y0050086D01*
X0160325Y0050135D01*
X0160376Y0050181D01*
X0160430Y0050223D01*
X0160486Y0050263D01*
X0160544Y0050299D01*
X0160605Y0050331D01*
X0160667Y0050360D01*
X0160731Y0050386D01*
X0160796Y0050407D01*
X0160863Y0050425D01*
X0160930Y0050439D01*
X0160998Y0050449D01*
X0161066Y0050455D01*
X0161135Y0050457D01*
X0161204Y0050455D01*
X0161272Y0050449D01*
X0161340Y0050439D01*
X0161407Y0050425D01*
X0161474Y0050407D01*
X0161539Y0050386D01*
X0161603Y0050360D01*
X0161665Y0050331D01*
X0161725Y0050299D01*
X0161784Y0050263D01*
X0161840Y0050223D01*
X0161894Y0050181D01*
X0161945Y0050135D01*
X0161994Y0050086D01*
X0162040Y0050035D01*
X0162082Y0049981D01*
X0162122Y0049925D01*
X0162158Y0049866D01*
X0162190Y0049806D01*
X0162219Y0049744D01*
X0162245Y0049680D01*
X0162266Y0049615D01*
X0162284Y0049548D01*
X0162298Y0049481D01*
X0162308Y0049413D01*
X0162314Y0049345D01*
X0162316Y0049276D01*
X0162314Y0049207D01*
X0162308Y0049139D01*
X0162298Y0049071D01*
X0162284Y0049004D01*
X0162266Y0048937D01*
X0162245Y0048872D01*
X0162219Y0048808D01*
X0162190Y0048746D01*
X0162158Y0048685D01*
X0162122Y0048627D01*
X0162082Y0048571D01*
X0162040Y0048517D01*
X0161994Y0048466D01*
X0161945Y0048417D01*
X0161894Y0048371D01*
X0161840Y0048329D01*
X0161784Y0048289D01*
X0161726Y0048253D01*
X0161665Y0048221D01*
X0161603Y0048192D01*
X0161539Y0048166D01*
X0161474Y0048145D01*
X0161407Y0048127D01*
X0161340Y0048113D01*
X0161272Y0048103D01*
X0161204Y0048097D01*
X0161135Y0048095D01*
X0161066Y0048097D01*
X0160998Y0048103D01*
X0160930Y0048113D01*
X0160863Y0048127D01*
X0160796Y0048145D01*
X0160731Y0048166D01*
X0160667Y0048192D01*
X0160605Y0048221D01*
X0160544Y0048253D01*
X0160486Y0048289D01*
X0160430Y0048329D01*
X0160376Y0048371D01*
X0160325Y0048417D01*
X0160276Y0048466D01*
X0160230Y0048517D01*
X0160188Y0048571D01*
X0160148Y0048627D01*
X0160112Y0048685D01*
X0160080Y0048746D01*
X0160051Y0048808D01*
X0160025Y0048872D01*
X0160004Y0048937D01*
X0159986Y0049004D01*
X0159972Y0049071D01*
X0159962Y0049139D01*
X0159956Y0049207D01*
X0159954Y0049276D01*
X0123708Y0049276D02*
X0123710Y0049345D01*
X0123716Y0049413D01*
X0123726Y0049481D01*
X0123740Y0049548D01*
X0123758Y0049615D01*
X0123779Y0049680D01*
X0123805Y0049744D01*
X0123834Y0049806D01*
X0123866Y0049866D01*
X0123902Y0049925D01*
X0123942Y0049981D01*
X0123984Y0050035D01*
X0124030Y0050086D01*
X0124079Y0050135D01*
X0124130Y0050181D01*
X0124184Y0050223D01*
X0124240Y0050263D01*
X0124298Y0050299D01*
X0124359Y0050331D01*
X0124421Y0050360D01*
X0124485Y0050386D01*
X0124550Y0050407D01*
X0124617Y0050425D01*
X0124684Y0050439D01*
X0124752Y0050449D01*
X0124820Y0050455D01*
X0124889Y0050457D01*
X0124958Y0050455D01*
X0125026Y0050449D01*
X0125094Y0050439D01*
X0125161Y0050425D01*
X0125228Y0050407D01*
X0125293Y0050386D01*
X0125357Y0050360D01*
X0125419Y0050331D01*
X0125479Y0050299D01*
X0125538Y0050263D01*
X0125594Y0050223D01*
X0125648Y0050181D01*
X0125699Y0050135D01*
X0125748Y0050086D01*
X0125794Y0050035D01*
X0125836Y0049981D01*
X0125876Y0049925D01*
X0125912Y0049866D01*
X0125944Y0049806D01*
X0125973Y0049744D01*
X0125999Y0049680D01*
X0126020Y0049615D01*
X0126038Y0049548D01*
X0126052Y0049481D01*
X0126062Y0049413D01*
X0126068Y0049345D01*
X0126070Y0049276D01*
X0126068Y0049207D01*
X0126062Y0049139D01*
X0126052Y0049071D01*
X0126038Y0049004D01*
X0126020Y0048937D01*
X0125999Y0048872D01*
X0125973Y0048808D01*
X0125944Y0048746D01*
X0125912Y0048685D01*
X0125876Y0048627D01*
X0125836Y0048571D01*
X0125794Y0048517D01*
X0125748Y0048466D01*
X0125699Y0048417D01*
X0125648Y0048371D01*
X0125594Y0048329D01*
X0125538Y0048289D01*
X0125480Y0048253D01*
X0125419Y0048221D01*
X0125357Y0048192D01*
X0125293Y0048166D01*
X0125228Y0048145D01*
X0125161Y0048127D01*
X0125094Y0048113D01*
X0125026Y0048103D01*
X0124958Y0048097D01*
X0124889Y0048095D01*
X0124820Y0048097D01*
X0124752Y0048103D01*
X0124684Y0048113D01*
X0124617Y0048127D01*
X0124550Y0048145D01*
X0124485Y0048166D01*
X0124421Y0048192D01*
X0124359Y0048221D01*
X0124298Y0048253D01*
X0124240Y0048289D01*
X0124184Y0048329D01*
X0124130Y0048371D01*
X0124079Y0048417D01*
X0124030Y0048466D01*
X0123984Y0048517D01*
X0123942Y0048571D01*
X0123902Y0048627D01*
X0123866Y0048685D01*
X0123834Y0048746D01*
X0123805Y0048808D01*
X0123779Y0048872D01*
X0123758Y0048937D01*
X0123740Y0049004D01*
X0123726Y0049071D01*
X0123716Y0049139D01*
X0123710Y0049207D01*
X0123708Y0049276D01*
X0108733Y0081389D02*
X0108735Y0081458D01*
X0108741Y0081526D01*
X0108751Y0081594D01*
X0108765Y0081661D01*
X0108783Y0081728D01*
X0108804Y0081793D01*
X0108830Y0081857D01*
X0108859Y0081919D01*
X0108891Y0081979D01*
X0108927Y0082038D01*
X0108967Y0082094D01*
X0109009Y0082148D01*
X0109055Y0082199D01*
X0109104Y0082248D01*
X0109155Y0082294D01*
X0109209Y0082336D01*
X0109265Y0082376D01*
X0109323Y0082412D01*
X0109384Y0082444D01*
X0109446Y0082473D01*
X0109510Y0082499D01*
X0109575Y0082520D01*
X0109642Y0082538D01*
X0109709Y0082552D01*
X0109777Y0082562D01*
X0109845Y0082568D01*
X0109914Y0082570D01*
X0109983Y0082568D01*
X0110051Y0082562D01*
X0110119Y0082552D01*
X0110186Y0082538D01*
X0110253Y0082520D01*
X0110318Y0082499D01*
X0110382Y0082473D01*
X0110444Y0082444D01*
X0110504Y0082412D01*
X0110563Y0082376D01*
X0110619Y0082336D01*
X0110673Y0082294D01*
X0110724Y0082248D01*
X0110773Y0082199D01*
X0110819Y0082148D01*
X0110861Y0082094D01*
X0110901Y0082038D01*
X0110937Y0081979D01*
X0110969Y0081919D01*
X0110998Y0081857D01*
X0111024Y0081793D01*
X0111045Y0081728D01*
X0111063Y0081661D01*
X0111077Y0081594D01*
X0111087Y0081526D01*
X0111093Y0081458D01*
X0111095Y0081389D01*
X0111093Y0081320D01*
X0111087Y0081252D01*
X0111077Y0081184D01*
X0111063Y0081117D01*
X0111045Y0081050D01*
X0111024Y0080985D01*
X0110998Y0080921D01*
X0110969Y0080859D01*
X0110937Y0080798D01*
X0110901Y0080740D01*
X0110861Y0080684D01*
X0110819Y0080630D01*
X0110773Y0080579D01*
X0110724Y0080530D01*
X0110673Y0080484D01*
X0110619Y0080442D01*
X0110563Y0080402D01*
X0110505Y0080366D01*
X0110444Y0080334D01*
X0110382Y0080305D01*
X0110318Y0080279D01*
X0110253Y0080258D01*
X0110186Y0080240D01*
X0110119Y0080226D01*
X0110051Y0080216D01*
X0109983Y0080210D01*
X0109914Y0080208D01*
X0109845Y0080210D01*
X0109777Y0080216D01*
X0109709Y0080226D01*
X0109642Y0080240D01*
X0109575Y0080258D01*
X0109510Y0080279D01*
X0109446Y0080305D01*
X0109384Y0080334D01*
X0109323Y0080366D01*
X0109265Y0080402D01*
X0109209Y0080442D01*
X0109155Y0080484D01*
X0109104Y0080530D01*
X0109055Y0080579D01*
X0109009Y0080630D01*
X0108967Y0080684D01*
X0108927Y0080740D01*
X0108891Y0080798D01*
X0108859Y0080859D01*
X0108830Y0080921D01*
X0108804Y0080985D01*
X0108783Y0081050D01*
X0108765Y0081117D01*
X0108751Y0081184D01*
X0108741Y0081252D01*
X0108735Y0081320D01*
X0108733Y0081389D01*
X0102383Y0103536D02*
X0102385Y0103605D01*
X0102391Y0103673D01*
X0102401Y0103741D01*
X0102415Y0103808D01*
X0102433Y0103875D01*
X0102454Y0103940D01*
X0102480Y0104004D01*
X0102509Y0104066D01*
X0102541Y0104126D01*
X0102577Y0104185D01*
X0102617Y0104241D01*
X0102659Y0104295D01*
X0102705Y0104346D01*
X0102754Y0104395D01*
X0102805Y0104441D01*
X0102859Y0104483D01*
X0102915Y0104523D01*
X0102973Y0104559D01*
X0103034Y0104591D01*
X0103096Y0104620D01*
X0103160Y0104646D01*
X0103225Y0104667D01*
X0103292Y0104685D01*
X0103359Y0104699D01*
X0103427Y0104709D01*
X0103495Y0104715D01*
X0103564Y0104717D01*
X0103633Y0104715D01*
X0103701Y0104709D01*
X0103769Y0104699D01*
X0103836Y0104685D01*
X0103903Y0104667D01*
X0103968Y0104646D01*
X0104032Y0104620D01*
X0104094Y0104591D01*
X0104154Y0104559D01*
X0104213Y0104523D01*
X0104269Y0104483D01*
X0104323Y0104441D01*
X0104374Y0104395D01*
X0104423Y0104346D01*
X0104469Y0104295D01*
X0104511Y0104241D01*
X0104551Y0104185D01*
X0104587Y0104126D01*
X0104619Y0104066D01*
X0104648Y0104004D01*
X0104674Y0103940D01*
X0104695Y0103875D01*
X0104713Y0103808D01*
X0104727Y0103741D01*
X0104737Y0103673D01*
X0104743Y0103605D01*
X0104745Y0103536D01*
X0104743Y0103467D01*
X0104737Y0103399D01*
X0104727Y0103331D01*
X0104713Y0103264D01*
X0104695Y0103197D01*
X0104674Y0103132D01*
X0104648Y0103068D01*
X0104619Y0103006D01*
X0104587Y0102945D01*
X0104551Y0102887D01*
X0104511Y0102831D01*
X0104469Y0102777D01*
X0104423Y0102726D01*
X0104374Y0102677D01*
X0104323Y0102631D01*
X0104269Y0102589D01*
X0104213Y0102549D01*
X0104155Y0102513D01*
X0104094Y0102481D01*
X0104032Y0102452D01*
X0103968Y0102426D01*
X0103903Y0102405D01*
X0103836Y0102387D01*
X0103769Y0102373D01*
X0103701Y0102363D01*
X0103633Y0102357D01*
X0103564Y0102355D01*
X0103495Y0102357D01*
X0103427Y0102363D01*
X0103359Y0102373D01*
X0103292Y0102387D01*
X0103225Y0102405D01*
X0103160Y0102426D01*
X0103096Y0102452D01*
X0103034Y0102481D01*
X0102973Y0102513D01*
X0102915Y0102549D01*
X0102859Y0102589D01*
X0102805Y0102631D01*
X0102754Y0102677D01*
X0102705Y0102726D01*
X0102659Y0102777D01*
X0102617Y0102831D01*
X0102577Y0102887D01*
X0102541Y0102945D01*
X0102509Y0103006D01*
X0102480Y0103068D01*
X0102454Y0103132D01*
X0102433Y0103197D01*
X0102415Y0103264D01*
X0102401Y0103331D01*
X0102391Y0103399D01*
X0102385Y0103467D01*
X0102383Y0103536D01*
X0087408Y0135649D02*
X0087410Y0135718D01*
X0087416Y0135786D01*
X0087426Y0135854D01*
X0087440Y0135921D01*
X0087458Y0135988D01*
X0087479Y0136053D01*
X0087505Y0136117D01*
X0087534Y0136179D01*
X0087566Y0136239D01*
X0087602Y0136298D01*
X0087642Y0136354D01*
X0087684Y0136408D01*
X0087730Y0136459D01*
X0087779Y0136508D01*
X0087830Y0136554D01*
X0087884Y0136596D01*
X0087940Y0136636D01*
X0087998Y0136672D01*
X0088059Y0136704D01*
X0088121Y0136733D01*
X0088185Y0136759D01*
X0088250Y0136780D01*
X0088317Y0136798D01*
X0088384Y0136812D01*
X0088452Y0136822D01*
X0088520Y0136828D01*
X0088589Y0136830D01*
X0088658Y0136828D01*
X0088726Y0136822D01*
X0088794Y0136812D01*
X0088861Y0136798D01*
X0088928Y0136780D01*
X0088993Y0136759D01*
X0089057Y0136733D01*
X0089119Y0136704D01*
X0089179Y0136672D01*
X0089238Y0136636D01*
X0089294Y0136596D01*
X0089348Y0136554D01*
X0089399Y0136508D01*
X0089448Y0136459D01*
X0089494Y0136408D01*
X0089536Y0136354D01*
X0089576Y0136298D01*
X0089612Y0136239D01*
X0089644Y0136179D01*
X0089673Y0136117D01*
X0089699Y0136053D01*
X0089720Y0135988D01*
X0089738Y0135921D01*
X0089752Y0135854D01*
X0089762Y0135786D01*
X0089768Y0135718D01*
X0089770Y0135649D01*
X0089768Y0135580D01*
X0089762Y0135512D01*
X0089752Y0135444D01*
X0089738Y0135377D01*
X0089720Y0135310D01*
X0089699Y0135245D01*
X0089673Y0135181D01*
X0089644Y0135119D01*
X0089612Y0135058D01*
X0089576Y0135000D01*
X0089536Y0134944D01*
X0089494Y0134890D01*
X0089448Y0134839D01*
X0089399Y0134790D01*
X0089348Y0134744D01*
X0089294Y0134702D01*
X0089238Y0134662D01*
X0089180Y0134626D01*
X0089119Y0134594D01*
X0089057Y0134565D01*
X0088993Y0134539D01*
X0088928Y0134518D01*
X0088861Y0134500D01*
X0088794Y0134486D01*
X0088726Y0134476D01*
X0088658Y0134470D01*
X0088589Y0134468D01*
X0088520Y0134470D01*
X0088452Y0134476D01*
X0088384Y0134486D01*
X0088317Y0134500D01*
X0088250Y0134518D01*
X0088185Y0134539D01*
X0088121Y0134565D01*
X0088059Y0134594D01*
X0087998Y0134626D01*
X0087940Y0134662D01*
X0087884Y0134702D01*
X0087830Y0134744D01*
X0087779Y0134790D01*
X0087730Y0134839D01*
X0087684Y0134890D01*
X0087642Y0134944D01*
X0087602Y0135000D01*
X0087566Y0135058D01*
X0087534Y0135119D01*
X0087505Y0135181D01*
X0087479Y0135245D01*
X0087458Y0135310D01*
X0087440Y0135377D01*
X0087426Y0135444D01*
X0087416Y0135512D01*
X0087410Y0135580D01*
X0087408Y0135649D01*
X0055295Y0120674D02*
X0055297Y0120743D01*
X0055303Y0120811D01*
X0055313Y0120879D01*
X0055327Y0120946D01*
X0055345Y0121013D01*
X0055366Y0121078D01*
X0055392Y0121142D01*
X0055421Y0121204D01*
X0055453Y0121264D01*
X0055489Y0121323D01*
X0055529Y0121379D01*
X0055571Y0121433D01*
X0055617Y0121484D01*
X0055666Y0121533D01*
X0055717Y0121579D01*
X0055771Y0121621D01*
X0055827Y0121661D01*
X0055885Y0121697D01*
X0055946Y0121729D01*
X0056008Y0121758D01*
X0056072Y0121784D01*
X0056137Y0121805D01*
X0056204Y0121823D01*
X0056271Y0121837D01*
X0056339Y0121847D01*
X0056407Y0121853D01*
X0056476Y0121855D01*
X0056545Y0121853D01*
X0056613Y0121847D01*
X0056681Y0121837D01*
X0056748Y0121823D01*
X0056815Y0121805D01*
X0056880Y0121784D01*
X0056944Y0121758D01*
X0057006Y0121729D01*
X0057066Y0121697D01*
X0057125Y0121661D01*
X0057181Y0121621D01*
X0057235Y0121579D01*
X0057286Y0121533D01*
X0057335Y0121484D01*
X0057381Y0121433D01*
X0057423Y0121379D01*
X0057463Y0121323D01*
X0057499Y0121264D01*
X0057531Y0121204D01*
X0057560Y0121142D01*
X0057586Y0121078D01*
X0057607Y0121013D01*
X0057625Y0120946D01*
X0057639Y0120879D01*
X0057649Y0120811D01*
X0057655Y0120743D01*
X0057657Y0120674D01*
X0057655Y0120605D01*
X0057649Y0120537D01*
X0057639Y0120469D01*
X0057625Y0120402D01*
X0057607Y0120335D01*
X0057586Y0120270D01*
X0057560Y0120206D01*
X0057531Y0120144D01*
X0057499Y0120083D01*
X0057463Y0120025D01*
X0057423Y0119969D01*
X0057381Y0119915D01*
X0057335Y0119864D01*
X0057286Y0119815D01*
X0057235Y0119769D01*
X0057181Y0119727D01*
X0057125Y0119687D01*
X0057067Y0119651D01*
X0057006Y0119619D01*
X0056944Y0119590D01*
X0056880Y0119564D01*
X0056815Y0119543D01*
X0056748Y0119525D01*
X0056681Y0119511D01*
X0056613Y0119501D01*
X0056545Y0119495D01*
X0056476Y0119493D01*
X0056407Y0119495D01*
X0056339Y0119501D01*
X0056271Y0119511D01*
X0056204Y0119525D01*
X0056137Y0119543D01*
X0056072Y0119564D01*
X0056008Y0119590D01*
X0055946Y0119619D01*
X0055885Y0119651D01*
X0055827Y0119687D01*
X0055771Y0119727D01*
X0055717Y0119769D01*
X0055666Y0119815D01*
X0055617Y0119864D01*
X0055571Y0119915D01*
X0055529Y0119969D01*
X0055489Y0120025D01*
X0055453Y0120083D01*
X0055421Y0120144D01*
X0055392Y0120206D01*
X0055366Y0120270D01*
X0055345Y0120335D01*
X0055327Y0120402D01*
X0055313Y0120469D01*
X0055303Y0120537D01*
X0055297Y0120605D01*
X0055295Y0120674D01*
X0070269Y0088561D02*
X0070271Y0088630D01*
X0070277Y0088698D01*
X0070287Y0088766D01*
X0070301Y0088833D01*
X0070319Y0088900D01*
X0070340Y0088965D01*
X0070366Y0089029D01*
X0070395Y0089091D01*
X0070427Y0089151D01*
X0070463Y0089210D01*
X0070503Y0089266D01*
X0070545Y0089320D01*
X0070591Y0089371D01*
X0070640Y0089420D01*
X0070691Y0089466D01*
X0070745Y0089508D01*
X0070801Y0089548D01*
X0070859Y0089584D01*
X0070920Y0089616D01*
X0070982Y0089645D01*
X0071046Y0089671D01*
X0071111Y0089692D01*
X0071178Y0089710D01*
X0071245Y0089724D01*
X0071313Y0089734D01*
X0071381Y0089740D01*
X0071450Y0089742D01*
X0071519Y0089740D01*
X0071587Y0089734D01*
X0071655Y0089724D01*
X0071722Y0089710D01*
X0071789Y0089692D01*
X0071854Y0089671D01*
X0071918Y0089645D01*
X0071980Y0089616D01*
X0072040Y0089584D01*
X0072099Y0089548D01*
X0072155Y0089508D01*
X0072209Y0089466D01*
X0072260Y0089420D01*
X0072309Y0089371D01*
X0072355Y0089320D01*
X0072397Y0089266D01*
X0072437Y0089210D01*
X0072473Y0089151D01*
X0072505Y0089091D01*
X0072534Y0089029D01*
X0072560Y0088965D01*
X0072581Y0088900D01*
X0072599Y0088833D01*
X0072613Y0088766D01*
X0072623Y0088698D01*
X0072629Y0088630D01*
X0072631Y0088561D01*
X0072629Y0088492D01*
X0072623Y0088424D01*
X0072613Y0088356D01*
X0072599Y0088289D01*
X0072581Y0088222D01*
X0072560Y0088157D01*
X0072534Y0088093D01*
X0072505Y0088031D01*
X0072473Y0087970D01*
X0072437Y0087912D01*
X0072397Y0087856D01*
X0072355Y0087802D01*
X0072309Y0087751D01*
X0072260Y0087702D01*
X0072209Y0087656D01*
X0072155Y0087614D01*
X0072099Y0087574D01*
X0072041Y0087538D01*
X0071980Y0087506D01*
X0071918Y0087477D01*
X0071854Y0087451D01*
X0071789Y0087430D01*
X0071722Y0087412D01*
X0071655Y0087398D01*
X0071587Y0087388D01*
X0071519Y0087382D01*
X0071450Y0087380D01*
X0071381Y0087382D01*
X0071313Y0087388D01*
X0071245Y0087398D01*
X0071178Y0087412D01*
X0071111Y0087430D01*
X0071046Y0087451D01*
X0070982Y0087477D01*
X0070920Y0087506D01*
X0070859Y0087538D01*
X0070801Y0087574D01*
X0070745Y0087614D01*
X0070691Y0087656D01*
X0070640Y0087702D01*
X0070591Y0087751D01*
X0070545Y0087802D01*
X0070503Y0087856D01*
X0070463Y0087912D01*
X0070427Y0087970D01*
X0070395Y0088031D01*
X0070366Y0088093D01*
X0070340Y0088157D01*
X0070319Y0088222D01*
X0070301Y0088289D01*
X0070287Y0088356D01*
X0070277Y0088424D01*
X0070271Y0088492D01*
X0070269Y0088561D01*
X0076620Y0066415D02*
X0076622Y0066484D01*
X0076628Y0066552D01*
X0076638Y0066620D01*
X0076652Y0066687D01*
X0076670Y0066754D01*
X0076691Y0066819D01*
X0076717Y0066883D01*
X0076746Y0066945D01*
X0076778Y0067005D01*
X0076814Y0067064D01*
X0076854Y0067120D01*
X0076896Y0067174D01*
X0076942Y0067225D01*
X0076991Y0067274D01*
X0077042Y0067320D01*
X0077096Y0067362D01*
X0077152Y0067402D01*
X0077210Y0067438D01*
X0077271Y0067470D01*
X0077333Y0067499D01*
X0077397Y0067525D01*
X0077462Y0067546D01*
X0077529Y0067564D01*
X0077596Y0067578D01*
X0077664Y0067588D01*
X0077732Y0067594D01*
X0077801Y0067596D01*
X0077870Y0067594D01*
X0077938Y0067588D01*
X0078006Y0067578D01*
X0078073Y0067564D01*
X0078140Y0067546D01*
X0078205Y0067525D01*
X0078269Y0067499D01*
X0078331Y0067470D01*
X0078391Y0067438D01*
X0078450Y0067402D01*
X0078506Y0067362D01*
X0078560Y0067320D01*
X0078611Y0067274D01*
X0078660Y0067225D01*
X0078706Y0067174D01*
X0078748Y0067120D01*
X0078788Y0067064D01*
X0078824Y0067005D01*
X0078856Y0066945D01*
X0078885Y0066883D01*
X0078911Y0066819D01*
X0078932Y0066754D01*
X0078950Y0066687D01*
X0078964Y0066620D01*
X0078974Y0066552D01*
X0078980Y0066484D01*
X0078982Y0066415D01*
X0078980Y0066346D01*
X0078974Y0066278D01*
X0078964Y0066210D01*
X0078950Y0066143D01*
X0078932Y0066076D01*
X0078911Y0066011D01*
X0078885Y0065947D01*
X0078856Y0065885D01*
X0078824Y0065824D01*
X0078788Y0065766D01*
X0078748Y0065710D01*
X0078706Y0065656D01*
X0078660Y0065605D01*
X0078611Y0065556D01*
X0078560Y0065510D01*
X0078506Y0065468D01*
X0078450Y0065428D01*
X0078392Y0065392D01*
X0078331Y0065360D01*
X0078269Y0065331D01*
X0078205Y0065305D01*
X0078140Y0065284D01*
X0078073Y0065266D01*
X0078006Y0065252D01*
X0077938Y0065242D01*
X0077870Y0065236D01*
X0077801Y0065234D01*
X0077732Y0065236D01*
X0077664Y0065242D01*
X0077596Y0065252D01*
X0077529Y0065266D01*
X0077462Y0065284D01*
X0077397Y0065305D01*
X0077333Y0065331D01*
X0077271Y0065360D01*
X0077210Y0065392D01*
X0077152Y0065428D01*
X0077096Y0065468D01*
X0077042Y0065510D01*
X0076991Y0065556D01*
X0076942Y0065605D01*
X0076896Y0065656D01*
X0076854Y0065710D01*
X0076814Y0065766D01*
X0076778Y0065824D01*
X0076746Y0065885D01*
X0076717Y0065947D01*
X0076691Y0066011D01*
X0076670Y0066076D01*
X0076652Y0066143D01*
X0076638Y0066210D01*
X0076628Y0066278D01*
X0076622Y0066346D01*
X0076620Y0066415D01*
X0091595Y0034301D02*
X0091597Y0034370D01*
X0091603Y0034438D01*
X0091613Y0034506D01*
X0091627Y0034573D01*
X0091645Y0034640D01*
X0091666Y0034705D01*
X0091692Y0034769D01*
X0091721Y0034831D01*
X0091753Y0034891D01*
X0091789Y0034950D01*
X0091829Y0035006D01*
X0091871Y0035060D01*
X0091917Y0035111D01*
X0091966Y0035160D01*
X0092017Y0035206D01*
X0092071Y0035248D01*
X0092127Y0035288D01*
X0092185Y0035324D01*
X0092246Y0035356D01*
X0092308Y0035385D01*
X0092372Y0035411D01*
X0092437Y0035432D01*
X0092504Y0035450D01*
X0092571Y0035464D01*
X0092639Y0035474D01*
X0092707Y0035480D01*
X0092776Y0035482D01*
X0092845Y0035480D01*
X0092913Y0035474D01*
X0092981Y0035464D01*
X0093048Y0035450D01*
X0093115Y0035432D01*
X0093180Y0035411D01*
X0093244Y0035385D01*
X0093306Y0035356D01*
X0093366Y0035324D01*
X0093425Y0035288D01*
X0093481Y0035248D01*
X0093535Y0035206D01*
X0093586Y0035160D01*
X0093635Y0035111D01*
X0093681Y0035060D01*
X0093723Y0035006D01*
X0093763Y0034950D01*
X0093799Y0034891D01*
X0093831Y0034831D01*
X0093860Y0034769D01*
X0093886Y0034705D01*
X0093907Y0034640D01*
X0093925Y0034573D01*
X0093939Y0034506D01*
X0093949Y0034438D01*
X0093955Y0034370D01*
X0093957Y0034301D01*
X0093955Y0034232D01*
X0093949Y0034164D01*
X0093939Y0034096D01*
X0093925Y0034029D01*
X0093907Y0033962D01*
X0093886Y0033897D01*
X0093860Y0033833D01*
X0093831Y0033771D01*
X0093799Y0033710D01*
X0093763Y0033652D01*
X0093723Y0033596D01*
X0093681Y0033542D01*
X0093635Y0033491D01*
X0093586Y0033442D01*
X0093535Y0033396D01*
X0093481Y0033354D01*
X0093425Y0033314D01*
X0093367Y0033278D01*
X0093306Y0033246D01*
X0093244Y0033217D01*
X0093180Y0033191D01*
X0093115Y0033170D01*
X0093048Y0033152D01*
X0092981Y0033138D01*
X0092913Y0033128D01*
X0092845Y0033122D01*
X0092776Y0033120D01*
X0092707Y0033122D01*
X0092639Y0033128D01*
X0092571Y0033138D01*
X0092504Y0033152D01*
X0092437Y0033170D01*
X0092372Y0033191D01*
X0092308Y0033217D01*
X0092246Y0033246D01*
X0092185Y0033278D01*
X0092127Y0033314D01*
X0092071Y0033354D01*
X0092017Y0033396D01*
X0091966Y0033442D01*
X0091917Y0033491D01*
X0091871Y0033542D01*
X0091829Y0033596D01*
X0091789Y0033652D01*
X0091753Y0033710D01*
X0091721Y0033771D01*
X0091692Y0033833D01*
X0091666Y0033897D01*
X0091645Y0033962D01*
X0091627Y0034029D01*
X0091613Y0034096D01*
X0091603Y0034164D01*
X0091597Y0034232D01*
X0091595Y0034301D01*
X0192067Y0034301D02*
X0192069Y0034370D01*
X0192075Y0034438D01*
X0192085Y0034506D01*
X0192099Y0034573D01*
X0192117Y0034640D01*
X0192138Y0034705D01*
X0192164Y0034769D01*
X0192193Y0034831D01*
X0192225Y0034891D01*
X0192261Y0034950D01*
X0192301Y0035006D01*
X0192343Y0035060D01*
X0192389Y0035111D01*
X0192438Y0035160D01*
X0192489Y0035206D01*
X0192543Y0035248D01*
X0192599Y0035288D01*
X0192657Y0035324D01*
X0192718Y0035356D01*
X0192780Y0035385D01*
X0192844Y0035411D01*
X0192909Y0035432D01*
X0192976Y0035450D01*
X0193043Y0035464D01*
X0193111Y0035474D01*
X0193179Y0035480D01*
X0193248Y0035482D01*
X0193317Y0035480D01*
X0193385Y0035474D01*
X0193453Y0035464D01*
X0193520Y0035450D01*
X0193587Y0035432D01*
X0193652Y0035411D01*
X0193716Y0035385D01*
X0193778Y0035356D01*
X0193838Y0035324D01*
X0193897Y0035288D01*
X0193953Y0035248D01*
X0194007Y0035206D01*
X0194058Y0035160D01*
X0194107Y0035111D01*
X0194153Y0035060D01*
X0194195Y0035006D01*
X0194235Y0034950D01*
X0194271Y0034891D01*
X0194303Y0034831D01*
X0194332Y0034769D01*
X0194358Y0034705D01*
X0194379Y0034640D01*
X0194397Y0034573D01*
X0194411Y0034506D01*
X0194421Y0034438D01*
X0194427Y0034370D01*
X0194429Y0034301D01*
X0194427Y0034232D01*
X0194421Y0034164D01*
X0194411Y0034096D01*
X0194397Y0034029D01*
X0194379Y0033962D01*
X0194358Y0033897D01*
X0194332Y0033833D01*
X0194303Y0033771D01*
X0194271Y0033710D01*
X0194235Y0033652D01*
X0194195Y0033596D01*
X0194153Y0033542D01*
X0194107Y0033491D01*
X0194058Y0033442D01*
X0194007Y0033396D01*
X0193953Y0033354D01*
X0193897Y0033314D01*
X0193839Y0033278D01*
X0193778Y0033246D01*
X0193716Y0033217D01*
X0193652Y0033191D01*
X0193587Y0033170D01*
X0193520Y0033152D01*
X0193453Y0033138D01*
X0193385Y0033128D01*
X0193317Y0033122D01*
X0193248Y0033120D01*
X0193179Y0033122D01*
X0193111Y0033128D01*
X0193043Y0033138D01*
X0192976Y0033152D01*
X0192909Y0033170D01*
X0192844Y0033191D01*
X0192780Y0033217D01*
X0192718Y0033246D01*
X0192657Y0033278D01*
X0192599Y0033314D01*
X0192543Y0033354D01*
X0192489Y0033396D01*
X0192438Y0033442D01*
X0192389Y0033491D01*
X0192343Y0033542D01*
X0192301Y0033596D01*
X0192261Y0033652D01*
X0192225Y0033710D01*
X0192193Y0033771D01*
X0192164Y0033833D01*
X0192138Y0033897D01*
X0192117Y0033962D01*
X0192099Y0034029D01*
X0192085Y0034096D01*
X0192075Y0034164D01*
X0192069Y0034232D01*
X0192067Y0034301D01*
X0207041Y0066415D02*
X0207043Y0066484D01*
X0207049Y0066552D01*
X0207059Y0066620D01*
X0207073Y0066687D01*
X0207091Y0066754D01*
X0207112Y0066819D01*
X0207138Y0066883D01*
X0207167Y0066945D01*
X0207199Y0067005D01*
X0207235Y0067064D01*
X0207275Y0067120D01*
X0207317Y0067174D01*
X0207363Y0067225D01*
X0207412Y0067274D01*
X0207463Y0067320D01*
X0207517Y0067362D01*
X0207573Y0067402D01*
X0207631Y0067438D01*
X0207692Y0067470D01*
X0207754Y0067499D01*
X0207818Y0067525D01*
X0207883Y0067546D01*
X0207950Y0067564D01*
X0208017Y0067578D01*
X0208085Y0067588D01*
X0208153Y0067594D01*
X0208222Y0067596D01*
X0208291Y0067594D01*
X0208359Y0067588D01*
X0208427Y0067578D01*
X0208494Y0067564D01*
X0208561Y0067546D01*
X0208626Y0067525D01*
X0208690Y0067499D01*
X0208752Y0067470D01*
X0208812Y0067438D01*
X0208871Y0067402D01*
X0208927Y0067362D01*
X0208981Y0067320D01*
X0209032Y0067274D01*
X0209081Y0067225D01*
X0209127Y0067174D01*
X0209169Y0067120D01*
X0209209Y0067064D01*
X0209245Y0067005D01*
X0209277Y0066945D01*
X0209306Y0066883D01*
X0209332Y0066819D01*
X0209353Y0066754D01*
X0209371Y0066687D01*
X0209385Y0066620D01*
X0209395Y0066552D01*
X0209401Y0066484D01*
X0209403Y0066415D01*
X0209401Y0066346D01*
X0209395Y0066278D01*
X0209385Y0066210D01*
X0209371Y0066143D01*
X0209353Y0066076D01*
X0209332Y0066011D01*
X0209306Y0065947D01*
X0209277Y0065885D01*
X0209245Y0065824D01*
X0209209Y0065766D01*
X0209169Y0065710D01*
X0209127Y0065656D01*
X0209081Y0065605D01*
X0209032Y0065556D01*
X0208981Y0065510D01*
X0208927Y0065468D01*
X0208871Y0065428D01*
X0208813Y0065392D01*
X0208752Y0065360D01*
X0208690Y0065331D01*
X0208626Y0065305D01*
X0208561Y0065284D01*
X0208494Y0065266D01*
X0208427Y0065252D01*
X0208359Y0065242D01*
X0208291Y0065236D01*
X0208222Y0065234D01*
X0208153Y0065236D01*
X0208085Y0065242D01*
X0208017Y0065252D01*
X0207950Y0065266D01*
X0207883Y0065284D01*
X0207818Y0065305D01*
X0207754Y0065331D01*
X0207692Y0065360D01*
X0207631Y0065392D01*
X0207573Y0065428D01*
X0207517Y0065468D01*
X0207463Y0065510D01*
X0207412Y0065556D01*
X0207363Y0065605D01*
X0207317Y0065656D01*
X0207275Y0065710D01*
X0207235Y0065766D01*
X0207199Y0065824D01*
X0207167Y0065885D01*
X0207138Y0065947D01*
X0207112Y0066011D01*
X0207091Y0066076D01*
X0207073Y0066143D01*
X0207059Y0066210D01*
X0207049Y0066278D01*
X0207043Y0066346D01*
X0207041Y0066415D01*
X0213392Y0088561D02*
X0213394Y0088630D01*
X0213400Y0088698D01*
X0213410Y0088766D01*
X0213424Y0088833D01*
X0213442Y0088900D01*
X0213463Y0088965D01*
X0213489Y0089029D01*
X0213518Y0089091D01*
X0213550Y0089151D01*
X0213586Y0089210D01*
X0213626Y0089266D01*
X0213668Y0089320D01*
X0213714Y0089371D01*
X0213763Y0089420D01*
X0213814Y0089466D01*
X0213868Y0089508D01*
X0213924Y0089548D01*
X0213982Y0089584D01*
X0214043Y0089616D01*
X0214105Y0089645D01*
X0214169Y0089671D01*
X0214234Y0089692D01*
X0214301Y0089710D01*
X0214368Y0089724D01*
X0214436Y0089734D01*
X0214504Y0089740D01*
X0214573Y0089742D01*
X0214642Y0089740D01*
X0214710Y0089734D01*
X0214778Y0089724D01*
X0214845Y0089710D01*
X0214912Y0089692D01*
X0214977Y0089671D01*
X0215041Y0089645D01*
X0215103Y0089616D01*
X0215163Y0089584D01*
X0215222Y0089548D01*
X0215278Y0089508D01*
X0215332Y0089466D01*
X0215383Y0089420D01*
X0215432Y0089371D01*
X0215478Y0089320D01*
X0215520Y0089266D01*
X0215560Y0089210D01*
X0215596Y0089151D01*
X0215628Y0089091D01*
X0215657Y0089029D01*
X0215683Y0088965D01*
X0215704Y0088900D01*
X0215722Y0088833D01*
X0215736Y0088766D01*
X0215746Y0088698D01*
X0215752Y0088630D01*
X0215754Y0088561D01*
X0215752Y0088492D01*
X0215746Y0088424D01*
X0215736Y0088356D01*
X0215722Y0088289D01*
X0215704Y0088222D01*
X0215683Y0088157D01*
X0215657Y0088093D01*
X0215628Y0088031D01*
X0215596Y0087970D01*
X0215560Y0087912D01*
X0215520Y0087856D01*
X0215478Y0087802D01*
X0215432Y0087751D01*
X0215383Y0087702D01*
X0215332Y0087656D01*
X0215278Y0087614D01*
X0215222Y0087574D01*
X0215164Y0087538D01*
X0215103Y0087506D01*
X0215041Y0087477D01*
X0214977Y0087451D01*
X0214912Y0087430D01*
X0214845Y0087412D01*
X0214778Y0087398D01*
X0214710Y0087388D01*
X0214642Y0087382D01*
X0214573Y0087380D01*
X0214504Y0087382D01*
X0214436Y0087388D01*
X0214368Y0087398D01*
X0214301Y0087412D01*
X0214234Y0087430D01*
X0214169Y0087451D01*
X0214105Y0087477D01*
X0214043Y0087506D01*
X0213982Y0087538D01*
X0213924Y0087574D01*
X0213868Y0087614D01*
X0213814Y0087656D01*
X0213763Y0087702D01*
X0213714Y0087751D01*
X0213668Y0087802D01*
X0213626Y0087856D01*
X0213586Y0087912D01*
X0213550Y0087970D01*
X0213518Y0088031D01*
X0213489Y0088093D01*
X0213463Y0088157D01*
X0213442Y0088222D01*
X0213424Y0088289D01*
X0213410Y0088356D01*
X0213400Y0088424D01*
X0213394Y0088492D01*
X0213392Y0088561D01*
X0228367Y0120674D02*
X0228369Y0120743D01*
X0228375Y0120811D01*
X0228385Y0120879D01*
X0228399Y0120946D01*
X0228417Y0121013D01*
X0228438Y0121078D01*
X0228464Y0121142D01*
X0228493Y0121204D01*
X0228525Y0121264D01*
X0228561Y0121323D01*
X0228601Y0121379D01*
X0228643Y0121433D01*
X0228689Y0121484D01*
X0228738Y0121533D01*
X0228789Y0121579D01*
X0228843Y0121621D01*
X0228899Y0121661D01*
X0228957Y0121697D01*
X0229018Y0121729D01*
X0229080Y0121758D01*
X0229144Y0121784D01*
X0229209Y0121805D01*
X0229276Y0121823D01*
X0229343Y0121837D01*
X0229411Y0121847D01*
X0229479Y0121853D01*
X0229548Y0121855D01*
X0229617Y0121853D01*
X0229685Y0121847D01*
X0229753Y0121837D01*
X0229820Y0121823D01*
X0229887Y0121805D01*
X0229952Y0121784D01*
X0230016Y0121758D01*
X0230078Y0121729D01*
X0230138Y0121697D01*
X0230197Y0121661D01*
X0230253Y0121621D01*
X0230307Y0121579D01*
X0230358Y0121533D01*
X0230407Y0121484D01*
X0230453Y0121433D01*
X0230495Y0121379D01*
X0230535Y0121323D01*
X0230571Y0121264D01*
X0230603Y0121204D01*
X0230632Y0121142D01*
X0230658Y0121078D01*
X0230679Y0121013D01*
X0230697Y0120946D01*
X0230711Y0120879D01*
X0230721Y0120811D01*
X0230727Y0120743D01*
X0230729Y0120674D01*
X0230727Y0120605D01*
X0230721Y0120537D01*
X0230711Y0120469D01*
X0230697Y0120402D01*
X0230679Y0120335D01*
X0230658Y0120270D01*
X0230632Y0120206D01*
X0230603Y0120144D01*
X0230571Y0120083D01*
X0230535Y0120025D01*
X0230495Y0119969D01*
X0230453Y0119915D01*
X0230407Y0119864D01*
X0230358Y0119815D01*
X0230307Y0119769D01*
X0230253Y0119727D01*
X0230197Y0119687D01*
X0230139Y0119651D01*
X0230078Y0119619D01*
X0230016Y0119590D01*
X0229952Y0119564D01*
X0229887Y0119543D01*
X0229820Y0119525D01*
X0229753Y0119511D01*
X0229685Y0119501D01*
X0229617Y0119495D01*
X0229548Y0119493D01*
X0229479Y0119495D01*
X0229411Y0119501D01*
X0229343Y0119511D01*
X0229276Y0119525D01*
X0229209Y0119543D01*
X0229144Y0119564D01*
X0229080Y0119590D01*
X0229018Y0119619D01*
X0228957Y0119651D01*
X0228899Y0119687D01*
X0228843Y0119727D01*
X0228789Y0119769D01*
X0228738Y0119815D01*
X0228689Y0119864D01*
X0228643Y0119915D01*
X0228601Y0119969D01*
X0228561Y0120025D01*
X0228525Y0120083D01*
X0228493Y0120144D01*
X0228464Y0120206D01*
X0228438Y0120270D01*
X0228417Y0120335D01*
X0228399Y0120402D01*
X0228385Y0120469D01*
X0228375Y0120537D01*
X0228369Y0120605D01*
X0228367Y0120674D01*
D413*
X0274907Y0289918D03*
X0274907Y0295718D03*
D414*
X0274902Y0276697D03*
M02*
