G75*
%MOIN*%
%OFA0B0*%
%FSLAX25Y25*%
%IPPOS*%
%LPD*%
%AMOC8*
5,1,8,0,0,1.08239X$1,22.5*
%
%ADD10C,0.00000*%
%ADD11C,0.00039*%
%ADD12R,0.06000X0.06000*%
%ADD13R,0.03200X0.07000*%
%ADD14R,0.21654X0.03937*%
%ADD15R,0.13386X0.06299*%
%ADD16R,0.10000X0.10000*%
%ADD17R,0.06299X0.06102*%
%ADD18R,0.05512X0.04331*%
%ADD19R,0.04724X0.04724*%
%ADD20R,0.05906X0.02756*%
%ADD21R,0.02362X0.03937*%
%ADD22R,0.03150X0.03937*%
D10*
X0003248Y0011343D02*
X0003248Y0342051D01*
X0003251Y0342289D01*
X0003259Y0342527D01*
X0003274Y0342764D01*
X0003294Y0343001D01*
X0003320Y0343237D01*
X0003351Y0343473D01*
X0003388Y0343708D01*
X0003431Y0343942D01*
X0003480Y0344175D01*
X0003534Y0344407D01*
X0003594Y0344637D01*
X0003659Y0344866D01*
X0003730Y0345093D01*
X0003806Y0345318D01*
X0003888Y0345541D01*
X0003975Y0345763D01*
X0004067Y0345982D01*
X0004165Y0346199D01*
X0004267Y0346413D01*
X0004375Y0346625D01*
X0004489Y0346835D01*
X0004607Y0347041D01*
X0004730Y0347245D01*
X0004858Y0347445D01*
X0004990Y0347642D01*
X0005128Y0347837D01*
X0005270Y0348027D01*
X0005417Y0348215D01*
X0005568Y0348398D01*
X0005723Y0348578D01*
X0005883Y0348754D01*
X0006047Y0348926D01*
X0006216Y0349095D01*
X0006388Y0349259D01*
X0006564Y0349419D01*
X0006744Y0349574D01*
X0006927Y0349725D01*
X0007115Y0349872D01*
X0007305Y0350014D01*
X0007500Y0350152D01*
X0007697Y0350284D01*
X0007897Y0350412D01*
X0008101Y0350535D01*
X0008307Y0350653D01*
X0008517Y0350767D01*
X0008729Y0350875D01*
X0008943Y0350977D01*
X0009160Y0351075D01*
X0009379Y0351167D01*
X0009601Y0351254D01*
X0009824Y0351336D01*
X0010049Y0351412D01*
X0010276Y0351483D01*
X0010505Y0351548D01*
X0010735Y0351608D01*
X0010967Y0351662D01*
X0011200Y0351711D01*
X0011434Y0351754D01*
X0011669Y0351791D01*
X0011905Y0351822D01*
X0012141Y0351848D01*
X0012378Y0351868D01*
X0012615Y0351883D01*
X0012853Y0351891D01*
X0013091Y0351894D01*
X0272933Y0351894D01*
X0273171Y0351891D01*
X0273409Y0351883D01*
X0273646Y0351868D01*
X0273883Y0351848D01*
X0274119Y0351822D01*
X0274355Y0351791D01*
X0274590Y0351754D01*
X0274824Y0351711D01*
X0275057Y0351662D01*
X0275289Y0351608D01*
X0275519Y0351548D01*
X0275748Y0351483D01*
X0275975Y0351412D01*
X0276200Y0351336D01*
X0276423Y0351254D01*
X0276645Y0351167D01*
X0276864Y0351075D01*
X0277081Y0350977D01*
X0277295Y0350875D01*
X0277507Y0350767D01*
X0277717Y0350653D01*
X0277923Y0350535D01*
X0278127Y0350412D01*
X0278327Y0350284D01*
X0278524Y0350152D01*
X0278719Y0350014D01*
X0278909Y0349872D01*
X0279097Y0349725D01*
X0279280Y0349574D01*
X0279460Y0349419D01*
X0279636Y0349259D01*
X0279808Y0349095D01*
X0279977Y0348926D01*
X0280141Y0348754D01*
X0280301Y0348578D01*
X0280456Y0348398D01*
X0280607Y0348215D01*
X0280754Y0348027D01*
X0280896Y0347837D01*
X0281034Y0347642D01*
X0281166Y0347445D01*
X0281294Y0347245D01*
X0281417Y0347041D01*
X0281535Y0346835D01*
X0281649Y0346625D01*
X0281757Y0346413D01*
X0281859Y0346199D01*
X0281957Y0345982D01*
X0282049Y0345763D01*
X0282136Y0345541D01*
X0282218Y0345318D01*
X0282294Y0345093D01*
X0282365Y0344866D01*
X0282430Y0344637D01*
X0282490Y0344407D01*
X0282544Y0344175D01*
X0282593Y0343942D01*
X0282636Y0343708D01*
X0282673Y0343473D01*
X0282704Y0343237D01*
X0282730Y0343001D01*
X0282750Y0342764D01*
X0282765Y0342527D01*
X0282773Y0342289D01*
X0282776Y0342051D01*
X0282776Y0011343D01*
X0282773Y0011105D01*
X0282765Y0010867D01*
X0282750Y0010630D01*
X0282730Y0010393D01*
X0282704Y0010157D01*
X0282673Y0009921D01*
X0282636Y0009686D01*
X0282593Y0009452D01*
X0282544Y0009219D01*
X0282490Y0008987D01*
X0282430Y0008757D01*
X0282365Y0008528D01*
X0282294Y0008301D01*
X0282218Y0008076D01*
X0282136Y0007853D01*
X0282049Y0007631D01*
X0281957Y0007412D01*
X0281859Y0007195D01*
X0281757Y0006981D01*
X0281649Y0006769D01*
X0281535Y0006559D01*
X0281417Y0006353D01*
X0281294Y0006149D01*
X0281166Y0005949D01*
X0281034Y0005752D01*
X0280896Y0005557D01*
X0280754Y0005367D01*
X0280607Y0005179D01*
X0280456Y0004996D01*
X0280301Y0004816D01*
X0280141Y0004640D01*
X0279977Y0004468D01*
X0279808Y0004299D01*
X0279636Y0004135D01*
X0279460Y0003975D01*
X0279280Y0003820D01*
X0279097Y0003669D01*
X0278909Y0003522D01*
X0278719Y0003380D01*
X0278524Y0003242D01*
X0278327Y0003110D01*
X0278127Y0002982D01*
X0277923Y0002859D01*
X0277717Y0002741D01*
X0277507Y0002627D01*
X0277295Y0002519D01*
X0277081Y0002417D01*
X0276864Y0002319D01*
X0276645Y0002227D01*
X0276423Y0002140D01*
X0276200Y0002058D01*
X0275975Y0001982D01*
X0275748Y0001911D01*
X0275519Y0001846D01*
X0275289Y0001786D01*
X0275057Y0001732D01*
X0274824Y0001683D01*
X0274590Y0001640D01*
X0274355Y0001603D01*
X0274119Y0001572D01*
X0273883Y0001546D01*
X0273646Y0001526D01*
X0273409Y0001511D01*
X0273171Y0001503D01*
X0272933Y0001500D01*
X0013091Y0001500D01*
X0012853Y0001503D01*
X0012615Y0001511D01*
X0012378Y0001526D01*
X0012141Y0001546D01*
X0011905Y0001572D01*
X0011669Y0001603D01*
X0011434Y0001640D01*
X0011200Y0001683D01*
X0010967Y0001732D01*
X0010735Y0001786D01*
X0010505Y0001846D01*
X0010276Y0001911D01*
X0010049Y0001982D01*
X0009824Y0002058D01*
X0009601Y0002140D01*
X0009379Y0002227D01*
X0009160Y0002319D01*
X0008943Y0002417D01*
X0008729Y0002519D01*
X0008517Y0002627D01*
X0008307Y0002741D01*
X0008101Y0002859D01*
X0007897Y0002982D01*
X0007697Y0003110D01*
X0007500Y0003242D01*
X0007305Y0003380D01*
X0007115Y0003522D01*
X0006927Y0003669D01*
X0006744Y0003820D01*
X0006564Y0003975D01*
X0006388Y0004135D01*
X0006216Y0004299D01*
X0006047Y0004468D01*
X0005883Y0004640D01*
X0005723Y0004816D01*
X0005568Y0004996D01*
X0005417Y0005179D01*
X0005270Y0005367D01*
X0005128Y0005557D01*
X0004990Y0005752D01*
X0004858Y0005949D01*
X0004730Y0006149D01*
X0004607Y0006353D01*
X0004489Y0006559D01*
X0004375Y0006769D01*
X0004267Y0006981D01*
X0004165Y0007195D01*
X0004067Y0007412D01*
X0003975Y0007631D01*
X0003888Y0007853D01*
X0003806Y0008076D01*
X0003730Y0008301D01*
X0003659Y0008528D01*
X0003594Y0008757D01*
X0003534Y0008987D01*
X0003480Y0009219D01*
X0003431Y0009452D01*
X0003388Y0009686D01*
X0003351Y0009921D01*
X0003320Y0010157D01*
X0003294Y0010393D01*
X0003274Y0010630D01*
X0003259Y0010867D01*
X0003251Y0011105D01*
X0003248Y0011343D01*
X0271752Y0314492D02*
X0271754Y0314576D01*
X0271760Y0314659D01*
X0271770Y0314742D01*
X0271784Y0314825D01*
X0271801Y0314907D01*
X0271823Y0314988D01*
X0271848Y0315067D01*
X0271877Y0315146D01*
X0271910Y0315223D01*
X0271946Y0315298D01*
X0271986Y0315372D01*
X0272029Y0315444D01*
X0272076Y0315513D01*
X0272126Y0315580D01*
X0272179Y0315645D01*
X0272235Y0315707D01*
X0272293Y0315767D01*
X0272355Y0315824D01*
X0272419Y0315877D01*
X0272486Y0315928D01*
X0272555Y0315975D01*
X0272626Y0316020D01*
X0272699Y0316060D01*
X0272774Y0316097D01*
X0272851Y0316131D01*
X0272929Y0316161D01*
X0273008Y0316187D01*
X0273089Y0316210D01*
X0273171Y0316228D01*
X0273253Y0316243D01*
X0273336Y0316254D01*
X0273419Y0316261D01*
X0273503Y0316264D01*
X0273587Y0316263D01*
X0273670Y0316258D01*
X0273754Y0316249D01*
X0273836Y0316236D01*
X0273918Y0316220D01*
X0273999Y0316199D01*
X0274080Y0316175D01*
X0274158Y0316147D01*
X0274236Y0316115D01*
X0274312Y0316079D01*
X0274386Y0316040D01*
X0274458Y0315998D01*
X0274528Y0315952D01*
X0274596Y0315903D01*
X0274661Y0315851D01*
X0274724Y0315796D01*
X0274784Y0315738D01*
X0274842Y0315677D01*
X0274896Y0315613D01*
X0274948Y0315547D01*
X0274996Y0315479D01*
X0275041Y0315408D01*
X0275082Y0315335D01*
X0275121Y0315261D01*
X0275155Y0315185D01*
X0275186Y0315107D01*
X0275213Y0315028D01*
X0275237Y0314947D01*
X0275256Y0314866D01*
X0275272Y0314784D01*
X0275284Y0314701D01*
X0275292Y0314617D01*
X0275296Y0314534D01*
X0275296Y0314450D01*
X0275292Y0314367D01*
X0275284Y0314283D01*
X0275272Y0314200D01*
X0275256Y0314118D01*
X0275237Y0314037D01*
X0275213Y0313956D01*
X0275186Y0313877D01*
X0275155Y0313799D01*
X0275121Y0313723D01*
X0275082Y0313649D01*
X0275041Y0313576D01*
X0274996Y0313505D01*
X0274948Y0313437D01*
X0274896Y0313371D01*
X0274842Y0313307D01*
X0274784Y0313246D01*
X0274724Y0313188D01*
X0274661Y0313133D01*
X0274596Y0313081D01*
X0274528Y0313032D01*
X0274458Y0312986D01*
X0274386Y0312944D01*
X0274312Y0312905D01*
X0274236Y0312869D01*
X0274158Y0312837D01*
X0274080Y0312809D01*
X0273999Y0312785D01*
X0273918Y0312764D01*
X0273836Y0312748D01*
X0273754Y0312735D01*
X0273670Y0312726D01*
X0273587Y0312721D01*
X0273503Y0312720D01*
X0273419Y0312723D01*
X0273336Y0312730D01*
X0273253Y0312741D01*
X0273171Y0312756D01*
X0273089Y0312774D01*
X0273008Y0312797D01*
X0272929Y0312823D01*
X0272851Y0312853D01*
X0272774Y0312887D01*
X0272699Y0312924D01*
X0272626Y0312964D01*
X0272555Y0313009D01*
X0272486Y0313056D01*
X0272419Y0313107D01*
X0272355Y0313160D01*
X0272293Y0313217D01*
X0272235Y0313277D01*
X0272179Y0313339D01*
X0272126Y0313404D01*
X0272076Y0313471D01*
X0272029Y0313540D01*
X0271986Y0313612D01*
X0271946Y0313686D01*
X0271910Y0313761D01*
X0271877Y0313838D01*
X0271848Y0313917D01*
X0271823Y0313996D01*
X0271801Y0314077D01*
X0271784Y0314159D01*
X0271770Y0314242D01*
X0271760Y0314325D01*
X0271754Y0314408D01*
X0271752Y0314492D01*
X0271752Y0326303D02*
X0271754Y0326387D01*
X0271760Y0326470D01*
X0271770Y0326553D01*
X0271784Y0326636D01*
X0271801Y0326718D01*
X0271823Y0326799D01*
X0271848Y0326878D01*
X0271877Y0326957D01*
X0271910Y0327034D01*
X0271946Y0327109D01*
X0271986Y0327183D01*
X0272029Y0327255D01*
X0272076Y0327324D01*
X0272126Y0327391D01*
X0272179Y0327456D01*
X0272235Y0327518D01*
X0272293Y0327578D01*
X0272355Y0327635D01*
X0272419Y0327688D01*
X0272486Y0327739D01*
X0272555Y0327786D01*
X0272626Y0327831D01*
X0272699Y0327871D01*
X0272774Y0327908D01*
X0272851Y0327942D01*
X0272929Y0327972D01*
X0273008Y0327998D01*
X0273089Y0328021D01*
X0273171Y0328039D01*
X0273253Y0328054D01*
X0273336Y0328065D01*
X0273419Y0328072D01*
X0273503Y0328075D01*
X0273587Y0328074D01*
X0273670Y0328069D01*
X0273754Y0328060D01*
X0273836Y0328047D01*
X0273918Y0328031D01*
X0273999Y0328010D01*
X0274080Y0327986D01*
X0274158Y0327958D01*
X0274236Y0327926D01*
X0274312Y0327890D01*
X0274386Y0327851D01*
X0274458Y0327809D01*
X0274528Y0327763D01*
X0274596Y0327714D01*
X0274661Y0327662D01*
X0274724Y0327607D01*
X0274784Y0327549D01*
X0274842Y0327488D01*
X0274896Y0327424D01*
X0274948Y0327358D01*
X0274996Y0327290D01*
X0275041Y0327219D01*
X0275082Y0327146D01*
X0275121Y0327072D01*
X0275155Y0326996D01*
X0275186Y0326918D01*
X0275213Y0326839D01*
X0275237Y0326758D01*
X0275256Y0326677D01*
X0275272Y0326595D01*
X0275284Y0326512D01*
X0275292Y0326428D01*
X0275296Y0326345D01*
X0275296Y0326261D01*
X0275292Y0326178D01*
X0275284Y0326094D01*
X0275272Y0326011D01*
X0275256Y0325929D01*
X0275237Y0325848D01*
X0275213Y0325767D01*
X0275186Y0325688D01*
X0275155Y0325610D01*
X0275121Y0325534D01*
X0275082Y0325460D01*
X0275041Y0325387D01*
X0274996Y0325316D01*
X0274948Y0325248D01*
X0274896Y0325182D01*
X0274842Y0325118D01*
X0274784Y0325057D01*
X0274724Y0324999D01*
X0274661Y0324944D01*
X0274596Y0324892D01*
X0274528Y0324843D01*
X0274458Y0324797D01*
X0274386Y0324755D01*
X0274312Y0324716D01*
X0274236Y0324680D01*
X0274158Y0324648D01*
X0274080Y0324620D01*
X0273999Y0324596D01*
X0273918Y0324575D01*
X0273836Y0324559D01*
X0273754Y0324546D01*
X0273670Y0324537D01*
X0273587Y0324532D01*
X0273503Y0324531D01*
X0273419Y0324534D01*
X0273336Y0324541D01*
X0273253Y0324552D01*
X0273171Y0324567D01*
X0273089Y0324585D01*
X0273008Y0324608D01*
X0272929Y0324634D01*
X0272851Y0324664D01*
X0272774Y0324698D01*
X0272699Y0324735D01*
X0272626Y0324775D01*
X0272555Y0324820D01*
X0272486Y0324867D01*
X0272419Y0324918D01*
X0272355Y0324971D01*
X0272293Y0325028D01*
X0272235Y0325088D01*
X0272179Y0325150D01*
X0272126Y0325215D01*
X0272076Y0325282D01*
X0272029Y0325351D01*
X0271986Y0325423D01*
X0271946Y0325497D01*
X0271910Y0325572D01*
X0271877Y0325649D01*
X0271848Y0325728D01*
X0271823Y0325807D01*
X0271801Y0325888D01*
X0271784Y0325970D01*
X0271770Y0326053D01*
X0271760Y0326136D01*
X0271754Y0326219D01*
X0271752Y0326303D01*
D11*
X0262107Y0135358D02*
X0262109Y0135498D01*
X0262115Y0135638D01*
X0262125Y0135777D01*
X0262139Y0135916D01*
X0262157Y0136055D01*
X0262178Y0136193D01*
X0262204Y0136331D01*
X0262234Y0136468D01*
X0262267Y0136603D01*
X0262305Y0136738D01*
X0262346Y0136872D01*
X0262391Y0137005D01*
X0262439Y0137136D01*
X0262492Y0137265D01*
X0262548Y0137394D01*
X0262607Y0137520D01*
X0262671Y0137645D01*
X0262737Y0137768D01*
X0262808Y0137889D01*
X0262881Y0138008D01*
X0262958Y0138125D01*
X0263039Y0138239D01*
X0263122Y0138351D01*
X0263209Y0138461D01*
X0263299Y0138569D01*
X0263391Y0138673D01*
X0263487Y0138775D01*
X0263586Y0138875D01*
X0263687Y0138971D01*
X0263791Y0139065D01*
X0263898Y0139155D01*
X0264007Y0139242D01*
X0264119Y0139327D01*
X0264233Y0139408D01*
X0264349Y0139486D01*
X0264467Y0139560D01*
X0264588Y0139631D01*
X0264710Y0139699D01*
X0264835Y0139763D01*
X0264961Y0139824D01*
X0265088Y0139881D01*
X0265218Y0139934D01*
X0265349Y0139984D01*
X0265481Y0140029D01*
X0265614Y0140072D01*
X0265749Y0140110D01*
X0265884Y0140144D01*
X0266021Y0140175D01*
X0266158Y0140202D01*
X0266296Y0140224D01*
X0266435Y0140243D01*
X0266574Y0140258D01*
X0266713Y0140269D01*
X0266853Y0140276D01*
X0266993Y0140279D01*
X0267133Y0140278D01*
X0267273Y0140273D01*
X0267412Y0140264D01*
X0267552Y0140251D01*
X0267691Y0140234D01*
X0267829Y0140213D01*
X0267967Y0140189D01*
X0268104Y0140160D01*
X0268240Y0140128D01*
X0268375Y0140091D01*
X0268509Y0140051D01*
X0268642Y0140007D01*
X0268773Y0139959D01*
X0268903Y0139908D01*
X0269032Y0139853D01*
X0269159Y0139794D01*
X0269284Y0139731D01*
X0269407Y0139666D01*
X0269529Y0139596D01*
X0269648Y0139523D01*
X0269766Y0139447D01*
X0269881Y0139368D01*
X0269994Y0139285D01*
X0270104Y0139199D01*
X0270212Y0139110D01*
X0270317Y0139018D01*
X0270420Y0138923D01*
X0270520Y0138825D01*
X0270617Y0138725D01*
X0270711Y0138621D01*
X0270803Y0138515D01*
X0270891Y0138407D01*
X0270976Y0138296D01*
X0271058Y0138182D01*
X0271137Y0138066D01*
X0271212Y0137949D01*
X0271284Y0137829D01*
X0271352Y0137707D01*
X0271417Y0137583D01*
X0271479Y0137457D01*
X0271537Y0137330D01*
X0271591Y0137201D01*
X0271642Y0137070D01*
X0271688Y0136938D01*
X0271731Y0136805D01*
X0271771Y0136671D01*
X0271806Y0136536D01*
X0271838Y0136399D01*
X0271865Y0136262D01*
X0271889Y0136124D01*
X0271909Y0135986D01*
X0271925Y0135847D01*
X0271937Y0135707D01*
X0271945Y0135568D01*
X0271949Y0135428D01*
X0271949Y0135288D01*
X0271945Y0135148D01*
X0271937Y0135009D01*
X0271925Y0134869D01*
X0271909Y0134730D01*
X0271889Y0134592D01*
X0271865Y0134454D01*
X0271838Y0134317D01*
X0271806Y0134180D01*
X0271771Y0134045D01*
X0271731Y0133911D01*
X0271688Y0133778D01*
X0271642Y0133646D01*
X0271591Y0133515D01*
X0271537Y0133386D01*
X0271479Y0133259D01*
X0271417Y0133133D01*
X0271352Y0133009D01*
X0271284Y0132887D01*
X0271212Y0132767D01*
X0271137Y0132650D01*
X0271058Y0132534D01*
X0270976Y0132420D01*
X0270891Y0132309D01*
X0270803Y0132201D01*
X0270711Y0132095D01*
X0270617Y0131991D01*
X0270520Y0131891D01*
X0270420Y0131793D01*
X0270317Y0131698D01*
X0270212Y0131606D01*
X0270104Y0131517D01*
X0269994Y0131431D01*
X0269881Y0131348D01*
X0269766Y0131269D01*
X0269648Y0131193D01*
X0269529Y0131120D01*
X0269407Y0131050D01*
X0269284Y0130985D01*
X0269159Y0130922D01*
X0269032Y0130863D01*
X0268903Y0130808D01*
X0268773Y0130757D01*
X0268642Y0130709D01*
X0268509Y0130665D01*
X0268375Y0130625D01*
X0268240Y0130588D01*
X0268104Y0130556D01*
X0267967Y0130527D01*
X0267829Y0130503D01*
X0267691Y0130482D01*
X0267552Y0130465D01*
X0267412Y0130452D01*
X0267273Y0130443D01*
X0267133Y0130438D01*
X0266993Y0130437D01*
X0266853Y0130440D01*
X0266713Y0130447D01*
X0266574Y0130458D01*
X0266435Y0130473D01*
X0266296Y0130492D01*
X0266158Y0130514D01*
X0266021Y0130541D01*
X0265884Y0130572D01*
X0265749Y0130606D01*
X0265614Y0130644D01*
X0265481Y0130687D01*
X0265349Y0130732D01*
X0265218Y0130782D01*
X0265088Y0130835D01*
X0264961Y0130892D01*
X0264835Y0130953D01*
X0264710Y0131017D01*
X0264588Y0131085D01*
X0264467Y0131156D01*
X0264349Y0131230D01*
X0264233Y0131308D01*
X0264119Y0131389D01*
X0264007Y0131474D01*
X0263898Y0131561D01*
X0263791Y0131651D01*
X0263687Y0131745D01*
X0263586Y0131841D01*
X0263487Y0131941D01*
X0263391Y0132043D01*
X0263299Y0132147D01*
X0263209Y0132255D01*
X0263122Y0132365D01*
X0263039Y0132477D01*
X0262958Y0132591D01*
X0262881Y0132708D01*
X0262808Y0132827D01*
X0262737Y0132948D01*
X0262671Y0133071D01*
X0262607Y0133196D01*
X0262548Y0133322D01*
X0262492Y0133451D01*
X0262439Y0133580D01*
X0262391Y0133711D01*
X0262346Y0133844D01*
X0262305Y0133978D01*
X0262267Y0134113D01*
X0262234Y0134248D01*
X0262204Y0134385D01*
X0262178Y0134523D01*
X0262157Y0134661D01*
X0262139Y0134800D01*
X0262125Y0134939D01*
X0262115Y0135078D01*
X0262109Y0135218D01*
X0262107Y0135358D01*
X0262107Y0017248D02*
X0262109Y0017388D01*
X0262115Y0017528D01*
X0262125Y0017667D01*
X0262139Y0017806D01*
X0262157Y0017945D01*
X0262178Y0018083D01*
X0262204Y0018221D01*
X0262234Y0018358D01*
X0262267Y0018493D01*
X0262305Y0018628D01*
X0262346Y0018762D01*
X0262391Y0018895D01*
X0262439Y0019026D01*
X0262492Y0019155D01*
X0262548Y0019284D01*
X0262607Y0019410D01*
X0262671Y0019535D01*
X0262737Y0019658D01*
X0262808Y0019779D01*
X0262881Y0019898D01*
X0262958Y0020015D01*
X0263039Y0020129D01*
X0263122Y0020241D01*
X0263209Y0020351D01*
X0263299Y0020459D01*
X0263391Y0020563D01*
X0263487Y0020665D01*
X0263586Y0020765D01*
X0263687Y0020861D01*
X0263791Y0020955D01*
X0263898Y0021045D01*
X0264007Y0021132D01*
X0264119Y0021217D01*
X0264233Y0021298D01*
X0264349Y0021376D01*
X0264467Y0021450D01*
X0264588Y0021521D01*
X0264710Y0021589D01*
X0264835Y0021653D01*
X0264961Y0021714D01*
X0265088Y0021771D01*
X0265218Y0021824D01*
X0265349Y0021874D01*
X0265481Y0021919D01*
X0265614Y0021962D01*
X0265749Y0022000D01*
X0265884Y0022034D01*
X0266021Y0022065D01*
X0266158Y0022092D01*
X0266296Y0022114D01*
X0266435Y0022133D01*
X0266574Y0022148D01*
X0266713Y0022159D01*
X0266853Y0022166D01*
X0266993Y0022169D01*
X0267133Y0022168D01*
X0267273Y0022163D01*
X0267412Y0022154D01*
X0267552Y0022141D01*
X0267691Y0022124D01*
X0267829Y0022103D01*
X0267967Y0022079D01*
X0268104Y0022050D01*
X0268240Y0022018D01*
X0268375Y0021981D01*
X0268509Y0021941D01*
X0268642Y0021897D01*
X0268773Y0021849D01*
X0268903Y0021798D01*
X0269032Y0021743D01*
X0269159Y0021684D01*
X0269284Y0021621D01*
X0269407Y0021556D01*
X0269529Y0021486D01*
X0269648Y0021413D01*
X0269766Y0021337D01*
X0269881Y0021258D01*
X0269994Y0021175D01*
X0270104Y0021089D01*
X0270212Y0021000D01*
X0270317Y0020908D01*
X0270420Y0020813D01*
X0270520Y0020715D01*
X0270617Y0020615D01*
X0270711Y0020511D01*
X0270803Y0020405D01*
X0270891Y0020297D01*
X0270976Y0020186D01*
X0271058Y0020072D01*
X0271137Y0019956D01*
X0271212Y0019839D01*
X0271284Y0019719D01*
X0271352Y0019597D01*
X0271417Y0019473D01*
X0271479Y0019347D01*
X0271537Y0019220D01*
X0271591Y0019091D01*
X0271642Y0018960D01*
X0271688Y0018828D01*
X0271731Y0018695D01*
X0271771Y0018561D01*
X0271806Y0018426D01*
X0271838Y0018289D01*
X0271865Y0018152D01*
X0271889Y0018014D01*
X0271909Y0017876D01*
X0271925Y0017737D01*
X0271937Y0017597D01*
X0271945Y0017458D01*
X0271949Y0017318D01*
X0271949Y0017178D01*
X0271945Y0017038D01*
X0271937Y0016899D01*
X0271925Y0016759D01*
X0271909Y0016620D01*
X0271889Y0016482D01*
X0271865Y0016344D01*
X0271838Y0016207D01*
X0271806Y0016070D01*
X0271771Y0015935D01*
X0271731Y0015801D01*
X0271688Y0015668D01*
X0271642Y0015536D01*
X0271591Y0015405D01*
X0271537Y0015276D01*
X0271479Y0015149D01*
X0271417Y0015023D01*
X0271352Y0014899D01*
X0271284Y0014777D01*
X0271212Y0014657D01*
X0271137Y0014540D01*
X0271058Y0014424D01*
X0270976Y0014310D01*
X0270891Y0014199D01*
X0270803Y0014091D01*
X0270711Y0013985D01*
X0270617Y0013881D01*
X0270520Y0013781D01*
X0270420Y0013683D01*
X0270317Y0013588D01*
X0270212Y0013496D01*
X0270104Y0013407D01*
X0269994Y0013321D01*
X0269881Y0013238D01*
X0269766Y0013159D01*
X0269648Y0013083D01*
X0269529Y0013010D01*
X0269407Y0012940D01*
X0269284Y0012875D01*
X0269159Y0012812D01*
X0269032Y0012753D01*
X0268903Y0012698D01*
X0268773Y0012647D01*
X0268642Y0012599D01*
X0268509Y0012555D01*
X0268375Y0012515D01*
X0268240Y0012478D01*
X0268104Y0012446D01*
X0267967Y0012417D01*
X0267829Y0012393D01*
X0267691Y0012372D01*
X0267552Y0012355D01*
X0267412Y0012342D01*
X0267273Y0012333D01*
X0267133Y0012328D01*
X0266993Y0012327D01*
X0266853Y0012330D01*
X0266713Y0012337D01*
X0266574Y0012348D01*
X0266435Y0012363D01*
X0266296Y0012382D01*
X0266158Y0012404D01*
X0266021Y0012431D01*
X0265884Y0012462D01*
X0265749Y0012496D01*
X0265614Y0012534D01*
X0265481Y0012577D01*
X0265349Y0012622D01*
X0265218Y0012672D01*
X0265088Y0012725D01*
X0264961Y0012782D01*
X0264835Y0012843D01*
X0264710Y0012907D01*
X0264588Y0012975D01*
X0264467Y0013046D01*
X0264349Y0013120D01*
X0264233Y0013198D01*
X0264119Y0013279D01*
X0264007Y0013364D01*
X0263898Y0013451D01*
X0263791Y0013541D01*
X0263687Y0013635D01*
X0263586Y0013731D01*
X0263487Y0013831D01*
X0263391Y0013933D01*
X0263299Y0014037D01*
X0263209Y0014145D01*
X0263122Y0014255D01*
X0263039Y0014367D01*
X0262958Y0014481D01*
X0262881Y0014598D01*
X0262808Y0014717D01*
X0262737Y0014838D01*
X0262671Y0014961D01*
X0262607Y0015086D01*
X0262548Y0015212D01*
X0262492Y0015341D01*
X0262439Y0015470D01*
X0262391Y0015601D01*
X0262346Y0015734D01*
X0262305Y0015868D01*
X0262267Y0016003D01*
X0262234Y0016138D01*
X0262204Y0016275D01*
X0262178Y0016413D01*
X0262157Y0016551D01*
X0262139Y0016690D01*
X0262125Y0016829D01*
X0262115Y0016968D01*
X0262109Y0017108D01*
X0262107Y0017248D01*
X0021949Y0115673D02*
X0021951Y0115813D01*
X0021957Y0115953D01*
X0021967Y0116092D01*
X0021981Y0116231D01*
X0021999Y0116370D01*
X0022020Y0116508D01*
X0022046Y0116646D01*
X0022076Y0116783D01*
X0022109Y0116918D01*
X0022147Y0117053D01*
X0022188Y0117187D01*
X0022233Y0117320D01*
X0022281Y0117451D01*
X0022334Y0117580D01*
X0022390Y0117709D01*
X0022449Y0117835D01*
X0022513Y0117960D01*
X0022579Y0118083D01*
X0022650Y0118204D01*
X0022723Y0118323D01*
X0022800Y0118440D01*
X0022881Y0118554D01*
X0022964Y0118666D01*
X0023051Y0118776D01*
X0023141Y0118884D01*
X0023233Y0118988D01*
X0023329Y0119090D01*
X0023428Y0119190D01*
X0023529Y0119286D01*
X0023633Y0119380D01*
X0023740Y0119470D01*
X0023849Y0119557D01*
X0023961Y0119642D01*
X0024075Y0119723D01*
X0024191Y0119801D01*
X0024309Y0119875D01*
X0024430Y0119946D01*
X0024552Y0120014D01*
X0024677Y0120078D01*
X0024803Y0120139D01*
X0024930Y0120196D01*
X0025060Y0120249D01*
X0025191Y0120299D01*
X0025323Y0120344D01*
X0025456Y0120387D01*
X0025591Y0120425D01*
X0025726Y0120459D01*
X0025863Y0120490D01*
X0026000Y0120517D01*
X0026138Y0120539D01*
X0026277Y0120558D01*
X0026416Y0120573D01*
X0026555Y0120584D01*
X0026695Y0120591D01*
X0026835Y0120594D01*
X0026975Y0120593D01*
X0027115Y0120588D01*
X0027254Y0120579D01*
X0027394Y0120566D01*
X0027533Y0120549D01*
X0027671Y0120528D01*
X0027809Y0120504D01*
X0027946Y0120475D01*
X0028082Y0120443D01*
X0028217Y0120406D01*
X0028351Y0120366D01*
X0028484Y0120322D01*
X0028615Y0120274D01*
X0028745Y0120223D01*
X0028874Y0120168D01*
X0029001Y0120109D01*
X0029126Y0120046D01*
X0029249Y0119981D01*
X0029371Y0119911D01*
X0029490Y0119838D01*
X0029608Y0119762D01*
X0029723Y0119683D01*
X0029836Y0119600D01*
X0029946Y0119514D01*
X0030054Y0119425D01*
X0030159Y0119333D01*
X0030262Y0119238D01*
X0030362Y0119140D01*
X0030459Y0119040D01*
X0030553Y0118936D01*
X0030645Y0118830D01*
X0030733Y0118722D01*
X0030818Y0118611D01*
X0030900Y0118497D01*
X0030979Y0118381D01*
X0031054Y0118264D01*
X0031126Y0118144D01*
X0031194Y0118022D01*
X0031259Y0117898D01*
X0031321Y0117772D01*
X0031379Y0117645D01*
X0031433Y0117516D01*
X0031484Y0117385D01*
X0031530Y0117253D01*
X0031573Y0117120D01*
X0031613Y0116986D01*
X0031648Y0116851D01*
X0031680Y0116714D01*
X0031707Y0116577D01*
X0031731Y0116439D01*
X0031751Y0116301D01*
X0031767Y0116162D01*
X0031779Y0116022D01*
X0031787Y0115883D01*
X0031791Y0115743D01*
X0031791Y0115603D01*
X0031787Y0115463D01*
X0031779Y0115324D01*
X0031767Y0115184D01*
X0031751Y0115045D01*
X0031731Y0114907D01*
X0031707Y0114769D01*
X0031680Y0114632D01*
X0031648Y0114495D01*
X0031613Y0114360D01*
X0031573Y0114226D01*
X0031530Y0114093D01*
X0031484Y0113961D01*
X0031433Y0113830D01*
X0031379Y0113701D01*
X0031321Y0113574D01*
X0031259Y0113448D01*
X0031194Y0113324D01*
X0031126Y0113202D01*
X0031054Y0113082D01*
X0030979Y0112965D01*
X0030900Y0112849D01*
X0030818Y0112735D01*
X0030733Y0112624D01*
X0030645Y0112516D01*
X0030553Y0112410D01*
X0030459Y0112306D01*
X0030362Y0112206D01*
X0030262Y0112108D01*
X0030159Y0112013D01*
X0030054Y0111921D01*
X0029946Y0111832D01*
X0029836Y0111746D01*
X0029723Y0111663D01*
X0029608Y0111584D01*
X0029490Y0111508D01*
X0029371Y0111435D01*
X0029249Y0111365D01*
X0029126Y0111300D01*
X0029001Y0111237D01*
X0028874Y0111178D01*
X0028745Y0111123D01*
X0028615Y0111072D01*
X0028484Y0111024D01*
X0028351Y0110980D01*
X0028217Y0110940D01*
X0028082Y0110903D01*
X0027946Y0110871D01*
X0027809Y0110842D01*
X0027671Y0110818D01*
X0027533Y0110797D01*
X0027394Y0110780D01*
X0027254Y0110767D01*
X0027115Y0110758D01*
X0026975Y0110753D01*
X0026835Y0110752D01*
X0026695Y0110755D01*
X0026555Y0110762D01*
X0026416Y0110773D01*
X0026277Y0110788D01*
X0026138Y0110807D01*
X0026000Y0110829D01*
X0025863Y0110856D01*
X0025726Y0110887D01*
X0025591Y0110921D01*
X0025456Y0110959D01*
X0025323Y0111002D01*
X0025191Y0111047D01*
X0025060Y0111097D01*
X0024930Y0111150D01*
X0024803Y0111207D01*
X0024677Y0111268D01*
X0024552Y0111332D01*
X0024430Y0111400D01*
X0024309Y0111471D01*
X0024191Y0111545D01*
X0024075Y0111623D01*
X0023961Y0111704D01*
X0023849Y0111789D01*
X0023740Y0111876D01*
X0023633Y0111966D01*
X0023529Y0112060D01*
X0023428Y0112156D01*
X0023329Y0112256D01*
X0023233Y0112358D01*
X0023141Y0112462D01*
X0023051Y0112570D01*
X0022964Y0112680D01*
X0022881Y0112792D01*
X0022800Y0112906D01*
X0022723Y0113023D01*
X0022650Y0113142D01*
X0022579Y0113263D01*
X0022513Y0113386D01*
X0022449Y0113511D01*
X0022390Y0113637D01*
X0022334Y0113766D01*
X0022281Y0113895D01*
X0022233Y0114026D01*
X0022188Y0114159D01*
X0022147Y0114293D01*
X0022109Y0114428D01*
X0022076Y0114563D01*
X0022046Y0114700D01*
X0022020Y0114838D01*
X0021999Y0114976D01*
X0021981Y0115115D01*
X0021967Y0115254D01*
X0021957Y0115393D01*
X0021951Y0115533D01*
X0021949Y0115673D01*
X0014075Y0017248D02*
X0014077Y0017388D01*
X0014083Y0017528D01*
X0014093Y0017667D01*
X0014107Y0017806D01*
X0014125Y0017945D01*
X0014146Y0018083D01*
X0014172Y0018221D01*
X0014202Y0018358D01*
X0014235Y0018493D01*
X0014273Y0018628D01*
X0014314Y0018762D01*
X0014359Y0018895D01*
X0014407Y0019026D01*
X0014460Y0019155D01*
X0014516Y0019284D01*
X0014575Y0019410D01*
X0014639Y0019535D01*
X0014705Y0019658D01*
X0014776Y0019779D01*
X0014849Y0019898D01*
X0014926Y0020015D01*
X0015007Y0020129D01*
X0015090Y0020241D01*
X0015177Y0020351D01*
X0015267Y0020459D01*
X0015359Y0020563D01*
X0015455Y0020665D01*
X0015554Y0020765D01*
X0015655Y0020861D01*
X0015759Y0020955D01*
X0015866Y0021045D01*
X0015975Y0021132D01*
X0016087Y0021217D01*
X0016201Y0021298D01*
X0016317Y0021376D01*
X0016435Y0021450D01*
X0016556Y0021521D01*
X0016678Y0021589D01*
X0016803Y0021653D01*
X0016929Y0021714D01*
X0017056Y0021771D01*
X0017186Y0021824D01*
X0017317Y0021874D01*
X0017449Y0021919D01*
X0017582Y0021962D01*
X0017717Y0022000D01*
X0017852Y0022034D01*
X0017989Y0022065D01*
X0018126Y0022092D01*
X0018264Y0022114D01*
X0018403Y0022133D01*
X0018542Y0022148D01*
X0018681Y0022159D01*
X0018821Y0022166D01*
X0018961Y0022169D01*
X0019101Y0022168D01*
X0019241Y0022163D01*
X0019380Y0022154D01*
X0019520Y0022141D01*
X0019659Y0022124D01*
X0019797Y0022103D01*
X0019935Y0022079D01*
X0020072Y0022050D01*
X0020208Y0022018D01*
X0020343Y0021981D01*
X0020477Y0021941D01*
X0020610Y0021897D01*
X0020741Y0021849D01*
X0020871Y0021798D01*
X0021000Y0021743D01*
X0021127Y0021684D01*
X0021252Y0021621D01*
X0021375Y0021556D01*
X0021497Y0021486D01*
X0021616Y0021413D01*
X0021734Y0021337D01*
X0021849Y0021258D01*
X0021962Y0021175D01*
X0022072Y0021089D01*
X0022180Y0021000D01*
X0022285Y0020908D01*
X0022388Y0020813D01*
X0022488Y0020715D01*
X0022585Y0020615D01*
X0022679Y0020511D01*
X0022771Y0020405D01*
X0022859Y0020297D01*
X0022944Y0020186D01*
X0023026Y0020072D01*
X0023105Y0019956D01*
X0023180Y0019839D01*
X0023252Y0019719D01*
X0023320Y0019597D01*
X0023385Y0019473D01*
X0023447Y0019347D01*
X0023505Y0019220D01*
X0023559Y0019091D01*
X0023610Y0018960D01*
X0023656Y0018828D01*
X0023699Y0018695D01*
X0023739Y0018561D01*
X0023774Y0018426D01*
X0023806Y0018289D01*
X0023833Y0018152D01*
X0023857Y0018014D01*
X0023877Y0017876D01*
X0023893Y0017737D01*
X0023905Y0017597D01*
X0023913Y0017458D01*
X0023917Y0017318D01*
X0023917Y0017178D01*
X0023913Y0017038D01*
X0023905Y0016899D01*
X0023893Y0016759D01*
X0023877Y0016620D01*
X0023857Y0016482D01*
X0023833Y0016344D01*
X0023806Y0016207D01*
X0023774Y0016070D01*
X0023739Y0015935D01*
X0023699Y0015801D01*
X0023656Y0015668D01*
X0023610Y0015536D01*
X0023559Y0015405D01*
X0023505Y0015276D01*
X0023447Y0015149D01*
X0023385Y0015023D01*
X0023320Y0014899D01*
X0023252Y0014777D01*
X0023180Y0014657D01*
X0023105Y0014540D01*
X0023026Y0014424D01*
X0022944Y0014310D01*
X0022859Y0014199D01*
X0022771Y0014091D01*
X0022679Y0013985D01*
X0022585Y0013881D01*
X0022488Y0013781D01*
X0022388Y0013683D01*
X0022285Y0013588D01*
X0022180Y0013496D01*
X0022072Y0013407D01*
X0021962Y0013321D01*
X0021849Y0013238D01*
X0021734Y0013159D01*
X0021616Y0013083D01*
X0021497Y0013010D01*
X0021375Y0012940D01*
X0021252Y0012875D01*
X0021127Y0012812D01*
X0021000Y0012753D01*
X0020871Y0012698D01*
X0020741Y0012647D01*
X0020610Y0012599D01*
X0020477Y0012555D01*
X0020343Y0012515D01*
X0020208Y0012478D01*
X0020072Y0012446D01*
X0019935Y0012417D01*
X0019797Y0012393D01*
X0019659Y0012372D01*
X0019520Y0012355D01*
X0019380Y0012342D01*
X0019241Y0012333D01*
X0019101Y0012328D01*
X0018961Y0012327D01*
X0018821Y0012330D01*
X0018681Y0012337D01*
X0018542Y0012348D01*
X0018403Y0012363D01*
X0018264Y0012382D01*
X0018126Y0012404D01*
X0017989Y0012431D01*
X0017852Y0012462D01*
X0017717Y0012496D01*
X0017582Y0012534D01*
X0017449Y0012577D01*
X0017317Y0012622D01*
X0017186Y0012672D01*
X0017056Y0012725D01*
X0016929Y0012782D01*
X0016803Y0012843D01*
X0016678Y0012907D01*
X0016556Y0012975D01*
X0016435Y0013046D01*
X0016317Y0013120D01*
X0016201Y0013198D01*
X0016087Y0013279D01*
X0015975Y0013364D01*
X0015866Y0013451D01*
X0015759Y0013541D01*
X0015655Y0013635D01*
X0015554Y0013731D01*
X0015455Y0013831D01*
X0015359Y0013933D01*
X0015267Y0014037D01*
X0015177Y0014145D01*
X0015090Y0014255D01*
X0015007Y0014367D01*
X0014926Y0014481D01*
X0014849Y0014598D01*
X0014776Y0014717D01*
X0014705Y0014838D01*
X0014639Y0014961D01*
X0014575Y0015086D01*
X0014516Y0015212D01*
X0014460Y0015341D01*
X0014407Y0015470D01*
X0014359Y0015601D01*
X0014314Y0015734D01*
X0014273Y0015868D01*
X0014235Y0016003D01*
X0014202Y0016138D01*
X0014172Y0016275D01*
X0014146Y0016413D01*
X0014125Y0016551D01*
X0014107Y0016690D01*
X0014093Y0016829D01*
X0014083Y0016968D01*
X0014077Y0017108D01*
X0014075Y0017248D01*
D12*
X0038000Y0239520D03*
X0038000Y0249520D03*
X0048000Y0249520D03*
X0048000Y0239520D03*
X0058000Y0239520D03*
X0058000Y0249520D03*
X0068000Y0249520D03*
X0068000Y0239520D03*
X0078000Y0239520D03*
X0078000Y0249520D03*
X0088000Y0249520D03*
X0088000Y0239520D03*
X0098000Y0239520D03*
X0098000Y0249520D03*
X0108000Y0249520D03*
X0108000Y0239520D03*
X0118000Y0239520D03*
X0118000Y0249520D03*
X0128000Y0249520D03*
X0128000Y0239520D03*
X0138000Y0239520D03*
X0138000Y0249520D03*
X0148000Y0249520D03*
X0148000Y0239520D03*
X0158000Y0239520D03*
X0158000Y0249520D03*
X0168000Y0249520D03*
X0168000Y0239520D03*
X0178000Y0239520D03*
X0178000Y0249520D03*
X0188000Y0249520D03*
X0188000Y0239520D03*
X0198000Y0239520D03*
X0198000Y0249520D03*
X0208000Y0249520D03*
X0208000Y0239520D03*
X0218000Y0239520D03*
X0218000Y0249520D03*
X0228000Y0249520D03*
X0228000Y0239520D03*
D13*
X0228000Y0233020D03*
X0218000Y0233020D03*
X0208000Y0233020D03*
X0198000Y0233020D03*
X0188000Y0233020D03*
X0178000Y0233020D03*
X0168000Y0233020D03*
X0158000Y0233020D03*
X0148000Y0233020D03*
X0138000Y0233020D03*
X0128000Y0233020D03*
X0118000Y0233020D03*
X0108000Y0233020D03*
X0098000Y0233020D03*
X0088000Y0233020D03*
X0078000Y0233020D03*
X0068000Y0233020D03*
X0058000Y0233020D03*
X0048000Y0233020D03*
X0038000Y0233020D03*
X0038000Y0256020D03*
X0048000Y0256020D03*
X0058000Y0256020D03*
X0068000Y0256020D03*
X0078000Y0256020D03*
X0088000Y0256020D03*
X0098000Y0256020D03*
X0108000Y0256020D03*
X0118000Y0256020D03*
X0128000Y0256020D03*
X0138000Y0256020D03*
X0148000Y0256020D03*
X0158000Y0256020D03*
X0168000Y0256020D03*
X0178000Y0256020D03*
X0188000Y0256020D03*
X0198000Y0256020D03*
X0208000Y0256020D03*
X0218000Y0256020D03*
X0228000Y0256020D03*
D14*
X0128524Y0194512D03*
X0128524Y0186638D03*
D15*
X0135610Y0177189D03*
X0135610Y0203961D03*
D16*
X0104232Y0204256D03*
X0104232Y0218626D03*
X0104232Y0176697D03*
X0104232Y0162327D03*
X0012500Y0162327D03*
X0012500Y0218626D03*
D17*
G36*
X0046829Y0110854D02*
X0052536Y0113515D01*
X0055115Y0107986D01*
X0049408Y0105325D01*
X0046829Y0110854D01*
G37*
G36*
X0055149Y0093013D02*
X0060856Y0095674D01*
X0063435Y0090145D01*
X0057728Y0087484D01*
X0055149Y0093013D01*
G37*
G36*
X0068155Y0056594D02*
X0073862Y0059255D01*
X0076441Y0053726D01*
X0070734Y0051065D01*
X0068155Y0056594D01*
G37*
G36*
X0076474Y0038754D02*
X0082181Y0041415D01*
X0084760Y0035886D01*
X0079053Y0033225D01*
X0076474Y0038754D01*
G37*
G36*
X0117930Y0079805D02*
X0123637Y0082466D01*
X0126216Y0076937D01*
X0120509Y0074276D01*
X0117930Y0079805D01*
G37*
G36*
X0126250Y0061964D02*
X0131957Y0064625D01*
X0134536Y0059096D01*
X0128829Y0056435D01*
X0126250Y0061964D01*
G37*
G36*
X0157195Y0056435D02*
X0151488Y0059096D01*
X0154067Y0064625D01*
X0159774Y0061964D01*
X0157195Y0056435D01*
G37*
G36*
X0165514Y0074276D02*
X0159807Y0076937D01*
X0162386Y0082466D01*
X0168093Y0079805D01*
X0165514Y0074276D01*
G37*
G36*
X0178521Y0110695D02*
X0172814Y0113356D01*
X0175393Y0118885D01*
X0181100Y0116224D01*
X0178521Y0110695D01*
G37*
G36*
X0186840Y0128536D02*
X0181133Y0131197D01*
X0183712Y0136726D01*
X0189419Y0134065D01*
X0186840Y0128536D01*
G37*
G36*
X0228296Y0087484D02*
X0222589Y0090145D01*
X0225168Y0095674D01*
X0230875Y0093013D01*
X0228296Y0087484D01*
G37*
G36*
X0236615Y0105325D02*
X0230908Y0107986D01*
X0233487Y0113515D01*
X0239194Y0110854D01*
X0236615Y0105325D01*
G37*
G36*
X0215290Y0051065D02*
X0209583Y0053726D01*
X0212162Y0059255D01*
X0217869Y0056594D01*
X0215290Y0051065D01*
G37*
G36*
X0206971Y0033225D02*
X0201264Y0035886D01*
X0203843Y0041415D01*
X0209550Y0038754D01*
X0206971Y0033225D01*
G37*
G36*
X0104924Y0116224D02*
X0110631Y0118885D01*
X0113210Y0113356D01*
X0107503Y0110695D01*
X0104924Y0116224D01*
G37*
G36*
X0096605Y0134065D02*
X0102312Y0136726D01*
X0104891Y0131197D01*
X0099184Y0128536D01*
X0096605Y0134065D01*
G37*
D18*
X0274902Y0288902D03*
X0274902Y0296776D03*
D19*
X0274902Y0281224D03*
X0274902Y0272957D03*
D20*
X0266634Y0311539D03*
X0266634Y0317445D03*
X0266634Y0329256D03*
D21*
X0277461Y0334768D03*
X0277461Y0306028D03*
D22*
X0269193Y0306028D03*
X0269193Y0334768D03*
M02*
