%
M48
M72
T01C0.0197
T02C0.0236
T03C0.0354
%
T01
X5049Y21804
X7018Y20622
X8800Y20622
X13800Y27315
X14301Y27945
X14800Y28575
X13317Y28890
X12800Y27630
X11348Y28260
X15679Y32827
X16073Y27709
X17254Y21016
X15800Y17867
X18800Y17079
X20797Y18260
X21800Y17079
X22800Y17473
X22313Y18654
X26703Y17079
X14301Y4481
X6230Y6843
X23947Y26922
X24341Y27709
X24734Y27315
X25128Y26528
X24734Y29678
X26309Y29678
T02
X3800Y26528
X11800Y26528
T03
X27352Y31449
X27352Y32630
M30
