G75*
%MOIN*%
%OFA0B0*%
%FSLAX25Y25*%
%IPPOS*%
%LPD*%
%AMOC8*
5,1,8,0,0,1.08239X$1,22.5*
%
%ADD10R,0.00339X0.00339*%
%ADD11R,0.01354X0.00339*%
%ADD12R,0.01016X0.00339*%
%ADD13R,0.02031X0.00339*%
%ADD14R,0.03047X0.00339*%
%ADD15R,0.03724X0.00339*%
%ADD16R,0.05079X0.00339*%
%ADD17R,0.05756X0.00339*%
%ADD18R,0.04740X0.00339*%
%ADD19R,0.01693X0.00339*%
%ADD20R,0.00677X0.00339*%
%ADD21R,0.03386X0.00339*%
%ADD22R,0.04402X0.00339*%
%ADD23R,0.02709X0.00339*%
%ADD24R,0.05417X0.00339*%
%ADD25R,0.02370X0.00339*%
%ADD26R,0.04063X0.00339*%
%ADD27R,0.06094X0.00339*%
%ADD28R,0.06772X0.00339*%
%ADD29C,0.00000*%
%ADD30R,0.10496X0.00339*%
%ADD31R,0.22685X0.00339*%
%ADD32R,0.32504X0.00339*%
%ADD33R,0.06433X0.00339*%
%ADD34R,0.07787X0.00339*%
%ADD35R,0.09142X0.00339*%
%ADD36R,0.09480X0.00339*%
%ADD37R,0.09819X0.00339*%
%ADD38R,0.07110X0.00339*%
%ADD39R,0.08126X0.00339*%
%ADD40R,0.07449X0.00339*%
%ADD41R,0.11850X0.00339*%
%ADD42R,0.22346X0.00339*%
%ADD43R,0.11173X0.00339*%
%ADD44R,0.00339X0.04063*%
%ADD45R,0.00339X0.00677*%
%ADD46R,0.00339X0.03047*%
%ADD47R,0.00339X0.02709*%
%ADD48R,0.00339X0.02031*%
%ADD49R,0.00339X0.01354*%
%ADD50R,0.00339X0.01693*%
%ADD51R,0.00339X0.02370*%
%ADD52R,0.00339X0.01016*%
%ADD53C,0.00800*%
%ADD54C,0.02756*%
%ADD55C,0.00600*%
%ADD56R,0.02559X0.05512*%
%ADD57R,0.00787X0.00787*%
D10*
X0068201Y0031496D03*
X0069217Y0040976D03*
X0068201Y0047071D03*
X0047209Y0204118D03*
X0101067Y0337268D03*
X0099713Y0339976D03*
X0139327Y0338961D03*
X0187406Y0326772D03*
X0187744Y0326094D03*
X0189098Y0326772D03*
X0189776Y0326772D03*
X0190453Y0326433D03*
X0191130Y0326433D03*
X0190791Y0325756D03*
X0190791Y0327110D03*
X0189437Y0327449D03*
X0188760Y0327449D03*
X0189098Y0328126D03*
X0188083Y0327787D03*
X0190791Y0329142D03*
X0198917Y0329142D03*
X0198917Y0329480D03*
X0198917Y0329819D03*
X0198917Y0330157D03*
X0198917Y0330496D03*
X0198917Y0330835D03*
X0198917Y0331173D03*
X0198917Y0331512D03*
X0198917Y0331850D03*
X0198917Y0332189D03*
X0198917Y0332528D03*
X0198917Y0332866D03*
X0198917Y0333205D03*
X0198917Y0333543D03*
X0198917Y0333882D03*
X0198917Y0334220D03*
X0198917Y0334559D03*
X0198917Y0334898D03*
X0198917Y0335236D03*
X0198917Y0335575D03*
X0198917Y0335913D03*
X0198917Y0336252D03*
X0198917Y0336591D03*
X0198917Y0336929D03*
X0198917Y0337268D03*
X0198917Y0337606D03*
X0198917Y0337945D03*
X0198917Y0338283D03*
X0198917Y0338622D03*
X0198917Y0338961D03*
X0198917Y0339299D03*
X0198917Y0339638D03*
X0198917Y0339976D03*
X0198917Y0340315D03*
X0198917Y0340654D03*
X0198917Y0340992D03*
X0198917Y0341331D03*
X0198917Y0341669D03*
X0198917Y0342008D03*
X0198917Y0342346D03*
X0198917Y0342685D03*
X0198917Y0343024D03*
X0198917Y0343362D03*
X0198917Y0343701D03*
X0198917Y0344039D03*
X0198917Y0328803D03*
X0198917Y0328465D03*
X0198917Y0328126D03*
X0198917Y0327787D03*
X0198917Y0327449D03*
X0198917Y0327110D03*
X0198917Y0326772D03*
X0198917Y0326433D03*
X0198917Y0326094D03*
X0198917Y0325756D03*
X0198917Y0325417D03*
X0199846Y0307315D03*
X0189350Y0307315D03*
X0186980Y0307315D03*
X0186980Y0303591D03*
X0234445Y0220031D03*
X0234783Y0212244D03*
X0237492Y0210890D03*
X0236138Y0209197D03*
X0229705Y0209874D03*
X0213114Y0048087D03*
X0213453Y0040299D03*
X0214130Y0038606D03*
X0216161Y0038945D03*
X0210744Y0040299D03*
X0210406Y0038268D03*
X0209728Y0036236D03*
D11*
X0208543Y0037591D03*
X0208882Y0038268D03*
X0207866Y0035898D03*
X0213283Y0033189D03*
X0212945Y0032512D03*
X0214299Y0035559D03*
X0214638Y0038268D03*
X0216331Y0040299D03*
X0213283Y0040638D03*
X0211252Y0043346D03*
X0211591Y0044024D03*
X0211929Y0044701D03*
X0213283Y0047748D03*
X0218024Y0044024D03*
X0234276Y0204457D03*
X0234614Y0205134D03*
X0235969Y0208181D03*
X0236307Y0208858D03*
X0237661Y0212244D03*
X0234614Y0212583D03*
X0232583Y0215291D03*
X0232921Y0215969D03*
X0233260Y0216646D03*
X0234614Y0219693D03*
X0239354Y0215969D03*
X0231228Y0209874D03*
X0180465Y0325417D03*
X0180465Y0325756D03*
X0180465Y0326094D03*
X0180465Y0326433D03*
X0180465Y0326772D03*
X0180465Y0327787D03*
X0180465Y0328126D03*
X0180465Y0328465D03*
X0180465Y0328803D03*
X0180465Y0329142D03*
X0177417Y0329142D03*
X0177417Y0328803D03*
X0177417Y0328465D03*
X0177417Y0328126D03*
X0177417Y0327787D03*
X0177417Y0326772D03*
X0177417Y0326433D03*
X0177417Y0326094D03*
X0177417Y0325756D03*
X0177417Y0325417D03*
X0174031Y0325417D03*
X0174031Y0325756D03*
X0174031Y0326094D03*
X0174031Y0326433D03*
X0174031Y0327110D03*
X0174031Y0327449D03*
X0174031Y0327787D03*
X0174031Y0328126D03*
X0173354Y0328465D03*
X0173354Y0328803D03*
X0171661Y0328803D03*
X0171661Y0328465D03*
X0170984Y0328126D03*
X0170984Y0327787D03*
X0170984Y0327449D03*
X0170984Y0327110D03*
X0170984Y0326433D03*
X0170984Y0326094D03*
X0170984Y0325756D03*
X0170984Y0325417D03*
X0158795Y0326433D03*
X0155071Y0326433D03*
X0155071Y0326094D03*
X0155071Y0325756D03*
X0155071Y0325417D03*
X0155071Y0326772D03*
X0155071Y0327787D03*
X0155071Y0328126D03*
X0155071Y0328465D03*
X0155071Y0328803D03*
X0155071Y0329142D03*
X0152024Y0329142D03*
X0152024Y0328803D03*
X0152024Y0328465D03*
X0152024Y0328126D03*
X0152024Y0327787D03*
X0152024Y0326772D03*
X0152024Y0326433D03*
X0152024Y0326094D03*
X0152024Y0325756D03*
X0152024Y0325417D03*
X0148638Y0326094D03*
X0148638Y0326433D03*
X0148638Y0326772D03*
X0148638Y0327787D03*
X0148638Y0328126D03*
X0148638Y0328465D03*
X0148638Y0328803D03*
X0136110Y0328803D03*
X0136110Y0328465D03*
X0136110Y0328126D03*
X0136110Y0327787D03*
X0136110Y0327449D03*
X0136110Y0327110D03*
X0136110Y0326772D03*
X0136110Y0326433D03*
X0136110Y0326094D03*
X0133402Y0326433D03*
X0133063Y0326772D03*
X0133063Y0327110D03*
X0133063Y0327449D03*
X0133063Y0327787D03*
X0133063Y0328126D03*
X0123244Y0327787D03*
X0123244Y0328803D03*
X0114441Y0326433D03*
X0108685Y0337606D03*
X0102591Y0328803D03*
X0102591Y0328465D03*
X0102591Y0328126D03*
X0102591Y0327787D03*
X0102591Y0327449D03*
X0102591Y0327110D03*
X0102591Y0326772D03*
X0102591Y0326433D03*
X0102591Y0326094D03*
X0102591Y0325756D03*
X0102591Y0325417D03*
X0096157Y0326094D03*
X0096157Y0326433D03*
X0096157Y0326772D03*
X0096157Y0327110D03*
X0096157Y0327449D03*
X0096157Y0327787D03*
X0096157Y0328126D03*
X0096157Y0328465D03*
X0096157Y0328803D03*
X0091756Y0328465D03*
X0091756Y0328126D03*
X0091756Y0327787D03*
X0091756Y0327449D03*
X0091756Y0327110D03*
X0091756Y0326772D03*
X0091756Y0326433D03*
X0091756Y0326094D03*
X0088709Y0326094D03*
X0088709Y0326433D03*
X0088709Y0326772D03*
X0088709Y0327110D03*
X0088709Y0327449D03*
X0088709Y0327787D03*
X0088709Y0328126D03*
X0088709Y0328465D03*
X0088709Y0328803D03*
X0085323Y0329142D03*
X0085323Y0326772D03*
X0085323Y0326433D03*
X0085323Y0326094D03*
X0085323Y0325756D03*
X0085323Y0325417D03*
X0082276Y0325417D03*
X0082276Y0325756D03*
X0082276Y0327787D03*
X0082276Y0328126D03*
X0082276Y0328465D03*
X0082276Y0328803D03*
X0082276Y0329142D03*
X0100220Y0340315D03*
X0189945Y0334220D03*
X0189945Y0332528D03*
X0190622Y0330835D03*
X0191976Y0331512D03*
X0191976Y0332866D03*
X0196378Y0331850D03*
X0047378Y0218339D03*
X0042638Y0214614D03*
X0042976Y0213937D03*
X0041622Y0216646D03*
X0044669Y0210213D03*
X0045008Y0209535D03*
X0045346Y0208858D03*
X0046362Y0206488D03*
X0047378Y0204457D03*
X0068709Y0045378D03*
X0069047Y0044701D03*
X0069386Y0044024D03*
X0069724Y0043346D03*
X0069724Y0043008D03*
X0069386Y0041654D03*
X0064984Y0039283D03*
X0065661Y0037591D03*
X0066000Y0036913D03*
X0066339Y0036236D03*
X0067354Y0033866D03*
X0068370Y0031835D03*
X0063291Y0042669D03*
X0062953Y0043346D03*
X0062614Y0044024D03*
D12*
X0062445Y0044362D03*
X0062445Y0044701D03*
X0062106Y0045039D03*
X0062783Y0043685D03*
X0063122Y0043008D03*
X0063461Y0042331D03*
X0066846Y0047409D03*
X0068539Y0045717D03*
X0068878Y0045039D03*
X0069217Y0044362D03*
X0069555Y0043685D03*
X0069217Y0041992D03*
X0069555Y0041315D03*
X0065831Y0037252D03*
X0066169Y0036575D03*
X0066508Y0035898D03*
X0066508Y0035559D03*
X0066846Y0035220D03*
X0066846Y0034882D03*
X0067185Y0034543D03*
X0067185Y0034205D03*
X0046193Y0206827D03*
X0046193Y0207165D03*
X0045854Y0207504D03*
X0045854Y0207843D03*
X0045516Y0208181D03*
X0045516Y0208520D03*
X0045177Y0209197D03*
X0044839Y0209874D03*
X0043484Y0212583D03*
X0043484Y0212921D03*
X0043146Y0213260D03*
X0043146Y0213598D03*
X0042807Y0214276D03*
X0041453Y0216984D03*
X0041453Y0217323D03*
X0041114Y0217661D03*
X0047547Y0215969D03*
X0047547Y0215630D03*
X0108854Y0326094D03*
X0108854Y0326433D03*
X0108854Y0326772D03*
X0108854Y0327110D03*
X0108854Y0327449D03*
X0108854Y0327787D03*
X0108854Y0328126D03*
X0108854Y0328465D03*
X0108854Y0328803D03*
X0113933Y0328126D03*
X0113933Y0327787D03*
X0113933Y0327449D03*
X0113933Y0327110D03*
X0113933Y0326772D03*
X0114610Y0326094D03*
X0116980Y0326094D03*
X0116980Y0326433D03*
X0116980Y0326772D03*
X0116980Y0327110D03*
X0116980Y0327449D03*
X0116980Y0327787D03*
X0116980Y0328126D03*
X0116980Y0328465D03*
X0116980Y0328803D03*
X0114610Y0328803D03*
X0114610Y0328465D03*
X0123413Y0328465D03*
X0123413Y0328126D03*
X0123413Y0326772D03*
X0123413Y0326433D03*
X0123413Y0326094D03*
X0133571Y0326094D03*
X0133571Y0328465D03*
X0133571Y0328803D03*
X0139327Y0334898D03*
X0139327Y0335236D03*
X0139327Y0335575D03*
X0139327Y0335913D03*
X0139327Y0336252D03*
X0139327Y0336591D03*
X0139327Y0336929D03*
X0139327Y0339299D03*
X0139327Y0339638D03*
X0139327Y0339976D03*
X0139327Y0340315D03*
X0139327Y0340654D03*
X0139327Y0340992D03*
X0139327Y0341331D03*
X0131878Y0340654D03*
X0142374Y0329480D03*
X0142374Y0329142D03*
X0142374Y0328803D03*
X0142374Y0328465D03*
X0142374Y0328126D03*
X0142374Y0327787D03*
X0142374Y0327449D03*
X0142374Y0327110D03*
X0142374Y0326772D03*
X0142374Y0326433D03*
X0142374Y0326094D03*
X0151854Y0329480D03*
X0154902Y0329480D03*
X0158287Y0328126D03*
X0158287Y0327787D03*
X0158287Y0327449D03*
X0158287Y0327110D03*
X0158287Y0326772D03*
X0158965Y0326094D03*
X0161335Y0326094D03*
X0161335Y0326433D03*
X0161335Y0326772D03*
X0161335Y0327110D03*
X0161335Y0327449D03*
X0161335Y0327787D03*
X0161335Y0328126D03*
X0161335Y0328465D03*
X0161335Y0328803D03*
X0158965Y0328803D03*
X0158965Y0328465D03*
X0160319Y0333205D03*
X0160319Y0333543D03*
X0160319Y0333882D03*
X0160319Y0334220D03*
X0160319Y0334559D03*
X0160319Y0334898D03*
X0160319Y0335236D03*
X0160319Y0335575D03*
X0160319Y0335913D03*
X0160319Y0336252D03*
X0160319Y0336591D03*
X0160319Y0336929D03*
X0160319Y0337268D03*
X0160319Y0337606D03*
X0160319Y0337945D03*
X0160319Y0338283D03*
X0160319Y0338622D03*
X0160319Y0338961D03*
X0160319Y0339299D03*
X0160319Y0339638D03*
X0160319Y0339976D03*
X0160319Y0340315D03*
X0160319Y0340654D03*
X0160319Y0340992D03*
X0160319Y0341331D03*
X0160996Y0343024D03*
X0162689Y0333205D03*
X0164720Y0329480D03*
X0164720Y0329142D03*
X0164720Y0328803D03*
X0164720Y0328465D03*
X0164720Y0328126D03*
X0164720Y0327787D03*
X0164720Y0325756D03*
X0164720Y0325417D03*
X0167768Y0325417D03*
X0167768Y0325756D03*
X0167768Y0326094D03*
X0167768Y0326433D03*
X0167768Y0326772D03*
X0167768Y0329142D03*
X0167768Y0329480D03*
X0177248Y0329480D03*
X0180295Y0329480D03*
X0188760Y0330496D03*
X0188760Y0332189D03*
X0188421Y0325417D03*
X0192484Y0328465D03*
X0194516Y0328465D03*
X0196547Y0330157D03*
X0196547Y0330496D03*
X0196547Y0332189D03*
X0196547Y0332528D03*
X0233768Y0217661D03*
X0233429Y0217323D03*
X0233429Y0216984D03*
X0233091Y0216307D03*
X0232752Y0215630D03*
X0237154Y0215630D03*
X0237154Y0215291D03*
X0237492Y0215969D03*
X0237831Y0211906D03*
X0237492Y0211567D03*
X0237492Y0211228D03*
X0236138Y0208520D03*
X0235799Y0207843D03*
X0234783Y0205472D03*
X0234445Y0204795D03*
X0234106Y0204118D03*
X0234106Y0203780D03*
X0212437Y0045717D03*
X0212098Y0045378D03*
X0212098Y0045039D03*
X0211760Y0044362D03*
X0211421Y0043685D03*
X0210744Y0039961D03*
X0208713Y0037929D03*
X0208374Y0037252D03*
X0208374Y0036913D03*
X0208035Y0036575D03*
X0208035Y0036236D03*
X0209051Y0033528D03*
X0212776Y0032173D03*
X0212776Y0031835D03*
X0213114Y0032850D03*
X0213453Y0033528D03*
X0213453Y0033866D03*
X0213791Y0034205D03*
X0213791Y0034543D03*
X0214130Y0034882D03*
X0214130Y0035220D03*
X0216161Y0039283D03*
X0216161Y0039622D03*
X0216500Y0039961D03*
X0215823Y0043346D03*
X0215823Y0043685D03*
X0216161Y0044024D03*
X0091587Y0328803D03*
X0085492Y0334220D03*
X0100390Y0336252D03*
D13*
X0087693Y0338622D03*
X0087693Y0338961D03*
X0087693Y0339299D03*
X0084984Y0328465D03*
X0082614Y0326433D03*
X0082614Y0326094D03*
X0115457Y0339976D03*
X0189945Y0333882D03*
X0189945Y0333543D03*
X0189945Y0333205D03*
X0189945Y0332866D03*
X0191976Y0332528D03*
X0191976Y0332189D03*
X0191976Y0331850D03*
X0190622Y0330157D03*
X0237323Y0214953D03*
X0237661Y0212921D03*
X0234276Y0212921D03*
X0215992Y0043008D03*
X0216331Y0040976D03*
X0212945Y0040976D03*
X0209898Y0039283D03*
X0209559Y0038606D03*
X0069386Y0042669D03*
X0065661Y0043685D03*
X0066000Y0045378D03*
X0064984Y0040299D03*
X0065323Y0039622D03*
X0068709Y0032173D03*
X0047717Y0204795D03*
X0042976Y0214953D03*
D14*
X0047886Y0205134D03*
X0090232Y0325417D03*
X0090232Y0325756D03*
X0090232Y0329142D03*
X0085154Y0334559D03*
X0087185Y0340315D03*
X0083122Y0340654D03*
X0091587Y0340654D03*
X0092264Y0338961D03*
X0093280Y0336929D03*
X0092941Y0336591D03*
X0096665Y0340654D03*
X0096665Y0340992D03*
X0100728Y0340654D03*
X0105130Y0339976D03*
X0105130Y0339638D03*
X0105130Y0339299D03*
X0105130Y0336252D03*
X0101067Y0334220D03*
X0110547Y0339976D03*
X0110886Y0339638D03*
X0111224Y0339299D03*
X0111563Y0338961D03*
X0111902Y0338622D03*
X0115965Y0329142D03*
X0115965Y0325756D03*
X0115965Y0325417D03*
X0135264Y0325417D03*
X0135264Y0329142D03*
X0160319Y0329142D03*
X0160319Y0325756D03*
X0160319Y0325417D03*
X0196547Y0331173D03*
X0196547Y0331512D03*
X0235461Y0219016D03*
X0230720Y0208858D03*
X0234106Y0206488D03*
X0214130Y0047071D03*
X0068878Y0032512D03*
X0065154Y0040976D03*
D15*
X0064815Y0041992D03*
X0069217Y0032850D03*
X0048224Y0205472D03*
X0108854Y0325417D03*
X0108854Y0325756D03*
X0108854Y0329142D03*
X0108854Y0329480D03*
X0102421Y0329142D03*
X0092264Y0335913D03*
X0091925Y0335575D03*
X0087185Y0340654D03*
X0085154Y0342685D03*
X0114610Y0340315D03*
X0122059Y0327449D03*
X0135602Y0338961D03*
X0147453Y0327449D03*
D16*
X0135602Y0333205D03*
X0135602Y0333543D03*
X0128154Y0333543D03*
X0128154Y0333205D03*
X0135602Y0342346D03*
X0135602Y0342685D03*
X0135602Y0343024D03*
X0174201Y0343024D03*
X0174201Y0342685D03*
X0233429Y0207165D03*
X0069555Y0033189D03*
X0048563Y0205811D03*
X0043823Y0215969D03*
X0045516Y0216646D03*
D17*
X0048902Y0206150D03*
X0085154Y0335236D03*
X0085154Y0342008D03*
X0094972Y0337606D03*
X0094972Y0337268D03*
X0126799Y0336929D03*
X0126799Y0336591D03*
X0175217Y0338961D03*
X0175217Y0339299D03*
X0175217Y0339638D03*
X0236138Y0218000D03*
X0235461Y0214276D03*
X0235461Y0213937D03*
X0214807Y0046055D03*
X0214130Y0042331D03*
X0214130Y0041992D03*
X0069894Y0033528D03*
D18*
X0071079Y0033866D03*
X0071756Y0034205D03*
X0050087Y0206488D03*
X0050764Y0206827D03*
X0046024Y0216984D03*
X0084984Y0334898D03*
X0084984Y0342346D03*
X0127984Y0333882D03*
X0135433Y0333882D03*
X0174031Y0342346D03*
X0235969Y0218339D03*
X0237323Y0217661D03*
X0238000Y0217323D03*
X0231906Y0207843D03*
X0231228Y0208181D03*
X0214638Y0046394D03*
X0215992Y0045717D03*
X0216669Y0045378D03*
X0213283Y0036913D03*
D19*
X0208035Y0035559D03*
X0208713Y0033866D03*
X0211421Y0043008D03*
X0234783Y0205811D03*
X0232752Y0214953D03*
X0165059Y0326094D03*
X0165059Y0326433D03*
X0167429Y0328465D03*
X0167429Y0328803D03*
X0172508Y0329142D03*
X0172508Y0329480D03*
X0180634Y0334220D03*
X0180634Y0334559D03*
X0180634Y0334898D03*
X0180634Y0335236D03*
X0180634Y0335575D03*
X0180634Y0335913D03*
X0180634Y0336252D03*
X0180634Y0336591D03*
X0180634Y0336929D03*
X0180634Y0337268D03*
X0180634Y0337606D03*
X0180634Y0337945D03*
X0180634Y0338283D03*
X0180634Y0338622D03*
X0180634Y0338961D03*
X0180634Y0339299D03*
X0180634Y0339638D03*
X0180634Y0339976D03*
X0180634Y0340315D03*
X0180634Y0340654D03*
X0180634Y0340992D03*
X0180634Y0341331D03*
X0180634Y0341669D03*
X0180634Y0342008D03*
X0189098Y0341669D03*
X0189098Y0341331D03*
X0189098Y0340992D03*
X0189098Y0340654D03*
X0189098Y0340315D03*
X0189098Y0339976D03*
X0189098Y0339638D03*
X0189098Y0339299D03*
X0189098Y0338961D03*
X0189098Y0338622D03*
X0189098Y0338283D03*
X0189098Y0337945D03*
X0189098Y0337606D03*
X0189098Y0337268D03*
X0189098Y0336929D03*
X0189098Y0336591D03*
X0188760Y0331850D03*
X0188760Y0331512D03*
X0188760Y0331173D03*
X0188760Y0330835D03*
X0190791Y0330496D03*
X0190791Y0329819D03*
X0190791Y0329480D03*
X0197224Y0336591D03*
X0197224Y0336929D03*
X0197224Y0337268D03*
X0197224Y0337606D03*
X0197224Y0337945D03*
X0197224Y0338283D03*
X0197224Y0338622D03*
X0197224Y0338961D03*
X0197224Y0339299D03*
X0197224Y0339638D03*
X0197224Y0339976D03*
X0197224Y0340315D03*
X0197224Y0340654D03*
X0197224Y0340992D03*
X0197224Y0341331D03*
X0197224Y0341669D03*
X0149823Y0341669D03*
X0149823Y0342008D03*
X0149823Y0342346D03*
X0149823Y0342685D03*
X0149823Y0343024D03*
X0149823Y0338622D03*
X0149823Y0338283D03*
X0149823Y0337945D03*
X0149823Y0337606D03*
X0149823Y0337268D03*
X0149823Y0334559D03*
X0149823Y0334220D03*
X0149823Y0333882D03*
X0149823Y0333543D03*
X0149823Y0333205D03*
X0142374Y0333205D03*
X0142374Y0333543D03*
X0142374Y0333882D03*
X0142374Y0334220D03*
X0142374Y0334559D03*
X0142374Y0334898D03*
X0142374Y0335236D03*
X0142374Y0335575D03*
X0142374Y0335913D03*
X0142374Y0336252D03*
X0142374Y0336591D03*
X0142374Y0336929D03*
X0142374Y0337268D03*
X0142374Y0337606D03*
X0142374Y0337945D03*
X0142374Y0338283D03*
X0142374Y0338622D03*
X0142374Y0338961D03*
X0142374Y0339299D03*
X0142374Y0339638D03*
X0142374Y0339976D03*
X0142374Y0340315D03*
X0142374Y0340654D03*
X0142374Y0340992D03*
X0142374Y0341331D03*
X0142374Y0341669D03*
X0142374Y0342008D03*
X0142374Y0342346D03*
X0142374Y0342685D03*
X0142374Y0343024D03*
X0121382Y0343024D03*
X0121382Y0342685D03*
X0121382Y0342346D03*
X0121382Y0342008D03*
X0121382Y0341669D03*
X0121382Y0341331D03*
X0121382Y0340992D03*
X0121382Y0340654D03*
X0121382Y0340315D03*
X0121382Y0339976D03*
X0121382Y0339638D03*
X0121382Y0339299D03*
X0121382Y0338961D03*
X0121382Y0338622D03*
X0121382Y0338283D03*
X0121382Y0337945D03*
X0121382Y0337606D03*
X0121382Y0337268D03*
X0121382Y0336929D03*
X0121382Y0336591D03*
X0121382Y0336252D03*
X0121382Y0335913D03*
X0121382Y0335575D03*
X0121382Y0335236D03*
X0121382Y0334898D03*
X0121382Y0334559D03*
X0121382Y0334220D03*
X0092264Y0334559D03*
X0085154Y0328803D03*
X0085492Y0343024D03*
X0051949Y0208181D03*
X0066508Y0047071D03*
X0069217Y0042331D03*
X0072941Y0035559D03*
D20*
X0073449Y0035898D03*
X0065661Y0037929D03*
X0064646Y0038945D03*
X0062276Y0045378D03*
X0052457Y0208520D03*
X0047717Y0218677D03*
X0041283Y0218000D03*
X0044669Y0210551D03*
X0082276Y0329480D03*
X0085323Y0329480D03*
X0092433Y0334220D03*
X0124260Y0334898D03*
X0124260Y0335236D03*
X0124260Y0335575D03*
X0124260Y0335913D03*
X0124260Y0336252D03*
X0124260Y0338961D03*
X0124260Y0339299D03*
X0124260Y0339638D03*
X0124260Y0339976D03*
X0124260Y0340315D03*
X0124260Y0340654D03*
X0124260Y0340992D03*
X0124260Y0341331D03*
X0124260Y0341669D03*
X0124260Y0342008D03*
X0124260Y0342346D03*
X0124260Y0342685D03*
X0124260Y0343024D03*
X0131709Y0341331D03*
X0131709Y0340992D03*
X0131709Y0340315D03*
X0131709Y0339976D03*
X0131709Y0339638D03*
X0131709Y0339299D03*
X0131709Y0338961D03*
X0131709Y0338622D03*
X0131709Y0338283D03*
X0131709Y0337945D03*
X0131709Y0337606D03*
X0131709Y0337268D03*
X0131709Y0336929D03*
X0131709Y0336591D03*
X0131709Y0336252D03*
X0131709Y0335913D03*
X0131709Y0335575D03*
X0131709Y0335236D03*
X0131709Y0334898D03*
X0161165Y0342346D03*
X0161165Y0342685D03*
X0162858Y0341331D03*
X0162858Y0340992D03*
X0162858Y0340654D03*
X0162858Y0340315D03*
X0162858Y0339976D03*
X0162858Y0339638D03*
X0162858Y0339299D03*
X0162858Y0338961D03*
X0162858Y0338622D03*
X0162858Y0338283D03*
X0162858Y0337945D03*
X0162858Y0337606D03*
X0162858Y0337268D03*
X0162858Y0336929D03*
X0162858Y0336591D03*
X0162858Y0336252D03*
X0162858Y0335913D03*
X0162858Y0335575D03*
X0162858Y0335236D03*
X0162858Y0334898D03*
X0162858Y0334559D03*
X0162858Y0334220D03*
X0162858Y0333882D03*
X0162858Y0333543D03*
X0170307Y0333543D03*
X0170307Y0333205D03*
X0170307Y0333882D03*
X0170307Y0334220D03*
X0170307Y0334559D03*
X0170307Y0334898D03*
X0170307Y0335236D03*
X0170307Y0335575D03*
X0170307Y0335913D03*
X0170307Y0336252D03*
X0170307Y0336591D03*
X0170307Y0336929D03*
X0170307Y0338961D03*
X0170307Y0339299D03*
X0170307Y0339638D03*
X0170307Y0339976D03*
X0170307Y0340315D03*
X0170307Y0340654D03*
X0170307Y0340992D03*
X0170307Y0341331D03*
X0177756Y0341331D03*
X0177756Y0340992D03*
X0177756Y0340654D03*
X0177756Y0340315D03*
X0177756Y0339976D03*
X0177756Y0336929D03*
X0177756Y0336591D03*
X0177756Y0336252D03*
X0177756Y0335913D03*
X0177756Y0335575D03*
X0177756Y0335236D03*
X0177756Y0334898D03*
X0187236Y0334898D03*
X0187236Y0335236D03*
X0187236Y0335575D03*
X0187236Y0335913D03*
X0187236Y0336252D03*
X0187236Y0336591D03*
X0187236Y0336929D03*
X0187236Y0337268D03*
X0187236Y0337606D03*
X0187236Y0337945D03*
X0187236Y0338283D03*
X0187236Y0338622D03*
X0187236Y0338961D03*
X0187236Y0339299D03*
X0187236Y0339638D03*
X0187236Y0339976D03*
X0187236Y0340315D03*
X0187236Y0340654D03*
X0187236Y0340992D03*
X0187236Y0341331D03*
X0187236Y0341669D03*
X0187236Y0342008D03*
X0187236Y0342346D03*
X0187236Y0342685D03*
X0187236Y0343024D03*
X0187236Y0343362D03*
X0187236Y0343701D03*
X0187236Y0344039D03*
X0187236Y0334559D03*
X0187236Y0334220D03*
X0187236Y0333882D03*
X0187236Y0333543D03*
X0187236Y0333205D03*
X0187236Y0332866D03*
X0187236Y0332528D03*
X0187236Y0332189D03*
X0187236Y0331850D03*
X0187236Y0331512D03*
X0187236Y0331173D03*
X0187236Y0330835D03*
X0187236Y0330496D03*
X0187236Y0330157D03*
X0187236Y0329819D03*
X0187236Y0329480D03*
X0187236Y0329142D03*
X0187236Y0328803D03*
X0187236Y0328465D03*
X0187236Y0328126D03*
X0187236Y0327787D03*
X0187236Y0327449D03*
X0187236Y0327110D03*
X0187575Y0326433D03*
X0187913Y0325756D03*
X0192992Y0328126D03*
X0195024Y0328126D03*
X0196378Y0329819D03*
X0239693Y0215630D03*
X0235630Y0214953D03*
X0231228Y0210213D03*
X0218362Y0043685D03*
X0214299Y0043008D03*
X0211591Y0037591D03*
X0210575Y0033866D03*
D21*
X0209220Y0034205D03*
X0210913Y0035559D03*
X0214299Y0037591D03*
X0214299Y0037929D03*
X0212606Y0041315D03*
X0212606Y0041654D03*
X0215315Y0042669D03*
X0217346Y0044362D03*
X0217346Y0044701D03*
X0233937Y0213260D03*
X0233937Y0213598D03*
X0236646Y0214614D03*
X0238677Y0216307D03*
X0238677Y0216646D03*
X0174031Y0333205D03*
X0174031Y0333543D03*
X0174031Y0333882D03*
X0174031Y0334220D03*
X0174031Y0334559D03*
X0174031Y0334898D03*
X0174031Y0335236D03*
X0174031Y0335575D03*
X0174031Y0335913D03*
X0174031Y0336252D03*
X0174031Y0336591D03*
X0174031Y0336929D03*
X0174031Y0337268D03*
X0174031Y0337606D03*
X0174031Y0337945D03*
X0174031Y0338283D03*
X0174031Y0338622D03*
X0174031Y0339976D03*
X0174031Y0340315D03*
X0174031Y0340654D03*
X0174031Y0340992D03*
X0174031Y0341331D03*
X0174031Y0341669D03*
X0174031Y0342008D03*
X0166583Y0342008D03*
X0166583Y0341669D03*
X0166583Y0341331D03*
X0166583Y0340992D03*
X0166583Y0340654D03*
X0166583Y0340315D03*
X0166583Y0339976D03*
X0166583Y0339638D03*
X0166583Y0339299D03*
X0166583Y0338961D03*
X0166583Y0338622D03*
X0166583Y0338283D03*
X0166583Y0337945D03*
X0166583Y0337606D03*
X0166583Y0337268D03*
X0166583Y0336929D03*
X0166583Y0336591D03*
X0166583Y0336252D03*
X0166583Y0335913D03*
X0166583Y0335575D03*
X0166583Y0335236D03*
X0166583Y0334898D03*
X0166583Y0334559D03*
X0166583Y0334220D03*
X0166583Y0333882D03*
X0166583Y0333543D03*
X0166583Y0333205D03*
X0156425Y0333205D03*
X0156425Y0333543D03*
X0156425Y0333882D03*
X0156425Y0334220D03*
X0156425Y0334559D03*
X0156425Y0334898D03*
X0156425Y0335236D03*
X0156425Y0335575D03*
X0156425Y0335913D03*
X0156425Y0336252D03*
X0156425Y0336591D03*
X0156425Y0336929D03*
X0156425Y0337268D03*
X0156425Y0337606D03*
X0156425Y0337945D03*
X0156425Y0338283D03*
X0156425Y0338622D03*
X0156425Y0338961D03*
X0156425Y0339299D03*
X0156425Y0339638D03*
X0156425Y0339976D03*
X0156425Y0340315D03*
X0156425Y0340654D03*
X0156425Y0340992D03*
X0156425Y0341331D03*
X0156425Y0341669D03*
X0156425Y0342008D03*
X0147622Y0327110D03*
X0135094Y0325756D03*
X0135433Y0334220D03*
X0135433Y0334559D03*
X0135433Y0334898D03*
X0135433Y0335236D03*
X0135433Y0335575D03*
X0135433Y0335913D03*
X0135433Y0336252D03*
X0135433Y0336591D03*
X0135433Y0336929D03*
X0135433Y0337268D03*
X0135433Y0337606D03*
X0135433Y0337945D03*
X0135433Y0339299D03*
X0135433Y0339638D03*
X0135433Y0339976D03*
X0135433Y0340315D03*
X0135433Y0340654D03*
X0135433Y0340992D03*
X0135433Y0341331D03*
X0135433Y0341669D03*
X0135433Y0342008D03*
X0127984Y0342008D03*
X0127984Y0341669D03*
X0127984Y0341331D03*
X0127984Y0340992D03*
X0127984Y0340654D03*
X0127984Y0340315D03*
X0127984Y0339976D03*
X0127984Y0339638D03*
X0127984Y0339299D03*
X0127984Y0338961D03*
X0127984Y0338622D03*
X0127984Y0338283D03*
X0127984Y0336252D03*
X0127984Y0335913D03*
X0127984Y0335575D03*
X0127984Y0335236D03*
X0127984Y0334898D03*
X0127984Y0334559D03*
X0127984Y0334220D03*
X0122228Y0327110D03*
X0110378Y0340315D03*
X0109701Y0336929D03*
X0105299Y0336929D03*
X0105299Y0336591D03*
X0105299Y0337268D03*
X0104961Y0340315D03*
X0104961Y0340654D03*
X0102591Y0329480D03*
X0096157Y0329480D03*
X0096157Y0329142D03*
X0096157Y0325756D03*
X0096157Y0325417D03*
X0091756Y0335236D03*
X0092433Y0336252D03*
X0046701Y0217661D03*
X0043315Y0215291D03*
X0051441Y0207504D03*
X0067016Y0046732D03*
X0067016Y0046394D03*
X0067354Y0046055D03*
X0064984Y0041654D03*
X0064984Y0041315D03*
X0072433Y0034882D03*
D22*
X0072264Y0034543D03*
X0051272Y0207165D03*
X0046531Y0217323D03*
X0083799Y0327110D03*
X0083799Y0327449D03*
X0094634Y0342685D03*
X0110209Y0336591D03*
X0127476Y0337268D03*
X0128492Y0342685D03*
X0128492Y0343024D03*
X0135941Y0338622D03*
X0135941Y0338283D03*
X0147114Y0329142D03*
X0147114Y0325417D03*
X0153547Y0327110D03*
X0153547Y0327449D03*
X0156933Y0342685D03*
X0156933Y0343024D03*
X0172508Y0326772D03*
X0178941Y0327110D03*
X0178941Y0327449D03*
X0238508Y0216984D03*
X0217177Y0045039D03*
X0213453Y0037252D03*
X0213114Y0036575D03*
X0213114Y0036236D03*
X0210067Y0034882D03*
X0210067Y0034543D03*
D23*
X0237661Y0213598D03*
X0196378Y0330835D03*
X0160488Y0329480D03*
X0135094Y0329480D03*
X0116134Y0329480D03*
X0114102Y0336591D03*
X0113764Y0336929D03*
X0113425Y0337268D03*
X0113087Y0337606D03*
X0112748Y0337945D03*
X0112409Y0338283D03*
X0104622Y0343024D03*
X0101913Y0339299D03*
X0096496Y0339299D03*
X0096496Y0338961D03*
X0096496Y0339638D03*
X0096496Y0339976D03*
X0096496Y0340315D03*
X0091756Y0340315D03*
X0091756Y0339976D03*
X0091756Y0339638D03*
X0091756Y0339299D03*
X0087354Y0339976D03*
X0087354Y0336591D03*
X0083291Y0336591D03*
X0082953Y0337606D03*
X0082614Y0338622D03*
X0082614Y0339976D03*
X0090063Y0329480D03*
X0084646Y0327787D03*
X0047039Y0218000D03*
X0051780Y0207843D03*
X0064984Y0040638D03*
X0072772Y0035220D03*
D24*
X0209898Y0035220D03*
X0212268Y0035898D03*
X0103268Y0342685D03*
D25*
X0109193Y0337268D03*
X0114610Y0334220D03*
X0121720Y0333882D03*
X0121720Y0333543D03*
X0121720Y0333205D03*
X0096327Y0334559D03*
X0096327Y0334898D03*
X0096327Y0335236D03*
X0096327Y0335575D03*
X0096327Y0335913D03*
X0096327Y0336252D03*
X0096327Y0336591D03*
X0096327Y0336929D03*
X0093957Y0343024D03*
X0091925Y0334898D03*
X0087524Y0336929D03*
X0087524Y0337268D03*
X0087524Y0337606D03*
X0087524Y0337945D03*
X0087524Y0338283D03*
X0087524Y0339638D03*
X0082783Y0340315D03*
X0082445Y0339638D03*
X0082445Y0339299D03*
X0082445Y0338961D03*
X0082783Y0338283D03*
X0082783Y0337945D03*
X0083122Y0337268D03*
X0083122Y0336929D03*
X0084815Y0328126D03*
X0082783Y0326772D03*
X0165398Y0326772D03*
X0167091Y0327787D03*
X0167091Y0328126D03*
X0180295Y0333205D03*
X0180295Y0333543D03*
X0180295Y0333882D03*
X0180295Y0342346D03*
X0180295Y0342685D03*
X0180295Y0343024D03*
X0235122Y0219354D03*
X0233091Y0214614D03*
X0230382Y0209535D03*
X0230382Y0209197D03*
X0234445Y0206150D03*
X0237492Y0212583D03*
X0237831Y0213260D03*
X0213791Y0047409D03*
X0211760Y0042669D03*
X0210067Y0039622D03*
X0209728Y0038945D03*
X0216161Y0040638D03*
X0216500Y0041315D03*
X0216500Y0041654D03*
X0066508Y0045717D03*
X0066169Y0045039D03*
X0066169Y0044701D03*
X0065831Y0044362D03*
X0065492Y0044024D03*
X0065831Y0043346D03*
X0065831Y0043008D03*
X0066169Y0042669D03*
X0066169Y0042331D03*
X0065154Y0039961D03*
D26*
X0043654Y0215630D03*
X0121890Y0325417D03*
X0121890Y0325756D03*
X0121890Y0329142D03*
X0121890Y0329480D03*
X0127646Y0337606D03*
X0127646Y0337945D03*
X0128323Y0342346D03*
X0140850Y0325756D03*
X0140850Y0325417D03*
X0147283Y0325756D03*
X0147283Y0329480D03*
X0151008Y0334898D03*
X0151008Y0335236D03*
X0151008Y0335575D03*
X0151008Y0335913D03*
X0151008Y0336252D03*
X0151008Y0336591D03*
X0151008Y0336929D03*
X0151008Y0338961D03*
X0151008Y0339299D03*
X0151008Y0339638D03*
X0151008Y0339976D03*
X0151008Y0340315D03*
X0151008Y0340654D03*
X0151008Y0340992D03*
X0151008Y0341331D03*
X0156764Y0342346D03*
X0166921Y0342346D03*
X0166921Y0342685D03*
X0166921Y0343024D03*
X0166244Y0327449D03*
X0166244Y0327110D03*
X0092094Y0340992D03*
X0230890Y0208520D03*
X0233937Y0206827D03*
X0235630Y0218677D03*
X0214299Y0046732D03*
D27*
X0233260Y0207504D03*
X0112071Y0343024D03*
X0103945Y0337945D03*
X0085323Y0335575D03*
X0085323Y0341669D03*
D28*
X0085323Y0341331D03*
X0085323Y0336252D03*
X0094803Y0342008D03*
X0103268Y0335913D03*
X0103268Y0335575D03*
X0102929Y0334898D03*
X0102929Y0334559D03*
X0044669Y0216307D03*
D29*
X0005437Y0002252D02*
X0277091Y0002252D01*
X0277215Y0002254D01*
X0277338Y0002260D01*
X0277462Y0002269D01*
X0277584Y0002283D01*
X0277707Y0002300D01*
X0277829Y0002322D01*
X0277950Y0002347D01*
X0278070Y0002376D01*
X0278189Y0002408D01*
X0278308Y0002445D01*
X0278425Y0002485D01*
X0278540Y0002528D01*
X0278655Y0002576D01*
X0278767Y0002627D01*
X0278878Y0002681D01*
X0278988Y0002739D01*
X0279095Y0002800D01*
X0279201Y0002865D01*
X0279304Y0002933D01*
X0279405Y0003004D01*
X0279504Y0003078D01*
X0279601Y0003155D01*
X0279695Y0003236D01*
X0279786Y0003319D01*
X0279875Y0003405D01*
X0279961Y0003494D01*
X0280044Y0003585D01*
X0280125Y0003679D01*
X0280202Y0003776D01*
X0280276Y0003875D01*
X0280347Y0003976D01*
X0280415Y0004079D01*
X0280480Y0004185D01*
X0280541Y0004292D01*
X0280599Y0004402D01*
X0280653Y0004513D01*
X0280704Y0004625D01*
X0280752Y0004740D01*
X0280795Y0004855D01*
X0280835Y0004972D01*
X0280872Y0005091D01*
X0280904Y0005210D01*
X0280933Y0005330D01*
X0280958Y0005451D01*
X0280980Y0005573D01*
X0280997Y0005696D01*
X0281011Y0005818D01*
X0281020Y0005942D01*
X0281026Y0006065D01*
X0281028Y0006189D01*
X0281028Y0368394D01*
X0281026Y0368518D01*
X0281020Y0368641D01*
X0281011Y0368765D01*
X0280997Y0368887D01*
X0280980Y0369010D01*
X0280958Y0369132D01*
X0280933Y0369253D01*
X0280904Y0369373D01*
X0280872Y0369492D01*
X0280835Y0369611D01*
X0280795Y0369728D01*
X0280752Y0369843D01*
X0280704Y0369958D01*
X0280653Y0370070D01*
X0280599Y0370181D01*
X0280541Y0370291D01*
X0280480Y0370398D01*
X0280415Y0370504D01*
X0280347Y0370607D01*
X0280276Y0370708D01*
X0280202Y0370807D01*
X0280125Y0370904D01*
X0280044Y0370998D01*
X0279961Y0371089D01*
X0279875Y0371178D01*
X0279786Y0371264D01*
X0279695Y0371347D01*
X0279601Y0371428D01*
X0279504Y0371505D01*
X0279405Y0371579D01*
X0279304Y0371650D01*
X0279201Y0371718D01*
X0279095Y0371783D01*
X0278988Y0371844D01*
X0278878Y0371902D01*
X0278767Y0371956D01*
X0278655Y0372007D01*
X0278540Y0372055D01*
X0278425Y0372098D01*
X0278308Y0372138D01*
X0278189Y0372175D01*
X0278070Y0372207D01*
X0277950Y0372236D01*
X0277829Y0372261D01*
X0277707Y0372283D01*
X0277584Y0372300D01*
X0277462Y0372314D01*
X0277338Y0372323D01*
X0277215Y0372329D01*
X0277091Y0372331D01*
X0005437Y0372331D01*
X0005313Y0372329D01*
X0005190Y0372323D01*
X0005066Y0372314D01*
X0004944Y0372300D01*
X0004821Y0372283D01*
X0004699Y0372261D01*
X0004578Y0372236D01*
X0004458Y0372207D01*
X0004339Y0372175D01*
X0004220Y0372138D01*
X0004103Y0372098D01*
X0003988Y0372055D01*
X0003873Y0372007D01*
X0003761Y0371956D01*
X0003650Y0371902D01*
X0003540Y0371844D01*
X0003433Y0371783D01*
X0003327Y0371718D01*
X0003224Y0371650D01*
X0003123Y0371579D01*
X0003024Y0371505D01*
X0002927Y0371428D01*
X0002833Y0371347D01*
X0002742Y0371264D01*
X0002653Y0371178D01*
X0002567Y0371089D01*
X0002484Y0370998D01*
X0002403Y0370904D01*
X0002326Y0370807D01*
X0002252Y0370708D01*
X0002181Y0370607D01*
X0002113Y0370504D01*
X0002048Y0370398D01*
X0001987Y0370291D01*
X0001929Y0370181D01*
X0001875Y0370070D01*
X0001824Y0369958D01*
X0001776Y0369843D01*
X0001733Y0369728D01*
X0001693Y0369611D01*
X0001656Y0369492D01*
X0001624Y0369373D01*
X0001595Y0369253D01*
X0001570Y0369132D01*
X0001548Y0369010D01*
X0001531Y0368887D01*
X0001517Y0368765D01*
X0001508Y0368641D01*
X0001502Y0368518D01*
X0001500Y0368394D01*
X0001500Y0006189D01*
X0001502Y0006065D01*
X0001508Y0005942D01*
X0001517Y0005818D01*
X0001531Y0005696D01*
X0001548Y0005573D01*
X0001570Y0005451D01*
X0001595Y0005330D01*
X0001624Y0005210D01*
X0001656Y0005091D01*
X0001693Y0004972D01*
X0001733Y0004855D01*
X0001776Y0004740D01*
X0001824Y0004625D01*
X0001875Y0004513D01*
X0001929Y0004402D01*
X0001987Y0004292D01*
X0002048Y0004185D01*
X0002113Y0004079D01*
X0002181Y0003976D01*
X0002252Y0003875D01*
X0002326Y0003776D01*
X0002403Y0003679D01*
X0002484Y0003585D01*
X0002567Y0003494D01*
X0002653Y0003405D01*
X0002742Y0003319D01*
X0002833Y0003236D01*
X0002927Y0003155D01*
X0003024Y0003078D01*
X0003123Y0003004D01*
X0003224Y0002933D01*
X0003327Y0002865D01*
X0003433Y0002800D01*
X0003540Y0002739D01*
X0003650Y0002681D01*
X0003761Y0002627D01*
X0003873Y0002576D01*
X0003988Y0002528D01*
X0004103Y0002485D01*
X0004220Y0002445D01*
X0004339Y0002408D01*
X0004458Y0002376D01*
X0004578Y0002347D01*
X0004699Y0002322D01*
X0004821Y0002300D01*
X0004944Y0002283D01*
X0005066Y0002269D01*
X0005190Y0002260D01*
X0005313Y0002254D01*
X0005437Y0002252D01*
X0011342Y0018000D02*
X0011344Y0018153D01*
X0011350Y0018307D01*
X0011360Y0018460D01*
X0011374Y0018612D01*
X0011392Y0018765D01*
X0011414Y0018916D01*
X0011439Y0019067D01*
X0011469Y0019218D01*
X0011503Y0019368D01*
X0011540Y0019516D01*
X0011581Y0019664D01*
X0011626Y0019810D01*
X0011675Y0019956D01*
X0011728Y0020100D01*
X0011784Y0020242D01*
X0011844Y0020383D01*
X0011908Y0020523D01*
X0011975Y0020661D01*
X0012046Y0020797D01*
X0012121Y0020931D01*
X0012198Y0021063D01*
X0012280Y0021193D01*
X0012364Y0021321D01*
X0012452Y0021447D01*
X0012543Y0021570D01*
X0012637Y0021691D01*
X0012735Y0021809D01*
X0012835Y0021925D01*
X0012939Y0022038D01*
X0013045Y0022149D01*
X0013154Y0022257D01*
X0013266Y0022362D01*
X0013380Y0022463D01*
X0013498Y0022562D01*
X0013617Y0022658D01*
X0013739Y0022751D01*
X0013864Y0022840D01*
X0013991Y0022927D01*
X0014120Y0023009D01*
X0014251Y0023089D01*
X0014384Y0023165D01*
X0014519Y0023238D01*
X0014656Y0023307D01*
X0014795Y0023372D01*
X0014935Y0023434D01*
X0015077Y0023492D01*
X0015220Y0023547D01*
X0015365Y0023598D01*
X0015511Y0023645D01*
X0015658Y0023688D01*
X0015806Y0023727D01*
X0015955Y0023763D01*
X0016105Y0023794D01*
X0016256Y0023822D01*
X0016407Y0023846D01*
X0016560Y0023866D01*
X0016712Y0023882D01*
X0016865Y0023894D01*
X0017018Y0023902D01*
X0017171Y0023906D01*
X0017325Y0023906D01*
X0017478Y0023902D01*
X0017631Y0023894D01*
X0017784Y0023882D01*
X0017936Y0023866D01*
X0018089Y0023846D01*
X0018240Y0023822D01*
X0018391Y0023794D01*
X0018541Y0023763D01*
X0018690Y0023727D01*
X0018838Y0023688D01*
X0018985Y0023645D01*
X0019131Y0023598D01*
X0019276Y0023547D01*
X0019419Y0023492D01*
X0019561Y0023434D01*
X0019701Y0023372D01*
X0019840Y0023307D01*
X0019977Y0023238D01*
X0020112Y0023165D01*
X0020245Y0023089D01*
X0020376Y0023009D01*
X0020505Y0022927D01*
X0020632Y0022840D01*
X0020757Y0022751D01*
X0020879Y0022658D01*
X0020998Y0022562D01*
X0021116Y0022463D01*
X0021230Y0022362D01*
X0021342Y0022257D01*
X0021451Y0022149D01*
X0021557Y0022038D01*
X0021661Y0021925D01*
X0021761Y0021809D01*
X0021859Y0021691D01*
X0021953Y0021570D01*
X0022044Y0021447D01*
X0022132Y0021321D01*
X0022216Y0021193D01*
X0022298Y0021063D01*
X0022375Y0020931D01*
X0022450Y0020797D01*
X0022521Y0020661D01*
X0022588Y0020523D01*
X0022652Y0020383D01*
X0022712Y0020242D01*
X0022768Y0020100D01*
X0022821Y0019956D01*
X0022870Y0019810D01*
X0022915Y0019664D01*
X0022956Y0019516D01*
X0022993Y0019368D01*
X0023027Y0019218D01*
X0023057Y0019067D01*
X0023082Y0018916D01*
X0023104Y0018765D01*
X0023122Y0018612D01*
X0023136Y0018460D01*
X0023146Y0018307D01*
X0023152Y0018153D01*
X0023154Y0018000D01*
X0023152Y0017847D01*
X0023146Y0017693D01*
X0023136Y0017540D01*
X0023122Y0017388D01*
X0023104Y0017235D01*
X0023082Y0017084D01*
X0023057Y0016933D01*
X0023027Y0016782D01*
X0022993Y0016632D01*
X0022956Y0016484D01*
X0022915Y0016336D01*
X0022870Y0016190D01*
X0022821Y0016044D01*
X0022768Y0015900D01*
X0022712Y0015758D01*
X0022652Y0015617D01*
X0022588Y0015477D01*
X0022521Y0015339D01*
X0022450Y0015203D01*
X0022375Y0015069D01*
X0022298Y0014937D01*
X0022216Y0014807D01*
X0022132Y0014679D01*
X0022044Y0014553D01*
X0021953Y0014430D01*
X0021859Y0014309D01*
X0021761Y0014191D01*
X0021661Y0014075D01*
X0021557Y0013962D01*
X0021451Y0013851D01*
X0021342Y0013743D01*
X0021230Y0013638D01*
X0021116Y0013537D01*
X0020998Y0013438D01*
X0020879Y0013342D01*
X0020757Y0013249D01*
X0020632Y0013160D01*
X0020505Y0013073D01*
X0020376Y0012991D01*
X0020245Y0012911D01*
X0020112Y0012835D01*
X0019977Y0012762D01*
X0019840Y0012693D01*
X0019701Y0012628D01*
X0019561Y0012566D01*
X0019419Y0012508D01*
X0019276Y0012453D01*
X0019131Y0012402D01*
X0018985Y0012355D01*
X0018838Y0012312D01*
X0018690Y0012273D01*
X0018541Y0012237D01*
X0018391Y0012206D01*
X0018240Y0012178D01*
X0018089Y0012154D01*
X0017936Y0012134D01*
X0017784Y0012118D01*
X0017631Y0012106D01*
X0017478Y0012098D01*
X0017325Y0012094D01*
X0017171Y0012094D01*
X0017018Y0012098D01*
X0016865Y0012106D01*
X0016712Y0012118D01*
X0016560Y0012134D01*
X0016407Y0012154D01*
X0016256Y0012178D01*
X0016105Y0012206D01*
X0015955Y0012237D01*
X0015806Y0012273D01*
X0015658Y0012312D01*
X0015511Y0012355D01*
X0015365Y0012402D01*
X0015220Y0012453D01*
X0015077Y0012508D01*
X0014935Y0012566D01*
X0014795Y0012628D01*
X0014656Y0012693D01*
X0014519Y0012762D01*
X0014384Y0012835D01*
X0014251Y0012911D01*
X0014120Y0012991D01*
X0013991Y0013073D01*
X0013864Y0013160D01*
X0013739Y0013249D01*
X0013617Y0013342D01*
X0013498Y0013438D01*
X0013380Y0013537D01*
X0013266Y0013638D01*
X0013154Y0013743D01*
X0013045Y0013851D01*
X0012939Y0013962D01*
X0012835Y0014075D01*
X0012735Y0014191D01*
X0012637Y0014309D01*
X0012543Y0014430D01*
X0012452Y0014553D01*
X0012364Y0014679D01*
X0012280Y0014807D01*
X0012198Y0014937D01*
X0012121Y0015069D01*
X0012046Y0015203D01*
X0011975Y0015339D01*
X0011908Y0015477D01*
X0011844Y0015617D01*
X0011784Y0015758D01*
X0011728Y0015900D01*
X0011675Y0016044D01*
X0011626Y0016190D01*
X0011581Y0016336D01*
X0011540Y0016484D01*
X0011503Y0016632D01*
X0011469Y0016782D01*
X0011439Y0016933D01*
X0011414Y0017084D01*
X0011392Y0017235D01*
X0011374Y0017388D01*
X0011360Y0017540D01*
X0011350Y0017693D01*
X0011344Y0017847D01*
X0011342Y0018000D01*
X0259374Y0018000D02*
X0259376Y0018153D01*
X0259382Y0018307D01*
X0259392Y0018460D01*
X0259406Y0018612D01*
X0259424Y0018765D01*
X0259446Y0018916D01*
X0259471Y0019067D01*
X0259501Y0019218D01*
X0259535Y0019368D01*
X0259572Y0019516D01*
X0259613Y0019664D01*
X0259658Y0019810D01*
X0259707Y0019956D01*
X0259760Y0020100D01*
X0259816Y0020242D01*
X0259876Y0020383D01*
X0259940Y0020523D01*
X0260007Y0020661D01*
X0260078Y0020797D01*
X0260153Y0020931D01*
X0260230Y0021063D01*
X0260312Y0021193D01*
X0260396Y0021321D01*
X0260484Y0021447D01*
X0260575Y0021570D01*
X0260669Y0021691D01*
X0260767Y0021809D01*
X0260867Y0021925D01*
X0260971Y0022038D01*
X0261077Y0022149D01*
X0261186Y0022257D01*
X0261298Y0022362D01*
X0261412Y0022463D01*
X0261530Y0022562D01*
X0261649Y0022658D01*
X0261771Y0022751D01*
X0261896Y0022840D01*
X0262023Y0022927D01*
X0262152Y0023009D01*
X0262283Y0023089D01*
X0262416Y0023165D01*
X0262551Y0023238D01*
X0262688Y0023307D01*
X0262827Y0023372D01*
X0262967Y0023434D01*
X0263109Y0023492D01*
X0263252Y0023547D01*
X0263397Y0023598D01*
X0263543Y0023645D01*
X0263690Y0023688D01*
X0263838Y0023727D01*
X0263987Y0023763D01*
X0264137Y0023794D01*
X0264288Y0023822D01*
X0264439Y0023846D01*
X0264592Y0023866D01*
X0264744Y0023882D01*
X0264897Y0023894D01*
X0265050Y0023902D01*
X0265203Y0023906D01*
X0265357Y0023906D01*
X0265510Y0023902D01*
X0265663Y0023894D01*
X0265816Y0023882D01*
X0265968Y0023866D01*
X0266121Y0023846D01*
X0266272Y0023822D01*
X0266423Y0023794D01*
X0266573Y0023763D01*
X0266722Y0023727D01*
X0266870Y0023688D01*
X0267017Y0023645D01*
X0267163Y0023598D01*
X0267308Y0023547D01*
X0267451Y0023492D01*
X0267593Y0023434D01*
X0267733Y0023372D01*
X0267872Y0023307D01*
X0268009Y0023238D01*
X0268144Y0023165D01*
X0268277Y0023089D01*
X0268408Y0023009D01*
X0268537Y0022927D01*
X0268664Y0022840D01*
X0268789Y0022751D01*
X0268911Y0022658D01*
X0269030Y0022562D01*
X0269148Y0022463D01*
X0269262Y0022362D01*
X0269374Y0022257D01*
X0269483Y0022149D01*
X0269589Y0022038D01*
X0269693Y0021925D01*
X0269793Y0021809D01*
X0269891Y0021691D01*
X0269985Y0021570D01*
X0270076Y0021447D01*
X0270164Y0021321D01*
X0270248Y0021193D01*
X0270330Y0021063D01*
X0270407Y0020931D01*
X0270482Y0020797D01*
X0270553Y0020661D01*
X0270620Y0020523D01*
X0270684Y0020383D01*
X0270744Y0020242D01*
X0270800Y0020100D01*
X0270853Y0019956D01*
X0270902Y0019810D01*
X0270947Y0019664D01*
X0270988Y0019516D01*
X0271025Y0019368D01*
X0271059Y0019218D01*
X0271089Y0019067D01*
X0271114Y0018916D01*
X0271136Y0018765D01*
X0271154Y0018612D01*
X0271168Y0018460D01*
X0271178Y0018307D01*
X0271184Y0018153D01*
X0271186Y0018000D01*
X0271184Y0017847D01*
X0271178Y0017693D01*
X0271168Y0017540D01*
X0271154Y0017388D01*
X0271136Y0017235D01*
X0271114Y0017084D01*
X0271089Y0016933D01*
X0271059Y0016782D01*
X0271025Y0016632D01*
X0270988Y0016484D01*
X0270947Y0016336D01*
X0270902Y0016190D01*
X0270853Y0016044D01*
X0270800Y0015900D01*
X0270744Y0015758D01*
X0270684Y0015617D01*
X0270620Y0015477D01*
X0270553Y0015339D01*
X0270482Y0015203D01*
X0270407Y0015069D01*
X0270330Y0014937D01*
X0270248Y0014807D01*
X0270164Y0014679D01*
X0270076Y0014553D01*
X0269985Y0014430D01*
X0269891Y0014309D01*
X0269793Y0014191D01*
X0269693Y0014075D01*
X0269589Y0013962D01*
X0269483Y0013851D01*
X0269374Y0013743D01*
X0269262Y0013638D01*
X0269148Y0013537D01*
X0269030Y0013438D01*
X0268911Y0013342D01*
X0268789Y0013249D01*
X0268664Y0013160D01*
X0268537Y0013073D01*
X0268408Y0012991D01*
X0268277Y0012911D01*
X0268144Y0012835D01*
X0268009Y0012762D01*
X0267872Y0012693D01*
X0267733Y0012628D01*
X0267593Y0012566D01*
X0267451Y0012508D01*
X0267308Y0012453D01*
X0267163Y0012402D01*
X0267017Y0012355D01*
X0266870Y0012312D01*
X0266722Y0012273D01*
X0266573Y0012237D01*
X0266423Y0012206D01*
X0266272Y0012178D01*
X0266121Y0012154D01*
X0265968Y0012134D01*
X0265816Y0012118D01*
X0265663Y0012106D01*
X0265510Y0012098D01*
X0265357Y0012094D01*
X0265203Y0012094D01*
X0265050Y0012098D01*
X0264897Y0012106D01*
X0264744Y0012118D01*
X0264592Y0012134D01*
X0264439Y0012154D01*
X0264288Y0012178D01*
X0264137Y0012206D01*
X0263987Y0012237D01*
X0263838Y0012273D01*
X0263690Y0012312D01*
X0263543Y0012355D01*
X0263397Y0012402D01*
X0263252Y0012453D01*
X0263109Y0012508D01*
X0262967Y0012566D01*
X0262827Y0012628D01*
X0262688Y0012693D01*
X0262551Y0012762D01*
X0262416Y0012835D01*
X0262283Y0012911D01*
X0262152Y0012991D01*
X0262023Y0013073D01*
X0261896Y0013160D01*
X0261771Y0013249D01*
X0261649Y0013342D01*
X0261530Y0013438D01*
X0261412Y0013537D01*
X0261298Y0013638D01*
X0261186Y0013743D01*
X0261077Y0013851D01*
X0260971Y0013962D01*
X0260867Y0014075D01*
X0260767Y0014191D01*
X0260669Y0014309D01*
X0260575Y0014430D01*
X0260484Y0014553D01*
X0260396Y0014679D01*
X0260312Y0014807D01*
X0260230Y0014937D01*
X0260153Y0015069D01*
X0260078Y0015203D01*
X0260007Y0015339D01*
X0259940Y0015477D01*
X0259876Y0015617D01*
X0259816Y0015758D01*
X0259760Y0015900D01*
X0259707Y0016044D01*
X0259658Y0016190D01*
X0259613Y0016336D01*
X0259572Y0016484D01*
X0259535Y0016632D01*
X0259501Y0016782D01*
X0259471Y0016933D01*
X0259446Y0017084D01*
X0259424Y0017235D01*
X0259406Y0017388D01*
X0259392Y0017540D01*
X0259382Y0017693D01*
X0259376Y0017847D01*
X0259374Y0018000D01*
X0259374Y0136110D02*
X0259376Y0136263D01*
X0259382Y0136417D01*
X0259392Y0136570D01*
X0259406Y0136722D01*
X0259424Y0136875D01*
X0259446Y0137026D01*
X0259471Y0137177D01*
X0259501Y0137328D01*
X0259535Y0137478D01*
X0259572Y0137626D01*
X0259613Y0137774D01*
X0259658Y0137920D01*
X0259707Y0138066D01*
X0259760Y0138210D01*
X0259816Y0138352D01*
X0259876Y0138493D01*
X0259940Y0138633D01*
X0260007Y0138771D01*
X0260078Y0138907D01*
X0260153Y0139041D01*
X0260230Y0139173D01*
X0260312Y0139303D01*
X0260396Y0139431D01*
X0260484Y0139557D01*
X0260575Y0139680D01*
X0260669Y0139801D01*
X0260767Y0139919D01*
X0260867Y0140035D01*
X0260971Y0140148D01*
X0261077Y0140259D01*
X0261186Y0140367D01*
X0261298Y0140472D01*
X0261412Y0140573D01*
X0261530Y0140672D01*
X0261649Y0140768D01*
X0261771Y0140861D01*
X0261896Y0140950D01*
X0262023Y0141037D01*
X0262152Y0141119D01*
X0262283Y0141199D01*
X0262416Y0141275D01*
X0262551Y0141348D01*
X0262688Y0141417D01*
X0262827Y0141482D01*
X0262967Y0141544D01*
X0263109Y0141602D01*
X0263252Y0141657D01*
X0263397Y0141708D01*
X0263543Y0141755D01*
X0263690Y0141798D01*
X0263838Y0141837D01*
X0263987Y0141873D01*
X0264137Y0141904D01*
X0264288Y0141932D01*
X0264439Y0141956D01*
X0264592Y0141976D01*
X0264744Y0141992D01*
X0264897Y0142004D01*
X0265050Y0142012D01*
X0265203Y0142016D01*
X0265357Y0142016D01*
X0265510Y0142012D01*
X0265663Y0142004D01*
X0265816Y0141992D01*
X0265968Y0141976D01*
X0266121Y0141956D01*
X0266272Y0141932D01*
X0266423Y0141904D01*
X0266573Y0141873D01*
X0266722Y0141837D01*
X0266870Y0141798D01*
X0267017Y0141755D01*
X0267163Y0141708D01*
X0267308Y0141657D01*
X0267451Y0141602D01*
X0267593Y0141544D01*
X0267733Y0141482D01*
X0267872Y0141417D01*
X0268009Y0141348D01*
X0268144Y0141275D01*
X0268277Y0141199D01*
X0268408Y0141119D01*
X0268537Y0141037D01*
X0268664Y0140950D01*
X0268789Y0140861D01*
X0268911Y0140768D01*
X0269030Y0140672D01*
X0269148Y0140573D01*
X0269262Y0140472D01*
X0269374Y0140367D01*
X0269483Y0140259D01*
X0269589Y0140148D01*
X0269693Y0140035D01*
X0269793Y0139919D01*
X0269891Y0139801D01*
X0269985Y0139680D01*
X0270076Y0139557D01*
X0270164Y0139431D01*
X0270248Y0139303D01*
X0270330Y0139173D01*
X0270407Y0139041D01*
X0270482Y0138907D01*
X0270553Y0138771D01*
X0270620Y0138633D01*
X0270684Y0138493D01*
X0270744Y0138352D01*
X0270800Y0138210D01*
X0270853Y0138066D01*
X0270902Y0137920D01*
X0270947Y0137774D01*
X0270988Y0137626D01*
X0271025Y0137478D01*
X0271059Y0137328D01*
X0271089Y0137177D01*
X0271114Y0137026D01*
X0271136Y0136875D01*
X0271154Y0136722D01*
X0271168Y0136570D01*
X0271178Y0136417D01*
X0271184Y0136263D01*
X0271186Y0136110D01*
X0271184Y0135957D01*
X0271178Y0135803D01*
X0271168Y0135650D01*
X0271154Y0135498D01*
X0271136Y0135345D01*
X0271114Y0135194D01*
X0271089Y0135043D01*
X0271059Y0134892D01*
X0271025Y0134742D01*
X0270988Y0134594D01*
X0270947Y0134446D01*
X0270902Y0134300D01*
X0270853Y0134154D01*
X0270800Y0134010D01*
X0270744Y0133868D01*
X0270684Y0133727D01*
X0270620Y0133587D01*
X0270553Y0133449D01*
X0270482Y0133313D01*
X0270407Y0133179D01*
X0270330Y0133047D01*
X0270248Y0132917D01*
X0270164Y0132789D01*
X0270076Y0132663D01*
X0269985Y0132540D01*
X0269891Y0132419D01*
X0269793Y0132301D01*
X0269693Y0132185D01*
X0269589Y0132072D01*
X0269483Y0131961D01*
X0269374Y0131853D01*
X0269262Y0131748D01*
X0269148Y0131647D01*
X0269030Y0131548D01*
X0268911Y0131452D01*
X0268789Y0131359D01*
X0268664Y0131270D01*
X0268537Y0131183D01*
X0268408Y0131101D01*
X0268277Y0131021D01*
X0268144Y0130945D01*
X0268009Y0130872D01*
X0267872Y0130803D01*
X0267733Y0130738D01*
X0267593Y0130676D01*
X0267451Y0130618D01*
X0267308Y0130563D01*
X0267163Y0130512D01*
X0267017Y0130465D01*
X0266870Y0130422D01*
X0266722Y0130383D01*
X0266573Y0130347D01*
X0266423Y0130316D01*
X0266272Y0130288D01*
X0266121Y0130264D01*
X0265968Y0130244D01*
X0265816Y0130228D01*
X0265663Y0130216D01*
X0265510Y0130208D01*
X0265357Y0130204D01*
X0265203Y0130204D01*
X0265050Y0130208D01*
X0264897Y0130216D01*
X0264744Y0130228D01*
X0264592Y0130244D01*
X0264439Y0130264D01*
X0264288Y0130288D01*
X0264137Y0130316D01*
X0263987Y0130347D01*
X0263838Y0130383D01*
X0263690Y0130422D01*
X0263543Y0130465D01*
X0263397Y0130512D01*
X0263252Y0130563D01*
X0263109Y0130618D01*
X0262967Y0130676D01*
X0262827Y0130738D01*
X0262688Y0130803D01*
X0262551Y0130872D01*
X0262416Y0130945D01*
X0262283Y0131021D01*
X0262152Y0131101D01*
X0262023Y0131183D01*
X0261896Y0131270D01*
X0261771Y0131359D01*
X0261649Y0131452D01*
X0261530Y0131548D01*
X0261412Y0131647D01*
X0261298Y0131748D01*
X0261186Y0131853D01*
X0261077Y0131961D01*
X0260971Y0132072D01*
X0260867Y0132185D01*
X0260767Y0132301D01*
X0260669Y0132419D01*
X0260575Y0132540D01*
X0260484Y0132663D01*
X0260396Y0132789D01*
X0260312Y0132917D01*
X0260230Y0133047D01*
X0260153Y0133179D01*
X0260078Y0133313D01*
X0260007Y0133449D01*
X0259940Y0133587D01*
X0259876Y0133727D01*
X0259816Y0133868D01*
X0259760Y0134010D01*
X0259707Y0134154D01*
X0259658Y0134300D01*
X0259613Y0134446D01*
X0259572Y0134594D01*
X0259535Y0134742D01*
X0259501Y0134892D01*
X0259471Y0135043D01*
X0259446Y0135194D01*
X0259424Y0135345D01*
X0259406Y0135498D01*
X0259392Y0135650D01*
X0259382Y0135803D01*
X0259376Y0135957D01*
X0259374Y0136110D01*
X0259374Y0360520D02*
X0259376Y0360673D01*
X0259382Y0360827D01*
X0259392Y0360980D01*
X0259406Y0361132D01*
X0259424Y0361285D01*
X0259446Y0361436D01*
X0259471Y0361587D01*
X0259501Y0361738D01*
X0259535Y0361888D01*
X0259572Y0362036D01*
X0259613Y0362184D01*
X0259658Y0362330D01*
X0259707Y0362476D01*
X0259760Y0362620D01*
X0259816Y0362762D01*
X0259876Y0362903D01*
X0259940Y0363043D01*
X0260007Y0363181D01*
X0260078Y0363317D01*
X0260153Y0363451D01*
X0260230Y0363583D01*
X0260312Y0363713D01*
X0260396Y0363841D01*
X0260484Y0363967D01*
X0260575Y0364090D01*
X0260669Y0364211D01*
X0260767Y0364329D01*
X0260867Y0364445D01*
X0260971Y0364558D01*
X0261077Y0364669D01*
X0261186Y0364777D01*
X0261298Y0364882D01*
X0261412Y0364983D01*
X0261530Y0365082D01*
X0261649Y0365178D01*
X0261771Y0365271D01*
X0261896Y0365360D01*
X0262023Y0365447D01*
X0262152Y0365529D01*
X0262283Y0365609D01*
X0262416Y0365685D01*
X0262551Y0365758D01*
X0262688Y0365827D01*
X0262827Y0365892D01*
X0262967Y0365954D01*
X0263109Y0366012D01*
X0263252Y0366067D01*
X0263397Y0366118D01*
X0263543Y0366165D01*
X0263690Y0366208D01*
X0263838Y0366247D01*
X0263987Y0366283D01*
X0264137Y0366314D01*
X0264288Y0366342D01*
X0264439Y0366366D01*
X0264592Y0366386D01*
X0264744Y0366402D01*
X0264897Y0366414D01*
X0265050Y0366422D01*
X0265203Y0366426D01*
X0265357Y0366426D01*
X0265510Y0366422D01*
X0265663Y0366414D01*
X0265816Y0366402D01*
X0265968Y0366386D01*
X0266121Y0366366D01*
X0266272Y0366342D01*
X0266423Y0366314D01*
X0266573Y0366283D01*
X0266722Y0366247D01*
X0266870Y0366208D01*
X0267017Y0366165D01*
X0267163Y0366118D01*
X0267308Y0366067D01*
X0267451Y0366012D01*
X0267593Y0365954D01*
X0267733Y0365892D01*
X0267872Y0365827D01*
X0268009Y0365758D01*
X0268144Y0365685D01*
X0268277Y0365609D01*
X0268408Y0365529D01*
X0268537Y0365447D01*
X0268664Y0365360D01*
X0268789Y0365271D01*
X0268911Y0365178D01*
X0269030Y0365082D01*
X0269148Y0364983D01*
X0269262Y0364882D01*
X0269374Y0364777D01*
X0269483Y0364669D01*
X0269589Y0364558D01*
X0269693Y0364445D01*
X0269793Y0364329D01*
X0269891Y0364211D01*
X0269985Y0364090D01*
X0270076Y0363967D01*
X0270164Y0363841D01*
X0270248Y0363713D01*
X0270330Y0363583D01*
X0270407Y0363451D01*
X0270482Y0363317D01*
X0270553Y0363181D01*
X0270620Y0363043D01*
X0270684Y0362903D01*
X0270744Y0362762D01*
X0270800Y0362620D01*
X0270853Y0362476D01*
X0270902Y0362330D01*
X0270947Y0362184D01*
X0270988Y0362036D01*
X0271025Y0361888D01*
X0271059Y0361738D01*
X0271089Y0361587D01*
X0271114Y0361436D01*
X0271136Y0361285D01*
X0271154Y0361132D01*
X0271168Y0360980D01*
X0271178Y0360827D01*
X0271184Y0360673D01*
X0271186Y0360520D01*
X0271184Y0360367D01*
X0271178Y0360213D01*
X0271168Y0360060D01*
X0271154Y0359908D01*
X0271136Y0359755D01*
X0271114Y0359604D01*
X0271089Y0359453D01*
X0271059Y0359302D01*
X0271025Y0359152D01*
X0270988Y0359004D01*
X0270947Y0358856D01*
X0270902Y0358710D01*
X0270853Y0358564D01*
X0270800Y0358420D01*
X0270744Y0358278D01*
X0270684Y0358137D01*
X0270620Y0357997D01*
X0270553Y0357859D01*
X0270482Y0357723D01*
X0270407Y0357589D01*
X0270330Y0357457D01*
X0270248Y0357327D01*
X0270164Y0357199D01*
X0270076Y0357073D01*
X0269985Y0356950D01*
X0269891Y0356829D01*
X0269793Y0356711D01*
X0269693Y0356595D01*
X0269589Y0356482D01*
X0269483Y0356371D01*
X0269374Y0356263D01*
X0269262Y0356158D01*
X0269148Y0356057D01*
X0269030Y0355958D01*
X0268911Y0355862D01*
X0268789Y0355769D01*
X0268664Y0355680D01*
X0268537Y0355593D01*
X0268408Y0355511D01*
X0268277Y0355431D01*
X0268144Y0355355D01*
X0268009Y0355282D01*
X0267872Y0355213D01*
X0267733Y0355148D01*
X0267593Y0355086D01*
X0267451Y0355028D01*
X0267308Y0354973D01*
X0267163Y0354922D01*
X0267017Y0354875D01*
X0266870Y0354832D01*
X0266722Y0354793D01*
X0266573Y0354757D01*
X0266423Y0354726D01*
X0266272Y0354698D01*
X0266121Y0354674D01*
X0265968Y0354654D01*
X0265816Y0354638D01*
X0265663Y0354626D01*
X0265510Y0354618D01*
X0265357Y0354614D01*
X0265203Y0354614D01*
X0265050Y0354618D01*
X0264897Y0354626D01*
X0264744Y0354638D01*
X0264592Y0354654D01*
X0264439Y0354674D01*
X0264288Y0354698D01*
X0264137Y0354726D01*
X0263987Y0354757D01*
X0263838Y0354793D01*
X0263690Y0354832D01*
X0263543Y0354875D01*
X0263397Y0354922D01*
X0263252Y0354973D01*
X0263109Y0355028D01*
X0262967Y0355086D01*
X0262827Y0355148D01*
X0262688Y0355213D01*
X0262551Y0355282D01*
X0262416Y0355355D01*
X0262283Y0355431D01*
X0262152Y0355511D01*
X0262023Y0355593D01*
X0261896Y0355680D01*
X0261771Y0355769D01*
X0261649Y0355862D01*
X0261530Y0355958D01*
X0261412Y0356057D01*
X0261298Y0356158D01*
X0261186Y0356263D01*
X0261077Y0356371D01*
X0260971Y0356482D01*
X0260867Y0356595D01*
X0260767Y0356711D01*
X0260669Y0356829D01*
X0260575Y0356950D01*
X0260484Y0357073D01*
X0260396Y0357199D01*
X0260312Y0357327D01*
X0260230Y0357457D01*
X0260153Y0357589D01*
X0260078Y0357723D01*
X0260007Y0357859D01*
X0259940Y0357997D01*
X0259876Y0358137D01*
X0259816Y0358278D01*
X0259760Y0358420D01*
X0259707Y0358564D01*
X0259658Y0358710D01*
X0259613Y0358856D01*
X0259572Y0359004D01*
X0259535Y0359152D01*
X0259501Y0359302D01*
X0259471Y0359453D01*
X0259446Y0359604D01*
X0259424Y0359755D01*
X0259406Y0359908D01*
X0259392Y0360060D01*
X0259382Y0360213D01*
X0259376Y0360367D01*
X0259374Y0360520D01*
X0011342Y0360520D02*
X0011344Y0360673D01*
X0011350Y0360827D01*
X0011360Y0360980D01*
X0011374Y0361132D01*
X0011392Y0361285D01*
X0011414Y0361436D01*
X0011439Y0361587D01*
X0011469Y0361738D01*
X0011503Y0361888D01*
X0011540Y0362036D01*
X0011581Y0362184D01*
X0011626Y0362330D01*
X0011675Y0362476D01*
X0011728Y0362620D01*
X0011784Y0362762D01*
X0011844Y0362903D01*
X0011908Y0363043D01*
X0011975Y0363181D01*
X0012046Y0363317D01*
X0012121Y0363451D01*
X0012198Y0363583D01*
X0012280Y0363713D01*
X0012364Y0363841D01*
X0012452Y0363967D01*
X0012543Y0364090D01*
X0012637Y0364211D01*
X0012735Y0364329D01*
X0012835Y0364445D01*
X0012939Y0364558D01*
X0013045Y0364669D01*
X0013154Y0364777D01*
X0013266Y0364882D01*
X0013380Y0364983D01*
X0013498Y0365082D01*
X0013617Y0365178D01*
X0013739Y0365271D01*
X0013864Y0365360D01*
X0013991Y0365447D01*
X0014120Y0365529D01*
X0014251Y0365609D01*
X0014384Y0365685D01*
X0014519Y0365758D01*
X0014656Y0365827D01*
X0014795Y0365892D01*
X0014935Y0365954D01*
X0015077Y0366012D01*
X0015220Y0366067D01*
X0015365Y0366118D01*
X0015511Y0366165D01*
X0015658Y0366208D01*
X0015806Y0366247D01*
X0015955Y0366283D01*
X0016105Y0366314D01*
X0016256Y0366342D01*
X0016407Y0366366D01*
X0016560Y0366386D01*
X0016712Y0366402D01*
X0016865Y0366414D01*
X0017018Y0366422D01*
X0017171Y0366426D01*
X0017325Y0366426D01*
X0017478Y0366422D01*
X0017631Y0366414D01*
X0017784Y0366402D01*
X0017936Y0366386D01*
X0018089Y0366366D01*
X0018240Y0366342D01*
X0018391Y0366314D01*
X0018541Y0366283D01*
X0018690Y0366247D01*
X0018838Y0366208D01*
X0018985Y0366165D01*
X0019131Y0366118D01*
X0019276Y0366067D01*
X0019419Y0366012D01*
X0019561Y0365954D01*
X0019701Y0365892D01*
X0019840Y0365827D01*
X0019977Y0365758D01*
X0020112Y0365685D01*
X0020245Y0365609D01*
X0020376Y0365529D01*
X0020505Y0365447D01*
X0020632Y0365360D01*
X0020757Y0365271D01*
X0020879Y0365178D01*
X0020998Y0365082D01*
X0021116Y0364983D01*
X0021230Y0364882D01*
X0021342Y0364777D01*
X0021451Y0364669D01*
X0021557Y0364558D01*
X0021661Y0364445D01*
X0021761Y0364329D01*
X0021859Y0364211D01*
X0021953Y0364090D01*
X0022044Y0363967D01*
X0022132Y0363841D01*
X0022216Y0363713D01*
X0022298Y0363583D01*
X0022375Y0363451D01*
X0022450Y0363317D01*
X0022521Y0363181D01*
X0022588Y0363043D01*
X0022652Y0362903D01*
X0022712Y0362762D01*
X0022768Y0362620D01*
X0022821Y0362476D01*
X0022870Y0362330D01*
X0022915Y0362184D01*
X0022956Y0362036D01*
X0022993Y0361888D01*
X0023027Y0361738D01*
X0023057Y0361587D01*
X0023082Y0361436D01*
X0023104Y0361285D01*
X0023122Y0361132D01*
X0023136Y0360980D01*
X0023146Y0360827D01*
X0023152Y0360673D01*
X0023154Y0360520D01*
X0023152Y0360367D01*
X0023146Y0360213D01*
X0023136Y0360060D01*
X0023122Y0359908D01*
X0023104Y0359755D01*
X0023082Y0359604D01*
X0023057Y0359453D01*
X0023027Y0359302D01*
X0022993Y0359152D01*
X0022956Y0359004D01*
X0022915Y0358856D01*
X0022870Y0358710D01*
X0022821Y0358564D01*
X0022768Y0358420D01*
X0022712Y0358278D01*
X0022652Y0358137D01*
X0022588Y0357997D01*
X0022521Y0357859D01*
X0022450Y0357723D01*
X0022375Y0357589D01*
X0022298Y0357457D01*
X0022216Y0357327D01*
X0022132Y0357199D01*
X0022044Y0357073D01*
X0021953Y0356950D01*
X0021859Y0356829D01*
X0021761Y0356711D01*
X0021661Y0356595D01*
X0021557Y0356482D01*
X0021451Y0356371D01*
X0021342Y0356263D01*
X0021230Y0356158D01*
X0021116Y0356057D01*
X0020998Y0355958D01*
X0020879Y0355862D01*
X0020757Y0355769D01*
X0020632Y0355680D01*
X0020505Y0355593D01*
X0020376Y0355511D01*
X0020245Y0355431D01*
X0020112Y0355355D01*
X0019977Y0355282D01*
X0019840Y0355213D01*
X0019701Y0355148D01*
X0019561Y0355086D01*
X0019419Y0355028D01*
X0019276Y0354973D01*
X0019131Y0354922D01*
X0018985Y0354875D01*
X0018838Y0354832D01*
X0018690Y0354793D01*
X0018541Y0354757D01*
X0018391Y0354726D01*
X0018240Y0354698D01*
X0018089Y0354674D01*
X0017936Y0354654D01*
X0017784Y0354638D01*
X0017631Y0354626D01*
X0017478Y0354618D01*
X0017325Y0354614D01*
X0017171Y0354614D01*
X0017018Y0354618D01*
X0016865Y0354626D01*
X0016712Y0354638D01*
X0016560Y0354654D01*
X0016407Y0354674D01*
X0016256Y0354698D01*
X0016105Y0354726D01*
X0015955Y0354757D01*
X0015806Y0354793D01*
X0015658Y0354832D01*
X0015511Y0354875D01*
X0015365Y0354922D01*
X0015220Y0354973D01*
X0015077Y0355028D01*
X0014935Y0355086D01*
X0014795Y0355148D01*
X0014656Y0355213D01*
X0014519Y0355282D01*
X0014384Y0355355D01*
X0014251Y0355431D01*
X0014120Y0355511D01*
X0013991Y0355593D01*
X0013864Y0355680D01*
X0013739Y0355769D01*
X0013617Y0355862D01*
X0013498Y0355958D01*
X0013380Y0356057D01*
X0013266Y0356158D01*
X0013154Y0356263D01*
X0013045Y0356371D01*
X0012939Y0356482D01*
X0012835Y0356595D01*
X0012735Y0356711D01*
X0012637Y0356829D01*
X0012543Y0356950D01*
X0012452Y0357073D01*
X0012364Y0357199D01*
X0012280Y0357327D01*
X0012198Y0357457D01*
X0012121Y0357589D01*
X0012046Y0357723D01*
X0011975Y0357859D01*
X0011908Y0357997D01*
X0011844Y0358137D01*
X0011784Y0358278D01*
X0011728Y0358420D01*
X0011675Y0358564D01*
X0011626Y0358710D01*
X0011581Y0358856D01*
X0011540Y0359004D01*
X0011503Y0359152D01*
X0011469Y0359302D01*
X0011439Y0359453D01*
X0011414Y0359604D01*
X0011392Y0359755D01*
X0011374Y0359908D01*
X0011360Y0360060D01*
X0011350Y0360213D01*
X0011344Y0360367D01*
X0011342Y0360520D01*
D30*
X0193839Y0325079D03*
D31*
X0131878Y0331512D03*
X0131878Y0331850D03*
X0131878Y0332189D03*
X0131878Y0332528D03*
X0131878Y0332866D03*
X0131878Y0343362D03*
X0131878Y0343701D03*
X0131878Y0344039D03*
X0131878Y0344378D03*
D32*
X0165228Y0344378D03*
X0165228Y0344717D03*
X0165228Y0344039D03*
X0165228Y0343701D03*
X0165228Y0343362D03*
X0165228Y0332866D03*
X0165228Y0332528D03*
X0165228Y0332189D03*
X0165228Y0331850D03*
X0165228Y0331512D03*
D33*
X0112579Y0334559D03*
X0104114Y0337606D03*
X0103776Y0338283D03*
X0103776Y0338622D03*
X0103776Y0338961D03*
X0103098Y0335236D03*
X0094634Y0337945D03*
X0094972Y0342346D03*
X0085492Y0335913D03*
D34*
X0094295Y0341331D03*
X0112579Y0341331D03*
X0112579Y0341669D03*
X0112579Y0342008D03*
X0112579Y0342346D03*
X0111902Y0336252D03*
X0111902Y0335913D03*
X0111902Y0335575D03*
X0111902Y0335236D03*
X0111902Y0334898D03*
D35*
X0193500Y0335575D03*
D36*
X0193331Y0335913D03*
D37*
X0193161Y0336252D03*
X0193161Y0342008D03*
X0193161Y0342346D03*
X0193161Y0342685D03*
D38*
X0102760Y0341331D03*
X0102760Y0340992D03*
X0102421Y0342346D03*
X0094295Y0338622D03*
X0094295Y0338283D03*
X0085492Y0340992D03*
D39*
X0112409Y0340992D03*
X0112409Y0340654D03*
D40*
X0112748Y0342685D03*
X0102591Y0342008D03*
X0102591Y0341669D03*
X0094465Y0341669D03*
D41*
X0193161Y0344378D03*
D42*
X0131709Y0344717D03*
D43*
X0193161Y0344717D03*
D44*
X0193075Y0305453D03*
X0192736Y0305453D03*
X0192398Y0305453D03*
X0191043Y0305453D03*
X0190705Y0305453D03*
X0190366Y0305453D03*
X0190028Y0305453D03*
X0185965Y0305453D03*
X0185626Y0305453D03*
X0185287Y0305453D03*
X0184949Y0305453D03*
X0195106Y0305453D03*
X0195445Y0305453D03*
X0195783Y0305453D03*
X0196122Y0305453D03*
X0197815Y0305453D03*
X0198154Y0305453D03*
X0200185Y0305453D03*
X0200524Y0305453D03*
X0205264Y0305453D03*
X0205602Y0305453D03*
X0205941Y0305453D03*
X0206280Y0305453D03*
D45*
X0204925Y0304776D03*
X0204587Y0304776D03*
X0204248Y0304776D03*
X0203909Y0304776D03*
X0203571Y0304776D03*
X0203571Y0307146D03*
X0203909Y0307146D03*
X0204248Y0307146D03*
X0204587Y0307146D03*
X0204925Y0307146D03*
X0199508Y0307146D03*
X0199169Y0307146D03*
X0198831Y0307146D03*
X0198492Y0307146D03*
X0198492Y0303760D03*
X0198831Y0303760D03*
X0199169Y0303760D03*
X0199508Y0303760D03*
X0199846Y0303760D03*
X0192059Y0307146D03*
X0189689Y0307146D03*
X0189012Y0307146D03*
X0188673Y0307146D03*
X0188335Y0307146D03*
X0187996Y0307146D03*
X0187657Y0307146D03*
X0187319Y0307146D03*
X0187657Y0305453D03*
X0187996Y0305453D03*
X0188335Y0305453D03*
X0188673Y0305453D03*
X0189012Y0305453D03*
X0189350Y0305453D03*
X0189689Y0305453D03*
X0189689Y0303760D03*
X0189350Y0303760D03*
X0189012Y0303760D03*
X0188673Y0303760D03*
X0188335Y0303760D03*
X0187996Y0303760D03*
X0187657Y0303760D03*
X0187319Y0303760D03*
X0184610Y0304776D03*
X0184272Y0304776D03*
X0182240Y0303760D03*
X0183256Y0307146D03*
X0183594Y0307146D03*
X0183933Y0307146D03*
X0184272Y0307146D03*
X0184610Y0307146D03*
D46*
X0197476Y0305622D03*
X0200862Y0305622D03*
X0203232Y0305961D03*
D47*
X0202894Y0306130D03*
X0201201Y0305453D03*
X0197138Y0305453D03*
D48*
X0194091Y0305453D03*
X0202555Y0306130D03*
X0182240Y0306130D03*
D49*
X0182917Y0304098D03*
X0202217Y0306130D03*
D50*
X0194768Y0304945D03*
X0194429Y0304945D03*
X0193752Y0304945D03*
X0193413Y0304945D03*
D51*
X0192059Y0305283D03*
X0183594Y0304606D03*
X0183256Y0304606D03*
X0182917Y0306299D03*
X0182579Y0306299D03*
D52*
X0183933Y0304606D03*
X0182579Y0303929D03*
D53*
X0196398Y0256758D02*
X0191166Y0254854D01*
X0189502Y0251286D01*
X0196398Y0256758D02*
X0232080Y0240120D01*
X0233984Y0234888D01*
X0232320Y0231320D01*
X0227329Y0220615D02*
X0224001Y0213479D01*
X0219009Y0202775D02*
X0217345Y0199206D01*
X0212114Y0197302D01*
X0176432Y0213941D01*
X0174528Y0219173D01*
X0176192Y0222741D01*
X0181183Y0233445D02*
X0184511Y0240582D01*
X0190476Y0227030D02*
X0190480Y0227368D01*
X0190493Y0227706D01*
X0190513Y0228044D01*
X0190542Y0228381D01*
X0190580Y0228717D01*
X0190625Y0229052D01*
X0190679Y0229386D01*
X0190741Y0229718D01*
X0190811Y0230049D01*
X0190889Y0230378D01*
X0190975Y0230705D01*
X0191069Y0231030D01*
X0191172Y0231353D01*
X0191282Y0231672D01*
X0191399Y0231989D01*
X0191525Y0232303D01*
X0191658Y0232614D01*
X0191799Y0232922D01*
X0191947Y0233226D01*
X0192103Y0233526D01*
X0192266Y0233822D01*
X0192436Y0234114D01*
X0192614Y0234402D01*
X0192798Y0234686D01*
X0192990Y0234965D01*
X0193188Y0235239D01*
X0193393Y0235508D01*
X0193604Y0235772D01*
X0193822Y0236031D01*
X0194046Y0236284D01*
X0194276Y0236532D01*
X0194512Y0236774D01*
X0194754Y0237010D01*
X0195002Y0237240D01*
X0195255Y0237464D01*
X0195514Y0237682D01*
X0195778Y0237893D01*
X0196047Y0238098D01*
X0196321Y0238296D01*
X0196600Y0238488D01*
X0196884Y0238672D01*
X0197172Y0238850D01*
X0197464Y0239020D01*
X0197760Y0239183D01*
X0198060Y0239339D01*
X0198364Y0239487D01*
X0198672Y0239628D01*
X0198983Y0239761D01*
X0199297Y0239887D01*
X0199614Y0240004D01*
X0199933Y0240114D01*
X0200256Y0240217D01*
X0200581Y0240311D01*
X0200908Y0240397D01*
X0201237Y0240475D01*
X0201568Y0240545D01*
X0201900Y0240607D01*
X0202234Y0240661D01*
X0202569Y0240706D01*
X0202905Y0240744D01*
X0203242Y0240773D01*
X0203580Y0240793D01*
X0203918Y0240806D01*
X0204256Y0240810D01*
X0204594Y0240806D01*
X0204932Y0240793D01*
X0205270Y0240773D01*
X0205607Y0240744D01*
X0205943Y0240706D01*
X0206278Y0240661D01*
X0206612Y0240607D01*
X0206944Y0240545D01*
X0207275Y0240475D01*
X0207604Y0240397D01*
X0207931Y0240311D01*
X0208256Y0240217D01*
X0208579Y0240114D01*
X0208898Y0240004D01*
X0209215Y0239887D01*
X0209529Y0239761D01*
X0209840Y0239628D01*
X0210148Y0239487D01*
X0210452Y0239339D01*
X0210752Y0239183D01*
X0211048Y0239020D01*
X0211340Y0238850D01*
X0211628Y0238672D01*
X0211912Y0238488D01*
X0212191Y0238296D01*
X0212465Y0238098D01*
X0212734Y0237893D01*
X0212998Y0237682D01*
X0213257Y0237464D01*
X0213510Y0237240D01*
X0213758Y0237010D01*
X0214000Y0236774D01*
X0214236Y0236532D01*
X0214466Y0236284D01*
X0214690Y0236031D01*
X0214908Y0235772D01*
X0215119Y0235508D01*
X0215324Y0235239D01*
X0215522Y0234965D01*
X0215714Y0234686D01*
X0215898Y0234402D01*
X0216076Y0234114D01*
X0216246Y0233822D01*
X0216409Y0233526D01*
X0216565Y0233226D01*
X0216713Y0232922D01*
X0216854Y0232614D01*
X0216987Y0232303D01*
X0217113Y0231989D01*
X0217230Y0231672D01*
X0217340Y0231353D01*
X0217443Y0231030D01*
X0217537Y0230705D01*
X0217623Y0230378D01*
X0217701Y0230049D01*
X0217771Y0229718D01*
X0217833Y0229386D01*
X0217887Y0229052D01*
X0217932Y0228717D01*
X0217970Y0228381D01*
X0217999Y0228044D01*
X0218019Y0227706D01*
X0218032Y0227368D01*
X0218036Y0227030D01*
X0218032Y0226692D01*
X0218019Y0226354D01*
X0217999Y0226016D01*
X0217970Y0225679D01*
X0217932Y0225343D01*
X0217887Y0225008D01*
X0217833Y0224674D01*
X0217771Y0224342D01*
X0217701Y0224011D01*
X0217623Y0223682D01*
X0217537Y0223355D01*
X0217443Y0223030D01*
X0217340Y0222707D01*
X0217230Y0222388D01*
X0217113Y0222071D01*
X0216987Y0221757D01*
X0216854Y0221446D01*
X0216713Y0221138D01*
X0216565Y0220834D01*
X0216409Y0220534D01*
X0216246Y0220238D01*
X0216076Y0219946D01*
X0215898Y0219658D01*
X0215714Y0219374D01*
X0215522Y0219095D01*
X0215324Y0218821D01*
X0215119Y0218552D01*
X0214908Y0218288D01*
X0214690Y0218029D01*
X0214466Y0217776D01*
X0214236Y0217528D01*
X0214000Y0217286D01*
X0213758Y0217050D01*
X0213510Y0216820D01*
X0213257Y0216596D01*
X0212998Y0216378D01*
X0212734Y0216167D01*
X0212465Y0215962D01*
X0212191Y0215764D01*
X0211912Y0215572D01*
X0211628Y0215388D01*
X0211340Y0215210D01*
X0211048Y0215040D01*
X0210752Y0214877D01*
X0210452Y0214721D01*
X0210148Y0214573D01*
X0209840Y0214432D01*
X0209529Y0214299D01*
X0209215Y0214173D01*
X0208898Y0214056D01*
X0208579Y0213946D01*
X0208256Y0213843D01*
X0207931Y0213749D01*
X0207604Y0213663D01*
X0207275Y0213585D01*
X0206944Y0213515D01*
X0206612Y0213453D01*
X0206278Y0213399D01*
X0205943Y0213354D01*
X0205607Y0213316D01*
X0205270Y0213287D01*
X0204932Y0213267D01*
X0204594Y0213254D01*
X0204256Y0213250D01*
X0203918Y0213254D01*
X0203580Y0213267D01*
X0203242Y0213287D01*
X0202905Y0213316D01*
X0202569Y0213354D01*
X0202234Y0213399D01*
X0201900Y0213453D01*
X0201568Y0213515D01*
X0201237Y0213585D01*
X0200908Y0213663D01*
X0200581Y0213749D01*
X0200256Y0213843D01*
X0199933Y0213946D01*
X0199614Y0214056D01*
X0199297Y0214173D01*
X0198983Y0214299D01*
X0198672Y0214432D01*
X0198364Y0214573D01*
X0198060Y0214721D01*
X0197760Y0214877D01*
X0197464Y0215040D01*
X0197172Y0215210D01*
X0196884Y0215388D01*
X0196600Y0215572D01*
X0196321Y0215764D01*
X0196047Y0215962D01*
X0195778Y0216167D01*
X0195514Y0216378D01*
X0195255Y0216596D01*
X0195002Y0216820D01*
X0194754Y0217050D01*
X0194512Y0217286D01*
X0194276Y0217528D01*
X0194046Y0217776D01*
X0193822Y0218029D01*
X0193604Y0218288D01*
X0193393Y0218552D01*
X0193188Y0218821D01*
X0192990Y0219095D01*
X0192798Y0219374D01*
X0192614Y0219658D01*
X0192436Y0219946D01*
X0192266Y0220238D01*
X0192103Y0220534D01*
X0191947Y0220834D01*
X0191799Y0221138D01*
X0191658Y0221446D01*
X0191525Y0221757D01*
X0191399Y0222071D01*
X0191282Y0222388D01*
X0191172Y0222707D01*
X0191069Y0223030D01*
X0190975Y0223355D01*
X0190889Y0223682D01*
X0190811Y0224011D01*
X0190741Y0224342D01*
X0190679Y0224674D01*
X0190625Y0225008D01*
X0190580Y0225343D01*
X0190542Y0225679D01*
X0190513Y0226016D01*
X0190493Y0226354D01*
X0190480Y0226692D01*
X0190476Y0227030D01*
X0258981Y0136110D02*
X0258983Y0136268D01*
X0258989Y0136426D01*
X0258999Y0136584D01*
X0259013Y0136742D01*
X0259031Y0136899D01*
X0259052Y0137056D01*
X0259078Y0137212D01*
X0259108Y0137368D01*
X0259141Y0137523D01*
X0259179Y0137676D01*
X0259220Y0137829D01*
X0259265Y0137981D01*
X0259314Y0138132D01*
X0259367Y0138281D01*
X0259423Y0138429D01*
X0259483Y0138575D01*
X0259547Y0138720D01*
X0259615Y0138863D01*
X0259686Y0139005D01*
X0259760Y0139145D01*
X0259838Y0139282D01*
X0259920Y0139418D01*
X0260004Y0139552D01*
X0260093Y0139683D01*
X0260184Y0139812D01*
X0260279Y0139939D01*
X0260376Y0140064D01*
X0260477Y0140186D01*
X0260581Y0140305D01*
X0260688Y0140422D01*
X0260798Y0140536D01*
X0260911Y0140647D01*
X0261026Y0140756D01*
X0261144Y0140861D01*
X0261265Y0140963D01*
X0261388Y0141063D01*
X0261514Y0141159D01*
X0261642Y0141252D01*
X0261772Y0141342D01*
X0261905Y0141428D01*
X0262040Y0141512D01*
X0262176Y0141591D01*
X0262315Y0141668D01*
X0262456Y0141740D01*
X0262598Y0141810D01*
X0262742Y0141875D01*
X0262888Y0141937D01*
X0263035Y0141995D01*
X0263184Y0142050D01*
X0263334Y0142101D01*
X0263485Y0142148D01*
X0263637Y0142191D01*
X0263790Y0142230D01*
X0263945Y0142266D01*
X0264100Y0142297D01*
X0264256Y0142325D01*
X0264412Y0142349D01*
X0264569Y0142369D01*
X0264727Y0142385D01*
X0264884Y0142397D01*
X0265043Y0142405D01*
X0265201Y0142409D01*
X0265359Y0142409D01*
X0265517Y0142405D01*
X0265676Y0142397D01*
X0265833Y0142385D01*
X0265991Y0142369D01*
X0266148Y0142349D01*
X0266304Y0142325D01*
X0266460Y0142297D01*
X0266615Y0142266D01*
X0266770Y0142230D01*
X0266923Y0142191D01*
X0267075Y0142148D01*
X0267226Y0142101D01*
X0267376Y0142050D01*
X0267525Y0141995D01*
X0267672Y0141937D01*
X0267818Y0141875D01*
X0267962Y0141810D01*
X0268104Y0141740D01*
X0268245Y0141668D01*
X0268384Y0141591D01*
X0268520Y0141512D01*
X0268655Y0141428D01*
X0268788Y0141342D01*
X0268918Y0141252D01*
X0269046Y0141159D01*
X0269172Y0141063D01*
X0269295Y0140963D01*
X0269416Y0140861D01*
X0269534Y0140756D01*
X0269649Y0140647D01*
X0269762Y0140536D01*
X0269872Y0140422D01*
X0269979Y0140305D01*
X0270083Y0140186D01*
X0270184Y0140064D01*
X0270281Y0139939D01*
X0270376Y0139812D01*
X0270467Y0139683D01*
X0270556Y0139552D01*
X0270640Y0139418D01*
X0270722Y0139282D01*
X0270800Y0139145D01*
X0270874Y0139005D01*
X0270945Y0138863D01*
X0271013Y0138720D01*
X0271077Y0138575D01*
X0271137Y0138429D01*
X0271193Y0138281D01*
X0271246Y0138132D01*
X0271295Y0137981D01*
X0271340Y0137829D01*
X0271381Y0137676D01*
X0271419Y0137523D01*
X0271452Y0137368D01*
X0271482Y0137212D01*
X0271508Y0137056D01*
X0271529Y0136899D01*
X0271547Y0136742D01*
X0271561Y0136584D01*
X0271571Y0136426D01*
X0271577Y0136268D01*
X0271579Y0136110D01*
X0271577Y0135952D01*
X0271571Y0135794D01*
X0271561Y0135636D01*
X0271547Y0135478D01*
X0271529Y0135321D01*
X0271508Y0135164D01*
X0271482Y0135008D01*
X0271452Y0134852D01*
X0271419Y0134697D01*
X0271381Y0134544D01*
X0271340Y0134391D01*
X0271295Y0134239D01*
X0271246Y0134088D01*
X0271193Y0133939D01*
X0271137Y0133791D01*
X0271077Y0133645D01*
X0271013Y0133500D01*
X0270945Y0133357D01*
X0270874Y0133215D01*
X0270800Y0133075D01*
X0270722Y0132938D01*
X0270640Y0132802D01*
X0270556Y0132668D01*
X0270467Y0132537D01*
X0270376Y0132408D01*
X0270281Y0132281D01*
X0270184Y0132156D01*
X0270083Y0132034D01*
X0269979Y0131915D01*
X0269872Y0131798D01*
X0269762Y0131684D01*
X0269649Y0131573D01*
X0269534Y0131464D01*
X0269416Y0131359D01*
X0269295Y0131257D01*
X0269172Y0131157D01*
X0269046Y0131061D01*
X0268918Y0130968D01*
X0268788Y0130878D01*
X0268655Y0130792D01*
X0268520Y0130708D01*
X0268384Y0130629D01*
X0268245Y0130552D01*
X0268104Y0130480D01*
X0267962Y0130410D01*
X0267818Y0130345D01*
X0267672Y0130283D01*
X0267525Y0130225D01*
X0267376Y0130170D01*
X0267226Y0130119D01*
X0267075Y0130072D01*
X0266923Y0130029D01*
X0266770Y0129990D01*
X0266615Y0129954D01*
X0266460Y0129923D01*
X0266304Y0129895D01*
X0266148Y0129871D01*
X0265991Y0129851D01*
X0265833Y0129835D01*
X0265676Y0129823D01*
X0265517Y0129815D01*
X0265359Y0129811D01*
X0265201Y0129811D01*
X0265043Y0129815D01*
X0264884Y0129823D01*
X0264727Y0129835D01*
X0264569Y0129851D01*
X0264412Y0129871D01*
X0264256Y0129895D01*
X0264100Y0129923D01*
X0263945Y0129954D01*
X0263790Y0129990D01*
X0263637Y0130029D01*
X0263485Y0130072D01*
X0263334Y0130119D01*
X0263184Y0130170D01*
X0263035Y0130225D01*
X0262888Y0130283D01*
X0262742Y0130345D01*
X0262598Y0130410D01*
X0262456Y0130480D01*
X0262315Y0130552D01*
X0262176Y0130629D01*
X0262040Y0130708D01*
X0261905Y0130792D01*
X0261772Y0130878D01*
X0261642Y0130968D01*
X0261514Y0131061D01*
X0261388Y0131157D01*
X0261265Y0131257D01*
X0261144Y0131359D01*
X0261026Y0131464D01*
X0260911Y0131573D01*
X0260798Y0131684D01*
X0260688Y0131798D01*
X0260581Y0131915D01*
X0260477Y0132034D01*
X0260376Y0132156D01*
X0260279Y0132281D01*
X0260184Y0132408D01*
X0260093Y0132537D01*
X0260004Y0132668D01*
X0259920Y0132802D01*
X0259838Y0132938D01*
X0259760Y0133075D01*
X0259686Y0133215D01*
X0259615Y0133357D01*
X0259547Y0133500D01*
X0259483Y0133645D01*
X0259423Y0133791D01*
X0259367Y0133939D01*
X0259314Y0134088D01*
X0259265Y0134239D01*
X0259220Y0134391D01*
X0259179Y0134544D01*
X0259141Y0134697D01*
X0259108Y0134852D01*
X0259078Y0135008D01*
X0259052Y0135164D01*
X0259031Y0135321D01*
X0259013Y0135478D01*
X0258999Y0135636D01*
X0258989Y0135794D01*
X0258983Y0135952D01*
X0258981Y0136110D01*
X0210754Y0067750D02*
X0212659Y0062518D01*
X0210995Y0058950D01*
X0210754Y0067750D02*
X0175073Y0084388D01*
X0169841Y0082484D01*
X0168177Y0078916D01*
X0163185Y0068211D02*
X0159858Y0061075D01*
X0154866Y0050371D02*
X0153202Y0046803D01*
X0155107Y0041571D01*
X0190788Y0024932D01*
X0196020Y0026836D01*
X0197684Y0030405D01*
X0202675Y0041109D02*
X0206003Y0048245D01*
X0169150Y0054660D02*
X0169154Y0054998D01*
X0169167Y0055336D01*
X0169187Y0055674D01*
X0169216Y0056011D01*
X0169254Y0056347D01*
X0169299Y0056682D01*
X0169353Y0057016D01*
X0169415Y0057348D01*
X0169485Y0057679D01*
X0169563Y0058008D01*
X0169649Y0058335D01*
X0169743Y0058660D01*
X0169846Y0058983D01*
X0169956Y0059302D01*
X0170073Y0059619D01*
X0170199Y0059933D01*
X0170332Y0060244D01*
X0170473Y0060552D01*
X0170621Y0060856D01*
X0170777Y0061156D01*
X0170940Y0061452D01*
X0171110Y0061744D01*
X0171288Y0062032D01*
X0171472Y0062316D01*
X0171664Y0062595D01*
X0171862Y0062869D01*
X0172067Y0063138D01*
X0172278Y0063402D01*
X0172496Y0063661D01*
X0172720Y0063914D01*
X0172950Y0064162D01*
X0173186Y0064404D01*
X0173428Y0064640D01*
X0173676Y0064870D01*
X0173929Y0065094D01*
X0174188Y0065312D01*
X0174452Y0065523D01*
X0174721Y0065728D01*
X0174995Y0065926D01*
X0175274Y0066118D01*
X0175558Y0066302D01*
X0175846Y0066480D01*
X0176138Y0066650D01*
X0176434Y0066813D01*
X0176734Y0066969D01*
X0177038Y0067117D01*
X0177346Y0067258D01*
X0177657Y0067391D01*
X0177971Y0067517D01*
X0178288Y0067634D01*
X0178607Y0067744D01*
X0178930Y0067847D01*
X0179255Y0067941D01*
X0179582Y0068027D01*
X0179911Y0068105D01*
X0180242Y0068175D01*
X0180574Y0068237D01*
X0180908Y0068291D01*
X0181243Y0068336D01*
X0181579Y0068374D01*
X0181916Y0068403D01*
X0182254Y0068423D01*
X0182592Y0068436D01*
X0182930Y0068440D01*
X0183268Y0068436D01*
X0183606Y0068423D01*
X0183944Y0068403D01*
X0184281Y0068374D01*
X0184617Y0068336D01*
X0184952Y0068291D01*
X0185286Y0068237D01*
X0185618Y0068175D01*
X0185949Y0068105D01*
X0186278Y0068027D01*
X0186605Y0067941D01*
X0186930Y0067847D01*
X0187253Y0067744D01*
X0187572Y0067634D01*
X0187889Y0067517D01*
X0188203Y0067391D01*
X0188514Y0067258D01*
X0188822Y0067117D01*
X0189126Y0066969D01*
X0189426Y0066813D01*
X0189722Y0066650D01*
X0190014Y0066480D01*
X0190302Y0066302D01*
X0190586Y0066118D01*
X0190865Y0065926D01*
X0191139Y0065728D01*
X0191408Y0065523D01*
X0191672Y0065312D01*
X0191931Y0065094D01*
X0192184Y0064870D01*
X0192432Y0064640D01*
X0192674Y0064404D01*
X0192910Y0064162D01*
X0193140Y0063914D01*
X0193364Y0063661D01*
X0193582Y0063402D01*
X0193793Y0063138D01*
X0193998Y0062869D01*
X0194196Y0062595D01*
X0194388Y0062316D01*
X0194572Y0062032D01*
X0194750Y0061744D01*
X0194920Y0061452D01*
X0195083Y0061156D01*
X0195239Y0060856D01*
X0195387Y0060552D01*
X0195528Y0060244D01*
X0195661Y0059933D01*
X0195787Y0059619D01*
X0195904Y0059302D01*
X0196014Y0058983D01*
X0196117Y0058660D01*
X0196211Y0058335D01*
X0196297Y0058008D01*
X0196375Y0057679D01*
X0196445Y0057348D01*
X0196507Y0057016D01*
X0196561Y0056682D01*
X0196606Y0056347D01*
X0196644Y0056011D01*
X0196673Y0055674D01*
X0196693Y0055336D01*
X0196706Y0054998D01*
X0196710Y0054660D01*
X0196706Y0054322D01*
X0196693Y0053984D01*
X0196673Y0053646D01*
X0196644Y0053309D01*
X0196606Y0052973D01*
X0196561Y0052638D01*
X0196507Y0052304D01*
X0196445Y0051972D01*
X0196375Y0051641D01*
X0196297Y0051312D01*
X0196211Y0050985D01*
X0196117Y0050660D01*
X0196014Y0050337D01*
X0195904Y0050018D01*
X0195787Y0049701D01*
X0195661Y0049387D01*
X0195528Y0049076D01*
X0195387Y0048768D01*
X0195239Y0048464D01*
X0195083Y0048164D01*
X0194920Y0047868D01*
X0194750Y0047576D01*
X0194572Y0047288D01*
X0194388Y0047004D01*
X0194196Y0046725D01*
X0193998Y0046451D01*
X0193793Y0046182D01*
X0193582Y0045918D01*
X0193364Y0045659D01*
X0193140Y0045406D01*
X0192910Y0045158D01*
X0192674Y0044916D01*
X0192432Y0044680D01*
X0192184Y0044450D01*
X0191931Y0044226D01*
X0191672Y0044008D01*
X0191408Y0043797D01*
X0191139Y0043592D01*
X0190865Y0043394D01*
X0190586Y0043202D01*
X0190302Y0043018D01*
X0190014Y0042840D01*
X0189722Y0042670D01*
X0189426Y0042507D01*
X0189126Y0042351D01*
X0188822Y0042203D01*
X0188514Y0042062D01*
X0188203Y0041929D01*
X0187889Y0041803D01*
X0187572Y0041686D01*
X0187253Y0041576D01*
X0186930Y0041473D01*
X0186605Y0041379D01*
X0186278Y0041293D01*
X0185949Y0041215D01*
X0185618Y0041145D01*
X0185286Y0041083D01*
X0184952Y0041029D01*
X0184617Y0040984D01*
X0184281Y0040946D01*
X0183944Y0040917D01*
X0183606Y0040897D01*
X0183268Y0040884D01*
X0182930Y0040880D01*
X0182592Y0040884D01*
X0182254Y0040897D01*
X0181916Y0040917D01*
X0181579Y0040946D01*
X0181243Y0040984D01*
X0180908Y0041029D01*
X0180574Y0041083D01*
X0180242Y0041145D01*
X0179911Y0041215D01*
X0179582Y0041293D01*
X0179255Y0041379D01*
X0178930Y0041473D01*
X0178607Y0041576D01*
X0178288Y0041686D01*
X0177971Y0041803D01*
X0177657Y0041929D01*
X0177346Y0042062D01*
X0177038Y0042203D01*
X0176734Y0042351D01*
X0176434Y0042507D01*
X0176138Y0042670D01*
X0175846Y0042840D01*
X0175558Y0043018D01*
X0175274Y0043202D01*
X0174995Y0043394D01*
X0174721Y0043592D01*
X0174452Y0043797D01*
X0174188Y0044008D01*
X0173929Y0044226D01*
X0173676Y0044450D01*
X0173428Y0044680D01*
X0173186Y0044916D01*
X0172950Y0045158D01*
X0172720Y0045406D01*
X0172496Y0045659D01*
X0172278Y0045918D01*
X0172067Y0046182D01*
X0171862Y0046451D01*
X0171664Y0046725D01*
X0171472Y0047004D01*
X0171288Y0047288D01*
X0171110Y0047576D01*
X0170940Y0047868D01*
X0170777Y0048164D01*
X0170621Y0048464D01*
X0170473Y0048768D01*
X0170332Y0049076D01*
X0170199Y0049387D01*
X0170073Y0049701D01*
X0169956Y0050018D01*
X0169846Y0050337D01*
X0169743Y0050660D01*
X0169649Y0050985D01*
X0169563Y0051312D01*
X0169485Y0051641D01*
X0169415Y0051972D01*
X0169353Y0052304D01*
X0169299Y0052638D01*
X0169254Y0052973D01*
X0169216Y0053309D01*
X0169187Y0053646D01*
X0169167Y0053984D01*
X0169154Y0054322D01*
X0169150Y0054660D01*
X0129325Y0046803D02*
X0127421Y0041571D01*
X0091739Y0024932D01*
X0086507Y0026836D01*
X0084844Y0030405D01*
X0079852Y0041109D02*
X0076524Y0048245D01*
X0071533Y0058950D02*
X0069869Y0062518D01*
X0071773Y0067750D01*
X0107455Y0084388D01*
X0112687Y0082484D01*
X0114351Y0078916D01*
X0119342Y0068211D02*
X0122670Y0061075D01*
X0127661Y0050371D02*
X0129325Y0046803D01*
X0085817Y0054660D02*
X0085821Y0054998D01*
X0085834Y0055336D01*
X0085854Y0055674D01*
X0085883Y0056011D01*
X0085921Y0056347D01*
X0085966Y0056682D01*
X0086020Y0057016D01*
X0086082Y0057348D01*
X0086152Y0057679D01*
X0086230Y0058008D01*
X0086316Y0058335D01*
X0086410Y0058660D01*
X0086513Y0058983D01*
X0086623Y0059302D01*
X0086740Y0059619D01*
X0086866Y0059933D01*
X0086999Y0060244D01*
X0087140Y0060552D01*
X0087288Y0060856D01*
X0087444Y0061156D01*
X0087607Y0061452D01*
X0087777Y0061744D01*
X0087955Y0062032D01*
X0088139Y0062316D01*
X0088331Y0062595D01*
X0088529Y0062869D01*
X0088734Y0063138D01*
X0088945Y0063402D01*
X0089163Y0063661D01*
X0089387Y0063914D01*
X0089617Y0064162D01*
X0089853Y0064404D01*
X0090095Y0064640D01*
X0090343Y0064870D01*
X0090596Y0065094D01*
X0090855Y0065312D01*
X0091119Y0065523D01*
X0091388Y0065728D01*
X0091662Y0065926D01*
X0091941Y0066118D01*
X0092225Y0066302D01*
X0092513Y0066480D01*
X0092805Y0066650D01*
X0093101Y0066813D01*
X0093401Y0066969D01*
X0093705Y0067117D01*
X0094013Y0067258D01*
X0094324Y0067391D01*
X0094638Y0067517D01*
X0094955Y0067634D01*
X0095274Y0067744D01*
X0095597Y0067847D01*
X0095922Y0067941D01*
X0096249Y0068027D01*
X0096578Y0068105D01*
X0096909Y0068175D01*
X0097241Y0068237D01*
X0097575Y0068291D01*
X0097910Y0068336D01*
X0098246Y0068374D01*
X0098583Y0068403D01*
X0098921Y0068423D01*
X0099259Y0068436D01*
X0099597Y0068440D01*
X0099935Y0068436D01*
X0100273Y0068423D01*
X0100611Y0068403D01*
X0100948Y0068374D01*
X0101284Y0068336D01*
X0101619Y0068291D01*
X0101953Y0068237D01*
X0102285Y0068175D01*
X0102616Y0068105D01*
X0102945Y0068027D01*
X0103272Y0067941D01*
X0103597Y0067847D01*
X0103920Y0067744D01*
X0104239Y0067634D01*
X0104556Y0067517D01*
X0104870Y0067391D01*
X0105181Y0067258D01*
X0105489Y0067117D01*
X0105793Y0066969D01*
X0106093Y0066813D01*
X0106389Y0066650D01*
X0106681Y0066480D01*
X0106969Y0066302D01*
X0107253Y0066118D01*
X0107532Y0065926D01*
X0107806Y0065728D01*
X0108075Y0065523D01*
X0108339Y0065312D01*
X0108598Y0065094D01*
X0108851Y0064870D01*
X0109099Y0064640D01*
X0109341Y0064404D01*
X0109577Y0064162D01*
X0109807Y0063914D01*
X0110031Y0063661D01*
X0110249Y0063402D01*
X0110460Y0063138D01*
X0110665Y0062869D01*
X0110863Y0062595D01*
X0111055Y0062316D01*
X0111239Y0062032D01*
X0111417Y0061744D01*
X0111587Y0061452D01*
X0111750Y0061156D01*
X0111906Y0060856D01*
X0112054Y0060552D01*
X0112195Y0060244D01*
X0112328Y0059933D01*
X0112454Y0059619D01*
X0112571Y0059302D01*
X0112681Y0058983D01*
X0112784Y0058660D01*
X0112878Y0058335D01*
X0112964Y0058008D01*
X0113042Y0057679D01*
X0113112Y0057348D01*
X0113174Y0057016D01*
X0113228Y0056682D01*
X0113273Y0056347D01*
X0113311Y0056011D01*
X0113340Y0055674D01*
X0113360Y0055336D01*
X0113373Y0054998D01*
X0113377Y0054660D01*
X0113373Y0054322D01*
X0113360Y0053984D01*
X0113340Y0053646D01*
X0113311Y0053309D01*
X0113273Y0052973D01*
X0113228Y0052638D01*
X0113174Y0052304D01*
X0113112Y0051972D01*
X0113042Y0051641D01*
X0112964Y0051312D01*
X0112878Y0050985D01*
X0112784Y0050660D01*
X0112681Y0050337D01*
X0112571Y0050018D01*
X0112454Y0049701D01*
X0112328Y0049387D01*
X0112195Y0049076D01*
X0112054Y0048768D01*
X0111906Y0048464D01*
X0111750Y0048164D01*
X0111587Y0047868D01*
X0111417Y0047576D01*
X0111239Y0047288D01*
X0111055Y0047004D01*
X0110863Y0046725D01*
X0110665Y0046451D01*
X0110460Y0046182D01*
X0110249Y0045918D01*
X0110031Y0045659D01*
X0109807Y0045406D01*
X0109577Y0045158D01*
X0109341Y0044916D01*
X0109099Y0044680D01*
X0108851Y0044450D01*
X0108598Y0044226D01*
X0108339Y0044008D01*
X0108075Y0043797D01*
X0107806Y0043592D01*
X0107532Y0043394D01*
X0107253Y0043202D01*
X0106969Y0043018D01*
X0106681Y0042840D01*
X0106389Y0042670D01*
X0106093Y0042507D01*
X0105793Y0042351D01*
X0105489Y0042203D01*
X0105181Y0042062D01*
X0104870Y0041929D01*
X0104556Y0041803D01*
X0104239Y0041686D01*
X0103920Y0041576D01*
X0103597Y0041473D01*
X0103272Y0041379D01*
X0102945Y0041293D01*
X0102616Y0041215D01*
X0102285Y0041145D01*
X0101953Y0041083D01*
X0101619Y0041029D01*
X0101284Y0040984D01*
X0100948Y0040946D01*
X0100611Y0040917D01*
X0100273Y0040897D01*
X0099935Y0040884D01*
X0099597Y0040880D01*
X0099259Y0040884D01*
X0098921Y0040897D01*
X0098583Y0040917D01*
X0098246Y0040946D01*
X0097910Y0040984D01*
X0097575Y0041029D01*
X0097241Y0041083D01*
X0096909Y0041145D01*
X0096578Y0041215D01*
X0096249Y0041293D01*
X0095922Y0041379D01*
X0095597Y0041473D01*
X0095274Y0041576D01*
X0094955Y0041686D01*
X0094638Y0041803D01*
X0094324Y0041929D01*
X0094013Y0042062D01*
X0093705Y0042203D01*
X0093401Y0042351D01*
X0093101Y0042507D01*
X0092805Y0042670D01*
X0092513Y0042840D01*
X0092225Y0043018D01*
X0091941Y0043202D01*
X0091662Y0043394D01*
X0091388Y0043592D01*
X0091119Y0043797D01*
X0090855Y0044008D01*
X0090596Y0044226D01*
X0090343Y0044450D01*
X0090095Y0044680D01*
X0089853Y0044916D01*
X0089617Y0045158D01*
X0089387Y0045406D01*
X0089163Y0045659D01*
X0088945Y0045918D01*
X0088734Y0046182D01*
X0088529Y0046451D01*
X0088331Y0046725D01*
X0088139Y0047004D01*
X0087955Y0047288D01*
X0087777Y0047576D01*
X0087607Y0047868D01*
X0087444Y0048164D01*
X0087288Y0048464D01*
X0087140Y0048768D01*
X0086999Y0049076D01*
X0086866Y0049387D01*
X0086740Y0049701D01*
X0086623Y0050018D01*
X0086513Y0050337D01*
X0086410Y0050660D01*
X0086316Y0050985D01*
X0086230Y0051312D01*
X0086152Y0051641D01*
X0086082Y0051972D01*
X0086020Y0052304D01*
X0085966Y0052638D01*
X0085921Y0052973D01*
X0085883Y0053309D01*
X0085854Y0053646D01*
X0085834Y0053984D01*
X0085821Y0054322D01*
X0085817Y0054660D01*
X0010949Y0018000D02*
X0010951Y0018158D01*
X0010957Y0018316D01*
X0010967Y0018474D01*
X0010981Y0018632D01*
X0010999Y0018789D01*
X0011020Y0018946D01*
X0011046Y0019102D01*
X0011076Y0019258D01*
X0011109Y0019413D01*
X0011147Y0019566D01*
X0011188Y0019719D01*
X0011233Y0019871D01*
X0011282Y0020022D01*
X0011335Y0020171D01*
X0011391Y0020319D01*
X0011451Y0020465D01*
X0011515Y0020610D01*
X0011583Y0020753D01*
X0011654Y0020895D01*
X0011728Y0021035D01*
X0011806Y0021172D01*
X0011888Y0021308D01*
X0011972Y0021442D01*
X0012061Y0021573D01*
X0012152Y0021702D01*
X0012247Y0021829D01*
X0012344Y0021954D01*
X0012445Y0022076D01*
X0012549Y0022195D01*
X0012656Y0022312D01*
X0012766Y0022426D01*
X0012879Y0022537D01*
X0012994Y0022646D01*
X0013112Y0022751D01*
X0013233Y0022853D01*
X0013356Y0022953D01*
X0013482Y0023049D01*
X0013610Y0023142D01*
X0013740Y0023232D01*
X0013873Y0023318D01*
X0014008Y0023402D01*
X0014144Y0023481D01*
X0014283Y0023558D01*
X0014424Y0023630D01*
X0014566Y0023700D01*
X0014710Y0023765D01*
X0014856Y0023827D01*
X0015003Y0023885D01*
X0015152Y0023940D01*
X0015302Y0023991D01*
X0015453Y0024038D01*
X0015605Y0024081D01*
X0015758Y0024120D01*
X0015913Y0024156D01*
X0016068Y0024187D01*
X0016224Y0024215D01*
X0016380Y0024239D01*
X0016537Y0024259D01*
X0016695Y0024275D01*
X0016852Y0024287D01*
X0017011Y0024295D01*
X0017169Y0024299D01*
X0017327Y0024299D01*
X0017485Y0024295D01*
X0017644Y0024287D01*
X0017801Y0024275D01*
X0017959Y0024259D01*
X0018116Y0024239D01*
X0018272Y0024215D01*
X0018428Y0024187D01*
X0018583Y0024156D01*
X0018738Y0024120D01*
X0018891Y0024081D01*
X0019043Y0024038D01*
X0019194Y0023991D01*
X0019344Y0023940D01*
X0019493Y0023885D01*
X0019640Y0023827D01*
X0019786Y0023765D01*
X0019930Y0023700D01*
X0020072Y0023630D01*
X0020213Y0023558D01*
X0020352Y0023481D01*
X0020488Y0023402D01*
X0020623Y0023318D01*
X0020756Y0023232D01*
X0020886Y0023142D01*
X0021014Y0023049D01*
X0021140Y0022953D01*
X0021263Y0022853D01*
X0021384Y0022751D01*
X0021502Y0022646D01*
X0021617Y0022537D01*
X0021730Y0022426D01*
X0021840Y0022312D01*
X0021947Y0022195D01*
X0022051Y0022076D01*
X0022152Y0021954D01*
X0022249Y0021829D01*
X0022344Y0021702D01*
X0022435Y0021573D01*
X0022524Y0021442D01*
X0022608Y0021308D01*
X0022690Y0021172D01*
X0022768Y0021035D01*
X0022842Y0020895D01*
X0022913Y0020753D01*
X0022981Y0020610D01*
X0023045Y0020465D01*
X0023105Y0020319D01*
X0023161Y0020171D01*
X0023214Y0020022D01*
X0023263Y0019871D01*
X0023308Y0019719D01*
X0023349Y0019566D01*
X0023387Y0019413D01*
X0023420Y0019258D01*
X0023450Y0019102D01*
X0023476Y0018946D01*
X0023497Y0018789D01*
X0023515Y0018632D01*
X0023529Y0018474D01*
X0023539Y0018316D01*
X0023545Y0018158D01*
X0023547Y0018000D01*
X0023545Y0017842D01*
X0023539Y0017684D01*
X0023529Y0017526D01*
X0023515Y0017368D01*
X0023497Y0017211D01*
X0023476Y0017054D01*
X0023450Y0016898D01*
X0023420Y0016742D01*
X0023387Y0016587D01*
X0023349Y0016434D01*
X0023308Y0016281D01*
X0023263Y0016129D01*
X0023214Y0015978D01*
X0023161Y0015829D01*
X0023105Y0015681D01*
X0023045Y0015535D01*
X0022981Y0015390D01*
X0022913Y0015247D01*
X0022842Y0015105D01*
X0022768Y0014965D01*
X0022690Y0014828D01*
X0022608Y0014692D01*
X0022524Y0014558D01*
X0022435Y0014427D01*
X0022344Y0014298D01*
X0022249Y0014171D01*
X0022152Y0014046D01*
X0022051Y0013924D01*
X0021947Y0013805D01*
X0021840Y0013688D01*
X0021730Y0013574D01*
X0021617Y0013463D01*
X0021502Y0013354D01*
X0021384Y0013249D01*
X0021263Y0013147D01*
X0021140Y0013047D01*
X0021014Y0012951D01*
X0020886Y0012858D01*
X0020756Y0012768D01*
X0020623Y0012682D01*
X0020488Y0012598D01*
X0020352Y0012519D01*
X0020213Y0012442D01*
X0020072Y0012370D01*
X0019930Y0012300D01*
X0019786Y0012235D01*
X0019640Y0012173D01*
X0019493Y0012115D01*
X0019344Y0012060D01*
X0019194Y0012009D01*
X0019043Y0011962D01*
X0018891Y0011919D01*
X0018738Y0011880D01*
X0018583Y0011844D01*
X0018428Y0011813D01*
X0018272Y0011785D01*
X0018116Y0011761D01*
X0017959Y0011741D01*
X0017801Y0011725D01*
X0017644Y0011713D01*
X0017485Y0011705D01*
X0017327Y0011701D01*
X0017169Y0011701D01*
X0017011Y0011705D01*
X0016852Y0011713D01*
X0016695Y0011725D01*
X0016537Y0011741D01*
X0016380Y0011761D01*
X0016224Y0011785D01*
X0016068Y0011813D01*
X0015913Y0011844D01*
X0015758Y0011880D01*
X0015605Y0011919D01*
X0015453Y0011962D01*
X0015302Y0012009D01*
X0015152Y0012060D01*
X0015003Y0012115D01*
X0014856Y0012173D01*
X0014710Y0012235D01*
X0014566Y0012300D01*
X0014424Y0012370D01*
X0014283Y0012442D01*
X0014144Y0012519D01*
X0014008Y0012598D01*
X0013873Y0012682D01*
X0013740Y0012768D01*
X0013610Y0012858D01*
X0013482Y0012951D01*
X0013356Y0013047D01*
X0013233Y0013147D01*
X0013112Y0013249D01*
X0012994Y0013354D01*
X0012879Y0013463D01*
X0012766Y0013574D01*
X0012656Y0013688D01*
X0012549Y0013805D01*
X0012445Y0013924D01*
X0012344Y0014046D01*
X0012247Y0014171D01*
X0012152Y0014298D01*
X0012061Y0014427D01*
X0011972Y0014558D01*
X0011888Y0014692D01*
X0011806Y0014828D01*
X0011728Y0014965D01*
X0011654Y0015105D01*
X0011583Y0015247D01*
X0011515Y0015390D01*
X0011451Y0015535D01*
X0011391Y0015681D01*
X0011335Y0015829D01*
X0011282Y0015978D01*
X0011233Y0016129D01*
X0011188Y0016281D01*
X0011147Y0016434D01*
X0011109Y0016587D01*
X0011076Y0016742D01*
X0011046Y0016898D01*
X0011020Y0017054D01*
X0010999Y0017211D01*
X0010981Y0017368D01*
X0010967Y0017526D01*
X0010957Y0017684D01*
X0010951Y0017842D01*
X0010949Y0018000D01*
X0070414Y0197302D02*
X0065182Y0199206D01*
X0063518Y0202775D01*
X0070414Y0197302D02*
X0106095Y0213941D01*
X0108000Y0219173D01*
X0106336Y0222741D01*
X0101344Y0233445D02*
X0098017Y0240582D01*
X0093025Y0251286D02*
X0091361Y0254854D01*
X0086129Y0256758D01*
X0050448Y0240120D01*
X0048544Y0234888D01*
X0050207Y0231320D01*
X0055199Y0220615D02*
X0058527Y0213479D01*
X0064492Y0227030D02*
X0064496Y0227368D01*
X0064509Y0227706D01*
X0064529Y0228044D01*
X0064558Y0228381D01*
X0064596Y0228717D01*
X0064641Y0229052D01*
X0064695Y0229386D01*
X0064757Y0229718D01*
X0064827Y0230049D01*
X0064905Y0230378D01*
X0064991Y0230705D01*
X0065085Y0231030D01*
X0065188Y0231353D01*
X0065298Y0231672D01*
X0065415Y0231989D01*
X0065541Y0232303D01*
X0065674Y0232614D01*
X0065815Y0232922D01*
X0065963Y0233226D01*
X0066119Y0233526D01*
X0066282Y0233822D01*
X0066452Y0234114D01*
X0066630Y0234402D01*
X0066814Y0234686D01*
X0067006Y0234965D01*
X0067204Y0235239D01*
X0067409Y0235508D01*
X0067620Y0235772D01*
X0067838Y0236031D01*
X0068062Y0236284D01*
X0068292Y0236532D01*
X0068528Y0236774D01*
X0068770Y0237010D01*
X0069018Y0237240D01*
X0069271Y0237464D01*
X0069530Y0237682D01*
X0069794Y0237893D01*
X0070063Y0238098D01*
X0070337Y0238296D01*
X0070616Y0238488D01*
X0070900Y0238672D01*
X0071188Y0238850D01*
X0071480Y0239020D01*
X0071776Y0239183D01*
X0072076Y0239339D01*
X0072380Y0239487D01*
X0072688Y0239628D01*
X0072999Y0239761D01*
X0073313Y0239887D01*
X0073630Y0240004D01*
X0073949Y0240114D01*
X0074272Y0240217D01*
X0074597Y0240311D01*
X0074924Y0240397D01*
X0075253Y0240475D01*
X0075584Y0240545D01*
X0075916Y0240607D01*
X0076250Y0240661D01*
X0076585Y0240706D01*
X0076921Y0240744D01*
X0077258Y0240773D01*
X0077596Y0240793D01*
X0077934Y0240806D01*
X0078272Y0240810D01*
X0078610Y0240806D01*
X0078948Y0240793D01*
X0079286Y0240773D01*
X0079623Y0240744D01*
X0079959Y0240706D01*
X0080294Y0240661D01*
X0080628Y0240607D01*
X0080960Y0240545D01*
X0081291Y0240475D01*
X0081620Y0240397D01*
X0081947Y0240311D01*
X0082272Y0240217D01*
X0082595Y0240114D01*
X0082914Y0240004D01*
X0083231Y0239887D01*
X0083545Y0239761D01*
X0083856Y0239628D01*
X0084164Y0239487D01*
X0084468Y0239339D01*
X0084768Y0239183D01*
X0085064Y0239020D01*
X0085356Y0238850D01*
X0085644Y0238672D01*
X0085928Y0238488D01*
X0086207Y0238296D01*
X0086481Y0238098D01*
X0086750Y0237893D01*
X0087014Y0237682D01*
X0087273Y0237464D01*
X0087526Y0237240D01*
X0087774Y0237010D01*
X0088016Y0236774D01*
X0088252Y0236532D01*
X0088482Y0236284D01*
X0088706Y0236031D01*
X0088924Y0235772D01*
X0089135Y0235508D01*
X0089340Y0235239D01*
X0089538Y0234965D01*
X0089730Y0234686D01*
X0089914Y0234402D01*
X0090092Y0234114D01*
X0090262Y0233822D01*
X0090425Y0233526D01*
X0090581Y0233226D01*
X0090729Y0232922D01*
X0090870Y0232614D01*
X0091003Y0232303D01*
X0091129Y0231989D01*
X0091246Y0231672D01*
X0091356Y0231353D01*
X0091459Y0231030D01*
X0091553Y0230705D01*
X0091639Y0230378D01*
X0091717Y0230049D01*
X0091787Y0229718D01*
X0091849Y0229386D01*
X0091903Y0229052D01*
X0091948Y0228717D01*
X0091986Y0228381D01*
X0092015Y0228044D01*
X0092035Y0227706D01*
X0092048Y0227368D01*
X0092052Y0227030D01*
X0092048Y0226692D01*
X0092035Y0226354D01*
X0092015Y0226016D01*
X0091986Y0225679D01*
X0091948Y0225343D01*
X0091903Y0225008D01*
X0091849Y0224674D01*
X0091787Y0224342D01*
X0091717Y0224011D01*
X0091639Y0223682D01*
X0091553Y0223355D01*
X0091459Y0223030D01*
X0091356Y0222707D01*
X0091246Y0222388D01*
X0091129Y0222071D01*
X0091003Y0221757D01*
X0090870Y0221446D01*
X0090729Y0221138D01*
X0090581Y0220834D01*
X0090425Y0220534D01*
X0090262Y0220238D01*
X0090092Y0219946D01*
X0089914Y0219658D01*
X0089730Y0219374D01*
X0089538Y0219095D01*
X0089340Y0218821D01*
X0089135Y0218552D01*
X0088924Y0218288D01*
X0088706Y0218029D01*
X0088482Y0217776D01*
X0088252Y0217528D01*
X0088016Y0217286D01*
X0087774Y0217050D01*
X0087526Y0216820D01*
X0087273Y0216596D01*
X0087014Y0216378D01*
X0086750Y0216167D01*
X0086481Y0215962D01*
X0086207Y0215764D01*
X0085928Y0215572D01*
X0085644Y0215388D01*
X0085356Y0215210D01*
X0085064Y0215040D01*
X0084768Y0214877D01*
X0084468Y0214721D01*
X0084164Y0214573D01*
X0083856Y0214432D01*
X0083545Y0214299D01*
X0083231Y0214173D01*
X0082914Y0214056D01*
X0082595Y0213946D01*
X0082272Y0213843D01*
X0081947Y0213749D01*
X0081620Y0213663D01*
X0081291Y0213585D01*
X0080960Y0213515D01*
X0080628Y0213453D01*
X0080294Y0213399D01*
X0079959Y0213354D01*
X0079623Y0213316D01*
X0079286Y0213287D01*
X0078948Y0213267D01*
X0078610Y0213254D01*
X0078272Y0213250D01*
X0077934Y0213254D01*
X0077596Y0213267D01*
X0077258Y0213287D01*
X0076921Y0213316D01*
X0076585Y0213354D01*
X0076250Y0213399D01*
X0075916Y0213453D01*
X0075584Y0213515D01*
X0075253Y0213585D01*
X0074924Y0213663D01*
X0074597Y0213749D01*
X0074272Y0213843D01*
X0073949Y0213946D01*
X0073630Y0214056D01*
X0073313Y0214173D01*
X0072999Y0214299D01*
X0072688Y0214432D01*
X0072380Y0214573D01*
X0072076Y0214721D01*
X0071776Y0214877D01*
X0071480Y0215040D01*
X0071188Y0215210D01*
X0070900Y0215388D01*
X0070616Y0215572D01*
X0070337Y0215764D01*
X0070063Y0215962D01*
X0069794Y0216167D01*
X0069530Y0216378D01*
X0069271Y0216596D01*
X0069018Y0216820D01*
X0068770Y0217050D01*
X0068528Y0217286D01*
X0068292Y0217528D01*
X0068062Y0217776D01*
X0067838Y0218029D01*
X0067620Y0218288D01*
X0067409Y0218552D01*
X0067204Y0218821D01*
X0067006Y0219095D01*
X0066814Y0219374D01*
X0066630Y0219658D01*
X0066452Y0219946D01*
X0066282Y0220238D01*
X0066119Y0220534D01*
X0065963Y0220834D01*
X0065815Y0221138D01*
X0065674Y0221446D01*
X0065541Y0221757D01*
X0065415Y0222071D01*
X0065298Y0222388D01*
X0065188Y0222707D01*
X0065085Y0223030D01*
X0064991Y0223355D01*
X0064905Y0223682D01*
X0064827Y0224011D01*
X0064757Y0224342D01*
X0064695Y0224674D01*
X0064641Y0225008D01*
X0064596Y0225343D01*
X0064558Y0225679D01*
X0064529Y0226016D01*
X0064509Y0226354D01*
X0064496Y0226692D01*
X0064492Y0227030D01*
X0010949Y0360520D02*
X0010951Y0360678D01*
X0010957Y0360836D01*
X0010967Y0360994D01*
X0010981Y0361152D01*
X0010999Y0361309D01*
X0011020Y0361466D01*
X0011046Y0361622D01*
X0011076Y0361778D01*
X0011109Y0361933D01*
X0011147Y0362086D01*
X0011188Y0362239D01*
X0011233Y0362391D01*
X0011282Y0362542D01*
X0011335Y0362691D01*
X0011391Y0362839D01*
X0011451Y0362985D01*
X0011515Y0363130D01*
X0011583Y0363273D01*
X0011654Y0363415D01*
X0011728Y0363555D01*
X0011806Y0363692D01*
X0011888Y0363828D01*
X0011972Y0363962D01*
X0012061Y0364093D01*
X0012152Y0364222D01*
X0012247Y0364349D01*
X0012344Y0364474D01*
X0012445Y0364596D01*
X0012549Y0364715D01*
X0012656Y0364832D01*
X0012766Y0364946D01*
X0012879Y0365057D01*
X0012994Y0365166D01*
X0013112Y0365271D01*
X0013233Y0365373D01*
X0013356Y0365473D01*
X0013482Y0365569D01*
X0013610Y0365662D01*
X0013740Y0365752D01*
X0013873Y0365838D01*
X0014008Y0365922D01*
X0014144Y0366001D01*
X0014283Y0366078D01*
X0014424Y0366150D01*
X0014566Y0366220D01*
X0014710Y0366285D01*
X0014856Y0366347D01*
X0015003Y0366405D01*
X0015152Y0366460D01*
X0015302Y0366511D01*
X0015453Y0366558D01*
X0015605Y0366601D01*
X0015758Y0366640D01*
X0015913Y0366676D01*
X0016068Y0366707D01*
X0016224Y0366735D01*
X0016380Y0366759D01*
X0016537Y0366779D01*
X0016695Y0366795D01*
X0016852Y0366807D01*
X0017011Y0366815D01*
X0017169Y0366819D01*
X0017327Y0366819D01*
X0017485Y0366815D01*
X0017644Y0366807D01*
X0017801Y0366795D01*
X0017959Y0366779D01*
X0018116Y0366759D01*
X0018272Y0366735D01*
X0018428Y0366707D01*
X0018583Y0366676D01*
X0018738Y0366640D01*
X0018891Y0366601D01*
X0019043Y0366558D01*
X0019194Y0366511D01*
X0019344Y0366460D01*
X0019493Y0366405D01*
X0019640Y0366347D01*
X0019786Y0366285D01*
X0019930Y0366220D01*
X0020072Y0366150D01*
X0020213Y0366078D01*
X0020352Y0366001D01*
X0020488Y0365922D01*
X0020623Y0365838D01*
X0020756Y0365752D01*
X0020886Y0365662D01*
X0021014Y0365569D01*
X0021140Y0365473D01*
X0021263Y0365373D01*
X0021384Y0365271D01*
X0021502Y0365166D01*
X0021617Y0365057D01*
X0021730Y0364946D01*
X0021840Y0364832D01*
X0021947Y0364715D01*
X0022051Y0364596D01*
X0022152Y0364474D01*
X0022249Y0364349D01*
X0022344Y0364222D01*
X0022435Y0364093D01*
X0022524Y0363962D01*
X0022608Y0363828D01*
X0022690Y0363692D01*
X0022768Y0363555D01*
X0022842Y0363415D01*
X0022913Y0363273D01*
X0022981Y0363130D01*
X0023045Y0362985D01*
X0023105Y0362839D01*
X0023161Y0362691D01*
X0023214Y0362542D01*
X0023263Y0362391D01*
X0023308Y0362239D01*
X0023349Y0362086D01*
X0023387Y0361933D01*
X0023420Y0361778D01*
X0023450Y0361622D01*
X0023476Y0361466D01*
X0023497Y0361309D01*
X0023515Y0361152D01*
X0023529Y0360994D01*
X0023539Y0360836D01*
X0023545Y0360678D01*
X0023547Y0360520D01*
X0023545Y0360362D01*
X0023539Y0360204D01*
X0023529Y0360046D01*
X0023515Y0359888D01*
X0023497Y0359731D01*
X0023476Y0359574D01*
X0023450Y0359418D01*
X0023420Y0359262D01*
X0023387Y0359107D01*
X0023349Y0358954D01*
X0023308Y0358801D01*
X0023263Y0358649D01*
X0023214Y0358498D01*
X0023161Y0358349D01*
X0023105Y0358201D01*
X0023045Y0358055D01*
X0022981Y0357910D01*
X0022913Y0357767D01*
X0022842Y0357625D01*
X0022768Y0357485D01*
X0022690Y0357348D01*
X0022608Y0357212D01*
X0022524Y0357078D01*
X0022435Y0356947D01*
X0022344Y0356818D01*
X0022249Y0356691D01*
X0022152Y0356566D01*
X0022051Y0356444D01*
X0021947Y0356325D01*
X0021840Y0356208D01*
X0021730Y0356094D01*
X0021617Y0355983D01*
X0021502Y0355874D01*
X0021384Y0355769D01*
X0021263Y0355667D01*
X0021140Y0355567D01*
X0021014Y0355471D01*
X0020886Y0355378D01*
X0020756Y0355288D01*
X0020623Y0355202D01*
X0020488Y0355118D01*
X0020352Y0355039D01*
X0020213Y0354962D01*
X0020072Y0354890D01*
X0019930Y0354820D01*
X0019786Y0354755D01*
X0019640Y0354693D01*
X0019493Y0354635D01*
X0019344Y0354580D01*
X0019194Y0354529D01*
X0019043Y0354482D01*
X0018891Y0354439D01*
X0018738Y0354400D01*
X0018583Y0354364D01*
X0018428Y0354333D01*
X0018272Y0354305D01*
X0018116Y0354281D01*
X0017959Y0354261D01*
X0017801Y0354245D01*
X0017644Y0354233D01*
X0017485Y0354225D01*
X0017327Y0354221D01*
X0017169Y0354221D01*
X0017011Y0354225D01*
X0016852Y0354233D01*
X0016695Y0354245D01*
X0016537Y0354261D01*
X0016380Y0354281D01*
X0016224Y0354305D01*
X0016068Y0354333D01*
X0015913Y0354364D01*
X0015758Y0354400D01*
X0015605Y0354439D01*
X0015453Y0354482D01*
X0015302Y0354529D01*
X0015152Y0354580D01*
X0015003Y0354635D01*
X0014856Y0354693D01*
X0014710Y0354755D01*
X0014566Y0354820D01*
X0014424Y0354890D01*
X0014283Y0354962D01*
X0014144Y0355039D01*
X0014008Y0355118D01*
X0013873Y0355202D01*
X0013740Y0355288D01*
X0013610Y0355378D01*
X0013482Y0355471D01*
X0013356Y0355567D01*
X0013233Y0355667D01*
X0013112Y0355769D01*
X0012994Y0355874D01*
X0012879Y0355983D01*
X0012766Y0356094D01*
X0012656Y0356208D01*
X0012549Y0356325D01*
X0012445Y0356444D01*
X0012344Y0356566D01*
X0012247Y0356691D01*
X0012152Y0356818D01*
X0012061Y0356947D01*
X0011972Y0357078D01*
X0011888Y0357212D01*
X0011806Y0357348D01*
X0011728Y0357485D01*
X0011654Y0357625D01*
X0011583Y0357767D01*
X0011515Y0357910D01*
X0011451Y0358055D01*
X0011391Y0358201D01*
X0011335Y0358349D01*
X0011282Y0358498D01*
X0011233Y0358649D01*
X0011188Y0358801D01*
X0011147Y0358954D01*
X0011109Y0359107D01*
X0011076Y0359262D01*
X0011046Y0359418D01*
X0011020Y0359574D01*
X0010999Y0359731D01*
X0010981Y0359888D01*
X0010967Y0360046D01*
X0010957Y0360204D01*
X0010951Y0360362D01*
X0010949Y0360520D01*
X0258981Y0360520D02*
X0258983Y0360678D01*
X0258989Y0360836D01*
X0258999Y0360994D01*
X0259013Y0361152D01*
X0259031Y0361309D01*
X0259052Y0361466D01*
X0259078Y0361622D01*
X0259108Y0361778D01*
X0259141Y0361933D01*
X0259179Y0362086D01*
X0259220Y0362239D01*
X0259265Y0362391D01*
X0259314Y0362542D01*
X0259367Y0362691D01*
X0259423Y0362839D01*
X0259483Y0362985D01*
X0259547Y0363130D01*
X0259615Y0363273D01*
X0259686Y0363415D01*
X0259760Y0363555D01*
X0259838Y0363692D01*
X0259920Y0363828D01*
X0260004Y0363962D01*
X0260093Y0364093D01*
X0260184Y0364222D01*
X0260279Y0364349D01*
X0260376Y0364474D01*
X0260477Y0364596D01*
X0260581Y0364715D01*
X0260688Y0364832D01*
X0260798Y0364946D01*
X0260911Y0365057D01*
X0261026Y0365166D01*
X0261144Y0365271D01*
X0261265Y0365373D01*
X0261388Y0365473D01*
X0261514Y0365569D01*
X0261642Y0365662D01*
X0261772Y0365752D01*
X0261905Y0365838D01*
X0262040Y0365922D01*
X0262176Y0366001D01*
X0262315Y0366078D01*
X0262456Y0366150D01*
X0262598Y0366220D01*
X0262742Y0366285D01*
X0262888Y0366347D01*
X0263035Y0366405D01*
X0263184Y0366460D01*
X0263334Y0366511D01*
X0263485Y0366558D01*
X0263637Y0366601D01*
X0263790Y0366640D01*
X0263945Y0366676D01*
X0264100Y0366707D01*
X0264256Y0366735D01*
X0264412Y0366759D01*
X0264569Y0366779D01*
X0264727Y0366795D01*
X0264884Y0366807D01*
X0265043Y0366815D01*
X0265201Y0366819D01*
X0265359Y0366819D01*
X0265517Y0366815D01*
X0265676Y0366807D01*
X0265833Y0366795D01*
X0265991Y0366779D01*
X0266148Y0366759D01*
X0266304Y0366735D01*
X0266460Y0366707D01*
X0266615Y0366676D01*
X0266770Y0366640D01*
X0266923Y0366601D01*
X0267075Y0366558D01*
X0267226Y0366511D01*
X0267376Y0366460D01*
X0267525Y0366405D01*
X0267672Y0366347D01*
X0267818Y0366285D01*
X0267962Y0366220D01*
X0268104Y0366150D01*
X0268245Y0366078D01*
X0268384Y0366001D01*
X0268520Y0365922D01*
X0268655Y0365838D01*
X0268788Y0365752D01*
X0268918Y0365662D01*
X0269046Y0365569D01*
X0269172Y0365473D01*
X0269295Y0365373D01*
X0269416Y0365271D01*
X0269534Y0365166D01*
X0269649Y0365057D01*
X0269762Y0364946D01*
X0269872Y0364832D01*
X0269979Y0364715D01*
X0270083Y0364596D01*
X0270184Y0364474D01*
X0270281Y0364349D01*
X0270376Y0364222D01*
X0270467Y0364093D01*
X0270556Y0363962D01*
X0270640Y0363828D01*
X0270722Y0363692D01*
X0270800Y0363555D01*
X0270874Y0363415D01*
X0270945Y0363273D01*
X0271013Y0363130D01*
X0271077Y0362985D01*
X0271137Y0362839D01*
X0271193Y0362691D01*
X0271246Y0362542D01*
X0271295Y0362391D01*
X0271340Y0362239D01*
X0271381Y0362086D01*
X0271419Y0361933D01*
X0271452Y0361778D01*
X0271482Y0361622D01*
X0271508Y0361466D01*
X0271529Y0361309D01*
X0271547Y0361152D01*
X0271561Y0360994D01*
X0271571Y0360836D01*
X0271577Y0360678D01*
X0271579Y0360520D01*
X0271577Y0360362D01*
X0271571Y0360204D01*
X0271561Y0360046D01*
X0271547Y0359888D01*
X0271529Y0359731D01*
X0271508Y0359574D01*
X0271482Y0359418D01*
X0271452Y0359262D01*
X0271419Y0359107D01*
X0271381Y0358954D01*
X0271340Y0358801D01*
X0271295Y0358649D01*
X0271246Y0358498D01*
X0271193Y0358349D01*
X0271137Y0358201D01*
X0271077Y0358055D01*
X0271013Y0357910D01*
X0270945Y0357767D01*
X0270874Y0357625D01*
X0270800Y0357485D01*
X0270722Y0357348D01*
X0270640Y0357212D01*
X0270556Y0357078D01*
X0270467Y0356947D01*
X0270376Y0356818D01*
X0270281Y0356691D01*
X0270184Y0356566D01*
X0270083Y0356444D01*
X0269979Y0356325D01*
X0269872Y0356208D01*
X0269762Y0356094D01*
X0269649Y0355983D01*
X0269534Y0355874D01*
X0269416Y0355769D01*
X0269295Y0355667D01*
X0269172Y0355567D01*
X0269046Y0355471D01*
X0268918Y0355378D01*
X0268788Y0355288D01*
X0268655Y0355202D01*
X0268520Y0355118D01*
X0268384Y0355039D01*
X0268245Y0354962D01*
X0268104Y0354890D01*
X0267962Y0354820D01*
X0267818Y0354755D01*
X0267672Y0354693D01*
X0267525Y0354635D01*
X0267376Y0354580D01*
X0267226Y0354529D01*
X0267075Y0354482D01*
X0266923Y0354439D01*
X0266770Y0354400D01*
X0266615Y0354364D01*
X0266460Y0354333D01*
X0266304Y0354305D01*
X0266148Y0354281D01*
X0265991Y0354261D01*
X0265833Y0354245D01*
X0265676Y0354233D01*
X0265517Y0354225D01*
X0265359Y0354221D01*
X0265201Y0354221D01*
X0265043Y0354225D01*
X0264884Y0354233D01*
X0264727Y0354245D01*
X0264569Y0354261D01*
X0264412Y0354281D01*
X0264256Y0354305D01*
X0264100Y0354333D01*
X0263945Y0354364D01*
X0263790Y0354400D01*
X0263637Y0354439D01*
X0263485Y0354482D01*
X0263334Y0354529D01*
X0263184Y0354580D01*
X0263035Y0354635D01*
X0262888Y0354693D01*
X0262742Y0354755D01*
X0262598Y0354820D01*
X0262456Y0354890D01*
X0262315Y0354962D01*
X0262176Y0355039D01*
X0262040Y0355118D01*
X0261905Y0355202D01*
X0261772Y0355288D01*
X0261642Y0355378D01*
X0261514Y0355471D01*
X0261388Y0355567D01*
X0261265Y0355667D01*
X0261144Y0355769D01*
X0261026Y0355874D01*
X0260911Y0355983D01*
X0260798Y0356094D01*
X0260688Y0356208D01*
X0260581Y0356325D01*
X0260477Y0356444D01*
X0260376Y0356566D01*
X0260279Y0356691D01*
X0260184Y0356818D01*
X0260093Y0356947D01*
X0260004Y0357078D01*
X0259920Y0357212D01*
X0259838Y0357348D01*
X0259760Y0357485D01*
X0259686Y0357625D01*
X0259615Y0357767D01*
X0259547Y0357910D01*
X0259483Y0358055D01*
X0259423Y0358201D01*
X0259367Y0358349D01*
X0259314Y0358498D01*
X0259265Y0358649D01*
X0259220Y0358801D01*
X0259179Y0358954D01*
X0259141Y0359107D01*
X0259108Y0359262D01*
X0259078Y0359418D01*
X0259052Y0359574D01*
X0259031Y0359731D01*
X0259013Y0359888D01*
X0258999Y0360046D01*
X0258989Y0360204D01*
X0258983Y0360362D01*
X0258981Y0360520D01*
X0258981Y0018000D02*
X0258983Y0018158D01*
X0258989Y0018316D01*
X0258999Y0018474D01*
X0259013Y0018632D01*
X0259031Y0018789D01*
X0259052Y0018946D01*
X0259078Y0019102D01*
X0259108Y0019258D01*
X0259141Y0019413D01*
X0259179Y0019566D01*
X0259220Y0019719D01*
X0259265Y0019871D01*
X0259314Y0020022D01*
X0259367Y0020171D01*
X0259423Y0020319D01*
X0259483Y0020465D01*
X0259547Y0020610D01*
X0259615Y0020753D01*
X0259686Y0020895D01*
X0259760Y0021035D01*
X0259838Y0021172D01*
X0259920Y0021308D01*
X0260004Y0021442D01*
X0260093Y0021573D01*
X0260184Y0021702D01*
X0260279Y0021829D01*
X0260376Y0021954D01*
X0260477Y0022076D01*
X0260581Y0022195D01*
X0260688Y0022312D01*
X0260798Y0022426D01*
X0260911Y0022537D01*
X0261026Y0022646D01*
X0261144Y0022751D01*
X0261265Y0022853D01*
X0261388Y0022953D01*
X0261514Y0023049D01*
X0261642Y0023142D01*
X0261772Y0023232D01*
X0261905Y0023318D01*
X0262040Y0023402D01*
X0262176Y0023481D01*
X0262315Y0023558D01*
X0262456Y0023630D01*
X0262598Y0023700D01*
X0262742Y0023765D01*
X0262888Y0023827D01*
X0263035Y0023885D01*
X0263184Y0023940D01*
X0263334Y0023991D01*
X0263485Y0024038D01*
X0263637Y0024081D01*
X0263790Y0024120D01*
X0263945Y0024156D01*
X0264100Y0024187D01*
X0264256Y0024215D01*
X0264412Y0024239D01*
X0264569Y0024259D01*
X0264727Y0024275D01*
X0264884Y0024287D01*
X0265043Y0024295D01*
X0265201Y0024299D01*
X0265359Y0024299D01*
X0265517Y0024295D01*
X0265676Y0024287D01*
X0265833Y0024275D01*
X0265991Y0024259D01*
X0266148Y0024239D01*
X0266304Y0024215D01*
X0266460Y0024187D01*
X0266615Y0024156D01*
X0266770Y0024120D01*
X0266923Y0024081D01*
X0267075Y0024038D01*
X0267226Y0023991D01*
X0267376Y0023940D01*
X0267525Y0023885D01*
X0267672Y0023827D01*
X0267818Y0023765D01*
X0267962Y0023700D01*
X0268104Y0023630D01*
X0268245Y0023558D01*
X0268384Y0023481D01*
X0268520Y0023402D01*
X0268655Y0023318D01*
X0268788Y0023232D01*
X0268918Y0023142D01*
X0269046Y0023049D01*
X0269172Y0022953D01*
X0269295Y0022853D01*
X0269416Y0022751D01*
X0269534Y0022646D01*
X0269649Y0022537D01*
X0269762Y0022426D01*
X0269872Y0022312D01*
X0269979Y0022195D01*
X0270083Y0022076D01*
X0270184Y0021954D01*
X0270281Y0021829D01*
X0270376Y0021702D01*
X0270467Y0021573D01*
X0270556Y0021442D01*
X0270640Y0021308D01*
X0270722Y0021172D01*
X0270800Y0021035D01*
X0270874Y0020895D01*
X0270945Y0020753D01*
X0271013Y0020610D01*
X0271077Y0020465D01*
X0271137Y0020319D01*
X0271193Y0020171D01*
X0271246Y0020022D01*
X0271295Y0019871D01*
X0271340Y0019719D01*
X0271381Y0019566D01*
X0271419Y0019413D01*
X0271452Y0019258D01*
X0271482Y0019102D01*
X0271508Y0018946D01*
X0271529Y0018789D01*
X0271547Y0018632D01*
X0271561Y0018474D01*
X0271571Y0018316D01*
X0271577Y0018158D01*
X0271579Y0018000D01*
X0271577Y0017842D01*
X0271571Y0017684D01*
X0271561Y0017526D01*
X0271547Y0017368D01*
X0271529Y0017211D01*
X0271508Y0017054D01*
X0271482Y0016898D01*
X0271452Y0016742D01*
X0271419Y0016587D01*
X0271381Y0016434D01*
X0271340Y0016281D01*
X0271295Y0016129D01*
X0271246Y0015978D01*
X0271193Y0015829D01*
X0271137Y0015681D01*
X0271077Y0015535D01*
X0271013Y0015390D01*
X0270945Y0015247D01*
X0270874Y0015105D01*
X0270800Y0014965D01*
X0270722Y0014828D01*
X0270640Y0014692D01*
X0270556Y0014558D01*
X0270467Y0014427D01*
X0270376Y0014298D01*
X0270281Y0014171D01*
X0270184Y0014046D01*
X0270083Y0013924D01*
X0269979Y0013805D01*
X0269872Y0013688D01*
X0269762Y0013574D01*
X0269649Y0013463D01*
X0269534Y0013354D01*
X0269416Y0013249D01*
X0269295Y0013147D01*
X0269172Y0013047D01*
X0269046Y0012951D01*
X0268918Y0012858D01*
X0268788Y0012768D01*
X0268655Y0012682D01*
X0268520Y0012598D01*
X0268384Y0012519D01*
X0268245Y0012442D01*
X0268104Y0012370D01*
X0267962Y0012300D01*
X0267818Y0012235D01*
X0267672Y0012173D01*
X0267525Y0012115D01*
X0267376Y0012060D01*
X0267226Y0012009D01*
X0267075Y0011962D01*
X0266923Y0011919D01*
X0266770Y0011880D01*
X0266615Y0011844D01*
X0266460Y0011813D01*
X0266304Y0011785D01*
X0266148Y0011761D01*
X0265991Y0011741D01*
X0265833Y0011725D01*
X0265676Y0011713D01*
X0265517Y0011705D01*
X0265359Y0011701D01*
X0265201Y0011701D01*
X0265043Y0011705D01*
X0264884Y0011713D01*
X0264727Y0011725D01*
X0264569Y0011741D01*
X0264412Y0011761D01*
X0264256Y0011785D01*
X0264100Y0011813D01*
X0263945Y0011844D01*
X0263790Y0011880D01*
X0263637Y0011919D01*
X0263485Y0011962D01*
X0263334Y0012009D01*
X0263184Y0012060D01*
X0263035Y0012115D01*
X0262888Y0012173D01*
X0262742Y0012235D01*
X0262598Y0012300D01*
X0262456Y0012370D01*
X0262315Y0012442D01*
X0262176Y0012519D01*
X0262040Y0012598D01*
X0261905Y0012682D01*
X0261772Y0012768D01*
X0261642Y0012858D01*
X0261514Y0012951D01*
X0261388Y0013047D01*
X0261265Y0013147D01*
X0261144Y0013249D01*
X0261026Y0013354D01*
X0260911Y0013463D01*
X0260798Y0013574D01*
X0260688Y0013688D01*
X0260581Y0013805D01*
X0260477Y0013924D01*
X0260376Y0014046D01*
X0260279Y0014171D01*
X0260184Y0014298D01*
X0260093Y0014427D01*
X0260004Y0014558D01*
X0259920Y0014692D01*
X0259838Y0014828D01*
X0259760Y0014965D01*
X0259686Y0015105D01*
X0259615Y0015247D01*
X0259547Y0015390D01*
X0259483Y0015535D01*
X0259423Y0015681D01*
X0259367Y0015829D01*
X0259314Y0015978D01*
X0259265Y0016129D01*
X0259220Y0016281D01*
X0259179Y0016434D01*
X0259141Y0016587D01*
X0259108Y0016742D01*
X0259078Y0016898D01*
X0259052Y0017054D01*
X0259031Y0017211D01*
X0259013Y0017368D01*
X0258999Y0017526D01*
X0258989Y0017684D01*
X0258983Y0017842D01*
X0258981Y0018000D01*
D54*
X0205293Y0063229D02*
X0205295Y0063298D01*
X0205301Y0063366D01*
X0205311Y0063434D01*
X0205325Y0063501D01*
X0205343Y0063568D01*
X0205364Y0063633D01*
X0205390Y0063697D01*
X0205419Y0063759D01*
X0205451Y0063819D01*
X0205487Y0063878D01*
X0205527Y0063934D01*
X0205569Y0063988D01*
X0205615Y0064039D01*
X0205664Y0064088D01*
X0205715Y0064134D01*
X0205769Y0064176D01*
X0205825Y0064216D01*
X0205883Y0064252D01*
X0205944Y0064284D01*
X0206006Y0064313D01*
X0206070Y0064339D01*
X0206135Y0064360D01*
X0206202Y0064378D01*
X0206269Y0064392D01*
X0206337Y0064402D01*
X0206405Y0064408D01*
X0206474Y0064410D01*
X0206543Y0064408D01*
X0206611Y0064402D01*
X0206679Y0064392D01*
X0206746Y0064378D01*
X0206813Y0064360D01*
X0206878Y0064339D01*
X0206942Y0064313D01*
X0207004Y0064284D01*
X0207064Y0064252D01*
X0207123Y0064216D01*
X0207179Y0064176D01*
X0207233Y0064134D01*
X0207284Y0064088D01*
X0207333Y0064039D01*
X0207379Y0063988D01*
X0207421Y0063934D01*
X0207461Y0063878D01*
X0207497Y0063819D01*
X0207529Y0063759D01*
X0207558Y0063697D01*
X0207584Y0063633D01*
X0207605Y0063568D01*
X0207623Y0063501D01*
X0207637Y0063434D01*
X0207647Y0063366D01*
X0207653Y0063298D01*
X0207655Y0063229D01*
X0207653Y0063160D01*
X0207647Y0063092D01*
X0207637Y0063024D01*
X0207623Y0062957D01*
X0207605Y0062890D01*
X0207584Y0062825D01*
X0207558Y0062761D01*
X0207529Y0062699D01*
X0207497Y0062638D01*
X0207461Y0062580D01*
X0207421Y0062524D01*
X0207379Y0062470D01*
X0207333Y0062419D01*
X0207284Y0062370D01*
X0207233Y0062324D01*
X0207179Y0062282D01*
X0207123Y0062242D01*
X0207065Y0062206D01*
X0207004Y0062174D01*
X0206942Y0062145D01*
X0206878Y0062119D01*
X0206813Y0062098D01*
X0206746Y0062080D01*
X0206679Y0062066D01*
X0206611Y0062056D01*
X0206543Y0062050D01*
X0206474Y0062048D01*
X0206405Y0062050D01*
X0206337Y0062056D01*
X0206269Y0062066D01*
X0206202Y0062080D01*
X0206135Y0062098D01*
X0206070Y0062119D01*
X0206006Y0062145D01*
X0205944Y0062174D01*
X0205883Y0062206D01*
X0205825Y0062242D01*
X0205769Y0062282D01*
X0205715Y0062324D01*
X0205664Y0062370D01*
X0205615Y0062419D01*
X0205569Y0062470D01*
X0205527Y0062524D01*
X0205487Y0062580D01*
X0205451Y0062638D01*
X0205419Y0062699D01*
X0205390Y0062761D01*
X0205364Y0062825D01*
X0205343Y0062890D01*
X0205325Y0062957D01*
X0205311Y0063024D01*
X0205301Y0063092D01*
X0205295Y0063160D01*
X0205293Y0063229D01*
X0190319Y0031116D02*
X0190321Y0031185D01*
X0190327Y0031253D01*
X0190337Y0031321D01*
X0190351Y0031388D01*
X0190369Y0031455D01*
X0190390Y0031520D01*
X0190416Y0031584D01*
X0190445Y0031646D01*
X0190477Y0031706D01*
X0190513Y0031765D01*
X0190553Y0031821D01*
X0190595Y0031875D01*
X0190641Y0031926D01*
X0190690Y0031975D01*
X0190741Y0032021D01*
X0190795Y0032063D01*
X0190851Y0032103D01*
X0190909Y0032139D01*
X0190970Y0032171D01*
X0191032Y0032200D01*
X0191096Y0032226D01*
X0191161Y0032247D01*
X0191228Y0032265D01*
X0191295Y0032279D01*
X0191363Y0032289D01*
X0191431Y0032295D01*
X0191500Y0032297D01*
X0191569Y0032295D01*
X0191637Y0032289D01*
X0191705Y0032279D01*
X0191772Y0032265D01*
X0191839Y0032247D01*
X0191904Y0032226D01*
X0191968Y0032200D01*
X0192030Y0032171D01*
X0192090Y0032139D01*
X0192149Y0032103D01*
X0192205Y0032063D01*
X0192259Y0032021D01*
X0192310Y0031975D01*
X0192359Y0031926D01*
X0192405Y0031875D01*
X0192447Y0031821D01*
X0192487Y0031765D01*
X0192523Y0031706D01*
X0192555Y0031646D01*
X0192584Y0031584D01*
X0192610Y0031520D01*
X0192631Y0031455D01*
X0192649Y0031388D01*
X0192663Y0031321D01*
X0192673Y0031253D01*
X0192679Y0031185D01*
X0192681Y0031116D01*
X0192679Y0031047D01*
X0192673Y0030979D01*
X0192663Y0030911D01*
X0192649Y0030844D01*
X0192631Y0030777D01*
X0192610Y0030712D01*
X0192584Y0030648D01*
X0192555Y0030586D01*
X0192523Y0030525D01*
X0192487Y0030467D01*
X0192447Y0030411D01*
X0192405Y0030357D01*
X0192359Y0030306D01*
X0192310Y0030257D01*
X0192259Y0030211D01*
X0192205Y0030169D01*
X0192149Y0030129D01*
X0192091Y0030093D01*
X0192030Y0030061D01*
X0191968Y0030032D01*
X0191904Y0030006D01*
X0191839Y0029985D01*
X0191772Y0029967D01*
X0191705Y0029953D01*
X0191637Y0029943D01*
X0191569Y0029937D01*
X0191500Y0029935D01*
X0191431Y0029937D01*
X0191363Y0029943D01*
X0191295Y0029953D01*
X0191228Y0029967D01*
X0191161Y0029985D01*
X0191096Y0030006D01*
X0191032Y0030032D01*
X0190970Y0030061D01*
X0190909Y0030093D01*
X0190851Y0030129D01*
X0190795Y0030169D01*
X0190741Y0030211D01*
X0190690Y0030257D01*
X0190641Y0030306D01*
X0190595Y0030357D01*
X0190553Y0030411D01*
X0190513Y0030467D01*
X0190477Y0030525D01*
X0190445Y0030586D01*
X0190416Y0030648D01*
X0190390Y0030712D01*
X0190369Y0030777D01*
X0190351Y0030844D01*
X0190337Y0030911D01*
X0190327Y0030979D01*
X0190321Y0031047D01*
X0190319Y0031116D01*
X0158206Y0046091D02*
X0158208Y0046160D01*
X0158214Y0046228D01*
X0158224Y0046296D01*
X0158238Y0046363D01*
X0158256Y0046430D01*
X0158277Y0046495D01*
X0158303Y0046559D01*
X0158332Y0046621D01*
X0158364Y0046681D01*
X0158400Y0046740D01*
X0158440Y0046796D01*
X0158482Y0046850D01*
X0158528Y0046901D01*
X0158577Y0046950D01*
X0158628Y0046996D01*
X0158682Y0047038D01*
X0158738Y0047078D01*
X0158796Y0047114D01*
X0158857Y0047146D01*
X0158919Y0047175D01*
X0158983Y0047201D01*
X0159048Y0047222D01*
X0159115Y0047240D01*
X0159182Y0047254D01*
X0159250Y0047264D01*
X0159318Y0047270D01*
X0159387Y0047272D01*
X0159456Y0047270D01*
X0159524Y0047264D01*
X0159592Y0047254D01*
X0159659Y0047240D01*
X0159726Y0047222D01*
X0159791Y0047201D01*
X0159855Y0047175D01*
X0159917Y0047146D01*
X0159977Y0047114D01*
X0160036Y0047078D01*
X0160092Y0047038D01*
X0160146Y0046996D01*
X0160197Y0046950D01*
X0160246Y0046901D01*
X0160292Y0046850D01*
X0160334Y0046796D01*
X0160374Y0046740D01*
X0160410Y0046681D01*
X0160442Y0046621D01*
X0160471Y0046559D01*
X0160497Y0046495D01*
X0160518Y0046430D01*
X0160536Y0046363D01*
X0160550Y0046296D01*
X0160560Y0046228D01*
X0160566Y0046160D01*
X0160568Y0046091D01*
X0160566Y0046022D01*
X0160560Y0045954D01*
X0160550Y0045886D01*
X0160536Y0045819D01*
X0160518Y0045752D01*
X0160497Y0045687D01*
X0160471Y0045623D01*
X0160442Y0045561D01*
X0160410Y0045500D01*
X0160374Y0045442D01*
X0160334Y0045386D01*
X0160292Y0045332D01*
X0160246Y0045281D01*
X0160197Y0045232D01*
X0160146Y0045186D01*
X0160092Y0045144D01*
X0160036Y0045104D01*
X0159978Y0045068D01*
X0159917Y0045036D01*
X0159855Y0045007D01*
X0159791Y0044981D01*
X0159726Y0044960D01*
X0159659Y0044942D01*
X0159592Y0044928D01*
X0159524Y0044918D01*
X0159456Y0044912D01*
X0159387Y0044910D01*
X0159318Y0044912D01*
X0159250Y0044918D01*
X0159182Y0044928D01*
X0159115Y0044942D01*
X0159048Y0044960D01*
X0158983Y0044981D01*
X0158919Y0045007D01*
X0158857Y0045036D01*
X0158796Y0045068D01*
X0158738Y0045104D01*
X0158682Y0045144D01*
X0158628Y0045186D01*
X0158577Y0045232D01*
X0158528Y0045281D01*
X0158482Y0045332D01*
X0158440Y0045386D01*
X0158400Y0045442D01*
X0158364Y0045500D01*
X0158332Y0045561D01*
X0158303Y0045623D01*
X0158277Y0045687D01*
X0158256Y0045752D01*
X0158238Y0045819D01*
X0158224Y0045886D01*
X0158214Y0045954D01*
X0158208Y0046022D01*
X0158206Y0046091D01*
X0173180Y0078204D02*
X0173182Y0078273D01*
X0173188Y0078341D01*
X0173198Y0078409D01*
X0173212Y0078476D01*
X0173230Y0078543D01*
X0173251Y0078608D01*
X0173277Y0078672D01*
X0173306Y0078734D01*
X0173338Y0078794D01*
X0173374Y0078853D01*
X0173414Y0078909D01*
X0173456Y0078963D01*
X0173502Y0079014D01*
X0173551Y0079063D01*
X0173602Y0079109D01*
X0173656Y0079151D01*
X0173712Y0079191D01*
X0173770Y0079227D01*
X0173831Y0079259D01*
X0173893Y0079288D01*
X0173957Y0079314D01*
X0174022Y0079335D01*
X0174089Y0079353D01*
X0174156Y0079367D01*
X0174224Y0079377D01*
X0174292Y0079383D01*
X0174361Y0079385D01*
X0174430Y0079383D01*
X0174498Y0079377D01*
X0174566Y0079367D01*
X0174633Y0079353D01*
X0174700Y0079335D01*
X0174765Y0079314D01*
X0174829Y0079288D01*
X0174891Y0079259D01*
X0174951Y0079227D01*
X0175010Y0079191D01*
X0175066Y0079151D01*
X0175120Y0079109D01*
X0175171Y0079063D01*
X0175220Y0079014D01*
X0175266Y0078963D01*
X0175308Y0078909D01*
X0175348Y0078853D01*
X0175384Y0078794D01*
X0175416Y0078734D01*
X0175445Y0078672D01*
X0175471Y0078608D01*
X0175492Y0078543D01*
X0175510Y0078476D01*
X0175524Y0078409D01*
X0175534Y0078341D01*
X0175540Y0078273D01*
X0175542Y0078204D01*
X0175540Y0078135D01*
X0175534Y0078067D01*
X0175524Y0077999D01*
X0175510Y0077932D01*
X0175492Y0077865D01*
X0175471Y0077800D01*
X0175445Y0077736D01*
X0175416Y0077674D01*
X0175384Y0077613D01*
X0175348Y0077555D01*
X0175308Y0077499D01*
X0175266Y0077445D01*
X0175220Y0077394D01*
X0175171Y0077345D01*
X0175120Y0077299D01*
X0175066Y0077257D01*
X0175010Y0077217D01*
X0174952Y0077181D01*
X0174891Y0077149D01*
X0174829Y0077120D01*
X0174765Y0077094D01*
X0174700Y0077073D01*
X0174633Y0077055D01*
X0174566Y0077041D01*
X0174498Y0077031D01*
X0174430Y0077025D01*
X0174361Y0077023D01*
X0174292Y0077025D01*
X0174224Y0077031D01*
X0174156Y0077041D01*
X0174089Y0077055D01*
X0174022Y0077073D01*
X0173957Y0077094D01*
X0173893Y0077120D01*
X0173831Y0077149D01*
X0173770Y0077181D01*
X0173712Y0077217D01*
X0173656Y0077257D01*
X0173602Y0077299D01*
X0173551Y0077345D01*
X0173502Y0077394D01*
X0173456Y0077445D01*
X0173414Y0077499D01*
X0173374Y0077555D01*
X0173338Y0077613D01*
X0173306Y0077674D01*
X0173277Y0077736D01*
X0173251Y0077800D01*
X0173230Y0077865D01*
X0173212Y0077932D01*
X0173198Y0077999D01*
X0173188Y0078067D01*
X0173182Y0078135D01*
X0173180Y0078204D01*
X0121960Y0046091D02*
X0121962Y0046160D01*
X0121968Y0046228D01*
X0121978Y0046296D01*
X0121992Y0046363D01*
X0122010Y0046430D01*
X0122031Y0046495D01*
X0122057Y0046559D01*
X0122086Y0046621D01*
X0122118Y0046681D01*
X0122154Y0046740D01*
X0122194Y0046796D01*
X0122236Y0046850D01*
X0122282Y0046901D01*
X0122331Y0046950D01*
X0122382Y0046996D01*
X0122436Y0047038D01*
X0122492Y0047078D01*
X0122550Y0047114D01*
X0122611Y0047146D01*
X0122673Y0047175D01*
X0122737Y0047201D01*
X0122802Y0047222D01*
X0122869Y0047240D01*
X0122936Y0047254D01*
X0123004Y0047264D01*
X0123072Y0047270D01*
X0123141Y0047272D01*
X0123210Y0047270D01*
X0123278Y0047264D01*
X0123346Y0047254D01*
X0123413Y0047240D01*
X0123480Y0047222D01*
X0123545Y0047201D01*
X0123609Y0047175D01*
X0123671Y0047146D01*
X0123731Y0047114D01*
X0123790Y0047078D01*
X0123846Y0047038D01*
X0123900Y0046996D01*
X0123951Y0046950D01*
X0124000Y0046901D01*
X0124046Y0046850D01*
X0124088Y0046796D01*
X0124128Y0046740D01*
X0124164Y0046681D01*
X0124196Y0046621D01*
X0124225Y0046559D01*
X0124251Y0046495D01*
X0124272Y0046430D01*
X0124290Y0046363D01*
X0124304Y0046296D01*
X0124314Y0046228D01*
X0124320Y0046160D01*
X0124322Y0046091D01*
X0124320Y0046022D01*
X0124314Y0045954D01*
X0124304Y0045886D01*
X0124290Y0045819D01*
X0124272Y0045752D01*
X0124251Y0045687D01*
X0124225Y0045623D01*
X0124196Y0045561D01*
X0124164Y0045500D01*
X0124128Y0045442D01*
X0124088Y0045386D01*
X0124046Y0045332D01*
X0124000Y0045281D01*
X0123951Y0045232D01*
X0123900Y0045186D01*
X0123846Y0045144D01*
X0123790Y0045104D01*
X0123732Y0045068D01*
X0123671Y0045036D01*
X0123609Y0045007D01*
X0123545Y0044981D01*
X0123480Y0044960D01*
X0123413Y0044942D01*
X0123346Y0044928D01*
X0123278Y0044918D01*
X0123210Y0044912D01*
X0123141Y0044910D01*
X0123072Y0044912D01*
X0123004Y0044918D01*
X0122936Y0044928D01*
X0122869Y0044942D01*
X0122802Y0044960D01*
X0122737Y0044981D01*
X0122673Y0045007D01*
X0122611Y0045036D01*
X0122550Y0045068D01*
X0122492Y0045104D01*
X0122436Y0045144D01*
X0122382Y0045186D01*
X0122331Y0045232D01*
X0122282Y0045281D01*
X0122236Y0045332D01*
X0122194Y0045386D01*
X0122154Y0045442D01*
X0122118Y0045500D01*
X0122086Y0045561D01*
X0122057Y0045623D01*
X0122031Y0045687D01*
X0122010Y0045752D01*
X0121992Y0045819D01*
X0121978Y0045886D01*
X0121968Y0045954D01*
X0121962Y0046022D01*
X0121960Y0046091D01*
X0106985Y0078204D02*
X0106987Y0078273D01*
X0106993Y0078341D01*
X0107003Y0078409D01*
X0107017Y0078476D01*
X0107035Y0078543D01*
X0107056Y0078608D01*
X0107082Y0078672D01*
X0107111Y0078734D01*
X0107143Y0078794D01*
X0107179Y0078853D01*
X0107219Y0078909D01*
X0107261Y0078963D01*
X0107307Y0079014D01*
X0107356Y0079063D01*
X0107407Y0079109D01*
X0107461Y0079151D01*
X0107517Y0079191D01*
X0107575Y0079227D01*
X0107636Y0079259D01*
X0107698Y0079288D01*
X0107762Y0079314D01*
X0107827Y0079335D01*
X0107894Y0079353D01*
X0107961Y0079367D01*
X0108029Y0079377D01*
X0108097Y0079383D01*
X0108166Y0079385D01*
X0108235Y0079383D01*
X0108303Y0079377D01*
X0108371Y0079367D01*
X0108438Y0079353D01*
X0108505Y0079335D01*
X0108570Y0079314D01*
X0108634Y0079288D01*
X0108696Y0079259D01*
X0108756Y0079227D01*
X0108815Y0079191D01*
X0108871Y0079151D01*
X0108925Y0079109D01*
X0108976Y0079063D01*
X0109025Y0079014D01*
X0109071Y0078963D01*
X0109113Y0078909D01*
X0109153Y0078853D01*
X0109189Y0078794D01*
X0109221Y0078734D01*
X0109250Y0078672D01*
X0109276Y0078608D01*
X0109297Y0078543D01*
X0109315Y0078476D01*
X0109329Y0078409D01*
X0109339Y0078341D01*
X0109345Y0078273D01*
X0109347Y0078204D01*
X0109345Y0078135D01*
X0109339Y0078067D01*
X0109329Y0077999D01*
X0109315Y0077932D01*
X0109297Y0077865D01*
X0109276Y0077800D01*
X0109250Y0077736D01*
X0109221Y0077674D01*
X0109189Y0077613D01*
X0109153Y0077555D01*
X0109113Y0077499D01*
X0109071Y0077445D01*
X0109025Y0077394D01*
X0108976Y0077345D01*
X0108925Y0077299D01*
X0108871Y0077257D01*
X0108815Y0077217D01*
X0108757Y0077181D01*
X0108696Y0077149D01*
X0108634Y0077120D01*
X0108570Y0077094D01*
X0108505Y0077073D01*
X0108438Y0077055D01*
X0108371Y0077041D01*
X0108303Y0077031D01*
X0108235Y0077025D01*
X0108166Y0077023D01*
X0108097Y0077025D01*
X0108029Y0077031D01*
X0107961Y0077041D01*
X0107894Y0077055D01*
X0107827Y0077073D01*
X0107762Y0077094D01*
X0107698Y0077120D01*
X0107636Y0077149D01*
X0107575Y0077181D01*
X0107517Y0077217D01*
X0107461Y0077257D01*
X0107407Y0077299D01*
X0107356Y0077345D01*
X0107307Y0077394D01*
X0107261Y0077445D01*
X0107219Y0077499D01*
X0107179Y0077555D01*
X0107143Y0077613D01*
X0107111Y0077674D01*
X0107082Y0077736D01*
X0107056Y0077800D01*
X0107035Y0077865D01*
X0107017Y0077932D01*
X0107003Y0077999D01*
X0106993Y0078067D01*
X0106987Y0078135D01*
X0106985Y0078204D01*
X0074872Y0063229D02*
X0074874Y0063298D01*
X0074880Y0063366D01*
X0074890Y0063434D01*
X0074904Y0063501D01*
X0074922Y0063568D01*
X0074943Y0063633D01*
X0074969Y0063697D01*
X0074998Y0063759D01*
X0075030Y0063819D01*
X0075066Y0063878D01*
X0075106Y0063934D01*
X0075148Y0063988D01*
X0075194Y0064039D01*
X0075243Y0064088D01*
X0075294Y0064134D01*
X0075348Y0064176D01*
X0075404Y0064216D01*
X0075462Y0064252D01*
X0075523Y0064284D01*
X0075585Y0064313D01*
X0075649Y0064339D01*
X0075714Y0064360D01*
X0075781Y0064378D01*
X0075848Y0064392D01*
X0075916Y0064402D01*
X0075984Y0064408D01*
X0076053Y0064410D01*
X0076122Y0064408D01*
X0076190Y0064402D01*
X0076258Y0064392D01*
X0076325Y0064378D01*
X0076392Y0064360D01*
X0076457Y0064339D01*
X0076521Y0064313D01*
X0076583Y0064284D01*
X0076643Y0064252D01*
X0076702Y0064216D01*
X0076758Y0064176D01*
X0076812Y0064134D01*
X0076863Y0064088D01*
X0076912Y0064039D01*
X0076958Y0063988D01*
X0077000Y0063934D01*
X0077040Y0063878D01*
X0077076Y0063819D01*
X0077108Y0063759D01*
X0077137Y0063697D01*
X0077163Y0063633D01*
X0077184Y0063568D01*
X0077202Y0063501D01*
X0077216Y0063434D01*
X0077226Y0063366D01*
X0077232Y0063298D01*
X0077234Y0063229D01*
X0077232Y0063160D01*
X0077226Y0063092D01*
X0077216Y0063024D01*
X0077202Y0062957D01*
X0077184Y0062890D01*
X0077163Y0062825D01*
X0077137Y0062761D01*
X0077108Y0062699D01*
X0077076Y0062638D01*
X0077040Y0062580D01*
X0077000Y0062524D01*
X0076958Y0062470D01*
X0076912Y0062419D01*
X0076863Y0062370D01*
X0076812Y0062324D01*
X0076758Y0062282D01*
X0076702Y0062242D01*
X0076644Y0062206D01*
X0076583Y0062174D01*
X0076521Y0062145D01*
X0076457Y0062119D01*
X0076392Y0062098D01*
X0076325Y0062080D01*
X0076258Y0062066D01*
X0076190Y0062056D01*
X0076122Y0062050D01*
X0076053Y0062048D01*
X0075984Y0062050D01*
X0075916Y0062056D01*
X0075848Y0062066D01*
X0075781Y0062080D01*
X0075714Y0062098D01*
X0075649Y0062119D01*
X0075585Y0062145D01*
X0075523Y0062174D01*
X0075462Y0062206D01*
X0075404Y0062242D01*
X0075348Y0062282D01*
X0075294Y0062324D01*
X0075243Y0062370D01*
X0075194Y0062419D01*
X0075148Y0062470D01*
X0075106Y0062524D01*
X0075066Y0062580D01*
X0075030Y0062638D01*
X0074998Y0062699D01*
X0074969Y0062761D01*
X0074943Y0062825D01*
X0074922Y0062890D01*
X0074904Y0062957D01*
X0074890Y0063024D01*
X0074880Y0063092D01*
X0074874Y0063160D01*
X0074872Y0063229D01*
X0089847Y0031116D02*
X0089849Y0031185D01*
X0089855Y0031253D01*
X0089865Y0031321D01*
X0089879Y0031388D01*
X0089897Y0031455D01*
X0089918Y0031520D01*
X0089944Y0031584D01*
X0089973Y0031646D01*
X0090005Y0031706D01*
X0090041Y0031765D01*
X0090081Y0031821D01*
X0090123Y0031875D01*
X0090169Y0031926D01*
X0090218Y0031975D01*
X0090269Y0032021D01*
X0090323Y0032063D01*
X0090379Y0032103D01*
X0090437Y0032139D01*
X0090498Y0032171D01*
X0090560Y0032200D01*
X0090624Y0032226D01*
X0090689Y0032247D01*
X0090756Y0032265D01*
X0090823Y0032279D01*
X0090891Y0032289D01*
X0090959Y0032295D01*
X0091028Y0032297D01*
X0091097Y0032295D01*
X0091165Y0032289D01*
X0091233Y0032279D01*
X0091300Y0032265D01*
X0091367Y0032247D01*
X0091432Y0032226D01*
X0091496Y0032200D01*
X0091558Y0032171D01*
X0091618Y0032139D01*
X0091677Y0032103D01*
X0091733Y0032063D01*
X0091787Y0032021D01*
X0091838Y0031975D01*
X0091887Y0031926D01*
X0091933Y0031875D01*
X0091975Y0031821D01*
X0092015Y0031765D01*
X0092051Y0031706D01*
X0092083Y0031646D01*
X0092112Y0031584D01*
X0092138Y0031520D01*
X0092159Y0031455D01*
X0092177Y0031388D01*
X0092191Y0031321D01*
X0092201Y0031253D01*
X0092207Y0031185D01*
X0092209Y0031116D01*
X0092207Y0031047D01*
X0092201Y0030979D01*
X0092191Y0030911D01*
X0092177Y0030844D01*
X0092159Y0030777D01*
X0092138Y0030712D01*
X0092112Y0030648D01*
X0092083Y0030586D01*
X0092051Y0030525D01*
X0092015Y0030467D01*
X0091975Y0030411D01*
X0091933Y0030357D01*
X0091887Y0030306D01*
X0091838Y0030257D01*
X0091787Y0030211D01*
X0091733Y0030169D01*
X0091677Y0030129D01*
X0091619Y0030093D01*
X0091558Y0030061D01*
X0091496Y0030032D01*
X0091432Y0030006D01*
X0091367Y0029985D01*
X0091300Y0029967D01*
X0091233Y0029953D01*
X0091165Y0029943D01*
X0091097Y0029937D01*
X0091028Y0029935D01*
X0090959Y0029937D01*
X0090891Y0029943D01*
X0090823Y0029953D01*
X0090756Y0029967D01*
X0090689Y0029985D01*
X0090624Y0030006D01*
X0090560Y0030032D01*
X0090498Y0030061D01*
X0090437Y0030093D01*
X0090379Y0030129D01*
X0090323Y0030169D01*
X0090269Y0030211D01*
X0090218Y0030257D01*
X0090169Y0030306D01*
X0090123Y0030357D01*
X0090081Y0030411D01*
X0090041Y0030467D01*
X0090005Y0030525D01*
X0089973Y0030586D01*
X0089944Y0030648D01*
X0089918Y0030712D01*
X0089897Y0030777D01*
X0089879Y0030844D01*
X0089865Y0030911D01*
X0089855Y0030979D01*
X0089849Y0031047D01*
X0089847Y0031116D01*
X0068521Y0203486D02*
X0068523Y0203555D01*
X0068529Y0203623D01*
X0068539Y0203691D01*
X0068553Y0203758D01*
X0068571Y0203825D01*
X0068592Y0203890D01*
X0068618Y0203954D01*
X0068647Y0204016D01*
X0068679Y0204076D01*
X0068715Y0204135D01*
X0068755Y0204191D01*
X0068797Y0204245D01*
X0068843Y0204296D01*
X0068892Y0204345D01*
X0068943Y0204391D01*
X0068997Y0204433D01*
X0069053Y0204473D01*
X0069111Y0204509D01*
X0069172Y0204541D01*
X0069234Y0204570D01*
X0069298Y0204596D01*
X0069363Y0204617D01*
X0069430Y0204635D01*
X0069497Y0204649D01*
X0069565Y0204659D01*
X0069633Y0204665D01*
X0069702Y0204667D01*
X0069771Y0204665D01*
X0069839Y0204659D01*
X0069907Y0204649D01*
X0069974Y0204635D01*
X0070041Y0204617D01*
X0070106Y0204596D01*
X0070170Y0204570D01*
X0070232Y0204541D01*
X0070292Y0204509D01*
X0070351Y0204473D01*
X0070407Y0204433D01*
X0070461Y0204391D01*
X0070512Y0204345D01*
X0070561Y0204296D01*
X0070607Y0204245D01*
X0070649Y0204191D01*
X0070689Y0204135D01*
X0070725Y0204076D01*
X0070757Y0204016D01*
X0070786Y0203954D01*
X0070812Y0203890D01*
X0070833Y0203825D01*
X0070851Y0203758D01*
X0070865Y0203691D01*
X0070875Y0203623D01*
X0070881Y0203555D01*
X0070883Y0203486D01*
X0070881Y0203417D01*
X0070875Y0203349D01*
X0070865Y0203281D01*
X0070851Y0203214D01*
X0070833Y0203147D01*
X0070812Y0203082D01*
X0070786Y0203018D01*
X0070757Y0202956D01*
X0070725Y0202895D01*
X0070689Y0202837D01*
X0070649Y0202781D01*
X0070607Y0202727D01*
X0070561Y0202676D01*
X0070512Y0202627D01*
X0070461Y0202581D01*
X0070407Y0202539D01*
X0070351Y0202499D01*
X0070293Y0202463D01*
X0070232Y0202431D01*
X0070170Y0202402D01*
X0070106Y0202376D01*
X0070041Y0202355D01*
X0069974Y0202337D01*
X0069907Y0202323D01*
X0069839Y0202313D01*
X0069771Y0202307D01*
X0069702Y0202305D01*
X0069633Y0202307D01*
X0069565Y0202313D01*
X0069497Y0202323D01*
X0069430Y0202337D01*
X0069363Y0202355D01*
X0069298Y0202376D01*
X0069234Y0202402D01*
X0069172Y0202431D01*
X0069111Y0202463D01*
X0069053Y0202499D01*
X0068997Y0202539D01*
X0068943Y0202581D01*
X0068892Y0202627D01*
X0068843Y0202676D01*
X0068797Y0202727D01*
X0068755Y0202781D01*
X0068715Y0202837D01*
X0068679Y0202895D01*
X0068647Y0202956D01*
X0068618Y0203018D01*
X0068592Y0203082D01*
X0068571Y0203147D01*
X0068553Y0203214D01*
X0068539Y0203281D01*
X0068529Y0203349D01*
X0068523Y0203417D01*
X0068521Y0203486D01*
X0053547Y0235600D02*
X0053549Y0235669D01*
X0053555Y0235737D01*
X0053565Y0235805D01*
X0053579Y0235872D01*
X0053597Y0235939D01*
X0053618Y0236004D01*
X0053644Y0236068D01*
X0053673Y0236130D01*
X0053705Y0236190D01*
X0053741Y0236249D01*
X0053781Y0236305D01*
X0053823Y0236359D01*
X0053869Y0236410D01*
X0053918Y0236459D01*
X0053969Y0236505D01*
X0054023Y0236547D01*
X0054079Y0236587D01*
X0054137Y0236623D01*
X0054198Y0236655D01*
X0054260Y0236684D01*
X0054324Y0236710D01*
X0054389Y0236731D01*
X0054456Y0236749D01*
X0054523Y0236763D01*
X0054591Y0236773D01*
X0054659Y0236779D01*
X0054728Y0236781D01*
X0054797Y0236779D01*
X0054865Y0236773D01*
X0054933Y0236763D01*
X0055000Y0236749D01*
X0055067Y0236731D01*
X0055132Y0236710D01*
X0055196Y0236684D01*
X0055258Y0236655D01*
X0055318Y0236623D01*
X0055377Y0236587D01*
X0055433Y0236547D01*
X0055487Y0236505D01*
X0055538Y0236459D01*
X0055587Y0236410D01*
X0055633Y0236359D01*
X0055675Y0236305D01*
X0055715Y0236249D01*
X0055751Y0236190D01*
X0055783Y0236130D01*
X0055812Y0236068D01*
X0055838Y0236004D01*
X0055859Y0235939D01*
X0055877Y0235872D01*
X0055891Y0235805D01*
X0055901Y0235737D01*
X0055907Y0235669D01*
X0055909Y0235600D01*
X0055907Y0235531D01*
X0055901Y0235463D01*
X0055891Y0235395D01*
X0055877Y0235328D01*
X0055859Y0235261D01*
X0055838Y0235196D01*
X0055812Y0235132D01*
X0055783Y0235070D01*
X0055751Y0235009D01*
X0055715Y0234951D01*
X0055675Y0234895D01*
X0055633Y0234841D01*
X0055587Y0234790D01*
X0055538Y0234741D01*
X0055487Y0234695D01*
X0055433Y0234653D01*
X0055377Y0234613D01*
X0055319Y0234577D01*
X0055258Y0234545D01*
X0055196Y0234516D01*
X0055132Y0234490D01*
X0055067Y0234469D01*
X0055000Y0234451D01*
X0054933Y0234437D01*
X0054865Y0234427D01*
X0054797Y0234421D01*
X0054728Y0234419D01*
X0054659Y0234421D01*
X0054591Y0234427D01*
X0054523Y0234437D01*
X0054456Y0234451D01*
X0054389Y0234469D01*
X0054324Y0234490D01*
X0054260Y0234516D01*
X0054198Y0234545D01*
X0054137Y0234577D01*
X0054079Y0234613D01*
X0054023Y0234653D01*
X0053969Y0234695D01*
X0053918Y0234741D01*
X0053869Y0234790D01*
X0053823Y0234841D01*
X0053781Y0234895D01*
X0053741Y0234951D01*
X0053705Y0235009D01*
X0053673Y0235070D01*
X0053644Y0235132D01*
X0053618Y0235196D01*
X0053597Y0235261D01*
X0053579Y0235328D01*
X0053565Y0235395D01*
X0053555Y0235463D01*
X0053549Y0235531D01*
X0053547Y0235600D01*
X0085660Y0250574D02*
X0085662Y0250643D01*
X0085668Y0250711D01*
X0085678Y0250779D01*
X0085692Y0250846D01*
X0085710Y0250913D01*
X0085731Y0250978D01*
X0085757Y0251042D01*
X0085786Y0251104D01*
X0085818Y0251164D01*
X0085854Y0251223D01*
X0085894Y0251279D01*
X0085936Y0251333D01*
X0085982Y0251384D01*
X0086031Y0251433D01*
X0086082Y0251479D01*
X0086136Y0251521D01*
X0086192Y0251561D01*
X0086250Y0251597D01*
X0086311Y0251629D01*
X0086373Y0251658D01*
X0086437Y0251684D01*
X0086502Y0251705D01*
X0086569Y0251723D01*
X0086636Y0251737D01*
X0086704Y0251747D01*
X0086772Y0251753D01*
X0086841Y0251755D01*
X0086910Y0251753D01*
X0086978Y0251747D01*
X0087046Y0251737D01*
X0087113Y0251723D01*
X0087180Y0251705D01*
X0087245Y0251684D01*
X0087309Y0251658D01*
X0087371Y0251629D01*
X0087431Y0251597D01*
X0087490Y0251561D01*
X0087546Y0251521D01*
X0087600Y0251479D01*
X0087651Y0251433D01*
X0087700Y0251384D01*
X0087746Y0251333D01*
X0087788Y0251279D01*
X0087828Y0251223D01*
X0087864Y0251164D01*
X0087896Y0251104D01*
X0087925Y0251042D01*
X0087951Y0250978D01*
X0087972Y0250913D01*
X0087990Y0250846D01*
X0088004Y0250779D01*
X0088014Y0250711D01*
X0088020Y0250643D01*
X0088022Y0250574D01*
X0088020Y0250505D01*
X0088014Y0250437D01*
X0088004Y0250369D01*
X0087990Y0250302D01*
X0087972Y0250235D01*
X0087951Y0250170D01*
X0087925Y0250106D01*
X0087896Y0250044D01*
X0087864Y0249983D01*
X0087828Y0249925D01*
X0087788Y0249869D01*
X0087746Y0249815D01*
X0087700Y0249764D01*
X0087651Y0249715D01*
X0087600Y0249669D01*
X0087546Y0249627D01*
X0087490Y0249587D01*
X0087432Y0249551D01*
X0087371Y0249519D01*
X0087309Y0249490D01*
X0087245Y0249464D01*
X0087180Y0249443D01*
X0087113Y0249425D01*
X0087046Y0249411D01*
X0086978Y0249401D01*
X0086910Y0249395D01*
X0086841Y0249393D01*
X0086772Y0249395D01*
X0086704Y0249401D01*
X0086636Y0249411D01*
X0086569Y0249425D01*
X0086502Y0249443D01*
X0086437Y0249464D01*
X0086373Y0249490D01*
X0086311Y0249519D01*
X0086250Y0249551D01*
X0086192Y0249587D01*
X0086136Y0249627D01*
X0086082Y0249669D01*
X0086031Y0249715D01*
X0085982Y0249764D01*
X0085936Y0249815D01*
X0085894Y0249869D01*
X0085854Y0249925D01*
X0085818Y0249983D01*
X0085786Y0250044D01*
X0085757Y0250106D01*
X0085731Y0250170D01*
X0085710Y0250235D01*
X0085692Y0250302D01*
X0085678Y0250369D01*
X0085668Y0250437D01*
X0085662Y0250505D01*
X0085660Y0250574D01*
X0100635Y0218461D02*
X0100637Y0218530D01*
X0100643Y0218598D01*
X0100653Y0218666D01*
X0100667Y0218733D01*
X0100685Y0218800D01*
X0100706Y0218865D01*
X0100732Y0218929D01*
X0100761Y0218991D01*
X0100793Y0219051D01*
X0100829Y0219110D01*
X0100869Y0219166D01*
X0100911Y0219220D01*
X0100957Y0219271D01*
X0101006Y0219320D01*
X0101057Y0219366D01*
X0101111Y0219408D01*
X0101167Y0219448D01*
X0101225Y0219484D01*
X0101286Y0219516D01*
X0101348Y0219545D01*
X0101412Y0219571D01*
X0101477Y0219592D01*
X0101544Y0219610D01*
X0101611Y0219624D01*
X0101679Y0219634D01*
X0101747Y0219640D01*
X0101816Y0219642D01*
X0101885Y0219640D01*
X0101953Y0219634D01*
X0102021Y0219624D01*
X0102088Y0219610D01*
X0102155Y0219592D01*
X0102220Y0219571D01*
X0102284Y0219545D01*
X0102346Y0219516D01*
X0102406Y0219484D01*
X0102465Y0219448D01*
X0102521Y0219408D01*
X0102575Y0219366D01*
X0102626Y0219320D01*
X0102675Y0219271D01*
X0102721Y0219220D01*
X0102763Y0219166D01*
X0102803Y0219110D01*
X0102839Y0219051D01*
X0102871Y0218991D01*
X0102900Y0218929D01*
X0102926Y0218865D01*
X0102947Y0218800D01*
X0102965Y0218733D01*
X0102979Y0218666D01*
X0102989Y0218598D01*
X0102995Y0218530D01*
X0102997Y0218461D01*
X0102995Y0218392D01*
X0102989Y0218324D01*
X0102979Y0218256D01*
X0102965Y0218189D01*
X0102947Y0218122D01*
X0102926Y0218057D01*
X0102900Y0217993D01*
X0102871Y0217931D01*
X0102839Y0217870D01*
X0102803Y0217812D01*
X0102763Y0217756D01*
X0102721Y0217702D01*
X0102675Y0217651D01*
X0102626Y0217602D01*
X0102575Y0217556D01*
X0102521Y0217514D01*
X0102465Y0217474D01*
X0102407Y0217438D01*
X0102346Y0217406D01*
X0102284Y0217377D01*
X0102220Y0217351D01*
X0102155Y0217330D01*
X0102088Y0217312D01*
X0102021Y0217298D01*
X0101953Y0217288D01*
X0101885Y0217282D01*
X0101816Y0217280D01*
X0101747Y0217282D01*
X0101679Y0217288D01*
X0101611Y0217298D01*
X0101544Y0217312D01*
X0101477Y0217330D01*
X0101412Y0217351D01*
X0101348Y0217377D01*
X0101286Y0217406D01*
X0101225Y0217438D01*
X0101167Y0217474D01*
X0101111Y0217514D01*
X0101057Y0217556D01*
X0101006Y0217602D01*
X0100957Y0217651D01*
X0100911Y0217702D01*
X0100869Y0217756D01*
X0100829Y0217812D01*
X0100793Y0217870D01*
X0100761Y0217931D01*
X0100732Y0217993D01*
X0100706Y0218057D01*
X0100685Y0218122D01*
X0100667Y0218189D01*
X0100653Y0218256D01*
X0100643Y0218324D01*
X0100637Y0218392D01*
X0100635Y0218461D01*
X0179531Y0218461D02*
X0179533Y0218530D01*
X0179539Y0218598D01*
X0179549Y0218666D01*
X0179563Y0218733D01*
X0179581Y0218800D01*
X0179602Y0218865D01*
X0179628Y0218929D01*
X0179657Y0218991D01*
X0179689Y0219051D01*
X0179725Y0219110D01*
X0179765Y0219166D01*
X0179807Y0219220D01*
X0179853Y0219271D01*
X0179902Y0219320D01*
X0179953Y0219366D01*
X0180007Y0219408D01*
X0180063Y0219448D01*
X0180121Y0219484D01*
X0180182Y0219516D01*
X0180244Y0219545D01*
X0180308Y0219571D01*
X0180373Y0219592D01*
X0180440Y0219610D01*
X0180507Y0219624D01*
X0180575Y0219634D01*
X0180643Y0219640D01*
X0180712Y0219642D01*
X0180781Y0219640D01*
X0180849Y0219634D01*
X0180917Y0219624D01*
X0180984Y0219610D01*
X0181051Y0219592D01*
X0181116Y0219571D01*
X0181180Y0219545D01*
X0181242Y0219516D01*
X0181302Y0219484D01*
X0181361Y0219448D01*
X0181417Y0219408D01*
X0181471Y0219366D01*
X0181522Y0219320D01*
X0181571Y0219271D01*
X0181617Y0219220D01*
X0181659Y0219166D01*
X0181699Y0219110D01*
X0181735Y0219051D01*
X0181767Y0218991D01*
X0181796Y0218929D01*
X0181822Y0218865D01*
X0181843Y0218800D01*
X0181861Y0218733D01*
X0181875Y0218666D01*
X0181885Y0218598D01*
X0181891Y0218530D01*
X0181893Y0218461D01*
X0181891Y0218392D01*
X0181885Y0218324D01*
X0181875Y0218256D01*
X0181861Y0218189D01*
X0181843Y0218122D01*
X0181822Y0218057D01*
X0181796Y0217993D01*
X0181767Y0217931D01*
X0181735Y0217870D01*
X0181699Y0217812D01*
X0181659Y0217756D01*
X0181617Y0217702D01*
X0181571Y0217651D01*
X0181522Y0217602D01*
X0181471Y0217556D01*
X0181417Y0217514D01*
X0181361Y0217474D01*
X0181303Y0217438D01*
X0181242Y0217406D01*
X0181180Y0217377D01*
X0181116Y0217351D01*
X0181051Y0217330D01*
X0180984Y0217312D01*
X0180917Y0217298D01*
X0180849Y0217288D01*
X0180781Y0217282D01*
X0180712Y0217280D01*
X0180643Y0217282D01*
X0180575Y0217288D01*
X0180507Y0217298D01*
X0180440Y0217312D01*
X0180373Y0217330D01*
X0180308Y0217351D01*
X0180244Y0217377D01*
X0180182Y0217406D01*
X0180121Y0217438D01*
X0180063Y0217474D01*
X0180007Y0217514D01*
X0179953Y0217556D01*
X0179902Y0217602D01*
X0179853Y0217651D01*
X0179807Y0217702D01*
X0179765Y0217756D01*
X0179725Y0217812D01*
X0179689Y0217870D01*
X0179657Y0217931D01*
X0179628Y0217993D01*
X0179602Y0218057D01*
X0179581Y0218122D01*
X0179563Y0218189D01*
X0179549Y0218256D01*
X0179539Y0218324D01*
X0179533Y0218392D01*
X0179531Y0218461D01*
X0194506Y0250574D02*
X0194508Y0250643D01*
X0194514Y0250711D01*
X0194524Y0250779D01*
X0194538Y0250846D01*
X0194556Y0250913D01*
X0194577Y0250978D01*
X0194603Y0251042D01*
X0194632Y0251104D01*
X0194664Y0251164D01*
X0194700Y0251223D01*
X0194740Y0251279D01*
X0194782Y0251333D01*
X0194828Y0251384D01*
X0194877Y0251433D01*
X0194928Y0251479D01*
X0194982Y0251521D01*
X0195038Y0251561D01*
X0195096Y0251597D01*
X0195157Y0251629D01*
X0195219Y0251658D01*
X0195283Y0251684D01*
X0195348Y0251705D01*
X0195415Y0251723D01*
X0195482Y0251737D01*
X0195550Y0251747D01*
X0195618Y0251753D01*
X0195687Y0251755D01*
X0195756Y0251753D01*
X0195824Y0251747D01*
X0195892Y0251737D01*
X0195959Y0251723D01*
X0196026Y0251705D01*
X0196091Y0251684D01*
X0196155Y0251658D01*
X0196217Y0251629D01*
X0196277Y0251597D01*
X0196336Y0251561D01*
X0196392Y0251521D01*
X0196446Y0251479D01*
X0196497Y0251433D01*
X0196546Y0251384D01*
X0196592Y0251333D01*
X0196634Y0251279D01*
X0196674Y0251223D01*
X0196710Y0251164D01*
X0196742Y0251104D01*
X0196771Y0251042D01*
X0196797Y0250978D01*
X0196818Y0250913D01*
X0196836Y0250846D01*
X0196850Y0250779D01*
X0196860Y0250711D01*
X0196866Y0250643D01*
X0196868Y0250574D01*
X0196866Y0250505D01*
X0196860Y0250437D01*
X0196850Y0250369D01*
X0196836Y0250302D01*
X0196818Y0250235D01*
X0196797Y0250170D01*
X0196771Y0250106D01*
X0196742Y0250044D01*
X0196710Y0249983D01*
X0196674Y0249925D01*
X0196634Y0249869D01*
X0196592Y0249815D01*
X0196546Y0249764D01*
X0196497Y0249715D01*
X0196446Y0249669D01*
X0196392Y0249627D01*
X0196336Y0249587D01*
X0196278Y0249551D01*
X0196217Y0249519D01*
X0196155Y0249490D01*
X0196091Y0249464D01*
X0196026Y0249443D01*
X0195959Y0249425D01*
X0195892Y0249411D01*
X0195824Y0249401D01*
X0195756Y0249395D01*
X0195687Y0249393D01*
X0195618Y0249395D01*
X0195550Y0249401D01*
X0195482Y0249411D01*
X0195415Y0249425D01*
X0195348Y0249443D01*
X0195283Y0249464D01*
X0195219Y0249490D01*
X0195157Y0249519D01*
X0195096Y0249551D01*
X0195038Y0249587D01*
X0194982Y0249627D01*
X0194928Y0249669D01*
X0194877Y0249715D01*
X0194828Y0249764D01*
X0194782Y0249815D01*
X0194740Y0249869D01*
X0194700Y0249925D01*
X0194664Y0249983D01*
X0194632Y0250044D01*
X0194603Y0250106D01*
X0194577Y0250170D01*
X0194556Y0250235D01*
X0194538Y0250302D01*
X0194524Y0250369D01*
X0194514Y0250437D01*
X0194508Y0250505D01*
X0194506Y0250574D01*
X0226619Y0235600D02*
X0226621Y0235669D01*
X0226627Y0235737D01*
X0226637Y0235805D01*
X0226651Y0235872D01*
X0226669Y0235939D01*
X0226690Y0236004D01*
X0226716Y0236068D01*
X0226745Y0236130D01*
X0226777Y0236190D01*
X0226813Y0236249D01*
X0226853Y0236305D01*
X0226895Y0236359D01*
X0226941Y0236410D01*
X0226990Y0236459D01*
X0227041Y0236505D01*
X0227095Y0236547D01*
X0227151Y0236587D01*
X0227209Y0236623D01*
X0227270Y0236655D01*
X0227332Y0236684D01*
X0227396Y0236710D01*
X0227461Y0236731D01*
X0227528Y0236749D01*
X0227595Y0236763D01*
X0227663Y0236773D01*
X0227731Y0236779D01*
X0227800Y0236781D01*
X0227869Y0236779D01*
X0227937Y0236773D01*
X0228005Y0236763D01*
X0228072Y0236749D01*
X0228139Y0236731D01*
X0228204Y0236710D01*
X0228268Y0236684D01*
X0228330Y0236655D01*
X0228390Y0236623D01*
X0228449Y0236587D01*
X0228505Y0236547D01*
X0228559Y0236505D01*
X0228610Y0236459D01*
X0228659Y0236410D01*
X0228705Y0236359D01*
X0228747Y0236305D01*
X0228787Y0236249D01*
X0228823Y0236190D01*
X0228855Y0236130D01*
X0228884Y0236068D01*
X0228910Y0236004D01*
X0228931Y0235939D01*
X0228949Y0235872D01*
X0228963Y0235805D01*
X0228973Y0235737D01*
X0228979Y0235669D01*
X0228981Y0235600D01*
X0228979Y0235531D01*
X0228973Y0235463D01*
X0228963Y0235395D01*
X0228949Y0235328D01*
X0228931Y0235261D01*
X0228910Y0235196D01*
X0228884Y0235132D01*
X0228855Y0235070D01*
X0228823Y0235009D01*
X0228787Y0234951D01*
X0228747Y0234895D01*
X0228705Y0234841D01*
X0228659Y0234790D01*
X0228610Y0234741D01*
X0228559Y0234695D01*
X0228505Y0234653D01*
X0228449Y0234613D01*
X0228391Y0234577D01*
X0228330Y0234545D01*
X0228268Y0234516D01*
X0228204Y0234490D01*
X0228139Y0234469D01*
X0228072Y0234451D01*
X0228005Y0234437D01*
X0227937Y0234427D01*
X0227869Y0234421D01*
X0227800Y0234419D01*
X0227731Y0234421D01*
X0227663Y0234427D01*
X0227595Y0234437D01*
X0227528Y0234451D01*
X0227461Y0234469D01*
X0227396Y0234490D01*
X0227332Y0234516D01*
X0227270Y0234545D01*
X0227209Y0234577D01*
X0227151Y0234613D01*
X0227095Y0234653D01*
X0227041Y0234695D01*
X0226990Y0234741D01*
X0226941Y0234790D01*
X0226895Y0234841D01*
X0226853Y0234895D01*
X0226813Y0234951D01*
X0226777Y0235009D01*
X0226745Y0235070D01*
X0226716Y0235132D01*
X0226690Y0235196D01*
X0226669Y0235261D01*
X0226651Y0235328D01*
X0226637Y0235395D01*
X0226627Y0235463D01*
X0226621Y0235531D01*
X0226619Y0235600D01*
X0211644Y0203486D02*
X0211646Y0203555D01*
X0211652Y0203623D01*
X0211662Y0203691D01*
X0211676Y0203758D01*
X0211694Y0203825D01*
X0211715Y0203890D01*
X0211741Y0203954D01*
X0211770Y0204016D01*
X0211802Y0204076D01*
X0211838Y0204135D01*
X0211878Y0204191D01*
X0211920Y0204245D01*
X0211966Y0204296D01*
X0212015Y0204345D01*
X0212066Y0204391D01*
X0212120Y0204433D01*
X0212176Y0204473D01*
X0212234Y0204509D01*
X0212295Y0204541D01*
X0212357Y0204570D01*
X0212421Y0204596D01*
X0212486Y0204617D01*
X0212553Y0204635D01*
X0212620Y0204649D01*
X0212688Y0204659D01*
X0212756Y0204665D01*
X0212825Y0204667D01*
X0212894Y0204665D01*
X0212962Y0204659D01*
X0213030Y0204649D01*
X0213097Y0204635D01*
X0213164Y0204617D01*
X0213229Y0204596D01*
X0213293Y0204570D01*
X0213355Y0204541D01*
X0213415Y0204509D01*
X0213474Y0204473D01*
X0213530Y0204433D01*
X0213584Y0204391D01*
X0213635Y0204345D01*
X0213684Y0204296D01*
X0213730Y0204245D01*
X0213772Y0204191D01*
X0213812Y0204135D01*
X0213848Y0204076D01*
X0213880Y0204016D01*
X0213909Y0203954D01*
X0213935Y0203890D01*
X0213956Y0203825D01*
X0213974Y0203758D01*
X0213988Y0203691D01*
X0213998Y0203623D01*
X0214004Y0203555D01*
X0214006Y0203486D01*
X0214004Y0203417D01*
X0213998Y0203349D01*
X0213988Y0203281D01*
X0213974Y0203214D01*
X0213956Y0203147D01*
X0213935Y0203082D01*
X0213909Y0203018D01*
X0213880Y0202956D01*
X0213848Y0202895D01*
X0213812Y0202837D01*
X0213772Y0202781D01*
X0213730Y0202727D01*
X0213684Y0202676D01*
X0213635Y0202627D01*
X0213584Y0202581D01*
X0213530Y0202539D01*
X0213474Y0202499D01*
X0213416Y0202463D01*
X0213355Y0202431D01*
X0213293Y0202402D01*
X0213229Y0202376D01*
X0213164Y0202355D01*
X0213097Y0202337D01*
X0213030Y0202323D01*
X0212962Y0202313D01*
X0212894Y0202307D01*
X0212825Y0202305D01*
X0212756Y0202307D01*
X0212688Y0202313D01*
X0212620Y0202323D01*
X0212553Y0202337D01*
X0212486Y0202355D01*
X0212421Y0202376D01*
X0212357Y0202402D01*
X0212295Y0202431D01*
X0212234Y0202463D01*
X0212176Y0202499D01*
X0212120Y0202539D01*
X0212066Y0202581D01*
X0212015Y0202627D01*
X0211966Y0202676D01*
X0211920Y0202727D01*
X0211878Y0202781D01*
X0211838Y0202837D01*
X0211802Y0202895D01*
X0211770Y0202956D01*
X0211741Y0203018D01*
X0211715Y0203082D01*
X0211694Y0203147D01*
X0211676Y0203214D01*
X0211662Y0203281D01*
X0211652Y0203349D01*
X0211646Y0203417D01*
X0211644Y0203486D01*
D55*
X0251780Y0136110D02*
X0251784Y0136441D01*
X0251796Y0136772D01*
X0251817Y0137103D01*
X0251845Y0137433D01*
X0251882Y0137763D01*
X0251926Y0138091D01*
X0251979Y0138418D01*
X0252039Y0138744D01*
X0252108Y0139068D01*
X0252185Y0139390D01*
X0252269Y0139711D01*
X0252361Y0140029D01*
X0252461Y0140345D01*
X0252569Y0140658D01*
X0252685Y0140969D01*
X0252808Y0141276D01*
X0252938Y0141581D01*
X0253076Y0141882D01*
X0253221Y0142180D01*
X0253374Y0142474D01*
X0253534Y0142764D01*
X0253701Y0143050D01*
X0253874Y0143332D01*
X0254055Y0143610D01*
X0254243Y0143883D01*
X0254437Y0144152D01*
X0254637Y0144416D01*
X0254844Y0144674D01*
X0255058Y0144928D01*
X0255277Y0145176D01*
X0255503Y0145419D01*
X0255734Y0145656D01*
X0255971Y0145887D01*
X0256214Y0146113D01*
X0256462Y0146332D01*
X0256716Y0146546D01*
X0256974Y0146753D01*
X0257238Y0146953D01*
X0257507Y0147147D01*
X0257780Y0147335D01*
X0258058Y0147516D01*
X0258340Y0147689D01*
X0258626Y0147856D01*
X0258916Y0148016D01*
X0259210Y0148169D01*
X0259508Y0148314D01*
X0259809Y0148452D01*
X0260114Y0148582D01*
X0260421Y0148705D01*
X0260732Y0148821D01*
X0261045Y0148929D01*
X0261361Y0149029D01*
X0261679Y0149121D01*
X0262000Y0149205D01*
X0262322Y0149282D01*
X0262646Y0149351D01*
X0262972Y0149411D01*
X0263299Y0149464D01*
X0263627Y0149508D01*
X0263957Y0149545D01*
X0264287Y0149573D01*
X0264618Y0149594D01*
X0264949Y0149606D01*
X0265280Y0149610D01*
X0265611Y0149606D01*
X0265942Y0149594D01*
X0266273Y0149573D01*
X0266603Y0149545D01*
X0266933Y0149508D01*
X0267261Y0149464D01*
X0267588Y0149411D01*
X0267914Y0149351D01*
X0268238Y0149282D01*
X0268560Y0149205D01*
X0268881Y0149121D01*
X0269199Y0149029D01*
X0269515Y0148929D01*
X0269828Y0148821D01*
X0270139Y0148705D01*
X0270446Y0148582D01*
X0270751Y0148452D01*
X0271052Y0148314D01*
X0271350Y0148169D01*
X0271644Y0148016D01*
X0271934Y0147856D01*
X0272220Y0147689D01*
X0272502Y0147516D01*
X0272780Y0147335D01*
X0273053Y0147147D01*
X0273322Y0146953D01*
X0273586Y0146753D01*
X0273844Y0146546D01*
X0274098Y0146332D01*
X0274346Y0146113D01*
X0274589Y0145887D01*
X0274826Y0145656D01*
X0275057Y0145419D01*
X0275283Y0145176D01*
X0275502Y0144928D01*
X0275716Y0144674D01*
X0275923Y0144416D01*
X0276123Y0144152D01*
X0276317Y0143883D01*
X0276505Y0143610D01*
X0276686Y0143332D01*
X0276859Y0143050D01*
X0277026Y0142764D01*
X0277186Y0142474D01*
X0277339Y0142180D01*
X0277484Y0141882D01*
X0277622Y0141581D01*
X0277752Y0141276D01*
X0277875Y0140969D01*
X0277991Y0140658D01*
X0278099Y0140345D01*
X0278199Y0140029D01*
X0278291Y0139711D01*
X0278375Y0139390D01*
X0278452Y0139068D01*
X0278521Y0138744D01*
X0278581Y0138418D01*
X0278634Y0138091D01*
X0278678Y0137763D01*
X0278715Y0137433D01*
X0278743Y0137103D01*
X0278764Y0136772D01*
X0278776Y0136441D01*
X0278780Y0136110D01*
X0278776Y0135779D01*
X0278764Y0135448D01*
X0278743Y0135117D01*
X0278715Y0134787D01*
X0278678Y0134457D01*
X0278634Y0134129D01*
X0278581Y0133802D01*
X0278521Y0133476D01*
X0278452Y0133152D01*
X0278375Y0132830D01*
X0278291Y0132509D01*
X0278199Y0132191D01*
X0278099Y0131875D01*
X0277991Y0131562D01*
X0277875Y0131251D01*
X0277752Y0130944D01*
X0277622Y0130639D01*
X0277484Y0130338D01*
X0277339Y0130040D01*
X0277186Y0129746D01*
X0277026Y0129456D01*
X0276859Y0129170D01*
X0276686Y0128888D01*
X0276505Y0128610D01*
X0276317Y0128337D01*
X0276123Y0128068D01*
X0275923Y0127804D01*
X0275716Y0127546D01*
X0275502Y0127292D01*
X0275283Y0127044D01*
X0275057Y0126801D01*
X0274826Y0126564D01*
X0274589Y0126333D01*
X0274346Y0126107D01*
X0274098Y0125888D01*
X0273844Y0125674D01*
X0273586Y0125467D01*
X0273322Y0125267D01*
X0273053Y0125073D01*
X0272780Y0124885D01*
X0272502Y0124704D01*
X0272220Y0124531D01*
X0271934Y0124364D01*
X0271644Y0124204D01*
X0271350Y0124051D01*
X0271052Y0123906D01*
X0270751Y0123768D01*
X0270446Y0123638D01*
X0270139Y0123515D01*
X0269828Y0123399D01*
X0269515Y0123291D01*
X0269199Y0123191D01*
X0268881Y0123099D01*
X0268560Y0123015D01*
X0268238Y0122938D01*
X0267914Y0122869D01*
X0267588Y0122809D01*
X0267261Y0122756D01*
X0266933Y0122712D01*
X0266603Y0122675D01*
X0266273Y0122647D01*
X0265942Y0122626D01*
X0265611Y0122614D01*
X0265280Y0122610D01*
X0264949Y0122614D01*
X0264618Y0122626D01*
X0264287Y0122647D01*
X0263957Y0122675D01*
X0263627Y0122712D01*
X0263299Y0122756D01*
X0262972Y0122809D01*
X0262646Y0122869D01*
X0262322Y0122938D01*
X0262000Y0123015D01*
X0261679Y0123099D01*
X0261361Y0123191D01*
X0261045Y0123291D01*
X0260732Y0123399D01*
X0260421Y0123515D01*
X0260114Y0123638D01*
X0259809Y0123768D01*
X0259508Y0123906D01*
X0259210Y0124051D01*
X0258916Y0124204D01*
X0258626Y0124364D01*
X0258340Y0124531D01*
X0258058Y0124704D01*
X0257780Y0124885D01*
X0257507Y0125073D01*
X0257238Y0125267D01*
X0256974Y0125467D01*
X0256716Y0125674D01*
X0256462Y0125888D01*
X0256214Y0126107D01*
X0255971Y0126333D01*
X0255734Y0126564D01*
X0255503Y0126801D01*
X0255277Y0127044D01*
X0255058Y0127292D01*
X0254844Y0127546D01*
X0254637Y0127804D01*
X0254437Y0128068D01*
X0254243Y0128337D01*
X0254055Y0128610D01*
X0253874Y0128888D01*
X0253701Y0129170D01*
X0253534Y0129456D01*
X0253374Y0129746D01*
X0253221Y0130040D01*
X0253076Y0130338D01*
X0252938Y0130639D01*
X0252808Y0130944D01*
X0252685Y0131251D01*
X0252569Y0131562D01*
X0252461Y0131875D01*
X0252361Y0132191D01*
X0252269Y0132509D01*
X0252185Y0132830D01*
X0252108Y0133152D01*
X0252039Y0133476D01*
X0251979Y0133802D01*
X0251926Y0134129D01*
X0251882Y0134457D01*
X0251845Y0134787D01*
X0251817Y0135117D01*
X0251796Y0135448D01*
X0251784Y0135779D01*
X0251780Y0136110D01*
X0251780Y0018000D02*
X0251784Y0018331D01*
X0251796Y0018662D01*
X0251817Y0018993D01*
X0251845Y0019323D01*
X0251882Y0019653D01*
X0251926Y0019981D01*
X0251979Y0020308D01*
X0252039Y0020634D01*
X0252108Y0020958D01*
X0252185Y0021280D01*
X0252269Y0021601D01*
X0252361Y0021919D01*
X0252461Y0022235D01*
X0252569Y0022548D01*
X0252685Y0022859D01*
X0252808Y0023166D01*
X0252938Y0023471D01*
X0253076Y0023772D01*
X0253221Y0024070D01*
X0253374Y0024364D01*
X0253534Y0024654D01*
X0253701Y0024940D01*
X0253874Y0025222D01*
X0254055Y0025500D01*
X0254243Y0025773D01*
X0254437Y0026042D01*
X0254637Y0026306D01*
X0254844Y0026564D01*
X0255058Y0026818D01*
X0255277Y0027066D01*
X0255503Y0027309D01*
X0255734Y0027546D01*
X0255971Y0027777D01*
X0256214Y0028003D01*
X0256462Y0028222D01*
X0256716Y0028436D01*
X0256974Y0028643D01*
X0257238Y0028843D01*
X0257507Y0029037D01*
X0257780Y0029225D01*
X0258058Y0029406D01*
X0258340Y0029579D01*
X0258626Y0029746D01*
X0258916Y0029906D01*
X0259210Y0030059D01*
X0259508Y0030204D01*
X0259809Y0030342D01*
X0260114Y0030472D01*
X0260421Y0030595D01*
X0260732Y0030711D01*
X0261045Y0030819D01*
X0261361Y0030919D01*
X0261679Y0031011D01*
X0262000Y0031095D01*
X0262322Y0031172D01*
X0262646Y0031241D01*
X0262972Y0031301D01*
X0263299Y0031354D01*
X0263627Y0031398D01*
X0263957Y0031435D01*
X0264287Y0031463D01*
X0264618Y0031484D01*
X0264949Y0031496D01*
X0265280Y0031500D01*
X0265611Y0031496D01*
X0265942Y0031484D01*
X0266273Y0031463D01*
X0266603Y0031435D01*
X0266933Y0031398D01*
X0267261Y0031354D01*
X0267588Y0031301D01*
X0267914Y0031241D01*
X0268238Y0031172D01*
X0268560Y0031095D01*
X0268881Y0031011D01*
X0269199Y0030919D01*
X0269515Y0030819D01*
X0269828Y0030711D01*
X0270139Y0030595D01*
X0270446Y0030472D01*
X0270751Y0030342D01*
X0271052Y0030204D01*
X0271350Y0030059D01*
X0271644Y0029906D01*
X0271934Y0029746D01*
X0272220Y0029579D01*
X0272502Y0029406D01*
X0272780Y0029225D01*
X0273053Y0029037D01*
X0273322Y0028843D01*
X0273586Y0028643D01*
X0273844Y0028436D01*
X0274098Y0028222D01*
X0274346Y0028003D01*
X0274589Y0027777D01*
X0274826Y0027546D01*
X0275057Y0027309D01*
X0275283Y0027066D01*
X0275502Y0026818D01*
X0275716Y0026564D01*
X0275923Y0026306D01*
X0276123Y0026042D01*
X0276317Y0025773D01*
X0276505Y0025500D01*
X0276686Y0025222D01*
X0276859Y0024940D01*
X0277026Y0024654D01*
X0277186Y0024364D01*
X0277339Y0024070D01*
X0277484Y0023772D01*
X0277622Y0023471D01*
X0277752Y0023166D01*
X0277875Y0022859D01*
X0277991Y0022548D01*
X0278099Y0022235D01*
X0278199Y0021919D01*
X0278291Y0021601D01*
X0278375Y0021280D01*
X0278452Y0020958D01*
X0278521Y0020634D01*
X0278581Y0020308D01*
X0278634Y0019981D01*
X0278678Y0019653D01*
X0278715Y0019323D01*
X0278743Y0018993D01*
X0278764Y0018662D01*
X0278776Y0018331D01*
X0278780Y0018000D01*
X0278776Y0017669D01*
X0278764Y0017338D01*
X0278743Y0017007D01*
X0278715Y0016677D01*
X0278678Y0016347D01*
X0278634Y0016019D01*
X0278581Y0015692D01*
X0278521Y0015366D01*
X0278452Y0015042D01*
X0278375Y0014720D01*
X0278291Y0014399D01*
X0278199Y0014081D01*
X0278099Y0013765D01*
X0277991Y0013452D01*
X0277875Y0013141D01*
X0277752Y0012834D01*
X0277622Y0012529D01*
X0277484Y0012228D01*
X0277339Y0011930D01*
X0277186Y0011636D01*
X0277026Y0011346D01*
X0276859Y0011060D01*
X0276686Y0010778D01*
X0276505Y0010500D01*
X0276317Y0010227D01*
X0276123Y0009958D01*
X0275923Y0009694D01*
X0275716Y0009436D01*
X0275502Y0009182D01*
X0275283Y0008934D01*
X0275057Y0008691D01*
X0274826Y0008454D01*
X0274589Y0008223D01*
X0274346Y0007997D01*
X0274098Y0007778D01*
X0273844Y0007564D01*
X0273586Y0007357D01*
X0273322Y0007157D01*
X0273053Y0006963D01*
X0272780Y0006775D01*
X0272502Y0006594D01*
X0272220Y0006421D01*
X0271934Y0006254D01*
X0271644Y0006094D01*
X0271350Y0005941D01*
X0271052Y0005796D01*
X0270751Y0005658D01*
X0270446Y0005528D01*
X0270139Y0005405D01*
X0269828Y0005289D01*
X0269515Y0005181D01*
X0269199Y0005081D01*
X0268881Y0004989D01*
X0268560Y0004905D01*
X0268238Y0004828D01*
X0267914Y0004759D01*
X0267588Y0004699D01*
X0267261Y0004646D01*
X0266933Y0004602D01*
X0266603Y0004565D01*
X0266273Y0004537D01*
X0265942Y0004516D01*
X0265611Y0004504D01*
X0265280Y0004500D01*
X0264949Y0004504D01*
X0264618Y0004516D01*
X0264287Y0004537D01*
X0263957Y0004565D01*
X0263627Y0004602D01*
X0263299Y0004646D01*
X0262972Y0004699D01*
X0262646Y0004759D01*
X0262322Y0004828D01*
X0262000Y0004905D01*
X0261679Y0004989D01*
X0261361Y0005081D01*
X0261045Y0005181D01*
X0260732Y0005289D01*
X0260421Y0005405D01*
X0260114Y0005528D01*
X0259809Y0005658D01*
X0259508Y0005796D01*
X0259210Y0005941D01*
X0258916Y0006094D01*
X0258626Y0006254D01*
X0258340Y0006421D01*
X0258058Y0006594D01*
X0257780Y0006775D01*
X0257507Y0006963D01*
X0257238Y0007157D01*
X0256974Y0007357D01*
X0256716Y0007564D01*
X0256462Y0007778D01*
X0256214Y0007997D01*
X0255971Y0008223D01*
X0255734Y0008454D01*
X0255503Y0008691D01*
X0255277Y0008934D01*
X0255058Y0009182D01*
X0254844Y0009436D01*
X0254637Y0009694D01*
X0254437Y0009958D01*
X0254243Y0010227D01*
X0254055Y0010500D01*
X0253874Y0010778D01*
X0253701Y0011060D01*
X0253534Y0011346D01*
X0253374Y0011636D01*
X0253221Y0011930D01*
X0253076Y0012228D01*
X0252938Y0012529D01*
X0252808Y0012834D01*
X0252685Y0013141D01*
X0252569Y0013452D01*
X0252461Y0013765D01*
X0252361Y0014081D01*
X0252269Y0014399D01*
X0252185Y0014720D01*
X0252108Y0015042D01*
X0252039Y0015366D01*
X0251979Y0015692D01*
X0251926Y0016019D01*
X0251882Y0016347D01*
X0251845Y0016677D01*
X0251817Y0017007D01*
X0251796Y0017338D01*
X0251784Y0017669D01*
X0251780Y0018000D01*
X0003748Y0018000D02*
X0003752Y0018331D01*
X0003764Y0018662D01*
X0003785Y0018993D01*
X0003813Y0019323D01*
X0003850Y0019653D01*
X0003894Y0019981D01*
X0003947Y0020308D01*
X0004007Y0020634D01*
X0004076Y0020958D01*
X0004153Y0021280D01*
X0004237Y0021601D01*
X0004329Y0021919D01*
X0004429Y0022235D01*
X0004537Y0022548D01*
X0004653Y0022859D01*
X0004776Y0023166D01*
X0004906Y0023471D01*
X0005044Y0023772D01*
X0005189Y0024070D01*
X0005342Y0024364D01*
X0005502Y0024654D01*
X0005669Y0024940D01*
X0005842Y0025222D01*
X0006023Y0025500D01*
X0006211Y0025773D01*
X0006405Y0026042D01*
X0006605Y0026306D01*
X0006812Y0026564D01*
X0007026Y0026818D01*
X0007245Y0027066D01*
X0007471Y0027309D01*
X0007702Y0027546D01*
X0007939Y0027777D01*
X0008182Y0028003D01*
X0008430Y0028222D01*
X0008684Y0028436D01*
X0008942Y0028643D01*
X0009206Y0028843D01*
X0009475Y0029037D01*
X0009748Y0029225D01*
X0010026Y0029406D01*
X0010308Y0029579D01*
X0010594Y0029746D01*
X0010884Y0029906D01*
X0011178Y0030059D01*
X0011476Y0030204D01*
X0011777Y0030342D01*
X0012082Y0030472D01*
X0012389Y0030595D01*
X0012700Y0030711D01*
X0013013Y0030819D01*
X0013329Y0030919D01*
X0013647Y0031011D01*
X0013968Y0031095D01*
X0014290Y0031172D01*
X0014614Y0031241D01*
X0014940Y0031301D01*
X0015267Y0031354D01*
X0015595Y0031398D01*
X0015925Y0031435D01*
X0016255Y0031463D01*
X0016586Y0031484D01*
X0016917Y0031496D01*
X0017248Y0031500D01*
X0017579Y0031496D01*
X0017910Y0031484D01*
X0018241Y0031463D01*
X0018571Y0031435D01*
X0018901Y0031398D01*
X0019229Y0031354D01*
X0019556Y0031301D01*
X0019882Y0031241D01*
X0020206Y0031172D01*
X0020528Y0031095D01*
X0020849Y0031011D01*
X0021167Y0030919D01*
X0021483Y0030819D01*
X0021796Y0030711D01*
X0022107Y0030595D01*
X0022414Y0030472D01*
X0022719Y0030342D01*
X0023020Y0030204D01*
X0023318Y0030059D01*
X0023612Y0029906D01*
X0023902Y0029746D01*
X0024188Y0029579D01*
X0024470Y0029406D01*
X0024748Y0029225D01*
X0025021Y0029037D01*
X0025290Y0028843D01*
X0025554Y0028643D01*
X0025812Y0028436D01*
X0026066Y0028222D01*
X0026314Y0028003D01*
X0026557Y0027777D01*
X0026794Y0027546D01*
X0027025Y0027309D01*
X0027251Y0027066D01*
X0027470Y0026818D01*
X0027684Y0026564D01*
X0027891Y0026306D01*
X0028091Y0026042D01*
X0028285Y0025773D01*
X0028473Y0025500D01*
X0028654Y0025222D01*
X0028827Y0024940D01*
X0028994Y0024654D01*
X0029154Y0024364D01*
X0029307Y0024070D01*
X0029452Y0023772D01*
X0029590Y0023471D01*
X0029720Y0023166D01*
X0029843Y0022859D01*
X0029959Y0022548D01*
X0030067Y0022235D01*
X0030167Y0021919D01*
X0030259Y0021601D01*
X0030343Y0021280D01*
X0030420Y0020958D01*
X0030489Y0020634D01*
X0030549Y0020308D01*
X0030602Y0019981D01*
X0030646Y0019653D01*
X0030683Y0019323D01*
X0030711Y0018993D01*
X0030732Y0018662D01*
X0030744Y0018331D01*
X0030748Y0018000D01*
X0030744Y0017669D01*
X0030732Y0017338D01*
X0030711Y0017007D01*
X0030683Y0016677D01*
X0030646Y0016347D01*
X0030602Y0016019D01*
X0030549Y0015692D01*
X0030489Y0015366D01*
X0030420Y0015042D01*
X0030343Y0014720D01*
X0030259Y0014399D01*
X0030167Y0014081D01*
X0030067Y0013765D01*
X0029959Y0013452D01*
X0029843Y0013141D01*
X0029720Y0012834D01*
X0029590Y0012529D01*
X0029452Y0012228D01*
X0029307Y0011930D01*
X0029154Y0011636D01*
X0028994Y0011346D01*
X0028827Y0011060D01*
X0028654Y0010778D01*
X0028473Y0010500D01*
X0028285Y0010227D01*
X0028091Y0009958D01*
X0027891Y0009694D01*
X0027684Y0009436D01*
X0027470Y0009182D01*
X0027251Y0008934D01*
X0027025Y0008691D01*
X0026794Y0008454D01*
X0026557Y0008223D01*
X0026314Y0007997D01*
X0026066Y0007778D01*
X0025812Y0007564D01*
X0025554Y0007357D01*
X0025290Y0007157D01*
X0025021Y0006963D01*
X0024748Y0006775D01*
X0024470Y0006594D01*
X0024188Y0006421D01*
X0023902Y0006254D01*
X0023612Y0006094D01*
X0023318Y0005941D01*
X0023020Y0005796D01*
X0022719Y0005658D01*
X0022414Y0005528D01*
X0022107Y0005405D01*
X0021796Y0005289D01*
X0021483Y0005181D01*
X0021167Y0005081D01*
X0020849Y0004989D01*
X0020528Y0004905D01*
X0020206Y0004828D01*
X0019882Y0004759D01*
X0019556Y0004699D01*
X0019229Y0004646D01*
X0018901Y0004602D01*
X0018571Y0004565D01*
X0018241Y0004537D01*
X0017910Y0004516D01*
X0017579Y0004504D01*
X0017248Y0004500D01*
X0016917Y0004504D01*
X0016586Y0004516D01*
X0016255Y0004537D01*
X0015925Y0004565D01*
X0015595Y0004602D01*
X0015267Y0004646D01*
X0014940Y0004699D01*
X0014614Y0004759D01*
X0014290Y0004828D01*
X0013968Y0004905D01*
X0013647Y0004989D01*
X0013329Y0005081D01*
X0013013Y0005181D01*
X0012700Y0005289D01*
X0012389Y0005405D01*
X0012082Y0005528D01*
X0011777Y0005658D01*
X0011476Y0005796D01*
X0011178Y0005941D01*
X0010884Y0006094D01*
X0010594Y0006254D01*
X0010308Y0006421D01*
X0010026Y0006594D01*
X0009748Y0006775D01*
X0009475Y0006963D01*
X0009206Y0007157D01*
X0008942Y0007357D01*
X0008684Y0007564D01*
X0008430Y0007778D01*
X0008182Y0007997D01*
X0007939Y0008223D01*
X0007702Y0008454D01*
X0007471Y0008691D01*
X0007245Y0008934D01*
X0007026Y0009182D01*
X0006812Y0009436D01*
X0006605Y0009694D01*
X0006405Y0009958D01*
X0006211Y0010227D01*
X0006023Y0010500D01*
X0005842Y0010778D01*
X0005669Y0011060D01*
X0005502Y0011346D01*
X0005342Y0011636D01*
X0005189Y0011930D01*
X0005044Y0012228D01*
X0004906Y0012529D01*
X0004776Y0012834D01*
X0004653Y0013141D01*
X0004537Y0013452D01*
X0004429Y0013765D01*
X0004329Y0014081D01*
X0004237Y0014399D01*
X0004153Y0014720D01*
X0004076Y0015042D01*
X0004007Y0015366D01*
X0003947Y0015692D01*
X0003894Y0016019D01*
X0003850Y0016347D01*
X0003813Y0016677D01*
X0003785Y0017007D01*
X0003764Y0017338D01*
X0003752Y0017669D01*
X0003748Y0018000D01*
X0003748Y0360520D02*
X0003752Y0360851D01*
X0003764Y0361182D01*
X0003785Y0361513D01*
X0003813Y0361843D01*
X0003850Y0362173D01*
X0003894Y0362501D01*
X0003947Y0362828D01*
X0004007Y0363154D01*
X0004076Y0363478D01*
X0004153Y0363800D01*
X0004237Y0364121D01*
X0004329Y0364439D01*
X0004429Y0364755D01*
X0004537Y0365068D01*
X0004653Y0365379D01*
X0004776Y0365686D01*
X0004906Y0365991D01*
X0005044Y0366292D01*
X0005189Y0366590D01*
X0005342Y0366884D01*
X0005502Y0367174D01*
X0005669Y0367460D01*
X0005842Y0367742D01*
X0006023Y0368020D01*
X0006211Y0368293D01*
X0006405Y0368562D01*
X0006605Y0368826D01*
X0006812Y0369084D01*
X0007026Y0369338D01*
X0007245Y0369586D01*
X0007471Y0369829D01*
X0007702Y0370066D01*
X0007939Y0370297D01*
X0008182Y0370523D01*
X0008430Y0370742D01*
X0008684Y0370956D01*
X0008942Y0371163D01*
X0009206Y0371363D01*
X0009475Y0371557D01*
X0009748Y0371745D01*
X0010026Y0371926D01*
X0010308Y0372099D01*
X0010594Y0372266D01*
X0010884Y0372426D01*
X0011178Y0372579D01*
X0011476Y0372724D01*
X0011777Y0372862D01*
X0012082Y0372992D01*
X0012389Y0373115D01*
X0012700Y0373231D01*
X0013013Y0373339D01*
X0013329Y0373439D01*
X0013647Y0373531D01*
X0013968Y0373615D01*
X0014290Y0373692D01*
X0014614Y0373761D01*
X0014940Y0373821D01*
X0015267Y0373874D01*
X0015595Y0373918D01*
X0015925Y0373955D01*
X0016255Y0373983D01*
X0016586Y0374004D01*
X0016917Y0374016D01*
X0017248Y0374020D01*
X0017579Y0374016D01*
X0017910Y0374004D01*
X0018241Y0373983D01*
X0018571Y0373955D01*
X0018901Y0373918D01*
X0019229Y0373874D01*
X0019556Y0373821D01*
X0019882Y0373761D01*
X0020206Y0373692D01*
X0020528Y0373615D01*
X0020849Y0373531D01*
X0021167Y0373439D01*
X0021483Y0373339D01*
X0021796Y0373231D01*
X0022107Y0373115D01*
X0022414Y0372992D01*
X0022719Y0372862D01*
X0023020Y0372724D01*
X0023318Y0372579D01*
X0023612Y0372426D01*
X0023902Y0372266D01*
X0024188Y0372099D01*
X0024470Y0371926D01*
X0024748Y0371745D01*
X0025021Y0371557D01*
X0025290Y0371363D01*
X0025554Y0371163D01*
X0025812Y0370956D01*
X0026066Y0370742D01*
X0026314Y0370523D01*
X0026557Y0370297D01*
X0026794Y0370066D01*
X0027025Y0369829D01*
X0027251Y0369586D01*
X0027470Y0369338D01*
X0027684Y0369084D01*
X0027891Y0368826D01*
X0028091Y0368562D01*
X0028285Y0368293D01*
X0028473Y0368020D01*
X0028654Y0367742D01*
X0028827Y0367460D01*
X0028994Y0367174D01*
X0029154Y0366884D01*
X0029307Y0366590D01*
X0029452Y0366292D01*
X0029590Y0365991D01*
X0029720Y0365686D01*
X0029843Y0365379D01*
X0029959Y0365068D01*
X0030067Y0364755D01*
X0030167Y0364439D01*
X0030259Y0364121D01*
X0030343Y0363800D01*
X0030420Y0363478D01*
X0030489Y0363154D01*
X0030549Y0362828D01*
X0030602Y0362501D01*
X0030646Y0362173D01*
X0030683Y0361843D01*
X0030711Y0361513D01*
X0030732Y0361182D01*
X0030744Y0360851D01*
X0030748Y0360520D01*
X0030744Y0360189D01*
X0030732Y0359858D01*
X0030711Y0359527D01*
X0030683Y0359197D01*
X0030646Y0358867D01*
X0030602Y0358539D01*
X0030549Y0358212D01*
X0030489Y0357886D01*
X0030420Y0357562D01*
X0030343Y0357240D01*
X0030259Y0356919D01*
X0030167Y0356601D01*
X0030067Y0356285D01*
X0029959Y0355972D01*
X0029843Y0355661D01*
X0029720Y0355354D01*
X0029590Y0355049D01*
X0029452Y0354748D01*
X0029307Y0354450D01*
X0029154Y0354156D01*
X0028994Y0353866D01*
X0028827Y0353580D01*
X0028654Y0353298D01*
X0028473Y0353020D01*
X0028285Y0352747D01*
X0028091Y0352478D01*
X0027891Y0352214D01*
X0027684Y0351956D01*
X0027470Y0351702D01*
X0027251Y0351454D01*
X0027025Y0351211D01*
X0026794Y0350974D01*
X0026557Y0350743D01*
X0026314Y0350517D01*
X0026066Y0350298D01*
X0025812Y0350084D01*
X0025554Y0349877D01*
X0025290Y0349677D01*
X0025021Y0349483D01*
X0024748Y0349295D01*
X0024470Y0349114D01*
X0024188Y0348941D01*
X0023902Y0348774D01*
X0023612Y0348614D01*
X0023318Y0348461D01*
X0023020Y0348316D01*
X0022719Y0348178D01*
X0022414Y0348048D01*
X0022107Y0347925D01*
X0021796Y0347809D01*
X0021483Y0347701D01*
X0021167Y0347601D01*
X0020849Y0347509D01*
X0020528Y0347425D01*
X0020206Y0347348D01*
X0019882Y0347279D01*
X0019556Y0347219D01*
X0019229Y0347166D01*
X0018901Y0347122D01*
X0018571Y0347085D01*
X0018241Y0347057D01*
X0017910Y0347036D01*
X0017579Y0347024D01*
X0017248Y0347020D01*
X0016917Y0347024D01*
X0016586Y0347036D01*
X0016255Y0347057D01*
X0015925Y0347085D01*
X0015595Y0347122D01*
X0015267Y0347166D01*
X0014940Y0347219D01*
X0014614Y0347279D01*
X0014290Y0347348D01*
X0013968Y0347425D01*
X0013647Y0347509D01*
X0013329Y0347601D01*
X0013013Y0347701D01*
X0012700Y0347809D01*
X0012389Y0347925D01*
X0012082Y0348048D01*
X0011777Y0348178D01*
X0011476Y0348316D01*
X0011178Y0348461D01*
X0010884Y0348614D01*
X0010594Y0348774D01*
X0010308Y0348941D01*
X0010026Y0349114D01*
X0009748Y0349295D01*
X0009475Y0349483D01*
X0009206Y0349677D01*
X0008942Y0349877D01*
X0008684Y0350084D01*
X0008430Y0350298D01*
X0008182Y0350517D01*
X0007939Y0350743D01*
X0007702Y0350974D01*
X0007471Y0351211D01*
X0007245Y0351454D01*
X0007026Y0351702D01*
X0006812Y0351956D01*
X0006605Y0352214D01*
X0006405Y0352478D01*
X0006211Y0352747D01*
X0006023Y0353020D01*
X0005842Y0353298D01*
X0005669Y0353580D01*
X0005502Y0353866D01*
X0005342Y0354156D01*
X0005189Y0354450D01*
X0005044Y0354748D01*
X0004906Y0355049D01*
X0004776Y0355354D01*
X0004653Y0355661D01*
X0004537Y0355972D01*
X0004429Y0356285D01*
X0004329Y0356601D01*
X0004237Y0356919D01*
X0004153Y0357240D01*
X0004076Y0357562D01*
X0004007Y0357886D01*
X0003947Y0358212D01*
X0003894Y0358539D01*
X0003850Y0358867D01*
X0003813Y0359197D01*
X0003785Y0359527D01*
X0003764Y0359858D01*
X0003752Y0360189D01*
X0003748Y0360520D01*
X0251780Y0360520D02*
X0251784Y0360851D01*
X0251796Y0361182D01*
X0251817Y0361513D01*
X0251845Y0361843D01*
X0251882Y0362173D01*
X0251926Y0362501D01*
X0251979Y0362828D01*
X0252039Y0363154D01*
X0252108Y0363478D01*
X0252185Y0363800D01*
X0252269Y0364121D01*
X0252361Y0364439D01*
X0252461Y0364755D01*
X0252569Y0365068D01*
X0252685Y0365379D01*
X0252808Y0365686D01*
X0252938Y0365991D01*
X0253076Y0366292D01*
X0253221Y0366590D01*
X0253374Y0366884D01*
X0253534Y0367174D01*
X0253701Y0367460D01*
X0253874Y0367742D01*
X0254055Y0368020D01*
X0254243Y0368293D01*
X0254437Y0368562D01*
X0254637Y0368826D01*
X0254844Y0369084D01*
X0255058Y0369338D01*
X0255277Y0369586D01*
X0255503Y0369829D01*
X0255734Y0370066D01*
X0255971Y0370297D01*
X0256214Y0370523D01*
X0256462Y0370742D01*
X0256716Y0370956D01*
X0256974Y0371163D01*
X0257238Y0371363D01*
X0257507Y0371557D01*
X0257780Y0371745D01*
X0258058Y0371926D01*
X0258340Y0372099D01*
X0258626Y0372266D01*
X0258916Y0372426D01*
X0259210Y0372579D01*
X0259508Y0372724D01*
X0259809Y0372862D01*
X0260114Y0372992D01*
X0260421Y0373115D01*
X0260732Y0373231D01*
X0261045Y0373339D01*
X0261361Y0373439D01*
X0261679Y0373531D01*
X0262000Y0373615D01*
X0262322Y0373692D01*
X0262646Y0373761D01*
X0262972Y0373821D01*
X0263299Y0373874D01*
X0263627Y0373918D01*
X0263957Y0373955D01*
X0264287Y0373983D01*
X0264618Y0374004D01*
X0264949Y0374016D01*
X0265280Y0374020D01*
X0265611Y0374016D01*
X0265942Y0374004D01*
X0266273Y0373983D01*
X0266603Y0373955D01*
X0266933Y0373918D01*
X0267261Y0373874D01*
X0267588Y0373821D01*
X0267914Y0373761D01*
X0268238Y0373692D01*
X0268560Y0373615D01*
X0268881Y0373531D01*
X0269199Y0373439D01*
X0269515Y0373339D01*
X0269828Y0373231D01*
X0270139Y0373115D01*
X0270446Y0372992D01*
X0270751Y0372862D01*
X0271052Y0372724D01*
X0271350Y0372579D01*
X0271644Y0372426D01*
X0271934Y0372266D01*
X0272220Y0372099D01*
X0272502Y0371926D01*
X0272780Y0371745D01*
X0273053Y0371557D01*
X0273322Y0371363D01*
X0273586Y0371163D01*
X0273844Y0370956D01*
X0274098Y0370742D01*
X0274346Y0370523D01*
X0274589Y0370297D01*
X0274826Y0370066D01*
X0275057Y0369829D01*
X0275283Y0369586D01*
X0275502Y0369338D01*
X0275716Y0369084D01*
X0275923Y0368826D01*
X0276123Y0368562D01*
X0276317Y0368293D01*
X0276505Y0368020D01*
X0276686Y0367742D01*
X0276859Y0367460D01*
X0277026Y0367174D01*
X0277186Y0366884D01*
X0277339Y0366590D01*
X0277484Y0366292D01*
X0277622Y0365991D01*
X0277752Y0365686D01*
X0277875Y0365379D01*
X0277991Y0365068D01*
X0278099Y0364755D01*
X0278199Y0364439D01*
X0278291Y0364121D01*
X0278375Y0363800D01*
X0278452Y0363478D01*
X0278521Y0363154D01*
X0278581Y0362828D01*
X0278634Y0362501D01*
X0278678Y0362173D01*
X0278715Y0361843D01*
X0278743Y0361513D01*
X0278764Y0361182D01*
X0278776Y0360851D01*
X0278780Y0360520D01*
X0278776Y0360189D01*
X0278764Y0359858D01*
X0278743Y0359527D01*
X0278715Y0359197D01*
X0278678Y0358867D01*
X0278634Y0358539D01*
X0278581Y0358212D01*
X0278521Y0357886D01*
X0278452Y0357562D01*
X0278375Y0357240D01*
X0278291Y0356919D01*
X0278199Y0356601D01*
X0278099Y0356285D01*
X0277991Y0355972D01*
X0277875Y0355661D01*
X0277752Y0355354D01*
X0277622Y0355049D01*
X0277484Y0354748D01*
X0277339Y0354450D01*
X0277186Y0354156D01*
X0277026Y0353866D01*
X0276859Y0353580D01*
X0276686Y0353298D01*
X0276505Y0353020D01*
X0276317Y0352747D01*
X0276123Y0352478D01*
X0275923Y0352214D01*
X0275716Y0351956D01*
X0275502Y0351702D01*
X0275283Y0351454D01*
X0275057Y0351211D01*
X0274826Y0350974D01*
X0274589Y0350743D01*
X0274346Y0350517D01*
X0274098Y0350298D01*
X0273844Y0350084D01*
X0273586Y0349877D01*
X0273322Y0349677D01*
X0273053Y0349483D01*
X0272780Y0349295D01*
X0272502Y0349114D01*
X0272220Y0348941D01*
X0271934Y0348774D01*
X0271644Y0348614D01*
X0271350Y0348461D01*
X0271052Y0348316D01*
X0270751Y0348178D01*
X0270446Y0348048D01*
X0270139Y0347925D01*
X0269828Y0347809D01*
X0269515Y0347701D01*
X0269199Y0347601D01*
X0268881Y0347509D01*
X0268560Y0347425D01*
X0268238Y0347348D01*
X0267914Y0347279D01*
X0267588Y0347219D01*
X0267261Y0347166D01*
X0266933Y0347122D01*
X0266603Y0347085D01*
X0266273Y0347057D01*
X0265942Y0347036D01*
X0265611Y0347024D01*
X0265280Y0347020D01*
X0264949Y0347024D01*
X0264618Y0347036D01*
X0264287Y0347057D01*
X0263957Y0347085D01*
X0263627Y0347122D01*
X0263299Y0347166D01*
X0262972Y0347219D01*
X0262646Y0347279D01*
X0262322Y0347348D01*
X0262000Y0347425D01*
X0261679Y0347509D01*
X0261361Y0347601D01*
X0261045Y0347701D01*
X0260732Y0347809D01*
X0260421Y0347925D01*
X0260114Y0348048D01*
X0259809Y0348178D01*
X0259508Y0348316D01*
X0259210Y0348461D01*
X0258916Y0348614D01*
X0258626Y0348774D01*
X0258340Y0348941D01*
X0258058Y0349114D01*
X0257780Y0349295D01*
X0257507Y0349483D01*
X0257238Y0349677D01*
X0256974Y0349877D01*
X0256716Y0350084D01*
X0256462Y0350298D01*
X0256214Y0350517D01*
X0255971Y0350743D01*
X0255734Y0350974D01*
X0255503Y0351211D01*
X0255277Y0351454D01*
X0255058Y0351702D01*
X0254844Y0351956D01*
X0254637Y0352214D01*
X0254437Y0352478D01*
X0254243Y0352747D01*
X0254055Y0353020D01*
X0253874Y0353298D01*
X0253701Y0353580D01*
X0253534Y0353866D01*
X0253374Y0354156D01*
X0253221Y0354450D01*
X0253076Y0354748D01*
X0252938Y0355049D01*
X0252808Y0355354D01*
X0252685Y0355661D01*
X0252569Y0355972D01*
X0252461Y0356285D01*
X0252361Y0356601D01*
X0252269Y0356919D01*
X0252185Y0357240D01*
X0252108Y0357562D01*
X0252039Y0357886D01*
X0251979Y0358212D01*
X0251926Y0358539D01*
X0251882Y0358867D01*
X0251845Y0359197D01*
X0251817Y0359527D01*
X0251796Y0359858D01*
X0251784Y0360189D01*
X0251780Y0360520D01*
D56*
X0089066Y0313281D03*
X0083266Y0313281D03*
D57*
X0193823Y0313276D03*
M02*
