G75*
%MOIN*%
%OFA0B0*%
%FSLAX25Y25*%
%IPPOS*%
%LPD*%
%AMOC8*
5,1,8,0,0,1.08239X$1,22.5*
%
%ADD10C,0.00000*%
%ADD11R,1.10378X0.00339*%
%ADD12R,0.00677X0.00339*%
%ADD13R,0.00339X0.00339*%
%ADD14R,0.01693X0.00339*%
%ADD15R,0.01016X0.00339*%
%ADD16R,0.03724X0.00339*%
%ADD17R,0.02370X0.00339*%
%ADD18R,0.03047X0.00339*%
%ADD19R,0.03386X0.00339*%
%ADD20R,0.01354X0.00339*%
%ADD21R,0.02709X0.00339*%
%ADD22R,0.02031X0.00339*%
%ADD23R,1.15118X0.00339*%
%ADD24R,0.65685X0.00339*%
%ADD25R,0.43339X0.00339*%
%ADD26R,0.05417X0.00339*%
%ADD27R,0.04740X0.00339*%
%ADD28R,0.04063X0.00339*%
%ADD29R,0.06094X0.00339*%
%ADD30R,0.04402X0.00339*%
%ADD31R,0.66024X0.00339*%
%ADD32R,0.43677X0.00339*%
%ADD33R,1.14441X0.00339*%
%ADD34R,1.13764X0.00339*%
%ADD35R,1.13087X0.00339*%
%ADD36R,1.12409X0.00339*%
%ADD37R,1.11055X0.00339*%
%ADD38R,0.10496X0.00339*%
%ADD39R,0.22685X0.00339*%
%ADD40R,0.32504X0.00339*%
%ADD41R,0.05079X0.00339*%
%ADD42R,0.06772X0.00339*%
%ADD43R,0.06433X0.00339*%
%ADD44R,0.07787X0.00339*%
%ADD45R,0.05756X0.00339*%
%ADD46R,0.09142X0.00339*%
%ADD47R,0.09480X0.00339*%
%ADD48R,0.09819X0.00339*%
%ADD49R,0.07110X0.00339*%
%ADD50R,0.08126X0.00339*%
%ADD51R,0.07449X0.00339*%
%ADD52R,0.11850X0.00339*%
%ADD53R,0.22346X0.00339*%
%ADD54R,0.11173X0.00339*%
%ADD55R,0.08465X0.00339*%
%ADD56R,0.08803X0.00339*%
%ADD57R,0.10157X0.00339*%
%ADD58R,0.12866X0.00339*%
%ADD59R,0.13543X0.00339*%
%ADD60C,0.00500*%
%ADD61C,0.00400*%
%ADD62C,0.00394*%
%ADD63R,0.05512X0.02559*%
%ADD64R,0.00787X0.00787*%
%ADD65C,0.00800*%
D10*
X0003248Y0006189D02*
X0003248Y0368394D01*
X0003250Y0368518D01*
X0003256Y0368641D01*
X0003265Y0368765D01*
X0003279Y0368887D01*
X0003296Y0369010D01*
X0003318Y0369132D01*
X0003343Y0369253D01*
X0003372Y0369373D01*
X0003404Y0369492D01*
X0003441Y0369611D01*
X0003481Y0369728D01*
X0003524Y0369843D01*
X0003572Y0369958D01*
X0003623Y0370070D01*
X0003677Y0370181D01*
X0003735Y0370291D01*
X0003796Y0370398D01*
X0003861Y0370504D01*
X0003929Y0370607D01*
X0004000Y0370708D01*
X0004074Y0370807D01*
X0004151Y0370904D01*
X0004232Y0370998D01*
X0004315Y0371089D01*
X0004401Y0371178D01*
X0004490Y0371264D01*
X0004581Y0371347D01*
X0004675Y0371428D01*
X0004772Y0371505D01*
X0004871Y0371579D01*
X0004972Y0371650D01*
X0005075Y0371718D01*
X0005181Y0371783D01*
X0005288Y0371844D01*
X0005398Y0371902D01*
X0005509Y0371956D01*
X0005621Y0372007D01*
X0005736Y0372055D01*
X0005851Y0372098D01*
X0005968Y0372138D01*
X0006087Y0372175D01*
X0006206Y0372207D01*
X0006326Y0372236D01*
X0006447Y0372261D01*
X0006569Y0372283D01*
X0006692Y0372300D01*
X0006814Y0372314D01*
X0006938Y0372323D01*
X0007061Y0372329D01*
X0007185Y0372331D01*
X0278839Y0372331D01*
X0278963Y0372329D01*
X0279086Y0372323D01*
X0279210Y0372314D01*
X0279332Y0372300D01*
X0279455Y0372283D01*
X0279577Y0372261D01*
X0279698Y0372236D01*
X0279818Y0372207D01*
X0279937Y0372175D01*
X0280056Y0372138D01*
X0280173Y0372098D01*
X0280288Y0372055D01*
X0280403Y0372007D01*
X0280515Y0371956D01*
X0280626Y0371902D01*
X0280736Y0371844D01*
X0280843Y0371783D01*
X0280949Y0371718D01*
X0281052Y0371650D01*
X0281153Y0371579D01*
X0281252Y0371505D01*
X0281349Y0371428D01*
X0281443Y0371347D01*
X0281534Y0371264D01*
X0281623Y0371178D01*
X0281709Y0371089D01*
X0281792Y0370998D01*
X0281873Y0370904D01*
X0281950Y0370807D01*
X0282024Y0370708D01*
X0282095Y0370607D01*
X0282163Y0370504D01*
X0282228Y0370398D01*
X0282289Y0370291D01*
X0282347Y0370181D01*
X0282401Y0370070D01*
X0282452Y0369958D01*
X0282500Y0369843D01*
X0282543Y0369728D01*
X0282583Y0369611D01*
X0282620Y0369492D01*
X0282652Y0369373D01*
X0282681Y0369253D01*
X0282706Y0369132D01*
X0282728Y0369010D01*
X0282745Y0368887D01*
X0282759Y0368765D01*
X0282768Y0368641D01*
X0282774Y0368518D01*
X0282776Y0368394D01*
X0282776Y0006189D01*
X0282774Y0006065D01*
X0282768Y0005942D01*
X0282759Y0005818D01*
X0282745Y0005696D01*
X0282728Y0005573D01*
X0282706Y0005451D01*
X0282681Y0005330D01*
X0282652Y0005210D01*
X0282620Y0005091D01*
X0282583Y0004972D01*
X0282543Y0004855D01*
X0282500Y0004740D01*
X0282452Y0004625D01*
X0282401Y0004513D01*
X0282347Y0004402D01*
X0282289Y0004292D01*
X0282228Y0004185D01*
X0282163Y0004079D01*
X0282095Y0003976D01*
X0282024Y0003875D01*
X0281950Y0003776D01*
X0281873Y0003679D01*
X0281792Y0003585D01*
X0281709Y0003494D01*
X0281623Y0003405D01*
X0281534Y0003319D01*
X0281443Y0003236D01*
X0281349Y0003155D01*
X0281252Y0003078D01*
X0281153Y0003004D01*
X0281052Y0002933D01*
X0280949Y0002865D01*
X0280843Y0002800D01*
X0280736Y0002739D01*
X0280626Y0002681D01*
X0280515Y0002627D01*
X0280403Y0002576D01*
X0280288Y0002528D01*
X0280173Y0002485D01*
X0280056Y0002445D01*
X0279937Y0002408D01*
X0279818Y0002376D01*
X0279698Y0002347D01*
X0279577Y0002322D01*
X0279455Y0002300D01*
X0279332Y0002283D01*
X0279210Y0002269D01*
X0279086Y0002260D01*
X0278963Y0002254D01*
X0278839Y0002252D01*
X0007185Y0002252D01*
X0007061Y0002254D01*
X0006938Y0002260D01*
X0006814Y0002269D01*
X0006692Y0002283D01*
X0006569Y0002300D01*
X0006447Y0002322D01*
X0006326Y0002347D01*
X0006206Y0002376D01*
X0006087Y0002408D01*
X0005968Y0002445D01*
X0005851Y0002485D01*
X0005736Y0002528D01*
X0005621Y0002576D01*
X0005509Y0002627D01*
X0005398Y0002681D01*
X0005288Y0002739D01*
X0005181Y0002800D01*
X0005075Y0002865D01*
X0004972Y0002933D01*
X0004871Y0003004D01*
X0004772Y0003078D01*
X0004675Y0003155D01*
X0004581Y0003236D01*
X0004490Y0003319D01*
X0004401Y0003405D01*
X0004315Y0003494D01*
X0004232Y0003585D01*
X0004151Y0003679D01*
X0004074Y0003776D01*
X0004000Y0003875D01*
X0003929Y0003976D01*
X0003861Y0004079D01*
X0003796Y0004185D01*
X0003735Y0004292D01*
X0003677Y0004402D01*
X0003623Y0004513D01*
X0003572Y0004625D01*
X0003524Y0004740D01*
X0003481Y0004855D01*
X0003441Y0004972D01*
X0003404Y0005091D01*
X0003372Y0005210D01*
X0003343Y0005330D01*
X0003318Y0005451D01*
X0003296Y0005573D01*
X0003279Y0005696D01*
X0003265Y0005818D01*
X0003256Y0005942D01*
X0003250Y0006065D01*
X0003248Y0006189D01*
X0013090Y0018000D02*
X0013092Y0018153D01*
X0013098Y0018307D01*
X0013108Y0018460D01*
X0013122Y0018612D01*
X0013140Y0018765D01*
X0013162Y0018916D01*
X0013187Y0019067D01*
X0013217Y0019218D01*
X0013251Y0019368D01*
X0013288Y0019516D01*
X0013329Y0019664D01*
X0013374Y0019810D01*
X0013423Y0019956D01*
X0013476Y0020100D01*
X0013532Y0020242D01*
X0013592Y0020383D01*
X0013656Y0020523D01*
X0013723Y0020661D01*
X0013794Y0020797D01*
X0013869Y0020931D01*
X0013946Y0021063D01*
X0014028Y0021193D01*
X0014112Y0021321D01*
X0014200Y0021447D01*
X0014291Y0021570D01*
X0014385Y0021691D01*
X0014483Y0021809D01*
X0014583Y0021925D01*
X0014687Y0022038D01*
X0014793Y0022149D01*
X0014902Y0022257D01*
X0015014Y0022362D01*
X0015128Y0022463D01*
X0015246Y0022562D01*
X0015365Y0022658D01*
X0015487Y0022751D01*
X0015612Y0022840D01*
X0015739Y0022927D01*
X0015868Y0023009D01*
X0015999Y0023089D01*
X0016132Y0023165D01*
X0016267Y0023238D01*
X0016404Y0023307D01*
X0016543Y0023372D01*
X0016683Y0023434D01*
X0016825Y0023492D01*
X0016968Y0023547D01*
X0017113Y0023598D01*
X0017259Y0023645D01*
X0017406Y0023688D01*
X0017554Y0023727D01*
X0017703Y0023763D01*
X0017853Y0023794D01*
X0018004Y0023822D01*
X0018155Y0023846D01*
X0018308Y0023866D01*
X0018460Y0023882D01*
X0018613Y0023894D01*
X0018766Y0023902D01*
X0018919Y0023906D01*
X0019073Y0023906D01*
X0019226Y0023902D01*
X0019379Y0023894D01*
X0019532Y0023882D01*
X0019684Y0023866D01*
X0019837Y0023846D01*
X0019988Y0023822D01*
X0020139Y0023794D01*
X0020289Y0023763D01*
X0020438Y0023727D01*
X0020586Y0023688D01*
X0020733Y0023645D01*
X0020879Y0023598D01*
X0021024Y0023547D01*
X0021167Y0023492D01*
X0021309Y0023434D01*
X0021449Y0023372D01*
X0021588Y0023307D01*
X0021725Y0023238D01*
X0021860Y0023165D01*
X0021993Y0023089D01*
X0022124Y0023009D01*
X0022253Y0022927D01*
X0022380Y0022840D01*
X0022505Y0022751D01*
X0022627Y0022658D01*
X0022746Y0022562D01*
X0022864Y0022463D01*
X0022978Y0022362D01*
X0023090Y0022257D01*
X0023199Y0022149D01*
X0023305Y0022038D01*
X0023409Y0021925D01*
X0023509Y0021809D01*
X0023607Y0021691D01*
X0023701Y0021570D01*
X0023792Y0021447D01*
X0023880Y0021321D01*
X0023964Y0021193D01*
X0024046Y0021063D01*
X0024123Y0020931D01*
X0024198Y0020797D01*
X0024269Y0020661D01*
X0024336Y0020523D01*
X0024400Y0020383D01*
X0024460Y0020242D01*
X0024516Y0020100D01*
X0024569Y0019956D01*
X0024618Y0019810D01*
X0024663Y0019664D01*
X0024704Y0019516D01*
X0024741Y0019368D01*
X0024775Y0019218D01*
X0024805Y0019067D01*
X0024830Y0018916D01*
X0024852Y0018765D01*
X0024870Y0018612D01*
X0024884Y0018460D01*
X0024894Y0018307D01*
X0024900Y0018153D01*
X0024902Y0018000D01*
X0024900Y0017847D01*
X0024894Y0017693D01*
X0024884Y0017540D01*
X0024870Y0017388D01*
X0024852Y0017235D01*
X0024830Y0017084D01*
X0024805Y0016933D01*
X0024775Y0016782D01*
X0024741Y0016632D01*
X0024704Y0016484D01*
X0024663Y0016336D01*
X0024618Y0016190D01*
X0024569Y0016044D01*
X0024516Y0015900D01*
X0024460Y0015758D01*
X0024400Y0015617D01*
X0024336Y0015477D01*
X0024269Y0015339D01*
X0024198Y0015203D01*
X0024123Y0015069D01*
X0024046Y0014937D01*
X0023964Y0014807D01*
X0023880Y0014679D01*
X0023792Y0014553D01*
X0023701Y0014430D01*
X0023607Y0014309D01*
X0023509Y0014191D01*
X0023409Y0014075D01*
X0023305Y0013962D01*
X0023199Y0013851D01*
X0023090Y0013743D01*
X0022978Y0013638D01*
X0022864Y0013537D01*
X0022746Y0013438D01*
X0022627Y0013342D01*
X0022505Y0013249D01*
X0022380Y0013160D01*
X0022253Y0013073D01*
X0022124Y0012991D01*
X0021993Y0012911D01*
X0021860Y0012835D01*
X0021725Y0012762D01*
X0021588Y0012693D01*
X0021449Y0012628D01*
X0021309Y0012566D01*
X0021167Y0012508D01*
X0021024Y0012453D01*
X0020879Y0012402D01*
X0020733Y0012355D01*
X0020586Y0012312D01*
X0020438Y0012273D01*
X0020289Y0012237D01*
X0020139Y0012206D01*
X0019988Y0012178D01*
X0019837Y0012154D01*
X0019684Y0012134D01*
X0019532Y0012118D01*
X0019379Y0012106D01*
X0019226Y0012098D01*
X0019073Y0012094D01*
X0018919Y0012094D01*
X0018766Y0012098D01*
X0018613Y0012106D01*
X0018460Y0012118D01*
X0018308Y0012134D01*
X0018155Y0012154D01*
X0018004Y0012178D01*
X0017853Y0012206D01*
X0017703Y0012237D01*
X0017554Y0012273D01*
X0017406Y0012312D01*
X0017259Y0012355D01*
X0017113Y0012402D01*
X0016968Y0012453D01*
X0016825Y0012508D01*
X0016683Y0012566D01*
X0016543Y0012628D01*
X0016404Y0012693D01*
X0016267Y0012762D01*
X0016132Y0012835D01*
X0015999Y0012911D01*
X0015868Y0012991D01*
X0015739Y0013073D01*
X0015612Y0013160D01*
X0015487Y0013249D01*
X0015365Y0013342D01*
X0015246Y0013438D01*
X0015128Y0013537D01*
X0015014Y0013638D01*
X0014902Y0013743D01*
X0014793Y0013851D01*
X0014687Y0013962D01*
X0014583Y0014075D01*
X0014483Y0014191D01*
X0014385Y0014309D01*
X0014291Y0014430D01*
X0014200Y0014553D01*
X0014112Y0014679D01*
X0014028Y0014807D01*
X0013946Y0014937D01*
X0013869Y0015069D01*
X0013794Y0015203D01*
X0013723Y0015339D01*
X0013656Y0015477D01*
X0013592Y0015617D01*
X0013532Y0015758D01*
X0013476Y0015900D01*
X0013423Y0016044D01*
X0013374Y0016190D01*
X0013329Y0016336D01*
X0013288Y0016484D01*
X0013251Y0016632D01*
X0013217Y0016782D01*
X0013187Y0016933D01*
X0013162Y0017084D01*
X0013140Y0017235D01*
X0013122Y0017388D01*
X0013108Y0017540D01*
X0013098Y0017693D01*
X0013092Y0017847D01*
X0013090Y0018000D01*
X0261122Y0018000D02*
X0261124Y0018153D01*
X0261130Y0018307D01*
X0261140Y0018460D01*
X0261154Y0018612D01*
X0261172Y0018765D01*
X0261194Y0018916D01*
X0261219Y0019067D01*
X0261249Y0019218D01*
X0261283Y0019368D01*
X0261320Y0019516D01*
X0261361Y0019664D01*
X0261406Y0019810D01*
X0261455Y0019956D01*
X0261508Y0020100D01*
X0261564Y0020242D01*
X0261624Y0020383D01*
X0261688Y0020523D01*
X0261755Y0020661D01*
X0261826Y0020797D01*
X0261901Y0020931D01*
X0261978Y0021063D01*
X0262060Y0021193D01*
X0262144Y0021321D01*
X0262232Y0021447D01*
X0262323Y0021570D01*
X0262417Y0021691D01*
X0262515Y0021809D01*
X0262615Y0021925D01*
X0262719Y0022038D01*
X0262825Y0022149D01*
X0262934Y0022257D01*
X0263046Y0022362D01*
X0263160Y0022463D01*
X0263278Y0022562D01*
X0263397Y0022658D01*
X0263519Y0022751D01*
X0263644Y0022840D01*
X0263771Y0022927D01*
X0263900Y0023009D01*
X0264031Y0023089D01*
X0264164Y0023165D01*
X0264299Y0023238D01*
X0264436Y0023307D01*
X0264575Y0023372D01*
X0264715Y0023434D01*
X0264857Y0023492D01*
X0265000Y0023547D01*
X0265145Y0023598D01*
X0265291Y0023645D01*
X0265438Y0023688D01*
X0265586Y0023727D01*
X0265735Y0023763D01*
X0265885Y0023794D01*
X0266036Y0023822D01*
X0266187Y0023846D01*
X0266340Y0023866D01*
X0266492Y0023882D01*
X0266645Y0023894D01*
X0266798Y0023902D01*
X0266951Y0023906D01*
X0267105Y0023906D01*
X0267258Y0023902D01*
X0267411Y0023894D01*
X0267564Y0023882D01*
X0267716Y0023866D01*
X0267869Y0023846D01*
X0268020Y0023822D01*
X0268171Y0023794D01*
X0268321Y0023763D01*
X0268470Y0023727D01*
X0268618Y0023688D01*
X0268765Y0023645D01*
X0268911Y0023598D01*
X0269056Y0023547D01*
X0269199Y0023492D01*
X0269341Y0023434D01*
X0269481Y0023372D01*
X0269620Y0023307D01*
X0269757Y0023238D01*
X0269892Y0023165D01*
X0270025Y0023089D01*
X0270156Y0023009D01*
X0270285Y0022927D01*
X0270412Y0022840D01*
X0270537Y0022751D01*
X0270659Y0022658D01*
X0270778Y0022562D01*
X0270896Y0022463D01*
X0271010Y0022362D01*
X0271122Y0022257D01*
X0271231Y0022149D01*
X0271337Y0022038D01*
X0271441Y0021925D01*
X0271541Y0021809D01*
X0271639Y0021691D01*
X0271733Y0021570D01*
X0271824Y0021447D01*
X0271912Y0021321D01*
X0271996Y0021193D01*
X0272078Y0021063D01*
X0272155Y0020931D01*
X0272230Y0020797D01*
X0272301Y0020661D01*
X0272368Y0020523D01*
X0272432Y0020383D01*
X0272492Y0020242D01*
X0272548Y0020100D01*
X0272601Y0019956D01*
X0272650Y0019810D01*
X0272695Y0019664D01*
X0272736Y0019516D01*
X0272773Y0019368D01*
X0272807Y0019218D01*
X0272837Y0019067D01*
X0272862Y0018916D01*
X0272884Y0018765D01*
X0272902Y0018612D01*
X0272916Y0018460D01*
X0272926Y0018307D01*
X0272932Y0018153D01*
X0272934Y0018000D01*
X0272932Y0017847D01*
X0272926Y0017693D01*
X0272916Y0017540D01*
X0272902Y0017388D01*
X0272884Y0017235D01*
X0272862Y0017084D01*
X0272837Y0016933D01*
X0272807Y0016782D01*
X0272773Y0016632D01*
X0272736Y0016484D01*
X0272695Y0016336D01*
X0272650Y0016190D01*
X0272601Y0016044D01*
X0272548Y0015900D01*
X0272492Y0015758D01*
X0272432Y0015617D01*
X0272368Y0015477D01*
X0272301Y0015339D01*
X0272230Y0015203D01*
X0272155Y0015069D01*
X0272078Y0014937D01*
X0271996Y0014807D01*
X0271912Y0014679D01*
X0271824Y0014553D01*
X0271733Y0014430D01*
X0271639Y0014309D01*
X0271541Y0014191D01*
X0271441Y0014075D01*
X0271337Y0013962D01*
X0271231Y0013851D01*
X0271122Y0013743D01*
X0271010Y0013638D01*
X0270896Y0013537D01*
X0270778Y0013438D01*
X0270659Y0013342D01*
X0270537Y0013249D01*
X0270412Y0013160D01*
X0270285Y0013073D01*
X0270156Y0012991D01*
X0270025Y0012911D01*
X0269892Y0012835D01*
X0269757Y0012762D01*
X0269620Y0012693D01*
X0269481Y0012628D01*
X0269341Y0012566D01*
X0269199Y0012508D01*
X0269056Y0012453D01*
X0268911Y0012402D01*
X0268765Y0012355D01*
X0268618Y0012312D01*
X0268470Y0012273D01*
X0268321Y0012237D01*
X0268171Y0012206D01*
X0268020Y0012178D01*
X0267869Y0012154D01*
X0267716Y0012134D01*
X0267564Y0012118D01*
X0267411Y0012106D01*
X0267258Y0012098D01*
X0267105Y0012094D01*
X0266951Y0012094D01*
X0266798Y0012098D01*
X0266645Y0012106D01*
X0266492Y0012118D01*
X0266340Y0012134D01*
X0266187Y0012154D01*
X0266036Y0012178D01*
X0265885Y0012206D01*
X0265735Y0012237D01*
X0265586Y0012273D01*
X0265438Y0012312D01*
X0265291Y0012355D01*
X0265145Y0012402D01*
X0265000Y0012453D01*
X0264857Y0012508D01*
X0264715Y0012566D01*
X0264575Y0012628D01*
X0264436Y0012693D01*
X0264299Y0012762D01*
X0264164Y0012835D01*
X0264031Y0012911D01*
X0263900Y0012991D01*
X0263771Y0013073D01*
X0263644Y0013160D01*
X0263519Y0013249D01*
X0263397Y0013342D01*
X0263278Y0013438D01*
X0263160Y0013537D01*
X0263046Y0013638D01*
X0262934Y0013743D01*
X0262825Y0013851D01*
X0262719Y0013962D01*
X0262615Y0014075D01*
X0262515Y0014191D01*
X0262417Y0014309D01*
X0262323Y0014430D01*
X0262232Y0014553D01*
X0262144Y0014679D01*
X0262060Y0014807D01*
X0261978Y0014937D01*
X0261901Y0015069D01*
X0261826Y0015203D01*
X0261755Y0015339D01*
X0261688Y0015477D01*
X0261624Y0015617D01*
X0261564Y0015758D01*
X0261508Y0015900D01*
X0261455Y0016044D01*
X0261406Y0016190D01*
X0261361Y0016336D01*
X0261320Y0016484D01*
X0261283Y0016632D01*
X0261249Y0016782D01*
X0261219Y0016933D01*
X0261194Y0017084D01*
X0261172Y0017235D01*
X0261154Y0017388D01*
X0261140Y0017540D01*
X0261130Y0017693D01*
X0261124Y0017847D01*
X0261122Y0018000D01*
X0261122Y0136110D02*
X0261124Y0136263D01*
X0261130Y0136417D01*
X0261140Y0136570D01*
X0261154Y0136722D01*
X0261172Y0136875D01*
X0261194Y0137026D01*
X0261219Y0137177D01*
X0261249Y0137328D01*
X0261283Y0137478D01*
X0261320Y0137626D01*
X0261361Y0137774D01*
X0261406Y0137920D01*
X0261455Y0138066D01*
X0261508Y0138210D01*
X0261564Y0138352D01*
X0261624Y0138493D01*
X0261688Y0138633D01*
X0261755Y0138771D01*
X0261826Y0138907D01*
X0261901Y0139041D01*
X0261978Y0139173D01*
X0262060Y0139303D01*
X0262144Y0139431D01*
X0262232Y0139557D01*
X0262323Y0139680D01*
X0262417Y0139801D01*
X0262515Y0139919D01*
X0262615Y0140035D01*
X0262719Y0140148D01*
X0262825Y0140259D01*
X0262934Y0140367D01*
X0263046Y0140472D01*
X0263160Y0140573D01*
X0263278Y0140672D01*
X0263397Y0140768D01*
X0263519Y0140861D01*
X0263644Y0140950D01*
X0263771Y0141037D01*
X0263900Y0141119D01*
X0264031Y0141199D01*
X0264164Y0141275D01*
X0264299Y0141348D01*
X0264436Y0141417D01*
X0264575Y0141482D01*
X0264715Y0141544D01*
X0264857Y0141602D01*
X0265000Y0141657D01*
X0265145Y0141708D01*
X0265291Y0141755D01*
X0265438Y0141798D01*
X0265586Y0141837D01*
X0265735Y0141873D01*
X0265885Y0141904D01*
X0266036Y0141932D01*
X0266187Y0141956D01*
X0266340Y0141976D01*
X0266492Y0141992D01*
X0266645Y0142004D01*
X0266798Y0142012D01*
X0266951Y0142016D01*
X0267105Y0142016D01*
X0267258Y0142012D01*
X0267411Y0142004D01*
X0267564Y0141992D01*
X0267716Y0141976D01*
X0267869Y0141956D01*
X0268020Y0141932D01*
X0268171Y0141904D01*
X0268321Y0141873D01*
X0268470Y0141837D01*
X0268618Y0141798D01*
X0268765Y0141755D01*
X0268911Y0141708D01*
X0269056Y0141657D01*
X0269199Y0141602D01*
X0269341Y0141544D01*
X0269481Y0141482D01*
X0269620Y0141417D01*
X0269757Y0141348D01*
X0269892Y0141275D01*
X0270025Y0141199D01*
X0270156Y0141119D01*
X0270285Y0141037D01*
X0270412Y0140950D01*
X0270537Y0140861D01*
X0270659Y0140768D01*
X0270778Y0140672D01*
X0270896Y0140573D01*
X0271010Y0140472D01*
X0271122Y0140367D01*
X0271231Y0140259D01*
X0271337Y0140148D01*
X0271441Y0140035D01*
X0271541Y0139919D01*
X0271639Y0139801D01*
X0271733Y0139680D01*
X0271824Y0139557D01*
X0271912Y0139431D01*
X0271996Y0139303D01*
X0272078Y0139173D01*
X0272155Y0139041D01*
X0272230Y0138907D01*
X0272301Y0138771D01*
X0272368Y0138633D01*
X0272432Y0138493D01*
X0272492Y0138352D01*
X0272548Y0138210D01*
X0272601Y0138066D01*
X0272650Y0137920D01*
X0272695Y0137774D01*
X0272736Y0137626D01*
X0272773Y0137478D01*
X0272807Y0137328D01*
X0272837Y0137177D01*
X0272862Y0137026D01*
X0272884Y0136875D01*
X0272902Y0136722D01*
X0272916Y0136570D01*
X0272926Y0136417D01*
X0272932Y0136263D01*
X0272934Y0136110D01*
X0272932Y0135957D01*
X0272926Y0135803D01*
X0272916Y0135650D01*
X0272902Y0135498D01*
X0272884Y0135345D01*
X0272862Y0135194D01*
X0272837Y0135043D01*
X0272807Y0134892D01*
X0272773Y0134742D01*
X0272736Y0134594D01*
X0272695Y0134446D01*
X0272650Y0134300D01*
X0272601Y0134154D01*
X0272548Y0134010D01*
X0272492Y0133868D01*
X0272432Y0133727D01*
X0272368Y0133587D01*
X0272301Y0133449D01*
X0272230Y0133313D01*
X0272155Y0133179D01*
X0272078Y0133047D01*
X0271996Y0132917D01*
X0271912Y0132789D01*
X0271824Y0132663D01*
X0271733Y0132540D01*
X0271639Y0132419D01*
X0271541Y0132301D01*
X0271441Y0132185D01*
X0271337Y0132072D01*
X0271231Y0131961D01*
X0271122Y0131853D01*
X0271010Y0131748D01*
X0270896Y0131647D01*
X0270778Y0131548D01*
X0270659Y0131452D01*
X0270537Y0131359D01*
X0270412Y0131270D01*
X0270285Y0131183D01*
X0270156Y0131101D01*
X0270025Y0131021D01*
X0269892Y0130945D01*
X0269757Y0130872D01*
X0269620Y0130803D01*
X0269481Y0130738D01*
X0269341Y0130676D01*
X0269199Y0130618D01*
X0269056Y0130563D01*
X0268911Y0130512D01*
X0268765Y0130465D01*
X0268618Y0130422D01*
X0268470Y0130383D01*
X0268321Y0130347D01*
X0268171Y0130316D01*
X0268020Y0130288D01*
X0267869Y0130264D01*
X0267716Y0130244D01*
X0267564Y0130228D01*
X0267411Y0130216D01*
X0267258Y0130208D01*
X0267105Y0130204D01*
X0266951Y0130204D01*
X0266798Y0130208D01*
X0266645Y0130216D01*
X0266492Y0130228D01*
X0266340Y0130244D01*
X0266187Y0130264D01*
X0266036Y0130288D01*
X0265885Y0130316D01*
X0265735Y0130347D01*
X0265586Y0130383D01*
X0265438Y0130422D01*
X0265291Y0130465D01*
X0265145Y0130512D01*
X0265000Y0130563D01*
X0264857Y0130618D01*
X0264715Y0130676D01*
X0264575Y0130738D01*
X0264436Y0130803D01*
X0264299Y0130872D01*
X0264164Y0130945D01*
X0264031Y0131021D01*
X0263900Y0131101D01*
X0263771Y0131183D01*
X0263644Y0131270D01*
X0263519Y0131359D01*
X0263397Y0131452D01*
X0263278Y0131548D01*
X0263160Y0131647D01*
X0263046Y0131748D01*
X0262934Y0131853D01*
X0262825Y0131961D01*
X0262719Y0132072D01*
X0262615Y0132185D01*
X0262515Y0132301D01*
X0262417Y0132419D01*
X0262323Y0132540D01*
X0262232Y0132663D01*
X0262144Y0132789D01*
X0262060Y0132917D01*
X0261978Y0133047D01*
X0261901Y0133179D01*
X0261826Y0133313D01*
X0261755Y0133449D01*
X0261688Y0133587D01*
X0261624Y0133727D01*
X0261564Y0133868D01*
X0261508Y0134010D01*
X0261455Y0134154D01*
X0261406Y0134300D01*
X0261361Y0134446D01*
X0261320Y0134594D01*
X0261283Y0134742D01*
X0261249Y0134892D01*
X0261219Y0135043D01*
X0261194Y0135194D01*
X0261172Y0135345D01*
X0261154Y0135498D01*
X0261140Y0135650D01*
X0261130Y0135803D01*
X0261124Y0135957D01*
X0261122Y0136110D01*
X0271752Y0315244D02*
X0271754Y0315328D01*
X0271760Y0315411D01*
X0271770Y0315494D01*
X0271784Y0315577D01*
X0271801Y0315659D01*
X0271823Y0315740D01*
X0271848Y0315819D01*
X0271877Y0315898D01*
X0271910Y0315975D01*
X0271946Y0316050D01*
X0271986Y0316124D01*
X0272029Y0316196D01*
X0272076Y0316265D01*
X0272126Y0316332D01*
X0272179Y0316397D01*
X0272235Y0316459D01*
X0272293Y0316519D01*
X0272355Y0316576D01*
X0272419Y0316629D01*
X0272486Y0316680D01*
X0272555Y0316727D01*
X0272626Y0316772D01*
X0272699Y0316812D01*
X0272774Y0316849D01*
X0272851Y0316883D01*
X0272929Y0316913D01*
X0273008Y0316939D01*
X0273089Y0316962D01*
X0273171Y0316980D01*
X0273253Y0316995D01*
X0273336Y0317006D01*
X0273419Y0317013D01*
X0273503Y0317016D01*
X0273587Y0317015D01*
X0273670Y0317010D01*
X0273754Y0317001D01*
X0273836Y0316988D01*
X0273918Y0316972D01*
X0273999Y0316951D01*
X0274080Y0316927D01*
X0274158Y0316899D01*
X0274236Y0316867D01*
X0274312Y0316831D01*
X0274386Y0316792D01*
X0274458Y0316750D01*
X0274528Y0316704D01*
X0274596Y0316655D01*
X0274661Y0316603D01*
X0274724Y0316548D01*
X0274784Y0316490D01*
X0274842Y0316429D01*
X0274896Y0316365D01*
X0274948Y0316299D01*
X0274996Y0316231D01*
X0275041Y0316160D01*
X0275082Y0316087D01*
X0275121Y0316013D01*
X0275155Y0315937D01*
X0275186Y0315859D01*
X0275213Y0315780D01*
X0275237Y0315699D01*
X0275256Y0315618D01*
X0275272Y0315536D01*
X0275284Y0315453D01*
X0275292Y0315369D01*
X0275296Y0315286D01*
X0275296Y0315202D01*
X0275292Y0315119D01*
X0275284Y0315035D01*
X0275272Y0314952D01*
X0275256Y0314870D01*
X0275237Y0314789D01*
X0275213Y0314708D01*
X0275186Y0314629D01*
X0275155Y0314551D01*
X0275121Y0314475D01*
X0275082Y0314401D01*
X0275041Y0314328D01*
X0274996Y0314257D01*
X0274948Y0314189D01*
X0274896Y0314123D01*
X0274842Y0314059D01*
X0274784Y0313998D01*
X0274724Y0313940D01*
X0274661Y0313885D01*
X0274596Y0313833D01*
X0274528Y0313784D01*
X0274458Y0313738D01*
X0274386Y0313696D01*
X0274312Y0313657D01*
X0274236Y0313621D01*
X0274158Y0313589D01*
X0274080Y0313561D01*
X0273999Y0313537D01*
X0273918Y0313516D01*
X0273836Y0313500D01*
X0273754Y0313487D01*
X0273670Y0313478D01*
X0273587Y0313473D01*
X0273503Y0313472D01*
X0273419Y0313475D01*
X0273336Y0313482D01*
X0273253Y0313493D01*
X0273171Y0313508D01*
X0273089Y0313526D01*
X0273008Y0313549D01*
X0272929Y0313575D01*
X0272851Y0313605D01*
X0272774Y0313639D01*
X0272699Y0313676D01*
X0272626Y0313716D01*
X0272555Y0313761D01*
X0272486Y0313808D01*
X0272419Y0313859D01*
X0272355Y0313912D01*
X0272293Y0313969D01*
X0272235Y0314029D01*
X0272179Y0314091D01*
X0272126Y0314156D01*
X0272076Y0314223D01*
X0272029Y0314292D01*
X0271986Y0314364D01*
X0271946Y0314438D01*
X0271910Y0314513D01*
X0271877Y0314590D01*
X0271848Y0314669D01*
X0271823Y0314748D01*
X0271801Y0314829D01*
X0271784Y0314911D01*
X0271770Y0314994D01*
X0271760Y0315077D01*
X0271754Y0315160D01*
X0271752Y0315244D01*
X0271752Y0327055D02*
X0271754Y0327139D01*
X0271760Y0327222D01*
X0271770Y0327305D01*
X0271784Y0327388D01*
X0271801Y0327470D01*
X0271823Y0327551D01*
X0271848Y0327630D01*
X0271877Y0327709D01*
X0271910Y0327786D01*
X0271946Y0327861D01*
X0271986Y0327935D01*
X0272029Y0328007D01*
X0272076Y0328076D01*
X0272126Y0328143D01*
X0272179Y0328208D01*
X0272235Y0328270D01*
X0272293Y0328330D01*
X0272355Y0328387D01*
X0272419Y0328440D01*
X0272486Y0328491D01*
X0272555Y0328538D01*
X0272626Y0328583D01*
X0272699Y0328623D01*
X0272774Y0328660D01*
X0272851Y0328694D01*
X0272929Y0328724D01*
X0273008Y0328750D01*
X0273089Y0328773D01*
X0273171Y0328791D01*
X0273253Y0328806D01*
X0273336Y0328817D01*
X0273419Y0328824D01*
X0273503Y0328827D01*
X0273587Y0328826D01*
X0273670Y0328821D01*
X0273754Y0328812D01*
X0273836Y0328799D01*
X0273918Y0328783D01*
X0273999Y0328762D01*
X0274080Y0328738D01*
X0274158Y0328710D01*
X0274236Y0328678D01*
X0274312Y0328642D01*
X0274386Y0328603D01*
X0274458Y0328561D01*
X0274528Y0328515D01*
X0274596Y0328466D01*
X0274661Y0328414D01*
X0274724Y0328359D01*
X0274784Y0328301D01*
X0274842Y0328240D01*
X0274896Y0328176D01*
X0274948Y0328110D01*
X0274996Y0328042D01*
X0275041Y0327971D01*
X0275082Y0327898D01*
X0275121Y0327824D01*
X0275155Y0327748D01*
X0275186Y0327670D01*
X0275213Y0327591D01*
X0275237Y0327510D01*
X0275256Y0327429D01*
X0275272Y0327347D01*
X0275284Y0327264D01*
X0275292Y0327180D01*
X0275296Y0327097D01*
X0275296Y0327013D01*
X0275292Y0326930D01*
X0275284Y0326846D01*
X0275272Y0326763D01*
X0275256Y0326681D01*
X0275237Y0326600D01*
X0275213Y0326519D01*
X0275186Y0326440D01*
X0275155Y0326362D01*
X0275121Y0326286D01*
X0275082Y0326212D01*
X0275041Y0326139D01*
X0274996Y0326068D01*
X0274948Y0326000D01*
X0274896Y0325934D01*
X0274842Y0325870D01*
X0274784Y0325809D01*
X0274724Y0325751D01*
X0274661Y0325696D01*
X0274596Y0325644D01*
X0274528Y0325595D01*
X0274458Y0325549D01*
X0274386Y0325507D01*
X0274312Y0325468D01*
X0274236Y0325432D01*
X0274158Y0325400D01*
X0274080Y0325372D01*
X0273999Y0325348D01*
X0273918Y0325327D01*
X0273836Y0325311D01*
X0273754Y0325298D01*
X0273670Y0325289D01*
X0273587Y0325284D01*
X0273503Y0325283D01*
X0273419Y0325286D01*
X0273336Y0325293D01*
X0273253Y0325304D01*
X0273171Y0325319D01*
X0273089Y0325337D01*
X0273008Y0325360D01*
X0272929Y0325386D01*
X0272851Y0325416D01*
X0272774Y0325450D01*
X0272699Y0325487D01*
X0272626Y0325527D01*
X0272555Y0325572D01*
X0272486Y0325619D01*
X0272419Y0325670D01*
X0272355Y0325723D01*
X0272293Y0325780D01*
X0272235Y0325840D01*
X0272179Y0325902D01*
X0272126Y0325967D01*
X0272076Y0326034D01*
X0272029Y0326103D01*
X0271986Y0326175D01*
X0271946Y0326249D01*
X0271910Y0326324D01*
X0271877Y0326401D01*
X0271848Y0326480D01*
X0271823Y0326559D01*
X0271801Y0326640D01*
X0271784Y0326722D01*
X0271770Y0326805D01*
X0271760Y0326888D01*
X0271754Y0326971D01*
X0271752Y0327055D01*
X0261122Y0360520D02*
X0261124Y0360673D01*
X0261130Y0360827D01*
X0261140Y0360980D01*
X0261154Y0361132D01*
X0261172Y0361285D01*
X0261194Y0361436D01*
X0261219Y0361587D01*
X0261249Y0361738D01*
X0261283Y0361888D01*
X0261320Y0362036D01*
X0261361Y0362184D01*
X0261406Y0362330D01*
X0261455Y0362476D01*
X0261508Y0362620D01*
X0261564Y0362762D01*
X0261624Y0362903D01*
X0261688Y0363043D01*
X0261755Y0363181D01*
X0261826Y0363317D01*
X0261901Y0363451D01*
X0261978Y0363583D01*
X0262060Y0363713D01*
X0262144Y0363841D01*
X0262232Y0363967D01*
X0262323Y0364090D01*
X0262417Y0364211D01*
X0262515Y0364329D01*
X0262615Y0364445D01*
X0262719Y0364558D01*
X0262825Y0364669D01*
X0262934Y0364777D01*
X0263046Y0364882D01*
X0263160Y0364983D01*
X0263278Y0365082D01*
X0263397Y0365178D01*
X0263519Y0365271D01*
X0263644Y0365360D01*
X0263771Y0365447D01*
X0263900Y0365529D01*
X0264031Y0365609D01*
X0264164Y0365685D01*
X0264299Y0365758D01*
X0264436Y0365827D01*
X0264575Y0365892D01*
X0264715Y0365954D01*
X0264857Y0366012D01*
X0265000Y0366067D01*
X0265145Y0366118D01*
X0265291Y0366165D01*
X0265438Y0366208D01*
X0265586Y0366247D01*
X0265735Y0366283D01*
X0265885Y0366314D01*
X0266036Y0366342D01*
X0266187Y0366366D01*
X0266340Y0366386D01*
X0266492Y0366402D01*
X0266645Y0366414D01*
X0266798Y0366422D01*
X0266951Y0366426D01*
X0267105Y0366426D01*
X0267258Y0366422D01*
X0267411Y0366414D01*
X0267564Y0366402D01*
X0267716Y0366386D01*
X0267869Y0366366D01*
X0268020Y0366342D01*
X0268171Y0366314D01*
X0268321Y0366283D01*
X0268470Y0366247D01*
X0268618Y0366208D01*
X0268765Y0366165D01*
X0268911Y0366118D01*
X0269056Y0366067D01*
X0269199Y0366012D01*
X0269341Y0365954D01*
X0269481Y0365892D01*
X0269620Y0365827D01*
X0269757Y0365758D01*
X0269892Y0365685D01*
X0270025Y0365609D01*
X0270156Y0365529D01*
X0270285Y0365447D01*
X0270412Y0365360D01*
X0270537Y0365271D01*
X0270659Y0365178D01*
X0270778Y0365082D01*
X0270896Y0364983D01*
X0271010Y0364882D01*
X0271122Y0364777D01*
X0271231Y0364669D01*
X0271337Y0364558D01*
X0271441Y0364445D01*
X0271541Y0364329D01*
X0271639Y0364211D01*
X0271733Y0364090D01*
X0271824Y0363967D01*
X0271912Y0363841D01*
X0271996Y0363713D01*
X0272078Y0363583D01*
X0272155Y0363451D01*
X0272230Y0363317D01*
X0272301Y0363181D01*
X0272368Y0363043D01*
X0272432Y0362903D01*
X0272492Y0362762D01*
X0272548Y0362620D01*
X0272601Y0362476D01*
X0272650Y0362330D01*
X0272695Y0362184D01*
X0272736Y0362036D01*
X0272773Y0361888D01*
X0272807Y0361738D01*
X0272837Y0361587D01*
X0272862Y0361436D01*
X0272884Y0361285D01*
X0272902Y0361132D01*
X0272916Y0360980D01*
X0272926Y0360827D01*
X0272932Y0360673D01*
X0272934Y0360520D01*
X0272932Y0360367D01*
X0272926Y0360213D01*
X0272916Y0360060D01*
X0272902Y0359908D01*
X0272884Y0359755D01*
X0272862Y0359604D01*
X0272837Y0359453D01*
X0272807Y0359302D01*
X0272773Y0359152D01*
X0272736Y0359004D01*
X0272695Y0358856D01*
X0272650Y0358710D01*
X0272601Y0358564D01*
X0272548Y0358420D01*
X0272492Y0358278D01*
X0272432Y0358137D01*
X0272368Y0357997D01*
X0272301Y0357859D01*
X0272230Y0357723D01*
X0272155Y0357589D01*
X0272078Y0357457D01*
X0271996Y0357327D01*
X0271912Y0357199D01*
X0271824Y0357073D01*
X0271733Y0356950D01*
X0271639Y0356829D01*
X0271541Y0356711D01*
X0271441Y0356595D01*
X0271337Y0356482D01*
X0271231Y0356371D01*
X0271122Y0356263D01*
X0271010Y0356158D01*
X0270896Y0356057D01*
X0270778Y0355958D01*
X0270659Y0355862D01*
X0270537Y0355769D01*
X0270412Y0355680D01*
X0270285Y0355593D01*
X0270156Y0355511D01*
X0270025Y0355431D01*
X0269892Y0355355D01*
X0269757Y0355282D01*
X0269620Y0355213D01*
X0269481Y0355148D01*
X0269341Y0355086D01*
X0269199Y0355028D01*
X0269056Y0354973D01*
X0268911Y0354922D01*
X0268765Y0354875D01*
X0268618Y0354832D01*
X0268470Y0354793D01*
X0268321Y0354757D01*
X0268171Y0354726D01*
X0268020Y0354698D01*
X0267869Y0354674D01*
X0267716Y0354654D01*
X0267564Y0354638D01*
X0267411Y0354626D01*
X0267258Y0354618D01*
X0267105Y0354614D01*
X0266951Y0354614D01*
X0266798Y0354618D01*
X0266645Y0354626D01*
X0266492Y0354638D01*
X0266340Y0354654D01*
X0266187Y0354674D01*
X0266036Y0354698D01*
X0265885Y0354726D01*
X0265735Y0354757D01*
X0265586Y0354793D01*
X0265438Y0354832D01*
X0265291Y0354875D01*
X0265145Y0354922D01*
X0265000Y0354973D01*
X0264857Y0355028D01*
X0264715Y0355086D01*
X0264575Y0355148D01*
X0264436Y0355213D01*
X0264299Y0355282D01*
X0264164Y0355355D01*
X0264031Y0355431D01*
X0263900Y0355511D01*
X0263771Y0355593D01*
X0263644Y0355680D01*
X0263519Y0355769D01*
X0263397Y0355862D01*
X0263278Y0355958D01*
X0263160Y0356057D01*
X0263046Y0356158D01*
X0262934Y0356263D01*
X0262825Y0356371D01*
X0262719Y0356482D01*
X0262615Y0356595D01*
X0262515Y0356711D01*
X0262417Y0356829D01*
X0262323Y0356950D01*
X0262232Y0357073D01*
X0262144Y0357199D01*
X0262060Y0357327D01*
X0261978Y0357457D01*
X0261901Y0357589D01*
X0261826Y0357723D01*
X0261755Y0357859D01*
X0261688Y0357997D01*
X0261624Y0358137D01*
X0261564Y0358278D01*
X0261508Y0358420D01*
X0261455Y0358564D01*
X0261406Y0358710D01*
X0261361Y0358856D01*
X0261320Y0359004D01*
X0261283Y0359152D01*
X0261249Y0359302D01*
X0261219Y0359453D01*
X0261194Y0359604D01*
X0261172Y0359755D01*
X0261154Y0359908D01*
X0261140Y0360060D01*
X0261130Y0360213D01*
X0261124Y0360367D01*
X0261122Y0360520D01*
X0013090Y0360520D02*
X0013092Y0360673D01*
X0013098Y0360827D01*
X0013108Y0360980D01*
X0013122Y0361132D01*
X0013140Y0361285D01*
X0013162Y0361436D01*
X0013187Y0361587D01*
X0013217Y0361738D01*
X0013251Y0361888D01*
X0013288Y0362036D01*
X0013329Y0362184D01*
X0013374Y0362330D01*
X0013423Y0362476D01*
X0013476Y0362620D01*
X0013532Y0362762D01*
X0013592Y0362903D01*
X0013656Y0363043D01*
X0013723Y0363181D01*
X0013794Y0363317D01*
X0013869Y0363451D01*
X0013946Y0363583D01*
X0014028Y0363713D01*
X0014112Y0363841D01*
X0014200Y0363967D01*
X0014291Y0364090D01*
X0014385Y0364211D01*
X0014483Y0364329D01*
X0014583Y0364445D01*
X0014687Y0364558D01*
X0014793Y0364669D01*
X0014902Y0364777D01*
X0015014Y0364882D01*
X0015128Y0364983D01*
X0015246Y0365082D01*
X0015365Y0365178D01*
X0015487Y0365271D01*
X0015612Y0365360D01*
X0015739Y0365447D01*
X0015868Y0365529D01*
X0015999Y0365609D01*
X0016132Y0365685D01*
X0016267Y0365758D01*
X0016404Y0365827D01*
X0016543Y0365892D01*
X0016683Y0365954D01*
X0016825Y0366012D01*
X0016968Y0366067D01*
X0017113Y0366118D01*
X0017259Y0366165D01*
X0017406Y0366208D01*
X0017554Y0366247D01*
X0017703Y0366283D01*
X0017853Y0366314D01*
X0018004Y0366342D01*
X0018155Y0366366D01*
X0018308Y0366386D01*
X0018460Y0366402D01*
X0018613Y0366414D01*
X0018766Y0366422D01*
X0018919Y0366426D01*
X0019073Y0366426D01*
X0019226Y0366422D01*
X0019379Y0366414D01*
X0019532Y0366402D01*
X0019684Y0366386D01*
X0019837Y0366366D01*
X0019988Y0366342D01*
X0020139Y0366314D01*
X0020289Y0366283D01*
X0020438Y0366247D01*
X0020586Y0366208D01*
X0020733Y0366165D01*
X0020879Y0366118D01*
X0021024Y0366067D01*
X0021167Y0366012D01*
X0021309Y0365954D01*
X0021449Y0365892D01*
X0021588Y0365827D01*
X0021725Y0365758D01*
X0021860Y0365685D01*
X0021993Y0365609D01*
X0022124Y0365529D01*
X0022253Y0365447D01*
X0022380Y0365360D01*
X0022505Y0365271D01*
X0022627Y0365178D01*
X0022746Y0365082D01*
X0022864Y0364983D01*
X0022978Y0364882D01*
X0023090Y0364777D01*
X0023199Y0364669D01*
X0023305Y0364558D01*
X0023409Y0364445D01*
X0023509Y0364329D01*
X0023607Y0364211D01*
X0023701Y0364090D01*
X0023792Y0363967D01*
X0023880Y0363841D01*
X0023964Y0363713D01*
X0024046Y0363583D01*
X0024123Y0363451D01*
X0024198Y0363317D01*
X0024269Y0363181D01*
X0024336Y0363043D01*
X0024400Y0362903D01*
X0024460Y0362762D01*
X0024516Y0362620D01*
X0024569Y0362476D01*
X0024618Y0362330D01*
X0024663Y0362184D01*
X0024704Y0362036D01*
X0024741Y0361888D01*
X0024775Y0361738D01*
X0024805Y0361587D01*
X0024830Y0361436D01*
X0024852Y0361285D01*
X0024870Y0361132D01*
X0024884Y0360980D01*
X0024894Y0360827D01*
X0024900Y0360673D01*
X0024902Y0360520D01*
X0024900Y0360367D01*
X0024894Y0360213D01*
X0024884Y0360060D01*
X0024870Y0359908D01*
X0024852Y0359755D01*
X0024830Y0359604D01*
X0024805Y0359453D01*
X0024775Y0359302D01*
X0024741Y0359152D01*
X0024704Y0359004D01*
X0024663Y0358856D01*
X0024618Y0358710D01*
X0024569Y0358564D01*
X0024516Y0358420D01*
X0024460Y0358278D01*
X0024400Y0358137D01*
X0024336Y0357997D01*
X0024269Y0357859D01*
X0024198Y0357723D01*
X0024123Y0357589D01*
X0024046Y0357457D01*
X0023964Y0357327D01*
X0023880Y0357199D01*
X0023792Y0357073D01*
X0023701Y0356950D01*
X0023607Y0356829D01*
X0023509Y0356711D01*
X0023409Y0356595D01*
X0023305Y0356482D01*
X0023199Y0356371D01*
X0023090Y0356263D01*
X0022978Y0356158D01*
X0022864Y0356057D01*
X0022746Y0355958D01*
X0022627Y0355862D01*
X0022505Y0355769D01*
X0022380Y0355680D01*
X0022253Y0355593D01*
X0022124Y0355511D01*
X0021993Y0355431D01*
X0021860Y0355355D01*
X0021725Y0355282D01*
X0021588Y0355213D01*
X0021449Y0355148D01*
X0021309Y0355086D01*
X0021167Y0355028D01*
X0021024Y0354973D01*
X0020879Y0354922D01*
X0020733Y0354875D01*
X0020586Y0354832D01*
X0020438Y0354793D01*
X0020289Y0354757D01*
X0020139Y0354726D01*
X0019988Y0354698D01*
X0019837Y0354674D01*
X0019684Y0354654D01*
X0019532Y0354638D01*
X0019379Y0354626D01*
X0019226Y0354618D01*
X0019073Y0354614D01*
X0018919Y0354614D01*
X0018766Y0354618D01*
X0018613Y0354626D01*
X0018460Y0354638D01*
X0018308Y0354654D01*
X0018155Y0354674D01*
X0018004Y0354698D01*
X0017853Y0354726D01*
X0017703Y0354757D01*
X0017554Y0354793D01*
X0017406Y0354832D01*
X0017259Y0354875D01*
X0017113Y0354922D01*
X0016968Y0354973D01*
X0016825Y0355028D01*
X0016683Y0355086D01*
X0016543Y0355148D01*
X0016404Y0355213D01*
X0016267Y0355282D01*
X0016132Y0355355D01*
X0015999Y0355431D01*
X0015868Y0355511D01*
X0015739Y0355593D01*
X0015612Y0355680D01*
X0015487Y0355769D01*
X0015365Y0355862D01*
X0015246Y0355958D01*
X0015128Y0356057D01*
X0015014Y0356158D01*
X0014902Y0356263D01*
X0014793Y0356371D01*
X0014687Y0356482D01*
X0014583Y0356595D01*
X0014483Y0356711D01*
X0014385Y0356829D01*
X0014291Y0356950D01*
X0014200Y0357073D01*
X0014112Y0357199D01*
X0014028Y0357327D01*
X0013946Y0357457D01*
X0013869Y0357589D01*
X0013794Y0357723D01*
X0013723Y0357859D01*
X0013656Y0357997D01*
X0013592Y0358137D01*
X0013532Y0358278D01*
X0013476Y0358420D01*
X0013423Y0358564D01*
X0013374Y0358710D01*
X0013329Y0358856D01*
X0013288Y0359004D01*
X0013251Y0359152D01*
X0013217Y0359302D01*
X0013187Y0359453D01*
X0013162Y0359604D01*
X0013140Y0359755D01*
X0013122Y0359908D01*
X0013108Y0360060D01*
X0013098Y0360213D01*
X0013092Y0360367D01*
X0013090Y0360520D01*
D11*
X0218417Y0155969D03*
D12*
X0211307Y0169850D03*
X0211307Y0170528D03*
X0209614Y0173236D03*
X0206567Y0173236D03*
X0206567Y0170528D03*
X0206567Y0169850D03*
X0216047Y0171543D03*
X0220787Y0170528D03*
X0230268Y0173236D03*
X0256677Y0186780D03*
X0256677Y0187118D03*
X0256677Y0190843D03*
X0256677Y0191181D03*
X0262094Y0190504D03*
X0262094Y0190165D03*
X0262094Y0189827D03*
X0262094Y0189488D03*
X0262094Y0189150D03*
X0262094Y0188811D03*
X0262094Y0187118D03*
X0262094Y0186780D03*
X0265480Y0187457D03*
X0265480Y0187795D03*
X0267512Y0187795D03*
X0267512Y0187457D03*
X0267512Y0190165D03*
X0267512Y0190504D03*
X0264465Y0203709D03*
X0264126Y0204386D03*
X0263787Y0205063D03*
X0263787Y0205402D03*
X0263787Y0205740D03*
X0263787Y0206079D03*
X0263787Y0206417D03*
X0263787Y0206756D03*
X0263787Y0207094D03*
X0263787Y0207433D03*
X0263787Y0207772D03*
X0263787Y0208110D03*
X0263787Y0208449D03*
X0263787Y0208787D03*
X0263787Y0209126D03*
X0263787Y0209465D03*
X0263787Y0209803D03*
X0263787Y0210142D03*
X0263787Y0210480D03*
X0263787Y0210819D03*
X0263787Y0211157D03*
X0263787Y0211496D03*
X0263787Y0211835D03*
X0263787Y0212173D03*
X0263787Y0212512D03*
X0263787Y0212850D03*
X0263787Y0213189D03*
X0263787Y0213528D03*
X0263787Y0213866D03*
X0263787Y0214205D03*
X0263787Y0214543D03*
X0263787Y0214882D03*
X0263787Y0215220D03*
X0263787Y0215559D03*
X0263787Y0215898D03*
X0263787Y0216236D03*
X0263787Y0216575D03*
X0263787Y0216913D03*
X0263787Y0217252D03*
X0263787Y0217591D03*
X0263787Y0217929D03*
X0263787Y0218268D03*
X0263787Y0218606D03*
X0263787Y0218945D03*
X0263787Y0219283D03*
X0263787Y0219622D03*
X0263787Y0219961D03*
X0263787Y0220299D03*
X0263787Y0220638D03*
X0263787Y0220976D03*
X0263787Y0221315D03*
X0263787Y0221654D03*
X0263787Y0221992D03*
X0272929Y0207772D03*
X0271575Y0206079D03*
X0269543Y0206079D03*
X0254307Y0212850D03*
X0254307Y0213189D03*
X0254307Y0213528D03*
X0254307Y0213866D03*
X0254307Y0214205D03*
X0254307Y0214543D03*
X0254307Y0214882D03*
X0254307Y0217929D03*
X0254307Y0218268D03*
X0254307Y0218606D03*
X0254307Y0218945D03*
X0254307Y0219283D03*
X0246858Y0219283D03*
X0246858Y0218945D03*
X0246858Y0218606D03*
X0246858Y0218268D03*
X0246858Y0217929D03*
X0246858Y0217591D03*
X0246858Y0217252D03*
X0246858Y0216913D03*
X0246858Y0214882D03*
X0246858Y0214543D03*
X0246858Y0214205D03*
X0246858Y0213866D03*
X0246858Y0213528D03*
X0246858Y0213189D03*
X0246858Y0212850D03*
X0246858Y0212512D03*
X0246858Y0212173D03*
X0246858Y0211835D03*
X0246858Y0211496D03*
X0246858Y0211157D03*
X0239409Y0211496D03*
X0239409Y0211835D03*
X0239409Y0212173D03*
X0239409Y0212512D03*
X0239409Y0212850D03*
X0239409Y0213189D03*
X0239409Y0213528D03*
X0239409Y0213866D03*
X0239409Y0214205D03*
X0239409Y0214543D03*
X0239409Y0214882D03*
X0239409Y0215220D03*
X0239409Y0215559D03*
X0239409Y0215898D03*
X0239409Y0216236D03*
X0239409Y0216575D03*
X0239409Y0216913D03*
X0239409Y0217252D03*
X0239409Y0217591D03*
X0239409Y0217929D03*
X0239409Y0218268D03*
X0239409Y0218606D03*
X0239409Y0218945D03*
X0239409Y0219283D03*
X0237717Y0220299D03*
X0237717Y0220638D03*
X0208260Y0219283D03*
X0208260Y0218945D03*
X0208260Y0218268D03*
X0208260Y0217929D03*
X0208260Y0217591D03*
X0208260Y0217252D03*
X0208260Y0216913D03*
X0208260Y0216575D03*
X0208260Y0216236D03*
X0208260Y0215898D03*
X0208260Y0215559D03*
X0208260Y0215220D03*
X0208260Y0214882D03*
X0208260Y0214543D03*
X0208260Y0214205D03*
X0208260Y0213866D03*
X0208260Y0213528D03*
X0208260Y0213189D03*
X0208260Y0212850D03*
X0200811Y0212850D03*
X0200811Y0213189D03*
X0200811Y0213528D03*
X0200811Y0213866D03*
X0200811Y0214205D03*
X0200811Y0216913D03*
X0200811Y0217252D03*
X0200811Y0217591D03*
X0200811Y0217929D03*
X0200811Y0218268D03*
X0200811Y0218606D03*
X0200811Y0218945D03*
X0200811Y0219283D03*
X0200811Y0219622D03*
X0200811Y0219961D03*
X0200811Y0220299D03*
X0200811Y0220638D03*
X0200811Y0220976D03*
X0190315Y0181362D03*
X0195055Y0180685D03*
X0197087Y0171543D03*
X0197087Y0165110D03*
X0192008Y0165110D03*
X0187606Y0169850D03*
X0182866Y0178654D03*
X0184898Y0181362D03*
X0178126Y0173236D03*
X0175417Y0165110D03*
X0173386Y0162402D03*
X0168646Y0162402D03*
X0168646Y0161724D03*
X0166953Y0163079D03*
X0168646Y0170528D03*
X0168646Y0173236D03*
X0168646Y0177976D03*
X0168646Y0178654D03*
X0168646Y0181362D03*
X0161874Y0207433D03*
X0158827Y0207433D03*
X0168984Y0212173D03*
X0161874Y0156984D03*
X0162213Y0156646D03*
X0162890Y0156307D03*
X0074858Y0192197D03*
X0072488Y0189827D03*
X0049126Y0192535D03*
X0056575Y0284630D03*
X0056236Y0284969D03*
X0055898Y0285646D03*
X0055898Y0285984D03*
X0055898Y0286323D03*
X0055220Y0287677D03*
X0055220Y0288016D03*
X0054882Y0288693D03*
X0055220Y0289031D03*
X0055220Y0289370D03*
X0055220Y0289709D03*
X0055559Y0290047D03*
X0056236Y0291063D03*
X0056236Y0291402D03*
X0056236Y0291740D03*
X0056575Y0292079D03*
X0056575Y0294110D03*
X0056236Y0294449D03*
X0056236Y0294787D03*
X0055898Y0295126D03*
X0055898Y0295465D03*
X0055559Y0295803D03*
X0055559Y0296142D03*
X0055559Y0296480D03*
X0055559Y0296819D03*
X0058268Y0295803D03*
X0059283Y0295126D03*
X0060976Y0295126D03*
X0060976Y0295465D03*
X0060976Y0295803D03*
X0060299Y0296819D03*
X0061654Y0296819D03*
X0063008Y0295465D03*
X0062669Y0295126D03*
X0063685Y0295803D03*
X0065717Y0294787D03*
X0065717Y0294449D03*
X0065378Y0294110D03*
X0066055Y0295126D03*
X0066055Y0295465D03*
X0066394Y0295803D03*
X0066394Y0296142D03*
X0066394Y0296480D03*
X0066394Y0296819D03*
X0065039Y0292756D03*
X0065378Y0292417D03*
X0065717Y0291740D03*
X0065717Y0291402D03*
X0065717Y0291063D03*
X0066394Y0290047D03*
X0066732Y0289709D03*
X0067071Y0288693D03*
X0067071Y0288354D03*
X0066732Y0287677D03*
X0066732Y0287339D03*
X0066055Y0286323D03*
X0066055Y0285984D03*
X0066055Y0285646D03*
X0065717Y0284969D03*
X0065378Y0284630D03*
X0063008Y0285646D03*
X0065039Y0288354D03*
X0065039Y0288693D03*
X0065039Y0289031D03*
X0065039Y0289370D03*
X0065039Y0289709D03*
X0065039Y0290047D03*
X0063008Y0292417D03*
X0062669Y0292756D03*
X0060976Y0290386D03*
X0060976Y0290047D03*
X0060976Y0289709D03*
X0060976Y0289370D03*
X0058945Y0292079D03*
X0059283Y0292756D03*
X0056913Y0290047D03*
X0056913Y0289709D03*
X0056913Y0289370D03*
X0056913Y0289031D03*
X0056913Y0288693D03*
X0058945Y0285984D03*
X0058945Y0285646D03*
X0059283Y0285307D03*
X0082646Y0290724D03*
X0095512Y0289709D03*
X0132417Y0289370D03*
X0171693Y0289370D03*
X0190992Y0282598D03*
X0191669Y0281921D03*
X0195394Y0283953D03*
X0196409Y0284291D03*
X0198102Y0285307D03*
X0198102Y0285646D03*
X0198102Y0287000D03*
X0198102Y0287339D03*
X0200134Y0287339D03*
X0200134Y0287677D03*
X0200134Y0288016D03*
X0200134Y0288354D03*
X0200134Y0288693D03*
X0200134Y0289031D03*
X0200134Y0289370D03*
X0200134Y0289709D03*
X0200134Y0290047D03*
X0200134Y0290386D03*
X0200134Y0290724D03*
X0200134Y0291063D03*
X0200134Y0291402D03*
X0200134Y0291740D03*
X0200134Y0292079D03*
X0200134Y0292417D03*
X0200134Y0292756D03*
X0200134Y0293094D03*
X0200134Y0293433D03*
X0200134Y0293772D03*
X0200134Y0294110D03*
X0200134Y0294449D03*
X0200134Y0294787D03*
X0200134Y0295126D03*
X0200134Y0295465D03*
X0200134Y0295803D03*
X0200134Y0296142D03*
X0200134Y0296480D03*
X0200134Y0287000D03*
X0200134Y0286661D03*
X0200134Y0285984D03*
X0200134Y0285646D03*
X0200134Y0285307D03*
X0200134Y0284969D03*
X0200134Y0284630D03*
X0200134Y0284291D03*
X0200134Y0283953D03*
X0200134Y0283614D03*
X0200134Y0282937D03*
X0200134Y0282598D03*
X0200134Y0282260D03*
X0200134Y0281921D03*
X0193024Y0287339D03*
X0167969Y0356409D03*
X0168307Y0356748D03*
X0168646Y0357087D03*
X0168984Y0357425D03*
X0170339Y0358780D03*
X0170000Y0359118D03*
X0169661Y0359457D03*
X0169323Y0359795D03*
X0170677Y0358441D03*
X0166953Y0359457D03*
X0162890Y0358441D03*
X0162890Y0357425D03*
X0214354Y0357764D03*
X0219433Y0357764D03*
X0262433Y0335079D03*
X0262433Y0334740D03*
X0262433Y0334402D03*
X0262433Y0334063D03*
X0262433Y0333724D03*
X0264126Y0338803D03*
X0264126Y0339142D03*
X0264126Y0339480D03*
X0264126Y0339819D03*
X0264126Y0340157D03*
X0264126Y0340496D03*
X0264126Y0340835D03*
X0265819Y0340835D03*
X0265819Y0341173D03*
X0265819Y0340496D03*
X0265819Y0339819D03*
X0265819Y0339480D03*
X0265819Y0339142D03*
X0265819Y0338803D03*
X0265819Y0335079D03*
X0265819Y0334740D03*
X0265819Y0334402D03*
X0265819Y0334063D03*
X0265819Y0343882D03*
X0265819Y0344559D03*
X0265819Y0344898D03*
X0265819Y0345236D03*
X0265819Y0345575D03*
X0265819Y0345913D03*
X0265819Y0346252D03*
X0264126Y0345913D03*
X0264126Y0345575D03*
X0264126Y0345236D03*
X0264126Y0344898D03*
X0264126Y0344559D03*
X0264126Y0344220D03*
X0264126Y0343882D03*
X0262433Y0303591D03*
X0262433Y0303252D03*
X0262433Y0302913D03*
X0262433Y0302575D03*
X0262433Y0302236D03*
X0265819Y0302236D03*
X0265819Y0302575D03*
X0265819Y0302913D03*
X0265819Y0303252D03*
X0265819Y0303591D03*
X0262433Y0289031D03*
X0263449Y0287000D03*
X0263449Y0286661D03*
X0265819Y0286661D03*
X0265819Y0287000D03*
X0265819Y0287339D03*
X0265819Y0287677D03*
X0265819Y0288016D03*
X0265819Y0283953D03*
X0265819Y0283614D03*
X0265819Y0283276D03*
X0265819Y0282937D03*
X0265819Y0282598D03*
X0265819Y0282260D03*
X0265819Y0281583D03*
X0264126Y0281583D03*
X0264126Y0281921D03*
X0264126Y0282260D03*
X0264126Y0282598D03*
X0264126Y0282937D03*
X0264126Y0283276D03*
X0264126Y0283614D03*
X0262433Y0283614D03*
X0262433Y0283276D03*
X0262433Y0282937D03*
X0262433Y0282598D03*
X0262433Y0282260D03*
X0262433Y0281921D03*
X0262433Y0281583D03*
X0262433Y0283953D03*
X0265819Y0279213D03*
X0265819Y0272780D03*
X0265819Y0272441D03*
X0265819Y0272102D03*
X0265819Y0271764D03*
X0265819Y0267701D03*
X0265819Y0267362D03*
X0265819Y0267024D03*
X0265819Y0266685D03*
X0265819Y0266346D03*
X0263449Y0266346D03*
X0263449Y0266685D03*
X0263449Y0267024D03*
X0263449Y0267362D03*
X0263449Y0267701D03*
X0262433Y0271425D03*
X0262433Y0271764D03*
X0262433Y0272102D03*
X0262433Y0272441D03*
X0262433Y0272780D03*
X0274961Y0156984D03*
X0274622Y0156646D03*
X0273945Y0156307D03*
X0053528Y0358102D03*
X0053528Y0358441D03*
X0053528Y0358780D03*
X0053528Y0359118D03*
X0053528Y0359457D03*
X0053528Y0359795D03*
X0050480Y0358102D03*
X0050142Y0358780D03*
X0049126Y0358780D03*
X0048110Y0358780D03*
X0047772Y0358102D03*
X0046417Y0358780D03*
X0045402Y0358780D03*
X0045063Y0358102D03*
X0044047Y0358102D03*
X0043709Y0358780D03*
X0040661Y0358780D03*
X0040661Y0359118D03*
X0040661Y0359457D03*
X0040661Y0359795D03*
X0040661Y0358441D03*
X0040661Y0358102D03*
X0044724Y0364874D03*
D13*
X0044555Y0358780D03*
X0043201Y0358102D03*
X0042862Y0358780D03*
X0045909Y0358102D03*
X0046925Y0358102D03*
X0047264Y0358780D03*
X0048618Y0358102D03*
X0049634Y0358102D03*
X0050988Y0358780D03*
X0051327Y0358102D03*
X0060469Y0296480D03*
X0061484Y0296480D03*
X0058776Y0295465D03*
X0059114Y0292417D03*
X0065547Y0292079D03*
X0066902Y0289370D03*
X0066902Y0289031D03*
X0066902Y0288016D03*
X0065886Y0285307D03*
X0056067Y0285307D03*
X0082476Y0290386D03*
X0085185Y0292756D03*
X0096358Y0293433D03*
X0100760Y0290386D03*
X0109563Y0292756D03*
X0126492Y0292756D03*
X0127169Y0292756D03*
X0135295Y0289370D03*
X0138681Y0289370D03*
X0141728Y0289370D03*
X0156287Y0292756D03*
X0159673Y0289370D03*
X0160350Y0289370D03*
X0163398Y0289370D03*
X0164413Y0291063D03*
X0172539Y0289370D03*
X0172878Y0291063D03*
X0175925Y0289370D03*
X0190823Y0289370D03*
X0190823Y0289031D03*
X0190823Y0288693D03*
X0190823Y0288354D03*
X0190823Y0288016D03*
X0190823Y0287677D03*
X0190823Y0287339D03*
X0190823Y0287000D03*
X0190823Y0286661D03*
X0190823Y0286323D03*
X0190823Y0285984D03*
X0190823Y0285646D03*
X0190823Y0285307D03*
X0190823Y0284969D03*
X0190823Y0284630D03*
X0190823Y0284291D03*
X0190823Y0283953D03*
X0190823Y0283614D03*
X0190823Y0283276D03*
X0190823Y0282937D03*
X0191161Y0282260D03*
X0194547Y0286323D03*
X0196917Y0283953D03*
X0199965Y0283276D03*
X0199965Y0286323D03*
X0190823Y0289709D03*
X0190823Y0290047D03*
X0190823Y0290386D03*
X0190823Y0290724D03*
X0190823Y0291063D03*
X0190823Y0291402D03*
X0190823Y0291740D03*
X0190823Y0292079D03*
X0190823Y0292417D03*
X0190823Y0292756D03*
X0190823Y0293094D03*
X0190823Y0293433D03*
X0190823Y0293772D03*
X0190823Y0294110D03*
X0190823Y0294449D03*
X0190823Y0294787D03*
X0190823Y0295126D03*
X0190823Y0295465D03*
X0190823Y0295803D03*
X0190823Y0296142D03*
X0190823Y0296480D03*
X0176264Y0217929D03*
X0177618Y0215220D03*
X0181004Y0181362D03*
X0187437Y0181362D03*
X0191839Y0181362D03*
X0195902Y0181362D03*
X0196917Y0181362D03*
X0199965Y0173236D03*
X0195902Y0162740D03*
X0190823Y0165110D03*
X0190146Y0165110D03*
X0185406Y0165110D03*
X0185406Y0173236D03*
X0172201Y0173236D03*
X0171524Y0173236D03*
X0170846Y0173236D03*
X0171185Y0165110D03*
X0171862Y0165110D03*
X0166445Y0165110D03*
X0161028Y0165110D03*
X0161028Y0164772D03*
X0161028Y0164433D03*
X0161028Y0164094D03*
X0161028Y0163756D03*
X0161028Y0163417D03*
X0161028Y0163079D03*
X0161028Y0162740D03*
X0161028Y0162402D03*
X0161028Y0162063D03*
X0161028Y0161724D03*
X0161028Y0161386D03*
X0161028Y0161047D03*
X0161028Y0160709D03*
X0161028Y0160370D03*
X0161028Y0160031D03*
X0161028Y0159693D03*
X0161028Y0159354D03*
X0161028Y0159016D03*
X0161028Y0158677D03*
X0161028Y0158339D03*
X0161366Y0158000D03*
X0161366Y0157661D03*
X0161705Y0157323D03*
X0161028Y0165449D03*
X0161028Y0165787D03*
X0161028Y0166126D03*
X0161028Y0166465D03*
X0161028Y0166803D03*
X0161028Y0167142D03*
X0161028Y0167480D03*
X0161028Y0167819D03*
X0161028Y0168157D03*
X0161028Y0168496D03*
X0161028Y0168835D03*
X0161028Y0169173D03*
X0161028Y0169512D03*
X0161028Y0169850D03*
X0161028Y0170189D03*
X0161028Y0170528D03*
X0161028Y0170866D03*
X0161028Y0171205D03*
X0161028Y0171543D03*
X0161028Y0171882D03*
X0161028Y0172220D03*
X0161028Y0172559D03*
X0161028Y0172898D03*
X0161028Y0173236D03*
X0161028Y0173575D03*
X0161028Y0173913D03*
X0161028Y0174252D03*
X0161028Y0174591D03*
X0161028Y0174929D03*
X0161028Y0175268D03*
X0161028Y0175606D03*
X0161028Y0175945D03*
X0161028Y0176283D03*
X0161028Y0176622D03*
X0161028Y0176961D03*
X0161028Y0177299D03*
X0161028Y0177638D03*
X0161028Y0177976D03*
X0161028Y0178315D03*
X0161028Y0178654D03*
X0161028Y0178992D03*
X0161028Y0179331D03*
X0161028Y0179669D03*
X0161028Y0180008D03*
X0161028Y0180346D03*
X0161028Y0180685D03*
X0161028Y0181024D03*
X0161028Y0181362D03*
X0161028Y0181701D03*
X0161028Y0182039D03*
X0161028Y0182378D03*
X0161028Y0182717D03*
X0161028Y0183055D03*
X0161028Y0183394D03*
X0161028Y0183732D03*
X0161028Y0184071D03*
X0170846Y0181362D03*
X0173217Y0181362D03*
X0215878Y0216913D03*
X0227051Y0191181D03*
X0227051Y0186780D03*
X0232130Y0186780D03*
X0232130Y0191181D03*
X0223327Y0173236D03*
X0218925Y0173236D03*
X0264295Y0204047D03*
X0263957Y0204724D03*
X0264634Y0205740D03*
X0265311Y0205402D03*
X0265988Y0205402D03*
X0265650Y0206079D03*
X0265650Y0204724D03*
X0266327Y0204724D03*
X0267004Y0204386D03*
X0267681Y0204386D03*
X0267343Y0205063D03*
X0267343Y0203709D03*
X0267343Y0207094D03*
X0275469Y0207094D03*
X0275469Y0206756D03*
X0275469Y0206417D03*
X0275469Y0206079D03*
X0275469Y0205740D03*
X0275469Y0205402D03*
X0275469Y0205063D03*
X0275469Y0204724D03*
X0275469Y0204386D03*
X0275469Y0204047D03*
X0275469Y0203709D03*
X0275469Y0203370D03*
X0275469Y0207433D03*
X0275469Y0207772D03*
X0275469Y0208110D03*
X0275469Y0208449D03*
X0275469Y0208787D03*
X0275469Y0209126D03*
X0275469Y0209465D03*
X0275469Y0209803D03*
X0275469Y0210142D03*
X0275469Y0210480D03*
X0275469Y0210819D03*
X0275469Y0211157D03*
X0275469Y0211496D03*
X0275469Y0211835D03*
X0275469Y0212173D03*
X0275469Y0212512D03*
X0275469Y0212850D03*
X0275469Y0213189D03*
X0275469Y0213528D03*
X0275469Y0213866D03*
X0275469Y0214205D03*
X0275469Y0214543D03*
X0275469Y0214882D03*
X0275469Y0215220D03*
X0275469Y0215559D03*
X0275469Y0215898D03*
X0275469Y0216236D03*
X0275469Y0216575D03*
X0275469Y0216913D03*
X0275469Y0217252D03*
X0275469Y0217591D03*
X0275469Y0217929D03*
X0275469Y0218268D03*
X0275469Y0218606D03*
X0275469Y0218945D03*
X0275469Y0219283D03*
X0275469Y0219622D03*
X0275469Y0219961D03*
X0275469Y0220299D03*
X0275469Y0220638D03*
X0275469Y0220976D03*
X0275469Y0221315D03*
X0275469Y0221654D03*
X0275469Y0221992D03*
X0275807Y0184071D03*
X0275807Y0183732D03*
X0275807Y0183394D03*
X0275807Y0183055D03*
X0275807Y0182717D03*
X0275807Y0182378D03*
X0275807Y0182039D03*
X0275807Y0181701D03*
X0275807Y0181362D03*
X0275807Y0181024D03*
X0275807Y0180685D03*
X0275807Y0180346D03*
X0275807Y0180008D03*
X0275807Y0179669D03*
X0275807Y0179331D03*
X0275807Y0178992D03*
X0275807Y0178654D03*
X0275807Y0178315D03*
X0275807Y0177976D03*
X0275807Y0177638D03*
X0275807Y0177299D03*
X0275807Y0176961D03*
X0275807Y0176622D03*
X0275807Y0176283D03*
X0275807Y0175945D03*
X0275807Y0175606D03*
X0275807Y0175268D03*
X0275807Y0174929D03*
X0275807Y0174591D03*
X0275807Y0174252D03*
X0275807Y0173913D03*
X0275807Y0173575D03*
X0275807Y0173236D03*
X0275807Y0172898D03*
X0275807Y0172559D03*
X0275807Y0172220D03*
X0275807Y0171882D03*
X0275807Y0171543D03*
X0275807Y0171205D03*
X0275807Y0170866D03*
X0275807Y0170528D03*
X0275807Y0170189D03*
X0275807Y0169850D03*
X0275807Y0169512D03*
X0275807Y0169173D03*
X0275807Y0168835D03*
X0275807Y0168496D03*
X0275807Y0168157D03*
X0275807Y0167819D03*
X0275807Y0167480D03*
X0275807Y0167142D03*
X0275807Y0166803D03*
X0275807Y0166465D03*
X0275807Y0166126D03*
X0275807Y0165787D03*
X0275807Y0165449D03*
X0275807Y0165110D03*
X0275807Y0164772D03*
X0275807Y0164433D03*
X0275807Y0164094D03*
X0275807Y0163756D03*
X0275807Y0163417D03*
X0275807Y0163079D03*
X0275807Y0162740D03*
X0275807Y0162402D03*
X0275807Y0162063D03*
X0275807Y0161724D03*
X0275807Y0161386D03*
X0275807Y0161047D03*
X0275807Y0160709D03*
X0275807Y0160370D03*
X0275807Y0160031D03*
X0275807Y0159693D03*
X0275807Y0159354D03*
X0275807Y0159016D03*
X0275807Y0158677D03*
X0275807Y0158339D03*
X0275469Y0158000D03*
X0275469Y0157661D03*
X0275130Y0157323D03*
X0265988Y0271425D03*
X0265988Y0281921D03*
X0265988Y0284291D03*
X0262264Y0284291D03*
X0265988Y0333724D03*
X0265988Y0340157D03*
X0265988Y0344220D03*
X0265988Y0346591D03*
X0074350Y0192535D03*
X0062161Y0192535D03*
X0053020Y0190504D03*
X0027287Y0192535D03*
X0026272Y0192535D03*
D14*
X0051665Y0192535D03*
X0054374Y0192535D03*
X0069610Y0192535D03*
X0073673Y0192874D03*
X0073673Y0189488D03*
X0073673Y0189150D03*
X0078075Y0192874D03*
X0062161Y0284630D03*
X0059791Y0284630D03*
X0058437Y0287000D03*
X0063516Y0286661D03*
X0065886Y0297157D03*
X0056067Y0297157D03*
X0078413Y0293094D03*
X0091618Y0287000D03*
X0096020Y0289370D03*
X0100421Y0290724D03*
X0108209Y0292756D03*
X0109902Y0291740D03*
X0109902Y0291402D03*
X0109902Y0291063D03*
X0109902Y0290724D03*
X0109902Y0290386D03*
X0109902Y0290047D03*
X0109902Y0289709D03*
X0109902Y0289370D03*
X0109902Y0289031D03*
X0109902Y0288693D03*
X0109902Y0288354D03*
X0109902Y0288016D03*
X0114303Y0289370D03*
X0114303Y0289709D03*
X0114303Y0290047D03*
X0114303Y0290386D03*
X0114303Y0290724D03*
X0114303Y0291063D03*
X0114303Y0291402D03*
X0114303Y0291740D03*
X0118366Y0291740D03*
X0118366Y0291402D03*
X0118366Y0291063D03*
X0118366Y0290724D03*
X0118366Y0290386D03*
X0118366Y0290047D03*
X0118366Y0289709D03*
X0118366Y0288354D03*
X0118366Y0288016D03*
X0118366Y0287677D03*
X0118366Y0287339D03*
X0118366Y0287000D03*
X0126831Y0290386D03*
X0126831Y0290724D03*
X0126831Y0291063D03*
X0126831Y0291402D03*
X0126831Y0291740D03*
X0126831Y0292079D03*
X0126831Y0292417D03*
X0130217Y0292417D03*
X0130217Y0292079D03*
X0130217Y0291740D03*
X0130217Y0291402D03*
X0130217Y0291063D03*
X0130217Y0290724D03*
X0130217Y0290386D03*
X0128524Y0289031D03*
X0128524Y0288693D03*
X0128524Y0288354D03*
X0128524Y0288016D03*
X0128524Y0287677D03*
X0128524Y0287339D03*
X0128524Y0287000D03*
X0132925Y0290386D03*
X0132925Y0290724D03*
X0132925Y0291063D03*
X0132925Y0291402D03*
X0132925Y0291740D03*
X0136988Y0291740D03*
X0136988Y0291402D03*
X0136988Y0291063D03*
X0136988Y0290724D03*
X0136988Y0290386D03*
X0136988Y0290047D03*
X0136988Y0289709D03*
X0136988Y0288354D03*
X0136988Y0288016D03*
X0136988Y0287677D03*
X0136988Y0287339D03*
X0136988Y0287000D03*
X0139020Y0290386D03*
X0139020Y0290724D03*
X0139020Y0291063D03*
X0139020Y0291402D03*
X0139020Y0291740D03*
X0143421Y0291740D03*
X0143421Y0291402D03*
X0143421Y0291063D03*
X0143421Y0290724D03*
X0143421Y0290386D03*
X0143421Y0290047D03*
X0143421Y0289709D03*
X0143421Y0288354D03*
X0143421Y0288016D03*
X0143421Y0287677D03*
X0143421Y0287339D03*
X0143421Y0287000D03*
X0149516Y0288016D03*
X0149516Y0288354D03*
X0149516Y0288693D03*
X0149516Y0289031D03*
X0149516Y0289370D03*
X0149516Y0290386D03*
X0149516Y0290724D03*
X0149516Y0291063D03*
X0149516Y0291402D03*
X0149516Y0291740D03*
X0151547Y0291740D03*
X0151547Y0291402D03*
X0151547Y0291063D03*
X0151547Y0290724D03*
X0151547Y0290386D03*
X0151547Y0289370D03*
X0151547Y0289031D03*
X0151547Y0288693D03*
X0151547Y0288354D03*
X0151547Y0288016D03*
X0155610Y0288016D03*
X0155610Y0288354D03*
X0155610Y0288693D03*
X0155610Y0289031D03*
X0155610Y0289370D03*
X0155610Y0290386D03*
X0155610Y0290724D03*
X0155610Y0291063D03*
X0155610Y0291402D03*
X0155610Y0291740D03*
X0157642Y0291740D03*
X0157642Y0291402D03*
X0157642Y0291063D03*
X0157642Y0290724D03*
X0157642Y0290386D03*
X0157642Y0290047D03*
X0157642Y0289709D03*
X0162043Y0289709D03*
X0162043Y0290047D03*
X0162043Y0290386D03*
X0162043Y0290724D03*
X0162043Y0291063D03*
X0162043Y0291402D03*
X0162043Y0291740D03*
X0164752Y0291740D03*
X0164752Y0291402D03*
X0164075Y0289031D03*
X0164075Y0288693D03*
X0164075Y0288354D03*
X0164075Y0288016D03*
X0162043Y0288016D03*
X0162043Y0288354D03*
X0162043Y0287677D03*
X0162043Y0287339D03*
X0162043Y0287000D03*
X0168138Y0288016D03*
X0168138Y0288354D03*
X0170169Y0288354D03*
X0170169Y0288016D03*
X0170169Y0287677D03*
X0170169Y0287339D03*
X0170169Y0287000D03*
X0170169Y0289370D03*
X0170169Y0289709D03*
X0170169Y0290047D03*
X0170169Y0290386D03*
X0170169Y0290724D03*
X0170169Y0291063D03*
X0170846Y0291402D03*
X0170846Y0291740D03*
X0168138Y0291740D03*
X0168138Y0291402D03*
X0168138Y0291063D03*
X0168138Y0290724D03*
X0168138Y0290386D03*
X0173555Y0291402D03*
X0173555Y0291740D03*
X0174232Y0291063D03*
X0174232Y0290724D03*
X0174232Y0290386D03*
X0174232Y0290047D03*
X0174232Y0289709D03*
X0174232Y0288354D03*
X0174232Y0288016D03*
X0174232Y0287677D03*
X0174232Y0287339D03*
X0174232Y0287000D03*
X0176264Y0290386D03*
X0176264Y0290724D03*
X0176264Y0291063D03*
X0176264Y0291402D03*
X0176264Y0291740D03*
X0180665Y0291740D03*
X0180665Y0291402D03*
X0180665Y0291063D03*
X0180665Y0290724D03*
X0180665Y0290386D03*
X0180665Y0290047D03*
X0180665Y0289709D03*
X0180665Y0288354D03*
X0180665Y0288016D03*
X0180665Y0287677D03*
X0180665Y0287339D03*
X0180665Y0287000D03*
X0192854Y0288016D03*
X0194547Y0287339D03*
X0194547Y0287000D03*
X0193531Y0285646D03*
X0193531Y0285307D03*
X0197933Y0220976D03*
X0197933Y0220638D03*
X0197933Y0220299D03*
X0197933Y0219961D03*
X0197933Y0219622D03*
X0197933Y0219283D03*
X0197933Y0218945D03*
X0197933Y0218606D03*
X0197933Y0218268D03*
X0197933Y0217929D03*
X0197933Y0217591D03*
X0197933Y0217252D03*
X0197933Y0216913D03*
X0197933Y0216575D03*
X0197933Y0216236D03*
X0197933Y0215898D03*
X0197933Y0215559D03*
X0197933Y0215220D03*
X0197933Y0214882D03*
X0197933Y0214543D03*
X0197933Y0214205D03*
X0197933Y0213866D03*
X0197933Y0213528D03*
X0197933Y0213189D03*
X0197933Y0212850D03*
X0197933Y0212512D03*
X0197933Y0212173D03*
X0218925Y0212173D03*
X0218925Y0211835D03*
X0218925Y0211496D03*
X0218925Y0211157D03*
X0218925Y0212512D03*
X0218925Y0212850D03*
X0218925Y0213189D03*
X0218925Y0213528D03*
X0218925Y0213866D03*
X0218925Y0214205D03*
X0218925Y0214543D03*
X0218925Y0214882D03*
X0218925Y0215220D03*
X0218925Y0215559D03*
X0218925Y0215898D03*
X0218925Y0216236D03*
X0218925Y0216575D03*
X0218925Y0216913D03*
X0218925Y0217252D03*
X0218925Y0217591D03*
X0218925Y0217929D03*
X0218925Y0218268D03*
X0218925Y0218606D03*
X0218925Y0218945D03*
X0218925Y0219283D03*
X0218925Y0219622D03*
X0218925Y0219961D03*
X0218925Y0220299D03*
X0218925Y0220638D03*
X0218925Y0220976D03*
X0226374Y0220976D03*
X0226374Y0220638D03*
X0226374Y0220299D03*
X0226374Y0219961D03*
X0226374Y0219622D03*
X0226374Y0216575D03*
X0226374Y0216236D03*
X0226374Y0215898D03*
X0226374Y0215559D03*
X0226374Y0215220D03*
X0226374Y0212512D03*
X0226374Y0212173D03*
X0226374Y0211835D03*
X0226374Y0211496D03*
X0226374Y0211157D03*
X0241610Y0204386D03*
X0241610Y0204047D03*
X0243980Y0206417D03*
X0243980Y0206756D03*
X0249059Y0207094D03*
X0249059Y0207433D03*
X0257185Y0212173D03*
X0257185Y0212512D03*
X0257185Y0212850D03*
X0257185Y0213189D03*
X0257185Y0213528D03*
X0257185Y0213866D03*
X0257185Y0214205D03*
X0257185Y0214543D03*
X0257185Y0214882D03*
X0257185Y0215220D03*
X0257185Y0215559D03*
X0257185Y0215898D03*
X0257185Y0216236D03*
X0257185Y0216575D03*
X0257185Y0216913D03*
X0257185Y0217252D03*
X0257185Y0217591D03*
X0257185Y0217929D03*
X0257185Y0218268D03*
X0257185Y0218606D03*
X0257185Y0218945D03*
X0257185Y0219283D03*
X0257185Y0219622D03*
X0257185Y0219961D03*
X0265650Y0219622D03*
X0265650Y0219283D03*
X0265650Y0218945D03*
X0265650Y0218606D03*
X0265650Y0218268D03*
X0265650Y0217929D03*
X0265650Y0217591D03*
X0265650Y0217252D03*
X0265650Y0216913D03*
X0265650Y0216575D03*
X0265650Y0216236D03*
X0265650Y0215898D03*
X0265650Y0215559D03*
X0265650Y0215220D03*
X0265650Y0214882D03*
X0265650Y0214543D03*
X0265311Y0209803D03*
X0265311Y0209465D03*
X0265311Y0209126D03*
X0265311Y0208787D03*
X0267343Y0208449D03*
X0267343Y0207772D03*
X0267343Y0207433D03*
X0273776Y0214543D03*
X0273776Y0214882D03*
X0273776Y0215220D03*
X0273776Y0215559D03*
X0273776Y0215898D03*
X0273776Y0216236D03*
X0273776Y0216575D03*
X0273776Y0216913D03*
X0273776Y0217252D03*
X0273776Y0217591D03*
X0273776Y0217929D03*
X0273776Y0218268D03*
X0273776Y0218606D03*
X0273776Y0218945D03*
X0273776Y0219283D03*
X0273776Y0219622D03*
X0231453Y0190165D03*
X0231453Y0189827D03*
X0231453Y0189488D03*
X0213846Y0171543D03*
X0213846Y0169850D03*
X0210122Y0172898D03*
X0206398Y0172559D03*
X0204366Y0170528D03*
X0199626Y0171543D03*
X0195224Y0170528D03*
X0194886Y0169850D03*
X0194886Y0171543D03*
X0194886Y0164433D03*
X0196917Y0164433D03*
X0186760Y0165110D03*
X0182020Y0165110D03*
X0177957Y0170189D03*
X0177957Y0170528D03*
X0176941Y0171543D03*
X0175925Y0170528D03*
X0175925Y0172559D03*
X0177957Y0172559D03*
X0176264Y0181362D03*
X0190146Y0180008D03*
X0192177Y0178654D03*
X0192177Y0178315D03*
X0168476Y0163079D03*
X0166445Y0163417D03*
X0166445Y0162063D03*
X0166445Y0161724D03*
X0161705Y0206756D03*
X0168815Y0212512D03*
X0162043Y0220976D03*
X0263618Y0276504D03*
X0263618Y0276843D03*
X0263618Y0277520D03*
X0263618Y0277858D03*
X0263618Y0308331D03*
X0263618Y0308669D03*
X0218587Y0359118D03*
X0217571Y0358441D03*
X0217232Y0358102D03*
X0218587Y0364197D03*
X0220957Y0366567D03*
X0220957Y0366906D03*
X0173555Y0358780D03*
X0173555Y0357087D03*
X0165091Y0356071D03*
X0045909Y0366567D03*
X0045909Y0366906D03*
X0043539Y0366906D03*
X0043539Y0366567D03*
X0039476Y0366906D03*
D15*
X0039476Y0366567D03*
X0039476Y0366228D03*
X0039476Y0365890D03*
X0039476Y0365551D03*
X0039476Y0365213D03*
X0039476Y0364874D03*
X0039476Y0364535D03*
X0039476Y0364197D03*
X0040831Y0357764D03*
X0042185Y0356748D03*
X0046248Y0363520D03*
X0046248Y0363858D03*
X0046248Y0364197D03*
X0046248Y0364535D03*
X0046248Y0364874D03*
X0046248Y0367244D03*
X0048957Y0366567D03*
X0051327Y0366567D03*
X0051327Y0366228D03*
X0051327Y0365890D03*
X0051327Y0365551D03*
X0051327Y0365213D03*
X0051327Y0364874D03*
X0051327Y0364535D03*
X0051327Y0364197D03*
X0053358Y0363858D03*
X0056406Y0363858D03*
X0056406Y0363520D03*
X0056406Y0364197D03*
X0056406Y0364535D03*
X0056406Y0364874D03*
X0056406Y0365890D03*
X0056406Y0366228D03*
X0056406Y0366567D03*
X0056406Y0366906D03*
X0056406Y0367244D03*
X0048957Y0364197D03*
X0053358Y0357764D03*
X0052004Y0356748D03*
X0057083Y0293772D03*
X0057083Y0292756D03*
X0056744Y0292417D03*
X0057760Y0291063D03*
X0057083Y0288354D03*
X0055390Y0287339D03*
X0055728Y0286661D03*
X0055051Y0288354D03*
X0058776Y0286323D03*
X0059453Y0284969D03*
X0059114Y0282937D03*
X0059453Y0282598D03*
X0062500Y0282598D03*
X0062839Y0282937D03*
X0062500Y0284969D03*
X0062839Y0285307D03*
X0063177Y0285984D03*
X0063177Y0286323D03*
X0062500Y0287677D03*
X0060807Y0289031D03*
X0064870Y0293772D03*
X0066224Y0286661D03*
X0065209Y0284291D03*
X0056744Y0284291D03*
X0078413Y0287000D03*
X0082815Y0293094D03*
X0089587Y0288693D03*
X0116335Y0289370D03*
X0143421Y0292756D03*
X0149854Y0292756D03*
X0164413Y0289370D03*
X0177618Y0289370D03*
X0192854Y0288693D03*
X0194547Y0287677D03*
X0193531Y0285984D03*
X0215878Y0219283D03*
X0215878Y0218945D03*
X0215878Y0218606D03*
X0215878Y0218268D03*
X0215878Y0217929D03*
X0215878Y0217591D03*
X0215878Y0217252D03*
X0215878Y0214882D03*
X0215878Y0214543D03*
X0215878Y0214205D03*
X0215878Y0213866D03*
X0215878Y0213528D03*
X0215878Y0213189D03*
X0215878Y0212850D03*
X0218925Y0207433D03*
X0218925Y0207094D03*
X0218925Y0206756D03*
X0218925Y0206417D03*
X0218925Y0206079D03*
X0218925Y0205740D03*
X0218925Y0205402D03*
X0218925Y0205063D03*
X0218925Y0204724D03*
X0218925Y0204386D03*
X0218925Y0204047D03*
X0210122Y0204047D03*
X0210122Y0206417D03*
X0210122Y0206756D03*
X0208429Y0218606D03*
X0199965Y0206417D03*
X0199965Y0206079D03*
X0199965Y0204724D03*
X0199965Y0204386D03*
X0199965Y0204047D03*
X0193531Y0204047D03*
X0193531Y0204386D03*
X0193531Y0204724D03*
X0193531Y0205063D03*
X0193531Y0205402D03*
X0193531Y0205740D03*
X0193531Y0206079D03*
X0193531Y0206417D03*
X0193531Y0206756D03*
X0191161Y0206756D03*
X0191161Y0206417D03*
X0190484Y0206079D03*
X0190484Y0205740D03*
X0190484Y0205402D03*
X0190484Y0205063D03*
X0190484Y0204724D03*
X0191161Y0204047D03*
X0185406Y0204047D03*
X0185406Y0204386D03*
X0185406Y0204724D03*
X0185406Y0205063D03*
X0185406Y0205402D03*
X0185406Y0205740D03*
X0185406Y0206079D03*
X0185406Y0206417D03*
X0185406Y0206756D03*
X0176941Y0214205D03*
X0168138Y0206756D03*
X0162043Y0212173D03*
X0166106Y0181362D03*
X0166106Y0181024D03*
X0166106Y0180685D03*
X0166106Y0180346D03*
X0166106Y0180008D03*
X0166106Y0179331D03*
X0166106Y0178992D03*
X0166106Y0178654D03*
X0166106Y0178315D03*
X0166106Y0177976D03*
X0168815Y0178992D03*
X0168815Y0180008D03*
X0168815Y0180685D03*
X0168815Y0181024D03*
X0171862Y0181362D03*
X0171862Y0180685D03*
X0171862Y0180346D03*
X0171862Y0180008D03*
X0171862Y0179669D03*
X0171862Y0179331D03*
X0171862Y0178992D03*
X0171862Y0178654D03*
X0171862Y0178315D03*
X0171862Y0177976D03*
X0173217Y0173236D03*
X0173555Y0172559D03*
X0173555Y0172220D03*
X0173555Y0171882D03*
X0173555Y0170866D03*
X0173555Y0170528D03*
X0175587Y0169850D03*
X0178295Y0169850D03*
X0178295Y0172898D03*
X0175587Y0172898D03*
X0175587Y0173236D03*
X0181343Y0172559D03*
X0181343Y0172220D03*
X0181343Y0171882D03*
X0181343Y0171543D03*
X0181343Y0171205D03*
X0181343Y0170866D03*
X0181343Y0170528D03*
X0185067Y0171543D03*
X0185067Y0171882D03*
X0185067Y0172220D03*
X0185067Y0172559D03*
X0187776Y0172559D03*
X0187776Y0172220D03*
X0187776Y0171882D03*
X0187776Y0171543D03*
X0187437Y0170528D03*
X0187776Y0170189D03*
X0189807Y0171882D03*
X0189807Y0172220D03*
X0189807Y0172559D03*
X0189807Y0172898D03*
X0189807Y0173236D03*
X0191839Y0173236D03*
X0191839Y0172898D03*
X0191839Y0172559D03*
X0191839Y0172220D03*
X0191839Y0171882D03*
X0190823Y0170866D03*
X0190823Y0170528D03*
X0190823Y0170189D03*
X0190823Y0169850D03*
X0189807Y0164433D03*
X0189807Y0164094D03*
X0189807Y0163756D03*
X0189807Y0163417D03*
X0189807Y0163079D03*
X0189807Y0162740D03*
X0189807Y0162402D03*
X0187776Y0162402D03*
X0187776Y0162740D03*
X0187776Y0163079D03*
X0187776Y0163417D03*
X0187776Y0163756D03*
X0187776Y0164094D03*
X0187776Y0164433D03*
X0185067Y0164433D03*
X0185067Y0164094D03*
X0185067Y0163756D03*
X0185067Y0163417D03*
X0185067Y0163079D03*
X0185067Y0162740D03*
X0185067Y0162402D03*
X0183035Y0162402D03*
X0183035Y0163756D03*
X0183035Y0164094D03*
X0183035Y0164433D03*
X0181004Y0164433D03*
X0180665Y0163079D03*
X0180327Y0162740D03*
X0180327Y0162402D03*
X0178295Y0162402D03*
X0178295Y0163756D03*
X0178295Y0164094D03*
X0177957Y0165110D03*
X0176602Y0165110D03*
X0173555Y0164433D03*
X0173555Y0164094D03*
X0173555Y0163756D03*
X0173555Y0163417D03*
X0173555Y0162063D03*
X0173555Y0161724D03*
X0170846Y0163417D03*
X0170846Y0163756D03*
X0170846Y0164094D03*
X0170846Y0164433D03*
X0168815Y0164433D03*
X0168815Y0164094D03*
X0168815Y0163756D03*
X0168815Y0163417D03*
X0168815Y0162063D03*
X0166106Y0163756D03*
X0166106Y0164094D03*
X0166106Y0164433D03*
X0168815Y0170866D03*
X0168815Y0171205D03*
X0168815Y0171543D03*
X0168815Y0171882D03*
X0168815Y0172220D03*
X0168815Y0172559D03*
X0168815Y0172898D03*
X0178295Y0178654D03*
X0178295Y0180008D03*
X0178295Y0180346D03*
X0177957Y0181362D03*
X0183035Y0180685D03*
X0183035Y0180346D03*
X0183035Y0180008D03*
X0183035Y0178992D03*
X0186083Y0178992D03*
X0186083Y0178654D03*
X0186083Y0178315D03*
X0186083Y0177976D03*
X0186083Y0179331D03*
X0186083Y0179669D03*
X0186083Y0180008D03*
X0186083Y0180346D03*
X0186083Y0180685D03*
X0186083Y0181362D03*
X0189807Y0180685D03*
X0192516Y0180685D03*
X0194886Y0181362D03*
X0195563Y0180346D03*
X0195563Y0180008D03*
X0194547Y0178992D03*
X0194547Y0178654D03*
X0197256Y0178654D03*
X0196917Y0173236D03*
X0197256Y0172220D03*
X0197256Y0171882D03*
X0197256Y0170528D03*
X0197256Y0170189D03*
X0197256Y0169850D03*
X0199287Y0170528D03*
X0199287Y0170866D03*
X0201319Y0170528D03*
X0201996Y0170866D03*
X0201996Y0171205D03*
X0201996Y0171543D03*
X0201996Y0171882D03*
X0201657Y0172220D03*
X0201319Y0172559D03*
X0204028Y0172559D03*
X0204028Y0172220D03*
X0204028Y0171882D03*
X0204028Y0172898D03*
X0204028Y0173236D03*
X0206736Y0172898D03*
X0206736Y0170866D03*
X0208768Y0170528D03*
X0208768Y0170189D03*
X0208768Y0169850D03*
X0208768Y0171543D03*
X0208768Y0171882D03*
X0209106Y0172220D03*
X0209445Y0172559D03*
X0210799Y0172559D03*
X0211138Y0172220D03*
X0211476Y0171882D03*
X0211476Y0171543D03*
X0211476Y0170189D03*
X0213508Y0171882D03*
X0213508Y0172220D03*
X0213508Y0172559D03*
X0214524Y0171205D03*
X0216217Y0171882D03*
X0216217Y0172220D03*
X0215878Y0173236D03*
X0216217Y0170528D03*
X0216217Y0170189D03*
X0216217Y0169850D03*
X0220957Y0170866D03*
X0220957Y0171882D03*
X0220957Y0172220D03*
X0220957Y0172559D03*
X0222988Y0172559D03*
X0222988Y0172220D03*
X0222988Y0171882D03*
X0222988Y0171543D03*
X0225358Y0170528D03*
X0225697Y0170189D03*
X0225697Y0169850D03*
X0225697Y0171543D03*
X0225697Y0171882D03*
X0225697Y0172220D03*
X0225697Y0172559D03*
X0227728Y0172559D03*
X0227728Y0172220D03*
X0227728Y0171882D03*
X0227728Y0171543D03*
X0227728Y0171205D03*
X0227728Y0170866D03*
X0227728Y0170528D03*
X0227728Y0172898D03*
X0227728Y0173236D03*
X0230437Y0172559D03*
X0230437Y0172220D03*
X0230437Y0171882D03*
X0230437Y0171543D03*
X0230437Y0171205D03*
X0230437Y0170866D03*
X0232469Y0170866D03*
X0232469Y0170528D03*
X0233146Y0172559D03*
X0235177Y0172559D03*
X0235177Y0172220D03*
X0235177Y0171882D03*
X0235177Y0170528D03*
X0231791Y0189150D03*
X0241272Y0203370D03*
X0241272Y0203709D03*
X0241272Y0205740D03*
X0241272Y0206079D03*
X0241272Y0206417D03*
X0241272Y0206756D03*
X0241272Y0207094D03*
X0241272Y0207433D03*
X0244319Y0207433D03*
X0244319Y0207094D03*
X0244319Y0204724D03*
X0244319Y0204386D03*
X0244319Y0204047D03*
X0244319Y0203709D03*
X0244319Y0203370D03*
X0237886Y0204047D03*
X0237886Y0204386D03*
X0237886Y0204724D03*
X0237886Y0205063D03*
X0237886Y0205402D03*
X0237886Y0205740D03*
X0237886Y0206079D03*
X0237886Y0206417D03*
X0237886Y0206756D03*
X0235516Y0206756D03*
X0235516Y0206417D03*
X0234839Y0206079D03*
X0234839Y0205740D03*
X0234839Y0205402D03*
X0234839Y0205063D03*
X0234839Y0204724D03*
X0235516Y0204047D03*
X0236870Y0211157D03*
X0236870Y0211496D03*
X0236870Y0211835D03*
X0236870Y0212173D03*
X0236870Y0212512D03*
X0236870Y0212850D03*
X0236870Y0213189D03*
X0236870Y0213528D03*
X0236870Y0213866D03*
X0236870Y0214205D03*
X0236870Y0214543D03*
X0236870Y0214882D03*
X0236870Y0215220D03*
X0236870Y0215559D03*
X0236870Y0215898D03*
X0236870Y0216236D03*
X0236870Y0216575D03*
X0236870Y0216913D03*
X0236870Y0217252D03*
X0236870Y0217591D03*
X0236870Y0217929D03*
X0236870Y0218268D03*
X0236870Y0218606D03*
X0236870Y0218945D03*
X0236870Y0219283D03*
X0237547Y0220976D03*
X0239240Y0211157D03*
X0231453Y0207433D03*
X0228406Y0207433D03*
X0253799Y0207433D03*
X0256846Y0207433D03*
X0265311Y0208449D03*
X0265311Y0210142D03*
X0269035Y0206417D03*
X0271067Y0206417D03*
X0273098Y0208110D03*
X0273098Y0208449D03*
X0273098Y0210142D03*
X0273098Y0210480D03*
X0264972Y0203370D03*
X0204028Y0169850D03*
X0197256Y0164772D03*
X0197256Y0162740D03*
X0197256Y0162402D03*
X0197256Y0162063D03*
X0197256Y0161724D03*
X0194547Y0161724D03*
X0194547Y0162063D03*
X0194547Y0162402D03*
X0194547Y0162740D03*
X0192516Y0162740D03*
X0192516Y0163079D03*
X0192516Y0163417D03*
X0192516Y0163756D03*
X0192516Y0164094D03*
X0192516Y0164433D03*
X0194547Y0164772D03*
X0194547Y0165110D03*
X0195563Y0171205D03*
X0194547Y0171882D03*
X0194547Y0172220D03*
X0194547Y0172559D03*
X0263280Y0287339D03*
X0262602Y0288693D03*
X0264972Y0304945D03*
X0218925Y0356409D03*
X0219264Y0356748D03*
X0219264Y0357087D03*
X0219264Y0357425D03*
X0219264Y0358102D03*
X0219264Y0358441D03*
X0214862Y0359118D03*
X0214524Y0358780D03*
X0214524Y0358441D03*
X0214524Y0358102D03*
X0214524Y0357425D03*
X0214524Y0357087D03*
X0216217Y0364197D03*
X0216217Y0364535D03*
X0216217Y0364874D03*
X0216217Y0365213D03*
X0216217Y0365551D03*
X0216217Y0365890D03*
X0216217Y0366228D03*
X0216217Y0366567D03*
X0218248Y0367244D03*
X0218248Y0365890D03*
X0221295Y0364874D03*
X0221295Y0364535D03*
X0221295Y0364197D03*
X0221295Y0363858D03*
X0221295Y0363520D03*
X0221295Y0367244D03*
X0173894Y0367244D03*
X0173894Y0366906D03*
X0173894Y0366567D03*
X0173894Y0366228D03*
X0173894Y0365890D03*
X0173894Y0365551D03*
X0173894Y0365213D03*
X0173894Y0364874D03*
X0173894Y0364535D03*
X0173894Y0364197D03*
X0170846Y0366906D03*
X0168815Y0366567D03*
X0168815Y0366228D03*
X0168815Y0365890D03*
X0168815Y0364535D03*
X0168815Y0364197D03*
X0165768Y0364874D03*
X0166445Y0366567D03*
X0163736Y0366567D03*
X0163736Y0366228D03*
X0163736Y0365890D03*
X0163736Y0364874D03*
X0163736Y0364535D03*
X0163736Y0364197D03*
X0166783Y0360472D03*
X0167461Y0356071D03*
X0082476Y0192535D03*
X0082476Y0190843D03*
X0075028Y0190843D03*
X0075028Y0191181D03*
X0075028Y0191520D03*
X0075028Y0191858D03*
X0075028Y0190504D03*
X0074689Y0190165D03*
X0072319Y0190165D03*
X0072657Y0192197D03*
X0069949Y0192197D03*
X0069949Y0190165D03*
X0069949Y0189827D03*
X0066902Y0189827D03*
X0066902Y0190165D03*
X0066902Y0190504D03*
X0066902Y0190843D03*
X0066902Y0191181D03*
X0064870Y0191520D03*
X0064193Y0192197D03*
X0064870Y0190504D03*
X0064870Y0190165D03*
X0061823Y0190165D03*
X0061823Y0189827D03*
X0061823Y0190504D03*
X0046587Y0192535D03*
X0044217Y0192197D03*
X0044217Y0191858D03*
X0044217Y0191520D03*
X0044217Y0191181D03*
X0044217Y0190843D03*
X0044217Y0190504D03*
X0044217Y0190165D03*
X0044217Y0189827D03*
X0041846Y0189827D03*
X0041846Y0192197D03*
X0039138Y0192197D03*
X0039138Y0192535D03*
X0039138Y0192874D03*
X0039138Y0191858D03*
X0039138Y0191520D03*
X0039138Y0191181D03*
X0039138Y0190843D03*
X0039138Y0190504D03*
X0039138Y0190165D03*
X0039138Y0189827D03*
X0036091Y0189827D03*
X0036091Y0190165D03*
X0036091Y0190504D03*
X0036091Y0190843D03*
X0036091Y0191181D03*
X0036091Y0191520D03*
X0036091Y0191858D03*
X0036091Y0192197D03*
X0036091Y0192535D03*
X0036091Y0192874D03*
X0034059Y0192874D03*
X0034059Y0192535D03*
X0034059Y0192197D03*
X0034059Y0191858D03*
X0034059Y0191520D03*
X0034059Y0191181D03*
X0034059Y0190843D03*
X0034059Y0190504D03*
D16*
X0027626Y0190843D03*
X0027626Y0191181D03*
X0063516Y0190843D03*
X0084169Y0190504D03*
X0084169Y0192874D03*
X0092634Y0290386D03*
X0085524Y0290724D03*
X0064193Y0297496D03*
X0057760Y0297496D03*
X0058098Y0287677D03*
X0039476Y0363520D03*
X0039476Y0367244D03*
X0161705Y0220638D03*
X0163736Y0218606D03*
X0168476Y0213528D03*
X0168815Y0213866D03*
X0178972Y0207094D03*
X0185406Y0207094D03*
X0185406Y0207433D03*
X0185406Y0203709D03*
X0185406Y0203370D03*
X0191161Y0218268D03*
X0198610Y0205402D03*
X0212154Y0216913D03*
X0224004Y0205402D03*
X0219602Y0172898D03*
X0210122Y0170866D03*
X0205382Y0171205D03*
X0205382Y0171543D03*
X0195902Y0164094D03*
X0195902Y0163756D03*
X0195902Y0163417D03*
X0195902Y0163079D03*
X0191161Y0177976D03*
X0181681Y0181024D03*
X0176941Y0181024D03*
X0176941Y0178315D03*
X0176941Y0177976D03*
X0172201Y0172898D03*
X0172201Y0170189D03*
X0167461Y0170189D03*
X0167461Y0179669D03*
X0176941Y0164772D03*
X0176941Y0162063D03*
X0176941Y0161724D03*
X0216894Y0355394D03*
X0216894Y0360134D03*
D17*
X0216894Y0360472D03*
X0218587Y0358780D03*
X0215201Y0356748D03*
X0216894Y0355055D03*
X0218925Y0364874D03*
X0220618Y0365890D03*
X0220618Y0366228D03*
X0167799Y0367244D03*
X0172201Y0292417D03*
X0172201Y0292079D03*
X0176941Y0287677D03*
X0177618Y0288016D03*
X0177618Y0288354D03*
X0198272Y0286661D03*
X0198272Y0286323D03*
X0149177Y0287677D03*
X0140374Y0288016D03*
X0140374Y0288354D03*
X0139697Y0287677D03*
X0133602Y0287677D03*
X0133264Y0287339D03*
X0133264Y0287000D03*
X0133264Y0289709D03*
X0133264Y0290047D03*
X0093311Y0290724D03*
X0088909Y0290724D03*
X0088909Y0291063D03*
X0085862Y0289709D03*
X0085862Y0289370D03*
X0085862Y0289031D03*
X0085862Y0288693D03*
X0085524Y0288016D03*
X0085524Y0287677D03*
X0085524Y0287339D03*
X0080106Y0289370D03*
X0080106Y0289709D03*
X0080106Y0290047D03*
X0080106Y0290386D03*
X0080106Y0290724D03*
X0076043Y0289370D03*
X0076043Y0289031D03*
X0075705Y0290047D03*
X0075705Y0290386D03*
X0078413Y0192535D03*
X0078413Y0192197D03*
X0063177Y0192874D03*
X0159335Y0204724D03*
X0161366Y0206079D03*
X0159673Y0214882D03*
X0159673Y0215220D03*
X0159335Y0215898D03*
X0159335Y0216236D03*
X0158996Y0216913D03*
X0158996Y0217252D03*
X0158996Y0217591D03*
X0159335Y0218268D03*
X0164075Y0217591D03*
X0164075Y0216236D03*
X0164075Y0215898D03*
X0164075Y0215559D03*
X0164075Y0215220D03*
X0164075Y0214882D03*
X0168476Y0212850D03*
X0172878Y0212850D03*
X0172878Y0212512D03*
X0172878Y0213189D03*
X0172878Y0213528D03*
X0172878Y0213866D03*
X0172878Y0214205D03*
X0172878Y0214543D03*
X0172878Y0214882D03*
X0170508Y0220976D03*
X0185744Y0215220D03*
X0191161Y0212173D03*
X0198272Y0211835D03*
X0198272Y0211496D03*
X0198272Y0211157D03*
X0191161Y0181024D03*
X0191161Y0164772D03*
X0191161Y0161724D03*
X0186421Y0161724D03*
X0186421Y0164772D03*
X0181681Y0163417D03*
X0181681Y0161724D03*
X0176941Y0170866D03*
X0176941Y0171205D03*
X0176941Y0171882D03*
X0206059Y0171882D03*
X0228067Y0187795D03*
X0228067Y0190165D03*
X0228067Y0190504D03*
X0233823Y0171543D03*
X0229083Y0169850D03*
X0241949Y0204724D03*
X0243642Y0205740D03*
X0243642Y0206079D03*
X0256846Y0211157D03*
X0256846Y0211496D03*
X0256846Y0211835D03*
X0256846Y0220299D03*
X0256846Y0220638D03*
X0256846Y0220976D03*
X0263957Y0279213D03*
X0263280Y0287677D03*
X0263280Y0288016D03*
X0264972Y0288354D03*
X0264972Y0288693D03*
D18*
X0264295Y0301220D03*
X0264295Y0304606D03*
X0264295Y0332709D03*
X0264295Y0336094D03*
X0214862Y0363520D03*
X0214862Y0363858D03*
X0214862Y0367244D03*
X0172539Y0363858D03*
X0172539Y0363520D03*
X0167461Y0363858D03*
X0167461Y0365551D03*
X0167799Y0360134D03*
X0166445Y0292756D03*
X0146130Y0287677D03*
X0128524Y0289370D03*
X0097374Y0290724D03*
X0092972Y0291740D03*
X0091280Y0292756D03*
X0093311Y0288693D03*
X0092972Y0288354D03*
X0086201Y0292079D03*
X0076043Y0290724D03*
X0063516Y0293094D03*
X0058437Y0293094D03*
X0058437Y0283953D03*
X0050311Y0363858D03*
X0159673Y0218606D03*
X0161705Y0212512D03*
X0163736Y0218268D03*
X0168138Y0218606D03*
X0168815Y0216913D03*
X0169831Y0214882D03*
X0169492Y0214543D03*
X0173217Y0218606D03*
X0173217Y0218945D03*
X0177280Y0218606D03*
X0181681Y0217929D03*
X0181681Y0217591D03*
X0181681Y0217252D03*
X0181681Y0214205D03*
X0177618Y0212173D03*
X0187098Y0217929D03*
X0187437Y0217591D03*
X0187776Y0217252D03*
X0188114Y0216913D03*
X0188453Y0216575D03*
X0192516Y0207094D03*
X0192516Y0203709D03*
X0192516Y0203370D03*
X0195563Y0181024D03*
X0196240Y0172898D03*
X0200303Y0170189D03*
X0186760Y0170866D03*
X0186421Y0171205D03*
X0186760Y0172898D03*
X0181343Y0172898D03*
X0181343Y0170189D03*
X0181343Y0169850D03*
X0177280Y0163417D03*
X0181681Y0162063D03*
X0172539Y0162740D03*
X0172539Y0164772D03*
X0167799Y0164772D03*
X0172539Y0171543D03*
X0177280Y0179669D03*
X0182020Y0179669D03*
X0186083Y0181024D03*
X0171862Y0181024D03*
X0166783Y0203370D03*
X0166783Y0203709D03*
X0166783Y0207094D03*
X0211815Y0207094D03*
X0211815Y0203370D03*
X0230776Y0188811D03*
X0230776Y0188472D03*
X0230776Y0187457D03*
X0224681Y0172898D03*
X0224681Y0170866D03*
X0219941Y0171543D03*
X0215201Y0172898D03*
X0233823Y0170189D03*
X0236870Y0203370D03*
X0236870Y0203709D03*
X0236870Y0207094D03*
X0273098Y0209126D03*
X0273098Y0209465D03*
X0264634Y0268039D03*
X0264295Y0270409D03*
X0264295Y0273795D03*
X0063177Y0189488D03*
X0047941Y0189488D03*
X0047941Y0189150D03*
X0047941Y0192874D03*
X0043201Y0189488D03*
X0037783Y0189488D03*
D19*
X0063685Y0191181D03*
X0068425Y0189488D03*
X0068764Y0191520D03*
X0068764Y0191858D03*
X0068764Y0192874D03*
X0088740Y0192874D03*
X0063346Y0283953D03*
X0064024Y0287339D03*
X0060976Y0293772D03*
X0060976Y0294787D03*
X0057929Y0287339D03*
X0077906Y0287339D03*
X0077906Y0292756D03*
X0085693Y0290386D03*
X0089417Y0291740D03*
X0128354Y0290047D03*
X0128354Y0289709D03*
X0140882Y0292756D03*
X0153748Y0292756D03*
X0166614Y0292417D03*
X0166614Y0292079D03*
X0165937Y0355732D03*
X0162551Y0363520D03*
X0162551Y0363858D03*
X0162551Y0365213D03*
X0162551Y0365551D03*
X0162551Y0367244D03*
X0204535Y0219961D03*
X0204535Y0219622D03*
X0204535Y0219283D03*
X0204535Y0218945D03*
X0204535Y0218606D03*
X0204535Y0218268D03*
X0204535Y0217929D03*
X0204535Y0217591D03*
X0204535Y0217252D03*
X0204535Y0216913D03*
X0204535Y0216575D03*
X0204535Y0216236D03*
X0204535Y0214205D03*
X0204535Y0213866D03*
X0204535Y0213528D03*
X0204535Y0213189D03*
X0204535Y0212850D03*
X0204535Y0212512D03*
X0204535Y0212173D03*
X0198780Y0205063D03*
X0186252Y0214882D03*
X0186929Y0218268D03*
X0181512Y0218268D03*
X0181512Y0218606D03*
X0181850Y0215220D03*
X0181850Y0214882D03*
X0181850Y0214543D03*
X0179142Y0207433D03*
X0172709Y0207433D03*
X0172709Y0207094D03*
X0172709Y0203709D03*
X0172709Y0203370D03*
X0168307Y0213189D03*
X0168984Y0214205D03*
X0181512Y0177976D03*
X0172031Y0169850D03*
X0172370Y0163079D03*
X0167291Y0169850D03*
X0186252Y0162063D03*
X0190992Y0162063D03*
X0209953Y0171205D03*
X0219433Y0169850D03*
X0224512Y0171205D03*
X0228913Y0170189D03*
X0234331Y0186780D03*
X0234331Y0187118D03*
X0234331Y0188811D03*
X0234331Y0189150D03*
X0234331Y0190165D03*
X0234331Y0190504D03*
X0224173Y0205063D03*
X0232976Y0211157D03*
X0232976Y0211496D03*
X0232976Y0211835D03*
X0232976Y0212173D03*
X0232976Y0212512D03*
X0232976Y0212850D03*
X0232976Y0213189D03*
X0232976Y0213528D03*
X0232976Y0213866D03*
X0232976Y0214205D03*
X0232976Y0214543D03*
X0232976Y0214882D03*
X0232976Y0215220D03*
X0232976Y0215559D03*
X0232976Y0215898D03*
X0232976Y0216236D03*
X0232976Y0216575D03*
X0232976Y0216913D03*
X0232976Y0217252D03*
X0232976Y0217591D03*
X0232976Y0217929D03*
X0232976Y0218268D03*
X0232976Y0218606D03*
X0232976Y0218945D03*
X0232976Y0219283D03*
X0232976Y0219622D03*
X0232976Y0219961D03*
X0243134Y0219961D03*
X0243134Y0219622D03*
X0243134Y0219283D03*
X0243134Y0218945D03*
X0243134Y0218606D03*
X0243134Y0218268D03*
X0243134Y0217929D03*
X0243134Y0217591D03*
X0243134Y0217252D03*
X0243134Y0216913D03*
X0243134Y0216575D03*
X0243134Y0216236D03*
X0243134Y0215898D03*
X0243134Y0215559D03*
X0243134Y0215220D03*
X0243134Y0214882D03*
X0243134Y0214543D03*
X0243134Y0214205D03*
X0243134Y0213866D03*
X0243134Y0213528D03*
X0243134Y0213189D03*
X0243134Y0212850D03*
X0243134Y0212512D03*
X0243134Y0212173D03*
X0243134Y0211835D03*
X0243134Y0211496D03*
X0243134Y0211157D03*
X0250583Y0211157D03*
X0250583Y0211496D03*
X0250583Y0211835D03*
X0250583Y0212173D03*
X0250583Y0212512D03*
X0250583Y0212850D03*
X0250583Y0213189D03*
X0250583Y0213528D03*
X0250583Y0213866D03*
X0250583Y0214205D03*
X0250583Y0214543D03*
X0250583Y0214882D03*
X0250583Y0215220D03*
X0250583Y0215559D03*
X0250583Y0215898D03*
X0250583Y0216236D03*
X0250583Y0216575D03*
X0250583Y0217929D03*
X0250583Y0218268D03*
X0250583Y0218606D03*
X0250583Y0218945D03*
X0250583Y0219283D03*
X0250583Y0219622D03*
X0250583Y0219961D03*
X0250583Y0190504D03*
X0250583Y0190165D03*
X0250583Y0187795D03*
X0250583Y0187457D03*
X0274283Y0188134D03*
X0274283Y0188472D03*
X0274283Y0188811D03*
X0274283Y0189150D03*
X0274283Y0189488D03*
X0274283Y0189827D03*
X0211646Y0203709D03*
X0211984Y0212173D03*
X0211984Y0212512D03*
X0211984Y0212850D03*
X0211984Y0213189D03*
X0211984Y0213528D03*
X0211984Y0213866D03*
X0211984Y0214205D03*
X0211984Y0214543D03*
X0211984Y0214882D03*
X0211984Y0215220D03*
X0211984Y0215559D03*
X0211984Y0215898D03*
X0211984Y0217252D03*
X0211984Y0217591D03*
X0211984Y0217929D03*
X0211984Y0218268D03*
X0211984Y0218606D03*
X0211984Y0218945D03*
X0211984Y0219283D03*
X0211984Y0219622D03*
X0211984Y0219961D03*
X0039307Y0363858D03*
D20*
X0043370Y0363858D03*
X0043370Y0363520D03*
X0043370Y0364197D03*
X0043370Y0364535D03*
X0043370Y0364874D03*
X0043370Y0367244D03*
X0048449Y0366228D03*
X0048449Y0365890D03*
X0048449Y0365551D03*
X0048449Y0365213D03*
X0048449Y0364874D03*
X0048787Y0364535D03*
X0049126Y0366906D03*
X0051157Y0366906D03*
X0053528Y0366906D03*
X0053528Y0367244D03*
X0053528Y0366567D03*
X0053528Y0366228D03*
X0053528Y0365890D03*
X0053528Y0364874D03*
X0053528Y0364535D03*
X0053528Y0364197D03*
X0053528Y0363520D03*
X0052850Y0357425D03*
X0052512Y0357087D03*
X0041677Y0357087D03*
X0041339Y0357425D03*
X0057929Y0297835D03*
X0059622Y0297157D03*
X0060976Y0296142D03*
X0062331Y0297157D03*
X0064024Y0297835D03*
X0063008Y0292079D03*
X0064362Y0291063D03*
X0065039Y0288016D03*
X0066055Y0287000D03*
X0063346Y0283276D03*
X0060976Y0281921D03*
X0058606Y0283276D03*
X0058606Y0286661D03*
X0057252Y0288016D03*
X0055898Y0287000D03*
X0058945Y0291740D03*
X0060976Y0290724D03*
X0060976Y0288693D03*
X0086031Y0287000D03*
X0089756Y0288354D03*
X0091110Y0293094D03*
X0099575Y0287000D03*
X0130047Y0292756D03*
X0134110Y0289370D03*
X0164921Y0355394D03*
X0164921Y0356409D03*
X0166953Y0359795D03*
X0165937Y0364197D03*
X0165937Y0364535D03*
X0166614Y0366906D03*
X0168646Y0366906D03*
X0171016Y0367244D03*
X0171016Y0366567D03*
X0171016Y0366228D03*
X0171016Y0365890D03*
X0171016Y0365551D03*
X0171016Y0365213D03*
X0171016Y0364874D03*
X0171016Y0364535D03*
X0171016Y0364197D03*
X0163567Y0366906D03*
X0160858Y0366906D03*
X0160858Y0366567D03*
X0160858Y0366228D03*
X0160858Y0365890D03*
X0160858Y0364874D03*
X0160858Y0364535D03*
X0160858Y0364197D03*
X0213339Y0364197D03*
X0213339Y0364535D03*
X0213339Y0364874D03*
X0213339Y0365213D03*
X0213339Y0365551D03*
X0213339Y0365890D03*
X0213339Y0366228D03*
X0213339Y0366567D03*
X0213339Y0366906D03*
X0215709Y0366906D03*
X0218417Y0366906D03*
X0218417Y0366567D03*
X0218417Y0366228D03*
X0218417Y0363858D03*
X0218417Y0363520D03*
X0218756Y0359457D03*
X0216724Y0357764D03*
X0216386Y0357425D03*
X0216047Y0357087D03*
X0215031Y0356409D03*
X0215031Y0356071D03*
X0215031Y0359457D03*
X0218756Y0356071D03*
X0198780Y0294787D03*
X0198780Y0294449D03*
X0198780Y0294110D03*
X0198780Y0293772D03*
X0198780Y0293433D03*
X0198780Y0293094D03*
X0198780Y0292756D03*
X0198780Y0292417D03*
X0198780Y0292079D03*
X0198780Y0291740D03*
X0198780Y0291402D03*
X0198780Y0291063D03*
X0198780Y0290724D03*
X0198102Y0285984D03*
X0194717Y0286661D03*
X0193701Y0284969D03*
X0192008Y0285984D03*
X0192008Y0286323D03*
X0192008Y0286661D03*
X0192008Y0287000D03*
X0193024Y0287677D03*
X0193024Y0288354D03*
X0192346Y0290724D03*
X0192346Y0291063D03*
X0192346Y0291402D03*
X0192346Y0291740D03*
X0192346Y0292079D03*
X0192346Y0292417D03*
X0192346Y0292756D03*
X0192346Y0293094D03*
X0192346Y0293433D03*
X0192346Y0293772D03*
X0192346Y0294110D03*
X0192346Y0294449D03*
X0192346Y0294787D03*
X0176772Y0218268D03*
X0185236Y0215559D03*
X0179142Y0206756D03*
X0179142Y0206417D03*
X0179142Y0206079D03*
X0179142Y0205740D03*
X0179142Y0205402D03*
X0179142Y0205063D03*
X0179142Y0204724D03*
X0179142Y0204386D03*
X0179142Y0204047D03*
X0179142Y0203709D03*
X0179142Y0203370D03*
X0172709Y0204047D03*
X0172709Y0204386D03*
X0172709Y0204724D03*
X0172709Y0205063D03*
X0172709Y0205402D03*
X0172709Y0205740D03*
X0172709Y0206079D03*
X0172709Y0206417D03*
X0172709Y0206756D03*
X0168307Y0206417D03*
X0168307Y0206079D03*
X0168307Y0205740D03*
X0168307Y0205402D03*
X0168307Y0205063D03*
X0168307Y0204724D03*
X0168307Y0204386D03*
X0168307Y0204047D03*
X0165260Y0204047D03*
X0165260Y0204386D03*
X0165260Y0204724D03*
X0165260Y0205063D03*
X0165260Y0205402D03*
X0165260Y0205740D03*
X0165260Y0206079D03*
X0165260Y0206417D03*
X0165260Y0206756D03*
X0161874Y0207094D03*
X0161874Y0204724D03*
X0161874Y0204386D03*
X0161874Y0204047D03*
X0161874Y0203709D03*
X0161874Y0203370D03*
X0158827Y0203370D03*
X0158827Y0203709D03*
X0158827Y0205740D03*
X0158827Y0206079D03*
X0158827Y0206417D03*
X0158827Y0206756D03*
X0158827Y0207094D03*
X0168646Y0180346D03*
X0168646Y0179331D03*
X0168646Y0178315D03*
X0173386Y0171205D03*
X0175756Y0170189D03*
X0173047Y0165110D03*
X0178126Y0164433D03*
X0178126Y0163079D03*
X0178126Y0162740D03*
X0166953Y0162402D03*
X0178126Y0178992D03*
X0178126Y0179331D03*
X0178126Y0180685D03*
X0180496Y0178315D03*
X0182866Y0179331D03*
X0182528Y0181362D03*
X0189976Y0180346D03*
X0189976Y0178315D03*
X0194717Y0179331D03*
X0195394Y0173236D03*
X0197087Y0172559D03*
X0197087Y0171205D03*
X0195055Y0170189D03*
X0199457Y0171205D03*
X0204197Y0170189D03*
X0206567Y0170189D03*
X0214016Y0170189D03*
X0214354Y0170528D03*
X0216047Y0171205D03*
X0216047Y0172559D03*
X0214354Y0173236D03*
X0218417Y0170189D03*
X0220787Y0171205D03*
X0220449Y0173236D03*
X0230268Y0172898D03*
X0230268Y0170528D03*
X0232638Y0171205D03*
X0228236Y0186780D03*
X0227559Y0188811D03*
X0227559Y0189150D03*
X0227559Y0189488D03*
X0227559Y0189827D03*
X0229252Y0189827D03*
X0229252Y0189488D03*
X0229252Y0189150D03*
X0238055Y0190165D03*
X0238055Y0190504D03*
X0240087Y0190843D03*
X0240087Y0191181D03*
X0245504Y0191181D03*
X0245504Y0190843D03*
X0254307Y0190504D03*
X0254307Y0190165D03*
X0254307Y0187795D03*
X0254307Y0187457D03*
X0257016Y0188811D03*
X0257016Y0189150D03*
X0262433Y0187795D03*
X0262433Y0187457D03*
X0265142Y0187118D03*
X0265142Y0186780D03*
X0265142Y0188811D03*
X0265142Y0189150D03*
X0267850Y0190843D03*
X0267850Y0191181D03*
X0269882Y0190504D03*
X0269882Y0190165D03*
X0269882Y0187795D03*
X0269882Y0187457D03*
X0267850Y0187118D03*
X0267850Y0186780D03*
X0262433Y0190843D03*
X0262433Y0191181D03*
X0257016Y0203370D03*
X0257016Y0203709D03*
X0257016Y0204047D03*
X0257016Y0204386D03*
X0257016Y0204724D03*
X0257016Y0205740D03*
X0257016Y0206079D03*
X0257016Y0206417D03*
X0257016Y0206756D03*
X0257016Y0207094D03*
X0253969Y0207094D03*
X0253969Y0206756D03*
X0253969Y0206417D03*
X0253969Y0206079D03*
X0253969Y0205740D03*
X0253969Y0204724D03*
X0253969Y0204386D03*
X0253969Y0204047D03*
X0253969Y0203709D03*
X0253969Y0203370D03*
X0250583Y0203370D03*
X0250583Y0203709D03*
X0250583Y0204047D03*
X0250583Y0204386D03*
X0250583Y0205063D03*
X0250583Y0205402D03*
X0250583Y0205740D03*
X0250583Y0206079D03*
X0249906Y0206417D03*
X0249906Y0206756D03*
X0248213Y0206756D03*
X0248213Y0206417D03*
X0247535Y0206079D03*
X0247535Y0205740D03*
X0247535Y0205402D03*
X0247535Y0205063D03*
X0247535Y0204386D03*
X0247535Y0204047D03*
X0247535Y0203709D03*
X0247535Y0203370D03*
X0235346Y0204386D03*
X0231622Y0204386D03*
X0231622Y0204724D03*
X0231622Y0204047D03*
X0231622Y0203709D03*
X0231622Y0203370D03*
X0231622Y0205740D03*
X0231622Y0206079D03*
X0231622Y0206417D03*
X0231622Y0206756D03*
X0231622Y0207094D03*
X0228575Y0207094D03*
X0228575Y0206756D03*
X0228575Y0206417D03*
X0228575Y0206079D03*
X0228575Y0205740D03*
X0228575Y0204724D03*
X0228575Y0204386D03*
X0228575Y0204047D03*
X0228575Y0203709D03*
X0228575Y0203370D03*
X0225189Y0204047D03*
X0225189Y0204386D03*
X0225189Y0204724D03*
X0225189Y0205740D03*
X0225189Y0206079D03*
X0225189Y0206417D03*
X0225189Y0206756D03*
X0212661Y0206756D03*
X0212661Y0206417D03*
X0212661Y0206079D03*
X0212661Y0205740D03*
X0212661Y0205402D03*
X0212661Y0205063D03*
X0212661Y0204724D03*
X0212661Y0204386D03*
X0212661Y0204047D03*
X0209953Y0204386D03*
X0209614Y0204724D03*
X0209614Y0205063D03*
X0209614Y0205402D03*
X0209614Y0205740D03*
X0209614Y0206079D03*
X0199795Y0205740D03*
X0199795Y0206756D03*
X0190992Y0204386D03*
X0190992Y0171205D03*
X0192346Y0162402D03*
X0267173Y0208787D03*
X0268528Y0209465D03*
X0268528Y0210819D03*
X0266496Y0210480D03*
X0266496Y0212173D03*
X0272929Y0209803D03*
X0264803Y0269055D03*
X0262772Y0288354D03*
X0263449Y0304945D03*
X0088740Y0192535D03*
X0088740Y0192197D03*
X0088740Y0191858D03*
X0088740Y0191520D03*
X0088740Y0191181D03*
X0088740Y0190843D03*
X0088740Y0190504D03*
X0088740Y0190165D03*
X0088740Y0189827D03*
X0088740Y0189488D03*
X0088740Y0189150D03*
X0085354Y0189150D03*
X0085354Y0189488D03*
X0085354Y0189827D03*
X0085354Y0190165D03*
X0085354Y0190843D03*
X0085354Y0191181D03*
X0085354Y0191520D03*
X0085354Y0191858D03*
X0085354Y0192197D03*
X0085354Y0192535D03*
X0082307Y0192197D03*
X0082307Y0191858D03*
X0082307Y0191520D03*
X0082307Y0191181D03*
X0080276Y0191181D03*
X0080276Y0190843D03*
X0079598Y0191520D03*
X0079598Y0191858D03*
X0077906Y0191858D03*
X0077906Y0191520D03*
X0077906Y0191181D03*
X0077906Y0190843D03*
X0077906Y0190165D03*
X0077906Y0189827D03*
X0077906Y0189488D03*
X0077906Y0189150D03*
X0074520Y0189827D03*
X0072150Y0190504D03*
X0072150Y0190843D03*
X0072150Y0191181D03*
X0072150Y0191520D03*
X0072150Y0191858D03*
X0072827Y0192535D03*
X0064701Y0191858D03*
X0064024Y0192535D03*
X0064701Y0189827D03*
X0054543Y0189827D03*
X0054543Y0190165D03*
X0054543Y0190504D03*
X0054543Y0189488D03*
X0054543Y0189150D03*
X0051496Y0189150D03*
X0051496Y0189488D03*
X0051496Y0189827D03*
X0051496Y0190165D03*
X0051496Y0190504D03*
X0049465Y0190504D03*
X0049465Y0190843D03*
X0049465Y0191181D03*
X0049465Y0191520D03*
X0049465Y0191858D03*
X0049465Y0192197D03*
X0049465Y0190165D03*
X0049465Y0189827D03*
X0046417Y0189827D03*
X0046417Y0190165D03*
X0046417Y0190504D03*
X0046417Y0190843D03*
X0046417Y0191181D03*
X0046417Y0191520D03*
X0046417Y0191858D03*
X0046417Y0192197D03*
X0044047Y0192535D03*
X0042016Y0192535D03*
X0041339Y0191858D03*
X0041339Y0191520D03*
X0041339Y0191181D03*
X0041339Y0190843D03*
X0041339Y0190504D03*
X0041677Y0190165D03*
X0033890Y0190165D03*
X0033890Y0189827D03*
X0028811Y0189827D03*
X0028811Y0190165D03*
X0028811Y0190504D03*
X0028811Y0191520D03*
X0028811Y0191858D03*
X0028811Y0192197D03*
X0028811Y0192535D03*
X0051496Y0192874D03*
X0054543Y0192874D03*
D21*
X0063346Y0189150D03*
X0068425Y0189150D03*
X0043370Y0189150D03*
X0043370Y0192874D03*
X0037614Y0189150D03*
X0060976Y0282260D03*
X0060976Y0288016D03*
X0060976Y0294110D03*
X0060976Y0294449D03*
X0075874Y0289709D03*
X0079937Y0289031D03*
X0082646Y0292417D03*
X0082984Y0292079D03*
X0086031Y0292417D03*
X0085693Y0290047D03*
X0085693Y0288354D03*
X0089079Y0291402D03*
X0093142Y0291402D03*
X0093142Y0291063D03*
X0093480Y0289370D03*
X0093480Y0289031D03*
X0097543Y0290386D03*
X0097882Y0290047D03*
X0098220Y0289709D03*
X0098559Y0289370D03*
X0134110Y0288354D03*
X0134110Y0288016D03*
X0139528Y0287339D03*
X0139528Y0287000D03*
X0139528Y0289709D03*
X0139528Y0290047D03*
X0155102Y0287677D03*
X0176772Y0287339D03*
X0176772Y0287000D03*
X0176772Y0289709D03*
X0176772Y0290047D03*
X0180157Y0289370D03*
X0181173Y0220976D03*
X0178465Y0217252D03*
X0173047Y0217252D03*
X0173047Y0217591D03*
X0173047Y0217929D03*
X0173047Y0218268D03*
X0173047Y0216913D03*
X0168307Y0217252D03*
X0168307Y0217591D03*
X0168307Y0217929D03*
X0168307Y0218268D03*
X0163906Y0217929D03*
X0163906Y0214543D03*
X0159843Y0214543D03*
X0159504Y0215559D03*
X0159165Y0216575D03*
X0159165Y0217929D03*
X0161197Y0205740D03*
X0166614Y0207433D03*
X0188961Y0216236D03*
X0189299Y0215898D03*
X0189638Y0215559D03*
X0189976Y0215220D03*
X0190315Y0214882D03*
X0190654Y0214543D03*
X0192685Y0207433D03*
X0211646Y0207433D03*
X0230945Y0188134D03*
X0230945Y0187795D03*
X0230945Y0187118D03*
X0233992Y0187457D03*
X0233992Y0187795D03*
X0233992Y0188134D03*
X0233992Y0188472D03*
X0240764Y0188811D03*
X0240764Y0189150D03*
X0240764Y0187118D03*
X0240764Y0186780D03*
X0244827Y0186780D03*
X0244827Y0187118D03*
X0250244Y0188134D03*
X0250244Y0188472D03*
X0250244Y0188811D03*
X0250244Y0189150D03*
X0250244Y0189488D03*
X0250244Y0189827D03*
X0251598Y0190843D03*
X0251598Y0191181D03*
X0251598Y0187118D03*
X0251598Y0186780D03*
X0237039Y0207433D03*
X0215370Y0170866D03*
X0200134Y0169850D03*
X0200134Y0172898D03*
X0196409Y0170866D03*
X0195732Y0177976D03*
X0195732Y0178315D03*
X0181512Y0173236D03*
X0176772Y0172220D03*
X0167969Y0162740D03*
X0233654Y0169850D03*
X0272929Y0208787D03*
X0264803Y0268378D03*
X0264126Y0270071D03*
X0264126Y0274134D03*
X0264126Y0300882D03*
X0264126Y0332370D03*
X0264126Y0336433D03*
X0167291Y0363520D03*
X0167291Y0365213D03*
X0050480Y0363520D03*
X0050480Y0367244D03*
D22*
X0063008Y0291740D03*
X0060976Y0291063D03*
X0060976Y0288354D03*
X0063685Y0287000D03*
X0064701Y0287677D03*
X0065378Y0290386D03*
X0065039Y0290724D03*
X0063685Y0283614D03*
X0058268Y0283614D03*
X0056575Y0290386D03*
X0056913Y0290724D03*
X0082646Y0292756D03*
X0089079Y0290386D03*
X0111087Y0292756D03*
X0118197Y0289370D03*
X0136819Y0289370D03*
X0140205Y0289370D03*
X0143252Y0289370D03*
X0152394Y0287677D03*
X0158150Y0289370D03*
X0161874Y0289370D03*
X0172031Y0292756D03*
X0174063Y0289370D03*
X0173724Y0357425D03*
X0173724Y0358441D03*
X0215709Y0359795D03*
X0218079Y0359795D03*
X0218079Y0355732D03*
X0215709Y0355732D03*
X0218756Y0364535D03*
X0264126Y0307992D03*
X0264465Y0307654D03*
X0264803Y0307315D03*
X0264803Y0289031D03*
X0264126Y0277181D03*
X0264803Y0268717D03*
X0266496Y0211835D03*
X0266496Y0211496D03*
X0266496Y0211157D03*
X0266496Y0210819D03*
X0268528Y0210480D03*
X0268528Y0210142D03*
X0268528Y0209803D03*
X0267173Y0208110D03*
X0264803Y0190504D03*
X0264803Y0190165D03*
X0264803Y0189827D03*
X0264803Y0189488D03*
X0262772Y0188472D03*
X0262772Y0188134D03*
X0253969Y0188134D03*
X0253969Y0188472D03*
X0253969Y0188811D03*
X0253969Y0189150D03*
X0253969Y0189488D03*
X0253969Y0189827D03*
X0241102Y0189827D03*
X0241102Y0190165D03*
X0241102Y0190504D03*
X0241102Y0189488D03*
X0241102Y0187795D03*
X0241102Y0187457D03*
X0237717Y0187457D03*
X0237717Y0187795D03*
X0231283Y0190504D03*
X0230606Y0186780D03*
X0227898Y0187118D03*
X0227898Y0187457D03*
X0227898Y0188134D03*
X0227898Y0188472D03*
X0224850Y0173236D03*
X0220449Y0170189D03*
X0233992Y0172898D03*
X0233992Y0173236D03*
X0206228Y0172220D03*
X0204535Y0170866D03*
X0195732Y0179669D03*
X0191331Y0179331D03*
X0191331Y0178992D03*
X0190992Y0179669D03*
X0186929Y0173236D03*
X0190992Y0171543D03*
X0182528Y0178315D03*
X0181850Y0164772D03*
X0167969Y0165110D03*
X0159165Y0204047D03*
X0159165Y0204386D03*
X0161535Y0206417D03*
X0164244Y0216575D03*
X0164244Y0216913D03*
X0164244Y0217252D03*
X0192008Y0217929D03*
X0054205Y0192197D03*
X0051835Y0192197D03*
D23*
X0218417Y0192197D03*
X0218417Y0192535D03*
X0218417Y0185764D03*
X0218417Y0185425D03*
X0218417Y0185087D03*
X0218417Y0184748D03*
X0218417Y0184409D03*
D24*
X0193701Y0186102D03*
X0193701Y0186441D03*
X0193701Y0186780D03*
X0193701Y0187118D03*
X0193701Y0187457D03*
X0193701Y0187795D03*
X0193701Y0188134D03*
X0193701Y0188472D03*
X0193701Y0188811D03*
X0193701Y0189150D03*
X0193701Y0189488D03*
X0193701Y0189827D03*
X0193701Y0190165D03*
X0193701Y0190504D03*
X0193701Y0190843D03*
X0193701Y0191181D03*
X0193701Y0191520D03*
D25*
X0254307Y0191520D03*
X0254307Y0186441D03*
X0254307Y0186102D03*
D26*
X0239409Y0188134D03*
X0239409Y0188472D03*
X0229591Y0186441D03*
X0229591Y0190843D03*
X0229591Y0191520D03*
X0179819Y0220638D03*
X0097882Y0288693D03*
X0084677Y0291063D03*
X0084677Y0291402D03*
X0078244Y0291740D03*
X0077906Y0288016D03*
D27*
X0091110Y0287677D03*
X0109732Y0287677D03*
X0116843Y0292756D03*
X0161535Y0220299D03*
X0161535Y0212850D03*
X0204535Y0211835D03*
X0211984Y0211835D03*
X0250583Y0220299D03*
X0273606Y0191181D03*
X0273606Y0190843D03*
X0273606Y0187118D03*
X0273606Y0186780D03*
X0178803Y0292756D03*
D28*
X0135803Y0289031D03*
X0135803Y0288693D03*
X0098220Y0287339D03*
X0090772Y0287339D03*
X0054882Y0365213D03*
X0054882Y0365551D03*
X0044724Y0365551D03*
X0044724Y0365213D03*
X0044724Y0365890D03*
X0044724Y0366228D03*
X0168646Y0218945D03*
X0198441Y0207433D03*
X0198441Y0207094D03*
X0198441Y0203709D03*
X0198441Y0203370D03*
X0204197Y0215559D03*
X0204197Y0215898D03*
X0204874Y0220299D03*
X0217402Y0203709D03*
X0217402Y0203370D03*
X0223835Y0203709D03*
X0223835Y0207433D03*
X0227559Y0212850D03*
X0227559Y0213189D03*
X0227559Y0213528D03*
X0227559Y0213866D03*
X0227559Y0214205D03*
X0227559Y0214543D03*
X0227559Y0214882D03*
X0227559Y0216913D03*
X0227559Y0217252D03*
X0227559Y0217591D03*
X0227559Y0217929D03*
X0227559Y0218268D03*
X0227559Y0218606D03*
X0227559Y0218945D03*
X0227559Y0219283D03*
X0233315Y0220299D03*
X0243472Y0220299D03*
X0243472Y0220638D03*
X0243472Y0220976D03*
X0242795Y0205402D03*
X0242795Y0205063D03*
X0245504Y0190504D03*
X0245504Y0190165D03*
X0245504Y0189827D03*
X0245504Y0189488D03*
X0245504Y0189150D03*
X0245504Y0188811D03*
X0245504Y0188472D03*
X0245504Y0188134D03*
X0245504Y0187795D03*
X0245504Y0187457D03*
X0234669Y0190843D03*
X0234669Y0191181D03*
X0229591Y0191181D03*
X0258370Y0190504D03*
X0258370Y0190165D03*
X0258370Y0189827D03*
X0258370Y0189488D03*
X0258370Y0188472D03*
X0258370Y0188134D03*
X0258370Y0187795D03*
X0258370Y0187457D03*
X0269205Y0188134D03*
X0269205Y0188472D03*
X0269205Y0188811D03*
X0269205Y0189150D03*
X0269205Y0189488D03*
X0269205Y0189827D03*
X0273945Y0190165D03*
X0273945Y0190504D03*
X0273945Y0187795D03*
X0273945Y0187457D03*
X0264126Y0264992D03*
X0264126Y0265331D03*
X0264126Y0265669D03*
X0264126Y0266008D03*
X0264126Y0270748D03*
X0264126Y0271087D03*
X0264126Y0273118D03*
X0264126Y0273457D03*
X0264126Y0275150D03*
X0264126Y0275488D03*
X0264126Y0275827D03*
X0264126Y0276165D03*
X0264126Y0278197D03*
X0264126Y0278535D03*
X0264126Y0278874D03*
X0264126Y0280228D03*
X0264126Y0280567D03*
X0264126Y0280906D03*
X0264126Y0281244D03*
X0264126Y0285307D03*
X0264126Y0285646D03*
X0264126Y0285984D03*
X0264126Y0286323D03*
X0264126Y0301559D03*
X0264126Y0301898D03*
X0264126Y0303929D03*
X0264126Y0304268D03*
X0264126Y0305961D03*
X0264126Y0306299D03*
X0264126Y0306638D03*
X0264126Y0306976D03*
X0264126Y0309008D03*
X0264126Y0309346D03*
X0264126Y0309685D03*
X0264126Y0310024D03*
X0264126Y0333047D03*
X0264126Y0333386D03*
X0264126Y0335417D03*
X0264126Y0335756D03*
X0264126Y0337449D03*
X0264126Y0337787D03*
X0264126Y0338126D03*
X0264126Y0338465D03*
X0264126Y0342528D03*
X0264126Y0342866D03*
X0264126Y0343205D03*
X0264126Y0343543D03*
X0219772Y0365213D03*
X0219772Y0365551D03*
X0032535Y0189488D03*
X0032535Y0189150D03*
X0027457Y0189150D03*
X0027457Y0189488D03*
X0027457Y0192874D03*
D29*
X0078244Y0291402D03*
X0098220Y0291402D03*
X0098220Y0291740D03*
X0098559Y0292417D03*
X0161874Y0219622D03*
X0161874Y0213528D03*
X0180496Y0215898D03*
X0188622Y0220976D03*
X0235685Y0189827D03*
X0235685Y0189488D03*
D30*
X0230098Y0205063D03*
X0230098Y0205402D03*
X0223665Y0207094D03*
X0223665Y0203370D03*
X0212492Y0216236D03*
X0212492Y0216575D03*
X0205043Y0220638D03*
X0205043Y0220976D03*
X0204028Y0215220D03*
X0186760Y0214543D03*
X0171185Y0220638D03*
X0160350Y0205402D03*
X0160350Y0205063D03*
X0166106Y0287000D03*
X0166106Y0287339D03*
X0166106Y0287677D03*
X0166106Y0289709D03*
X0166106Y0290047D03*
X0160012Y0292756D03*
X0146807Y0292756D03*
X0142067Y0289031D03*
X0142067Y0288693D03*
X0135634Y0292756D03*
X0179311Y0289031D03*
X0179311Y0288693D03*
X0233484Y0220976D03*
X0233484Y0220638D03*
X0249059Y0204724D03*
X0255492Y0205063D03*
X0255492Y0205402D03*
X0091280Y0292417D03*
X0078075Y0292417D03*
X0077736Y0287677D03*
X0061146Y0284291D03*
X0053020Y0191858D03*
X0053020Y0191520D03*
X0053020Y0191181D03*
X0053020Y0190843D03*
X0078752Y0190504D03*
D31*
X0193870Y0191858D03*
D32*
X0254138Y0191858D03*
D33*
X0218417Y0192874D03*
X0218417Y0193213D03*
D34*
X0218417Y0193551D03*
D35*
X0218417Y0193890D03*
D36*
X0218417Y0194228D03*
D37*
X0218417Y0194567D03*
D38*
X0270390Y0203031D03*
D39*
X0208429Y0209465D03*
X0208429Y0209803D03*
X0208429Y0210142D03*
X0208429Y0210480D03*
X0208429Y0210819D03*
X0208429Y0221315D03*
X0208429Y0221654D03*
X0208429Y0221992D03*
X0208429Y0222331D03*
D40*
X0241780Y0222331D03*
X0241780Y0222669D03*
X0241780Y0221992D03*
X0241780Y0221654D03*
X0241780Y0221315D03*
X0241780Y0210819D03*
X0241780Y0210480D03*
X0241780Y0210142D03*
X0241780Y0209803D03*
X0241780Y0209465D03*
D41*
X0250752Y0220638D03*
X0250752Y0220976D03*
X0212154Y0220976D03*
X0212154Y0220638D03*
X0212154Y0220299D03*
X0212154Y0211496D03*
X0212154Y0211157D03*
X0204705Y0211157D03*
X0204705Y0211496D03*
X0160350Y0288693D03*
X0160350Y0289031D03*
X0160350Y0292079D03*
X0160350Y0292417D03*
X0153917Y0292417D03*
X0153917Y0292079D03*
X0153917Y0290047D03*
X0153917Y0289709D03*
X0153917Y0287339D03*
X0153917Y0287000D03*
X0147823Y0289709D03*
X0147823Y0290047D03*
X0141728Y0292079D03*
X0141728Y0292417D03*
X0135295Y0292417D03*
X0135295Y0292079D03*
X0116673Y0292079D03*
X0116673Y0292417D03*
X0116673Y0289031D03*
X0116673Y0288693D03*
X0109902Y0287339D03*
X0109902Y0287000D03*
X0109902Y0292079D03*
X0109902Y0292417D03*
X0097713Y0289031D03*
X0091280Y0288016D03*
X0078075Y0292079D03*
X0178972Y0292079D03*
X0178972Y0292417D03*
D42*
X0171354Y0219961D03*
X0161874Y0219283D03*
X0161874Y0214205D03*
X0179480Y0212850D03*
X0179480Y0212512D03*
X0179819Y0213528D03*
X0179819Y0213866D03*
X0060976Y0291402D03*
D43*
X0078075Y0291063D03*
X0078075Y0288693D03*
X0091280Y0289709D03*
X0091280Y0290047D03*
X0162043Y0213866D03*
X0171185Y0215898D03*
X0171524Y0220299D03*
X0179650Y0213189D03*
X0180665Y0215559D03*
X0180327Y0216236D03*
X0180327Y0216575D03*
X0180327Y0216913D03*
X0189130Y0212512D03*
D44*
X0188453Y0212850D03*
X0188453Y0213189D03*
X0188453Y0213528D03*
X0188453Y0213866D03*
X0188453Y0214205D03*
X0189130Y0219283D03*
X0189130Y0219622D03*
X0189130Y0219961D03*
X0189130Y0220299D03*
X0170846Y0219283D03*
X0195563Y0290386D03*
X0195563Y0295126D03*
X0195563Y0295465D03*
D45*
X0172201Y0289031D03*
X0172201Y0288693D03*
X0147484Y0287339D03*
X0147484Y0287000D03*
X0147484Y0292079D03*
X0147484Y0292417D03*
X0098728Y0292756D03*
X0098728Y0293094D03*
X0098390Y0292079D03*
X0098390Y0291063D03*
X0097713Y0288354D03*
X0097713Y0288016D03*
X0097713Y0287677D03*
X0091280Y0292079D03*
X0084508Y0291740D03*
X0078075Y0288354D03*
X0161705Y0219961D03*
X0161705Y0213189D03*
X0171524Y0215220D03*
X0171524Y0215559D03*
X0203350Y0214882D03*
X0203350Y0214543D03*
X0251768Y0216913D03*
X0251768Y0217252D03*
X0251768Y0217591D03*
D46*
X0270051Y0213528D03*
D47*
X0269882Y0213866D03*
X0195394Y0296819D03*
X0047094Y0356071D03*
X0047094Y0358441D03*
D48*
X0269713Y0220638D03*
X0269713Y0220299D03*
X0269713Y0219961D03*
X0269713Y0214205D03*
D49*
X0195902Y0289709D03*
X0178972Y0220299D03*
X0179311Y0219283D03*
X0179311Y0218945D03*
X0170846Y0216575D03*
X0170846Y0216236D03*
X0162043Y0218945D03*
D50*
X0188961Y0218945D03*
X0188961Y0218606D03*
X0060976Y0293433D03*
D51*
X0171016Y0219622D03*
X0179142Y0219622D03*
X0179142Y0219961D03*
X0189299Y0220638D03*
X0195732Y0290047D03*
D52*
X0269713Y0222331D03*
D53*
X0208260Y0222669D03*
D54*
X0269713Y0222669D03*
D55*
X0195902Y0281583D03*
D56*
X0195394Y0297157D03*
D57*
X0047094Y0356409D03*
D58*
X0047094Y0360472D03*
X0168307Y0358102D03*
X0168307Y0357764D03*
D59*
X0047094Y0360134D03*
D60*
X0062480Y0351740D02*
X0061496Y0349772D01*
X0153622Y0349772D01*
X0152638Y0351740D01*
X0184134Y0351740D01*
X0183150Y0349772D01*
X0203228Y0349772D01*
X0202244Y0351740D01*
X0233740Y0351740D01*
X0232756Y0349772D01*
X0249094Y0349772D01*
X0249379Y0349769D01*
X0249665Y0349758D01*
X0249950Y0349741D01*
X0250234Y0349717D01*
X0250518Y0349686D01*
X0250801Y0349648D01*
X0251082Y0349603D01*
X0251363Y0349552D01*
X0251643Y0349494D01*
X0251921Y0349429D01*
X0252197Y0349357D01*
X0252471Y0349279D01*
X0252744Y0349194D01*
X0253014Y0349102D01*
X0253282Y0349004D01*
X0253548Y0348900D01*
X0253811Y0348789D01*
X0254071Y0348672D01*
X0254329Y0348549D01*
X0254583Y0348419D01*
X0254834Y0348283D01*
X0255082Y0348142D01*
X0255326Y0347994D01*
X0255567Y0347841D01*
X0255803Y0347681D01*
X0256036Y0347516D01*
X0256265Y0347346D01*
X0256490Y0347170D01*
X0256710Y0346988D01*
X0256926Y0346802D01*
X0257137Y0346610D01*
X0257344Y0346413D01*
X0257546Y0346211D01*
X0257743Y0346004D01*
X0257935Y0345793D01*
X0258121Y0345577D01*
X0258303Y0345357D01*
X0258479Y0345132D01*
X0258649Y0344903D01*
X0258814Y0344670D01*
X0258974Y0344434D01*
X0259127Y0344193D01*
X0259275Y0343949D01*
X0259416Y0343701D01*
X0259552Y0343450D01*
X0259682Y0343196D01*
X0259805Y0342938D01*
X0259922Y0342678D01*
X0260033Y0342415D01*
X0260137Y0342149D01*
X0260235Y0341881D01*
X0260327Y0341611D01*
X0260412Y0341338D01*
X0260490Y0341064D01*
X0260562Y0340788D01*
X0260627Y0340510D01*
X0260685Y0340230D01*
X0260736Y0339949D01*
X0260781Y0339668D01*
X0260819Y0339385D01*
X0260850Y0339101D01*
X0260874Y0338817D01*
X0260891Y0338532D01*
X0260902Y0338246D01*
X0260905Y0337961D01*
X0260906Y0337961D02*
X0260906Y0243472D01*
X0260905Y0243472D02*
X0260902Y0243187D01*
X0260891Y0242901D01*
X0260874Y0242616D01*
X0260850Y0242332D01*
X0260819Y0242048D01*
X0260781Y0241765D01*
X0260736Y0241484D01*
X0260685Y0241203D01*
X0260627Y0240923D01*
X0260562Y0240645D01*
X0260490Y0240369D01*
X0260412Y0240095D01*
X0260327Y0239822D01*
X0260235Y0239552D01*
X0260137Y0239284D01*
X0260033Y0239018D01*
X0259922Y0238755D01*
X0259805Y0238495D01*
X0259682Y0238237D01*
X0259552Y0237983D01*
X0259416Y0237732D01*
X0259275Y0237484D01*
X0259127Y0237240D01*
X0258974Y0236999D01*
X0258814Y0236763D01*
X0258649Y0236530D01*
X0258479Y0236301D01*
X0258303Y0236076D01*
X0258121Y0235856D01*
X0257935Y0235640D01*
X0257743Y0235429D01*
X0257546Y0235222D01*
X0257344Y0235020D01*
X0257137Y0234823D01*
X0256926Y0234631D01*
X0256710Y0234445D01*
X0256490Y0234263D01*
X0256265Y0234087D01*
X0256036Y0233917D01*
X0255803Y0233752D01*
X0255567Y0233592D01*
X0255326Y0233439D01*
X0255082Y0233291D01*
X0254834Y0233150D01*
X0254583Y0233014D01*
X0254329Y0232884D01*
X0254071Y0232761D01*
X0253811Y0232644D01*
X0253548Y0232533D01*
X0253282Y0232429D01*
X0253014Y0232331D01*
X0252744Y0232239D01*
X0252471Y0232154D01*
X0252197Y0232076D01*
X0251921Y0232004D01*
X0251643Y0231939D01*
X0251363Y0231881D01*
X0251082Y0231830D01*
X0250801Y0231785D01*
X0250518Y0231747D01*
X0250234Y0231716D01*
X0249950Y0231692D01*
X0249665Y0231675D01*
X0249379Y0231664D01*
X0249094Y0231661D01*
X0016811Y0231661D01*
X0016526Y0231664D01*
X0016240Y0231675D01*
X0015955Y0231692D01*
X0015671Y0231716D01*
X0015387Y0231747D01*
X0015104Y0231785D01*
X0014823Y0231830D01*
X0014542Y0231881D01*
X0014262Y0231939D01*
X0013984Y0232004D01*
X0013708Y0232076D01*
X0013434Y0232154D01*
X0013161Y0232239D01*
X0012891Y0232331D01*
X0012623Y0232429D01*
X0012357Y0232533D01*
X0012094Y0232644D01*
X0011834Y0232761D01*
X0011576Y0232884D01*
X0011322Y0233014D01*
X0011071Y0233150D01*
X0010823Y0233291D01*
X0010579Y0233439D01*
X0010338Y0233592D01*
X0010102Y0233752D01*
X0009869Y0233917D01*
X0009640Y0234087D01*
X0009415Y0234263D01*
X0009195Y0234445D01*
X0008979Y0234631D01*
X0008768Y0234823D01*
X0008561Y0235020D01*
X0008359Y0235222D01*
X0008162Y0235429D01*
X0007970Y0235640D01*
X0007784Y0235856D01*
X0007602Y0236076D01*
X0007426Y0236301D01*
X0007256Y0236530D01*
X0007091Y0236763D01*
X0006931Y0236999D01*
X0006778Y0237240D01*
X0006630Y0237484D01*
X0006489Y0237732D01*
X0006353Y0237983D01*
X0006223Y0238237D01*
X0006100Y0238495D01*
X0005983Y0238755D01*
X0005872Y0239018D01*
X0005768Y0239284D01*
X0005670Y0239552D01*
X0005578Y0239822D01*
X0005493Y0240095D01*
X0005415Y0240369D01*
X0005343Y0240645D01*
X0005278Y0240923D01*
X0005220Y0241203D01*
X0005169Y0241484D01*
X0005124Y0241765D01*
X0005086Y0242048D01*
X0005055Y0242332D01*
X0005031Y0242616D01*
X0005014Y0242901D01*
X0005003Y0243187D01*
X0005000Y0243472D01*
X0005000Y0337961D01*
X0005003Y0338246D01*
X0005014Y0338532D01*
X0005031Y0338817D01*
X0005055Y0339101D01*
X0005086Y0339385D01*
X0005124Y0339668D01*
X0005169Y0339949D01*
X0005220Y0340230D01*
X0005278Y0340510D01*
X0005343Y0340788D01*
X0005415Y0341064D01*
X0005493Y0341338D01*
X0005578Y0341611D01*
X0005670Y0341881D01*
X0005768Y0342149D01*
X0005872Y0342415D01*
X0005983Y0342678D01*
X0006100Y0342938D01*
X0006223Y0343196D01*
X0006353Y0343450D01*
X0006489Y0343701D01*
X0006630Y0343949D01*
X0006778Y0344193D01*
X0006931Y0344434D01*
X0007091Y0344670D01*
X0007256Y0344903D01*
X0007426Y0345132D01*
X0007602Y0345357D01*
X0007784Y0345577D01*
X0007970Y0345793D01*
X0008162Y0346004D01*
X0008359Y0346211D01*
X0008561Y0346413D01*
X0008768Y0346610D01*
X0008979Y0346802D01*
X0009195Y0346988D01*
X0009415Y0347170D01*
X0009640Y0347346D01*
X0009869Y0347516D01*
X0010102Y0347681D01*
X0010338Y0347841D01*
X0010579Y0347994D01*
X0010823Y0348142D01*
X0011071Y0348283D01*
X0011322Y0348419D01*
X0011576Y0348549D01*
X0011834Y0348672D01*
X0012094Y0348789D01*
X0012357Y0348900D01*
X0012623Y0349004D01*
X0012891Y0349102D01*
X0013161Y0349194D01*
X0013434Y0349279D01*
X0013708Y0349357D01*
X0013984Y0349429D01*
X0014262Y0349494D01*
X0014542Y0349552D01*
X0014823Y0349603D01*
X0015104Y0349648D01*
X0015387Y0349686D01*
X0015671Y0349717D01*
X0015955Y0349741D01*
X0016240Y0349758D01*
X0016526Y0349769D01*
X0016811Y0349772D01*
X0031969Y0349772D01*
X0030984Y0351740D01*
X0062480Y0351740D01*
X0039203Y0256691D02*
X0036703Y0256691D01*
X0036703Y0255441D01*
X0039203Y0255441D01*
X0039203Y0256691D01*
X0039203Y0255441D02*
X0042953Y0255441D01*
X0042953Y0245441D01*
X0032953Y0245441D01*
X0032953Y0255441D01*
X0036703Y0255441D01*
X0032953Y0245441D02*
X0032953Y0235441D01*
X0232953Y0235441D01*
X0232953Y0255441D01*
X0042953Y0255441D01*
X0146931Y0189070D02*
X0146931Y0187802D01*
X0146931Y0188436D02*
X0148833Y0188436D01*
X0148199Y0187802D01*
X0148833Y0186860D02*
X0148833Y0186226D01*
X0148833Y0186543D02*
X0147248Y0186543D01*
X0146931Y0186226D01*
X0146931Y0185909D01*
X0147248Y0185593D01*
D61*
X0040186Y0257891D02*
X0037784Y0257891D01*
X0038985Y0257891D02*
X0038985Y0261494D01*
X0040186Y0260293D01*
D62*
X0007185Y0224693D02*
X0109547Y0224693D01*
X0109547Y0157764D01*
X0007185Y0157764D01*
X0007185Y0224693D01*
D63*
X0274907Y0290670D03*
X0274907Y0296470D03*
D64*
X0274902Y0277449D03*
D65*
X0275205Y0307461D02*
X0271843Y0307461D01*
X0279142Y0310520D02*
X0279142Y0331780D01*
X0275205Y0334839D02*
X0271843Y0334839D01*
X0267906Y0327555D02*
X0267906Y0320650D01*
X0151492Y0198717D02*
X0151492Y0182969D01*
X0135744Y0175094D02*
X0121965Y0175094D01*
X0121965Y0178244D01*
X0131807Y0178244D01*
X0131807Y0182969D01*
X0131807Y0198717D02*
X0131807Y0203441D01*
X0121965Y0203441D01*
X0121965Y0206591D01*
X0135744Y0206591D01*
M02*
